<svg xmlns="http://www.w3.org/2000/svg" viewBox="0 0 295.39491 417.88994"><defs><style>.cls-1{fill:#24373e;}</style></defs><g id="Слой_2" data-name="Слой 2"><g id="Слой_1-2" data-name="Слой 1"><path class="cls-1" d="M147.93976,386.52125c-.00342.83364-.00689,1.68183-.01025,2.51282a3.33359,3.33359,0,0,0,.04.57693,2.86209,2.86209,0,0,0,.06335-.57207q.06616-3.24921.13266-6.51252a3.95454,3.95454,0,0,0-.26-2.085C147.99258,383.06849,147.98343,383.10554,147.93976,386.52125Z"/><path class="cls-1" d="M147.68509,415.954l-.00137-.32993C147.68405,415.79384,147.68454,415.87456,147.68509,415.954Z"/><path class="cls-1" d="M147.69573,417.79325l-.00325-.7463-.00739-1.093.00419.98316C147.69358,417.54669,147.69805,418.1245,147.69573,417.79325Z"/><path class="cls-1" d="M148.46911,363.84366a2.32953,2.32953,0,0,0,.02834.2792l.0279-.39961-.00882-.40977C148.49982,363.489,148.47892,363.65664,148.46911,363.84366Z"/><path class="cls-1" d="M286.73911,50.822c-1.33056,1.37087-2.659,2.77129-3.88308,4.20215-1.01062,1.18253-2,2.23847-3.13265,3.3791a45.58092,45.58092,0,0,0-6.076,6.77849A4.42036,4.42036,0,0,1,271.941,66.725a3.21391,3.21391,0,0,0-1.35681,1.16489,10.985,10.985,0,0,1-2.02593,2.23186,38.63089,38.63089,0,0,0-3.6191,3.66315,13.00238,13.00238,0,0,1-1.09713,1.01227c-.45817-.55487.899-2.19965.6008-2.77746-.96116.41593-1.649,1.60155-2.53835,2.21244a10.19277,10.19277,0,0,0-2.91321,2.61648c.23984.15658.6002.20819.65291.5015a3.134,3.134,0,0,1-.78115,1.11461,27.219,27.219,0,0,1-2.667,2.40476c-1.64291,1.19973-2.823,3.028-4.54791,4.12672a8.87993,8.87993,0,0,0-1.29412,1.56142,30.40633,30.40633,0,0,1-7.01231,5.7693,9.5602,9.5602,0,0,0-4.21737,3.45056,6.92769,6.92769,0,0,1-2.622,2.38491,5.81127,5.81127,0,0,0-2.34825,2.59839,4.90428,4.90428,0,0,1-1.40522,2.39108,15.54653,15.54653,0,0,1-1.77495.988,5.52425,5.52425,0,0,0-2.07246,1.37748,16.47817,16.47817,0,0,1-5.37967,3.9,4.73945,4.73945,0,0,0-2.327,1.95133c-.79581,1.57994-2.62618,2.23759-3.47933,3.784-.89627,1.65007-2.7536,1.95662-4.09133,3.03285a7.94229,7.94229,0,0,0-1.21324.98228c-2.42351,2.99845-5.71941,5.04594-8.40276,7.75415-2.68573,2.72719-6.05016,4.76806-8.29249,7.957-.26608.37845-.85145.57252-1.263.88922a57.78813,57.78813,0,0,0-7.47015,6.569,18.281,18.281,0,0,1-1.45947,1.50011c-5.28925,4.563-10.63544,9.06195-15.87093,13.68269q-5.00215,4.3918-9.92272,8.87228c.56922-11.70356,1.0914-23.408,1.48368-35.10849.30341-8.98124.21607-17.95718.16937-26.93-.03991-8.63455-.29072-17.25806-.39206-25.89349-.10161-8.63631-.01792-17.285-.181-25.92128A145.61072,145.61072,0,0,1,161.344,36.2686a117.92413,117.92413,0,0,0-.05983-23.32774A16.36524,16.36524,0,0,0,156.182,2.49c-3.24882-3.12195-8.69812-3.81665-12.2381.90024a15.67387,15.67387,0,0,0-3.17907,8.02586c-.69839,6.91125-1.52056,13.80883-1.97405,20.73244-.55228,8.4365-.86644,16.88711-1.44381,25.31612-.65511,9.61947-1.09569,19.2535-1.4968,28.88488-.27336,6.58795-.46142,13.18206-.63146,19.77442q-.1568,6.08555-.23427,12.17508c-.06936,5.41114-.14076,10.821-.1106,16.237.02481,4.40328.18123,8.81494.265,13.2222.07984,4.23523.03617,8.4687.23835,12.70349l.09742,1.97118q-15.92115-16.34658-32.54583-32.03022c-6.76669-6.33829-13.81931-12.39826-20.84282-18.48205q-10.19238-8.73-20.37737-17.453C54.93877,88.621,48.22875,82.70089,41.42623,76.88528,37.151,73.22962,32.97175,69.499,28.821,65.73129c-5.96712-5.41864-12.218-10.53691-18.45834-15.6296C7.15225,47.48918,4.24345,45.26,1.9139,43.26939c-2.49177-2.07174-2.73987-2.82114.38627.91039,1.63662,1.95838,3.30566,4.10952,5.21641,6.44679,4.51477,5.5298,8.91915,11.14472,13.34537,16.77553,5.39472,6.85965,10.81336,13.71753,16.08458,20.68348Q45.94749,100.03239,54.96435,112q6.16974,8.17694,12.34533,16.36224l7.646,10.03144c3.42718,4.43107,6.82017,8.893,10.31759,13.2641,2.827,3.57008,5.78871,7.02505,8.68075,10.53868,2.77317,3.38263,5.47114,6.83406,8.35557,10.11083l8.34288,9.29749,8.42558,9.21941,4.24924,4.57531,6.63949,7.08768,4.42711,4.70851,1.10622,1.1768.55311.58795c.18459.21084.36985.45079.55471.67485l1.277,1.572.0069.13894c.059,1.18517.18883,2.369.27969,3.5542.20852,2.70911.44489,5.41688.60268,8.12819q.42931,7.36314.77327,14.72892l.44521,10.67365c.1498,3.3844.51683,6.76526.481,10.15539a7.7159,7.7159,0,0,0,.15091,1.50187,48.64439,48.64439,0,0,1,.46892,5.54214c.15658,2.01044.11617,4.03234.4607,6.04542a32.13341,32.13341,0,0,1,.28808,9.39232,12.58932,12.58932,0,0,0,.00359,1.95442l.22665,4.06718,1.01063,18.782.3238,5.57478c.10691,1.85871.11612,3.8515.34917,5.53995a52.0232,52.0232,0,0,1,.12863,5.46054c.02746.67132.09472,1.34088.13927,2.01264.19033,2.84363.43567,5.70844.53012,8.526.13861,4.07071.30815,8.12378.49472,12.18346.07659,1.6933.08023,3.5.22738,5.05873.21784,2.3311.30346,4.59074.33891,6.94566.00739.49268.04455,1.01051.07289,1.51157.10972,2.01264.219,4.01734.3291,6.0366.0934,2.014.14688,4.05968.306,5.99645.15708,1.98486.06567,4.02352.18652,6.04189.04642.81335.05425,1.75638.10933,2.50356.20885,2.89789.263,5.97352.3618,8.99888q.08791,2.78143.17555,5.55229c.05838,2.01132.11655,4.01646.17494,6.02689q.10056,4.27538.20108,8.55207l.02541.82c.04477.01456.057.195.06137,1.209.01588,1.42291.029,2.60941.04422,3.97058.01036.63074.0172,1.04227.02012,1.22046.00039-.62986.00072-1.13224.00121-2.0563-.00165-2.67558-.00331-5.33-.0049-7.97866.00689-1.8543.00854-3.72756-.016-5.55318-.02067-1.508-.02255-2.91244-.01169-4.47209.01478-2.91994.08932-5.97043-.06825-8.83259a13.99074,13.99074,0,0,1,.05171-2.22612,10.04115,10.04115,0,0,0,.05448-1.72594c-.05222-.98184-.04621-1.89884-.01721-2.92523.04582-1.6289.05812-3.30412.0359-4.99653-.00607-.45872.01957-.947.032-1.44542.21939.0869.25969,2.152.44472,2.3611.1283-.93333.03645-2.22877.10889-3.25251a30.76272,30.76272,0,0,0,.11231-3.78754c-.08854.0494-.18227.25273-.25693.08071a9.02925,9.02925,0,0,1-.05916-1.30735c.018-1.16709.032-2.39329.099-3.47393.12482-1.94119.00121-4.01778.17009-5.94221.04411-.48651-.02691-1.29544-.03711-1.96456a80.00634,80.00634,0,0,1,.418-8.74349,25.10541,25.10541,0,0,0,.26989-5.24486,17.96031,17.96031,0,0,1,.11655-3.43027,14.85853,14.85853,0,0,0-.00722-3.3985,11.622,11.622,0,0,1-.21012-2.624c.04389-.367.11667-1.18606.23625-1.87987a13.074,13.074,0,0,0,.22374-2.35271,37.92791,37.92791,0,0,1,.519-6.33609,11.18639,11.18639,0,0,0,.16314-2.92744c-.1831-1.64566.181-3.32881.02421-4.989a26.875,26.875,0,0,1,.40838-4.866c.03358-.50282.11088-1.022.10239-1.50143-.07366-3.73108.375-7.37173.47327-11.07106.08552-3.71387.59607-7.39555.41522-11.14075a11.8537,11.8537,0,0,1,.16166-1.46879c.28554-3.18238.54958-6.37446.595-9.61286.00938-.67661.00767-1.36116.05426-2.0316q.76218-10.11614,1.52431-20.23005.80262-10.64477,1.60668-21.30849.67932-9.59213,1.35951-19.1966l2.48708-3.193,2.88156-3.23311c1.91577-2.1454,3.82089-4.26566,5.7414-6.35549l11.01135-12.19272L186.349,178.698c2.33832-2.58736,4.36651-5.46275,6.96468-7.81326a4.14043,4.14043,0,0,0,.90614-1.27251c.83535-1.77975,2.29438-3.06637,3.4623-4.58368,1.27521-1.64434,2.851-3.02139,3.82133-4.95772a16.15522,16.15522,0,0,1,6.56043-7.11415,6.1212,6.1212,0,0,0,1.45088-1.39954c.91038-1.06167,1.77727-2.16393,2.66587-3.24633q6.14005-7.5087,12.228-15.06679c1.20718-1.49526,2.371-3.028,3.54291-4.55369a31.522,31.522,0,0,0,3.44895-4.593c.97423-1.92751,2.5877-2.72895,3.77971-4.16863.44235-.53326.8075-1.1371,1.21727-1.70212,1.73768-2.38888,3.34442-4.93037,5.22754-7.145,2.70811-3.21061,5.33181-6.47635,7.90545-9.79811a40.88472,40.88472,0,0,0,3.21325-4.13423,32.36682,32.36682,0,0,1,4.32086-5.7618,12.46171,12.46171,0,0,0,.93674-1.25708c1.20569-1.71358,2.39136-3.43379,3.63961-5.11694a57.24946,57.24946,0,0,0,3.628-5.07064c1.06024-1.81062,2.7456-3.10872,3.91413-4.86465.47361-.70528,1.1323-1.41939,1.536-2.09733a80.81037,80.81037,0,0,1,5.56084-7.49965q1.76254-2.27662,3.51848-4.54531,1.91926-2.46187,3.83457-4.91846,2.76084-3.451,5.52257-6.90375c.18823-.232.33963-.4552.50945-.68059-.12-.13365-.02719-.30125.679-1.07182.98041-1.08858,1.745-2.05013,2.68054-3.095.44665-.50857.727-.86408.804-.97567-.44786.472-.804.84731-1.461,1.53981C290.50267,46.86109,288.64066,48.86535,286.73911,50.822ZM147.09945,386.11458c-.00937-.12527-.02558-.25539-.02723-.37492-.0032-.45078-.0064-.898-.01335-1.87105.03733.887.05348,1.27163.06986,1.6611C147.13253,385.71981,147.10976,385.91918,147.09945,386.11458Zm.67965-30.68228a7.27987,7.27987,0,0,1-.04284-1.05726A8.1347,8.1347,0,0,1,147.7791,355.4323Zm.51788-15.14971c-.18586,1.0952-.28973,2.28037-.38931,3.51319-.00755.09351-.07382.19142-.0881.13541a5.52365,5.52365,0,0,1-.11788-.6625c-.01527-.1235-.0027-.3286-.00265-.554a25.03026,25.03026,0,0,0,.06468-3.37027c-.0563-.93024.05408-1.68713.16474-1.58789a.69275.69275,0,0,1,.19.37713A6.09674,6.09674,0,0,1,148.297,340.28259Zm.72072-14.39723c-.031.50591-.10095,1.64875-.16959,2.77041a.35286.35286,0,0,1-.20257.277.89276.89276,0,0,1-.0703-.36742l.13486-5.90648c.00265-.10277.0698-.2942.09235-.27038a.60225.60225,0,0,1,.20207.3758C149.027,323.57058,149.01654,324.39672,149.0177,325.88536Zm81.52006-218.99927-4.39027,4.22421c-.07691.07321-.33847.09792-.36438.03925-.08579-.19451-.23151-.51121-.12284-.64794.51876-.65236,1.11383-1.26149,2.14744-2.39506.40927-.33036,1.32246-1.08814,2.26047-1.79121.12979-.097.4231.06131.58917.16319C230.70769,106.50941,230.63039,106.79567,230.53776,106.88609Zm12.098-9.41393a2.36561,2.36561,0,0,1-.38632.42079,9.46242,9.46242,0,0,0-2.51426,2.40167c-.54258.80585-1.30162,1.1618-1.45572.876a.96387.96387,0,0,1-.12009-.64706c.14065-.69558.43358-1.67566,1.14543-1.96368a17.99908,17.99908,0,0,0,3.27478-1.88693c.08171-.05558.28863.00132.279.071A2.7158,2.7158,0,0,1,242.63576,97.47216Zm7.77478-8.39592c-.01555-.05911-.06484-.14732-.04141-.17246.22468-.24216.46165-.47416.695-.70882.0226.05955.08027.1535.06213.17246C250.89407,88.61,250.651,88.842,250.41054,89.07624Zm23.831-21.94452c-.3141.34227-.62589.68146-1.30394,1.41983.53426-.7516.75309-1.08991,1.01134-1.39822a2.65062,2.65062,0,0,1,.492-.36433A2.12472,2.12472,0,0,1,274.24155,67.13172Z"/><path class="cls-1" d="M293.82851,43.29056c.122-.13232.17681-.19363.23052-.25406-.07488.08248-.15135.16629-.22677.24877Z"/><path class="cls-1" d="M272.60509,64.48172c.6136-.60207,1.2128-1.23811,1.79437-1.8662.1584-.172.35606-.52268.30313-.5315a1.07,1.07,0,0,0-.5648.27744q-2.44692,2.29383-4.90479,4.5978c-.96034.9192-1.00483,1.06476-.823,2.17672A28.27984,28.27984,0,0,1,272.60509,64.48172Z"/><path class="cls-1" d="M295.32861,41.62461c-.133.146-.35953.39565-.517.569-.258.28891-.50388.56458-.75259.8429.22621-.24789.45017-.49357.68516-.75116C295.16145,41.8156,295.55522,41.36923,295.32861,41.62461Z"/><path class="cls-1" d="M255.56636,80.13338l-.34222.243-.266.32949a4.42441,4.42441,0,0,0,.47763-.30038C255.4927,80.361,255.52346,80.22645,255.56636,80.13338Z"/></g></g></svg>