<svg xmlns="http://www.w3.org/2000/svg" viewBox="0 0 160.21888 436.44727"><defs><style>.cls-1{fill:#24373e;}</style></defs><g id="Слой_2" data-name="Слой 2"><g id="Слой_1-2" data-name="Слой 1"><path class="cls-1" d="M126.33209,85.421c.27127.17378.77542.38726.76527.32772a1.81574,1.81574,0,0,0-.56017-.629q-3.75334-2.69608-7.523-5.40409c-1.49658-1.0577-1.69066-1.104-2.97022-.87025a53.7047,53.7047,0,0,1,7.31175,4.60354C124.3296,84.12419,125.33923,84.78228,126.33209,85.421Z"/><path class="cls-1" d="M157.85551,107.03335c-.11976-.07631-.24193-.15394-.36257-.23025.03264.02162.06837.04543.10674.07058C157.68481,106.9266,157.77082,106.98042,157.85551,107.03335Z"/><path class="cls-1" d="M160.10236,108.4448c-.22892-.14468-.62192-.39389-.89539-.56723-.46357-.28979-.90465-.56546-1.35146-.84422.4005.2545.79658.50591,1.213.77056C159.80375,108.26175,160.502,108.69356,160.10236,108.4448Z"/><path class="cls-1" d="M97.22711,64.52709a1.62192,1.62192,0,0,0,.38286.13982l-.4305-.37889-.50547-.29111C96.85528,64.17466,97.02024,64.35771,97.22711,64.52709Z"/><path class="cls-1" d="M158.91806,220.27751c.09131.05822.04874.03088.00662.004Z"/><path class="cls-1" d="M155.46266,218.02581c-.6356-.42123-1.28045-.84378-1.92-1.23767-.52841-.32507-1.01315-.63956-1.54553-.99772a31.96073,31.96073,0,0,0-3.07255-1.93986,2.98718,2.98718,0,0,1-.7441-.535,2.14253,2.14253,0,0,0-.57076-.42475,7.41146,7.41146,0,0,1-1.01536-.64574c-.54076-.397-1.11284-.782-1.70521-1.14769-.161-.0988-.31757-.22583-.48386-.34624.12571-.12748.85481.30963,1.00742.23289a12.72163,12.72163,0,0,0-1.0727-.80409,6.53379,6.53379,0,0,0-1.25531-.92671c-.022.07058.00706.17908-.08469.19011a1.93291,1.93291,0,0,1-.47636-.25406c-.39432-.27479-.81026-.55973-1.15342-.84731-.614-.52-1.38322-.90421-1.9725-1.44983a5.29691,5.29691,0,0,0-.69293-.41682,17.14148,17.14148,0,0,1-2.82908-2.246,5.40978,5.40978,0,0,0-1.68889-1.35984,3.83958,3.83958,0,0,1-1.13048-.84907,3.17174,3.17174,0,0,0-1.17371-.75954,2.55022,2.55022,0,0,1-.99595-.449,7.82664,7.82664,0,0,1-.54429-.5809,2.8938,2.8938,0,0,0-.71235-.67882,8.28232,8.28232,0,0,1-1.95574-1.77225,2.42557,2.42557,0,0,0-.93729-.76748c-.64706-.247-1.06741-.86936-1.70785-1.13754-.68323-.27964-.9792-.92009-1.4979-1.36778a4.05105,4.05105,0,0,0-.4724-.40623c-1.3175-.78909-2.3752-1.90811-3.60669-2.8057a33.005,33.005,0,0,0-3.6561-2.78276c-.1632-.08469-.28361-.29641-.43534-.43843a27.32775,27.32775,0,0,0-3.05138-2.56,7.74034,7.74034,0,0,1-.67574-.49313c-2.11849-1.82959-4.20215-3.7077-6.30256-5.56905q-3.316-2.931-6.63779-5.86678l-7.00961-6.08732c-.58266-.51033-1.21164-.9589-1.767-1.50319a109.99712,109.99712,0,0,0-8.45855-7.321c-4.81217-3.859-9.64462-7.68976-14.56573-11.37982-2.9614-2.22215-6.09129-4.18186-9.20265-6.16759-2.99184-1.91428-6.07232-3.68521-9.09106-5.55847-3.01962-1.8737-5.96206-3.874-9.00858-5.70623a31.03242,31.03242,0,0,1-5.371-4.016,27.17163,27.17163,0,0,0-2.9517-2.42373c-.04036-1.27295-.08535-2.5459-.10762-3.81929l-.28847-20.9296-.07763-15.16647c-.05734-4.80908-.53811-9.61462-.24435-14.43032a7.73,7.73,0,0,0-.20643-2.13481c-.60427-2.57811-.41637-5.24927-.59854-7.87678-.191-2.8573.02029-5.7296-.59237-8.5922a30.38938,30.38938,0,0,1-.06219-13.34526c.02691-.14644.03485-.08116.04587-.10806a.22519.22519,0,0,0-.11644-.15747c-.1857-.12394-.42829-.27788-.64045-.44505-.30125-.138-.36609-.51694-.47989-.868l-.32905-1.12431c-.05689-.13894.00971-.11159.05205-.11644l.13541-.00838.28979-.00309.31625.01412.16806.01367c.38991.48783.64706.86142.958,1.28089a3.79411,3.79411,0,0,1,.22318.35419.63421.63421,0,0,0,.16408.14246l.43491.25892.87024.51077a24.64112,24.64112,0,0,0,3.46335,1.72814c2.72719,1.04712,4.33756,2.84319,6.55795,4.14834.82261.4843,1.7008.87951,2.549,1.32632,3.58861,1.89487,7.31175,3.638,10.746,5.70094q7.45577,4.44937,15.02753,8.64777c2.10747,1.17415,4.2295,2.61869,6.29242,3.511a60.90756,60.90756,0,0,1,8.70732,4.716c.58972.37668,1.2606.6947,1.89752,1.022,2.55781,1.31309,5.117,2.60369,7.65447,3.96574,2.53311,1.35411,5.03359,2.84142,7.594,3.95338,2.61913,1.1468,4.86157,3.01124,7.45687,4.28154,1.044.51474,2.17187,1.23811,3.15459,1.67478,3.80254,1.70741,7.5442,3.97014,11.30925,6.067q3.46224,1.926,6.91213,3.84444,3.7507,2.09534,7.493,4.18671,5.28234,3.02094,10.56691,6.04277c.35639.206.6872.37095,1.02815.5562.11512-.13894.35595-.03882,1.57068.7366,1.72638,1.05241,3.16738,1.931,4.81922,2.938.79769.4918,1.34176.79923,1.50584.88172-.752-.49313-1.34463-.88172-2.45063-1.60685-3.20355-2.04705-6.37446-4.09188-9.503-6.18259-2.19084-1.46262-4.417-2.92259-6.63867-4.26391-1.83621-1.10754-3.51054-2.19392-5.34366-3.44a86.51915,86.51915,0,0,0-10.63528-6.666,8.29461,8.29461,0,0,1-2.549-1.88164,6.00275,6.00275,0,0,0-1.95133-1.4979,20.85454,20.85454,0,0,1-3.5123-2.22347c-1.85341-1.39381-3.82591-2.72719-5.88-3.98029-.55664-.33919-1.09167-.78865-1.66287-1.20944.49357-.53062,3.028.95493,3.612.60428-.88436-1.07182-2.59707-1.81548-3.6905-2.80129a19.21366,19.21366,0,0,0-4.32918-3.21281c-.09572.27435-.01632.68146-.352.74851a5.8281,5.8281,0,0,1-1.66287-.8504c-1.36161-.94876-2.79952-1.93325-3.975-2.94111-2.10659-1.819-4.79408-3.10034-6.80981-5.01462a16.86682,16.86682,0,0,0-2.40873-1.41674,56.9993,56.9993,0,0,1-9.7787-7.74754,17.791,17.791,0,0,0-5.858-4.65955,13.02026,13.02026,0,0,1-3.93353-2.89082,10.91949,10.91949,0,0,0-4.08483-2.57722,8.8691,8.8691,0,0,1-3.45981-1.52c-.374-.38065-1.24649-1.17283-1.90149-1.97338a10.05917,10.05917,0,0,0-2.49209-2.29846,30.41955,30.41955,0,0,1-6.86274-5.9572,8.82148,8.82148,0,0,0-3.29-2.56972c-2.23406-.85525-3.75578-2.89965-5.97176-3.82018a6.5401,6.5401,0,0,1-.82922-.412c-.28009-.1654-.43844-.27611-.85658-.57384-.71851-.51959-1.39028-1.082-2.06248-1.67169-1.33779-1.17547-2.6994-2.47621-4.24317-3.61993-.93332-.69161-1.909-1.538-2.822-2.09247-3.50789-2.15158-6.98976-4.55634-10.63572-7.134L13.14747,3.53877,10.36912,1.6139,8.98943.68058,8.304.225,7.963,0c-.04852.04587-.01147.24877-.02117.36565.04763,4.4024-.14335,8.44268-.251,12.75554-.06439,2.13923-.06528,4.368-.08557,6.58574-.02778,2.20936.00309,4.47474.13453,6.75291a27.23749,27.23749,0,0,1-.32022,3.35748q-.19518,2.82312-.39124,5.6511L6.9393,36.9081l-.08248.87113-.14909,1.70344c-.17731,2.27376-.28317,4.55766-.27259,6.85876.00486.96155.03264,1.93369-.04234,2.886C5.64253,58.80763,4.80668,68.37726,4.13536,77.965q-1.0877,15.12126-1.875,30.27031c-.5465,10.581-.90245,21.17572-1.28354,31.76557-.08645,2.64779-.02117,5.31543-.191,7.94779-.83364,12.73348-.8407,25.51681-.7441,38.28778q.25274,31.8099,1.49393,63.62376c.53062,12.76392,1.46,25.52078,2.35183,38.27323Q5.25041,306.54093,6.612,324.93477q1.28221,18.41214,2.56619,36.84061c.57561,7.7149,1.02992,15.41436,1.43836,23.12308.57781,11.08518,1.59582,22.13815,2.59177,33.15584.524,5.6608,1.093,10.6516,1.40792,14.85419.37624,4.43769.03926,5.42306.348-1.2778.165-3.51275.43932-7.24956.66691-11.40143.53459-9.81884,1.23061-19.617,1.90193-29.45255.82261-11.98409,1.62714-23.98936,2.61251-35.96287q1.71822-20.49624,3.43952-41.03,1.17041-14.03818,2.34125-28.09006.6894-8.644,1.37925-17.29467c.573-7.68667,1.19223-15.37158,1.67345-23.06486.41417-6.25581.651-12.52353.97963-18.7842.32376-6.01674.74984-12.03128.92009-18.04715.511-20.421.73749-40.84295.80365-61.26487,2.82378,2.39726,5.72387,4.68557,8.6416,6.94566,2.14982,1.66418,4.33889,3.27236,6.5359,4.86862q2.02719,1.47342,4.09144,2.89391c1.83356,1.26325,3.6658,2.52738,5.54479,3.72446,1.5279.97346,3.11578,1.86047,4.67058,2.79512,1.49393.89847,2.93317,1.87987,4.48,2.69631L84.27485,180.917c.434.22672.89892.40623,1.34661.61134,1.02463.46974,2.06072.92009,3.06373,1.4238q2.72388,1.36755,5.41159,2.79334l3.87178,2.1013a39.64506,39.64506,0,0,1,3.70815,1.96059,1.709,1.709,0,0,0,.58354.23686,10.61808,10.61808,0,0,1,2.11409.93156,14.20079,14.20079,0,0,0,2.2839,1.05065,6.92111,6.92111,0,0,1,3.36146,1.91825,2.65638,2.65638,0,0,0,.67485.4371l1.50011.76263,6.91169,3.54538,2.062,1.0361a16.20587,16.20587,0,0,0,2.06072,1.01183,11.00542,11.00542,0,0,1,1.93765,1.14151c.243.13232.50327.23774.75381.359,1.063.51165,2.15731.99154,3.16914,1.56141,1.46262.82262,2.93317,1.62008,4.413,2.40785.61707.329,1.24075.73307,1.84194.98493a18.82242,18.82242,0,0,1,2.54105,1.33426c.17291.10586.36742.19716.55267.29111.741.37889,1.47982.75689,2.223,1.13666.73483.39035,1.46305.81423,2.19966,1.14327.752.34052,1.41453.86055,2.1626,1.23326.30038.15173.629.35815.91039.48959,1.08946.51121,2.17231,1.16666,3.2578,1.78064l1.9897,1.13048,2.15246,1.23767,3.03374,1.78813c.101.05734.19584.11159.29376.16717.0247-.02691.09174.00573.44328.23068.49886.31052.91171.56723,1.38719.86319.19452.11821.32552.1976.42608.25891-.21767-.14247-.3963-.25979-.70484-.46137C157.29093,219.21584,156.377,218.62082,155.46266,218.02581ZM120.63954,85.03237a4.92376,4.92376,0,0,1,.63736.54473,3.88877,3.88877,0,0,1-.49533-.21569c-.53988-.34492-1.07535-.6872-2.24024-1.4313C119.66564,84.5119,120.16317,84.74964,120.63954,85.03237ZM84.9003,59.04272l1.13622.76439c-.06352.0269-.15526.09439-.1857.07454l-1.14327-.78776C84.77283,59.07492,84.86016,59.01714,84.9003,59.04272ZM65.22116,45.74686a1.0484,1.0484,0,0,1,.73924-.15217,4.64618,4.64618,0,0,1,2.8379,1.23855,32.239,32.239,0,0,0,3.586,3.63933c.09968.09042.11247.32508.02381.31581a4.462,4.462,0,0,1-.973-.23156,4.5331,4.5331,0,0,1-.66339-.42432,17.896,17.896,0,0,0-3.91148-2.76909C65.66709,46.77325,64.9349,45.9277,65.22116,45.74686ZM48.162,31.93273c.20245-.10188.52973-.27435.73836-.15526.99816.56723,1.973,1.22135,3.75843,2.3558.56282.45255,1.84415,1.4613,3.069,2.49915.16938.14379.09219.47813.03441.66824-.01765.05734-.39565-.02206-.54253-.12439L48.353,32.34205C48.23391,32.25737,48.10071,31.96317,48.162,31.93273Zm81.32025,168.21486c-.00529.0172-.11512-.00574-.15746-.03529l-1.97559-1.41851c-.03441-.0247-.071-.11291-.05249-.12262.06-.03175.15747-.08556.21745-.05072.28759.16629.56767.359,1.08108.69293.16056.13409.52312.43755.88.73616C129.52373,199.99189,129.49992,200.09113,129.48227,200.14759Zm4.80555,3.92515a1.31149,1.31149,0,0,1-.27964-.06969,1.35005,1.35005,0,0,1-.19231-.12306,5.33622,5.33622,0,0,0-1.13269-.801c-.34493-.17114-.55753-.41549-.475-.4671a.29887.29887,0,0,1,.213-.04278,1.3569,1.3569,0,0,1,.8182.36389,9.21926,9.21926,0,0,0,1.04006,1.05064C134.30855,204.00967,134.3134,204.07583,134.28782,204.07274Zm3.89251,2.63147-.33125-.22759a1.74788,1.74788,0,0,1,.38286.20907C138.2143,206.69231,138.18916,206.71,138.18033,206.70421Zm10.18273,7.26853c-.15658-.09924-.31228-.1976-.65059-.41152.32287.17246.4649.24435.60252.32639a1.73108,1.73108,0,0,1,.18878.15129A1.48058,1.48058,0,0,1,148.36306,213.97274Z"/><path class="cls-1" d="M147.73409,212.51807c-.434-.30523-.48784-.32243-.83188-.29464a19.07917,19.07917,0,0,1,2.10924,1.344c.28582.18966.57605.38241.861.57164a.7257.7257,0,0,0,.21613.10277.64062.64062,0,0,0-.16937-.1707Z"/><path class="cls-1" d="M159.41869,220.59553c-.12483-.07895-.24568-.1557-.36742-.23289.1085.06969.21613.1385.32816.21039.21172.13409.41285.26112.29773.1879C159.60659,220.71594,159.49411,220.64405,159.41869,220.59553Z"/><path class="cls-1" d="M141.43108,208.11434a.49877.49877,0,0,0,.1085.04367l-.12526-.10851-.14512-.086C141.32213,208.01422,141.37065,208.06582,141.43108,208.11434Z"/></g></g></svg>