<svg xmlns="http://www.w3.org/2000/svg" viewBox="0 0 166.80384 415.84268"><defs><style>.cls-1{fill:#24373e;}</style></defs><g id="Слой_2" data-name="Слой 2"><g id="Слой_1-2" data-name="Слой 1"><path class="cls-1" d="M149.703,305.95209q-.26828-.19386-.52378-.378c-.67837-.49489-1.27537-.95317-1.7621-1.3572a54.66015,54.66015,0,0,0-5.94044-4.32963,66.62232,66.62232,0,0,0-8.08078-4.24934q-.67417-.30765-1.33823-.61045-.50646-.24216-1.0072-.4821-.94281-.47107-1.83246-1.00169a30.93434,30.93434,0,0,1-3.40887-2.36506,24.13482,24.13482,0,0,0-7.332-3.81356c-1.68249-.57826-3.00308-.45961-6.00793-2.28567-.71543-.55576-2.35535-1.71579-3.647-2.88421a21.63875,21.63875,0,0,0-4.688-3.37645,75.52245,75.52245,0,0,1-12.84905-8.66763,18.76461,18.76461,0,0,0-6.18347-3.53656c-3.90487-1.17283-7.01579-4.0491-10.88846-5.3591-4.10842-1.39513-6.59015-4.26611-10.04423-6.32286a35.49093,35.49093,0,0,0-3.14026-1.87282c-4.13069-1.89178-8.03357-4.09805-11.9005-6.3524l-2.89656-1.69507-1.40307-.79041c-.82835-.45122-1.63729-.86054-2.51239-1.23149a23.04025,23.04025,0,0,1-2.3333-1.36425l-1.02131-.68412a.8545.8545,0,0,1-.41065-.42961.81991.81991,0,0,1,.054-.6572,1.56079,1.56079,0,0,1,.52224-.49666l.56789-.42828c.369-.28406.71719-.565,1.04381-.84952a11.622,11.622,0,0,0,1.72638-1.83136c.24965-.32992.93641-.5068,1.34463-.75689l.97015-.59986.23377-.14556a1.60159,1.60159,0,0,0,.135-.08822l.28935-.221,1.15518-.88568q2.30838-1.77578,4.59515-3.59214c3.04719-2.42593,6.05733-4.92155,9.00483-7.53317,1.23171-1.09123,2.461-2.21422,3.7377-3.22958q19.27026-15.3171,38.53633-30.63067,10.08968-8.11606,20.18837-16.23917l10.074-8.15642,5.03049-4.08835,1.37837-1.127,2.31346-1.92839,4.64411-3.87311q10.347-8.65065,20.70773-17.31364-14.36172-11.73246-28.734-23.47374L122.64266,99.5606c-3.48628-2.89656-7.09342-5.69476-10.508-8.64028C95.61957,76.67217,78.58954,62.93788,61.54407,49.25872L0,0Q.03374,31.66236.06815,63.3203L.22539,96.59523c.14379,21.84087.70948,43.66718,1.17371,65.48643q.74994,31.495,1.49922,62.96611.54717,31.50291,1.09476,63.034c.27347,13.20014.31471,26.37427.04323,39.56471q-.58554,28.45086.73792,56.72794c.45718,9.68431,1.85606,18.2227,4.38873,25.41316,2.67381,7.59184,6.96859,9.28072,9.85545-2.18951a94.73048,94.73048,0,0,0,2.6747-19.51639c.66955-16.8064,1.484-33.57972,2.017-50.41611.6497-20.51411,1.12386-41.06482,1.88141-61.56172.193-5.21928.36125-10.44517.54253-15.66754.38065.19761.76351.39433,1.14217.59281l8.87538,4.58854,10.17523,5.18178c4.03079,2.05058,8.08584,4.04249,12.13207,6.05513,4.04756,2.01352,8.22545,4.48179,12.11355,5.90868,4.63992,1.67874,7.64389,4.53472,11.52141,6.62014,1.44078.76659,2.95941,1.377,4.46062,2.03249,6.39828,2.691,12.98578,5.13327,19.18976,8.05761q6.731,3.15063,13.47715,6.22053l5.85906,2.64735,1.41851.57252c1.0308.36742,2.69145.56458,1.976,1.32632a1.67726,1.67726,0,0,1-.94435,1.44586c-.30391.19186-.63427.38241-.97478.5584l-.25715.1288a.67843.67843,0,0,0-.14821.08336l-.38285.34669q-.77145.68874-1.54885,1.38366c-.87069.771-1.72307,1.67168-2.56619,2.52208-3.38263,3.41483-6.75577,6.85171-10.22044,10.24757-3.45739,3.38572-7.04975,6.704-10.27712,10.21846-3.32573,3.58817-7.17987,6.42474-10.64939,9.95954-1.40528,1.41895-3.107,2.9045-4.38476,4.25508-4.96831,5.22237-10.51994,10.21582-15.93968,15.28954q-5.00712,4.667-9.99528,9.31557-5.47521,5.05542-10.93917,10.10025-7.79749,7.13421-15.68386,14.1886c-.5315.48827-1.0072.92538-1.50827,1.38542-.01169.20069-.34161.53194-2.22061,2.14056-2.63367,2.29537-4.83377,4.21273-7.35453,6.40974-1.22,1.05727-2.03492,1.78505-2.2742,2.00779,1.17459-.99242,2.09755-1.77181,3.829-3.23442q7.44849-6.35682,14.80876-12.54647c3.44437-2.88377,6.92558-5.81959,10.29608-8.7801,2.78365-2.44755,5.38535-4.65867,8.28808-7.06563,5.42151-4.52326,11.184-9.04387,16.30269-14.11274a22.04721,22.04721,0,0,1,4.1909-3.30412,15.60152,15.60152,0,0,0,3.27479-2.51238,57.52493,57.52493,0,0,1,5.40563-4.65381c3.08953-2.39462,6.22494-4.986,9.33211-7.72019.84136-.741,1.79056-1.41984,2.73755-2.16085.20952.88128-3.57846,4.27449-3.67726,5.24619,1.95662-1.03433,4.23677-3.399,6.2783-4.77247a48.88623,48.88623,0,0,0,7.31153-5.62463c-.25494-.21436-.80673-.20289-.62081-.7216a15.34208,15.34208,0,0,1,2.33551-2.25964c2.21641-1.78461,4.53428-3.67419,6.68762-5.16944,3.8859-2.67734,7.51774-6.3502,11.48127-8.88111a41.16625,41.16625,0,0,0,3.60118-3.22781c1.19245-1.04756,2.83371-2.4127,4.64874-3.87046,1.81372-1.46526,3.94545-3.07564,5.80481-4.66175,1.93391-1.59406,3.92538-3.20664,5.80613-4.69881q.71588-.565,1.38565-1.09343l.16937-.13233C149.97583,306.14572,149.703,305.95209,149.703,305.95209ZM31.93273,213.86556a16.7323,16.7323,0,0,0-1.87039,1.35279c-.31559.2642-.63625.53238-.95471.79923q-.77971.66956-1.53958,1.32191.18326-5.73821.36918-11.47509.71687-24.03192,1.43483-48.08678.40258-14.79839.80518-29.60649c.333-13.15824.68919-26.31384.94347-39.48355q.11379-8.0307.2276-16.07333l.04322-4.02.02139-2.01044a1.03166,1.03166,0,0,1,.1202-.30875c.10784-.17643.3114-.015.40623.17908a.98323.98323,0,0,1,.05139.10674l76.66974,61.17c2.25259,1.797,4.57619,3.50172,6.86274,5.25633l3.92515,3.00241.24524.18746.12284.09351a1.94054,1.94054,0,0,1,.66934.20069l.23355.13365a6.07958,6.07958,0,0,1-.45894.51518l-.14071.14158-2.86634,2.47092-5.841,5.02565L91.64523,161.57971c-6.26088,5.341-12.2172,11.02564-18.73413,16.08833a21.218,21.218,0,0,0-2.66058,2.50841c-2.968,3.31294-6.60162,6.09879-9.92382,9.1312-3.61287,3.29794-7.538,6.27213-10.8739,9.90441A79.85412,79.85412,0,0,1,31.93273,213.86556Zm72.03248,67.83429c-.011.08248-.6431-.0397-.90951-.18922q-6.25956-3.5337-12.51294-7.06431c-.21856-.12174-.52312-.543-.43358-.58664.2975-.14687.77629-.3952,1.15121-.22627,1.79012.80894,3.56612,1.748,6.77364,3.42718,1.03808.66823,3.39806,2.152,5.67756,3.6755C104.027,280.94649,104.00226,281.4277,103.96521,281.69985ZM75.36812,362.96056a12.30374,12.30374,0,0,1-1.11.80585c.21834-.22936.43667-.49136.65412-.68412.82217-.71454,1.63816-1.4238,3.41306-2.9658C76.752,361.64262,76.07319,362.32364,75.36812,362.96056Zm58.67994-46.521L132.181,317.986c.00133-.094-.04057-.23112.00706-.27082l1.87282-1.527C134.06063,316.27244,134.11224,316.38491,134.04806,316.4396Zm.96728-15.00283a14.03871,14.03871,0,0,1-1.797-.45563,10.28878,10.28878,0,0,1-1.20061-.62148A40.36768,40.36768,0,0,0,124.875,296.33c-2.09733-.87157-3.53767-2.08674-3.13541-2.33242a1.63113,1.63113,0,0,1,1.13556-.18834c1.48643.2298,3.67065.71146,4.93059,1.853q.7645.69138,1.58854,1.35455.41385.32684.83452.65985.46644.34536.93994.69514c1.27582.92715,2.55472,1.812,3.8129,2.68087C135.17413,301.18536,135.1856,301.46721,135.01534,301.43677Z"/><path class="cls-1" d="M69.83237,371.39529a6.57254,6.57254,0,0,0-1.03256,1.05683,3.92914,3.92914,0,0,0,1.13886-.666q6.1633-4.88274,12.35438-9.788c2.446-1.95088,2.67316-2.22965,3.53326-4.21626-4.77511,4.447-4.868,4.47738-11.294,9.69534C72.96359,368.75059,71.38056,370.08265,69.83237,371.39529Z"/><path class="cls-1" d="M16.17169,415.68836c.352-.30125.96067-.82173,1.385-1.18429.70529-.60693,1.37926-1.18694,2.05785-1.77137-.61045.52223-1.21914,1.04271-1.85407,1.58567C16.62909,415.29271,15.55661,416.21766,16.17169,415.68836Z"/><path class="cls-1" d="M19.61452,412.7327c.1943-.16585.38815-.33169.58377-.4993-.05116.04278-.10718.09-.16673.1407C19.89174,412.49407,19.75346,412.61316,19.61452,412.7327Z"/><path class="cls-1" d="M117.40486,333.97952l.80651-.54562.75314-.6797c-.363.22539-.7194.4252-1.09057.69073A4.155,4.155,0,0,0,117.40486,333.97952Z"/></g></g></svg>