<svg xmlns="http://www.w3.org/2000/svg" viewBox="0 0 318.9871 260.00126"><defs><style>.cls-1{fill:#24373e;}</style></defs><g id="Слой_2" data-name="Слой 2"><g id="Слой_1-2" data-name="Слой 1"><path class="cls-1" d="M318.93743,17.96139l-.36609-7.86663-.187-3.95955L318.289,4.14859l-.04764-.99463-.01191-.24877-.00573-.12438c-.01191-.02206.01852-.12836-.03132-.07455l-.412.27038-6.621,4.34462-3.335,2.18731c-1.11814.73616-2.21157,1.43527-3.40424,2.26935l-7.06034,4.84745-3.5573,2.44181-1.78548,1.22575-1.20415.80673-4.19421,2.777Q263.67386,39.084,240.70649,54.30711q-14.11032,9.38967-28.23077,18.786C199.95219,81.47444,187.404,89.817,174.92365,98.2804c-6.9311,4.6816-13.8225,9.43642-20.71523,14.1886a65.219,65.219,0,0,0-10.74026-8.47752,49.49161,49.49161,0,0,1-7.57684-5.81385,41.49426,41.49426,0,0,0-7.70828-5.48216,32.58416,32.58416,0,0,1-6.28007-3.77872c-.76-.69117-2.49782-2.1776-3.87972-3.56259a37.16952,37.16952,0,0,0-4.97625-4.29257A113.81308,113.81308,0,0,1,99.483,69.725a33.21059,33.21059,0,0,0-6.39475-5.06137c-4.0072-2.2742-7.28705-5.73269-11.289-8.0832-4.25552-2.485-6.86449-5.77945-10.44958-8.66189-1.09211-.87687-2.16128-1.86444-3.26442-2.6178-8.58647-5.84649-16.21491-12.58837-24.50233-18.6973l-4.01381-2.99228L34.592,19.851q-5.0402-3.84135-10.08-7.68226c-3.30765-2.35844-6.6519-4.71512-9.97058-6.98315C12.883,4.052,11.23161,2.94136,9.60227,1.86866L7.17722.29,6.87685.09729,6.72732.00157c-.12217-.0419-.10674.76748-.10674.76748l.037,1.62714c.05293,2.0563-.251,3.88678-.34668,5.98454q-.21834,5.08321-.43844,10.177c-.14026,3.44306-.22318,7.11018-.314,10.7354Q5.45923,34.809,5.3591,40.3514q-.02382,2.15754-.04764,4.3208-.004,1.68449-.00705,3.37425c.00794,1.883.03881,3.78754-.03264,5.6533-.7172,18.77008-1.5204,37.519-2.15864,56.30318Q2.077,139.62817,1.34176,169.30633L.99243,184.857l-.3017,16.18139-.27568,30.029L.195,246.4434.0838,254.17859l-.05557,3.87972L0,260.00126c.47372-.29817,1.0083-.71631,1.51025-1.06873,8.17142-5.89325,16.51926-12.13671,24.67876-17.89322q13.2264-9.28513,26.474-18.58615,7.67807-5.371,15.30982-10.8245c10.18626-7.25353,20.28695-14.64027,30.38455-22.02039Q134.653,163.03972,170.65446,136.057c.2889.2051.57516.40182.86451.60869,1.1146.79746,2.3408,1.56053,3.51495,2.3183,4.7138,3.04035,9.42055,6.052,14.1198,9.14576,4.68866,3.08137,9.37335,6.31932,14.01525,9.099,4.75174,2.85466,9.15326,6.45165,13.91293,9.45583,1.916,1.21341,4.04866,2.74218,5.83414,3.82238,6.91522,4.2,13.93851,9.09548,20.93975,13.78326q6.43819,4.30845,12.85213,8.59926,6.9741,4.68292,13.93366,9.35526,9.85148,6.683,19.70649,13.3682c.67132.44416,1.27207.84113,1.905,1.25928.13762-.12174.57208.13364,2.86789,1.77578,3.24325,2.26846,5.95235,4.16378,9.05622,6.33476,1.49085,1.04844,2.50136,1.73035,2.81055,1.92795-1.42292-1.03124-2.54281-1.84282-4.64279-3.365-6.05512-4.33359-12.05555-8.64734-18.003-12.999-4.1651-3.04565-8.38666-6.10585-12.55706-9.009-3.4457-2.3977-6.61661-4.6838-10.10907-7.26147-6.54912-4.81039-13.28-9.99262-20.05406-14.21771a31.42833,31.42833,0,0,1-4.91361-3.77827,22.63716,22.63716,0,0,0-3.78312-2.96714,79.70164,79.70164,0,0,1-6.63029-4.72394c-3.58288-2.78144-7.33866-5.5448-11.19853-8.24552-1.0458-.73131-2.09777-1.59582-3.19826-2.44092.61354-.43755,5.35381,2.81628,6.18524,2.66058-1.86312-1.85782-4.96742-3.717-7.14282-5.57082a73.138,73.138,0,0,0-8.35137-6.4393c-.05426.30876.23024.88172-.29817.79527a21.93319,21.93319,0,0,1-3.06329-1.97295c-2.60369-1.94427-5.34587-3.97543-7.66462-5.90074-4.1598-3.46731-9.07518-6.53369-13.12163-10.07819-.21833-.19187-.48563-.397-.7763-.60781q10.34439-7.7773,20.66407-15.58594c19.91909-15.11266,39.59118-30.53892,59.2787-45.93035q14.19036-11.13435,28.36926-22.259l14.1692-11.14693,1.658-1.29986.25627-.18834.54429-.39873a8.93512,8.93512,0,0,0,1.30779-1.24649l.36213-.37139.18437-.18746c.04675-.0269.03529.08249.05558.11821l.15393.6603.15041.70616a5.45737,5.45737,0,0,1-.14864.95229l-.19055,1.01889-.04764.26024.03926,1.1146.08072,2.25479.33081,9.01961q.68212,18.03966,1.36425,36.07093.90311,22.66172,1.51775,45.282c.62192,21.70811,1.67742,43.35137,2.70513,64.92494.54341,11.08385,1.13,20.85594,1.45909,29.08558.39124,8.68879.05778,10.622.3436-2.50577.19363-6.88567.39962-14.204.62809-22.33664.50636-19.235,1.15122-38.432,1.80049-57.701.78159-23.479,1.54465-46.99908,2.489-70.45782q.40821-10.03938.81688-20.08582l.41285-10.04687.20289-5.31632.2051-8.65.10321-4.36182C318.9586,20.73533,319.03844,19.19685,318.93743,17.96139ZM99.62015,72.66214c1.85958,1.258,3.71387,2.6178,7.0868,5.02476,1.09872.8826,3.59214,2.86392,6.00395,4.85451a.97032.97032,0,0,1,.30788.88965,2.554,2.554,0,0,1-.94127-.44284Q105.501,78.04991,98.92986,73.116c-.228-.17246-.55841-.62545-.46931-.63383A1.71884,1.71884,0,0,1,99.62015,72.66214Zm44.94806,46.44023c-9.72886,6.66117-19.51506,13.2372-29.15217,20.02187L86.53777,159.60967,57.73536,180.1992l-14.373,10.33357-7.186,5.16768-3.593,2.58383-1.79342,1.29677c-.105.07543-.08689.06572-.08689.06572.00661.03044.02955.17335.02955.17335-.05028.11424-.10189.165-.10321.11115.00044-.01015-.14512.11159-.172.09a.66872.66872,0,0,1-.04411-.19143c-.00794-.09571-.05469-2.796-.05469-2.796L30.28,191.37612q-.18-20.49228-.36036-40.99248l-.12923-29.70618c-.07454-9.41878-.57164-18.8283-.2942-28.263a29.27011,29.27011,0,0,0-.21392-4.17966c-.6131-5.04637-.43447-10.27888-.62545-15.42494-.20113-5.59508.00088-11.22191-.62192-16.82537a128.55239,128.55239,0,0,1-.79659-13.0837l.00088-.18525c.00441-.06175.01764-.18481.01764-.18481a2.15136,2.15136,0,0,1,.045-.2373,1.43523,1.43523,0,0,1,.16541-.41109.58907.58907,0,0,1,.65456-.30963c.21392.04763.13541-.20555.109-.40535-.034-.20952-.08293-.44152-.135-.69073l-.08028-.38242c.02382-.04763.11336.00971.17114.01544l.48342.14953.26024.08865.135.04808.13585.13673.5734.58.30523.30214.157.15438c.05205.04675.38947.277.38947.277l.67441.46093,21.61371,14.7126c4.2811,2.91333,8.58912,5.77592,12.89271,8.64822,4.30228,2.878,8.75761,6.183,12.87022,8.51458,4.89244,2.78055,8.22567,5.96117,12.37974,8.81582,1.53893,1.059,3.13651,2.03029,4.7041,3.05359,6.63249,4.334,13.43039,8.54015,19.87278,13.01445q13.974,9.67416,28.04463,19.08148c.38109.25539.76395.51606,1.14724.77718C144.73979,118.98417,144.65422,119.04327,144.56821,119.10237Zm.98846-9.4298a14.85046,14.85046,0,0,1-1.692-.80718c-.3039-.16584-.74542-.52973-1.25442-.89759a68.31075,68.31075,0,0,0-7.4948-5.6436c-2.1904-1.389-3.717-2.87274-3.3125-2.96051a1.93617,1.93617,0,0,1,1.1618.18437,16.927,16.927,0,0,1,5.14782,3.08843c2.16746,2.20406,4.67014,4.37152,7.28617,6.61088C145.59681,109.41718,145.70664,109.73035,145.55667,109.67257Zm92.45615,69.71681c.43535.30125.838.69249,1.25663,1.04182-.30081-.17907-.62633-.34668-.89847-.53855-1.02022-.73-2.03293-1.45468-4.23479-3.03021C236.21058,178.20508,237.12052,178.77319,238.01282,179.38938Z"/><path class="cls-1" d="M233.32857,171.60347c-2.867-2.15644-3.20443-2.31787-5.22677-2.67514,6.10408,4.03718,6.17156,4.12011,13.79472,9.80075,1.8609,1.38675,3.77386,2.77,5.65153,4.11879a7.38907,7.38907,0,0,0,1.38543.82482,6.34714,6.34714,0,0,0-1.16092-1.112Q240.56689,177.09445,233.32857,171.60347Z"/><path class="cls-1" d="M311.92429,230.41682c-.42917-.3061-1.17283-.83584-1.69066-1.205-.84642-.599-1.65624-1.172-2.47047-1.74843.7291.52047,1.45644,1.03962,2.21465,1.58082C311.36324,230.02294,312.67765,230.94876,311.92429,230.41682Z"/><path class="cls-1" d="M307.76316,227.46337c-.25318-.18085-.50592-.36081-.76086-.543.05778.04278.12747.09351.202.14732C307.39177,227.20048,307.577,227.33148,307.76316,227.46337Z"/><path class="cls-1" d="M191.67007,140.477a5.83887,5.83887,0,0,0,.68411.38109l-.85305-.71807-.943-.64221C190.9242,139.82423,191.26516,140.14886,191.67007,140.477Z"/></g></g></svg>