<svg xmlns="http://www.w3.org/2000/svg" viewBox="0 0 323.81752 414.3633"><defs><style>.cls-1{fill:#24373e;}</style></defs><g id="Слой_2" data-name="Слой 2"><g id="Слой_1-2" data-name="Слой 1"><path class="cls-1" d="M323.74276,24.99456l-.15151-4.20612-.62744-16.87433-.08005-2.11453-.04014-1.0577-.02007-.5293L322.81848.0807c-.00463-.03793.01124-.11733-.0408-.06131L322.558.172l-3.51826,2.44137-7.05063,4.89244-7.0685,4.90038-3.54451,2.45724-3.623,2.55208-13.99387,9.82414-3.51892,2.46518-1.372.95317-.8976.61134L274.3806,33.716c-4.78526,3.26442-9.56147,6.5403-14.29468,9.87662l-28.3814,20.126-28.306,20.23049L175.157,104.26821l-13.54374,9.80737c.04212.12527-.04191.11909-.06.08337-.03617-.01809-3.98161-2.72719-3.98161-2.72719-6.08931-4.22332-12.20066-8.41092-18.25623-12.6907q-16.42332-11.65373-32.8537-23.31275L82.73082,58.4274C75.18728,53.06389,67.40292,48.04883,60.053,42.39112a28.24632,28.24632,0,0,0-3.45386-2.23362c-4.3777-2.40873-8.43959-5.56685-12.64924-8.37475l-1.02838-.70131L41.314,29.95272l-3.20576-2.272L31.70161,23.1213c-2.13658-1.5129-4.27515-3.01168-6.40093-4.462l-3.17422-2.13261c-1.0416-.68147-2.05785-1.32147-3.07321-1.95089-3.13937-1.94207-6.23-3.91016-9.32064-5.9475l-4.64433-3.114L2.75189,3.90661l-.58642-.408-.14688-.10233c-.045-.02646-.0161.09395-.02778.13365l-.013.35242L1.92222,5.28542c-.311,7.456-.84908,14.448-1.73167,21.48227q-.05491.49357-.11292,1.01889c-.03021.36169-.03286.77983-.04609,1.18694C.02139,29.80937.01081,30.67785,0,31.56c.01147,1.797.02338,3.649.0344,5.40409L.16717,47.88828.24612,53.336l.03882,1.90811.03727,1.39028q.72083,25.684,1.44122,51.36752c.14776,5.08607.35242,10.16552.54694,15.2463.18878,5.083.12129,10.53427.64177,15.15148.614,5.49671-.01015,9.98248.11049,14.93446.0441,1.83533.19275,3.66669.28229,5.50422.37469,7.77709.94942,15.612,1.09894,23.31848.23245,11.13237.56436,22.21754.97126,33.31992.16849,4.63176.11865,9.57228.49841,13.83574.573,6.37622.77366,12.55529.80982,18.99635.00662,1.34706.10719,2.76292.18107,4.13423.29839,5.50421.61618,10.98637.86275,16.51.25031,5.50775.3716,11.10282.83959,16.39973.47085,5.42791.13541,11.004.49,16.52367.13938,2.22436.15018,4.80334.32132,6.84686.64883,7.92529.79725,16.33665,1.10093,24.61127q.28185,7.60794.5626,15.18588.29243,8.24972.584,16.48221.35728,11.69343.715,23.39038c.034.79041.06418,1.497.09616,2.242.17908.03969.22671.53282.24127,3.30676.06219,3.88854.11424,7.13708.17378,10.8589.02382,1.79563.06374,2.99536.08447,3.35131.00176-1.72814.00331-3.088.00617-5.63742-.03639-7.31748-.0569-14.57983-.0161-21.82146.02757-5.07063.03353-10.19419-.05734-15.18676-.0763-4.12452-.0816-7.96587-.03969-12.23154.06042-7.98483.31581-16.32871-.23025-24.15608a30.39,30.39,0,0,1,.18217-6.0882,21.86013,21.86013,0,0,0,.1879-4.72086,77.07034,77.07034,0,0,1-.05734-8.00028c.15438-4.45445.19275-9.03681.11953-13.66548-.01985-1.25354.064-2.58957.1041-3.95206.71388.23686.855,5.88486,1.46812,6.45738.414-2.5534.10123-6.09614.32883-8.89566a70.62957,70.62957,0,0,0,.32441-10.35828c-.28185.13453-.57958.69117-.8193.22054a21.203,21.203,0,0,1-.19628-3.57538c.05006-3.193.08888-6.546.29045-9.50082.372-5.30926-.0236-10.989.47747-16.25241.13011-1.32985-.09395-3.54318-.13012-5.37277a208.96439,208.96439,0,0,1,1.14327-23.91261,64.70846,64.70846,0,0,0,.70087-14.3443,47.75014,47.75014,0,0,1,.27127-9.3813,40.09629,40.09629,0,0,0-.07454-9.29484,31.48455,31.48455,0,0,1-.618-7.17634c.11445-1.00389.30081-3.24369.61331-5.1412a35.91148,35.91148,0,0,0,.5626-6.43445A109.95432,109.95432,0,0,1,18.756,152.40042a32.07618,32.07618,0,0,0,.35418-8.00645c-.505-4.50076.37536-9.10385-.06484-13.64431-.48033-4.81922.66074-8.79378.89539-13.30865.07079-1.3744.2448-2.79423.20863-4.10644-.29376-10.2039.69911-20.1608.7935-30.27781.04543-5.079.32155-10.136.52577-15.20308.10144-2.53355.18657-5.06975.2051-7.613q.01521-1.90679-.019-3.81974l-.05227-1.91472c-.03528-.26111-.07785-.45739-.07785-.45739l-.09152-.39918a5.93527,5.93527,0,0,1,.1149-1.54995c.02382-.81423.03926-1.58215.041-2.31919a5.26733,5.26733,0,0,1,.09285-1.04535l.12967-.99375c.07918-.65809.14225-1.31044.18415-1.99456l.02713-.52.01037-.266c.067-.00794.1804.079.1804.079.30214.23024.599.44813.89384.65544a15.35006,15.35006,0,0,1,1.52635,1.14415c1.35235,1.23326,2.51415,2.19746,3.60317,3.16959l.79041.70087.09572.08557a2.41253,2.41253,0,0,0,.191.15615l.68015.53458,1.36028,1.06873,5.44026,4.27582q10.89717,8.53023,21.804,17.06751,22.98326,17.89873,46.18529,35.584,12.189,9.21567,24.38941,18.44016l12.23529,9.17486,9.72269,7.19267,5.95587,4.435,2.98721,2.23229,1.49591,1.11814c.49886-.31008.99772-.70661,1.49724-1.0555q6.00186-4.34881,12.02688-8.71439,2.66466-1.90809,5.32337-3.81179,1.57233-1.08572,3.13717-2.167c20.328-13.72459,40.24507-28.17254,60.08124-42.69019q24.69982-18.08531,49.26622-36.362l3.071-2.2839.23995-.17864.011.49886c.57429,24.56364,1.54752,49.11141,2.48327,73.65167q1.42579,35.42166,2.85047,70.81686,1.34573,35.43093,2.69278,70.89317.90343,22.26938,1.51775,44.49817c.62192,21.3323,1.67786,42.60065,2.70535,63.80107.54341,10.89154,1.12983,20.49469,1.45887,28.58186.39146,8.53839.05778,10.43811.344-2.46254.19341-6.76658.39918-13.95792.62766-21.94981.50679-18.902,1.15143-37.76644,1.8007-56.70192.78181-23.07236,1.54465-46.18529,2.489-69.2378q1.6481-39.46282,3.299-78.99754,1.12178-27.02772,2.24465-54.08235.65964-16.64364,1.31993-33.29831l.83055-22.19814.40028-11.10194L323.382,54.747l.09153-5.13062.17863-11.13943.13718-9.10694.02823-2.27464ZM10.95881,327.46037c-.0311-.34272-.08579-.69823-.0902-1.02551-.00618-1.23281-.01235-2.45637-.02559-5.117.127,2.425.2,3.47658.22363,4.54222C11.0779,326.38017,10.997,326.92578,10.95881,327.46037Zm2.32051-83.9138c-.05734-.0741-.16386-.15085-.16386-.22054l.03462-2.67161c.05183.08513.148.16541.14843.25715Zm1.44343-41.434c-.51584,2.99492-.80563,6.23641-1.0877,9.60889-.02117.25583-.21084.52312-.25186.37051a14.442,14.442,0,0,1-.33742-1.81239c-.04345-.33743-.0075-.89848-.0075-1.51555a65.94655,65.94655,0,0,0,.18128-9.21765c-.1579-2.5437.15-4.61412.45806-4.34241a1.89124,1.89124,0,0,1,.5315,1.03124A16.354,16.354,0,0,1,14.72275,202.11257Zm1.3991-31.79864a.95541.95541,0,0,1-.54076.75733,2.475,2.475,0,0,1-.19254-1.00434q.14789-8.081.29575-16.154c.00573-.28141.17908-.805.23818-.73881a1.67671,1.67671,0,0,1,.5337,1.02683c.07058,2.20539.05514,4.46459.08116,8.53663C16.46611,164.12075,16.32166,167.24711,16.12185,170.31393Z"/><path class="cls-1" d="M13.87742,328.57232c-.0333,2.28038-.03286,4.6-.0258,6.872a7.11694,7.11694,0,0,0,.14357,1.57818A6.14272,6.14272,0,0,0,14.216,335.458q.20676-8.88552.41483-17.81161c.06771-3.52466.00066-3.8859-.89472-5.70226C14.04128,319.12972,14.01371,319.23073,13.87742,328.57232Z"/><path class="cls-1" d="M13.0279,414.0987c-.00374-.51827-.00992-1.415-.01433-2.04-.01059-1.03433-.02073-2.02322-.0311-3.01874.00574.89495.01125,1.78769.01721,2.71837C13.01842,413.42517,13.03827,415.00467,13.0279,414.0987Z"/><path class="cls-1" d="M12.98247,409.04c-.00176-.29111-.00375-.5809-.00551-.87421-.00088.07366-.00088.157-.00088.24612C12.97828,408.62227,12.98027,408.8309,12.98247,409.04Z"/><path class="cls-1" d="M15.443,266.55056a5.64523,5.64523,0,0,0,.09174.76395L15.617,266.222l-.03242-1.12122C15.53455,265.58063,15.47126,266.03891,15.443,266.55056Z"/></g></g></svg>