<svg xmlns="http://www.w3.org/2000/svg" viewBox="0 0 297.72592 406.46321"><defs><style>.cls-1{fill:#24373e;}</style></defs><g id="Слой_2" data-name="Слой 2"><g id="Слой_1-2" data-name="Слой 1"><path class="cls-1" d="M294.79865,114.698l.12019.10542c.09472.07983.19088.16143.28505.24083-.13172-.11248-.26625-.228-.399-.34184Z"/><path class="cls-1" d="M282.00672,103.51839c-2.34279-2.0863-4.7245-4.17833-7.109-6.14333-1.97063-1.62317-3.76273-3.18415-5.72133-4.95287a122.63,122.63,0,0,0-11.39857-9.66755,11.71093,11.71093,0,0,1-2.71461-2.6178,8.45289,8.45289,0,0,0-2.07439-2.06424,29.56855,29.56855,0,0,1-3.76273-3.21591c-1.97217-1.931-4.08041-3.82679-6.28382-5.65726-.597-.49578-1.16356-1.1027-1.77181-1.688.58046-.44108,3.30312,1.75373,3.97334,1.52525-.91612-1.35146-2.77162-2.55914-3.92515-3.87134a27.18348,27.18348,0,0,0-4.60927-4.46371c-.123.26685-.05987.71763-.43689.70616a8.18493,8.18493,0,0,1-1.79386-1.30824c-1.45368-1.33867-2.9893-2.7338-4.23248-4.08923-2.22689-2.44313-5.132-4.45886-7.25264-6.98006a23.87176,23.87176,0,0,0-2.58737-2.09116A80.51485,80.51485,0,0,1,209.9254,36.33734a25.033,25.033,0,0,0-6.21733-6.37137,18.39366,18.39366,0,0,1-4.18947-4.02572,15.43692,15.43692,0,0,0-4.37671-3.73064,8.72916,8.72916,0,0,0-.789-.41373c-.13243-.06352-.26608-.12748-.40469-.19364-.16-.08689-.35473-.2051-.53877-.31757a16.036,16.036,0,0,1-2.78122-2.20319c-.569-.64971-1.88285-2.047-3.03462-3.47A29.67361,29.67361,0,0,0,183.464,11.2841,124.5353,124.5353,0,0,1,171.47849.097L171.38388,0c-.05734.00265-.11479.16276-.11479.16276l-.11369.33213q-.1095.35131-.221.70881c-.14368.49269-.27887,1.02551-.39851,1.59671a23.00171,23.00171,0,0,0-.46821,3.84752,38.32631,38.32631,0,0,1-.83694,6.318,41.45136,41.45136,0,0,0-.888,6.31668A25.85362,25.85362,0,0,1,167.29,25.44315c-.27545.969-.5487,1.92972-.82481,2.901l-.203.75072-.09869.38065-.07807.258c-.09991.32948-.191.66382-.2684,1.00566a21.019,21.019,0,0,0-.56259,2.48635c-.59347,6.29154-2.43983,12.25183-3.41009,18.43575-.96243,6.21082-2.87241,12.232-3.20917,18.58394a15.40314,15.40314,0,0,1-.65379,2.418,154.37047,154.37047,0,0,0-3.1976,15.97453c-.1525,1.13445-.28372,2.28523-.51374,3.39851-2.30927,11.19809-4.70134,22.37148-6.93364,33.58942q-3.54924,17.68767-6.80551,35.44989c-2.271,12.40577-4.35531,24.85431-6.46356,37.2936-.5187,3.11137-.88987,6.2664-1.4883,9.34865-2.90726,14.90624-5.004,29.98361-6.9955,45.06054q-4.94907,37.55472-8.91959,75.24926c-.787,7.56273-1.45931,15.13957-2.09843,22.71861l-.9266,11.37232-.43755,5.59331a2.12589,2.12589,0,0,1,.30291.35595q.0693.10124.1374.21745a.86537.86537,0,0,1,.12725.32816q.116.44859.224.96156l.10519.53061.02559.13762a2.08926,2.08926,0,0,1-.59744.06043c-.38231.20466-.63328-.63824-1.01515-1.22267l-.14246-.23951-.07355-.12174a1.006,1.006,0,0,0-.19628-.19848l-2.18025-1.66683-4.35366-3.34382Q88.182,350.08968,70.78355,336.65642c-7.309-5.59463-14.52415-11.26866-21.71792-16.985-10.34185-8.22213-20.93974-16.09229-31.48724-23.95539-5.429-4.02793-10.2865-7.49877-14.26855-10.54574-4.23336-3.1837-4.89795-4.20877.92009,1.26193,3.048,2.87009,6.22516,5.99734,9.80649,9.41437,8.46727,8.08187,16.82614,16.252,25.215,24.45469,10.22783,9.98734,20.48676,19.97731,30.59837,30.07933q8.64816,8.654,17.3068,17.31849l8.65384,8.66939,4.323,4.33977.53988.543.26983.2717.49566.46754,2.01595,1.90061,4.06376,3.8312,5.62937,5.30617c.95648.94612,1.86168,1.63376,2.79192,2.42858l2.78684,2.328,5.62716,4.69131,2.83988,2.36329,1.42634,1.18606.35727.29685c.05823.04631.12218.10718.17577.1407l.03981-.21965.15967-.8804,5.27849-29.3489.84312-4.73276c.08193-.47681.1138-.59943.16-.82438l.13266-.63118.26542-1.26237,1.04734-5.053,2.08453-10.10907c1.82408-8.98873,3.6937-17.96908,5.4278-26.97854,1.43295-7.3219,2.69223-14.68305,4.04083-22.023,1.30427-7.05284,2.70932-14.08892,3.86131-21.16205,4.53682-28.3428,8.69519-56.73985,12.64361-85.16557.27248-1.98662.43-3.98779.649-5.98191.49775-4.559.95383-9.12193,1.51709-13.67518q1.5672-12.36034,3.13507-24.7264L172.8412,135.789c.72888-5.6802,1.03819-11.41378,2.11662-17.05384a10.92248,10.92248,0,0,0,.14446-2.54635c-.17765-3.12371.445-6.24831.69414-9.37247.278-3.3963.95692-6.75511.81787-10.21536a42.934,42.934,0,0,1,2.1196-15.74958,16.4028,16.4028,0,0,0,.55775-3.26133c.25593-2.28082.453-4.56957.67937-6.85436l3.02568-31.66764.40888-4.70631.18548-2.35491a3.30313,3.30313,0,0,0-.09891-.34449,6.29814,6.29814,0,0,1-.10741-.65015,9.63949,9.63949,0,0,0-.30908-1.02638c-.22264-.65545-.16927-.98758-.08171-1.1371a1.33108,1.33108,0,0,1,.13949-.17423c.28582-.03176.36091-.13938.49037-.131a3.84645,3.84645,0,0,1,.94446.10277,14.58685,14.58685,0,0,1,1.02385,1.43571l.36488.6034,2.00834,1.62184,4.03035,3.21943q4.03785,3.20753,8.1133,6.36917c2.26736,1.7599,4.535,3.81047,6.77022,5.26118a86.03131,86.03131,0,0,1,9.378,7.12914c.63152.54385,1.357,1.04492,2.04407,1.54819,2.75939,2.01793,5.5212,4.0116,8.25522,6.07629,2.72928,2.05542,5.41412,4.24361,8.1885,6.04939,2.83746,1.85649,5.21267,4.38079,8.01638,6.36255,1.12751.801,2.33529,1.84371,3.3995,2.54723,4.11691,2.74086,8.132,6.05468,12.18335,9.19824q3.72639,2.88862,7.43845,5.76621,4.03521,3.13872,8.062,6.27125,5.67964,4.49438,11.36118,8.99094c.39.296.73947.56149,1.10732.84069.13652-.11865.39731.04632,1.6986,1.16533,1.85175,1.5376,3.39817,2.82158,5.1702,4.29346.85393.715,1.43875,1.17371,1.61667,1.30206-.80414-.70617-1.43742-1.26237-2.62144-2.302C288.74628,109.44251,285.35152,106.4992,282.00672,103.51839Zm-98.18311-89.1141q-4.60089-4.018-9.1977-8.03292a3.71307,3.71307,0,0,1-.58806-.77453c-.01643-.24744-.04014-.65632.2255-.45607,1.2638.95405,2.62121,2.08806,5.0574,4.0535.85779.79527,2.78,2.55341,4.59978,4.316a2.51926,2.51926,0,0,1,.46523,1.12078C184.4044,14.72539,184.01338,14.56308,183.82361,14.40429ZM203.77986,34.5201a6.02438,6.02438,0,0,1-1.066-.48431,6.43663,6.43663,0,0,1-.7108-.61177,25.30825,25.30825,0,0,0-4.17216-3.89163c-1.28861-.91745-2.04969-1.99235-1.72042-2.11365a1.16282,1.16282,0,0,1,.83011.01985,6.4625,6.4625,0,0,1,3.075,2.00779,44.73547,44.73547,0,0,0,3.75755,4.73321C203.87822,34.29956,203.87789,34.55142,203.77986,34.5201Zm14.36635,12.92535-1.22112-1.11416c.07388-.00441.17455-.04411.21734-.00706l1.2144,1.0877C218.2846,47.42516,218.17852,47.47412,218.14621,47.44545ZM255.3624,82.9937c-.578-.498-1.15165-.99154-2.39935-2.06556,1.21285.8923,1.75041,1.26589,2.26218,1.68227a6.88248,6.88248,0,0,1,.67407.73307A5.477,5.477,0,0,1,255.3624,82.9937Z"/><path class="cls-1" d="M261.52206,84.41839a2.80032,2.80032,0,0,0,.82955.53414,2.48713,2.48713,0,0,0-.58321-.8032q-4.00129-3.77519-8.02057-7.56758c-1.59648-1.48687-1.809-1.58347-3.24424-1.64963a76.14376,76.14376,0,0,1,7.83521,6.66778C259.37853,82.554,260.45906,83.49874,261.52206,84.41839Z"/><path class="cls-1" d="M297.60093,117.08111c-.24447-.20908-.66592-.56944-.95935-.82041-.49335-.4177-.9626-.81467-1.43769-1.21649.42547.36477.84632.72557,1.28861,1.10446C297.28081,116.81381,298.02954,117.44235,297.60093,117.08111Z"/><path class="cls-1" d="M230.90837,55.39721l-.45453-.5068-.54341-.43226c.19043.23289.36223.46711.58167.69691A2.21542,2.21542,0,0,0,230.90837,55.39721Z"/></g></g></svg>