<svg xmlns="http://www.w3.org/2000/svg" viewBox="0 0 157.19098 407.49101"><defs><style>.cls-1{fill:#24373e;}</style></defs><g id="Слой_2" data-name="Слой 2"><g id="Слой_1-2" data-name="Слой 1"><path class="cls-1" d="M12.22386,376.90328c-.00623.81291-.01251,1.63993-.01869,2.45019a3.17953,3.17953,0,0,0,.0381.56281,2.717,2.717,0,0,0,.06528-.55752q.07707-3.16848.15443-6.3502a3.7709,3.7709,0,0,0-.253-2.03425C12.2882,373.53653,12.27894,373.5727,12.22386,376.90328Z"/><path class="cls-1" d="M11.87072,405.59277l-.00027-.31141C11.87023,405.44324,11.87045,405.51866,11.87072,405.59277Z"/><path class="cls-1" d="M11.87519,407.39678l-.00072-.72734c-.00127-.36874-.00253-.72072-.00375-1.07667.00028.32022.00061.63691.00089.96949C11.87387,407.15639,11.8764,407.71964,11.87519,407.39678Z"/><path class="cls-1" d="M12.82908,354.79115a2.228,2.228,0,0,0,.0274.27259l.02927-.38948-.00744-.39961C12.861,354.44534,12.83955,354.609,12.82908,354.79115Z"/><path class="cls-1" d="M152.95734,100.00765c-.64166.41241-1.28778.83232-1.90584,1.25928-.5105.35286-.99348.67-1.53545,1.01316a31.81662,31.81662,0,0,0-3.01273,2.0316,2.99562,2.99562,0,0,1-.78942.46578,2.13584,2.13584,0,0,0-.61845.35154,7.43774,7.43774,0,0,1-1.00014.66912c-.58107.33522-1.16356.704-1.73691,1.09916-.15526.10719-.33467.19981-.51176.30347-.06605-.16629.62771-.65765.61889-.82879a12.73251,12.73251,0,0,0-1.168.65853,6.54482,6.54482,0,0,0-1.35378.77586c.05568.04851.16672.06528.14009.15393a1.92329,1.92329,0,0,1-.42442.3339c-.41.25009-.83849.5165-1.24.71454-.72326.35287-1.38466.90245-2.12137,1.22179a5.37408,5.37408,0,0,0-.66051.46666,17.14449,17.14449,0,0,1-3.19462,1.6858,5.40568,5.40568,0,0,0-1.92476.99816,3.83587,3.83587,0,0,1-1.23259.69294,3.17856,3.17856,0,0,0-1.16753.7688,2.55757,2.55757,0,0,1-.812.73086,7.76352,7.76352,0,0,1-.75082.26421,2.886,2.886,0,0,0-.90829.37932,8.29884,8.29884,0,0,1-2.40961,1.07668,2.42289,2.42289,0,0,0-1.07976.5487c-.48679.49268-1.22576.62721-1.72909,1.10534-.53094.513-1.23634.52576-1.85484.82041a3.9941,3.9941,0,0,0-.562.26905c-1.25305.88789-2.70331,1.40616-4.02054,2.17187a33.01915,33.01915,0,0,0-4.01921,2.22612,2.655,2.655,0,0,1-.57676.22231,27.38633,27.38633,0,0,0-3.57158,1.7621,7.78221,7.78221,0,0,1-.72342.42035c-2.52788,1.20282-5.08574,2.35359-7.63529,3.52686q-4.01832,1.85584-8.04261,3.71432-4.19482,1.98155-8.39438,3.96573c-.70143.32773-1.36553.72293-2.08719,1.01228a109.84983,109.84983,0,0,0-10.1068,4.79584c-5.47,2.85113-10.9222,5.73181-16.281,8.75143-3.2266,1.81592-6.28029,3.89208-9.3508,5.94088-2.95682,1.96765-5.81788,4.07468-8.74818,6.0838-2.93063,2.00955-5.94645,3.8978-8.85012,5.94882q-.66642.47106-1.35213.91126c.79769-14.4775,1.55205-28.95854,2.09948-43.43384.31416-8.25037.2813-16.49677.26255-24.74052.36235-.16452.72822-.32331,1.08527-.49621,3.14754-1.52657,6.196-3.2159,9.352-4.72439,3.60008-1.72329,7.11139-3.59434,10.6044-5.49054,2.389-1.29809,4.74264-2.65441,7.088-4.02263q2.16481-1.263,4.29638-2.58031c1.89432-1.17018,3.78919-2.3386,5.6415-3.57626,1.50606-1.00654,2.95737-2.10306,4.43884-3.15018,1.424-1.00522,2.90158-1.92795,4.27185-3.01521L89.82086,63.13661c.38242-.30567.73357-.659,1.102-.98625.84213-.74851,1.67158-1.516,2.53653-2.231Q95.808,57.97622,98.195,56.08994l3.48215-2.69807a39.63,39.63,0,0,1,3.28785-2.605,1.7092,1.7092,0,0,0,.45139-.43887,10.62705,10.62705,0,0,1,1.7041-1.5601,14.23821,14.23821,0,0,0,1.88109-1.66771,6.92384,6.92384,0,0,1,3.10938-2.30463,2.678,2.678,0,0,0,.67171-.44152l1.302-1.06653,6.028-4.8995,1.77881-1.47011a16.22276,16.22276,0,0,0,1.75566-1.47938,11.05171,11.05171,0,0,1,1.82479-1.314c.21916-.16893.42041-.36477.6324-.54561.89632-.7666,1.77589-1.57509,2.70524-2.272,1.3416-1.00786,2.66367-2.03248,3.98046-3.07034.54985-.43226,1.17056-.8407,1.64329-1.28971a18.79957,18.79957,0,0,1,2.24448-1.78857c.1664-.11557.32849-.25671.48877-.38859q.968-.78931,1.93561-1.57774c.65291-.51518,1.33421-1.011,1.93182-1.553.615-.55134,1.3573-.94832,1.99968-1.48334.2599-.21393.58123-.43094.81462-.636.90685-.79129,1.94261-1.51907,2.94166-2.26538l1.83593-1.366,1.99952-1.47188,2.85813-2.05763c.09306-.06881.181-.13409.27132-.20113-.01456-.03308.04217-.082.38963-.31273.48486-.33169.88652-.60648,1.34843-.92229.1879-.13144.31471-.22054.41136-.288-.21916.14291-.39851.25936-.7087.46137-.9208.60251-1.83328,1.19973-2.74632,1.797-.64165.41241-1.28772.83232-1.90584,1.25928-.51044.35286-.99342.67-1.53545,1.01316a31.90735,31.90735,0,0,0-3.01267,2.0316,2.98392,2.98392,0,0,1-.78948.46578,2.14709,2.14709,0,0,0-.61844.35154,7.40012,7.40012,0,0,1-1.00009.66912c-.58107.33566-1.16362.704-1.73691,1.09916-.15526.10719-.33473.19981-.51176.30347-.06611-.16629.62765-.65765.61888-.82879a12.72722,12.72722,0,0,0-1.168.65853,6.52649,6.52649,0,0,0-1.35378.7763c.05569.04808.16673.06528.1401.15393a1.93984,1.93984,0,0,1-.42443.33346c-.41009.25053-.83854.5165-1.24.71455-.72326.35286-1.3846.90244-2.12137,1.22222a5.36772,5.36772,0,0,0-.66051.46622,17.1144,17.1144,0,0,1-3.19462,1.6858,5.4127,5.4127,0,0,0-1.9247.99816,3.846,3.846,0,0,1-1.23259.69338,3.168,3.168,0,0,0-1.16759.7688,2.5568,2.5568,0,0,1-.812.73042,7.61549,7.61549,0,0,1-.75082.26465,2.88516,2.88516,0,0,0-.90829.37889,8.28687,8.28687,0,0,1-2.40956,1.07667,2.42317,2.42317,0,0,0-1.07981.5487c-.48679.49268-1.22576.62721-1.72908,1.10534-.531.513-1.23634.52577-1.85485.82041a4.09718,4.09718,0,0,0-.562.26905c-1.253.88834-2.70326,1.40616-4.02049,2.17187a32.96159,32.96159,0,0,0-4.01927,2.22657,2.63012,2.63012,0,0,1-.57676.22186,27.33453,27.33453,0,0,0-3.57152,1.76255,7.90026,7.90026,0,0,1-.72342.42034c-2.52793,1.20238-5.0858,2.3536-7.63529,3.52686q-4.01833,1.85518-8.04262,3.71388-4.19481,1.98154-8.39443,3.96574c-.70143.32816-1.36552.72336-2.08713,1.01227a109.85711,109.85711,0,0,0-10.10686,4.79584c-5.46992,2.85113-10.92214,5.73225-16.281,8.75143-3.22654,1.81592-6.28023,3.89252-9.35074,5.94089-2.95688,1.96809-5.81788,4.07468-8.74818,6.08379-2.50257,1.71623-5.0633,3.34954-7.56714,5.06534q-.04433-3.0269-.07355-6.05512c-.07272-8.42239.03986-16.8558-.09433-25.27775A138.48744,138.48744,0,0,1,26.8,35.40514a112.1502,112.1502,0,0,0,.01825-22.7486A15.80921,15.80921,0,0,0,21.751,2.44823c-3.23834-3.05535-8.68532-3.75137-12.24107.83628a15.06859,15.06859,0,0,0-3.20592,7.815c-.7215,6.737-1.56677,13.46038-2.04335,20.2102-.58052,8.22479-.923,16.46457-1.5285,24.68185C2.04483,65.36979,1.572,74.76255,1.13869,84.1531.84322,90.57652.6331,97.00568.441,103.434q-.17706,5.93339-.275,11.87162c-.0875,5.27617-.177,10.55147-.165,15.8325.01014,4.29389.15179,8.59661.22076,12.89447.06567,4.12982.00783,8.25831.19584,12.38857L2.76213,206.049c.055,1.15563.1809,2.31081.26779,3.46688.19942,2.6425.42674,5.28367.57544,7.92794q.40474,7.18185.724,14.36591l.40955,10.40945c.13849,3.30058.49422,6.599.447,9.90441a7.35174,7.35174,0,0,0,.14588,1.46526,46.28906,46.28906,0,0,1,.45046,5.40585c.1498,1.961.1026,3.93221.44041,5.89677a30.56461,30.56461,0,0,1,.25671,9.15943,11.96716,11.96716,0,0,0-.003,1.9059l.213,3.96706.94777,18.31842.30512,5.43761c.10067,1.81239.10326,3.75622.33064,5.4032a49.46891,49.46891,0,0,1,.11038,5.32514c.02525.65456.09025,1.3078.13249,1.96324.18084,2.7735.4166,5.56773.50161,8.31609.125,3.9697.281,7.92264.454,11.88176.07091,1.6514.06854,3.41306.21045,4.9339.21,2.2742.28808,4.47738.31565,6.77408.00573.48033.04119.98537.06787,1.47452.103,1.9628.20554,3.9181.30887,5.88751.08667,1.96412.13331,3.95956.28592,5.8487.15047,1.93545.05222,3.92339.16629,5.89192.04372.7935.04841,1.71271.10095,2.44181.19915,2.82643.243,5.82576.33169,8.77613q.07866,2.71263.157,5.41512.07749,2.94155.15482,5.87736.08617,4.16952.17246,8.34035c.00794.281.01511.53415.02266.79967.04472.01412.05629.19011.05734,1.179.01108,1.38807.02029,2.545.03088,3.87222.00832.61531.01384,1.0158.0161,1.19135.00253-.61486.00441-1.1049.008-2.00646.00733-2.609.01455-5.19767.02178-7.78062.01312-1.808.02106-3.63448.00259-5.41467-.01566-1.471-.01285-2.84055.00325-4.36138.02453-2.84672.10928-5.82135-.03871-8.61294a13.298,13.298,0,0,1,.05916-2.17054,9.54959,9.54959,0,0,0,.06027-1.68316c-.049-.95758-.03987-1.85164-.00739-2.85245.05122-1.58788.06914-3.22163.0526-4.87215-.00458-.44725.02271-.92318.03677-1.40924.21911.08512.25252,2.09909.43684,2.30375.13138-.90995.04388-2.17319.11975-3.17091a29.24838,29.24838,0,0,0,.125-3.69315c-.08871.04764-.1831.24568-.25721.07763a8.58021,8.58021,0,0,1-.05474-1.27472c.02188-1.13842.04-2.33374.11065-3.38748.13128-1.89222.01461-3.91809.18994-5.794.04571-.47416-.02255-1.26325-.03054-1.9156a76.09055,76.09055,0,0,1,.4473-8.52472,23.88143,23.88143,0,0,0,.28742-5.11342,17.08066,17.08066,0,0,1,.128-3.34469,14.13035,14.13035,0,0,0,.00419-3.31382,11.05823,11.05823,0,0,1-.20135-2.55958c.0451-.35771.12064-1.15607.24254-1.83224a12.44617,12.44617,0,0,0,.23162-2.2936,36.08408,36.08408,0,0,1,.54021-6.17686,10.64309,10.64309,0,0,0,.173-2.85422c-.17764-1.60508.19209-3.245.04085-4.86465a25.57573,25.57573,0,0,1,.42471-4.7438c.03523-.49.11429-.99595.10735-1.46393-.06115-3.63846.39967-7.18693.51038-10.79363.09792-3.62169.62082-7.20986.45243-10.86243a11.31735,11.31735,0,0,1,.16657-1.43218c.29624-3.1021.57092-6.21347.62721-9.37159.01163-.65985.01224-1.3272.061-1.98088q.79609-9.86207,1.592-19.72193.83827-10.37747,1.678-20.773.8286-10.89155,1.65823-21.79764c.1422-1.8168.1884-3.64684.385-5.45349.21073-1.92355.39394-3.84885.56783-5.775,1.81912-.71852,3.63168-1.44718,5.3741-2.29228,3.14748-1.52613,6.196-3.2159,9.352-4.724,3.6-1.72373,7.11134-3.59435,10.6044-5.491,2.389-1.29809,4.74264-2.65441,7.088-4.02263q2.16472-1.263,4.29638-2.57987c1.89426-1.17018,3.78913-2.3386,5.6415-3.57626,1.506-1.00654,2.95737-2.1035,4.43884-3.15018,1.424-1.00566,2.90152-1.92795,4.27184-3.01565l16.429-13.12428c.38236-.30567.73351-.659,1.102-.98625.84207-.74895,1.67152-1.516,2.53648-2.23142q2.34866-1.9425,4.73569-3.829l3.48214-2.69807a39.73877,39.73877,0,0,1,3.2878-2.60545,1.71356,1.71356,0,0,0,.45139-.43843,10.591,10.591,0,0,1,1.7041-1.5601,14.20766,14.20766,0,0,0,1.88115-1.66815,6.92276,6.92276,0,0,1,3.10932-2.3042,2.66748,2.66748,0,0,0,.67171-.442l1.302-1.06608,6.028-4.8995,1.77876-1.47011a16.217,16.217,0,0,0,1.75566-1.47938,11.02848,11.02848,0,0,1,1.82485-1.314c.21911-.16937.4204-.36477.63234-.54561.89638-.767,1.77595-1.57553,2.7053-2.272,1.34154-1.0083,2.66361-2.03293,3.98045-3.07034.54986-.43226,1.17057-.8407,1.64324-1.28971a18.80544,18.80544,0,0,1,2.24448-1.78858c.1664-.116.32849-.25714.48883-.38859q.96793-.7893,1.93556-1.57773c.6529-.51562,1.33426-1.011,1.93186-1.553.615-.55135,1.35726-.94876,1.99963-1.48334.25991-.21393.58129-.43138.81462-.636.90691-.79129,1.94267-1.51907,2.94166-2.26538l1.836-1.366,1.99951-1.47187,2.85813-2.05763c.093-.06881.181-.13409.27127-.20113-.01456-.03353.04223-.082.38963-.31317.48492-.33169.88652-.606,1.34844-.92229.18784-.131.31471-.21966.41125-.28759-.21911.14247-.39846.2598-.70854.46137C154.7828,98.81321,153.87037,99.41043,152.95734,100.00765Zm-7.17347-82.21829a1.81423,1.81423,0,0,1,.21431-.11159,1.36234,1.36234,0,0,1-.11722.10233c-.15372.10365-.30649.20643-.63868.42961C145.53036,17.98388,145.65309,17.88243,145.78387,17.78936Zm-10.98687,6.543.33483-.21216c-.004.05469-.34558.26641-.34558.26641C134.78944,24.368,134.78547,24.33982,134.797,24.33232ZM129.02439,27.782a1.35469,1.35469,0,0,1,.66227-.60295,9.19846,9.19846,0,0,0,1.38041-.52886c.04334.09969-.01891.17952-.09146.25627a1.35276,1.35276,0,0,1-.18978.12659,5.32674,5.32674,0,0,0-1.18926.7141c-.29579.247-.60477.34316-.619.24657A.29969.29969,0,0,1,129.02439,27.782Zm-5.68175,2.86127c.26795-.19628.55708-.37491,1.06945-.71013.18768-.09307.61139-.303,1.02843-.50945.05822-.02734.13954.03441.184.07366.01345.01147-.0515.10277-.09577.12968l-2.09363,1.23722c-.03661.02162-.13194.01941-.13343-.00088C123.29666,30.79544,123.28651,30.68472,123.34264,30.64326ZM11.38493,376.50366c-.00893-.12174-.0247-.24877-.026-.36565l-.00711-1.8243c.03435.86495.04924,1.24031.06434,1.61964C11.41933,376.1186,11.3959,376.31356,11.38493,376.50366Zm.78225-29.917a6.92425,6.92425,0,0,1-.03925-1.03124A7.74,7.74,0,0,1,12.16718,346.58665Zm.56861-14.77126c-.1895,1.06741-.29734,2.22259-.401,3.42453-.00789.0913-.07443.18658-.08855.13188a5.258,5.258,0,0,1-.11573-.64662c-.01477-.12041-.00154-.32022-.00077-.54032a23.79265,23.79265,0,0,0,.076-3.286c-.05321-.9073.05971-1.64522.17-1.54819a.67274.67274,0,0,1,.18873.3683A5.80391,5.80391,0,0,1,12.73579,331.81539ZM13.5047,317.779c-.0327.49268-.10647,1.60685-.17892,2.70072a.34463.34463,0,0,1-.20344.26906.85016.85016,0,0,1-.06909-.35816l.15466-5.75915c.003-.10057.07079-.28715.09323-.26333a.58369.58369,0,0,1,.2008.367C13.52168,315.52152,13.5085,316.32693,13.5047,317.779Zm112.532-201.05753-2.09363,1.23766c-.03655.02117-.13188.01941-.13343-.00132-.005-.06793-.0151-.17864.041-.21966.268-.19628.55714-.37491,1.0695-.71057.18768-.09263.61139-.30258,1.02838-.509.05828-.02735.13954.03441.184.07322C126.146,116.60366,126.08107,116.695,126.03674,116.72143Zm5.44688-2.72013a1.35339,1.35339,0,0,1-.18978.12615,5.329,5.329,0,0,0-1.1892.71454c-.2958.247-.60483.34316-.619.24657a.30059.30059,0,0,1,.04686-.21216,1.354,1.354,0,0,1,.66223-.60252,9.15378,9.15378,0,0,0,1.38046-.52929C131.61842,113.84472,131.55617,113.92455,131.48362,114.0013Zm4.15225-2.732-.34161.21216c.01075-.05469.34558-.26641.34558-.26641C135.6389,111.23353,135.64469,111.264,135.63587,111.26926ZM146.389,104.875c-.15371.10321-.30649.206-.63863.42961.288-.22627.41081-.32728.54154-.42035a1.75,1.75,0,0,1,.21436-.112A1.44059,1.44059,0,0,1,146.389,104.875Z"/><path class="cls-1" d="M156.4122,97.74933c.08347-.05557.04339-.02867.00369-.00264Z"/><path class="cls-1" d="M144.19946,105.5079a19.0436,19.0436,0,0,1,2.07941-1.38984c.28874-.18525.58211-.37359.87008-.558.0779-.05161.19677-.15482.18123-.15659a.644.644,0,0,0-.22473.086l-2.30144,1.37529C144.35,105.13916,144.3126,105.1815,144.19946,105.5079Z"/><path class="cls-1" d="M157.158,97.25091c-.0698.04676-.18079.12042-.25555.17026-.12472.08336-.24557.16452-.36725.24656l.33081-.22009C157.074,97.30781,157.271,97.17505,157.158,97.25091Z"/><path class="cls-1" d="M138.23559,108.86141a.507.507,0,0,0,.0838-.08159l-.1498.071-.13734.09836C138.1,108.921,138.16683,108.89714,138.23559,108.86141Z"/><path class="cls-1" d="M146.64088,16.46525c.078-.05117.19678-.15438.18128-.15659a.63783.63783,0,0,0-.22472.08646L144.296,17.77c-.45409.27435-.49142.31669-.60455.64309a19.167,19.167,0,0,1,2.07941-1.38984C146.0596,16.838,146.35291,16.65006,146.64088,16.46525Z"/><path class="cls-1" d="M156.64994,10.15651c-.06986.04631-.18079.12-.25561.16981-.127.08513-.25.16761-.374.251.1117-.07411.22252-.14777.33764-.22407C156.566,10.21341,156.763,10.0802,156.64994,10.15651Z"/><path class="cls-1" d="M156.0203,10.5773c-.03507.02337-.07052.04675-.10592.07057C155.96605,10.6139,155.99334,10.59538,156.0203,10.5773Z"/><path class="cls-1" d="M137.81138,21.685l-.1498.07145-.13734.09792c.0677-.02823.13458-.05205.20328-.08733A.5094.5094,0,0,0,137.81138,21.685Z"/></g></g></svg>