<svg xmlns="http://www.w3.org/2000/svg" viewBox="0 0 175.8839 433.22032"><defs><style>.cls-1{fill:#24373e;}</style></defs><g id="Слой_2" data-name="Слой 2"><g id="Слой_1-2" data-name="Слой 1"><path class="cls-1" d="M174.87767,430.88659c.07278.17422.1063.25141.13938.32684-.045-.1063-.0913-.21481-.13673-.322Z"/><path class="cls-1" d="M170.64288,420.48155c-.75513-1.93236-1.538-3.87663-2.39109-5.73489-.70528-1.53452-1.30074-2.98875-1.91869-4.62118a53.73082,53.73082,0,0,0-3.93089-9.06989,5.19483,5.19483,0,0,1-.76791-2.37653,3.76194,3.76194,0,0,0-.55267-1.86,12.96533,12.96533,0,0,1-1.28442-3.0108,45.43037,45.43037,0,0,0-1.99191-5.225,15.3796,15.3796,0,0,1-.51209-1.53715c.69822-.17908,1.69815,1.909,2.354,1.89531-.00926-1.12387-.84422-2.34874-1.06432-3.49555a11.97924,11.97924,0,0,0-1.29324-4.04821c-.24039.157-.43094.47989-.72513.39168a3.66807,3.66807,0,0,1-.73219-1.28134,32.04777,32.04777,0,0,1-1.19312-3.71079c-.4724-2.15246-1.71315-4.15672-2.059-6.34005a10.46689,10.46689,0,0,0-.947-1.98794,35.70343,35.70343,0,0,1-2.62088-9.49377,11.19387,11.19387,0,0,0-1.55789-5.70093,8.13825,8.13825,0,0,1-1.19268-3.65831,6.82948,6.82948,0,0,0-1.49922-3.4951,5.6959,5.6959,0,0,1-1.67742-2.48768,18.00367,18.00367,0,0,1-.22275-2.17937,6.42243,6.42243,0,0,0-.46886-2.65088,19.25114,19.25114,0,0,1-1.51952-7.03431,5.55371,5.55371,0,0,0-.90421-3.16826c-1.16092-1.516-1.05329-3.59214-2.16-5.14739-1.1865-1.6461-.741-3.58155-1.21826-5.38159a9.29632,9.29632,0,0,0-.43887-1.63508c-1.84238-3.7571-2.4546-7.905-3.92427-11.775-1.48687-3.88193-2.066-8.09246-4.1576-11.76532a6.9253,6.9253,0,0,1-.33258-1.639,67.98517,67.98517,0,0,0-3.18634-10.31462,21.49833,21.49833,0,0,1-.82482-2.11805c-2.17407-7.26147-4.26567-14.5472-6.51472-21.78441q-3.52047-11.42481-7.32764-22.75611c-1.78769-5.31543-3.65918-10.60219-5.54832-15.88234.34316-.8526.6925-1.70256,1.03477-2.5556.48122-1.20724.85437-2.45725,1.2853-3.68477.98228-2.8079,1.92575-5.62992,2.96978-8.41533,1.86973-5.05079,3.83077-10.06673,5.7424-15.10252l4.28375-10.89463c1.3272-3.46643,2.26141-7.089,3.91721-10.42929a4.68174,4.68174,0,0,0,.42168-1.60641c.17951-2.0735,1.12078-3.91677,1.70609-5.86722.64353-2.1185,1.66462-4.09717,1.91824-6.37711a18.25431,18.25431,0,0,1,3.77475-9.58418,6.92939,6.92939,0,0,0,.89451-1.95045c.498-1.40263.94126-2.82731,1.41145-4.241q3.23994-9.80054,6.41327-19.62753c.6303-1.94516,1.20679-3.90928,1.79343-5.87031a35.70529,35.70529,0,0,0,1.69065-5.87075c.26024-2.27332,1.5151-3.70506,2.15026-5.59023.236-.69866.37447-1.43482.569-2.15113.82614-3.03065,1.475-6.1579,2.49915-9.07739,1.46393-4.22377,2.82863-8.46694,4.12628-12.7454a46.16092,46.16092,0,0,0,1.62493-5.32778,36.61469,36.61469,0,0,1,2.11541-7.36292,14.0853,14.0853,0,0,0,.45608-1.60376c.55355-2.15731,1.08637-4.31374,1.69109-6.4587a64.76128,64.76128,0,0,0,1.69595-6.40887c.38241-2.19392,1.53451-4.13952,2.03822-6.32374.20643-.87907.58575-1.84106.73528-2.665a91.29629,91.29629,0,0,1,2.69322-9.55772q.88856-2.93163,1.77313-5.85223.97325-3.17576,1.94428-6.344,1.43107-4.47981,2.86215-8.96095c.0988-.30214.16585-.5809.24921-.86936-.16011-.082-.12967-.28318.27524-1.31927.55487-1.45732.9492-2.70337,1.47717-4.09982.24876-.6775.393-1.138.4274-1.27692-.26288.64133-.47107,1.15033-.85657,2.09247-1.07006,2.732-2.14629,5.43806-3.27677,8.1132-.79041,1.8737-1.56848,3.77518-2.23715,5.66432-.55179,1.56142-1.12651,2.99051-1.80842,4.55943a51.63635,51.63635,0,0,0-3.43071,9.06151,4.99376,4.99376,0,0,1-1.08725,2.19348,3.62107,3.62107,0,0,0-.88613,1.68359,12.433,12.433,0,0,1-1.15386,2.9936,43.7481,43.7481,0,0,0-2.17231,5.03226,14.648,14.648,0,0,1-.692,1.42953c-.62589-.35639.09527-2.508-.38639-2.95125-.7688.79262-1.01315,2.22656-1.64654,3.18106a11.51964,11.51964,0,0,0-1.86312,3.72667c.28141.056.64133-.03882.79218.22627a3.53943,3.53943,0,0,1-.35727,1.40219,30.73625,30.73625,0,0,1-1.70256,3.42056c-1.14548,1.83268-1.63552,4.09188-2.89392,5.85884a10.07568,10.07568,0,0,0-.68984,2.04528,34.33509,34.33509,0,0,1-4.66661,8.45414,10.77862,10.77862,0,0,0-2.8132,5.06623,7.82517,7.82517,0,0,1-1.666,3.38351,6.56309,6.56309,0,0,0-1.33338,3.48143,5.48925,5.48925,0,0,1-.50989,2.89876,17.26112,17.26112,0,0,1-1.344,1.67919A6.18908,6.18908,0,0,0,134.8238,89.205a18.54482,18.54482,0,0,1-3.76107,5.97264A5.34022,5.34022,0,0,0,129.5269,98.019c-.21084,1.86223-1.72109,3.24148-1.99809,5.094-.28229,1.97118-1.939,3.01874-2.83745,4.6075a8.98573,8.98573,0,0,0-.81291,1.44762c-1.26678,3.90178-3.68874,7.22751-5.3022,10.95065-1.609,3.74343-4.09806,7.09033-5.12753,11.105-.12218.47681-.6109.90156-.89186,1.37661a65.38295,65.38295,0,0,0-4.82584,9.41922,20.72065,20.72065,0,0,1-.868,2.05189c-3.447,6.5831-6.96992,13.12649-10.34593,19.74487q-3.69249,7.19442-7.24206,14.45986-.3447-.82039-.68985-1.64125Q78.82761,153.56377,68.154,130.86347c-4.31242-9.095-8.99182-18.03392-13.63549-26.98384Q47.74615,90.98935,40.97914,78.10876c-4.4818-8.60985-8.882-17.26733-13.40525-25.85953-2.84275-5.401-5.56861-10.83641-8.25434-16.29607C15.4588,28.10153,11.22577,20.42941,6.99406,12.78685,4.8147,8.86258,2.79324,5.44334,1.24373,2.50179-.43281-.58752-.416-1.43307,1.30416,3.56435c.89891,2.62088,1.76387,5.446,2.79643,8.55647,2.43652,7.3563,4.73939,14.751,7.05769,22.17035,2.82643,9.03946,5.67624,18.08774,8.34917,27.181q4.546,15.57844,9.10077,31.18511,3.11952,10.66725,6.243,21.34465,1.95045,6.55663,3.90133,13.11811c1.77093,5.81517,3.49908,11.64667,5.3569,17.43185,1.48952,4.71292,3.14665,9.36762,4.71733,14.05187,1.50187,4.50429,2.908,9.04607,4.55192,13.49214,5.67536,15.15985,11.61888,30.2112,17.7115,45.20168-3.46688,7.381-6.50238,14.9574-9.46245,22.55806q-8.90008,22.884-16.88491,46.14031c-3.17356,9.34247-5.97485,18.82918-8.80966,28.29869q-4.022,13.6968-8.04085,27.38389c-2.7166,9.11973-5.525,18.21609-8.1992,27.35258-1.68139,5.7424-3.47129,11.42834-5.30617,17.10369-2.6403,8.16039-4.88847,16.45221-7.11724,24.72243-1.13975,4.25111-2.04484,8.04-2.95964,11.16854-.92538,3.31955-1.52127,3.89957.68985-.78556,1.16136-2.455,2.489-5.02962,3.89252-7.91912,3.32352-6.83142,6.76966-13.59667,10.222-20.39016,4.20436-8.27815,8.39813-16.57836,12.75025-24.78815Q39.34494,354.1,46.838,340.03287q5.11627-9.61992,10.23786-19.24953l6.24567-11.87515c2.73909-5.2925,5.52009-10.56691,8.17582-15.8991,2.18069-4.327,4.20039-8.7285,6.30257-13.0912,2.02808-4.1898,4.15054-8.33947,6.03615-12.58572q2.26737-5.16525,4.48268-10.35079l2.56178,6.1182c1.493,3.48055,3.3769,6.79834,4.54619,10.41694a4.86549,4.86549,0,0,0,.83011,1.47673c1.33162,1.64875,1.95751,3.66492,2.91288,5.51,1.03213,2.00867,1.69639,4.18054,3.12019,6.03351a18.9846,18.9846,0,0,1,4.05351,9.69578,7.19657,7.19657,0,0,0,.73439,2.062c.63207,1.381,1.31883,2.73909,1.97824,4.10864q4.58764,9.47766,9.241,18.92843c.9192,1.87237,1.89046,3.72093,2.85289,5.57346a37.01041,37.01041,0,0,0,2.92611,5.50157c1.415,1.853,1.527,3.788,2.40079,5.61978.32331.67881.74278,1.317,1.10887,1.98,1.54377,2.807,3.28206,5.56067,4.60662,8.42547,1.92884,4.13246,3.94192,8.20935,6.02778,12.26462a48.02663,48.02663,0,0,0,2.59133,5.057,38.02873,38.02873,0,0,1,3.6733,6.89626,14.61874,14.61874,0,0,0,.80408,1.49878c1.12343,1.97427,2.26185,3.93265,3.34029,5.93382a67.2106,67.2106,0,0,0,3.30147,5.90031c1.27207,1.88031,1.819,4.12011,2.99712,6.07894.47152.79085.87819,1.76431,1.35147,2.47444a95.04724,95.04724,0,0,1,4.80687,8.91552q1.42976,2.77812,2.85466,5.54567,1.54091,3.017,3.07828,6.02778,2.13306,4.2972,4.26567,8.59573c.14246.29155.29111.543.43446.81379.172-.05249.292.11644.73263,1.16224.62942,1.46129,1.22531,2.654,1.8318,4.0513.29949.67308.52047,1.11284.59413,1.23855-.26421-.65589-.47416-1.17636-.86187-2.13967C172.85577,425.98709,171.71911,423.24226,170.64288,420.48155ZM164.3531,33.6225a2.99172,2.99172,0,0,1,.341-.554,2.38238,2.38238,0,0,1-.071.415c-.1804.46049-.359.917-.74807,1.91075C164.12286,34.44555,164.21416,34.02741,164.3531,33.6225ZM149.88618,63.37322c.0419.049.1288.11777.11821.14335l-.4349.97964c-.03529-.05117-.112-.11689-.0988-.15129Zm-7.58787,14.85154a20.08632,20.08632,0,0,0,2.45725-3.1612c.05866-.0869.27435-.11513.28935-.04279a2.967,2.967,0,0,1,.03925.80012,2.69465,2.69465,0,0,1-.22142.56634A10.71314,10.71314,0,0,0,143.304,79.7434c-.2373,1.00477-.83452,1.658-1.07932,1.44144a.97114.97114,0,0,1-.337-.58311A2.89934,2.89934,0,0,1,142.29831,78.22476Zm-7.6205,13.94689c.27435-.48739.88-1.59449,1.52789-2.65881.08954-.14688.42255-.11027.61531-.07808.05822.00971.08336.32023.02646.44593l-2.71043,5.8906c-.04807.10233-.28758.23157-.33257.18481-.1482-.15525-.39565-.40535-.33963-.58222C133.73258,94.52789,134.0872,93.69426,134.67781,92.17165Zm6.12745,247.86872c-.04851.034-.28493-.176-.33257-.30832l-2.21245-6.23419c-.03793-.10895.04235-.37271.10719-.37007.21524.00971.5681.019.65279.18878.40447.80938.73792,1.67169,1.38852,3.20532.14732.5509.49444,1.79033.78114,3.028C141.22958,339.721,140.96582,339.92833,140.80526,340.04037Zm4.2767,16.37591a3.06812,3.06812,0,0,1-.59149-.56017,2.80933,2.80933,0,0,1-.24039-.57164,11.14594,11.14594,0,0,0-1.25045-3.56215c-.53812-.90465-.5712-1.80533-.24392-1.81856a.97488.97488,0,0,1,.651.191c.59369.46534,1.39249,1.21253,1.38058,2.0347a20.807,20.807,0,0,0,.47107,4.0513C145.2778,356.28572,145.14371,356.45862,145.082,356.41628Zm4.55854,11.94-.37889-1.026c.06131.01324.16276.0075.17688.04191l.38815,1.0061C149.7618,368.3717,149.65109,368.38273,149.6405,368.35626Zm10.7085,32.34779c-.1954-.4649-.38948-.92626-.81115-1.93016.49092.87157.72028,1.243.906,1.63773a3.10254,3.10254,0,0,1,.14644.64706A2.42377,2.42377,0,0,1,160.349,400.70405Z"/><path class="cls-1" d="M160.77552,394.13243a33.35739,33.35739,0,0,1,2.69013,6.25007c.31979.87687.6775,1.75594,1.03433,2.61427.09792.23422.34713.59061.37624.54385a1.21457,1.21457,0,0,0-.03661-.67573q-1.17568-3.44635-2.35756-6.90728C162.0026,394.596,161.88483,394.48441,160.77552,394.13243Z"/><path class="cls-1" d="M175.51326,432.35317c-.17025-.39079-.33213-.76306-.49621-1.13974.14423.34051.28714.67749.43711,1.0308.27391.625.53547,1.21649.38638.87686C175.75674,432.92393,175.61339,432.58738,175.51326,432.35317Z"/><path class="cls-1" d="M155.37143,376.2842c.01941.07587.13232.16937.20245.25494l-.09174-.445-.2029-.41285A5.22572,5.22572,0,0,0,155.37143,376.2842Z"/><path class="cls-1" d="M162.15786,31.55737c.37491-.83452.72425-1.69683,1.05947-2.5437.0913-.23156.1579-.65323.105-.64044a1.17992,1.17992,0,0,0-.44063.49842q-1.53165,3.2234-3.07035,6.46179c-.59457,1.284-.58663,1.44365-.03087,2.45548A32.041,32.041,0,0,1,162.15786,31.55737Z"/><path class="cls-1" d="M175.84628.10056c-.07587.19584-.20511.53062-.29464.76307-.14644.38815-.28538.75821-.42609,1.13269.12968-.33567.25848-.66736.39345-1.01581C175.75321.35418,175.97331-.23995,175.84628.10056Z"/><path class="cls-1" d="M175.12555,1.99632c-.0419.10806-.08468.21877-.127.32772C175.066,2.15422,175.096,2.07439,175.12555,1.99632Z"/><path class="cls-1" d="M151.38144,53.69376l-.24083.37536-.13894.42873a5.02627,5.02627,0,0,0,.34977-.48563A1.00713,1.00713,0,0,0,151.38144,53.69376Z"/></g></g></svg>