<svg xmlns="http://www.w3.org/2000/svg" viewBox="0 0 369.51066 428.32332"><defs><style>.cls-1{fill:#24373e;}</style></defs><g id="Слой_2" data-name="Слой 2"><g id="Слой_1-2" data-name="Слой 1"><path class="cls-1" d="M25.06157,67.22214c-.202-.131-.5906-.27214-.58972-.21833a1.11665,1.11665,0,0,0,.38418.51915q2.75862,2.07483,5.53,4.1598c1.102.81159,1.256.83276,2.33771.47549a30.01635,30.01635,0,0,1-5.45415-3.4435C26.55087,68.19825,25.80038,67.702,25.06157,67.22214Z"/><path class="cls-1" d="M1.76206,50.74346c.08954.05734.18106.116.27148.17379C1.89042,50.82374,1.82558,50.78316,1.76206,50.74346Z"/><path class="cls-1" d="M.08707,49.68884c.17158.10939.46423.29553.66757.4252.34536.21569.67441.42123,1.00742.62942-.29817-.19054-.59325-.37888-.90267-.57693C.31025,49.82514-.21154,49.50359.08707,49.68884Z"/><path class="cls-1" d="M105.26391,387.2089c-.00352.8354-.00683,1.68492-.01036,2.51723a3.34424,3.34424,0,0,0,.04014.57781,2.87976,2.87976,0,0,0,.06329-.573q.06617-3.25449.13277-6.524a3.97257,3.97257,0,0,0-.26-2.08894C105.31662,383.75,105.30758,383.787,105.26391,387.2089Z"/><path class="cls-1" d="M105.01978,418.53647c-.00088-.19231-.00221-.51959-.00309-.74718-.00265-.37845-.00507-.73925-.0075-1.104.00133.32816.00265.65279.00419.99375C105.01779,418.28947,105.0222,418.86816,105.01978,418.53647Z"/><path class="cls-1" d="M105.00919,416.68527l-.00132-.322C105.00809,416.53045,105.00875,416.60852,105.00919,416.68527Z"/><path class="cls-1" d="M105.79321,364.49117a2.37036,2.37036,0,0,0,.02845.27964l.02779-.40006-.00883-.41064C105.82386,364.13566,105.80313,364.30371,105.79321,364.49117Z"/><path class="cls-1" d="M264.37447,396.89894c-.0033.8354-.00683,1.68492-.01014,2.51724a3.35481,3.35481,0,0,0,.03992.57781,2.858,2.858,0,0,0,.06351-.573q.06616-3.2545.13255-6.524a3.97031,3.97031,0,0,0-.26-2.089C264.4274,393.44,264.41814,393.47706,264.37447,396.89894Z"/><path class="cls-1" d="M264.13056,428.22652c-.00088-.19231-.00221-.51959-.00331-.74719-.00265-.39829-.00529-.77718-.00772-1.16136.00154.34757.00309.69073.00463,1.05109C264.12835,427.97951,264.13276,428.55821,264.13056,428.22652Z"/><path class="cls-1" d="M264.904,374.18077a2.318,2.318,0,0,0,.02823.28009l.028-.40006-.00883-.41065C264.93464,373.8257,264.91369,373.99375,264.904,374.18077Z"/><path class="cls-1" d="M366.586,292.31887c-2.102-1.57553-4.28331-3.33455-6.74982-5.22457-5.83-4.473-11.57124-9.05357-17.33812-13.64519-7.02769-5.59331-14.079-11.17913-21.01075-16.90388q-11.84891-9.82568-23.71876-19.66944-8.119-6.724-16.24579-13.4542l-7.9791-6.54428c.06814-1.27648.12835-2.55428.25825-3.82062.92714-8.97947,1.4346-17.992,1.8845-26.99575.75226-14.95122,1.4613-29.90509,1.96148-44.85323.30346-8.99756.21613-17.98937.16937-26.97811-.03991-8.64954-.29067-17.28894-.39212-25.93936-.10144-8.65219-.01786-17.31585-.18084-25.96759a146.11956,146.11956,0,0,1,.53459-16.29916,118.35552,118.35552,0,0,0-.05977-23.36965,16.40658,16.40658,0,0,0-5.10217-10.46943c-3.249-3.12768-8.69828-3.82326-12.23815.902a15.71533,15.71533,0,0,0-3.17907,8.04c-.69845,6.9236-1.52062,13.83353-1.97405,20.76949-.55245,8.45105-.8665,16.91711-1.44387,25.36111-.655,9.63667-1.09564,19.28746-1.4968,28.936-.27347,6.59985-.46136,13.20543-.6314,19.8097q-.15681,6.09613-.23421,12.19669c-.06947,5.42085-.14093,10.84038-.11071,16.26564.02492,4.41166.18128,8.83082.26508,13.246.07962,4.24273.03595,8.48414.23819,12.726l1.49459,30.29369c-2.1593-1.632-4.32984-3.24942-6.48341-4.88847-3.57736-2.73336-7.09739-5.55141-10.759-8.15641-14.71039-10.36931-29.63207-20.42016-44.67063-30.29369-1.05219-.6872-2.16812-1.27692-3.25052-1.91913-2.476-1.46527-4.97426-2.8948-7.41585-4.41564-4.43305-2.73556-8.81362-5.55361-13.22308-8.32711l-9.50942-6.14422c-3.03352-1.92045-6.2975-3.48628-9.14179-5.70358a4.3793,4.3793,0,0,0-1.44607-.70132c-1.94207-.55046-3.50569-1.80092-5.24619-2.72453-1.88869-1.01051-3.565-2.36242-5.689-3.02315a17.09894,17.09894,0,0,1-8.36439-5.41115,6.48424,6.48424,0,0,0-1.67565-1.22443c-1.23569-.73881-2.50356-1.42822-3.75534-2.14232q-1.96368-1.11483-3.93023-2.22524-.01323-4.4454-.03926-8.89081c-.04013-8.64954-.29089-17.28894-.39212-25.93937-.10166-8.65219-.01786-17.31584-.18106-25.96759a146.17249,146.17249,0,0,1,.53459-16.29916,118.33862,118.33862,0,0,0-.05977-23.36964,16.40549,16.40549,0,0,0-5.10217-10.46943c-3.24876-3.12769-8.69806-3.82327-12.23815.902a15.71732,15.71732,0,0,0-3.17907,8.04c-.69845,6.92361-1.52062,13.83354-1.974,20.76949-.55223,8.45106-.8665,16.91711-1.44387,25.36111-.655,9.63668-1.09564,19.28747-1.4968,28.936-.17665,4.26567-.31184,8.53354-.43534,12.80229-.98184-.67926-1.80225-1.478-2.84032-2.07571-.61751-.35595-1.29192-.62457-1.93545-.94347-2.72124-1.35322-5.57192-2.55207-8.14606-4.07776-3.72755-2.1904-7.4948-4.28817-11.309-6.32683a43.23765,43.23765,0,0,0-4.74865-2.54722,34.26735,34.26735,0,0,1-6.58882-3.39366,13.23172,13.23172,0,0,0-1.43659-.7344c-1.9445-.93023-3.8923-1.83929-5.8143-2.81672a60.58691,60.58691,0,0,0-5.76577-2.81276c-2.01506-.76968-3.6325-2.24376-5.61316-3.13033-.79615-.35992-1.63574-.90333-2.39108-1.19841a85.63182,85.63182,0,0,1-8.56442-4.35388q-2.61438-1.396-5.21839-2.78673-2.82875-1.523-5.652-3.04256-3.979-2.2045-7.95925-4.41034c-.268-.15041-.52-.266-.77807-.39961-.11181.1407-.2975.075-1.20238-.5068-1.27559-.805-2.38336-1.41454-3.60669-2.18113-.59568-.36566-1.00588-.58973-1.13093-.648.55819.37227,1.00147.66735,1.82011,1.213,2.3858,1.53715,4.74512,3.07519,7.06387,4.66043,1.62405,1.10887,3.27765,2.21112,4.94206,3.20443,1.3755.81952,2.62022,1.63816,3.97632,2.58648a48.27171,48.27171,0,0,0,7.937,4.98154A4.67671,4.67671,0,0,1,29.6446,69.0213a3.39846,3.39846,0,0,0,1.42247,1.16753,11.64562,11.64562,0,0,1,2.61824,1.66551,40.88661,40.88661,0,0,0,4.35212,3.02624,13.82019,13.82019,0,0,1,1.22046.93332c-.47085.54429-2.375-.54738-2.89854-.15879.59678.89186,1.91494,1.38984,2.69432,2.17893a10.79607,10.79607,0,0,0,3.16981,2.489c.11226-.26376.0966-.63118.38131-.73a3.30538,3.30538,0,0,1,1.26436.60207A28.80776,28.80776,0,0,1,46.78048,82.472c1.51091,1.44717,3.5659,2.33374,4.9908,3.87884a9.418,9.418,0,0,0,1.80886,1.04227A32.18151,32.18151,0,0,1,60.68,93.46761a10.10562,10.10562,0,0,0,4.25067,3.65654A7.32742,7.32742,0,0,1,67.814,99.35954a6.14784,6.14784,0,0,0,3.04631,1.92839,5.16716,5.16716,0,0,1,2.66147,1.022,16.26851,16.26851,0,0,1,1.32345,1.61214,5.81714,5.81714,0,0,0,1.76961,1.84723,17.40662,17.40662,0,0,1,4.9189,4.7438,5.013,5.013,0,0,0,2.39307,2.01c1.7341.54253,2.736,2.26273,4.44717,2.86789,1.82342.63207,2.4782,2.43431,3.80827,3.597.04058.03529.07961.07455.11953.1116-.06682,5.22369-.133,10.44737-.10387,15.67547.02492,4.41167.18128,8.83083.26508,13.246.07984,4.24273.03617,8.48414.23819,12.726l2.5148,50.9754c.05911,1.18694.18879,2.373.27965,3.56038.20863,2.714.445,5.42659.60273,8.14275q.42939,7.3757.77321,14.75494l.44527,10.69306c.14975,3.39013.51694,6.77716.481,10.173a7.73633,7.73633,0,0,0,.15107,1.50452,48.84857,48.84857,0,0,1,.46887,5.55185c.15658,2.01441.11622,4.0394.46071,6.05645a32.24846,32.24846,0,0,1,.288,9.40863A12.64945,12.64945,0,0,0,99.17,283.526l.22671,4.07468,1.01073,18.81551.32376,5.58449c.10674,1.86179.116,3.85855.34911,5.54965a52.16723,52.16723,0,0,1,.12857,5.47069c.02757.6722.09483,1.34308.13938,2.01617.19033,2.84848.43557,5.71858.53018,8.54148.1385,4.07732.30809,8.13789.49467,12.20463.07653,1.69639.08027,3.50613.22737,5.068.2179,2.33551.30347,4.59868.339,6.958.00728.49357.04455,1.01184.07278,1.51423.10983,2.01616.219,4.02483.329,6.04762.09351,2.01749.14688,4.06674.30611,6.007.157,1.98794.06572,4.03057.18636,6.05248.04653.81467.05447,1.75946.10939,2.508.20885,2.90273.2631,5.98366.3619,9.01475q.088,2.78673.17555,5.56244.08733,3.0216.17489,6.03747.10056,4.28265.20113,8.56751c.00882.28846.017.54826.02536.82128.04477.01456.0569.195.06131,1.2112.01588,1.42557.02911,2.61383.04433,3.97765.01036.63206.0172,1.044.02007,1.22222.00044-.63074.00066-1.134.00132-2.05983-.00176-2.68043-.00331-5.33969-.00507-7.99278.00684-1.85738.0086-3.73416-.01588-5.56287-.02073-1.51114-.02272-2.91818-.01169-4.48048.01478-2.92479.08932-5.981-.06837-8.848a14.06838,14.06838,0,0,1,.05161-2.2301,10.06162,10.06162,0,0,0,.05469-1.729c-.05226-.98361-.04631-1.90237-.0172-2.93052.04565-1.63155.058-3.30985.03573-5.00536-.00595-.4596.01963-.94876.032-1.44806.21943.08689.25979,2.156.44483,2.3655.12835-.93552.03638-2.23273.10894-3.25824a30.87166,30.87166,0,0,0,.11226-3.79416c-.08866.04941-.18239.25318-.25693.08072a9.04671,9.04671,0,0,1-.05911-1.30956c.01787-1.16974.032-2.3977.099-3.48011.12482-1.94471.0011-4.02527.17-5.95323.04411-.487-.0269-1.29765-.03727-1.96809a80.31525,80.31525,0,0,1,.41814-8.75893,25.19414,25.19414,0,0,0,.26994-5.25412,18.02875,18.02875,0,0,1,.11645-3.43644,14.906,14.906,0,0,0-.00706-3.40424,11.65994,11.65994,0,0,1-.21017-2.62883c.04388-.36742.11666-1.18782.23619-1.883a13.12983,13.12983,0,0,0,.22385-2.35712,38.04712,38.04712,0,0,1,.51893-6.34756,11.22592,11.22592,0,0,0,.1632-2.93273c-.183-1.6483.18084-3.33455.024-4.99741a26.98591,26.98591,0,0,1,.40843-4.8748c.03375-.50371.11094-1.02374.10233-1.50451-.07344-3.73726.37514-7.38453.4735-11.09047.08535-3.7205.5959-7.40879.41506-11.16016a11.92147,11.92147,0,0,1,.16165-1.47188c.2856-3.18811.54958-6.38549.595-9.63006.00948-.67794.00771-1.36337.05425-2.03469q.76218-10.13466,1.52436-20.26666.80255-10.66329,1.60663-21.346.7913-11.19192,1.58347-22.39883c.13607-1.86708.176-3.7474.36632-5.6039.92736-8.97946,1.4346-17.992,1.8845-26.99574.61928-12.30961,1.20216-24.621,1.67059-36.92971,1.01823.79615,2.057,1.56759,3.15018,2.272a19.458,19.458,0,0,1,1.778,1.21694c5.56729,4.5484,11.08077,9.16384,16.69613,13.6496q8.8402,7.09849,17.86345,13.95792c6.30367,4.7879,12.72113,9.42231,19.12184,14.07569,1.60508,1.1565,3.3061,2.19348,4.85605,3.41306,7.48973,5.90912,15.46508,11.14825,23.49006,16.29563q19.99473,12.8109,40.53574,24.79874c3.15172,1.82474,6.34072,3.5917,9.54206,5.33881q.38142,6.70482.70264,13.411l.44527,10.69261c.14975,3.39057.51672,6.77761.481,10.17347a7.73637,7.73637,0,0,0,.15085,1.50452,48.79816,48.79816,0,0,1,.46909,5.55185c.15658,2.0144.116,4.03939.46049,6.05644a32.241,32.241,0,0,1,.28824,9.40864,12.62206,12.62206,0,0,0,.00353,1.95795l.22671,4.07468,1.01051,18.81551.32375,5.58449c.107,1.86179.11623,3.85855.34934,5.54964a52.29294,52.29294,0,0,1,.12857,5.4707c.02757.6722.09483,1.34308.13916,2.01616.19033,2.84849.43579,5.71858.53018,8.541.13872,4.07777.30809,8.13833.49467,12.20507.07675,1.69639.08027,3.50613.22737,5.068.2179,2.33551.30347,4.59868.339,6.958.0075.49357.04455,1.01183.073,1.51422.10961,2.01617.219,4.0244.329,6.04762.09351,2.01749.14688,4.06674.30589,6.00705.15725,1.98794.06572,4.03057.18658,6.05247.04653.81467.05425,1.75946.10939,2.508.20885,2.90274.26288,5.98367.36168,9.01476q.088,2.78673.17555,5.56243.08766,3.02161.17511,6.03748.10056,4.28265.20113,8.5675c.00882.288.01676.54826.02536.82129.04477.01456.0569.195.06131,1.2112.01588,1.42512.02911,2.61383.04411,3.97764.01058.64089.01742,1.05815.02029,1.23238.00022-.63163.00066-1.1349.0011-2.07-.00154-2.68044-.00331-5.3397-.00485-7.99322.00684-1.85694.0086-3.73373-.0161-5.56244-.02051-1.51113-.0225-2.91817-.01169-4.48047.01478-2.92479.08932-5.981-.06815-8.848a14.04208,14.04208,0,0,1,.05161-2.23009,10.06492,10.06492,0,0,0,.05447-1.729c-.05226-.9836-.04609-1.90237-.0172-2.93052.04587-1.63155.05822-3.31029.036-5.00535-.00618-.45961.01963-.94876.032-1.44806.21943.08689.25957,2.15555.4446,2.3655.12836-.93553.03661-2.23274.10895-3.25825a30.828,30.828,0,0,0,.11226-3.79415c-.08844.0494-.18217.25318-.25693.08072a9.08357,9.08357,0,0,1-.05911-1.30956c.01809-1.16974.0322-2.3977.099-3.48011.12483-1.94471.00133-4.02528.17-5.95323.04411-.48695-.02691-1.29765-.037-1.96809a80.25985,80.25985,0,0,1,.41814-8.75893,25.179,25.179,0,0,0,.26972-5.25412,18.02853,18.02853,0,0,1,.11667-3.43644,14.9057,14.9057,0,0,0-.00728-3.40425,11.67635,11.67635,0,0,1-.21018-2.62882c.04389-.36742.11667-1.18782.23642-1.883a13.1107,13.1107,0,0,0,.22363-2.35713,38.06958,38.06958,0,0,1,.51915-6.34755,11.23547,11.23547,0,0,0,.1632-2.93273c-.18327-1.64831.18084-3.33455.024-4.99742a26.96592,26.96592,0,0,1,.40843-4.87479c.03353-.50371.11094-1.02374.10233-1.50452-.07366-3.73769.37492-7.38453.47328-11.09047.08557-3.72093.59612-7.40879.41528-11.1606a11.92362,11.92362,0,0,1,.16165-1.47143c.2856-3.18812.54958-6.38549.595-9.63006.00926-.67794.00771-1.36338.05425-2.03514q.76218-10.134,1.52436-20.26622.72117-9.58087,1.44365-19.1794,11.85486,6.196,23.70244,12.389c8.14142,4.29742,16.2416,8.67953,24.40772,12.93858,5.13239,2.67779,10.18824,5.45041,15.22492,8.26493,7.24118,4.04909,14.68966,7.74048,22.12139,11.40892,3.8215,1.87988,7.25022,3.44791,10.04666,4.90523C370.16905,294.63542,370.59888,295.32041,366.586,292.31887ZM29.69885,66.9522a2.78351,2.78351,0,0,1-.45784-.4327,2.24912,2.24912,0,0,1,.38131.14468c.402.25891.801.51562,1.6686,1.07446C30.43655,67.32535,30.05634,67.16083,29.69885,66.9522ZM55.93109,87.00626c-.28516-.18525-.56193-.38462-.84136-.58.05558-.0322.13938-.10453.16166-.08954l.84488.60119C56.03981,86.96259,55.96086,87.02567,55.93109,87.00626ZM70.49946,97.1118a.96509.96509,0,0,1-.62677.22231,2.7311,2.7311,0,0,1-2.18422-.83055,18.94384,18.94384,0,0,0-2.50577-2.96449c-.071-.07278-.05271-.288.01919-.28935a2.813,2.813,0,0,1,.77233.10674,2.52259,2.52259,0,0,1,.49423.318,10.02467,10.02467,0,0,0,2.88,2.12556C70.25819,96.21288,70.75749,96.91332,70.49946,97.1118Zm12.34886,10.87346c-.17885.116-.4693.3114-.62677.225-.75182-.41373-1.47386-.91038-2.80459-1.76078-.408-.35551-1.3389-1.14592-2.21995-1.969-.122-.11424-.01742-.43137.05359-.6131.02161-.05513.32287-.02337.43115.0547l5.05939,3.70594C82.82892,107.69327,82.90236,107.95,82.84832,107.98526Zm21.57534,278.81652c-.00948-.12571-.02558-.25582-.02735-.3758-.00308-.45166-.00639-.8998-.01323-1.87414.03727.88833.05337,1.27384.06969,1.66375C104.45674,386.40613,104.43381,386.60594,104.42366,386.80178Zm.67948-30.737a7.30866,7.30866,0,0,1-.04278-1.05947A8.15851,8.15851,0,0,1,105.10314,356.06481Zm.51805-15.17662c-.18592,1.097-.28979,2.28391-.38947,3.51937-.0075.0935-.07366.19186-.088.13585a5.55187,5.55187,0,0,1-.118-.66382c-.01521-.12351-.00264-.329-.00264-.55532a25.0708,25.0708,0,0,0,.06461-3.376c-.05623-.932.05426-1.69022.165-1.591a.69737.69737,0,0,1,.18988.378A6.12061,6.12061,0,0,1,105.62119,340.88819Zm.72072-14.42281c-.0311.50636-.101,1.6514-.16982,2.77482a.35251.35251,0,0,1-.20245.27788.89768.89768,0,0,1-.07035-.3683l.135-5.91706c.00264-.10277.06969-.29464.0924-.27038a.60289.60289,0,0,1,.202.37624C106.35117,324.14619,106.34059,324.97365,106.34191,326.46538Zm157.19231,70.02645c-.00926-.12571-.02558-.25583-.02713-.3758-.0033-.45167-.00639-.8998-.01345-1.87414.03727.88833.05359,1.27383.06991,1.66374C263.5673,396.09574,263.54459,396.296,263.53422,396.49183Zm.6797-30.737a7.30866,7.30866,0,0,1-.04278-1.05947A8.1978,8.1978,0,0,1,264.21392,365.75486Zm.51783-15.17662c-.18592,1.097-.28979,2.2839-.38925,3.51936-.0075.09351-.07388.19143-.088.13585a5.55187,5.55187,0,0,1-.118-.66382c-.01521-.1235-.00264-.329-.00264-.55532a25.1122,25.1122,0,0,0,.06461-3.37645c-.05623-.93156.054-1.68977.16475-1.59053a.69579.69579,0,0,1,.1901.37757A6.12405,6.12405,0,0,1,264.73175,350.57824Zm.72072-14.42282c-.03088.50636-.101,1.6514-.1696,2.77483a.35218.35218,0,0,1-.20245.27744.88943.88943,0,0,1-.07035-.36786l.135-5.91707c.00264-.10277.06969-.29464.09218-.27038a.60313.60313,0,0,1,.20224.37624C265.46173,333.83624,265.45137,334.6637,265.45247,336.15542Z"/><path class="cls-1" d="M264.11953,426.318c-.00022-.08468-.00066-.17114-.0011-.25626C264.11887,426.20153,264.11931,426.26019,264.11953,426.318Z"/><path class="cls-1" d="M46.15966,83.21608l.30788.30258.38043.213a4.756,4.756,0,0,0-.39058-.42873A.95243.95243,0,0,0,46.15966,83.21608Z"/></g></g></svg>