<svg xmlns="http://www.w3.org/2000/svg" viewBox="0 0 205.60725 421.56775"><defs><style>.cls-1{fill:#24373e;}</style></defs><g id="Слой_2" data-name="Слой 2"><g id="Слой_1-2" data-name="Слой 1"><path class="cls-1" d="M150.14906,383.36786a42.11383,42.11383,0,0,1,4.68128,6.04939c.59964.861,1.23744,1.71623,1.86785,2.54943.17257.2276.53492.55223.54892.49621a1.47658,1.47658,0,0,0-.25284-.70881q-2.27547-3.40071-4.56108-6.81686C151.51927,383.59634,151.36611,383.50327,150.14906,383.36786Z"/><path class="cls-1" d="M177.64422,421.47172c-.14644-.19055-.3973-.51694-.572-.7441-.29353-.37624-.57318-.73439-.856-1.097.25175.32816.50074.65324.76229.99463C177.45136,421.22869,177.90137,421.79944,177.64422,421.47172Z"/><path class="cls-1" d="M176.21623,419.63066c-.08016-.105-.162-.21172-.24281-.31714.01985.02779.0419.05779.06682.09131C176.09879,419.47981,176.15812,419.55612,176.21623,419.63066Z"/><path class="cls-1" d="M139.04779,365.60476c.04389.07675.18624.15129.28361.22716l-.23421-.45211-.334-.39432A6.43,6.43,0,0,0,139.04779,365.60476Z"/><path class="cls-1" d="M205.05006,210.09869q-2.30706-2.78408-4.62283-5.57919l-2.31191-2.79688c-.70694-.93332-1.34793-1.86841-2.00657-2.81011l-4.6225-6.63955c-.78369-1.17547-1.56771-2.351-2.37356-3.51054q-2.41141-3.48408-4.90126-6.91522c-3.30257-4.58722-6.73416-9.08313-10.16111-13.57859q-17.10975-22.36729-35.01245-44.14443c-7.1877-8.69232-14.68912-17.14206-22.15955-25.61032q4.38949-7.1137,8.78065-14.2305,8.65395-13.8728,17.31563-27.75793c3.59545-5.83591,7.28021-11.588,11.007-17.31982,5.36616-8.23625,10.36214-16.712,15.35713-25.14939,2.55638-4.342,4.72406-8.23449,6.68167-11.41378,2.03183-3.38351,2.82125-3.88457-.95217.70264-1.98022,2.403-4.16632,4.90038-6.53336,7.72151-5.5942,6.67307-11.3077,13.23588-17.021,19.83926-6.96517,8.0435-13.92649,16.113-21.01671,24.052q-12.16284,13.57175-24.3474,27.16821-.96762,1.08042-1.93612,2.1626-4.56945-5.13216-9.14079-10.26653Q84.2602,61.7564,73.438,49.481c-4.56152-5.11651-9.01729-10.29432-13.44153-15.507-6.35417-7.50054-13.04367-14.71481-19.69656-21.91718C36.87193,8.36367,33.76354,5.172,31.278,2.38573c-2.65959-2.916-2.91376-3.81576.40072,1.11373,1.73509,2.58515,3.5015,5.39526,5.52627,8.4709,4.79121,7.27162,9.44238,14.62527,14.1327,21.99083,5.71141,8.97727,11.44884,17.95806,17.02429,27.0253q9.51935,15.54073,19.05579,31.10924,1.99263,3.24921,3.98734,6.5015-.95652,1.06785-1.91273,2.13658L79.28644,112.22742c-4.50385,5.132-9.044,10.23566-13.47747,15.42759-3.62357,4.20745-7.111,8.52913-10.66814,12.79171-3.42508,4.09144-6.93121,8.12025-10.23257,12.30255L35.55366,164.792l-9.26342,12.11068-9.18082,12.172L10.2157,198.329c-.78071,1.03786-1.52811,2.07528-2.33584,3.11313L5.25225,204.557,0,210.78413l4.18032,4.93346c1.03091,1.21649,2.094,2.42681,3.15889,3.63007l.799.90156.71.89848,1.40638,1.79519,3.18723,4.08791,1.58733,2.03161.8537,1.04888q1.62079,1.97957,3.19991,3.9922c3.82239,4.85142,7.56758,9.7637,11.35523,14.64291l8.12312,10.69041c2.60214,3.36984,5.541,6.48341,7.8653,10.06893a6.10211,6.10211,0,0,0,1.29986,1.38764c1.85429,1.46261,3.12349,3.466,4.66594,5.21707,1.67147,1.9081,3.02867,4.06806,5.04053,5.7274a23.89376,23.89376,0,0,1,7.14316,9.41,9.09131,9.09131,0,0,0,1.392,2.02852c1.07193,1.32852,2.19094,2.62088,3.28669,3.93133l15.26715,18.08641c1.51565,1.78769,3.07509,3.53921,4.6268,5.29734.61067.69514,1.20525,1.43439,1.80467,2.16129-1.56991,2.714-3.07906,5.48657-4.81525,8.03512-2.87164,4.24538-5.65065,8.53221-8.37442,12.87066a60.5794,60.5794,0,0,0-3.40093,5.401,47.89683,47.89683,0,0,1-4.56913,7.49083,18.41236,18.41236,0,0,0-.99044,1.63287c-1.273,2.20848-2.524,4.42049-3.84356,6.60515-1.31243,2.18113-2.7521,4.31727-3.832,6.55045-1.1134,2.28346-2.91432,4.14-4.14614,6.38769-.4993.90377-1.19918,1.86135-1.62328,2.71748-1.657,3.31074-3.84752,6.50282-5.8788,9.735q-1.86527,2.97332-3.72358,5.93515-2.02984,3.21876-4.0556,6.43136Q38.77452,407.07228,35.848,411.6c-.19936.30523-.359.59149-.53866.8848.13265.1213.03539.33169-.71477,1.36382-1.01889,1.47187-1.86918,2.70072-2.84407,4.10908-.475.67794-.77233,1.14416-.85283,1.28663.47615-.636.85371-1.14063,1.55381-2.07572,1.981-2.721,3.95945-5.412,5.98168-8.0585,1.415-1.85385,2.82742-3.74034,4.12585-5.63609,1.072-1.56715,2.123-2.987,3.32815-4.53561a67.85464,67.85464,0,0,0,6.45132-9.04739,6.5286,6.5286,0,0,1,1.8189-2.137,4.72184,4.72184,0,0,0,1.44751-1.6289,16.3515,16.3515,0,0,1,2.15158-2.98522,57.47432,57.47432,0,0,0,3.85006-4.96918c.32838-.4746.76273-.917,1.16907-1.396.50758.51429-.93078,2.68175-.59622,3.25912,1.03344-.6947,1.7556-2.18819,2.70733-3.0849a15.09382,15.09382,0,0,0,3.10564-3.627c-.263-.11865-.65456-.09131-.71753-.408a4.6054,4.6054,0,0,1,.8246-1.43615,40.45531,40.45531,0,0,1,2.84308-3.331c1.75692-1.73565,2.99977-4.06719,4.84756-5.70932a13.22811,13.22811,0,0,0,1.37175-2.05939,44.8929,44.8929,0,0,1,7.486-8.13745,14.03273,14.03273,0,0,0,4.50263-4.87259,10.24506,10.24506,0,0,1,2.79456-3.29839,8.58857,8.58857,0,0,0,2.49375-3.47261,7.06041,7.06041,0,0,1,1.47585-3.01653,22.14145,22.14145,0,0,1,1.90413-1.52966,7.988,7.988,0,0,0,2.219-2.03734c.08413-.11732.177-.21833.26255-.333,2.279,2.43872,4.67,4.81437,6.74243,7.36512,3.24479,3.9675,6.55607,7.85825,9.93242,11.71018a60.52749,60.52749,0,0,0,4.2006,4.80555,47.909,47.909,0,0,1,5.86789,6.52355,18.54221,18.54221,0,0,0,1.28089,1.41674c1.75141,1.85209,3.51241,3.68433,5.22744,5.57435,1.7138,1.88208,3.348,3.87354,5.17836,5.54788,1.869,1.72064,3.13155,3.97808,4.93247,5.80194.72293.73748,1.4399,1.68227,2.13857,2.33374,2.69719,2.53576,5.12819,5.54877,7.64322,8.42107q2.31433,2.63853,4.61985,5.26735,2.50257,2.86678,5.00017,5.72784,3.49881,4.1,6.99881,8.201c.23521.27832.46357.51341.69316.76924.15448-.09219.32816.06131,1.10192,1.07535,1.11857,1.39822,2.05212,2.56443,3.12228,3.90222.5132.64882.87433,1.067.98824,1.18517-.47295-.63824-.8482-1.1446-1.54356-2.08277-2.03932-2.67734-4.05075-5.3441-6.00737-8.03953-1.37087-1.88693-2.77361-3.78-4.21814-5.56729-1.19411-1.47585-2.25369-2.8895-3.39211-4.488a67.84223,67.84223,0,0,0-6.82039-8.7726,6.52367,6.52367,0,0,1-1.52624-2.35492,4.73108,4.73108,0,0,0-1.14626-1.85341,16.34692,16.34692,0,0,1-2.24387-2.91641,57.53164,57.53164,0,0,0-3.658-5.11209c-.36058-.45034-.66019-.99331-1.00246-1.52.63769-.33919,2.30254,1.65978,2.95147,1.505-.36929-1.18915-1.5935-2.309-2.17992-3.47746a15.1,15.1,0,0,0-2.58538-4.01469c-.18911.21789-.275.60119-.59655.57075a4.60448,4.60448,0,0,1-1.13964-1.20149,40.42361,40.42361,0,0,1-2.37708-3.67815c-1.16-2.18025-3.03782-4.039-4.08174-6.27963a13.22557,13.22557,0,0,0-1.58027-1.90458,44.87,44.87,0,0,1-5.652-9.503,14.03745,14.03745,0,0,0-3.37854-5.70975,10.24125,10.24125,0,0,1-2.35977-3.62214,8.5904,8.5904,0,0,0-2.61306-3.384,7.06056,7.06056,0,0,1-2.46706-2.27817,22.08456,22.08456,0,0,1-.92042-2.26229,7.98575,7.98575,0,0,0-1.3164-2.70954A23.659,23.659,0,0,1,110.673,322.432a7.99689,7.99689,0,0,0,1.29765-1.88428c.93884-2.06469,2.94563-2.84893,4.37429-4.37417a11.73953,11.73953,0,0,0,1.29555-1.39028c2.5673-3.93927,6.099-7.01888,8.95378-10.69394,2.85686-3.69756,6.463-6.786,8.83027-10.8964.28086-.48783.91149-.84422,1.35125-1.29765a85.74412,85.74412,0,0,0,7.96642-9.14311c.50184-.68764.99088-1.39645,1.55215-2.02984,5.64238-6.3749,11.34773-12.69158,16.93068-19.119q8.82811-10.11943,17.42975-20.4378c2.94442-3.55729,5.88751-7.11944,8.78363-10.71732l1.08693-1.34881.62534-.78468,1.03223-1.33162,4.14823-5.35292c1.30967-1.79078,2.988-3.593,4.53483-5.40056l4.74126-5.44555ZM51.97268,387.74953a3.85923,3.85923,0,0,1-.526.52577,3.0853,3.0853,0,0,1,.20929-.43182c.33379-.45872.66493-.91347,1.38521-1.90281C52.47705,386.911,52.24659,387.34242,51.97268,387.74953Zm24.3871-29.04014c-.02569-.06131-.09-.1535-.07068-.17908l.76163-.96508c.018.06263.07322.14953.0483.18349Zm12.54007-14.421a25.71874,25.71874,0,0,0-3.512,2.89479c-.08745.0816-.31284.067-.30369-.01367a3.65708,3.65708,0,0,1,.227-.87025,3.54522,3.54522,0,0,1,.41042-.56369,14.05475,14.05475,0,0,0,2.67757-3.29133c.57208-1.033,1.38774-1.61258,1.56031-1.32853a.99979.99979,0,0,1,.14291.69779A3.71074,3.71074,0,0,1,88.89985,344.28834ZM151.831,390.09563a3.88356,3.88356,0,0,1,.35319.65456,3.05819,3.05819,0,0,1-.35408-.3242c-.3436-.45122-.68455-.89891-1.42622-1.87237C151.172,389.37226,151.51938,389.71674,151.831,390.09563ZM130.28467,357.4285l.70859.9836c-.06638.00706-.173.04234-.19209.01632l-.70616-1.0061C130.16006,357.4232,130.25931,357.395,130.28467,357.4285Zm-12.25227-17.086a1.00026,1.00026,0,0,1,.70947.06308c.74013.36609,1.775.98669,2.02665,1.86135a25.74045,25.74045,0,0,0,1.76729,4.19377c.05315.10718-.02536.3189-.10013.28714a3.67565,3.67565,0,0,1-.76857-.46666,3.56823,3.56823,0,0,1-.42245-.55488,14.04509,14.04509,0,0,0-2.38667-3.50833C118.0324,341.37413,117.71063,340.4267,118.0324,340.34245ZM98.75729,333.395c-.13872.13982-.45972.03132-.64177-.04367-.05514-.02249.023-.36212.12162-.48562l.59248-.73263c.19165.19936.3812.4005.573.59986C99.192,332.95175,98.97584,333.17449,98.75729,333.395Zm12.64968-6.7357c.323.55267,1.06586,1.7921,1.748,3.04255.09428.17291-.10167.44946-.2255.60252-.03749.04631-.34018-.12571-.43038-.25583l-3.68874-5.38733q.243-.36257.52069-.70087C109.88039,324.63478,110.46,325.42387,111.407,326.65933Zm54.905-114.98775q-1.43206,2.11981-2.90814,4.20921c-3.55343,5.05211-7.18692,10.04732-10.77708,15.07428l-7.91559,10.84479c-2.483,3.45805-4.62448,7.16576-7.394,10.42a6.1,6.1,0,0,0-.95692,1.64258c-.87025,2.19568-2.42615,3.98558-3.66194,5.9647-1.34959,2.148-3.03021,4.06718-4.0437,6.47017a23.89435,23.89435,0,0,1-6.96969,9.5392,9.09443,9.09443,0,0,0-1.54488,1.91472c-.96563,1.40748-1.8834,2.8498-2.8251,4.27493l-12.95524,19.80838c-1.09255,1.67786-2.1497,3.37954-3.20785,5.08033a4.04613,4.04613,0,0,0-.41936-.636c-3.03891-3.58817-4.97778-7.85384-7.68148-11.64182-2.72421-3.79636-4.65018-8.13612-7.91019-11.58139a8.659,8.659,0,0,1-.85624-1.66639,85.73637,85.73637,0,0,0-6.47823-10.25154c-.51473-.67793-1.05406-1.34925-1.5001-2.06865-4.49172-7.23192-8.90923-14.5075-13.4681-21.69752q-7.16647-11.35733-14.58866-22.55365c-2.565-3.84-5.1347-7.68005-7.7525-11.48567l-.98085-1.42777-.24535-.35683c-.07509-.10719-.19154-.28715-.17985-.24127a4.42677,4.42677,0,0,0-.49059-.10719c-.17356.01588-.12019-.12218-.14622-.19187a1.54763,1.54763,0,0,1-.01268-.22318,1.26615,1.26615,0,0,0,.239-.21657.5881.5881,0,0,1,.10067-.08645,1.6967,1.6967,0,0,1,.29928.05205c.13673.03308.26751.071.39311.11291l.18448.06528c.15173.02029.32121-.18305.32121-.18305.90135-1.08725,1.803-2.17539,2.68341-3.27941q2.64747-3.30874,5.22159-6.677c3.44891-4.47783,6.77342-9.05357,10.099-13.62447q16.52919-22.8,32.26608-46.19014c4.74148-7.09121,9.29848-14.31475,13.82218-21.56034q2.24586,3.62963,4.49194,7.25882c3.627,5.78474,7.21625,11.59683,10.92054,17.33173,2.99338,4.67675,6.13518,9.256,9.20012,13.88514,2.93879,4.45312,5.79466,8.96667,8.85618,13.32761l8.85862,12.41194,8.94958,12.34446,9.0324,12.28226,2.27552,3.058C166.72544,211.06642,166.31193,211.67158,166.31193,211.67158Z"/><path class="cls-1" d="M53.48194,390.42908c-.65313.82085-1.29005,1.677-1.90789,2.51988-.16827.23024-.37557.67044-.318.66779a1.47322,1.47322,0,0,0,.60659-.445q2.60661-3.15461,5.225-6.32286c1.02264-1.25972,1.06807-1.43306.849-2.63765A42.14419,42.14419,0,0,1,53.48194,390.42908Z"/><path class="cls-1" d="M29.30556,421.46863c.14049-.195.38142-.52885.549-.7613.27755-.39035.542-.76262.80949-1.1393-.2438.337-.485.67044-.73825,1.02021C29.48288,421.21413,29.065,421.8087,29.30556,421.46863Z"/><path class="cls-1" d="M30.66408,419.568c.07609-.105.15372-.2126.23036-.31846-.02129.02734-.04334.0569-.06826.09042C30.77237,419.41585,30.71767,419.4926,30.66408,419.568Z"/><path class="cls-1" d="M71.63936,368.82375l.3661-.35419.28184-.43269a6.44948,6.44948,0,0,0-.51176.4499A1.28838,1.28838,0,0,0,71.63936,368.82375Z"/></g></g></svg>