<svg xmlns="http://www.w3.org/2000/svg" viewBox="0 0 27.02559 388.16436"><defs><style>.cls-1{fill:#24373e;}</style></defs><g id="Слой_2" data-name="Слой 2"><g id="Слой_1-2" data-name="Слой 1"><path class="cls-1" d="M26.12371,72.87932c-.10145-8.02233-.01809-16.05569-.18084-24.07758a125.66839,125.66839,0,0,1,.53458-15.11266,101.81072,101.81072,0,0,0-.06-21.66884,14.81122,14.81122,0,0,0-5.102-9.70725C18.06653-.5871,12.617-1.2324,9.07736,3.14927a13.98534,13.98534,0,0,0-3.17929,7.45466c-.69823,6.4199-1.5204,12.827-1.97382,19.25792C3.372,37.698,3.05753,45.54791,2.48016,53.37705,1.82515,62.31241,1.38452,71.261.98358,80.207.71011,86.32691.52221,92.45128.352,98.57521q-.15679,5.6522-.23421,11.3088C.04849,114.91009-.023,119.93574.007,124.96579c.02514,4.09056.18128,8.18818.26509,12.28182.07983,3.934.03617,7.86663.23818,11.79973l2.515,47.26549c.05866,1.10049.18878,2.20054.27964,3.301.20819,2.51635.44461,5.03182.60251,7.55037q.42939,6.83915.77321,13.68136l.44549,9.91412c.14953,3.14356.51651,6.284.48078,9.4329a6.71721,6.71721,0,0,0,.15085,1.39513,42.02746,42.02746,0,0,1,.4693,5.14782c.15659,1.86752.116,3.74563.46049,5.61536a27.75073,27.75073,0,0,1,.288,8.72409,10.85465,10.85465,0,0,0,.00353,1.81548l.22672,3.77827,1.01051,17.446.32419,5.17825c.10674,1.72594.116,3.57759.34889,5.14562a44.81153,44.81153,0,0,1,.1288,5.0724c.02734.62324.09483,1.24516.13894,1.86929.19054,2.64117.43578,5.3022.53017,7.91956.13894,3.78092.30832,7.546.49489,11.31674.07675,1.57288.08028,3.25074.2276,4.6988.21745,2.1657.303,4.26435.33875,6.45165.00749.45784.04455.93862.07277,1.4044.10983,1.86929.21922,3.73152.32905,5.607.09351,1.87061.14688,3.77122.30611,5.56994.157,1.8437.06572,3.73725.18657,5.61183.04632.75557.05426,1.63155.10939,2.32581.20863,2.69146.26288,5.54832.36168,8.35843q.088,2.58362.17555,5.15753.08735,2.80194.17511,5.59816.10058,3.971.20113,7.94382l.02514.76174c.045.01323.0569.18084.06131,1.123.01588,1.32192.02912,2.42373.04411,3.68786q.01522.86076.02029,1.123c.00044-.58.00088-1.04667.00133-1.89928-.00177-2.485-.00353-4.95066-.00486-7.41143.00662-1.722.00838-3.462-.01632-5.158-.02029-1.40043-.02249-2.70513-.01146-4.15408.01455-2.71174.08909-5.54567-.06837-8.204a12.12149,12.12149,0,0,1,.0516-2.06777,8.65586,8.65586,0,0,0,.0547-1.60332c-.05249-.91171-.04632-1.76387-.0172-2.717.04587-1.5129.05822-3.069.03572-4.64147-.00573-.42564.01985-.87907.0322-1.3422.21922.08072.2598,1.999.44461,2.193.12835-.86716.03661-2.07.109-3.02094a26.62659,26.62659,0,0,0,.11247-3.518c-.08866.04587-.18261.23465-.25715.075a7.7859,7.7859,0,0,1-.0591-1.21429c.01808-1.08461.0322-2.22347.0988-3.22693.12482-1.80312.00132-3.7324.17025-5.51965.04411-.45166-.0269-1.2037-.03705-1.82474a69.09381,69.09381,0,0,1,.41815-8.12157,21.67381,21.67381,0,0,0,.26949-4.87171,15.52492,15.52492,0,0,1,.11689-3.18635,12.82356,12.82356,0,0,0-.0075-3.15679,10.064,10.064,0,0,1-.20995-2.4374c.04411-.34095.11688-1.10137.23642-1.74579a11.3181,11.3181,0,0,0,.22362-2.18554,32.79053,32.79053,0,0,1,.51915-5.88531,9.68213,9.68213,0,0,0,.1632-2.71924c-.18349-1.52878.18084-3.092.02382-4.634a23.268,23.268,0,0,1,.40844-4.52017c.03352-.4671.11115-.9492.10233-1.39469-.07366-3.46555.37536-6.84729.47328-10.28329.08556-3.45012.59633-6.8698.41549-10.34814a10.27711,10.27711,0,0,1,.16144-1.36469c.28581-2.95611.54958-5.921.595-8.92919.0097-.62854.00794-1.26413.05425-1.88693q.76218-9.39629,1.52437-18.79125.80254-9.88722,1.60685-19.7925.7913-10.37747,1.58347-20.76861c.13585-1.73079.17555-3.47437.36609-5.1959.92715-8.32579,1.43483-16.6829,1.88473-25.03118.752-13.86265,1.46129-27.72838,1.96147-41.58882.30346-8.34255.21613-16.67981.16938-25.01442C26.47569,88.91074,26.22516,80.90032,26.12371,72.87932ZM12.23283,358.64943c-.00926-.11644-.02558-.2373-.02734-.34845-.00309-.41858-.00618-.83408-.01323-1.73785.03705.82394.05337,1.18121.06969,1.5429C12.26592,358.28246,12.243,358.46815,12.23283,358.64943Zm.67971-28.49982a6.2589,6.2589,0,0,1-.04279-.98228A7.04965,7.04965,0,0,1,12.91254,330.14961Zm.51782-14.07216c-.18569,1.01713-.28979,2.11806-.38947,3.26354-.0075.08689-.07366.17776-.08777.12571a4.75488,4.75488,0,0,1-.11821-.61531c-.015-.11468-.00265-.30522-.00265-.51473a21.56389,21.56389,0,0,0,.06484-3.13078c-.05646-.86407.05381-1.56715.16452-1.475a.63237.63237,0,0,1,.1901.35021A5.279,5.279,0,0,1,13.43036,316.07745Zm.72072-13.373c-.03087.46974-.101,1.53142-.16981,2.57325a.33132.33132,0,0,1-.20246.25714.773.773,0,0,1-.07013-.341l.135-5.48657c.00265-.09527.06969-.27347.09219-.251a.54791.54791,0,0,1,.202.34889C14.16035,300.55415,14.14976,301.32163,14.15108,302.70441Z"/><path class="cls-1" d="M13.07309,359.027c-.00353.77453-.00706,1.5623-.01015,2.33418a2.921,2.921,0,0,0,.0397.53591,2.47162,2.47162,0,0,0,.06352-.5315q.06615-3.01763.13276-6.04938a3.43862,3.43862,0,0,0-.26024-1.93678C13.126,355.81992,13.11676,355.85432,13.07309,359.027Z"/><path class="cls-1" d="M12.819,386.43162c-.00088-.12306-.00133-.24832-.00177-.37227C12.8177,386.23887,12.81815,386.33635,12.819,386.43162Z"/><path class="cls-1" d="M12.82917,388.07464c-.00088-.17908-.0022-.4821-.00353-.69294-.0022-.32551-.00441-.63647-.00661-.95008.00088.28009.0022.55753.00353.8482C12.827,387.84572,12.83138,388.38207,12.82917,388.07464Z"/><path class="cls-1" d="M13.60238,337.96243a2.04047,2.04047,0,0,0,.02823.25979l.02823-.37139-.00882-.38065C13.63326,337.63294,13.61209,337.78864,13.60238,337.96243Z"/></g></g></svg>