<svg xmlns="http://www.w3.org/2000/svg" viewBox="0 0 275.50748 410.96963"><defs><style>.cls-1{fill:#24373e;}</style></defs><g id="Слой_2" data-name="Слой 2"><g id="Слой_1-2" data-name="Слой 1"><path class="cls-1" d="M137.28527,404.2877c-1.12723-1.03433-2.281-2.06292-3.46925-2.99228-.98228-.76747-1.85324-1.53186-2.78937-2.41534a29.27392,29.27392,0,0,0-5.60958-4.65646,2.8756,2.8756,0,0,1-1.25448-1.35367,2.10381,2.10381,0,0,0-.942-1.08417,7.06827,7.06827,0,0,1-1.84541-1.55612,24.756,24.756,0,0,0-3.00782-2.82114,8.41115,8.41115,0,0,1-.824-.868c.5267-.48739,1.8962.53591,2.43178.191-.30242-.82041-1.31012-1.29413-1.79166-2.02411a6.60827,6.60827,0,0,0-2.12512-2.31346c-.15636.23774-.22787.57208-.493.65765-.13459.04279-.67386-.30919-.93784-.56767a17.55821,17.55821,0,0,1-1.95393-2.11673c-.95278-1.34-2.49821-2.17893-3.35511-3.60626-.2142-.36344-.86275-.63779-1.3-.97654a19.82216,19.82216,0,0,1-4.64433-5.6361,6.285,6.285,0,0,0-2.77615-3.39233,4.50648,4.50648,0,0,1-1.93975-2.07836,3.77486,3.77486,0,0,0-2.149-1.80225c-.58939-.23377-1.2359-.07322-2.03078-.97169a10.71621,10.71621,0,0,1-.755-1.48688,3.71407,3.71407,0,0,0-1.08081-1.70741,10.93732,10.93732,0,0,1-3.09433-4.39137,3.11506,3.11506,0,0,0-1.57415-1.86532c-1.35141-.52136-1.80781-2.1013-3.12526-2.67911-1.407-.6034-1.54873-2.25259-2.41314-3.33058a5.17836,5.17836,0,0,0-.78942-.97743c-2.49992-1.81945-4.09127-4.55325-6.31436-6.64617-2.24007-2.09247-3.82057-4.88979-6.50315-6.52-.31862-.19364-.45-.70088-.70324-1.03433a37.36049,37.36049,0,0,0-5.32448-5.95015A11.73329,11.73329,0,0,1,61.56753,324.18c-3.69143-4.22421-7.32173-8.5084-11.06869-12.67615-1.96561-2.19612-3.93888-4.38519-5.94341-6.54118l-3.0075-3.23487-1.5135-1.60729-.76284-.79659c-.18173-.1826-.1009-.12615-.13762-.17114-.15835-.20554-.37679-.13364-.80977.004a.35488.35488,0,0,1-.12344-.187q-.02341-.11183-.03551-.2104c.01268-.06881-.05872-.12085.03391-.19143l.24943-.19363.23223-.16276.11071-.06925.26994.034a9.17953,9.17953,0,0,1,.99523.17952,177.2681,177.2681,0,0,0,11.42321-19.08237c5.82019-10.85228,11.38335-21.85233,16.59915-33.042,3.12851-6.741,5.90692-13.67343,8.71681-20.58556,2.71086-6.64749,5.291-13.35849,7.97761-20.0201,2.69317-6.65984,5.47295-13.28174,8.12659-19.96319,1.66838-4.19951,3.43837-8.33153,5.25115-12.44591,2.6082-5.9153,4.84722-12.01629,7.06767-18.10361,1.13544-3.13077,2.043-5.94353,2.95081-8.2314.92031-2.4374,1.49189-2.7735-.66355.479-1.1323,1.70345-2.42328,3.46732-3.79035,5.465-3.237,4.72174-6.589,9.36541-9.94741,14.03026-4.09028,5.68461-8.17031,11.38952-12.39959,16.98944q-7.26745,9.57162-14.54764,19.15956-4.97139,6.5586-9.94752,13.12339c-2.04821,2.68838-4.05125,5.40365-6.07029,8.11055-2.66312,3.62434-5.366,7.2253-7.95071,10.89772-2.12186,2.97463-4.09237,6.04233-6.14069,9.06195-1.97559,2.89744-4.03978,5.74416-5.88122,8.71658l-5.421,8.99226-5.30876,9.0549-5.21327,9.1087-3.41621,6.08379-2.652,4.72351-1.32533,2.36021c-.45006.7882-1.06642,1.60508-1.59124,2.40608-1.22339,1.80092-2.30585,3.59743-3.44835,5.37718L.51047,304.06548l-.48172.75733c-.08832.07146.05078.1041.09687.15306l.19375.13629.38715.27259L2.25,306.47289q3.078,2.17407,6.05611,4.34021l2.68473,1.96765c.85261.66029,1.58485,1.33558,2.38089,2.00249l4.66881,4.00984,2.23643,1.92619,1.16141.98008,2.33232,1.94824,6.68051,5.73842c2.14006,1.79475,4.55849,3.2706,6.469,5.33176a2.71194,2.71194,0,0,0,1.06956.66073c1.52685.53194,2.57005,1.69374,3.839,2.56134,1.37517.94876,2.49065,2.20495,4.14712,2.83966a10.48916,10.48916,0,0,1,5.8745,5.05344,3.94826,3.94826,0,0,0,1.14443,1.13974c.88166.69161,1.80236,1.33867,2.7037,2.00823q6.25609,4.62073,12.55948,9.1881c1.24682.90642,2.53,1.76828,3.80662,2.63853a20.46407,20.46407,0,0,0,3.84818,2.54767c1.64853.63912,2.2484,2.00293,3.447,2.90273.44378.3339.956.5884,1.43047.88877,2.00525,1.27384,4.15617,2.40961,5.99618,3.83782,2.669,2.05146,5.39306,4.01867,8.17092,5.93339a26.45067,26.45067,0,0,0,3.456,2.392,21.01172,21.01172,0,0,1,4.828,3.19076,8.09456,8.09456,0,0,0,1.0539.69073c1.44122.87687,2.89027,1.73476,4.30145,2.65441a37.30972,37.30972,0,0,0,4.26114,2.64912c1.53832.73263,2.57563,2.0982,4.0577,2.93581.59491.34051,1.18457.84775,1.75968,1.12828a52.39478,52.39478,0,0,1,6.28884,4.09585q1.904,1.31067,3.80083,2.61692l4.11118,2.85642q2.87969,2.06821,5.76037,4.13731c.19346.14159.38142.25054.57031.37624.12764-.12615.27055-.06351.90691.4799.90074.752,1.70334,1.32411,2.56818,2.04086a9.34611,9.34611,0,0,0,.81318.60649c-.38969-.34713-.70026-.62413-1.26959-1.13137C140.54831,407.2019,138.8941,405.76575,137.28527,404.2877Zm-45.623-43.85949c-.031.0494-.2803.01588-.35446-.0569q-1.74046-1.71094-3.45348-3.45055c-.0596-.06043-.063-.29508-.00887-.326.17918-.10277.47162-.27567.58564-.19451.54484.38814,1.04519.85128,1.9822,1.64566.26531.32993.87582,1.063,1.43621,1.82562C91.92689,359.977,91.76474,360.26413,91.66224,360.42821Zm7.81061,9.84531a2.04583,2.04583,0,0,1-.63306-.10939c-.105-.03485-.208-.17379-.3474-.29729a6.11124,6.11124,0,0,0-1.96214-1.97823c-.67942-.39036-.94308-1.03477-.67749-1.2112a.98228.98228,0,0,1,.58509-.19187c.60979.03881,1.46228.18,1.66827.79a12.37274,12.37274,0,0,0,1.44988,2.73557C99.59961,370.07812,99.53449,370.27352,99.47285,370.27352Zm6.87862,6.44415c-.19965-.1804-.38887-.37139-.58063-.56017.05365-.02161.13552-.07763.15636-.05955.20009.17335.38981.359.58267.54077C106.45517,376.66694,106.36712,376.73134,106.35147,376.71767Zm17.28618,18.29548c-.28929-.23465-.56568-.479-1.173-1.00389.63212.38947.91794.54517,1.17431.74057a1.73124,1.73124,0,0,1,.29007.40049A1.43177,1.43177,0,0,1,123.63765,395.01315Z"/><path class="cls-1" d="M143.495,409.769c.1057.0913.15355.13056.20053.16937-.06512-.05513-.1315-.11159-.197-.16717Z"/><path class="cls-1" d="M127.65019,394.57913c.142.12218.4402.25715.45189.20775a.767.767,0,0,0-.20725-.47769q-1.87073-1.93126-3.74956-3.87046c-.75132-.75557-.87746-.77718-1.88114-.46975a18.17913,18.17913,0,0,1,3.85012,3.21811C126.60732,393.66786,127.13182,394.131,127.65019,394.57913Z"/><path class="cls-1" d="M144.40228,410.5219c-.242-.19981-.473-.3908-.70671-.58355.208.17643.41378.3511.62958.53415.38887.3189.759.61971.54749.44637C144.75068,410.8161,144.545,410.64231,144.40228,410.5219Z"/><path class="cls-1" d="M113.37382,379.70068l-.19231-.28008-.2748-.19937a3.01241,3.01241,0,0,0,.23367.39565C113.17638,379.66275,113.29371,379.67377,113.37382,379.70068Z"/><path class="cls-1" d="M275.32332,115.83494l-.46776-.3705-3.76416-2.97993-3.80122-3.00374-1.91306-1.51113-1.66254-1.55877c-2.22413-2.08542-4.59989-4.10247-6.76349-6.24523a177.35372,177.35372,0,0,0-16.195-15.24322Q226.72324,72.9101,212.0328,61.6357c-5.9153-4.499-12.09238-8.69718-18.24278-12.92138-5.91309-4.07071-11.91616-8.02762-17.84844-12.078-5.92875-4.05616-11.80237-8.18906-17.7609-12.21125-3.74491-2.5287-7.40228-5.14209-11.0334-7.79341-5.22-3.814-10.70017-7.3069-16.17141-10.77907-2.815-1.77931-5.36831-3.26795-7.4089-4.64455-2.18384-1.42027-2.38977-2.05058.326.75115,1.4217,1.47056,2.86827,3.10916,4.527,4.87215,3.91915,4.1726,7.73784,8.44091,11.5756,12.71981,4.67764,5.21267,9.37677,10.41915,13.94171,15.74914q7.79394,9.14753,15.6016,18.31136,5.34255,6.26022,10.69019,12.52618c2.18741,2.57589,4.41078,5.11386,6.62312,7.66549,2.97011,3.37734,5.9089,6.7882,8.94308,10.09893,2.45162,2.70954,5.02641,5.29117,7.53747,7.93808,2.40763,2.55032,4.74644,5.17605,7.25585,7.61081l7.62326,7.22,7.70894,7.1243,7.78172,7.04181,1.95949,1.74491.49.43622.2448.2179a4.85278,4.85278,0,0,1-.29993.62589l-1.4216,2.6866-4.22486,7.72681c-1.31078,2.46607-2.252,5.13856-3.87113,7.43569a2.71134,2.71134,0,0,0-.42431,1.18342c-.2029,1.6042-1.12255,2.86568-1.70753,4.28728-.64232,1.54245-1.63938,2.89479-1.91593,4.64675a10.49018,10.49018,0,0,1-3.72259,6.79614,3.94958,3.94958,0,0,0-.87719,1.35675c-.49335,1.0061-.93509,2.04087-1.40252,3.06153-2.14684,4.72-4.28464,9.44524-6.37821,14.19477-.62722,1.40792-1.20382,2.84231-1.78968,4.27185a20.45856,20.45856,0,0,0-1.69252,4.29345c-.28274,1.74535-1.49228,2.61559-2.123,3.975-.23433.50327-.37713,1.05726-.57219,1.58391-.82967,2.22612-1.49349,4.566-2.50852,6.66292-1.4517,3.03683-2.81,6.11026-4.10567,9.22515a26.403,26.403,0,0,0-1.62195,3.87752,21.0053,21.0053,0,0,1-2.118,5.38557,8.07255,8.07255,0,0,0-.45674,1.17459c-.55829,1.59185-1.0963,3.18767-1.70234,4.75923a37.25675,37.25675,0,0,0-1.70631,4.71865c-.39664,1.65669-1.5172,2.95523-2.02863,4.57884-.20918.65279-.583,1.33514-.73781,1.95574a52.40313,52.40313,0,0,1-2.69962,7.00255q-.88674,2.135-1.77016,4.2617-.97109,2.3097-1.94008,4.615-1.42462,3.24656-2.84992,6.49444c-.09814.21877-.16584.42519-.24943.636.15.09836.11821.25141-.28118.98669-.54837,1.03742-.941,1.94119-1.46262,2.93626a9.26742,9.26742,0,0,0-.42421.92141c.25881-.45343.465-.81467.843-1.47673,1.05561-1.939,2.11673-3.85546,3.22847-5.73622.7774-1.3175,1.54366-2.66014,2.20616-4.01558.54661-1.12033,1.11317-2.13084,1.78306-3.23045a29.278,29.278,0,0,0,3.389-6.4543,2.87728,2.87728,0,0,1,1.06344-1.50849,2.10308,2.10308,0,0,0,.86485-1.1468,7.07152,7.07152,0,0,1,1.13875-2.12864A24.74737,24.74737,0,0,0,191.962,232.329a8.36692,8.36692,0,0,1,.67771-.98625c.58609.41373-.13034,1.96589.31824,2.41844.73969-.46667.99375-1.55039,1.60795-2.1732a6.61357,6.61357,0,0,0,1.82143-2.55957c-.2653-.10366-.60714-.1041-.74564-.34581a2.06423,2.06423,0,0,1,.36025-1.03521,17.559,17.559,0,0,1,1.66452-2.35095c1.11262-1.21031,1.61214-2.89656,2.8304-4.03145.311-.28494.44461-.97611.68521-1.47452a19.81811,19.81811,0,0,1,4.54807-5.71373,6.28531,6.28531,0,0,0,2.74141-3.42056,4.50594,4.50594,0,0,1,1.62979-2.32933,3.77477,3.77477,0,0,0,1.31639-2.47666c.10641-.625-.18514-1.224.52841-2.18819a10.7548,10.7548,0,0,1,1.29766-1.04756,3.71738,3.71738,0,0,0,1.44585-1.41189,10.935,10.935,0,0,1,3.65235-3.93927,3.11535,3.11535,0,0,0,1.49768-1.92751c.22925-1.43,1.67962-2.20495,1.971-3.61375.29817-1.50143,1.88164-1.98265,2.75685-3.05226a5.16606,5.16606,0,0,0,.79184-.97523c1.26038-2.82378,3.60405-4.94845,5.18929-7.55787,1.58126-2.62574,3.98889-4.75306,5.02652-7.71578.12306-.352.59193-.58575.86551-.90289a37.35164,37.35164,0,0,0,4.71391-6.44459,11.74178,11.74178,0,0,1,.85371-1.44233c3.365-4.48841,6.80142-8.92962,10.0998-13.46126,1.73951-2.37873,3.47107-4.76409,5.16349-7.17281l2.53906-3.61376,1.25774-1.81459.621-.91171.07741-.1138.12858-.20422.28019-.4499.56127-.90156,4.7363-7.65888c1.7899-2.62353,3.7667-5.31014,5.66378-8.00028l1.44232-2.02543.72348-1.0158.18106-.2545c.06-.0472-.0086-.07322-.04355-.105ZM185.87609,239.01087a1.72936,1.72936,0,0,1-.33158.367,1.43126,1.43126,0,0,1,.07388-.3136c.16915-.33169.35088-.6528.738-1.35588C186.10688,238.40791,186.01393,238.71976,185.87609,239.01087Zm14.15651-20.51808c-.039-.04807-.1203-.12041-.10982-.13894.13463-.23244.2824-.45739.42707-.68411.03231.04808.1042.11645.09086.14071C200.3128,218.042,200.17066,218.26608,200.0326,218.49279Zm7.41276-10.166a12.363,12.363,0,0,0-2.37432,1.98661c-.05668.05646-.26123.03352-.27413-.0269a2.04055,2.04055,0,0,1-.02459-.64177,1.52461,1.52461,0,0,1,.21866-.40183,6.111,6.111,0,0,0,1.52746-2.33021c.24039-.74586.816-1.13754,1.04392-.91436a.982.982,0,0,1,.30931.53238C207.96032,207.13547,207.99936,207.99866,207.44536,208.32683Zm7.42974-9.44261c-.26751.32773-.85778,1.07756-1.48731,1.78417-.08722.09747-.40149-.00177-.58322-.06749-.055-.02029-.07388-.27126-.01819-.3586q1.31232-2.05828,2.65749-4.095c.04687-.071.27568-.12306.31725-.07674.13773.15393.36775.404.31195.53238C215.80655,197.21651,215.45755,197.80226,214.8751,198.88422Zm22.87354-76.26461-.11765-.02691-.20885-.05557c-.08679-.02515-.1471-.04588-.21194-.06749a1.04533,1.04533,0,0,1,.17136-.03043c.22241-.02823.3941.0322.42244.12482C237.83741,122.63857,237.79441,122.63019,237.74864,122.61961Z"/><path class="cls-1" d="M187.91927,241.10731c-.36785.58222-.71212,1.19179-1.04292,1.7921-.08976.16408-.15978.48386-.10917.48519a.77.77,0,0,0,.42432-.30214q1.50021-2.231,3.00683-4.47209c.58277-.89186.578-1.01977.0688-1.93766A18.17891,18.17891,0,0,1,187.91927,241.10731Z"/><path class="cls-1" d="M175.18491,261.78858c.041-.0763.08281-.15349.12405-.23024C175.2428,261.67743,175.21358,261.73345,175.18491,261.78858Z"/><path class="cls-1" d="M174.47168,263.14093l.2909-.54253c.14467-.27744.28273-.54208.42233-.80982-.1288.23907-.25627.47593-.38992.72381C174.56343,262.9592,174.3462,263.384,174.47168,263.14093Z"/><path class="cls-1" d="M198.46369,225.84292l.234-.24612.13828-.31052a3.03011,3.03011,0,0,0-.33864.311C198.45983,225.64179,198.47361,225.75912,198.46369,225.84292Z"/></g></g></svg>