<svg xmlns="http://www.w3.org/2000/svg" viewBox="0 0 206.14898 403.19146"><defs><style>.cls-1{fill:#24373e;}</style></defs><g id="Слой_2" data-name="Слой 2"><g id="Слой_1-2" data-name="Слой 1"><path class="cls-1" d="M195.14746,392.30648c-1.63067-1.66551-3.29364-3.33279-4.98253-4.88935-1.3959-1.28486-2.64967-2.52826-4.00819-3.94236a67.77029,67.77029,0,0,0-8.02288-7.67873,6.51866,6.51866,0,0,1-1.85219-2.1057,4.7212,4.7212,0,0,0-1.40362-1.66552,16.3349,16.3349,0,0,1-2.64383-2.55648,57.4419,57.4419,0,0,0-4.36215-4.52061c-.42211-.393-.79747-.88613-1.21274-1.35676.58134-.42873,2.519,1.30515,3.13827,1.05682-.53845-1.1221-1.9123-2.05057-2.66235-3.12063a15.08441,15.08441,0,0,0-3.14147-3.59214c-.15526.243-.18448.63472-.50691.65148a4.59285,4.59285,0,0,1-1.30206-1.02154,40.41179,40.41179,0,0,1-2.88642-3.29c-1.46482-1.98706-3.59258-3.55068-4.95132-5.614a13.2,13.2,0,0,0-1.84018-1.65228,44.82758,44.82758,0,0,1-6.97344-8.57192,14.01651,14.01651,0,0,0-4.17282-5.15267,10.23008,10.23008,0,0,1-2.86117-3.23751,8.57869,8.57869,0,0,0-3.07707-2.96449,7.058,7.058,0,0,1-2.77173-1.89223,22.15228,22.15228,0,0,1-1.23965-2.10306,7.97226,7.97226,0,0,0-1.69639-2.48724,24.03634,24.03634,0,0,1-4.76441-6.50237,6.94868,6.94868,0,0,0-2.35525-2.84937c-1.82121-1.10357-2.69719-3.22163-4.48555-4.38343-1.90744-1.22487-2.39483-3.32264-3.69822-4.95463a11.7061,11.7061,0,0,0-1.18892-1.4807c-3.528-3.10431-6.06659-7.03961-9.292-10.39048-3.24722-3.3566-5.78364-7.36644-9.50954-10.29741a8.66181,8.66181,0,0,1-1.08957-1.523,85.61749,85.61749,0,0,0-7.89971-9.19119c-.60759-.595-1.23877-1.18076-1.78471-1.8265-5.49529-6.49576-10.92364-13.04533-16.47924-19.48948q-8.74128-10.18428-17.71215-20.17227l-4.72593-5.20781-2.373-2.59574-1.19257-1.29192-.59777-.64486c-.08424-.067-.08678-.02911-.13364-.04807q-.21834-.03243-.421-.04235l-.19871-.00441a.81044.81044,0,0,1-.04885-.131c-.03187-.17378-.173-.311.11215-.45872a1.19483,1.19483,0,0,0,.1955-.1976c.00452-.0472.11259-.02691.20488-.01809.09428.01059.196.02514.30909.049q.2051.043.39377.10013l.18537.05954c-.00133.037.06682-.06131.119-.12879l.16044-.2104.32044-.42167c.85139-1.12607,1.703-2.25214,2.53267-3.39409q2.49563-3.42123,4.91516-6.89935c3.24346-4.6247,6.35814-9.34159,9.47435-14.05407Q74.17087,168.497,88.83726,144.44041c5.85708-9.66975,11.37982-19.557,16.93145-29.41991q7.95132-14.279,15.89646-28.54746Q129.685,72.2357,137.712,57.98513c3.32882-5.9872,6.75048-11.895,10.21493-17.78427,4.98947-8.46341,9.59841-17.14912,14.208-25.796,2.358-4.4496,4.34815-8.433,6.16054-11.69474,1.87711-3.46908,2.643-4.00455-.91954.74409-1.86973,2.48768-3.94093,5.07814-6.17829,8.00028-5.28743,6.91258-10.699,13.71974-16.10862,20.56747-6.59511,8.34167-13.18526,16.70893-19.91,24.95179Q113.64107,71.06685,102.0824,85.18465,94.186,94.841,86.28166,104.50608l-9.67682,11.93116c-4.26776,5.3247-8.573,10.62293-12.76767,16.00408-3.43,4.36271-6.71894,8.833-10.08018,13.24778-3.23707,4.23744-6.55772,8.41666-9.66721,12.73966l-9.23574,13.059-9.1291,13.13134-9.03858,13.19221L8.83848,209.39667c-.3586.56061-.80817,1.13092-1.24693,1.69991l-1.3111,1.70609L3.6589,216.21441l-2.62045,3.41-.655.8526c-.1557.27788-.66492.58972-.17676.80629l1.616,1.42424c2.41159,2.12512,4.9522,4.2123,7.39677,6.2986,1.46206,1.18826,2.6339,2.39549,3.9074,3.58949l3.7485,3.57362,1.86157,1.77975.88977.85216.46875.43446,1.86466,1.74932c4.48687,4.2392,8.906,8.54942,13.36247,12.8217l9.59047,9.38482c3.06417,2.95214,6.42419,5.60213,9.24489,8.80833a6.09844,6.09844,0,0,0,1.48753,1.18209c2.047,1.17547,3.59391,2.9711,5.37432,4.47738,1.931,1.643,3.588,3.58068,5.81925,4.92729a23.86847,23.86847,0,0,1,8.43485,8.26227,9.07318,9.07318,0,0,0,1.67213,1.80269c1.25343,1.15695,2.54844,2.27155,3.82282,3.40777L98.50173,311.714c1.75924,1.54642,3.55663,3.0505,5.3473,4.56252a46.65425,46.65425,0,0,0,5.38347,4.46415c2.22226,1.3497,3.24126,3.24766,4.93787,4.76982.6282.56458,1.32918,1.05373,1.99036,1.587,2.79522,2.25964,5.75078,4.39578,8.36394,6.79172,3.78677,3.44967,7.62812,6.81289,11.52824,10.12936a60.56022,60.56022,0,0,0,4.85429,4.13863,47.82745,47.82745,0,0,1,6.75324,5.59332,18.34449,18.34449,0,0,0,1.47309,1.21384c2.00183,1.576,4.01028,3.13033,5.98168,4.74909,1.969,1.61082,3.87531,3.34117,5.9293,4.72924,2.09887,1.42865,3.67628,3.47658,5.7231,5.01726.82217.62325,1.66893,1.45292,2.45482,1.99544,3.03682,2.11365,5.87979,4.73806,8.7854,7.21075q2.67292,2.27133,5.33594,4.53428,2.89275,2.46915,5.77934,4.93346,4.0572,3.543,8.11594,7.08724c.27325.24083.53327.43976.79758.65986.13949-.11424.33346.01235,1.24638.90244,1.30989,1.2187,2.403,2.23583,3.6561,3.402.60229.56722,1.02054.928,1.15033,1.02815-.56083-.56237-1.00566-1.00786-1.83015-1.83444C199.85255,397.02954,197.47492,394.68654,195.14746,392.30648Zm-66.36418-69.9003c-.03032.05116-.35473-.07454-.4628-.18966l-5.04781-5.45349c-.08733-.09528-.13519-.38815-.07189-.40844.20951-.06749.55046-.18393.711-.04455.76736.666,1.49172,1.41013,2.835,2.714.39983.4993,1.31507,1.61655,2.17187,2.75365C129.03712,321.93467,128.88352,322.23681,128.78328,322.40618Zm11.79587,14.87227a3.63391,3.63391,0,0,1-.828-.34933,3.53494,3.53494,0,0,1-.49864-.48651,14.0239,14.0239,0,0,0-2.87119-3.12063c-.9395-.7141-1.39557-1.6042-1.08969-1.73432a1.00107,1.00107,0,0,1,.71091-.04146,3.7089,3.7089,0,0,1,2.27541,1.54466,25.70425,25.70425,0,0,0,2.35845,3.889C140.70452,337.0782,140.65777,337.29918,140.57915,337.27845Zm9.97443,10.32917-.845-.89186c.0644-.00882.15846-.05072.18845-.02161l.844.86892C150.67642,347.57983,150.57607,347.63056,150.55358,347.60762Zm25.4566,28.5704c-.40557-.39609-.80794-.78865-1.68315-1.643.87885.69734,1.27251.98713,1.636,1.31618a3.886,3.886,0,0,1,.4446.59589A3.0621,3.0621,0,0,1,176.01018,376.178Z"/><path class="cls-1" d="M204.08944,401.21361l.08424.08469.20477.195c-.09384-.09086-.18955-.18392-.28416-.27567Z"/><path class="cls-1" d="M178.83066,374.74187c.71851.76394,1.47375,1.51642,2.21862,2.24861.20378.19937.60935.46754.61508.4102a1.4748,1.4748,0,0,0-.3533-.66382q-2.7457-3.03087-5.50355-6.07541c-1.099-1.19223-1.26413-1.26192-2.48746-1.21782A42.09,42.09,0,0,1,178.83066,374.74187Z"/><path class="cls-1" d="M206.061,403.1076c-.17257-.16717-.46821-.453-.67386-.65235-.346-.32949-.67529-.644-1.00864-.962.2974.28891.59182.57473.90091.87466C205.83489,402.89588,206.363,403.3943,206.061,403.1076Z"/><path class="cls-1" d="M159.75447,353.49954a1.28188,1.28188,0,0,0,.31349.18261l-.29739-.41285-.38771-.34051A6.48844,6.48844,0,0,0,159.75447,353.49954Z"/></g></g></svg>