<svg xmlns="http://www.w3.org/2000/svg" viewBox="0 0 160.21884 436.44683"><defs><style>.cls-1{fill:#24373e;}</style></defs><g id="Слой_2" data-name="Слой 2"><g id="Слой_1-2" data-name="Слой 1"><path class="cls-1" d="M157.487,106.79913c.03793.0247.0741.04852.11292.0741.08733.05426.176.10983.26288.16409-.12218-.07763-.24656-.15659-.36962-.23466Z"/><path class="cls-1" d="M145.53462,99.01058c-2.19084-1.46262-4.417-2.92259-6.63867-4.26435-1.83621-1.1071-3.51054-2.193-5.34366-3.43953A86.55652,86.55652,0,0,0,122.917,84.64025a8.28962,8.28962,0,0,1-2.54943-1.88164,5.997,5.997,0,0,0-1.95133-1.497,20.82542,20.82542,0,0,1-3.51186-2.22392c-1.85342-1.3938-3.82636-2.72762-5.88-3.98028-.55664-.33963-1.09167-.78865-1.66286-1.20944.49312-.53018,3.028.95537,3.612.60428-.88481-1.07182-2.59707-1.81548-3.6905-2.80173a19.23314,19.23314,0,0,0-4.32963-3.21282c-.09527.27436-.01588.68191-.35154.749a5.83435,5.83435,0,0,1-1.66286-.8504c-1.362-.9492-2.79952-1.93369-3.975-2.94111-2.10659-1.819-4.79408-3.10078-6.8098-5.01506a16.94946,16.94946,0,0,0-2.40873-1.41674,56.99565,56.99565,0,0,1-9.77914-7.7471,17.78382,17.78382,0,0,0-5.85752-4.65955,13.01487,13.01487,0,0,1-3.93354-2.89083,10.91827,10.91827,0,0,0-4.08482-2.57677,8.86056,8.86056,0,0,1-3.45982-1.52084,27.32777,27.32777,0,0,1-1.90149-1.97339,10.07444,10.07444,0,0,0-2.49209-2.298,30.43045,30.43045,0,0,1-6.86273-5.9572,8.81716,8.81716,0,0,0-3.29-2.56973c-2.23451-.8548-3.75578-2.89964-5.97176-3.81973a6.72206,6.72206,0,0,1-.82923-.412c-.28008-.16584-.43843-.277-.85657-.57428-.719-.51959-1.39028-1.08153-2.06248-1.67169-1.33779-1.175-2.6994-2.47621-4.24362-3.62037-.93332-.69161-1.90854-1.5376-2.82157-2.09159-3.5079-2.15158-6.99021-4.55634-10.63572-7.13488L13.14766,3.53833,10.36931,1.61346,8.98917.68014l-.685-.45607L7.96323,0c-.04852.04587-.01147.24789-.02118.36521.04764,4.40284-.14335,8.44312-.25141,12.7551-.064,2.13923-.06484,4.36844-.08513,6.58618-.02779,2.2098.00309,4.47518.13409,6.75291a27.25214,27.25214,0,0,1-.31978,3.35748q-.19518,2.82246-.39124,5.6511l-.0891,1.43967-.08248.87158-.14908,1.70344c-.17776,2.27332-.28318,4.55722-.27259,6.85788.00441.96155.03264,1.93457-.04234,2.88642-.75028,9.58021-1.58612,19.14985-2.25744,28.73712q-1.0877,15.12192-1.875,30.27119C1.71359,118.81587,1.35808,129.41056.977,140c-.08645,2.64823-.02117,5.31587-.191,7.94822C-.04764,160.68168-.05513,173.46545.0419,186.236q.25274,31.8099,1.49393,63.6242c.53018,12.76348,1.46,25.5199,2.35183,38.27279q1.36227,18.40752,2.7241,36.80136,1.28287,18.41148,2.56664,36.84061c.5756,7.71534,1.02991,15.41436,1.43835,23.12308.57781,11.08518,1.59582,22.13815,2.59134,33.15584.524,5.6608,1.09343,10.652,1.40836,14.85419.37624,4.43769.03881,5.42306.348-1.2778.165-3.51275.43931-7.24956.66691-11.40187.53459-9.8184,1.23017-19.61651,1.90193-29.45211.82261-11.9841,1.62669-23.98936,2.6125-35.96243q1.71822-20.4969,3.43953-41.03085,1.17041-14.03752,2.34124-28.08962.68941-8.6447,1.37925-17.29467c.573-7.68623,1.19224-15.37158,1.673-23.06486.41462-6.25581.65148-12.52353.98008-18.78464.32375-6.0163.74939-12.03085.91965-18.04715.60339-24.09875.82481-48.19837.83408-72.29888-.00265-1.684-.12174-3.36719-.1782-5.05035-.13276-3.85061-.30743-7.69858-.37447-11.55095l-.28847-20.93-.07763-15.166c-.05778-4.80864-.53856-9.61463-.24436-14.43032a7.74722,7.74722,0,0,0-.20642-2.13481c-.60472-2.57855-.41682-5.24883-.599-7.87678-.19054-2.8573.02074-5.7296-.59192-8.5922A30.38278,30.38278,0,0,1,29.09,37.12643c.0269-.14644.03484-.08116.04587-.10762a.2242.2242,0,0,0-.11645-.15791c-.18569-.1235-.42828-.27788-.64088-.44549-.30082-.13761-.36566-.51606-.47946-.868L27.57,34.4235c-.0569-.13938.00926-.11115.05205-.11644l.13541-.00794.28979-.00353.31625.01411.16805.01412c.38991.48783.64706.861.95758,1.28089a3.67582,3.67582,0,0,1,.22363.35374.62967.62967,0,0,0,.16364.142l.43534.25936.87025.51076a24.68684,24.68684,0,0,0,3.46335,1.72815c2.72674,1.04712,4.33756,2.84319,6.55794,4.1479.82262.4843,1.7008.88039,2.549,1.32676,3.58861,1.89487,7.31131,3.638,10.746,5.70138q7.45577,4.44872,15.02753,8.64689c2.107,1.17415,4.2295,2.61912,6.292,3.511a61.0211,61.0211,0,0,1,8.70777,4.716c.58928.37756,1.2606.69514,1.89752,1.02242,2.55781,1.31353,5.1165,2.60324,7.65447,3.96529,2.53311,1.355,5.03358,2.84143,7.594,3.95383,2.61912,1.1468,4.86156,3.0108,7.45687,4.2811,1.044.51518,2.17187,1.23855,3.15459,1.67522,3.80253,1.70785,7.5442,3.97058,11.3088,6.06747q3.4629,1.92531,6.91258,3.84355,3.75,2.096,7.493,4.18672,5.28235,3.02226,10.56691,6.04365c.35639.20554.6872.3705,1.02815.55576.11513-.1385.35551-.03882,1.57068.7366,1.72638,1.05241,3.16739,1.931,4.81922,2.93846.79593.49,1.33934.79747,1.50452.88039-.7516-.49268-1.344-.88127-2.44975-1.60552C151.83409,103.14612,148.66318,101.10129,145.53462,99.01058ZM55.762,37.30021c-.01764.05734-.39565-.02205-.54208-.12438l-6.86671-4.83422c-.11909-.08468-.2523-.37844-.191-.40932.202-.10144.5293-.27435.73837-.15526.99816.56723,1.9725,1.22091,3.75843,2.35624.56281.45167,1.84414,1.46085,3.069,2.49915C55.89739,36.77533,55.8202,37.11055,55.762,37.30021ZM72.40827,50.78838a4.50464,4.50464,0,0,1-.973-.232,4.55661,4.55661,0,0,1-.66382-.42432,17.86717,17.86717,0,0,0-3.911-2.76909c-1.19312-.59016-1.92575-1.43527-1.639-1.617a1.04618,1.04618,0,0,1,.73925-.15173,4.6523,4.6523,0,0,1,2.8379,1.23855,32.19852,32.19852,0,0,0,3.586,3.63889C72.48414,50.56255,72.49693,50.79721,72.40827,50.78838ZM85.851,59.88077l-1.14372-.78688c.06572-.01941.15306-.07763.1932-.05205l1.13577.76483C85.97275,59.83313,85.881,59.90106,85.851,59.88077ZM120.78175,85.361c-.53988-.34492-1.07535-.6872-2.24023-1.43174,1.1243.58222,1.62184.81952,2.0982,1.1027a4.91986,4.91986,0,0,1,.63736.54429A3.8019,3.8019,0,0,1,120.78175,85.361Z"/><path class="cls-1" d="M126.33228,85.42008c.27126.17466.77541.38814.76527.32816a1.82063,1.82063,0,0,0-.56017-.629q-3.75336-2.69674-7.523-5.40409c-1.49658-1.0577-1.69065-1.10446-2.97022-.86981a53.69559,53.69559,0,0,1,7.31175,4.6031C124.32978,84.12331,125.33941,84.78228,126.33228,85.42008Z"/><path class="cls-1" d="M160.1021,108.44435c-.22848-.14467-.62148-.39432-.89539-.56722-.46092-.288-.89979-.56238-1.344-.83981.39807.25317.792.50327,1.20591.76659C159.80393,108.26087,160.50216,108.69312,160.1021,108.44435Z"/><path class="cls-1" d="M97.2273,64.5262a1.583,1.583,0,0,0,.38285.14027l-.43049-.37933-.50548-.29111C96.85547,64.17422,97.02043,64.35771,97.2273,64.5262Z"/></g></g></svg>