<svg xmlns="http://www.w3.org/2000/svg" viewBox="0 0 330.68472 421.82104"><defs><style>.cls-1{fill:#24373e;}</style></defs><g id="Слой_2" data-name="Слой 2"><g id="Слой_1-2" data-name="Слой 1"><path class="cls-1" d="M18.108,365.1611c-.03352,1.50584-.03264,3.03814-.02514,4.53869a3.16744,3.16744,0,0,0,.14423,1.04227,2.814,2.814,0,0,0,.22054-1.03345q.20643-5.86788.41373-11.76355c.06793-2.32757.00044-2.5662-.8945-3.76593A86.80083,86.80083,0,0,1,18.108,365.1611Z"/><path class="cls-1" d="M17.25851,421.64645c-.00353-.34316-.00971-.93509-.01412-1.3475-.011-.68852-.02117-1.347-.03176-2.01043.00574.59678.01147,1.19179.01765,1.81195C17.2488,421.2014,17.26865,422.24455,17.25851,421.64645Z"/><path class="cls-1" d="M17.21263,418.28852l-.00529-.56061c-.00088.0494-.00088.10409-.00088.16275C17.20866,418.02387,17.21087,418.15575,17.21263,418.28852Z"/><path class="cls-1" d="M19.67341,324.19949a2.53436,2.53436,0,0,0,.09174.5046l.08248-.72161-.03264-.74057C19.76515,323.55861,19.70208,323.86163,19.67341,324.19949Z"/><path class="cls-1" d="M330.65423,1.80313c-.07895.0591-.2373.17687-.2373.17687l-.31669.23642-.63383.47372-1.27119.9514-2.55605,1.91737-5.16061,3.88942L309.99545,17.416l-5.29382,4.04028-5.057,3.58949-10.18008,7.2672-8.93977,6.41549-4.93258,3.57008-9.82149,7.19928Q233.21853,73.48869,201.245,98.28015c-12.23066,9.52288-24.23989,19.33466-36.2553,29.13056q-8.39526-6.87486-16.7967-13.75369c-7.59889-6.17069-15.16956-12.378-22.82932-18.479-6.21479-4.97978-12.54514-9.82458-18.81551-14.73819-6.02072-4.7288-11.97968-9.5392-18.0895-14.14273L70.02909,52.57034,51.52366,38.94764,33.92641,26.1599l-4.82584-3.50524-2.41225-1.752-2.54458-1.99323-10.18185-7.987L3.788,2.942,1.24605.94832C.8332.63736.374.23509,0,0L.067,1.621.33566,8.10261,1.39778,33.98287c.00838,4.44562.1332,8.96359.19539,13.3973l.23245,15.12237.18173,7.34792q.18,13.29982.36036,26.60451l.12967,19.27952c.07411,6.11291.5712,12.21963.29376,18.34268a12.42141,12.42141,0,0,0,.21348,2.71307c.61354,3.275.43491,6.67087.62589,10.01071.20069,3.6314-.00088,7.28308.62148,10.91977A48.86983,48.86983,0,0,1,4.3605,174.685a18.68839,18.68839,0,0,0-.09527,3.53039c.06616,2.44931.19142,4.89773.28758,7.347l1.44144,33.92508c.14732,3.35881.35242,6.71365.5465,10.06937a95.45215,95.45215,0,0,0,.64221,10.0063c.61354,3.63052-.01059,6.59324.11027,9.86339.0441,1.21208.19275,2.42152.28229,3.63537.37447,5.13635.94964,10.31064,1.09872,15.40068.23289,7.35189.56458,14.67291.97126,22.00583.16849,3.05888.11865,6.32153.49886,9.13738a98.02977,98.02977,0,0,1,.80937,12.546c.00662.88966.10719,1.82474.18129,2.73028.29817,3.63536.61618,7.25617.86275,10.90389.25009,3.63757.37138,7.33292.83937,10.83112.47107,3.58508.13541,7.26764.49,10.91315.13938,1.46923.1504,3.17223.32154,4.52193.64839,5.23428.79835,10.78922,1.1,16.25417q.27987,5.02433.55841,10.02924c.19672,3.63272.39256,7.25485.58884,10.88581q.35793,7.72239.715,15.44788c.034.52135.0644.98889.09616,1.4807.17908.02646.22671.352.24171,2.18377.06219,2.5684.1138,4.71381.17334,7.17194.02426,1.18738.064,1.98044.08469,2.21465.00176-1.14283.00309-2.04219.00617-3.72491-.0366-4.83245-.05689-9.62873-.01587-14.41134.02734-3.34911.03308-6.73306-.05779-10.03012-.07586-2.7241-.08159-5.26118-.03969-8.07835a139.79347,139.79347,0,0,0-.23025-15.95335,13.33407,13.33407,0,0,1,.18261-4.02131,9.61148,9.61148,0,0,0,.18746-3.11754,33.70307,33.70307,0,0,1-.05734-5.28368c.15482-2.942.19319-5.96822.12-9.02534-.02029-.8279.06352-1.71006.10366-2.6103.7141.15659.85525,3.88678,1.46834,4.26479.41418-1.68624.101-4.02616.32861-5.87516a30.931,30.931,0,0,0,.32463-6.84068c-.28185.08865-.57958.45607-.81908.14555a9.31069,9.31069,0,0,1-.19672-2.36153c.05028-2.1088.0891-4.323.29067-6.27478.37183-3.50613-.02382-7.2575.47725-10.73364a27.17193,27.17193,0,0,0-.13012-3.54847,91.63068,91.63068,0,0,1,1.14371-15.7928A28.4849,28.4849,0,0,0,20.994,284.974a20.93488,20.93488,0,0,1,.27082-6.19582,17.56948,17.56948,0,0,0-.0741-6.13893,14.00564,14.00564,0,0,1-.61839-4.73938c.11468-.66294.30125-2.14232.61354-3.39542a15.95218,15.95218,0,0,0,.56281-4.24979A48.51669,48.51669,0,0,1,22.98679,248.81a15.62183,15.62183,0,0,0,.44416-4.51443c3.39189-2.26141,7.018-4.60353,10.98153-7.23324,10.41253-6.90552,20.88549-13.68489,31.399-20.48764,12.80493-8.29668,25.6209-16.62423,38.51053-24.78153q22.08413-13.939,44.20794-27.903,8.13325-5.13745,16.274-10.28021,14.83941,9.41349,29.68191,18.82875,19.74927,12.623,39.51619,25.25746c8.29756,5.25853,16.50823,10.60351,24.70214,15.99349,11.77987,7.75239,23.78029,15.129,35.72777,22.5016,3.62125,2.22436,7.00388,4.25905,10.10334,6.14422.07013,2.4546-.23907,4.69086-.15041,7.09121.04367,1.21208.19231,2.42152.28185,3.63537.37491,5.13635.94964,10.31064,1.09916,15.40068.23245,7.35189.56414,14.67291.97126,22.00583.16849,3.05888.11865,6.32153.49842,9.13738a97.9522,97.9522,0,0,1,.80982,12.546c.00661.88966.10718,1.82474.18084,2.73028.29861,3.63536.61618,7.25617.86275,10.90389.25053,3.63757.37183,7.33292.83981,10.83112.47063,3.58508.13541,7.26764.49,10.91315.13938,1.46923.15,3.17223.3211,4.52193.64839,5.23428.79835,10.78922,1.10005,16.25417q.27987,5.02433.55885,10.02924c.19628,3.63272.39256,7.25485.58884,10.88581q.35727,7.72239.715,15.44788c.034.52135.064.98889.09616,1.4807.17908.02646.22671.352.24127,2.18377.06219,2.5684.11424,4.71381.17378,7.17194.02338,1.18694.06352,1.98.08469,2.21421.00132-1.14239.00309-2.04175.00574-3.72447-.03617-4.83245-.0569-9.62873-.01588-14.41134.02778-3.34911.03352-6.73306-.05734-10.03012-.07631-2.7241-.0816-5.26118-.04014-8.07835a139.693,139.693,0,0,0-.2298-15.95335,13.32036,13.32036,0,0,1,.18216-4.02131,9.59728,9.59728,0,0,0,.1879-3.11754,33.65091,33.65091,0,0,1-.05734-5.28368c.15438-2.942.19275-5.96822.11953-9.02534-.01985-.8279.064-1.71006.1041-2.6103.71366.15659.85481,3.88678,1.46791,4.26479.41417-1.68624.10144-4.02616.329-5.87516a30.90487,30.90487,0,0,0,.32419-6.84068c-.28185.08865-.57957.45607-.81908.14555a9.33689,9.33689,0,0,1-.19628-2.36153c.04984-2.1088.0891-4.323.29023-6.27478.37227-3.50613-.02338-7.2575.47769-10.73364a27.17017,27.17017,0,0,0-.13012-3.54847,91.63239,91.63239,0,0,1,1.14327-15.7928,28.47331,28.47331,0,0,0,.70088-9.47348,20.93483,20.93483,0,0,1,.27126-6.19582,17.56907,17.56907,0,0,0-.07454-6.13893,14.01961,14.01961,0,0,1-.618-4.73938c.11424-.66294.30081-2.14232.6131-3.39542a15.95218,15.95218,0,0,0,.56281-4.24979A48.53978,48.53978,0,0,1,320.07806,248.81a14.11375,14.11375,0,0,0,.35418-5.28764c-.505-2.97243.37536-6.01278-.06483-9.01123-.48034-3.18326.66073-5.80767.89538-8.7898a23.89449,23.89449,0,0,0,.20863-2.71219c-.29375-6.73879.69911-13.31483.7935-19.99672.08249-6.7088,1.13-13.35849.57341-20.12287a17.47973,17.47973,0,0,1,.30875-2.65352c.52576-5.74813.97081-11.51347.92759-17.36349-.00794-1.22222-.03926-2.45812.03264-3.66888.71719-12.1817,1.51995-24.35016,2.15863-36.54156q1.03609-19.2266,1.77137-38.488c.24-6.72644.47681-13.45729.651-20.189l.03353-1.26236.03352-2.29008.06616-5.00227.13144-10.068.13144-10.15141.539-11.04548c.37536-7.44275.59237-14.67864,1.06123-22.3265C330.686,1.77269,330.66482,1.79828,330.65423,1.80313ZM15.18941,364.4267a6.1434,6.1434,0,0,1-.09042-.67705c-.00618-.81423-.01191-1.62229-.02559-3.37954.12748,1.60155.20025,2.29581.22363,2.99977A7.811,7.811,0,0,1,15.18941,364.4267Zm2.32051-55.42014c-.05734-.049-.16408-.09969-.16364-.14556l.0344-1.76431c.05161.05646.14821.10938.14821.16981Zm1.44365-27.36449a50.64532,50.64532,0,0,0-1.0877,6.34579c-.02161.16893-.21084.3458-.25186.2448a6.71308,6.71308,0,0,1-.33786-1.19665,7.35761,7.35761,0,0,1-.0075-1.00125,28.81869,28.81869,0,0,0,.18128-6.08776c-.1579-1.68006.15-3.047.45828-2.86789a1.22109,1.22109,0,0,1,.5315.681A7.32051,7.32051,0,0,1,18.95357,281.64207Zm1.39866-21.0015c-.02779.28009-.34978.4305-.54076.50063-.05779.02117-.19761-.43667-.19231-.66338q.14754-5.33727.29552-10.6688c.00573-.1857.17952-.53194.23862-.48828.1954.14468.51871.3736.53371.67838.07013,1.45644.05513,2.94861.08071,5.63786C20.69671,256.55046,20.552,258.61558,20.35223,260.64057Zm10.656-199.44715c.07411-.12615.0075-.479.15879-.3983a10.92741,10.92741,0,0,1,.72866,1.03036.56619.56619,0,0,1,.079.15614c-.02294.11689-.04985.22848-.08116.33566a4.293,4.293,0,0,1-.22275.59811c-.04807.09792-.04013-.19275-.04013-.19275.01279-.29509-.00706-.20731-.01588-.2501-.0322-.06086-.16232-.29155-.16232-.29155a4.71978,4.71978,0,0,0-.26641-.404,3.35049,3.35049,0,0,0-.27259-.32684A.79657.79657,0,0,1,31.00823,61.19342Zm96.05139,97.32521q-18.172,14.80436-36.35984,29.621c-7.59184,6.23419-15.23881,12.35856-22.92327,18.45294-11.05121,8.7607-21.814,17.84823-32.55686,26.88636-4.4077,3.724-8.35049,7.1437-11.87118,10.10466-.513-3.03374.36786-6.07409-.07278-9.07254-.48033-3.18326.66074-5.80767.89583-8.7898a23.99626,23.99626,0,0,0,.20863-2.71219c-.2942-6.73879.69911-13.31483.79306-19.99672.08292-6.7088,1.13-13.35849.57384-20.12287a17.42229,17.42229,0,0,1,.30832-2.65352c.52576-5.74813.97081-11.51347.928-17.36349-.00794-1.22222-.0397-2.45812.0322-3.66888.71763-12.1817,1.52039-24.35016,2.15863-36.54156q1.03609-19.2266,1.77137-38.488c.24-6.72644.47725-13.45729.651-20.189l.01544-.565,1.05682.77586,4.93479,3.56655L47.51647,74.836q32.97632,23.404,66.53266,46.008c10.85361,7.27956,21.85366,14.34475,32.86827,21.38347Q136.99049,150.37126,127.05962,158.51863Zm172.529-96.15194c.0763-.05117.08159-.00574.071.05116C299.58513,62.37021,299.58866,62.36669,299.58866,62.36669Zm-1.501,173.469c-9.8184-7.72636-19.5358-15.55021-29.288-23.40537-11.88882-9.56346-23.81028-19.12779-35.59325-28.81563q-20.15286-16.60924-40.34144-33.24892-4.97934-4.1-9.96308-8.20493,7.2381-4.60023,14.47839-9.2031c8.23934-5.28455,16.50515-10.53118,24.69773-15.89557,6.67484-4.34286,13.25837-8.83832,19.88822-13.25484,6.37578-4.23744,12.80979-8.39107,19.09515-12.752l18.80713-13.20544L298.6002,64.54032l.3608-.25847.13806,5.56861q.18,13.29982.36036,26.60451l.12924,19.27952c.0741,6.11291.57163,12.21963.29375,18.34268a12.42091,12.42091,0,0,0,.21393,2.71307c.61354,3.275.4349,6.67087.62589,10.01071.20069,3.6314-.00089,7.28308.62147,10.91977a48.8805,48.8805,0,0,1,.10807,16.96431,18.68839,18.68839,0,0,0-.09527,3.53039c.06616,2.44931.19187,4.89773.28758,7.347l1.44144,33.92508c.14776,3.35881.35242,6.71365.54694,10.06937a95.57705,95.57705,0,0,0,.64177,10.0063c.07586.44946.13276.88878.17467,1.31971C302.42876,239.27519,300.3279,237.59821,298.08767,235.83566Zm14.193,128.591a6.24765,6.24765,0,0,1-.09-.67705c-.00618-.81423-.01235-1.62229-.02558-3.37954.127,1.60155.1998,2.29581.22362,2.99977A7.81256,7.81256,0,0,1,312.28068,364.4267Zm2.32095-55.42014c-.05778-.049-.16408-.09969-.16408-.14556l.03485-1.76431c.0516.05646.14776.10938.1482.16981Zm1.44321-27.36449a50.64532,50.64532,0,0,0-1.0877,6.34579c-.02117.16893-.21083.3458-.25185.2448a6.71413,6.71413,0,0,1-.33743-1.19665,7.28593,7.28593,0,0,1-.0075-1.00125,28.84869,28.84869,0,0,0,.18129-6.08776c-.15791-1.68006.15-3.047.45828-2.86789a1.22073,1.22073,0,0,1,.531.681A7.31618,7.31618,0,0,1,316.04484,281.64207Zm1.3991-21.0015c-.02779.28009-.35022.4305-.54076.50063-.05778.02117-.19761-.43667-.19275-.66338q.1482-5.33727.296-10.6688c.00573-.1857.17908-.53194.23818-.48828.19584.14468.51915.3736.53371.67838.07057,1.45644.05513,2.94861.08115,5.63786C317.78842,256.55046,317.64375,258.61558,317.44394,260.64057Z"/><path class="cls-1" d="M315.19929,365.1611c-.03308,1.50584-.03264,3.03814-.0247,4.53869a3.18544,3.18544,0,0,0,.14379,1.04227,2.79539,2.79539,0,0,0,.22054-1.03345q.20643-5.86788.41373-11.76355c.06793-2.32757.00089-2.5662-.8945-3.76593A86.71794,86.71794,0,0,1,315.19929,365.1611Z"/><path class="cls-1" d="M314.30435,418.29646l-.0053-.56855c-.00088.0494-.00088.10409-.00088.16275C314.30038,418.02652,314.30258,418.16105,314.30435,418.29646Z"/><path class="cls-1" d="M314.34978,421.64645c-.00353-.34316-.00971-.93509-.01412-1.3475-.01058-.68588-.02073-1.3422-.03131-2.00249.00573.59413.01146,1.1865.0172,1.804C314.34051,421.2014,314.36036,422.24455,314.34978,421.64645Z"/><path class="cls-1" d="M316.76512,324.19949a2.53436,2.53436,0,0,0,.09174.5046l.082-.72161-.03219-.74057C316.85642,323.55861,316.79335,323.86163,316.76512,324.19949Z"/></g></g></svg>