<svg xmlns="http://www.w3.org/2000/svg" viewBox="0 0 221.29657 414.26342"><defs><style>.cls-1{fill:#24373e;}</style></defs><g id="Слой_2" data-name="Слой 2"><g id="Слой_1-2" data-name="Слой 1"><path class="cls-1" d="M118.67212,383.16691c-.00353.82658-.00684,1.66727-.01037,2.49121a3.26914,3.26914,0,0,0,.04014.57163,2.8009,2.8009,0,0,0,.0633-.56678q.06615-3.22075.13276-6.45606a3.88929,3.88929,0,0,0-.26-2.0669C118.72483,379.74458,118.71579,379.78119,118.67212,383.16691Z"/><path class="cls-1" d="M118.4174,412.3354l-.00133-.31845C118.4164,412.18235,118.417,412.26,118.4174,412.3354Z"/><path class="cls-1" d="M118.428,414.16764c-.00066-.19054-.0022-.51429-.00309-.73969-.00253-.374-.00507-.7313-.00749-1.09255.00132.32508.00264.64618.00419.98361C118.426,413.92328,118.43041,414.4958,118.428,414.16764Z"/><path class="cls-1" d="M119.20141,360.686a2.3155,2.3155,0,0,0,.02845.277l.02779-.39609-.00882-.40623C119.23207,360.3345,119.21134,360.50078,119.20141,360.686Z"/><path class="cls-1" d="M219.59212,262.42926c-1.20436-1.34749-2.41777-2.85333-3.81907-4.47032-3.31007-3.82724-6.51782-7.74842-9.74276-11.67887-3.93067-4.7879-7.88206-9.56919-11.69739-14.47178q-6.51-8.41511-13.031-16.84521-4.46328-5.758-8.93073-11.52228c-1.82629-2.36992-3.68962-4.70278-5.54105-7.04887-2.4901-3.10387-4.948-6.24082-7.50384-9.27985-2.06226-2.48812-4.25045-4.85142-6.37358-7.27867-2.03646-2.33683-3.986-4.76408-6.13694-6.97918q-7.85439-8.06511-15.97629-15.84794.62853-13.43214,1.106-26.86166c.30325-8.9036.21591-17.801.16938-26.69625-.03992-8.55956-.29089-17.10854-.39212-25.66854-.10167-8.56177-.01786-17.13545-.18106-25.69677a143.13937,143.13937,0,0,1,.53458-16.12891,115.8874,115.8874,0,0,0-.05976-23.12573,16.1686,16.1686,0,0,0-5.10217-10.36c-3.24877-3.095-8.69807-3.78357-12.23816.89274a15.46116,15.46116,0,0,0-3.17907,7.95573c-.69823,6.85171-1.52062,13.6893-1.974,20.55292-.55223,8.36284-.8665,16.74068-1.44365,25.09646-.65522,9.53567-1.09586,19.08634-1.4968,28.63391-.27347,6.53105-.46159,13.06738-.63163,19.60284q-.1568,6.03262-.23421,12.06966c-.06947,5.364-.1407,10.727-.11071,16.09582.0021.36786.01478.73661.01864,1.10446l-5.7456-5.24574c-1.83422-1.64787-3.97874-2.964-5.581-4.86377a2.13992,2.13992,0,0,0-.94038-.59766c-1.37837-.464-2.2506-1.53495-3.36454-2.317-1.20547-.85657-2.13835-2.01352-3.6314-2.56884a8.26088,8.26088,0,0,1-5.04792-4.61853,3.09223,3.09223,0,0,0-.96971-1.04712c-.7635-.62986-1.56759-1.21649-2.35138-1.82518q-5.44347-4.19862-10.93588-8.34608c-1.08615-.82261-2.21024-1.60288-3.32771-2.39064a16.07153,16.07153,0,0,0-3.37447-2.3042c-1.48577-.55884-1.92575-1.83312-2.96757-2.65088-.3855-.30346-.84224-.53061-1.2595-.80143a60.72911,60.72911,0,0,1-5.26978-3.46556c-2.31522-1.86664-4.68932-3.65256-7.11856-5.38732A20.7315,20.7315,0,0,0,40.718,83.8751,16.53518,16.53518,0,0,1,36.48382,80.99a6.36871,6.36871,0,0,0-.92494-.62456c-1.27052-.78953-2.55031-1.56142-3.78908-2.392A29.45271,29.45271,0,0,0,28.018,75.58459c-1.3744-.65015-2.2237-1.91428-3.53612-2.66543-.52643-.30567-1.03323-.76924-1.54642-1.01889a41.2439,41.2439,0,0,1-5.52076-3.70109q-1.665-1.18761-3.324-2.3708l-3.59325-2.58912q-2.52837-1.85849-5.02255-3.7549c-.16849-.12836-.33456-.22672-.50019-.34007-.13055.12306-.25869.06748-.80585-.42917-.77607-.68676-1.47628-1.20547-2.22193-1.86a7.18793,7.18793,0,0,0-.70682-.55091c.334.318.60074.57208,1.08725,1.03521,1.44189,1.31177,2.86216,2.62486,4.23612,3.979.96287.94744,1.95111,1.8887,2.98058,2.73513a30.03271,30.03271,0,0,1,2.3955,2.20847,22.84871,22.84871,0,0,0,4.8351,4.25023,2.269,2.269,0,0,1,1.05373,1.246,1.66686,1.66686,0,0,0,.78512.99992,5.52049,5.52049,0,0,1,1.58855,1.42116,19.29652,19.29652,0,0,0,2.56376,2.586,6.57147,6.57147,0,0,1,.694.79835c-.53613.47592-1.72682-.45431-2.25854-.11336.21017.76792,1.11085,1.18827,1.49658,1.86576a5.19488,5.19488,0,0,0,1.783,2.13c.16739-.22936.264-.54738.51982-.63559.12967-.04455.60295.27391.827.51076A13.73557,13.73557,0,0,1,27.468,83.27038c.77254,1.24119,2.14408,1.99235,2.81915,3.31911.168.33787.75071.57958,1.1296.88789a15.64873,15.64873,0,0,1,3.8451,5.20428,4.99417,4.99417,0,0,0,2.29625,3.133,3.5499,3.5499,0,0,1,1.63044,1.91252,2.974,2.974,0,0,0,1.85077,1.6461c.53084.20466,1.15011.03484,1.81393.86275a8.81232,8.81232,0,0,1,.57429,1.38631,3.00576,3.00576,0,0,0,.85966,1.58567,8.75289,8.75289,0,0,1,2.50532,4.06939,2.476,2.476,0,0,0,1.30714,1.72153c1.21825.45563,1.505,1.93765,2.68638,2.448,1.263.53238,1.24914,2.08851,1.96214,3.0849a4.09165,4.09165,0,0,0,.65169.90289c2.1776,1.65228,3.42387,4.19509,5.31808,6.11378,1.91009,1.91781,3.14048,4.52061,5.50576,5.989.281.17423.35882.65059.56612.95935a29.31548,29.31548,0,0,0,4.45357,5.48216,9.16167,9.16167,0,0,1,1.05351,1.03962c3.07189,3.90222,6.09813,7.84457,9.22581,11.693q4.935,6.06769,10.06938,11.944c3.59765,4.09189,7.31793,8.0638,11.03643,12.03438.93178.99022,1.97405,1.87811,2.84408,2.923,1.14768,1.3744,2.33992,2.70425,3.56159,4.00454l1.59,31.89481c.0591,1.17459.18878,2.34874.27986,3.52333.20841,2.68572.44483,5.37012.60252,8.05761q.42939,7.299.77321,14.60145l.44526,10.581c.15,3.35484.51695,6.70615.481,10.06672a7.599,7.599,0,0,0,.15107,1.48908,47.84152,47.84152,0,0,1,.46886,5.49407c.15659,1.99279.11623,3.99705.46071,5.99293a31.57715,31.57715,0,0,1,.288,9.31072,12.38338,12.38338,0,0,0,.00353,1.93722l.22672,4.03233,1.01073,18.61879.32375,5.52627c.107,1.84283.116,3.81841.34911,5.49186a51.08328,51.08328,0,0,1,.12858,5.41336c.02756.66514.09483,1.329.13938,1.995.19032,2.81893.43556,5.659.53017,8.45238.1385,4.035.3081,8.05321.49467,12.07716.07653,1.67919.08028,3.47.22738,5.01506.21789,2.31125.30346,4.551.339,6.88567.00728.48828.04455,1.00125.07278,1.49835.10982,1.99543.219,3.98249.329,5.98454.09351,1.99632.14688,4.0244.30611,5.94441.157,1.96721.06572,3.98823.18657,5.989.04632.80629.05426,1.74138.10917,2.482.20885,2.87274.2631,5.92147.36191,8.92081q.088,2.75761.17554,5.50421c.05845,1.99367.11667,3.98161.17489,5.9744q.10058,4.23833.20113,8.478c.00883.28537.017.543.02537.8129.04476.01456.05689.1932.06153,1.19841.01565,1.41057.02889,2.58693.0441,3.93618.01037.625.01721,1.03257.02007,1.20988.00044-.62457.00066-1.12254.00133-2.03866-.00177-2.6522-.00331-5.28368-.00508-7.90941.00706-1.838.0086-3.69536-.01588-5.50466-.02073-1.49526-.02271-2.8873-.01168-4.43372.01477-2.89391.08931-5.91838-.06837-8.7554a13.75132,13.75132,0,0,1,.05183-2.20715,9.87813,9.87813,0,0,0,.05447-1.71095c-.05227-.97346-.04631-1.88252-.0172-2.90008.04565-1.61435.058-3.27545.03594-4.95287-.00617-.45475.01941-.93862.03176-1.43262.21944.08557.2598,2.13305.44483,2.34036.12835-.92538.03639-2.20936.109-3.22428a30.231,30.231,0,0,0,.11225-3.75446c-.08866.049-.18216.25053-.25693.07983a8.86048,8.86048,0,0,1-.0591-1.29588c.01786-1.15739.032-2.37256.099-3.44394.12483-1.92443.0011-3.98294.17-5.8906.0441-.4821-.02691-1.28442-.037-1.9478a78.59313,78.59313,0,0,1,.41792-8.66719,24.67738,24.67738,0,0,0,.26994-5.19943,17.65732,17.65732,0,0,1,.11644-3.40071,14.599,14.599,0,0,0-.00706-3.36895,11.42029,11.42029,0,0,1-.21017-2.601c.04389-.36389.11667-1.17547.2362-1.86356a12.86129,12.86129,0,0,0,.22384-2.33242,37.26237,37.26237,0,0,1,.51893-6.281,10.99746,10.99746,0,0,0,.1632-2.90229c-.18305-1.63111.18084-3.29971.02426-4.94537a26.4159,26.4159,0,0,1,.40844-4.82407c.03352-.498.11071-1.01272.10233-1.48864-.07366-3.69844.37492-7.30734.47328-10.97447.08535-3.68212.59611-7.3316.415-11.04415a11.69054,11.69054,0,0,1,.16166-1.45644c.28559-3.15459.54958-6.31889.595-9.5295.00948-.67044.00772-1.34881.05425-2.01352q.76252-10.02813,1.52437-20.0545.80255-10.55278,1.60663-21.12367.7913-11.07481,1.58347-22.16462c.13607-1.84768.176-3.70858.36631-5.54568.1363-1.306.24657-2.61382.36588-3.92118q6.76967,5.79114,13.75039,11.35556c5.15069,4.07468,10.572,7.85648,15.96614,11.66431,5.18532,3.66977,10.46458,7.22839,15.66953,10.87831,5.201,3.65521,10.34394,7.385,15.576,11.0071,3.28824,2.27729,6.48716,4.6375,9.65829,7.03432,4.55854,3.44791,9.38812,6.58441,14.21131,9.70107,2.482,1.5967,4.74424,2.92655,6.5359,4.16642C221.755,264.40662,221.89367,264.99634,219.59212,262.42926ZM18.48541,69.96482a1.37771,1.37771,0,0,1-.23576-.371,1.145,1.145,0,0,1,.26046.12218c.24987.21348.48673.43711,1.0083.917C18.96155,70.282,18.70793,70.14257,18.48541,69.96482ZM33.40157,87.12275c-.172-.15834-.333-.329-.49732-.49577.05382-.02823.142-.09174.15526-.07851.17092.16452.331.34051.49357.51342C33.501,87.08394,33.41943,87.13952,33.40157,87.12275Zm8.58978,8.63455a1.01956,1.01956,0,0,1-.56458.198c-.567-.02028-1.35235-.13011-1.49085-.70175a10.16658,10.16658,0,0,0-1.1135-2.54767c-.03485-.06263.04345-.24921.101-.251a1.79229,1.79229,0,0,1,.58266.086c.09527.03.1793.15879.29883.2717a4.78862,4.78862,0,0,0,1.66022,1.81769C42.06611,94.98056,42.25555,95.58307,41.99135,95.7573Zm6.59676,9.31866c-.17665.10189-.46578.27391-.56524.19981-.47526-.352-.90245-.7763-1.70852-1.50187-.219-.30479-.72513-.98184-1.18165-1.688-.06307-.09748.114-.37359.22451-.5315.03352-.04764.26377-.02294.32662.04367q1.47674,1.57134,2.925,3.16914A.32232.32232,0,0,1,48.58811,105.076Zm69.24376,277.6878c-.00949-.12394-.02559-.25274-.02735-.37139-.00309-.44681-.0064-.89053-.01323-1.85473.03727.87907.05337,1.2606.06991,1.64654C117.865,382.37252,117.842,382.57013,117.83187,382.76376Zm.67948-30.41587a7.15047,7.15047,0,0,1-.04279-1.048A7.98168,7.98168,0,0,1,118.51135,352.34789Zm.518-15.01827c-.18591,1.0855-.28979,2.26053-.38947,3.48276-.0075.09262-.07366.18966-.088.13453a5.44129,5.44129,0,0,1-.118-.65677c-.01522-.12262-.00265-.326-.00265-.54958a24.589,24.589,0,0,0,.06484-3.34117c-.05646-.92185.054-1.67257.16474-1.57377a.68525.68525,0,0,1,.18989.3736A5.99044,5.99044,0,0,1,119.02939,337.32962Zm.72072-14.272c-.03109.50106-.101,1.63419-.16959,2.74615a.34975.34975,0,0,1-.20268.27435.88227.88227,0,0,1-.07035-.36389l.135-5.85531c.00265-.10189.06991-.292.09241-.26773a.59375.59375,0,0,1,.202.37182C119.75938,320.76273,119.74879,321.58137,119.75011,323.05766Z"/><path class="cls-1" d="M16.03037,71.51256c-.41881-.44152-.86826-.8654-1.31353-1.27516-.122-.11159-.38925-.23068-.40447-.18393a.65057.65057,0,0,0,.15151.44637q1.57895,1.77579,3.16474,3.55862c.63581.69382.752.711,1.71844.39212A14.19286,14.19286,0,0,1,16.03037,71.51256Z"/><path class="cls-1" d="M1.06613,56.148c.05646.05073.11391.10277.1707.15394C1.14872,56.22038,1.107,56.18377,1.06613,56.148Z"/><path class="cls-1" d="M.05319,55.254c.10542.09483.28229.25318.40469.36256.20819.18173.40712.356.60825.5315-.17842-.161-.35529-.31978-.54032-.48651C.19015,55.37-.12941,55.09563.05319,55.254Z"/><path class="cls-1" d="M26.75364,83.92009l.155.25979.23928.18128a2.42922,2.42922,0,0,0-.18348-.3683C26.93492,83.95052,26.8262,83.94346,26.75364,83.92009Z"/></g></g></svg>