<svg xmlns="http://www.w3.org/2000/svg" viewBox="0 0 277.05022 459.94905"><defs><style>.cls-1{fill:#24373e;}</style></defs><g id="Слой_2" data-name="Слой 2"><g id="Слой_1-2" data-name="Слой 1"><path class="cls-1" d="M276.73882,164.79429l-.70131-.84554-2.80813-3.38484-5.66917-6.79613-5.71329-6.78819-2.88619-3.51892c-7.38365-9.02667-14.68746-18.11729-22.186-27.04206l-22.624-26.72934L191.42924,63.04418,168.62506,36.471,152.98972,18.34c-3.81114-4.38917-7.62735-8.92742-11.43958-13.40392l-2.85907-3.36587L137.9763.7291l-.35749-.42079-.17864-.21039A.78746.78746,0,0,0,137.35085,0l-.08932.10542L135.832,1.7921l-5.71681,6.745L117.45867,23.595l-3.5895,4.24759-1.95529,2.35668-3.56348,4.312L101.18046,43.103Q88.07978,58.56834,74.97358,74.0407l-19.091,22.33355c-6.028,7.10268-11.7296,14.47486-18.03415,21.35965a28.69032,28.69032,0,0,0-2.53818,3.2706c-2.79511,4.18009-6.3105,7.98219-9.48958,11.96115-3.46246,4.32169-7.25,8.40431-10.398,13.00784l-.92406,1.33161-.46754.66206-.13056.18-.23113.29641-.46269.59148q-1.85119,2.33352-3.70682,4.671C6.99859,156.7949,4.57,159.79511,2.03425,162.798L.12086,165.04924,0,165.18994l.10939.14247.21965.28493.43844.57032.87157,1.142q1.73675,2.28588,3.42717,4.5978L6.7507,174.255l1.83753,2.34433q1.84526,2.35932,3.68433,4.79584c.45166.599.95317,1.23149,1.486,1.88385.33213.40314.67794.82216,1.02859,1.24781.59767.70351,1.23458,1.411,1.83357,2.08453l7.50715,8.31168,34.751,38.30543c3.4446,3.78974,6.928,7.5367,10.40481,11.292,3.47371,3.76063,6.9944,7.969,10.41474,11.15751,4.06762,3.79989,6.53325,7.6333,9.86934,11.33792,1.2359,1.37351,2.54855,2.67558,3.82062,4.02131,5.38027,5.69784,10.95021,11.30924,16.113,17.09971q8.27651,9.254,16.64651,18.36032Q109.887,326.705,93.629,346.90928,79.61064,364.421,65.4013,381.713c-13.61167,16.61586-26.85416,33.46725-40.07283,50.24851-6.77937,8.6319-12.6757,16.31283-17.7653,22.67274-5.341,6.74408-6.84686,7.96852,1.88472-1.64522,4.6128-5.01418,9.51538-10.34329,14.96314-16.2652,12.85963-14.02893,25.79888-27.93921,38.78841-41.89978,15.82015-17.01723,31.65287-34.07725,47.58307-50.97275Q123.33967,330.5541,135.92,317.23222c1.88473,2.10836,3.76064,4.18275,5.59464,5.974,4.61257,4.49856,8.81362,9.08886,13.06165,13.98615.88745,1.02463,1.89156,2.04087,2.846,3.04035,3.83319,4.01117,7.66638,7.99234,11.47267,12.05158,3.79878,4.04513,7.55677,8.24066,11.38268,11.98277,3.91391,3.84,7.31285,8.31873,11.19875,12.30476,1.5634,1.60861,3.26133,3.57185,4.73035,5.02167,5.68527,5.63257,11.30924,11.962,16.96143,18.086q5.19867,5.62837,10.37725,11.23558,5.62739,6.112,11.24286,12.21213,7.93279,8.70027,15.86845,17.40407c.54363.58222,1.02992,1.10225,1.542,1.65051.16209-.08645.52113.25935,2.34984,2.369,2.59509,2.93008,4.763,5.37851,7.24692,8.18332,1.196,1.35764,2.01286,2.24862,2.26118,2.50621-1.1318-1.32235-2.02146-2.36153-3.6905-4.312-4.82208-5.56685-9.59587-11.10194-14.3099-16.66084-3.30147-3.89208-6.6541-7.81018-9.99439-11.56507-2.76026-3.10167-5.28147-6.03307-8.0446-9.3191-5.18575-6.13937-10.45906-12.68012-16.00231-18.30475a30.77981,30.77981,0,0,1-3.85062-4.77026,22.16565,22.16565,0,0,0-2.95081-3.72887,78.09811,78.09811,0,0,1-5.28544-6.07453c-2.80129-3.50348-5.77459-7.02946-8.863-10.518-.83673-.94523-1.64831-2.02014-2.51084-3.08754.69712-.28362,4.50517,3.9397,5.34565,3.97764-1.35874-2.22039-3.91744-4.72307-5.579-7.01006a71.54152,71.54152,0,0,0-6.54075-8.12466c-.12571.28626.01279.9051-.47747.70176a21.4777,21.4777,0,0,1-2.49165-2.60369c-2.0541-2.4718-4.22155-5.05872-6.00483-7.4476-3.19628-4.29831-7.21825-8.38-10.28639-12.72731-.77255-1.10093-2.39285-2.64559-3.61926-4.02043a211.51531,211.51531,0,0,1-14.79994-19.01311q-.39267-.61663-.79151-1.22443,11.05794-11.70932,22.10992-23.41287,18.688-19.7989,37.39438-39.61808,11.48436-12.21279,22.97643-24.43353c10.1814-10.88492,20.39589-21.73809,30.51621-32.69315l3.08512-3.34205,1.54024-1.67433,2.9925-3.34867,3.0044-3.36454,1.50342-1.68536c.51165-.56105,1.00279-1.12387,1.441-1.69065l5.46672-6.79878,1.36845-1.70256.34227-.42608C277.01163,165.0757,276.83829,164.935,276.73882,164.79429ZM208.68642,393.6124c.34911.38991.6453.85966.96662,1.2928-.2481-.24127-.52268-.47769-.74035-.72469-.81268-.93773-1.61875-1.86841-3.37226-3.89252C207.22579,392.0576,207.97011,392.81361,208.68642,393.6124Zm-53.96635-66.35227,1.712,2.02543c-.092-.019-.2234-.00838-.26883-.06175l-1.7244-2.0638C154.53437,327.19177,154.65986,327.19044,154.72007,327.26013Zm-44.0282-54.84277c-.02294.06175-.58311-.37624-.80431-.64221q-5.18244-6.27015-10.36-12.53412c-.18-.21833-.39146-.73131-.30324-.7194a1.69314,1.69314,0,0,1,1.078.43711c1.49857,1.639,2.96736,3.37513,5.65484,6.46885.85239,1.10314,2.79115,3.586,4.64875,6.05865A.96147.96147,0,0,1,110.69187,272.41736Zm20.63716,27.641a54.93071,54.93071,0,0,0-3.7721-4.34947c-1.78681-1.84062-2.90957-3.62257-2.49782-3.616a1.91308,1.91308,0,0,1,1.07909.442,16.56444,16.56444,0,0,1,4.24119,4.15628c.50349.84114,1.05087,1.68889,1.615,2.54061Q131.66161,299.64534,131.329,300.0584ZM239.81441,165.89611l-.077.09262-.15394.18481-9.8528,11.84472c-15.78112,19.03958-31.25061,38.3288-46.74326,57.5876q-22.30577,27.84747-44.59432,55.67421-2.44535,3.03881-4.89332,6.0807a49.55587,49.55587,0,0,1-4.20723-5.48745,40.61462,40.61462,0,0,0-6.14642-7.05284,31.87617,31.87617,0,0,1-5.17142-5.08034c-.57053-.84114-1.89664-2.67382-2.903-4.327a36.3729,36.3729,0,0,0-3.78908-5.28191A111.38546,111.38546,0,0,1,100.86818,256.086a32.4994,32.4994,0,0,0-4.97735-6.34756c-3.33213-3.1096-5.68-7.19971-8.98895-10.38165-3.52245-3.3694-5.26052-7.14856-8.04042-10.7504-.84709-1.09608-1.64544-2.29449-2.53245-3.27324-6.909-7.60463-12.67923-15.85764-19.23652-23.6484-6.59323-7.81459-12.3954-16.1889-19.52873-23.6515a40.01567,40.01567,0,0,1-2.39836-3.27059q-1.99743-2.61405-3.999-5.23339L30.939,169.236l-.097-.11512-.193-.22672-.38264-.44372-.75821-.84952-.62214-.8923-.31626-.43578-.16055-.21657-.08094-.10763c-.024-.03616-.07652-.07233-.01654-.10674.53525-.55928,1.05374-1.112,1.51775-1.68889l.57715-.73263.30523-.36036.47284-.50812c12.66776-13.58962,25.38713-27.10778,38.00439-40.75959q19.921-21.51182,39.649-43.25962,10.2888-11.43143,20.58732-22.87343l5.12643-5.73975,1.85429-2.07351.22561-.24171a1.80165,1.80165,0,0,1,.42653-.38286l.20422-.13717c.09483-.0494.18481.09924.18481.09924.11357.1954.23267.31934.33257.47328a1.54432,1.54432,0,0,1,.17908.54561c.0236.08028-.05668.00309.11975.21525l.7291.89847,1.46063,1.79608,2.93119,3.58508,5.90339,7.14149q5.94033,7.11438,11.95873,14.17405c8.00777,9.42584,16.14059,18.75508,24.26657,28.08168Q205.587,127.30926,226.02432,150.375l10.23235,11.52008,2.56377,2.8745,1.00036,1.12034Zm.28471.1182c-.02933-.03528-.00264-.00749.03044.01147C240.14279,166.03681,240.09912,166.01431,240.09912,166.01431Z"/><path class="cls-1" d="M201.59454,381.24281c4.93964,5.29117,4.98507,5.38644,11.00248,12.61174,1.46879,1.76387,2.98918,3.53613,4.48312,5.26692a7.21594,7.21594,0,0,0,1.143,1.1124,6.21953,6.21953,0,0,0-.85768-1.33912q-5.66477-6.92316-11.35555-13.87764C203.75208,382.28022,203.46427,382.04777,201.59454,381.24281Z"/><path class="cls-1" d="M264.63321,455.90322c-.189-.21745-.37756-.43446-.56811-.65412.04808.05734.10255.12086.16056.18878Q264.43043,455.67143,264.63321,455.90322Z"/><path class="cls-1" d="M267.99114,459.749c-.34228-.39388-.93464-1.07491-1.34749-1.54951-.689-.78688-1.3475-1.53892-2.01044-2.29625.59369.68367,1.18562,1.36514,1.80291,2.07571C267.54234,459.24042,268.59255,460.434,267.99114,459.749Z"/><path class="cls-1" d="M173.14721,345.452a5.694,5.694,0,0,0,.57031.52356l-.65345-.88833-.75932-.835C172.58109,344.651,172.8336,345.0422,173.14721,345.452Z"/></g></g></svg>