<svg xmlns="http://www.w3.org/2000/svg" viewBox="0 0 242.25733 414.03604"><defs><style>.cls-1{fill:#24373e;}</style></defs><g id="Слой_2" data-name="Слой 2"><g id="Слой_1-2" data-name="Слой 1"><path class="cls-1" d="M236.2357,383.6948c-4.33668-3.47128-8.94353-7.15869-14.0629-11.25631-12.13053-9.66623-24.15388-19.42464-36.22112-29.22143-14.70929-11.9294-29.45652-23.86409-44.05554-35.91434l-3.12261-2.58119-.78049-.64574-1.18187-.94391L134.2066,301.065a26.82728,26.82728,0,0,0-2.63478-1.838l-2.65727-1.737-.16673-.10895a1.21269,1.21269,0,0,0-.49754.202l-.66316.43622-1.32963.87378c-.88723.58134-1.776,1.15915-2.68153,1.80533l-2.71307,1.89223-.99375.67573-.84268.56282-3.37072,2.253-6.73924,4.51047L81.93531,328.616q-18.4482,12.34049-36.91449,24.69376L33.6699,360.92547,30.83509,362.834l-.35441.23907c-.06925.05646-.1643.14114-.1643.14114l-.18371.16585-.65037.61089a.59455.59455,0,0,1-.67.25186,1.22569,1.22569,0,0,1-.25009-.0547c-.14291-.112-.12-.17643-.1052-.22848a5.24341,5.24341,0,0,1,.76373-1.8168c.0472-.05337.09241-.10012.13607-.14114a.701.701,0,0,0,.12681-.37271l.22672-7.41541.42409-14.83169c.303-9.49994.70838-18.9968.8579-28.49453q.781-57.06846.58575-114.13691c-.00838-2.65794-.133-5.31411-.19539-7.972-.146-6.07673-.3339-12.15082-.41418-18.232q-.18-16.51528-.36036-33.03764l-.12945-23.94172c-.0741-7.591-.57142-15.17441-.29376-22.77816a19.09033,19.09033,0,0,0-.2137-3.36895c-.61354-4.06718-.43491-8.28433-.62589-12.43135-.20092-4.50958.00088-9.0443-.6217-13.5605a83.779,83.779,0,0,1-.79681-10.54486q-.0258-2.64051.14313-5.27485c.05844-.87731.12923-1.75373.21988-2.62839l.03462-.32772c.01191-.11247.024-.243.03639-.2148a1.0558,1.0558,0,0,1,.25428-.16805c.1868-.07543.12637-.18217.09439-.29861-.03352-.11424-.08182-.23819-.13387-.374l-.07939-.213-.07895-.30743q-.17268-.71058-.34206-1.51643c-.03595-.10233.03286-.03661.05558-.04543.0988.02206.3039.07146.3039.07146l.43976.12218.23443.07233a.4028.4028,0,0,1,.12085.049l.12218.13321.51342.5509.55443.57738a3.12647,3.12647,0,0,0,.34162.27435l1.08417.74806,2.16834,1.49658c3.43357,2.373,6.89692,4.697,10.355,7.03035,3.45629,2.33859,7.00145,5.06313,10.34946,6.90728,3.98227,2.20054,6.56015,4.89861,9.88941,7.22795,1.23347.86363,2.52672,1.64169,3.78886,2.46959,5.33947,3.50966,10.83641,6.887,15.99482,10.54221q11.19192,7.901,22.49675,15.544c3.14709,2.13393,6.367,4.59427,9.39827,6.378q1.699,1.00169,3.34293,2.0369l.43512.27876.6861.46754,1.364.936c.90421.6153,1.81106,1.27119,2.70028,1.85914l2.661,1.76564.66515.44549.33279.22407c.05558.01852.11071.116.16673.07013l.16761-.105,1.344-.83672a50.07592,50.07592,0,0,0,5.43408-3.61023c.76572-.57517,1.54334-1.18782,2.31677-1.80666l.53723-.434.32485-.27876.64574-.554c3.44262-2.93582,6.85877-5.876,10.34439-8.77966,3.47349-2.89921,7.08129-5.73711,10.28594-8.70733,3.2889-3.03682,7.15716-5.49936,10.576-8.48766,1.37991-1.2015,3.06969-2.47357,4.31176-3.612,4.8254-4.40284,10.2694-8.64249,15.5308-12.93947q4.83576-3.95316,9.65256-7.89045,5.25192-4.276,10.49281-8.5428,7.47792-6.01476,14.95828-12.03173c.49952-.41417.94633-.78512,1.41718-1.17547-.08071-.1632.215-.44284,2.03073-1.81371,2.521-1.95486,4.62669-3.58773,7.03916-5.45879,1.16776-.89936,1.93347-1.51951,2.15467-1.71006-1.13864.846-2.034,1.5107-3.71278,2.75762-4.79143,3.61376-9.55595,7.18781-14.34364,10.70232-3.35175,2.4621-6.72556,4.96743-9.95513,7.486-2.66764,2.08145-5.19083,3.96794-8.02167,6.02381-5.2883,3.8634-10.929,7.74577-15.75134,12.01849a20.51822,20.51822,0,0,1-4.11371,2.83614,14.74449,14.74449,0,0,0-3.21745,2.16216,51.8858,51.8858,0,0,1-5.22788,3.96485c-3.02227,2.05807-6.05931,4.27228-9.06018,6.59853-.81269.6303-1.74138,1.21738-2.66169,1.853-.2706-.689,3.36013-3.56876,3.37028-4.34109-1.92663.91876-4.06983,2.90538-6.0474,4.09409a47.55018,47.55018,0,0,0-7.007,4.81436c.25671.16012.80056.12615.63405.54871a14.2616,14.2616,0,0,1-2.23428,1.909c-2.13019,1.52393-4.35874,3.13563-6.423,4.42137-3.71344,2.302-7.21626,5.40365-10.97292,7.57772-.72183.40579-1.69242,1.516-2.65971,2.26053-.38351.30258-.827.63868-1.312.99551l-.37117.27126a2.53167,2.53167,0,0,1-.38175-.27214c-.25759-.202-.52378-.41109-.79615-.62457-.53878-.42784-1.10291-.87554-1.67874-1.3325q-.42277-.3394-.85261-.68455l-1.04315-.86142a94.15532,94.15532,0,0,1-7.15318-6.45386,43.67759,43.67759,0,0,0-9.01652-7.58919,32.18689,32.18689,0,0,1-6.00881-4.813,27.00568,27.00568,0,0,0-6.15833-4.4937,21.35321,21.35321,0,0,1-5.0896-3.02006c-.59171-.58355-1.95354-1.83048-3.01521-3.01036a24.30706,24.30706,0,0,0-3.89627-3.60361,74.262,74.262,0,0,1-10.65887-9.4823,21.65536,21.65536,0,0,0-5.055-4.20612c-3.262-1.7996-5.76378-4.761-9.01321-6.632-3.45695-1.97559-5.38953-4.83774-8.21905-7.23765-.86186-.73-1.692-1.56539-2.57655-2.17937-1.72-1.19311-3.38418-2.44048-5.01484-3.71961q-3.30909-2.62728-6.60008-5.24-3.89262-3.11025-7.783-6.21832l-3.95779-3.11048q-1.96071-1.43107-3.92758-2.867c-2.626-1.88517-5.27221-3.855-7.96213-5.87869L9.19756,1.37753,8.1747.60476,7.66239.21794,7.40612.0243c-.06087-.06792-.041.02382-.04676.06484L7.35451.2369,7.2771,2.61167c-.19782,6.35638-.32441,13.055-.04807,20.07347.06616,1.66507-.2265,3.34734-.30854,5.13326Q6.58208,35.99,6.24167,44.20181c-.16959,3.59038-.26751,7.19663-.249,10.82891.00794,1.51731.03926,3.05226-.03241,4.55589-.71742,15.12766-1.5204,30.23856-2.15886,45.37768q-1.03576,23.87578-1.77115,47.79523c-.51033,16.70584-.82989,33.43284-1.17437,50.15191C.77826,207.092.8528,211.3025.69225,215.45922c-.79,20.10566-.75358,40.28543-.61288,60.44535q.18162,25.107.59634,50.21719l.48871,25.10749.13652,6.27654.07961,3.13827.08028,5.04108.33323,25.1247.23443,14.73156.12792,7.31881.01632.91259.00419.228c.05359.12968.42873-.1407.42873-.1407l1.49966-1.082,2.99624-2.163,11.93448-8.635,2.96867-2.15246c.99353-.73528,1.96368-1.38852,2.9764-2.20231l6.009-4.68116L42.91,383.64893l1.48026-1.15518.53128-.42211.36565-.29861,1.46306-1.19577,2.92589-2.39064,11.68813-9.57978q22.44735-18.49617,44.87794-36.97822,11.10888-9.08534,22.22813-18.179a2.564,2.564,0,0,0,.61111-.48607l.29707-.32684a1.23556,1.23556,0,0,1,.33632.09484l.34691.161a2.11679,2.11679,0,0,1,.29618.31581l.29509.33919,1.49569,1.00919,12.07165,8.122q15.18776,10.18494,30.17592,20.58159c14.403,9.95116,29.02338,19.52344,43.58183,29.08513,7.48884,4.89994,14.15574,9.13385,19.67164,12.83141C243.5,389.046,244.55024,390.24393,236.2357,383.6948ZM185.21619,60.864a11.98518,11.98518,0,0,1,1.11681-.69735c-.20665.19275-.408.41065-.6206.57473-.80717.60869-1.60817,1.213-3.35043,2.52693C183.881,61.97858,184.52921,61.40474,185.21619,60.864ZM128.20794,99.3723l.41991.31361.20995.15879.105.07983c.03506.03529.07013.0569.10519.01191l.84268-.61133a1.20834,1.20834,0,0,1-.13761.2964l-.43535.3189-.21723.15747-.10872.07807-.10829-.08381-.86517-.67176C128.08289,99.4023,128.14972,99.32908,128.20794,99.3723ZM98.48854,76.77322a1.49937,1.49937,0,0,1,.99573.079,11.10831,11.10831,0,0,1,4.173,2.46739,76.95267,76.95267,0,0,0,5.6705,5.5792c.15548.14291.21811.42564.09329.38373a9.93422,9.93422,0,0,1-1.39359-.61706,11.23924,11.23924,0,0,1-1.00147-.7366,44.40012,44.40012,0,0,0-5.95455-4.66088C99.30365,78.14851,98.126,76.88746,98.48854,76.77322Zm-26.3048-22.39a1.32223,1.32223,0,0,1,.99441.075c1.49261,1.02374,2.96956,2.14276,5.66344,4.117.86716.7344,2.83724,2.38182,4.7352,4.04469a.81884.81884,0,0,1,.1751.80453c-.01323.06219-.55267-.165-.77563-.33743q-5.22678-4.07754-10.44892-8.15068C72.34583,54.79386,72.105,54.39821,72.18374,54.38322Z"/><path class="cls-1" d="M189.85677,53.93508a4.84031,4.84031,0,0,0,.95229-.88789,4.18651,4.18651,0,0,0-1.16092.58928q-5.96813,4.18671-11.96358,8.39284c-2.35889,1.67212-2.55649,1.90325-3.21657,3.511a133.59253,133.59253,0,0,1,10.85317-8.25919C186.8409,56.19075,188.36659,55.0541,189.85677,53.93508Z"/><path class="cls-1" d="M238.771,18.58928c-.18569.14071-.37094.281-.558.42256.04918-.03573.10387-.07631.16232-.12C238.50791,18.79086,238.63935,18.69029,238.771,18.58928Z"/><path class="cls-1" d="M242.08505,16.06455c-.33919.25715-.92516.70132-1.3336,1.011-.6786.51871-1.3272,1.01448-1.98044,1.51378.58994-.44637,1.1779-.89142,1.79122-1.35543C241.6475,16.40242,242.67477,15.61245,242.08505,16.06455Z"/><path class="cls-1" d="M144.03779,85.96088l-.76769.46931-.71786.57517c.34515-.195.68433-.36875,1.03808-.59678A3.77715,3.77715,0,0,0,144.03779,85.96088Z"/></g></g></svg>