<svg xmlns="http://www.w3.org/2000/svg" viewBox="0 0 155.19873 418.52055"><defs><style>.cls-1{fill:#24373e;}</style></defs><g id="Слой_2" data-name="Слой 2"><g id="Слой_1-2" data-name="Слой 1"><path class="cls-1" d="M155.14772,134.18945l-.10255-.07366-.20708-.146-.42366-.28714a38.53658,38.53658,0,0,1-4.959-4.01381c-.7591-.689-1.49482-1.37925-2.3247-2.06425a29.3445,29.3445,0,0,0-2.65287-1.96147,26.966,26.966,0,0,1-4.85274-4.11129,5.82628,5.82628,0,0,1-.417-.46093l-.33566-.40138-.67353-.80409a19.02033,19.02033,0,0,0-1.4496-1.55171,22.12086,22.12086,0,0,0-1.90766-1.79342c-5.24773-3.82194-9.56875-8.5503-14.53066-12.64042-4.9897-4.09762-9.33211-8.91287-14.76267-12.5447A16.18664,16.18664,0,0,1,103.7469,89.499,162.85918,162.85918,0,0,0,91.279,78.3366c-.92318-.72822-1.8715-1.44717-2.73667-2.231-8.70556-7.883-17.34761-15.825-26.10962-23.65193q-6.90331-6.18016-13.85449-12.31358l-.43468-.3833-.65831-.56149-1.64743-1.38675-3.31161-2.78541L35.83829,29.406l-6.76967-5.67315L25.64233,20.854,22.093,17.77613,7.0242,4.74051,3.21262,1.45007,2.25725.62569,1.77912.21328,1.54005.00686c-.08954-.0397-.0913.10586-.0913.10586L1.421,2.44735l-.107,9.39981L.867,50.22625Q.83687,55.1156.80654,60.02348q-.01587,1.61037-.032,3.21678C.7578,64.05008.73222,64.8577.69208,65.66311c-.79,15.5802-.75336,31.21774-.61266,46.84029q.36191,38.911,1.71205,77.82383c.57428,15.61152,1.5473,31.21245,2.48305,46.809q1.42578,22.51154,2.85069,45.00673Q8.47094,304.66108,9.818,327.19907c.60207,9.4351,1.08284,18.85168,1.51775,28.28016.62192,13.55786,1.67764,27.0747,2.70535,40.54832.54319,6.92228,1.12982,13.02548,1.45887,18.16492.39145,5.427.05778,6.63381.34382-1.565.15283-4.29742.41439-8.86964.62787-13.95.50658-12.0132,1.15144-24.00214,1.8007-36.03652.78159-14.66364,1.54466-29.35287,2.489-44.00372q1.64808-25.08059,3.299-50.20616.18691-2.86083.37381-5.72475c.62766.66558,1.25134,1.336,1.86091,2.02146,2.3214,2.60721,4.75637,5.08563,7.21075,7.5389,1.67962,1.67742,3.40424,3.30412,5.13768,4.91891q1.60011,1.49063,3.24214,2.93361c1.45843,1.28221,2.91575,2.56575,4.42666,3.788,1.22863.99331,2.5265,1.90766,3.78622,2.86568,1.21009.92141,2.3569,1.91825,3.62941,2.7638L69.06272,299.6458c.35728.23509.7505.42652,1.12409.64221.85459.49224,1.72307.96728,2.5523,1.49084q2.25214,1.42248,4.46194,2.89833l3.17444,2.17142a30.18092,30.18092,0,0,1,3.04984,2.03029,1.32527,1.32527,0,0,0,.4918.251,8.1973,8.1973,0,0,1,1.76983.981,10.89166,10.89166,0,0,0,1.90457,1.10137,5.30961,5.30961,0,0,1,2.74042,1.97427,2.042,2.042,0,0,0,.54164.44593l1.23877.79217,5.70226,3.68036,1.70477,1.078a12.42194,12.42194,0,0,0,1.70785,1.05418,8.4218,8.4218,0,0,1,1.57355,1.17194c.19937.13674.41858.24877.62677.37536.88238.53415,1.79872,1.03918,2.62508,1.6267,1.19466.84731,2.40057,1.67124,3.61662,2.4868.5068.34051,1.00742.752,1.51312,1.01889a14.41562,14.41562,0,0,1,2.09093,1.38234c.13982.1085.30169.20422.45453.30169q.91765.59017,1.83488,1.18033c.60384.40358,1.19621.83937,1.81217,1.18518.6281.35815,1.14438.88127,1.76343,1.26942.24833.1579.51276.36874.74719.50636.90686.535,1.78372,1.20634,2.6694,1.83885l1.62295,1.164,1.75329,1.27295,2.4643,1.83532c.08138.05867.15945.11468.23929.172.0269-.02426.08292.00971.36521.23951.40292.31758.73572.58,1.11879.88216.15306.11776.25892.19936.34735.26729-.17577-.14644-.32132-.26729-.56722-.472-.73947-.61178-1.47188-1.21782-2.20562-1.82474-.50834-.42917-1.02484-.85922-1.54134-1.26237-.427-.33257-.81578-.65324-1.24076-1.01757a24.30837,24.30837,0,0,0-2.47378-1.98132,2.273,2.273,0,0,1-.58818-.54164,1.63652,1.63652,0,0,0-.4488-.42917,5.66266,5.66266,0,0,1-.81643-.65942c-.42631-.40138-.8826-.79261-1.36139-1.16709-.12968-.101-.25142-.22892-.38264-.35066.13586-.11512.72668.333.87907.2673a9.67375,9.67375,0,0,0-.84246-.812,4.98749,4.98749,0,0,0-.98845-.93685c-.03154.06572-.02316.16982-.109.17643a1.49207,1.49207,0,0,1-.39124-.26288c-.31294-.27876-.64441-.56811-.90862-.857-.47217-.52136-1.10865-.92142-1.55391-1.46615a4.057,4.057,0,0,0-.56128-.427,13.09154,13.09154,0,0,1-2.20076-2.26053,4.143,4.143,0,0,0-1.31022-1.36778,2.93889,2.93889,0,0,1-.88767-.85746,2.42336,2.42336,0,0,0-.94192-.77453,1.97353,1.97353,0,0,1-.83187-.47151,6.0414,6.0414,0,0,1-.39852-.57605,2.24012,2.24012,0,0,0-.53525-.67705,6.38677,6.38677,0,0,1-1.48444-1.77093,1.8616,1.8616,0,0,0-.72492-.771c-.548-.2642-.8268-.87421-1.36513-1.15783-.57561-.29684-.73749-.91788-1.13512-1.36646a3.09368,3.09368,0,0,0-.36234-.40711,38.55848,38.55848,0,0,1-2.815-2.82731,25.14722,25.14722,0,0,0-2.86393-2.80791c-.1343-.08821-.20862-.29464-.32308-.43622a20.97715,20.97715,0,0,0-2.35029-2.56884,5.90721,5.90721,0,0,1-.53326-.49842c-1.623-1.83356-3.206-3.71079-4.80731-5.57346L83.4304,293.349l-5.36483-6.097c-.44527-.51077-.943-.96552-1.35742-1.50716A84.37716,84.37716,0,0,0,70.23,278.411c-3.7366-3.88237-7.49635-7.73871-11.36085-11.46538-2.32493-2.24421-4.84789-4.2467-7.34925-6.27346-2.40454-1.95353-4.91383-3.77518-7.3499-5.69079-2.43652-1.916-4.78173-3.949-7.24979-5.82708a23.6675,23.6675,0,0,1-4.21935-4.0566,19.157,19.157,0,0,0-6.47172-5.30749c-.09284-.04631-.19341-.07851-.29089-.11644q.11181-1.71227.22363-3.42365,2.91972-2.48306,5.85112-4.92552c2.4782-2.06028,4.96852-4.15849,7.33248-6.27654,1.95244-1.75108,3.81312-3.33147,5.91-5.05035A129.4092,129.4092,0,0,0,56.8292,209.90845a12.36592,12.36592,0,0,1,3.07233-2.35933,8.905,8.905,0,0,0,2.41226-1.79386,31.17879,31.17879,0,0,1,3.84509-3.327c2.26141-1.71006,4.51-3.56127,6.7088-5.51657.59568-.53018,1.2981-1.014,1.98507-1.54289.346.64265-2.30353,3.06814-2.18532,3.77122,1.50628-.73175,3.02337-2.42461,4.529-3.39939a28.67983,28.67983,0,0,0,5.236-4.00323c-.24722-.16011-.70947-.15923-.63581-.53547a8.6487,8.6487,0,0,1,1.608-1.617c1.58192-1.27207,3.2342-2.61868,4.79827-3.67727,2.81672-1.89487,5.31741-4.5281,8.19523-6.30521a25.21355,25.21355,0,0,0,2.52341-2.30419,84.87214,84.87214,0,0,1,12.34247-8.94065,26.40716,26.40716,0,0,0,7.41342-5.35161,19.39989,19.39989,0,0,1,4.72769-3.6433,16.2736,16.2736,0,0,0,4.46261-3.8709,13.0153,13.0153,0,0,1,3.08336-3.41748c.56083-.32419,1.76828-1.10093,2.89082-1.64125a14.79751,14.79751,0,0,0,3.48584-2.21112q.707-.59546,1.398-1.17724.80486-.64574,1.59251-1.27869c1.06543-.835,2.14188-1.639,3.245-2.43034q.8452-.59412,1.67565-1.17812l.85371-.58531.78137-.58972q1.64247-1.20414,3.23884-2.37476c1.05-.75689,2.12908-1.59053,3.10629-2.44181.48827-.4252.95074-.85393,1.36822-1.2756.20863-.21084.40624-.41991.58994-.62589C155.222,134.23841,155.18918,134.21371,155.14772,134.18945ZM121.87587,333.86376a1.36676,1.36676,0,0,1,.14666.15173,1.137,1.137,0,0,1-.11754-.06881c-.12571-.10145-.2512-.202-.52334-.42035C121.64673,333.705,121.76428,333.77907,121.87587,333.86376Zm-8.24066-7.52038.26266.2245c-.05006.01544-.31382-.21568-.31382-.21568C113.60147,326.34867,113.626,326.33544,113.63521,326.34338Zm-4.54178-3.91678a.28525.28525,0,0,1,.20135-.03043,1.0503,1.0503,0,0,1,.68456.38241,7.107,7.107,0,0,0,.77122,1.04447c-.08094.07234-.16607.04411-.25075.00618a1.01192,1.01192,0,0,1-.15438-.12571,4.055,4.055,0,0,0-.89759-.81158C109.16224,322.7133,109.00963,322.472,109.09343,322.4266Zm-3.7968-4.0588c.06021-.02735.15791-.0741.20687-.03837.23421.17113.45695.36653.8687.707.12372.135.40292.43932.67816.73881.03727.04234-.00133.13585-.02691.18834-.00772.01588-.10387-.01058-.1374-.041l-1.56185-1.43615C105.29707,318.46131,105.27855,318.37618,105.29663,318.3678ZM30.10317,60.28063l.12108.049c.03572.03176.05337.112.08226.16761l.16651.38462.11931.3017a2.39756,2.39756,0,0,0,.38131.36036l-.29288-.02029a1.368,1.368,0,0,1-.32926-.07719,1.438,1.438,0,0,1-.17886-.07146,3.96972,3.96972,0,0,1-.43358-1.123C29.79309,60.1611,29.955,60.23829,30.10317,60.28063ZM57.39532,207.37049a7.27912,7.27912,0,0,1-.846.57472,5.664,5.664,0,0,1,.43932-.49c.59413-.51032,1.18385-1.01712,2.46651-2.11938C58.36062,206.42834,57.89727,206.91529,57.39532,207.37049Zm42.66483-33.158-1.291,1.067c-.0011-.0741-.03264-.187.00133-.21568l1.31882-1.07006C100.0811,174.0682,100.10426,174.17494,100.06015,174.21244Zm22.26849-17.63916a6.80343,6.80343,0,0,1-2.52054,2.80438,47.04374,47.04374,0,0,0-5.36527,3.11268c-.13784.08866-.38992.05382-.3425-.04013a6.28314,6.28314,0,0,1,.66162-1.00169,6.76825,6.76825,0,0,1,.73064-.62766,26.71878,26.71878,0,0,0,4.59008-3.64418c1.13247-1.16489,2.336-1.77931,2.40322-1.43263A1.18671,1.18671,0,0,1,122.32864,156.57328Zm8.86788-20.80521a3.8101,3.8101,0,0,0-.85437.56766.57129.57129,0,0,0-.08866.22319l-.02823.12262a.44907.44907,0,0,1-.12659.07763c-.20532.10189-.41108.22054-.62986.35507l-.33808.213a1.461,1.461,0,0,0-.273.22362l-.65743.6603c-1.75483,1.75725-3.52642,3.48672-5.34564,5.128q-7.87821,7.11966-15.54227,14.41576c-2.13879,2.0294-4.56869,4.0191-6.39211,6.05865A90.76921,90.76921,0,0,1,92.2244,172.228c-.64927.558-1.27141,1.21561-1.88914,1.83488-2.47842,2.4868-4.93368,4.97933-7.45466,7.43437-2.51128,2.45152-5.14827,4.84-7.41651,7.3713-2.32978,2.58692-5.25258,4.61941-7.70211,7.15517-.98934,1.01933-2.23384,2.08586-3.11511,3.05535-3.42718,3.74784-7.41232,7.314-11.23294,10.94006q-3.5112,3.33588-7.00851,6.659-3.81322,3.61044-7.6183,7.21383-5.44379,5.07195-10.88912,10.1448c-.36124.35021-.685.66382-1.02595.99375.07366.11732-.03572.288-.68764.8751q.06021-.92362.12064-1.84636.65962-10.57726,1.31992-21.162c.54672-9.4051,1.13953-18.80889,1.59406-28.22238.393-7.654.60847-15.32217.91524-22.98238.30324-7.36159.70859-14.72054.85812-22.08081l.32176-22.11169.19341-22.11125L31.59115,73.277l-.00044-11.05563c-.00044-.05734-.00044-.12129-.00022-.187l1.68911,1.33911,7.2822,5.74681c4.6397,3.61684,9.53919,6.89978,13.967,10.79715a11.49752,11.49752,0,0,0,2.17209,1.46394c2.84407,1.49,5.28433,3.67065,7.91316,5.52935,2.85421,2.02631,5.47245,4.37858,8.594,6.07894a45.28526,45.28526,0,0,1,12.81509,10.11348,17.29465,17.29465,0,0,0,2.59332,2.19657c1.88186,1.42071,3.80011,2.79467,5.70049,4.192l26.39279,19.2685c2.61626,1.90369,5.26493,3.76063,7.90787,5.62595l.324.22848.135.10982c.08887.075.17488.15218.2706.22275a1.36391,1.36391,0,0,0,.344.19054,5.27341,5.27341,0,0,0,.65279.13277,2.06549,2.06549,0,0,1,.69889.21833.955.955,0,0,1,.18658.13409C131.31429,135.71073,131.22541,135.74248,131.19652,135.76807Zm14.96071,3.43026c-.59524.59766-1.20812,1.20282-1.99919,1.93192-.85172.72822-1.85076,1.58215-3.13562,2.68132-.46909.35065-1.23392.92317-2.14144,1.602-.88061.65368-2.02764,1.51246-2.73821,1.98221-.22385.15261-.54231,0-.717-.10189-.05271-.03132.19319-.42255.36322-.55929l4.75571-3.84355,2.47908-1.99544c.805-.66868,1.56075-1.34308,2.34852-2.01793a1.74033,1.74033,0,0,1,.70771-.329C146.20288,138.69727,146.40577,138.94647,146.15723,139.19833Z"/><path class="cls-1" d="M54.54331,213.4309c-.29949.25671-.74013.756-.67286.75777a2.60972,2.60972,0,0,0,.90156-.47372q4.4454-3.4887,8.91088-6.99373c1.75417-1.39469,1.886-1.59406,2.18951-3.02315a80.32484,80.32484,0,0,1-7.97822,6.932C56.76612,211.54044,55.64071,212.49273,54.54331,213.4309Z"/><path class="cls-1" d="M89.27469,186.37031l.52312-.48518c-.26509.15879-.5282.29861-.79483.487a2.33554,2.33554,0,0,0-.3114.38374Z"/><path class="cls-1" d="M121.57638,332.53744c-.344-.30964-.39013-.32861-.70859-.318a14.603,14.603,0,0,1,1.69617,1.37219c.2287.19319.4607.389.68874.58178.06285.05161.18128.12218.17974.10763a.50234.50234,0,0,0-.12571-.17026Z"/><path class="cls-1" d="M131.07412,340.906c-.05778-.04719-.14776-.12041-.20775-.16893-.10365-.08337-.20466-.165-.30655-.247.09086.07411.18106.14777.27457.22363C131.00487,340.85088,131.16674,340.98055,131.07412,340.906Z"/><path class="cls-1" d="M130.55982,340.49007l-.09086-.07366C130.51571,340.45479,130.538,340.47243,130.55982,340.49007Z"/><path class="cls-1" d="M116.57279,328.0702c.09153.04675-.00441-.0622-.00441-.0622l-.11777-.08821C116.49053,327.97007,116.526,328.02124,116.57279,328.0702Z"/></g></g></svg>