<svg xmlns="http://www.w3.org/2000/svg" viewBox="0 0 161.71875 383.63375"><defs><style>.cls-1{fill:#24373e;}</style></defs><g id="Слой_2" data-name="Слой 2"><g id="Слой_1-2" data-name="Слой 1"><path class="cls-1" d="M161.70057,240.92077l-.09792-.08337-.19628-.16672-.39124-.33346-1.56582-1.33514-3.13342-2.68043-6.307-5.40453-6.47811-5.49981L137.881,220.67Q111.8219,198.67783,85.15058,177.4461c-1.24164-.98934-2.55561-1.88782-3.83121-2.83526-2.91861-2.163-5.86237-4.293-8.74173-6.509L56.982,156.00308l-11.21926-8.87052c-1.78725-1.39513-3.64331-2.70293-5.47113-4.04778-.91436-.67264-1.82122-1.35411-2.70911-2.05983q-.66624-.52929-1.31617-1.07844l-.64706-.55355-.32023-.28141c.0053-.07454-.07542-.01852-.21877.07013a.77273.77273,0,0,1-.56767.15c-.11159-.01808-.20334-.08557-.40094-.12085a2.02709,2.02709,0,0,1-.47372-.18349c-.24215-.05205-.20819-.15218-.50062-.27171-.41109-.17863-.51342-.54473-.21789-.74895a2.91283,2.91283,0,0,1,1.898.19761,1.90554,1.90554,0,0,0,.18481.07321,6.05764,6.05764,0,0,0,1.11592-1.01095c1.23458-1.3347,2.42638-2.71042,3.63978-4.0663l16.72833-18.85609c1.65272-1.87017,3.26266-3.77871,4.881-5.68064a52.8714,52.8714,0,0,0,4.78-5.71461c1.46438-2.34168,3.45717-3.45982,5.08254-5.26427.603-.66867,1.13048-1.40968,1.70168-2.111,2.422-2.96493,4.72174-6.09173,7.27911-8.87317,3.68168-4.03057,7.27691-8.11407,10.82494-12.25712,1.48114-1.72726,3.22384-3.40777,4.42754-5.15664a54.24018,54.24018,0,0,1,5.99029-7.1684c.46048-.4724.87862-1.03522,1.29985-1.56319,1.69066-2.12246,3.3597-4.25022,5.09357-6.34226,1.72594-2.08939,3.57318-4.11834,5.072-6.288,1.54157-2.2173,3.70638-3.91677,5.36219-6.08423.67-.87069,1.55348-1.774,2.13834-2.60457,2.27861-3.20972,5.079-6.2364,7.72461-9.32307q2.43012-2.839,4.851-5.66785,2.64184-3.07321,5.27839-6.13981,3.7871-4.31241,7.57551-8.627c.25759-.29067.47107-.56635.70661-.84687-.11336-.13983.02338-.34493.97125-1.31839,1.3003-1.39513,2.38535-2.55913,3.62964-3.89383.60427-.64133.99022-1.0855,1.09784-1.22311-.5981.5981-1.07226,1.0727-1.95221,1.95309-2.50312,2.56707-4.99786,5.10371-7.52921,7.58963-1.77181,1.74182-3.54626,3.51672-5.20692,5.315-1.37132,1.486-2.695,2.82423-4.19819,4.27626a76.93841,76.93841,0,0,0-8.1842,8.55118,7.39231,7.39231,0,0,1-2.23318,1.98573,5.34759,5.34759,0,0,0-1.76431,1.50716,18.55881,18.55881,0,0,1-2.72366,2.81894,65.22051,65.22051,0,0,0-4.80687,4.66131c-.419.4499-.94038.85437-1.43924,1.29942-.42431-.58576,1.42733-2.64691,1.19047-3.2781-1.17591.59458-2.178,2.04572-3.3072,2.85731a17.12462,17.12462,0,0,0-3.80915,3.36851c.24656.15217.64971.16893.65676.50151a5.19836,5.19836,0,0,1-1.09608,1.38013,45.73543,45.73543,0,0,1-3.48892,3.0946c-2.09821,1.58127-3.78048,3.833-5.95456,5.3075A14.99431,14.99431,0,0,0,94.643,57.34316a50.79639,50.79639,0,0,1-9.07342,7.49789,15.8718,15.8718,0,0,0-5.45349,4.48753,11.59889,11.59889,0,0,1-3.43379,3.06682,9.73018,9.73018,0,0,0-3.159,3.28029A7.94078,7.94078,0,0,1,71.48156,78.604a24.78642,24.78642,0,0,1-2.21112,1.35279,9.00794,9.00794,0,0,0-2.62265,1.838A27.16484,27.16484,0,0,1,59.78241,86.94a7.86535,7.86535,0,0,0-3.01786,2.5309c-1.19708,1.91914-3.41174,2.89656-4.66881,4.78394-1.32456,2.01264-3.507,2.58824-5.23339,3.99043a13.25247,13.25247,0,0,0-1.56715,1.27913c-3.31735,3.75093-7.46216,6.50855-11.02475,9.95557-3.56876,3.46952-7.79032,6.22759-10.93521,10.177a9.77575,9.77575,0,0,1-1.60685,1.17812l-1.26413.9986-.62986.50283c-.22539.18393-.35948.27655-.7538.63339q-2.02389,1.79232-4.06542,3.6583a86.46673,86.46673,0,0,0-7.72372,7.68138c-.95714,1.09431-1.88913,2.19436-2.93493,3.2675L.37624,141.66363l-.251.25759L0,142.05c.01632.12041.52444.573.52444.573l1.01933.90773,2.051,1.82783,8.41709,7.49083,4.357,3.86517,2.20848,1.9553.55488.49136.31272.29552.61707.584,4.96477,4.64455q10.45752,9.75357,21.12368,19.28879c7.45157,6.65719,15.03282,13.17368,22.59467,19.70649,1.89619,1.62714,3.90177,3.14665,5.73489,4.82937,8.85774,8.14891,18.26858,15.68209,27.73544,23.1266,3.91942,3.10387,7.88251,6.15349,11.83016,9.22251l2.96492,2.29669,1.48688,1.14284.67264.51473-.13144.14379-1.26369,1.38675-2.52561,2.77527c-8.081,8.93624-15.87352,18.14772-23.68987,27.33052q-11.22963,13.30711-22.45,26.60451L46.521,329.57439c-4.70321,5.58052-9.48185,11.06533-14.30019,16.52411-6.93463,7.84325-13.53537,15.97408-20.1286,24.06566-3.37822,4.166-6.281,7.91471-8.84186,10.9555-2.67337,3.24148-3.56611,3.6658,1.09432-.61266,2.4449-2.24067,5.11651-4.55457,8.02983-7.18031C19.261,367.11543,26.249,361.0312,33.2445,354.90462c8.52648-7.46127,17.05385-14.95034,25.68927-22.29032q14.80436-12.54294,29.636-25.10837,10.13466-8.59508,20.27945-17.199l12.4415-10.63351c5.50112-4.7535,11.03445-9.47436,16.4747-14.29754l.82967-.73484.41462-.3683.22054-.198.40491-.38462,3.24545-3.08666,6.50987-6.2192c.52577-.52092,1.12784-1.03962,1.59141-1.56318l1.41895-1.57112,2.84275-3.1493,5.72078-6.32506.69205-.76263C161.66617,240.98252,161.75659,240.94679,161.70057,240.92077ZM125.1718,32.12187a4.37116,4.37116,0,0,1,.62942-.47945,3.4654,3.4654,0,0,1-.29023.41947c-.42167.4327-.84025.86186-1.7502,1.79519C124.50886,32.92552,124.82026,32.5087,125.1718,32.12187ZM94.2359,60.05006l.92406-.902c.015.06616.064.16849.0397.19231l-.94744.90332C94.24517,60.17753,94.20459,60.08182,94.2359,60.05006ZM78.15243,74.92321a4.17227,4.17227,0,0,1,1.66684-2.40343,28.89744,28.89744,0,0,0,4.09144-2.56972c.10365-.07366.33036-.03308.30655.049a4.07131,4.07131,0,0,1-.38683.86716,4.01443,4.01443,0,0,1-.51871.53194,15.91746,15.91746,0,0,0-3.31338,3.073c-.767.99507-1.70079,1.497-1.82562,1.18518A1.02136,1.02136,0,0,1,78.15243,74.92321ZM62.03455,87.93634c.71234-.81511,1.50408-1.5892,2.89259-3.02182.52842-.43,1.711-1.41366,2.91244-2.33772.16629-.12791.47328.02029.6453.11821.052.02955-.08822.36874-.21084.48431L62.48269,88.5812c-.10145.09351-.40535.15305-.42432.08822C61.9953,88.45549,61.88547,88.107,62.03455,87.93634Z"/><path class="cls-1" d="M124.11674,29.19753c.81159-.76836,1.61258-1.57421,2.39241-2.369.21216-.21746.50195-.6453.44284-.64971a1.65191,1.65191,0,0,0-.6969.38815q-3.21678,2.94023-6.44812,5.89368c-1.2659,1.17636-1.34308,1.34926-1.336,2.61163A47.77177,47.77177,0,0,1,124.11674,29.19753Z"/><path class="cls-1" d="M154.27237.09387c-.17775.18393-.48254.4993-.69514.71851-.35242.37007-.68808.72161-1.02771,1.07756.30832-.318.61354-.63251.93421-.96332C154.0461.3347,154.578-.22812,154.27237.09387Z"/><path class="cls-1" d="M152.54952,1.88994c-.09615.09924-.19407.20069-.29111.30037.026-.02514.05425-.05293.08557-.08469C152.41235,2.03417,152.4816,1.96139,152.54952,1.88994Z"/><path class="cls-1" d="M101.77393,49.30319l-.43579.32111-.36389.4124c.2007-.13144.404-.24612.60119-.40358A1.43347,1.43347,0,0,0,101.77393,49.30319Z"/></g></g></svg>