<svg xmlns="http://www.w3.org/2000/svg" viewBox="0 0 275.65274 415.23436"><defs><style>.cls-1{fill:#24373e;}</style></defs><g id="Слой_2" data-name="Слой 2"><g id="Слой_1-2" data-name="Слой 1"><path class="cls-1" d="M138.071,385.9619c-.00341.77806-.00683,1.56936-.01025,2.34477a2.9172,2.9172,0,0,0,.04.53856,2.49881,2.49881,0,0,0,.0634-.53371q.06617-3.03219.13266-6.07761a3.4698,3.4698,0,0,0-.26-1.9456C138.12382,382.74027,138.11467,382.77467,138.071,385.9619Z"/><path class="cls-1" d="M137.827,415.14407c-.00088-.17952-.00221-.4843-.0032-.696l-.00739-1.018c.00144.30214.00276.60163.00419.91524C137.82488,414.91427,137.82929,415.45327,137.827,415.14407Z"/><path class="cls-1" d="M137.81639,413.43l-.00143-.31052C137.81529,413.27875,137.81584,413.35506,137.81639,413.43Z"/><path class="cls-1" d="M138.60041,364.79985a2.03317,2.03317,0,0,0,.02834.26068l.0279-.37271-.00883-.38242C138.63106,364.469,138.61022,364.62563,138.60041,364.79985Z"/><path class="cls-1" d="M273.51276,168.962c-1.51985-1.834-3.06461-3.8537-4.83719-6.04454-4.18837-5.18355-8.26691-10.45266-12.366-15.73678-4.9962-6.4371-10.01567-12.872-14.88859-19.41538q-8.31934-11.22367-16.65324-22.4672-5.7028-7.682-11.41113-15.37157l-7.07082-9.42187c-3.17157-4.15981-6.309-8.35049-9.55055-12.45075-2.6189-3.34955-5.37222-6.58309-8.05607-9.87618-2.57314-3.17047-5.071-6.40975-7.75537-9.47436l-7.77036-8.69012-7.853-8.6125L161.33766,27.129l-6.9224-7.38585-4.13951-4.40725c-.34515-.382-.68886-.70132-1.0351-1.13446L148.20213,12.909l-2.07627-2.58383L137.82808,0,134.5426,4.11305C132.92,6.1451,131.323,8.32535,129.72911,10.402l-2.72454,3.56126-.67738.87951-.67408.76-1.34485,1.5151c-1.79121,2.01485-3.5724,4.00543-5.368,5.96426l-2.43718,2.65529-.82371.90994-.58873.66118-2.363,2.63765-4.74082,5.2625L101.04029,42.763c-2.17849,2.418-4.04689,5.124-6.48495,7.30469a3.6285,3.6285,0,0,0-.83518,1.19709c-.74973,1.68933-2.11994,2.882-3.20058,4.30624-1.1801,1.54378-2.66036,2.81982-3.53568,4.65514a14.11664,14.11664,0,0,1-6.11665,6.64352,5.33554,5.33554,0,0,0-1.35863,1.30162c-.84632.99375-1.64908,2.02808-2.47368,3.04256q-5.69636,7.03829-11.34067,14.126c-1.11934,1.40219-2.19547,2.84142-3.27964,4.27449a27.57111,27.57111,0,0,0-3.18723,4.31506c-.87918,1.82695-2.41523,2.54635-3.52167,3.89561-.41065.4993-.74421,1.06961-1.12222,1.60111-1.60332,2.246-3.07475,4.64455-4.82473,6.71806-2.5158,3.00639-4.948,6.06924-7.32984,9.18766a35.68747,35.68747,0,0,0-2.9743,3.88061,28.27184,28.27184,0,0,1-3.99275,5.41379,10.92071,10.92071,0,0,0-.86528,1.18165c-1.11064,1.61258-2.20164,3.23266-3.3544,4.81436a50.113,50.113,0,0,0-3.34481,4.77026c-.96651,1.71139-2.55549,2.90715-3.62864,4.56208-.43523.6647-1.04932,1.33161-1.41773,1.97162a70.59843,70.59843,0,0,1-5.1357,7.04886q-1.63121,2.13769-3.25625,4.26744-1.77661,2.31036-3.5498,4.61676-2.559,3.23664-5.1186,6.475c-.17456.21745-.31372.4274-.47063.63956.12063.13277.03639.29155-.62192,1.011-.91326,1.01757-1.62163,1.91957-2.493,2.89656-.41671.47681-.67716.81159-.74707.91568.41858-.44152.75137-.79218,1.36458-1.43836,1.73851-1.89619,3.475-3.76768,5.25148-5.59154,1.24307-1.27781,2.48294-2.58472,3.62081-3.92383.93938-1.10711,1.86234-2.09292,2.92137-3.15548a39.702,39.702,0,0,0,5.6587-6.33564,3.8603,3.8603,0,0,1,1.60123-1.43174,2.81506,2.81506,0,0,0,1.27526-1.07888,9.584,9.584,0,0,1,1.88771-2.08542,33.58313,33.58313,0,0,0,3.38307-3.41262,11.3738,11.3738,0,0,1,1.02881-.9395c.46236.55047-.79725,2.0916-.48927,2.65882.91712-.36918,1.54378-1.49,2.3848-2.04969a8.90468,8.90468,0,0,0,2.73425-2.42637c-.23752-.15879-.58829-.221-.64916-.50591-.03065-.14424.41086-.749.7194-1.04889a23.69323,23.69323,0,0,1,2.503-2.23053c1.55116-1.1027,2.63312-2.82687,4.2671-3.829.41549-.251.78622-.97081,1.20138-1.4635a26.59076,26.59076,0,0,1,6.59919-5.33087,8.381,8.381,0,0,0,3.9696-3.18811,6.05682,6.05682,0,0,1,2.45989-2.21333,5.07649,5.07649,0,0,0,2.18775-2.42814c.32022-.65323.223-1.35014,1.28122-2.2592a13.75259,13.75259,0,0,1,1.68613-.89406,4.86968,4.86968,0,0,0,1.96137-1.25972,14.48928,14.48928,0,0,1,5.08033-3.58244,4.15553,4.15553,0,0,0,2.18863-1.80489c.71808-1.49746,2.46894-2.07042,3.24369-3.53392.813-1.56186,2.60159-1.79563,3.86142-2.78894a6.93618,6.93618,0,0,0,1.14228-.90729c2.2473-2.81144,5.37112-4.67631,7.87975-7.19928,2.51029-2.541,5.70083-4.39755,7.76618-7.39909.24513-.35639.80563-.524,1.19355-.81555a50.47874,50.47874,0,0,0,7.016-6.08732,15.87954,15.87954,0,0,1,1.3636-1.39866c4.97062-4.22509,9.99847-8.38622,14.91516-12.66909q5.61879-4.86751,11.11859-9.86162c-.03606.46225-.08248.92318-.1149,1.38543-.55234,7.87236-.8665,15.75884-1.44387,23.62414-.65511,8.97682-1.09564,17.96688-1.4968,26.95429-.27336,6.14818-.46136,12.30122-.6314,18.45338q-.15681,5.67867-.23432,11.36129c-.06936,5.049-.14082,10.0976-.1106,15.15148.02481,4.10908.18128,8.22611.265,12.33872.07984,3.95206.03617,7.9028.2383,11.85441l2.5148,47.48383c.059,1.10578.18879,2.21068.27965,3.31647.20852,2.52826.44493,5.05519.60273,7.58522q.42923,6.87089.77321,13.74443l.44527,9.96043c.14974,3.15812.51683,6.31315.481,9.47656a6.7288,6.7288,0,0,0,.151,1.40131,42.41989,42.41989,0,0,1,.46887,5.17208c.15658,1.87591.11622,3.7624.46071,5.64139a28.0082,28.0082,0,0,1,.28813,8.76422,10.96681,10.96681,0,0,0,.00353,1.82386l.22671,3.79592,1.01062,17.52668.32375,5.20208c.10686,1.73432.11612,3.59434.34912,5.16943a45.30423,45.30423,0,0,1,.12868,5.09578c.02746.62633.09472,1.2509.13927,1.87811.19033,2.65353.43568,5.3269.53018,7.95617.13861,3.79856.30809,7.58081.49467,11.36923.07664,1.57994.08027,3.26574.22737,4.72042.2179,2.17583.30347,4.28419.339,6.48164.00739.4596.04455.943.07289,1.41057.10972,1.87811.219,3.74916.329,5.63345.0934,1.87943.14688,3.78842.306,5.59551.15714,1.85209.06572,3.7549.18647,5.63787.04653.75909.05436,1.639.10939,2.33639.20885,2.70425.263,5.57434.36179,8.39724q.088,2.59618.17555,5.18179.08749,2.81451.175,5.62374.1004,3.98957.201,7.98087c.00893.26818.017.51077.02536.76483.04488.01368.057.18173.06142,1.12828.01588,1.32809.02911,2.43519.04422,3.70506.01036.58663.01709.969.02007,1.13974.00044-.5884.00088-1.0577.00132-1.91957-.00165-2.49694-.00331-4.974-.005-7.44584.00684-1.72991.0086-3.47834-.016-5.18179-.02073-1.407-.02261-2.71792-.01169-4.17348.01478-2.7241.08932-5.57126-.06826-8.242a12.19631,12.19631,0,0,1,.05161-2.077,8.74083,8.74083,0,0,0,.05458-1.61082c-.05226-.91612-.0462-1.77225-.0172-2.72983.04576-1.52.05811-3.08358.03584-4.66264-.00607-.42784.01963-.88348.032-1.34881.21943.08115.25968,2.00822.44471,2.20362.12836-.87157.0365-2.08012.109-3.0355a26.78981,26.78981,0,0,0,.11226-3.53392c-.08855.04588-.18228.23554-.25693.075a7.86784,7.86784,0,0,1-.05911-1.22c.018-1.08946.032-2.23317.099-3.24148.12483-1.81151.00122-3.7496.17-5.54523.04411-.45387-.02691-1.209-.03716-1.83356a69.71869,69.71869,0,0,1,.41814-8.15907,21.88185,21.88185,0,0,0,.26983-4.8942,15.65166,15.65166,0,0,1,.11656-3.20091,12.94257,12.94257,0,0,0-.00717-3.17135,10.14684,10.14684,0,0,1-.21018-2.44886c.04389-.34228.11667-1.10667.23631-1.75417a11.41512,11.41512,0,0,0,.22374-2.19525,33.07715,33.07715,0,0,1,.519-5.91265,9.75554,9.75554,0,0,0,.16309-2.732c-.18305-1.53539.18095-3.10607.02415-4.65514a23.45847,23.45847,0,0,1,.40843-4.54134c.03364-.46886.11094-.95317.10233-1.40086-.07355-3.48187.375-6.87906.47339-10.33093.08546-3.466.596-6.90155.41517-10.39621a10.37292,10.37292,0,0,1,.16165-1.37088c.2856-2.96977.54958-5.94838.595-8.97064.00937-.63119.00771-1.26987.05425-1.89532q.76218-9.43995,1.52425-18.87814.80271-9.93353,1.60674-19.88424.7913-10.42577,1.58347-20.86476c.136-1.73918.17588-3.4907.36632-5.22016.92725-8.36461,1.4346-16.76009,1.8845-25.14675.75226-13.927,1.4613-27.85717,1.96159-41.78157.30335-8.38137.216-16.757.16937-25.13-.04-8.05761-.29078-16.10508-.39212-24.16314-.10155-8.05938-.01786-16.12978-.18095-24.18872-.08325-4.06057-.00231-8.11452.28814-12.17023Q164.787,75.91286,178.9262,89.1463c6.34237,5.8884,12.971,11.49891,19.57064,17.13324q9.58038,8.08034,19.154,16.15537c6.36178,5.41424,12.66325,10.90081,19.05767,16.28372,4.019,3.384,7.94216,6.84333,11.83666,10.33932,5.5986,5.02785,11.48215,9.75665,17.3562,14.46119,3.02238,2.41269,5.76523,4.46635,7.95518,6.30874C276.20069,171.743,276.41605,172.45758,273.51276,168.962Zm-253.59567-21.522a2.31567,2.31567,0,0,1-.46424.33522,1.85614,1.85614,0,0,1,.18162-.32419c.29287-.31934.58343-.63648,1.2155-1.32632C20.35772,146.83227,20.157,147.15117,19.91709,147.44007Zm21.46308-19.53358c-.02393-.05867-.08292-.15129-.06594-.16894.21668-.22627.44438-.44152.66955-.65941.017.05734.06771.14379.04588.16717C41.82,127.47158,41.59828,127.68727,41.38017,127.90649Zm11.0436-9.60669a15.9783,15.9783,0,0,0-3.10883,1.71139c-.07729.05072-.27953-.011-.27258-.07807a2.47252,2.47252,0,0,1,.19154-.69514,2.0661,2.0661,0,0,1,.36014-.39256,8.26515,8.26515,0,0,0,2.355-2.23318c.49864-.7591,1.2219-1.07711,1.38069-.79615a.96293.96293,0,0,1,.13784.6281C53.35467,117.11066,53.10359,118.04618,52.42377,118.2998Zm12.817-11.064c-.48077.61222-1.03675,1.17944-2.00007,2.23891-.38539.30479-1.24461,1.00522-2.12963,1.65228-.1224.08954-.41175-.07322-.57605-.17731-.04973-.03132.01555-.30435.10222-.38859l4.11129-3.92868c.072-.06793.32452-.08293.35165-.02559C65.18968,106.79737,65.34141,107.10745,65.24073,107.2358Zm71.99,278.34677c-.00937-.11688-.02558-.23818-.02724-.34977-.00319-.42079-.00639-.83805-.01334-1.74579.03727.82746.05348,1.1865.0698,1.54951C137.26383,385.21383,137.241,385.40041,137.23075,385.58257Zm.67959-28.6317a6.34161,6.34161,0,0,1-.04278-.98669A7.0959,7.0959,0,0,1,137.91034,356.95087Zm.51794-14.137c-.18592,1.02154-.28979,2.12776-.38936,3.27809-.0075.08734-.07377.17864-.08811.12659a4.84217,4.84217,0,0,1-.11788-.61839c-.01522-.11512-.00264-.30655-.00264-.51694a21.79712,21.79712,0,0,0,.06461-3.14533c-.05623-.868.05415-1.57421.16486-1.48158a.63525.63525,0,0,1,.19.352A5.32616,5.32616,0,0,1,138.42828,342.81387Zm.72072-13.43524c-.031.472-.101,1.53848-.16971,2.58516a.33265.33265,0,0,1-.20245.25847.78332.78332,0,0,1-.07035-.34272l.13486-5.51171c.00264-.09615.0698-.27479.0924-.25229a.5526.5526,0,0,1,.202.35065C139.15826,327.21867,139.14779,327.98924,139.149,329.37863Z"/><path class="cls-1" d="M21.30792,150.06184c-.57429.56061-1.13335,1.1543-1.67566,1.7405-.14776.16055-.3275.49224-.27589.50238a.95846.95846,0,0,0,.53778-.24876q2.29334-2.13108,4.597-4.27141c.89947-.8548.93773-.9933.72447-2.07218A24.64463,24.64463,0,0,1,21.30792,150.06184Z"/><path class="cls-1" d="M.06173,171.35268c.12417-.13717.33511-.36962.48177-.5315.24414-.27479.47681-.53635.71234-.80143-.21469.236-.42718.46974-.65015.715C.21721,171.17361-.14921,171.59131.06173,171.35268Z"/><path class="cls-1" d="M1.25584,170.01975c.06594-.07234.13332-.14644.1997-.21966C1.34913,169.91477,1.302,169.9677,1.25584,170.01975Z"/><path class="cls-1" d="M37.2884,135.53229l.32342-.22275.24667-.30919a4.01475,4.01475,0,0,0-.45266.27346C37.35224,135.31528,37.32688,135.44363,37.2884,135.53229Z"/></g></g></svg>