<svg xmlns="http://www.w3.org/2000/svg" viewBox="0 0 160.6651 414.27334"><defs><style>.cls-1{fill:#24373e;}</style></defs><g id="Слой_2" data-name="Слой 2"><g id="Слой_1-2" data-name="Слой 1"><path class="cls-1" d="M12.81815,412.28909l-.00133-.25362C12.81726,412.17353,12.8177,412.23175,12.81815,412.28909Z"/><path class="cls-1" d="M160.65034,199.15749l-.12659-.08381-1.01228-.67c-1.347-.89406-2.67381-1.78725-3.90883-2.68837-2.98963-2.18025-6.13187-4.40019-9.36409-6.6347l-2.44093-1.6783a4.4116,4.4116,0,0,1-.55443-.41946l-.50107-.41815-1.0061-.83716-4.07291-3.35264-7.81944-6.31094q-1.98683-1.5687-4.00057-3.10387Q112.495,162.73348,98.51389,153.29683c-5.62551-3.76505-11.49714-7.2156-17.34319-10.69438-5.6211-3.354-11.326-6.58927-16.96475-9.92162-5.63565-3.33808-11.21926-6.75511-16.88314-10.0579-3.5595-2.07616-7.03652-4.24229-10.48928-6.44768-3.34117-2.13526-6.79658-4.11482-10.282-6.04409q-.01521-3.34051-.03572-6.68057c-.04014-8.55957-.29111-17.10854-.39212-25.669-.10189-8.56221-.01809-17.13588-.18128-25.69721A143.1956,143.1956,0,0,1,26.477,35.955a115.897,115.897,0,0,0-.05954-23.12661,16.17146,16.17146,0,0,0-5.102-10.36c-3.249-3.095-8.69851-3.78357-12.23816.89274A15.45725,15.45725,0,0,0,5.89807,11.3173C5.1994,18.16857,4.37723,25.0066,3.9238,31.87022c-.55223,8.36328-.86627,16.74112-1.44364,25.09735-.655,9.5361-1.09564,19.08633-1.49658,28.63435C.71011,92.1334.52221,98.66974.352,105.20564Q.19516,111.23827.11774,117.2753c-.06925,5.364-.1407,10.72746-.11071,16.09626.0247,4.36535.18128,8.73864.26509,13.10752C.352,150.6777.30785,154.875.5103,159.07274l2.51459,50.44435c.0591,1.17459.18878,2.34874.27964,3.52333.20863,2.68572.445,5.37013.60295,8.05806q.42939,7.299.77321,14.60145l.44549,10.58146c.14953,3.35484.51651,6.7066.48078,10.06717a7.60231,7.60231,0,0,0,.15085,1.48908,47.79457,47.79457,0,0,1,.4693,5.49407c.15615,1.99323.11557,3.99749.46049,5.99337a31.57715,31.57715,0,0,1,.288,9.31072,12.362,12.362,0,0,0,.00353,1.93765l.22672,4.0319L8.21638,303.225l.32375,5.52627c.10674,1.84238.11644,3.81841.34933,5.49186a51.14691,51.14691,0,0,1,.1288,5.41336c.02734.66558.09439,1.3294.13894,1.99543.1901,2.81893.43578,5.659.53017,8.45238.13894,4.035.30832,8.05321.49445,12.0776.07675,1.67875.08028,3.46953.2276,5.01506.21789,2.31125.30346,4.55105.33875,6.88567.00793.48828.045,1.00169.07321,1.49879.10939,1.995.21878,3.98249.32905,5.98411.09351,1.99676.14688,4.02483.30611,5.94485.157,1.9672.06528,3.98867.18613,5.9894.04676.80629.0547,1.74093.10939,2.48194.20907,2.8723.26288,5.92148.36168,8.92081q.08867,2.75761.17555,5.50421.088,2.99052.17555,5.97485.10058,4.23831.20113,8.4784c.00882.28494.01676.54253.02514.81247.04455.01455.0569.19319.06131,1.19841.01588,1.411.02912,2.58692.04411,3.93618.01059.63427.01765,1.04668.02029,1.22.00044-.625.00088-1.12343.00088-2.04881-.00132-2.6522-.00308-5.28367-.00441-7.90941.00662-1.838.00838-3.69535-.01632-5.5051-.02073-1.49481-.02249-2.8873-.01191-4.43327.015-2.89436.08954-5.91883-.06792-8.75629a13.749,13.749,0,0,1,.0516-2.20671,9.81866,9.81866,0,0,0,.05426-1.71138c-.05205-.973-.04588-1.88208-.01676-2.89965.04587-1.61479.05822-3.27545.03572-4.95331-.00617-.45475.01985-.93861.0322-1.43262.21922.086.25936,2.133.44461,2.34036.12791-.92538.03617-2.20936.1085-3.22428a30.14283,30.14283,0,0,0,.11248-3.75446c-.08866.04852-.18217.25053-.25715.07984a8.9904,8.9904,0,0,1-.0591-1.29589c.01852-1.15739.03264-2.373.09924-3.44394.12482-1.92442.00132-3.98338.16981-5.891.04411-.4821-.02646-1.28442-.037-1.94736a78.77275,78.77275,0,0,1,.41815-8.66807,24.62947,24.62947,0,0,0,.26993-5.19943A17.67,17.67,0,0,1,14.26,335.766a14.60271,14.60271,0,0,0-.00706-3.36939,11.41069,11.41069,0,0,1-.20995-2.601c.04367-.36389.11644-1.17592.23642-1.86356a12.82469,12.82469,0,0,0,.22318-2.33242,37.28325,37.28325,0,0,1,.51959-6.28139,11.01511,11.01511,0,0,0,.1632-2.9023c-.18349-1.6311.18084-3.2997.02382-4.94536a26.45409,26.45409,0,0,1,.40844-4.82408c.03352-.49841.11115-1.01315.10233-1.48863-.03926-1.97868.07057-3.93177.19672-5.88222,1.29986-1.134,2.60192-2.25347,3.93089-3.33147,1.08064-.87818,2.15863-1.78239,3.14665-2.73689A31.95986,31.95986,0,0,1,25.5331,291.008a24.27158,24.27158,0,0,0,4.91626-4.45886,2.4044,2.4044,0,0,1,1.39425-.93994,1.76392,1.76392,0,0,0,1.11108-.69381,5.87833,5.87833,0,0,1,1.64037-1.46218,20.56654,20.56654,0,0,0,2.94243-2.33154,6.91574,6.91574,0,0,1,.89539-.62148c.412.58708-.68147,1.69639-.40535,2.26582.80232-.13629,1.34308-1.00345,2.077-1.32588a5.50734,5.50734,0,0,0,2.38138-1.5892c-.21039-.19143-.51915-.31978-.57516-.5862-.02823-.13541.35418-.58134.6228-.78423a14.62511,14.62511,0,0,1,2.17937-1.46262c1.35367-.6572,2.28919-1.96677,3.71608-2.51723.363-.13629.68235-.7,1.04227-1.052a16.57826,16.57826,0,0,1,5.7521-3.36675,5.2819,5.2819,0,0,0,3.46026-2.00823,3.76157,3.76157,0,0,1,2.14187-1.45644,3.1526,3.1526,0,0,0,1.90061-1.70477c.27567-.51518.18393-1.15606,1.10578-1.74446a9.23662,9.23662,0,0,1,1.47408-.44328,3.16206,3.16206,0,0,0,1.71227-.71146,9.23821,9.23821,0,0,1,4.43283-2.12688,2.61986,2.61986,0,0,0,1.90723-1.14945c.6175-1.18386,2.15113-1.32765,2.81848-2.46872.70044-1.22134,2.27068-1.05461,3.369-1.67609a4.3389,4.3389,0,0,0,.99551-.56855c1.94957-2.03381,4.67852-3.04124,6.86053-4.76277,2.1829-1.73828,4.97051-2.72365,6.75864-4.96477.21216-.266.70308-.29773,1.04183-.47681a31.1066,31.1066,0,0,0,6.11114-3.95294,9.64312,9.64312,0,0,1,1.18562-.96023c4.33712-2.71483,8.70908-5.37983,12.999-8.15641q6.76437-4.38123,13.36114-8.98212l.891-.63162,1.63948-1.27472,3.29883-2.57589,6.67351-5.244.84114-.66338c.14511-.11071.27038-.221.43093-.33258l.51165-.33566,2.051-1.347,4.1307-2.71175,8.384-5.49407,2.08674-1.38983.51518-.34846.25715-.17466C160.59167,199.21527,160.705,199.18527,160.65034,199.15749ZM12.23283,382.773c-.0097-.12394-.02558-.25273-.02734-.37138-.00353-.44682-.00618-.89054-.01323-1.85474.03705.87907.05337,1.2606.06969,1.64611C12.26547,382.38179,12.243,382.57939,12.23283,382.773Zm.67926-30.41675a7.17747,7.17747,0,0,1-.04234-1.048A8.0127,8.0127,0,0,1,12.91209,352.35627Zm.51783-15.01871c-.18569,1.08594-.28935,2.26053-.389,3.4832-.0075.09262-.0741.18966-.08822.13409a5.47456,5.47456,0,0,1-.11776-.65677c-.01544-.12218-.00265-.32552-.00265-.54958a24.6181,24.6181,0,0,0,.06484-3.34073c-.05646-.92229.05381-1.67257.16452-1.57421a.68539.68539,0,0,1,.1901.3736A5.99739,5.99739,0,0,1,13.42992,337.33756Zm.72072-14.2724c-.03087.5015-.10056,1.63419-.16937,2.74615a.34961.34961,0,0,1-.20246.27479.873.873,0,0,1-.07013-.36433l.135-5.85531c.00265-.10189.06969-.29155.09175-.26774a.59311.59311,0,0,1,.20245.37227C14.16035,320.77023,14.14976,321.58931,14.15064,323.06516Zm15.96659-38.294a1.47289,1.47289,0,0,1-.40491.20114,1.20955,1.20955,0,0,1,.15658-.25054c.24789-.23112.5046-.44813,1.05639-.9267C30.49876,284.32218,30.32586,284.56389,30.11723,284.77119Zm18.68716-12.9055c-.02162-.0569-.0741-.15217-.05955-.16408.18834-.15614.38683-.30038.58267-.4477.015.0547.06086.14247.04146.15923C49.18724,271.57061,48.99405,271.71616,48.80439,271.86569Zm9.619-6.24434a10.66184,10.66184,0,0,0-2.717.87289c-.06705.02911-.24524-.06793-.24-.12659a1.8452,1.8452,0,0,1,.16188-.57914c.04278-.09262.18349-.165.31272-.27435a5.0854,5.0854,0,0,0,2.05013-1.49569c.43138-.57208,1.06388-.704,1.20591-.42035a1.00546,1.00546,0,0,1,.127.5884C59.231,264.75639,59.01888,265.53754,58.42342,265.62135ZM69.588,258.44941c-.41638.445-.90024.83364-1.737,1.57554-.3361.191-1.08505.63515-1.85694,1.02594-.10674.05426-.36256-.15173-.50812-.27832-.0441-.03837.011-.26817.08645-.32507q1.77711-1.33515,3.578-2.63853a.32414.32414,0,0,1,.30875.05116C69.53947,258.048,69.67532,258.35635,69.588,258.44941Zm36.91118-55.21416-6.03571,5.27618c-1.90061,1.688-3.50657,3.72093-5.63169,5.15047a2.26758,2.26758,0,0,0-.72513.88965c-.64618,1.344-1.84018,2.1185-2.7735,3.16518-1.02065,1.13181-2.30948,1.95883-3.0624,3.41a8.75832,8.75832,0,0,1-5.31588,4.637,3.279,3.279,0,0,0-1.18253.8751c-.73439.70793-1.43086,1.46129-2.14628,2.19172q-4.94229,5.07725-9.83913,10.20875c-.97082,1.01448-1.9037,2.0713-2.84363,3.12063a17.05171,17.05171,0,0,0-2.762,3.17664c-.756,1.44321-2.09953,1.76211-3.0602,2.73248-.35639.359-.644.797-.97125,1.19135a64.42176,64.42176,0,0,1-4.17966,4.9736c-2.18377,2.15158-4.29345,4.37064-6.35858,6.64969a21.96533,21.96533,0,0,0-2.57942,2.83393,17.52727,17.52727,0,0,1-3.45982,3.98647,6.78418,6.78418,0,0,0-.74983.87113c-.96155,1.2037-1.90546,2.41887-2.90406,3.5864a31.23019,31.23019,0,0,0-2.897,3.54848c-.83364,1.32235-2.21951,2.05454-3.14754,3.30411-.37668.50107-.91038.9664-1.228,1.45953a43.77763,43.77763,0,0,1-4.45,5.20384q-1.41387,1.56208-2.82334,3.11886l-3.07784,3.3694q-2.20318,2.36727-4.43989,4.69616c-.15129.157-.27171.31493-.40756.47107.10674.14379.0344.26729-.53767.77056-.352.31714-.66736.62192-.977.92406.105-1.61214.217-3.223.26068-4.8448.08556-3.68212.59589-7.332.415-11.04416a11.75858,11.75858,0,0,1,.16188-1.45644c.28537-3.155.54958-6.31932.595-9.52993.00926-.67088.00794-1.34926.05425-2.01352q.76218-10.02879,1.52437-20.05538.80254-10.5528,1.60685-21.12368.7913-11.07548,1.58347-22.1655c.13585-1.84767.17555-3.70858.36609-5.54567.92715-8.886,1.43439-17.805,1.88429-26.71478.75248-14.79509,1.46173-29.5937,1.96191-44.38614.15967-4.69748.20863-9.39364.21481-14.08847q1.76122,1.79827,3.52289,3.60008c4.45886,4.5678,8.938,9.12811,13.291,13.81986q7.43195,8.0565,14.87712,16.12669,5.09445,5.5126,10.1942,11.0296c2.08586,2.26979,4.20568,4.499,6.31536,6.74233,2.83128,2.96536,5.63345,5.96646,8.52515,8.86214,2.33684,2.37256,4.78923,4.61059,7.18208,6.91743,2.29581,2.22171,4.51267,4.54045,6.91214,6.63116q3.60978,3.13474,7.26014,6.21832l3.66007,3.07123,1.46967,1.22091Z"/><path class="cls-1" d="M31.36372,287.39826c-.49974.37888-.98581.79041-1.45688,1.19929-.12836.112-.28318.36962-.23819.38991a.67716.67716,0,0,0,.47063-.10939q1.99611-1.41784,4.00191-2.84186c.78247-.57341.81511-.68853.61751-1.69419A15.09381,15.09381,0,0,1,31.36372,287.39826Z"/><path class="cls-1" d="M45.27753,277.80216l.28229-.131.21392-.22363a2.55349,2.55349,0,0,0-.39565.14909C45.33134,277.6222,45.31017,277.73115,45.27753,277.80216Z"/><path class="cls-1" d="M13.07265,383.17617c-.00309.82658-.00662,1.66727-.00971,2.49121a3.265,3.265,0,0,0,.0397.57164,2.79711,2.79711,0,0,0,.06352-.56679q.06615-3.22141.13232-6.4565a3.89128,3.89128,0,0,0-.2598-2.06689C13.12558,379.7534,13.11676,379.79,13.07265,383.17617Z"/><path class="cls-1" d="M12.82917,414.17735c-.00088-.19011-.00264-.5143-.00353-.73925-.00264-.39388-.00529-.7688-.00749-1.149.00132.3436.00264.68323.00441,1.04006C12.82653,413.93343,12.83094,414.506,12.82917,414.17735Z"/><path class="cls-1" d="M13.60238,360.69486a2.23175,2.23175,0,0,0,.02823.277l.02779-.39608-.00882-.40624C13.63282,360.34332,13.61209,360.50916,13.60238,360.69486Z"/></g></g></svg>