<svg xmlns="http://www.w3.org/2000/svg" viewBox="0 0 258.35133 414.79949"><defs><style>.cls-1{fill:#24373e;}</style></defs><g id="Слой_2" data-name="Слой 2"><g id="Слой_1-2" data-name="Слой 1"><path class="cls-1" d="M257.48179,131.63889l.13233-1.20458c.0999-.89275.22472-1.91252.38087-2.88554a22.707,22.707,0,0,0,.32463-3.14356,32.26345,32.26345,0,0,0-.02691-3.376l-.017-.28406-.00816-.14247a3.16813,3.16813,0,0,0-.60846-.32639q-.52731-.23157-1.04867-.46137-1.02915-.47306-2.03646-.93641c-1.33426-.63163-2.669-1.26722-3.96727-1.93325l-.97523-.50238c-.31713-.16629-.4757-.2673-.719-.4058q-.66427-.399-1.31817-.79173-1.30041-.80321-2.53487-1.65052a16.909,16.909,0,0,0-5.20627-2.57016c-3.19914-.7957-5.93029-2.89788-9.13076-3.7646-3.40247-.90774-5.61294-3.07343-8.53508-4.55546a28.768,28.768,0,0,0-2.65992-1.34352c-6.9236-2.58869-13.184-6.29463-19.89946-9.21677-6.7474-2.92346-13.06143-6.711-20.11228-9.06857a20.88264,20.88264,0,0,1-2.562-1.41056c-5.60456-2.92391-11.25852-5.78077-17.18639-8.22346-1.23788-.51121-2.49914-1.007-3.69491-1.587-12.03195-5.83106-24.01714-11.73489-36.089-17.49713q-19.02746-9.11378-38.20641-17.966C75.07282,33.316,68.36336,30.2412,61.6281,27.22423L51.52587,22.69435,46.47442,20.4303,43.949,19.29761,42.68578,18.733,40.39063,17.738Q35.404,15.61615,30.398,13.48641q-2.50653-1.06919-5.00756-2.13615c-1.67124-.7216-3.33058-1.43218-5.04681-2.24464q-6.2331-2.882-12.47149-5.76622L1.57156.45122.78181.09.58421,0C.4671.0322.45916.44108.45916.44108L.4274,2.0788.36632,5.36572C.21833,14.16258.049,23.06265.039,32.15768Q.01951,42.5378,0,52.92276L.07785,66.2689Q.43976,110.586,1.7899,154.90444c.57428,17.7803,1.5473,35.54869,2.483,53.31179q1.42579,25.63965,2.85069,51.2599,1.34574,25.6456,2.69278,51.315c.60208,10.746,1.08285,21.4708,1.51775,32.20929.62192,15.44082,1.67765,30.83577,2.70536,46.18088.54341,7.88427,1.12982,14.83522,1.45886,20.68877.39146,6.18083.05778,7.55567.34382-1.7824.19364-4.90082.3994-10.10466.62788-15.88807.50658-13.68181,1.15143-27.3367,1.8007-41.04276.78159-16.70055,1.54466-33.43064,2.489-50.11707q1.64809-28.564,3.29905-57.18093,1.12177-19.56336,2.24464-39.14656.65964-12.0474,1.31993-24.10228c.54672-10.712,1.13953-21.42184,1.59406-32.14313.39278-8.717.60824-17.45081.91523-26.1749.303-8.38445.70838-16.76582.85812-25.14851l.32177-25.18336.189-24.62142.13122.05514L34.53951,48.602c2.16591.90024,4.37571,1.6933,6.56258,2.54414,5.00138,1.94207,10.01666,3.84444,14.99621,5.84825q13.50891,5.4782,27.02354,10.95771l19.53182,8.062c6.20575,2.52562,12.5694,4.65911,18.64922,7.51333a14.92941,14.92941,0,0,0,2.824.954c3.54693.82393,6.90927,2.4299,10.35806,3.67109,3.7474,1.35588,7.35939,3.09152,11.27528,4.06057a58.63629,58.63629,0,0,1,17.1844,7.09959,22.46032,22.46032,0,0,0,3.53039,1.58612c2.50069.97831,5.02344,1.90149,7.53538,2.85245l34.83944,13.06738c3.45144,1.28928,6.92052,2.52385,10.38673,3.769,3.46533,1.25045,7.0771,2.8401,10.36,3.65433,3.90619.97478,6.6583,2.80746,10.00961,4.08394,1.24185.47372,2.52164.85,3.78268,1.28222l.47108.15967c.09218.015.28317.045.28317.045.133.01808.26023.045.41505.0591l.50746.03176.26443.02161c.0677.02514.06285.10851.097.16232q.07476.18327.14291.3855c.02139.06748.04653.13541.06285.206l-.04521.23686a4.64923,4.64923,0,0,0-.1041,2.03425c.23245,8.05806.56436,16.08171.97126,24.11816.16827,3.35263.11843,6.92889.49842,10.01468a117.57131,117.57131,0,0,1,.80982,13.75061c.00661.97478.10718,1.99985.18106,2.99227.29817,3.98426.61618,7.95264.86275,11.95057.25009,3.98691.37139,8.03645.83937,11.87074.47107,3.92868.13541,7.965.49026,11.96027.13938,1.61038.15,3.477.3211,4.956.64905,5.73666.79747,11.8253,1.10093,17.8147q.28218,5.50665.56282,10.99211.29244,5.97109.584,11.93028.35727,8.46408.71476,16.93079c.034.57164.0644,1.08373.09638,1.62272.17908.02867.22649.38551.24127,2.39329.06219,2.815.114,5.16635.17356,7.86046.024,1.30118.06374,2.1701.08447,2.42681.00176-1.25178.00353-2.23715.00617-4.08174-.03616-5.29646-.05689-10.55323-.01587-15.795.02756-3.67021.03352-7.37923-.05756-10.993-.07609-2.98521-.0816-5.76577-.0397-8.85332a167.77684,167.77684,0,0,0-.23024-17.48522,15.98861,15.98861,0,0,1,.18238-4.40681,11.51985,11.51985,0,0,0,.1879-3.417,40.4089,40.4089,0,0,1-.05756-5.79092c.1546-3.22428.193-6.54118.11975-9.89161-.02007-.9073.064-1.87414.10388-2.86084.71388.17158.855,4.25994,1.46835,4.67411.41395-1.84812.101-4.41211.32882-6.43886a37.11528,37.11528,0,0,0,.32419-7.49745c-.28185.09748-.57935.50019-.81908.15923a11.16035,11.16035,0,0,1-.1965-2.5878c.05028-2.31081.0891-4.73806.29067-6.87685.37205-3.84312-.02382-7.95441.47725-11.764a32.619,32.619,0,0,0-.1299-3.88942,109.856,109.856,0,0,1,1.14327-17.30835,34.11477,34.11477,0,0,0,.70088-10.383,25.11317,25.11317,0,0,1,.271-6.79084,21.06722,21.06722,0,0,0-.07432-6.72777,16.7324,16.7324,0,0,1-.618-5.19457C257.40769,132.15186,257.44209,131.91456,257.48179,131.63889Zm-5.48326,106.48729a7.29939,7.29939,0,0,1-.0902-.74233c-.00618-.89275-.01235-1.778-.0258-3.70418.12725,1.75549.2,2.51679.22362,3.28824A9.40722,9.40722,0,0,1,251.99853,238.12618Zm2.32051-60.74c-.05734-.05337-.16408-.10939-.16386-.15967l.03463-1.93369c.05182.06176.148.12.1482.18614Zm1.44343-29.99111a60.39057,60.39057,0,0,0-1.0877,6.95492c-.02139.18526-.21083.37889-.25186.26818a7.90837,7.90837,0,0,1-.33742-1.31177,8.69838,8.69838,0,0,1-.0075-1.097,34.625,34.625,0,0,0,.18128-6.67175c-.15812-1.8415.14975-3.34028.45806-3.14356a1.32159,1.32159,0,0,1,.53128.7463A8.724,8.724,0,0,1,255.76247,147.39508Zm1.25795-25.7422-.00661.27082-.01434.54165a1.74165,1.74165,0,0,1-.49048.9933c-.05469.05955-.20708-.45563-.21105-.75159l-.006-.43843c-.01742-.13586.05514-.33214-.13519-.35287l-.79394-.35639-1.59053-.71587-3.21259-1.43527-5.6802-2.55737c-.18548-.08424-.46777-.39079-.40072-.427a1.1671,1.1671,0,0,1,.89186-.20422c.74961.27656,1.49988.57693,2.40365.94744,1.07866.44593,2.34411.969,3.97169,1.64213.5723.281,1.5054.73881,2.61251,1.28177.53877.27082,1.12012.56326,1.72108.865.29575.15085.59656.3039.89914.45828.05293.00882.04984.05513.045.10321Z"/><path class="cls-1" d="M254.91692,238.93071c-.03308,1.65051-.03286,3.3297-.02558,4.97448a3.797,3.797,0,0,0,.14335,1.14239,3.317,3.317,0,0,0,.22076-1.13269q.20709-6.43158.41505-12.89271c.06771-2.5512.00045-2.81276-.89472-4.12761A104.1914,104.1914,0,0,1,254.91692,238.93071Z"/><path class="cls-1" d="M254.022,297.17419c-.00176-.20995-.00352-.419-.00551-.63074-.00066.05381-.00066.11424-.00088.1782C254.01778,296.87338,254.01977,297.02334,254.022,297.17419Z"/><path class="cls-1" d="M254.06763,300.83779c-.00375-.3758-.00993-1.02463-.01434-1.47673-.01081-.74939-.02095-1.4657-.03132-2.18687.00574.64839.01147,1.295.01743,1.96942C254.05792,300.3504,254.07777,301.49367,254.06763,300.83779Z"/><path class="cls-1" d="M256.48253,194.03733a2.99856,2.99856,0,0,0,.092.55311l.08227-.79085-.03264-.81158C256.57427,193.33514,256.511,193.66683,256.48253,194.03733Z"/></g></g></svg>