<svg xmlns="http://www.w3.org/2000/svg" viewBox="0 0 155.19876 418.52038"><defs><style>.cls-1{fill:#24373e;}</style></defs><g id="Слой_2" data-name="Слой 2"><g id="Слой_1-2" data-name="Слой 1"><path class="cls-1" d="M155.14771,134.18945l-.10244-.07366-.20719-.146-.42366-.28714a38.53173,38.53173,0,0,1-4.95893-4.01381c-.75926-.689-1.49492-1.37925-2.32476-2.06425a29.34247,29.34247,0,0,0-2.65292-1.96147,26.96552,26.96552,0,0,1-4.85268-4.11129,5.82191,5.82191,0,0,1-.41715-.46093l-.33566-.40138-.67342-.80409a19.11641,19.11641,0,0,0-1.44966-1.55215,22.24161,22.24161,0,0,0-1.90772-1.79342c-5.24756-3.8215-9.56858-8.54986-14.53054-12.64-4.98964-4.09762-9.33222-8.91287-14.76278-12.5447a16.26919,16.26919,0,0,1-1.80131-1.83621A162.796,162.796,0,0,0,91.2791,78.3366c-.92328-.72866-1.87171-1.44717-2.73672-2.231-8.70562-7.88339-17.34777-15.825-26.10968-23.65237q-6.90331-6.1795-13.85454-12.31358l-.43468-.38286-.65825-.56149L45.8378,37.80858l-3.31161-2.78585L35.83834,29.406l-6.76961-5.67315L25.64238,20.854,22.093,17.77613,7.02414,4.74051,3.21272,1.45007,2.25729.62569,1.77917.21328,1.54005.00686c-.0896-.0397-.09131.10586-.09131.10586L1.421,2.4469l-.107,9.40026L.867,50.22625Q.83692,55.1156.80664,60.02348q-.016,1.61037-.03208,3.21678c-.01682.80982-.04224,1.61744-.08243,2.42285C-.09779,81.24331-.06129,96.88085.07936,112.503q.36191,38.91169,1.7121,77.82427c.57428,15.61108,1.54741,31.21245,2.48316,46.80853Q5.7004,259.648,7.1252,282.14293q1.34572,22.51815,2.69273,45.05614c.60229,9.4351,1.083,18.85168,1.5178,28.28016.622,13.55742,1.67775,27.0747,2.7053,40.54832.54341,6.92228,1.12987,13.02548,1.459,18.16492.39146,5.42658.05773,6.63381.34388-1.565.15272-4.29742.41439-8.86964.62782-13.95.50663-12.0132,1.15132-24.00214,1.8007-36.03652.78165-14.66364,1.5446-29.35287,2.489-44.00372q1.648-25.08059,3.29894-50.20616,1.05031-16.0826,2.10163-32.18106,2.91954-2.48371,5.851-4.926c2.47836-2.05984,4.96869-4.15805,7.3327-6.27655,1.95238-1.75063,3.813-3.331,5.90984-5.0499a129.41979,129.41979,0,0,0,11.57373-10.08922,12.36429,12.36429,0,0,1,3.07238-2.35933,8.903,8.903,0,0,0,2.4122-1.79386,31.1459,31.1459,0,0,1,3.84516-3.327c2.26135-1.71006,4.50991-3.56127,6.7088-5.517.59556-.52974,1.29792-1.0136,1.98507-1.54245.34608.64221-2.30364,3.06814-2.18549,3.77122,1.50645-.73175,3.02343-2.42461,4.5291-3.39983a28.63878,28.63878,0,0,0,5.236-4.00323c-.24733-.15967-.70953-.15879-.63587-.535a8.644,8.644,0,0,1,1.60812-1.617c1.58181-1.27207,3.234-2.61868,4.79826-3.67727,2.81662-1.89487,5.31731-4.5281,8.195-6.30521a25.16861,25.16861,0,0,0,2.52346-2.30463,84.88316,84.88316,0,0,1,12.34241-8.94021,26.40544,26.40544,0,0,0,7.41359-5.35161,19.3987,19.3987,0,0,1,4.72764-3.6433,16.27367,16.27367,0,0,0,4.4625-3.87134,13.02586,13.02586,0,0,1,3.08347-3.417c.56088-.32419,1.76828-1.10093,2.89088-1.64125a14.80119,14.80119,0,0,0,3.48589-2.21112q.7067-.59546,1.39794-1.17724.80471-.64639,1.59252-1.27869c1.06531-.835,2.14176-1.639,3.2449-2.43034q.84522-.59412,1.67576-1.17812l.85355-.58531.78142-.58972q1.64264-1.2048,3.23884-2.3752c1.04993-.75645,2.129-1.59009,3.10635-2.44137.48832-.4252.95068-.85393,1.36817-1.2756.20874-.21084.40623-.41991.59-.62589C155.22209,134.23841,155.18918,134.21371,155.14771,134.18945ZM18.68784,242.6069l-.12.10012c.04317-.03617.08364-.07057.12582-.10586ZM30.10316,60.28063l.12119.04852a.7119.7119,0,0,1,.08226.16805l.1664.38462.11925.3017a2.39245,2.39245,0,0,0,.38137.35992l-.29282-.02029a1.386,1.386,0,0,1-.32926-.07675,1.42976,1.42976,0,0,1-.17881-.07146,3.9749,3.9749,0,0,1-.43363-1.123C29.793,60.1611,29.955,60.23829,30.10316,60.28063ZM57.39537,207.37049a7.26419,7.26419,0,0,1-.8461.57428,5.77739,5.77739,0,0,1,.43932-.4896c.59435-.51077,1.184-1.01712,2.46662-2.11938C58.36056,206.4279,57.89732,206.91529,57.39537,207.37049Zm42.66483-33.158-1.29109,1.067c-.00116-.0741-.03264-.187.00132-.21568l1.31877-1.07006C100.08115,174.0682,100.10436,174.17494,100.0602,174.21244Zm22.26843-17.6396a6.79638,6.79638,0,0,1-2.52054,2.80437,47.12045,47.12045,0,0,0-5.36516,3.11313c-.138.08866-.39008.05382-.34244-.04013a6.27772,6.27772,0,0,1,.66139-1.00169,6.77172,6.77172,0,0,1,.73076-.62766,26.70514,26.70514,0,0,0,4.59008-3.64463c1.13247-1.16444,2.33589-1.77886,2.40321-1.43218A1.18534,1.18534,0,0,1,122.32863,156.57284Zm8.868-20.80477a3.8063,3.8063,0,0,0-.85437.56766.56955.56955,0,0,0-.08882.22319l-.02823.12262a.44712.44712,0,0,1-.12653.07763c-.20521.10189-.411.2201-.62992.35507l-.338.213a1.44216,1.44216,0,0,0-.273.22362l-.65743.65986c-1.75494,1.75769-3.52642,3.48716-5.34565,5.12841q-7.87812,7.119-15.54227,14.41576c-2.13873,2.0294-4.56863,4.0191-6.39216,6.05865a90.81954,90.81954,0,0,1-8.69569,8.41445c-.64932.55752-1.27151,1.21561-1.88919,1.83488-2.47858,2.4868-4.93368,4.97933-7.45483,7.43393-2.51127,2.45151-5.14809,4.84039-7.41639,7.3713-2.32989,2.58736-5.25258,4.61941-7.702,7.15561-.98951,1.01933-2.234,2.08586-3.11523,3.05535-3.42718,3.7474-7.41226,7.314-11.23294,10.94006q-3.511,3.33588-7.00851,6.659-3.81315,3.61044-7.6183,7.21383-5.44362,5.07129-10.88912,10.1448c-.36129.35021-.685.66382-1.02583.99375.07371.11688-.03584.288-.6877.8751q.06029-.92362.12058-1.84636.65971-10.57726,1.31987-21.162c.54672-9.40555,1.13953-18.80889,1.59417-28.22238.39289-7.654.60836-15.32217.91524-22.98238.30313-7.36159.70848-14.72054.85806-22.08081l.32193-22.11169.19319-22.11169L31.5912,73.277l-.0005-11.05607c-.00055-.0569-.00044-.12085-.00022-.18657l1.68916,1.33911L40.562,69.12028c4.6397,3.61684,9.53915,6.89978,13.96685,10.79715a11.52538,11.52538,0,0,0,2.172,1.46394c2.84424,1.48952,5.28445,3.67065,7.91333,5.52891,2.85422,2.02631,5.47229,4.379,8.59386,6.07938a45.28737,45.28737,0,0,1,12.81519,10.11348,17.28364,17.28364,0,0,0,2.59332,2.19657c1.88181,1.42071,3.8,2.79467,5.70033,4.192l26.39285,19.2685c2.61631,1.90369,5.26493,3.76063,7.90792,5.62595l.32386.22848.13519.10938c.08877.07543.17478.15262.27055.22319a1.37624,1.37624,0,0,0,.344.19054,5.26877,5.26877,0,0,0,.65279.13277,2.05513,2.05513,0,0,1,.69878.21833.91219.91219,0,0,1,.18658.13409C131.31439,135.71073,131.2254,135.74248,131.19662,135.76807Zm14.96071,3.43026c-.59535.59766-1.20817,1.20282-1.99919,1.93148-.85177.72866-1.85071,1.58259-3.13573,2.68132-.46914.35109-1.23392.92317-2.14149,1.60243-.88045.65324-2.02758,1.51246-2.73821,1.98221-.22363.15261-.54226,0-.71676-.10233-.05287-.03088.193-.42211.36318-.55885l4.7557-3.84355,2.479-1.99544c.80508-.66912,1.56087-1.34308,2.34858-2.01793a1.73369,1.73369,0,0,1,.7076-.329C146.20282,138.69727,146.40588,138.94647,146.15733,139.19833Z"/><path class="cls-1" d="M54.54325,213.4309c-.29938.25671-.74013.756-.67281.75777a2.61763,2.61763,0,0,0,.90156-.47372q4.44533-3.4887,8.91083-6.99373c1.75422-1.39469,1.88621-1.5945,2.18957-3.02359a80.28422,80.28422,0,0,1-7.97812,6.932C56.76617,211.54,55.64076,212.49273,54.54325,213.4309Z"/><path class="cls-1" d="M88.69152,186.75582l.58327-.386.523-.48474c-.26492.15879-.52808.29861-.79482.487A2.33024,2.33024,0,0,0,88.69152,186.75582Z"/></g></g></svg>