999
"DXF R12 Output" (www.mydxf.blogspot.com)
 0 
SECTION
 2 
HEADER
 9 
$ACADVER
 1 
AC1009
 9 
$EXTMIN
 10 
 0 
 20 
 0 
 9 
$EXTMAX
 10 
 8.5 
 20 
 11 
 0 
ENDSEC
 0 
SECTION
 2 
ENTITIES
0
LINE
8
Layer 1
10
187.873000
20
271.664000
11
188.527767
21
269.914149
0
LINE
8
Layer 1
10
188.527767
20
269.914149
11
188.821305
21
268.069010
0
LINE
8
Layer 1
10
188.821305
20
268.069010
11
188.672165
21
266.247183
0
LINE
8
Layer 1
10
188.672165
20
266.247183
11
188.185419
21
264.485260
0
LINE
8
Layer 1
10
188.185419
20
264.485260
11
187.371974
21
262.862732
0
LINE
8
Layer 1
10
187.371974
20
262.862732
11
186.345899
21
261.365580
0
LINE
8
Layer 1
10
186.345899
20
261.365580
11
185.123818
21
260.032971
0
LINE
8
Layer 1
10
185.123818
20
260.032971
11
183.760889
21
258.844800
0
LINE
8
Layer 1
10
183.760889
20
258.844800
11
182.289732
21
257.827201
0
LINE
8
Layer 1
10
182.289732
20
257.827201
11
180.713169
21
256.982060
0
LINE
8
Layer 1
10
180.713169
20
256.982060
11
180.314293
21
256.790634
0
LINE
8
Layer 1
10
180.314293
20
256.790634
11
179.902492
21
256.633213
0
LINE
8
Layer 1
10
179.902492
20
256.633213
11
179.075655
21
256.324561
0
LINE
8
Layer 1
10
179.075655
20
256.324561
11
177.326645
21
255.805433
0
LINE
8
Layer 1
10
177.326645
20
255.805433
11
173.727979
21
255.020869
0
LINE
8
Layer 1
10
173.727979
20
255.020869
11
170.080645
21
254.508143
0
LINE
8
Layer 1
10
170.080645
20
254.508143
11
160.283305
21
253.617879
0
LINE
8
Layer 1
10
160.283305
20
253.617879
11
161.389918
21
255.859363
0
LINE
8
Layer 1
10
161.389918
20
255.859363
11
162.065662
21
258.275450
0
LINE
8
Layer 1
10
162.065662
20
258.275450
11
162.218465
21
260.783422
0
LINE
8
Layer 1
10
162.218465
20
260.783422
11
162.069991
21
262.046014
0
LINE
8
Layer 1
10
162.069991
20
262.046014
11
161.756255
21
263.300559
0
LINE
8
Layer 1
10
161.756255
20
263.300559
11
161.145676
21
264.774680
0
LINE
8
Layer 1
10
161.145676
20
264.774680
11
160.301786
21
266.115644
0
LINE
8
Layer 1
10
160.301786
20
266.115644
11
159.245108
21
267.296224
0
LINE
8
Layer 1
10
159.245108
20
267.296224
11
157.996165
21
268.289189
0
LINE
8
Layer 1
10
157.996165
20
268.289189
11
156.662380
21
268.991663
0
LINE
8
Layer 1
10
156.662380
20
268.991663
11
155.240112
21
269.459201
0
LINE
8
Layer 1
10
155.240112
20
269.459201
11
153.760015
21
269.684486
0
LINE
8
Layer 1
10
153.760015
20
269.684486
11
152.252745
21
269.660199
0
LINE
8
Layer 1
10
152.252745
20
269.660199
11
150.881196
21
269.430107
0
LINE
8
Layer 1
10
150.881196
20
269.430107
11
149.554318
21
269.031981
0
LINE
8
Layer 1
10
149.554318
20
269.031981
11
148.287449
21
268.471489
0
LINE
8
Layer 1
10
148.287449
20
268.471489
11
147.095925
21
267.754299
0
LINE
8
Layer 1
10
147.095925
20
267.754299
11
146.039470
21
266.958454
0
LINE
8
Layer 1
10
146.039470
20
266.958454
11
145.085125
21
266.048996
0
LINE
8
Layer 1
10
145.085125
20
266.048996
11
144.241949
21
265.035615
0
LINE
8
Layer 1
10
144.241949
20
265.035615
11
143.519000
21
263.928000
0
LINE
8
Layer 1
10
143.519000
20
263.928000
11
145.382219
21
265.629289
0
LINE
8
Layer 1
10
145.382219
20
265.629289
11
147.586380
21
266.857150
0
LINE
8
Layer 1
10
147.586380
20
266.857150
11
148.712407
21
267.266508
0
LINE
8
Layer 1
10
148.712407
20
267.266508
11
149.876234
21
267.530880
0
LINE
8
Layer 1
10
149.876234
20
267.530880
11
151.063949
21
267.648012
0
LINE
8
Layer 1
10
151.063949
20
267.648012
11
152.261640
21
267.615644
0
LINE
8
Layer 1
10
152.261640
20
267.615644
11
153.329291
21
267.427557
0
LINE
8
Layer 1
10
153.329291
20
267.427557
11
154.343196
21
267.065662
0
LINE
8
Layer 1
10
154.343196
20
267.065662
11
155.282403
21
266.539485
0
LINE
8
Layer 1
10
155.282403
20
266.539485
11
156.125960
21
265.858554
0
LINE
8
Layer 1
10
156.125960
20
265.858554
11
156.762937
21
265.092424
0
LINE
8
Layer 1
10
156.762937
20
265.092424
11
157.257817
21
264.235787
0
LINE
8
Layer 1
10
157.257817
20
264.235787
11
157.601466
21
263.308081
0
LINE
8
Layer 1
10
157.601466
20
263.308081
11
157.784750
21
262.328744
0
LINE
8
Layer 1
10
157.784750
20
262.328744
11
157.743835
21
260.362010
0
LINE
8
Layer 1
10
157.743835
20
260.362010
11
157.284607
21
258.449204
0
LINE
8
Layer 1
10
157.284607
20
258.449204
11
156.337221
21
256.655868
0
LINE
8
Layer 1
10
156.337221
20
256.655868
11
155.026547
21
255.108054
0
LINE
8
Layer 1
10
155.026547
20
255.108054
11
153.683276
21
254.005746
0
LINE
8
Layer 1
10
153.683276
20
254.005746
11
152.217107
21
253.086076
0
LINE
8
Layer 1
10
152.217107
20
253.086076
11
150.646480
21
252.359041
0
LINE
8
Layer 1
10
150.646480
20
252.359041
11
148.989837
21
251.834644
0
LINE
8
Layer 1
10
148.989837
20
251.834644
11
147.875087
21
251.593460
0
LINE
8
Layer 1
10
147.875087
20
251.593460
11
147.426656
21
251.512663
0
LINE
8
Layer 1
10
147.426656
20
251.512663
11
147.429760
21
251.497177
0
LINE
8
Layer 1
10
147.429760
20
251.497177
11
143.552553
21
250.557272
0
LINE
8
Layer 1
10
143.552553
20
250.557272
11
139.691290
21
249.458897
0
LINE
8
Layer 1
10
139.691290
20
249.458897
11
135.942113
21
248.207665
0
LINE
8
Layer 1
10
135.942113
20
248.207665
11
132.229020
21
246.764407
0
LINE
8
Layer 1
10
132.229020
20
246.764407
11
130.391940
21
245.966927
0
LINE
8
Layer 1
10
130.391940
20
245.966927
11
128.602790
21
245.130396
0
LINE
8
Layer 1
10
128.602790
20
245.130396
11
125.061930
21
243.372556
0
LINE
8
Layer 1
10
125.061930
20
243.372556
11
121.566551
21
241.450163
0
LINE
8
Layer 1
10
121.566551
20
241.450163
11
118.155845
21
239.384602
0
LINE
8
Layer 1
10
118.155845
20
239.384602
11
114.834207
21
237.178660
0
LINE
8
Layer 1
10
114.834207
20
237.178660
11
111.606030
21
234.835126
0
LINE
8
Layer 1
10
111.606030
20
234.835126
11
107.870180
21
231.827406
0
LINE
8
Layer 1
10
107.870180
20
231.827406
11
107.950171
21
232.082535
0
LINE
8
Layer 1
10
107.950171
20
232.082535
11
108.191220
21
232.715590
0
LINE
8
Layer 1
10
108.191220
20
232.715590
11
108.667122
21
233.986820
0
LINE
8
Layer 1
10
108.667122
20
233.986820
11
109.808659
21
236.504177
0
LINE
8
Layer 1
10
109.808659
20
236.504177
11
111.179412
21
238.983450
0
LINE
8
Layer 1
10
111.179412
20
238.983450
11
112.745494
21
241.424384
0
LINE
8
Layer 1
10
112.745494
20
241.424384
11
114.473022
21
243.826720
0
LINE
8
Layer 1
10
114.473022
20
243.826720
11
118.395015
21
248.584765
0
LINE
8
Layer 1
10
118.395015
20
248.584765
11
122.600532
21
253.094160
0
LINE
8
Layer 1
10
122.600532
20
253.094160
11
131.768019
21
262.187263
0
LINE
8
Layer 1
10
131.768019
20
262.187263
11
136.423168
21
266.900517
0
LINE
8
Layer 1
10
136.423168
20
266.900517
11
140.963632
21
271.870360
0
LINE
8
Layer 1
10
140.963632
20
271.870360
11
145.048932
21
276.991160
0
LINE
8
Layer 1
10
145.048932
20
276.991160
11
149.041720
21
278.646694
0
LINE
8
Layer 1
10
149.041720
20
278.646694
11
152.959772
21
280.165930
0
LINE
8
Layer 1
10
152.959772
20
280.165930
11
155.458594
21
280.987728
0
LINE
8
Layer 1
10
155.458594
20
280.987728
11
158.006972
21
281.639830
0
LINE
8
Layer 1
10
158.006972
20
281.639830
11
160.551176
21
282.036577
0
LINE
8
Layer 1
10
160.551176
20
282.036577
11
163.123652
21
282.149523
0
LINE
8
Layer 1
10
163.123652
20
282.149523
11
165.681273
21
281.914593
0
LINE
8
Layer 1
10
165.681273
20
281.914593
11
168.177592
21
281.310432
0
LINE
8
Layer 1
10
168.177592
20
281.310432
11
169.351953
21
280.837054
0
LINE
8
Layer 1
10
169.351953
20
280.837054
11
170.464858
21
280.234696
0
LINE
8
Layer 1
10
170.464858
20
280.234696
11
171.478180
21
279.495626
0
LINE
8
Layer 1
10
171.478180
20
279.495626
11
172.353792
21
278.612112
0
LINE
8
Layer 1
10
172.353792
20
278.612112
11
173.039501
21
277.584822
0
LINE
8
Layer 1
10
173.039501
20
277.584822
11
173.438913
21
276.458832
0
LINE
8
Layer 1
10
173.438913
20
276.458832
11
173.444760
21
275.268670
0
LINE
8
Layer 1
10
173.444760
20
275.268670
11
172.983212
21
274.171632
0
LINE
8
Layer 1
10
172.983212
20
274.171632
11
172.057297
21
273.337387
0
LINE
8
Layer 1
10
172.057297
20
273.337387
11
170.842322
21
272.818662
0
LINE
8
Layer 1
10
170.842322
20
272.818662
11
169.498605
21
272.538679
0
LINE
8
Layer 1
10
169.498605
20
272.538679
11
168.132342
21
272.407196
0
LINE
8
Layer 1
10
168.132342
20
272.407196
11
169.529029
21
272.351489
0
LINE
8
Layer 1
10
169.529029
20
272.351489
11
170.923392
21
272.449414
0
LINE
8
Layer 1
10
170.923392
20
272.449414
11
172.344385
21
272.845400
0
LINE
8
Layer 1
10
172.344385
20
272.845400
11
173.559302
21
273.682064
0
LINE
8
Layer 1
10
173.559302
20
273.682064
11
174.028102
21
274.316511
0
LINE
8
Layer 1
10
174.028102
20
274.316511
11
174.357562
21
275.024753
0
LINE
8
Layer 1
10
174.357562
20
275.024753
11
174.539845
21
275.784307
0
LINE
8
Layer 1
10
174.539845
20
275.784307
11
174.567112
21
276.572694
0
LINE
8
Layer 1
10
174.567112
20
276.572694
11
174.255499
21
278.106174
0
LINE
8
Layer 1
10
174.255499
20
278.106174
11
173.588913
21
279.484394
0
LINE
8
Layer 1
10
173.588913
20
279.484394
11
172.673799
21
280.705165
0
LINE
8
Layer 1
10
172.673799
20
280.705165
11
171.587166
21
281.755934
0
LINE
8
Layer 1
10
171.587166
20
281.755934
11
170.371307
21
282.648895
0
LINE
8
Layer 1
10
170.371307
20
282.648895
11
169.068513
21
283.396244
0
LINE
8
Layer 1
10
169.068513
20
283.396244
11
166.306216
21
284.486349
0
LINE
8
Layer 1
10
166.306216
20
284.486349
11
163.413973
21
285.159804
0
LINE
8
Layer 1
10
163.413973
20
285.159804
11
160.462919
21
285.437720
0
LINE
8
Layer 1
10
160.462919
20
285.437720
11
157.499263
21
285.385838
0
LINE
8
Layer 1
10
157.499263
20
285.385838
11
154.605801
21
285.057820
0
LINE
8
Layer 1
10
154.605801
20
285.057820
11
151.741033
21
284.535503
0
LINE
8
Layer 1
10
151.741033
20
284.535503
11
149.402993
21
283.999944
0
LINE
8
Layer 1
10
149.402993
20
283.999944
11
150.708895
21
286.737441
0
LINE
8
Layer 1
10
150.708895
20
286.737441
11
151.796437
21
289.563891
0
LINE
8
Layer 1
10
151.796437
20
289.563891
11
152.661179
21
292.466268
0
LINE
8
Layer 1
10
152.661179
20
292.466268
11
153.298683
21
295.431544
0
LINE
8
Layer 1
10
153.298683
20
295.431544
11
155.536175
21
300.632308
0
LINE
8
Layer 1
10
155.536175
20
300.632308
11
156.849526
21
303.110438
0
LINE
8
Layer 1
10
156.849526
20
303.110438
11
158.322593
21
305.482244
0
LINE
8
Layer 1
10
158.322593
20
305.482244
11
160.281612
21
308.093991
0
LINE
8
Layer 1
10
160.281612
20
308.093991
11
162.481386
21
310.510503
0
LINE
8
Layer 1
10
162.481386
20
310.510503
11
164.931989
21
312.625902
0
LINE
8
Layer 1
10
164.931989
20
312.625902
11
167.643493
21
314.334314
0
LINE
8
Layer 1
10
167.643493
20
314.334314
11
169.093409
21
315.005516
0
LINE
8
Layer 1
10
169.093409
20
315.005516
11
170.605681
21
315.504706
0
LINE
8
Layer 1
10
170.605681
20
315.504706
11
172.165091
21
315.827809
0
LINE
8
Layer 1
10
172.165091
20
315.827809
11
173.756423
21
315.970754
0
LINE
8
Layer 1
10
173.756423
20
315.970754
11
175.385978
21
315.907088
0
LINE
8
Layer 1
10
175.385978
20
315.907088
11
176.996073
21
315.676674
0
LINE
8
Layer 1
10
176.996073
20
315.676674
11
178.573963
21
315.282010
0
LINE
8
Layer 1
10
178.573963
20
315.282010
11
180.106903
21
314.725594
0
LINE
8
Layer 1
10
180.106903
20
314.725594
11
181.479143
21
313.931785
0
LINE
8
Layer 1
10
181.479143
20
313.931785
11
182.630773
21
312.842324
0
LINE
8
Layer 1
10
182.630773
20
312.842324
11
183.383125
21
311.471056
0
LINE
8
Layer 1
10
183.383125
20
311.471056
11
183.576654
21
309.918974
0
LINE
8
Layer 1
10
183.576654
20
309.918974
11
183.447383
21
309.109886
0
LINE
8
Layer 1
10
183.447383
20
309.109886
11
183.173722
21
308.344858
0
LINE
8
Layer 1
10
183.173722
20
308.344858
11
182.764530
21
307.642917
0
LINE
8
Layer 1
10
182.764530
20
307.642917
11
182.228664
21
307.023094
0
LINE
8
Layer 1
10
182.228664
20
307.023094
11
180.870611
21
306.036234
0
LINE
8
Layer 1
10
180.870611
20
306.036234
11
180.077292
21
305.747440
0
LINE
8
Layer 1
10
180.077292
20
305.747440
11
179.226734
21
305.663184
0
LINE
8
Layer 1
10
179.226734
20
305.663184
11
180.093257
21
305.666057
0
LINE
8
Layer 1
10
180.093257
20
305.666057
11
180.935519
21
305.884573
0
LINE
8
Layer 1
10
180.935519
20
305.884573
11
181.729352
21
306.271050
0
LINE
8
Layer 1
10
181.729352
20
306.271050
11
182.450594
21
306.777804
0
LINE
8
Layer 1
10
182.450594
20
306.777804
11
183.395984
21
307.785070
0
LINE
8
Layer 1
10
183.395984
20
307.785070
11
184.016941
21
308.990730
0
LINE
8
Layer 1
10
184.016941
20
308.990730
11
184.287075
21
310.319726
0
LINE
8
Layer 1
10
184.287075
20
310.319726
11
184.180000
21
311.697000
0
LINE
8
Layer 1
10
184.180000
20
311.697000
11
183.885091
21
312.590459
0
LINE
8
Layer 1
10
183.885091
20
312.590459
11
183.438541
21
313.418610
0
LINE
8
Layer 1
10
183.438541
20
313.418610
11
182.222723
21
314.819504
0
LINE
8
Layer 1
10
182.222723
20
314.819504
11
180.715381
21
315.900540
0
LINE
8
Layer 1
10
180.715381
20
315.900540
11
179.074160
21
316.683675
0
LINE
8
Layer 1
10
179.074160
20
316.683675
11
177.364927
21
317.289966
0
LINE
8
Layer 1
10
177.364927
20
317.289966
11
175.601904
21
317.715190
0
LINE
8
Layer 1
10
175.601904
20
317.715190
11
173.799311
21
317.955120
0
LINE
8
Layer 1
10
173.799311
20
317.955120
11
171.945708
21
317.965895
0
LINE
8
Layer 1
10
171.945708
20
317.965895
11
170.108871
21
317.766226
0
LINE
8
Layer 1
10
170.108871
20
317.766226
11
168.306628
21
317.359087
0
LINE
8
Layer 1
10
168.306628
20
317.359087
11
166.556811
21
316.747450
0
LINE
8
Layer 1
10
166.556811
20
316.747450
11
163.279067
21
315.100709
0
LINE
8
Layer 1
10
163.279067
20
315.100709
11
160.283351
21
312.983860
0
LINE
8
Layer 1
10
160.283351
20
312.983860
11
157.594324
21
310.549009
0
LINE
8
Layer 1
10
157.594324
20
310.549009
11
155.150231
21
307.868380
0
LINE
8
Layer 1
10
155.150231
20
307.868380
11
153.473121
21
305.674710
0
LINE
8
Layer 1
10
153.473121
20
305.674710
11
153.238538
21
307.107200
0
LINE
8
Layer 1
10
153.238538
20
307.107200
11
152.939044
21
308.823700
0
LINE
8
Layer 1
10
152.939044
20
308.823700
11
152.521855
21
310.568540
0
LINE
8
Layer 1
10
152.521855
20
310.568540
11
151.342073
21
313.961646
0
LINE
8
Layer 1
10
151.342073
20
313.961646
11
149.696425
21
317.134284
0
LINE
8
Layer 1
10
149.696425
20
317.134284
11
147.614019
21
320.038999
0
LINE
8
Layer 1
10
147.614019
20
320.038999
11
145.123965
21
322.628340
0
LINE
8
Layer 1
10
145.123965
20
322.628340
11
142.264389
21
324.768132
0
LINE
8
Layer 1
10
142.264389
20
324.768132
11
139.089000
21
326.403000
0
LINE
8
Layer 1
10
139.089000
20
326.403000
11
135.742199
21
327.459131
0
LINE
8
Layer 1
10
135.742199
20
327.459131
11
132.274470
21
327.998900
0
LINE
8
Layer 1
10
132.274470
20
327.998900
11
128.813306
21
328.002873
0
LINE
8
Layer 1
10
128.813306
20
328.002873
11
125.388830
21
327.500239
0
LINE
8
Layer 1
10
125.388830
20
327.500239
11
122.104205
21
326.472010
0
LINE
8
Layer 1
10
122.104205
20
326.472010
11
119.032150
21
324.920079
0
LINE
8
Layer 1
10
119.032150
20
324.920079
11
117.616475
21
323.930559
0
LINE
8
Layer 1
10
117.616475
20
323.930559
11
116.307790
21
322.780576
0
LINE
8
Layer 1
10
116.307790
20
322.780576
11
115.162575
21
321.462583
0
LINE
8
Layer 1
10
115.162575
20
321.462583
11
114.237310
21
319.969029
0
LINE
8
Layer 1
10
114.237310
20
319.969029
11
113.854335
21
319.182389
0
LINE
8
Layer 1
10
113.854335
20
319.182389
11
113.563728
21
318.358301
0
LINE
8
Layer 1
10
113.563728
20
318.358301
11
113.423949
21
317.946093
0
LINE
8
Layer 1
10
113.423949
20
317.946093
11
113.329405
21
317.521767
0
LINE
8
Layer 1
10
113.329405
20
317.521767
11
113.152734
21
316.673789
0
LINE
8
Layer 1
10
113.152734
20
316.673789
11
113.039423
21
314.972981
0
LINE
8
Layer 1
10
113.039423
20
314.972981
11
113.148695
21
313.271909
0
LINE
8
Layer 1
10
113.148695
20
313.271909
11
113.449748
21
311.623532
0
LINE
8
Layer 1
10
113.449748
20
311.623532
11
113.905808
21
310.027738
0
LINE
8
Layer 1
10
113.905808
20
310.027738
11
115.138215
21
306.977179
0
LINE
8
Layer 1
10
115.138215
20
306.977179
11
116.664585
21
304.097009
0
LINE
8
Layer 1
10
116.664585
20
304.097009
11
118.363685
21
301.315239
0
LINE
8
Layer 1
10
118.363685
20
301.315239
11
116.900568
21
304.206540
0
LINE
8
Layer 1
10
116.900568
20
304.206540
11
115.615995
21
307.181469
0
LINE
8
Layer 1
10
115.615995
20
307.181469
11
114.655608
21
310.242568
0
LINE
8
Layer 1
10
114.655608
20
310.242568
11
114.342173
21
311.798738
0
LINE
8
Layer 1
10
114.342173
20
311.798738
11
114.184245
21
313.363959
0
LINE
8
Layer 1
10
114.184245
20
313.363959
11
114.207215
21
314.906490
0
LINE
8
Layer 1
10
114.207215
20
314.906490
11
114.429603
21
316.433079
0
LINE
8
Layer 1
10
114.429603
20
316.433079
11
114.645065
21
317.160930
0
LINE
8
Layer 1
10
114.645065
20
317.160930
11
114.754951
21
317.522098
0
LINE
8
Layer 1
10
114.754951
20
317.522098
11
114.906312
21
317.867848
0
LINE
8
Layer 1
10
114.906312
20
317.867848
11
115.210384
21
318.554232
0
LINE
8
Layer 1
10
115.210384
20
318.554232
11
115.593359
21
319.199541
0
LINE
8
Layer 1
10
115.593359
20
319.199541
11
116.475494
21
320.399627
0
LINE
8
Layer 1
10
116.475494
20
320.399627
11
117.544775
21
321.446620
0
LINE
8
Layer 1
10
117.544775
20
321.446620
11
118.757069
21
322.349551
0
LINE
8
Layer 1
10
118.757069
20
322.349551
11
120.068239
21
323.117451
0
LINE
8
Layer 1
10
120.068239
20
323.117451
11
122.899038
21
324.272404
0
LINE
8
Layer 1
10
122.899038
20
324.272404
11
125.869594
21
324.945800
0
LINE
8
Layer 1
10
125.869594
20
324.945800
11
128.901916
21
325.150843
0
LINE
8
Layer 1
10
128.901916
20
325.150843
11
131.918013
21
324.900740
0
LINE
8
Layer 1
10
131.918013
20
324.900740
11
134.839894
21
324.208694
0
LINE
8
Layer 1
10
134.839894
20
324.208694
11
137.589570
21
323.087913
0
LINE
8
Layer 1
10
137.589570
20
323.087913
11
140.089048
21
321.551600
0
LINE
8
Layer 1
10
140.089048
20
321.551600
11
142.260339
21
319.612961
0
LINE
8
Layer 1
10
142.260339
20
319.612961
11
144.108167
21
317.352877
0
LINE
8
Layer 1
10
144.108167
20
317.352877
11
145.605350
21
314.864048
0
LINE
8
Layer 1
10
145.605350
20
314.864048
11
146.731422
21
312.186774
0
LINE
8
Layer 1
10
146.731422
20
312.186774
11
147.465919
21
309.361361
0
LINE
8
Layer 1
10
147.465919
20
309.361361
11
147.687847
21
307.923221
0
LINE
8
Layer 1
10
147.687847
20
307.923221
11
147.824126
21
306.421051
0
LINE
8
Layer 1
10
147.824126
20
306.421051
11
147.934551
21
304.924601
0
LINE
8
Layer 1
10
147.934551
20
304.924601
11
147.940743
21
303.432861
0
LINE
8
Layer 1
10
147.940743
20
303.432861
11
147.774524
21
300.490112
0
LINE
8
Layer 1
10
147.774524
20
300.490112
11
147.322112
21
297.577601
0
LINE
8
Layer 1
10
147.322112
20
297.577601
11
146.558681
21
294.753737
0
LINE
8
Layer 1
10
146.558681
20
294.753737
11
145.510714
21
292.020692
0
LINE
8
Layer 1
10
145.510714
20
292.020692
11
144.210403
21
289.380776
0
LINE
8
Layer 1
10
144.210403
20
289.380776
11
142.689942
21
286.836301
0
LINE
8
Layer 1
10
142.689942
20
286.836301
11
140.973023
21
284.384027
0
LINE
8
Layer 1
10
140.973023
20
284.384027
11
139.077009
21
282.024398
0
LINE
8
Layer 1
10
139.077009
20
282.024398
11
134.872432
21
277.533511
0
LINE
8
Layer 1
10
134.872432
20
277.533511
11
129.899022
21
272.919321
0
LINE
8
Layer 1
10
129.899022
20
272.919321
11
129.235668
21
275.530181
0
LINE
8
Layer 1
10
129.235668
20
275.530181
11
128.492375
21
277.448325
0
LINE
8
Layer 1
10
128.492375
20
277.448325
11
127.554788
21
279.279361
0
LINE
8
Layer 1
10
127.554788
20
279.279361
11
126.411531
21
280.986377
0
LINE
8
Layer 1
10
126.411531
20
280.986377
11
125.083708
21
282.554121
0
LINE
8
Layer 1
10
125.083708
20
282.554121
11
123.582837
21
283.953989
0
LINE
8
Layer 1
10
123.582837
20
283.953989
11
121.916606
21
285.136808
0
LINE
8
Layer 1
10
121.916606
20
285.136808
11
120.108273
21
286.088291
0
LINE
8
Layer 1
10
120.108273
20
286.088291
11
118.181098
21
286.794151
0
LINE
8
Layer 1
10
118.181098
20
286.794151
11
116.225322
21
287.215415
0
LINE
8
Layer 1
10
116.225322
20
287.215415
11
114.230598
21
287.369037
0
LINE
8
Layer 1
10
114.230598
20
287.369037
11
113.247551
21
287.360218
0
LINE
8
Layer 1
10
113.247551
20
287.360218
11
112.275276
21
287.283256
0
LINE
8
Layer 1
10
112.275276
20
287.283256
11
110.295716
21
286.927812
0
LINE
8
Layer 1
10
110.295716
20
286.927812
11
108.372595
21
286.178504
0
LINE
8
Layer 1
10
108.372595
20
286.178504
11
106.664086
21
285.020552
0
LINE
8
Layer 1
10
106.664086
20
285.020552
11
105.931299
21
284.262794
0
LINE
8
Layer 1
10
105.931299
20
284.262794
11
105.331652
21
283.403833
0
LINE
8
Layer 1
10
105.331652
20
283.403833
11
104.875255
21
282.460916
0
LINE
8
Layer 1
10
104.875255
20
282.460916
11
104.572216
21
281.451292
0
LINE
8
Layer 1
10
104.572216
20
281.451292
11
104.449079
21
279.477118
0
LINE
8
Layer 1
10
104.449079
20
279.477118
11
104.840197
21
277.538162
0
LINE
8
Layer 1
10
104.840197
20
277.538162
11
105.550473
21
275.831421
0
LINE
8
Layer 1
10
105.550473
20
275.831421
11
106.482827
21
274.235122
0
LINE
8
Layer 1
10
106.482827
20
274.235122
11
108.568433
21
271.344205
0
LINE
8
Layer 1
10
108.568433
20
271.344205
11
109.592148
21
269.910736
0
LINE
8
Layer 1
10
109.592148
20
269.910736
11
110.513047
21
268.405522
0
LINE
8
Layer 1
10
110.513047
20
268.405522
11
109.796508
21
270.029300
0
LINE
8
Layer 1
10
109.796508
20
270.029300
11
108.965894
21
271.599912
0
LINE
8
Layer 1
10
108.965894
20
271.599912
11
107.306437
21
274.698512
0
LINE
8
Layer 1
10
107.306437
20
274.698512
11
106.653531
21
276.255756
0
LINE
8
Layer 1
10
106.653531
20
276.255756
11
106.214577
21
277.886282
0
LINE
8
Layer 1
10
106.214577
20
277.886282
11
106.102690
21
279.433057
0
LINE
8
Layer 1
10
106.102690
20
279.433057
11
106.396373
21
280.955812
0
LINE
8
Layer 1
10
106.396373
20
280.955812
11
107.087533
21
282.205643
0
LINE
8
Layer 1
10
107.087533
20
282.205643
11
108.137583
21
283.173722
0
LINE
8
Layer 1
10
108.137583
20
283.173722
11
109.457264
21
283.816271
0
LINE
8
Layer 1
10
109.457264
20
283.816271
11
110.885533
21
284.154616
0
LINE
8
Layer 1
10
110.885533
20
284.154616
11
112.408853
21
284.214675
0
LINE
8
Layer 1
10
112.408853
20
284.214675
11
113.202295
21
284.170976
0
LINE
8
Layer 1
10
113.202295
20
284.170976
11
113.982269
21
284.070719
0
LINE
8
Layer 1
10
113.982269
20
284.070719
11
115.484487
21
283.749844
0
LINE
8
Layer 1
10
115.484487
20
283.749844
11
116.928989
21
283.227318
0
LINE
8
Layer 1
10
116.928989
20
283.227318
11
118.260818
21
282.529015
0
LINE
8
Layer 1
10
118.260818
20
282.529015
11
119.467685
21
281.659975
0
LINE
8
Layer 1
10
119.467685
20
281.659975
11
120.543728
21
280.641798
0
LINE
8
Layer 1
10
120.543728
20
280.641798
11
121.483086
21
279.496086
0
LINE
8
Layer 1
10
121.483086
20
279.496086
11
122.279899
21
278.244438
0
LINE
8
Layer 1
10
122.279899
20
278.244438
11
122.928305
21
276.908457
0
LINE
8
Layer 1
10
122.928305
20
276.908457
11
123.422442
21
275.509744
0
LINE
8
Layer 1
10
123.422442
20
275.509744
11
123.756449
21
274.069898
0
LINE
8
Layer 1
10
123.756449
20
274.069898
11
123.946141
21
272.640930
0
LINE
8
Layer 1
10
123.946141
20
272.640930
11
123.980298
21
271.204016
0
LINE
8
Layer 1
10
123.980298
20
271.204016
11
123.859304
21
269.771799
0
LINE
8
Layer 1
10
123.859304
20
269.771799
11
123.583540
21
268.356918
0
LINE
8
Layer 1
10
123.583540
20
268.356918
11
123.224794
21
267.226338
0
LINE
8
Layer 1
10
123.224794
20
267.226338
11
115.455224
21
260.645518
0
LINE
8
Layer 1
10
115.455224
20
260.645518
11
110.413642
21
256.032047
0
LINE
8
Layer 1
10
110.413642
20
256.032047
11
105.663814
21
251.118718
0
LINE
8
Layer 1
10
105.663814
20
251.118718
11
102.625697
21
247.470884
0
LINE
8
Layer 1
10
102.625697
20
247.470884
11
99.870844
21
243.604668
0
LINE
8
Layer 1
10
99.870844
20
243.604668
11
97.609564
21
248.210648
0
LINE
8
Layer 1
10
97.609564
20
248.210648
11
95.090544
21
252.530468
0
LINE
8
Layer 1
10
95.090544
20
252.530468
11
84.781744
21
268.811568
0
LINE
8
Layer 1
10
84.781744
20
268.811568
11
83.953561
21
270.161838
0
LINE
8
Layer 1
10
83.953561
20
270.161838
11
84.172885
21
271.591891
0
LINE
8
Layer 1
10
84.172885
20
271.591891
11
84.545273
21
272.989918
0
LINE
8
Layer 1
10
84.545273
20
272.989918
11
85.291165
21
274.949206
0
LINE
8
Layer 1
10
85.291165
20
274.949206
11
86.262207
21
276.912113
0
LINE
8
Layer 1
10
86.262207
20
276.912113
11
88.697233
21
280.831938
0
LINE
8
Layer 1
10
88.697233
20
280.831938
11
91.498312
21
284.783701
0
LINE
8
Layer 1
10
91.498312
20
284.783701
11
94.378973
21
288.913528
0
LINE
8
Layer 1
10
94.378973
20
288.913528
11
95.768337
21
291.135356
0
LINE
8
Layer 1
10
95.768337
20
291.135356
11
97.020003
21
293.437568
0
LINE
8
Layer 1
10
97.020003
20
293.437568
11
98.051726
21
295.944435
0
LINE
8
Layer 1
10
98.051726
20
295.944435
11
98.806900
21
298.548000
0
LINE
8
Layer 1
10
98.806900
20
298.548000
11
99.231825
21
301.285992
0
LINE
8
Layer 1
10
99.231825
20
301.285992
11
99.233515
21
304.056760
0
LINE
8
Layer 1
10
99.233515
20
304.056760
11
99.034749
21
305.499420
0
LINE
8
Layer 1
10
99.034749
20
305.499420
11
98.643146
21
306.908000
0
LINE
8
Layer 1
10
98.643146
20
306.908000
11
98.096699
21
308.218042
0
LINE
8
Layer 1
10
98.096699
20
308.218042
11
97.403166
21
309.456520
0
LINE
8
Layer 1
10
97.403166
20
309.456520
11
95.722024
21
311.608398
0
LINE
8
Layer 1
10
95.722024
20
311.608398
11
93.666506
21
313.406080
0
LINE
8
Layer 1
10
93.666506
20
313.406080
11
91.352973
21
314.772818
0
LINE
8
Layer 1
10
91.352973
20
314.772818
11
88.814026
21
315.652680
0
LINE
8
Layer 1
10
88.814026
20
315.652680
11
87.480045
21
315.879337
0
LINE
8
Layer 1
10
87.480045
20
315.879337
11
86.134185
21
315.913613
0
LINE
8
Layer 1
10
86.134185
20
315.913613
11
84.797092
21
315.756453
0
LINE
8
Layer 1
10
84.797092
20
315.756453
11
83.489416
21
315.408804
0
LINE
8
Layer 1
10
83.489416
20
315.408804
11
82.295085
21
314.855307
0
LINE
8
Layer 1
10
82.295085
20
314.855307
11
81.202754
21
314.133828
0
LINE
8
Layer 1
10
81.202754
20
314.133828
11
80.229900
21
313.257886
0
LINE
8
Layer 1
10
80.229900
20
313.257886
11
79.394000
21
312.241000
0
LINE
8
Layer 1
10
79.394000
20
312.241000
11
78.697853
21
311.157064
0
LINE
8
Layer 1
10
78.697853
20
311.157064
11
78.193870
21
309.971510
0
LINE
8
Layer 1
10
78.193870
20
309.971510
11
77.978089
21
308.700055
0
LINE
8
Layer 1
10
77.978089
20
308.700055
11
78.109570
21
307.417140
0
LINE
8
Layer 1
10
78.109570
20
307.417140
11
78.613896
21
306.253701
0
LINE
8
Layer 1
10
78.613896
20
306.253701
11
79.431735
21
305.322492
0
LINE
8
Layer 1
10
79.431735
20
305.322492
11
80.492893
21
304.682217
0
LINE
8
Layer 1
10
80.492893
20
304.682217
11
81.727180
21
304.391580
0
LINE
8
Layer 1
10
81.727180
20
304.391580
11
80.573940
21
304.747533
0
LINE
8
Layer 1
10
80.573940
20
304.747533
11
79.607544
21
305.424058
0
LINE
8
Layer 1
10
79.607544
20
305.424058
11
78.890760
21
306.360983
0
LINE
8
Layer 1
10
78.890760
20
306.360983
11
78.486360
21
307.498140
0
LINE
8
Layer 1
10
78.486360
20
307.498140
11
78.458408
21
308.659578
0
LINE
8
Layer 1
10
78.458408
20
308.659578
11
78.741952
21
309.786220
0
LINE
8
Layer 1
10
78.741952
20
309.786220
11
79.275761
21
310.812830
0
LINE
8
Layer 1
10
79.275761
20
310.812830
11
80.022069
21
311.726998
0
LINE
8
Layer 1
10
80.022069
20
311.726998
11
80.849637
21
312.525360
0
LINE
8
Layer 1
10
80.849637
20
312.525360
11
81.781982
21
313.187478
0
LINE
8
Layer 1
10
81.781982
20
313.187478
11
82.802538
21
313.703358
0
LINE
8
Layer 1
10
82.802538
20
313.703358
11
83.894739
21
314.063008
0
LINE
8
Layer 1
10
83.894739
20
314.063008
11
84.996811
21
314.216764
0
LINE
8
Layer 1
10
84.996811
20
314.216764
11
86.103923
21
314.211693
0
LINE
8
Layer 1
10
86.103923
20
314.211693
11
87.199040
21
314.049090
0
LINE
8
Layer 1
10
87.199040
20
314.049090
11
88.265129
21
313.730254
0
LINE
8
Layer 1
10
88.265129
20
313.730254
11
90.251835
21
312.748247
0
LINE
8
Layer 1
10
90.251835
20
312.748247
11
92.003121
21
311.421934
0
LINE
8
Layer 1
10
92.003121
20
311.421934
11
93.475322
21
309.791372
0
LINE
8
Layer 1
10
93.475322
20
309.791372
11
94.624769
21
307.896614
0
LINE
8
Layer 1
10
94.624769
20
307.896614
11
95.300245
21
305.930784
0
LINE
8
Layer 1
10
95.300245
20
305.930784
11
95.446222
21
304.943428
0
LINE
8
Layer 1
10
95.446222
20
304.943428
11
95.455649
21
303.939368
0
LINE
8
Layer 1
10
95.455649
20
303.939368
11
95.188629
21
301.808396
0
LINE
8
Layer 1
10
95.188629
20
301.808396
11
94.600000
21
299.743000
0
LINE
8
Layer 1
10
94.600000
20
299.743000
11
93.728058
21
297.711890
0
LINE
8
Layer 1
10
93.728058
20
297.711890
11
92.647100
21
295.783880
0
LINE
8
Layer 1
10
92.647100
20
295.783880
11
90.034350
21
292.007840
0
LINE
8
Layer 1
10
90.034350
20
292.007840
11
83.812340
21
284.445380
0
LINE
8
Layer 1
10
83.812340
20
284.445380
11
81.476492
21
281.332763
0
LINE
8
Layer 1
10
81.476492
20
281.332763
11
79.424450
21
278.026150
0
LINE
8
Layer 1
10
79.424450
20
278.026150
11
77.603726
21
281.586360
0
LINE
8
Layer 1
10
77.603726
20
281.586360
11
75.944200
21
285.202460
0
LINE
8
Layer 1
10
75.944200
20
285.202460
11
74.259305
21
289.471374
0
LINE
8
Layer 1
10
74.259305
20
289.471374
11
72.863592
21
293.832350
0
LINE
8
Layer 1
10
72.863592
20
293.832350
11
71.788599
21
298.277356
0
LINE
8
Layer 1
10
71.788599
20
298.277356
11
71.065860
21
302.798360
0
LINE
8
Layer 1
10
71.065860
20
302.798360
11
70.747862
21
307.323437
0
LINE
8
Layer 1
10
70.747862
20
307.323437
11
70.920154
21
311.856400
0
LINE
8
Layer 1
10
70.920154
20
311.856400
11
71.209570
21
314.069933
0
LINE
8
Layer 1
10
71.209570
20
314.069933
11
71.685988
21
316.246726
0
LINE
8
Layer 1
10
71.685988
20
316.246726
11
72.346289
21
318.374967
0
LINE
8
Layer 1
10
72.346289
20
318.374967
11
73.187354
21
320.442840
0
LINE
8
Layer 1
10
73.187354
20
320.442840
11
74.239056
21
322.393284
0
LINE
8
Layer 1
10
74.239056
20
322.393284
11
75.498454
21
324.216530
0
LINE
8
Layer 1
10
75.498454
20
324.216530
11
76.954984
21
325.881380
0
LINE
8
Layer 1
10
76.954984
20
325.881380
11
78.624200
21
327.319000
0
LINE
8
Layer 1
10
78.624200
20
327.319000
11
80.539334
21
328.572068
0
LINE
8
Layer 1
10
80.539334
20
328.572068
11
82.565712
21
329.623414
0
LINE
8
Layer 1
10
82.565712
20
329.623414
11
84.687483
21
330.465803
0
LINE
8
Layer 1
10
84.687483
20
330.465803
11
86.888800
21
331.092000
0
LINE
8
Layer 1
10
86.888800
20
331.092000
11
89.161860
21
331.495030
0
LINE
8
Layer 1
10
89.161860
20
331.495030
11
91.466840
21
331.622710
0
LINE
8
Layer 1
10
91.466840
20
331.622710
11
93.754446
21
331.417251
0
LINE
8
Layer 1
10
93.754446
20
331.417251
11
95.964890
21
330.793316
0
LINE
8
Layer 1
10
95.964890
20
330.793316
11
97.008972
21
330.295369
0
LINE
8
Layer 1
10
97.008972
20
330.295369
11
97.966498
21
329.656832
0
LINE
8
Layer 1
10
97.966498
20
329.656832
11
98.823451
21
328.888574
0
LINE
8
Layer 1
10
98.823451
20
328.888574
11
99.565810
21
328.001466
0
LINE
8
Layer 1
10
99.565810
20
328.001466
11
100.657068
21
325.898289
0
LINE
8
Layer 1
10
100.657068
20
325.898289
11
101.213560
21
323.595136
0
LINE
8
Layer 1
10
101.213560
20
323.595136
11
100.864709
21
325.998624
0
LINE
8
Layer 1
10
100.864709
20
325.998624
11
99.950140
21
328.248516
0
LINE
8
Layer 1
10
99.950140
20
328.248516
11
99.239066
21
329.279377
0
LINE
8
Layer 1
10
99.239066
20
329.279377
11
98.392822
21
330.193957
0
LINE
8
Layer 1
10
98.392822
20
330.193957
11
97.425352
21
330.979187
0
LINE
8
Layer 1
10
97.425352
20
330.979187
11
96.350600
21
331.622000
0
LINE
8
Layer 1
10
96.350600
20
331.622000
11
94.014283
21
332.529788
0
LINE
8
Layer 1
10
94.014283
20
332.529788
11
91.550600
21
332.991000
0
LINE
8
Layer 1
10
91.550600
20
332.991000
11
89.053461
21
333.090633
0
LINE
8
Layer 1
10
89.053461
20
333.090633
11
86.562380
21
332.890272
0
LINE
8
Layer 1
10
86.562380
20
332.890272
11
84.079015
21
332.429555
0
LINE
8
Layer 1
10
84.079015
20
332.429555
11
81.661035
21
331.722190
0
LINE
8
Layer 1
10
81.661035
20
331.722190
11
79.326732
21
330.774548
0
LINE
8
Layer 1
10
79.326732
20
330.774548
11
77.094400
21
329.593000
0
LINE
8
Layer 1
10
77.094400
20
329.593000
11
74.969200
21
328.089000
0
LINE
8
Layer 1
10
74.969200
20
328.089000
11
73.533129
21
326.773917
0
LINE
8
Layer 1
10
73.533129
20
326.773917
11
72.216367
21
325.344147
0
LINE
8
Layer 1
10
72.216367
20
325.344147
11
71.025735
21
323.807755
0
LINE
8
Layer 1
10
71.025735
20
323.807755
11
69.968050
21
322.172810
0
LINE
8
Layer 1
10
69.968050
20
322.172810
11
68.770159
21
319.886971
0
LINE
8
Layer 1
10
68.770159
20
319.886971
11
67.773535
21
317.511559
0
LINE
8
Layer 1
10
67.773535
20
317.511559
11
66.983081
21
315.059821
0
LINE
8
Layer 1
10
66.983081
20
315.059821
11
66.403700
21
312.545000
0
LINE
8
Layer 1
10
66.403700
20
312.545000
11
66.017081
21
310.228910
0
LINE
8
Layer 1
10
66.017081
20
310.228910
11
65.359247
21
311.735130
0
LINE
8
Layer 1
10
65.359247
20
311.735130
11
63.268727
21
315.938460
0
LINE
8
Layer 1
10
63.268727
20
315.938460
11
61.930544
21
318.002866
0
LINE
8
Layer 1
10
61.930544
20
318.002866
11
60.365367
21
319.900950
0
LINE
8
Layer 1
10
60.365367
20
319.900950
11
58.507533
21
321.595503
0
LINE
8
Layer 1
10
58.507533
20
321.595503
11
56.397887
21
322.963880
0
LINE
8
Layer 1
10
56.397887
20
322.963880
11
54.171826
21
323.967149
0
LINE
8
Layer 1
10
54.171826
20
323.967149
11
51.834127
21
324.672170
0
LINE
8
Layer 1
10
51.834127
20
324.672170
11
49.442957
21
325.068257
0
LINE
8
Layer 1
10
49.442957
20
325.068257
11
47.020157
21
325.136222
0
LINE
8
Layer 1
10
47.020157
20
325.136222
11
44.591919
21
324.820269
0
LINE
8
Layer 1
10
44.591919
20
324.820269
11
42.260327
21
324.072042
0
LINE
8
Layer 1
10
42.260327
20
324.072042
11
41.697161
21
323.820354
0
LINE
8
Layer 1
10
41.697161
20
323.820354
11
41.155543
21
323.521334
0
LINE
8
Layer 1
10
41.155543
20
323.521334
11
40.622541
21
323.209857
0
LINE
8
Layer 1
10
40.622541
20
323.209857
11
40.117553
21
322.852053
0
LINE
8
Layer 1
10
40.117553
20
322.852053
11
39.149752
21
322.058889
0
LINE
8
Layer 1
10
39.149752
20
322.058889
11
38.309823
21
321.131383
0
LINE
8
Layer 1
10
38.309823
20
321.131383
11
37.627690
21
320.108494
0
LINE
8
Layer 1
10
37.627690
20
320.108494
11
37.088663
21
319.009384
0
LINE
8
Layer 1
10
37.088663
20
319.009384
11
36.698859
21
317.848934
0
LINE
8
Layer 1
10
36.698859
20
317.848934
11
36.464393
21
316.642023
0
LINE
8
Layer 1
10
36.464393
20
316.642023
11
36.414835
21
314.240423
0
LINE
8
Layer 1
10
36.414835
20
314.240423
11
36.649146
21
313.050272
0
LINE
8
Layer 1
10
36.649146
20
313.050272
11
37.071995
21
311.913363
0
LINE
8
Layer 1
10
37.071995
20
311.913363
11
37.665666
21
310.871957
0
LINE
8
Layer 1
10
37.665666
20
310.871957
11
38.423975
21
309.954888
0
LINE
8
Layer 1
10
38.423975
20
309.954888
11
39.328149
21
309.181250
0
LINE
8
Layer 1
10
39.328149
20
309.181250
11
40.359415
21
308.570133
0
LINE
8
Layer 1
10
40.359415
20
308.570133
11
41.451238
21
308.150746
0
LINE
8
Layer 1
10
41.451238
20
308.150746
11
42.585136
21
307.906086
0
LINE
8
Layer 1
10
42.585136
20
307.906086
11
43.735945
21
307.832262
0
LINE
8
Layer 1
10
43.735945
20
307.832262
11
44.878501
21
307.925386
0
LINE
8
Layer 1
10
44.878501
20
307.925386
11
45.987639
21
308.181568
0
LINE
8
Layer 1
10
45.987639
20
308.181568
11
47.038195
21
308.596919
0
LINE
8
Layer 1
10
47.038195
20
308.596919
11
48.005005
21
309.167551
0
LINE
8
Layer 1
10
48.005005
20
309.167551
11
48.862905
21
309.889573
0
LINE
8
Layer 1
10
48.862905
20
309.889573
11
47.954185
21
309.247101
0
LINE
8
Layer 1
10
47.954185
20
309.247101
11
46.963172
21
308.769913
0
LINE
8
Layer 1
10
46.963172
20
308.769913
11
45.915310
21
308.455513
0
LINE
8
Layer 1
10
45.915310
20
308.455513
11
44.836045
21
308.301404
0
LINE
8
Layer 1
10
44.836045
20
308.301404
11
43.750821
21
308.305088
0
LINE
8
Layer 1
10
43.750821
20
308.305088
11
42.685083
21
308.464067
0
LINE
8
Layer 1
10
42.685083
20
308.464067
11
41.664276
21
308.775844
0
LINE
8
Layer 1
10
41.664276
20
308.775844
11
40.713845
21
309.237922
0
LINE
8
Layer 1
10
40.713845
20
309.237922
11
39.867792
21
309.837488
0
LINE
8
Layer 1
10
39.867792
20
309.837488
11
39.143077
21
310.568479
0
LINE
8
Layer 1
10
39.143077
20
310.568479
11
38.554599
21
311.413021
0
LINE
8
Layer 1
10
38.554599
20
311.413021
11
38.117255
21
312.353242
0
LINE
8
Layer 1
10
38.117255
20
312.353242
11
37.845075
21
313.331596
0
LINE
8
Layer 1
10
37.845075
20
313.331596
11
37.733998
21
314.341012
0
LINE
8
Layer 1
10
37.733998
20
314.341012
11
37.953502
21
316.378612
0
LINE
8
Layer 1
10
37.953502
20
316.378612
11
38.618536
21
318.265384
0
LINE
8
Layer 1
10
38.618536
20
318.265384
11
39.754232
21
319.912312
0
LINE
8
Layer 1
10
39.754232
20
319.912312
11
41.278092
21
321.126912
0
LINE
8
Layer 1
10
41.278092
20
321.126912
11
41.705514
21
321.379811
0
LINE
8
Layer 1
10
41.705514
20
321.379811
11
42.156101
21
321.591571
0
LINE
8
Layer 1
10
42.156101
20
321.591571
11
42.608571
21
321.795053
0
LINE
8
Layer 1
10
42.608571
20
321.795053
11
43.080446
21
321.957331
0
LINE
8
Layer 1
10
43.080446
20
321.957331
11
45.027921
21
322.402645
0
LINE
8
Layer 1
10
45.027921
20
322.402645
11
47.040642
21
322.489303
0
LINE
8
Layer 1
10
47.040642
20
322.489303
11
49.061847
21
322.259510
0
LINE
8
Layer 1
10
49.061847
20
322.259510
11
51.034776
21
321.755469
0
LINE
8
Layer 1
10
51.034776
20
321.755469
11
52.909375
21
321.012192
0
LINE
8
Layer 1
10
52.909375
20
321.012192
11
54.671766
21
320.032109
0
LINE
8
Layer 1
10
54.671766
20
320.032109
11
56.205525
21
318.839349
0
LINE
8
Layer 1
10
56.205525
20
318.839349
11
57.521600
21
317.410000
0
LINE
8
Layer 1
10
57.521600
20
317.410000
11
58.642242
21
315.783654
0
LINE
8
Layer 1
10
58.642242
20
315.783654
11
59.589770
21
313.996159
0
LINE
8
Layer 1
10
59.589770
20
313.996159
11
61.141640
21
310.064960
0
LINE
8
Layer 1
10
61.141640
20
310.064960
11
61.851047
21
307.972620
0
LINE
8
Layer 1
10
61.851047
20
307.972620
11
62.524098
21
305.894620
0
LINE
8
Layer 1
10
62.524098
20
305.894620
11
63.816868
21
301.655670
0
LINE
8
Layer 1
10
63.816868
20
301.655670
11
65.019046
21
297.806811
0
LINE
8
Layer 1
10
65.019046
20
297.806811
11
66.382618
21
293.922050
0
LINE
8
Layer 1
10
66.382618
20
293.922050
11
67.520324
21
288.233282
0
LINE
8
Layer 1
10
67.520324
20
288.233282
11
69.094618
21
282.649550
0
LINE
8
Layer 1
10
69.094618
20
282.649550
11
70.755012
21
277.924421
0
LINE
8
Layer 1
10
70.755012
20
277.924421
11
72.627627
21
273.311496
0
LINE
8
Layer 1
10
72.627627
20
273.311496
11
76.792278
21
264.377850
0
LINE
8
Layer 1
10
76.792278
20
264.377850
11
77.076823
21
263.813338
0
LINE
8
Layer 1
10
77.076823
20
263.813338
11
77.132170
21
263.548924
0
LINE
8
Layer 1
10
77.132170
20
263.548924
11
77.200984
21
263.566969
0
LINE
8
Layer 1
10
77.200984
20
263.566969
11
85.484834
21
247.243069
0
LINE
8
Layer 1
10
85.484834
20
247.243069
11
86.506934
21
245.134499
0
LINE
8
Layer 1
10
86.506934
20
245.134499
11
87.014618
21
244.096379
0
LINE
8
Layer 1
10
87.014618
20
244.096379
11
87.489174
21
243.084179
0
LINE
8
Layer 1
10
87.489174
20
243.084179
11
89.095714
21
239.145459
0
LINE
8
Layer 1
10
89.095714
20
239.145459
11
90.202770
21
235.187938
0
LINE
8
Layer 1
10
90.202770
20
235.187938
11
90.826414
21
231.126089
0
LINE
8
Layer 1
10
90.826414
20
231.126089
11
91.047825
21
227.479356
0
LINE
8
Layer 1
10
91.047825
20
227.479356
11
91.028409
21
223.825959
0
LINE
8
Layer 1
10
91.028409
20
223.825959
11
89.167889
21
227.106099
0
LINE
8
Layer 1
10
89.167889
20
227.106099
11
86.467724
21
231.534628
0
LINE
8
Layer 1
10
86.467724
20
231.534628
11
83.598710
21
235.853336
0
LINE
8
Layer 1
10
83.598710
20
235.853336
11
80.564188
21
240.057402
0
LINE
8
Layer 1
10
80.564188
20
240.057402
11
77.367500
21
244.142000
0
LINE
8
Layer 1
10
77.367500
20
244.142000
11
75.706820
21
246.128300
0
LINE
8
Layer 1
10
75.706820
20
246.128300
11
74.004130
21
248.077290
0
LINE
8
Layer 1
10
74.004130
20
248.077290
11
72.202060
21
250.024260
0
LINE
8
Layer 1
10
72.202060
20
250.024260
11
70.348600
21
251.889000
0
LINE
8
Layer 1
10
70.348600
20
251.889000
11
66.530338
21
255.403470
0
LINE
8
Layer 1
10
66.530338
20
255.403470
11
62.621580
21
258.689730
0
LINE
8
Layer 1
10
62.621580
20
258.689730
11
61.209090
21
259.823200
0
LINE
8
Layer 1
10
61.209090
20
259.823200
11
61.458372
21
262.855144
0
LINE
8
Layer 1
10
61.458372
20
262.855144
11
61.342867
21
265.884250
0
LINE
8
Layer 1
10
61.342867
20
265.884250
11
60.865796
21
268.877781
0
LINE
8
Layer 1
10
60.865796
20
268.877781
11
60.030380
21
271.803000
0
LINE
8
Layer 1
10
60.030380
20
271.803000
11
58.614082
21
274.994998
0
LINE
8
Layer 1
10
58.614082
20
274.994998
11
56.726270
21
277.932840
0
LINE
8
Layer 1
10
56.726270
20
277.932840
11
54.473103
21
280.453111
0
LINE
8
Layer 1
10
54.473103
20
280.453111
11
51.845520
21
282.580160
0
LINE
8
Layer 1
10
51.845520
20
282.580160
11
53.830082
21
280.049661
0
LINE
8
Layer 1
10
53.830082
20
280.049661
11
55.382329
21
277.255722
0
LINE
8
Layer 1
10
55.382329
20
277.255722
11
56.477316
21
274.252962
0
LINE
8
Layer 1
10
56.477316
20
274.252962
11
57.090100
21
271.096000
0
LINE
8
Layer 1
10
57.090100
20
271.096000
11
57.220268
21
269.178635
0
LINE
8
Layer 1
10
57.220268
20
269.178635
11
57.174828
21
267.261392
0
LINE
8
Layer 1
10
57.174828
20
267.261392
11
56.954615
21
265.356295
0
LINE
8
Layer 1
10
56.954615
20
265.356295
11
56.560465
21
263.475370
0
LINE
8
Layer 1
10
56.560465
20
263.475370
11
51.772508
21
267.225559
0
LINE
8
Layer 1
10
51.772508
20
267.225559
11
47.126855
21
271.051700
0
LINE
8
Layer 1
10
47.126855
20
271.051700
11
45.300545
21
272.656630
0
LINE
8
Layer 1
10
45.300545
20
272.656630
11
43.519205
21
274.302490
0
LINE
8
Layer 1
10
43.519205
20
274.302490
11
41.825675
21
275.983700
0
LINE
8
Layer 1
10
41.825675
20
275.983700
11
40.222905
21
277.751970
0
LINE
8
Layer 1
10
40.222905
20
277.751970
11
37.306364
21
281.541823
0
LINE
8
Layer 1
10
37.306364
20
281.541823
11
34.866785
21
285.654930
0
LINE
8
Layer 1
10
34.866785
20
285.654930
11
33.864093
21
287.832079
0
LINE
8
Layer 1
10
33.864093
20
287.832079
11
33.034180
21
290.086510
0
LINE
8
Layer 1
10
33.034180
20
290.086510
11
32.413787
21
292.409506
0
LINE
8
Layer 1
10
32.413787
20
292.409506
11
32.039655
21
294.792350
0
LINE
8
Layer 1
10
32.039655
20
294.792350
11
31.916644
21
297.241160
0
LINE
8
Layer 1
10
31.916644
20
297.241160
11
32.083920
21
299.678774
0
LINE
8
Layer 1
10
32.083920
20
299.678774
11
32.538186
21
302.079521
0
LINE
8
Layer 1
10
32.538186
20
302.079521
11
33.276145
21
304.417730
0
LINE
8
Layer 1
10
33.276145
20
304.417730
11
32.230988
21
302.120899
0
LINE
8
Layer 1
10
32.230988
20
302.120899
11
31.467550
21
299.724922
0
LINE
8
Layer 1
10
31.467550
20
299.724922
11
30.992390
21
297.255556
0
LINE
8
Layer 1
10
30.992390
20
297.255556
11
30.812065
21
294.738560
0
LINE
8
Layer 1
10
30.812065
20
294.738560
11
30.894757
21
292.182419
0
LINE
8
Layer 1
10
30.894757
20
292.182419
11
31.245346
21
289.644258
0
LINE
8
Layer 1
10
31.245346
20
289.644258
11
31.827927
21
287.141297
0
LINE
8
Layer 1
10
31.827927
20
287.141297
11
32.606595
21
284.690760
0
LINE
8
Layer 1
10
32.606595
20
284.690760
11
33.566840
21
282.297165
0
LINE
8
Layer 1
10
33.566840
20
282.297165
11
34.668624
21
279.967921
0
LINE
8
Layer 1
10
34.668624
20
279.967921
11
35.908748
21
277.709294
0
LINE
8
Layer 1
10
35.908748
20
277.709294
11
37.284015
21
275.527550
0
LINE
8
Layer 1
10
37.284015
20
275.527550
11
38.770435
21
273.413190
0
LINE
8
Layer 1
10
38.770435
20
273.413190
11
40.365935
21
271.379090
0
LINE
8
Layer 1
10
40.365935
20
271.379090
11
41.537245
21
269.991780
0
LINE
8
Layer 1
10
41.537245
20
269.991780
11
39.189959
21
270.380772
0
LINE
8
Layer 1
10
39.189959
20
270.380772
11
36.819695
21
270.587937
0
LINE
8
Layer 1
10
36.819695
20
270.587937
11
34.182165
21
270.598170
0
LINE
8
Layer 1
10
34.182165
20
270.598170
11
32.864345
21
270.484042
0
LINE
8
Layer 1
10
32.864345
20
270.484042
11
31.555395
21
270.310394
0
LINE
8
Layer 1
10
31.555395
20
270.310394
11
30.258855
21
270.046183
0
LINE
8
Layer 1
10
30.258855
20
270.046183
11
28.988165
21
269.674982
0
LINE
8
Layer 1
10
28.988165
20
269.674982
11
26.547505
21
268.680432
0
LINE
8
Layer 1
10
26.547505
20
268.680432
11
25.371189
21
267.916557
0
LINE
8
Layer 1
10
25.371189
20
267.916557
11
24.409845
21
266.895262
0
LINE
8
Layer 1
10
24.409845
20
266.895262
11
23.808124
21
265.625480
0
LINE
8
Layer 1
10
23.808124
20
265.625480
11
23.682121
21
264.226002
0
LINE
8
Layer 1
10
23.682121
20
264.226002
11
24.023147
21
262.941470
0
LINE
8
Layer 1
10
24.023147
20
262.941470
11
24.725781
21
261.813362
0
LINE
8
Layer 1
10
24.725781
20
261.813362
11
25.639693
21
260.934635
0
LINE
8
Layer 1
10
25.639693
20
260.934635
11
26.716921
21
260.266072
0
LINE
8
Layer 1
10
26.716921
20
260.266072
11
25.782590
21
261.060157
0
LINE
8
Layer 1
10
25.782590
20
261.060157
11
25.034431
21
262.031652
0
LINE
8
Layer 1
10
25.034431
20
262.031652
11
24.570270
21
263.094788
0
LINE
8
Layer 1
10
24.570270
20
263.094788
11
24.438141
21
264.247282
0
LINE
8
Layer 1
10
24.438141
20
264.247282
11
24.692800
21
265.294374
0
LINE
8
Layer 1
10
24.692800
20
265.294374
11
25.295949
21
266.187382
0
LINE
8
Layer 1
10
25.295949
20
266.187382
11
26.156580
21
266.851412
0
LINE
8
Layer 1
10
26.156580
20
266.851412
11
27.149729
21
267.293312
0
LINE
8
Layer 1
10
27.149729
20
267.293312
11
29.441171
21
267.841697
0
LINE
8
Layer 1
10
29.441171
20
267.841697
11
31.778062
21
268.050873
0
LINE
8
Layer 1
10
31.778062
20
268.050873
11
34.127376
21
267.954341
0
LINE
8
Layer 1
10
34.127376
20
267.954341
11
36.456089
21
267.585601
0
LINE
8
Layer 1
10
36.456089
20
267.585601
11
38.745910
21
267.017174
0
LINE
8
Layer 1
10
38.745910
20
267.017174
11
40.983499
21
266.269121
0
LINE
8
Layer 1
10
40.983499
20
266.269121
11
43.150280
21
265.343188
0
LINE
8
Layer 1
10
43.150280
20
265.343188
11
45.250999
21
264.275821
0
LINE
8
Layer 1
10
45.250999
20
264.275821
11
47.252860
21
263.089931
0
LINE
8
Layer 1
10
47.252860
20
263.089931
11
49.166759
21
261.766761
0
LINE
8
Layer 1
10
49.166759
20
261.766761
11
49.342631
21
261.628393
0
LINE
8
Layer 1
10
49.342631
20
261.628393
11
57.633891
21
253.261923
0
LINE
8
Layer 1
10
57.633891
20
253.261923
11
60.923937
21
249.716712
0
LINE
8
Layer 1
10
60.923937
20
249.716712
11
63.997031
21
246.091003
0
LINE
8
Layer 1
10
63.997031
20
246.091003
11
65.429851
21
244.238093
0
LINE
8
Layer 1
10
65.429851
20
244.238093
11
66.371826
21
242.926193
0
LINE
8
Layer 1
10
66.371826
20
242.926193
11
66.097244
21
242.988813
0
LINE
8
Layer 1
10
66.097244
20
242.988813
11
58.760747
21
244.424962
0
LINE
8
Layer 1
10
58.760747
20
244.424962
11
51.588244
21
245.694213
0
LINE
8
Layer 1
10
51.588244
20
245.694213
11
44.613464
21
247.134583
0
LINE
8
Layer 1
10
44.613464
20
247.134583
11
37.647294
21
248.926153
0
LINE
8
Layer 1
10
37.647294
20
248.926153
11
30.825386
21
251.003161
0
LINE
8
Layer 1
10
30.825386
20
251.003161
11
24.150200
21
253.512000
0
LINE
8
Layer 1
10
24.150200
20
253.512000
11
20.925699
21
254.965891
0
LINE
8
Layer 1
10
20.925699
20
254.965891
11
17.793281
21
256.582541
0
LINE
8
Layer 1
10
17.793281
20
256.582541
11
14.786348
21
258.387855
0
LINE
8
Layer 1
10
14.786348
20
258.387855
11
11.938300
21
260.407740
0
LINE
8
Layer 1
10
11.938300
20
260.407740
11
9.306654
21
262.672075
0
LINE
8
Layer 1
10
9.306654
20
262.672075
11
6.958360
21
265.210190
0
LINE
8
Layer 1
10
6.958360
20
265.210190
11
4.969518
21
268.019580
0
LINE
8
Layer 1
10
4.969518
20
268.019580
11
3.416230
21
271.097740
0
LINE
8
Layer 1
10
3.416230
20
271.097740
11
2.361864
21
274.402590
0
LINE
8
Layer 1
10
2.361864
20
274.402590
11
1.846100
21
277.833000
0
LINE
8
Layer 1
10
1.846100
20
277.833000
11
1.859954
21
279.612464
0
LINE
8
Layer 1
10
1.859954
20
279.612464
11
2.051610
21
281.368009
0
LINE
8
Layer 1
10
2.051610
20
281.368009
11
2.416377
21
283.087135
0
LINE
8
Layer 1
10
2.416377
20
283.087135
11
2.949565
21
284.757339
0
LINE
8
Layer 1
10
2.949565
20
284.757339
11
3.646485
21
286.366119
0
LINE
8
Layer 1
10
3.646485
20
286.366119
11
4.502445
21
287.900974
0
LINE
8
Layer 1
10
4.502445
20
287.900974
11
5.512757
21
289.349402
0
LINE
8
Layer 1
10
5.512757
20
289.349402
11
6.672730
21
290.698900
0
LINE
8
Layer 1
10
6.672730
20
290.698900
11
8.005058
21
291.925300
0
LINE
8
Layer 1
10
8.005058
20
291.925300
11
9.462068
21
292.991013
0
LINE
8
Layer 1
10
9.462068
20
292.991013
11
11.029351
21
293.886695
0
LINE
8
Layer 1
10
11.029351
20
293.886695
11
12.692500
21
294.603000
0
LINE
8
Layer 1
10
12.692500
20
294.603000
11
10.942638
21
294.015243
0
LINE
8
Layer 1
10
10.942638
20
294.015243
11
9.275077
21
293.237183
0
LINE
8
Layer 1
10
9.275077
20
293.237183
11
7.705243
21
292.277101
0
LINE
8
Layer 1
10
7.705243
20
292.277101
11
6.248560
21
291.143280
0
LINE
8
Layer 1
10
6.248560
20
291.143280
11
4.917648
21
289.822547
0
LINE
8
Layer 1
10
4.917648
20
289.822547
11
3.726408
21
288.380470
0
LINE
8
Layer 1
10
3.726408
20
288.380470
11
2.683044
21
286.828043
0
LINE
8
Layer 1
10
2.683044
20
286.828043
11
1.795760
21
285.176260
0
LINE
8
Layer 1
10
1.795760
20
285.176260
11
1.078055
21
283.410459
0
LINE
8
Layer 1
10
1.078055
20
283.410459
11
0.537875
21
281.587261
0
LINE
8
Layer 1
10
0.537875
20
281.587261
11
0.178469
21
279.719998
0
LINE
8
Layer 1
10
0.178469
20
279.719998
11
0.003088
21
277.822000
0
LINE
8
Layer 1
10
0.003088
20
277.822000
11
0.049490
21
275.904809
0
LINE
8
Layer 1
10
0.049490
20
275.904809
11
0.249260
21
274.000585
0
LINE
8
Layer 1
10
0.249260
20
274.000585
11
0.601062
21
272.118510
0
LINE
8
Layer 1
10
0.601062
20
272.118510
11
1.103558
21
270.267760
0
LINE
8
Layer 1
10
1.103558
20
270.267760
11
2.544738
21
266.693467
0
LINE
8
Layer 1
10
2.544738
20
266.693467
11
4.497630
21
263.371000
0
LINE
8
Layer 1
10
4.497630
20
263.371000
11
6.860087
21
260.343031
0
LINE
8
Layer 1
10
6.860087
20
260.343031
11
9.549150
21
257.601000
0
LINE
8
Layer 1
10
9.549150
20
257.601000
11
12.464788
21
255.139547
0
LINE
8
Layer 1
10
12.464788
20
255.139547
11
15.544344
21
252.917625
0
LINE
8
Layer 1
10
15.544344
20
252.917625
11
18.750040
21
250.905141
0
LINE
8
Layer 1
10
18.750040
20
250.905141
11
22.044100
21
249.072000
0
LINE
8
Layer 1
10
22.044100
20
249.072000
11
28.802460
21
245.858114
0
LINE
8
Layer 1
10
28.802460
20
245.858114
11
35.752600
21
243.083220
0
LINE
8
Layer 1
10
35.752600
20
243.083220
11
42.761320
21
240.636510
0
LINE
8
Layer 1
10
42.761320
20
240.636510
11
49.946450
21
238.508270
0
LINE
8
Layer 1
10
49.946450
20
238.508270
11
57.034589
21
236.628058
0
LINE
8
Layer 1
10
57.034589
20
236.628058
11
63.901950
21
234.674120
0
LINE
8
Layer 1
10
63.901950
20
234.674120
11
68.911133
21
232.951340
0
LINE
8
Layer 1
10
68.911133
20
232.951340
11
73.764740
21
230.829460
0
LINE
8
Layer 1
10
73.764740
20
230.829460
11
76.086653
21
226.226002
0
LINE
8
Layer 1
10
76.086653
20
226.226002
11
78.219430
21
221.532530
0
LINE
8
Layer 1
10
78.219430
20
221.532530
11
80.020427
21
217.138430
0
LINE
8
Layer 1
10
80.020427
20
217.138430
11
81.667100
21
212.684970
0
LINE
8
Layer 1
10
81.667100
20
212.684970
11
81.811191
21
212.262261
0
LINE
8
Layer 1
10
81.811191
20
212.262261
11
78.540763
21
213.692534
0
LINE
8
Layer 1
10
78.540763
20
213.692534
11
75.146100
21
214.796000
0
LINE
8
Layer 1
10
75.146100
20
214.796000
11
70.949410
21
215.662485
0
LINE
8
Layer 1
10
70.949410
20
215.662485
11
66.679240
21
216.021170
0
LINE
8
Layer 1
10
66.679240
20
216.021170
11
62.572995
21
215.924248
0
LINE
8
Layer 1
10
62.572995
20
215.924248
11
58.491940
21
215.459890
0
LINE
8
Layer 1
10
58.491940
20
215.459890
11
56.291670
21
215.076771
0
LINE
8
Layer 1
10
56.291670
20
215.076771
11
53.214730
21
215.196622
0
LINE
8
Layer 1
10
53.214730
20
215.196622
11
51.133009
21
215.423388
0
LINE
8
Layer 1
10
51.133009
20
215.423388
11
49.091185
21
215.789135
0
LINE
8
Layer 1
10
49.091185
20
215.789135
11
47.115616
21
216.328940
0
LINE
8
Layer 1
10
47.115616
20
216.328940
11
45.232660
21
217.077882
0
LINE
8
Layer 1
10
45.232660
20
217.077882
11
43.489097
21
218.081080
0
LINE
8
Layer 1
10
43.489097
20
218.081080
11
41.948210
21
219.374172
0
LINE
8
Layer 1
10
41.948210
20
219.374172
11
40.748080
21
220.939232
0
LINE
8
Layer 1
10
40.748080
20
220.939232
11
40.319517
21
222.362539
0
LINE
8
Layer 1
10
40.319517
20
222.362539
11
40.373966
21
223.810560
0
LINE
8
Layer 1
10
40.373966
20
223.810560
11
40.887563
21
225.165533
0
LINE
8
Layer 1
10
40.887563
20
225.165533
11
41.836440
21
226.309692
0
LINE
8
Layer 1
10
41.836440
20
226.309692
11
42.732743
21
226.854287
0
LINE
8
Layer 1
10
42.732743
20
226.854287
11
43.741940
21
227.139707
0
LINE
8
Layer 1
10
43.741940
20
227.139707
11
44.844093
21
227.169376
0
LINE
8
Layer 1
10
44.844093
20
227.169376
11
45.929160
21
226.973800
0
LINE
8
Layer 1
10
45.929160
20
226.973800
11
44.851340
21
227.353032
0
LINE
8
Layer 1
10
44.851340
20
227.353032
11
43.718800
21
227.504242
0
LINE
8
Layer 1
10
43.718800
20
227.504242
11
42.533449
21
227.364920
0
LINE
8
Layer 1
10
42.533449
20
227.364920
11
41.427900
21
226.915222
0
LINE
8
Layer 1
10
41.427900
20
226.915222
11
40.438593
21
226.146328
0
LINE
8
Layer 1
10
40.438593
20
226.146328
11
39.658310
21
225.186066
0
LINE
8
Layer 1
10
39.658310
20
225.186066
11
39.113201
21
224.075299
0
LINE
8
Layer 1
10
39.113201
20
224.075299
11
38.829420
21
222.854892
0
LINE
8
Layer 1
10
38.829420
20
222.854892
11
38.798470
21
221.557570
0
LINE
8
Layer 1
10
38.798470
20
221.557570
11
39.043807
21
220.283282
0
LINE
8
Layer 1
10
39.043807
20
220.283282
11
40.107647
21
217.992312
0
LINE
8
Layer 1
10
40.107647
20
217.992312
11
41.592789
21
215.983898
0
LINE
8
Layer 1
10
41.592789
20
215.983898
11
43.405837
21
214.265692
0
LINE
8
Layer 1
10
43.405837
20
214.265692
11
45.952737
21
212.531222
0
LINE
8
Layer 1
10
45.952737
20
212.531222
11
43.619147
21
211.884160
0
LINE
8
Layer 1
10
43.619147
20
211.884160
11
36.585008
21
210.088431
0
LINE
8
Layer 1
10
36.585008
20
210.088431
11
33.089461
21
209.400803
0
LINE
8
Layer 1
10
33.089461
20
209.400803
11
29.589847
21
208.928290
0
LINE
8
Layer 1
10
29.589847
20
208.928290
11
27.838407
21
208.789251
0
LINE
8
Layer 1
10
27.838407
20
208.789251
11
26.086427
21
208.723211
0
LINE
8
Layer 1
10
26.086427
20
208.723211
11
24.334987
21
208.735601
0
LINE
8
Layer 1
10
24.334987
20
208.735601
11
22.644147
21
208.843534
0
LINE
8
Layer 1
10
22.644147
20
208.843534
11
19.344067
21
209.461318
0
LINE
8
Layer 1
10
19.344067
20
209.461318
11
17.774400
21
210.000153
0
LINE
8
Layer 1
10
17.774400
20
210.000153
11
16.266717
21
210.693758
0
LINE
8
Layer 1
10
16.266717
20
210.693758
11
14.882339
21
211.560842
0
LINE
8
Layer 1
10
14.882339
20
211.560842
11
13.623537
21
212.601878
0
LINE
8
Layer 1
10
13.623537
20
212.601878
11
12.559303
21
213.830841
0
LINE
8
Layer 1
10
12.559303
20
213.830841
11
11.693267
21
215.206678
0
LINE
8
Layer 1
10
11.693267
20
215.206678
11
11.085777
21
216.757789
0
LINE
8
Layer 1
10
11.085777
20
216.757789
11
10.715069
21
218.381848
0
LINE
8
Layer 1
10
10.715069
20
218.381848
11
10.590000
21
220.105857
0
LINE
8
Layer 1
10
10.590000
20
220.105857
11
10.683288
21
221.831878
0
LINE
8
Layer 1
10
10.683288
20
221.831878
11
11.008127
21
223.556303
0
LINE
8
Layer 1
10
11.008127
20
223.556303
11
11.565336
21
225.220238
0
LINE
8
Layer 1
10
11.565336
20
225.220238
11
12.352815
21
226.803992
0
LINE
8
Layer 1
10
12.352815
20
226.803992
11
13.398116
21
228.230788
0
LINE
8
Layer 1
10
13.398116
20
228.230788
11
14.697486
21
229.464068
0
LINE
8
Layer 1
10
14.697486
20
229.464068
11
16.202086
21
230.436448
0
LINE
8
Layer 1
10
16.202086
20
230.436448
11
17.920751
21
231.073580
0
LINE
8
Layer 1
10
17.920751
20
231.073580
11
19.721676
21
231.414782
0
LINE
8
Layer 1
10
19.721676
20
231.414782
11
17.853058
21
231.276449
0
LINE
8
Layer 1
10
17.853058
20
231.276449
11
16.034036
21
230.826973
0
LINE
8
Layer 1
10
16.034036
20
230.826973
11
14.319177
21
229.977614
0
LINE
8
Layer 1
10
14.319177
20
229.977614
11
12.790800
21
228.826000
0
LINE
8
Layer 1
10
12.790800
20
228.826000
11
11.474177
21
227.402143
0
LINE
8
Layer 1
10
11.474177
20
227.402143
11
10.417210
21
225.776200
0
LINE
8
Layer 1
10
10.417210
20
225.776200
11
9.589191
21
224.005770
0
LINE
8
Layer 1
10
9.589191
20
224.005770
11
9.010220
21
222.139000
0
LINE
8
Layer 1
10
9.010220
20
222.139000
11
8.677895
21
220.186769
0
LINE
8
Layer 1
10
8.677895
20
220.186769
11
8.595723
21
218.208160
0
LINE
8
Layer 1
10
8.595723
20
218.208160
11
8.808938
21
216.148830
0
LINE
8
Layer 1
10
8.808938
20
216.148830
11
9.359911
21
214.168030
0
LINE
8
Layer 1
10
9.359911
20
214.168030
11
10.233419
21
212.306816
0
LINE
8
Layer 1
10
10.233419
20
212.306816
11
11.414243
21
210.606240
0
LINE
8
Layer 1
10
11.414243
20
210.606240
11
12.847130
21
209.104516
0
LINE
8
Layer 1
10
12.847130
20
209.104516
11
14.466803
21
207.806440
0
LINE
8
Layer 1
10
14.466803
20
207.806440
11
16.217405
21
206.737385
0
LINE
8
Layer 1
10
16.217405
20
206.737385
11
18.067983
21
205.852600
0
LINE
8
Layer 1
10
18.067983
20
205.852600
11
19.981551
21
205.170716
0
LINE
8
Layer 1
10
19.981551
20
205.170716
11
21.944693
21
204.648430
0
LINE
8
Layer 1
10
21.944693
20
204.648430
11
23.929913
21
204.288337
0
LINE
8
Layer 1
10
23.929913
20
204.288337
11
25.876613
21
204.049577
0
LINE
8
Layer 1
10
25.876613
20
204.049577
11
27.830313
21
203.898348
0
LINE
8
Layer 1
10
27.830313
20
203.898348
11
29.784823
21
203.828458
0
LINE
8
Layer 1
10
29.784823
20
203.828458
11
33.678547
21
203.903492
0
LINE
8
Layer 1
10
33.678547
20
203.903492
11
37.526919
21
204.209213
0
LINE
8
Layer 1
10
37.526919
20
204.209213
11
45.050023
21
205.231668
0
LINE
8
Layer 1
10
45.050023
20
205.231668
11
52.325447
21
206.340433
0
LINE
8
Layer 1
10
52.325447
20
206.340433
11
55.865476
21
206.758064
0
LINE
8
Layer 1
10
55.865476
20
206.758064
11
59.330623
21
206.995558
0
LINE
8
Layer 1
10
59.330623
20
206.995558
11
62.700316
21
206.992291
0
LINE
8
Layer 1
10
62.700316
20
206.992291
11
65.947973
21
206.692228
0
LINE
8
Layer 1
10
65.947973
20
206.692228
11
69.054780
21
206.066296
0
LINE
8
Layer 1
10
69.054780
20
206.066296
11
72.001923
21
205.085418
0
LINE
8
Layer 1
10
72.001923
20
205.085418
11
74.803922
21
203.757481
0
LINE
8
Layer 1
10
74.803922
20
203.757481
11
77.429953
21
202.108668
0
LINE
8
Layer 1
10
77.429953
20
202.108668
11
79.977058
21
200.148063
0
LINE
8
Layer 1
10
79.977058
20
200.148063
11
82.344653
21
197.974078
0
LINE
8
Layer 1
10
82.344653
20
197.974078
11
84.933652
21
195.157875
0
LINE
8
Layer 1
10
84.933652
20
195.157875
11
87.296653
21
192.149528
0
LINE
8
Layer 1
10
87.296653
20
192.149528
11
88.115543
21
185.647818
0
LINE
8
Layer 1
10
88.115543
20
185.647818
11
88.365245
21
181.133302
0
LINE
8
Layer 1
10
88.365245
20
181.133302
11
88.411535
21
176.567628
0
LINE
8
Layer 1
10
88.411535
20
176.567628
11
88.056697
21
168.446848
0
LINE
8
Layer 1
10
88.056697
20
168.446848
11
87.263761
21
167.146872
0
LINE
8
Layer 1
10
87.263761
20
167.146872
11
86.219477
21
166.038649
0
LINE
8
Layer 1
10
86.219477
20
166.038649
11
84.622380
21
164.966993
0
LINE
8
Layer 1
10
84.622380
20
164.966993
11
82.849647
21
164.220948
0
LINE
8
Layer 1
10
82.849647
20
164.220948
11
80.807999
21
163.681804
0
LINE
8
Layer 1
10
80.807999
20
163.681804
11
78.724347
21
163.339168
0
LINE
8
Layer 1
10
78.724347
20
163.339168
11
76.466567
21
163.068898
0
LINE
8
Layer 1
10
76.466567
20
163.068898
11
75.859507
21
162.986619
0
LINE
8
Layer 1
10
75.859507
20
162.986619
11
75.275068
21
162.890805
0
LINE
8
Layer 1
10
75.275068
20
162.890805
11
74.259698
21
162.744764
0
LINE
8
Layer 1
10
74.259698
20
162.744764
11
72.130826
21
162.621305
0
LINE
8
Layer 1
10
72.130826
20
162.621305
11
69.892850
21
162.634400
0
LINE
8
Layer 1
10
69.892850
20
162.634400
11
67.559178
21
162.636624
0
LINE
8
Layer 1
10
67.559178
20
162.636624
11
65.143218
21
162.480553
0
LINE
8
Layer 1
10
65.143218
20
162.480553
11
62.698798
21
162.001687
0
LINE
8
Layer 1
10
62.698798
20
162.001687
11
60.380158
21
161.113983
0
LINE
8
Layer 1
10
60.380158
20
161.113983
11
56.328118
21
159.063453
0
LINE
8
Layer 1
10
56.328118
20
159.063453
11
54.341916
21
158.354057
0
LINE
8
Layer 1
10
54.341916
20
158.354057
11
52.251637
21
157.985805
0
LINE
8
Layer 1
10
52.251637
20
157.985805
11
50.094396
21
157.918627
0
LINE
8
Layer 1
10
50.094396
20
157.918627
11
47.907308
21
158.112455
0
LINE
8
Layer 1
10
47.907308
20
158.112455
11
43.515644
21
158.996549
0
LINE
8
Layer 1
10
43.515644
20
158.996549
11
39.097318
21
160.135705
0
LINE
8
Layer 1
10
39.097318
20
160.135705
11
34.579649
21
161.062831
0
LINE
8
Layer 1
10
34.579649
20
161.062831
11
32.276287
21
161.286512
0
LINE
8
Layer 1
10
32.276287
20
161.286512
11
29.957138
21
161.256715
0
LINE
8
Layer 1
10
29.957138
20
161.256715
11
27.679938
21
160.925431
0
LINE
8
Layer 1
10
27.679938
20
160.925431
11
25.463731
21
160.334977
0
LINE
8
Layer 1
10
25.463731
20
160.334977
11
23.330514
21
159.492599
0
LINE
8
Layer 1
10
23.330514
20
159.492599
11
21.302288
21
158.405545
0
LINE
8
Layer 1
10
21.302288
20
158.405545
11
23.360800
21
159.358011
0
LINE
8
Layer 1
10
23.360800
20
159.358011
11
25.508450
21
160.063790
0
LINE
8
Layer 1
10
25.508450
20
160.063790
11
27.723197
21
160.517027
0
LINE
8
Layer 1
10
27.723197
20
160.517027
11
29.982998
21
160.711865
0
LINE
8
Layer 1
10
29.982998
20
160.711865
11
32.224283
21
160.606568
0
LINE
8
Layer 1
10
32.224283
20
160.606568
11
34.440343
21
160.256725
0
LINE
8
Layer 1
10
34.440343
20
160.256725
11
38.801328
21
159.085665
0
LINE
8
Layer 1
10
38.801328
20
159.085665
11
45.145348
21
157.096205
0
LINE
8
Layer 1
10
45.145348
20
157.096205
11
44.309152
21
156.563279
0
LINE
8
Layer 1
10
44.309152
20
156.563279
11
43.563588
21
155.909545
0
LINE
8
Layer 1
10
43.563588
20
155.909545
11
41.545918
21
153.744755
0
LINE
8
Layer 1
10
41.545918
20
153.744755
11
41.512119
21
153.760241
0
LINE
8
Layer 1
10
41.512119
20
153.760241
11
41.480877
21
153.675266
0
LINE
8
Layer 1
10
41.480877
20
153.675266
11
39.724047
21
152.010816
0
LINE
8
Layer 1
10
39.724047
20
152.010816
11
38.619164
21
151.330740
0
LINE
8
Layer 1
10
38.619164
20
151.330740
11
37.398667
21
150.890676
0
LINE
8
Layer 1
10
37.398667
20
150.890676
11
35.307737
21
150.418801
0
LINE
8
Layer 1
10
35.307737
20
150.418801
11
33.905477
21
151.591591
0
LINE
8
Layer 1
10
33.905477
20
151.591591
11
32.934012
21
151.960503
0
LINE
8
Layer 1
10
32.934012
20
151.960503
11
31.940732
21
151.997601
0
LINE
8
Layer 1
10
31.940732
20
151.997601
11
30.027962
21
151.830887
0
LINE
8
Layer 1
10
30.027962
20
151.830887
11
29.083644
21
151.902614
0
LINE
8
Layer 1
10
29.083644
20
151.902614
11
28.194362
21
152.228281
0
LINE
8
Layer 1
10
28.194362
20
152.228281
11
29.063213
21
151.807996
0
LINE
8
Layer 1
10
29.063213
20
151.807996
11
30.025522
21
151.654882
0
LINE
8
Layer 1
10
30.025522
20
151.654882
11
31.944212
21
151.670969
0
LINE
8
Layer 1
10
31.944212
20
151.670969
11
32.859387
21
151.565460
0
LINE
8
Layer 1
10
32.859387
20
151.565460
11
33.655792
21
151.222941
0
LINE
8
Layer 1
10
33.655792
20
151.222941
11
34.741452
21
150.280091
0
LINE
8
Layer 1
10
34.741452
20
150.280091
11
34.703747
21
150.270800
0
LINE
8
Layer 1
10
34.703747
20
150.270800
11
33.369095
21
149.785479
0
LINE
8
Layer 1
10
33.369095
20
149.785479
11
32.161017
21
149.038900
0
LINE
8
Layer 1
10
32.161017
20
149.038900
11
31.176549
21
148.047922
0
LINE
8
Layer 1
10
31.176549
20
148.047922
11
30.428177
21
146.868450
0
LINE
8
Layer 1
10
30.428177
20
146.868450
11
31.246997
21
147.969862
0
LINE
8
Layer 1
10
31.246997
20
147.969862
11
32.283037
21
148.869970
0
LINE
8
Layer 1
10
32.283037
20
148.869970
11
33.487877
21
149.496394
0
LINE
8
Layer 1
10
33.487877
20
149.496394
11
34.795057
21
149.864261
0
LINE
8
Layer 1
10
34.795057
20
149.864261
11
37.535737
21
150.280778
0
LINE
8
Layer 1
10
37.535737
20
150.280778
11
38.920142
21
150.667270
0
LINE
8
Layer 1
10
38.920142
20
150.667270
11
40.198047
21
151.325228
0
LINE
8
Layer 1
10
40.198047
20
151.325228
11
40.833930
21
151.782278
0
LINE
8
Layer 1
10
40.833930
20
151.782278
11
40.431284
21
150.543508
0
LINE
8
Layer 1
10
40.431284
20
150.543508
11
39.817485
21
149.065168
0
LINE
8
Layer 1
10
39.817485
20
149.065168
11
38.896115
21
147.743978
0
LINE
8
Layer 1
10
38.896115
20
147.743978
11
37.938386
21
146.291628
0
LINE
8
Layer 1
10
37.938386
20
146.291628
11
37.396497
21
144.645768
0
LINE
8
Layer 1
10
37.396497
20
144.645768
11
37.213758
21
142.961438
0
LINE
8
Layer 1
10
37.213758
20
142.961438
11
37.326204
21
141.270958
0
LINE
8
Layer 1
10
37.326204
20
141.270958
11
37.355966
21
142.937780
0
LINE
8
Layer 1
10
37.355966
20
142.937780
11
37.673902
21
144.574268
0
LINE
8
Layer 1
10
37.673902
20
144.574268
11
38.314365
21
146.083248
0
LINE
8
Layer 1
10
38.314365
20
146.083248
11
39.328925
21
147.367938
0
LINE
8
Layer 1
10
39.328925
20
147.367938
11
40.427785
21
148.689458
0
LINE
8
Layer 1
10
40.427785
20
148.689458
11
41.227419
21
150.218838
0
LINE
8
Layer 1
10
41.227419
20
150.218838
11
42.549949
21
153.272678
0
LINE
8
Layer 1
10
42.549949
20
153.272678
11
44.403329
21
154.983378
0
LINE
8
Layer 1
10
44.403329
20
154.983378
11
45.428784
21
155.688873
0
LINE
8
Layer 1
10
45.428784
20
155.688873
11
46.603199
21
156.101218
0
LINE
8
Layer 1
10
46.603199
20
156.101218
11
49.226449
21
156.196426
0
LINE
8
Layer 1
10
49.226449
20
156.196426
11
49.226500
21
156.244000
0
LINE
8
Layer 1
10
49.226500
20
156.244000
11
52.380330
21
156.079239
0
LINE
8
Layer 1
10
52.380330
20
156.079239
11
54.800240
21
156.362573
0
LINE
8
Layer 1
10
54.800240
20
156.362573
11
57.154710
21
157.044509
0
LINE
8
Layer 1
10
57.154710
20
157.044509
11
61.363770
21
158.865509
0
LINE
8
Layer 1
10
61.363770
20
158.865509
11
62.499930
21
159.266673
0
LINE
8
Layer 1
10
62.499930
20
159.266673
11
61.542605
21
157.802873
0
LINE
8
Layer 1
10
61.542605
20
157.802873
11
60.075810
21
155.400559
0
LINE
8
Layer 1
10
60.075810
20
155.400559
11
58.502965
21
153.200393
0
LINE
8
Layer 1
10
58.502965
20
153.200393
11
57.592601
21
152.293641
0
LINE
8
Layer 1
10
57.592601
20
152.293641
11
56.512635
21
151.597483
0
LINE
8
Layer 1
10
56.512635
20
151.597483
11
53.907425
21
150.639339
0
LINE
8
Layer 1
10
53.907425
20
150.639339
11
52.594041
21
149.988304
0
LINE
8
Layer 1
10
52.594041
20
149.988304
11
51.470815
21
149.046399
0
LINE
8
Layer 1
10
51.470815
20
149.046399
11
50.641294
21
147.883610
0
LINE
8
Layer 1
10
50.641294
20
147.883610
11
50.089165
21
146.566289
0
LINE
8
Layer 1
10
50.089165
20
146.566289
11
50.776238
21
147.771665
0
LINE
8
Layer 1
10
50.776238
20
147.771665
11
51.712135
21
148.795919
0
LINE
8
Layer 1
10
51.712135
20
148.795919
11
52.844062
21
149.530560
0
LINE
8
Layer 1
10
52.844062
20
149.530560
11
54.117765
21
149.976249
0
LINE
8
Layer 1
10
54.117765
20
149.976249
11
56.740735
21
150.582775
0
LINE
8
Layer 1
10
56.740735
20
150.582775
11
56.216850
21
148.739865
0
LINE
8
Layer 1
10
56.216850
20
148.739865
11
55.539535
21
146.947655
0
LINE
8
Layer 1
10
55.539535
20
146.947655
11
54.328905
21
144.691085
0
LINE
8
Layer 1
10
54.328905
20
144.691085
11
53.503688
21
143.730461
0
LINE
8
Layer 1
10
53.503688
20
143.730461
11
52.538147
21
142.833935
0
LINE
8
Layer 1
10
52.538147
20
142.833935
11
53.662857
21
143.517623
0
LINE
8
Layer 1
10
53.662857
20
143.517623
11
54.702467
21
144.389709
0
LINE
8
Layer 1
10
54.702467
20
144.389709
11
56.280457
21
146.565609
0
LINE
8
Layer 1
10
56.280457
20
146.565609
11
57.521521
21
148.938486
0
LINE
8
Layer 1
10
57.521521
20
148.938486
11
58.481947
21
151.438159
0
LINE
8
Layer 1
10
58.481947
20
151.438159
11
59.487347
21
152.245133
0
LINE
8
Layer 1
10
59.487347
20
152.245133
11
61.449942
21
154.423043
0
LINE
8
Layer 1
10
61.449942
20
154.423043
11
63.183067
21
156.658673
0
LINE
8
Layer 1
10
63.183067
20
156.658673
11
64.940967
21
158.686173
0
LINE
8
Layer 1
10
64.940967
20
158.686173
11
66.378637
21
159.796213
0
LINE
8
Layer 1
10
66.378637
20
159.796213
11
70.290642
21
159.594664
0
LINE
8
Layer 1
10
70.290642
20
159.594664
11
72.358504
21
159.476925
0
LINE
8
Layer 1
10
72.358504
20
159.476925
11
74.511797
21
159.482043
0
LINE
8
Layer 1
10
74.511797
20
159.482043
11
75.763097
21
159.586002
0
LINE
8
Layer 1
10
75.763097
20
159.586002
11
76.307946
21
159.650239
0
LINE
8
Layer 1
10
76.307946
20
159.650239
11
76.833407
21
159.702554
0
LINE
8
Layer 1
10
76.833407
20
159.702554
11
79.114607
21
159.895594
0
LINE
8
Layer 1
10
79.114607
20
159.895594
11
81.543350
21
160.213501
0
LINE
8
Layer 1
10
81.543350
20
160.213501
11
83.930727
21
160.761485
0
LINE
8
Layer 1
10
83.930727
20
160.761485
11
86.239407
21
161.640570
0
LINE
8
Layer 1
10
86.239407
20
161.640570
11
85.266325
21
159.400170
0
LINE
8
Layer 1
10
85.266325
20
159.400170
11
83.545855
21
156.542060
0
LINE
8
Layer 1
10
83.545855
20
156.542060
11
82.527310
21
155.263120
0
LINE
8
Layer 1
10
82.527310
20
155.263120
11
81.371845
21
154.106390
0
LINE
8
Layer 1
10
81.371845
20
154.106390
11
80.590522
21
153.485589
0
LINE
8
Layer 1
10
80.590522
20
153.485589
11
79.119267
21
154.223392
0
LINE
8
Layer 1
10
79.119267
20
154.223392
11
77.536342
21
154.674269
0
LINE
8
Layer 1
10
77.536342
20
154.674269
11
76.549372
21
154.769914
0
LINE
8
Layer 1
10
76.549372
20
154.769914
11
75.569952
21
154.682795
0
LINE
8
Layer 1
10
75.569952
20
154.682795
11
74.623133
21
154.417493
0
LINE
8
Layer 1
10
74.623133
20
154.417493
11
73.733962
21
153.978592
0
LINE
8
Layer 1
10
73.733962
20
153.978592
11
72.360102
21
152.920262
0
LINE
8
Layer 1
10
72.360102
20
152.920262
11
71.024502
21
152.079957
0
LINE
8
Layer 1
10
71.024502
20
152.079957
11
69.463716
21
151.627634
0
LINE
8
Layer 1
10
69.463716
20
151.627634
11
67.839162
21
151.666002
0
LINE
8
Layer 1
10
67.839162
20
151.666002
11
69.521918
21
151.297101
0
LINE
8
Layer 1
10
69.521918
20
151.297101
11
71.237812
21
151.450269
0
LINE
8
Layer 1
10
71.237812
20
151.450269
11
72.896332
21
152.079554
0
LINE
8
Layer 1
10
72.896332
20
152.079554
11
74.352052
21
152.801354
0
LINE
8
Layer 1
10
74.352052
20
152.801354
11
75.706049
21
153.034913
0
LINE
8
Layer 1
10
75.706049
20
153.034913
11
77.051262
21
152.755166
0
LINE
8
Layer 1
10
77.051262
20
152.755166
11
78.128982
21
152.191865
0
LINE
8
Layer 1
10
78.128982
20
152.191865
11
75.509092
21
151.598267
0
LINE
8
Layer 1
10
75.509092
20
151.598267
11
73.653593
21
151.213917
0
LINE
8
Layer 1
10
73.653593
20
151.213917
11
71.778902
21
150.542227
0
LINE
8
Layer 1
10
71.778902
20
150.542227
11
70.881501
21
150.115880
0
LINE
8
Layer 1
10
70.881501
20
150.115880
11
70.050357
21
149.606043
0
LINE
8
Layer 1
10
70.050357
20
149.606043
11
69.636938
21
149.350316
0
LINE
8
Layer 1
10
69.636938
20
149.350316
11
69.254761
21
149.063076
0
LINE
8
Layer 1
10
69.254761
20
149.063076
11
68.496603
21
148.484831
0
LINE
8
Layer 1
10
68.496603
20
148.484831
11
65.794703
21
145.963381
0
LINE
8
Layer 1
10
65.794703
20
145.963381
11
65.738414
21
145.985196
0
LINE
8
Layer 1
10
65.738414
20
145.985196
11
65.730198
21
145.950587
0
LINE
8
Layer 1
10
65.730198
20
145.950587
11
63.489528
21
145.757279
0
LINE
8
Layer 1
10
63.489528
20
145.757279
11
61.875988
21
145.479465
0
LINE
8
Layer 1
10
61.875988
20
145.479465
11
61.025302
21
145.203910
0
LINE
8
Layer 1
10
61.025302
20
145.203910
11
60.248438
21
144.761100
0
LINE
8
Layer 1
10
60.248438
20
144.761100
11
59.083155
21
143.545305
0
LINE
8
Layer 1
10
59.083155
20
143.545305
11
58.156838
21
142.275880
0
LINE
8
Layer 1
10
58.156838
20
142.275880
11
57.120458
21
141.165170
0
LINE
8
Layer 1
10
57.120458
20
141.165170
11
56.462128
21
140.793442
0
LINE
8
Layer 1
10
56.462128
20
140.793442
11
55.708908
21
140.728321
0
LINE
8
Layer 1
10
55.708908
20
140.728321
11
56.506948
21
140.677402
0
LINE
8
Layer 1
10
56.506948
20
140.677402
11
57.255388
21
140.959001
0
LINE
8
Layer 1
10
57.255388
20
140.959001
11
58.524998
21
141.948375
0
LINE
8
Layer 1
10
58.524998
20
141.948375
11
59.637155
21
143.053208
0
LINE
8
Layer 1
10
59.637155
20
143.053208
11
60.780618
21
143.931505
0
LINE
8
Layer 1
10
60.780618
20
143.931505
11
62.075278
21
144.263655
0
LINE
8
Layer 1
10
62.075278
20
144.263655
11
63.574358
21
144.281229
0
LINE
8
Layer 1
10
63.574358
20
144.281229
11
64.227208
21
144.245878
0
LINE
8
Layer 1
10
64.227208
20
144.245878
11
63.331435
21
143.226268
0
LINE
8
Layer 1
10
63.331435
20
143.226268
11
60.967778
21
140.503267
0
LINE
8
Layer 1
10
60.967778
20
140.503267
11
58.519895
21
137.903738
0
LINE
8
Layer 1
10
58.519895
20
137.903738
11
56.736405
21
136.321908
0
LINE
8
Layer 1
10
56.736405
20
136.321908
11
55.492915
21
136.316049
0
LINE
8
Layer 1
10
55.492915
20
136.316049
11
54.167825
21
136.699507
0
LINE
8
Layer 1
10
54.167825
20
136.699507
11
52.921971
21
137.339973
0
LINE
8
Layer 1
10
52.921971
20
137.339973
11
51.827355
21
138.214137
0
LINE
8
Layer 1
10
51.827355
20
138.214137
11
52.830295
21
137.188887
0
LINE
8
Layer 1
10
52.830295
20
137.188887
11
54.015915
21
136.381837
0
LINE
8
Layer 1
10
54.015915
20
136.381837
11
55.332665
21
135.752482
0
LINE
8
Layer 1
10
55.332665
20
135.752482
11
55.788233
21
135.609469
0
LINE
8
Layer 1
10
55.788233
20
135.609469
11
54.296954
21
134.717099
0
LINE
8
Layer 1
10
54.296954
20
134.717099
11
52.684093
21
134.069859
0
LINE
8
Layer 1
10
52.684093
20
134.069859
11
50.948805
21
133.765249
0
LINE
8
Layer 1
10
50.948805
20
133.765249
11
49.173876
21
133.778876
0
LINE
8
Layer 1
10
49.173876
20
133.778876
11
47.392380
21
134.029836
0
LINE
8
Layer 1
10
47.392380
20
134.029836
11
45.637393
21
134.437222
0
LINE
8
Layer 1
10
45.637393
20
134.437222
11
47.370406
21
133.909189
0
LINE
8
Layer 1
10
47.370406
20
133.909189
11
49.142693
21
133.533494
0
LINE
8
Layer 1
10
49.142693
20
133.533494
11
50.974853
21
133.396746
0
LINE
8
Layer 1
10
50.974853
20
133.396746
11
52.801783
21
133.591265
0
LINE
8
Layer 1
10
52.801783
20
133.591265
11
53.691104
21
133.851905
0
LINE
8
Layer 1
10
53.691104
20
133.851905
11
54.565882
21
134.161297
0
LINE
8
Layer 1
10
54.565882
20
134.161297
11
56.212552
21
135.005640
0
LINE
8
Layer 1
10
56.212552
20
135.005640
11
57.002759
21
135.488005
0
LINE
8
Layer 1
10
57.002759
20
135.488005
11
57.745850
21
136.030836
0
LINE
8
Layer 1
10
57.745850
20
136.030836
11
59.183250
21
137.174736
0
LINE
8
Layer 1
10
59.183250
20
137.174736
11
61.861883
21
139.655416
0
LINE
8
Layer 1
10
61.861883
20
139.655416
11
64.414680
21
142.220126
0
LINE
8
Layer 1
10
64.414680
20
142.220126
11
65.394496
21
143.193075
0
LINE
8
Layer 1
10
65.394496
20
143.193075
11
65.406350
21
142.220936
0
LINE
8
Layer 1
10
65.406350
20
142.220936
11
65.402850
21
141.116416
0
LINE
8
Layer 1
10
65.402850
20
141.116416
11
65.212920
21
140.021539
0
LINE
8
Layer 1
10
65.212920
20
140.021539
11
64.826217
21
138.979766
0
LINE
8
Layer 1
10
64.826217
20
138.979766
11
63.555527
21
137.038046
0
LINE
8
Layer 1
10
63.555527
20
137.038046
11
65.245287
21
138.720606
0
LINE
8
Layer 1
10
65.245287
20
138.720606
11
65.908678
21
139.771720
0
LINE
8
Layer 1
10
65.908678
20
139.771720
11
66.369737
21
140.925996
0
LINE
8
Layer 1
10
66.369737
20
140.925996
11
66.636372
21
142.148346
0
LINE
8
Layer 1
10
66.636372
20
142.148346
11
66.858565
21
143.261346
0
LINE
8
Layer 1
10
66.858565
20
143.261346
11
67.550740
21
145.218756
0
LINE
8
Layer 1
10
67.550740
20
145.218756
11
69.685970
21
146.912896
0
LINE
8
Layer 1
10
69.685970
20
146.912896
11
70.397802
21
147.382065
0
LINE
8
Layer 1
10
70.397802
20
147.382065
11
70.753046
21
147.614562
0
LINE
8
Layer 1
10
70.753046
20
147.614562
11
71.123104
21
147.807133
0
LINE
8
Layer 1
10
71.123104
20
147.807133
11
71.858369
21
148.193752
0
LINE
8
Layer 1
10
71.858369
20
148.193752
11
72.446714
21
148.426520
0
LINE
8
Layer 1
10
72.446714
20
148.426520
11
70.663094
21
142.723160
0
LINE
8
Layer 1
10
70.663094
20
142.723160
11
69.200250
21
138.800517
0
LINE
8
Layer 1
10
69.200250
20
138.800517
11
67.360324
21
135.039970
0
LINE
8
Layer 1
10
67.360324
20
135.039970
11
65.423184
21
132.122340
0
LINE
8
Layer 1
10
65.423184
20
132.122340
11
64.205417
21
131.476778
0
LINE
8
Layer 1
10
64.205417
20
131.476778
11
62.856094
21
131.195650
0
LINE
8
Layer 1
10
62.856094
20
131.195650
11
61.138054
21
131.496555
0
LINE
8
Layer 1
10
61.138054
20
131.496555
11
59.552244
21
132.335782
0
LINE
8
Layer 1
10
59.552244
20
132.335782
11
60.254510
21
131.742243
0
LINE
8
Layer 1
10
60.254510
20
131.742243
11
61.044864
21
131.272342
0
LINE
8
Layer 1
10
61.044864
20
131.272342
11
61.917730
21
130.919880
0
LINE
8
Layer 1
10
61.917730
20
130.919880
11
62.839664
21
130.729714
0
LINE
8
Layer 1
10
62.839664
20
130.729714
11
64.361504
21
130.881479
0
LINE
8
Layer 1
10
64.361504
20
130.881479
11
63.209596
21
129.819227
0
LINE
8
Layer 1
10
63.209596
20
129.819227
11
61.917484
21
128.932819
0
LINE
8
Layer 1
10
61.917484
20
128.932819
11
60.007275
21
128.097019
0
LINE
8
Layer 1
10
60.007275
20
128.097019
11
57.996874
21
127.325199
0
LINE
8
Layer 1
10
57.996874
20
127.325199
11
57.029263
21
126.836643
0
LINE
8
Layer 1
10
57.029263
20
126.836643
11
56.148125
21
126.215240
0
LINE
8
Layer 1
10
56.148125
20
126.215240
11
55.366948
21
125.472064
0
LINE
8
Layer 1
10
55.366948
20
125.472064
11
54.699224
21
124.618189
0
LINE
8
Layer 1
10
54.699224
20
124.618189
11
55.419313
21
125.395121
0
LINE
8
Layer 1
10
55.419313
20
125.395121
11
56.241083
21
126.054610
0
LINE
8
Layer 1
10
56.241083
20
126.054610
11
57.150406
21
126.586928
0
LINE
8
Layer 1
10
57.150406
20
126.586928
11
58.133154
21
126.982349
0
LINE
8
Layer 1
10
58.133154
20
126.982349
11
60.175704
21
127.569333
0
LINE
8
Layer 1
10
60.175704
20
127.569333
11
62.247954
21
128.273169
0
LINE
8
Layer 1
10
62.247954
20
128.273169
11
64.153157
21
129.407134
0
LINE
8
Layer 1
10
64.153157
20
129.407134
11
65.828404
21
130.859449
0
LINE
8
Layer 1
10
65.828404
20
130.859449
11
67.298626
21
132.492963
0
LINE
8
Layer 1
10
67.298626
20
132.492963
11
68.610544
21
134.256139
0
LINE
8
Layer 1
10
68.610544
20
134.256139
11
69.792961
21
136.099919
0
LINE
8
Layer 1
10
69.792961
20
136.099919
11
70.837818
21
138.024718
0
LINE
8
Layer 1
10
70.837818
20
138.024718
11
72.616254
21
141.996149
0
LINE
8
Layer 1
10
72.616254
20
141.996149
11
75.333504
21
149.096309
0
LINE
8
Layer 1
10
75.333504
20
149.096309
11
75.866235
21
149.160139
0
LINE
8
Layer 1
10
75.866235
20
149.160139
11
77.718909
21
149.395003
0
LINE
8
Layer 1
10
77.718909
20
149.395003
11
79.675615
21
149.874937
0
LINE
8
Layer 1
10
79.675615
20
149.874937
11
81.537777
21
150.699706
0
LINE
8
Layer 1
10
81.537777
20
150.699706
11
83.241515
21
151.815577
0
LINE
8
Layer 1
10
83.241515
20
151.815577
11
84.731745
21
153.111523
0
LINE
8
Layer 1
10
84.731745
20
153.111523
11
86.067305
21
154.566357
0
LINE
8
Layer 1
10
86.067305
20
154.566357
11
87.248338
21
156.106740
0
LINE
8
Layer 1
10
87.248338
20
156.106740
11
88.291955
21
157.743347
0
LINE
8
Layer 1
10
88.291955
20
157.743347
11
89.792655
21
160.670267
0
LINE
8
Layer 1
10
89.792655
20
160.670267
11
88.883403
21
157.203737
0
LINE
8
Layer 1
10
88.883403
20
157.203737
11
87.447444
21
152.430617
0
LINE
8
Layer 1
10
87.447444
20
152.430617
11
85.693753
21
147.764867
0
LINE
8
Layer 1
10
85.693753
20
147.764867
11
84.667667
21
145.545043
0
LINE
8
Layer 1
10
84.667667
20
145.545043
11
83.480413
21
143.407077
0
LINE
8
Layer 1
10
83.480413
20
143.407077
11
81.508933
21
140.635427
0
LINE
8
Layer 1
10
81.508933
20
140.635427
11
80.875599
21
141.140515
0
LINE
8
Layer 1
10
80.875599
20
141.140515
11
80.158253
21
141.516868
0
LINE
8
Layer 1
10
80.158253
20
141.516868
11
79.146760
21
141.741099
0
LINE
8
Layer 1
10
79.146760
20
141.741099
11
78.118633
21
141.613222
0
LINE
8
Layer 1
10
78.118633
20
141.613222
11
77.320059
21
141.218444
0
LINE
8
Layer 1
10
77.320059
20
141.218444
11
76.642983
21
140.639534
0
LINE
8
Layer 1
10
76.642983
20
140.639534
11
75.725383
21
139.506334
0
LINE
8
Layer 1
10
75.725383
20
139.506334
11
74.079513
21
137.465504
0
LINE
8
Layer 1
10
74.079513
20
137.465504
11
73.008430
21
136.705018
0
LINE
8
Layer 1
10
73.008430
20
136.705018
11
71.770293
21
136.266184
0
LINE
8
Layer 1
10
71.770293
20
136.266184
11
73.159094
21
136.410636
0
LINE
8
Layer 1
10
73.159094
20
136.410636
11
74.456400
21
136.927000
0
LINE
8
Layer 1
10
74.456400
20
136.927000
11
75.620687
21
137.711263
0
LINE
8
Layer 1
10
75.620687
20
137.711263
11
76.693170
21
138.617030
0
LINE
8
Layer 1
10
76.693170
20
138.617030
11
77.695060
21
139.377881
0
LINE
8
Layer 1
10
77.695060
20
139.377881
11
78.562026
21
139.692321
0
LINE
8
Layer 1
10
78.562026
20
139.692321
11
79.145122
21
139.452215
0
LINE
8
Layer 1
10
79.145122
20
139.452215
11
79.656308
21
138.803807
0
LINE
8
Layer 1
10
79.656308
20
138.803807
11
80.491222
21
139.475512
0
LINE
8
Layer 1
10
80.491222
20
139.475512
11
77.041942
21
135.868332
0
LINE
8
Layer 1
10
77.041942
20
135.868332
11
75.343547
21
133.817214
0
LINE
8
Layer 1
10
75.343547
20
133.817214
11
73.892692
21
131.584132
0
LINE
8
Layer 1
10
73.892692
20
131.584132
11
72.948160
21
129.652982
0
LINE
8
Layer 1
10
72.948160
20
129.652982
11
71.600710
21
128.911585
0
LINE
8
Layer 1
10
71.600710
20
128.911585
11
70.422400
21
127.736305
0
LINE
8
Layer 1
10
70.422400
20
127.736305
11
69.520974
21
126.477989
0
LINE
8
Layer 1
10
69.520974
20
126.477989
11
68.766840
21
125.126245
0
LINE
8
Layer 1
10
68.766840
20
125.126245
11
68.152502
21
123.744595
0
LINE
8
Layer 1
10
68.152502
20
123.744595
11
67.639422
21
122.393515
0
LINE
8
Layer 1
10
67.639422
20
122.393515
11
66.581502
21
119.765275
0
LINE
8
Layer 1
10
66.581502
20
119.765275
11
65.967614
21
118.541224
0
LINE
8
Layer 1
10
65.967614
20
118.541224
11
65.203082
21
117.405155
0
LINE
8
Layer 1
10
65.203082
20
117.405155
11
64.210179
21
116.488521
0
LINE
8
Layer 1
10
64.210179
20
116.488521
11
63.031492
21
115.827635
0
LINE
8
Layer 1
10
63.031492
20
115.827635
11
61.728320
21
115.183665
0
LINE
8
Layer 1
10
61.728320
20
115.183665
11
60.521082
21
114.335225
0
LINE
8
Layer 1
10
60.521082
20
114.335225
11
59.533837
21
113.273181
0
LINE
8
Layer 1
10
59.533837
20
113.273181
11
58.727092
21
112.068295
0
LINE
8
Layer 1
10
58.727092
20
112.068295
11
59.637752
21
113.162803
0
LINE
8
Layer 1
10
59.637752
20
113.162803
11
60.709882
21
114.099705
0
LINE
8
Layer 1
10
60.709882
20
114.099705
11
61.927682
21
114.777368
0
LINE
8
Layer 1
10
61.927682
20
114.777368
11
63.263652
21
115.270205
0
LINE
8
Layer 1
10
63.263652
20
115.270205
11
64.655048
21
115.878478
0
LINE
8
Layer 1
10
64.655048
20
115.878478
11
65.868862
21
116.790965
0
LINE
8
Layer 1
10
65.868862
20
116.790965
11
66.838751
21
117.942259
0
LINE
8
Layer 1
10
66.838751
20
117.942259
11
67.653162
21
119.208315
0
LINE
8
Layer 1
10
67.653162
20
119.208315
11
69.021882
21
121.787195
0
LINE
8
Layer 1
10
69.021882
20
121.787195
11
69.667730
21
123.064955
0
LINE
8
Layer 1
10
69.667730
20
123.064955
11
70.341321
21
124.250535
0
LINE
8
Layer 1
10
70.341321
20
124.250535
11
71.653751
21
126.003455
0
LINE
8
Layer 1
10
71.653751
20
126.003455
11
70.513151
21
121.756625
0
LINE
8
Layer 1
10
70.513151
20
121.756625
11
69.174321
21
116.883335
0
LINE
8
Layer 1
10
69.174321
20
116.883335
11
68.334955
21
114.550274
0
LINE
8
Layer 1
10
68.334955
20
114.550274
11
67.228961
21
112.331155
0
LINE
8
Layer 1
10
67.228961
20
112.331155
11
65.732335
21
110.379174
0
LINE
8
Layer 1
10
65.732335
20
110.379174
11
63.879331
21
108.761615
0
LINE
8
Layer 1
10
63.879331
20
108.761615
11
60.709751
21
106.586655
0
LINE
8
Layer 1
10
60.709751
20
106.586655
11
60.541284
21
106.652102
0
LINE
8
Layer 1
10
60.541284
20
106.652102
11
60.460219
21
106.396711
0
LINE
8
Layer 1
10
60.460219
20
106.396711
11
59.708524
21
105.824526
0
LINE
8
Layer 1
10
59.708524
20
105.824526
11
57.879809
21
104.008606
0
LINE
8
Layer 1
10
57.879809
20
104.008606
11
56.428114
21
101.879206
0
LINE
8
Layer 1
10
56.428114
20
101.879206
11
55.418933
21
99.532561
0
LINE
8
Layer 1
10
55.418933
20
99.532561
11
54.845004
21
97.043426
0
LINE
8
Layer 1
10
54.845004
20
97.043426
11
55.531163
21
99.480380
0
LINE
8
Layer 1
10
55.531163
20
99.480380
11
56.641424
21
101.755656
0
LINE
8
Layer 1
10
56.641424
20
101.755656
11
58.151651
21
103.757572
0
LINE
8
Layer 1
10
58.151651
20
103.757572
11
60.013900
21
105.437000
0
LINE
8
Layer 1
10
60.013900
20
105.437000
11
60.240945
21
105.593210
0
LINE
8
Layer 1
10
60.240945
20
105.593210
11
60.052138
21
104.091980
0
LINE
8
Layer 1
10
60.052138
20
104.091980
11
60.379643
21
101.536800
0
LINE
8
Layer 1
10
60.379643
20
101.536800
11
60.591238
21
100.296006
0
LINE
8
Layer 1
10
60.591238
20
100.296006
11
60.623384
21
99.037710
0
LINE
8
Layer 1
10
60.623384
20
99.037710
11
60.381426
21
97.795871
0
LINE
8
Layer 1
10
60.381426
20
97.795871
11
59.960030
21
96.602920
0
LINE
8
Layer 1
10
59.960030
20
96.602920
11
60.444647
21
97.784128
0
LINE
8
Layer 1
10
60.444647
20
97.784128
11
60.750777
21
99.023640
0
LINE
8
Layer 1
10
60.750777
20
99.023640
11
60.782999
21
100.306530
0
LINE
8
Layer 1
10
60.782999
20
100.306530
11
60.632004
21
101.580910
0
LINE
8
Layer 1
10
60.632004
20
101.580910
11
60.435933
21
104.074480
0
LINE
8
Layer 1
10
60.435933
20
104.074480
11
60.849755
21
106.011760
0
LINE
8
Layer 1
10
60.849755
20
106.011760
11
64.306175
21
108.157490
0
LINE
8
Layer 1
10
64.306175
20
108.157490
11
66.362390
21
109.789811
0
LINE
8
Layer 1
10
66.362390
20
109.789811
11
68.056565
21
111.795370
0
LINE
8
Layer 1
10
68.056565
20
111.795370
11
69.335429
21
114.071000
0
LINE
8
Layer 1
10
69.335429
20
114.071000
11
70.338845
21
116.480800
0
LINE
8
Layer 1
10
70.338845
20
116.480800
11
71.219143
21
119.053280
0
LINE
8
Layer 1
10
71.219143
20
119.053280
11
71.230051
21
118.989114
0
LINE
8
Layer 1
10
71.230051
20
118.989114
11
71.326643
21
117.612773
0
LINE
8
Layer 1
10
71.326643
20
117.612773
11
71.272872
21
116.234094
0
LINE
8
Layer 1
10
71.272872
20
116.234094
11
70.767479
21
113.442200
0
LINE
8
Layer 1
10
70.767479
20
113.442200
11
70.021302
21
110.601774
0
LINE
8
Layer 1
10
70.021302
20
110.601774
11
69.440490
21
107.679105
0
LINE
8
Layer 1
10
69.440490
20
107.679105
11
69.188000
21
104.710000
0
LINE
8
Layer 1
10
69.188000
20
104.710000
11
69.289129
21
101.756720
0
LINE
8
Layer 1
10
69.289129
20
101.756720
11
69.818766
21
98.849560
0
LINE
8
Layer 1
10
69.818766
20
98.849560
11
69.536117
21
101.757595
0
LINE
8
Layer 1
10
69.536117
20
101.757595
11
69.679794
21
104.675800
0
LINE
8
Layer 1
10
69.679794
20
104.675800
11
70.165422
21
107.534116
0
LINE
8
Layer 1
10
70.165422
20
107.534116
11
70.966104
21
110.320640
0
LINE
8
Layer 1
10
70.966104
20
110.320640
11
71.950768
21
113.097554
0
LINE
8
Layer 1
10
71.950768
20
113.097554
11
72.737474
21
116.032680
0
LINE
8
Layer 1
10
72.737474
20
116.032680
11
72.928130
21
117.580818
0
LINE
8
Layer 1
10
72.928130
20
117.580818
11
72.948359
21
119.140520
0
LINE
8
Layer 1
10
72.948359
20
119.140520
11
72.743683
21
120.722256
0
LINE
8
Layer 1
10
72.743683
20
120.722256
11
72.205150
21
122.223510
0
LINE
8
Layer 1
10
72.205150
20
122.223510
11
73.653139
21
126.577030
0
LINE
8
Layer 1
10
73.653139
20
126.577030
11
74.529811
21
128.643157
0
LINE
8
Layer 1
10
74.529811
20
128.643157
11
75.588850
21
130.579070
0
LINE
8
Layer 1
10
75.588850
20
130.579070
11
77.009323
21
132.547672
0
LINE
8
Layer 1
10
77.009323
20
132.547672
11
78.647700
21
134.339000
0
LINE
8
Layer 1
10
78.647700
20
134.339000
11
82.338300
21
137.842820
0
LINE
8
Layer 1
10
82.338300
20
137.842820
11
84.153845
21
139.801825
0
LINE
8
Layer 1
10
84.153845
20
139.801825
11
85.757960
21
141.937410
0
LINE
8
Layer 1
10
85.757960
20
141.937410
11
86.094891
21
142.457079
0
LINE
8
Layer 1
10
86.094891
20
142.457079
11
85.910939
21
141.695015
0
LINE
8
Layer 1
10
85.910939
20
141.695015
11
85.320118
21
140.152670
0
LINE
8
Layer 1
10
85.320118
20
140.152670
11
84.489429
21
138.725135
0
LINE
8
Layer 1
10
84.489429
20
138.725135
11
82.376009
21
135.828105
0
LINE
8
Layer 1
10
82.376009
20
135.828105
11
81.425800
21
134.210622
0
LINE
8
Layer 1
10
81.425800
20
134.210622
11
80.732029
21
132.467685
0
LINE
8
Layer 1
10
80.732029
20
132.467685
11
80.276380
21
130.689218
0
LINE
8
Layer 1
10
80.276380
20
130.689218
11
79.997301
21
128.874645
0
LINE
8
Layer 1
10
79.997301
20
128.874645
11
79.844113
21
125.268523
0
LINE
8
Layer 1
10
79.844113
20
125.268523
11
80.087527
21
121.667365
0
LINE
8
Layer 1
10
80.087527
20
121.667365
11
80.171835
21
125.235516
0
LINE
8
Layer 1
10
80.171835
20
125.235516
11
80.646383
21
128.772975
0
LINE
8
Layer 1
10
80.646383
20
128.772975
11
81.072034
21
130.485078
0
LINE
8
Layer 1
10
81.072034
20
130.485078
11
81.657337
21
132.125340
0
LINE
8
Layer 1
10
81.657337
20
132.125340
11
82.433174
21
133.657092
0
LINE
8
Layer 1
10
82.433174
20
133.657092
11
83.430423
21
135.043665
0
LINE
8
Layer 1
10
83.430423
20
135.043665
11
85.805883
21
137.742665
0
LINE
8
Layer 1
10
85.805883
20
137.742665
11
86.924636
21
139.322023
0
LINE
8
Layer 1
10
86.924636
20
139.322023
11
87.777093
21
141.059635
0
LINE
8
Layer 1
10
87.777093
20
141.059635
11
88.255532
21
142.578729
0
LINE
8
Layer 1
10
88.255532
20
142.578729
11
88.576111
21
144.134594
0
LINE
8
Layer 1
10
88.576111
20
144.134594
11
88.736952
21
145.714981
0
LINE
8
Layer 1
10
88.736952
20
145.714981
11
88.736171
21
147.307635
0
LINE
8
Layer 1
10
88.736171
20
147.307635
11
90.593119
21
151.704509
0
LINE
8
Layer 1
10
90.593119
20
151.704509
11
92.185181
21
156.204075
0
LINE
8
Layer 1
10
92.185181
20
156.204075
11
93.899991
21
161.749265
0
LINE
8
Layer 1
10
93.899991
20
161.749265
11
93.548179
21
157.628324
0
LINE
8
Layer 1
10
93.548179
20
157.628324
11
92.939307
21
153.537455
0
LINE
8
Layer 1
10
92.939307
20
153.537455
11
92.269752
21
150.360951
0
LINE
8
Layer 1
10
92.269752
20
150.360951
11
91.416257
21
147.228855
0
LINE
8
Layer 1
10
91.416257
20
147.228855
11
89.693097
21
142.457975
0
LINE
8
Layer 1
10
89.693097
20
142.457975
11
89.689059
21
142.457571
0
LINE
8
Layer 1
10
89.689059
20
142.457571
11
89.690270
21
142.451106
0
LINE
8
Layer 1
10
89.690270
20
142.451106
11
89.127779
21
141.100696
0
LINE
8
Layer 1
10
89.127779
20
141.100696
11
87.868200
21
137.862211
0
LINE
8
Layer 1
10
87.868200
20
137.862211
11
86.894239
21
134.409316
0
LINE
8
Layer 1
10
86.894239
20
134.409316
11
86.418873
21
130.833916
0
LINE
8
Layer 1
10
86.418873
20
130.833916
11
86.369992
21
128.665626
0
LINE
8
Layer 1
10
86.369992
20
128.665626
11
86.282864
21
128.442555
0
LINE
8
Layer 1
10
86.282864
20
128.442555
11
85.735993
21
127.360976
0
LINE
8
Layer 1
10
85.735993
20
127.360976
11
85.033184
21
126.373585
0
LINE
8
Layer 1
10
85.033184
20
126.373585
11
83.265584
21
124.383455
0
LINE
8
Layer 1
10
83.265584
20
124.383455
11
81.698243
21
122.112553
0
LINE
8
Layer 1
10
81.698243
20
122.112553
11
80.529754
21
119.612915
0
LINE
8
Layer 1
10
80.529754
20
119.612915
11
79.707967
21
117.046128
0
LINE
8
Layer 1
10
79.707967
20
117.046128
11
79.163994
21
114.406465
0
LINE
8
Layer 1
10
79.163994
20
114.406465
11
80.013770
21
116.925456
0
LINE
8
Layer 1
10
80.013770
20
116.925456
11
81.126584
21
119.339805
0
LINE
8
Layer 1
10
81.126584
20
119.339805
11
82.498428
21
121.537155
0
LINE
8
Layer 1
10
82.498428
20
121.537155
11
84.215200
21
123.477000
0
LINE
8
Layer 1
10
84.215200
20
123.477000
11
86.236240
21
125.257660
0
LINE
8
Layer 1
10
86.236240
20
125.257660
11
86.476346
21
125.501469
0
LINE
8
Layer 1
10
86.476346
20
125.501469
11
86.859028
21
119.687276
0
LINE
8
Layer 1
10
86.859028
20
119.687276
11
86.911408
21
116.854010
0
LINE
8
Layer 1
10
86.911408
20
116.854010
11
86.728842
21
114.059669
0
LINE
8
Layer 1
10
86.728842
20
114.059669
11
86.194243
21
110.871335
0
LINE
8
Layer 1
10
86.194243
20
110.871335
11
85.306889
21
107.748782
0
LINE
8
Layer 1
10
85.306889
20
107.748782
11
84.106391
21
104.710472
0
LINE
8
Layer 1
10
84.106391
20
104.710472
11
82.632362
21
101.774869
0
LINE
8
Layer 1
10
82.632362
20
101.774869
11
80.649507
21
98.516244
0
LINE
8
Layer 1
10
80.649507
20
98.516244
11
78.473932
21
95.320289
0
LINE
8
Layer 1
10
78.473932
20
95.320289
11
77.580189
21
95.053564
0
LINE
8
Layer 1
10
77.580189
20
95.053564
11
76.648162
21
95.018311
0
LINE
8
Layer 1
10
76.648162
20
95.018311
11
75.376765
21
95.115336
0
LINE
8
Layer 1
10
75.376765
20
95.115336
11
74.011442
21
95.141461
0
LINE
8
Layer 1
10
74.011442
20
95.141461
11
72.616862
21
94.810928
0
LINE
8
Layer 1
10
72.616862
20
94.810928
11
71.442052
21
94.051827
0
LINE
8
Layer 1
10
71.442052
20
94.051827
11
69.577762
21
92.190767
0
LINE
8
Layer 1
10
69.577762
20
92.190767
11
68.736624
21
91.175009
0
LINE
8
Layer 1
10
68.736624
20
91.175009
11
68.020262
21
90.072886
0
LINE
8
Layer 1
10
68.020262
20
90.072886
11
67.435185
21
88.895798
0
LINE
8
Layer 1
10
67.435185
20
88.895798
11
66.987902
21
87.655147
0
LINE
8
Layer 1
10
66.987902
20
87.655147
11
66.451840
21
85.109991
0
LINE
8
Layer 1
10
66.451840
20
85.109991
11
66.136557
21
82.539327
0
LINE
8
Layer 1
10
66.136557
20
82.539327
11
66.593640
21
85.084810
0
LINE
8
Layer 1
10
66.593640
20
85.084810
11
67.261807
21
87.566467
0
LINE
8
Layer 1
10
67.261807
20
87.566467
11
68.383514
21
89.840173
0
LINE
8
Layer 1
10
68.383514
20
89.840173
11
69.996567
21
91.796197
0
LINE
8
Layer 1
10
69.996567
20
91.796197
11
71.887247
21
93.489641
0
LINE
8
Layer 1
10
71.887247
20
93.489641
11
72.915382
21
94.069629
0
LINE
8
Layer 1
10
72.915382
20
94.069629
11
74.043757
21
94.241227
0
LINE
8
Layer 1
10
74.043757
20
94.241227
11
76.556047
21
93.914665
0
LINE
8
Layer 1
10
76.556047
20
93.914665
11
77.484016
21
93.868141
0
LINE
8
Layer 1
10
77.484016
20
93.868141
11
75.339756
21
90.501741
0
LINE
8
Layer 1
10
75.339756
20
90.501741
11
73.726463
21
87.491799
0
LINE
8
Layer 1
10
73.726463
20
87.491799
11
72.401116
21
84.344431
0
LINE
8
Layer 1
10
72.401116
20
84.344431
11
71.401562
21
81.091270
0
LINE
8
Layer 1
10
71.401562
20
81.091270
11
70.729396
21
77.755051
0
LINE
8
Layer 1
10
70.729396
20
77.755051
11
70.342250
21
74.396238
0
LINE
8
Layer 1
10
70.342250
20
74.396238
11
70.224072
21
71.022607
0
LINE
8
Layer 1
10
70.224072
20
71.022607
11
70.374783
21
67.650273
0
LINE
8
Layer 1
10
70.374783
20
67.650273
11
70.794307
21
64.295351
0
LINE
8
Layer 1
10
70.794307
20
64.295351
11
70.563314
21
67.070900
0
LINE
8
Layer 1
10
70.563314
20
67.070900
11
70.508595
21
69.858311
0
LINE
8
Layer 1
10
70.508595
20
69.858311
11
70.634780
21
72.641524
0
LINE
8
Layer 1
10
70.634780
20
72.641524
11
70.946495
21
75.404477
0
LINE
8
Layer 1
10
70.946495
20
75.404477
11
71.448372
21
78.131107
0
LINE
8
Layer 1
10
71.448372
20
78.131107
11
72.145037
21
80.805354
0
LINE
8
Layer 1
10
72.145037
20
80.805354
11
73.041119
21
83.411156
0
LINE
8
Layer 1
10
73.041119
20
83.411156
11
74.141247
21
85.932451
0
LINE
8
Layer 1
10
74.141247
20
85.932451
11
74.277797
21
85.385445
0
LINE
8
Layer 1
10
74.277797
20
85.385445
11
74.508880
21
83.541155
0
LINE
8
Layer 1
10
74.508880
20
83.541155
11
74.849632
21
81.649792
0
LINE
8
Layer 1
10
74.849632
20
81.649792
11
75.395238
21
79.807055
0
LINE
8
Layer 1
10
75.395238
20
79.807055
11
76.667278
21
76.234555
0
LINE
8
Layer 1
10
76.667278
20
76.234555
11
77.490713
21
74.520710
0
LINE
8
Layer 1
10
77.490713
20
74.520710
11
78.622598
21
73.006185
0
LINE
8
Layer 1
10
78.622598
20
73.006185
11
77.599360
21
74.578608
0
LINE
8
Layer 1
10
77.599360
20
74.578608
11
76.898088
21
76.321415
0
LINE
8
Layer 1
10
76.898088
20
76.321415
11
75.868178
21
79.945425
0
LINE
8
Layer 1
10
75.868178
20
79.945425
11
75.456551
21
81.756157
0
LINE
8
Layer 1
10
75.456551
20
81.756157
11
75.245763
21
83.601085
0
LINE
8
Layer 1
10
75.245763
20
83.601085
11
75.129950
21
85.518435
0
LINE
8
Layer 1
10
75.129950
20
85.518435
11
74.921221
21
86.521005
0
LINE
8
Layer 1
10
74.921221
20
86.521005
11
74.704277
21
87.050369
0
LINE
8
Layer 1
10
74.704277
20
87.050369
11
76.394447
21
89.847879
0
LINE
8
Layer 1
10
76.394447
20
89.847879
11
78.392641
21
92.710770
0
LINE
8
Layer 1
10
78.392641
20
92.710770
11
80.513947
21
95.521949
0
LINE
8
Layer 1
10
80.513947
20
95.521949
11
80.166650
21
92.768869
0
LINE
8
Layer 1
10
80.166650
20
92.768869
11
80.277393
21
90.800365
0
LINE
8
Layer 1
10
80.277393
20
90.800365
11
80.618313
21
88.888667
0
LINE
8
Layer 1
10
80.618313
20
88.888667
11
81.574970
21
85.185669
0
LINE
8
Layer 1
10
81.574970
20
85.185669
11
82.392790
21
81.488594
0
LINE
8
Layer 1
10
82.392790
20
81.488594
11
82.855620
21
77.730539
0
LINE
8
Layer 1
10
82.855620
20
77.730539
11
82.809128
21
73.942020
0
LINE
8
Layer 1
10
82.809128
20
73.942020
11
82.546150
21
72.062903
0
LINE
8
Layer 1
10
82.546150
20
72.062903
11
82.083726
21
70.218039
0
LINE
8
Layer 1
10
82.083726
20
70.218039
11
82.625890
21
72.046050
0
LINE
8
Layer 1
10
82.625890
20
72.046050
11
82.970928
21
73.923444
0
LINE
8
Layer 1
10
82.970928
20
73.923444
11
83.146742
21
75.829457
0
LINE
8
Layer 1
10
83.146742
20
75.829457
11
83.181236
21
77.743329
0
LINE
8
Layer 1
10
83.181236
20
77.743329
11
82.876140
21
81.561817
0
LINE
8
Layer 1
10
82.876140
20
81.561817
11
82.209769
21
85.334069
0
LINE
8
Layer 1
10
82.209769
20
85.334069
11
81.417877
21
89.049009
0
LINE
8
Layer 1
10
81.417877
20
89.049009
11
81.168303
21
90.892907
0
LINE
8
Layer 1
10
81.168303
20
90.892907
11
81.144309
21
92.730619
0
LINE
8
Layer 1
10
81.144309
20
92.730619
11
81.332504
21
94.216652
0
LINE
8
Layer 1
10
81.332504
20
94.216652
11
81.692005
21
95.675322
0
LINE
8
Layer 1
10
81.692005
20
95.675322
11
82.735499
21
98.556659
0
LINE
8
Layer 1
10
82.735499
20
98.556659
11
84.238899
21
100.834369
0
LINE
8
Layer 1
10
84.238899
20
100.834369
11
85.391619
21
102.839579
0
LINE
8
Layer 1
10
85.391619
20
102.839579
11
85.562646
21
100.491979
0
LINE
8
Layer 1
10
85.562646
20
100.491979
11
86.110480
21
97.629307
0
LINE
8
Layer 1
10
86.110480
20
97.629307
11
87.036126
21
94.865579
0
LINE
8
Layer 1
10
87.036126
20
94.865579
11
88.330389
21
92.292657
0
LINE
8
Layer 1
10
88.330389
20
92.292657
11
89.986346
21
89.936209
0
LINE
8
Layer 1
10
89.986346
20
89.936209
11
88.533890
21
92.383689
0
LINE
8
Layer 1
10
88.533890
20
92.383689
11
87.453856
21
95.016809
0
LINE
8
Layer 1
10
87.453856
20
95.016809
11
86.765079
21
97.755818
0
LINE
8
Layer 1
10
86.765079
20
97.755818
11
86.448186
21
100.562269
0
LINE
8
Layer 1
10
86.448186
20
100.562269
11
86.488024
21
103.252753
0
LINE
8
Layer 1
10
86.488024
20
103.252753
11
86.887730
21
105.913679
0
LINE
8
Layer 1
10
86.887730
20
105.913679
11
88.286441
21
109.745116
0
LINE
8
Layer 1
10
88.286441
20
109.745116
11
89.188060
21
113.722979
0
LINE
8
Layer 1
10
89.188060
20
113.722979
11
89.550955
21
117.207697
0
LINE
8
Layer 1
10
89.550955
20
117.207697
11
89.604038
21
120.656116
0
LINE
8
Layer 1
10
89.604038
20
120.656116
11
89.489978
21
127.351879
0
LINE
8
Layer 1
10
89.489978
20
127.351879
11
89.665311
21
130.564699
0
LINE
8
Layer 1
10
89.665311
20
130.564699
11
90.218508
21
133.636319
0
LINE
8
Layer 1
10
90.218508
20
133.636319
11
91.143381
21
136.439419
0
LINE
8
Layer 1
10
91.143381
20
136.439419
11
91.556531
21
135.407959
0
LINE
8
Layer 1
10
91.556531
20
135.407959
11
92.693631
21
133.267539
0
LINE
8
Layer 1
10
92.693631
20
133.267539
11
93.193039
21
132.292320
0
LINE
8
Layer 1
10
93.193039
20
132.292320
11
93.542555
21
131.253909
0
LINE
8
Layer 1
10
93.542555
20
131.253909
11
93.709537
21
129.011819
0
LINE
8
Layer 1
10
93.709537
20
129.011819
11
93.580855
21
126.669423
0
LINE
8
Layer 1
10
93.580855
20
126.669423
11
93.302573
21
124.340059
0
LINE
8
Layer 1
10
93.302573
20
124.340059
11
93.907033
21
126.628434
0
LINE
8
Layer 1
10
93.907033
20
126.628434
11
94.363723
21
128.950819
0
LINE
8
Layer 1
10
94.363723
20
128.950819
11
94.516188
21
130.170202
0
LINE
8
Layer 1
10
94.516188
20
130.170202
11
94.517511
21
131.399079
0
LINE
8
Layer 1
10
94.517511
20
131.399079
11
94.290269
21
132.637089
0
LINE
8
Layer 1
10
94.290269
20
132.637089
11
93.882435
21
133.827879
0
LINE
8
Layer 1
10
93.882435
20
133.827879
11
93.097883
21
135.976309
0
LINE
8
Layer 1
10
93.097883
20
135.976309
11
92.640833
21
138.161769
0
LINE
8
Layer 1
10
92.640833
20
138.161769
11
92.487990
21
139.498849
0
LINE
8
Layer 1
10
92.487990
20
139.498849
11
92.532832
21
139.594931
0
LINE
8
Layer 1
10
92.532832
20
139.594931
11
93.964852
21
142.701431
0
LINE
8
Layer 1
10
93.964852
20
142.701431
11
95.245232
21
145.960161
0
LINE
8
Layer 1
10
95.245232
20
145.960161
11
96.315992
21
149.278329
0
LINE
8
Layer 1
10
96.315992
20
149.278329
11
97.192202
21
152.653091
0
LINE
8
Layer 1
10
97.192202
20
152.653091
11
97.716046
21
155.170231
0
LINE
8
Layer 1
10
97.716046
20
155.170231
11
98.092835
21
151.992021
0
LINE
8
Layer 1
10
98.092835
20
151.992021
11
97.583537
21
149.406811
0
LINE
8
Layer 1
10
97.583537
20
149.406811
11
96.812450
21
147.131191
0
LINE
8
Layer 1
10
96.812450
20
147.131191
11
95.707130
21
144.843921
0
LINE
8
Layer 1
10
95.707130
20
144.843921
11
95.164729
21
143.565418
0
LINE
8
Layer 1
10
95.164729
20
143.565418
11
94.779297
21
142.231171
0
LINE
8
Layer 1
10
94.779297
20
142.231171
11
94.459065
21
139.558831
0
LINE
8
Layer 1
10
94.459065
20
139.558831
11
94.519984
21
136.948625
0
LINE
8
Layer 1
10
94.519984
20
136.948625
11
94.818348
21
134.354811
0
LINE
8
Layer 1
10
94.818348
20
134.354811
11
95.001752
21
136.908978
0
LINE
8
Layer 1
10
95.001752
20
136.908978
11
95.416258
21
139.435951
0
LINE
8
Layer 1
10
95.416258
20
139.435951
11
96.160681
21
141.796681
0
LINE
8
Layer 1
10
96.160681
20
141.796681
11
97.367001
21
143.858181
0
LINE
8
Layer 1
10
97.367001
20
143.858181
11
98.656271
21
145.578781
0
LINE
8
Layer 1
10
98.656271
20
145.578781
11
98.707441
21
144.824190
0
LINE
8
Layer 1
10
98.707441
20
144.824190
11
98.862870
21
139.706933
0
LINE
8
Layer 1
10
98.862870
20
139.706933
11
98.706567
21
134.622259
0
LINE
8
Layer 1
10
98.706567
20
134.622259
11
98.162129
21
129.603425
0
LINE
8
Layer 1
10
98.162129
20
129.603425
11
97.153151
21
124.683690
0
LINE
8
Layer 1
10
97.153151
20
124.683690
11
95.694202
21
119.739565
0
LINE
8
Layer 1
10
95.694202
20
119.739565
11
94.166571
21
114.610790
0
LINE
8
Layer 1
10
94.166571
20
114.610790
11
93.512309
21
111.935336
0
LINE
8
Layer 1
10
93.512309
20
111.935336
11
93.034967
21
109.225711
0
LINE
8
Layer 1
10
93.034967
20
109.225711
11
92.735794
21
106.490676
0
LINE
8
Layer 1
10
92.735794
20
106.490676
11
92.616041
21
103.738990
0
LINE
8
Layer 1
10
92.616041
20
103.738990
11
92.619004
21
102.375040
0
LINE
8
Layer 1
10
92.619004
20
102.375040
11
92.526357
21
102.411670
0
LINE
8
Layer 1
10
92.526357
20
102.411670
11
91.832158
21
99.772330
0
LINE
8
Layer 1
10
91.832158
20
99.772330
11
91.610372
21
97.052250
0
LINE
8
Layer 1
10
91.610372
20
97.052250
11
91.819640
21
94.382740
0
LINE
8
Layer 1
10
91.819640
20
94.382740
11
92.177847
21
91.844390
0
LINE
8
Layer 1
10
92.177847
20
91.844390
11
92.457552
21
89.351636
0
LINE
8
Layer 1
10
92.457552
20
89.351636
11
92.531189
21
86.844320
0
LINE
8
Layer 1
10
92.531189
20
86.844320
11
92.217486
21
84.394956
0
LINE
8
Layer 1
10
92.217486
20
84.394956
11
91.496969
21
82.033040
0
LINE
8
Layer 1
10
91.496969
20
82.033040
11
89.627839
21
77.242640
0
LINE
8
Layer 1
10
89.627839
20
77.242640
11
89.024968
21
74.697983
0
LINE
8
Layer 1
10
89.024968
20
74.697983
11
88.869700
21
72.087500
0
LINE
8
Layer 1
10
88.869700
20
72.087500
11
89.127048
21
69.509553
0
LINE
8
Layer 1
10
89.127048
20
69.509553
11
89.762252
21
66.997870
0
LINE
8
Layer 1
10
89.762252
20
66.997870
11
90.783002
21
64.630810
0
LINE
8
Layer 1
10
90.783002
20
64.630810
11
92.239532
21
62.516990
0
LINE
8
Layer 1
10
92.239532
20
62.516990
11
90.897535
21
64.684992
0
LINE
8
Layer 1
10
90.897535
20
64.684992
11
89.999252
21
67.071260
0
LINE
8
Layer 1
10
89.999252
20
67.071260
11
89.496376
21
69.555631
0
LINE
8
Layer 1
10
89.496376
20
69.555631
11
89.365793
21
72.087020
0
LINE
8
Layer 1
10
89.365793
20
72.087020
11
89.633879
21
74.581205
0
LINE
8
Layer 1
10
89.633879
20
74.581205
11
90.328909
21
76.991550
0
LINE
8
Layer 1
10
90.328909
20
76.991550
11
92.424819
21
81.660280
0
LINE
8
Layer 1
10
92.424819
20
81.660280
11
93.320170
21
84.159521
0
LINE
8
Layer 1
10
93.320170
20
84.159521
11
93.784389
21
86.773400
0
LINE
8
Layer 1
10
93.784389
20
86.773400
11
93.839818
21
89.393644
0
LINE
8
Layer 1
10
93.839818
20
89.393644
11
93.679081
21
92.009540
0
LINE
8
Layer 1
10
93.679081
20
92.009540
11
93.640298
21
92.438176
0
LINE
8
Layer 1
10
93.640298
20
92.438176
11
94.702612
21
87.454089
0
LINE
8
Layer 1
10
94.702612
20
87.454089
11
96.019268
21
82.531076
0
LINE
8
Layer 1
10
96.019268
20
82.531076
11
99.674038
21
70.683076
0
LINE
8
Layer 1
10
99.674038
20
70.683076
11
98.773107
21
67.821746
0
LINE
8
Layer 1
10
98.773107
20
67.821746
11
98.167231
21
64.900069
0
LINE
8
Layer 1
10
98.167231
20
64.900069
11
97.816702
21
61.950570
0
LINE
8
Layer 1
10
97.816702
20
61.950570
11
97.681818
21
59.005776
0
LINE
8
Layer 1
10
97.681818
20
59.005776
11
97.827087
21
52.863875
0
LINE
8
Layer 1
10
97.827087
20
52.863875
11
97.885090
21
49.835095
0
LINE
8
Layer 1
10
97.885090
20
49.835095
11
97.753999
21
46.830176
0
LINE
8
Layer 1
10
97.753999
20
46.830176
11
97.286264
21
43.875989
0
LINE
8
Layer 1
10
97.286264
20
43.875989
11
96.391469
21
41.021986
0
LINE
8
Layer 1
10
96.391469
20
41.021986
11
95.124004
21
38.280098
0
LINE
8
Layer 1
10
95.124004
20
38.280098
11
93.590729
21
35.677506
0
LINE
8
Layer 1
10
93.590729
20
35.677506
11
91.814478
21
33.209155
0
LINE
8
Layer 1
10
91.814478
20
33.209155
11
90.937601
21
31.948945
0
LINE
8
Layer 1
10
90.937601
20
31.948945
11
90.200429
21
30.589566
0
LINE
8
Layer 1
10
90.200429
20
30.589566
11
89.694935
21
29.134581
0
LINE
8
Layer 1
10
89.694935
20
29.134581
11
89.440924
21
27.615376
0
LINE
8
Layer 1
10
89.440924
20
27.615376
11
89.450558
21
26.086027
0
LINE
8
Layer 1
10
89.450558
20
26.086027
11
89.800475
21
24.597216
0
LINE
8
Layer 1
10
89.800475
20
24.597216
11
89.511661
21
26.086508
0
LINE
8
Layer 1
10
89.511661
20
26.086508
11
89.561851
21
27.602716
0
LINE
8
Layer 1
10
89.561851
20
27.602716
11
89.869334
21
29.080377
0
LINE
8
Layer 1
10
89.869334
20
29.080377
11
90.420469
21
30.485466
0
LINE
8
Layer 1
10
90.420469
20
30.485466
11
91.190292
21
31.780073
0
LINE
8
Layer 1
10
91.190292
20
31.780073
11
92.104441
21
32.986915
0
LINE
8
Layer 1
10
92.104441
20
32.986915
11
93.992839
21
35.403126
0
LINE
8
Layer 1
10
93.992839
20
35.403126
11
95.662283
21
37.995950
0
LINE
8
Layer 1
10
95.662283
20
37.995950
11
97.065869
21
40.741806
0
LINE
8
Layer 1
10
97.065869
20
40.741806
11
98.112981
21
43.670816
0
LINE
8
Layer 1
10
98.112981
20
43.670816
11
98.721699
21
46.721226
0
LINE
8
Layer 1
10
98.721699
20
46.721226
11
98.979779
21
49.808506
0
LINE
8
Layer 1
10
98.979779
20
49.808506
11
99.044523
21
52.883016
0
LINE
8
Layer 1
10
99.044523
20
52.883016
11
99.141312
21
58.952526
0
LINE
8
Layer 1
10
99.141312
20
58.952526
11
99.599361
21
63.272203
0
LINE
8
Layer 1
10
99.599361
20
63.272203
11
100.578852
21
67.504226
0
LINE
8
Layer 1
10
100.578852
20
67.504226
11
101.796892
21
62.402216
0
LINE
8
Layer 1
10
101.796892
20
62.402216
11
102.643391
21
57.298046
0
LINE
8
Layer 1
10
102.643391
20
57.298046
11
103.049537
21
52.142696
0
LINE
8
Layer 1
10
103.049537
20
52.142696
11
103.032285
21
46.933909
0
LINE
8
Layer 1
10
103.032285
20
46.933909
11
102.696985
21
41.735896
0
LINE
8
Layer 1
10
102.696985
20
41.735896
11
101.580355
21
31.291196
0
LINE
8
Layer 1
10
101.580355
20
31.291196
11
101.027426
21
26.059496
0
LINE
8
Layer 1
10
101.027426
20
26.059496
11
100.359223
21
20.850156
0
LINE
8
Layer 1
10
100.359223
20
20.850156
11
99.704319
21
15.622101
0
LINE
8
Layer 1
10
99.704319
20
15.622101
11
99.304533
21
10.360956
0
LINE
8
Layer 1
10
99.304533
20
10.360956
11
99.296171
21
7.720974
0
LINE
8
Layer 1
10
99.296171
20
7.720974
11
99.486597
21
5.087856
0
LINE
8
Layer 1
10
99.486597
20
5.087856
11
99.955404
21
2.495918
0
LINE
8
Layer 1
10
99.955404
20
2.495918
11
100.797957
21
0.000316
0
LINE
8
Layer 1
10
100.797957
20
0.000316
11
100.046213
21
2.512019
0
LINE
8
Layer 1
10
100.046213
20
2.512019
11
99.669737
21
5.106636
0
LINE
8
Layer 1
10
99.669737
20
5.106636
11
99.572544
21
7.724427
0
LINE
8
Layer 1
10
99.572544
20
7.724427
11
99.672701
21
10.342106
0
LINE
8
Layer 1
10
99.672701
20
10.342106
11
100.252901
21
15.552817
0
LINE
8
Layer 1
10
100.252901
20
15.552817
11
101.088021
21
20.739206
0
LINE
8
Layer 1
10
101.088021
20
20.739206
11
101.941251
21
25.939386
0
LINE
8
Layer 1
10
101.941251
20
25.939386
11
102.681635
21
31.148326
0
LINE
8
Layer 1
10
102.681635
20
31.148326
11
104.180445
21
41.580426
0
LINE
8
Layer 1
10
104.180445
20
41.580426
11
104.825215
21
48.786296
0
LINE
8
Layer 1
10
104.825215
20
48.786296
11
106.405375
21
46.348606
0
LINE
8
Layer 1
10
106.405375
20
46.348606
11
107.570319
21
44.093933
0
LINE
8
Layer 1
10
107.570319
20
44.093933
11
108.395165
21
41.693876
0
LINE
8
Layer 1
10
108.395165
20
41.693876
11
108.831332
21
39.174421
0
LINE
8
Layer 1
10
108.831332
20
39.174421
11
109.010107
21
36.603043
0
LINE
8
Layer 1
10
109.010107
20
36.603043
11
108.975027
21
31.387576
0
LINE
8
Layer 1
10
108.975027
20
31.387576
11
108.947478
21
28.764255
0
LINE
8
Layer 1
10
108.947478
20
28.764255
11
109.041250
21
26.128723
0
LINE
8
Layer 1
10
109.041250
20
26.128723
11
109.348885
21
23.511743
0
LINE
8
Layer 1
10
109.348885
20
23.511743
11
109.962923
21
20.944076
0
LINE
8
Layer 1
10
109.962923
20
20.944076
11
110.902021
21
18.484801
0
LINE
8
Layer 1
10
110.902021
20
18.484801
11
112.192693
21
16.190436
0
LINE
8
Layer 1
10
112.192693
20
16.190436
11
113.881079
21
14.179398
0
LINE
8
Layer 1
10
113.881079
20
14.179398
11
114.887106
21
13.340893
0
LINE
8
Layer 1
10
114.887106
20
13.340893
11
116.007993
21
12.663856
0
LINE
8
Layer 1
10
116.007993
20
12.663856
11
114.911592
21
13.373848
0
LINE
8
Layer 1
10
114.911592
20
13.373848
11
113.938410
21
14.237875
0
LINE
8
Layer 1
10
113.938410
20
14.237875
11
112.329793
21
16.280526
0
LINE
8
Layer 1
10
112.329793
20
16.280526
11
111.127876
21
18.582138
0
LINE
8
Layer 1
10
111.127876
20
18.582138
11
110.277783
21
21.035576
0
LINE
8
Layer 1
10
110.277783
20
21.035576
11
109.753864
21
23.575207
0
LINE
8
Layer 1
10
109.753864
20
23.575207
11
109.532081
21
26.155752
0
LINE
8
Layer 1
10
109.532081
20
26.155752
11
109.521284
21
28.758334
0
LINE
8
Layer 1
10
109.521284
20
28.758334
11
109.630321
21
31.364076
0
LINE
8
Layer 1
10
109.630321
20
31.364076
11
109.830093
21
36.615361
0
LINE
8
Layer 1
10
109.830093
20
36.615361
11
109.728034
21
39.262906
0
LINE
8
Layer 1
10
109.728034
20
39.262906
11
109.353989
21
41.912876
0
LINE
8
Layer 1
10
109.353989
20
41.912876
11
108.562006
21
44.485389
0
LINE
8
Layer 1
10
108.562006
20
44.485389
11
107.404599
21
46.915506
0
LINE
8
Layer 1
10
107.404599
20
46.915506
11
104.896889
21
50.944856
0
LINE
8
Layer 1
10
104.896889
20
50.944856
11
104.922475
21
52.172386
0
LINE
8
Layer 1
10
104.922475
20
52.172386
11
104.695969
21
57.514106
0
LINE
8
Layer 1
10
104.695969
20
57.514106
11
104.012952
21
62.815156
0
LINE
8
Layer 1
10
104.012952
20
62.815156
11
102.966193
21
68.041419
0
LINE
8
Layer 1
10
102.966193
20
68.041419
11
101.676333
21
73.186790
0
LINE
8
Layer 1
10
101.676333
20
73.186790
11
98.930462
21
83.323156
0
LINE
8
Layer 1
10
98.930462
20
83.323156
11
98.032370
21
87.156416
0
LINE
8
Layer 1
10
98.032370
20
87.156416
11
97.285272
21
91.010586
0
LINE
8
Layer 1
10
97.285272
20
91.010586
11
98.166100
21
89.984600
0
LINE
8
Layer 1
10
98.166100
20
89.984600
11
99.754870
21
86.984150
0
LINE
8
Layer 1
10
99.754870
20
86.984150
11
101.398580
21
83.868420
0
LINE
8
Layer 1
10
101.398580
20
83.868420
11
101.926909
21
83.138247
0
LINE
8
Layer 1
10
101.926909
20
83.138247
11
102.575010
21
82.511950
0
LINE
8
Layer 1
10
102.575010
20
82.511950
11
103.416661
21
82.176636
0
LINE
8
Layer 1
10
103.416661
20
82.176636
11
104.263697
21
82.399572
0
LINE
8
Layer 1
10
104.263697
20
82.399572
11
103.449116
21
82.300343
0
LINE
8
Layer 1
10
103.449116
20
82.300343
11
102.735257
21
82.705058
0
LINE
8
Layer 1
10
102.735257
20
82.705058
11
101.838124
21
84.110808
0
LINE
8
Layer 1
10
101.838124
20
84.110808
11
100.688634
21
87.352848
0
LINE
8
Layer 1
10
100.688634
20
87.352848
11
99.485274
21
90.710828
0
LINE
8
Layer 1
10
99.485274
20
90.710828
11
98.999693
21
91.610525
0
LINE
8
Layer 1
10
98.999693
20
91.610525
11
98.355444
21
92.404368
0
LINE
8
Layer 1
10
98.355444
20
92.404368
11
97.847800
21
92.787900
0
LINE
8
Layer 1
10
97.847800
20
92.787900
11
97.159667
21
93.036961
0
LINE
8
Layer 1
10
97.159667
20
93.036961
11
96.966020
21
93.058844
0
LINE
8
Layer 1
10
96.966020
20
93.058844
11
96.428869
21
98.326294
0
LINE
8
Layer 1
10
96.428869
20
98.326294
11
96.393699
21
103.620944
0
LINE
8
Layer 1
10
96.393699
20
103.620944
11
96.592976
21
106.122212
0
LINE
8
Layer 1
10
96.592976
20
106.122212
11
96.955906
21
108.602283
0
LINE
8
Layer 1
10
96.955906
20
108.602283
11
97.481045
21
111.053139
0
LINE
8
Layer 1
10
97.481045
20
111.053139
11
98.166949
21
113.466764
0
LINE
8
Layer 1
10
98.166949
20
113.466764
11
98.315482
21
113.936336
0
LINE
8
Layer 1
10
98.315482
20
113.936336
11
99.084009
21
111.825076
0
LINE
8
Layer 1
10
99.084009
20
111.825076
11
100.168693
21
109.522952
0
LINE
8
Layer 1
10
100.168693
20
109.522952
11
101.443059
21
107.320156
0
LINE
8
Layer 1
10
101.443059
20
107.320156
11
104.007049
21
103.172106
0
LINE
8
Layer 1
10
104.007049
20
103.172106
11
105.085152
21
101.060871
0
LINE
8
Layer 1
10
105.085152
20
101.060871
11
105.906889
21
98.837277
0
LINE
8
Layer 1
10
105.906889
20
98.837277
11
106.449579
21
96.501011
0
LINE
8
Layer 1
10
106.449579
20
96.501011
11
106.747730
21
94.121147
0
LINE
8
Layer 1
10
106.747730
20
94.121147
11
106.856151
21
91.694783
0
LINE
8
Layer 1
10
106.856151
20
91.694783
11
106.823276
21
89.254912
0
LINE
8
Layer 1
10
106.823276
20
89.254912
11
106.511792
21
84.362517
0
LINE
8
Layer 1
10
106.511792
20
84.362517
11
107.235848
21
89.222287
0
LINE
8
Layer 1
10
107.235848
20
89.222287
11
107.476186
21
91.676127
0
LINE
8
Layer 1
10
107.476186
20
91.676127
11
107.574292
21
94.152857
0
LINE
8
Layer 1
10
107.574292
20
94.152857
11
107.472016
21
96.657570
0
LINE
8
Layer 1
10
107.472016
20
96.657570
11
107.111047
21
99.138247
0
LINE
8
Layer 1
10
107.111047
20
99.138247
11
106.436253
21
101.580912
0
LINE
8
Layer 1
10
106.436253
20
101.580912
11
105.479457
21
103.927507
0
LINE
8
Layer 1
10
105.479457
20
103.927507
11
103.249153
21
108.332425
0
LINE
8
Layer 1
10
103.249153
20
108.332425
11
102.227199
21
110.489250
0
LINE
8
Layer 1
10
102.227199
20
110.489250
11
101.413957
21
112.680337
0
LINE
8
Layer 1
10
101.413957
20
112.680337
11
100.592354
21
116.057347
0
LINE
8
Layer 1
10
100.592354
20
116.057347
11
100.228107
21
119.513727
0
LINE
8
Layer 1
10
100.228107
20
119.513727
11
101.525457
21
123.452917
0
LINE
8
Layer 1
10
101.525457
20
123.452917
11
102.521095
21
127.321390
0
LINE
8
Layer 1
10
102.521095
20
127.321390
11
103.240407
21
131.250637
0
LINE
8
Layer 1
10
103.240407
20
131.250637
11
103.925713
21
130.209277
0
LINE
8
Layer 1
10
103.925713
20
130.209277
11
105.853833
21
127.507987
0
LINE
8
Layer 1
10
105.853833
20
127.507987
11
106.593449
21
126.161424
0
LINE
8
Layer 1
10
106.593449
20
126.161424
11
107.076579
21
124.661775
0
LINE
8
Layer 1
10
107.076579
20
124.661775
11
107.645663
21
121.435517
0
LINE
8
Layer 1
10
107.645663
20
121.435517
11
108.338913
21
114.845267
0
LINE
8
Layer 1
10
108.338913
20
114.845267
11
108.299859
21
121.495847
0
LINE
8
Layer 1
10
108.299859
20
121.495847
11
108.044267
21
124.848177
0
LINE
8
Layer 1
10
108.044267
20
124.848177
11
107.676365
21
126.548987
0
LINE
8
Layer 1
10
107.676365
20
126.548987
11
106.979883
21
128.185427
0
LINE
8
Layer 1
10
106.979883
20
128.185427
11
105.327553
21
131.065957
0
LINE
8
Layer 1
10
105.327553
20
131.065957
11
103.856753
21
133.980017
0
LINE
8
Layer 1
10
103.856753
20
133.980017
11
103.635096
21
134.473829
0
LINE
8
Layer 1
10
103.635096
20
134.473829
11
104.008117
21
141.263719
0
LINE
8
Layer 1
10
104.008117
20
141.263719
11
105.391117
21
137.968899
0
LINE
8
Layer 1
10
105.391117
20
137.968899
11
107.784637
21
132.566039
0
LINE
8
Layer 1
10
107.784637
20
132.566039
11
108.846164
21
129.877443
0
LINE
8
Layer 1
10
108.846164
20
129.877443
11
109.719457
21
127.156247
0
LINE
8
Layer 1
10
109.719457
20
127.156247
11
110.362021
21
124.389697
0
LINE
8
Layer 1
10
110.362021
20
124.389697
11
110.731357
21
121.565039
0
LINE
8
Layer 1
10
110.731357
20
121.565039
11
110.911032
21
117.841076
0
LINE
8
Layer 1
10
110.911032
20
117.841076
11
110.963248
21
114.036519
0
LINE
8
Layer 1
10
110.963248
20
114.036519
11
110.043417
21
110.394284
0
LINE
8
Layer 1
10
110.043417
20
110.394284
11
109.711138
21
106.652418
0
LINE
8
Layer 1
10
109.711138
20
106.652418
11
109.914211
21
102.743129
0
LINE
8
Layer 1
10
109.914211
20
102.743129
11
110.252797
21
100.814200
0
LINE
8
Layer 1
10
110.252797
20
100.814200
11
110.756401
21
98.921639
0
LINE
8
Layer 1
10
110.756401
20
98.921639
11
111.904311
21
95.303320
0
LINE
8
Layer 1
10
111.904311
20
95.303320
11
112.394046
21
93.517401
0
LINE
8
Layer 1
10
112.394046
20
93.517401
11
112.727611
21
91.719539
0
LINE
8
Layer 1
10
112.727611
20
91.719539
11
112.846010
21
89.909621
0
LINE
8
Layer 1
10
112.846010
20
89.909621
11
112.743197
21
88.066506
0
LINE
8
Layer 1
10
112.743197
20
88.066506
11
112.424886
21
84.260099
0
LINE
8
Layer 1
10
112.424886
20
84.260099
11
112.418423
21
82.950899
0
LINE
8
Layer 1
10
112.418423
20
82.950899
11
111.934512
21
82.878103
0
LINE
8
Layer 1
10
111.934512
20
82.878103
11
111.495436
21
82.662045
0
LINE
8
Layer 1
10
111.495436
20
82.662045
11
110.802725
21
81.893382
0
LINE
8
Layer 1
10
110.802725
20
81.893382
11
110.454736
21
81.058672
0
LINE
8
Layer 1
10
110.454736
20
81.058672
11
110.307160
21
80.166452
0
LINE
8
Layer 1
10
110.307160
20
80.166452
11
110.393954
21
78.530741
0
LINE
8
Layer 1
10
110.393954
20
78.530741
11
110.752091
21
76.932362
0
LINE
8
Layer 1
10
110.752091
20
76.932362
11
111.522100
21
73.918112
0
LINE
8
Layer 1
10
111.522100
20
73.918112
11
111.684875
21
72.365092
0
LINE
8
Layer 1
10
111.684875
20
72.365092
11
112.043787
21
70.836252
0
LINE
8
Layer 1
10
112.043787
20
70.836252
11
111.848759
21
72.374594
0
LINE
8
Layer 1
10
111.848759
20
72.374594
11
111.849054
21
73.950962
0
LINE
8
Layer 1
10
111.849054
20
73.950962
11
111.393621
21
77.074692
0
LINE
8
Layer 1
10
111.393621
20
77.074692
11
111.216132
21
78.558121
0
LINE
8
Layer 1
10
111.216132
20
78.558121
11
111.285888
21
80.050502
0
LINE
8
Layer 1
10
111.285888
20
80.050502
11
111.456254
21
80.688411
0
LINE
8
Layer 1
10
111.456254
20
80.688411
11
111.768795
21
81.270022
0
LINE
8
Layer 1
10
111.768795
20
81.270022
11
112.153396
21
81.620418
0
LINE
8
Layer 1
10
112.153396
20
81.620418
11
112.413836
21
81.644790
0
LINE
8
Layer 1
10
112.413836
20
81.644790
11
112.455983
21
81.814600
0
LINE
8
Layer 1
10
112.455983
20
81.814600
11
112.698654
21
79.203664
0
LINE
8
Layer 1
10
112.698654
20
79.203664
11
113.152332
21
76.621020
0
LINE
8
Layer 1
10
113.152332
20
76.621020
11
114.152118
21
72.929091
0
LINE
8
Layer 1
10
114.152118
20
72.929091
11
115.555272
21
69.370850
0
LINE
8
Layer 1
10
115.555272
20
69.370850
11
117.372899
21
66.018861
0
LINE
8
Layer 1
10
117.372899
20
66.018861
11
119.595192
21
62.920310
0
LINE
8
Layer 1
10
119.595192
20
62.920310
11
122.165553
21
60.125150
0
LINE
8
Layer 1
10
122.165553
20
60.125150
11
125.008682
21
57.607950
0
LINE
8
Layer 1
10
125.008682
20
57.607950
11
122.260532
21
60.208350
0
LINE
8
Layer 1
10
122.260532
20
60.208350
11
119.793142
21
63.076520
0
LINE
8
Layer 1
10
119.793142
20
63.076520
11
117.701783
21
66.205918
0
LINE
8
Layer 1
10
117.701783
20
66.205918
11
116.017702
21
69.572040
0
LINE
8
Layer 1
10
116.017702
20
69.572040
11
116.855093
21
69.700406
0
LINE
8
Layer 1
10
116.855093
20
69.700406
11
117.778032
21
69.507411
0
LINE
8
Layer 1
10
117.778032
20
69.507411
11
119.794762
21
68.489891
0
LINE
8
Layer 1
10
119.794762
20
68.489891
11
120.806751
21
67.882809
0
LINE
8
Layer 1
10
120.806751
20
67.882809
11
121.895252
21
67.426921
0
LINE
8
Layer 1
10
121.895252
20
67.426921
11
123.079212
21
67.367669
0
LINE
8
Layer 1
10
123.079212
20
67.367669
11
123.621688
21
67.591795
0
LINE
8
Layer 1
10
123.621688
20
67.591795
11
124.068186
21
67.972784
0
LINE
8
Layer 1
10
124.068186
20
67.972784
11
123.604561
21
67.639666
0
LINE
8
Layer 1
10
123.604561
20
67.639666
11
123.060626
21
67.466311
0
LINE
8
Layer 1
10
123.060626
20
67.466311
11
121.957186
21
67.617943
0
LINE
8
Layer 1
10
121.957186
20
67.617943
11
120.946618
21
68.150013
0
LINE
8
Layer 1
10
120.946618
20
68.150013
11
120.021526
21
68.819753
0
LINE
8
Layer 1
10
120.021526
20
68.819753
11
117.986756
21
70.053883
0
LINE
8
Layer 1
10
117.986756
20
70.053883
11
116.775316
21
70.382327
0
LINE
8
Layer 1
10
116.775316
20
70.382327
11
115.746896
21
70.267592
0
LINE
8
Layer 1
10
115.746896
20
70.267592
11
114.658667
21
73.471384
0
LINE
8
Layer 1
10
114.658667
20
73.471384
11
113.894596
21
76.767552
0
LINE
8
Layer 1
10
113.894596
20
76.767552
11
113.436542
21
80.474492
0
LINE
8
Layer 1
10
113.436542
20
80.474492
11
113.432161
21
84.209622
0
LINE
8
Layer 1
10
113.432161
20
84.209622
11
113.873590
21
87.945742
0
LINE
8
Layer 1
10
113.873590
20
87.945742
11
114.039746
21
89.899263
0
LINE
8
Layer 1
10
114.039746
20
89.899263
11
113.980513
21
91.858942
0
LINE
8
Layer 1
10
113.980513
20
91.858942
11
113.686861
21
93.799787
0
LINE
8
Layer 1
10
113.686861
20
93.799787
11
113.238379
21
95.683786
0
LINE
8
Layer 1
10
113.238379
20
95.683786
11
112.212643
21
99.331982
0
LINE
8
Layer 1
10
112.212643
20
99.331982
11
111.797980
21
101.116652
0
LINE
8
Layer 1
10
111.797980
20
101.116652
11
111.535285
21
102.929932
0
LINE
8
Layer 1
10
111.535285
20
102.929932
11
111.455024
21
106.590912
0
LINE
8
Layer 1
10
111.455024
20
106.590912
11
111.494885
21
107.173401
0
LINE
8
Layer 1
10
111.494885
20
107.173401
11
111.996411
21
104.818610
0
LINE
8
Layer 1
10
111.996411
20
104.818610
11
112.690193
21
102.517438
0
LINE
8
Layer 1
10
112.690193
20
102.517438
11
113.572153
21
100.281622
0
LINE
8
Layer 1
10
113.572153
20
100.281622
11
114.638215
21
98.122901
0
LINE
8
Layer 1
10
114.638215
20
98.122901
11
116.241439
21
95.554360
0
LINE
8
Layer 1
10
116.241439
20
95.554360
11
118.129785
21
93.187531
0
LINE
8
Layer 1
10
118.129785
20
93.187531
11
120.153785
21
91.135391
0
LINE
8
Layer 1
10
120.153785
20
91.135391
11
120.467129
21
89.306450
0
LINE
8
Layer 1
10
120.467129
20
89.306450
11
120.952075
21
87.515351
0
LINE
8
Layer 1
10
120.952075
20
87.515351
11
121.608156
21
85.768421
0
LINE
8
Layer 1
10
121.608156
20
85.768421
11
122.482663
21
84.128821
0
LINE
8
Layer 1
10
122.482663
20
84.128821
11
124.511513
21
81.071951
0
LINE
8
Layer 1
10
124.511513
20
81.071951
11
125.600304
21
79.596625
0
LINE
8
Layer 1
10
125.600304
20
79.596625
11
126.888063
21
78.298551
0
LINE
8
Layer 1
10
126.888063
20
78.298551
11
125.707128
21
79.677400
0
LINE
8
Layer 1
10
125.707128
20
79.677400
11
124.736673
21
81.217591
0
LINE
8
Layer 1
10
124.736673
20
81.217591
11
122.953453
21
84.386101
0
LINE
8
Layer 1
10
122.953453
20
84.386101
11
122.225149
21
86.019658
0
LINE
8
Layer 1
10
122.225149
20
86.019658
11
121.693533
21
87.727381
0
LINE
8
Layer 1
10
121.693533
20
87.727381
11
121.232712
21
90.169311
0
LINE
8
Layer 1
10
121.232712
20
90.169311
11
122.510672
21
89.098461
0
LINE
8
Layer 1
10
122.510672
20
89.098461
11
131.841542
21
81.750921
0
LINE
8
Layer 1
10
131.841542
20
81.750921
11
122.914000
21
89.569600
0
LINE
8
Layer 1
10
122.914000
20
89.569600
11
120.791724
21
91.597274
0
LINE
8
Layer 1
10
120.791724
20
91.597274
11
118.840000
21
93.789600
0
LINE
8
Layer 1
10
118.840000
20
93.789600
11
117.400475
21
95.769763
0
LINE
8
Layer 1
10
117.400475
20
95.769763
11
116.160730
21
97.880760
0
LINE
8
Layer 1
10
116.160730
20
97.880760
11
116.576573
21
97.883387
0
LINE
8
Layer 1
10
116.576573
20
97.883387
11
117.734953
21
97.497307
0
LINE
8
Layer 1
10
117.734953
20
97.497307
11
118.970124
21
96.899451
0
LINE
8
Layer 1
10
118.970124
20
96.899451
11
120.336393
21
96.410977
0
LINE
8
Layer 1
10
120.336393
20
96.410977
11
121.768102
21
96.298346
0
LINE
8
Layer 1
10
121.768102
20
96.298346
11
123.179153
21
96.565573
0
LINE
8
Layer 1
10
123.179153
20
96.565573
11
124.456796
21
97.107134
0
LINE
8
Layer 1
10
124.456796
20
97.107134
11
125.641623
21
97.829523
0
LINE
8
Layer 1
10
125.641623
20
97.829523
11
124.404604
21
97.263686
0
LINE
8
Layer 1
10
124.404604
20
97.263686
11
123.098363
21
96.884048
0
LINE
8
Layer 1
10
123.098363
20
96.884048
11
121.796019
21
96.790879
0
LINE
8
Layer 1
10
121.796019
20
96.790879
11
120.514963
21
97.043221
0
LINE
8
Layer 1
10
120.514963
20
97.043221
11
119.359920
21
97.622874
0
LINE
8
Layer 1
10
119.359920
20
97.622874
11
118.198203
21
98.367301
0
LINE
8
Layer 1
10
118.198203
20
98.367301
11
116.819513
21
99.007358
0
LINE
8
Layer 1
10
116.819513
20
99.007358
11
115.585723
21
99.037861
0
LINE
8
Layer 1
10
115.585723
20
99.037861
11
114.534718
21
101.628339
0
LINE
8
Layer 1
10
114.534718
20
101.628339
11
113.754075
21
104.305228
0
LINE
8
Layer 1
10
113.754075
20
104.305228
11
113.248793
21
107.047459
0
LINE
8
Layer 1
10
113.248793
20
107.047459
11
113.023873
21
109.833961
0
LINE
8
Layer 1
10
113.023873
20
109.833961
11
113.009611
21
112.744678
0
LINE
8
Layer 1
10
113.009611
20
112.744678
11
113.112179
21
115.689755
0
LINE
8
Layer 1
10
113.112179
20
115.689755
11
113.216918
21
118.676485
0
LINE
8
Layer 1
10
113.216918
20
118.676485
11
113.209171
21
121.712161
0
LINE
8
Layer 1
10
113.209171
20
121.712161
11
113.162441
21
122.563907
0
LINE
8
Layer 1
10
113.162441
20
122.563907
11
113.834279
21
121.981965
0
LINE
8
Layer 1
10
113.834279
20
121.981965
11
114.537494
21
121.497850
0
LINE
8
Layer 1
10
114.537494
20
121.497850
11
117.177174
21
119.785130
0
LINE
8
Layer 1
10
117.177174
20
119.785130
11
118.284308
21
118.744311
0
LINE
8
Layer 1
10
118.284308
20
118.744311
11
119.231604
21
117.556170
0
LINE
8
Layer 1
10
119.231604
20
117.556170
11
120.780809
21
114.840109
0
LINE
8
Layer 1
10
120.780809
20
114.840109
11
121.944004
21
111.891600
0
LINE
8
Layer 1
10
121.944004
20
111.891600
11
122.795010
21
108.811703
0
LINE
8
Layer 1
10
122.795010
20
108.811703
11
123.373064
21
105.669120
0
LINE
8
Layer 1
10
123.373064
20
105.669120
11
123.036469
21
108.869777
0
LINE
8
Layer 1
10
123.036469
20
108.869777
11
122.420720
21
112.028630
0
LINE
8
Layer 1
10
122.420720
20
112.028630
11
121.460409
21
115.145463
0
LINE
8
Layer 1
10
121.460409
20
115.145463
11
120.065720
21
118.093630
0
LINE
8
Layer 1
10
120.065720
20
118.093630
11
119.118311
21
119.486452
0
LINE
8
Layer 1
10
119.118311
20
119.486452
11
117.981390
21
120.729410
0
LINE
8
Layer 1
10
117.981390
20
120.729410
11
116.677066
21
121.779453
0
LINE
8
Layer 1
10
116.677066
20
121.779453
11
115.390720
21
122.717180
0
LINE
8
Layer 1
10
115.390720
20
122.717180
11
114.807367
21
123.188302
0
LINE
8
Layer 1
10
114.807367
20
123.188302
11
114.317193
21
123.684606
0
LINE
8
Layer 1
10
114.317193
20
123.684606
11
113.443761
21
124.873086
0
LINE
8
Layer 1
10
113.443761
20
124.873086
11
112.778253
21
126.045406
0
LINE
8
Layer 1
10
112.778253
20
126.045406
11
112.430818
21
127.834146
0
LINE
8
Layer 1
10
112.430818
20
127.834146
11
111.647537
21
130.792508
0
LINE
8
Layer 1
10
111.647537
20
130.792508
11
110.675068
21
133.694186
0
LINE
8
Layer 1
10
110.675068
20
133.694186
11
108.548998
21
139.264496
0
LINE
8
Layer 1
10
108.548998
20
139.264496
11
106.618728
21
144.779866
0
LINE
8
Layer 1
10
106.618728
20
144.779866
11
104.709039
21
151.364558
0
LINE
8
Layer 1
10
104.709039
20
151.364558
11
103.153418
21
158.041766
0
LINE
8
Layer 1
10
103.153418
20
158.041766
11
102.932571
21
160.141516
0
LINE
8
Layer 1
10
102.932571
20
160.141516
11
104.269921
21
156.138556
0
LINE
8
Layer 1
10
104.269921
20
156.138556
11
106.225241
21
151.030546
0
LINE
8
Layer 1
10
106.225241
20
151.030546
11
108.586711
21
146.042866
0
LINE
8
Layer 1
10
108.586711
20
146.042866
11
109.990051
21
143.624211
0
LINE
8
Layer 1
10
109.990051
20
143.624211
11
111.583000
21
141.326000
0
LINE
8
Layer 1
10
111.583000
20
141.326000
11
113.413350
21
139.169360
0
LINE
8
Layer 1
10
113.413350
20
139.169360
11
115.426580
21
137.240160
0
LINE
8
Layer 1
10
115.426580
20
137.240160
11
115.943958
21
136.791862
0
LINE
8
Layer 1
10
115.943958
20
136.791862
11
115.816298
21
135.863826
0
LINE
8
Layer 1
10
115.816298
20
135.863826
11
115.986244
21
134.325226
0
LINE
8
Layer 1
10
115.986244
20
134.325226
11
116.427941
21
133.050496
0
LINE
8
Layer 1
10
116.427941
20
133.050496
11
116.810657
21
131.916496
0
LINE
8
Layer 1
10
116.810657
20
131.916496
11
117.309684
21
129.504631
0
LINE
8
Layer 1
10
117.309684
20
129.504631
11
117.427416
21
127.044496
0
LINE
8
Layer 1
10
117.427416
20
127.044496
11
117.967087
21
129.550337
0
LINE
8
Layer 1
10
117.967087
20
129.550337
11
118.110701
21
132.109606
0
LINE
8
Layer 1
10
118.110701
20
132.109606
11
118.027211
21
133.425136
0
LINE
8
Layer 1
10
118.027211
20
133.425136
11
117.939948
21
134.587826
0
LINE
8
Layer 1
10
117.939948
20
134.587826
11
117.974693
21
135.047433
0
LINE
8
Layer 1
10
117.974693
20
135.047433
11
120.157868
21
133.068909
0
LINE
8
Layer 1
10
120.157868
20
133.068909
11
122.087333
21
130.935203
0
LINE
8
Layer 1
10
122.087333
20
130.935203
11
122.120712
21
128.315687
0
LINE
8
Layer 1
10
122.120712
20
128.315687
11
122.428839
21
125.714143
0
LINE
8
Layer 1
10
122.428839
20
125.714143
11
122.734796
21
124.367643
0
LINE
8
Layer 1
10
122.734796
20
124.367643
11
123.210969
21
123.062483
0
LINE
8
Layer 1
10
123.210969
20
123.062483
11
124.161964
21
120.718913
0
LINE
8
Layer 1
10
124.161964
20
120.718913
11
124.570872
21
118.911321
0
LINE
8
Layer 1
10
124.570872
20
118.911321
11
124.715839
21
117.063733
0
LINE
8
Layer 1
10
124.715839
20
117.063733
11
124.708430
21
117.059356
0
LINE
8
Layer 1
10
124.708430
20
117.059356
11
124.716781
21
117.046630
0
LINE
8
Layer 1
10
124.716781
20
117.046630
11
124.662377
21
115.748340
0
LINE
8
Layer 1
10
124.662377
20
115.748340
11
124.159003
21
113.247230
0
LINE
8
Layer 1
10
124.159003
20
113.247230
11
123.796574
21
111.995295
0
LINE
8
Layer 1
10
123.796574
20
111.995295
11
123.591799
21
110.708140
0
LINE
8
Layer 1
10
123.591799
20
110.708140
11
123.934845
21
111.954770
0
LINE
8
Layer 1
10
123.934845
20
111.954770
11
124.429948
21
113.149190
0
LINE
8
Layer 1
10
124.429948
20
113.149190
11
125.232274
21
115.661350
0
LINE
8
Layer 1
10
125.232274
20
115.661350
11
125.291541
21
115.988728
0
LINE
8
Layer 1
10
125.291541
20
115.988728
11
126.044044
21
114.658248
0
LINE
8
Layer 1
10
126.044044
20
114.658248
11
126.565308
21
114.152007
0
LINE
8
Layer 1
10
126.565308
20
114.152007
11
127.185454
21
113.773304
0
LINE
8
Layer 1
10
127.185454
20
113.773304
11
128.398234
21
113.111776
0
LINE
8
Layer 1
10
128.398234
20
113.111776
11
127.317964
21
113.972615
0
LINE
8
Layer 1
10
127.317964
20
113.972615
11
126.437530
21
114.922667
0
LINE
8
Layer 1
10
126.437530
20
114.922667
11
125.975937
21
116.154353
0
LINE
8
Layer 1
10
125.975937
20
116.154353
11
125.488700
21
117.519057
0
LINE
8
Layer 1
10
125.488700
20
117.519057
11
125.482773
21
117.515626
0
LINE
8
Layer 1
10
125.482773
20
117.515626
11
125.492571
21
119.261640
0
LINE
8
Layer 1
10
125.492571
20
119.261640
11
125.281317
21
120.994856
0
LINE
8
Layer 1
10
125.281317
20
120.994856
11
124.563288
21
123.560816
0
LINE
8
Layer 1
10
124.563288
20
123.560816
11
124.120781
21
125.939046
0
LINE
8
Layer 1
10
124.120781
20
125.939046
11
124.065706
21
127.764686
0
LINE
8
Layer 1
10
124.065706
20
127.764686
11
125.149616
21
125.276296
0
LINE
8
Layer 1
10
125.149616
20
125.276296
11
126.879236
21
120.238986
0
LINE
8
Layer 1
10
126.879236
20
120.238986
11
128.685086
21
115.128486
0
LINE
8
Layer 1
10
128.685086
20
115.128486
11
129.546173
21
113.217855
0
LINE
8
Layer 1
10
129.546173
20
113.217855
11
130.587616
21
111.399236
0
LINE
8
Layer 1
10
130.587616
20
111.399236
11
130.515520
21
110.477055
0
LINE
8
Layer 1
10
130.515520
20
110.477055
11
130.615087
21
109.557436
0
LINE
8
Layer 1
10
130.615087
20
109.557436
11
130.852328
21
108.637865
0
LINE
8
Layer 1
10
130.852328
20
108.637865
11
131.244775
21
107.773066
0
LINE
8
Layer 1
10
131.244775
20
107.773066
11
132.269025
21
106.326306
0
LINE
8
Layer 1
10
132.269025
20
106.326306
11
133.174506
21
104.939746
0
LINE
8
Layer 1
10
133.174506
20
104.939746
11
133.850094
21
103.403198
0
LINE
8
Layer 1
10
133.850094
20
103.403198
11
134.296000
21
101.785000
0
LINE
8
Layer 1
10
134.296000
20
101.785000
11
134.527274
21
100.095703
0
LINE
8
Layer 1
10
134.527274
20
100.095703
11
134.533546
21
98.390660
0
LINE
8
Layer 1
10
134.533546
20
98.390660
11
134.697324
21
100.110330
0
LINE
8
Layer 1
10
134.697324
20
100.110330
11
134.632928
21
101.836580
0
LINE
8
Layer 1
10
134.632928
20
101.836580
11
134.335181
21
103.564594
0
LINE
8
Layer 1
10
134.335181
20
103.564594
11
133.790470
21
105.231320
0
LINE
8
Layer 1
10
133.790470
20
105.231320
11
132.972520
21
106.806490
0
LINE
8
Layer 1
10
132.972520
20
106.806490
11
132.149724
21
108.248470
0
LINE
8
Layer 1
10
132.149724
20
108.248470
11
131.772675
21
109.725670
0
LINE
8
Layer 1
10
131.772675
20
109.725670
11
131.764327
21
109.859189
0
LINE
8
Layer 1
10
131.764327
20
109.859189
11
133.543717
21
108.166756
0
LINE
8
Layer 1
10
133.543717
20
108.166756
11
135.567237
21
106.775379
0
LINE
8
Layer 1
10
135.567237
20
106.775379
11
137.923183
21
105.458758
0
LINE
8
Layer 1
10
137.923183
20
105.458758
11
140.203177
21
104.093949
0
LINE
8
Layer 1
10
140.203177
20
104.093949
11
142.247544
21
102.411613
0
LINE
8
Layer 1
10
142.247544
20
102.411613
11
143.941447
21
100.376819
0
LINE
8
Layer 1
10
143.941447
20
100.376819
11
145.198612
21
98.022748
0
LINE
8
Layer 1
10
145.198612
20
98.022748
11
145.964097
21
95.466159
0
LINE
8
Layer 1
10
145.964097
20
95.466159
11
145.308975
21
98.078958
0
LINE
8
Layer 1
10
145.308975
20
98.078958
11
144.148827
21
100.509999
0
LINE
8
Layer 1
10
144.148827
20
100.509999
11
142.508146
21
102.674315
0
LINE
8
Layer 1
10
142.508146
20
102.674315
11
140.492000
21
104.494000
0
LINE
8
Layer 1
10
140.492000
20
104.494000
11
138.344250
21
105.922110
0
LINE
8
Layer 1
10
138.344250
20
105.922110
11
139.828380
21
106.619534
0
LINE
8
Layer 1
10
139.828380
20
106.619534
11
140.829470
21
106.845097
0
LINE
8
Layer 1
10
140.829470
20
106.845097
11
141.901930
21
106.822068
0
LINE
8
Layer 1
10
141.901930
20
106.822068
11
143.031947
21
106.868940
0
LINE
8
Layer 1
10
143.031947
20
106.868940
11
144.123080
21
107.166540
0
LINE
8
Layer 1
10
144.123080
20
107.166540
11
145.077407
21
107.736361
0
LINE
8
Layer 1
10
145.077407
20
107.736361
11
145.848930
21
108.536480
0
LINE
8
Layer 1
10
145.848930
20
108.536480
11
145.029953
21
107.825885
0
LINE
8
Layer 1
10
145.029953
20
107.825885
11
144.053320
21
107.354870
0
LINE
8
Layer 1
10
144.053320
20
107.354870
11
143.003324
21
107.168735
0
LINE
8
Layer 1
10
143.003324
20
107.168735
11
141.938290
21
107.222025
0
LINE
8
Layer 1
10
141.938290
20
107.222025
11
140.817080
21
107.346857
0
LINE
8
Layer 1
10
140.817080
20
107.346857
11
139.658160
21
107.189973
0
LINE
8
Layer 1
10
139.658160
20
107.189973
11
137.600760
21
106.376065
0
LINE
8
Layer 1
10
137.600760
20
106.376065
11
135.960550
21
107.401945
0
LINE
8
Layer 1
10
135.960550
20
107.401945
11
133.890392
21
108.980979
0
LINE
8
Layer 1
10
133.890392
20
108.980979
11
132.143900
21
110.911955
0
LINE
8
Layer 1
10
132.143900
20
110.911955
11
130.826518
21
113.160580
0
LINE
8
Layer 1
10
130.826518
20
113.160580
11
129.835220
21
115.570795
0
LINE
8
Layer 1
10
129.835220
20
115.570795
11
128.295470
21
120.664255
0
LINE
8
Layer 1
10
128.295470
20
120.664255
11
128.091452
21
121.404839
0
LINE
8
Layer 1
10
128.091452
20
121.404839
11
130.107926
21
121.225599
0
LINE
8
Layer 1
10
130.107926
20
121.225599
11
131.990912
21
120.482190
0
LINE
8
Layer 1
10
131.990912
20
120.482190
11
134.079575
21
118.979128
0
LINE
8
Layer 1
10
134.079575
20
118.979128
11
135.818872
21
117.082670
0
LINE
8
Layer 1
10
135.818872
20
117.082670
11
134.399085
21
119.358982
0
LINE
8
Layer 1
10
134.399085
20
119.358982
11
132.544652
21
121.297660
0
LINE
8
Layer 1
10
132.544652
20
121.297660
11
131.391971
21
122.109835
0
LINE
8
Layer 1
10
131.391971
20
122.109835
11
130.127162
21
122.733180
0
LINE
8
Layer 1
10
130.127162
20
122.733180
11
128.872007
21
123.106139
0
LINE
8
Layer 1
10
128.872007
20
123.106139
11
127.572052
21
123.263083
0
LINE
8
Layer 1
10
127.572052
20
123.263083
11
126.772418
21
125.862233
0
LINE
8
Layer 1
10
126.772418
20
125.862233
11
125.783672
21
128.468362
0
LINE
8
Layer 1
10
125.783672
20
128.468362
11
124.500908
21
130.943043
0
LINE
8
Layer 1
10
124.500908
20
130.943043
11
122.880358
21
133.251453
0
LINE
8
Layer 1
10
122.880358
20
133.251453
11
122.402974
21
133.805596
0
LINE
8
Layer 1
10
122.402974
20
133.805596
11
123.645978
21
133.942858
0
LINE
8
Layer 1
10
123.645978
20
133.942858
11
124.888609
21
133.893017
0
LINE
8
Layer 1
10
124.888609
20
133.893017
11
126.109926
21
133.658489
0
LINE
8
Layer 1
10
126.109926
20
133.658489
11
127.288984
21
133.241691
0
LINE
8
Layer 1
10
127.288984
20
133.241691
11
128.755776
21
132.395145
0
LINE
8
Layer 1
10
128.755776
20
132.395145
11
130.179144
21
131.317221
0
LINE
8
Layer 1
10
130.179144
20
131.317221
11
131.705964
21
130.310341
0
LINE
8
Layer 1
10
131.705964
20
130.310341
11
132.549939
21
129.965115
0
LINE
8
Layer 1
10
132.549939
20
129.965115
11
133.454174
21
129.847497
0
LINE
8
Layer 1
10
133.454174
20
129.847497
11
132.611055
21
130.098736
0
LINE
8
Layer 1
10
132.611055
20
130.098736
11
131.861094
21
130.558660
0
LINE
8
Layer 1
10
131.861094
20
130.558660
11
130.568324
21
131.754810
0
LINE
8
Layer 1
10
130.568324
20
131.754810
11
129.324294
21
133.065490
0
LINE
8
Layer 1
10
129.324294
20
133.065490
11
127.859154
21
134.269450
0
LINE
8
Layer 1
10
127.859154
20
134.269450
11
126.179183
21
135.149854
0
LINE
8
Layer 1
10
126.179183
20
135.149854
11
124.378600
21
135.689660
0
LINE
8
Layer 1
10
124.378600
20
135.689660
11
122.508377
21
135.878745
0
LINE
8
Layer 1
10
122.508377
20
135.878745
11
120.619484
21
135.706990
0
LINE
8
Layer 1
10
120.619484
20
135.706990
11
117.106774
21
139.043290
0
LINE
8
Layer 1
10
117.106774
20
139.043290
11
115.325704
21
140.912690
0
LINE
8
Layer 1
10
115.325704
20
140.912690
11
113.773294
21
142.923430
0
LINE
8
Layer 1
10
113.773294
20
142.923430
11
112.406546
21
145.104599
0
LINE
8
Layer 1
10
112.406546
20
145.104599
11
111.219254
21
147.388420
0
LINE
8
Layer 1
10
111.219254
20
147.388420
11
109.205224
21
152.204820
0
LINE
8
Layer 1
10
109.205224
20
152.204820
11
107.809564
21
156.378190
0
LINE
8
Layer 1
10
107.809564
20
156.378190
11
109.566414
21
154.115187
0
LINE
8
Layer 1
10
109.566414
20
154.115187
11
111.719664
21
152.225420
0
LINE
8
Layer 1
10
111.719664
20
152.225420
11
113.440981
21
151.233994
0
LINE
8
Layer 1
10
113.440981
20
151.233994
11
115.201333
21
150.463686
0
LINE
8
Layer 1
10
115.201333
20
150.463686
11
118.657554
21
149.281530
0
LINE
8
Layer 1
10
118.657554
20
149.281530
11
121.838044
21
148.038180
0
LINE
8
Layer 1
10
121.838044
20
148.038180
11
123.319903
21
147.216276
0
LINE
8
Layer 1
10
123.319903
20
147.216276
11
124.722814
21
146.265870
0
LINE
8
Layer 1
10
124.722814
20
146.265870
11
124.725103
21
146.264176
0
LINE
8
Layer 1
10
124.725103
20
146.264176
11
125.279054
21
144.183404
0
LINE
8
Layer 1
10
125.279054
20
144.183404
11
126.011823
21
142.158676
0
LINE
8
Layer 1
10
126.011823
20
142.158676
11
127.115533
21
140.163026
0
LINE
8
Layer 1
10
127.115533
20
140.163026
11
128.451673
21
138.463836
0
LINE
8
Layer 1
10
128.451673
20
138.463836
11
129.672803
21
136.842616
0
LINE
8
Layer 1
10
129.672803
20
136.842616
11
130.629457
21
135.048356
0
LINE
8
Layer 1
10
130.629457
20
135.048356
11
131.345405
21
133.095591
0
LINE
8
Layer 1
10
131.345405
20
133.095591
11
131.828237
21
131.072536
0
LINE
8
Layer 1
10
131.828237
20
131.072536
11
131.678160
21
133.188938
0
LINE
8
Layer 1
10
131.678160
20
133.188938
11
131.281502
21
135.273246
0
LINE
8
Layer 1
10
131.281502
20
135.273246
11
130.587981
21
137.325596
0
LINE
8
Layer 1
10
130.587981
20
137.325596
11
129.584471
21
139.251476
0
LINE
8
Layer 1
10
129.584471
20
139.251476
11
128.600614
21
141.039876
0
LINE
8
Layer 1
10
128.600614
20
141.039876
11
127.941837
21
142.837036
0
LINE
8
Layer 1
10
127.941837
20
142.837036
11
127.729473
21
143.739554
0
LINE
8
Layer 1
10
127.729473
20
143.739554
11
129.921663
21
141.577794
0
LINE
8
Layer 1
10
129.921663
20
141.577794
11
134.785993
21
136.309744
0
LINE
8
Layer 1
10
134.785993
20
136.309744
11
136.110761
21
135.040769
0
LINE
8
Layer 1
10
136.110761
20
135.040769
11
137.547143
21
133.899664
0
LINE
8
Layer 1
10
137.547143
20
133.899664
11
139.155193
21
132.984160
0
LINE
8
Layer 1
10
139.155193
20
132.984160
11
140.906993
21
132.388194
0
LINE
8
Layer 1
10
140.906993
20
132.388194
11
142.717047
21
132.120195
0
LINE
8
Layer 1
10
142.717047
20
132.120195
11
144.524704
21
132.112513
0
LINE
8
Layer 1
10
144.524704
20
132.112513
11
148.094543
21
132.531746
0
LINE
8
Layer 1
10
148.094543
20
132.531746
11
144.520663
21
132.374417
0
LINE
8
Layer 1
10
144.520663
20
132.374417
11
142.757267
21
132.509467
0
LINE
8
Layer 1
10
142.757267
20
132.509467
11
141.045153
21
132.892107
0
LINE
8
Layer 1
10
141.045153
20
132.892107
11
140.774883
21
132.991757
0
LINE
8
Layer 1
10
140.774883
20
132.991757
11
142.045163
21
133.723657
0
LINE
8
Layer 1
10
142.045163
20
133.723657
11
143.980283
21
134.582679
0
LINE
8
Layer 1
10
143.980283
20
134.582679
11
145.830833
21
135.658439
0
LINE
8
Layer 1
10
145.830833
20
135.658439
11
146.611026
21
136.385106
0
LINE
8
Layer 1
10
146.611026
20
136.385106
11
147.254233
21
137.235419
0
LINE
8
Layer 1
10
147.254233
20
137.235419
11
146.549858
21
136.454903
0
LINE
8
Layer 1
10
146.549858
20
136.454903
11
145.721203
21
135.807849
0
LINE
8
Layer 1
10
145.721203
20
135.807849
11
143.837523
21
134.924723
0
LINE
8
Layer 1
10
143.837523
20
134.924723
11
141.815683
21
134.229994
0
LINE
8
Layer 1
10
141.815683
20
134.229994
11
139.923103
21
133.339931
0
LINE
8
Layer 1
10
139.923103
20
133.339931
11
138.016000
21
134.527000
0
LINE
8
Layer 1
10
138.016000
20
134.527000
11
136.729981
21
135.713123
0
LINE
8
Layer 1
10
136.729981
20
135.713123
11
135.558650
21
137.012630
0
LINE
8
Layer 1
10
135.558650
20
137.012630
11
131.623904
21
141.964810
0
LINE
8
Layer 1
10
131.623904
20
141.964810
11
129.548803
21
144.411533
0
LINE
8
Layer 1
10
129.548803
20
144.411533
11
127.300110
21
146.742780
0
LINE
8
Layer 1
10
127.300110
20
146.742780
11
127.298357
21
146.760218
0
LINE
8
Layer 1
10
127.298357
20
146.760218
11
127.283400
21
146.757997
0
LINE
8
Layer 1
10
127.283400
20
146.757997
11
126.019580
21
147.904327
0
LINE
8
Layer 1
10
126.019580
20
147.904327
11
123.227460
21
149.938087
0
LINE
8
Layer 1
10
123.227460
20
149.938087
11
124.612610
21
150.303093
0
LINE
8
Layer 1
10
124.612610
20
150.303093
11
126.249482
21
150.204495
0
LINE
8
Layer 1
10
126.249482
20
150.204495
11
128.023920
21
149.844764
0
LINE
8
Layer 1
10
128.023920
20
149.844764
11
131.696470
21
149.159458
0
LINE
8
Layer 1
10
131.696470
20
149.159458
11
133.557523
21
149.016671
0
LINE
8
Layer 1
10
133.557523
20
149.016671
11
135.421010
21
149.123100
0
LINE
8
Layer 1
10
135.421010
20
149.123100
11
133.605876
21
149.342000
0
LINE
8
Layer 1
10
133.605876
20
149.342000
11
131.836250
21
149.801404
0
LINE
8
Layer 1
10
131.836250
20
149.801404
11
128.416860
21
151.098894
0
LINE
8
Layer 1
10
128.416860
20
151.098894
11
126.662020
21
151.796065
0
LINE
8
Layer 1
10
126.662020
20
151.796065
11
124.670240
21
152.273564
0
LINE
8
Layer 1
10
124.670240
20
152.273564
11
123.607932
21
152.291395
0
LINE
8
Layer 1
10
123.607932
20
152.291395
11
122.566341
21
152.126316
0
LINE
8
Layer 1
10
122.566341
20
152.126316
11
121.568807
21
151.784133
0
LINE
8
Layer 1
10
121.568807
20
151.784133
11
120.638670
21
151.270654
0
LINE
8
Layer 1
10
120.638670
20
151.270654
11
119.571590
21
151.728311
0
LINE
8
Layer 1
10
119.571590
20
151.728311
11
116.332380
21
153.103361
0
LINE
8
Layer 1
10
116.332380
20
153.103361
11
114.892075
21
153.862836
0
LINE
8
Layer 1
10
114.892075
20
153.862836
11
113.541610
21
154.772521
0
LINE
8
Layer 1
10
113.541610
20
154.772521
11
112.433741
21
155.802702
0
LINE
8
Layer 1
10
112.433741
20
155.802702
11
111.447145
21
157.031874
0
LINE
8
Layer 1
10
111.447145
20
157.031874
11
110.578666
21
158.407377
0
LINE
8
Layer 1
10
110.578666
20
158.407377
11
109.825150
21
159.876551
0
LINE
8
Layer 1
10
109.825150
20
159.876551
11
109.379682
21
160.930161
0
LINE
8
Layer 1
10
109.379682
20
160.930161
11
110.760334
21
160.429232
0
LINE
8
Layer 1
10
110.760334
20
160.429232
11
112.188502
21
160.086492
0
LINE
8
Layer 1
10
112.188502
20
160.086492
11
114.571120
21
159.796201
0
LINE
8
Layer 1
10
114.571120
20
159.796201
11
116.969882
21
159.712060
0
LINE
8
Layer 1
10
116.969882
20
159.712060
11
119.042092
21
159.627692
0
LINE
8
Layer 1
10
119.042092
20
159.627692
11
119.607140
21
159.565886
0
LINE
8
Layer 1
10
119.607140
20
159.565886
11
120.226335
21
159.506433
0
LINE
8
Layer 1
10
120.226335
20
159.506433
11
121.447195
21
159.457481
0
LINE
8
Layer 1
10
121.447195
20
159.457481
11
125.261987
21
159.618136
0
LINE
8
Layer 1
10
125.261987
20
159.618136
11
128.822065
21
159.790909
0
LINE
8
Layer 1
10
128.822065
20
159.790909
11
130.249635
21
158.685449
0
LINE
8
Layer 1
10
130.249635
20
158.685449
11
132.007535
21
156.657949
0
LINE
8
Layer 1
10
132.007535
20
156.657949
11
133.740761
21
154.422319
0
LINE
8
Layer 1
10
133.740761
20
154.422319
11
135.703255
21
152.244409
0
LINE
8
Layer 1
10
135.703255
20
152.244409
11
136.708655
21
151.437502
0
LINE
8
Layer 1
10
136.708655
20
151.437502
11
137.669071
21
148.937795
0
LINE
8
Layer 1
10
137.669071
20
148.937795
11
138.910145
21
146.564892
0
LINE
8
Layer 1
10
138.910145
20
146.564892
11
140.488135
21
144.388992
0
LINE
8
Layer 1
10
140.488135
20
144.388992
11
141.527745
21
143.516906
0
LINE
8
Layer 1
10
141.527745
20
143.516906
11
142.652455
21
142.833218
0
LINE
8
Layer 1
10
142.652455
20
142.833218
11
141.686643
21
143.729744
0
LINE
8
Layer 1
10
141.686643
20
143.729744
11
140.861691
21
144.690368
0
LINE
8
Layer 1
10
140.861691
20
144.690368
11
139.651061
21
146.946938
0
LINE
8
Layer 1
10
139.651061
20
146.946938
11
138.973802
21
148.739148
0
LINE
8
Layer 1
10
138.973802
20
148.739148
11
138.449991
21
150.582058
0
LINE
8
Layer 1
10
138.449991
20
150.582058
11
141.072841
21
149.975532
0
LINE
8
Layer 1
10
141.072841
20
149.975532
11
142.346549
21
149.529845
0
LINE
8
Layer 1
10
142.346549
20
149.529845
11
143.478481
21
148.795202
0
LINE
8
Layer 1
10
143.478481
20
148.795202
11
144.414377
21
147.770948
0
LINE
8
Layer 1
10
144.414377
20
147.770948
11
145.101451
21
146.565572
0
LINE
8
Layer 1
10
145.101451
20
146.565572
11
144.549320
21
147.882893
0
LINE
8
Layer 1
10
144.549320
20
147.882893
11
143.719801
21
149.045682
0
LINE
8
Layer 1
10
143.719801
20
149.045682
11
142.596574
21
149.987587
0
LINE
8
Layer 1
10
142.596574
20
149.987587
11
141.283191
21
150.638622
0
LINE
8
Layer 1
10
141.283191
20
150.638622
11
138.677981
21
151.596766
0
LINE
8
Layer 1
10
138.677981
20
151.596766
11
137.598054
21
152.292973
0
LINE
8
Layer 1
10
137.598054
20
152.292973
11
136.687651
21
153.199676
0
LINE
8
Layer 1
10
136.687651
20
153.199676
11
135.114806
21
155.399843
0
LINE
8
Layer 1
10
135.114806
20
155.399843
11
133.648011
21
157.802156
0
LINE
8
Layer 1
10
133.648011
20
157.802156
11
132.698362
21
159.255116
0
LINE
8
Layer 1
10
132.698362
20
159.255116
11
134.296282
21
158.671281
0
LINE
8
Layer 1
10
134.296282
20
158.671281
11
136.330887
21
157.758443
0
LINE
8
Layer 1
10
136.330887
20
157.758443
11
138.512342
21
156.872171
0
LINE
8
Layer 1
10
138.512342
20
156.872171
11
140.848829
21
156.280515
0
LINE
8
Layer 1
10
140.848829
20
156.280515
11
143.249822
21
156.069642
0
LINE
8
Layer 1
10
143.249822
20
156.069642
11
145.964112
21
156.242548
0
LINE
8
Layer 1
10
145.964112
20
156.242548
11
145.964000
21
156.197000
0
LINE
8
Layer 1
10
145.964000
20
156.197000
11
148.587250
21
156.101792
0
LINE
8
Layer 1
10
148.587250
20
156.101792
11
149.761665
21
155.689447
0
LINE
8
Layer 1
10
149.761665
20
155.689447
11
150.787120
21
154.983952
0
LINE
8
Layer 1
10
150.787120
20
154.983952
11
152.640630
21
153.273182
0
LINE
8
Layer 1
10
152.640630
20
153.273182
11
153.962760
21
150.219412
0
LINE
8
Layer 1
10
153.962760
20
150.219412
11
154.762665
21
148.690032
0
LINE
8
Layer 1
10
154.762665
20
148.690032
11
155.861525
21
147.368512
0
LINE
8
Layer 1
10
155.861525
20
147.368512
11
156.876085
21
146.083822
0
LINE
8
Layer 1
10
156.876085
20
146.083822
11
157.516545
21
144.574842
0
LINE
8
Layer 1
10
157.516545
20
144.574842
11
157.834481
21
142.938354
0
LINE
8
Layer 1
10
157.834481
20
142.938354
11
157.864243
21
141.271532
0
LINE
8
Layer 1
10
157.864243
20
141.271532
11
157.976689
21
142.962012
0
LINE
8
Layer 1
10
157.976689
20
142.962012
11
157.793950
21
144.646342
0
LINE
8
Layer 1
10
157.793950
20
144.646342
11
157.252061
21
146.292202
0
LINE
8
Layer 1
10
157.252061
20
146.292202
11
156.294332
21
147.744552
0
LINE
8
Layer 1
10
156.294332
20
147.744552
11
155.372691
21
149.065742
0
LINE
8
Layer 1
10
155.372691
20
149.065742
11
154.759160
21
150.544082
0
LINE
8
Layer 1
10
154.759160
20
150.544082
11
154.356517
21
151.782852
0
LINE
8
Layer 1
10
154.356517
20
151.782852
11
154.992400
21
151.325802
0
LINE
8
Layer 1
10
154.992400
20
151.325802
11
156.270305
21
150.667844
0
LINE
8
Layer 1
10
156.270305
20
150.667844
11
157.654710
21
150.281352
0
LINE
8
Layer 1
10
157.654710
20
150.281352
11
160.395390
21
149.864835
0
LINE
8
Layer 1
10
160.395390
20
149.864835
11
161.702570
21
149.496968
0
LINE
8
Layer 1
10
161.702570
20
149.496968
11
162.907410
21
148.870544
0
LINE
8
Layer 1
10
162.907410
20
148.870544
11
163.943396
21
147.970386
0
LINE
8
Layer 1
10
163.943396
20
147.970386
11
164.762270
21
146.869024
0
LINE
8
Layer 1
10
164.762270
20
146.869024
11
164.013837
21
148.048447
0
LINE
8
Layer 1
10
164.013837
20
148.048447
11
163.029430
21
149.039474
0
LINE
8
Layer 1
10
163.029430
20
149.039474
11
161.821357
21
149.786052
0
LINE
8
Layer 1
10
161.821357
20
149.786052
11
160.486710
21
150.271374
0
LINE
8
Layer 1
10
160.486710
20
150.271374
11
160.448870
21
150.280665
0
LINE
8
Layer 1
10
160.448870
20
150.280665
11
161.534670
21
151.223515
0
LINE
8
Layer 1
10
161.534670
20
151.223515
11
162.331072
21
151.566034
0
LINE
8
Layer 1
10
162.331072
20
151.566034
11
163.246250
21
151.671543
0
LINE
8
Layer 1
10
163.246250
20
151.671543
11
165.164940
21
151.655456
0
LINE
8
Layer 1
10
165.164940
20
151.655456
11
166.127249
21
151.808570
0
LINE
8
Layer 1
10
166.127249
20
151.808570
11
166.996100
21
152.228855
0
LINE
8
Layer 1
10
166.996100
20
152.228855
11
166.106813
21
151.903209
0
LINE
8
Layer 1
10
166.106813
20
151.903209
11
165.162500
21
151.831461
0
LINE
8
Layer 1
10
165.162500
20
151.831461
11
163.249730
21
151.998175
0
LINE
8
Layer 1
10
163.249730
20
151.998175
11
162.256179
21
151.961077
0
LINE
8
Layer 1
10
162.256179
20
151.961077
11
161.284983
21
151.592165
0
LINE
8
Layer 1
10
161.284983
20
151.592165
11
159.882863
21
150.419305
0
LINE
8
Layer 1
10
159.882863
20
150.419305
11
157.791803
21
150.891234
0
LINE
8
Layer 1
10
157.791803
20
150.891234
11
156.571196
21
151.331336
0
LINE
8
Layer 1
10
156.571196
20
151.331336
11
155.466153
21
152.011374
0
LINE
8
Layer 1
10
155.466153
20
152.011374
11
153.709603
21
153.675824
0
LINE
8
Layer 1
10
153.709603
20
153.675824
11
153.678361
21
153.760799
0
LINE
8
Layer 1
10
153.678361
20
153.760799
11
153.644559
21
153.745313
0
LINE
8
Layer 1
10
153.644559
20
153.745313
11
151.626889
21
155.910103
0
LINE
8
Layer 1
10
151.626889
20
155.910103
11
150.882603
21
156.562909
0
LINE
8
Layer 1
10
150.882603
20
156.562909
11
150.047959
21
157.095343
0
LINE
8
Layer 1
10
150.047959
20
157.095343
11
156.614039
21
159.155973
0
LINE
8
Layer 1
10
156.614039
20
159.155973
11
160.921704
21
160.292782
0
LINE
8
Layer 1
10
160.921704
20
160.292782
11
163.111102
21
160.622512
0
LINE
8
Layer 1
10
163.111102
20
160.622512
11
165.324109
21
160.711343
0
LINE
8
Layer 1
10
165.324109
20
160.711343
11
167.553445
21
160.505215
0
LINE
8
Layer 1
10
167.553445
20
160.505215
11
169.737868
21
160.048527
0
LINE
8
Layer 1
10
169.737868
20
160.048527
11
171.856366
21
159.346934
0
LINE
8
Layer 1
10
171.856366
20
159.346934
11
173.887929
21
158.406093
0
LINE
8
Layer 1
10
173.887929
20
158.406093
11
171.886829
21
159.479657
0
LINE
8
Layer 1
10
171.886829
20
159.479657
11
169.783407
21
160.315972
0
LINE
8
Layer 1
10
169.783407
20
160.315972
11
167.598631
21
160.908052
0
LINE
8
Layer 1
10
167.598631
20
160.908052
11
165.353469
21
161.248913
0
LINE
8
Layer 1
10
165.353469
20
161.248913
11
163.064698
21
161.293982
0
LINE
8
Layer 1
10
163.064698
20
161.293982
11
160.789134
21
161.089226
0
LINE
8
Layer 1
10
160.789134
20
161.089226
11
156.324789
21
160.193213
0
LINE
8
Layer 1
10
156.324789
20
160.193213
11
151.960331
21
159.067952
0
LINE
8
Layer 1
10
151.960331
20
159.067952
11
147.624959
21
158.160593
0
LINE
8
Layer 1
10
147.624959
20
158.160593
11
145.464057
21
157.935629
0
LINE
8
Layer 1
10
145.464057
20
157.935629
11
143.326890
21
157.955692
0
LINE
8
Layer 1
10
143.326890
20
157.955692
11
141.249515
21
158.260456
0
LINE
8
Layer 1
10
141.249515
20
158.260456
11
139.267989
21
158.889595
0
LINE
8
Layer 1
10
139.267989
20
158.889595
11
137.330409
21
159.818087
0
LINE
8
Layer 1
10
137.330409
20
159.818087
11
135.313449
21
160.870905
0
LINE
8
Layer 1
10
135.313449
20
160.870905
11
133.086109
21
161.815502
0
LINE
8
Layer 1
10
133.086109
20
161.815502
11
130.682629
21
162.396241
0
LINE
8
Layer 1
10
130.682629
20
162.396241
11
128.283003
21
162.617521
0
LINE
8
Layer 1
10
128.283003
20
162.617521
11
125.955792
21
162.642625
0
LINE
8
Layer 1
10
125.955792
20
162.642625
11
121.581229
21
162.685902
0
LINE
8
Layer 1
10
121.581229
20
162.685902
11
120.556169
21
162.788382
0
LINE
8
Layer 1
10
120.556169
20
162.788382
11
120.058451
21
162.867294
0
LINE
8
Layer 1
10
120.058451
20
162.867294
11
119.507946
21
162.957250
0
LINE
8
Layer 1
10
119.507946
20
162.957250
11
117.087766
21
163.155071
0
LINE
8
Layer 1
10
117.087766
20
163.155071
11
114.990693
21
163.300172
0
LINE
8
Layer 1
10
114.990693
20
163.300172
11
112.913716
21
163.624107
0
LINE
8
Layer 1
10
112.913716
20
163.624107
11
111.166512
21
164.180457
0
LINE
8
Layer 1
10
111.166512
20
164.180457
11
109.589676
21
165.116317
0
LINE
8
Layer 1
10
109.589676
20
165.116317
11
108.405459
21
166.378656
0
LINE
8
Layer 1
10
108.405459
20
166.378656
11
107.584526
21
167.902447
0
LINE
8
Layer 1
10
107.584526
20
167.902447
11
107.273301
21
172.726590
0
LINE
8
Layer 1
10
107.273301
20
172.726590
11
106.812084
21
177.584117
0
LINE
8
Layer 1
10
106.812084
20
177.584117
11
106.227255
21
181.994034
0
LINE
8
Layer 1
10
106.227255
20
181.994034
11
105.476484
21
186.410867
0
LINE
8
Layer 1
10
105.476484
20
186.410867
11
104.723442
21
192.539967
0
LINE
8
Layer 1
10
104.723442
20
192.539967
11
105.680096
21
193.785747
0
LINE
8
Layer 1
10
105.680096
20
193.785747
11
107.269223
21
195.431563
0
LINE
8
Layer 1
10
107.269223
20
195.431563
11
108.993906
21
196.934727
0
LINE
8
Layer 1
10
108.993906
20
196.934727
11
110.979603
21
198.340811
0
LINE
8
Layer 1
10
110.979603
20
198.340811
11
113.059676
21
199.603097
0
LINE
8
Layer 1
10
113.059676
20
199.603097
11
117.674606
21
201.763647
0
LINE
8
Layer 1
10
117.674606
20
201.763647
11
122.662556
21
203.436447
0
LINE
8
Layer 1
10
122.662556
20
203.436447
11
127.966166
21
204.696427
0
LINE
8
Layer 1
10
127.966166
20
204.696427
11
139.211366
21
206.766547
0
LINE
8
Layer 1
10
139.211366
20
206.766547
11
144.939159
21
207.867291
0
LINE
8
Layer 1
10
144.939159
20
207.867291
11
150.671766
21
209.166997
0
LINE
8
Layer 1
10
150.671766
20
209.166997
11
156.359166
21
210.789487
0
LINE
8
Layer 1
10
156.359166
20
210.789487
11
159.167773
21
211.764138
0
LINE
8
Layer 1
10
159.167773
20
211.764138
11
161.921326
21
212.884927
0
LINE
8
Layer 1
10
161.921326
20
212.884927
11
164.617275
21
214.161169
0
LINE
8
Layer 1
10
164.617275
20
214.161169
11
167.209586
21
215.636587
0
LINE
8
Layer 1
10
167.209586
20
215.636587
11
169.675315
21
217.309584
0
LINE
8
Layer 1
10
169.675315
20
217.309584
11
171.957000
21
219.226000
0
LINE
8
Layer 1
10
171.957000
20
219.226000
11
173.998111
21
221.359699
0
LINE
8
Layer 1
10
173.998111
20
221.359699
11
175.769340
21
223.722230
0
LINE
8
Layer 1
10
175.769340
20
223.722230
11
177.182301
21
226.258591
0
LINE
8
Layer 1
10
177.182301
20
226.258591
11
178.290520
21
228.942140
0
LINE
8
Layer 1
10
178.290520
20
228.942140
11
176.828427
21
226.496325
0
LINE
8
Layer 1
10
176.828427
20
226.496325
11
175.092000
21
224.237000
0
LINE
8
Layer 1
10
175.092000
20
224.237000
11
173.101133
21
222.267450
0
LINE
8
Layer 1
10
173.101133
20
222.267450
11
170.888870
21
220.550310
0
LINE
8
Layer 1
10
170.888870
20
220.550310
11
168.524371
21
219.097456
0
LINE
8
Layer 1
10
168.524371
20
219.097456
11
166.023190
21
217.895070
0
LINE
8
Layer 1
10
166.023190
20
217.895070
11
163.436750
21
216.893540
0
LINE
8
Layer 1
10
163.436750
20
216.893540
11
160.782070
21
216.090170
0
LINE
8
Layer 1
10
160.782070
20
216.090170
11
155.340030
21
214.917780
0
LINE
8
Layer 1
10
155.340030
20
214.917780
11
149.787830
21
214.192684
0
LINE
8
Layer 1
10
149.787830
20
214.192684
11
144.166480
21
213.770386
0
LINE
8
Layer 1
10
144.166480
20
213.770386
11
138.488130
21
213.531954
0
LINE
8
Layer 1
10
138.488130
20
213.531954
11
126.896830
21
213.134021
0
LINE
8
Layer 1
10
126.896830
20
213.134021
11
126.597339
21
213.116179
0
LINE
8
Layer 1
10
126.597339
20
213.116179
11
126.551551
21
214.105960
0
LINE
8
Layer 1
10
126.551551
20
214.105960
11
126.133364
21
215.916693
0
LINE
8
Layer 1
10
126.133364
20
215.916693
11
125.227001
21
217.539080
0
LINE
8
Layer 1
10
125.227001
20
217.539080
11
124.129007
21
218.691199
0
LINE
8
Layer 1
10
124.129007
20
218.691199
11
122.825131
21
219.603820
0
LINE
8
Layer 1
10
122.825131
20
219.603820
11
120.261933
21
220.682949
0
LINE
8
Layer 1
10
120.261933
20
220.682949
11
117.529601
21
221.201480
0
LINE
8
Layer 1
10
117.529601
20
221.201480
11
119.604333
21
219.744275
0
LINE
8
Layer 1
10
119.604333
20
219.744275
11
121.328201
21
217.885180
0
LINE
8
Layer 1
10
121.328201
20
217.885180
11
121.868804
21
216.962405
0
LINE
8
Layer 1
10
121.868804
20
216.962405
11
122.202169
21
215.946220
0
LINE
8
Layer 1
10
122.202169
20
215.946220
11
122.231907
21
215.139942
0
LINE
8
Layer 1
10
122.231907
20
215.139942
11
122.000713
21
214.366950
0
LINE
8
Layer 1
10
122.000713
20
214.366950
11
121.100866
21
213.284505
0
LINE
8
Layer 1
10
121.100866
20
213.284505
11
119.806233
21
212.473440
0
LINE
8
Layer 1
10
119.806233
20
212.473440
11
114.702203
21
211.527432
0
LINE
8
Layer 1
10
114.702203
20
211.527432
11
111.601303
21
210.704921
0
LINE
8
Layer 1
10
111.601303
20
210.704921
11
108.554523
21
209.700312
0
LINE
8
Layer 1
10
108.554523
20
209.700312
11
104.024433
21
207.719472
0
LINE
8
Layer 1
10
104.024433
20
207.719472
11
104.034128
21
208.059027
0
LINE
8
Layer 1
10
104.034128
20
208.059027
11
105.235058
21
210.562027
0
LINE
8
Layer 1
10
105.235058
20
210.562027
11
107.025048
21
213.527262
0
LINE
8
Layer 1
10
107.025048
20
213.527262
11
108.962828
21
216.398097
0
LINE
8
Layer 1
10
108.962828
20
216.398097
11
111.056858
21
219.209877
0
LINE
8
Layer 1
10
111.056858
20
219.209877
11
113.310058
21
221.917897
0
LINE
8
Layer 1
10
113.310058
20
221.917897
11
115.690883
21
224.538392
0
LINE
8
Layer 1
10
115.690883
20
224.538392
11
118.208058
21
227.052027
0
LINE
8
Layer 1
10
118.208058
20
227.052027
11
120.864610
21
229.477932
0
LINE
8
Layer 1
10
120.864610
20
229.477932
11
123.618834
21
231.789920
0
LINE
8
Layer 1
10
123.618834
20
231.789920
11
126.467069
21
233.985050
0
LINE
8
Layer 1
10
126.467069
20
233.985050
11
129.405658
21
236.060377
0
LINE
8
Layer 1
10
129.405658
20
236.060377
11
132.457418
21
238.029497
0
LINE
8
Layer 1
10
132.457418
20
238.029497
11
134.007128
21
238.979755
0
LINE
8
Layer 1
10
134.007128
20
238.979755
11
135.558728
21
239.872172
0
LINE
8
Layer 1
10
135.558728
20
239.872172
11
139.864068
21
242.080532
0
LINE
8
Layer 1
10
139.864068
20
242.080532
11
140.797963
21
242.280371
0
LINE
8
Layer 1
10
140.797963
20
242.280371
11
144.221933
21
242.694673
0
LINE
8
Layer 1
10
144.221933
20
242.694673
11
145.949133
21
242.750220
0
LINE
8
Layer 1
10
145.949133
20
242.750220
11
146.813675
21
242.743082
0
LINE
8
Layer 1
10
146.813675
20
242.743082
11
147.626776
21
242.696623
0
LINE
8
Layer 1
10
147.626776
20
242.696623
11
151.009398
21
242.100842
0
LINE
8
Layer 1
10
151.009398
20
242.100842
11
154.266786
21
241.011573
0
LINE
8
Layer 1
10
154.266786
20
241.011573
11
155.824473
21
240.280994
0
LINE
8
Layer 1
10
155.824473
20
240.280994
11
157.290632
21
239.413557
0
LINE
8
Layer 1
10
157.290632
20
239.413557
11
158.597365
21
238.394435
0
LINE
8
Layer 1
10
158.597365
20
238.394435
11
159.676776
21
237.208803
0
LINE
8
Layer 1
10
159.676776
20
237.208803
11
160.396690
21
235.859333
0
LINE
8
Layer 1
10
160.396690
20
235.859333
11
160.643394
21
234.377623
0
LINE
8
Layer 1
10
160.643394
20
234.377623
11
160.369218
21
232.830673
0
LINE
8
Layer 1
10
160.369218
20
232.830673
11
160.067839
21
232.062549
0
LINE
8
Layer 1
10
160.067839
20
232.062549
11
159.671927
21
231.385055
0
LINE
8
Layer 1
10
159.671927
20
231.385055
11
158.501816
21
230.197499
0
LINE
8
Layer 1
10
158.501816
20
230.197499
11
157.060247
21
229.360045
0
LINE
8
Layer 1
10
157.060247
20
229.360045
11
155.375942
21
228.812641
0
LINE
8
Layer 1
10
155.375942
20
228.812641
11
153.626587
21
228.536439
0
LINE
8
Layer 1
10
153.626587
20
228.536439
11
151.821241
21
228.491272
0
LINE
8
Layer 1
10
151.821241
20
228.491272
11
150.011803
21
228.683224
0
LINE
8
Layer 1
10
150.011803
20
228.683224
11
148.246399
21
229.145345
0
LINE
8
Layer 1
10
148.246399
20
229.145345
11
146.573157
21
229.910689
0
LINE
8
Layer 1
10
146.573157
20
229.910689
11
148.175416
21
228.970031
0
LINE
8
Layer 1
10
148.175416
20
228.970031
11
149.925514
21
228.315569
0
LINE
8
Layer 1
10
149.925514
20
228.315569
11
151.769996
21
227.926240
0
LINE
8
Layer 1
10
151.769996
20
227.926240
11
153.655407
21
227.780979
0
LINE
8
Layer 1
10
153.655407
20
227.780979
11
155.579188
21
227.889085
0
LINE
8
Layer 1
10
155.579188
20
227.889085
11
157.461817
21
228.299367
0
LINE
8
Layer 1
10
157.461817
20
228.299367
11
159.301049
21
229.141797
0
LINE
8
Layer 1
10
159.301049
20
229.141797
11
160.852387
21
230.440187
0
LINE
8
Layer 1
10
160.852387
20
230.440187
11
161.480729
21
231.297998
0
LINE
8
Layer 1
10
161.480729
20
231.297998
11
161.952040
21
232.207518
0
LINE
8
Layer 1
10
161.952040
20
232.207518
11
162.315874
21
233.204053
0
LINE
8
Layer 1
10
162.315874
20
233.204053
11
162.528670
21
234.243368
0
LINE
8
Layer 1
10
162.528670
20
234.243368
11
162.552789
21
235.337673
0
LINE
8
Layer 1
10
162.552789
20
235.337673
11
162.398317
21
236.421288
0
LINE
8
Layer 1
10
162.398317
20
236.421288
11
162.064986
21
237.450905
0
LINE
8
Layer 1
10
162.064986
20
237.450905
11
161.591679
21
238.424148
0
LINE
8
Layer 1
10
161.591679
20
238.424148
11
160.375113
21
240.092566
0
LINE
8
Layer 1
10
160.375113
20
240.092566
11
158.886279
21
241.523308
0
LINE
8
Layer 1
10
158.886279
20
241.523308
11
157.289170
21
242.709242
0
LINE
8
Layer 1
10
157.289170
20
242.709242
11
155.584049
21
243.733818
0
LINE
8
Layer 1
10
155.584049
20
243.733818
11
152.882088
21
245.010896
0
LINE
8
Layer 1
10
152.882088
20
245.010896
11
150.056499
21
245.984328
0
LINE
8
Layer 1
10
150.056499
20
245.984328
11
152.361949
21
246.875534
0
LINE
8
Layer 1
10
152.361949
20
246.875534
11
155.968389
21
247.943554
0
LINE
8
Layer 1
10
155.968389
20
247.943554
11
159.522030
21
248.846944
0
LINE
8
Layer 1
10
159.522030
20
248.846944
11
163.176842
21
249.617409
0
LINE
8
Layer 1
10
163.176842
20
249.617409
11
170.660989
21
251.156234
0
LINE
8
Layer 1
10
170.660989
20
251.156234
11
174.437973
21
252.130128
0
LINE
8
Layer 1
10
174.437973
20
252.130128
11
178.131339
21
253.384374
0
LINE
8
Layer 1
10
178.131339
20
253.384374
11
179.942839
21
254.152701
0
LINE
8
Layer 1
10
179.942839
20
254.152701
11
180.846703
21
254.610355
0
LINE
8
Layer 1
10
180.846703
20
254.610355
11
181.296483
21
254.845344
0
LINE
8
Layer 1
10
181.296483
20
254.845344
11
181.725523
21
255.112651
0
LINE
8
Layer 1
10
181.725523
20
255.112651
11
183.367078
21
256.245599
0
LINE
8
Layer 1
10
183.367078
20
256.245599
11
184.866670
21
257.551236
0
LINE
8
Layer 1
10
184.866670
20
257.551236
11
186.210807
21
259.016418
0
LINE
8
Layer 1
10
186.210807
20
259.016418
11
187.386000
21
260.628000
0
LINE
8
Layer 1
10
187.386000
20
260.628000
11
188.313256
21
262.369874
0
LINE
8
Layer 1
10
188.313256
20
262.369874
11
188.993620
21
264.222180
0
LINE
8
Layer 1
10
188.993620
20
264.222180
11
189.302806
21
266.153595
0
LINE
8
Layer 1
10
189.302806
20
266.153595
11
189.244095
21
268.108720
0
LINE
8
Layer 1
10
189.244095
20
268.108720
11
188.737622
21
269.955420
0
LINE
8
Layer 1
10
188.737622
20
269.955420
11
187.873000
21
271.664000
0
LINE
8
Layer 1
10
187.873000
20
271.664000
11
187.873000
21
271.664000
 0 
ENDSEC
 0 
EOF