999
"DXF R12 Output" (www.mydxf.blogspot.com)
 0 
SECTION
 2 
HEADER
 9 
$ACADVER
 1 
AC1009
 9 
$EXTMIN
 10 
 0 
 20 
 0 
 9 
$EXTMAX
 10 
 8.5 
 20 
 11 
 0 
ENDSEC
 0 
SECTION
 2 
ENTITIES
0
LINE
8
Layer 1
10
152.764000
20
183.500000
11
148.570213
21
185.049699
0
LINE
8
Layer 1
10
148.570213
20
185.049699
11
144.282641
21
186.300594
0
LINE
8
Layer 1
10
144.282641
20
186.300594
11
139.924217
21
187.257254
0
LINE
8
Layer 1
10
139.924217
20
187.257254
11
135.517875
21
187.924250
0
LINE
8
Layer 1
10
135.517875
20
187.924250
11
131.086549
21
188.306152
0
LINE
8
Layer 1
10
131.086549
20
188.306152
11
126.653172
21
188.407531
0
LINE
8
Layer 1
10
126.653172
20
188.407531
11
122.240678
21
188.232957
0
LINE
8
Layer 1
10
122.240678
20
188.232957
11
117.872000
21
187.787000
0
LINE
8
Layer 1
10
117.872000
20
187.787000
11
113.347833
21
187.045738
0
LINE
8
Layer 1
10
113.347833
20
187.045738
11
108.895581
21
186.015190
0
LINE
8
Layer 1
10
108.895581
20
186.015190
11
104.528602
21
184.700840
0
LINE
8
Layer 1
10
104.528602
20
184.700840
11
100.260257
21
183.108172
0
LINE
8
Layer 1
10
100.260257
20
183.108172
11
96.103904
21
181.242671
0
LINE
8
Layer 1
10
96.103904
20
181.242671
11
92.072905
21
179.109819
0
LINE
8
Layer 1
10
92.072905
20
179.109819
11
88.180617
21
176.715101
0
LINE
8
Layer 1
10
88.180617
20
176.715101
11
84.440400
21
174.064000
0
LINE
8
Layer 1
10
84.440400
20
174.064000
11
80.790866
21
171.106538
0
LINE
8
Layer 1
10
80.790866
20
171.106538
11
77.345308
21
167.921081
0
LINE
8
Layer 1
10
77.345308
20
167.921081
11
74.114372
21
164.518134
0
LINE
8
Layer 1
10
74.114372
20
164.518134
11
71.108700
21
160.908200
0
LINE
8
Layer 1
10
71.108700
20
160.908200
11
68.309221
21
157.044200
0
LINE
8
Layer 1
10
68.309221
20
157.044200
11
65.768550
21
153.011221
0
LINE
8
Layer 1
10
65.768550
20
153.011221
11
63.494282
21
148.822231
0
LINE
8
Layer 1
10
63.494282
20
148.822231
11
61.494010
21
144.490200
0
LINE
8
Layer 1
10
61.494010
20
144.490200
11
59.744286
21
139.962402
0
LINE
8
Layer 1
10
59.744286
20
139.962402
11
58.292076
21
135.335896
0
LINE
8
Layer 1
10
58.292076
20
135.335896
11
57.141461
21
130.625317
0
LINE
8
Layer 1
10
57.141461
20
130.625317
11
56.296520
21
125.845300
0
LINE
8
Layer 1
10
56.296520
20
125.845300
11
56.055522
21
123.908600
0
LINE
8
Layer 1
10
56.055522
20
123.908600
11
57.669582
21
125.041060
0
LINE
8
Layer 1
10
57.669582
20
125.041060
11
57.747580
21
125.638953
0
LINE
8
Layer 1
10
57.747580
20
125.638953
11
58.576132
21
130.325116
0
LINE
8
Layer 1
10
58.576132
20
130.325116
11
59.704277
21
134.943214
0
LINE
8
Layer 1
10
59.704277
20
134.943214
11
61.128015
21
139.478906
0
LINE
8
Layer 1
10
61.128015
20
139.478906
11
62.843350
21
143.917853
0
LINE
8
Layer 1
10
62.843350
20
143.917853
11
64.803713
21
148.163745
0
LINE
8
Layer 1
10
64.803713
20
148.163745
11
67.032649
21
152.269434
0
LINE
8
Layer 1
10
67.032649
20
152.269434
11
69.522713
21
156.222207
0
LINE
8
Layer 1
10
69.522713
20
156.222207
11
72.266460
21
160.009353
0
LINE
8
Layer 1
10
72.266460
20
160.009353
11
75.210127
21
163.544835
0
LINE
8
Layer 1
10
75.210127
20
163.544835
11
78.374388
21
166.877627
0
LINE
8
Layer 1
10
78.374388
20
166.877627
11
81.748819
21
169.997443
0
LINE
8
Layer 1
10
81.748819
20
169.997443
11
85.323000
21
172.894000
0
LINE
8
Layer 1
10
85.323000
20
172.894000
11
88.985779
21
175.490108
0
LINE
8
Layer 1
10
88.985779
20
175.490108
11
92.797459
21
177.835173
0
LINE
8
Layer 1
10
92.797459
20
177.835173
11
96.744960
21
179.923827
0
LINE
8
Layer 1
10
96.744960
20
179.923827
11
100.815203
21
181.750699
0
LINE
8
Layer 1
10
100.815203
20
181.750699
11
104.995108
21
183.310422
0
LINE
8
Layer 1
10
104.995108
20
183.310422
11
109.271596
21
184.597626
0
LINE
8
Layer 1
10
109.271596
20
184.597626
11
113.631586
21
185.606941
0
LINE
8
Layer 1
10
113.631586
20
185.606941
11
118.062000
21
186.333000
0
LINE
8
Layer 1
10
118.062000
20
186.333000
11
123.354746
21
186.813964
0
LINE
8
Layer 1
10
123.354746
20
186.813964
11
128.660305
21
186.862639
0
LINE
8
Layer 1
10
128.660305
20
186.862639
11
133.952261
21
186.479860
0
LINE
8
Layer 1
10
133.952261
20
186.479860
11
139.204200
21
185.666459
0
LINE
8
Layer 1
10
139.204200
20
185.666459
11
135.754090
21
185.878998
0
LINE
8
Layer 1
10
135.754090
20
185.878998
11
130.100810
21
185.905315
0
LINE
8
Layer 1
10
130.100810
20
185.905315
11
125.034658
21
185.528883
0
LINE
8
Layer 1
10
125.034658
20
185.528883
11
120.002110
21
184.835305
0
LINE
8
Layer 1
10
120.002110
20
184.835305
11
124.010760
21
185.644853
0
LINE
8
Layer 1
10
124.010760
20
185.644853
11
128.166160
21
186.136605
0
LINE
8
Layer 1
10
128.166160
20
186.136605
11
129.753730
21
186.205693
0
LINE
8
Layer 1
10
129.753730
20
186.205693
11
133.335690
21
186.228403
0
LINE
8
Layer 1
10
133.335690
20
186.228403
11
135.343210
21
186.154337
0
LINE
8
Layer 1
10
135.343210
20
186.154337
11
135.736968
21
186.154769
0
LINE
8
Layer 1
10
135.736968
20
186.154769
11
135.691768
21
186.188269
0
LINE
8
Layer 1
10
135.691768
20
186.188269
11
134.483778
21
186.355700
0
LINE
8
Layer 1
10
134.483778
20
186.355700
11
131.535598
21
186.606178
0
LINE
8
Layer 1
10
131.535598
20
186.606178
11
127.264568
21
186.732896
0
LINE
8
Layer 1
10
127.264568
20
186.732896
11
126.181278
21
186.710987
0
LINE
8
Layer 1
10
126.181278
20
186.710987
11
122.838250
21
186.560766
0
LINE
8
Layer 1
10
122.838250
20
186.560766
11
119.510843
21
186.228859
0
LINE
8
Layer 1
10
119.510843
20
186.228859
11
116.206453
21
185.716208
0
LINE
8
Layer 1
10
116.206453
20
185.716208
11
112.932478
21
185.023757
0
LINE
8
Layer 1
10
112.932478
20
185.023757
11
107.837104
21
183.595107
0
LINE
8
Layer 1
10
107.837104
20
183.595107
11
102.888856
21
181.745827
0
LINE
8
Layer 1
10
102.888856
20
181.745827
11
98.113695
21
179.486884
0
LINE
8
Layer 1
10
98.113695
20
179.486884
11
93.537578
21
176.829247
0
LINE
8
Layer 1
10
93.537578
20
176.829247
11
89.289051
21
173.837449
0
LINE
8
Layer 1
10
89.289051
20
173.837449
11
85.346962
21
170.469419
0
LINE
8
Layer 1
10
85.346962
20
170.469419
11
81.736131
21
166.748454
0
LINE
8
Layer 1
10
81.736131
20
166.748454
11
78.481378
21
162.697847
0
LINE
8
Layer 1
10
78.481378
20
162.697847
11
76.926098
21
161.547327
0
LINE
8
Layer 1
10
76.926098
20
161.547327
11
75.132468
21
159.928017
0
LINE
8
Layer 1
10
75.132468
20
159.928017
11
76.743921
21
162.340193
0
LINE
8
Layer 1
10
76.743921
20
162.340193
11
78.513013
21
164.682758
0
LINE
8
Layer 1
10
78.513013
20
164.682758
11
80.431180
21
166.947514
0
LINE
8
Layer 1
10
80.431180
20
166.947514
11
82.489857
21
169.126267
0
LINE
8
Layer 1
10
82.489857
20
169.126267
11
84.680478
21
171.210820
0
LINE
8
Layer 1
10
84.680478
20
171.210820
11
86.994481
21
173.192976
0
LINE
8
Layer 1
10
86.994481
20
173.192976
11
89.423299
21
175.064541
0
LINE
8
Layer 1
10
89.423299
20
175.064541
11
91.958368
21
176.817317
0
LINE
8
Layer 1
10
91.958368
20
176.817317
11
92.069335
21
176.894248
0
LINE
8
Layer 1
10
92.069335
20
176.894248
11
92.206664
21
176.988939
0
LINE
8
Layer 1
10
92.206664
20
176.988939
11
92.412455
21
177.150452
0
LINE
8
Layer 1
10
92.412455
20
177.150452
11
92.599500
21
177.416870
0
LINE
8
Layer 1
10
92.599500
20
177.416870
11
91.660152
21
177.002876
0
LINE
8
Layer 1
10
91.660152
20
177.002876
11
91.597058
21
176.967186
0
LINE
8
Layer 1
10
91.597058
20
176.967186
11
86.820572
21
173.720838
0
LINE
8
Layer 1
10
86.820572
20
173.720838
11
82.322592
21
170.060094
0
LINE
8
Layer 1
10
82.322592
20
170.060094
11
78.130436
21
166.015575
0
LINE
8
Layer 1
10
78.130436
20
166.015575
11
74.271420
21
161.617898
0
LINE
8
Layer 1
10
74.271420
20
161.617898
11
70.772861
21
156.897684
0
LINE
8
Layer 1
10
70.772861
20
156.897684
11
67.662077
21
151.885550
0
LINE
8
Layer 1
10
67.662077
20
151.885550
11
64.966385
21
146.612116
0
LINE
8
Layer 1
10
64.966385
20
146.612116
11
62.713100
21
141.108000
0
LINE
8
Layer 1
10
62.713100
20
141.108000
11
62.678635
21
140.991129
0
LINE
8
Layer 1
10
62.678635
20
140.991129
11
62.616622
21
140.780140
0
LINE
8
Layer 1
10
62.616622
20
140.780140
11
62.587590
21
140.644180
0
LINE
8
Layer 1
10
62.587590
20
140.644180
11
62.554804
21
140.436259
0
LINE
8
Layer 1
10
62.554804
20
140.436259
11
62.551435
21
140.370769
0
LINE
8
Layer 1
10
62.551435
20
140.370769
11
62.564981
21
140.174275
0
LINE
8
Layer 1
10
62.564981
20
140.174275
11
62.598873
21
140.074962
0
LINE
8
Layer 1
10
62.598873
20
140.074962
11
62.809822
21
140.152688
0
LINE
8
Layer 1
10
62.809822
20
140.152688
11
63.083880
21
140.593753
0
LINE
8
Layer 1
10
63.083880
20
140.593753
11
63.110835
21
140.653068
0
LINE
8
Layer 1
10
63.110835
20
140.653068
11
63.184529
21
140.814555
0
LINE
8
Layer 1
10
63.184529
20
140.814555
11
64.557481
21
143.996198
0
LINE
8
Layer 1
10
64.557481
20
143.996198
11
66.118804
21
147.086219
0
LINE
8
Layer 1
10
66.118804
20
147.086219
11
67.863957
21
150.076270
0
LINE
8
Layer 1
10
67.863957
20
150.076270
11
69.788400
21
152.958000
0
LINE
8
Layer 1
10
69.788400
20
152.958000
11
71.776940
21
155.539010
0
LINE
8
Layer 1
10
71.776940
20
155.539010
11
73.671500
21
157.695420
0
LINE
8
Layer 1
10
73.671500
20
157.695420
11
73.736617
21
157.767200
0
LINE
8
Layer 1
10
73.736617
20
157.767200
11
76.121527
21
160.096580
0
LINE
8
Layer 1
10
76.121527
20
160.096580
11
78.023447
21
161.583100
0
LINE
8
Layer 1
10
78.023447
20
161.583100
11
78.980095
21
162.114668
0
LINE
8
Layer 1
10
78.980095
20
162.114668
11
79.497676
21
162.259600
0
LINE
8
Layer 1
10
79.497676
20
162.259600
11
79.795943
21
162.150137
0
LINE
8
Layer 1
10
79.795943
20
162.150137
11
79.875720
21
161.792852
0
LINE
8
Layer 1
10
79.875720
20
161.792852
11
79.737833
21
161.194319
0
LINE
8
Layer 1
10
79.737833
20
161.194319
11
78.791879
21
159.181969
0
LINE
8
Layer 1
10
78.791879
20
159.181969
11
77.701853
21
157.243869
0
LINE
8
Layer 1
10
77.701853
20
157.243869
11
74.989653
21
152.333289
0
LINE
8
Layer 1
10
74.989653
20
152.333289
11
72.618234
21
147.622539
0
LINE
8
Layer 1
10
72.618234
20
147.622539
11
70.317923
21
142.445439
0
LINE
8
Layer 1
10
70.317923
20
142.445439
11
71.179592
21
146.266419
0
LINE
8
Layer 1
10
71.179592
20
146.266419
11
72.431202
21
150.218579
0
LINE
8
Layer 1
10
72.431202
20
150.218579
11
72.616805
21
150.571340
0
LINE
8
Layer 1
10
72.616805
20
150.571340
11
73.718315
21
152.652180
0
LINE
8
Layer 1
10
73.718315
20
152.652180
11
76.420695
21
157.592310
0
LINE
8
Layer 1
10
76.420695
20
157.592310
11
76.548912
21
157.987825
0
LINE
8
Layer 1
10
76.548912
20
157.987825
11
76.400234
21
158.040961
0
LINE
8
Layer 1
10
76.400234
20
158.040961
11
75.068304
21
156.990811
0
LINE
8
Layer 1
10
75.068304
20
156.990811
11
75.019883
21
156.943421
0
LINE
8
Layer 1
10
75.019883
20
156.943421
11
72.804723
21
154.566461
0
LINE
8
Layer 1
10
72.804723
20
154.566461
11
71.495313
21
152.943221
0
LINE
8
Layer 1
10
71.495313
20
152.943221
11
70.132013
21
151.024051
0
LINE
8
Layer 1
10
70.132013
20
151.024051
11
69.854211
21
150.626491
0
LINE
8
Layer 1
10
69.854211
20
150.626491
11
68.043424
21
147.663292
0
LINE
8
Layer 1
10
68.043424
20
147.663292
11
66.424405
21
144.595001
0
LINE
8
Layer 1
10
66.424405
20
144.595001
11
65.001686
21
141.430904
0
LINE
8
Layer 1
10
65.001686
20
141.430904
11
63.779801
21
138.180291
0
LINE
8
Layer 1
10
63.779801
20
138.180291
11
62.409588
21
133.453423
0
LINE
8
Layer 1
10
62.409588
20
133.453423
11
61.406941
21
128.635181
0
LINE
8
Layer 1
10
61.406941
20
128.635181
11
61.227868
21
127.336711
0
LINE
8
Layer 1
10
61.227868
20
127.336711
11
64.145688
21
129.028861
0
LINE
8
Layer 1
10
64.145688
20
129.028861
11
64.310731
21
129.688216
0
LINE
8
Layer 1
10
64.310731
20
129.688216
11
64.781077
21
131.431426
0
LINE
8
Layer 1
10
64.781077
20
131.431426
11
65.348439
21
133.250856
0
LINE
8
Layer 1
10
65.348439
20
133.250856
11
66.622529
21
137.042786
0
LINE
8
Layer 1
10
66.622529
20
137.042786
11
66.422566
21
134.614906
0
LINE
8
Layer 1
10
66.422566
20
134.614906
11
66.349166
21
130.879276
0
LINE
8
Layer 1
10
66.349166
20
130.879276
11
66.152889
21
130.103165
0
LINE
8
Layer 1
10
66.152889
20
130.103165
11
66.384288
21
130.224566
0
LINE
8
Layer 1
10
66.384288
20
130.224566
11
67.028765
21
130.543759
0
LINE
8
Layer 1
10
67.028765
20
130.543759
11
67.017527
21
131.317155
0
LINE
8
Layer 1
10
67.017527
20
131.317155
11
67.017586
21
131.317668
0
LINE
8
Layer 1
10
67.017586
20
131.317668
11
67.018910
21
131.532072
0
LINE
8
Layer 1
10
67.018910
20
131.532072
11
67.019093
21
131.536427
0
LINE
8
Layer 1
10
67.019093
20
131.536427
11
67.037203
21
133.876167
0
LINE
8
Layer 1
10
67.037203
20
133.876167
11
67.132126
21
135.423737
0
LINE
8
Layer 1
10
67.132126
20
135.423737
11
67.315613
21
137.638707
0
LINE
8
Layer 1
10
67.315613
20
137.638707
11
67.614684
21
139.863007
0
LINE
8
Layer 1
10
67.614684
20
139.863007
11
67.616922
21
139.879658
0
LINE
8
Layer 1
10
67.616922
20
139.879658
11
67.618310
21
139.888568
0
LINE
8
Layer 1
10
67.618310
20
139.888568
11
68.730876
21
145.247752
0
LINE
8
Layer 1
10
68.730876
20
145.247752
11
70.384390
21
150.465468
0
LINE
8
Layer 1
10
70.384390
20
150.465468
11
72.200130
21
152.981628
0
LINE
8
Layer 1
10
72.200130
20
152.981628
11
73.808040
21
154.880208
0
LINE
8
Layer 1
10
73.808040
20
154.880208
11
72.706640
21
152.451828
0
LINE
8
Layer 1
10
72.706640
20
152.451828
11
71.709694
21
149.836438
0
LINE
8
Layer 1
10
71.709694
20
149.836438
11
70.211077
21
144.727917
0
LINE
8
Layer 1
10
70.211077
20
144.727917
11
69.231914
21
139.494938
0
LINE
8
Layer 1
10
69.231914
20
139.494938
11
68.889076
21
136.010988
0
LINE
8
Layer 1
10
68.889076
20
136.010988
11
68.773105
21
133.675648
0
LINE
8
Layer 1
10
68.773105
20
133.675648
11
68.797515
21
133.401416
0
LINE
8
Layer 1
10
68.797515
20
133.401416
11
68.806611
21
132.733944
0
LINE
8
Layer 1
10
68.806611
20
132.733944
11
67.976760
21
131.013194
0
LINE
8
Layer 1
10
67.976760
20
131.013194
11
69.059230
21
131.525328
0
LINE
8
Layer 1
10
69.059230
20
131.525328
11
69.284483
21
132.048432
0
LINE
8
Layer 1
10
69.284483
20
132.048432
11
71.206983
21
137.196902
0
LINE
8
Layer 1
10
71.206983
20
137.196902
11
72.982515
21
141.852512
0
LINE
8
Layer 1
10
72.982515
20
141.852512
11
75.000863
21
146.408112
0
LINE
8
Layer 1
10
75.000863
20
146.408112
11
77.212139
21
150.813677
0
LINE
8
Layer 1
10
77.212139
20
150.813677
11
79.664733
21
155.089602
0
LINE
8
Layer 1
10
79.664733
20
155.089602
11
82.768547
21
159.786133
0
LINE
8
Layer 1
10
82.768547
20
159.786133
11
86.208614
21
164.232417
0
LINE
8
Layer 1
10
86.208614
20
164.232417
11
89.969915
21
168.410468
0
LINE
8
Layer 1
10
89.969915
20
168.410468
11
94.037433
21
172.302302
0
LINE
8
Layer 1
10
94.037433
20
172.302302
11
96.806097
21
174.571136
0
LINE
8
Layer 1
10
96.806097
20
174.571136
11
99.695633
21
176.683882
0
LINE
8
Layer 1
10
99.695633
20
176.683882
11
102.901033
21
177.763612
0
LINE
8
Layer 1
10
102.901033
20
177.763612
11
98.447667
21
174.661852
0
LINE
8
Layer 1
10
98.447667
20
174.661852
11
94.255700
21
171.215000
0
LINE
8
Layer 1
10
94.255700
20
171.215000
11
90.098145
21
167.153886
0
LINE
8
Layer 1
10
90.098145
20
167.153886
11
86.291450
21
162.762190
0
LINE
8
Layer 1
10
86.291450
20
162.762190
11
86.223666
21
162.671597
0
LINE
8
Layer 1
10
86.223666
20
162.671597
11
86.122631
21
162.536638
0
LINE
8
Layer 1
10
86.122631
20
162.536638
11
86.045401
21
162.416598
0
LINE
8
Layer 1
10
86.045401
20
162.416598
11
85.980574
21
162.304680
0
LINE
8
Layer 1
10
85.980574
20
162.304680
11
85.941388
21
162.212729
0
LINE
8
Layer 1
10
85.941388
20
162.212729
11
85.919575
21
162.131280
0
LINE
8
Layer 1
10
85.919575
20
162.131280
11
85.925891
21
162.077344
0
LINE
8
Layer 1
10
85.925891
20
162.077344
11
85.930426
21
162.041784
0
LINE
8
Layer 1
10
85.930426
20
162.041784
11
85.947128
21
162.042456
0
LINE
8
Layer 1
10
85.947128
20
162.042456
11
85.954158
21
162.030298
0
LINE
8
Layer 1
10
85.954158
20
162.030298
11
86.000499
21
162.044220
0
LINE
8
Layer 1
10
86.000499
20
162.044220
11
86.050670
21
162.059460
0
LINE
8
Layer 1
10
86.050670
20
162.059460
11
86.144783
21
162.118111
0
LINE
8
Layer 1
10
86.144783
20
162.118111
11
86.216213
21
162.165787
0
LINE
8
Layer 1
10
86.216213
20
162.165787
11
86.348293
21
162.279506
0
LINE
8
Layer 1
10
86.348293
20
162.279506
11
86.423316
21
162.346393
0
LINE
8
Layer 1
10
86.423316
20
162.346393
11
86.649376
21
162.586564
0
LINE
8
Layer 1
10
86.649376
20
162.586564
11
87.834146
21
163.964414
0
LINE
8
Layer 1
10
87.834146
20
163.964414
11
89.256526
21
165.493614
0
LINE
8
Layer 1
10
89.256526
20
165.493614
11
91.172786
21
167.417664
0
LINE
8
Layer 1
10
91.172786
20
167.417664
11
93.906468
21
169.885499
0
LINE
8
Layer 1
10
93.906468
20
169.885499
11
96.774902
21
172.190498
0
LINE
8
Layer 1
10
96.774902
20
172.190498
11
99.770832
21
174.327164
0
LINE
8
Layer 1
10
99.770832
20
174.327164
11
102.887000
21
176.290000
0
LINE
8
Layer 1
10
102.887000
20
176.290000
11
106.166081
21
178.074796
0
LINE
8
Layer 1
10
106.166081
20
178.074796
11
109.538951
21
179.668204
0
LINE
8
Layer 1
10
109.538951
20
179.668204
11
112.997245
21
181.066559
0
LINE
8
Layer 1
10
112.997245
20
181.066559
11
116.532600
21
182.266200
0
LINE
8
Layer 1
10
116.532600
20
182.266200
11
119.227480
21
183.023452
0
LINE
8
Layer 1
10
119.227480
20
183.023452
11
121.329490
21
183.536266
0
LINE
8
Layer 1
10
121.329490
20
183.536266
11
121.582942
21
183.588068
0
LINE
8
Layer 1
10
121.582942
20
183.588068
11
118.752422
21
182.846504
0
LINE
8
Layer 1
10
118.752422
20
182.846504
11
114.493552
21
181.481114
0
LINE
8
Layer 1
10
114.493552
20
181.481114
11
111.204602
21
180.192032
0
LINE
8
Layer 1
10
111.204602
20
180.192032
11
108.000392
21
178.724535
0
LINE
8
Layer 1
10
108.000392
20
178.724535
11
104.887867
21
177.083064
0
LINE
8
Layer 1
10
104.887867
20
177.083064
11
101.873971
21
175.272059
0
LINE
8
Layer 1
10
101.873971
20
175.272059
11
98.965647
21
173.295961
0
LINE
8
Layer 1
10
98.965647
20
173.295961
11
96.169839
21
171.159210
0
LINE
8
Layer 1
10
96.169839
20
171.159210
11
93.493493
21
168.866248
0
LINE
8
Layer 1
10
93.493493
20
168.866248
11
90.943552
21
166.421514
0
LINE
8
Layer 1
10
90.943552
20
166.421514
11
88.329511
21
163.576317
0
LINE
8
Layer 1
10
88.329511
20
163.576317
11
85.904312
21
160.573554
0
LINE
8
Layer 1
10
85.904312
20
160.573554
11
83.675043
21
157.422595
0
LINE
8
Layer 1
10
83.675043
20
157.422595
11
81.648792
21
154.132814
0
LINE
8
Layer 1
10
81.648792
20
154.132814
11
81.501732
21
153.888974
0
LINE
8
Layer 1
10
81.501732
20
153.888974
11
81.445319
21
153.790933
0
LINE
8
Layer 1
10
81.445319
20
153.790933
11
79.657336
21
150.348355
0
LINE
8
Layer 1
10
79.657336
20
150.348355
11
78.097212
21
146.801120
0
LINE
8
Layer 1
10
78.097212
20
146.801120
11
76.769481
21
143.160516
0
LINE
8
Layer 1
10
76.769481
20
143.160516
11
75.678679
21
139.437833
0
LINE
8
Layer 1
10
75.678679
20
139.437833
11
74.513799
21
133.841523
0
LINE
8
Layer 1
10
74.513799
20
133.841523
11
76.100139
21
134.426118
0
LINE
8
Layer 1
10
76.100139
20
134.426118
11
77.098237
21
139.072238
0
LINE
8
Layer 1
10
77.098237
20
139.072238
11
78.161346
21
142.701391
0
LINE
8
Layer 1
10
78.161346
20
142.701391
11
79.455359
21
146.250573
0
LINE
8
Layer 1
10
79.455359
20
146.250573
11
80.975858
21
149.708788
0
LINE
8
Layer 1
10
80.975858
20
149.708788
11
82.718427
21
153.065038
0
LINE
8
Layer 1
10
82.718427
20
153.065038
11
82.774338
21
153.161857
0
LINE
8
Layer 1
10
82.774338
20
153.161857
11
82.877541
21
153.333392
0
LINE
8
Layer 1
10
82.877541
20
153.333392
11
82.906545
21
153.379442
0
LINE
8
Layer 1
10
82.906545
20
153.379442
11
84.885772
21
156.595984
0
LINE
8
Layer 1
10
84.885772
20
156.595984
11
87.063800
21
159.676692
0
LINE
8
Layer 1
10
87.063800
20
159.676692
11
89.433680
21
162.612375
0
LINE
8
Layer 1
10
89.433680
20
162.612375
11
91.988465
21
165.393842
0
LINE
8
Layer 1
10
91.988465
20
165.393842
11
94.479470
21
167.781357
0
LINE
8
Layer 1
10
94.479470
20
167.781357
11
97.093869
21
170.020683
0
LINE
8
Layer 1
10
97.093869
20
170.020683
11
99.824883
21
172.107485
0
LINE
8
Layer 1
10
99.824883
20
172.107485
11
102.665736
21
174.037432
0
LINE
8
Layer 1
10
102.665736
20
174.037432
11
105.609651
21
175.806190
0
LINE
8
Layer 1
10
105.609651
20
175.806190
11
108.649851
21
177.409426
0
LINE
8
Layer 1
10
108.649851
20
177.409426
11
111.779560
21
178.842807
0
LINE
8
Layer 1
10
111.779560
20
178.842807
11
114.992000
21
180.102000
0
LINE
8
Layer 1
10
114.992000
20
180.102000
11
119.151320
21
181.435050
0
LINE
8
Layer 1
10
119.151320
20
181.435050
11
123.099191
21
182.426893
0
LINE
8
Layer 1
10
123.099191
20
182.426893
11
127.120239
21
183.149789
0
LINE
8
Layer 1
10
127.120239
20
183.149789
11
131.200077
21
183.603571
0
LINE
8
Layer 1
10
131.200077
20
183.603571
11
135.324320
21
183.788070
0
LINE
8
Layer 1
10
135.324320
20
183.788070
11
139.478582
21
183.703118
0
LINE
8
Layer 1
10
139.478582
20
183.703118
11
143.648476
21
183.348548
0
LINE
8
Layer 1
10
143.648476
20
183.348548
11
147.819618
21
182.724191
0
LINE
8
Layer 1
10
147.819618
20
182.724191
11
151.977620
21
181.829879
0
LINE
8
Layer 1
10
151.977620
20
181.829879
11
156.097103
21
180.562101
0
LINE
8
Layer 1
10
156.097103
20
180.562101
11
159.617582
21
179.224720
0
LINE
8
Layer 1
10
159.617582
20
179.224720
11
163.213231
21
177.600766
0
LINE
8
Layer 1
10
163.213231
20
177.600766
11
167.558220
21
175.473269
0
LINE
8
Layer 1
10
167.558220
20
175.473269
11
163.457358
21
178.104473
0
LINE
8
Layer 1
10
163.457358
20
178.104473
11
160.028652
21
180.105659
0
LINE
8
Layer 1
10
160.028652
20
180.105659
11
156.666175
21
181.797332
0
LINE
8
Layer 1
10
156.666175
20
181.797332
11
152.764000
21
183.500000
0
LINE
8
Layer 1
10
152.764000
20
183.500000
11
152.764000
21
183.500000
0
LINE
8
Layer 1
10
116.480000
20
184.687000
11
116.543737
21
184.705892
0
LINE
8
Layer 1
10
116.543737
20
184.705892
11
121.673101
21
185.888290
0
LINE
8
Layer 1
10
121.673101
20
185.888290
11
126.890000
21
186.590000
0
LINE
8
Layer 1
10
126.890000
20
186.590000
11
129.831640
21
186.559385
0
LINE
8
Layer 1
10
129.831640
20
186.559385
11
132.108590
21
186.433697
0
LINE
8
Layer 1
10
132.108590
20
186.433697
11
129.853160
21
186.391902
0
LINE
8
Layer 1
10
129.853160
20
186.391902
11
127.477790
21
186.231834
0
LINE
8
Layer 1
10
127.477790
20
186.231834
11
122.103770
21
185.472105
0
LINE
8
Layer 1
10
122.103770
20
185.472105
11
116.829290
21
184.192594
0
LINE
8
Layer 1
10
116.829290
20
184.192594
11
115.535580
21
183.777008
0
LINE
8
Layer 1
10
115.535580
20
183.777008
11
113.715350
21
183.156738
0
LINE
8
Layer 1
10
113.715350
20
183.156738
11
111.529000
21
182.299000
0
LINE
8
Layer 1
10
111.529000
20
182.299000
11
111.509174
21
182.290454
0
LINE
8
Layer 1
10
111.509174
20
182.290454
11
111.506112
21
182.289210
0
LINE
8
Layer 1
10
111.506112
20
182.289210
11
110.152122
21
181.687072
0
LINE
8
Layer 1
10
110.152122
20
181.687072
11
107.912692
21
181.097039
0
LINE
8
Layer 1
10
107.912692
20
181.097039
11
106.501412
21
180.733641
0
LINE
8
Layer 1
10
106.501412
20
180.733641
11
108.481482
21
181.704725
0
LINE
8
Layer 1
10
108.481482
20
181.704725
11
108.545732
21
181.733446
0
LINE
8
Layer 1
10
108.545732
20
181.733446
11
109.010145
21
181.941528
0
LINE
8
Layer 1
10
109.010145
20
181.941528
11
111.500475
21
183.001458
0
LINE
8
Layer 1
10
111.500475
20
183.001458
11
113.955265
21
183.913808
0
LINE
8
Layer 1
10
113.955265
20
183.913808
11
116.480000
21
184.687000
0
LINE
8
Layer 1
10
116.480000
20
184.687000
11
116.480000
21
184.687000
0
LINE
8
Layer 1
10
124.066970
20
184.158023
11
124.080463
21
184.166058
0
LINE
8
Layer 1
10
124.080463
20
184.166058
11
124.057716
21
184.171536
0
LINE
8
Layer 1
10
124.057716
20
184.171536
11
124.020084
21
184.180649
0
LINE
8
Layer 1
10
124.020084
20
184.180649
11
123.945456
21
184.182393
0
LINE
8
Layer 1
10
123.945456
20
184.182393
11
123.848237
21
184.176909
0
LINE
8
Layer 1
10
123.848237
20
184.176909
11
123.719716
21
184.161105
0
LINE
8
Layer 1
10
123.719716
20
184.161105
11
123.578247
21
184.140760
0
LINE
8
Layer 1
10
123.578247
20
184.140760
11
123.405651
21
184.111789
0
LINE
8
Layer 1
10
123.405651
20
184.111789
11
123.303741
21
184.094898
0
LINE
8
Layer 1
10
123.303741
20
184.094898
11
118.279793
21
183.070143
0
LINE
8
Layer 1
10
118.279793
20
183.070143
11
113.335721
21
181.711348
0
LINE
8
Layer 1
10
113.335721
20
181.711348
11
108.732009
21
180.204752
0
LINE
8
Layer 1
10
108.732009
20
180.204752
11
104.838061
21
178.842118
0
LINE
8
Layer 1
10
104.838061
20
178.842118
11
100.616561
21
177.491528
0
LINE
8
Layer 1
10
100.616561
20
177.491528
11
99.068131
21
177.290586
0
LINE
8
Layer 1
10
99.068131
20
177.290586
11
98.716355
21
177.452260
0
LINE
8
Layer 1
10
98.716355
20
177.452260
11
98.763529
21
177.796350
0
LINE
8
Layer 1
10
98.763529
20
177.796350
11
99.206843
21
178.305559
0
LINE
8
Layer 1
10
99.206843
20
178.305559
11
100.043490
21
178.962586
0
LINE
8
Layer 1
10
100.043490
20
178.962586
11
101.942710
21
180.084446
0
LINE
8
Layer 1
10
101.942710
20
180.084446
11
105.641390
21
181.657696
0
LINE
8
Layer 1
10
105.641390
20
181.657696
11
107.477540
21
182.303725
0
LINE
8
Layer 1
10
107.477540
20
182.303725
11
109.446810
21
182.900212
0
LINE
8
Layer 1
10
109.446810
20
182.900212
11
113.629270
21
184.041282
0
LINE
8
Layer 1
10
113.629270
20
184.041282
11
110.543790
21
182.897122
0
LINE
8
Layer 1
10
110.543790
20
182.897122
11
108.041910
21
181.802732
0
LINE
8
Layer 1
10
108.041910
20
181.802732
11
107.914775
21
181.746068
0
LINE
8
Layer 1
10
107.914775
20
181.746068
11
104.782675
21
180.602488
0
LINE
8
Layer 1
10
104.782675
20
180.602488
11
104.348316
21
180.437938
0
LINE
8
Layer 1
10
104.348316
20
180.437938
11
103.716585
21
180.131547
0
LINE
8
Layer 1
10
103.716585
20
180.131547
11
103.267787
21
179.777722
0
LINE
8
Layer 1
10
103.267787
20
179.777722
11
103.512162
21
179.716514
0
LINE
8
Layer 1
10
103.512162
20
179.716514
11
104.208715
21
179.792014
0
LINE
8
Layer 1
10
104.208715
20
179.792014
11
104.525402
21
179.858350
0
LINE
8
Layer 1
10
104.525402
20
179.858350
11
104.544460
21
179.863687
0
LINE
8
Layer 1
10
104.544460
20
179.863687
11
106.293770
21
180.277012
0
LINE
8
Layer 1
10
106.293770
20
180.277012
11
109.712480
21
181.272279
0
LINE
8
Layer 1
10
109.712480
20
181.272279
11
114.647430
21
182.700299
0
LINE
8
Layer 1
10
114.647430
20
182.700299
11
119.332996
21
183.798234
0
LINE
8
Layer 1
10
119.332996
20
183.798234
11
124.072460
21
184.633379
0
LINE
8
Layer 1
10
124.072460
20
184.633379
11
128.838619
21
185.135493
0
LINE
8
Layer 1
10
128.838619
20
185.135493
11
133.626420
21
185.348451
0
LINE
8
Layer 1
10
133.626420
20
185.348451
11
137.838390
21
185.234676
0
LINE
8
Layer 1
10
137.838390
20
185.234676
11
134.310535
21
185.234595
0
LINE
8
Layer 1
10
134.310535
20
185.234595
11
130.790793
21
185.039340
0
LINE
8
Layer 1
10
130.790793
20
185.039340
11
127.287251
21
184.649583
0
LINE
8
Layer 1
10
127.287251
20
184.649583
11
123.808000
21
184.066000
0
LINE
8
Layer 1
10
123.808000
20
184.066000
11
123.873168
21
184.085866
0
LINE
8
Layer 1
10
123.873168
20
184.085866
11
123.982292
21
184.118349
0
LINE
8
Layer 1
10
123.982292
20
184.118349
11
124.029578
21
184.137018
0
LINE
8
Layer 1
10
124.029578
20
184.137018
11
124.069823
21
184.152642
0
LINE
8
Layer 1
10
124.069823
20
184.152642
11
124.067000
21
184.158000
0
LINE
8
Layer 1
10
124.067000
20
184.158000
11
124.066970
21
184.158023
0
LINE
8
Layer 1
10
74.997800
20
141.084000
11
75.542003
21
142.746270
0
LINE
8
Layer 1
10
75.542003
20
142.746270
11
76.030752
21
144.194320
0
LINE
8
Layer 1
10
76.030752
20
144.194320
11
76.129400
21
144.500000
0
LINE
8
Layer 1
10
76.129400
20
144.500000
11
76.149407
21
144.596283
0
LINE
8
Layer 1
10
76.149407
20
144.596283
11
76.181154
21
144.769175
0
LINE
8
Layer 1
10
76.181154
20
144.769175
11
76.185046
21
144.856723
0
LINE
8
Layer 1
10
76.185046
20
144.856723
11
76.182224
21
144.973236
0
LINE
8
Layer 1
10
76.182224
20
144.973236
11
76.164494
21
145.032503
0
LINE
8
Layer 1
10
76.164494
20
145.032503
11
76.149740
21
145.082357
0
LINE
8
Layer 1
10
76.149740
20
145.082357
11
76.130444
21
145.088315
0
LINE
8
Layer 1
10
76.130444
20
145.088315
11
76.117442
21
145.108996
0
LINE
8
Layer 1
10
76.117442
20
145.108996
11
76.083068
21
145.102005
0
LINE
8
Layer 1
10
76.083068
20
145.102005
11
76.025858
21
145.089994
0
LINE
8
Layer 1
10
76.025858
20
145.089994
11
75.961145
21
145.042702
0
LINE
8
Layer 1
10
75.961145
20
145.042702
11
75.891467
21
144.972765
0
LINE
8
Layer 1
10
75.891467
20
144.972765
11
75.816486
21
144.871730
0
LINE
8
Layer 1
10
75.816486
20
144.871730
11
75.742891
21
144.756688
0
LINE
8
Layer 1
10
75.742891
20
144.756688
11
75.665845
21
144.610051
0
LINE
8
Layer 1
10
75.665845
20
144.610051
11
75.620204
21
144.523479
0
LINE
8
Layer 1
10
75.620204
20
144.523479
11
73.843118
21
140.016155
0
LINE
8
Layer 1
10
73.843118
20
140.016155
11
72.247524
21
135.388539
0
LINE
8
Layer 1
10
72.247524
20
135.388539
11
71.331431
21
132.543979
0
LINE
8
Layer 1
10
71.331431
20
132.543979
11
73.207451
21
133.324122
0
LINE
8
Layer 1
10
73.207451
20
133.324122
11
74.386141
21
138.902422
0
LINE
8
Layer 1
10
74.386141
20
138.902422
11
74.997800
21
141.084000
0
LINE
8
Layer 1
10
74.997800
20
141.084000
11
74.997800
21
141.084000
0
LINE
8
Layer 1
10
152.858000
20
99.632200
11
155.606530
21
96.738110
0
LINE
8
Layer 1
10
155.606530
20
96.738110
11
156.599336
21
95.588620
0
LINE
8
Layer 1
10
156.599336
20
95.588620
11
156.823082
21
95.358815
0
LINE
8
Layer 1
10
156.823082
20
95.358815
11
156.898839
21
95.296139
0
LINE
8
Layer 1
10
156.898839
20
95.296139
11
157.037306
21
95.186693
0
LINE
8
Layer 1
10
157.037306
20
95.186693
11
157.113224
21
95.141783
0
LINE
8
Layer 1
10
157.113224
20
95.141783
11
157.218307
21
95.088725
0
LINE
8
Layer 1
10
157.218307
20
95.088725
11
157.279727
21
95.075715
0
LINE
8
Layer 1
10
157.279727
20
95.075715
11
157.331396
21
95.064787
0
LINE
8
Layer 1
10
157.331396
20
95.064787
11
157.345956
21
95.078596
0
LINE
8
Layer 1
10
157.345956
20
95.078596
11
157.370879
21
95.079700
0
LINE
8
Layer 1
10
157.370879
20
95.079700
11
157.381188
21
95.112638
0
LINE
8
Layer 1
10
157.381188
20
95.112638
11
157.398457
21
95.167316
0
LINE
8
Layer 1
10
157.398457
20
95.167316
11
157.387911
21
95.245378
0
LINE
8
Layer 1
10
157.387911
20
95.245378
11
157.359689
21
95.338023
0
LINE
8
Layer 1
10
157.359689
20
95.338023
11
157.306526
21
95.450630
0
LINE
8
Layer 1
10
157.306526
20
95.450630
11
157.239868
21
95.568384
0
LINE
8
Layer 1
10
157.239868
20
95.568384
11
157.147147
21
95.704068
0
LINE
8
Layer 1
10
157.147147
20
95.704068
11
157.092374
21
95.784502
0
LINE
8
Layer 1
10
157.092374
20
95.784502
11
154.081259
21
99.577274
0
LINE
8
Layer 1
10
154.081259
20
99.577274
11
150.881584
21
103.212382
0
LINE
8
Layer 1
10
150.881584
20
103.212382
11
148.634004
21
105.668372
0
LINE
8
Layer 1
10
148.634004
20
105.668372
11
148.359904
21
103.629252
0
LINE
8
Layer 1
10
148.359904
20
103.629252
11
150.663822
21
101.692475
0
LINE
8
Layer 1
10
150.663822
20
101.692475
11
152.858000
21
99.632200
0
LINE
8
Layer 1
10
152.858000
20
99.632200
11
152.858000
21
99.632200
0
LINE
8
Layer 1
10
150.399000
20
121.885000
11
148.883750
21
123.017900
0
LINE
8
Layer 1
10
148.883750
20
123.017900
11
148.884501
21
123.009843
0
LINE
8
Layer 1
10
148.884501
20
123.009843
11
148.932329
21
122.491421
0
LINE
8
Layer 1
10
148.932329
20
122.491421
11
148.932970
21
122.484515
0
LINE
8
Layer 1
10
148.932970
20
122.484515
11
148.975498
21
121.997964
0
LINE
8
Layer 1
10
148.975498
20
121.997964
11
148.976141
21
121.990908
0
LINE
8
Layer 1
10
148.976141
20
121.990908
11
149.048988
21
121.068790
0
LINE
8
Layer 1
10
149.048988
20
121.068790
11
149.499979
21
120.727324
0
LINE
8
Layer 1
10
149.499979
20
120.727324
11
153.143508
21
117.691702
0
LINE
8
Layer 1
10
153.143508
20
117.691702
11
156.579070
21
114.429785
0
LINE
8
Layer 1
10
156.579070
20
114.429785
11
159.796161
21
110.952212
0
LINE
8
Layer 1
10
159.796161
20
110.952212
11
162.784279
21
107.269624
0
LINE
8
Layer 1
10
162.784279
20
107.269624
11
165.603565
21
103.284084
0
LINE
8
Layer 1
10
165.603565
20
103.284084
11
168.139762
21
99.119395
0
LINE
8
Layer 1
10
168.139762
20
99.119395
11
170.384405
21
94.790596
0
LINE
8
Layer 1
10
170.384405
20
94.790596
11
172.329029
21
90.312724
0
LINE
8
Layer 1
10
172.329029
20
90.312724
11
173.802586
21
86.218430
0
LINE
8
Layer 1
10
173.802586
20
86.218430
11
175.025457
21
82.046519
0
LINE
8
Layer 1
10
175.025457
20
82.046519
11
175.994647
21
77.808486
0
LINE
8
Layer 1
10
175.994647
20
77.808486
11
176.707159
21
73.515824
0
LINE
8
Layer 1
10
176.707159
20
73.515824
11
177.133306
21
69.631653
0
LINE
8
Layer 1
10
177.133306
20
69.631653
11
177.301679
21
65.727804
0
LINE
8
Layer 1
10
177.301679
20
65.727804
11
177.295690
21
65.903888
0
LINE
8
Layer 1
10
177.295690
20
65.903888
11
177.294804
21
65.975962
0
LINE
8
Layer 1
10
177.294804
20
65.975962
11
176.808403
21
71.742224
0
LINE
8
Layer 1
10
176.808403
20
71.742224
11
175.848080
21
77.438701
0
LINE
8
Layer 1
10
175.848080
20
77.438701
11
174.419996
21
83.036259
0
LINE
8
Layer 1
10
174.419996
20
83.036259
11
172.530314
21
88.505762
0
LINE
8
Layer 1
10
172.530314
20
88.505762
11
170.214435
21
93.884111
0
LINE
8
Layer 1
10
170.214435
20
93.884111
11
167.432884
21
99.037062
0
LINE
8
Layer 1
10
167.432884
20
99.037062
11
164.211812
21
103.995047
0
LINE
8
Layer 1
10
164.211812
20
103.995047
11
160.575094
21
108.656722
0
LINE
8
Layer 1
10
160.575094
20
108.656722
11
160.492206
21
108.745097
0
LINE
8
Layer 1
10
160.492206
20
108.745097
11
160.342081
21
108.905097
0
LINE
8
Layer 1
10
160.342081
20
108.905097
11
160.240001
21
108.998439
0
LINE
8
Layer 1
10
160.240001
20
108.998439
11
160.078423
21
109.131507
0
LINE
8
Layer 1
10
160.078423
20
109.131507
11
160.023759
21
109.167276
0
LINE
8
Layer 1
10
160.023759
20
109.167276
11
159.848446
21
109.254152
0
LINE
8
Layer 1
10
159.848446
20
109.254152
11
159.746400
21
109.274582
0
LINE
8
Layer 1
10
159.746400
20
109.274582
11
159.707515
21
109.052110
0
LINE
8
Layer 1
10
159.707515
20
109.052110
11
159.948739
21
108.592618
0
LINE
8
Layer 1
10
159.948739
20
108.592618
11
159.986063
21
108.539366
0
LINE
8
Layer 1
10
159.986063
20
108.539366
11
160.087742
21
108.394197
0
LINE
8
Layer 1
10
160.087742
20
108.394197
11
162.161657
21
105.635065
0
LINE
8
Layer 1
10
162.161657
20
105.635065
11
164.058888
21
102.755544
0
LINE
8
Layer 1
10
164.058888
20
102.755544
11
165.774226
21
99.764100
0
LINE
8
Layer 1
10
165.774226
20
99.764100
11
167.302462
21
96.669197
0
LINE
8
Layer 1
10
167.302462
20
96.669197
11
168.476049
21
93.856394
0
LINE
8
Layer 1
10
168.476049
20
93.856394
11
169.482772
21
90.979647
0
LINE
8
Layer 1
10
169.482772
20
90.979647
11
169.514595
21
90.889243
0
LINE
8
Layer 1
10
169.514595
20
90.889243
11
170.202693
21
88.112335
0
LINE
8
Layer 1
10
170.202693
20
88.112335
11
170.677935
21
85.291193
0
LINE
8
Layer 1
10
170.677935
20
85.291193
11
170.658628
21
84.200143
0
LINE
8
Layer 1
10
170.658628
20
84.200143
11
170.514275
21
83.675361
0
LINE
8
Layer 1
10
170.514275
20
83.675361
11
170.268266
21
83.469460
0
LINE
8
Layer 1
10
170.268266
20
83.469460
11
169.925883
21
83.578573
0
LINE
8
Layer 1
10
169.925883
20
83.578573
11
169.492408
21
83.998831
0
LINE
8
Layer 1
10
169.492408
20
83.998831
11
168.354851
21
85.529980
0
LINE
8
Layer 1
10
168.354851
20
85.529980
11
167.034421
21
87.686322
0
LINE
8
Layer 1
10
167.034421
20
87.686322
11
164.173428
21
92.478361
0
LINE
8
Layer 1
10
164.173428
20
92.478361
11
161.169111
21
97.018519
0
LINE
8
Layer 1
10
161.169111
20
97.018519
11
157.940018
21
101.401661
0
LINE
8
Layer 1
10
157.940018
20
101.401661
11
160.894097
21
98.683833
0
LINE
8
Layer 1
10
160.894097
20
98.683833
11
163.624918
21
95.741761
0
LINE
8
Layer 1
10
163.624918
20
95.741761
11
163.840787
21
95.409264
0
LINE
8
Layer 1
10
163.840787
20
95.409264
11
165.075477
21
93.416734
0
LINE
8
Layer 1
10
165.075477
20
93.416734
11
167.977437
21
88.626564
0
LINE
8
Layer 1
10
167.977437
20
88.626564
11
168.250174
21
88.318074
0
LINE
8
Layer 1
10
168.250174
20
88.318074
11
168.370572
21
88.420706
0
LINE
8
Layer 1
10
168.370572
20
88.420706
11
168.178097
21
90.118276
0
LINE
8
Layer 1
10
168.178097
20
90.118276
11
168.162550
21
90.183966
0
LINE
8
Layer 1
10
168.162550
20
90.183966
11
167.201784
21
93.271056
0
LINE
8
Layer 1
10
167.201784
20
93.271056
11
165.461064
21
97.328786
0
LINE
8
Layer 1
10
165.461064
20
97.328786
11
165.244453
21
97.758356
0
LINE
8
Layer 1
10
165.244453
20
97.758356
11
163.884786
21
100.313037
0
LINE
8
Layer 1
10
163.884786
20
100.313037
11
162.209398
21
103.042709
0
LINE
8
Layer 1
10
162.209398
20
103.042709
11
160.116492
21
105.983730
0
LINE
8
Layer 1
10
160.116492
20
105.983730
11
157.504273
21
109.172456
0
LINE
8
Layer 1
10
157.504273
20
109.172456
11
154.108033
21
112.707522
0
LINE
8
Layer 1
10
154.108033
20
112.707522
11
150.430713
21
115.949196
0
LINE
8
Layer 1
10
150.430713
20
115.949196
11
149.222213
21
116.891817
0
LINE
8
Layer 1
10
149.222213
20
116.891817
11
149.210018
21
113.583707
0
LINE
8
Layer 1
10
149.210018
20
113.583707
11
149.904250
21
112.915484
0
LINE
8
Layer 1
10
149.904250
20
112.915484
11
152.468000
21
110.254264
0
LINE
8
Layer 1
10
152.468000
20
110.254264
11
153.801050
21
108.809354
0
LINE
8
Layer 1
10
153.801050
20
108.809354
11
155.108750
21
107.272014
0
LINE
8
Layer 1
10
155.108750
20
107.272014
11
153.113560
21
108.648734
0
LINE
8
Layer 1
10
153.113560
20
108.648734
11
149.913930
21
110.548334
0
LINE
8
Layer 1
10
149.913930
20
110.548334
11
149.124487
21
111.321298
0
LINE
8
Layer 1
10
149.124487
20
111.321298
11
149.059782
21
110.244618
0
LINE
8
Layer 1
10
149.059782
20
110.244618
11
149.968565
21
109.762095
0
LINE
8
Layer 1
10
149.968565
20
109.762095
11
149.968952
21
109.761812
0
LINE
8
Layer 1
10
149.968952
20
109.761812
11
150.158964
21
109.661155
0
LINE
8
Layer 1
10
150.158964
20
109.661155
11
150.162760
21
109.659081
0
LINE
8
Layer 1
10
150.162760
20
109.659081
11
152.163460
21
108.473501
0
LINE
8
Layer 1
10
152.163460
20
108.473501
11
153.465840
21
107.640540
0
LINE
8
Layer 1
10
153.465840
20
107.640540
11
157.055460
21
105.021030
0
LINE
8
Layer 1
10
157.055460
20
105.021030
11
157.068459
21
105.010560
0
LINE
8
Layer 1
10
157.068459
20
105.010560
11
157.075514
21
105.004932
0
LINE
8
Layer 1
10
157.075514
20
105.004932
11
161.165910
21
101.403400
0
LINE
8
Layer 1
10
161.165910
20
101.403400
11
164.842674
21
97.380492
0
LINE
8
Layer 1
10
164.842674
20
97.380492
11
166.107644
21
94.562002
0
LINE
8
Layer 1
10
166.107644
20
94.562002
11
166.957014
21
92.238832
0
LINE
8
Layer 1
10
166.957014
20
92.238832
11
165.392454
21
94.382932
0
LINE
8
Layer 1
10
165.392454
20
94.382932
11
163.638164
21
96.544542
0
LINE
8
Layer 1
10
163.638164
20
96.544542
11
159.980342
21
100.380111
0
LINE
8
Layer 1
10
159.980342
20
100.380111
11
155.930874
21
103.799622
0
LINE
8
Layer 1
10
155.930874
20
103.799622
11
154.535754
21
104.850752
0
LINE
8
Layer 1
10
154.535754
20
104.850752
11
153.092000
21
105.819000
0
LINE
8
Layer 1
10
153.092000
20
105.819000
11
151.125500
21
107.065590
0
LINE
8
Layer 1
10
151.125500
20
107.065590
11
150.878079
21
107.181634
0
LINE
8
Layer 1
10
150.878079
20
107.181634
11
150.300935
21
107.507860
0
LINE
8
Layer 1
10
150.300935
20
107.507860
11
149.007265
21
109.415830
0
LINE
8
Layer 1
10
149.007265
20
109.415830
11
148.898610
21
108.182860
0
LINE
8
Layer 1
10
148.898610
20
108.182860
11
149.474792
21
107.435686
0
LINE
8
Layer 1
10
149.474792
20
107.435686
11
151.119242
21
105.420546
0
LINE
8
Layer 1
10
151.119242
20
105.420546
11
152.975752
21
103.236276
0
LINE
8
Layer 1
10
152.975752
20
103.236276
11
156.107485
21
99.370584
0
LINE
8
Layer 1
10
156.107485
20
99.370584
11
159.039938
21
95.395739
0
LINE
8
Layer 1
10
159.039938
20
95.395739
11
161.747873
21
91.295962
0
LINE
8
Layer 1
10
161.747873
20
91.295962
11
164.206052
21
87.055476
0
LINE
8
Layer 1
10
164.206052
20
87.055476
11
166.742692
21
82.059280
0
LINE
8
Layer 1
10
166.742692
20
82.059280
11
168.896736
21
76.895021
0
LINE
8
Layer 1
10
168.896736
20
76.895021
11
170.659988
21
71.584615
0
LINE
8
Layer 1
10
170.659988
20
71.584615
11
172.024252
21
66.149976
0
LINE
8
Layer 1
10
172.024252
20
66.149976
11
172.688253
21
62.576896
0
LINE
8
Layer 1
10
172.688253
20
62.576896
11
173.062383
21
59.103986
0
LINE
8
Layer 1
10
173.062383
20
59.103986
11
172.777023
21
57.601996
0
LINE
8
Layer 1
10
172.777023
20
57.601996
11
172.409451
21
55.802546
0
LINE
8
Layer 1
10
172.409451
20
55.802546
11
172.231717
21
58.593300
0
LINE
8
Layer 1
10
172.231717
20
58.593300
11
171.901437
21
61.315346
0
LINE
8
Layer 1
10
171.901437
20
61.315346
11
171.498522
21
63.952285
0
LINE
8
Layer 1
10
171.498522
20
63.952285
11
170.976248
21
66.494686
0
LINE
8
Layer 1
10
170.976248
20
66.494686
11
169.506537
21
72.086777
0
LINE
8
Layer 1
10
169.506537
20
72.086777
11
167.601658
21
77.545986
0
LINE
8
Layer 1
10
167.601658
20
77.545986
11
167.558884
21
77.649917
0
LINE
8
Layer 1
10
167.558884
20
77.649917
11
167.495102
21
77.804445
0
LINE
8
Layer 1
10
167.495102
20
77.804445
11
167.431975
21
77.931324
0
LINE
8
Layer 1
10
167.431975
20
77.931324
11
167.359161
21
78.039898
0
LINE
8
Layer 1
10
167.359161
20
78.039898
11
167.292800
21
78.117199
0
LINE
8
Layer 1
10
167.292800
20
78.117199
11
167.231871
21
78.175568
0
LINE
8
Layer 1
10
167.231871
20
78.175568
11
167.181096
21
78.196365
0
LINE
8
Layer 1
10
167.181096
20
78.196365
11
167.147870
21
78.209911
0
LINE
8
Layer 1
10
167.147870
20
78.209911
11
167.140137
21
78.195177
0
LINE
8
Layer 1
10
167.140137
20
78.195177
11
167.126153
21
78.194852
0
LINE
8
Layer 1
10
167.126153
20
78.194852
11
167.115753
21
78.148285
0
LINE
8
Layer 1
10
167.115753
20
78.148285
11
167.104913
21
78.097384
0
LINE
8
Layer 1
10
167.104913
20
78.097384
11
167.114156
21
77.988424
0
LINE
8
Layer 1
10
167.114156
20
77.988424
11
167.125589
21
77.905024
0
LINE
8
Layer 1
10
167.125589
20
77.905024
11
167.160833
21
77.735409
0
LINE
8
Layer 1
10
167.160833
20
77.735409
11
167.179866
21
77.637171
0
LINE
8
Layer 1
10
167.179866
20
77.637171
11
167.269497
21
77.321156
0
LINE
8
Layer 1
10
167.269497
20
77.321156
11
167.841973
21
75.607596
0
LINE
8
Layer 1
10
167.841973
20
75.607596
11
169.205223
21
71.026156
0
LINE
8
Layer 1
10
169.205223
20
71.026156
11
169.967691
21
67.906756
0
LINE
8
Layer 1
10
169.967691
20
67.906756
11
170.526208
21
64.360216
0
LINE
8
Layer 1
10
170.526208
20
64.360216
11
170.791683
21
62.475516
0
LINE
8
Layer 1
10
170.791683
20
62.475516
11
170.935616
21
60.529536
0
LINE
8
Layer 1
10
170.935616
20
60.529536
11
171.087191
21
58.545202
0
LINE
8
Layer 1
10
171.087191
20
58.545202
11
171.133242
21
56.540236
0
LINE
8
Layer 1
10
171.133242
20
56.540236
11
171.094506
21
52.525926
0
LINE
8
Layer 1
10
171.094506
20
52.525926
11
170.754841
21
48.644154
0
LINE
8
Layer 1
10
170.754841
20
48.644154
11
170.226052
21
45.022999
0
LINE
8
Layer 1
10
170.226052
20
45.022999
11
169.619942
21
41.790536
0
LINE
8
Layer 1
10
169.619942
20
41.790536
11
168.365702
21
37.010106
0
LINE
8
Layer 1
10
168.365702
20
37.010106
11
167.759340
21
35.231826
0
LINE
8
Layer 1
10
167.759340
20
35.231826
11
167.655612
21
34.909018
0
LINE
8
Layer 1
10
167.655612
20
34.909018
11
167.627107
21
34.810477
0
LINE
8
Layer 1
10
167.627107
20
34.810477
11
167.578029
21
34.635463
0
LINE
8
Layer 1
10
167.578029
20
34.635463
11
167.557977
21
34.550737
0
LINE
8
Layer 1
10
167.557977
20
34.550737
11
167.534084
21
34.439598
0
LINE
8
Layer 1
10
167.534084
20
34.439598
11
167.528877
21
34.388688
0
LINE
8
Layer 1
10
167.528877
20
34.388688
11
167.523981
21
34.345655
0
LINE
8
Layer 1
10
167.523981
20
34.345655
11
167.530508
21
34.345782
0
LINE
8
Layer 1
10
167.530508
20
34.345782
11
167.531237
21
34.329913
0
LINE
8
Layer 1
10
167.531237
20
34.329913
11
167.546239
21
34.347411
0
LINE
8
Layer 1
10
167.546239
20
34.347411
11
167.571699
21
34.375887
0
LINE
8
Layer 1
10
167.571699
20
34.375887
11
167.607566
21
34.440569
0
LINE
8
Layer 1
10
167.607566
20
34.440569
11
167.649998
21
34.527914
0
LINE
8
Layer 1
10
167.649998
20
34.527914
11
167.701222
21
34.646292
0
LINE
8
Layer 1
10
167.701222
20
34.646292
11
167.755197
21
34.777807
0
LINE
8
Layer 1
10
167.755197
20
34.777807
11
167.817065
21
34.940717
0
LINE
8
Layer 1
10
167.817065
20
34.940717
11
167.853907
21
35.036938
0
LINE
8
Layer 1
10
167.853907
20
35.036938
11
168.724906
21
37.419528
0
LINE
8
Layer 1
10
168.724906
20
37.419528
11
169.422841
21
39.878008
0
LINE
8
Layer 1
10
169.422841
20
39.878008
11
170.141855
21
42.334898
0
LINE
8
Layer 1
10
170.141855
20
42.334898
11
170.687145
21
44.836468
0
LINE
8
Layer 1
10
170.687145
20
44.836468
11
171.248247
21
47.271828
0
LINE
8
Layer 1
10
171.248247
20
47.271828
11
171.645150
21
49.560868
0
LINE
8
Layer 1
10
171.645150
20
49.560868
11
172.396563
21
53.596358
0
LINE
8
Layer 1
10
172.396563
20
53.596358
11
172.797724
21
55.770011
0
LINE
8
Layer 1
10
172.797724
20
55.770011
11
173.349370
21
57.910428
0
LINE
8
Layer 1
10
173.349370
20
57.910428
11
173.892241
21
59.349048
0
LINE
8
Layer 1
10
173.892241
20
59.349048
11
174.199110
21
59.574156
0
LINE
8
Layer 1
10
174.199110
20
59.574156
11
174.481819
21
59.364206
0
LINE
8
Layer 1
10
174.481819
20
59.364206
11
174.725995
21
58.730052
0
LINE
8
Layer 1
10
174.725995
20
58.730052
11
174.917271
21
57.682548
0
LINE
8
Layer 1
10
174.917271
20
57.682548
11
174.854406
21
54.585724
0
LINE
8
Layer 1
10
174.854406
20
54.585724
11
174.468569
21
51.512388
0
LINE
8
Layer 1
10
174.468569
20
51.512388
11
173.671856
21
47.606958
0
LINE
8
Layer 1
10
173.671856
20
47.606958
11
172.564286
21
43.435388
0
LINE
8
Layer 1
10
172.564286
20
43.435388
11
173.118522
21
46.662318
0
LINE
8
Layer 1
10
173.118522
20
46.662318
11
173.187347
21
47.079501
0
LINE
8
Layer 1
10
173.187347
20
47.079501
11
173.264394
21
48.011006
0
LINE
8
Layer 1
10
173.264394
20
48.011006
11
173.370419
21
49.369676
0
LINE
8
Layer 1
10
173.370419
20
49.369676
11
173.380607
21
49.508210
0
LINE
8
Layer 1
10
173.380607
20
49.508210
11
173.974018
21
52.774810
0
LINE
8
Layer 1
10
173.974018
20
52.774810
11
174.026444
21
53.233124
0
LINE
8
Layer 1
10
174.026444
20
53.233124
11
174.070287
21
53.930842
0
LINE
8
Layer 1
10
174.070287
20
53.930842
11
173.983046
21
54.493567
0
LINE
8
Layer 1
10
173.983046
20
54.493567
11
173.809575
21
54.312219
0
LINE
8
Layer 1
10
173.809575
20
54.312219
11
173.532738
21
53.672442
0
LINE
8
Layer 1
10
173.532738
20
53.672442
11
173.434937
21
53.365695
0
LINE
8
Layer 1
10
173.434937
20
53.365695
11
173.430190
21
53.346699
0
LINE
8
Layer 1
10
173.430190
20
53.346699
11
172.944198
21
51.629468
0
LINE
8
Layer 1
10
172.944198
20
51.629468
11
172.118270
21
48.181169
0
LINE
8
Layer 1
10
172.118270
20
48.181169
11
171.541561
21
45.797479
0
LINE
8
Layer 1
10
171.541561
20
45.797479
11
170.908419
21
43.211849
0
LINE
8
Layer 1
10
170.908419
20
43.211849
11
169.570013
21
38.621478
0
LINE
8
Layer 1
10
169.570013
20
38.621478
11
167.951687
21
34.127017
0
LINE
8
Layer 1
10
167.951687
20
34.127017
11
166.058494
21
29.741248
0
LINE
8
Layer 1
10
166.058494
20
29.741248
11
163.895489
21
25.476949
0
LINE
8
Layer 1
10
163.895489
20
25.476949
11
161.846214
21
22.006330
0
LINE
8
Layer 1
10
161.846214
20
22.006330
11
159.594429
21
18.663549
0
LINE
8
Layer 1
10
159.594429
20
18.663549
11
159.087126
21
18.110261
0
LINE
8
Layer 1
10
159.087126
20
18.110261
11
161.044139
21
21.081190
0
LINE
8
Layer 1
10
161.044139
20
21.081190
11
162.847566
21
24.147781
0
LINE
8
Layer 1
10
162.847566
20
24.147781
11
164.739836
21
27.855531
0
LINE
8
Layer 1
10
164.739836
20
27.855531
11
164.759284
21
27.896687
0
LINE
8
Layer 1
10
164.759284
20
27.896687
11
165.775674
21
30.331547
0
LINE
8
Layer 1
10
165.775674
20
30.331547
11
166.345119
21
31.716077
0
LINE
8
Layer 1
10
166.345119
20
31.716077
11
167.341704
21
34.491697
0
LINE
8
Layer 1
10
167.341704
20
34.491697
11
167.729099
21
35.702587
0
LINE
8
Layer 1
10
167.729099
20
35.702587
11
168.358773
21
37.678887
0
LINE
8
Layer 1
10
168.358773
20
37.678887
11
168.715406
21
39.132287
0
LINE
8
Layer 1
10
168.715406
20
39.132287
11
168.847396
21
39.704201
0
LINE
8
Layer 1
10
168.847396
20
39.704201
11
169.319813
21
41.697091
0
LINE
8
Layer 1
10
169.319813
20
41.697091
11
169.723390
21
43.766011
0
LINE
8
Layer 1
10
169.723390
20
43.766011
11
170.329335
21
47.777661
0
LINE
8
Layer 1
10
170.329335
20
47.777661
11
170.335699
21
47.834633
0
LINE
8
Layer 1
10
170.335699
20
47.834633
11
170.420761
21
48.997473
0
LINE
8
Layer 1
10
170.420761
20
48.997473
11
170.644112
21
52.483120
0
LINE
8
Layer 1
10
170.644112
20
52.483120
11
170.661231
21
55.975873
0
LINE
8
Layer 1
10
170.661231
20
55.975873
11
170.429444
21
60.306163
0
LINE
8
Layer 1
10
170.429444
20
60.306163
11
169.960627
21
64.375283
0
LINE
8
Layer 1
10
169.960627
20
64.375283
11
169.250915
21
68.210074
0
LINE
8
Layer 1
10
169.250915
20
68.210074
11
168.296441
21
71.837373
0
LINE
8
Layer 1
10
168.296441
20
71.837373
11
167.096311
21
75.529087
0
LINE
8
Layer 1
10
167.096311
20
75.529087
11
165.670385
21
79.135572
0
LINE
8
Layer 1
10
165.670385
20
79.135572
11
164.023127
21
82.646490
0
LINE
8
Layer 1
10
164.023127
20
82.646490
11
162.159000
21
86.051500
0
LINE
8
Layer 1
10
162.159000
20
86.051500
11
160.059155
21
89.366006
0
LINE
8
Layer 1
10
160.059155
20
89.366006
11
157.746362
21
92.530246
0
LINE
8
Layer 1
10
157.746362
20
92.530246
11
155.228633
21
95.533987
0
LINE
8
Layer 1
10
155.228633
20
95.533987
11
152.513980
21
98.367000
0
LINE
8
Layer 1
10
152.513980
20
98.367000
11
150.383508
21
100.346272
0
LINE
8
Layer 1
10
150.383508
20
100.346272
11
148.150430
21
102.209010
0
LINE
8
Layer 1
10
148.150430
20
102.209010
11
148.150278
21
102.208208
0
LINE
8
Layer 1
10
148.150278
20
102.208208
11
147.861246
21
100.555758
0
LINE
8
Layer 1
10
147.861246
20
100.555758
11
147.861031
21
100.554604
0
LINE
8
Layer 1
10
147.861031
20
100.554604
11
151.490121
21
97.318084
0
LINE
8
Layer 1
10
151.490121
20
97.318084
11
154.137652
21
94.555091
0
LINE
8
Layer 1
10
154.137652
20
94.555091
11
156.593105
21
91.625573
0
LINE
8
Layer 1
10
156.593105
20
91.625573
11
158.848663
21
88.539510
0
LINE
8
Layer 1
10
158.848663
20
88.539510
11
160.896511
21
85.306884
0
LINE
8
Layer 1
10
160.896511
20
85.306884
11
162.717727
21
81.980063
0
LINE
8
Layer 1
10
162.717727
20
81.980063
11
164.327007
21
78.549751
0
LINE
8
Layer 1
10
164.327007
20
78.549751
11
165.719986
21
75.026056
0
LINE
8
Layer 1
10
165.719986
20
75.026056
11
166.892301
21
71.419084
0
LINE
8
Layer 1
10
166.892301
20
71.419084
11
167.822459
21
67.882283
0
LINE
8
Layer 1
10
167.822459
20
67.882283
11
168.513900
21
64.139842
0
LINE
8
Layer 1
10
168.513900
20
64.139842
11
168.970709
21
60.163321
0
LINE
8
Layer 1
10
168.970709
20
60.163321
11
169.196971
21
55.924284
0
LINE
8
Layer 1
10
169.196971
20
55.924284
11
169.180034
21
52.511606
0
LINE
8
Layer 1
10
169.180034
20
52.511606
11
168.959566
21
49.106014
0
LINE
8
Layer 1
10
168.959566
20
49.106014
11
168.876195
21
47.966874
0
LINE
8
Layer 1
10
168.876195
20
47.966874
11
168.308647
21
44.183304
0
LINE
8
Layer 1
10
168.308647
20
44.183304
11
168.270265
21
43.954270
0
LINE
8
Layer 1
10
168.270265
20
43.954270
11
167.894184
21
42.034840
0
LINE
8
Layer 1
10
167.894184
20
42.034840
11
167.421767
21
40.041940
0
LINE
8
Layer 1
10
167.421767
20
40.041940
11
167.286952
21
39.457647
0
LINE
8
Layer 1
10
167.286952
20
39.457647
11
166.955522
21
38.099167
0
LINE
8
Layer 1
10
166.955522
20
38.099167
11
166.337391
21
36.160627
0
LINE
8
Layer 1
10
166.337391
20
36.160627
11
165.942280
21
34.926497
0
LINE
8
Layer 1
10
165.942280
20
34.926497
11
165.003367
21
32.304247
0
LINE
8
Layer 1
10
165.003367
20
32.304247
11
164.419520
21
30.886297
0
LINE
8
Layer 1
10
164.419520
20
30.886297
11
163.424544
21
28.501317
0
LINE
8
Layer 1
10
163.424544
20
28.501317
11
161.554544
21
24.836157
0
LINE
8
Layer 1
10
161.554544
20
24.836157
11
160.864141
21
23.620627
0
LINE
8
Layer 1
10
160.864141
20
23.620627
11
158.555286
21
19.888252
0
LINE
8
Layer 1
10
158.555286
20
19.888252
11
155.998083
21
16.281862
0
LINE
8
Layer 1
10
155.998083
20
16.281862
11
153.174034
21
12.888780
0
LINE
8
Layer 1
10
153.174034
20
12.888780
11
150.064641
21
9.796327
0
LINE
8
Layer 1
10
150.064641
20
9.796327
11
144.331083
21
4.857983
0
LINE
8
Layer 1
10
144.331083
20
4.857983
11
138.129841
21
0.000377
0
LINE
8
Layer 1
10
138.129841
20
0.000377
11
142.942936
21
2.775132
0
LINE
8
Layer 1
10
142.942936
20
2.775132
11
146.699881
21
5.133488
0
LINE
8
Layer 1
10
146.699881
20
5.133488
11
149.859406
21
7.348971
0
LINE
8
Layer 1
10
149.859406
20
7.348971
11
152.880241
21
9.695107
0
LINE
8
Layer 1
10
152.880241
20
9.695107
11
156.170637
21
12.604696
0
LINE
8
Layer 1
10
156.170637
20
12.604696
11
159.262109
21
15.821107
0
LINE
8
Layer 1
10
159.262109
20
15.821107
11
162.166448
21
19.224344
0
LINE
8
Layer 1
10
162.166448
20
19.224344
11
164.895441
21
22.694407
0
LINE
8
Layer 1
10
164.895441
20
22.694407
11
167.422201
21
26.233067
0
LINE
8
Layer 1
10
167.422201
20
26.233067
11
167.447691
21
26.271531
0
LINE
8
Layer 1
10
167.447691
20
26.271531
11
168.796351
21
28.504751
0
LINE
8
Layer 1
10
168.796351
20
28.504751
11
169.692849
21
30.002731
0
LINE
8
Layer 1
10
169.692849
20
30.002731
11
171.164189
21
32.750021
0
LINE
8
Layer 1
10
171.164189
20
32.750021
11
171.762065
21
33.961271
0
LINE
8
Layer 1
10
171.762065
20
33.961271
11
172.734828
21
35.941511
0
LINE
8
Layer 1
10
172.734828
20
35.941511
11
172.748375
21
35.970642
0
LINE
8
Layer 1
10
172.748375
20
35.970642
11
173.246706
21
37.188812
0
LINE
8
Layer 1
10
173.246706
20
37.188812
11
173.589659
21
38.042765
0
LINE
8
Layer 1
10
173.589659
20
38.042765
11
174.398403
21
40.090185
0
LINE
8
Layer 1
10
174.398403
20
40.090185
11
175.167814
21
42.246755
0
LINE
8
Layer 1
10
175.167814
20
42.246755
11
176.469194
21
46.500375
0
LINE
8
Layer 1
10
176.469194
20
46.500375
11
176.483398
21
46.553964
0
LINE
8
Layer 1
10
176.483398
20
46.553964
11
176.557679
21
46.870216
0
LINE
8
Layer 1
10
176.557679
20
46.870216
11
176.635406
21
47.201096
0
LINE
8
Layer 1
10
176.635406
20
47.201096
11
176.748715
21
47.705226
0
LINE
8
Layer 1
10
176.748715
20
47.705226
11
177.568696
21
51.522386
0
LINE
8
Layer 1
10
177.568696
20
51.522386
11
178.167935
21
55.417546
0
LINE
8
Layer 1
10
178.167935
20
55.417546
11
178.624419
21
60.250408
0
LINE
8
Layer 1
10
178.624419
20
60.250408
11
178.775003
21
64.922982
0
LINE
8
Layer 1
10
178.775003
20
64.922982
11
178.619771
21
69.418512
0
LINE
8
Layer 1
10
178.619771
20
69.418512
11
178.158810
21
73.720246
0
LINE
8
Layer 1
10
178.158810
20
73.720246
11
177.431775
21
78.098267
0
LINE
8
Layer 1
10
177.431775
20
78.098267
11
176.443022
21
82.420569
0
LINE
8
Layer 1
10
176.443022
20
82.420569
11
175.195605
21
86.675434
0
LINE
8
Layer 1
10
175.195605
20
86.675434
11
173.692580
21
90.851145
0
LINE
8
Layer 1
10
173.692580
20
90.851145
11
171.708230
21
95.420363
0
LINE
8
Layer 1
10
171.708230
20
95.420363
11
169.417758
21
99.837474
0
LINE
8
Layer 1
10
169.417758
20
99.837474
11
166.829803
21
104.087134
0
LINE
8
Layer 1
10
166.829803
20
104.087134
11
163.953000
21
108.154000
0
LINE
8
Layer 1
10
163.953000
20
108.154000
11
160.904312
21
111.911459
0
LINE
8
Layer 1
10
160.904312
20
111.911459
11
157.621935
21
115.459687
0
LINE
8
Layer 1
10
157.621935
20
115.459687
11
154.116591
21
118.787821
0
LINE
8
Layer 1
10
154.116591
20
118.787821
11
150.399000
21
121.885000
0
LINE
8
Layer 1
10
150.399000
20
121.885000
11
150.399000
21
121.885000
0
LINE
8
Layer 1
10
171.125400
20
40.591800
11
171.445891
21
41.902870
0
LINE
8
Layer 1
10
171.445891
20
41.902870
11
171.753087
21
43.796030
0
LINE
8
Layer 1
10
171.753087
20
43.796030
11
172.097398
21
46.108150
0
LINE
8
Layer 1
10
172.097398
20
46.108150
11
172.099817
21
46.129650
0
LINE
8
Layer 1
10
172.099817
20
46.129650
11
172.100296
21
46.132791
0
LINE
8
Layer 1
10
172.100296
20
46.132791
11
172.275751
21
47.594401
0
LINE
8
Layer 1
10
172.275751
20
47.594401
11
173.229704
21
51.225751
0
LINE
8
Layer 1
10
173.229704
20
51.225751
11
173.077979
21
49.036551
0
LINE
8
Layer 1
10
173.077979
20
49.036551
11
173.072575
21
48.966402
0
LINE
8
Layer 1
10
173.072575
20
48.966402
11
173.036679
21
48.460265
0
LINE
8
Layer 1
10
173.036679
20
48.460265
11
172.934297
21
47.115035
0
LINE
8
Layer 1
10
172.934297
20
47.115035
11
172.721262
21
45.786795
0
LINE
8
Layer 1
10
172.721262
20
45.786795
11
172.291545
21
43.216405
0
LINE
8
Layer 1
10
172.291545
20
43.216405
11
172.066332
21
41.921815
0
LINE
8
Layer 1
10
172.066332
20
41.921815
11
171.735743
21
40.648995
0
LINE
8
Layer 1
10
171.735743
20
40.648995
11
171.718499
21
40.585004
0
LINE
8
Layer 1
10
171.718499
20
40.585004
11
170.962761
21
37.775024
0
LINE
8
Layer 1
10
170.962761
20
37.775024
11
170.111599
21
35.226284
0
LINE
8
Layer 1
10
170.111599
20
35.226284
11
169.221445
21
32.878424
0
LINE
8
Layer 1
10
169.221445
20
32.878424
11
168.787797
21
31.757064
0
LINE
8
Layer 1
10
168.787797
20
31.757064
11
168.277717
21
30.702054
0
LINE
8
Layer 1
10
168.277717
20
30.702054
11
166.817087
21
28.164484
0
LINE
8
Layer 1
10
166.817087
20
28.164484
11
166.205125
21
27.106024
0
LINE
8
Layer 1
10
166.205125
20
27.106024
11
165.612978
21
26.243139
0
LINE
8
Layer 1
10
165.612978
20
26.243139
11
166.660658
21
28.227819
0
LINE
8
Layer 1
10
166.660658
20
28.227819
11
167.677448
21
30.368589
0
LINE
8
Layer 1
10
167.677448
20
30.368589
11
168.767424
21
32.912841
0
LINE
8
Layer 1
10
168.767424
20
32.912841
11
169.692268
21
35.493499
0
LINE
8
Layer 1
10
169.692268
20
35.493499
11
170.140064
21
36.767319
0
LINE
8
Layer 1
10
170.140064
20
36.767319
11
170.486864
21
38.058889
0
LINE
8
Layer 1
10
170.486864
20
38.058889
11
171.125000
21
40.591700
0
LINE
8
Layer 1
10
171.125000
20
40.591700
11
171.125400
21
40.591800
0
LINE
8
Layer 1
10
163.355260
20
23.349500
11
164.779110
21
25.804550
0
LINE
8
Layer 1
10
164.779110
20
25.804550
11
166.116680
21
28.251760
0
LINE
8
Layer 1
10
166.116680
20
28.251760
11
168.223270
21
32.663010
0
LINE
8
Layer 1
10
168.223270
20
32.663010
11
170.147970
21
37.521440
0
LINE
8
Layer 1
10
170.147970
20
37.521440
11
168.857120
21
33.662880
0
LINE
8
Layer 1
10
168.857120
20
33.662880
11
168.134349
21
31.714980
0
LINE
8
Layer 1
10
168.134349
20
31.714980
11
167.260197
21
29.818200
0
LINE
8
Layer 1
10
167.260197
20
29.818200
11
166.547366
21
28.405920
0
LINE
8
Layer 1
10
166.547366
20
28.405920
11
164.804676
21
25.298070
0
LINE
8
Layer 1
10
164.804676
20
25.298070
11
164.096400
21
24.097340
0
LINE
8
Layer 1
10
164.096400
20
24.097340
11
163.716413
21
23.565030
0
LINE
8
Layer 1
10
163.716413
20
23.565030
11
162.567663
21
22.103670
0
LINE
8
Layer 1
10
162.567663
20
22.103670
11
163.355000
21
23.349400
0
LINE
8
Layer 1
10
163.355000
20
23.349400
11
163.355260
21
23.349500
0
LINE
8
Layer 1
10
176.711460
20
55.583500
11
176.124643
21
51.777519
0
LINE
8
Layer 1
10
176.124643
20
51.777519
11
175.318640
21
48.027180
0
LINE
8
Layer 1
10
175.318640
20
48.027180
11
175.205204
21
47.522663
0
LINE
8
Layer 1
10
175.205204
20
47.522663
11
175.132154
21
47.211547
0
LINE
8
Layer 1
10
175.132154
20
47.211547
11
175.059465
21
46.902864
0
LINE
8
Layer 1
10
175.059465
20
46.902864
11
173.761685
21
42.660744
0
LINE
8
Layer 1
10
173.761685
20
42.660744
11
173.040120
21
40.640924
0
LINE
8
Layer 1
10
173.040120
20
40.640924
11
172.231376
21
38.593504
0
LINE
8
Layer 1
10
172.231376
20
38.593504
11
171.882911
21
37.726761
0
LINE
8
Layer 1
10
171.882911
20
37.726761
11
171.412001
21
36.573131
0
LINE
8
Layer 1
10
171.412001
20
36.573131
11
170.452297
21
34.619511
0
LINE
8
Layer 1
10
170.452297
20
34.619511
11
169.844391
21
33.387681
0
LINE
8
Layer 1
10
169.844391
20
33.387681
11
169.075102
21
31.855781
0
LINE
8
Layer 1
10
169.075102
20
31.855781
11
171.310242
21
36.545131
0
LINE
8
Layer 1
10
171.310242
20
36.545131
11
172.533812
21
39.793841
0
LINE
8
Layer 1
10
172.533812
20
39.793841
11
173.203330
21
41.588071
0
LINE
8
Layer 1
10
173.203330
20
41.588071
11
173.764551
21
43.553271
0
LINE
8
Layer 1
10
173.764551
20
43.553271
11
175.042896
21
48.663384
0
LINE
8
Layer 1
10
175.042896
20
48.663384
11
175.882998
21
53.854028
0
LINE
8
Layer 1
10
175.882998
20
53.854028
11
176.281518
21
59.097093
0
LINE
8
Layer 1
10
176.281518
20
59.097093
11
176.235121
21
64.364471
0
LINE
8
Layer 1
10
176.235121
20
64.364471
11
175.715499
21
69.596598
0
LINE
8
Layer 1
10
175.715499
20
69.596598
11
174.736513
21
74.718081
0
LINE
8
Layer 1
10
174.736513
20
74.718081
11
173.300078
21
79.657659
0
LINE
8
Layer 1
10
173.300078
20
79.657659
11
171.408111
21
84.344071
0
LINE
8
Layer 1
10
171.408111
20
84.344071
11
171.341529
21
85.250345
0
LINE
8
Layer 1
10
171.341529
20
85.250345
11
171.160424
21
86.246160
0
LINE
8
Layer 1
10
171.160424
20
86.246160
11
170.639053
21
88.591290
0
LINE
8
Layer 1
10
170.639053
20
88.591290
11
171.958409
21
85.903328
0
LINE
8
Layer 1
10
171.958409
20
85.903328
11
173.130951
21
83.155012
0
LINE
8
Layer 1
10
173.130951
20
83.155012
11
174.154998
21
80.352394
0
LINE
8
Layer 1
10
174.154998
20
80.352394
11
175.028867
21
77.501529
0
LINE
8
Layer 1
10
175.028867
20
77.501529
11
175.750876
21
74.608472
0
LINE
8
Layer 1
10
175.750876
20
74.608472
11
176.319343
21
71.679277
0
LINE
8
Layer 1
10
176.319343
20
71.679277
11
176.732586
21
68.719998
0
LINE
8
Layer 1
10
176.732586
20
68.719998
11
176.988923
21
65.736690
0
LINE
8
Layer 1
10
176.988923
20
65.736690
11
177.002311
21
65.603151
0
LINE
8
Layer 1
10
177.002311
20
65.603151
11
177.018948
21
65.437831
0
LINE
8
Layer 1
10
177.018948
20
65.437831
11
177.060867
21
65.180445
0
LINE
8
Layer 1
10
177.060867
20
65.180445
11
177.203756
21
64.887925
0
LINE
8
Layer 1
10
177.203756
20
64.887925
11
177.302124
21
65.673391
0
LINE
8
Layer 1
10
177.302124
20
65.673391
11
177.177634
21
60.618419
0
LINE
8
Layer 1
10
177.177634
20
60.618419
11
176.712000
21
55.583400
0
LINE
8
Layer 1
10
176.712000
20
55.583400
11
176.711460
21
55.583500
0
LINE
8
Layer 1
10
147.651000
20
123.582000
11
147.632938
21
123.728755
0
LINE
8
Layer 1
10
147.632938
20
123.728755
11
147.632023
21
123.730539
0
LINE
8
Layer 1
10
147.632023
20
123.730539
11
147.001780
21
128.488046
0
LINE
8
Layer 1
10
147.001780
20
128.488046
11
146.092333
21
133.195896
0
LINE
8
Layer 1
10
146.092333
20
133.195896
11
144.906431
21
137.841818
0
LINE
8
Layer 1
10
144.906431
20
137.841818
11
143.446823
21
142.413539
0
LINE
8
Layer 1
10
143.446823
20
142.413539
11
141.436626
21
147.609058
0
LINE
8
Layer 1
10
141.436626
20
147.609058
11
139.088473
21
152.660839
0
LINE
8
Layer 1
10
139.088473
20
152.660839
11
136.371537
21
157.575902
0
LINE
8
Layer 1
10
136.371537
20
157.575902
11
133.355000
21
162.313000
0
LINE
8
Layer 1
10
133.355000
20
162.313000
11
129.818369
21
167.068474
0
LINE
8
Layer 1
10
129.818369
20
167.068474
11
125.959556
21
171.556737
0
LINE
8
Layer 1
10
125.959556
20
171.556737
11
121.793616
21
175.761481
0
LINE
8
Layer 1
10
121.793616
20
175.761481
11
117.335600
21
179.666400
0
LINE
8
Layer 1
10
117.335600
20
179.666400
11
115.510250
21
179.042464
0
LINE
8
Layer 1
10
115.510250
20
179.042464
11
120.130909
21
175.098561
0
LINE
8
Layer 1
10
120.130909
20
175.098561
11
124.443650
21
170.831725
0
LINE
8
Layer 1
10
124.443650
20
170.831725
11
128.431629
21
166.259893
0
LINE
8
Layer 1
10
128.431629
20
166.259893
11
132.078000
21
161.401000
0
LINE
8
Layer 1
10
132.078000
20
161.401000
11
135.057443
21
156.752207
0
LINE
8
Layer 1
10
135.057443
20
156.752207
11
137.739760
21
151.925870
0
LINE
8
Layer 1
10
137.739760
20
151.925870
11
140.059229
21
146.972450
0
LINE
8
Layer 1
10
140.059229
20
146.972450
11
142.046520
21
141.876670
0
LINE
8
Layer 1
10
142.046520
20
141.876670
11
143.439172
21
137.600575
0
LINE
8
Layer 1
10
143.439172
20
137.600575
11
144.576600
21
133.249630
0
LINE
8
Layer 1
10
144.576600
20
133.249630
11
145.530292
21
128.370305
0
LINE
8
Layer 1
10
145.530292
20
128.370305
11
146.189220
21
123.442510
0
LINE
8
Layer 1
10
146.189220
20
123.442510
11
146.204590
21
123.322371
0
LINE
8
Layer 1
10
146.204590
20
123.322371
11
146.426893
21
120.756691
0
LINE
8
Layer 1
10
146.426893
20
120.756691
11
146.596899
21
116.261371
0
LINE
8
Layer 1
10
146.596899
20
116.261371
11
146.511192
21
111.767283
0
LINE
8
Layer 1
10
146.511192
20
111.767283
11
146.170288
21
107.285325
0
LINE
8
Layer 1
10
146.170288
20
107.285325
11
145.574707
21
102.826391
0
LINE
8
Layer 1
10
145.574707
20
102.826391
11
145.541904
21
102.590239
0
LINE
8
Layer 1
10
145.541904
20
102.590239
11
144.342176
21
96.680272
0
LINE
8
Layer 1
10
144.342176
20
96.680272
11
142.695899
21
90.887988
0
LINE
8
Layer 1
10
142.695899
20
90.887988
11
140.611304
21
85.238629
0
LINE
8
Layer 1
10
140.611304
20
85.238629
11
138.096624
21
79.757439
0
LINE
8
Layer 1
10
138.096624
20
79.757439
11
136.328919
21
76.475514
0
LINE
8
Layer 1
10
136.328919
20
76.475514
11
134.411244
21
73.301079
0
LINE
8
Layer 1
10
134.411244
20
73.301079
11
136.367754
21
73.663720
0
LINE
8
Layer 1
10
136.367754
20
73.663720
11
139.403944
21
79.094740
0
LINE
8
Layer 1
10
139.403944
20
79.094740
11
141.987948
21
84.732145
0
LINE
8
Layer 1
10
141.987948
20
84.732145
11
144.125345
21
90.543723
0
LINE
8
Layer 1
10
144.125345
20
90.543723
11
145.807550
21
96.503009
0
LINE
8
Layer 1
10
145.807550
20
96.503009
11
147.025974
21
102.583540
0
LINE
8
Layer 1
10
147.025974
20
102.583540
11
147.059841
21
102.829561
0
LINE
8
Layer 1
10
147.059841
20
102.829561
11
147.059708
21
102.829815
0
LINE
8
Layer 1
10
147.059708
20
102.829815
11
147.646736
21
107.314074
0
LINE
8
Layer 1
10
147.646736
20
107.314074
11
147.980986
21
111.820659
0
LINE
8
Layer 1
10
147.980986
20
111.820659
11
148.061966
21
116.338898
0
LINE
8
Layer 1
10
148.061966
20
116.338898
11
147.889184
21
120.858115
0
LINE
8
Layer 1
10
147.889184
20
120.858115
11
147.651000
21
123.582000
0
LINE
8
Layer 1
10
147.651000
20
123.582000
11
147.651000
21
123.582000
0
LINE
8
Layer 1
10
90.644800
20
159.409000
11
88.566710
21
159.698117
0
LINE
8
Layer 1
10
88.566710
20
159.698117
11
86.794220
21
157.303657
0
LINE
8
Layer 1
10
86.794220
20
157.303657
11
86.899003
21
157.268306
0
LINE
8
Layer 1
10
86.899003
20
157.268306
11
88.327613
21
156.741855
0
LINE
8
Layer 1
10
88.327613
20
156.741855
11
90.162933
21
156.000740
0
LINE
8
Layer 1
10
90.162933
20
156.000740
11
95.010506
21
153.627131
0
LINE
8
Layer 1
10
95.010506
20
153.627131
11
99.565749
21
150.760186
0
LINE
8
Layer 1
10
99.565749
20
150.760186
11
103.791259
21
147.426318
0
LINE
8
Layer 1
10
103.791259
20
147.426318
11
107.649633
21
143.651940
0
LINE
8
Layer 1
10
107.649633
20
143.651940
11
109.003933
21
142.128650
0
LINE
8
Layer 1
10
109.003933
20
142.128650
11
110.019213
21
140.922240
0
LINE
8
Layer 1
10
110.019213
20
140.922240
11
110.860085
21
139.831710
0
LINE
8
Layer 1
10
110.860085
20
139.831710
11
111.075223
21
139.628135
0
LINE
8
Layer 1
10
111.075223
20
139.628135
11
111.161526
21
139.580507
0
LINE
8
Layer 1
10
111.161526
20
139.580507
11
111.323736
21
139.501637
0
LINE
8
Layer 1
10
111.323736
20
139.501637
11
111.426305
21
139.480188
0
LINE
8
Layer 1
10
111.426305
20
139.480188
11
111.576069
21
139.463771
0
LINE
8
Layer 1
10
111.576069
20
139.463771
11
111.680008
21
139.479370
0
LINE
8
Layer 1
10
111.680008
20
139.479370
11
111.767068
21
139.492917
0
LINE
8
Layer 1
10
111.767068
20
139.492917
11
111.805913
21
139.520857
0
LINE
8
Layer 1
10
111.805913
20
139.520857
11
111.854032
21
139.536334
0
LINE
8
Layer 1
10
111.854032
20
139.536334
11
111.901976
21
139.589832
0
LINE
8
Layer 1
10
111.901976
20
139.589832
11
111.982356
21
139.678449
0
LINE
8
Layer 1
10
111.982356
20
139.678449
11
112.031070
21
139.784929
0
LINE
8
Layer 1
10
112.031070
20
139.784929
11
112.058931
21
139.902765
0
LINE
8
Layer 1
10
112.058931
20
139.902765
11
112.057212
21
140.034563
0
LINE
8
Layer 1
10
112.057212
20
140.034563
11
112.034101
21
140.167461
0
LINE
8
Layer 1
10
112.034101
20
140.167461
11
111.945224
21
140.395652
0
LINE
8
Layer 1
10
111.945224
20
140.395652
11
107.343954
21
148.185452
0
LINE
8
Layer 1
10
107.343954
20
148.185452
11
105.058710
21
152.315529
0
LINE
8
Layer 1
10
105.058710
20
152.315529
11
104.151919
21
154.358419
0
LINE
8
Layer 1
10
104.151919
20
154.358419
11
103.419824
21
156.409342
0
LINE
8
Layer 1
10
103.419824
20
156.409342
11
102.724471
21
159.224202
0
LINE
8
Layer 1
10
102.724471
20
159.224202
11
102.453256
21
161.903122
0
LINE
8
Layer 1
10
102.453256
20
161.903122
11
102.529739
21
163.308717
0
LINE
8
Layer 1
10
102.529739
20
163.308717
11
102.808754
21
164.688462
0
LINE
8
Layer 1
10
102.808754
20
164.688462
11
103.419525
21
166.031662
0
LINE
8
Layer 1
10
103.419525
20
166.031662
11
104.336188
21
167.013877
0
LINE
8
Layer 1
10
104.336188
20
167.013877
11
105.524775
21
167.576070
0
LINE
8
Layer 1
10
105.524775
20
167.576070
11
106.951314
21
167.659202
0
LINE
8
Layer 1
10
106.951314
20
167.659202
11
107.974905
21
167.451737
0
LINE
8
Layer 1
10
107.974905
20
167.451737
11
109.331749
21
166.870986
0
LINE
8
Layer 1
10
109.331749
20
166.870986
11
110.899763
21
165.748914
0
LINE
8
Layer 1
10
110.899763
20
165.748914
11
112.556864
21
163.917482
0
LINE
8
Layer 1
10
112.556864
20
163.917482
11
114.883994
21
160.642145
0
LINE
8
Layer 1
10
114.883994
20
160.642145
11
117.230054
21
157.046752
0
LINE
8
Layer 1
10
117.230054
20
157.046752
11
114.841044
21
158.260622
0
LINE
8
Layer 1
10
114.841044
20
158.260622
11
111.075874
21
159.860712
0
LINE
8
Layer 1
10
111.075874
20
159.860712
11
109.090884
21
162.506262
0
LINE
8
Layer 1
10
109.090884
20
162.506262
11
109.064575
21
162.539105
0
LINE
8
Layer 1
10
109.064575
20
162.539105
11
108.329703
21
163.013802
0
LINE
8
Layer 1
10
108.329703
20
163.013802
11
107.944736
21
163.030143
0
LINE
8
Layer 1
10
107.944736
20
163.030143
11
107.624489
21
162.815880
0
LINE
8
Layer 1
10
107.624489
20
162.815880
11
107.216811
21
161.829920
0
LINE
8
Layer 1
10
107.216811
20
161.829920
11
107.064000
21
160.774000
0
LINE
8
Layer 1
10
107.064000
20
160.774000
11
107.054090
21
160.392466
0
LINE
8
Layer 1
10
107.054090
20
160.392466
11
107.054150
21
160.534165
0
LINE
8
Layer 1
10
107.054150
20
160.534165
11
107.231165
21
158.144235
0
LINE
8
Layer 1
10
107.231165
20
158.144235
11
107.626922
21
156.424355
0
LINE
8
Layer 1
10
107.626922
20
156.424355
11
108.288371
21
154.363405
0
LINE
8
Layer 1
10
108.288371
20
154.363405
11
109.369141
21
151.876505
0
LINE
8
Layer 1
10
109.369141
20
151.876505
11
110.716921
21
149.349775
0
LINE
8
Layer 1
10
110.716921
20
149.349775
11
115.348763
21
140.949823
0
LINE
8
Layer 1
10
115.348763
20
140.949823
11
119.503281
21
132.603075
0
LINE
8
Layer 1
10
119.503281
20
132.603075
11
121.701329
21
127.753949
0
LINE
8
Layer 1
10
121.701329
20
127.753949
11
123.751054
21
122.795496
0
LINE
8
Layer 1
10
123.751054
20
122.795496
11
125.619313
21
117.690833
0
LINE
8
Layer 1
10
125.619313
20
117.690833
11
127.272961
21
112.403075
0
LINE
8
Layer 1
10
127.272961
20
112.403075
11
128.177525
21
108.857665
0
LINE
8
Layer 1
10
128.177525
20
108.857665
11
128.879287
21
105.365195
0
LINE
8
Layer 1
10
128.879287
20
105.365195
11
127.547020
21
103.926042
0
LINE
8
Layer 1
10
127.547020
20
103.926042
11
126.354457
21
102.369155
0
LINE
8
Layer 1
10
126.354457
20
102.369155
11
125.362346
21
107.588022
0
LINE
8
Layer 1
10
125.362346
20
107.588022
11
124.066797
21
112.739955
0
LINE
8
Layer 1
10
124.066797
20
112.739955
11
122.483028
21
117.952339
0
LINE
8
Layer 1
10
122.483028
20
117.952339
11
120.626047
21
123.073755
0
LINE
8
Layer 1
10
120.626047
20
123.073755
11
120.571248
21
123.166787
0
LINE
8
Layer 1
10
120.571248
20
123.166787
11
120.490090
21
123.304695
0
LINE
8
Layer 1
10
120.490090
20
123.304695
11
120.393903
21
123.414479
0
LINE
8
Layer 1
10
120.393903
20
123.414479
11
120.291662
21
123.508143
0
LINE
8
Layer 1
10
120.291662
20
123.508143
11
120.181212
21
123.570260
0
LINE
8
Layer 1
10
120.181212
20
123.570260
11
120.070053
21
123.612875
0
LINE
8
Layer 1
10
120.070053
20
123.612875
11
119.955282
21
123.618587
0
LINE
8
Layer 1
10
119.955282
20
123.618587
11
119.879717
21
123.621218
0
LINE
8
Layer 1
10
119.879717
20
123.621218
11
119.847826
21
123.602794
0
LINE
8
Layer 1
10
119.847826
20
123.602794
11
119.810813
21
123.597508
0
LINE
8
Layer 1
10
119.810813
20
123.597508
11
119.745856
21
123.542370
0
LINE
8
Layer 1
10
119.745856
20
123.542370
11
119.675817
21
123.483186
0
LINE
8
Layer 1
10
119.675817
20
123.483186
11
119.609972
21
123.367610
0
LINE
8
Layer 1
10
119.609972
20
123.367610
11
119.571381
21
123.280143
0
LINE
8
Layer 1
10
119.571381
20
123.280143
11
119.550130
21
123.113914
0
LINE
8
Layer 1
10
119.550130
20
123.113914
11
119.542013
21
123.019700
0
LINE
8
Layer 1
10
119.542013
20
123.019700
11
119.595610
21
122.726000
0
LINE
8
Layer 1
10
119.595610
20
122.726000
11
119.715258
21
122.314475
0
LINE
8
Layer 1
10
119.715258
20
122.314475
11
120.029089
21
121.143805
0
LINE
8
Layer 1
10
120.029089
20
121.143805
11
120.989093
21
116.907775
0
LINE
8
Layer 1
10
120.989093
20
116.907775
11
121.480224
21
113.609163
0
LINE
8
Layer 1
10
121.480224
20
113.609163
11
121.772744
21
110.290038
0
LINE
8
Layer 1
10
121.772744
20
110.290038
11
121.866133
21
106.959356
0
LINE
8
Layer 1
10
121.866133
20
106.959356
11
121.759872
21
103.626075
0
LINE
8
Layer 1
10
121.759872
20
103.626075
11
121.438997
21
100.248153
0
LINE
8
Layer 1
10
121.438997
20
100.248153
11
120.915598
21
96.898749
0
LINE
8
Layer 1
10
120.915598
20
96.898749
11
120.191379
21
93.586959
0
LINE
8
Layer 1
10
120.191379
20
93.586959
11
119.268042
21
90.321875
0
LINE
8
Layer 1
10
119.268042
20
90.321875
11
117.743092
21
86.070205
0
LINE
8
Layer 1
10
117.743092
20
86.070205
11
117.062844
21
84.492245
0
LINE
8
Layer 1
10
117.062844
20
84.492245
11
116.966626
21
84.193866
0
LINE
8
Layer 1
10
116.966626
20
84.193866
11
116.953429
21
84.095283
0
LINE
8
Layer 1
10
116.953429
20
84.095283
11
116.936778
21
83.916919
0
LINE
8
Layer 1
10
116.936778
20
83.916919
11
116.947362
21
83.821830
0
LINE
8
Layer 1
10
116.947362
20
83.821830
11
116.974032
21
83.691559
0
LINE
8
Layer 1
10
116.974032
20
83.691559
11
117.013074
21
83.619403
0
LINE
8
Layer 1
10
117.013074
20
83.619403
11
117.046182
21
83.558364
0
LINE
8
Layer 1
10
117.046182
20
83.558364
11
117.077297
21
83.544868
0
LINE
8
Layer 1
10
117.077297
20
83.544868
11
117.101641
21
83.516327
0
LINE
8
Layer 1
10
117.101641
20
83.516327
11
117.154182
21
83.511394
0
LINE
8
Layer 1
10
117.154182
20
83.511394
11
117.241589
21
83.502123
0
LINE
8
Layer 1
10
117.241589
20
83.502123
11
117.334280
21
83.529327
0
LINE
8
Layer 1
10
117.334280
20
83.529327
11
117.429496
21
83.579858
0
LINE
8
Layer 1
10
117.429496
20
83.579858
11
117.527796
21
83.662363
0
LINE
8
Layer 1
10
117.527796
20
83.662363
11
117.620882
21
83.761333
0
LINE
8
Layer 1
10
117.620882
20
83.761333
11
117.713950
21
83.895194
0
LINE
8
Layer 1
10
117.713950
20
83.895194
11
117.768828
21
83.973149
0
LINE
8
Layer 1
10
117.768828
20
83.973149
11
119.999488
21
88.145779
0
LINE
8
Layer 1
10
119.999488
20
88.145779
11
122.117528
21
92.470719
0
LINE
8
Layer 1
10
122.117528
20
92.470719
11
124.068558
21
96.424369
0
LINE
8
Layer 1
10
124.068558
20
96.424369
11
126.326168
21
100.211329
0
LINE
8
Layer 1
10
126.326168
20
100.211329
11
127.855614
21
102.267182
0
LINE
8
Layer 1
10
127.855614
20
102.267182
11
129.651788
21
104.094609
0
LINE
8
Layer 1
10
129.651788
20
104.094609
11
130.664872
21
104.839053
0
LINE
8
Layer 1
10
130.664872
20
104.839053
11
131.804968
21
105.368879
0
LINE
8
Layer 1
10
131.804968
20
105.368879
11
132.902600
21
105.513639
0
LINE
8
Layer 1
10
132.902600
20
105.513639
11
133.851919
21
105.215801
0
LINE
8
Layer 1
10
133.851919
20
105.215801
11
134.616786
21
104.479064
0
LINE
8
Layer 1
10
134.616786
20
104.479064
11
135.161058
21
103.307129
0
LINE
8
Layer 1
10
135.161058
20
103.307129
11
135.394160
21
102.119162
0
LINE
8
Layer 1
10
135.394160
20
102.119162
11
135.409594
21
100.908639
0
LINE
8
Layer 1
10
135.409594
20
100.908639
11
135.180102
21
99.023429
0
LINE
8
Layer 1
10
135.180102
20
99.023429
11
134.462601
21
96.715259
0
LINE
8
Layer 1
10
134.462601
20
96.715259
11
132.800551
21
92.740089
0
LINE
8
Layer 1
10
132.800551
20
92.740089
11
130.803441
21
88.566469
0
LINE
8
Layer 1
10
130.803441
20
88.566469
11
131.007064
21
92.111399
0
LINE
8
Layer 1
10
131.007064
20
92.111399
11
131.034395
21
93.571929
0
LINE
8
Layer 1
10
131.034395
20
93.571929
11
130.996743
21
95.039389
0
LINE
8
Layer 1
10
130.996743
20
95.039389
11
130.991785
21
95.188498
0
LINE
8
Layer 1
10
130.991785
20
95.188498
11
132.253085
21
98.447368
0
LINE
8
Layer 1
10
132.253085
20
98.447368
11
132.423739
21
98.906729
0
LINE
8
Layer 1
10
132.423739
20
98.906729
11
132.545856
21
99.625879
0
LINE
8
Layer 1
10
132.545856
20
99.625879
11
132.422350
21
100.088620
0
LINE
8
Layer 1
10
132.422350
20
100.088620
11
132.169022
21
100.273319
0
LINE
8
Layer 1
10
132.169022
20
100.273319
11
131.548067
21
100.169741
0
LINE
8
Layer 1
10
131.548067
20
100.169741
11
130.563712
21
99.647890
0
LINE
8
Layer 1
10
130.563712
20
99.647890
11
130.207308
21
99.385122
0
LINE
8
Layer 1
10
130.207308
20
99.385122
11
130.189996
21
99.368056
0
LINE
8
Layer 1
10
130.189996
20
99.368056
11
128.639869
21
97.854558
0
LINE
8
Layer 1
10
128.639869
20
97.854558
11
127.589066
21
96.532782
0
LINE
8
Layer 1
10
127.589066
20
96.532782
11
126.405686
21
94.775456
0
LINE
8
Layer 1
10
126.405686
20
94.775456
11
125.136213
21
92.638376
0
LINE
8
Layer 1
10
125.136213
20
92.638376
11
123.900716
21
90.318116
0
LINE
8
Layer 1
10
123.900716
20
90.318116
11
121.693627
21
86.151327
0
LINE
8
Layer 1
10
121.693627
20
86.151327
11
119.380796
21
82.116726
0
LINE
8
Layer 1
10
119.380796
20
82.116726
11
116.935916
21
78.212690
0
LINE
8
Layer 1
10
116.935916
20
78.212690
11
114.378656
21
74.411036
0
LINE
8
Layer 1
10
114.378656
20
74.411036
11
114.280347
21
74.276264
0
LINE
8
Layer 1
10
114.280347
20
74.276264
11
114.469963
21
74.223006
0
LINE
8
Layer 1
10
114.469963
20
74.223006
11
119.366203
21
73.213656
0
LINE
8
Layer 1
10
119.366203
20
73.213656
11
120.290229
21
74.701526
0
LINE
8
Layer 1
10
120.290229
20
74.701526
11
122.846373
21
78.959267
0
LINE
8
Layer 1
10
122.846373
20
78.959267
11
125.452369
21
83.598466
0
LINE
8
Layer 1
10
125.452369
20
83.598466
11
124.521894
21
79.329284
0
LINE
8
Layer 1
10
124.521894
20
79.329284
11
123.206129
21
75.162696
0
LINE
8
Layer 1
10
123.206129
20
75.162696
11
122.323787
21
73.763306
0
LINE
8
Layer 1
10
122.323787
20
73.763306
11
121.785917
21
72.907950
0
LINE
8
Layer 1
10
121.785917
20
72.907950
11
123.243087
21
72.784822
0
LINE
8
Layer 1
10
123.243087
20
72.784822
11
124.265447
21
75.343992
0
LINE
8
Layer 1
10
124.265447
20
75.343992
11
125.159640
21
78.089166
0
LINE
8
Layer 1
10
125.159640
20
78.089166
11
125.893896
21
80.878910
0
LINE
8
Layer 1
10
125.893896
20
80.878910
11
126.466589
21
83.706245
0
LINE
8
Layer 1
10
126.466589
20
83.706245
11
126.876097
21
86.564192
0
LINE
8
Layer 1
10
126.876097
20
86.564192
11
127.035434
21
87.977672
0
LINE
8
Layer 1
10
127.035434
20
87.977672
11
127.158381
21
89.991172
0
LINE
8
Layer 1
10
127.158381
20
89.991172
11
127.223611
21
92.433432
0
LINE
8
Layer 1
10
127.223611
20
92.433432
11
127.220185
21
92.456927
0
LINE
8
Layer 1
10
127.220185
20
92.456927
11
127.220535
21
92.460314
0
LINE
8
Layer 1
10
127.220535
20
92.460314
11
127.186301
21
93.998514
0
LINE
8
Layer 1
10
127.186301
20
93.998514
11
128.421880
21
95.692911
0
LINE
8
Layer 1
10
128.421880
20
95.692911
11
129.859841
21
97.219314
0
LINE
8
Layer 1
10
129.859841
20
97.219314
11
129.955656
21
94.898444
0
LINE
8
Layer 1
10
129.955656
20
94.898444
11
129.957456
21
94.824586
0
LINE
8
Layer 1
10
129.957456
20
94.824586
11
129.978298
21
94.283180
0
LINE
8
Layer 1
10
129.978298
20
94.283180
11
129.957092
21
91.404810
0
LINE
8
Layer 1
10
129.957092
20
91.404810
11
129.789782
21
88.608270
0
LINE
8
Layer 1
10
129.789782
20
88.608270
11
129.474935
21
85.782800
0
LINE
8
Layer 1
10
129.474935
20
85.782800
11
129.463646
21
85.712688
0
LINE
8
Layer 1
10
129.463646
20
85.712688
11
128.994664
21
82.879793
0
LINE
8
Layer 1
10
128.994664
20
82.879793
11
128.364900
21
80.080657
0
LINE
8
Layer 1
10
128.364900
20
80.080657
11
127.576097
21
77.322114
0
LINE
8
Layer 1
10
127.576097
20
77.322114
11
126.630000
21
74.611000
0
LINE
8
Layer 1
10
126.630000
20
74.611000
11
124.714080
21
72.704490
0
LINE
8
Layer 1
10
124.714080
20
72.704490
11
126.012760
21
72.669777
0
LINE
8
Layer 1
10
126.012760
20
72.669777
11
127.139750
21
73.815657
0
LINE
8
Layer 1
10
127.139750
20
73.815657
11
127.935258
21
74.720291
0
LINE
8
Layer 1
10
127.935258
20
74.720291
11
129.904156
21
77.149586
0
LINE
8
Layer 1
10
129.904156
20
77.149586
11
131.868166
21
79.987927
0
LINE
8
Layer 1
10
131.868166
20
79.987927
11
133.820839
21
83.345825
0
LINE
8
Layer 1
10
133.820839
20
83.345825
11
135.755728
21
87.333791
0
LINE
8
Layer 1
10
135.755728
20
87.333791
11
137.783115
21
92.847074
0
LINE
8
Layer 1
10
137.783115
20
92.847074
11
139.249278
21
98.535391
0
LINE
8
Layer 1
10
139.249278
20
98.535391
11
139.746804
21
101.449452
0
LINE
8
Layer 1
10
139.746804
20
101.449452
11
140.090712
21
104.383568
0
LINE
8
Layer 1
10
140.090712
20
104.383568
11
140.280450
21
107.331670
0
LINE
8
Layer 1
10
140.280450
20
107.331670
11
140.315468
21
110.287691
0
LINE
8
Layer 1
10
140.315468
20
110.287691
11
140.201593
21
113.204017
0
LINE
8
Layer 1
10
140.201593
20
113.204017
11
139.919603
21
116.106465
0
LINE
8
Layer 1
10
139.919603
20
116.106465
11
139.470416
21
118.987776
0
LINE
8
Layer 1
10
139.470416
20
118.987776
11
138.854948
21
121.840691
0
LINE
8
Layer 1
10
138.854948
20
121.840691
11
138.119264
21
124.567579
0
LINE
8
Layer 1
10
138.119264
20
124.567579
11
137.224777
21
127.243992
0
LINE
8
Layer 1
10
137.224777
20
127.243992
11
136.174030
21
129.863004
0
LINE
8
Layer 1
10
136.174030
20
129.863004
11
134.969568
21
132.417691
0
LINE
8
Layer 1
10
134.969568
20
132.417691
11
135.520671
21
134.748051
0
LINE
8
Layer 1
10
135.520671
20
134.748051
11
135.766563
21
137.620091
0
LINE
8
Layer 1
10
135.766563
20
137.620091
11
137.334058
21
134.772349
0
LINE
8
Layer 1
10
137.334058
20
134.772349
11
138.730445
21
131.783339
0
LINE
8
Layer 1
10
138.730445
20
131.783339
11
139.947590
21
128.668980
0
LINE
8
Layer 1
10
139.947590
20
128.668980
11
140.977357
21
125.445189
0
LINE
8
Layer 1
10
140.977357
20
125.445189
11
141.811611
21
122.127887
0
LINE
8
Layer 1
10
141.811611
20
122.127887
11
142.442219
21
118.732990
0
LINE
8
Layer 1
10
142.442219
20
118.732990
11
142.861044
21
115.276419
0
LINE
8
Layer 1
10
142.861044
20
115.276419
11
143.059953
21
111.774091
0
LINE
8
Layer 1
10
143.059953
20
111.774091
11
143.076675
21
111.619910
0
LINE
8
Layer 1
10
143.076675
20
111.619910
11
143.097257
21
111.430717
0
LINE
8
Layer 1
10
143.097257
20
111.430717
11
143.181492
21
111.133089
0
LINE
8
Layer 1
10
143.181492
20
111.133089
11
143.359008
21
110.852029
0
LINE
8
Layer 1
10
143.359008
20
110.852029
11
143.588264
21
110.786588
0
LINE
8
Layer 1
10
143.588264
20
110.786588
11
143.928554
21
111.174963
0
LINE
8
Layer 1
10
143.928554
20
111.174963
11
144.082217
21
111.947198
0
LINE
8
Layer 1
10
144.082217
20
111.947198
11
144.093063
21
112.030735
0
LINE
8
Layer 1
10
144.093063
20
112.030735
11
143.997100
21
118.704653
0
LINE
8
Layer 1
10
143.997100
20
118.704653
11
143.329290
21
125.333422
0
LINE
8
Layer 1
10
143.329290
20
125.333422
11
142.094924
21
131.880398
0
LINE
8
Layer 1
10
142.094924
20
131.880398
11
140.299293
21
138.308935
0
LINE
8
Layer 1
10
140.299293
20
138.308935
11
137.932253
21
144.649420
0
LINE
8
Layer 1
10
137.932253
20
144.649420
11
135.041004
21
150.755240
0
LINE
8
Layer 1
10
135.041004
20
150.755240
11
131.642599
21
156.594008
0
LINE
8
Layer 1
10
131.642599
20
156.594008
11
127.754093
21
162.133335
0
LINE
8
Layer 1
10
127.754093
20
162.133335
11
127.658936
21
162.235782
0
LINE
8
Layer 1
10
127.658936
20
162.235782
11
127.487387
21
162.420191
0
LINE
8
Layer 1
10
127.487387
20
162.420191
11
127.356947
21
162.517101
0
LINE
8
Layer 1
10
127.356947
20
162.517101
11
127.140034
21
162.646113
0
LINE
8
Layer 1
10
127.140034
20
162.646113
11
127.061077
21
162.675311
0
LINE
8
Layer 1
10
127.061077
20
162.675311
11
126.792904
21
162.722592
0
LINE
8
Layer 1
10
126.792904
20
162.722592
11
126.618731
21
162.701259
0
LINE
8
Layer 1
10
126.618731
20
162.701259
11
126.414338
21
162.321952
0
LINE
8
Layer 1
10
126.414338
20
162.321952
11
126.576697
21
161.710013
0
LINE
8
Layer 1
10
126.576697
20
161.710013
11
126.611266
21
161.643609
0
LINE
8
Layer 1
10
126.611266
20
161.643609
11
126.702864
21
161.458624
0
LINE
8
Layer 1
10
126.702864
20
161.458624
11
128.478864
21
158.616026
0
LINE
8
Layer 1
10
128.478864
20
158.616026
11
130.293187
21
155.177660
0
LINE
8
Layer 1
10
130.293187
20
155.177660
11
131.950913
21
151.306727
0
LINE
8
Layer 1
10
131.950913
20
151.306727
11
133.257124
21
147.166424
0
LINE
8
Layer 1
10
133.257124
20
147.166424
11
134.028640
21
143.523444
0
LINE
8
Layer 1
10
134.028640
20
143.523444
11
134.398162
21
140.243084
0
LINE
8
Layer 1
10
134.398162
20
140.243084
11
134.407498
21
140.131276
0
LINE
8
Layer 1
10
134.407498
20
140.131276
11
134.455809
21
138.061234
0
LINE
8
Layer 1
10
134.455809
20
138.061234
11
134.334688
21
136.229246
0
LINE
8
Layer 1
10
134.334688
20
136.229246
11
134.068705
21
134.643385
0
LINE
8
Layer 1
10
134.068705
20
134.643385
11
133.682430
21
133.311726
0
LINE
8
Layer 1
10
133.682430
20
133.311726
11
132.976449
21
131.939296
0
LINE
8
Layer 1
10
132.976449
20
131.939296
11
132.309972
21
131.239208
0
LINE
8
Layer 1
10
132.309972
20
131.239208
11
131.562428
21
130.890483
0
LINE
8
Layer 1
10
131.562428
20
130.890483
11
130.752650
21
130.885140
0
LINE
8
Layer 1
10
130.752650
20
130.885140
11
129.899469
21
131.215199
0
LINE
8
Layer 1
10
129.899469
20
131.215199
11
128.989733
21
131.870354
0
LINE
8
Layer 1
10
128.989733
20
131.870354
11
128.189279
21
132.655289
0
LINE
8
Layer 1
10
128.189279
20
132.655289
11
126.560349
21
134.789589
0
LINE
8
Layer 1
10
126.560349
20
134.789589
11
125.004839
21
137.243079
0
LINE
8
Layer 1
10
125.004839
20
137.243079
11
123.576299
21
139.674259
0
LINE
8
Layer 1
10
123.576299
20
139.674259
11
117.982619
21
149.246009
0
LINE
8
Layer 1
10
117.982619
20
149.246009
11
121.523420
21
146.747373
0
LINE
8
Layer 1
10
121.523420
20
146.747373
11
124.822919
21
143.937789
0
LINE
8
Layer 1
10
124.822919
20
143.937789
11
125.017858
21
143.571747
0
LINE
8
Layer 1
10
125.017858
20
143.571747
11
126.221718
21
141.437347
0
LINE
8
Layer 1
10
126.221718
20
141.437347
11
128.154238
21
138.204967
0
LINE
8
Layer 1
10
128.154238
20
138.204967
11
129.406898
21
136.440517
0
LINE
8
Layer 1
10
129.406898
20
136.440517
11
129.860102
21
136.173337
0
LINE
8
Layer 1
10
129.860102
20
136.173337
11
130.211440
21
136.361890
0
LINE
8
Layer 1
10
130.211440
20
136.361890
11
130.608604
21
137.386362
0
LINE
8
Layer 1
10
130.608604
20
137.386362
11
130.800042
21
138.468320
0
LINE
8
Layer 1
10
130.800042
20
138.468320
11
130.806378
21
138.547955
0
LINE
8
Layer 1
10
130.806378
20
138.547955
11
130.877766
21
140.259882
0
LINE
8
Layer 1
10
130.877766
20
140.259882
11
130.741956
21
142.292985
0
LINE
8
Layer 1
10
130.741956
20
142.292985
11
130.382522
21
144.613052
0
LINE
8
Layer 1
10
130.382522
20
144.613052
11
129.783038
21
147.185875
0
LINE
8
Layer 1
10
129.783038
20
147.185875
11
129.630604
21
147.704599
0
LINE
8
Layer 1
10
129.630604
20
147.704599
11
128.581958
21
150.773936
0
LINE
8
Layer 1
10
128.581958
20
150.773936
11
127.126248
21
154.045622
0
LINE
8
Layer 1
10
127.126248
20
154.045622
11
125.162845
21
157.569922
0
LINE
8
Layer 1
10
125.162845
20
157.569922
11
122.591124
21
161.397099
0
LINE
8
Layer 1
10
122.591124
20
161.397099
11
119.815916
21
164.786691
0
LINE
8
Layer 1
10
119.815916
20
164.786691
11
116.781178
21
167.936168
0
LINE
8
Layer 1
10
116.781178
20
167.936168
11
113.502387
21
170.830710
0
LINE
8
Layer 1
10
113.502387
20
170.830710
11
109.995024
21
173.455499
0
LINE
8
Layer 1
10
109.995024
20
173.455499
11
107.113844
21
175.294889
0
LINE
8
Layer 1
10
107.113844
20
175.294889
11
103.247318
21
173.022280
0
LINE
8
Layer 1
10
103.247318
20
173.022280
11
99.566988
21
170.470085
0
LINE
8
Layer 1
10
99.566988
20
170.470085
11
96.087960
21
167.649642
0
LINE
8
Layer 1
10
96.087960
20
167.649642
11
92.825344
21
164.572289
0
LINE
8
Layer 1
10
92.825344
20
164.572289
11
91.549634
21
163.231649
0
LINE
8
Layer 1
10
91.549634
20
163.231649
11
92.922044
21
163.068172
0
LINE
8
Layer 1
10
92.922044
20
163.068172
11
96.856894
21
162.433588
0
LINE
8
Layer 1
10
96.856894
20
162.433588
11
100.794414
21
161.601612
0
LINE
8
Layer 1
10
100.794414
20
161.601612
11
101.072259
21
159.468675
0
LINE
8
Layer 1
10
101.072259
20
159.468675
11
101.578709
21
157.378192
0
LINE
8
Layer 1
10
101.578709
20
157.378192
11
96.137862
21
158.534157
0
LINE
8
Layer 1
10
96.137862
20
158.534157
11
90.644800
21
159.409000
0
LINE
8
Layer 1
10
90.644800
20
159.409000
11
90.644800
21
159.409000
0
LINE
8
Layer 1
10
119.041000
20
154.431000
11
119.049244
21
154.425737
0
LINE
8
Layer 1
10
119.049244
20
154.425737
11
121.589982
21
152.777868
0
LINE
8
Layer 1
10
121.589982
20
152.777868
11
124.022065
21
150.978306
0
LINE
8
Layer 1
10
124.022065
20
150.978306
11
126.338717
21
149.032395
0
LINE
8
Layer 1
10
126.338717
20
149.032395
11
128.533164
21
146.945477
0
LINE
8
Layer 1
10
128.533164
20
146.945477
11
129.217359
21
143.883171
0
LINE
8
Layer 1
10
129.217359
20
143.883171
11
129.510829
21
140.759117
0
LINE
8
Layer 1
10
129.510829
20
140.759117
11
127.552672
21
143.000539
0
LINE
8
Layer 1
10
127.552672
20
143.000539
11
125.447359
21
145.104347
0
LINE
8
Layer 1
10
125.447359
20
145.104347
11
123.290067
21
147.012262
0
LINE
8
Layer 1
10
123.290067
20
147.012262
11
121.022084
21
148.782790
0
LINE
8
Layer 1
10
121.022084
20
148.782790
11
118.649953
21
150.411136
0
LINE
8
Layer 1
10
118.649953
20
150.411136
11
116.180219
21
151.892507
0
LINE
8
Layer 1
10
116.180219
20
151.892507
11
112.863719
21
153.613657
0
LINE
8
Layer 1
10
112.863719
20
153.613657
11
110.581959
21
154.608092
0
LINE
8
Layer 1
10
110.581959
20
154.608092
11
110.283216
21
154.678957
0
LINE
8
Layer 1
10
110.283216
20
154.678957
11
109.619102
21
154.925670
0
LINE
8
Layer 1
10
109.619102
20
154.925670
11
109.025193
21
157.040171
0
LINE
8
Layer 1
10
109.025193
20
157.040171
11
108.743308
21
159.218330
0
LINE
8
Layer 1
10
108.743308
20
159.218330
11
110.622628
21
158.527896
0
LINE
8
Layer 1
10
110.622628
20
158.527896
11
110.623474
21
158.527363
0
LINE
8
Layer 1
10
110.623474
20
158.527363
11
110.839566
21
158.443760
0
LINE
8
Layer 1
10
110.839566
20
158.443760
11
110.843800
21
158.441593
0
LINE
8
Layer 1
10
110.843800
20
158.441593
11
113.209290
21
157.496299
0
LINE
8
Layer 1
10
113.209290
20
157.496299
11
114.734820
21
156.777135
0
LINE
8
Layer 1
10
114.734820
20
156.777135
11
116.888410
21
155.665745
0
LINE
8
Layer 1
10
116.888410
20
155.665745
11
119.025430
21
154.441025
0
LINE
8
Layer 1
10
119.025430
20
154.441025
11
119.041000
21
154.431000
0
LINE
8
Layer 1
10
137.824000
20
83.841900
11
137.901944
21
84.070613
0
LINE
8
Layer 1
10
137.901944
20
84.070613
11
137.930465
21
84.219499
0
LINE
8
Layer 1
10
137.930465
20
84.219499
11
137.957147
21
84.453159
0
LINE
8
Layer 1
10
137.957147
20
84.453159
11
137.954059
21
84.527646
0
LINE
8
Layer 1
10
137.954059
20
84.527646
11
137.907984
21
84.758458
0
LINE
8
Layer 1
10
137.907984
20
84.758458
11
137.842141
21
84.881374
0
LINE
8
Layer 1
10
137.842141
20
84.881374
11
137.518512
21
84.844511
0
LINE
8
Layer 1
10
137.518512
20
84.844511
11
137.140385
21
84.404757
0
LINE
8
Layer 1
10
137.140385
20
84.404757
11
137.105254
21
84.343828
0
LINE
8
Layer 1
10
137.105254
20
84.343828
11
137.004419
21
84.178813
0
LINE
8
Layer 1
10
137.004419
20
84.178813
11
135.385932
21
81.138700
0
LINE
8
Layer 1
10
135.385932
20
81.138700
11
133.574839
21
78.213526
0
LINE
8
Layer 1
10
133.574839
20
78.213526
11
131.577215
21
75.412421
0
LINE
8
Layer 1
10
131.577215
20
75.412421
11
129.399129
21
72.744513
0
LINE
8
Layer 1
10
129.399129
20
72.744513
11
132.011719
21
72.966884
0
LINE
8
Layer 1
10
132.011719
20
72.966884
11
135.106627
21
78.229530
0
LINE
8
Layer 1
10
135.106627
20
78.229530
11
137.779489
21
83.718584
0
LINE
8
Layer 1
10
137.779489
20
83.718584
11
137.824000
21
83.841900
0
LINE
8
Layer 1
10
137.824000
20
83.841900
11
137.824000
21
83.841900
0
LINE
8
Layer 1
10
83.922400
20
152.794000
11
83.846110
21
152.672594
0
LINE
8
Layer 1
10
83.846110
20
152.672594
11
83.806057
21
152.604161
0
LINE
8
Layer 1
10
83.806057
20
152.604161
11
83.750084
21
152.506986
0
LINE
8
Layer 1
10
83.750084
20
152.506986
11
86.678688
21
151.555519
0
LINE
8
Layer 1
10
86.678688
20
151.555519
11
89.527312
21
150.413767
0
LINE
8
Layer 1
10
89.527312
20
150.413767
11
92.287163
21
149.087099
0
LINE
8
Layer 1
10
92.287163
20
149.087099
11
94.949445
21
147.580886
0
LINE
8
Layer 1
10
94.949445
20
147.580886
11
97.505365
21
145.900500
0
LINE
8
Layer 1
10
97.505365
20
145.900500
11
99.946127
21
144.051309
0
LINE
8
Layer 1
10
99.946127
20
144.051309
11
102.262937
21
142.038686
0
LINE
8
Layer 1
10
102.262937
20
142.038686
11
104.447000
21
139.868000
0
LINE
8
Layer 1
10
104.447000
20
139.868000
11
107.218460
21
136.634270
0
LINE
8
Layer 1
10
107.218460
20
136.634270
11
108.540430
21
134.891960
0
LINE
8
Layer 1
10
108.540430
20
134.891960
11
110.354690
21
132.153582
0
LINE
8
Layer 1
10
110.354690
20
132.153582
11
111.987000
21
129.303000
0
LINE
8
Layer 1
10
111.987000
20
129.303000
11
113.443101
21
126.321666
0
LINE
8
Layer 1
10
113.443101
20
126.321666
11
114.693990
21
123.252624
0
LINE
8
Layer 1
10
114.693990
20
123.252624
11
115.735766
21
120.106445
0
LINE
8
Layer 1
10
115.735766
20
120.106445
11
116.564530
21
116.893700
0
LINE
8
Layer 1
10
116.564530
20
116.893700
11
117.183127
21
113.594710
0
LINE
8
Layer 1
10
117.183127
20
113.594710
11
117.198536
21
113.510292
0
LINE
8
Layer 1
10
117.198536
20
113.510292
11
117.662362
21
108.598518
0
LINE
8
Layer 1
10
117.662362
20
108.598518
11
117.661148
21
103.697736
0
LINE
8
Layer 1
10
117.661148
20
103.697736
11
117.202430
21
98.839501
0
LINE
8
Layer 1
10
117.202430
20
98.839501
11
116.293745
21
94.055371
0
LINE
8
Layer 1
10
116.293745
20
94.055371
11
114.942628
21
89.376899
0
LINE
8
Layer 1
10
114.942628
20
89.376899
11
113.156616
21
84.835641
0
LINE
8
Layer 1
10
113.156616
20
84.835641
11
110.943243
21
80.463154
0
LINE
8
Layer 1
10
110.943243
20
80.463154
11
108.310046
21
76.290992
0
LINE
8
Layer 1
10
108.310046
20
76.290992
11
108.573571
21
76.181188
0
LINE
8
Layer 1
10
108.573571
20
76.181188
11
109.823621
21
75.699266
0
LINE
8
Layer 1
10
109.823621
20
75.699266
11
111.841919
21
78.844619
0
LINE
8
Layer 1
10
111.841919
20
78.844619
11
113.637098
21
82.117413
0
LINE
8
Layer 1
10
113.637098
20
82.117413
11
115.203184
21
85.505808
0
LINE
8
Layer 1
10
115.203184
20
85.505808
11
116.534201
21
88.997966
0
LINE
8
Layer 1
10
116.534201
20
88.997966
11
117.578659
21
92.422709
0
LINE
8
Layer 1
10
117.578659
20
92.422709
11
118.389092
21
95.897936
0
LINE
8
Layer 1
10
118.389092
20
95.897936
11
118.964755
21
99.411745
0
LINE
8
Layer 1
10
118.964755
20
99.411745
11
119.304904
21
102.952239
0
LINE
8
Layer 1
10
119.304904
20
102.952239
11
119.408793
21
106.507517
0
LINE
8
Layer 1
10
119.408793
20
106.507517
11
119.275679
21
110.065681
0
LINE
8
Layer 1
10
119.275679
20
110.065681
11
118.904817
21
113.614830
0
LINE
8
Layer 1
10
118.904817
20
113.614830
11
118.295461
21
117.143066
0
LINE
8
Layer 1
10
118.295461
20
117.143066
11
116.953996
21
122.115120
0
LINE
8
Layer 1
10
116.953996
20
122.115120
11
115.130941
21
126.918012
0
LINE
8
Layer 1
10
115.130941
20
126.918012
11
112.841531
21
131.516915
0
LINE
8
Layer 1
10
112.841531
20
131.516915
11
110.101000
21
135.877000
0
LINE
8
Layer 1
10
110.101000
20
135.877000
11
108.073742
21
138.545178
0
LINE
8
Layer 1
10
108.073742
20
138.545178
11
105.889320
21
141.086290
0
LINE
8
Layer 1
10
105.889320
20
141.086290
11
103.675178
21
143.310136
0
LINE
8
Layer 1
10
103.675178
20
143.310136
11
101.297662
21
145.396166
0
LINE
8
Layer 1
10
101.297662
20
145.396166
11
98.779962
21
147.333915
0
LINE
8
Layer 1
10
98.779962
20
147.333915
11
96.145271
21
149.112919
0
LINE
8
Layer 1
10
96.145271
20
149.112919
11
93.416780
21
150.722713
0
LINE
8
Layer 1
10
93.416780
20
150.722713
11
90.617680
21
152.152832
0
LINE
8
Layer 1
10
90.617680
20
152.152832
11
87.771163
21
153.392813
0
LINE
8
Layer 1
10
87.771163
20
153.392813
11
84.900420
21
154.432190
0
LINE
8
Layer 1
10
84.900420
20
154.432190
11
83.922400
21
152.794000
0
LINE
8
Layer 1
10
83.922400
20
152.794000
11
83.922400
21
152.794000
0
LINE
8
Layer 1
10
91.112900
20
132.467000
11
91.298675
21
132.476824
0
LINE
8
Layer 1
10
91.298675
20
132.476824
11
94.364901
21
132.764879
0
LINE
8
Layer 1
10
94.364901
20
132.764879
11
97.935434
21
132.882069
0
LINE
8
Layer 1
10
97.935434
20
132.882069
11
101.805012
21
132.740263
0
LINE
8
Layer 1
10
101.805012
20
132.740263
11
105.768375
21
132.251329
0
LINE
8
Layer 1
10
105.768375
20
132.251329
11
109.394105
21
131.475893
0
LINE
8
Layer 1
10
109.394105
20
131.475893
11
107.576035
21
134.224933
0
LINE
8
Layer 1
10
107.576035
20
134.224933
11
107.418885
21
134.439791
0
LINE
8
Layer 1
10
107.418885
20
134.439791
11
103.358883
21
134.499393
0
LINE
8
Layer 1
10
103.358883
20
134.499393
11
99.304357
21
134.342585
0
LINE
8
Layer 1
10
99.304357
20
134.342585
11
95.263949
21
133.969933
0
LINE
8
Layer 1
10
95.263949
20
133.969933
11
91.246300
21
133.382000
0
LINE
8
Layer 1
10
91.246300
20
133.382000
11
91.124465
21
133.347024
0
LINE
8
Layer 1
10
91.124465
20
133.347024
11
90.900005
21
133.282570
0
LINE
8
Layer 1
10
90.900005
20
133.282570
11
90.765385
21
133.225770
0
LINE
8
Layer 1
10
90.765385
20
133.225770
11
90.563495
21
133.121348
0
LINE
8
Layer 1
10
90.563495
20
133.121348
11
90.505496
21
133.078216
0
LINE
8
Layer 1
10
90.505496
20
133.078216
11
90.345434
21
132.914872
0
LINE
8
Layer 1
10
90.345434
20
132.914872
11
90.282529
21
132.792924
0
LINE
8
Layer 1
10
90.282529
20
132.792924
11
90.487520
21
132.542019
0
LINE
8
Layer 1
10
90.487520
20
132.542019
11
91.044932
21
132.463876
0
LINE
8
Layer 1
10
91.044932
20
132.463876
11
91.112900
21
132.467000
0
LINE
8
Layer 1
10
159.886000
20
84.712100
11
159.718978
21
84.984540
0
LINE
8
Layer 1
10
159.718978
20
84.984540
11
157.593709
21
82.997591
0
LINE
8
Layer 1
10
157.593709
20
82.997591
11
155.347864
21
81.152708
0
LINE
8
Layer 1
10
155.347864
20
81.152708
11
152.988544
21
79.455350
0
LINE
8
Layer 1
10
152.988544
20
79.455350
11
150.522848
21
77.910980
0
LINE
8
Layer 1
10
150.522848
20
77.910980
11
147.834108
21
76.460018
0
LINE
8
Layer 1
10
147.834108
20
76.460018
11
145.061703
21
75.183411
0
LINE
8
Layer 1
10
145.061703
20
75.183411
11
142.214095
21
74.084736
0
LINE
8
Layer 1
10
142.214095
20
74.084736
11
139.299748
21
73.167570
0
LINE
8
Layer 1
10
139.299748
20
73.167570
11
136.600802
21
72.513897
0
LINE
8
Layer 1
10
136.600802
20
72.513897
11
133.867228
21
72.024850
0
LINE
8
Layer 1
10
133.867228
20
72.024850
11
128.921578
21
71.543780
0
LINE
8
Layer 1
10
128.921578
20
71.543780
11
123.965127
21
71.562276
0
LINE
8
Layer 1
10
123.965127
20
71.562276
11
119.035576
21
72.078299
0
LINE
8
Layer 1
10
119.035576
20
72.078299
11
114.170628
21
73.089810
0
LINE
8
Layer 1
10
114.170628
20
73.089810
11
110.962251
21
74.050895
0
LINE
8
Layer 1
10
110.962251
20
74.050895
11
107.833514
21
75.215702
0
LINE
8
Layer 1
10
107.833514
20
75.215702
11
104.793658
21
76.578952
0
LINE
8
Layer 1
10
104.793658
20
76.578952
11
101.851925
21
78.135363
0
LINE
8
Layer 1
10
101.851925
20
78.135363
11
99.017554
21
79.879655
0
LINE
8
Layer 1
10
99.017554
20
79.879655
11
96.299788
21
81.806547
0
LINE
8
Layer 1
10
96.299788
20
81.806547
11
93.707865
21
83.910759
0
LINE
8
Layer 1
10
93.707865
20
83.910759
11
91.251028
21
86.187010
0
LINE
8
Layer 1
10
91.251028
20
86.187010
11
88.862012
21
88.699153
0
LINE
8
Layer 1
10
88.862012
20
88.699153
11
86.648915
21
91.362539
0
LINE
8
Layer 1
10
86.648915
20
91.362539
11
84.618883
21
94.167961
0
LINE
8
Layer 1
10
84.618883
20
94.167961
11
82.779058
21
97.106210
0
LINE
8
Layer 1
10
82.779058
20
97.106210
11
80.797878
21
100.771030
0
LINE
8
Layer 1
10
80.797878
20
100.771030
11
80.589350
21
100.604496
0
LINE
8
Layer 1
10
80.589350
20
100.604496
11
79.641581
21
99.809398
0
LINE
8
Layer 1
10
79.641581
20
99.809398
11
79.741691
21
99.604807
0
LINE
8
Layer 1
10
79.741691
20
99.604807
11
81.499311
21
96.330697
0
LINE
8
Layer 1
10
81.499311
20
96.330697
11
83.378994
21
93.293127
0
LINE
8
Layer 1
10
83.378994
20
93.293127
11
85.453649
21
90.390048
0
LINE
8
Layer 1
10
85.453649
20
90.390048
11
87.716107
21
87.630820
0
LINE
8
Layer 1
10
87.716107
20
87.630820
11
90.159200
21
85.024800
0
LINE
8
Layer 1
10
90.159200
20
85.024800
11
92.681977
21
82.652433
0
LINE
8
Layer 1
10
92.681977
20
82.652433
11
95.346270
21
80.457692
0
LINE
8
Layer 1
10
95.346270
20
80.457692
11
98.142483
21
78.446147
0
LINE
8
Layer 1
10
98.142483
20
78.446147
11
101.061017
21
76.623363
0
LINE
8
Layer 1
10
101.061017
20
76.623363
11
104.092274
21
74.994909
0
LINE
8
Layer 1
10
104.092274
20
74.994909
11
107.226655
21
73.566353
0
LINE
8
Layer 1
10
107.226655
20
73.566353
11
110.454563
21
72.343260
0
LINE
8
Layer 1
10
110.454563
20
72.343260
11
113.766400
21
71.331200
0
LINE
8
Layer 1
10
113.766400
20
71.331200
11
116.988593
21
70.569967
0
LINE
8
Layer 1
10
116.988593
20
70.569967
11
120.243148
21
70.022067
0
LINE
8
Layer 1
10
120.243148
20
70.022067
11
123.519590
21
69.687546
0
LINE
8
Layer 1
10
123.519590
20
69.687546
11
126.807442
21
69.566450
0
LINE
8
Layer 1
10
126.807442
20
69.566450
11
130.096225
21
69.658824
0
LINE
8
Layer 1
10
130.096225
20
69.658824
11
133.375464
21
69.964714
0
LINE
8
Layer 1
10
133.375464
20
69.964714
11
136.634681
21
70.484166
0
LINE
8
Layer 1
10
136.634681
20
70.484166
11
139.863400
21
71.217225
0
LINE
8
Layer 1
10
139.863400
20
71.217225
11
142.909018
21
72.145941
0
LINE
8
Layer 1
10
142.909018
20
72.145941
11
145.886413
21
73.265302
0
LINE
8
Layer 1
10
145.886413
20
73.265302
11
148.786651
21
74.571618
0
LINE
8
Layer 1
10
148.786651
20
74.571618
11
151.600800
21
76.061205
0
LINE
8
Layer 1
10
151.600800
20
76.061205
11
154.061242
21
77.588550
0
LINE
8
Layer 1
10
154.061242
20
77.588550
11
156.431444
21
79.248623
0
LINE
8
Layer 1
10
156.431444
20
79.248623
11
158.706046
21
81.037444
0
LINE
8
Layer 1
10
158.706046
20
81.037444
11
160.879690
21
82.951035
0
LINE
8
Layer 1
10
160.879690
20
82.951035
11
159.886000
21
84.712100
0
LINE
8
Layer 1
10
159.886000
20
84.712100
11
159.886000
21
84.712100
0
LINE
8
Layer 1
10
163.702000
20
76.991600
11
162.492920
21
79.766270
0
LINE
8
Layer 1
10
162.492920
20
79.766270
11
159.910740
21
77.626460
0
LINE
8
Layer 1
10
159.910740
20
77.626460
11
155.962700
21
74.850380
0
LINE
8
Layer 1
10
155.962700
20
74.850380
11
153.603553
21
73.452043
0
LINE
8
Layer 1
10
153.603553
20
73.452043
11
151.095080
21
72.126660
0
LINE
8
Layer 1
10
151.095080
20
72.126660
11
146.275073
21
70.031077
0
LINE
8
Layer 1
10
146.275073
20
70.031077
11
141.265110
21
68.442300
0
LINE
8
Layer 1
10
141.265110
20
68.442300
11
137.859330
21
67.658697
0
LINE
8
Layer 1
10
137.859330
20
67.658697
11
136.548050
21
67.437613
0
LINE
8
Layer 1
10
136.548050
20
67.437613
11
136.277193
21
67.345216
0
LINE
8
Layer 1
10
136.277193
20
67.345216
11
136.056840
21
67.186861
0
LINE
8
Layer 1
10
136.056840
20
67.186861
11
135.992189
21
67.106953
0
LINE
8
Layer 1
10
135.992189
20
67.106953
11
135.910420
21
66.982902
0
LINE
8
Layer 1
10
135.910420
20
66.982902
11
135.876929
21
66.884378
0
LINE
8
Layer 1
10
135.876929
20
66.884378
11
135.848989
21
66.801239
0
LINE
8
Layer 1
10
135.848989
20
66.801239
11
135.855336
21
66.753825
0
LINE
8
Layer 1
10
135.855336
20
66.753825
11
135.846980
21
66.704197
0
LINE
8
Layer 1
10
135.846980
20
66.704197
11
135.870935
21
66.636539
0
LINE
8
Layer 1
10
135.870935
20
66.636539
11
135.910305
21
66.523707
0
LINE
8
Layer 1
10
135.910305
20
66.523707
11
135.979316
21
66.430396
0
LINE
8
Layer 1
10
135.979316
20
66.430396
11
136.067285
21
66.349850
0
LINE
8
Layer 1
10
136.067285
20
66.349850
11
136.180927
21
66.288724
0
LINE
8
Layer 1
10
136.180927
20
66.288724
11
136.304506
21
66.245710
0
LINE
8
Layer 1
10
136.304506
20
66.245710
11
136.452568
21
66.226655
0
LINE
8
Layer 1
10
136.452568
20
66.226655
11
136.539865
21
66.215397
0
LINE
8
Layer 1
10
136.539865
20
66.215397
11
145.285675
21
66.553109
0
LINE
8
Layer 1
10
145.285675
20
66.553109
11
149.727600
21
66.553468
0
LINE
8
Layer 1
10
149.727600
20
66.553468
11
154.134295
21
65.995139
0
LINE
8
Layer 1
10
154.134295
20
65.995139
11
156.786813
21
65.256498
0
LINE
8
Layer 1
10
156.786813
20
65.256498
11
159.305005
21
64.142879
0
LINE
8
Layer 1
10
159.305005
20
64.142879
11
160.484491
21
63.381864
0
LINE
8
Layer 1
10
160.484491
20
63.381864
11
161.542415
21
62.459299
0
LINE
8
Layer 1
10
161.542415
20
62.459299
11
162.418527
21
61.268178
0
LINE
8
Layer 1
10
162.418527
20
61.268178
11
162.839354
21
59.999155
0
LINE
8
Layer 1
10
162.839354
20
59.999155
11
162.773774
21
58.703682
0
LINE
8
Layer 1
10
162.773774
20
58.703682
11
162.190665
21
57.433209
0
LINE
8
Layer 1
10
162.190665
20
57.433209
11
161.394446
21
56.505302
0
LINE
8
Layer 1
10
161.394446
20
56.505302
11
160.433555
21
55.749219
0
LINE
8
Layer 1
10
160.433555
20
55.749219
11
158.498996
21
54.863376
0
LINE
8
Layer 1
10
158.498996
20
54.863376
11
156.424000
21
54.392600
0
LINE
8
Layer 1
10
156.424000
20
54.392600
11
152.553660
21
53.957320
0
LINE
8
Layer 1
10
152.553660
20
53.957320
11
148.404620
21
53.645985
0
LINE
8
Layer 1
10
148.404620
20
53.645985
11
150.530770
21
55.140885
0
LINE
8
Layer 1
10
150.530770
20
55.140885
11
153.609020
21
57.664675
0
LINE
8
Layer 1
10
153.609020
20
57.664675
11
156.782550
21
58.109025
0
LINE
8
Layer 1
10
156.782550
20
58.109025
11
156.822752
21
58.115781
0
LINE
8
Layer 1
10
156.822752
20
58.115781
11
157.569314
21
58.513223
0
LINE
8
Layer 1
10
157.569314
20
58.513223
11
157.761099
21
58.840139
0
LINE
8
Layer 1
10
157.761099
20
58.840139
11
157.723125
21
59.217251
0
LINE
8
Layer 1
10
157.723125
20
59.217251
11
157.062430
21
60.052914
0
LINE
8
Layer 1
10
157.062430
20
60.052914
11
156.221725
21
60.707181
0
LINE
8
Layer 1
10
156.221725
20
60.707181
11
155.896598
21
60.904876
0
LINE
8
Layer 1
10
155.896598
20
60.904876
11
156.019174
21
60.833738
0
LINE
8
Layer 1
10
156.019174
20
60.833738
11
153.892133
21
61.825202
0
LINE
8
Layer 1
10
153.892133
20
61.825202
11
152.227160
21
62.335689
0
LINE
8
Layer 1
10
152.227160
20
62.335689
11
150.163524
21
62.736298
0
LINE
8
Layer 1
10
150.163524
20
62.736298
11
147.540724
21
62.982139
0
LINE
8
Layer 1
10
147.540724
20
62.982139
11
144.761214
21
63.022127
0
LINE
8
Layer 1
10
144.761214
20
63.022127
11
135.478269
21
62.954468
0
LINE
8
Layer 1
10
135.478269
20
62.954468
11
126.479214
21
63.185373
0
LINE
8
Layer 1
10
126.479214
20
63.185373
11
121.332199
21
63.474900
0
LINE
8
Layer 1
10
121.332199
20
63.474900
11
116.146573
21
63.915563
0
LINE
8
Layer 1
10
116.146573
20
63.915563
11
110.909593
21
64.553961
0
LINE
8
Layer 1
10
110.909593
20
64.553961
11
105.608514
21
65.436693
0
LINE
8
Layer 1
10
105.608514
20
65.436693
11
102.131495
21
66.171856
0
LINE
8
Layer 1
10
102.131495
20
66.171856
11
98.789564
21
67.058693
0
LINE
8
Layer 1
10
98.789564
20
67.058693
11
98.160990
21
68.871816
0
LINE
8
Layer 1
10
98.160990
20
68.871816
11
97.336954
21
70.604873
0
LINE
8
Layer 1
10
97.336954
20
70.604873
11
102.309977
21
69.237172
0
LINE
8
Layer 1
10
102.309977
20
69.237172
11
107.350054
21
68.142103
0
LINE
8
Layer 1
10
107.350054
20
68.142103
11
112.410302
21
67.261772
0
LINE
8
Layer 1
10
112.410302
20
67.261772
11
117.810854
21
66.579363
0
LINE
8
Layer 1
10
117.810854
20
66.579363
11
117.915400
21
66.584980
0
LINE
8
Layer 1
10
117.915400
20
66.584980
11
118.070622
21
66.593071
0
LINE
8
Layer 1
10
118.070622
20
66.593071
11
118.208437
21
66.627623
0
LINE
8
Layer 1
10
118.208437
20
66.627623
11
118.334988
21
66.674754
0
LINE
8
Layer 1
10
118.334988
20
66.674754
11
118.438792
21
66.744317
0
LINE
8
Layer 1
10
118.438792
20
66.744317
11
118.525610
21
66.822870
0
LINE
8
Layer 1
10
118.525610
20
66.822870
11
118.582779
21
66.921930
0
LINE
8
Layer 1
10
118.582779
20
66.921930
11
118.619338
21
66.987770
0
LINE
8
Layer 1
10
118.619338
20
66.987770
11
118.618150
21
67.024634
0
LINE
8
Layer 1
10
118.618150
20
67.024634
11
118.630678
21
67.059835
0
LINE
8
Layer 1
10
118.630678
20
67.059835
11
118.612658
21
67.142752
0
LINE
8
Layer 1
10
118.612658
20
67.142752
11
118.593933
21
67.232386
0
LINE
8
Layer 1
10
118.593933
20
67.232386
11
118.524867
21
67.344327
0
LINE
8
Layer 1
10
118.524867
20
67.344327
11
118.467294
21
67.419053
0
LINE
8
Layer 1
10
118.467294
20
67.419053
11
118.334754
21
67.514887
0
LINE
8
Layer 1
10
118.334754
20
67.514887
11
118.257445
21
67.565673
0
LINE
8
Layer 1
10
118.257445
20
67.565673
11
117.981768
21
67.654291
0
LINE
8
Layer 1
10
117.981768
20
67.654291
11
116.421708
21
67.978000
0
LINE
8
Layer 1
10
116.421708
20
67.978000
11
114.634448
21
68.389282
0
LINE
8
Layer 1
10
114.634448
20
68.389282
11
112.334918
21
69.020830
0
LINE
8
Layer 1
10
112.334918
20
69.020830
11
109.272769
21
70.053530
0
LINE
8
Layer 1
10
109.272769
20
70.053530
11
106.276355
21
71.256874
0
LINE
8
Layer 1
10
106.276355
20
71.256874
11
103.352798
21
72.627767
0
LINE
8
Layer 1
10
103.352798
20
72.627767
11
100.509218
21
74.163110
0
LINE
8
Layer 1
10
100.509218
20
74.163110
11
97.731601
21
75.902215
0
LINE
8
Layer 1
10
97.731601
20
75.902215
11
95.061713
21
77.797821
0
LINE
8
Layer 1
10
95.061713
20
77.797821
11
92.506153
21
79.844949
0
LINE
8
Layer 1
10
92.506153
20
79.844949
11
90.071518
21
82.038620
0
LINE
8
Layer 1
10
90.071518
20
82.038620
11
88.334658
21
83.781540
0
LINE
8
Layer 1
10
88.334658
20
83.781540
11
87.040878
21
85.176450
0
LINE
8
Layer 1
10
87.040878
20
85.176450
11
85.948328
21
86.429970
0
LINE
8
Layer 1
10
85.948328
20
86.429970
11
85.724904
21
86.636379
0
LINE
8
Layer 1
10
85.724904
20
86.636379
11
85.642526
21
86.688271
0
LINE
8
Layer 1
10
85.642526
20
86.688271
11
85.496075
21
86.779553
0
LINE
8
Layer 1
10
85.496075
20
86.779553
11
85.409788
21
86.811755
0
LINE
8
Layer 1
10
85.409788
20
86.811755
11
85.286237
21
86.845130
0
LINE
8
Layer 1
10
85.286237
20
86.845130
11
85.206572
21
86.841481
0
LINE
8
Layer 1
10
85.206572
20
86.841481
11
85.139253
21
86.838848
0
LINE
8
Layer 1
10
85.139253
20
86.838848
11
85.113156
21
86.816637
0
LINE
8
Layer 1
10
85.113156
20
86.816637
11
85.077523
21
86.807716
0
LINE
8
Layer 1
10
85.077523
20
86.807716
11
85.048765
21
86.762755
0
LINE
8
Layer 1
10
85.048765
20
86.762755
11
85.000189
21
86.688347
0
LINE
8
Layer 1
10
85.000189
20
86.688347
11
84.980433
21
86.593803
0
LINE
8
Layer 1
10
84.980433
20
86.593803
11
84.978974
21
86.486116
0
LINE
8
Layer 1
10
84.978974
20
86.486116
11
85.003668
21
86.361907
0
LINE
8
Layer 1
10
85.003668
20
86.361907
11
85.048014
21
86.237631
0
LINE
8
Layer 1
10
85.048014
20
86.237631
11
85.126085
21
86.101196
0
LINE
8
Layer 1
10
85.126085
20
86.101196
11
85.171475
21
86.021358
0
LINE
8
Layer 1
10
85.171475
20
86.021358
11
87.839749
21
82.307901
0
LINE
8
Layer 1
10
87.839749
20
82.307901
11
90.660475
21
78.607868
0
LINE
8
Layer 1
10
90.660475
20
78.607868
11
93.339727
21
74.998929
0
LINE
8
Layer 1
10
93.339727
20
74.998929
11
95.484725
21
71.566998
0
LINE
8
Layer 1
10
95.484725
20
71.566998
11
96.630015
21
69.159778
0
LINE
8
Layer 1
10
96.630015
20
69.159778
11
97.347804
21
66.932288
0
LINE
8
Layer 1
10
97.347804
20
66.932288
11
97.528039
21
65.696909
0
LINE
8
Layer 1
10
97.528039
20
65.696909
11
97.469442
21
64.449828
0
LINE
8
Layer 1
10
97.469442
20
64.449828
11
97.101389
21
63.414332
0
LINE
8
Layer 1
10
97.101389
20
63.414332
11
96.411905
21
62.693808
0
LINE
8
Layer 1
10
96.411905
20
62.693808
11
95.427259
21
62.329842
0
LINE
8
Layer 1
10
95.427259
20
62.329842
11
94.173722
21
62.364018
0
LINE
8
Layer 1
10
94.173722
20
62.364018
11
93.240363
21
62.600617
0
LINE
8
Layer 1
10
93.240363
20
62.600617
11
91.973326
21
63.168333
0
LINE
8
Layer 1
10
91.973326
20
63.168333
11
90.454869
21
64.198080
0
LINE
8
Layer 1
10
90.454869
20
64.198080
11
88.767252
21
65.820768
0
LINE
8
Layer 1
10
88.767252
20
65.820768
11
87.420382
21
67.344488
0
LINE
8
Layer 1
10
87.420382
20
67.344488
11
86.063932
21
69.004658
0
LINE
8
Layer 1
10
86.063932
20
69.004658
11
83.301312
21
72.529168
0
LINE
8
Layer 1
10
83.301312
20
72.529168
11
86.306972
21
70.844388
0
LINE
8
Layer 1
10
86.306972
20
70.844388
11
88.866722
21
69.609568
0
LINE
8
Layer 1
10
88.866722
20
69.609568
11
88.997134
21
69.548667
0
LINE
8
Layer 1
10
88.997134
20
69.548667
11
91.260764
21
67.030857
0
LINE
8
Layer 1
10
91.260764
20
67.030857
11
91.588486
21
66.689868
0
LINE
8
Layer 1
10
91.588486
20
66.689868
11
92.170162
21
66.289169
0
LINE
8
Layer 1
10
92.170162
20
66.289169
11
92.624310
21
66.195030
0
LINE
8
Layer 1
10
92.624310
20
66.195030
11
92.897981
21
66.339786
0
LINE
8
Layer 1
10
92.897981
20
66.339786
11
93.091364
21
66.940544
0
LINE
8
Layer 1
10
93.091364
20
66.940544
11
93.081510
21
68.039196
0
LINE
8
Layer 1
10
93.081510
20
68.039196
11
93.008307
21
68.460675
0
LINE
8
Layer 1
10
93.008307
20
68.460675
11
93.001116
21
68.482883
0
LINE
8
Layer 1
10
93.001116
20
68.482883
11
92.391844
21
70.516683
0
LINE
8
Layer 1
10
92.391844
20
70.516683
11
90.732064
21
73.825853
0
LINE
8
Layer 1
10
90.732064
20
73.825853
11
87.963464
21
77.923183
0
LINE
8
Layer 1
10
87.963464
20
77.923183
11
82.868462
21
85.316851
0
LINE
8
Layer 1
10
82.868462
20
85.316851
11
78.244994
21
93.014183
0
LINE
8
Layer 1
10
78.244994
20
93.014183
11
76.333464
21
96.648653
0
LINE
8
Layer 1
10
76.333464
20
96.648653
11
72.759274
21
92.479673
0
LINE
8
Layer 1
10
72.759274
20
92.479673
11
72.847892
21
92.355634
0
LINE
8
Layer 1
10
72.847892
20
92.355634
11
75.854652
21
87.664484
0
LINE
8
Layer 1
10
75.854652
20
87.664484
11
81.370542
21
79.374804
0
LINE
8
Layer 1
10
81.370542
20
79.374804
11
78.048955
21
82.000103
0
LINE
8
Layer 1
10
78.048955
20
82.000103
11
74.969672
21
84.905814
0
LINE
8
Layer 1
10
74.969672
20
84.905814
11
74.115759
21
86.260154
0
LINE
8
Layer 1
10
74.115759
20
86.260154
11
72.170229
21
89.314284
0
LINE
8
Layer 1
10
72.170229
20
89.314284
11
71.346900
21
90.530554
0
LINE
8
Layer 1
10
71.346900
20
90.530554
11
70.262730
21
88.898024
0
LINE
8
Layer 1
10
70.262730
20
88.898024
11
70.680701
21
86.414714
0
LINE
8
Layer 1
10
70.680701
20
86.414714
11
71.268147
21
84.179411
0
LINE
8
Layer 1
10
71.268147
20
84.179411
11
72.011631
21
81.991054
0
LINE
8
Layer 1
10
72.011631
20
81.991054
11
72.440851
21
80.903594
0
LINE
8
Layer 1
10
72.440851
20
80.903594
11
73.687271
21
78.139374
0
LINE
8
Layer 1
10
73.687271
20
78.139374
11
75.305141
21
75.213504
0
LINE
8
Layer 1
10
75.305141
20
75.213504
11
77.364351
21
72.060154
0
LINE
8
Layer 1
10
77.364351
20
72.060154
11
79.990371
21
68.660754
0
LINE
8
Layer 1
10
79.990371
20
68.660754
11
83.876488
21
64.531498
0
LINE
8
Layer 1
10
83.876488
20
64.531498
11
88.188047
21
60.782324
0
LINE
8
Layer 1
10
88.188047
20
60.782324
11
90.486569
21
59.074090
0
LINE
8
Layer 1
10
90.486569
20
59.074090
11
92.871293
21
57.489465
0
LINE
8
Layer 1
10
92.871293
20
57.489465
11
95.335500
21
56.037976
0
LINE
8
Layer 1
10
95.335500
20
56.037976
11
97.872471
21
54.729154
0
LINE
8
Layer 1
10
97.872471
20
54.729154
11
100.401075
21
53.567179
0
LINE
8
Layer 1
10
100.401075
20
53.567179
11
102.984257
21
52.549567
0
LINE
8
Layer 1
10
102.984257
20
52.549567
11
105.615804
21
51.677817
0
LINE
8
Layer 1
10
105.615804
20
51.677817
11
108.289507
21
50.953428
0
LINE
8
Layer 1
10
108.289507
20
50.953428
11
110.999156
21
50.377901
0
LINE
8
Layer 1
10
110.999156
20
50.377901
11
113.738539
21
49.952735
0
LINE
8
Layer 1
10
113.738539
20
49.952735
11
116.501448
21
49.679429
0
LINE
8
Layer 1
10
116.501448
20
49.679429
11
119.281671
21
49.559484
0
LINE
8
Layer 1
10
119.281671
20
49.559484
11
121.210451
21
47.863613
0
LINE
8
Layer 1
10
121.210451
20
47.863613
11
123.367221
21
46.469154
0
LINE
8
Layer 1
10
123.367221
20
46.469154
11
120.219932
21
46.392508
0
LINE
8
Layer 1
10
120.219932
20
46.392508
11
117.030445
21
46.522764
0
LINE
8
Layer 1
10
117.030445
20
46.522764
11
113.814801
21
46.859421
0
LINE
8
Layer 1
10
113.814801
20
46.859421
11
110.589039
21
47.401977
0
LINE
8
Layer 1
10
110.589039
20
47.401977
11
107.369201
21
48.149931
0
LINE
8
Layer 1
10
107.369201
20
48.149931
11
104.171325
21
49.102783
0
LINE
8
Layer 1
10
104.171325
20
49.102783
11
101.011451
21
50.260031
0
LINE
8
Layer 1
10
101.011451
20
50.260031
11
97.905621
21
51.621174
0
LINE
8
Layer 1
10
97.905621
20
51.621174
11
97.765873
21
51.674559
0
LINE
8
Layer 1
10
97.765873
20
51.674559
11
97.594000
21
51.740438
0
LINE
8
Layer 1
10
97.594000
20
51.740438
11
97.300320
21
51.797653
0
LINE
8
Layer 1
10
97.300320
20
51.797653
11
96.978630
21
51.764557
0
LINE
8
Layer 1
10
96.978630
20
51.764557
11
96.818621
21
51.589562
0
LINE
8
Layer 1
10
96.818621
20
51.589562
11
96.997940
21
51.113176
0
LINE
8
Layer 1
10
96.997940
20
51.113176
11
97.591305
21
50.632807
0
LINE
8
Layer 1
10
97.591305
20
50.632807
11
97.659334
21
50.588524
0
LINE
8
Layer 1
10
97.659334
20
50.588524
11
103.521658
21
47.691307
0
LINE
8
Layer 1
10
103.521658
20
47.691307
11
109.572940
21
45.303518
0
LINE
8
Layer 1
10
109.572940
20
45.303518
11
115.780161
21
43.430796
0
LINE
8
Layer 1
10
115.780161
20
43.430796
11
122.110300
21
42.078781
0
LINE
8
Layer 1
10
122.110300
20
42.078781
11
128.530337
21
41.253113
0
LINE
8
Layer 1
10
128.530337
20
41.253113
11
135.007251
21
40.959430
0
LINE
8
Layer 1
10
135.007251
20
40.959430
11
141.508024
21
41.203374
0
LINE
8
Layer 1
10
141.508024
20
41.203374
11
147.999634
21
41.990584
0
LINE
8
Layer 1
10
147.999634
20
41.990584
11
148.130080
21
42.025861
0
LINE
8
Layer 1
10
148.130080
20
42.025861
11
148.365428
21
42.089457
0
LINE
8
Layer 1
10
148.365428
20
42.089457
11
148.508515
21
42.153414
0
LINE
8
Layer 1
10
148.508515
20
42.153414
11
148.718923
21
42.274205
0
LINE
8
Layer 1
10
148.718923
20
42.274205
11
148.780312
21
42.327353
0
LINE
8
Layer 1
10
148.780312
20
42.327353
11
148.943741
21
42.533590
0
LINE
8
Layer 1
10
148.943741
20
42.533590
11
149.004935
21
42.693260
0
LINE
8
Layer 1
10
149.004935
20
42.693260
11
148.771454
21
43.058611
0
LINE
8
Layer 1
10
148.771454
20
43.058611
11
148.169377
21
43.226377
0
LINE
8
Layer 1
10
148.169377
20
43.226377
11
148.096951
21
43.229008
0
LINE
8
Layer 1
10
148.096951
20
43.229008
11
147.896771
21
43.235846
0
LINE
8
Layer 1
10
147.896771
20
43.235846
11
144.657971
21
43.028588
0
LINE
8
Layer 1
10
144.657971
20
43.028588
11
140.890781
21
43.060247
0
LINE
8
Layer 1
10
140.890781
20
43.060247
11
136.822586
21
43.425785
0
LINE
8
Layer 1
10
136.822586
20
43.425785
11
132.680771
21
44.220163
0
LINE
8
Layer 1
10
132.680771
20
44.220163
11
129.402656
21
45.176219
0
LINE
8
Layer 1
10
129.402656
20
45.176219
11
126.230871
21
46.441073
0
LINE
8
Layer 1
10
126.230871
20
46.441073
11
126.131215
21
46.485562
0
LINE
8
Layer 1
10
126.131215
20
46.485562
11
122.827525
21
48.359132
0
LINE
8
Layer 1
10
122.827525
20
48.359132
11
121.676035
21
49.269750
0
LINE
8
Layer 1
10
121.676035
20
49.269750
11
120.633695
21
50.303522
0
LINE
8
Layer 1
10
120.633695
20
50.303522
11
119.779254
21
51.546472
0
LINE
8
Layer 1
10
119.779254
20
51.546472
11
119.484441
21
52.461829
0
LINE
8
Layer 1
10
119.484441
20
52.461829
11
119.526540
21
53.285630
0
LINE
8
Layer 1
10
119.526540
20
53.285630
11
119.890254
21
54.005379
0
LINE
8
Layer 1
10
119.890254
20
54.005379
11
120.560286
21
54.608582
0
LINE
8
Layer 1
10
120.560286
20
54.608582
11
121.528507
21
55.125489
0
LINE
8
Layer 1
10
121.528507
20
55.125489
11
122.571446
21
55.467426
0
LINE
8
Layer 1
10
122.571446
20
55.467426
11
125.137186
21
55.927612
0
LINE
8
Layer 1
10
125.137186
20
55.927612
11
130.664886
21
56.295065
0
LINE
8
Layer 1
10
130.664886
20
56.295065
11
141.381886
21
56.706827
0
LINE
8
Layer 1
10
141.381886
20
56.706827
11
139.632956
21
55.733494
0
LINE
8
Layer 1
10
139.632956
20
55.733494
11
137.761866
21
54.833973
0
LINE
8
Layer 1
10
137.761866
20
54.833973
11
133.743656
21
53.194303
0
LINE
8
Layer 1
10
133.743656
20
53.194303
11
133.342816
21
53.178146
0
LINE
8
Layer 1
10
133.342816
20
53.178146
11
130.971376
21
53.134591
0
LINE
8
Layer 1
10
130.971376
20
53.134591
11
127.330508
21
52.936852
0
LINE
8
Layer 1
10
127.330508
20
52.936852
11
125.252496
21
52.637553
0
LINE
8
Layer 1
10
125.252496
20
52.637553
11
124.818173
21
52.363768
0
LINE
8
Layer 1
10
124.818173
20
52.363768
11
124.819325
21
51.964792
0
LINE
8
Layer 1
10
124.819325
20
51.964792
11
125.511309
21
51.133821
0
LINE
8
Layer 1
10
125.511309
20
51.133821
11
126.350965
21
50.452402
0
LINE
8
Layer 1
10
126.350965
20
50.452402
11
126.416232
21
50.409117
0
LINE
8
Layer 1
10
126.416232
20
50.409117
11
127.992049
21
49.486159
0
LINE
8
Layer 1
10
127.992049
20
49.486159
11
129.649152
21
48.718657
0
LINE
8
Layer 1
10
129.649152
20
48.718657
11
131.934736
21
47.916438
0
LINE
8
Layer 1
10
131.934736
20
47.916438
11
134.274642
21
47.290107
0
LINE
8
Layer 1
10
134.274642
20
47.290107
11
134.788433
21
47.177563
0
LINE
8
Layer 1
10
134.788433
20
47.177563
11
137.892577
21
46.655098
0
LINE
8
Layer 1
10
137.892577
20
46.655098
11
141.354952
21
46.384523
0
LINE
8
Layer 1
10
141.354952
20
46.384523
11
145.263717
21
46.431474
0
LINE
8
Layer 1
10
145.263717
20
46.431474
11
149.707033
21
46.861584
0
LINE
8
Layer 1
10
149.707033
20
46.861584
11
154.489438
21
47.807108
0
LINE
8
Layer 1
10
154.489438
20
47.807108
11
159.156524
21
49.180435
0
LINE
8
Layer 1
10
159.156524
20
49.180435
11
163.679689
21
50.971716
0
LINE
8
Layer 1
10
163.679689
20
50.971716
11
168.030333
21
53.171104
0
LINE
8
Layer 1
10
168.030333
20
53.171104
11
168.025276
21
55.871984
0
LINE
8
Layer 1
10
168.025276
20
55.871984
11
167.803318
21
60.042372
0
LINE
8
Layer 1
10
167.803318
20
60.042372
11
167.356234
21
63.947518
0
LINE
8
Layer 1
10
167.356234
20
63.947518
11
166.679991
21
67.616097
0
LINE
8
Layer 1
10
166.679991
20
67.616097
11
165.770556
21
71.076784
0
LINE
8
Layer 1
10
165.770556
20
71.076784
11
165.304732
21
72.591034
0
LINE
8
Layer 1
10
165.304732
20
72.591034
11
164.710161
21
71.770409
0
LINE
8
Layer 1
10
164.710161
20
71.770409
11
162.339067
21
68.680319
0
LINE
8
Layer 1
10
162.339067
20
68.680319
11
159.813611
21
65.715049
0
LINE
8
Layer 1
10
159.813611
20
65.715049
11
157.851761
21
66.528689
0
LINE
8
Layer 1
10
157.851761
20
66.528689
11
155.811421
21
67.118499
0
LINE
8
Layer 1
10
155.811421
20
67.118499
11
159.478234
21
71.436169
0
LINE
8
Layer 1
10
159.478234
20
71.436169
11
162.620161
21
75.526649
0
LINE
8
Layer 1
10
162.620161
20
75.526649
11
163.702000
21
76.991600
0
LINE
8
Layer 1
10
163.702000
20
76.991600
11
163.702000
21
76.991600
0
LINE
8
Layer 1
10
81.413900
20
74.930090
11
76.980365
21
78.289064
0
LINE
8
Layer 1
10
76.980365
20
78.289064
11
72.930590
21
82.101970
0
LINE
8
Layer 1
10
72.930590
20
82.101970
11
71.961197
21
85.101500
0
LINE
8
Layer 1
10
71.961197
20
85.101500
11
71.462607
21
87.520530
0
LINE
8
Layer 1
10
71.462607
20
87.520530
11
72.965247
21
85.709610
0
LINE
8
Layer 1
10
72.965247
20
85.709610
11
74.659057
21
83.897200
0
LINE
8
Layer 1
10
74.659057
20
83.897200
11
76.677623
21
81.960863
0
LINE
8
Layer 1
10
76.677623
20
81.960863
11
78.798489
21
80.140421
0
LINE
8
Layer 1
10
78.798489
20
80.140421
11
81.016676
21
78.439913
0
LINE
8
Layer 1
10
81.016676
20
78.439913
11
83.327207
21
76.863380
0
LINE
8
Layer 1
10
83.327207
20
76.863380
11
84.516687
21
76.147247
0
LINE
8
Layer 1
10
84.516687
20
76.147247
11
86.198897
21
75.165786
0
LINE
8
Layer 1
10
86.198897
20
75.165786
11
88.306557
21
74.077676
0
LINE
8
Layer 1
10
88.306557
20
74.077676
11
88.328330
21
74.070014
0
LINE
8
Layer 1
10
88.328330
20
74.070014
11
88.331034
21
74.068501
0
LINE
8
Layer 1
10
88.331034
20
74.068501
11
89.696324
21
73.455916
0
LINE
8
Layer 1
10
89.696324
20
73.455916
11
90.743504
21
71.265726
0
LINE
8
Layer 1
10
90.743504
20
71.265726
11
91.292928
21
69.708646
0
LINE
8
Layer 1
10
91.292928
20
69.708646
11
89.219868
21
70.601069
0
LINE
8
Layer 1
10
89.219868
20
70.601069
11
89.155425
21
70.632071
0
LINE
8
Layer 1
10
89.155425
20
70.632071
11
88.680872
21
70.851549
0
LINE
8
Layer 1
10
88.680872
20
70.851549
11
86.174882
21
72.087529
0
LINE
8
Layer 1
10
86.174882
20
72.087529
11
83.797672
21
73.412459
0
LINE
8
Layer 1
10
83.797672
20
73.412459
11
81.471602
21
74.891589
0
LINE
8
Layer 1
10
81.471602
20
74.891589
11
81.413900
21
74.930090
0
LINE
8
Layer 1
10
145.358600
20
53.319290
11
145.343193
21
53.310273
0
LINE
8
Layer 1
10
145.343193
20
53.310273
11
145.334984
21
53.305266
0
LINE
8
Layer 1
10
145.334984
20
53.305266
11
142.775688
21
51.857762
0
LINE
8
Layer 1
10
142.775688
20
51.857762
11
140.134229
21
50.572686
0
LINE
8
Layer 1
10
140.134229
20
50.572686
11
137.418322
21
49.453500
0
LINE
8
Layer 1
10
137.418322
20
49.453500
11
134.635684
21
48.503666
0
LINE
8
Layer 1
10
134.635684
20
48.503666
11
131.409494
21
49.443827
0
LINE
8
Layer 1
10
131.409494
20
49.443827
11
128.896764
21
50.529687
0
LINE
8
Layer 1
10
128.896764
20
50.529687
11
131.639224
21
51.204689
0
LINE
8
Layer 1
10
131.639224
20
51.204689
11
134.458624
21
52.092935
0
LINE
8
Layer 1
10
134.458624
20
52.092935
11
137.070176
21
53.094740
0
LINE
8
Layer 1
10
137.070176
20
53.094740
11
139.612818
21
54.254065
0
LINE
8
Layer 1
10
139.612818
20
54.254065
11
142.079438
21
55.567401
0
LINE
8
Layer 1
10
142.079438
20
55.567401
11
144.462924
21
57.031235
0
LINE
8
Layer 1
10
144.462924
20
57.031235
11
147.437884
21
59.120195
0
LINE
8
Layer 1
10
147.437884
20
59.120195
11
149.327364
21
60.628015
0
LINE
8
Layer 1
10
149.327364
20
60.628015
11
149.522233
21
60.859680
0
LINE
8
Layer 1
10
149.522233
20
60.859680
11
150.035948
21
61.319118
0
LINE
8
Layer 1
10
150.035948
20
61.319118
11
152.476393
21
60.688838
0
LINE
8
Layer 1
10
152.476393
20
60.688838
11
154.123548
21
59.993508
0
LINE
8
Layer 1
10
154.123548
20
59.993508
11
152.675518
21
58.691188
0
LINE
8
Layer 1
10
152.675518
20
58.691188
11
152.674369
21
58.690923
0
LINE
8
Layer 1
10
152.674369
20
58.690923
11
152.506447
21
58.537713
0
LINE
8
Layer 1
10
152.506447
20
58.537713
11
152.502823
21
58.535052
0
LINE
8
Layer 1
10
152.502823
20
58.535052
11
150.611953
21
56.944992
0
LINE
8
Layer 1
10
150.611953
20
56.944992
11
149.309933
21
55.935992
0
LINE
8
Layer 1
10
149.309933
20
55.935992
11
147.378242
21
54.594724
0
LINE
8
Layer 1
10
147.378242
20
54.594724
11
145.358000
21
53.319300
0
LINE
8
Layer 1
10
145.358000
20
53.319300
11
145.358600
21
53.319290
0
LINE
8
Layer 1
10
68.460400
20
85.155500
11
68.358018
21
85.545875
0
LINE
8
Layer 1
10
68.358018
20
85.545875
11
66.780878
21
82.105965
0
LINE
8
Layer 1
10
66.780878
20
82.105965
11
68.778168
21
78.495027
0
LINE
8
Layer 1
10
68.778168
20
78.495027
11
70.971498
21
75.003458
0
LINE
8
Layer 1
10
70.971498
20
75.003458
11
73.355549
21
71.639226
0
LINE
8
Layer 1
10
73.355549
20
71.639226
11
75.925000
21
68.410300
0
LINE
8
Layer 1
10
75.925000
20
68.410300
11
76.015105
21
68.320393
0
LINE
8
Layer 1
10
76.015105
20
68.320393
11
76.180905
21
68.154590
0
LINE
8
Layer 1
10
76.180905
20
68.154590
11
76.296052
21
68.064157
0
LINE
8
Layer 1
10
76.296052
20
68.064157
11
76.485423
21
67.938080
0
LINE
8
Layer 1
10
76.485423
20
67.938080
11
76.551037
21
67.908563
0
LINE
8
Layer 1
10
76.551037
20
67.908563
11
76.770710
21
67.848585
0
LINE
8
Layer 1
10
76.770710
20
67.848585
11
76.906919
21
67.853614
0
LINE
8
Layer 1
10
76.906919
20
67.853614
11
77.023114
21
68.158635
0
LINE
8
Layer 1
10
77.023114
20
68.158635
11
76.817020
21
68.688602
0
LINE
8
Layer 1
10
76.817020
20
68.688602
11
76.780706
21
68.746635
0
LINE
8
Layer 1
10
76.780706
20
68.746635
11
76.680876
21
68.905616
0
LINE
8
Layer 1
10
76.680876
20
68.905616
11
74.882306
21
71.420641
0
LINE
8
Layer 1
10
74.882306
20
71.420641
11
72.986065
21
74.465851
0
LINE
8
Layer 1
10
72.986065
20
74.465851
11
71.169786
21
77.903844
0
LINE
8
Layer 1
10
71.169786
20
77.903844
11
69.611106
21
81.597216
0
LINE
8
Layer 1
10
69.611106
20
81.597216
11
68.460400
21
85.155500
0
LINE
8
Layer 1
10
68.460400
20
85.155500
11
68.460400
21
85.155500
0
LINE
8
Layer 1
10
166.763000
20
42.349000
11
167.100766
21
44.059370
0
LINE
8
Layer 1
10
167.100766
20
44.059370
11
166.640103
21
43.873950
0
LINE
8
Layer 1
10
166.640103
20
43.873950
11
166.248706
21
43.721592
0
LINE
8
Layer 1
10
166.248706
20
43.721592
11
161.142200
21
41.926734
0
LINE
8
Layer 1
10
161.142200
20
41.926734
11
155.936355
21
40.464942
0
LINE
8
Layer 1
10
155.936355
20
40.464942
11
150.647435
21
39.340226
0
LINE
8
Layer 1
10
150.647435
20
39.340226
11
145.291706
21
38.556592
0
LINE
8
Layer 1
10
145.291706
20
38.556592
11
140.003260
21
38.141351
0
LINE
8
Layer 1
10
140.003260
20
38.141351
11
134.715896
21
38.072028
0
LINE
8
Layer 1
10
134.715896
20
38.072028
11
129.446233
21
38.346120
0
LINE
8
Layer 1
10
129.446233
20
38.346120
11
124.210891
21
38.961126
0
LINE
8
Layer 1
10
124.210891
20
38.961126
11
119.026489
21
39.914545
0
LINE
8
Layer 1
10
119.026489
20
39.914545
11
113.909644
21
41.203875
0
LINE
8
Layer 1
10
113.909644
20
41.203875
11
108.876977
21
42.826615
0
LINE
8
Layer 1
10
108.876977
20
42.826615
11
103.945106
21
44.780262
0
LINE
8
Layer 1
10
103.945106
20
44.780262
11
102.992014
21
45.207210
0
LINE
8
Layer 1
10
102.992014
20
45.207210
11
98.123245
21
47.598079
0
LINE
8
Layer 1
10
98.123245
20
47.598079
11
93.435294
21
50.313837
0
LINE
8
Layer 1
10
93.435294
20
50.313837
11
88.944378
21
53.344331
0
LINE
8
Layer 1
10
88.944378
20
53.344331
11
84.666714
21
56.679410
0
LINE
8
Layer 1
10
84.666714
20
56.679410
11
84.309023
21
56.968064
0
LINE
8
Layer 1
10
84.309023
20
56.968064
11
80.986398
21
59.934264
0
LINE
8
Layer 1
10
80.986398
20
59.934264
11
77.845573
21
63.086967
0
LINE
8
Layer 1
10
77.845573
20
63.086967
11
74.894372
21
66.417844
0
LINE
8
Layer 1
10
74.894372
20
66.417844
11
72.140623
21
69.918564
0
LINE
8
Layer 1
10
72.140623
20
69.918564
11
68.827418
21
74.740415
0
LINE
8
Layer 1
10
68.827418
20
74.740415
11
65.899233
21
79.805324
0
LINE
8
Layer 1
10
65.899233
20
79.805324
11
65.263669
21
77.895484
0
LINE
8
Layer 1
10
65.263669
20
77.895484
11
67.961206
21
73.371881
0
LINE
8
Layer 1
10
67.961206
20
73.371881
11
70.963859
21
69.044784
0
LINE
8
Layer 1
10
70.963859
20
69.044784
11
73.844545
21
65.388801
0
LINE
8
Layer 1
10
73.844545
20
65.388801
11
76.936228
21
61.915003
0
LINE
8
Layer 1
10
76.936228
20
61.915003
11
80.230302
21
58.632495
0
LINE
8
Layer 1
10
80.230302
20
58.632495
11
83.718159
21
55.550384
0
LINE
8
Layer 1
10
83.718159
20
55.550384
11
84.098806
21
55.244218
0
LINE
8
Layer 1
10
84.098806
20
55.244218
11
84.099571
21
55.244610
0
LINE
8
Layer 1
10
84.099571
20
55.244610
11
88.381727
21
51.942938
0
LINE
8
Layer 1
10
88.381727
20
51.942938
11
92.870542
21
48.939125
0
LINE
8
Layer 1
10
92.870542
20
48.939125
11
97.550521
21
46.242805
0
LINE
8
Layer 1
10
97.550521
20
46.242805
11
102.406171
21
43.863610
0
LINE
8
Layer 1
10
102.406171
20
43.863610
11
103.359517
21
43.436794
0
LINE
8
Layer 1
10
103.359517
20
43.436794
11
108.380556
21
41.447742
0
LINE
8
Layer 1
10
108.380556
20
41.447742
11
113.504221
21
39.795586
0
LINE
8
Layer 1
10
113.504221
20
39.795586
11
118.713591
21
38.482874
0
LINE
8
Layer 1
10
118.713591
20
38.482874
11
123.991746
21
37.512152
0
LINE
8
Layer 1
10
123.991746
20
37.512152
11
129.321766
21
36.885969
0
LINE
8
Layer 1
10
129.321766
20
36.885969
11
134.686731
21
36.606870
0
LINE
8
Layer 1
10
134.686731
20
36.606870
11
140.069722
21
36.677402
0
LINE
8
Layer 1
10
140.069722
20
36.677402
11
145.453817
21
37.100114
0
LINE
8
Layer 1
10
145.453817
20
37.100114
11
150.899427
21
37.896437
0
LINE
8
Layer 1
10
150.899427
20
37.896437
11
156.277175
21
39.039405
0
LINE
8
Layer 1
10
156.277175
20
39.039405
11
161.570540
21
40.524950
0
LINE
8
Layer 1
10
161.570540
20
40.524950
11
166.763000
21
42.349000
0
LINE
8
Layer 1
10
166.763000
20
42.349000
11
166.763000
21
42.349000
0
LINE
8
Layer 1
10
73.344700
20
38.370600
11
67.311986
21
38.483239
0
LINE
8
Layer 1
10
67.311986
20
38.483239
11
61.309500
21
39.096825
0
LINE
8
Layer 1
10
61.309500
20
39.096825
11
58.066582
21
39.633247
0
LINE
8
Layer 1
10
58.066582
20
39.633247
11
54.857578
21
40.319642
0
LINE
8
Layer 1
10
54.857578
20
40.319642
11
51.687577
21
41.154281
0
LINE
8
Layer 1
10
51.687577
20
41.154281
11
48.561672
21
42.135433
0
LINE
8
Layer 1
10
48.561672
20
42.135433
11
45.484951
21
43.261370
0
LINE
8
Layer 1
10
45.484951
20
43.261370
11
42.462505
21
44.530364
0
LINE
8
Layer 1
10
42.462505
20
44.530364
11
39.499424
21
45.940683
0
LINE
8
Layer 1
10
39.499424
20
45.940683
11
36.600800
21
47.490600
0
LINE
8
Layer 1
10
36.600800
20
47.490600
11
32.979570
21
49.681180
0
LINE
8
Layer 1
10
32.979570
20
49.681180
11
37.901643
21
46.884289
0
LINE
8
Layer 1
10
37.901643
20
46.884289
11
43.006594
21
44.500118
0
LINE
8
Layer 1
10
43.006594
20
44.500118
11
48.268449
21
42.534983
0
LINE
8
Layer 1
10
48.268449
20
42.534983
11
53.661233
21
40.995198
0
LINE
8
Layer 1
10
53.661233
20
40.995198
11
59.158972
21
39.887081
0
LINE
8
Layer 1
10
59.158972
20
39.887081
11
64.735691
21
39.216945
0
LINE
8
Layer 1
10
64.735691
20
39.216945
11
70.365415
21
38.991106
0
LINE
8
Layer 1
10
70.365415
20
38.991106
11
76.022170
21
39.215880
0
LINE
8
Layer 1
10
76.022170
20
39.215880
11
76.146500
21
39.234685
0
LINE
8
Layer 1
10
76.146500
20
39.234685
11
76.372026
21
39.268164
0
LINE
8
Layer 1
10
76.372026
20
39.268164
11
76.512042
21
39.299988
0
LINE
8
Layer 1
10
76.512042
20
39.299988
11
76.722015
21
39.358476
0
LINE
8
Layer 1
10
76.722015
20
39.358476
11
76.785148
21
39.383729
0
LINE
8
Layer 1
10
76.785148
20
39.383729
11
76.964492
21
39.479436
0
LINE
8
Layer 1
10
76.964492
20
39.479436
11
77.043554
21
39.552407
0
LINE
8
Layer 1
10
77.043554
20
39.552407
11
76.881393
21
39.710788
0
LINE
8
Layer 1
10
76.881393
20
39.710788
11
76.350199
21
39.771129
0
LINE
8
Layer 1
10
76.350199
20
39.771129
11
76.282858
21
39.770734
0
LINE
8
Layer 1
10
76.282858
20
39.770734
11
76.099730
21
39.768457
0
LINE
8
Layer 1
10
76.099730
20
39.768457
11
72.518779
21
39.701746
0
LINE
8
Layer 1
10
72.518779
20
39.701746
11
68.943793
21
39.854016
0
LINE
8
Layer 1
10
68.943793
20
39.854016
11
65.384800
21
40.224531
0
LINE
8
Layer 1
10
65.384800
20
40.224531
11
61.851830
21
40.812557
0
LINE
8
Layer 1
10
61.851830
20
40.812557
11
58.579880
21
41.597902
0
LINE
8
Layer 1
10
58.579880
20
41.597902
11
55.749660
21
42.481931
0
LINE
8
Layer 1
10
55.749660
20
42.481931
11
55.654630
21
42.511423
0
LINE
8
Layer 1
10
55.654630
20
42.511423
11
52.456340
21
43.778173
0
LINE
8
Layer 1
10
52.456340
20
43.778173
11
50.260530
21
44.958953
0
LINE
8
Layer 1
10
50.260530
20
44.958953
11
49.353533
21
45.611168
0
LINE
8
Layer 1
10
49.353533
20
45.611168
11
49.002056
21
46.040022
0
LINE
8
Layer 1
10
49.002056
20
46.040022
11
48.979734
21
46.357879
0
LINE
8
Layer 1
10
48.979734
20
46.357879
11
49.281650
21
46.568747
0
LINE
8
Layer 1
10
49.281650
20
46.568747
11
49.902884
21
46.676638
0
LINE
8
Layer 1
10
49.902884
20
46.676638
11
51.873748
21
46.630049
0
LINE
8
Layer 1
10
51.873748
20
46.630049
11
54.486940
21
46.391696
0
LINE
8
Layer 1
10
54.486940
20
46.391696
11
60.255584
21
45.844752
0
LINE
8
Layer 1
10
60.255584
20
45.844752
11
65.899898
21
45.558933
0
LINE
8
Layer 1
10
65.899898
20
45.558933
11
71.551384
21
45.584794
0
LINE
8
Layer 1
10
71.551384
20
45.584794
11
67.463521
21
44.804935
0
LINE
8
Layer 1
10
67.463521
20
44.804935
11
63.326584
21
44.352654
0
LINE
8
Layer 1
10
63.326584
20
44.352654
11
62.915581
21
44.374551
0
LINE
8
Layer 1
10
62.915581
20
44.374551
11
60.489601
21
44.556833
0
LINE
8
Layer 1
10
60.489601
20
44.556833
11
54.695991
21
45.071324
0
LINE
8
Layer 1
10
54.695991
20
45.071324
11
54.269562
21
45.033459
0
LINE
8
Layer 1
10
54.269562
20
45.033459
11
54.281971
21
44.875860
0
LINE
8
Layer 1
10
54.281971
20
44.875860
11
55.826971
21
44.042360
0
LINE
8
Layer 1
10
55.826971
20
44.042360
11
55.892122
21
44.017830
0
LINE
8
Layer 1
10
55.892122
20
44.017830
11
59.657932
21
42.771928
0
LINE
8
Layer 1
10
59.657932
20
42.771928
11
63.533702
21
41.928120
0
LINE
8
Layer 1
10
63.533702
20
41.928120
11
64.026321
21
41.840433
0
LINE
8
Layer 1
10
64.026321
20
41.840433
11
67.000737
21
41.439152
0
LINE
8
Layer 1
10
67.000737
20
41.439152
11
70.313907
21
41.195906
0
LINE
8
Layer 1
10
70.313907
20
41.195906
11
74.059559
21
41.171099
0
LINE
8
Layer 1
10
74.059559
20
41.171099
11
78.331421
21
41.425138
0
LINE
8
Layer 1
10
78.331421
20
41.425138
11
82.784020
21
42.058493
0
LINE
8
Layer 1
10
82.784020
20
42.058493
11
87.169908
21
43.024599
0
LINE
8
Layer 1
10
87.169908
20
43.024599
11
91.470477
21
44.318614
0
LINE
8
Layer 1
10
91.470477
20
44.318614
11
95.667121
21
45.935698
0
LINE
8
Layer 1
10
95.667121
20
45.935698
11
92.307341
21
47.909518
0
LINE
8
Layer 1
10
92.307341
20
47.909518
11
92.197734
21
47.821143
0
LINE
8
Layer 1
10
92.197734
20
47.821143
11
91.218480
21
47.180353
0
LINE
8
Layer 1
10
91.218480
20
47.180353
11
90.161074
21
46.678913
0
LINE
8
Layer 1
10
90.161074
20
46.678913
11
88.413664
21
46.025095
0
LINE
8
Layer 1
10
88.413664
20
46.025095
11
86.102124
21
45.499375
0
LINE
8
Layer 1
10
86.102124
20
45.499375
11
82.312939
21
44.920479
0
LINE
8
Layer 1
10
82.312939
20
44.920479
11
78.204524
21
44.471785
0
LINE
8
Layer 1
10
78.204524
20
44.471785
11
80.571954
21
45.329263
0
LINE
8
Layer 1
10
80.571954
20
45.329263
11
84.118424
21
46.844103
0
LINE
8
Layer 1
10
84.118424
20
46.844103
11
87.294354
21
47.451462
0
LINE
8
Layer 1
10
87.294354
20
47.451462
11
87.335313
21
47.459410
0
LINE
8
Layer 1
10
87.335313
20
47.459410
11
88.145121
21
47.764128
0
LINE
8
Layer 1
10
88.145121
20
47.764128
11
88.419620
21
47.989031
0
LINE
8
Layer 1
10
88.419620
20
47.989031
11
88.460981
21
48.168236
0
LINE
8
Layer 1
10
88.460981
20
48.168236
11
88.149438
21
48.451734
0
LINE
8
Layer 1
10
88.149438
20
48.451734
11
87.384801
21
48.740080
0
LINE
8
Layer 1
10
87.384801
20
48.740080
11
87.217500
21
48.782574
0
LINE
8
Layer 1
10
87.217500
20
48.782574
11
85.354900
21
49.027260
0
LINE
8
Layer 1
10
85.354900
20
49.027260
11
83.806160
21
49.046888
0
LINE
8
Layer 1
10
83.806160
20
49.046888
11
81.778160
21
49.004087
0
LINE
8
Layer 1
10
81.778160
20
49.004087
11
79.084950
21
48.830803
0
LINE
8
Layer 1
10
79.084950
20
48.830803
11
77.638720
21
48.696118
0
LINE
8
Layer 1
10
77.638720
20
48.696118
11
76.120610
21
48.586540
0
LINE
8
Layer 1
10
76.120610
20
48.586540
11
71.009753
21
48.267878
0
LINE
8
Layer 1
10
71.009753
20
48.267878
11
65.893106
21
48.237049
0
LINE
8
Layer 1
10
65.893106
20
48.237049
11
60.782810
21
48.493783
0
LINE
8
Layer 1
10
60.782810
20
48.493783
11
55.691010
21
49.037813
0
LINE
8
Layer 1
10
55.691010
20
49.037813
11
49.952288
21
50.042036
0
LINE
8
Layer 1
10
49.952288
20
50.042036
11
44.307799
21
51.465295
0
LINE
8
Layer 1
10
44.307799
20
51.465295
11
38.801690
21
53.322741
0
LINE
8
Layer 1
10
38.801690
20
53.322741
11
33.478110
21
55.629523
0
LINE
8
Layer 1
10
33.478110
20
55.629523
11
30.132530
21
57.366013
0
LINE
8
Layer 1
10
30.132530
20
57.366013
11
27.028430
21
59.240163
0
LINE
8
Layer 1
10
27.028430
20
59.240163
11
24.704050
21
61.844893
0
LINE
8
Layer 1
10
24.704050
20
61.844893
11
29.435390
21
58.841686
0
LINE
8
Layer 1
10
29.435390
20
58.841686
11
34.407910
21
56.257333
0
LINE
8
Layer 1
10
34.407910
20
56.257333
11
39.951995
21
53.947484
0
LINE
8
Layer 1
10
39.951995
20
53.947484
11
45.675410
21
52.126823
0
LINE
8
Layer 1
10
45.675410
20
52.126823
11
45.790043
21
52.102385
0
LINE
8
Layer 1
10
45.790043
20
52.102385
11
45.960869
21
52.065880
0
LINE
8
Layer 1
10
45.960869
20
52.065880
11
46.107735
21
52.044764
0
LINE
8
Layer 1
10
46.107735
20
52.044764
11
46.241333
21
52.031649
0
LINE
8
Layer 1
10
46.241333
20
52.031649
11
46.345402
21
52.033805
0
LINE
8
Layer 1
10
46.345402
20
52.033805
11
46.430387
21
52.043400
0
LINE
8
Layer 1
10
46.430387
20
52.043400
11
46.478402
21
52.069596
0
LINE
8
Layer 1
10
46.478402
20
52.069596
11
46.509604
21
52.086863
0
LINE
8
Layer 1
10
46.509604
20
52.086863
11
46.502091
21
52.102472
0
LINE
8
Layer 1
10
46.502091
20
52.102472
11
46.510558
21
52.113885
0
LINE
8
Layer 1
10
46.510558
20
52.113885
11
46.478247
21
52.152177
0
LINE
8
Layer 1
10
46.478247
20
52.152177
11
46.443276
21
52.193768
0
LINE
8
Layer 1
10
46.443276
20
52.193768
11
46.348111
21
52.257443
0
LINE
8
Layer 1
10
46.348111
20
52.257443
11
46.272264
21
52.302548
0
LINE
8
Layer 1
10
46.272264
20
52.302548
11
46.108254
21
52.375672
0
LINE
8
Layer 1
10
46.108254
20
52.375672
11
46.013052
21
52.416492
0
LINE
8
Layer 1
10
46.013052
20
52.416492
11
45.688928
21
52.523736
0
LINE
8
Layer 1
10
45.688928
20
52.523736
11
43.898678
21
53.091894
0
LINE
8
Layer 1
10
43.898678
20
53.091894
11
41.856538
21
53.798013
0
LINE
8
Layer 1
10
41.856538
20
53.798013
11
39.244208
21
54.829013
0
LINE
8
Layer 1
10
39.244208
20
54.829013
11
35.791651
21
56.425984
0
LINE
8
Layer 1
10
35.791651
20
56.425984
11
32.441995
21
58.221879
0
LINE
8
Layer 1
10
32.441995
20
58.221879
11
29.203821
21
60.211769
0
LINE
8
Layer 1
10
29.203821
20
60.211769
11
26.085708
21
62.390723
0
LINE
8
Layer 1
10
26.085708
20
62.390723
11
23.079566
21
64.805917
0
LINE
8
Layer 1
10
23.079566
20
64.805917
11
20.224019
21
67.392409
0
LINE
8
Layer 1
10
20.224019
20
67.392409
11
17.526367
21
70.143183
0
LINE
8
Layer 1
10
17.526367
20
70.143183
11
14.993908
21
73.051223
0
LINE
8
Layer 1
10
14.993908
20
73.051223
11
13.225148
21
75.340973
0
LINE
8
Layer 1
10
13.225148
20
75.340973
11
11.935088
21
77.166363
0
LINE
8
Layer 1
10
11.935088
20
77.166363
11
11.112950
21
78.352203
0
LINE
8
Layer 1
10
11.112950
20
78.352203
11
10.843490
21
78.785414
0
LINE
8
Layer 1
10
10.843490
20
78.785414
11
10.653580
21
79.081183
0
LINE
8
Layer 1
10
10.653580
20
79.081183
11
10.593326
21
79.169008
0
LINE
8
Layer 1
10
10.593326
20
79.169008
11
10.486082
21
79.323468
0
LINE
8
Layer 1
10
10.486082
20
79.323468
11
10.431486
21
79.395536
0
LINE
8
Layer 1
10
10.431486
20
79.395536
11
10.358706
21
79.487721
0
LINE
8
Layer 1
10
10.358706
20
79.487721
11
10.321981
21
79.525519
0
LINE
8
Layer 1
10
10.321981
20
79.525519
11
10.290812
21
79.557803
0
LINE
8
Layer 1
10
10.290812
20
79.557803
11
10.287087
21
79.552519
0
LINE
8
Layer 1
10
10.287087
20
79.552519
11
10.274124
21
79.562445
0
LINE
8
Layer 1
10
10.274124
20
79.562445
11
10.278256
21
79.538990
0
LINE
8
Layer 1
10
10.278256
20
79.538990
11
10.285230
21
79.499623
0
LINE
8
Layer 1
10
10.285230
20
79.499623
11
10.314082
21
79.428525
0
LINE
8
Layer 1
10
10.314082
20
79.428525
11
10.356514
21
79.336879
0
LINE
8
Layer 1
10
10.356514
20
79.336879
11
10.417900
21
79.217953
0
LINE
8
Layer 1
10
10.417900
20
79.217953
11
10.488351
21
79.088230
0
LINE
8
Layer 1
10
10.488351
20
79.088230
11
10.578335
21
78.931363
0
LINE
8
Layer 1
10
10.578335
20
78.931363
11
10.631392
21
78.838732
0
LINE
8
Layer 1
10
10.631392
20
78.838732
11
13.573151
21
74.431461
0
LINE
8
Layer 1
10
13.573151
20
74.431461
11
16.788122
21
70.219342
0
LINE
8
Layer 1
10
16.788122
20
70.219342
11
20.057991
21
66.430425
0
LINE
8
Layer 1
10
20.057991
20
66.430425
11
22.902302
21
63.257242
0
LINE
8
Layer 1
10
22.902302
20
63.257242
11
25.895832
21
59.798722
0
LINE
8
Layer 1
10
25.895832
20
59.798722
11
26.721114
21
58.419582
0
LINE
8
Layer 1
10
26.721114
20
58.419582
11
26.715181
21
58.027650
0
LINE
8
Layer 1
10
26.715181
20
58.027650
11
26.374680
21
57.941400
0
LINE
8
Layer 1
10
26.374680
20
57.941400
11
25.716830
21
58.164888
0
LINE
8
Layer 1
10
25.716830
20
58.164888
11
24.758854
21
58.702168
0
LINE
8
Layer 1
10
24.758854
20
58.702168
11
22.931374
21
60.064658
0
LINE
8
Layer 1
10
22.931374
20
60.064658
11
21.560374
21
61.282208
0
LINE
8
Layer 1
10
21.560374
20
61.282208
11
19.951284
21
62.959018
0
LINE
8
Layer 1
10
19.951284
20
62.959018
11
17.141498
21
66.224646
0
LINE
8
Layer 1
10
17.141498
20
66.224646
11
14.520274
21
69.643478
0
LINE
8
Layer 1
10
14.520274
20
69.643478
11
16.822094
21
67.141858
0
LINE
8
Layer 1
10
16.822094
20
67.141858
11
17.821284
21
66.150093
0
LINE
8
Layer 1
10
17.821284
20
66.150093
11
18.851544
21
65.182763
0
LINE
8
Layer 1
10
18.851544
20
65.182763
11
18.956838
21
65.084550
0
LINE
8
Layer 1
10
18.956838
20
65.084550
11
21.291658
21
62.551420
0
LINE
8
Layer 1
10
21.291658
20
62.551420
11
21.620489
21
62.201674
0
LINE
8
Layer 1
10
21.620489
20
62.201674
11
22.156787
21
61.713410
0
LINE
8
Layer 1
10
22.156787
20
61.713410
11
22.671884
21
61.425764
0
LINE
8
Layer 1
10
22.671884
20
61.425764
11
22.628586
21
61.678505
0
LINE
8
Layer 1
10
22.628586
20
61.678505
11
22.271439
21
62.304104
0
LINE
8
Layer 1
10
22.271439
20
62.304104
11
22.086036
21
62.584178
0
LINE
8
Layer 1
10
22.086036
20
62.584178
11
22.074095
21
62.600900
0
LINE
8
Layer 1
10
22.074095
20
62.600900
11
18.658745
21
66.951260
0
LINE
8
Layer 1
10
18.658745
20
66.951260
11
17.064415
21
68.936510
0
LINE
8
Layer 1
10
17.064415
20
68.936510
11
16.209251
21
69.989010
0
LINE
8
Layer 1
10
16.209251
20
69.989010
11
15.365407
21
71.114530
0
LINE
8
Layer 1
10
15.365407
20
71.114530
11
12.456337
21
75.155200
0
LINE
8
Layer 1
10
12.456337
20
75.155200
11
9.842457
21
79.379690
0
LINE
8
Layer 1
10
9.842457
20
79.379690
11
7.483253
21
83.735074
0
LINE
8
Layer 1
10
7.483253
20
83.735074
11
5.443500
21
88.248900
0
LINE
8
Layer 1
10
5.443500
20
88.248900
11
4.046747
21
91.950778
0
LINE
8
Layer 1
10
4.046747
20
91.950778
11
2.871460
21
95.728810
0
LINE
8
Layer 1
10
2.871460
20
95.728810
11
4.852010
21
90.241867
0
LINE
8
Layer 1
10
4.852010
20
90.241867
11
7.313435
21
84.966147
0
LINE
8
Layer 1
10
7.313435
20
84.966147
11
10.239282
21
79.933131
0
LINE
8
Layer 1
10
10.239282
20
79.933131
11
13.613100
21
75.174300
0
LINE
8
Layer 1
10
13.613100
20
75.174300
11
15.739454
21
72.565692
0
LINE
8
Layer 1
10
15.739454
20
72.565692
11
18.005246
21
70.080724
0
LINE
8
Layer 1
10
18.005246
20
70.080724
11
20.405103
21
67.724971
0
LINE
8
Layer 1
10
20.405103
20
67.724971
11
22.933650
21
65.504010
0
LINE
8
Layer 1
10
22.933650
20
65.504010
11
23.052567
21
65.400553
0
LINE
8
Layer 1
10
23.052567
20
65.400553
11
27.045452
21
62.336101
0
LINE
8
Layer 1
10
27.045452
20
62.336101
11
31.266370
21
59.609357
0
LINE
8
Layer 1
10
31.266370
20
59.609357
11
35.693987
21
57.232911
0
LINE
8
Layer 1
10
35.693987
20
57.232911
11
40.306967
21
55.219353
0
LINE
8
Layer 1
10
40.306967
20
55.219353
11
45.799960
21
53.380096
0
LINE
8
Layer 1
10
45.799960
20
53.380096
11
51.430250
21
52.074481
0
LINE
8
Layer 1
10
51.430250
20
52.074481
11
57.159099
21
51.309570
0
LINE
8
Layer 1
10
57.159099
20
51.309570
11
62.947767
21
51.092423
0
LINE
8
Layer 1
10
62.947767
20
51.092423
11
67.568203
21
51.325505
0
LINE
8
Layer 1
10
67.568203
20
51.325505
11
72.156587
21
51.916675
0
LINE
8
Layer 1
10
72.156587
20
51.916675
11
76.852947
21
52.903845
0
LINE
8
Layer 1
10
76.852947
20
52.903845
11
79.863870
21
53.755541
0
LINE
8
Layer 1
10
79.863870
20
53.755541
11
82.823137
21
54.772295
0
LINE
8
Layer 1
10
82.823137
20
54.772295
11
81.532717
21
55.878815
0
LINE
8
Layer 1
10
81.532717
20
55.878815
11
76.780788
21
54.401694
0
LINE
8
Layer 1
10
76.780788
20
54.401694
11
71.914357
21
53.362195
0
LINE
8
Layer 1
10
71.914357
20
53.362195
11
67.437973
21
52.785361
0
LINE
8
Layer 1
10
67.437973
20
52.785361
11
62.930297
21
52.558167
0
LINE
8
Layer 1
10
62.930297
20
52.558167
11
57.282342
21
52.769999
0
LINE
8
Layer 1
10
57.282342
20
52.769999
11
51.692755
21
53.516316
0
LINE
8
Layer 1
10
51.692755
20
53.516316
11
46.199339
21
54.790229
0
LINE
8
Layer 1
10
46.199339
20
54.790229
11
40.839897
21
56.584847
0
LINE
8
Layer 1
10
40.839897
20
56.584847
11
36.368890
21
58.534743
0
LINE
8
Layer 1
10
36.368890
20
58.534743
11
32.075901
21
60.833810
0
LINE
8
Layer 1
10
32.075901
20
60.833810
11
27.981309
21
63.470056
0
LINE
8
Layer 1
10
27.981309
20
63.470056
11
24.105497
21
66.431487
0
LINE
8
Layer 1
10
24.105497
20
66.431487
11
23.984257
21
66.536967
0
LINE
8
Layer 1
10
23.984257
20
66.536967
11
21.483338
21
68.724135
0
LINE
8
Layer 1
10
21.483338
20
68.724135
11
19.110685
21
71.046104
0
LINE
8
Layer 1
10
19.110685
20
71.046104
11
16.871734
21
73.497249
0
LINE
8
Layer 1
10
16.871734
20
73.497249
11
14.771917
21
76.071947
0
LINE
8
Layer 1
10
14.771917
20
76.071947
11
12.244441
21
79.556335
0
LINE
8
Layer 1
10
12.244441
20
79.556335
11
9.966689
21
83.191396
0
LINE
8
Layer 1
10
9.966689
20
83.191396
11
7.944269
21
86.963525
0
LINE
8
Layer 1
10
7.944269
20
86.963525
11
6.182788
21
90.859116
0
LINE
8
Layer 1
10
6.182788
20
90.859116
11
4.687853
21
94.864564
0
LINE
8
Layer 1
10
4.687853
20
94.864564
11
3.465071
21
98.966265
0
LINE
8
Layer 1
10
3.465071
20
98.966265
11
2.520051
21
103.150612
0
LINE
8
Layer 1
10
2.520051
20
103.150612
11
1.858400
21
107.404000
0
LINE
8
Layer 1
10
1.858400
20
107.404000
11
1.593154
21
110.722968
0
LINE
8
Layer 1
10
1.593154
20
110.722968
11
1.506484
21
114.241147
0
LINE
8
Layer 1
10
1.506484
20
114.241147
11
1.751943
21
121.744700
0
LINE
8
Layer 1
10
1.751943
20
121.744700
11
0.908877
21
117.197170
0
LINE
8
Layer 1
10
0.908877
20
117.197170
11
0.385312
21
113.588837
0
LINE
8
Layer 1
10
0.385312
20
113.588837
11
0.110267
21
110.518761
0
LINE
8
Layer 1
10
0.110267
20
110.518761
11
0.012762
21
107.586000
0
LINE
8
Layer 1
10
0.012762
20
107.586000
11
0.091608
21
103.037313
0
LINE
8
Layer 1
10
0.091608
20
103.037313
11
0.508469
21
98.492158
0
LINE
8
Layer 1
10
0.508469
20
98.492158
11
1.250347
21
93.971839
0
LINE
8
Layer 1
10
1.250347
20
93.971839
11
2.304242
21
89.497663
0
LINE
8
Layer 1
10
2.304242
20
89.497663
11
3.657153
21
85.090935
0
LINE
8
Layer 1
10
3.657153
20
85.090935
11
5.296082
21
80.772961
0
LINE
8
Layer 1
10
5.296082
20
80.772961
11
7.208028
21
76.565047
0
LINE
8
Layer 1
10
7.208028
20
76.565047
11
9.379992
21
72.488500
0
LINE
8
Layer 1
10
9.379992
20
72.488500
11
12.126915
21
68.047284
0
LINE
8
Layer 1
10
12.126915
20
68.047284
11
15.202293
21
63.836364
0
LINE
8
Layer 1
10
15.202293
20
63.836364
11
18.591772
21
59.873887
0
LINE
8
Layer 1
10
18.591772
20
59.873887
11
22.281000
21
56.178000
0
LINE
8
Layer 1
10
22.281000
20
56.178000
11
26.435536
21
52.593097
0
LINE
8
Layer 1
10
26.435536
20
52.593097
11
30.832369
21
49.350108
0
LINE
8
Layer 1
10
30.832369
20
49.350108
11
35.450036
21
46.459279
0
LINE
8
Layer 1
10
35.450036
20
46.459279
11
40.267071
21
43.930859
0
LINE
8
Layer 1
10
40.267071
20
43.930859
11
45.262009
21
41.775093
0
LINE
8
Layer 1
10
45.262009
20
41.775093
11
50.413387
21
40.002230
0
LINE
8
Layer 1
10
50.413387
20
40.002230
11
55.699739
21
38.622517
0
LINE
8
Layer 1
10
55.699739
20
38.622517
11
61.099600
21
37.646200
0
LINE
8
Layer 1
10
61.099600
20
37.646200
11
66.222647
21
37.086172
0
LINE
8
Layer 1
10
66.222647
20
37.086172
11
71.353478
21
36.885896
0
LINE
8
Layer 1
10
71.353478
20
36.885896
11
76.473563
21
37.042858
0
LINE
8
Layer 1
10
76.473563
20
37.042858
11
81.564370
21
37.554541
0
LINE
8
Layer 1
10
81.564370
20
37.554541
11
86.607369
21
38.418430
0
LINE
8
Layer 1
10
86.607369
20
38.418430
11
91.584027
21
39.632010
0
LINE
8
Layer 1
10
91.584027
20
39.632010
11
96.475815
21
41.192765
0
LINE
8
Layer 1
10
96.475815
20
41.192765
11
101.264200
21
43.098180
0
LINE
8
Layer 1
10
101.264200
20
43.098180
11
99.482340
21
43.941846
0
LINE
8
Layer 1
10
99.482340
20
43.941846
11
96.345741
21
42.722111
0
LINE
8
Layer 1
10
96.345741
20
42.722111
11
93.161409
21
41.649678
0
LINE
8
Layer 1
10
93.161409
20
41.649678
11
89.934552
21
40.725658
0
LINE
8
Layer 1
10
89.934552
20
40.725658
11
86.670380
21
39.951160
0
LINE
8
Layer 1
10
86.670380
20
39.951160
11
83.374099
21
39.327295
0
LINE
8
Layer 1
10
83.374099
20
39.327295
11
80.050920
21
38.855173
0
LINE
8
Layer 1
10
80.050920
20
38.855173
11
76.706051
21
38.535905
0
LINE
8
Layer 1
10
76.706051
20
38.535905
11
73.344700
21
38.370600
0
LINE
8
Layer 1
10
73.344700
20
38.370600
11
73.344700
21
38.370600
0
LINE
8
Layer 1
10
78.218270
20
46.964010
11
80.462430
21
47.858391
0
LINE
8
Layer 1
10
80.462430
20
47.858391
11
80.712462
21
47.985955
0
LINE
8
Layer 1
10
80.712462
20
47.985955
11
81.336918
21
48.273587
0
LINE
8
Layer 1
10
81.336918
20
48.273587
11
83.247545
21
48.271168
0
LINE
8
Layer 1
10
83.247545
20
48.271168
11
85.150608
21
48.101299
0
LINE
8
Layer 1
10
85.150608
20
48.101299
11
83.422408
21
47.268039
0
LINE
8
Layer 1
10
83.422408
20
47.268039
11
83.421705
21
47.267841
0
LINE
8
Layer 1
10
83.421705
20
47.267841
11
83.220362
21
47.176148
0
LINE
8
Layer 1
10
83.220362
20
47.176148
11
83.215847
21
47.174313
0
LINE
8
Layer 1
10
83.215847
20
47.174313
11
81.009227
21
46.190927
0
LINE
8
Layer 1
10
81.009227
20
46.190927
11
79.512107
21
45.624603
0
LINE
8
Layer 1
10
79.512107
20
45.624603
11
75.127457
21
44.191433
0
LINE
8
Layer 1
10
75.127457
20
44.191433
11
75.110806
21
44.186599
0
LINE
8
Layer 1
10
75.110806
20
44.186599
11
75.101616
21
44.183822
0
LINE
8
Layer 1
10
75.101616
20
44.183822
11
72.354099
21
43.511628
0
LINE
8
Layer 1
10
72.354099
20
43.511628
11
69.576520
21
42.987892
0
LINE
8
Layer 1
10
69.576520
20
42.987892
11
66.774890
21
42.613581
0
LINE
8
Layer 1
10
66.774890
20
42.613581
11
63.955216
21
42.389662
0
LINE
8
Layer 1
10
63.955216
20
42.389662
11
61.127343
21
42.960137
0
LINE
8
Layer 1
10
61.127343
20
42.960137
11
58.349076
21
43.737022
0
LINE
8
Layer 1
10
58.349076
20
43.737022
11
61.171684
21
43.718571
0
LINE
8
Layer 1
10
61.171684
20
43.718571
11
63.991006
21
43.855976
0
LINE
8
Layer 1
10
63.991006
20
43.855976
11
69.441775
21
44.558125
0
LINE
8
Layer 1
10
69.441775
20
44.558125
11
74.791606
21
45.816376
0
LINE
8
Layer 1
10
74.791606
20
45.816376
11
78.218300
21
46.964000
0
LINE
8
Layer 1
10
78.218300
20
46.964000
11
78.218270
21
46.964010
0
LINE
8
Layer 1
10
13.994300
20
71.546900
11
15.304850
21
70.052350
0
LINE
8
Layer 1
10
15.304850
20
70.052350
11
16.984120
21
68.300680
0
LINE
8
Layer 1
10
16.984120
20
68.300680
11
17.000466
21
68.285090
0
LINE
8
Layer 1
10
17.000466
20
68.285090
11
17.002984
21
68.282683
0
LINE
8
Layer 1
10
17.002984
20
68.282683
11
18.089724
21
67.207583
0
LINE
8
Layer 1
10
18.089724
20
67.207583
11
20.460804
21
64.115693
0
LINE
8
Layer 1
10
20.460804
20
64.115693
11
18.761724
21
65.632233
0
LINE
8
Layer 1
10
18.761724
20
65.632233
11
18.708751
21
65.681974
0
LINE
8
Layer 1
10
18.708751
20
65.681974
11
18.322742
21
66.039428
0
LINE
8
Layer 1
10
18.322742
20
66.039428
11
16.339722
21
68.009598
0
LINE
8
Layer 1
10
16.339722
20
68.009598
11
12.774252
21
72.106988
0
LINE
8
Layer 1
10
12.774252
20
72.106988
11
12.732946
21
72.161900
0
LINE
8
Layer 1
10
12.732946
20
72.161900
11
9.599152
21
76.607313
0
LINE
8
Layer 1
10
9.599152
20
76.607313
11
6.913030
21
81.336700
0
LINE
8
Layer 1
10
6.913030
20
81.336700
11
5.010070
21
86.382140
0
LINE
8
Layer 1
10
5.010070
20
86.382140
11
7.002280
21
82.026630
0
LINE
8
Layer 1
10
7.002280
20
82.026630
11
9.815531
21
77.174526
0
LINE
8
Layer 1
10
9.815531
20
77.174526
11
13.101290
21
72.629080
0
LINE
8
Layer 1
10
13.101290
20
72.629080
11
13.994300
21
71.546900
0
LINE
8
Layer 1
10
13.994300
20
71.546900
11
13.994300
21
71.546900
0
LINE
8
Layer 1
10
4.119850
20
90.084900
11
6.294930
21
84.663240
0
LINE
8
Layer 1
10
6.294930
20
84.663240
11
8.531290
21
80.107930
0
LINE
8
Layer 1
10
8.531290
20
80.107930
11
9.814870
21
77.772970
0
LINE
8
Layer 1
10
9.814870
20
77.772970
11
11.246900
21
75.411920
0
LINE
8
Layer 1
10
11.246900
20
75.411920
11
8.926830
21
78.942750
0
LINE
8
Layer 1
10
8.926830
20
78.942750
11
6.819480
21
82.718570
0
LINE
8
Layer 1
10
6.819480
20
82.718570
11
6.144405
21
84.215160
0
LINE
8
Layer 1
10
6.144405
20
84.215160
11
4.021665
21
89.587070
0
LINE
8
Layer 1
10
4.021665
20
89.587070
11
3.856472
21
89.988457
0
LINE
8
Layer 1
10
3.856472
20
89.988457
11
3.201153
21
92.832517
0
LINE
8
Layer 1
10
3.201153
20
92.832517
11
4.119850
21
90.084900
0
LINE
8
Layer 1
10
4.119850
20
90.084900
11
4.119850
21
90.084900
0
LINE
8
Layer 1
10
10.653830
20
73.213700
11
9.069137
21
76.141898
0
LINE
8
Layer 1
10
9.069137
20
76.141898
11
7.633118
21
79.143516
0
LINE
8
Layer 1
10
7.633118
20
79.143516
11
6.348307
21
82.212902
0
LINE
8
Layer 1
10
6.348307
20
82.212902
11
5.217240
21
85.344400
0
LINE
8
Layer 1
10
5.217240
20
85.344400
11
6.625530
21
81.636410
0
LINE
8
Layer 1
10
6.625530
20
81.636410
11
7.066095
21
80.606860
0
LINE
8
Layer 1
10
7.066095
20
80.606860
11
8.535606
21
77.478798
0
LINE
8
Layer 1
10
8.535606
20
77.478798
11
10.162326
21
74.432099
0
LINE
8
Layer 1
10
10.162326
20
74.432099
11
11.942898
21
71.472680
0
LINE
8
Layer 1
10
11.942898
20
71.472680
11
13.873965
21
68.606460
0
LINE
8
Layer 1
10
13.873965
20
68.606460
11
17.249267
21
64.332989
0
LINE
8
Layer 1
10
17.249267
20
64.332989
11
20.963000
21
60.350100
0
LINE
8
Layer 1
10
20.963000
20
60.350100
11
25.049686
21
56.692428
0
LINE
8
Layer 1
10
25.049686
20
56.692428
11
29.453050
21
53.422880
0
LINE
8
Layer 1
10
29.453050
20
53.422880
11
34.026876
21
50.614052
0
LINE
8
Layer 1
10
34.026876
20
50.614052
11
38.833266
21
48.251415
0
LINE
8
Layer 1
10
38.833266
20
48.251415
11
43.839723
21
46.349093
0
LINE
8
Layer 1
10
43.839723
20
46.349093
11
49.013750
21
44.921210
0
LINE
8
Layer 1
10
49.013750
20
44.921210
11
50.985690
21
43.857830
0
LINE
8
Layer 1
10
50.985690
20
43.857830
11
53.032770
21
42.947450
0
LINE
8
Layer 1
10
53.032770
20
42.947450
11
49.978063
21
43.523350
0
LINE
8
Layer 1
10
49.978063
20
43.523350
11
46.965210
21
44.260838
0
LINE
8
Layer 1
10
46.965210
20
44.260838
11
44.000441
21
45.157469
0
LINE
8
Layer 1
10
44.000441
20
45.157469
11
41.089986
21
46.210799
0
LINE
8
Layer 1
10
41.089986
20
46.210799
11
38.240075
21
47.418382
0
LINE
8
Layer 1
10
38.240075
20
47.418382
11
35.456937
21
48.777774
0
LINE
8
Layer 1
10
35.456937
20
48.777774
11
32.746802
21
50.286528
0
LINE
8
Layer 1
10
32.746802
20
50.286528
11
30.115900
21
51.942200
0
LINE
8
Layer 1
10
30.115900
20
51.942200
11
29.998535
21
52.017502
0
LINE
8
Layer 1
10
29.998535
20
52.017502
11
29.853473
21
52.110782
0
LINE
8
Layer 1
10
29.853473
20
52.110782
11
29.617772
21
52.242880
0
LINE
8
Layer 1
10
29.617772
20
52.242880
11
29.292489
21
52.317841
0
LINE
8
Layer 1
10
29.292489
20
52.317841
11
29.379721
21
52.177337
0
LINE
8
Layer 1
10
29.379721
20
52.177337
11
26.257576
21
54.626283
0
LINE
8
Layer 1
10
26.257576
20
54.626283
11
23.280701
21
57.249897
0
LINE
8
Layer 1
10
23.280701
20
57.249897
11
19.669766
21
60.867138
0
LINE
8
Layer 1
10
19.669766
20
60.867138
11
16.352268
21
64.745365
0
LINE
8
Layer 1
10
16.352268
20
64.745365
11
13.342261
21
68.866809
0
LINE
8
Layer 1
10
13.342261
20
68.866809
11
10.653800
21
73.213700
0
LINE
8
Layer 1
10
10.653800
20
73.213700
11
10.653830
21
73.213700
0
LINE
8
Layer 1
10
69.066900
20
50.228100
11
67.907250
21
50.123257
0
LINE
8
Layer 1
10
67.907250
20
50.123257
11
67.495799
21
50.098932
0
LINE
8
Layer 1
10
67.495799
20
50.098932
11
67.166164
21
50.060550
0
LINE
8
Layer 1
10
67.166164
20
50.060550
11
67.067409
21
50.038280
0
LINE
8
Layer 1
10
67.067409
20
50.038280
11
66.890761
21
49.994775
0
LINE
8
Layer 1
10
66.890761
20
49.994775
11
66.806709
21
49.961380
0
LINE
8
Layer 1
10
66.806709
20
49.961380
11
66.697930
21
49.910016
0
LINE
8
Layer 1
10
66.697930
20
49.910016
11
66.649418
21
49.869094
0
LINE
8
Layer 1
10
66.649418
20
49.869094
11
66.608524
21
49.834643
0
LINE
8
Layer 1
10
66.608524
20
49.834643
11
66.611081
21
49.814887
0
LINE
8
Layer 1
10
66.611081
20
49.814887
11
66.597004
21
49.794330
0
LINE
8
Layer 1
10
66.597004
20
49.794330
11
66.618275
21
49.765984
0
LINE
8
Layer 1
10
66.618275
20
49.765984
11
66.653553
21
49.719079
0
LINE
8
Layer 1
10
66.653553
20
49.719079
11
66.725754
21
49.680149
0
LINE
8
Layer 1
10
66.725754
20
49.680149
11
66.820581
21
49.646367
0
LINE
8
Layer 1
10
66.820581
20
49.646367
11
66.947516
21
49.620512
0
LINE
8
Layer 1
10
66.947516
20
49.620512
11
67.086996
21
49.601886
0
LINE
8
Layer 1
10
67.086996
20
49.601886
11
67.257616
21
49.593419
0
LINE
8
Layer 1
10
67.257616
20
49.593419
11
67.358491
21
49.588311
0
LINE
8
Layer 1
10
67.358491
20
49.588311
11
72.354954
21
49.807658
0
LINE
8
Layer 1
10
72.354954
20
49.807658
11
77.386391
21
50.274314
0
LINE
8
Layer 1
10
77.386391
20
50.274314
11
82.365197
21
50.894478
0
LINE
8
Layer 1
10
82.365197
20
50.894478
11
86.663191
21
51.271040
0
LINE
8
Layer 1
10
86.663191
20
51.271040
11
87.256255
21
51.312225
0
LINE
8
Layer 1
10
87.256255
20
51.312225
11
84.142445
21
53.699145
0
LINE
8
Layer 1
10
84.142445
20
53.699145
11
78.726662
21
51.979323
0
LINE
8
Layer 1
10
78.726662
20
51.979323
11
73.173945
21
50.772755
0
LINE
8
Layer 1
10
73.173945
20
50.772755
11
69.066900
21
50.228100
0
LINE
8
Layer 1
10
69.066900
20
50.228100
11
69.066900
21
50.228100
0
LINE
8
Layer 1
10
76.080900
20
98.081700
11
79.844740
21
101.510600
0
LINE
8
Layer 1
10
79.844740
20
101.510600
11
84.184783
21
104.693163
0
LINE
8
Layer 1
10
84.184783
20
104.693163
11
88.817805
21
107.403575
0
LINE
8
Layer 1
10
88.817805
20
107.403575
11
93.705520
21
109.622014
0
LINE
8
Layer 1
10
93.705520
20
109.622014
11
98.809640
21
111.328660
0
LINE
8
Layer 1
10
98.809640
20
111.328660
11
103.059610
21
112.296990
0
LINE
8
Layer 1
10
103.059610
20
112.296990
11
107.366868
21
112.918055
0
LINE
8
Layer 1
10
107.366868
20
112.918055
11
111.710187
21
113.189666
0
LINE
8
Layer 1
10
111.710187
20
113.189666
11
116.068340
21
113.109630
0
LINE
8
Layer 1
10
116.068340
20
113.109630
11
116.040965
21
113.320427
0
LINE
8
Layer 1
10
116.040965
20
113.320427
11
116.029340
21
113.383947
0
LINE
8
Layer 1
10
116.029340
20
113.383947
11
115.824023
21
114.593627
0
LINE
8
Layer 1
10
115.824023
20
114.593627
11
111.427541
21
114.659047
0
LINE
8
Layer 1
10
111.427541
20
114.659047
11
107.047165
21
114.370687
0
LINE
8
Layer 1
10
107.047165
20
114.370687
11
102.704192
21
113.730811
0
LINE
8
Layer 1
10
102.704192
20
113.730811
11
98.419923
21
112.741687
0
LINE
8
Layer 1
10
98.419923
20
112.741687
11
95.234673
21
111.743519
0
LINE
8
Layer 1
10
95.234673
20
111.743519
11
95.014783
21
111.666692
0
LINE
8
Layer 1
10
95.014783
20
111.666692
11
94.159650
21
111.359262
0
LINE
8
Layer 1
10
94.159650
20
111.359262
11
91.482819
21
110.311024
0
LINE
8
Layer 1
10
91.482819
20
110.311024
11
88.872916
21
109.121120
0
LINE
8
Layer 1
10
88.872916
20
109.121120
11
86.335330
21
107.792956
0
LINE
8
Layer 1
10
86.335330
20
107.792956
11
83.875450
21
106.329939
0
LINE
8
Layer 1
10
83.875450
20
106.329939
11
81.498663
21
104.735474
0
LINE
8
Layer 1
10
81.498663
20
104.735474
11
79.210358
21
103.012969
0
LINE
8
Layer 1
10
79.210358
20
103.012969
11
77.015924
21
101.165830
0
LINE
8
Layer 1
10
77.015924
20
101.165830
11
74.920750
21
99.197462
0
LINE
8
Layer 1
10
74.920750
20
99.197462
11
72.647399
21
96.784284
0
LINE
8
Layer 1
10
72.647399
20
96.784284
11
70.530284
21
94.237082
0
LINE
8
Layer 1
10
70.530284
20
94.237082
11
68.575305
21
91.563420
0
LINE
8
Layer 1
10
68.575305
20
91.563420
11
66.788360
21
88.770862
0
LINE
8
Layer 1
10
66.788360
20
88.770862
11
65.265622
21
85.900221
0
LINE
8
Layer 1
10
65.265622
20
85.900221
11
63.923708
21
82.944107
0
LINE
8
Layer 1
10
63.923708
20
82.944107
11
62.766174
21
79.911045
0
LINE
8
Layer 1
10
62.766174
20
79.911045
11
61.796580
21
76.809562
0
LINE
8
Layer 1
10
61.796580
20
76.809562
11
61.389399
21
75.257662
0
LINE
8
Layer 1
10
61.389399
20
75.257662
11
61.032366
21
73.699682
0
LINE
8
Layer 1
10
61.032366
20
73.699682
11
60.463847
21
70.566762
0
LINE
8
Layer 1
10
60.463847
20
70.566762
11
60.149277
21
67.414172
0
LINE
8
Layer 1
10
60.149277
20
67.414172
11
60.071471
21
65.840872
0
LINE
8
Layer 1
10
60.071471
20
65.840872
11
60.035524
21
64.271392
0
LINE
8
Layer 1
10
60.035524
20
64.271392
11
60.287722
21
58.979283
0
LINE
8
Layer 1
10
60.287722
20
58.979283
11
61.096044
21
53.743192
0
LINE
8
Layer 1
10
61.096044
20
53.743192
11
62.916844
21
53.730862
0
LINE
8
Layer 1
10
62.916844
20
53.730862
11
63.245946
21
53.738101
0
LINE
8
Layer 1
10
63.245946
20
53.738101
11
62.335889
21
59.021512
0
LINE
8
Layer 1
10
62.335889
20
59.021512
11
62.019776
21
64.373401
0
LINE
8
Layer 1
10
62.019776
20
64.373401
11
62.039300
21
65.906331
0
LINE
8
Layer 1
10
62.039300
20
65.906331
11
62.041115
21
66.275847
0
LINE
8
Layer 1
10
62.041115
20
66.275847
11
62.095666
21
67.323357
0
LINE
8
Layer 1
10
62.095666
20
67.323357
11
62.102239
21
67.372071
0
LINE
8
Layer 1
10
62.102239
20
67.372071
11
62.374561
21
70.424871
0
LINE
8
Layer 1
10
62.374561
20
70.424871
11
62.899562
21
73.483561
0
LINE
8
Layer 1
10
62.899562
20
73.483561
11
63.186559
21
74.776191
0
LINE
8
Layer 1
10
63.186559
20
74.776191
11
63.611983
21
76.424671
0
LINE
8
Layer 1
10
63.611983
20
76.424671
11
65.056823
21
80.924471
0
LINE
8
Layer 1
10
65.056823
20
80.924471
11
66.551259
21
84.508595
0
LINE
8
Layer 1
10
66.551259
20
84.508595
11
68.320043
21
87.965571
0
LINE
8
Layer 1
10
68.320043
20
87.965571
11
70.019922
21
90.673078
0
LINE
8
Layer 1
10
70.019922
20
90.673078
11
71.883827
21
93.266558
0
LINE
8
Layer 1
10
71.883827
20
93.266558
11
73.906054
21
95.738576
0
LINE
8
Layer 1
10
73.906054
20
95.738576
11
76.080900
21
98.081700
0
LINE
8
Layer 1
10
76.080900
20
98.081700
11
76.080900
21
98.081700
0
LINE
8
Layer 1
10
51.108600
20
62.453000
11
52.044220
21
59.868930
0
LINE
8
Layer 1
10
52.044220
20
59.868930
11
53.964400
21
55.121460
0
LINE
8
Layer 1
10
53.964400
20
55.121460
11
54.354823
21
54.279798
0
LINE
8
Layer 1
10
54.354823
20
54.279798
11
57.576573
21
53.923450
0
LINE
8
Layer 1
10
57.576573
20
53.923450
11
57.462019
21
54.513760
0
LINE
8
Layer 1
10
57.462019
20
54.513760
11
57.283827
21
55.399937
0
LINE
8
Layer 1
10
57.283827
20
55.399937
11
57.181169
21
56.392986
0
LINE
8
Layer 1
10
57.181169
20
56.392986
11
56.932303
21
58.637267
0
LINE
8
Layer 1
10
56.932303
20
58.637267
11
56.796021
21
61.160766
0
LINE
8
Layer 1
10
56.796021
20
61.160766
11
56.743564
21
63.877736
0
LINE
8
Layer 1
10
56.743564
20
63.877736
11
56.873313
21
66.692686
0
LINE
8
Layer 1
10
56.873313
20
66.692686
11
57.580372
21
72.227063
0
LINE
8
Layer 1
10
57.580372
20
72.227063
11
58.088370
21
74.760534
0
LINE
8
Layer 1
10
58.088370
20
74.760534
11
58.689023
21
77.002486
0
LINE
8
Layer 1
10
58.689023
20
77.002486
11
59.221759
21
78.901156
0
LINE
8
Layer 1
10
59.221759
20
78.901156
11
59.730967
21
80.332026
0
LINE
8
Layer 1
10
59.730967
20
80.332026
11
60.192160
21
81.577166
0
LINE
8
Layer 1
10
60.192160
20
81.577166
11
60.246940
21
81.858022
0
LINE
8
Layer 1
10
60.246940
20
81.858022
11
60.240576
21
81.953664
0
LINE
8
Layer 1
10
60.240576
20
81.953664
11
60.219558
21
82.128159
0
LINE
8
Layer 1
10
60.219558
20
82.128159
11
60.182779
21
82.224470
0
LINE
8
Layer 1
10
60.182779
20
82.224470
11
60.116200
21
82.357620
0
LINE
8
Layer 1
10
60.116200
20
82.357620
11
60.047586
21
82.436019
0
LINE
8
Layer 1
10
60.047586
20
82.436019
11
59.989782
21
82.502104
0
LINE
8
Layer 1
10
59.989782
20
82.502104
11
59.945371
21
82.520366
0
LINE
8
Layer 1
10
59.945371
20
82.520366
11
59.906777
21
82.552706
0
LINE
8
Layer 1
10
59.906777
20
82.552706
11
59.836360
21
82.565855
0
LINE
8
Layer 1
10
59.836360
20
82.565855
11
59.719119
21
82.588794
0
LINE
8
Layer 1
10
59.719119
20
82.588794
11
59.604204
21
82.576094
0
LINE
8
Layer 1
10
59.604204
20
82.576094
11
59.490855
21
82.540559
0
LINE
8
Layer 1
10
59.490855
20
82.540559
11
59.381395
21
82.473246
0
LINE
8
Layer 1
10
59.381395
20
82.473246
11
59.282617
21
82.387919
0
LINE
8
Layer 1
10
59.282617
20
82.387919
11
59.192730
21
82.269518
0
LINE
8
Layer 1
10
59.192730
20
82.269518
11
59.139500
21
82.199810
0
LINE
8
Layer 1
10
59.139500
20
82.199810
11
57.094060
21
78.411200
0
LINE
8
Layer 1
10
57.094060
20
78.411200
11
56.035970
21
76.476990
0
LINE
8
Layer 1
10
56.035970
20
76.476990
11
55.024610
21
74.496760
0
LINE
8
Layer 1
10
55.024610
20
74.496760
11
53.862340
21
72.465780
0
LINE
8
Layer 1
10
53.862340
20
72.465780
11
52.704950
21
70.558720
0
LINE
8
Layer 1
10
52.704950
20
70.558720
11
50.056450
21
67.184620
0
LINE
8
Layer 1
10
50.056450
20
67.184620
11
48.071693
21
65.278754
0
LINE
8
Layer 1
10
48.071693
20
65.278754
11
45.824900
21
63.690200
0
LINE
8
Layer 1
10
45.824900
20
63.690200
11
44.594206
21
63.057695
0
LINE
8
Layer 1
10
44.594206
20
63.057695
11
43.282020
21
62.618560
0
LINE
8
Layer 1
10
43.282020
20
62.618560
11
41.812896
21
62.467333
0
LINE
8
Layer 1
10
41.812896
20
62.467333
11
40.504789
21
62.746335
0
LINE
8
Layer 1
10
40.504789
20
62.746335
11
39.405434
21
63.457441
0
LINE
8
Layer 1
10
39.405434
20
63.457441
11
38.562570
21
64.602530
0
LINE
8
Layer 1
10
38.562570
20
64.602530
11
38.185914
21
65.752510
0
LINE
8
Layer 1
10
38.185914
20
65.752510
11
38.059298
21
66.955960
0
LINE
8
Layer 1
10
38.059298
20
66.955960
11
38.201498
21
68.812070
0
LINE
8
Layer 1
10
38.201498
20
68.812070
11
38.465106
21
69.972645
0
LINE
8
Layer 1
10
38.465106
20
69.972645
11
38.889321
21
71.084610
0
LINE
8
Layer 1
10
38.889321
20
71.084610
11
40.467411
21
74.625200
0
LINE
8
Layer 1
10
40.467411
20
74.625200
11
42.310991
21
78.336330
0
LINE
8
Layer 1
10
42.310991
20
78.336330
11
42.513804
21
75.760360
0
LINE
8
Layer 1
10
42.513804
20
75.760360
11
42.790983
21
73.790640
0
LINE
8
Layer 1
10
42.790983
20
73.790640
11
43.151242
21
71.842070
0
LINE
8
Layer 1
10
43.151242
20
71.842070
11
41.906982
21
68.900060
0
LINE
8
Layer 1
10
41.906982
20
68.900060
11
41.893458
21
68.862095
0
LINE
8
Layer 1
10
41.893458
20
68.862095
11
41.870541
21
68.019098
0
LINE
8
Layer 1
10
41.870541
20
68.019098
11
42.059852
21
67.688892
0
LINE
8
Layer 1
10
42.059852
20
67.688892
11
42.406074
21
67.530764
0
LINE
8
Layer 1
10
42.406074
20
67.530764
11
43.455005
21
67.675192
0
LINE
8
Layer 1
10
43.455005
20
67.675192
11
44.438654
21
68.067045
0
LINE
8
Layer 1
10
44.438654
20
68.067045
11
44.771114
21
68.246498
0
LINE
8
Layer 1
10
44.771114
20
68.246498
11
44.648209
21
68.176615
0
LINE
8
Layer 1
10
44.648209
20
68.176615
11
46.572889
21
69.500145
0
LINE
8
Layer 1
10
46.572889
20
69.500145
11
47.998882
21
70.788179
0
LINE
8
Layer 1
10
47.998882
20
70.788179
11
49.261729
21
72.236525
0
LINE
8
Layer 1
10
49.261729
20
72.236525
11
50.816179
21
74.358995
0
LINE
8
Layer 1
10
50.816179
20
74.358995
11
52.225479
21
76.736635
0
LINE
8
Layer 1
10
52.225479
20
76.736635
11
56.825652
21
84.769164
0
LINE
8
Layer 1
10
56.825652
20
84.769164
11
61.521449
21
92.410035
0
LINE
8
Layer 1
10
61.521449
20
92.410035
11
64.359725
21
96.676663
0
LINE
8
Layer 1
10
64.359725
20
96.676663
11
67.340973
21
100.896926
0
LINE
8
Layer 1
10
67.340973
20
100.896926
11
70.511309
21
105.068269
0
LINE
8
Layer 1
10
70.511309
20
105.068269
11
73.916849
21
109.188135
0
LINE
8
Layer 1
10
73.916849
20
109.188135
11
75.085409
21
110.534205
0
LINE
8
Layer 1
10
75.085409
20
110.534205
11
76.279899
21
111.826495
0
LINE
8
Layer 1
10
76.279899
20
111.826495
11
78.722769
21
114.253095
0
LINE
8
Layer 1
10
78.722769
20
114.253095
11
80.599434
21
113.913874
0
LINE
8
Layer 1
10
80.599434
20
113.913874
11
82.498639
21
113.740775
0
LINE
8
Layer 1
10
82.498639
20
113.740775
11
80.535709
21
111.870485
0
LINE
8
Layer 1
10
80.535709
20
111.870485
11
78.708319
21
109.978275
0
LINE
8
Layer 1
10
78.708319
20
109.978275
11
76.973463
21
108.153375
0
LINE
8
Layer 1
10
76.973463
20
108.153375
11
75.373089
21
106.328235
0
LINE
8
Layer 1
10
75.373089
20
106.328235
11
72.086021
21
102.424469
0
LINE
8
Layer 1
10
72.086021
20
102.424469
11
68.786269
21
98.147915
0
LINE
8
Layer 1
10
68.786269
20
98.147915
11
68.735145
21
98.059337
0
LINE
8
Layer 1
10
68.735145
20
98.059337
11
68.658945
21
97.928008
0
LINE
8
Layer 1
10
68.658945
20
97.928008
11
68.622126
21
97.789826
0
LINE
8
Layer 1
10
68.622126
20
97.789826
11
68.603138
21
97.654506
0
LINE
8
Layer 1
10
68.603138
20
97.654506
11
68.613445
21
97.528237
0
LINE
8
Layer 1
10
68.613445
20
97.528237
11
68.639915
21
97.412176
0
LINE
8
Layer 1
10
68.639915
20
97.412176
11
68.698052
21
97.312168
0
LINE
8
Layer 1
10
68.698052
20
97.312168
11
68.737216
21
97.247313
0
LINE
8
Layer 1
10
68.737216
20
97.247313
11
68.769390
21
97.230019
0
LINE
8
Layer 1
10
68.769390
20
97.230019
11
68.793661
21
97.201447
0
LINE
8
Layer 1
10
68.793661
20
97.201447
11
68.873225
21
97.175764
0
LINE
8
Layer 1
10
68.873225
20
97.175764
11
68.958698
21
97.147971
0
LINE
8
Layer 1
10
68.958698
20
97.147971
11
69.087126
21
97.153438
0
LINE
8
Layer 1
10
69.087126
20
97.153438
11
69.178154
21
97.166925
0
LINE
8
Layer 1
10
69.178154
20
97.166925
11
69.322798
21
97.236499
0
LINE
8
Layer 1
10
69.322798
20
97.236499
11
69.407575
21
97.274446
0
LINE
8
Layer 1
10
69.407575
20
97.274446
11
69.633353
21
97.455037
0
LINE
8
Layer 1
10
69.633353
20
97.455037
11
70.709323
21
98.611367
0
LINE
8
Layer 1
10
70.709323
20
98.611367
11
73.653600
21
101.583000
0
LINE
8
Layer 1
10
73.653600
20
101.583000
11
75.733114
21
103.476982
0
LINE
8
Layer 1
10
75.733114
20
103.476982
11
78.216929
21
105.415080
0
LINE
8
Layer 1
10
78.216929
20
105.415080
11
81.002130
21
107.343517
0
LINE
8
Layer 1
10
81.002130
20
107.343517
11
83.985800
21
109.208520
0
LINE
8
Layer 1
10
83.985800
20
109.208520
11
86.867441
21
110.748432
0
LINE
8
Layer 1
10
86.867441
20
110.748432
11
89.832342
21
112.114444
0
LINE
8
Layer 1
10
89.832342
20
112.114444
11
92.872648
21
113.303215
0
LINE
8
Layer 1
10
92.872648
20
113.303215
11
95.980500
21
114.311400
0
LINE
8
Layer 1
10
95.980500
20
114.311400
11
98.345740
21
114.950816
0
LINE
8
Layer 1
10
98.345740
20
114.950816
11
100.194990
21
115.353488
0
LINE
8
Layer 1
10
100.194990
20
115.353488
11
101.817550
21
115.670624
0
LINE
8
Layer 1
10
101.817550
20
115.670624
11
102.108000
21
115.751000
0
LINE
8
Layer 1
10
102.108000
20
115.751000
11
102.193756
21
115.793311
0
LINE
8
Layer 1
10
102.193756
20
115.793311
11
102.345258
21
115.875401
0
LINE
8
Layer 1
10
102.345258
20
115.875401
11
102.415413
21
115.935771
0
LINE
8
Layer 1
10
102.415413
20
115.935771
11
102.505159
21
116.028692
0
LINE
8
Layer 1
10
102.505159
20
116.028692
11
102.541597
21
116.100422
0
LINE
8
Layer 1
10
102.541597
20
116.100422
11
102.572574
21
116.160817
0
LINE
8
Layer 1
10
102.572574
20
116.160817
11
102.566551
21
116.194560
0
LINE
8
Layer 1
10
102.566551
20
116.194560
11
102.576257
21
116.230086
0
LINE
8
Layer 1
10
102.576257
20
116.230086
11
102.551926
21
116.277127
0
LINE
8
Layer 1
10
102.551926
20
116.277127
11
102.512057
21
116.355452
0
LINE
8
Layer 1
10
102.512057
20
116.355452
11
102.440392
21
116.418455
0
LINE
8
Layer 1
10
102.440392
20
116.418455
11
102.348721
21
116.471377
0
LINE
8
Layer 1
10
102.348721
20
116.471377
11
102.229606
21
116.509277
0
LINE
8
Layer 1
10
102.229606
20
116.509277
11
102.100504
21
116.534022
0
LINE
8
Layer 1
10
102.100504
20
116.534022
11
101.943543
21
116.540000
0
LINE
8
Layer 1
10
101.943543
20
116.540000
11
101.851581
21
116.543719
0
LINE
8
Layer 1
10
101.851581
20
116.543719
11
92.726501
21
115.520169
0
LINE
8
Layer 1
10
92.726501
20
115.520169
11
88.503073
21
115.012939
0
LINE
8
Layer 1
10
88.503073
20
115.012939
11
84.252021
21
114.860675
0
LINE
8
Layer 1
10
84.252021
20
114.860675
11
81.605298
21
115.075970
0
LINE
8
Layer 1
10
81.605298
20
115.075970
11
79.311331
21
115.603867
0
LINE
8
Layer 1
10
79.311331
20
115.603867
11
78.168887
21
116.043404
0
LINE
8
Layer 1
10
78.168887
20
116.043404
11
77.136111
21
116.700477
0
LINE
8
Layer 1
10
77.136111
20
116.700477
11
76.428168
21
117.537884
0
LINE
8
Layer 1
10
76.428168
20
117.537884
11
76.148426
21
118.501029
0
LINE
8
Layer 1
10
76.148426
20
118.501029
11
76.317994
21
119.548723
0
LINE
8
Layer 1
10
76.317994
20
119.548723
11
76.957981
21
120.639777
0
LINE
8
Layer 1
10
76.957981
20
120.639777
11
77.635077
21
121.310066
0
LINE
8
Layer 1
10
77.635077
20
121.310066
11
78.756129
21
122.116136
0
LINE
8
Layer 1
10
78.756129
20
122.116136
11
80.396633
21
122.916066
0
LINE
8
Layer 1
10
80.396633
20
122.916066
11
82.632091
21
123.567937
0
LINE
8
Layer 1
10
82.632091
20
123.567937
11
86.722411
21
124.309075
0
LINE
8
Layer 1
10
86.722411
20
124.309075
11
91.144261
21
124.904637
0
LINE
8
Layer 1
10
91.144261
20
124.904637
11
88.198281
21
123.148937
0
LINE
8
Layer 1
10
88.198281
20
123.148937
11
87.012831
21
122.386018
0
LINE
8
Layer 1
10
87.012831
20
122.386018
11
85.859491
21
121.558825
0
LINE
8
Layer 1
10
85.859491
20
121.558825
11
85.743100
21
121.473648
0
LINE
8
Layer 1
10
85.743100
20
121.473648
11
84.073560
21
121.155132
0
LINE
8
Layer 1
10
84.073560
20
121.155132
11
82.446450
21
120.778896
0
LINE
8
Layer 1
10
82.446450
20
120.778896
11
81.923094
21
120.657672
0
LINE
8
Layer 1
10
81.923094
20
120.657672
11
81.986693
21
120.672100
0
LINE
8
Layer 1
10
81.986693
20
120.672100
11
81.344745
21
120.386285
0
LINE
8
Layer 1
10
81.344745
20
120.386285
11
81.033607
21
120.050637
0
LINE
8
Layer 1
10
81.033607
20
120.050637
11
81.020870
21
119.744408
0
LINE
8
Layer 1
10
81.020870
20
119.744408
11
81.444586
21
119.271240
0
LINE
8
Layer 1
10
81.444586
20
119.271240
11
82.403450
21
118.713068
0
LINE
8
Layer 1
10
82.403450
20
118.713068
11
82.806782
21
118.557301
0
LINE
8
Layer 1
10
82.806782
20
118.557301
11
82.829811
21
118.552221
0
LINE
8
Layer 1
10
82.829811
20
118.552221
11
84.879421
21
118.079903
0
LINE
8
Layer 1
10
84.879421
20
118.079903
11
86.714885
21
117.884235
0
LINE
8
Layer 1
10
86.714885
20
117.884235
11
88.560601
21
117.860823
0
LINE
8
Layer 1
10
88.560601
20
117.860823
11
93.481271
21
118.177284
0
LINE
8
Layer 1
10
93.481271
20
118.177284
11
97.997999
21
118.618983
0
LINE
8
Layer 1
10
97.997999
20
118.618983
11
102.465481
21
118.900015
0
LINE
8
Layer 1
10
102.465481
20
118.900015
11
106.897141
21
119.056586
0
LINE
8
Layer 1
10
106.897141
20
119.056586
11
111.310651
21
119.044651
0
LINE
8
Layer 1
10
111.310651
20
119.044651
11
114.835891
21
118.923899
0
LINE
8
Layer 1
10
114.835891
20
118.923899
11
113.134021
21
124.040799
0
LINE
8
Layer 1
10
113.134021
20
124.040799
11
107.895131
21
123.781857
0
LINE
8
Layer 1
10
107.895131
20
123.781857
11
103.117762
21
123.547928
0
LINE
8
Layer 1
10
103.117762
20
123.547928
11
98.007761
21
123.155112
0
LINE
8
Layer 1
10
98.007761
20
123.155112
11
99.896301
21
123.978012
0
LINE
8
Layer 1
10
99.896301
20
123.978012
11
101.860851
21
124.705394
0
LINE
8
Layer 1
10
101.860851
20
124.705394
11
105.956881
21
125.957144
0
LINE
8
Layer 1
10
105.956881
20
125.957144
11
107.549391
21
125.998529
0
LINE
8
Layer 1
10
107.549391
20
125.998529
11
111.150481
21
126.151409
0
LINE
8
Layer 1
10
111.150481
20
126.151409
11
112.201441
21
126.237086
0
LINE
8
Layer 1
10
112.201441
20
126.237086
11
111.213424
21
128.247386
0
LINE
8
Layer 1
10
111.213424
20
128.247386
11
109.393734
21
128.920598
0
LINE
8
Layer 1
10
109.393734
20
128.920598
11
107.171586
21
129.514129
0
LINE
8
Layer 1
10
107.171586
20
129.514129
11
104.914524
21
129.956728
0
LINE
8
Layer 1
10
104.914524
20
129.956728
11
103.762024
21
130.131514
0
LINE
8
Layer 1
10
103.762024
20
130.131514
11
100.759265
21
130.417780
0
LINE
8
Layer 1
10
100.759265
20
130.417780
11
97.429933
21
130.487714
0
LINE
8
Layer 1
10
97.429933
20
130.487714
11
93.688196
21
130.276130
0
LINE
8
Layer 1
10
93.688196
20
130.276130
11
89.448224
21
129.717844
0
LINE
8
Layer 1
10
89.448224
20
129.717844
11
83.934637
21
128.428532
0
LINE
8
Layer 1
10
83.934637
20
128.428532
11
78.579100
21
126.590000
0
LINE
8
Layer 1
10
78.579100
20
126.590000
11
73.430694
21
124.182536
0
LINE
8
Layer 1
10
73.430694
20
124.182536
11
68.540700
21
121.286000
0
LINE
8
Layer 1
10
68.540700
20
121.286000
11
66.228166
21
119.653853
0
LINE
8
Layer 1
10
66.228166
20
119.653853
11
64.016663
21
117.905951
0
LINE
8
Layer 1
10
64.016663
20
117.905951
11
61.914843
21
116.050485
0
LINE
8
Layer 1
10
61.914843
20
116.050485
11
59.931361
21
114.095646
0
LINE
8
Layer 1
10
59.931361
20
114.095646
11
58.074872
21
112.049627
0
LINE
8
Layer 1
10
58.074872
20
112.049627
11
56.354029
21
109.920619
0
LINE
8
Layer 1
10
56.354029
20
109.920619
11
54.777487
21
107.716812
0
LINE
8
Layer 1
10
54.777487
20
107.716812
11
53.353900
21
105.446400
0
LINE
8
Layer 1
10
53.353900
20
105.446400
11
51.158396
21
104.712003
0
LINE
8
Layer 1
10
51.158396
20
104.712003
11
48.661010
21
103.462980
0
LINE
8
Layer 1
10
48.661010
20
103.462980
11
50.165854
21
106.214444
0
LINE
8
Layer 1
10
50.165854
20
106.214444
11
51.874034
21
108.897645
0
LINE
8
Layer 1
10
51.874034
20
108.897645
11
53.776136
21
111.498846
0
LINE
8
Layer 1
10
53.776136
20
111.498846
11
55.862751
21
114.004307
0
LINE
8
Layer 1
10
55.862751
20
114.004307
11
58.124467
21
116.400290
0
LINE
8
Layer 1
10
58.124467
20
116.400290
11
60.551873
21
118.673056
0
LINE
8
Layer 1
10
60.551873
20
118.673056
11
63.135558
21
120.808865
0
LINE
8
Layer 1
10
63.135558
20
120.808865
11
65.866110
21
122.793980
0
LINE
8
Layer 1
10
65.866110
20
122.793980
11
65.980085
21
122.890782
0
LINE
8
Layer 1
10
65.980085
20
122.890782
11
66.120028
21
123.009730
0
LINE
8
Layer 1
10
66.120028
20
123.009730
11
66.312283
21
123.240376
0
LINE
8
Layer 1
10
66.312283
20
123.240376
11
66.440518
21
123.540499
0
LINE
8
Layer 1
10
66.440518
20
123.540499
11
66.368519
21
123.768348
0
LINE
8
Layer 1
10
66.368519
20
123.768348
11
65.873957
21
123.845749
0
LINE
8
Layer 1
10
65.873957
20
123.845749
11
65.173559
21
123.560350
0
LINE
8
Layer 1
10
65.173559
20
123.560350
11
65.101050
21
123.524824
0
LINE
8
Layer 1
10
65.101050
20
123.524824
11
59.732351
21
119.989518
0
LINE
8
Layer 1
10
59.732351
20
119.989518
11
54.683737
21
116.028276
0
LINE
8
Layer 1
10
54.683737
20
116.028276
11
49.980430
21
111.662633
0
LINE
8
Layer 1
10
49.980430
20
111.662633
11
45.647650
21
106.914124
0
LINE
8
Layer 1
10
45.647650
20
106.914124
11
41.664718
21
101.748046
0
LINE
8
Layer 1
10
41.664718
20
101.748046
11
38.124477
21
96.282115
0
LINE
8
Layer 1
10
38.124477
20
96.282115
11
35.043673
21
90.544663
0
LINE
8
Layer 1
10
35.043673
20
90.544663
11
32.439050
21
84.564024
0
LINE
8
Layer 1
10
32.439050
20
84.564024
11
32.402079
21
84.434930
0
LINE
8
Layer 1
10
32.402079
20
84.434930
11
32.336081
21
84.202362
0
LINE
8
Layer 1
10
32.336081
20
84.202362
11
32.316955
21
84.048156
0
LINE
8
Layer 1
10
32.316955
20
84.048156
11
32.312871
21
83.808056
0
LINE
8
Layer 1
10
32.312871
20
83.808056
11
32.326884
21
83.729198
0
LINE
8
Layer 1
10
32.326884
20
83.729198
11
32.423085
21
83.485135
0
LINE
8
Layer 1
10
32.423085
20
83.485135
11
32.534743
21
83.350947
0
LINE
8
Layer 1
10
32.534743
20
83.350947
11
32.962857
21
83.368328
0
LINE
8
Layer 1
10
32.962857
20
83.368328
11
33.415521
21
83.797504
0
LINE
8
Layer 1
10
33.415521
20
83.797504
11
33.454944
21
83.858060
0
LINE
8
Layer 1
10
33.454944
20
83.858060
11
33.563952
21
84.025169
0
LINE
8
Layer 1
10
33.563952
20
84.025169
11
35.044232
21
86.894759
0
LINE
8
Layer 1
10
35.044232
20
86.894759
11
35.909271
21
88.488399
0
LINE
8
Layer 1
10
35.909271
20
88.488399
11
36.953351
21
90.109559
0
LINE
8
Layer 1
10
36.953351
20
90.109559
11
39.281581
21
93.431409
0
LINE
8
Layer 1
10
39.281581
20
93.431409
11
42.065311
21
96.577569
0
LINE
8
Layer 1
10
42.065311
20
96.577569
11
43.348521
21
97.897279
0
LINE
8
Layer 1
10
43.348521
20
97.897279
11
44.676961
21
99.054249
0
LINE
8
Layer 1
10
44.676961
20
99.054249
11
47.209901
21
101.009479
0
LINE
8
Layer 1
10
47.209901
20
101.009479
11
47.294850
21
101.075019
0
LINE
8
Layer 1
10
47.294850
20
101.075019
11
48.884367
21
102.111255
0
LINE
8
Layer 1
10
48.884367
20
102.111255
11
50.577190
21
102.968399
0
LINE
8
Layer 1
10
50.577190
20
102.968399
11
51.927218
21
103.512681
0
LINE
8
Layer 1
10
51.927218
20
103.512681
11
53.330300
21
103.900209
0
LINE
8
Layer 1
10
53.330300
20
103.900209
11
54.820330
21
104.020015
0
LINE
8
Layer 1
10
54.820330
20
104.020015
11
55.764461
21
103.808480
0
LINE
8
Layer 1
10
55.764461
20
103.808480
11
56.455739
21
103.357486
0
LINE
8
Layer 1
10
56.455739
20
103.357486
11
56.894123
21
102.683930
0
LINE
8
Layer 1
10
56.894123
20
102.683930
11
57.079570
21
101.804705
0
LINE
8
Layer 1
10
57.079570
20
101.804705
11
57.057941
21
100.760375
0
LINE
8
Layer 1
10
57.057941
20
100.760375
11
56.837414
21
99.625604
0
LINE
8
Layer 1
10
56.837414
20
99.625604
11
55.933300
21
97.199535
0
LINE
8
Layer 1
10
55.933300
20
97.199535
11
54.781681
21
94.693262
0
LINE
8
Layer 1
10
54.781681
20
94.693262
11
53.480090
21
92.261495
0
LINE
8
Layer 1
10
53.480090
20
92.261495
11
51.057780
21
87.729415
0
LINE
8
Layer 1
10
51.057780
20
87.729415
11
48.472270
21
82.828625
0
LINE
8
Layer 1
10
48.472270
20
82.828625
11
48.530823
21
84.812542
0
LINE
8
Layer 1
10
48.530823
20
84.812542
11
48.691991
21
86.874705
0
LINE
8
Layer 1
10
48.691991
20
86.874705
11
48.901848
21
89.016975
0
LINE
8
Layer 1
10
48.901848
20
89.016975
11
49.298031
21
91.148365
0
LINE
8
Layer 1
10
49.298031
20
91.148365
11
49.493185
21
91.496768
0
LINE
8
Layer 1
10
49.493185
20
91.496768
11
50.593755
21
93.586368
0
LINE
8
Layer 1
10
50.593755
20
93.586368
11
52.274439
21
96.800032
0
LINE
8
Layer 1
10
52.274439
20
96.800032
11
53.019385
21
98.762928
0
LINE
8
Layer 1
10
53.019385
20
98.762928
11
53.010423
21
99.266411
0
LINE
8
Layer 1
10
53.010423
20
99.266411
11
52.663836
21
99.466618
0
LINE
8
Layer 1
10
52.663836
20
99.466618
11
51.604878
21
99.298971
0
LINE
8
Layer 1
10
51.604878
20
99.298971
11
50.611876
21
98.894687
0
LINE
8
Layer 1
10
50.611876
20
98.894687
11
50.544369
21
98.858506
0
LINE
8
Layer 1
10
50.544369
20
98.858506
11
48.960118
21
97.962239
0
LINE
8
Layer 1
10
48.960118
20
97.962239
11
47.462899
21
96.927116
0
LINE
8
Layer 1
10
47.462899
20
96.927116
11
46.580032
21
96.252577
0
LINE
8
Layer 1
10
46.580032
20
96.252577
11
45.725153
21
95.463719
0
LINE
8
Layer 1
10
45.725153
20
95.463719
11
43.921903
21
93.663159
0
LINE
8
Layer 1
10
43.921903
20
93.663159
11
43.557791
21
93.283551
0
LINE
8
Layer 1
10
43.557791
20
93.283551
11
42.516861
21
92.145481
0
LINE
8
Layer 1
10
42.516861
20
92.145481
11
41.554566
21
90.878661
0
LINE
8
Layer 1
10
41.554566
20
90.878661
11
39.575696
21
88.045941
0
LINE
8
Layer 1
10
39.575696
20
88.045941
11
38.609256
21
86.432538
0
LINE
8
Layer 1
10
38.609256
20
86.432538
11
37.671586
21
84.663081
0
LINE
8
Layer 1
10
37.671586
20
84.663081
11
35.795136
21
80.643081
0
LINE
8
Layer 1
10
35.795136
20
80.643081
11
34.353356
21
76.709151
0
LINE
8
Layer 1
10
34.353356
20
76.709151
11
33.287906
21
72.637631
0
LINE
8
Layer 1
10
33.287906
20
72.637631
11
32.520454
21
68.486341
0
LINE
8
Layer 1
10
32.520454
20
68.486341
11
32.236468
21
66.390531
0
LINE
8
Layer 1
10
32.236468
20
66.390531
11
32.107165
21
65.341081
0
LINE
8
Layer 1
10
32.107165
20
65.341081
11
32.054934
21
64.285271
0
LINE
8
Layer 1
10
32.054934
20
64.285271
11
31.983249
21
62.257261
0
LINE
8
Layer 1
10
31.983249
20
62.257261
11
36.524076
21
59.764828
0
LINE
8
Layer 1
10
36.524076
20
59.764828
11
41.264779
21
57.677471
0
LINE
8
Layer 1
10
41.264779
20
57.677471
11
45.446050
21
56.230762
0
LINE
8
Layer 1
10
45.446050
20
56.230762
11
49.726839
21
55.112351
0
LINE
8
Layer 1
10
49.726839
20
55.112351
11
49.679940
21
55.215862
0
LINE
8
Layer 1
10
49.679940
20
55.215862
11
48.227850
21
58.787382
0
LINE
8
Layer 1
10
48.227850
20
58.787382
11
46.964540
21
62.459122
0
LINE
8
Layer 1
10
46.964540
20
62.459122
11
48.634264
21
63.749926
0
LINE
8
Layer 1
10
48.634264
20
63.749926
11
50.188220
21
65.177992
0
LINE
8
Layer 1
10
50.188220
20
65.177992
11
50.602827
21
63.800332
0
LINE
8
Layer 1
10
50.602827
20
63.800332
11
51.108600
21
62.453000
0
LINE
8
Layer 1
10
51.108600
20
62.453000
11
51.108600
21
62.453000
0
LINE
8
Layer 1
10
94.088500
20
125.316000
11
94.150705
21
125.344479
0
LINE
8
Layer 1
10
94.150705
20
125.344479
11
96.666086
21
126.508414
0
LINE
8
Layer 1
10
96.666086
20
126.508414
11
99.242707
21
127.523282
0
LINE
8
Layer 1
10
99.242707
20
127.523282
11
101.873952
21
128.386695
0
LINE
8
Layer 1
10
101.873952
20
128.386695
11
104.553205
21
129.096269
0
LINE
8
Layer 1
10
104.553205
20
129.096269
11
107.622185
21
128.441124
0
LINE
8
Layer 1
10
107.622185
20
128.441124
11
109.957705
21
127.689223
0
LINE
8
Layer 1
10
109.957705
20
127.689223
11
107.647155
21
127.267247
0
LINE
8
Layer 1
10
107.647155
20
127.267247
11
105.241705
21
126.714504
0
LINE
8
Layer 1
10
105.241705
20
126.714504
11
102.563070
21
125.947346
0
LINE
8
Layer 1
10
102.563070
20
125.947346
11
99.936949
21
125.023504
0
LINE
8
Layer 1
10
99.936949
20
125.023504
11
97.370207
21
123.945625
0
LINE
8
Layer 1
10
97.370207
20
123.945625
11
94.869705
21
122.716354
0
LINE
8
Layer 1
10
94.869705
20
122.716354
11
93.655525
21
122.070912
0
LINE
8
Layer 1
10
93.655525
20
122.070912
11
91.978765
21
121.081309
0
LINE
8
Layer 1
10
91.978765
20
121.081309
11
89.991825
21
119.807749
0
LINE
8
Layer 1
10
89.991825
20
119.807749
11
89.974753
21
119.792413
0
LINE
8
Layer 1
10
89.974753
20
119.792413
11
89.971953
21
119.790658
0
LINE
8
Layer 1
10
89.971953
20
119.790658
11
88.760313
21
118.928775
0
LINE
8
Layer 1
10
88.760313
20
118.928775
11
86.726377
21
119.047623
0
LINE
8
Layer 1
10
86.726377
20
119.047623
11
84.727053
21
119.439701
0
LINE
8
Layer 1
10
84.727053
20
119.439701
11
86.536943
21
120.763471
0
LINE
8
Layer 1
10
86.536943
20
120.763471
11
86.595053
21
120.805129
0
LINE
8
Layer 1
10
86.595053
20
120.805129
11
87.016800
21
121.116155
0
LINE
8
Layer 1
10
87.016800
20
121.116155
11
89.332740
21
122.652605
0
LINE
8
Layer 1
10
89.332740
20
122.652605
11
91.659980
21
124.033235
0
LINE
8
Layer 1
10
91.659980
20
124.033235
11
94.088500
21
125.316000
0
LINE
8
Layer 1
10
94.088500
20
125.316000
11
94.088500
21
125.316000
0
LINE
8
Layer 1
10
43.642000
20
78.739200
11
43.553735
21
79.932430
0
LINE
8
Layer 1
10
43.553735
20
79.932430
11
43.552606
21
81.116920
0
LINE
8
Layer 1
10
43.552606
20
81.116920
11
43.553013
21
81.134658
0
LINE
8
Layer 1
10
43.553013
20
81.134658
11
43.552857
21
81.144067
0
LINE
8
Layer 1
10
43.552857
20
81.144067
11
43.611550
21
84.361109
0
LINE
8
Layer 1
10
43.611550
20
84.361109
11
43.866369
21
87.339547
0
LINE
8
Layer 1
10
43.866369
20
87.339547
11
44.246568
21
90.131847
0
LINE
8
Layer 1
10
44.246568
20
90.131847
11
44.782253
21
92.747237
0
LINE
8
Layer 1
10
44.782253
20
92.747237
11
47.196676
21
95.057033
0
LINE
8
Layer 1
10
47.196676
20
95.057033
11
49.407593
21
96.663157
0
LINE
8
Layer 1
10
49.407593
20
96.663157
11
48.604840
21
93.974158
0
LINE
8
Layer 1
10
48.604840
20
93.974158
11
47.974023
21
91.094727
0
LINE
8
Layer 1
10
47.974023
20
91.094727
11
47.537953
21
88.344962
0
LINE
8
Layer 1
10
47.537953
20
88.344962
11
47.264976
21
85.576677
0
LINE
8
Layer 1
10
47.264976
20
85.576677
11
47.155593
21
82.797117
0
LINE
8
Layer 1
10
47.155593
20
82.797117
11
47.210302
21
80.013527
0
LINE
8
Layer 1
10
47.210302
20
80.013527
11
47.527209
21
76.400517
0
LINE
8
Layer 1
10
47.527209
20
76.400517
11
47.839700
21
74.024900
0
LINE
8
Layer 1
10
47.839700
20
74.024900
11
47.931592
21
73.743093
0
LINE
8
Layer 1
10
47.931592
20
73.743093
11
48.080998
21
73.066988
0
LINE
8
Layer 1
10
48.080998
20
73.066988
11
46.601775
21
71.512661
0
LINE
8
Layer 1
10
46.601775
20
71.512661
11
44.884617
21
70.226038
0
LINE
8
Layer 1
10
44.884617
20
70.226038
11
44.514427
21
72.122398
0
LINE
8
Layer 1
10
44.514427
20
72.122398
11
44.514799
21
72.123555
0
LINE
8
Layer 1
10
44.514799
20
72.123555
11
44.470030
21
72.344746
0
LINE
8
Layer 1
10
44.470030
20
72.344746
11
44.469604
21
72.349349
0
LINE
8
Layer 1
10
44.469604
20
72.349349
11
44.007471
21
74.784799
0
LINE
8
Layer 1
10
44.007471
20
74.784799
11
43.845820
21
76.398619
0
LINE
8
Layer 1
10
43.845820
20
76.398619
11
43.642000
21
78.739200
0
LINE
8
Layer 1
10
43.642000
20
78.739200
11
43.642000
21
78.739200
0
LINE
8
Layer 1
10
23.637600
20
71.315900
11
23.190919
21
68.765290
0
LINE
8
Layer 1
10
23.190919
20
68.765290
11
24.652139
21
67.508150
0
LINE
8
Layer 1
10
24.652139
20
67.508150
11
24.714665
21
67.948159
0
LINE
8
Layer 1
10
24.714665
20
67.948159
11
25.180659
21
70.613669
0
LINE
8
Layer 1
10
25.180659
20
70.613669
11
25.722020
21
73.256989
0
LINE
8
Layer 1
10
25.722020
20
73.256989
11
27.058750
21
78.471889
0
LINE
8
Layer 1
10
27.058750
20
78.471889
11
28.768850
21
83.557489
0
LINE
8
Layer 1
10
28.768850
20
83.557489
11
29.738404
21
86.049259
0
LINE
8
Layer 1
10
29.738404
20
86.049259
11
30.785164
21
88.506429
0
LINE
8
Layer 1
10
30.785164
20
88.506429
11
33.087190
21
93.282162
0
LINE
8
Layer 1
10
33.087190
20
93.282162
11
35.680531
21
97.900255
0
LINE
8
Layer 1
10
35.680531
20
97.900255
11
38.557164
21
102.347411
0
LINE
8
Layer 1
10
38.557164
20
102.347411
11
41.709064
21
106.610329
0
LINE
8
Layer 1
10
41.709064
20
106.610329
11
45.128527
21
110.574138
0
LINE
8
Layer 1
10
45.128527
20
110.574138
11
48.787413
21
114.310813
0
LINE
8
Layer 1
10
48.787413
20
114.310813
11
52.674449
21
117.809546
0
LINE
8
Layer 1
10
52.674449
20
117.809546
11
56.778364
21
121.059529
0
LINE
8
Layer 1
10
56.778364
20
121.059529
11
60.191145
21
123.454309
0
LINE
8
Layer 1
10
60.191145
20
123.454309
11
63.717947
21
125.661459
0
LINE
8
Layer 1
10
63.717947
20
125.661459
11
67.350915
21
127.677397
0
LINE
8
Layer 1
10
67.350915
20
127.677397
11
71.082192
21
129.498541
0
LINE
8
Layer 1
10
71.082192
20
129.498541
11
74.903921
21
131.121308
0
LINE
8
Layer 1
10
74.903921
20
131.121308
11
78.808247
21
132.542117
0
LINE
8
Layer 1
10
78.808247
20
132.542117
11
82.787314
21
133.757384
0
LINE
8
Layer 1
10
82.787314
20
133.757384
11
86.833264
21
134.763529
0
LINE
8
Layer 1
10
86.833264
20
134.763529
11
86.862838
21
134.770150
0
LINE
8
Layer 1
10
86.862838
20
134.770150
11
87.341690
21
134.871852
0
LINE
8
Layer 1
10
87.341690
20
134.871852
11
90.790645
21
135.519868
0
LINE
8
Layer 1
10
90.790645
20
135.519868
11
94.263030
21
136.013802
0
LINE
8
Layer 1
10
94.263030
20
136.013802
11
100.052088
21
136.453637
0
LINE
8
Layer 1
10
100.052088
20
136.453637
11
105.857830
21
136.454856
0
LINE
8
Layer 1
10
105.857830
20
136.454856
11
104.586280
21
137.957566
0
LINE
8
Layer 1
10
104.586280
20
137.957566
11
99.331276
21
137.890144
0
LINE
8
Layer 1
10
99.331276
20
137.890144
11
94.092680
21
137.469745
0
LINE
8
Layer 1
10
94.092680
20
137.469745
11
89.147855
21
136.722328
0
LINE
8
Layer 1
10
89.147855
20
136.722328
11
84.263508
21
135.671047
0
LINE
8
Layer 1
10
84.263508
20
135.671047
11
79.453622
21
134.319367
0
LINE
8
Layer 1
10
79.453622
20
134.319367
11
74.732180
21
132.670755
0
LINE
8
Layer 1
10
74.732180
20
132.670755
11
69.851017
21
130.609895
0
LINE
8
Layer 1
10
69.851017
20
130.609895
11
65.122694
21
128.232060
0
LINE
8
Layer 1
10
65.122694
20
128.232060
11
60.562614
21
125.545647
0
LINE
8
Layer 1
10
60.562614
20
125.545647
11
56.186180
21
122.559055
0
LINE
8
Layer 1
10
56.186180
20
122.559055
11
55.899064
21
122.353803
0
LINE
8
Layer 1
10
55.899064
20
122.353803
11
51.713108
21
119.060581
0
LINE
8
Layer 1
10
51.713108
20
119.060581
11
47.748054
21
115.512465
0
LINE
8
Layer 1
10
47.748054
20
115.512465
11
44.015505
21
111.720517
0
LINE
8
Layer 1
10
44.015505
20
111.720517
11
40.527064
21
107.695803
0
LINE
8
Layer 1
10
40.527064
20
107.695803
11
37.304622
21
103.367729
0
LINE
8
Layer 1
10
37.304622
20
103.367729
11
34.362930
21
98.850471
0
LINE
8
Layer 1
10
34.362930
20
98.850471
11
31.710264
21
94.157652
0
LINE
8
Layer 1
10
31.710264
20
94.157652
11
29.354900
21
89.302900
0
LINE
8
Layer 1
10
29.354900
20
89.302900
11
28.294080
21
86.829200
0
LINE
8
Layer 1
10
28.294080
20
86.829200
11
27.293640
21
84.267420
0
LINE
8
Layer 1
10
27.293640
20
84.267420
11
25.543080
21
79.128610
0
LINE
8
Layer 1
10
25.543080
20
79.128610
11
24.168600
21
73.831500
0
LINE
8
Layer 1
10
24.168600
20
73.831500
11
23.637600
21
71.315900
0
LINE
8
Layer 1
10
23.637600
20
71.315900
11
23.637600
21
71.315900
 0 
ENDSEC
 0 
EOF