999
"DXF R12 Output" (www.mydxf.blogspot.com)
 0 
SECTION
 2 
HEADER
 9 
$ACADVER
 1 
AC1009
 9 
$EXTMIN
 10 
 0 
 20 
 0 
 9 
$EXTMAX
 10 
 8.5 
 20 
 11 
 0 
ENDSEC
 0 
SECTION
 2 
ENTITIES
0
LINE
8
Layer 1
10
186.957000
20
12.439900
11
186.193237
21
13.794430
0
LINE
8
Layer 1
10
186.193237
20
13.794430
11
185.800624
21
14.468043
0
LINE
8
Layer 1
10
185.800624
20
14.468043
11
185.433171
21
15.152564
0
LINE
8
Layer 1
10
185.433171
20
15.152564
11
183.965181
21
17.895834
0
LINE
8
Layer 1
10
183.965181
20
17.895834
11
181.014701
21
23.375154
0
LINE
8
Layer 1
10
181.014701
20
23.375154
11
177.971798
21
28.835813
0
LINE
8
Layer 1
10
177.971798
20
28.835813
11
174.697821
21
34.189754
0
LINE
8
Layer 1
10
174.697821
20
34.189754
11
171.154403
21
39.360169
0
LINE
8
Layer 1
10
171.154403
20
39.360169
11
167.365031
21
44.355854
0
LINE
8
Layer 1
10
167.365031
20
44.355854
11
163.323081
21
49.150744
0
LINE
8
Layer 1
10
163.323081
20
49.150744
11
159.005581
21
53.698844
0
LINE
8
Layer 1
10
159.005581
20
53.698844
11
158.063278
21
54.619777
0
LINE
8
Layer 1
10
158.063278
20
54.619777
11
158.200658
21
55.580636
0
LINE
8
Layer 1
10
158.200658
20
55.580636
11
158.641452
21
59.936248
0
LINE
8
Layer 1
10
158.641452
20
59.936248
11
158.787640
21
64.311666
0
LINE
8
Layer 1
10
158.787640
20
64.311666
11
158.606213
21
69.124740
0
LINE
8
Layer 1
10
158.606213
20
69.124740
11
158.073103
21
73.863233
0
LINE
8
Layer 1
10
158.073103
20
73.863233
11
157.198736
21
78.511413
0
LINE
8
Layer 1
10
157.198736
20
78.511413
11
155.993538
21
83.053549
0
LINE
8
Layer 1
10
155.993538
20
83.053549
11
154.467936
21
87.473908
0
LINE
8
Layer 1
10
154.467936
20
87.473908
11
152.632353
21
91.756759
0
LINE
8
Layer 1
10
152.632353
20
91.756759
11
150.497218
21
95.886371
0
LINE
8
Layer 1
10
150.497218
20
95.886371
11
148.072954
21
99.847012
0
LINE
8
Layer 1
10
148.072954
20
99.847012
11
145.369989
21
103.622949
0
LINE
8
Layer 1
10
145.369989
20
103.622949
11
142.398747
21
107.198452
0
LINE
8
Layer 1
10
142.398747
20
107.198452
11
139.169655
21
110.557788
0
LINE
8
Layer 1
10
139.169655
20
110.557788
11
135.693138
21
113.685227
0
LINE
8
Layer 1
10
135.693138
20
113.685227
11
131.979622
21
116.565035
0
LINE
8
Layer 1
10
131.979622
20
116.565035
11
128.039533
21
119.181483
0
LINE
8
Layer 1
10
128.039533
20
119.181483
11
123.883297
21
121.518837
0
LINE
8
Layer 1
10
123.883297
20
121.518837
11
119.521340
21
123.561366
0
LINE
8
Layer 1
10
119.521340
20
123.561366
11
119.409114
21
123.607628
0
LINE
8
Layer 1
10
119.409114
20
123.607628
11
118.515712
21
123.976492
0
LINE
8
Layer 1
10
118.515712
20
123.976492
11
117.995131
21
125.969542
0
LINE
8
Layer 1
10
117.995131
20
125.969542
11
116.781129
21
130.058524
0
LINE
8
Layer 1
10
116.781129
20
130.058524
11
115.412035
21
134.096574
0
LINE
8
Layer 1
10
115.412035
20
134.096574
11
113.889439
21
138.079283
0
LINE
8
Layer 1
10
113.889439
20
138.079283
11
112.214931
21
142.002242
0
LINE
8
Layer 1
10
112.214931
20
142.002242
11
110.410361
21
145.861614
0
LINE
8
Layer 1
10
110.410361
20
145.861614
11
108.472021
21
149.657462
0
LINE
8
Layer 1
10
108.472021
20
149.657462
11
104.260771
21
157.042502
0
LINE
8
Layer 1
10
104.260771
20
157.042502
11
95.350051
21
171.365902
0
LINE
8
Layer 1
10
95.350051
20
171.365902
11
94.202500
21
173.241000
0
LINE
8
Layer 1
10
94.202500
20
173.241000
11
93.082100
21
171.362000
0
LINE
8
Layer 1
10
93.082100
20
171.362000
11
89.874100
21
165.987000
0
LINE
8
Layer 1
10
89.874100
20
165.987000
11
86.675110
21
160.597740
0
LINE
8
Layer 1
10
86.675110
20
160.597740
11
83.556734
21
155.135946
0
LINE
8
Layer 1
10
83.556734
20
155.135946
11
80.624770
21
149.547140
0
LINE
8
Layer 1
10
80.624770
20
149.547140
11
77.958259
21
143.827643
0
LINE
8
Layer 1
10
77.958259
20
143.827643
11
75.552500
21
137.998000
0
LINE
8
Layer 1
10
75.552500
20
137.998000
11
73.422140
21
132.057208
0
LINE
8
Layer 1
10
73.422140
20
132.057208
11
71.595210
21
126.016200
0
LINE
8
Layer 1
10
71.595210
20
126.016200
11
71.131579
21
124.251290
0
LINE
8
Layer 1
10
71.131579
20
124.251290
11
70.223005
21
123.891398
0
LINE
8
Layer 1
10
70.223005
20
123.891398
11
69.440595
21
123.565979
0
LINE
8
Layer 1
10
69.440595
20
123.565979
11
65.074075
21
121.527806
0
LINE
8
Layer 1
10
65.074075
20
121.527806
11
60.913568
21
119.193862
0
LINE
8
Layer 1
10
60.913568
20
119.193862
11
56.969548
21
116.579949
0
LINE
8
Layer 1
10
56.969548
20
116.579949
11
53.252490
21
113.701868
0
LINE
8
Layer 1
10
53.252490
20
113.701868
11
49.772869
21
110.575421
0
LINE
8
Layer 1
10
49.772869
20
110.575421
11
46.541158
21
107.216410
0
LINE
8
Layer 1
10
46.541158
20
107.216410
11
43.567832
21
103.640637
0
LINE
8
Layer 1
10
43.567832
20
103.640637
11
40.863366
21
99.863904
0
LINE
8
Layer 1
10
40.863366
20
99.863904
11
38.438234
21
95.902013
0
LINE
8
Layer 1
10
38.438234
20
95.902013
11
36.302909
21
91.770765
0
LINE
8
Layer 1
10
36.302909
20
91.770765
11
34.467868
21
87.485963
0
LINE
8
Layer 1
10
34.467868
20
87.485963
11
32.943583
21
83.063408
0
LINE
8
Layer 1
10
32.943583
20
83.063408
11
31.740529
21
78.518903
0
LINE
8
Layer 1
10
31.740529
20
78.518903
11
30.869181
21
73.868248
0
LINE
8
Layer 1
10
30.869181
20
73.868248
11
30.340013
21
69.127247
0
LINE
8
Layer 1
10
30.340013
20
69.127247
11
30.163500
21
64.311700
0
LINE
8
Layer 1
10
30.163500
20
64.311700
11
30.277599
21
60.445544
0
LINE
8
Layer 1
10
30.277599
20
60.445544
11
30.621019
21
56.592980
0
LINE
8
Layer 1
10
30.621019
20
56.592980
11
30.748459
21
55.594035
0
LINE
8
Layer 1
10
30.748459
20
55.594035
11
28.614339
21
53.489905
0
LINE
8
Layer 1
10
28.614339
20
53.489905
11
24.304521
21
48.816375
0
LINE
8
Layer 1
10
24.304521
20
48.816375
11
20.269279
21
43.903815
0
LINE
8
Layer 1
10
20.269279
20
43.903815
11
16.497479
21
38.793705
0
LINE
8
Layer 1
10
16.497479
20
38.793705
11
12.988689
21
33.505235
0
LINE
8
Layer 1
10
12.988689
20
33.505235
11
9.728489
21
28.051155
0
LINE
8
Layer 1
10
9.728489
20
28.051155
11
6.742000
21
22.481800
0
LINE
8
Layer 1
10
6.742000
20
22.481800
11
0.945660
21
11.310600
0
LINE
8
Layer 1
10
0.945660
20
11.310600
11
0.000000
21
9.462440
0
LINE
8
Layer 1
10
0.000000
20
9.462440
11
2.093050
21
9.381442
0
LINE
8
Layer 1
10
2.093050
20
9.381442
11
14.625950
21
8.902285
0
LINE
8
Layer 1
10
14.625950
20
8.902285
11
20.901440
21
8.668162
0
LINE
8
Layer 1
10
20.901440
20
8.668162
11
27.252560
21
8.599735
0
LINE
8
Layer 1
10
27.252560
20
8.599735
11
33.592870
21
8.871678
0
LINE
8
Layer 1
10
33.592870
20
8.871678
11
39.906180
21
9.500350
0
LINE
8
Layer 1
10
39.906180
20
9.500350
11
46.174826
21
10.485284
0
LINE
8
Layer 1
10
46.174826
20
10.485284
11
52.372480
21
11.847310
0
LINE
8
Layer 1
10
52.372480
20
11.847310
11
55.434570
21
12.674045
0
LINE
8
Layer 1
10
55.434570
20
12.674045
11
55.931185
21
12.822418
0
LINE
8
Layer 1
10
55.931185
20
12.822418
11
56.743846
21
12.224531
0
LINE
8
Layer 1
10
56.743846
20
12.224531
11
61.049815
21
9.356828
0
LINE
8
Layer 1
10
61.049815
20
9.356828
11
65.518569
21
6.871168
0
LINE
8
Layer 1
10
65.518569
20
6.871168
11
70.126877
21
4.767561
0
LINE
8
Layer 1
10
70.126877
20
4.767561
11
74.851507
21
3.046015
0
LINE
8
Layer 1
10
74.851507
20
3.046015
11
79.669228
21
1.706543
0
LINE
8
Layer 1
10
79.669228
20
1.706543
11
84.556808
21
0.749152
0
LINE
8
Layer 1
10
84.556808
20
0.749152
11
89.491016
21
0.173855
0
LINE
8
Layer 1
10
89.491016
20
0.173855
11
94.448620
21
-0.019341
0
LINE
8
Layer 1
10
94.448620
20
-0.019341
11
99.406390
21
0.169577
0
LINE
8
Layer 1
10
99.406390
20
0.169577
11
104.341092
21
0.740616
0
LINE
8
Layer 1
10
104.341092
20
0.740616
11
109.229496
21
1.693789
0
LINE
8
Layer 1
10
109.229496
20
1.693789
11
114.048371
21
3.029104
0
LINE
8
Layer 1
10
114.048371
20
3.029104
11
118.774485
21
4.746572
0
LINE
8
Layer 1
10
118.774485
20
4.746572
11
123.384607
21
6.846202
0
LINE
8
Layer 1
10
123.384607
20
6.846202
11
127.855504
21
9.328005
0
LINE
8
Layer 1
10
127.855504
20
9.328005
11
132.163946
21
12.191991
0
LINE
8
Layer 1
10
132.163946
20
12.191991
11
133.003348
21
12.810018
0
LINE
8
Layer 1
10
133.003348
20
12.810018
11
135.196568
21
12.207559
0
LINE
8
Layer 1
10
135.196568
20
12.207559
11
139.354257
21
11.218455
0
LINE
8
Layer 1
10
139.354257
20
11.218455
11
143.547038
21
10.406329
0
LINE
8
Layer 1
10
143.547038
20
10.406329
11
147.764663
21
9.752945
0
LINE
8
Layer 1
10
147.764663
20
9.752945
11
152.003838
21
9.257169
0
LINE
8
Layer 1
10
152.003838
20
9.257169
11
156.254668
21
8.911261
0
LINE
8
Layer 1
10
156.254668
20
8.911261
11
158.387378
21
8.797808
0
LINE
8
Layer 1
10
158.387378
20
8.797808
11
160.512788
21
8.720411
0
LINE
8
Layer 1
10
160.512788
20
8.720411
11
164.792048
21
8.677381
0
LINE
8
Layer 1
10
164.792048
20
8.677381
11
169.063268
21
8.830260
0
LINE
8
Layer 1
10
169.063268
20
8.830260
11
177.539848
21
9.534305
0
LINE
8
Layer 1
10
177.539848
20
9.534305
11
185.940768
21
10.507220
0
LINE
8
Layer 1
10
185.940768
20
10.507220
11
187.914998
21
10.746798
0
LINE
8
Layer 1
10
187.914998
20
10.746798
11
186.957000
21
12.439900
0
LINE
8
Layer 1
10
138.040000
20
107.876000
11
140.149827
21
105.664245
0
LINE
8
Layer 1
10
140.149827
20
105.664245
11
142.138548
21
103.360636
0
LINE
8
Layer 1
10
142.138548
20
103.360636
11
145.744252
21
98.498190
0
LINE
8
Layer 1
10
145.744252
20
98.498190
11
148.840265
21
93.329329
0
LINE
8
Layer 1
10
148.840265
20
93.329329
11
151.409742
21
87.894718
0
LINE
8
Layer 1
10
151.409742
20
87.894718
11
153.435840
21
82.235023
0
LINE
8
Layer 1
10
153.435840
20
82.235023
11
154.901712
21
76.390912
0
LINE
8
Layer 1
10
154.901712
20
76.390912
11
155.790514
21
70.403048
0
LINE
8
Layer 1
10
155.790514
20
70.403048
11
156.013249
21
67.367918
0
LINE
8
Layer 1
10
156.013249
20
67.367918
11
156.085400
21
64.312100
0
LINE
8
Layer 1
10
156.085400
20
64.312100
11
155.975121
21
60.590595
0
LINE
8
Layer 1
10
155.975121
20
60.590595
11
155.643000
21
56.882300
0
LINE
8
Layer 1
10
155.643000
20
56.882300
11
154.416090
21
57.971300
0
LINE
8
Layer 1
10
154.416090
20
57.971300
11
149.549260
21
61.925030
0
LINE
8
Layer 1
10
149.549260
20
61.925030
11
145.942410
21
64.484570
0
LINE
8
Layer 1
10
145.942410
20
64.484570
11
146.177000
21
64.484600
0
LINE
8
Layer 1
10
146.177000
20
64.484600
11
146.167853
21
65.245188
0
LINE
8
Layer 1
10
146.167853
20
65.245188
11
146.005105
21
68.517601
0
LINE
8
Layer 1
10
146.005105
20
68.517601
11
145.636505
21
71.763340
0
LINE
8
Layer 1
10
145.636505
20
71.763340
11
145.064678
21
74.972962
0
LINE
8
Layer 1
10
145.064678
20
74.972962
11
144.292246
21
78.137023
0
LINE
8
Layer 1
10
144.292246
20
78.137023
11
143.321835
21
81.246079
0
LINE
8
Layer 1
10
143.321835
20
81.246079
11
142.156066
21
84.290688
0
LINE
8
Layer 1
10
142.156066
20
84.290688
11
140.797564
21
87.261406
0
LINE
8
Layer 1
10
140.797564
20
87.261406
11
139.248953
21
90.148788
0
LINE
8
Layer 1
10
139.248953
20
90.148788
11
137.568995
21
92.849736
0
LINE
8
Layer 1
10
137.568995
20
92.849736
11
135.732942
21
95.436283
0
LINE
8
Layer 1
10
135.732942
20
95.436283
11
133.746899
21
97.902119
0
LINE
8
Layer 1
10
133.746899
20
97.902119
11
131.616973
21
100.240933
0
LINE
8
Layer 1
10
131.616973
20
100.240933
11
129.349269
21
102.446417
0
LINE
8
Layer 1
10
129.349269
20
102.446417
11
126.949894
21
104.512260
0
LINE
8
Layer 1
10
126.949894
20
104.512260
11
124.424953
21
106.432154
0
LINE
8
Layer 1
10
124.424953
20
106.432154
11
121.780553
21
108.199788
0
LINE
8
Layer 1
10
121.780553
20
108.199788
11
120.581433
21
108.927492
0
LINE
8
Layer 1
10
120.581433
20
108.927492
11
119.362963
21
109.619133
0
LINE
8
Layer 1
10
119.362963
20
109.619133
11
115.271772
21
111.645094
0
LINE
8
Layer 1
10
115.271772
20
111.645094
11
111.016813
21
113.299693
0
LINE
8
Layer 1
10
111.016813
20
113.299693
11
109.542583
21
113.773747
0
LINE
8
Layer 1
10
109.542583
20
113.773747
11
108.062723
21
114.201186
0
LINE
8
Layer 1
10
108.062723
20
114.201186
11
104.641162
21
115.007352
0
LINE
8
Layer 1
10
104.641162
20
115.007352
11
101.184792
21
115.578096
0
LINE
8
Layer 1
10
101.184792
20
115.578096
11
97.705609
21
115.913477
0
LINE
8
Layer 1
10
97.705609
20
115.913477
11
94.215612
21
116.013555
0
LINE
8
Layer 1
10
94.215612
20
116.013555
11
90.726797
21
115.878391
0
LINE
8
Layer 1
10
90.726797
20
115.878391
11
87.251162
21
115.508046
0
LINE
8
Layer 1
10
87.251162
20
115.508046
11
83.800705
21
114.902579
0
LINE
8
Layer 1
10
83.800705
20
114.902579
11
80.387423
21
114.062051
0
LINE
8
Layer 1
10
80.387423
20
114.062051
11
80.875286
21
115.693531
0
LINE
8
Layer 1
10
80.875286
20
115.693531
11
81.201317
21
116.705841
0
LINE
8
Layer 1
10
81.201317
20
116.705841
11
81.539927
21
117.714541
0
LINE
8
Layer 1
10
81.539927
20
117.714541
11
82.276645
21
119.712081
0
LINE
8
Layer 1
10
82.276645
20
119.712081
11
83.922955
21
123.636961
0
LINE
8
Layer 1
10
83.922955
20
123.636961
11
84.618068
21
125.137571
0
LINE
8
Layer 1
10
84.618068
20
125.137571
11
85.543793
21
125.279436
0
LINE
8
Layer 1
10
85.543793
20
125.279436
11
89.714036
21
125.737024
0
LINE
8
Layer 1
10
89.714036
20
125.737024
11
93.900857
21
125.915526
0
LINE
8
Layer 1
10
93.900857
20
125.915526
11
98.090271
21
125.814814
0
LINE
8
Layer 1
10
98.090271
20
125.814814
11
102.268293
21
125.434757
0
LINE
8
Layer 1
10
102.268293
20
125.434757
11
103.840853
21
125.215583
0
LINE
8
Layer 1
10
103.840853
20
125.215583
11
105.413583
21
124.954897
0
LINE
8
Layer 1
10
105.413583
20
124.954897
11
110.572548
21
123.797479
0
LINE
8
Layer 1
10
110.572548
20
123.797479
11
115.611283
21
122.195707
0
LINE
8
Layer 1
10
115.611283
20
122.195707
11
117.007763
21
121.667650
0
LINE
8
Layer 1
10
117.007763
20
121.667650
11
118.381553
21
121.108636
0
LINE
8
Layer 1
10
118.381553
20
121.108636
11
118.457544
21
121.077854
0
LINE
8
Layer 1
10
118.457544
20
121.077854
11
123.816349
21
118.501755
0
LINE
8
Layer 1
10
123.816349
20
118.501755
11
128.889417
21
115.427203
0
LINE
8
Layer 1
10
128.889417
20
115.427203
11
133.642162
21
111.877512
0
LINE
8
Layer 1
10
133.642162
20
111.877512
11
138.040000
21
107.876000
0
LINE
8
Layer 1
10
138.040000
20
107.876000
11
138.040000
21
107.876000
0
LINE
8
Layer 1
10
98.379500
20
32.928900
11
101.468630
21
29.987480
0
LINE
8
Layer 1
10
101.468630
20
29.987480
11
104.716210
21
27.211760
0
LINE
8
Layer 1
10
104.716210
20
27.211760
11
108.116230
21
24.616153
0
LINE
8
Layer 1
10
108.116230
20
24.616153
11
111.656390
21
22.215200
0
LINE
8
Layer 1
10
111.656390
20
22.215200
11
115.379870
21
20.002190
0
LINE
8
Layer 1
10
115.379870
20
20.002190
11
112.852585
21
18.893874
0
LINE
8
Layer 1
10
112.852585
20
18.893874
11
110.281587
21
17.934739
0
LINE
8
Layer 1
10
110.281587
20
17.934739
11
107.673199
21
17.124761
0
LINE
8
Layer 1
10
107.673199
20
17.124761
11
105.033744
21
16.463915
0
LINE
8
Layer 1
10
105.033744
20
16.463915
11
102.369546
21
15.952181
0
LINE
8
Layer 1
10
102.369546
20
15.952181
11
99.686928
21
15.589532
0
LINE
8
Layer 1
10
99.686928
20
15.589532
11
94.291724
21
15.311404
0
LINE
8
Layer 1
10
94.291724
20
15.311404
11
88.898719
21
15.629342
0
LINE
8
Layer 1
10
88.898719
20
15.629342
11
86.218850
21
16.011778
0
LINE
8
Layer 1
10
86.218850
20
16.011778
11
83.558501
21
16.543161
0
LINE
8
Layer 1
10
83.558501
20
16.543161
11
80.923995
21
17.223467
0
LINE
8
Layer 1
10
80.923995
20
17.223467
11
78.321656
21
18.052674
0
LINE
8
Layer 1
10
78.321656
20
18.052674
11
75.757806
21
19.030757
0
LINE
8
Layer 1
10
75.757806
20
19.030757
11
73.238770
21
20.157694
0
LINE
8
Layer 1
10
73.238770
20
20.157694
11
75.676760
21
21.624364
0
LINE
8
Layer 1
10
75.676760
20
21.624364
11
80.723074
21
25.109449
0
LINE
8
Layer 1
10
80.723074
20
25.109449
11
85.442125
21
29.003348
0
LINE
8
Layer 1
10
85.442125
20
29.003348
11
89.827494
21
33.255580
0
LINE
8
Layer 1
10
89.827494
20
33.255580
11
93.872760
21
37.815664
0
LINE
8
Layer 1
10
93.872760
20
37.815664
11
98.379500
21
32.928900
0
LINE
8
Layer 1
10
98.379500
20
32.928900
11
98.379500
21
32.928900
0
LINE
8
Layer 1
10
118.661500
20
21.707900
11
117.856400
21
21.259088
0
LINE
8
Layer 1
10
117.856400
20
21.259088
11
112.794750
21
24.048798
0
LINE
8
Layer 1
10
112.794750
20
24.048798
11
109.299695
21
26.307587
0
LINE
8
Layer 1
10
109.299695
20
26.307587
11
105.935650
21
28.757228
0
LINE
8
Layer 1
10
105.935650
20
28.757228
11
102.709670
21
31.396008
0
LINE
8
Layer 1
10
102.709670
20
31.396008
11
99.606160
21
34.187908
0
LINE
8
Layer 1
10
99.606160
20
34.187908
11
96.640670
21
37.132275
0
LINE
8
Layer 1
10
96.640670
20
37.132275
11
93.811620
21
40.213068
0
LINE
8
Layer 1
10
93.811620
20
40.213068
11
91.111113
21
43.426959
0
LINE
8
Layer 1
10
91.111113
20
43.426959
11
88.538110
21
46.741816
0
LINE
8
Layer 1
10
88.538110
20
46.741816
11
86.095437
21
50.153849
0
LINE
8
Layer 1
10
86.095437
20
50.153849
11
83.785920
21
53.659268
0
LINE
8
Layer 1
10
83.785920
20
53.659268
11
81.590247
21
57.245080
0
LINE
8
Layer 1
10
81.590247
20
57.245080
11
79.520630
21
60.912818
0
LINE
8
Layer 1
10
79.520630
20
60.912818
11
77.575290
21
64.652218
0
LINE
8
Layer 1
10
77.575290
20
64.652218
11
76.085670
21
67.762948
0
LINE
8
Layer 1
10
76.085670
20
67.762948
11
80.493270
21
68.654487
0
LINE
8
Layer 1
10
80.493270
20
68.654487
11
84.600080
21
69.279552
0
LINE
8
Layer 1
10
84.600080
20
69.279552
11
86.855220
21
64.313512
0
LINE
8
Layer 1
10
86.855220
20
64.313512
11
89.720960
21
58.978342
0
LINE
8
Layer 1
10
89.720960
20
58.978342
11
91.289870
21
56.382742
0
LINE
8
Layer 1
10
91.289870
20
56.382742
11
92.930770
21
53.837632
0
LINE
8
Layer 1
10
92.930770
20
53.837632
11
94.641940
21
51.321282
0
LINE
8
Layer 1
10
94.641940
20
51.321282
11
96.486400
21
48.895072
0
LINE
8
Layer 1
10
96.486400
20
48.895072
11
100.438280
21
44.256912
0
LINE
8
Layer 1
10
100.438280
20
44.256912
11
104.763080
21
39.944692
0
LINE
8
Layer 1
10
104.763080
20
39.944692
11
109.469012
21
36.014052
0
LINE
8
Layer 1
10
109.469012
20
36.014052
11
114.527530
21
32.548922
0
LINE
8
Layer 1
10
114.527530
20
32.548922
11
117.197111
21
31.014065
0
LINE
8
Layer 1
10
117.197111
20
31.014065
11
119.941878
21
29.622812
0
LINE
8
Layer 1
10
119.941878
20
29.622812
11
122.756046
21
28.377907
0
LINE
8
Layer 1
10
122.756046
20
28.377907
11
125.633830
21
27.282092
0
LINE
8
Layer 1
10
125.633830
20
27.282092
11
126.270241
21
27.061248
0
LINE
8
Layer 1
10
126.270241
20
27.061248
11
122.592401
21
24.204369
0
LINE
8
Layer 1
10
122.592401
20
24.204369
11
118.661000
21
21.707900
0
LINE
8
Layer 1
10
118.661000
20
21.707900
11
118.661500
21
21.707900
0
LINE
8
Layer 1
10
60.180400
20
29.349060
11
59.647847
21
29.880459
0
LINE
8
Layer 1
10
59.647847
20
29.880459
11
57.450190
21
32.249723
0
LINE
8
Layer 1
10
57.450190
20
32.249723
11
55.419840
21
34.750339
0
LINE
8
Layer 1
10
55.419840
20
34.750339
11
53.561959
21
37.373245
0
LINE
8
Layer 1
10
53.561959
20
37.373245
11
51.881713
21
40.109379
0
LINE
8
Layer 1
10
51.881713
20
40.109379
11
50.384265
21
42.949680
0
LINE
8
Layer 1
10
50.384265
20
42.949680
11
49.074779
21
45.885084
0
LINE
8
Layer 1
10
49.074779
20
45.885084
11
47.958418
21
48.906531
0
LINE
8
Layer 1
10
47.958418
20
48.906531
11
47.040347
21
52.004959
0
LINE
8
Layer 1
10
47.040347
20
52.004959
11
46.857938
21
52.728616
0
LINE
8
Layer 1
10
46.857938
20
52.728616
11
48.256748
21
53.988866
0
LINE
8
Layer 1
10
48.256748
20
53.988866
11
50.547460
21
55.889167
0
LINE
8
Layer 1
10
50.547460
20
55.889167
11
52.927318
21
57.676016
0
LINE
8
Layer 1
10
52.927318
20
57.676016
11
55.392802
21
59.342207
0
LINE
8
Layer 1
10
55.392802
20
59.342207
11
57.945558
21
60.871336
0
LINE
8
Layer 1
10
57.945558
20
60.871336
11
60.578512
21
62.271794
0
LINE
8
Layer 1
10
60.578512
20
62.271794
11
63.279018
21
63.542566
0
LINE
8
Layer 1
10
63.279018
20
63.542566
11
66.045678
21
64.680916
0
LINE
8
Layer 1
10
66.045678
20
64.680916
11
68.855608
21
65.709406
0
LINE
8
Layer 1
10
68.855608
20
65.709406
11
72.420497
21
66.821480
0
LINE
8
Layer 1
10
72.420497
20
66.821480
11
76.037000
21
67.752100
0
LINE
8
Layer 1
10
76.037000
20
67.752100
11
77.583669
21
64.019920
0
LINE
8
Layer 1
10
77.583669
20
64.019920
11
79.267641
21
60.349186
0
LINE
8
Layer 1
10
79.267641
20
60.349186
11
81.087092
21
56.743684
0
LINE
8
Layer 1
10
81.087092
20
56.743684
11
83.040200
21
53.207200
0
LINE
8
Layer 1
10
83.040200
20
53.207200
11
85.234070
21
49.580383
0
LINE
8
Layer 1
10
85.234070
20
49.580383
11
87.563060
21
46.032890
0
LINE
8
Layer 1
10
87.563060
20
46.032890
11
87.791821
21
45.703255
0
LINE
8
Layer 1
10
87.791821
20
45.703255
11
84.893216
21
43.085612
0
LINE
8
Layer 1
10
84.893216
20
43.085612
11
81.883821
21
40.611175
0
LINE
8
Layer 1
10
81.883821
20
40.611175
11
78.518928
21
38.125301
0
LINE
8
Layer 1
10
78.518928
20
38.125301
11
75.006701
21
35.852345
0
LINE
8
Layer 1
10
75.006701
20
35.852345
11
71.465867
21
33.864870
0
LINE
8
Layer 1
10
71.465867
20
33.864870
11
67.806585
21
32.114998
0
LINE
8
Layer 1
10
67.806585
20
32.114998
11
64.040785
21
30.607964
0
LINE
8
Layer 1
10
64.040785
20
30.607964
11
60.180400
21
29.349000
0
LINE
8
Layer 1
10
60.180400
20
29.349000
11
60.180400
21
29.349060
0
LINE
8
Layer 1
10
68.315210
20
101.065760
11
68.716449
21
94.783314
0
LINE
8
Layer 1
10
68.716449
20
94.783314
11
69.628310
21
88.554460
0
LINE
8
Layer 1
10
69.628310
20
88.554460
11
70.916618
21
82.800354
0
LINE
8
Layer 1
10
70.916618
20
82.800354
11
72.623700
21
77.156300
0
LINE
8
Layer 1
10
72.623700
20
77.156300
11
66.478008
21
75.796611
0
LINE
8
Layer 1
10
66.478008
20
75.796611
11
60.443800
21
74.005910
0
LINE
8
Layer 1
10
60.443800
20
74.005910
11
54.510520
21
71.709340
0
LINE
8
Layer 1
10
54.510520
20
71.709340
11
48.777240
21
68.930100
0
LINE
8
Layer 1
10
48.777240
20
68.930100
11
45.554200
21
67.084280
0
LINE
8
Layer 1
10
45.554200
20
67.084280
11
45.808582
21
70.033673
0
LINE
8
Layer 1
10
45.808582
20
70.033673
11
46.237518
21
72.943311
0
LINE
8
Layer 1
10
46.237518
20
72.943311
11
46.837058
21
75.806495
0
LINE
8
Layer 1
10
46.837058
20
75.806495
11
47.603254
21
78.616529
0
LINE
8
Layer 1
10
47.603254
20
78.616529
11
48.532154
21
81.366715
0
LINE
8
Layer 1
10
48.532154
20
81.366715
11
49.619811
21
84.050356
0
LINE
8
Layer 1
10
49.619811
20
84.050356
11
50.862273
21
86.660754
0
LINE
8
Layer 1
10
50.862273
20
86.660754
11
52.255591
21
89.191213
0
LINE
8
Layer 1
10
52.255591
20
89.191213
11
53.795816
21
91.635035
0
LINE
8
Layer 1
10
53.795816
20
91.635035
11
55.478998
21
93.985523
0
LINE
8
Layer 1
10
55.478998
20
93.985523
11
57.301187
21
96.235979
0
LINE
8
Layer 1
10
57.301187
20
96.235979
11
59.258433
21
98.379706
0
LINE
8
Layer 1
10
59.258433
20
98.379706
11
61.346787
21
100.410007
0
LINE
8
Layer 1
10
61.346787
20
100.410007
11
63.562300
21
102.320184
0
LINE
8
Layer 1
10
63.562300
20
102.320184
11
65.901020
21
104.103541
0
LINE
8
Layer 1
10
65.901020
20
104.103541
11
68.359000
21
105.753380
0
LINE
8
Layer 1
10
68.359000
20
105.753380
11
68.315200
21
101.066000
0
LINE
8
Layer 1
10
68.315200
20
101.066000
11
68.315210
21
101.065760
0
LINE
8
Layer 1
10
49.809410
20
67.063960
11
55.326550
21
69.884710
0
LINE
8
Layer 1
10
55.326550
20
69.884710
11
61.065280
21
72.247940
0
LINE
8
Layer 1
10
61.065280
20
72.247940
11
66.975120
21
74.187870
0
LINE
8
Layer 1
10
66.975120
20
74.187870
11
73.018210
21
75.708100
0
LINE
8
Layer 1
10
73.018210
20
75.708100
11
77.285350
21
76.533077
0
LINE
8
Layer 1
10
77.285350
20
76.533077
11
81.586660
21
77.186904
0
LINE
8
Layer 1
10
81.586660
20
77.186904
11
85.915020
21
77.669664
0
LINE
8
Layer 1
10
85.915020
20
77.669664
11
90.263210
21
77.975818
0
LINE
8
Layer 1
10
90.263210
20
77.975818
11
92.442670
21
78.073092
0
LINE
8
Layer 1
10
92.442670
20
78.073092
11
94.625740
21
78.146972
0
LINE
8
Layer 1
10
94.625740
20
78.146972
11
98.991960
21
78.154182
0
LINE
8
Layer 1
10
98.991960
20
78.154182
11
103.361700
21
78.011877
0
LINE
8
Layer 1
10
103.361700
20
78.011877
11
106.884910
21
77.775906
0
LINE
8
Layer 1
10
106.884910
20
77.775906
11
105.795200
21
74.512056
0
LINE
8
Layer 1
10
105.795200
20
74.512056
11
104.046210
21
70.127896
0
LINE
8
Layer 1
10
104.046210
20
70.127896
11
104.015603
21
70.055865
0
LINE
8
Layer 1
10
104.015603
20
70.055865
11
103.938119
21
69.879346
0
LINE
8
Layer 1
10
103.938119
20
69.879346
11
98.216258
21
70.474119
0
LINE
8
Layer 1
10
98.216258
20
70.474119
11
92.467819
21
70.695264
0
LINE
8
Layer 1
10
92.467819
20
70.695264
11
86.374289
21
70.529566
0
LINE
8
Layer 1
10
86.374289
20
70.529566
11
80.293339
21
69.945931
0
LINE
8
Layer 1
10
80.293339
20
69.945931
11
74.256761
21
68.897601
0
LINE
8
Layer 1
10
74.256761
20
68.897601
11
68.322339
21
67.373821
0
LINE
8
Layer 1
10
68.322339
20
67.373821
11
65.394249
21
66.415820
0
LINE
8
Layer 1
10
65.394249
20
66.415820
11
62.518391
21
65.316041
0
LINE
8
Layer 1
10
62.518391
20
65.316041
11
59.699906
21
64.076597
0
LINE
8
Layer 1
10
59.699906
20
64.076597
11
56.943939
21
62.699601
0
LINE
8
Layer 1
10
56.943939
20
62.699601
11
54.252552
21
61.177675
0
LINE
8
Layer 1
10
54.252552
20
61.177675
11
51.648115
21
59.515412
0
LINE
8
Layer 1
10
51.648115
20
59.515412
11
49.136104
21
57.716518
0
LINE
8
Layer 1
10
49.136104
20
57.716518
11
46.722000
21
55.784700
0
LINE
8
Layer 1
10
46.722000
20
55.784700
11
46.286337
21
55.413372
0
LINE
8
Layer 1
10
46.286337
20
55.413372
11
45.715221
21
59.448079
0
LINE
8
Layer 1
10
45.715221
20
59.448079
11
45.480709
21
63.516252
0
LINE
8
Layer 1
10
45.480709
20
63.516252
11
45.473848
21
64.311678
0
LINE
8
Layer 1
10
45.473848
20
64.311678
11
45.474376
21
64.396376
0
LINE
8
Layer 1
10
45.474376
20
64.396376
11
49.809400
21
67.063900
0
LINE
8
Layer 1
10
49.809400
20
67.063900
11
49.809410
21
67.063960
0
LINE
8
Layer 1
10
78.874000
20
107.419000
11
79.604738
21
111.003870
0
LINE
8
Layer 1
10
79.604738
20
111.003870
11
80.367799
21
111.242655
0
LINE
8
Layer 1
10
80.367799
20
111.242655
11
83.686482
21
112.112850
0
LINE
8
Layer 1
10
83.686482
20
112.112850
11
87.045469
21
112.747326
0
LINE
8
Layer 1
10
87.045469
20
112.747326
11
90.432352
21
113.145919
0
LINE
8
Layer 1
10
90.432352
20
113.145919
11
93.834725
21
113.308468
0
LINE
8
Layer 1
10
93.834725
20
113.308468
11
97.240183
21
113.234812
0
LINE
8
Layer 1
10
97.240183
20
113.234812
11
100.636318
21
112.924788
0
LINE
8
Layer 1
10
100.636318
20
112.924788
11
104.010726
21
112.378233
0
LINE
8
Layer 1
10
104.010726
20
112.378233
11
107.350999
21
111.594987
0
LINE
8
Layer 1
10
107.350999
20
111.594987
11
108.090576
21
111.386989
0
LINE
8
Layer 1
10
108.090576
20
111.386989
11
108.940090
21
107.328949
0
LINE
8
Layer 1
10
108.940090
20
107.328949
11
109.577805
21
102.629632
0
LINE
8
Layer 1
10
109.577805
20
102.629632
11
109.833492
21
97.894139
0
LINE
8
Layer 1
10
109.833492
20
97.894139
11
109.715682
21
93.137576
0
LINE
8
Layer 1
10
109.715682
20
93.137576
11
109.239132
21
88.403479
0
LINE
8
Layer 1
10
109.239132
20
88.403479
11
108.415174
21
83.701314
0
LINE
8
Layer 1
10
108.415174
20
83.701314
11
107.266752
21
79.067699
0
LINE
8
Layer 1
10
107.266752
20
79.067699
11
106.901054
21
77.828479
0
LINE
8
Layer 1
10
106.901054
20
77.828479
11
102.965184
21
78.302653
0
LINE
8
Layer 1
10
102.965184
20
78.302653
11
99.011704
21
78.628214
0
LINE
8
Layer 1
10
99.011704
20
78.628214
11
94.627544
21
78.820912
0
LINE
8
Layer 1
10
94.627544
20
78.820912
11
92.431814
21
78.848005
0
LINE
8
Layer 1
10
92.431814
20
78.848005
11
91.333094
21
78.858730
0
LINE
8
Layer 1
10
91.333094
20
78.858730
11
90.783712
21
78.860578
0
LINE
8
Layer 1
10
90.783712
20
78.860578
11
90.234327
21
78.848000
0
LINE
8
Layer 1
10
90.234327
20
78.848000
11
85.841147
21
78.705698
0
LINE
8
Layer 1
10
85.841147
20
78.705698
11
81.451527
21
78.383271
0
LINE
8
Layer 1
10
81.451527
20
78.383271
11
81.044450
21
78.343604
0
LINE
8
Layer 1
10
81.044450
20
78.343604
11
79.978059
21
82.356347
0
LINE
8
Layer 1
10
79.978059
20
82.356347
11
79.138435
21
86.419278
0
LINE
8
Layer 1
10
79.138435
20
86.419278
11
78.527284
21
90.522797
0
LINE
8
Layer 1
10
78.527284
20
90.522797
11
78.146310
21
94.657304
0
LINE
8
Layer 1
10
78.146310
20
94.657304
11
78.074233
21
98.933464
0
LINE
8
Layer 1
10
78.074233
20
98.933464
11
78.148068
21
101.067934
0
LINE
8
Layer 1
10
78.148068
20
101.067934
11
78.312008
21
103.193344
0
LINE
8
Layer 1
10
78.312008
20
103.193344
11
78.874000
21
107.419000
0
LINE
8
Layer 1
10
78.874000
20
107.419000
11
78.874000
21
107.419000
0
LINE
8
Layer 1
10
93.901700
20
54.513000
11
92.140090
21
56.948270
0
LINE
8
Layer 1
10
92.140090
20
56.948270
11
90.448710
21
59.430320
0
LINE
8
Layer 1
10
90.448710
20
59.430320
11
87.265950
21
64.533220
0
LINE
8
Layer 1
10
87.265950
20
64.533220
11
85.788950
21
67.161180
0
LINE
8
Layer 1
10
85.788950
20
67.161180
11
84.650560
21
69.284840
0
LINE
8
Layer 1
10
84.650560
20
69.284840
11
89.452960
21
69.769497
0
LINE
8
Layer 1
10
89.452960
20
69.769497
11
94.270327
21
70.022471
0
LINE
8
Layer 1
10
94.270327
20
70.022471
11
99.094285
21
70.043525
0
LINE
8
Layer 1
10
99.094285
20
70.043525
11
103.916460
21
69.832421
0
LINE
8
Layer 1
10
103.916460
20
69.832421
11
101.922530
21
65.624771
0
LINE
8
Layer 1
10
101.922530
20
65.624771
11
99.568310
21
61.312641
0
LINE
8
Layer 1
10
99.568310
20
61.312641
11
96.996140
21
57.113971
0
LINE
8
Layer 1
10
96.996140
20
57.113971
11
94.604100
21
53.569121
0
LINE
8
Layer 1
10
94.604100
20
53.569121
11
93.901700
21
54.513000
0
LINE
8
Layer 1
10
93.901700
20
54.513000
11
93.901700
21
54.513000
0
LINE
8
Layer 1
10
128.985300
20
29.561100
11
128.453376
21
29.039466
0
LINE
8
Layer 1
10
128.453376
20
29.039466
11
126.464276
21
29.674028
0
LINE
8
Layer 1
10
126.464276
20
29.674028
11
125.070086
21
30.163915
0
LINE
8
Layer 1
10
125.070086
20
30.163915
11
123.686796
21
30.684493
0
LINE
8
Layer 1
10
123.686796
20
30.684493
11
120.961466
21
31.831813
0
LINE
8
Layer 1
10
120.961466
20
31.831813
11
118.297853
21
33.107952
0
LINE
8
Layer 1
10
118.297853
20
33.107952
11
115.707296
21
34.526533
0
LINE
8
Layer 1
10
115.707296
20
34.526533
11
110.725156
21
37.732683
0
LINE
8
Layer 1
10
110.725156
20
37.732683
11
106.050936
21
41.401803
0
LINE
8
Layer 1
10
106.050936
20
41.401803
11
103.837216
21
43.386763
0
LINE
8
Layer 1
10
103.837216
20
43.386763
11
101.684756
21
45.454573
0
LINE
8
Layer 1
10
101.684756
20
45.454573
11
100.643636
21
46.513673
0
LINE
8
Layer 1
10
100.643636
20
46.513673
11
105.092858
21
53.192546
0
LINE
8
Layer 1
10
105.092858
20
53.192546
11
109.037376
21
60.181373
0
LINE
8
Layer 1
10
109.037376
20
60.181373
11
112.702806
21
67.811353
0
LINE
8
Layer 1
10
112.702806
20
67.811353
11
112.947834
21
68.369752
0
LINE
8
Layer 1
10
112.947834
20
68.369752
11
116.498044
21
67.361042
0
LINE
8
Layer 1
10
116.498044
20
67.361042
11
120.549054
21
65.984972
0
LINE
8
Layer 1
10
120.549054
20
65.984972
11
124.496657
21
64.376948
0
LINE
8
Layer 1
10
124.496657
20
64.376948
11
128.337524
21
62.528422
0
LINE
8
Layer 1
10
128.337524
20
62.528422
11
132.028194
21
60.428162
0
LINE
8
Layer 1
10
132.028194
20
60.428162
11
135.551404
21
58.081202
0
LINE
8
Layer 1
10
135.551404
20
58.081202
11
138.890884
21
55.480152
0
LINE
8
Layer 1
10
138.890884
20
55.480152
11
142.041274
21
52.657652
0
LINE
8
Layer 1
10
142.041274
20
52.657652
11
142.070210
21
52.630037
0
LINE
8
Layer 1
10
142.070210
20
52.630037
11
141.880063
21
51.885448
0
LINE
8
Layer 1
10
141.880063
20
51.885448
11
140.940860
21
48.750125
0
LINE
8
Layer 1
10
140.940860
20
48.750125
11
139.798631
21
45.694563
0
LINE
8
Layer 1
10
139.798631
20
45.694563
11
138.458792
21
42.728135
0
LINE
8
Layer 1
10
138.458792
20
42.728135
11
136.926758
21
39.860220
0
LINE
8
Layer 1
10
136.926758
20
39.860220
11
135.207946
21
37.100192
0
LINE
8
Layer 1
10
135.207946
20
37.100192
11
133.307772
21
34.457429
0
LINE
8
Layer 1
10
133.307772
20
34.457429
11
131.231651
21
31.941306
0
LINE
8
Layer 1
10
131.231651
20
31.941306
11
128.985000
21
29.561200
0
LINE
8
Layer 1
10
128.985000
20
29.561200
11
128.985300
21
29.561100
0
LINE
8
Layer 1
10
108.281000
20
60.556100
11
106.440588
21
56.775126
0
LINE
8
Layer 1
10
106.440588
20
56.775126
11
104.473260
21
53.057610
0
LINE
8
Layer 1
10
104.473260
20
53.057610
11
102.380170
21
49.402910
0
LINE
8
Layer 1
10
102.380170
20
49.402910
11
100.607790
21
46.551550
0
LINE
8
Layer 1
10
100.607790
20
46.551550
11
97.621340
21
49.833430
0
LINE
8
Layer 1
10
97.621340
20
49.833430
11
94.638500
21
53.522350
0
LINE
8
Layer 1
10
94.638500
20
53.522350
11
97.315140
21
56.892440
0
LINE
8
Layer 1
10
97.315140
20
56.892440
11
100.173670
21
60.934390
0
LINE
8
Layer 1
10
100.173670
20
60.934390
11
102.699791
21
64.965388
0
LINE
8
Layer 1
10
102.699791
20
64.965388
11
104.976000
21
69.142600
0
LINE
8
Layer 1
10
104.976000
20
69.142600
11
104.990000
21
69.142600
0
LINE
8
Layer 1
10
104.990000
20
69.142600
11
105.168364
21
69.520873
0
LINE
8
Layer 1
10
105.168364
20
69.520873
11
107.185684
21
73.973553
0
LINE
8
Layer 1
10
107.185684
20
73.973553
11
108.887884
21
78.566683
0
LINE
8
Layer 1
10
108.887884
20
78.566683
11
110.253224
21
83.282243
0
LINE
8
Layer 1
10
110.253224
20
83.282243
11
111.247506
21
88.093323
0
LINE
8
Layer 1
10
111.247506
20
88.093323
11
111.890375
21
92.976714
0
LINE
8
Layer 1
10
111.890375
20
92.976714
11
112.146000
21
97.895600
0
LINE
8
Layer 1
10
112.146000
20
97.895600
11
111.986287
21
102.833166
0
LINE
8
Layer 1
10
111.986287
20
102.833166
11
111.407566
21
107.739300
0
LINE
8
Layer 1
10
111.407566
20
107.739300
11
110.912845
21
110.472900
0
LINE
8
Layer 1
10
110.912845
20
110.472900
11
114.552964
21
109.005703
0
LINE
8
Layer 1
10
114.552964
20
109.005703
11
118.063145
21
107.250210
0
LINE
8
Layer 1
10
118.063145
20
107.250210
11
118.827873
21
106.821100
0
LINE
8
Layer 1
10
118.827873
20
106.821100
11
118.970881
21
100.671240
0
LINE
8
Layer 1
10
118.970881
20
100.671240
11
118.762147
21
96.519184
0
LINE
8
Layer 1
10
118.762147
20
96.519184
11
118.318816
21
92.385590
0
LINE
8
Layer 1
10
118.318816
20
92.385590
11
117.650568
21
88.273370
0
LINE
8
Layer 1
10
117.650568
20
88.273370
11
116.782408
21
84.193600
0
LINE
8
Layer 1
10
116.782408
20
84.193600
11
115.721022
21
80.149850
0
LINE
8
Layer 1
10
115.721022
20
80.149850
11
114.493058
21
76.145760
0
LINE
8
Layer 1
10
114.493058
20
76.145760
11
111.625569
21
68.255878
0
LINE
8
Layer 1
10
111.625569
20
68.255878
11
108.281000
21
60.556100
0
LINE
8
Layer 1
10
108.281000
20
60.556100
11
108.281000
21
60.556100
0
LINE
8
Layer 1
10
118.434500
20
83.772200
11
119.445032
21
87.914576
0
LINE
8
Layer 1
10
119.445032
20
87.914576
11
120.224920
21
92.106500
0
LINE
8
Layer 1
10
120.224920
20
92.106500
11
120.771345
21
96.345243
0
LINE
8
Layer 1
10
120.771345
20
96.345243
11
121.075139
21
100.608250
0
LINE
8
Layer 1
10
121.075139
20
100.608250
11
121.114980
21
105.419590
0
LINE
8
Layer 1
10
121.114980
20
105.419590
11
123.572539
21
103.724721
0
LINE
8
Layer 1
10
123.572539
20
103.724721
11
125.906861
21
101.895680
0
LINE
8
Layer 1
10
125.906861
20
101.895680
11
128.114007
21
99.939404
0
LINE
8
Layer 1
10
128.114007
20
99.939404
11
130.190038
21
97.862831
0
LINE
8
Layer 1
10
130.190038
20
97.862831
11
132.131017
21
95.672902
0
LINE
8
Layer 1
10
132.131017
20
95.672902
11
133.933005
21
93.376553
0
LINE
8
Layer 1
10
133.933005
20
93.376553
11
135.592063
21
90.980724
0
LINE
8
Layer 1
10
135.592063
20
90.980724
11
137.104252
21
88.492352
0
LINE
8
Layer 1
10
137.104252
20
88.492352
11
138.465635
21
85.918378
0
LINE
8
Layer 1
10
138.465635
20
85.918378
11
139.672272
21
83.265738
0
LINE
8
Layer 1
10
139.672272
20
83.265738
11
140.720225
21
80.541372
0
LINE
8
Layer 1
10
140.720225
20
80.541372
11
141.605555
21
77.752217
0
LINE
8
Layer 1
10
141.605555
20
77.752217
11
142.324325
21
74.905213
0
LINE
8
Layer 1
10
142.324325
20
74.905213
11
142.872594
21
72.007299
0
LINE
8
Layer 1
10
142.872594
20
72.007299
11
143.246426
21
69.065411
0
LINE
8
Layer 1
10
143.246426
20
69.065411
11
143.441880
21
66.086490
0
LINE
8
Layer 1
10
143.441880
20
66.086490
11
138.977510
21
68.638290
0
LINE
8
Layer 1
10
138.977510
20
68.638290
11
133.319193
21
71.296643
0
LINE
8
Layer 1
10
133.319193
20
71.296643
11
127.460510
21
73.478210
0
LINE
8
Layer 1
10
127.460510
20
73.478210
11
121.832751
21
75.105830
0
LINE
8
Layer 1
10
121.832751
20
75.105830
11
116.105510
21
76.338530
0
LINE
8
Layer 1
10
116.105510
20
76.338530
11
118.434000
21
83.772200
0
LINE
8
Layer 1
10
118.434000
20
83.772200
11
118.434500
21
83.772200
0
LINE
8
Layer 1
10
86.112200
20
128.083700
11
87.912553
21
131.271552
0
LINE
8
Layer 1
10
87.912553
20
131.271552
11
89.858152
21
134.370557
0
LINE
8
Layer 1
10
89.858152
20
134.370557
11
91.945723
21
137.375759
0
LINE
8
Layer 1
10
91.945723
20
137.375759
11
94.171990
21
140.282200
0
LINE
8
Layer 1
10
94.171990
20
140.282200
11
94.597056
21
139.691348
0
LINE
8
Layer 1
10
94.597056
20
139.691348
11
95.987596
21
137.753268
0
LINE
8
Layer 1
10
95.987596
20
137.753268
11
98.586806
21
133.754508
0
LINE
8
Layer 1
10
98.586806
20
133.754508
11
100.962616
21
129.622498
0
LINE
8
Layer 1
10
100.962616
20
129.622498
11
101.706240
21
128.221268
0
LINE
8
Layer 1
10
101.706240
20
128.221268
11
97.809820
21
128.535032
0
LINE
8
Layer 1
10
97.809820
20
128.535032
11
93.905085
21
128.616681
0
LINE
8
Layer 1
10
93.905085
20
128.616681
11
90.002393
21
128.466307
0
LINE
8
Layer 1
10
90.002393
20
128.466307
11
86.112100
21
128.084000
0
LINE
8
Layer 1
10
86.112100
20
128.084000
11
86.112200
21
128.083700
0
LINE
8
Layer 1
10
82.773820
20
148.465200
11
85.729630
21
153.921089
0
LINE
8
Layer 1
10
85.729630
20
153.921089
11
88.874560
21
159.296000
0
LINE
8
Layer 1
10
88.874560
20
159.296000
11
94.220600
21
168.123780
0
LINE
8
Layer 1
10
94.220600
20
168.123780
11
101.948000
21
155.648000
0
LINE
8
Layer 1
10
101.948000
20
155.648000
11
106.105200
21
148.392600
0
LINE
8
Layer 1
10
106.105200
20
148.392600
11
109.795960
21
140.912140
0
LINE
8
Layer 1
10
109.795960
20
140.912140
11
112.971510
21
133.206440
0
LINE
8
Layer 1
10
112.971510
20
133.206440
11
114.348344
21
129.273028
0
LINE
8
Layer 1
10
114.348344
20
129.273028
11
115.572470
21
125.293700
0
LINE
8
Layer 1
10
115.572470
20
125.293700
11
115.639839
21
125.051483
0
LINE
8
Layer 1
10
115.639839
20
125.051483
11
110.817431
21
126.526384
0
LINE
8
Layer 1
10
110.817431
20
126.526384
11
105.893069
21
127.613403
0
LINE
8
Layer 1
10
105.893069
20
127.613403
11
104.943553
21
127.776637
0
LINE
8
Layer 1
10
104.943553
20
127.776637
11
103.002211
21
131.519735
0
LINE
8
Layer 1
10
103.002211
20
131.519735
11
100.876000
21
135.161000
0
LINE
8
Layer 1
10
100.876000
20
135.161000
11
98.184980
21
139.274980
0
LINE
8
Layer 1
10
98.184980
20
139.274980
11
97.464487
21
140.271108
0
LINE
8
Layer 1
10
97.464487
20
140.271108
11
96.736783
21
141.260014
0
LINE
8
Layer 1
10
96.736783
20
141.260014
11
96.009100
21
142.249000
0
LINE
8
Layer 1
10
96.009100
20
142.249000
11
95.258000
21
143.225251
0
LINE
8
Layer 1
10
95.258000
20
143.225251
11
94.243890
21
144.550931
0
LINE
8
Layer 1
10
94.243890
20
144.550931
11
93.209990
21
143.259461
0
LINE
8
Layer 1
10
93.209990
20
143.259461
11
91.835670
21
141.542931
0
LINE
8
Layer 1
10
91.835670
20
141.542931
11
90.508140
21
139.788491
0
LINE
8
Layer 1
10
90.508140
20
139.788491
11
88.017030
21
136.169841
0
LINE
8
Layer 1
10
88.017030
20
136.169841
11
85.731280
21
132.419711
0
LINE
8
Layer 1
10
85.731280
20
132.419711
11
84.673940
21
130.494111
0
LINE
8
Layer 1
10
84.673940
20
130.494111
11
83.668890
21
128.541611
0
LINE
8
Layer 1
10
83.668890
20
128.541611
11
81.835382
21
124.550811
0
LINE
8
Layer 1
10
81.835382
20
124.550811
11
80.257370
21
120.452261
0
LINE
8
Layer 1
10
80.257370
20
120.452261
11
79.562077
21
118.371881
0
LINE
8
Layer 1
10
79.562077
20
118.371881
11
79.243254
21
117.319991
0
LINE
8
Layer 1
10
79.243254
20
117.319991
11
78.938858
21
116.266251
0
LINE
8
Layer 1
10
78.938858
20
116.266251
11
77.897738
21
112.000911
0
LINE
8
Layer 1
10
77.897738
20
112.000911
11
77.171811
21
107.675764
0
LINE
8
Layer 1
10
77.171811
20
107.675764
11
76.773768
21
103.308221
0
LINE
8
Layer 1
10
76.773768
20
103.308221
11
76.698132
21
101.116141
0
LINE
8
Layer 1
10
76.698132
20
101.116141
11
76.712526
21
98.925821
0
LINE
8
Layer 1
10
76.712526
20
98.925821
11
77.018737
21
94.565051
0
LINE
8
Layer 1
10
77.018737
20
94.565051
11
77.643802
21
90.251071
0
LINE
8
Layer 1
10
77.643802
20
90.251071
11
78.573218
21
86.000241
0
LINE
8
Layer 1
10
78.573218
20
86.000241
11
79.765608
21
81.826721
0
LINE
8
Layer 1
10
79.765608
20
81.826721
11
80.992258
21
78.339571
0
LINE
8
Layer 1
10
80.992258
20
78.339571
11
77.076388
21
77.882052
0
LINE
8
Layer 1
10
77.076388
20
77.882052
11
74.178248
21
77.431744
0
LINE
8
Layer 1
10
74.178248
20
77.431744
11
74.185416
21
77.446168
0
LINE
8
Layer 1
10
74.185416
20
77.446168
11
72.722836
21
77.174225
0
LINE
8
Layer 1
10
72.722836
20
77.174225
11
72.668791
21
77.163408
0
LINE
8
Layer 1
10
72.668791
20
77.163408
11
71.279001
21
82.871576
0
LINE
8
Layer 1
10
71.279001
20
82.871576
11
70.267741
21
88.658808
0
LINE
8
Layer 1
10
70.267741
20
88.658808
11
69.637185
21
94.848170
0
LINE
8
Layer 1
10
69.637185
20
94.848170
11
69.477020
21
101.067508
0
LINE
8
Layer 1
10
69.477020
20
101.067508
11
69.772140
21
106.614908
0
LINE
8
Layer 1
10
69.772140
20
106.614908
11
69.853137
21
106.663193
0
LINE
8
Layer 1
10
69.853137
20
106.663193
11
69.785853
21
106.778935
0
LINE
8
Layer 1
10
69.785853
20
106.778935
11
69.826442
21
107.265486
0
LINE
8
Layer 1
10
69.826442
20
107.265486
11
69.979564
21
108.810956
0
LINE
8
Layer 1
10
69.979564
20
108.810956
11
70.168704
21
110.352816
0
LINE
8
Layer 1
10
70.168704
20
110.352816
11
70.379434
21
111.882106
0
LINE
8
Layer 1
10
70.379434
20
111.882106
11
70.626223
21
113.413156
0
LINE
8
Layer 1
10
70.626223
20
113.413156
11
71.850671
21
119.495643
0
LINE
8
Layer 1
10
71.850671
20
119.495643
11
73.443323
21
125.492256
0
LINE
8
Layer 1
10
73.443323
20
125.492256
11
75.367497
21
131.391405
0
LINE
8
Layer 1
10
75.367497
20
131.391405
11
77.587703
21
137.188157
0
LINE
8
Layer 1
10
77.587703
20
137.188157
11
80.068313
21
142.880145
0
LINE
8
Layer 1
10
80.068313
20
142.880145
11
82.773700
21
148.465000
0
LINE
8
Layer 1
10
82.773700
20
148.465000
11
82.773820
21
148.465200
0
LINE
8
Layer 1
10
37.710320
20
88.295000
11
40.302426
21
93.671828
0
LINE
8
Layer 1
10
40.302426
20
93.671828
11
43.378083
21
98.739144
0
LINE
8
Layer 1
10
43.378083
20
98.739144
11
46.908454
21
103.468050
0
LINE
8
Layer 1
10
46.908454
20
103.468050
11
50.864702
21
107.829649
0
LINE
8
Layer 1
10
50.864702
20
107.829649
11
55.217987
21
111.795041
0
LINE
8
Layer 1
10
55.217987
20
111.795041
11
59.939474
21
115.335329
0
LINE
8
Layer 1
10
59.939474
20
115.335329
11
65.000324
21
118.421615
0
LINE
8
Layer 1
10
65.000324
20
118.421615
11
70.371700
21
121.025000
0
LINE
8
Layer 1
10
70.371700
20
121.025000
11
70.129046
21
119.878040
0
LINE
8
Layer 1
10
70.129046
20
119.878040
11
69.972362
21
119.105395
0
LINE
8
Layer 1
10
69.972362
20
119.105395
11
69.824650
21
118.325449
0
LINE
8
Layer 1
10
69.824650
20
118.325449
11
69.545493
21
116.774529
0
LINE
8
Layer 1
10
69.545493
20
116.774529
11
69.068143
21
113.656679
0
LINE
8
Layer 1
10
69.068143
20
113.656679
11
68.864624
21
112.091329
0
LINE
8
Layer 1
10
68.864624
20
112.091329
11
68.695274
21
110.515259
0
LINE
8
Layer 1
10
68.695274
20
110.515259
11
68.551211
21
108.946389
0
LINE
8
Layer 1
10
68.551211
20
108.946389
11
68.548389
21
108.908571
0
LINE
8
Layer 1
10
68.548389
20
108.908571
11
68.495531
21
108.999512
0
LINE
8
Layer 1
10
68.495531
20
108.999512
11
67.742845
21
108.550613
0
LINE
8
Layer 1
10
67.742845
20
108.550613
11
65.012885
21
106.786611
0
LINE
8
Layer 1
10
65.012885
20
106.786611
11
62.417327
21
104.868523
0
LINE
8
Layer 1
10
62.417327
20
104.868523
11
59.960850
21
102.804277
0
LINE
8
Layer 1
10
59.960850
20
102.804277
11
57.648129
21
100.601804
0
LINE
8
Layer 1
10
57.648129
20
100.601804
11
55.483842
21
98.269035
0
LINE
8
Layer 1
10
55.483842
20
98.269035
11
53.472665
21
95.813899
0
LINE
8
Layer 1
10
53.472665
20
95.813899
11
51.619277
21
93.244326
0
LINE
8
Layer 1
10
51.619277
20
93.244326
11
49.928354
21
90.568247
0
LINE
8
Layer 1
10
49.928354
20
90.568247
11
48.404572
21
87.793592
0
LINE
8
Layer 1
10
48.404572
20
87.793592
11
47.052610
21
84.928292
0
LINE
8
Layer 1
10
47.052610
20
84.928292
11
45.877143
21
81.980275
0
LINE
8
Layer 1
10
45.877143
20
81.980275
11
44.882850
21
78.957473
0
LINE
8
Layer 1
10
44.882850
20
78.957473
11
44.074406
21
75.867816
0
LINE
8
Layer 1
10
44.074406
20
75.867816
11
43.456489
21
72.719233
0
LINE
8
Layer 1
10
43.456489
20
72.719233
11
43.033777
21
69.519655
0
LINE
8
Layer 1
10
43.033777
20
69.519655
11
42.810945
21
66.277013
0
LINE
8
Layer 1
10
42.810945
20
66.277013
11
42.775589
21
64.870333
0
LINE
8
Layer 1
10
42.775589
20
64.870333
11
42.772069
21
64.312022
0
LINE
8
Layer 1
10
42.772069
20
64.312022
11
42.779283
21
63.469454
0
LINE
8
Layer 1
10
42.779283
20
63.469454
11
43.067752
21
58.769412
0
LINE
8
Layer 1
10
43.067752
20
58.769412
11
43.782093
21
54.115024
0
LINE
8
Layer 1
10
43.782093
20
54.115024
11
44.083588
21
52.716964
0
LINE
8
Layer 1
10
44.083588
20
52.716964
11
44.425539
21
51.324704
0
LINE
8
Layer 1
10
44.425539
20
51.324704
11
45.362709
21
48.149897
0
LINE
8
Layer 1
10
45.362709
20
48.149897
11
46.497412
21
45.051008
0
LINE
8
Layer 1
10
46.497412
20
45.051008
11
47.824723
21
42.036835
0
LINE
8
Layer 1
10
47.824723
20
42.036835
11
49.339719
21
39.116174
0
LINE
8
Layer 1
10
49.339719
20
39.116174
11
51.037473
21
36.297823
0
LINE
8
Layer 1
10
51.037473
20
36.297823
11
52.913061
21
33.590579
0
LINE
8
Layer 1
10
52.913061
20
33.590579
11
54.961558
21
31.003241
0
LINE
8
Layer 1
10
54.961558
20
31.003241
11
57.178039
21
28.544604
0
LINE
8
Layer 1
10
57.178039
20
28.544604
11
55.784069
21
28.219013
0
LINE
8
Layer 1
10
55.784069
20
28.219013
11
51.711469
21
27.408471
0
LINE
8
Layer 1
10
51.711469
20
27.408471
11
47.606509
21
26.819474
0
LINE
8
Layer 1
10
47.606509
20
26.819474
11
45.731179
21
26.622551
0
LINE
8
Layer 1
10
45.731179
20
26.622551
11
45.212709
21
27.299068
0
LINE
8
Layer 1
10
45.212709
20
27.299068
11
43.039325
21
30.379130
0
LINE
8
Layer 1
10
43.039325
20
30.379130
11
41.060840
21
33.583704
0
LINE
8
Layer 1
10
41.060840
20
33.583704
11
39.282566
21
36.903559
0
LINE
8
Layer 1
10
39.282566
20
36.903559
11
37.709819
21
40.329468
0
LINE
8
Layer 1
10
37.709819
20
40.329468
11
37.507534
21
40.815133
0
LINE
8
Layer 1
10
37.507534
20
40.815133
11
36.940429
21
42.239583
0
LINE
8
Layer 1
10
36.940429
20
42.239583
11
36.405689
21
43.685313
0
LINE
8
Layer 1
10
36.405689
20
43.685313
11
34.844866
21
48.759103
0
LINE
8
Layer 1
10
34.844866
20
48.759103
11
33.730759
21
53.949313
0
LINE
8
Layer 1
10
33.730759
20
53.949313
11
33.499447
21
55.427763
0
LINE
8
Layer 1
10
33.499447
20
55.427763
11
33.304022
21
56.911143
0
LINE
8
Layer 1
10
33.304022
20
56.911143
11
32.974715
21
60.605060
0
LINE
8
Layer 1
10
32.974715
20
60.605060
11
32.865322
21
64.312013
0
LINE
8
Layer 1
10
32.865322
20
64.312013
11
32.937407
21
67.396805
0
LINE
8
Layer 1
10
32.937407
20
67.396805
11
33.164238
21
70.468213
0
LINE
8
Layer 1
10
33.164238
20
70.468213
11
33.544657
21
73.520513
0
LINE
8
Layer 1
10
33.544657
20
73.520513
11
34.077507
21
76.547978
0
LINE
8
Layer 1
10
34.077507
20
76.547978
11
34.761634
21
79.544885
0
LINE
8
Layer 1
10
34.761634
20
79.544885
11
35.595879
21
82.505508
0
LINE
8
Layer 1
10
35.595879
20
82.505508
11
36.579087
21
85.424121
0
LINE
8
Layer 1
10
36.579087
20
85.424121
11
37.710100
21
88.295000
0
LINE
8
Layer 1
10
37.710100
20
88.295000
11
37.710320
21
88.295000
0
LINE
8
Layer 1
10
35.361700
20
38.951800
11
36.885534
21
35.659258
0
LINE
8
Layer 1
10
36.885534
20
35.659258
11
38.591712
21
32.460687
0
LINE
8
Layer 1
10
38.591712
20
32.460687
11
40.475921
21
29.363648
0
LINE
8
Layer 1
10
40.475921
20
29.363648
11
42.533850
21
26.375700
0
LINE
8
Layer 1
10
42.533850
20
26.375700
11
38.851135
21
26.225039
0
LINE
8
Layer 1
10
38.851135
20
26.225039
11
35.165390
21
26.226622
0
LINE
8
Layer 1
10
35.165390
20
26.226622
11
31.011750
21
26.386955
0
LINE
8
Layer 1
10
31.011750
20
26.386955
11
28.938530
21
26.534625
0
LINE
8
Layer 1
10
28.938530
20
26.534625
11
28.689983
21
26.554414
0
LINE
8
Layer 1
10
28.689983
20
26.554414
11
30.848674
21
31.127516
0
LINE
8
Layer 1
10
30.848674
20
31.127516
11
33.272300
21
35.565900
0
LINE
8
Layer 1
10
33.272300
20
35.565900
11
35.361700
21
38.951800
0
LINE
8
Layer 1
10
35.361700
20
38.951800
11
35.361700
21
38.951800
0
LINE
8
Layer 1
10
54.942900
20
14.453800
11
51.922240
21
13.708068
0
LINE
8
Layer 1
10
51.922240
20
13.708068
11
45.819121
21
12.501426
0
LINE
8
Layer 1
10
45.819121
20
12.501426
11
39.654040
21
11.667258
0
LINE
8
Layer 1
10
39.654040
20
11.667258
11
33.450234
21
11.172415
0
LINE
8
Layer 1
10
33.450234
20
11.172415
11
27.229140
21
10.999010
0
LINE
8
Layer 1
10
27.229140
20
10.999010
11
21.014890
21
11.146680
0
LINE
8
Layer 1
10
21.014890
20
11.146680
11
14.734040
21
11.449318
0
LINE
8
Layer 1
10
14.734040
20
11.449318
11
4.252640
21
11.930224
0
LINE
8
Layer 1
10
4.252640
20
11.930224
11
9.121360
21
21.226334
0
LINE
8
Layer 1
10
9.121360
20
21.226334
11
12.084370
21
26.730904
0
LINE
8
Layer 1
10
12.084370
20
26.730904
11
15.261760
21
32.073364
0
LINE
8
Layer 1
10
15.261760
20
32.073364
11
18.690855
21
37.266709
0
LINE
8
Layer 1
10
18.690855
20
37.266709
11
22.353220
21
42.293464
0
LINE
8
Layer 1
10
22.353220
20
42.293464
11
26.267290
21
47.122564
0
LINE
8
Layer 1
10
26.267290
20
47.122564
11
30.429910
21
51.730124
0
LINE
8
Layer 1
10
30.429910
20
51.730124
11
31.236328
21
52.558621
0
LINE
8
Layer 1
10
31.236328
20
52.558621
11
32.354172
21
47.615739
0
LINE
8
Layer 1
10
32.354172
20
47.615739
11
33.860858
21
42.777191
0
LINE
8
Layer 1
10
33.860858
20
42.777191
11
34.184778
21
41.891087
0
LINE
8
Layer 1
10
34.184778
20
41.891087
11
30.982898
21
36.913257
0
LINE
8
Layer 1
10
30.982898
20
36.913257
11
28.034578
21
31.501149
0
LINE
8
Layer 1
10
28.034578
20
31.501149
11
25.481938
21
25.891557
0
LINE
8
Layer 1
10
25.481938
20
25.891557
11
24.712810
21
24.032627
0
LINE
8
Layer 1
10
24.712810
20
24.032627
11
26.667200
21
24.032600
0
LINE
8
Layer 1
10
26.667200
20
24.032600
11
28.722390
21
23.845267
0
LINE
8
Layer 1
10
28.722390
20
23.845267
11
30.855060
21
23.702962
0
LINE
8
Layer 1
10
30.855060
20
23.702962
11
35.125760
21
23.557053
0
LINE
8
Layer 1
10
35.125760
20
23.557053
11
39.402988
21
23.617430
0
LINE
8
Layer 1
10
39.402988
20
23.617430
11
43.670780
21
23.883084
0
LINE
8
Layer 1
10
43.670780
20
23.883084
11
47.919890
21
24.360482
0
LINE
8
Layer 1
10
47.919890
20
24.360482
11
52.143760
21
25.071913
0
LINE
8
Layer 1
10
52.143760
20
25.071913
11
56.316716
21
26.024847
0
LINE
8
Layer 1
10
56.316716
20
26.024847
11
60.424000
21
27.229783
0
LINE
8
Layer 1
10
60.424000
20
27.229783
11
64.446394
21
28.691182
0
LINE
8
Layer 1
10
64.446394
20
28.691182
11
68.356620
21
30.430573
0
LINE
8
Layer 1
10
68.356620
20
30.430573
11
72.118736
21
32.454831
0
LINE
8
Layer 1
10
72.118736
20
32.454831
11
75.725440
21
34.744553
0
LINE
8
Layer 1
10
75.725440
20
34.744553
11
79.134375
21
37.283417
0
LINE
8
Layer 1
10
79.134375
20
37.283417
11
82.366590
21
40.043753
0
LINE
8
Layer 1
10
82.366590
20
40.043753
11
85.405240
21
42.992383
0
LINE
8
Layer 1
10
85.405240
20
42.992383
11
87.827930
21
45.650953
0
LINE
8
Layer 1
10
87.827930
20
45.650953
11
90.036190
21
42.581653
0
LINE
8
Layer 1
10
90.036190
20
42.581653
11
92.669600
21
39.245773
0
LINE
8
Layer 1
10
92.669600
20
39.245773
11
93.840400
21
37.853423
0
LINE
8
Layer 1
10
93.840400
20
37.853423
11
93.301833
21
37.273477
0
LINE
8
Layer 1
10
93.301833
20
37.273477
11
92.215683
21
36.138647
0
LINE
8
Layer 1
10
92.215683
20
36.138647
11
89.987543
21
33.928537
0
LINE
8
Layer 1
10
89.987543
20
33.928537
11
85.313363
21
29.755107
0
LINE
8
Layer 1
10
85.313363
20
29.755107
11
80.344071
21
25.973480
0
LINE
8
Layer 1
10
80.344071
20
25.973480
11
75.080663
21
22.613257
0
LINE
8
Layer 1
10
75.080663
20
22.613257
11
71.846893
21
20.857587
0
LINE
8
Layer 1
10
71.846893
20
20.857587
11
71.746013
21
20.909651
0
LINE
8
Layer 1
10
71.746013
20
20.909651
11
71.719803
21
20.923373
0
LINE
8
Layer 1
10
71.719803
20
20.923373
11
71.627104
21
20.745802
0
LINE
8
Layer 1
10
71.627104
20
20.745802
11
69.559864
21
19.727682
0
LINE
8
Layer 1
10
69.559864
20
19.727682
11
63.831944
21
17.286962
0
LINE
8
Layer 1
10
63.831944
20
17.286962
11
57.940134
21
15.289422
0
LINE
8
Layer 1
10
57.940134
20
15.289422
11
54.942900
21
14.453700
0
LINE
8
Layer 1
10
54.942900
20
14.453700
11
54.942900
21
14.453800
0
LINE
8
Layer 1
10
118.457400
20
7.545460
11
114.761851
21
6.120143
0
LINE
8
Layer 1
10
114.761851
20
6.120143
11
111.010429
21
4.943093
0
LINE
8
Layer 1
10
111.010429
20
4.943093
11
107.214749
21
4.013075
0
LINE
8
Layer 1
10
107.214749
20
4.013075
11
103.386426
21
3.328859
0
LINE
8
Layer 1
10
103.386426
20
3.328859
11
99.537076
21
2.889211
0
LINE
8
Layer 1
10
99.537076
20
2.889211
11
95.678313
21
2.692898
0
LINE
8
Layer 1
10
95.678313
20
2.692898
11
91.821752
21
2.738687
0
LINE
8
Layer 1
10
91.821752
20
2.738687
11
87.979008
21
3.025347
0
LINE
8
Layer 1
10
87.979008
20
3.025347
11
84.161697
21
3.551644
0
LINE
8
Layer 1
10
84.161697
20
3.551644
11
80.381434
21
4.316346
0
LINE
8
Layer 1
10
80.381434
20
4.316346
11
76.649834
21
5.318219
0
LINE
8
Layer 1
10
76.649834
20
5.318219
11
72.978511
21
6.556032
0
LINE
8
Layer 1
10
72.978511
20
6.556032
11
69.379081
21
8.028551
0
LINE
8
Layer 1
10
69.379081
20
8.028551
11
65.863159
21
9.734544
0
LINE
8
Layer 1
10
65.863159
20
9.734544
11
62.442361
21
11.672778
0
LINE
8
Layer 1
10
62.442361
20
11.672778
11
59.128300
21
13.842020
0
LINE
8
Layer 1
10
59.128300
20
13.842020
11
64.413650
21
15.829880
0
LINE
8
Layer 1
10
64.413650
20
15.829880
11
70.553390
21
18.689950
0
LINE
8
Layer 1
10
70.553390
20
18.689950
11
70.469045
21
18.528384
0
LINE
8
Layer 1
10
70.469045
20
18.528384
11
70.495252
21
18.514837
0
LINE
8
Layer 1
10
70.495252
20
18.514837
11
71.199396
21
18.151425
0
LINE
8
Layer 1
10
71.199396
20
18.151425
11
73.953367
21
16.861284
0
LINE
8
Layer 1
10
73.953367
20
16.861284
11
76.760890
21
15.741783
0
LINE
8
Layer 1
10
76.760890
20
15.741783
11
79.614394
21
14.792945
0
LINE
8
Layer 1
10
79.614394
20
14.792945
11
82.506309
21
14.014797
0
LINE
8
Layer 1
10
82.506309
20
14.014797
11
85.429065
21
13.407362
0
LINE
8
Layer 1
10
85.429065
20
13.407362
11
88.375092
21
12.970667
0
LINE
8
Layer 1
10
88.375092
20
12.970667
11
91.336819
21
12.704734
0
LINE
8
Layer 1
10
91.336819
20
12.704734
11
94.306676
21
12.609591
0
LINE
8
Layer 1
10
94.306676
20
12.609591
11
97.277094
21
12.685260
0
LINE
8
Layer 1
10
97.277094
20
12.685260
11
100.240501
21
12.931767
0
LINE
8
Layer 1
10
100.240501
20
12.931767
11
103.189327
21
13.349137
0
LINE
8
Layer 1
10
103.189327
20
13.349137
11
106.116003
21
13.937395
0
LINE
8
Layer 1
10
106.116003
20
13.937395
11
109.012958
21
14.696565
0
LINE
8
Layer 1
10
109.012958
20
14.696565
11
111.872622
21
15.626672
0
LINE
8
Layer 1
10
111.872622
20
15.626672
11
114.687425
21
16.727742
0
LINE
8
Layer 1
10
114.687425
20
16.727742
11
117.449796
21
17.999798
0
LINE
8
Layer 1
10
117.449796
20
17.999798
11
118.734756
21
18.662594
0
LINE
8
Layer 1
10
118.734756
20
18.662594
11
119.999676
21
19.360746
0
LINE
8
Layer 1
10
119.999676
20
19.360746
11
124.488576
21
22.234391
0
LINE
8
Layer 1
10
124.488576
20
22.234391
11
128.659296
21
25.552996
0
LINE
8
Layer 1
10
128.659296
20
25.552996
11
129.792626
21
26.584476
0
LINE
8
Layer 1
10
129.792626
20
26.584476
11
130.892186
21
27.647096
0
LINE
8
Layer 1
10
130.892186
20
27.647096
11
133.194432
21
30.082255
0
LINE
8
Layer 1
10
133.194432
20
30.082255
11
135.327713
21
32.653087
0
LINE
8
Layer 1
10
135.327713
20
32.653087
11
137.286736
21
35.350592
0
LINE
8
Layer 1
10
137.286736
20
35.350592
11
139.066210
21
38.165770
0
LINE
8
Layer 1
10
139.066210
20
38.165770
11
140.660844
21
41.089620
0
LINE
8
Layer 1
10
140.660844
20
41.089620
11
142.065346
21
44.113141
0
LINE
8
Layer 1
10
142.065346
20
44.113141
11
143.274424
21
47.227333
0
LINE
8
Layer 1
10
143.274424
20
47.227333
11
144.282786
21
50.423196
0
LINE
8
Layer 1
10
144.282786
20
50.423196
11
145.009697
21
49.649758
0
LINE
8
Layer 1
10
145.009697
20
49.649758
11
147.783577
21
46.459798
0
LINE
8
Layer 1
10
147.783577
20
46.459798
11
151.646627
21
41.311258
0
LINE
8
Layer 1
10
151.646627
20
41.311258
11
151.312061
21
40.494547
0
LINE
8
Layer 1
10
151.312061
20
40.494547
11
151.242406
21
40.328674
0
LINE
8
Layer 1
10
151.242406
20
40.328674
11
149.616148
21
36.797916
0
LINE
8
Layer 1
10
149.616148
20
36.797916
11
147.772012
21
33.380305
0
LINE
8
Layer 1
10
147.772012
20
33.380305
11
145.715846
21
30.085904
0
LINE
8
Layer 1
10
145.715846
20
30.085904
11
143.453496
21
26.924774
0
LINE
8
Layer 1
10
143.453496
20
26.924774
11
142.474078
21
25.680624
0
LINE
8
Layer 1
10
142.474078
20
25.680624
11
141.461238
21
24.457934
0
LINE
8
Layer 1
10
141.461238
20
24.457934
11
138.040138
21
20.747824
0
LINE
8
Layer 1
10
138.040138
20
20.747824
11
135.592228
21
18.427845
0
LINE
8
Layer 1
10
135.592228
20
18.427845
11
133.023438
21
16.242464
0
LINE
8
Layer 1
10
133.023438
20
16.242464
11
131.817638
21
15.298931
0
LINE
8
Layer 1
10
131.817638
20
15.298931
11
130.581048
21
14.381605
0
LINE
8
Layer 1
10
130.581048
20
14.381605
11
127.699467
21
12.416121
0
LINE
8
Layer 1
10
127.699467
20
12.416121
11
124.713367
21
10.618826
0
LINE
8
Layer 1
10
124.713367
20
10.618826
11
121.630095
21
8.993864
0
LINE
8
Layer 1
10
121.630095
20
8.993864
11
118.457000
21
7.545380
0
LINE
8
Layer 1
10
118.457000
20
7.545380
11
118.457400
21
7.545460
0
LINE
8
Layer 1
10
153.439000
20
38.600700
11
156.916699
21
32.574633
0
LINE
8
Layer 1
10
156.916699
20
32.574633
11
159.900820
21
26.289500
0
LINE
8
Layer 1
10
159.900820
20
26.289500
11
153.024291
21
25.879018
0
LINE
8
Layer 1
10
153.024291
20
25.879018
11
146.136520
21
25.996271
0
LINE
8
Layer 1
10
146.136520
20
25.996271
11
148.228834
21
28.987758
0
LINE
8
Layer 1
10
148.228834
20
28.987758
11
150.146307
21
32.090759
0
LINE
8
Layer 1
10
150.146307
20
32.090759
11
151.884506
21
35.297622
0
LINE
8
Layer 1
10
151.884506
20
35.297622
11
153.439000
21
38.600700
0
LINE
8
Layer 1
10
153.439000
20
38.600700
11
153.439000
21
38.600700
0
LINE
8
Layer 1
10
168.917800
20
11.521200
11
164.755190
21
11.378895
0
LINE
8
Layer 1
10
164.755190
20
11.378895
11
162.676570
21
11.369923
0
LINE
8
Layer 1
10
162.676570
20
11.369923
11
160.596100
21
11.411348
0
LINE
8
Layer 1
10
160.596100
20
11.411348
11
158.503140
21
11.483379
0
LINE
8
Layer 1
10
158.503140
20
11.483379
11
156.422670
21
11.589624
0
LINE
8
Layer 1
10
156.422670
20
11.589624
11
152.260050
21
11.919259
0
LINE
8
Layer 1
10
152.260050
20
11.919259
11
148.115155
21
12.377595
0
LINE
8
Layer 1
10
148.115155
20
12.377595
11
143.991855
21
12.991077
0
LINE
8
Layer 1
10
143.991855
20
12.991077
11
139.894502
21
13.758976
0
LINE
8
Layer 1
10
139.894502
20
13.758976
11
135.827450
21
14.680559
0
LINE
8
Layer 1
10
135.827450
20
14.680559
11
135.486994
21
14.767365
0
LINE
8
Layer 1
10
135.486994
20
14.767365
11
139.951184
21
18.837285
0
LINE
8
Layer 1
10
139.951184
20
18.837285
11
143.520394
21
22.708165
0
LINE
8
Layer 1
10
143.520394
20
22.708165
11
144.130067
21
23.436921
0
LINE
8
Layer 1
10
144.130067
20
23.436921
11
149.732877
21
23.169727
0
LINE
8
Layer 1
10
149.732877
20
23.169727
11
155.853602
21
23.302946
0
LINE
8
Layer 1
10
155.853602
20
23.302946
11
161.950577
21
23.857855
0
LINE
8
Layer 1
10
161.950577
20
23.857855
11
163.667197
21
24.075795
0
LINE
8
Layer 1
10
163.667197
20
24.075795
11
163.013370
21
25.660845
0
LINE
8
Layer 1
10
163.013370
20
25.660845
11
161.250030
21
29.643939
0
LINE
8
Layer 1
10
161.250030
20
29.643939
11
159.279340
21
33.528625
0
LINE
8
Layer 1
10
159.279340
20
33.528625
11
157.116110
21
37.307595
0
LINE
8
Layer 1
10
157.116110
20
37.307595
11
154.752880
21
40.964065
0
LINE
8
Layer 1
10
154.752880
20
40.964065
11
152.196950
21
44.487275
0
LINE
8
Layer 1
10
152.196950
20
44.487275
11
149.432050
21
47.852005
0
LINE
8
Layer 1
10
149.432050
20
47.852005
11
146.476210
21
51.049185
0
LINE
8
Layer 1
10
146.476210
20
51.049185
11
144.927220
21
52.578385
0
LINE
8
Layer 1
10
144.927220
20
52.578385
11
143.324060
21
54.051825
0
LINE
8
Layer 1
10
143.324060
20
54.051825
11
139.975688
21
56.829755
0
LINE
8
Layer 1
10
139.975688
20
56.829755
11
136.432600
21
59.354635
0
LINE
8
Layer 1
10
136.432600
20
59.354635
11
132.714840
21
61.609775
0
LINE
8
Layer 1
10
132.714840
20
61.609775
11
128.838590
21
63.551465
0
LINE
8
Layer 1
10
128.838590
20
63.551465
11
124.847954
21
65.210541
0
LINE
8
Layer 1
10
124.847954
20
65.210541
11
120.751090
21
66.586555
0
LINE
8
Layer 1
10
120.751090
20
66.586555
11
116.588480
21
67.690685
0
LINE
8
Layer 1
10
116.588480
20
67.690685
11
112.969830
21
68.418386
0
LINE
8
Layer 1
10
112.969830
20
68.418386
11
115.869740
21
75.671936
0
LINE
8
Layer 1
10
115.869740
20
75.671936
11
116.093133
21
76.302366
0
LINE
8
Layer 1
10
116.093133
20
76.302366
11
121.390573
21
74.911856
0
LINE
8
Layer 1
10
121.390573
20
74.911856
11
127.278783
21
72.955656
0
LINE
8
Layer 1
10
127.278783
20
72.955656
11
132.989079
21
70.575957
0
LINE
8
Layer 1
10
132.989079
20
70.575957
11
138.496000
21
67.757400
0
LINE
8
Layer 1
10
138.496000
20
67.757400
11
143.472340
21
64.665940
0
LINE
8
Layer 1
10
143.472340
20
64.665940
11
143.474539
21
64.484587
0
LINE
8
Layer 1
10
143.474539
20
64.484587
11
143.744000
21
64.484600
0
LINE
8
Layer 1
10
143.744000
20
64.484600
11
148.696590
21
60.828130
0
LINE
8
Layer 1
10
148.696590
20
60.828130
11
153.385240
21
56.820400
0
LINE
8
Layer 1
10
153.385240
20
56.820400
11
157.792800
21
52.506420
0
LINE
8
Layer 1
10
157.792800
20
52.506420
11
161.926660
21
47.929470
0
LINE
8
Layer 1
10
161.926660
20
47.929470
11
165.817330
21
43.143640
0
LINE
8
Layer 1
10
165.817330
20
43.143640
11
169.455800
21
38.164165
0
LINE
8
Layer 1
10
169.455800
20
38.164165
11
172.849330
21
33.011740
0
LINE
8
Layer 1
10
172.849330
20
33.011740
11
175.976258
21
27.700830
0
LINE
8
Layer 1
10
175.976258
20
27.700830
11
178.919420
21
22.254740
0
LINE
8
Layer 1
10
178.919420
20
22.254740
11
181.796020
21
16.746570
0
LINE
8
Layer 1
10
181.796020
20
16.746570
11
183.237000
21
13.992570
0
LINE
8
Layer 1
10
183.237000
20
13.992570
11
183.595397
21
13.302684
0
LINE
8
Layer 1
10
183.595397
20
13.302684
11
183.775520
21
12.922649
0
LINE
8
Layer 1
10
183.775520
20
12.922649
11
176.336315
21
12.104431
0
LINE
8
Layer 1
10
176.336315
20
12.104431
11
168.917000
21
11.521300
0
LINE
8
Layer 1
10
168.917000
20
11.521300
11
168.917800
21
11.521200
 0 
ENDSEC
 0 
EOF