999
"DXF R12 Output" (www.mydxf.blogspot.com)
 0 
SECTION
 2 
HEADER
 9 
$ACADVER
 1 
AC1009
 9 
$EXTMIN
 10 
 0 
 20 
 0 
 9 
$EXTMAX
 10 
 8.5 
 20 
 11 
 0 
ENDSEC
 0 
SECTION
 2 
ENTITIES
0
LINE
8
Layer 1
10
110.689000
20
6.689310
11
110.900667
21
6.646181
0
LINE
8
Layer 1
10
110.900667
20
6.646181
11
110.888410
21
6.592694
0
LINE
8
Layer 1
10
110.888410
20
6.592694
11
114.939520
21
5.951486
0
LINE
8
Layer 1
10
114.939520
20
5.951486
11
116.959450
21
5.947817
0
LINE
8
Layer 1
10
116.959450
20
5.947817
11
118.491850
21
6.076990
0
LINE
8
Layer 1
10
118.491850
20
6.076990
11
121.018580
21
6.614835
0
LINE
8
Layer 1
10
121.018580
20
6.614835
11
122.994570
21
6.673286
0
LINE
8
Layer 1
10
122.994570
20
6.673286
11
124.980586
21
6.425531
0
LINE
8
Layer 1
10
124.980586
20
6.425531
11
126.905920
21
5.878972
0
LINE
8
Layer 1
10
126.905920
20
5.878972
11
125.011994
21
6.616144
0
LINE
8
Layer 1
10
125.011994
20
6.616144
11
123.028330
21
7.058252
0
LINE
8
Layer 1
10
123.028330
20
7.058252
11
121.530840
21
7.188054
0
LINE
8
Layer 1
10
121.530840
20
7.188054
11
123.413510
21
8.194844
0
LINE
8
Layer 1
10
123.413510
20
8.194844
11
124.024605
21
8.532751
0
LINE
8
Layer 1
10
124.024605
20
8.532751
11
125.774638
21
9.407244
0
LINE
8
Layer 1
10
125.774638
20
9.407244
11
127.602235
21
10.105271
0
LINE
8
Layer 1
10
127.602235
20
10.105271
11
129.501245
21
10.531680
0
LINE
8
Layer 1
10
129.501245
20
10.531680
11
134.284725
21
11.159263
0
LINE
8
Layer 1
10
134.284725
20
11.159263
11
133.688438
21
11.644019
0
LINE
8
Layer 1
10
133.688438
20
11.644019
11
133.131345
21
12.302263
0
LINE
8
Layer 1
10
133.131345
20
12.302263
11
131.646422
21
13.587947
0
LINE
8
Layer 1
10
131.646422
20
13.587947
11
129.957385
21
14.575813
0
LINE
8
Layer 1
10
129.957385
20
14.575813
11
128.865995
21
14.897148
0
LINE
8
Layer 1
10
128.865995
20
14.897148
11
129.829154
21
15.072740
0
LINE
8
Layer 1
10
129.829154
20
15.072740
11
130.754393
21
15.410570
0
LINE
8
Layer 1
10
130.754393
20
15.410570
11
132.562105
21
16.253028
0
LINE
8
Layer 1
10
132.562105
20
16.253028
11
134.327670
21
16.866580
0
LINE
8
Layer 1
10
134.327670
20
16.866580
11
136.155045
21
17.206449
0
LINE
8
Layer 1
10
136.155045
20
17.206449
11
138.012697
21
17.269189
0
LINE
8
Layer 1
10
138.012697
20
17.269189
11
139.869095
21
17.051355
0
LINE
8
Layer 1
10
139.869095
20
17.051355
11
138.964546
21
17.546490
0
LINE
8
Layer 1
10
138.964546
20
17.546490
11
138.149441
21
18.188979
0
LINE
8
Layer 1
10
138.149441
20
18.188979
11
136.661440
21
19.700039
0
LINE
8
Layer 1
10
136.661440
20
19.700039
11
135.152836
21
21.152567
0
LINE
8
Layer 1
10
135.152836
20
21.152567
11
134.311979
21
21.721891
0
LINE
8
Layer 1
10
134.311979
20
21.721891
11
133.371375
21
22.114595
0
LINE
8
Layer 1
10
133.371375
20
22.114595
11
132.081872
21
22.278324
0
LINE
8
Layer 1
10
132.081872
20
22.278324
11
130.792455
21
22.113915
0
LINE
8
Layer 1
10
130.792455
20
22.113915
11
129.530195
21
21.710961
0
LINE
8
Layer 1
10
129.530195
20
21.710961
11
128.466765
21
21.449341
0
LINE
8
Layer 1
10
128.466765
20
21.449341
11
126.529545
21
21.009244
0
LINE
8
Layer 1
10
126.529545
20
21.009244
11
123.410453
21
20.609531
0
LINE
8
Layer 1
10
123.410453
20
20.609531
11
120.269906
21
20.644616
0
LINE
8
Layer 1
10
120.269906
20
20.644616
11
117.188829
21
21.193873
0
LINE
8
Layer 1
10
117.188829
20
21.193873
11
115.695880
21
21.686120
0
LINE
8
Layer 1
10
115.695880
20
21.686120
11
114.248145
21
22.336674
0
LINE
8
Layer 1
10
114.248145
20
22.336674
11
112.690375
21
23.168597
0
LINE
8
Layer 1
10
112.690375
20
23.168597
11
114.372489
21
23.414711
0
LINE
8
Layer 1
10
114.372489
20
23.414711
11
115.951416
21
24.060387
0
LINE
8
Layer 1
10
115.951416
20
24.060387
11
117.386278
21
25.022590
0
LINE
8
Layer 1
10
117.386278
20
25.022590
11
118.636195
21
26.218287
0
LINE
8
Layer 1
10
118.636195
20
26.218287
11
119.692355
21
27.568209
0
LINE
8
Layer 1
10
119.692355
20
27.568209
11
120.603756
21
29.022748
0
LINE
8
Layer 1
10
120.603756
20
29.022748
11
122.175625
21
32.091487
0
LINE
8
Layer 1
10
122.175625
20
32.091487
11
119.077645
21
31.103146
0
LINE
8
Layer 1
10
119.077645
20
31.103146
11
115.582501
21
30.146267
0
LINE
8
Layer 1
10
115.582501
20
30.146267
11
113.807171
21
29.928500
0
LINE
8
Layer 1
10
113.807171
20
29.928500
11
112.033125
21
30.024856
0
LINE
8
Layer 1
10
112.033125
20
30.024856
11
112.862829
21
30.701393
0
LINE
8
Layer 1
10
112.862829
20
30.701393
11
114.222349
21
31.980703
0
LINE
8
Layer 1
10
114.222349
20
31.980703
11
116.668169
21
34.150843
0
LINE
8
Layer 1
10
116.668169
20
34.150843
11
116.409137
21
34.149553
0
LINE
8
Layer 1
10
116.409137
20
34.149553
11
116.102644
21
34.146756
0
LINE
8
Layer 1
10
116.102644
20
34.146756
11
115.512619
21
34.138008
0
LINE
8
Layer 1
10
115.512619
20
34.138008
11
114.330709
21
34.119838
0
LINE
8
Layer 1
10
114.330709
20
34.119838
11
111.969469
21
34.165637
0
LINE
8
Layer 1
10
111.969469
20
34.165637
11
110.778309
21
34.269997
0
LINE
8
Layer 1
10
110.778309
20
34.269997
11
109.245559
21
34.581618
0
LINE
8
Layer 1
10
109.245559
20
34.581618
11
108.595088
21
34.947223
0
LINE
8
Layer 1
10
108.595088
20
34.947223
11
108.036269
21
35.441692
0
LINE
8
Layer 1
10
108.036269
20
35.441692
11
107.216201
21
36.686632
0
LINE
8
Layer 1
10
107.216201
20
36.686632
11
106.870919
21
38.136862
0
LINE
8
Layer 1
10
106.870919
20
38.136862
11
107.024677
21
39.319313
0
LINE
8
Layer 1
10
107.024677
20
39.319313
11
107.481580
21
40.398150
0
LINE
8
Layer 1
10
107.481580
20
40.398150
11
108.208305
21
41.317129
0
LINE
8
Layer 1
10
108.208305
20
41.317129
11
109.171529
21
42.020002
0
LINE
8
Layer 1
10
109.171529
20
42.020002
11
108.744064
21
42.379091
0
LINE
8
Layer 1
10
108.744064
20
42.379091
11
108.449167
21
42.860680
0
LINE
8
Layer 1
10
108.449167
20
42.860680
11
108.151319
21
43.990852
0
LINE
8
Layer 1
10
108.151319
20
43.990852
11
108.049110
21
45.560064
0
LINE
8
Layer 1
10
108.049110
20
45.560064
11
108.201328
21
47.114965
0
LINE
8
Layer 1
10
108.201328
20
47.114965
11
108.602444
21
48.624929
0
LINE
8
Layer 1
10
108.602444
20
48.624929
11
109.246929
21
50.059332
0
LINE
8
Layer 1
10
109.246929
20
50.059332
11
110.153010
21
51.345909
0
LINE
8
Layer 1
10
110.153010
20
51.345909
11
111.287151
21
52.414230
0
LINE
8
Layer 1
10
111.287151
20
52.414230
11
112.611418
21
53.235144
0
LINE
8
Layer 1
10
112.611418
20
53.235144
11
114.087879
21
53.779502
0
LINE
8
Layer 1
10
114.087879
20
53.779502
11
115.788902
21
54.021655
0
LINE
8
Layer 1
10
115.788902
20
54.021655
11
117.506529
21
54.171489
0
LINE
8
Layer 1
10
117.506529
20
54.171489
11
119.192823
21
54.561587
0
LINE
8
Layer 1
10
119.192823
20
54.561587
11
119.963165
21
54.930779
0
LINE
8
Layer 1
10
119.963165
20
54.930779
11
120.635329
21
55.452469
0
LINE
8
Layer 1
10
120.635329
20
55.452469
11
119.679361
21
55.274685
0
LINE
8
Layer 1
10
119.679361
20
55.274685
11
118.773355
21
55.359760
0
LINE
8
Layer 1
10
118.773355
20
55.359760
11
117.929923
21
55.668660
0
LINE
8
Layer 1
10
117.929923
20
55.668660
11
117.161682
21
56.162348
0
LINE
8
Layer 1
10
117.161682
20
56.162348
11
116.481243
21
56.801790
0
LINE
8
Layer 1
10
116.481243
20
56.801790
11
115.901222
21
57.547951
0
LINE
8
Layer 1
10
115.901222
20
57.547951
11
115.092889
21
59.204289
0
LINE
8
Layer 1
10
115.092889
20
59.204289
11
114.604417
21
61.250117
0
LINE
8
Layer 1
10
114.604417
20
61.250117
11
114.526357
21
63.443250
0
LINE
8
Layer 1
10
114.526357
20
63.443250
11
114.727573
21
64.481376
0
LINE
8
Layer 1
10
114.727573
20
64.481376
11
115.135001
21
65.419913
0
LINE
8
Layer 1
10
115.135001
20
65.419913
11
115.783177
21
66.213388
0
LINE
8
Layer 1
10
115.783177
20
66.213388
11
116.706639
21
66.816329
0
LINE
8
Layer 1
10
116.706639
20
66.816329
11
117.715842
21
67.149734
0
LINE
8
Layer 1
10
117.715842
20
67.149734
11
118.771219
21
67.288688
0
LINE
8
Layer 1
10
118.771219
20
67.288688
11
120.901589
21
67.194930
0
LINE
8
Layer 1
10
120.901589
20
67.194930
11
124.354478
21
66.799518
0
LINE
8
Layer 1
10
124.354478
20
66.799518
11
126.084556
21
66.688669
0
LINE
8
Layer 1
10
126.084556
20
66.688669
11
127.825059
21
66.715607
0
LINE
8
Layer 1
10
127.825059
20
66.715607
11
130.085029
21
67.012914
0
LINE
8
Layer 1
10
130.085029
20
67.012914
11
131.300369
21
67.240186
0
LINE
8
Layer 1
10
131.300369
20
67.240186
11
132.446849
21
67.652339
0
LINE
8
Layer 1
10
132.446849
20
67.652339
11
132.508345
21
67.691170
0
LINE
8
Layer 1
10
132.508345
20
67.691170
11
131.585894
21
67.635998
0
LINE
8
Layer 1
10
131.585894
20
67.635998
11
133.448989
21
68.168069
0
LINE
8
Layer 1
10
133.448989
20
68.168069
11
135.232484
21
68.925278
0
LINE
8
Layer 1
10
135.232484
20
68.925278
11
136.196759
21
69.449572
0
LINE
8
Layer 1
10
136.196759
20
69.449572
11
137.071983
21
70.102697
0
LINE
8
Layer 1
10
137.071983
20
70.102697
11
137.845425
21
70.873654
0
LINE
8
Layer 1
10
137.845425
20
70.873654
11
138.504354
21
71.751448
0
LINE
8
Layer 1
10
138.504354
20
71.751448
11
137.791941
21
70.952120
0
LINE
8
Layer 1
10
137.791941
20
70.952120
11
136.975965
21
70.267391
0
LINE
8
Layer 1
10
136.975965
20
70.267391
11
136.070021
21
69.707091
0
LINE
8
Layer 1
10
136.070021
20
69.707091
11
135.087704
21
69.281048
0
LINE
8
Layer 1
10
135.087704
20
69.281048
11
133.088467
21
68.653413
0
LINE
8
Layer 1
10
133.088467
20
68.653413
11
131.022684
21
68.302099
0
LINE
8
Layer 1
10
131.022684
20
68.302099
11
128.946453
21
68.204684
0
LINE
8
Layer 1
10
128.946453
20
68.204684
11
126.871874
21
68.332546
0
LINE
8
Layer 1
10
126.871874
20
68.332546
11
125.353061
21
68.610285
0
LINE
8
Layer 1
10
125.353061
20
68.610285
11
123.783399
21
69.103047
0
LINE
8
Layer 1
10
123.783399
20
69.103047
11
122.290298
21
69.792936
0
LINE
8
Layer 1
10
122.290298
20
69.792936
11
121.001164
21
70.662056
0
LINE
8
Layer 1
10
121.001164
20
70.662056
11
120.870260
21
70.865507
0
LINE
8
Layer 1
10
120.870260
20
70.865507
11
120.887784
21
71.087516
0
LINE
8
Layer 1
10
120.887784
20
71.087516
11
121.158926
21
71.487245
0
LINE
8
Layer 1
10
121.158926
20
71.487245
11
122.660425
21
72.603446
0
LINE
8
Layer 1
10
122.660425
20
72.603446
11
124.366310
21
73.307136
0
LINE
8
Layer 1
10
124.366310
20
73.307136
11
126.189531
21
73.694080
0
LINE
8
Layer 1
10
126.189531
20
73.694080
11
128.043036
21
73.860045
0
LINE
8
Layer 1
10
128.043036
20
73.860045
11
129.359525
21
73.784641
0
LINE
8
Layer 1
10
129.359525
20
73.784641
11
130.670046
21
73.678799
0
LINE
8
Layer 1
10
130.670046
20
73.678799
11
130.253404
21
73.936641
0
LINE
8
Layer 1
10
130.253404
20
73.936641
11
129.942122
21
74.344369
0
LINE
8
Layer 1
10
129.942122
20
74.344369
11
129.184522
21
75.332428
0
LINE
8
Layer 1
10
129.184522
20
75.332428
11
127.914283
21
76.591623
0
LINE
8
Layer 1
10
127.914283
20
76.591623
11
126.431000
21
77.591100
0
LINE
8
Layer 1
10
126.431000
20
77.591100
11
124.166391
21
78.446892
0
LINE
8
Layer 1
10
124.166391
20
78.446892
11
121.775030
21
78.824020
0
LINE
8
Layer 1
10
121.775030
20
78.824020
11
118.591320
21
78.967513
0
LINE
8
Layer 1
10
118.591320
20
78.967513
11
115.656577
21
79.045902
0
LINE
8
Layer 1
10
115.656577
20
79.045902
11
112.732229
21
78.863713
0
LINE
8
Layer 1
10
112.732229
20
78.863713
11
109.835576
21
78.422795
0
LINE
8
Layer 1
10
109.835576
20
78.422795
11
106.983920
21
77.725003
0
LINE
8
Layer 1
10
106.983920
20
77.725003
11
103.320731
21
76.485340
0
LINE
8
Layer 1
10
103.320731
20
76.485340
11
99.783500
21
74.922100
0
LINE
8
Layer 1
10
99.783500
20
74.922100
11
100.884280
21
75.768647
0
LINE
8
Layer 1
10
100.884280
20
75.768647
11
103.345220
21
77.722647
0
LINE
8
Layer 1
10
103.345220
20
77.722647
11
105.759720
21
79.697047
0
LINE
8
Layer 1
10
105.759720
20
79.697047
11
107.056348
21
80.522050
0
LINE
8
Layer 1
10
107.056348
20
80.522050
11
108.449230
21
81.171477
0
LINE
8
Layer 1
10
108.449230
20
81.171477
11
109.923626
21
81.583122
0
LINE
8
Layer 1
10
109.923626
20
81.583122
11
111.450450
21
81.693139
0
LINE
8
Layer 1
10
111.450450
20
81.693139
11
109.904327
21
81.677605
0
LINE
8
Layer 1
10
109.904327
20
81.677605
11
108.392250
21
81.354552
0
LINE
8
Layer 1
10
108.392250
20
81.354552
11
106.933405
21
80.780797
0
LINE
8
Layer 1
10
106.933405
20
80.780797
11
105.561970
21
80.021462
0
LINE
8
Layer 1
10
105.561970
20
80.021462
11
104.263880
21
79.121716
0
LINE
8
Layer 1
10
104.263880
20
79.121716
11
103.016890
21
78.185540
0
LINE
8
Layer 1
10
103.016890
20
78.185540
11
100.467210
21
76.399770
0
LINE
8
Layer 1
10
100.467210
20
76.399770
11
97.881700
21
74.648000
0
LINE
8
Layer 1
10
97.881700
20
74.648000
11
95.301490
21
72.934860
0
LINE
8
Layer 1
10
95.301490
20
72.934860
11
92.641580
21
71.524000
0
LINE
8
Layer 1
10
92.641580
20
71.524000
11
92.003535
21
71.285666
0
LINE
8
Layer 1
10
92.003535
20
71.285666
11
91.105598
21
71.071860
0
LINE
8
Layer 1
10
91.105598
20
71.071860
11
89.803907
21
70.881040
0
LINE
8
Layer 1
10
89.803907
20
70.881040
11
88.488478
21
70.902493
0
LINE
8
Layer 1
10
88.488478
20
70.902493
11
87.369998
21
71.249146
0
LINE
8
Layer 1
10
87.369998
20
71.249146
11
86.652180
21
71.894520
0
LINE
8
Layer 1
10
86.652180
20
71.894520
11
87.190025
21
75.453900
0
LINE
8
Layer 1
10
87.190025
20
75.453900
11
87.647738
21
78.648550
0
LINE
8
Layer 1
10
87.647738
20
78.648550
11
87.828738
21
81.440624
0
LINE
8
Layer 1
10
87.828738
20
81.440624
11
87.817165
21
84.018319
0
LINE
8
Layer 1
10
87.817165
20
84.018319
11
87.579751
21
86.516579
0
LINE
8
Layer 1
10
87.579751
20
86.516579
11
87.083229
21
89.070350
0
LINE
8
Layer 1
10
87.083229
20
89.070350
11
86.641178
21
90.190224
0
LINE
8
Layer 1
10
86.641178
20
90.190224
11
85.844189
21
91.092630
0
LINE
8
Layer 1
10
85.844189
20
91.092630
11
85.245301
21
91.382702
0
LINE
8
Layer 1
10
85.245301
20
91.382702
11
84.585229
21
91.298356
0
LINE
8
Layer 1
10
84.585229
20
91.298356
11
83.749984
21
90.646840
0
LINE
8
Layer 1
10
83.749984
20
90.646840
11
83.202405
21
89.719778
0
LINE
8
Layer 1
10
83.202405
20
89.719778
11
82.518349
21
87.635036
0
LINE
8
Layer 1
10
82.518349
20
87.635036
11
82.162701
21
86.522886
0
LINE
8
Layer 1
10
82.162701
20
86.522886
11
80.947761
21
84.345869
0
LINE
8
Layer 1
10
80.947761
20
84.345869
11
79.559447
21
82.377888
0
LINE
8
Layer 1
10
79.559447
20
82.377888
11
78.012828
21
80.606673
0
LINE
8
Layer 1
10
78.012828
20
80.606673
11
76.322978
21
79.019953
0
LINE
8
Layer 1
10
76.322978
20
79.019953
11
74.504968
21
77.605459
0
LINE
8
Layer 1
10
74.504968
20
77.605459
11
72.573870
21
76.350919
0
LINE
8
Layer 1
10
72.573870
20
76.350919
11
70.544755
21
75.244064
0
LINE
8
Layer 1
10
70.544755
20
75.244064
11
68.432695
21
74.272624
0
LINE
8
Layer 1
10
68.432695
20
74.272624
11
64.020027
21
72.686905
0
LINE
8
Layer 1
10
64.020027
20
72.686905
11
59.456439
21
71.495600
0
LINE
8
Layer 1
10
59.456439
20
71.495600
11
54.862506
21
70.600548
0
LINE
8
Layer 1
10
54.862506
20
70.600548
11
50.358801
21
69.903586
0
LINE
8
Layer 1
10
50.358801
20
69.903586
11
47.773001
21
69.554819
0
LINE
8
Layer 1
10
47.773001
20
69.554819
11
45.433027
21
68.870848
0
LINE
8
Layer 1
10
45.433027
20
68.870848
11
43.175579
21
67.874078
0
LINE
8
Layer 1
10
43.175579
20
67.874078
11
41.007480
21
66.614760
0
LINE
8
Layer 1
10
41.007480
20
66.614760
11
38.935551
21
65.143144
0
LINE
8
Layer 1
10
38.935551
20
65.143144
11
36.966616
21
63.509481
0
LINE
8
Layer 1
10
36.966616
20
63.509481
11
35.107498
21
61.764022
0
LINE
8
Layer 1
10
35.107498
20
61.764022
11
31.746001
21
58.138719
0
LINE
8
Layer 1
10
31.746001
20
58.138719
11
29.832366
21
55.651818
0
LINE
8
Layer 1
10
29.832366
20
55.651818
11
28.834962
21
54.858859
0
LINE
8
Layer 1
10
28.834962
20
54.858859
11
27.218831
21
54.296359
0
LINE
8
Layer 1
10
27.218831
20
54.296359
11
23.007676
21
53.545653
0
LINE
8
Layer 1
10
23.007676
20
53.545653
11
18.783710
21
53.119833
0
LINE
8
Layer 1
10
18.783710
20
53.119833
11
14.500229
21
52.920758
0
LINE
8
Layer 1
10
14.500229
20
52.920758
11
10.110531
21
52.850289
0
LINE
8
Layer 1
10
10.110531
20
52.850289
11
6.220859
21
52.742483
0
LINE
8
Layer 1
10
6.220859
20
52.742483
11
4.150458
21
52.559198
0
LINE
8
Layer 1
10
4.150458
20
52.559198
11
2.308341
21
52.227798
0
LINE
8
Layer 1
10
2.308341
20
52.227798
11
1.119925
21
51.721289
0
LINE
8
Layer 1
10
1.119925
20
51.721289
11
0.384201
21
50.959204
0
LINE
8
Layer 1
10
0.384201
20
50.959204
11
0.042062
21
49.980846
0
LINE
8
Layer 1
10
0.042062
20
49.980846
11
0.034401
21
48.825518
0
LINE
8
Layer 1
10
0.034401
20
48.825518
11
0.362767
21
47.322524
0
LINE
8
Layer 1
10
0.362767
20
47.322524
11
0.820310
21
45.950338
0
LINE
8
Layer 1
10
0.820310
20
45.950338
11
1.294578
21
44.475168
0
LINE
8
Layer 1
10
1.294578
20
44.475168
11
2.130421
21
42.038634
0
LINE
8
Layer 1
10
2.130421
20
42.038634
11
3.300898
21
39.709268
0
LINE
8
Layer 1
10
3.300898
20
39.709268
11
4.104539
21
38.376464
0
LINE
8
Layer 1
10
4.104539
20
38.376464
11
5.052838
21
37.212688
0
LINE
8
Layer 1
10
5.052838
20
37.212688
11
6.143000
21
36.248757
0
LINE
8
Layer 1
10
6.143000
20
36.248757
11
7.372228
21
35.515488
0
LINE
8
Layer 1
10
7.372228
20
35.515488
11
8.221702
21
34.358547
0
LINE
8
Layer 1
10
8.221702
20
34.358547
11
9.185627
21
33.300433
0
LINE
8
Layer 1
10
9.185627
20
33.300433
11
10.255485
21
32.349558
0
LINE
8
Layer 1
10
10.255485
20
32.349558
11
11.422758
21
31.514338
0
LINE
8
Layer 1
10
11.422758
20
31.514338
11
10.669245
21
33.675558
0
LINE
8
Layer 1
10
10.669245
20
33.675558
11
11.957293
21
32.057255
0
LINE
8
Layer 1
10
11.957293
20
32.057255
11
13.420984
21
30.605895
0
LINE
8
Layer 1
10
13.420984
20
30.605895
11
15.044305
21
29.335593
0
LINE
8
Layer 1
10
15.044305
20
29.335593
11
16.811245
21
28.260468
0
LINE
8
Layer 1
10
16.811245
20
28.260468
11
15.372576
21
31.619991
0
LINE
8
Layer 1
10
15.372576
20
31.619991
11
14.240925
21
35.094978
0
LINE
8
Layer 1
10
14.240925
20
35.094978
11
14.906780
21
35.019433
0
LINE
8
Layer 1
10
14.906780
20
35.019433
11
16.629760
21
34.878359
0
LINE
8
Layer 1
10
16.629760
20
34.878359
11
19.104390
21
31.968269
0
LINE
8
Layer 1
10
19.104390
20
31.968269
11
18.764942
21
34.818479
0
LINE
8
Layer 1
10
18.764942
20
34.818479
11
19.482260
21
34.824318
0
LINE
8
Layer 1
10
19.482260
20
34.824318
11
20.723542
21
33.670028
0
LINE
8
Layer 1
10
20.723542
20
33.670028
11
22.109840
21
32.694658
0
LINE
8
Layer 1
10
22.109840
20
32.694658
11
21.588195
21
34.794468
0
LINE
8
Layer 1
10
21.588195
20
34.794468
11
23.081245
21
33.730748
0
LINE
8
Layer 1
10
23.081245
20
33.730748
11
22.737925
21
35.000778
0
LINE
8
Layer 1
10
22.737925
20
35.000778
11
26.298344
21
35.544970
0
LINE
8
Layer 1
10
26.298344
20
35.544970
11
28.082965
21
35.786104
0
LINE
8
Layer 1
10
28.082965
20
35.786104
11
29.849245
21
35.852290
0
LINE
8
Layer 1
10
29.849245
20
35.852290
11
31.290769
21
35.700900
0
LINE
8
Layer 1
10
31.290769
20
35.700900
11
32.783355
21
35.293074
0
LINE
8
Layer 1
10
32.783355
20
35.293074
11
34.118448
21
34.560279
0
LINE
8
Layer 1
10
34.118448
20
34.560279
11
34.661762
21
34.050600
0
LINE
8
Layer 1
10
34.661762
20
34.050600
11
35.087495
21
33.433980
0
LINE
8
Layer 1
10
35.087495
20
33.433980
11
35.397148
21
32.467422
0
LINE
8
Layer 1
10
35.397148
20
32.467422
11
35.349339
21
31.514216
0
LINE
8
Layer 1
10
35.349339
20
31.514216
11
35.020307
21
30.598115
0
LINE
8
Layer 1
10
35.020307
20
30.598115
11
34.486289
21
29.742870
0
LINE
8
Layer 1
10
34.486289
20
29.742870
11
32.758409
21
28.690460
0
LINE
8
Layer 1
10
32.758409
20
28.690460
11
31.157729
21
27.453140
0
LINE
8
Layer 1
10
31.157729
20
27.453140
11
29.680061
21
26.153136
0
LINE
8
Layer 1
10
29.680061
20
26.153136
11
28.898040
21
25.577226
0
LINE
8
Layer 1
10
28.898040
20
25.577226
11
28.047639
21
25.128900
0
LINE
8
Layer 1
10
28.047639
20
25.128900
11
27.258648
21
24.883505
0
LINE
8
Layer 1
10
27.258648
20
24.883505
11
26.753773
21
25.751679
0
LINE
8
Layer 1
10
26.753773
20
25.751679
11
26.584908
21
24.741839
0
LINE
8
Layer 1
10
26.584908
20
24.741839
11
25.353211
21
24.526765
0
LINE
8
Layer 1
10
25.353211
20
24.526765
11
24.162748
21
24.170825
0
LINE
8
Layer 1
10
24.162748
20
24.170825
11
23.077300
21
23.501100
0
LINE
8
Layer 1
10
23.077300
20
23.501100
11
22.254905
21
25.118450
0
LINE
8
Layer 1
10
22.254905
20
25.118450
11
21.918415
21
23.621484
0
LINE
8
Layer 1
10
21.918415
20
23.621484
11
21.745156
21
22.096980
0
LINE
8
Layer 1
10
21.745156
20
22.096980
11
21.599730
21
21.915322
0
LINE
8
Layer 1
10
21.599730
20
21.915322
11
19.132120
21
18.790732
0
LINE
8
Layer 1
10
19.132120
20
18.790732
11
18.411908
21
17.545404
0
LINE
8
Layer 1
10
18.411908
20
17.545404
11
18.296986
21
16.843028
0
LINE
8
Layer 1
10
18.296986
20
16.843028
11
18.607320
21
16.246152
0
LINE
8
Layer 1
10
18.607320
20
16.246152
11
19.081804
21
16.120932
0
LINE
8
Layer 1
10
19.081804
20
16.120932
11
19.531490
21
16.317396
0
LINE
8
Layer 1
10
19.531490
20
16.317396
11
20.177708
21
17.112373
0
LINE
8
Layer 1
10
20.177708
20
17.112373
11
20.803211
21
17.753627
0
LINE
8
Layer 1
10
20.803211
20
17.753627
11
20.566111
21
16.803134
0
LINE
8
Layer 1
10
20.566111
20
16.803134
11
20.254354
21
14.450742
0
LINE
8
Layer 1
10
20.254354
20
14.450742
11
20.300980
21
13.148818
0
LINE
8
Layer 1
10
20.300980
20
13.148818
11
20.548491
21
12.755181
0
LINE
8
Layer 1
10
20.548491
20
12.755181
11
20.993362
21
12.460242
0
LINE
8
Layer 1
10
20.993362
20
12.460242
11
22.618871
21
11.947894
0
LINE
8
Layer 1
10
22.618871
20
11.947894
11
24.145649
21
11.772972
0
LINE
8
Layer 1
10
24.145649
20
11.772972
11
25.769460
21
11.888571
0
LINE
8
Layer 1
10
25.769460
20
11.888571
11
28.932461
21
12.314167
0
LINE
8
Layer 1
10
28.932461
20
12.314167
11
31.154567
21
12.664027
0
LINE
8
Layer 1
10
31.154567
20
12.664027
11
33.304500
21
13.325800
0
LINE
8
Layer 1
10
33.304500
20
13.325800
11
35.798505
21
14.456356
0
LINE
8
Layer 1
10
35.798505
20
14.456356
11
38.198741
21
15.789009
0
LINE
8
Layer 1
10
38.198741
20
15.789009
11
40.584826
21
17.153054
0
LINE
8
Layer 1
10
40.584826
20
17.153054
11
43.036380
21
18.377790
0
LINE
8
Layer 1
10
43.036380
20
18.377790
11
45.800878
21
19.404800
0
LINE
8
Layer 1
10
45.800878
20
19.404800
11
48.667641
21
20.175750
0
LINE
8
Layer 1
10
48.667641
20
20.175750
11
54.479180
21
21.230340
0
LINE
8
Layer 1
10
54.479180
20
21.230340
11
57.397320
21
21.537063
0
LINE
8
Layer 1
10
57.397320
20
21.537063
11
60.326148
21
21.626398
0
LINE
8
Layer 1
10
60.326148
20
21.626398
11
63.253541
21
21.498423
0
LINE
8
Layer 1
10
63.253541
20
21.498423
11
66.167380
21
21.153220
0
LINE
8
Layer 1
10
66.167380
20
21.153220
11
66.148601
21
21.055134
0
LINE
8
Layer 1
10
66.148601
20
21.055134
11
69.498445
21
20.159096
0
LINE
8
Layer 1
10
69.498445
20
20.159096
11
72.556050
21
18.941497
0
LINE
8
Layer 1
10
72.556050
20
18.941497
11
75.311229
21
17.407134
0
LINE
8
Layer 1
10
75.311229
20
17.407134
11
77.753801
21
15.560804
0
LINE
8
Layer 1
10
77.753801
20
15.560804
11
79.377371
21
13.992624
0
LINE
8
Layer 1
10
79.377371
20
13.992624
11
81.374917
21
12.101956
0
LINE
8
Layer 1
10
81.374917
20
12.101956
11
82.504386
21
11.274016
0
LINE
8
Layer 1
10
82.504386
20
11.274016
11
83.777681
21
10.600164
0
LINE
8
Layer 1
10
83.777681
20
10.600164
11
85.290161
21
9.983726
0
LINE
8
Layer 1
10
85.290161
20
9.983726
11
89.451791
21
8.119276
0
LINE
8
Layer 1
10
89.451791
20
8.119276
11
92.033791
21
6.708276
0
LINE
8
Layer 1
10
92.033791
20
6.708276
11
90.405561
21
9.237446
0
LINE
8
Layer 1
10
90.405561
20
9.237446
11
90.029486
21
10.041440
0
LINE
8
Layer 1
10
90.029486
20
10.041440
11
90.009273
21
10.541076
0
LINE
8
Layer 1
10
90.009273
20
10.541076
11
90.372735
21
10.820394
0
LINE
8
Layer 1
10
90.372735
20
10.820394
11
91.506292
21
11.057442
0
LINE
8
Layer 1
10
91.506292
20
11.057442
11
92.901045
21
10.751585
0
LINE
8
Layer 1
10
92.901045
20
10.751585
11
95.578585
21
9.577185
0
LINE
8
Layer 1
10
95.578585
20
9.577185
11
95.694053
21
9.523109
0
LINE
8
Layer 1
10
95.694053
20
9.523109
11
97.851743
21
8.538213
0
LINE
8
Layer 1
10
97.851743
20
8.538213
11
102.943133
21
6.091763
0
LINE
8
Layer 1
10
102.943133
20
6.091763
11
105.181642
21
5.032651
0
LINE
8
Layer 1
10
105.181642
20
5.032651
11
107.508643
21
4.185473
0
LINE
8
Layer 1
10
107.508643
20
4.185473
11
109.575330
21
3.572765
0
LINE
8
Layer 1
10
109.575330
20
3.572765
11
111.790113
21
3.214214
0
LINE
8
Layer 1
10
111.790113
20
3.214214
11
112.934388
21
3.201228
0
LINE
8
Layer 1
10
112.934388
20
3.201228
11
114.070503
21
3.338265
0
LINE
8
Layer 1
10
114.070503
20
3.338265
11
117.436473
21
4.227975
0
LINE
8
Layer 1
10
117.436473
20
4.227975
11
114.015883
21
4.850181
0
LINE
8
Layer 1
10
114.015883
20
4.850181
11
113.135685
21
5.104150
0
LINE
8
Layer 1
10
113.135685
20
5.104150
11
112.288360
21
5.517419
0
LINE
8
Layer 1
10
112.288360
20
5.517419
11
110.689000
21
6.689310
0
LINE
8
Layer 1
10
110.689000
20
6.689310
11
110.689000
21
6.689310
0
LINE
8
Layer 1
10
47.898500
20
57.608900
11
47.054130
21
56.519989
0
LINE
8
Layer 1
10
47.054130
20
56.519989
11
46.128896
21
55.614056
0
LINE
8
Layer 1
10
46.128896
20
55.614056
11
45.085937
21
54.903920
0
LINE
8
Layer 1
10
45.085937
20
54.903920
11
43.888390
21
54.402400
0
LINE
8
Layer 1
10
43.888390
20
54.402400
11
42.851922
21
54.198837
0
LINE
8
Layer 1
10
42.851922
20
54.198837
11
41.834515
21
54.162118
0
LINE
8
Layer 1
10
41.834515
20
54.162118
11
39.775210
21
54.172756
0
LINE
8
Layer 1
10
39.775210
20
54.172756
11
37.722746
21
53.841398
0
LINE
8
Layer 1
10
37.722746
20
53.841398
11
35.771410
21
53.123976
0
LINE
8
Layer 1
10
35.771410
20
53.123976
11
36.216062
21
53.632503
0
LINE
8
Layer 1
10
36.216062
20
53.632503
11
36.802730
21
53.967368
0
LINE
8
Layer 1
10
36.802730
20
53.967368
11
37.935547
21
54.623914
0
LINE
8
Layer 1
10
37.935547
20
54.623914
11
38.915809
21
55.441370
0
LINE
8
Layer 1
10
38.915809
20
55.441370
11
40.670710
21
57.376258
0
LINE
8
Layer 1
10
40.670710
20
57.376258
11
42.075194
21
58.663253
0
LINE
8
Layer 1
10
42.075194
20
58.663253
11
43.747190
21
59.576138
0
LINE
8
Layer 1
10
43.747190
20
59.576138
11
45.536299
21
60.100658
0
LINE
8
Layer 1
10
45.536299
20
60.100658
11
47.367820
21
60.367771
0
LINE
8
Layer 1
10
47.367820
20
60.367771
11
48.101479
21
60.336379
0
LINE
8
Layer 1
10
48.101479
20
60.336379
11
48.426409
21
60.093296
0
LINE
8
Layer 1
10
48.426409
20
60.093296
11
48.597257
21
59.778848
0
LINE
8
Layer 1
10
48.597257
20
59.778848
11
48.584697
21
59.022672
0
LINE
8
Layer 1
10
48.584697
20
59.022672
11
48.279784
21
58.241481
0
LINE
8
Layer 1
10
48.279784
20
58.241481
11
47.898500
21
57.608900
0
LINE
8
Layer 1
10
47.898500
20
57.608900
11
47.898500
21
57.608900
0
LINE
8
Layer 1
10
117.410100
20
29.259100
11
114.151870
21
27.675118
0
LINE
8
Layer 1
10
114.151870
20
27.675118
11
110.698800
21
26.579050
0
LINE
8
Layer 1
10
110.698800
20
26.579050
11
107.130062
21
25.909849
0
LINE
8
Layer 1
10
107.130062
20
25.909849
11
103.510860
21
25.618129
0
LINE
8
Layer 1
10
103.510860
20
25.618129
11
99.874065
21
25.766723
0
LINE
8
Layer 1
10
99.874065
20
25.766723
11
96.278200
21
26.330740
0
LINE
8
Layer 1
10
96.278200
20
26.330740
11
94.501460
21
26.771145
0
LINE
8
Layer 1
10
94.501460
20
26.771145
11
93.022030
21
27.296769
0
LINE
8
Layer 1
10
93.022030
20
27.296769
11
95.694910
21
25.919809
0
LINE
8
Layer 1
10
95.694910
20
25.919809
11
97.509560
21
25.171277
0
LINE
8
Layer 1
10
97.509560
20
25.171277
11
99.376680
21
24.570376
0
LINE
8
Layer 1
10
99.376680
20
24.570376
11
101.284963
21
24.116959
0
LINE
8
Layer 1
10
101.284963
20
24.116959
11
103.225520
21
23.831699
0
LINE
8
Layer 1
10
103.225520
20
23.831699
11
105.189393
21
23.726553
0
LINE
8
Layer 1
10
105.189393
20
23.726553
11
107.153490
21
23.827418
0
LINE
8
Layer 1
10
107.153490
20
23.827418
11
111.119590
21
24.298712
0
LINE
8
Layer 1
10
111.119590
20
24.298712
11
107.214700
21
23.399361
0
LINE
8
Layer 1
10
107.214700
20
23.399361
11
105.201766
21
23.150893
0
LINE
8
Layer 1
10
105.201766
20
23.150893
11
103.173560
21
23.146366
0
LINE
8
Layer 1
10
103.173560
20
23.146366
11
101.151541
21
23.355652
0
LINE
8
Layer 1
10
101.151541
20
23.355652
11
99.160360
21
23.764997
0
LINE
8
Layer 1
10
99.160360
20
23.764997
11
97.218443
21
24.362603
0
LINE
8
Layer 1
10
97.218443
20
24.362603
11
95.332230
21
25.117837
0
LINE
8
Layer 1
10
95.332230
20
25.117837
11
91.782000
21
27.071300
0
LINE
8
Layer 1
10
91.782000
20
27.071300
11
90.128040
21
28.236440
0
LINE
8
Layer 1
10
90.128040
20
28.236440
11
88.540450
21
29.446180
0
LINE
8
Layer 1
10
88.540450
20
29.446180
11
82.106810
21
34.174290
0
LINE
8
Layer 1
10
82.106810
20
34.174290
11
85.585071
21
32.188363
0
LINE
8
Layer 1
10
85.585071
20
32.188363
11
88.940750
21
30.001670
0
LINE
8
Layer 1
10
88.940750
20
30.001670
11
90.130910
21
29.176106
0
LINE
8
Layer 1
10
90.130910
20
29.176106
11
93.194041
21
27.773453
0
LINE
8
Layer 1
10
93.194041
20
27.773453
11
94.758318
21
27.189923
0
LINE
8
Layer 1
10
94.758318
20
27.189923
11
96.373610
21
26.761106
0
LINE
8
Layer 1
10
96.373610
20
26.761106
11
99.915391
21
26.127875
0
LINE
8
Layer 1
10
99.915391
20
26.127875
11
103.506580
21
25.907517
0
LINE
8
Layer 1
10
103.506580
20
25.907517
11
107.107439
21
26.125778
0
LINE
8
Layer 1
10
107.107439
20
26.125778
11
110.665630
21
26.720000
0
LINE
8
Layer 1
10
110.665630
20
26.720000
11
114.130136
21
27.744326
0
LINE
8
Layer 1
10
114.130136
20
27.744326
11
117.410000
21
29.259100
0
LINE
8
Layer 1
10
117.410000
20
29.259100
11
117.410100
21
29.259100
0
LINE
8
Layer 1
10
110.734000
20
32.636200
11
108.270060
21
31.994328
0
LINE
8
Layer 1
10
108.270060
20
31.994328
11
105.727400
21
31.860612
0
LINE
8
Layer 1
10
105.727400
20
31.860612
11
103.185110
21
32.286465
0
LINE
8
Layer 1
10
103.185110
20
32.286465
11
100.773410
21
33.065398
0
LINE
8
Layer 1
10
100.773410
20
33.065398
11
98.426290
21
33.903936
0
LINE
8
Layer 1
10
98.426290
20
33.903936
11
96.064120
21
34.570846
0
LINE
8
Layer 1
10
96.064120
20
34.570846
11
93.636450
21
34.822495
0
LINE
8
Layer 1
10
93.636450
20
34.822495
11
91.137170
21
34.692391
0
LINE
8
Layer 1
10
91.137170
20
34.692391
11
93.605920
21
35.253908
0
LINE
8
Layer 1
10
93.605920
20
35.253908
11
94.891500
21
35.337771
0
LINE
8
Layer 1
10
94.891500
20
35.337771
11
96.176740
21
35.248853
0
LINE
8
Layer 1
10
96.176740
20
35.248853
11
98.677820
21
34.699056
0
LINE
8
Layer 1
10
98.677820
20
34.699056
11
101.071170
21
33.893741
0
LINE
8
Layer 1
10
101.071170
20
33.893741
11
103.418360
21
33.084715
0
LINE
8
Layer 1
10
103.418360
20
33.084715
11
105.790280
21
32.542392
0
LINE
8
Layer 1
10
105.790280
20
32.542392
11
108.265250
21
32.425379
0
LINE
8
Layer 1
10
108.265250
20
32.425379
11
110.734000
21
32.636200
0
LINE
8
Layer 1
10
110.734000
20
32.636200
11
110.734000
21
32.636200
0
LINE
8
Layer 1
10
94.006100
20
44.916100
11
95.839820
21
43.903720
0
LINE
8
Layer 1
10
95.839820
20
43.903720
11
97.790510
21
43.146174
0
LINE
8
Layer 1
10
97.790510
20
43.146174
11
99.836378
21
42.694813
0
LINE
8
Layer 1
10
99.836378
20
42.694813
11
101.929490
21
42.604353
0
LINE
8
Layer 1
10
101.929490
20
42.604353
11
104.029550
21
42.896735
0
LINE
8
Layer 1
10
104.029550
20
42.896735
11
106.176920
21
43.098481
0
LINE
8
Layer 1
10
106.176920
20
43.098481
11
105.119854
21
42.937295
0
LINE
8
Layer 1
10
105.119854
20
42.937295
11
104.086320
21
42.659267
0
LINE
8
Layer 1
10
104.086320
20
42.659267
11
101.967340
21
42.173541
0
LINE
8
Layer 1
10
101.967340
20
42.173541
11
99.771053
21
42.122642
0
LINE
8
Layer 1
10
99.771053
20
42.122642
11
97.604200
21
42.484600
0
LINE
8
Layer 1
10
97.604200
20
42.484600
11
95.523861
21
43.200752
0
LINE
8
Layer 1
10
95.523861
20
43.200752
11
93.567280
21
44.206970
0
LINE
8
Layer 1
10
93.567280
20
44.206970
11
91.764380
21
45.462830
0
LINE
8
Layer 1
10
91.764380
20
45.462830
11
90.090070
21
46.816720
0
LINE
8
Layer 1
10
90.090070
20
46.816720
11
88.432598
21
48.109275
0
LINE
8
Layer 1
10
88.432598
20
48.109275
11
86.649410
21
49.222000
0
LINE
8
Layer 1
10
86.649410
20
49.222000
11
85.714200
21
49.661061
0
LINE
8
Layer 1
10
85.714200
20
49.661061
11
84.729609
21
50.018035
0
LINE
8
Layer 1
10
84.729609
20
50.018035
11
82.697349
21
50.563960
0
LINE
8
Layer 1
10
82.697349
20
50.563960
11
80.605930
21
50.908019
0
LINE
8
Layer 1
10
80.605930
20
50.908019
11
78.483322
21
51.104628
0
LINE
8
Layer 1
10
78.483322
20
51.104628
11
74.192749
21
51.290882
0
LINE
8
Layer 1
10
74.192749
20
51.290882
11
78.495778
21
51.535097
0
LINE
8
Layer 1
10
78.495778
20
51.535097
11
80.659093
21
51.479672
0
LINE
8
Layer 1
10
80.659093
20
51.479672
11
82.823429
21
51.236978
0
LINE
8
Layer 1
10
82.823429
20
51.236978
11
84.959469
21
50.752637
0
LINE
8
Layer 1
10
84.959469
20
50.752637
11
86.004629
21
50.407273
0
LINE
8
Layer 1
10
86.004629
20
50.407273
11
87.026709
21
49.963089
0
LINE
8
Layer 1
10
87.026709
20
49.963089
11
88.903420
21
48.829630
0
LINE
8
Layer 1
10
88.903420
20
48.829630
11
90.645979
21
47.499119
0
LINE
8
Layer 1
10
90.645979
20
47.499119
11
91.614873
21
46.700899
0
LINE
8
Layer 1
10
91.614873
20
46.700899
11
94.441257
21
46.056013
0
LINE
8
Layer 1
10
94.441257
20
46.056013
11
97.336573
21
45.909489
0
LINE
8
Layer 1
10
97.336573
20
45.909489
11
100.314143
21
46.212223
0
LINE
8
Layer 1
10
100.314143
20
46.212223
11
103.299243
21
46.690434
0
LINE
8
Layer 1
10
103.299243
20
46.690434
11
101.850133
21
46.244639
0
LINE
8
Layer 1
10
101.850133
20
46.244639
11
100.378583
21
45.869335
0
LINE
8
Layer 1
10
100.378583
20
45.869335
11
97.354143
21
45.481486
0
LINE
8
Layer 1
10
97.354143
20
45.481486
11
95.029509
21
45.496033
0
LINE
8
Layer 1
10
95.029509
20
45.496033
11
92.726773
21
45.814683
0
LINE
8
Layer 1
10
92.726773
20
45.814683
11
94.006200
21
44.916100
0
LINE
8
Layer 1
10
94.006200
20
44.916100
11
94.006100
21
44.916100
0
LINE
8
Layer 1
10
78.785000
20
64.489500
11
79.460888
21
64.856061
0
LINE
8
Layer 1
10
79.460888
20
64.856061
11
80.906348
21
65.391718
0
LINE
8
Layer 1
10
80.906348
20
65.391718
11
82.417973
21
65.709650
0
LINE
8
Layer 1
10
82.417973
20
65.709650
11
83.954658
21
65.866777
0
LINE
8
Layer 1
10
83.954658
20
65.866777
11
87.024472
21
65.909648
0
LINE
8
Layer 1
10
87.024472
20
65.909648
11
90.049128
21
65.986721
0
LINE
8
Layer 1
10
90.049128
20
65.986721
11
93.006558
21
66.475611
0
LINE
8
Layer 1
10
93.006558
20
66.475611
11
95.890588
21
67.331475
0
LINE
8
Layer 1
10
95.890588
20
67.331475
11
98.678808
21
68.486278
0
LINE
8
Layer 1
10
98.678808
20
68.486278
11
101.355328
21
69.880545
0
LINE
8
Layer 1
10
101.355328
20
69.880545
11
106.616279
21
72.970135
0
LINE
8
Layer 1
10
106.616279
20
72.970135
11
109.299348
21
74.465713
0
LINE
8
Layer 1
10
109.299348
20
74.465713
11
112.093628
21
75.779045
0
LINE
8
Layer 1
10
112.093628
20
75.779045
11
115.027135
21
76.770789
0
LINE
8
Layer 1
10
115.027135
20
76.770789
11
118.083000
21
77.271500
0
LINE
8
Layer 1
10
118.083000
20
77.271500
11
119.624182
21
77.294011
0
LINE
8
Layer 1
10
119.624182
20
77.294011
11
121.155970
21
77.161915
0
LINE
8
Layer 1
10
121.155970
20
77.161915
11
122.666775
21
76.876800
0
LINE
8
Layer 1
10
122.666775
20
76.876800
11
124.145010
21
76.440255
0
LINE
8
Layer 1
10
124.145010
20
76.440255
11
121.141780
21
76.930192
0
LINE
8
Layer 1
10
121.141780
20
76.930192
11
119.630418
21
76.965051
0
LINE
8
Layer 1
10
119.630418
20
76.965051
11
118.123500
21
76.844114
0
LINE
8
Layer 1
10
118.123500
20
76.844114
11
115.179093
21
76.217863
0
LINE
8
Layer 1
10
115.179093
20
76.217863
11
112.364530
21
75.150174
0
LINE
8
Layer 1
10
112.364530
20
75.150174
11
109.658481
21
73.783589
0
LINE
8
Layer 1
10
109.658481
20
73.783589
11
107.040480
21
72.255084
0
LINE
8
Layer 1
10
107.040480
20
72.255084
11
101.784450
21
69.111844
0
LINE
8
Layer 1
10
101.784450
20
69.111844
11
99.032576
21
67.701032
0
LINE
8
Layer 1
10
99.032576
20
67.701032
11
96.164820
21
66.543804
0
LINE
8
Layer 1
10
96.164820
20
66.543804
11
95.854901
21
66.443926
0
LINE
8
Layer 1
10
95.854901
20
66.443926
11
97.600751
21
66.361413
0
LINE
8
Layer 1
10
97.600751
20
66.361413
11
100.025851
21
66.015584
0
LINE
8
Layer 1
10
100.025851
20
66.015584
11
102.398491
21
65.460070
0
LINE
8
Layer 1
10
102.398491
20
65.460070
11
104.766112
21
64.948850
0
LINE
8
Layer 1
10
104.766112
20
64.948850
11
107.162191
21
64.594190
0
LINE
8
Layer 1
10
107.162191
20
64.594190
11
109.582255
21
64.477450
0
LINE
8
Layer 1
10
109.582255
20
64.477450
11
111.995481
21
64.693512
0
LINE
8
Layer 1
10
111.995481
20
64.693512
11
109.580795
21
64.403979
0
LINE
8
Layer 1
10
109.580795
20
64.403979
11
107.149211
21
64.447956
0
LINE
8
Layer 1
10
107.149211
20
64.447956
11
104.729814
21
64.731673
0
LINE
8
Layer 1
10
104.729814
20
64.731673
11
102.334271
21
65.173659
0
LINE
8
Layer 1
10
102.334271
20
65.173659
11
99.960851
21
65.654342
0
LINE
8
Layer 1
10
99.960851
20
65.654342
11
97.568571
21
65.922261
0
LINE
8
Layer 1
10
97.568571
20
65.922261
11
95.289763
21
65.931328
0
LINE
8
Layer 1
10
95.289763
20
65.931328
11
93.023481
21
65.692546
0
LINE
8
Layer 1
10
93.023481
20
65.692546
11
91.647831
21
65.447013
0
LINE
8
Layer 1
10
91.647831
20
65.447013
11
90.873606
21
65.358048
0
LINE
8
Layer 1
10
90.873606
20
65.358048
11
90.094575
21
65.300887
0
LINE
8
Layer 1
10
90.094575
20
65.300887
11
87.009594
21
65.333685
0
LINE
8
Layer 1
10
87.009594
20
65.333685
11
83.967985
21
65.435168
0
LINE
8
Layer 1
10
83.967985
20
65.435168
11
82.458238
21
65.379412
0
LINE
8
Layer 1
10
82.458238
20
65.379412
11
80.962745
21
65.165065
0
LINE
8
Layer 1
10
80.962745
20
65.165065
11
79.509051
21
64.733132
0
LINE
8
Layer 1
10
79.509051
20
64.733132
11
78.148525
21
64.063235
0
LINE
8
Layer 1
10
78.148525
20
64.063235
11
78.785000
21
64.489500
0
LINE
8
Layer 1
10
70.565660
20
58.134430
11
73.419450
21
58.502549
0
LINE
8
Layer 1
10
73.419450
20
58.502549
11
76.300259
21
58.596571
0
LINE
8
Layer 1
10
76.300259
20
58.596571
11
79.179490
21
58.462663
0
LINE
8
Layer 1
10
79.179490
20
58.462663
11
82.042437
21
58.140021
0
LINE
8
Layer 1
10
82.042437
20
58.140021
11
84.883340
21
57.660611
0
LINE
8
Layer 1
10
84.883340
20
57.660611
11
88.472510
21
56.830638
0
LINE
8
Layer 1
10
88.472510
20
56.830638
11
92.563970
21
56.580307
0
LINE
8
Layer 1
10
92.563970
20
56.580307
11
94.860730
21
56.622913
0
LINE
8
Layer 1
10
94.860730
20
56.622913
11
97.141670
21
56.895371
0
LINE
8
Layer 1
10
97.141670
20
56.895371
11
101.641820
21
57.930311
0
LINE
8
Layer 1
10
101.641820
20
57.930311
11
103.861159
21
58.612718
0
LINE
8
Layer 1
10
103.861159
20
58.612718
11
106.118170
21
59.162751
0
LINE
8
Layer 1
10
106.118170
20
59.162751
11
103.896166
21
58.503494
0
LINE
8
Layer 1
10
103.896166
20
58.503494
11
101.713350
21
57.712291
0
LINE
8
Layer 1
10
101.713350
20
57.712291
11
99.487860
21
57.017839
0
LINE
8
Layer 1
10
99.487860
20
57.017839
11
97.219640
21
56.470066
0
LINE
8
Layer 1
10
97.219640
20
56.470066
11
94.898373
21
56.153473
0
LINE
8
Layer 1
10
94.898373
20
56.153473
11
92.557080
21
56.070680
0
LINE
8
Layer 1
10
92.557080
20
56.070680
11
91.282990
21
56.098741
0
LINE
8
Layer 1
10
91.282990
20
56.098741
11
91.861404
21
55.945034
0
LINE
8
Layer 1
10
91.861404
20
55.945034
11
93.250094
21
55.532459
0
LINE
8
Layer 1
10
93.250094
20
55.532459
11
95.948984
21
54.584724
0
LINE
8
Layer 1
10
95.948984
20
54.584724
11
98.652104
21
53.897906
0
LINE
8
Layer 1
10
98.652104
20
53.897906
11
101.427404
21
53.752226
0
LINE
8
Layer 1
10
101.427404
20
53.752226
11
104.182494
21
54.193240
0
LINE
8
Layer 1
10
104.182494
20
54.193240
11
106.868424
21
55.104580
0
LINE
8
Layer 1
10
106.868424
20
55.104580
11
109.623804
21
55.943671
0
LINE
8
Layer 1
10
109.623804
20
55.943671
11
111.048334
21
56.170933
0
LINE
8
Layer 1
10
111.048334
20
56.170933
11
112.484684
21
56.160002
0
LINE
8
Layer 1
10
112.484684
20
56.160002
11
111.067771
21
56.039124
0
LINE
8
Layer 1
10
111.067771
20
56.039124
11
109.682504
21
55.717735
0
LINE
8
Layer 1
10
109.682504
20
55.717735
11
107.026604
21
54.702825
0
LINE
8
Layer 1
10
107.026604
20
54.702825
11
104.343334
21
53.638815
0
LINE
8
Layer 1
10
104.343334
20
53.638815
11
102.925085
21
53.275469
0
LINE
8
Layer 1
10
102.925085
20
53.275469
11
101.475994
21
53.066692
0
LINE
8
Layer 1
10
101.475994
20
53.066692
11
98.546090
21
53.133931
0
LINE
8
Layer 1
10
98.546090
20
53.133931
11
95.690224
21
53.791876
0
LINE
8
Layer 1
10
95.690224
20
53.791876
11
92.980074
21
54.715349
0
LINE
8
Layer 1
10
92.980074
20
54.715349
11
90.243834
21
55.464042
0
LINE
8
Layer 1
10
90.243834
20
55.464042
11
84.718024
21
56.845602
0
LINE
8
Layer 1
10
84.718024
20
56.845602
11
79.112224
21
57.781332
0
LINE
8
Layer 1
10
79.112224
20
57.781332
11
76.281233
21
58.023546
0
LINE
8
Layer 1
10
76.281233
20
58.023546
11
73.440344
21
58.073852
0
LINE
8
Layer 1
10
73.440344
20
58.073852
11
70.597884
21
57.904575
0
LINE
8
Layer 1
10
70.597884
20
57.904575
11
69.184464
21
57.708868
0
LINE
8
Layer 1
10
69.184464
20
57.708868
11
67.766604
21
57.507266
0
LINE
8
Layer 1
10
67.766604
20
57.507266
11
70.565700
21
58.134400
0
LINE
8
Layer 1
10
70.565700
20
58.134400
11
70.565660
21
58.134430
0
LINE
8
Layer 1
10
68.890130
20
47.112530
11
70.921119
21
46.832573
0
LINE
8
Layer 1
10
70.921119
20
46.832573
11
72.913640
21
46.349718
0
LINE
8
Layer 1
10
72.913640
20
46.349718
11
74.839674
21
45.627528
0
LINE
8
Layer 1
10
74.839674
20
45.627528
11
76.680630
21
44.709898
0
LINE
8
Layer 1
10
76.680630
20
44.709898
11
80.128890
21
42.583038
0
LINE
8
Layer 1
10
80.128890
20
42.583038
11
83.542890
21
40.513568
0
LINE
8
Layer 1
10
83.542890
20
40.513568
11
85.329305
21
39.649519
0
LINE
8
Layer 1
10
85.329305
20
39.649519
11
87.192260
21
38.965958
0
LINE
8
Layer 1
10
87.192260
20
38.965958
11
89.137697
21
38.518965
0
LINE
8
Layer 1
10
89.137697
20
38.518965
11
91.129050
21
38.380988
0
LINE
8
Layer 1
10
91.129050
20
38.380988
11
89.099060
21
38.278894
0
LINE
8
Layer 1
10
89.099060
20
38.278894
11
87.084610
21
38.549585
0
LINE
8
Layer 1
10
87.084610
20
38.549585
11
85.120873
21
39.115438
0
LINE
8
Layer 1
10
85.120873
20
39.115438
11
83.234760
21
39.902225
0
LINE
8
Layer 1
10
83.234760
20
39.902225
11
79.687146
21
41.880086
0
LINE
8
Layer 1
10
79.687146
20
41.880086
11
76.253600
21
43.940215
0
LINE
8
Layer 1
10
76.253600
20
43.940215
11
74.499986
21
44.836151
0
LINE
8
Layer 1
10
74.499986
20
44.836151
11
72.665990
21
45.553315
0
LINE
8
Layer 1
10
72.665990
20
45.553315
11
70.759673
21
46.076769
0
LINE
8
Layer 1
10
70.759673
20
46.076769
11
68.814510
21
46.429462
0
LINE
8
Layer 1
10
68.814510
20
46.429462
11
66.824672
21
46.606494
0
LINE
8
Layer 1
10
66.824672
20
46.606494
11
64.830682
21
46.611288
0
LINE
8
Layer 1
10
64.830682
20
46.611288
11
62.843691
21
46.444298
0
LINE
8
Layer 1
10
62.843691
20
46.444298
11
60.874850
21
46.105979
0
LINE
8
Layer 1
10
60.874850
20
46.105979
11
62.828771
21
46.683275
0
LINE
8
Layer 1
10
62.828771
20
46.683275
11
64.827810
21
47.044964
0
LINE
8
Layer 1
10
64.827810
20
47.044964
11
66.854207
21
47.188816
0
LINE
8
Layer 1
10
66.854207
20
47.188816
11
68.890200
21
47.112600
0
LINE
8
Layer 1
10
68.890200
20
47.112600
11
68.890130
21
47.112530
0
LINE
8
Layer 1
10
62.883170
20
32.616130
11
65.162780
21
32.863788
0
LINE
8
Layer 1
10
65.162780
20
32.863788
11
67.451156
21
32.922167
0
LINE
8
Layer 1
10
67.451156
20
32.922167
11
69.736542
21
32.791452
0
LINE
8
Layer 1
10
69.736542
20
32.791452
11
72.007180
21
32.471830
0
LINE
8
Layer 1
10
72.007180
20
32.471830
11
74.251513
21
31.965552
0
LINE
8
Layer 1
10
74.251513
20
31.965552
11
76.451280
21
31.291480
0
LINE
8
Layer 1
10
76.451280
20
31.291480
11
78.595982
21
30.448852
0
LINE
8
Layer 1
10
78.595982
20
30.448852
11
80.673480
21
29.451970
0
LINE
8
Layer 1
10
80.673480
20
29.451970
11
82.677229
21
28.310637
0
LINE
8
Layer 1
10
82.677229
20
28.310637
11
84.597580
21
27.033960
0
LINE
8
Layer 1
10
84.597580
20
27.033960
11
88.367870
21
24.512280
0
LINE
8
Layer 1
10
88.367870
20
24.512280
11
92.326731
21
22.338825
0
LINE
8
Layer 1
10
92.326731
20
22.338825
11
96.491600
21
20.592300
0
LINE
8
Layer 1
10
96.491600
20
20.592300
11
100.808971
21
19.236054
0
LINE
8
Layer 1
10
100.808971
20
19.236054
11
105.225920
21
18.251340
0
LINE
8
Layer 1
10
105.225920
20
18.251340
11
109.712576
21
17.618555
0
LINE
8
Layer 1
10
109.712576
20
17.618555
11
114.235250
21
17.343028
0
LINE
8
Layer 1
10
114.235250
20
17.343028
11
118.764790
21
17.467632
0
LINE
8
Layer 1
10
118.764790
20
17.467632
11
123.261720
21
18.048877
0
LINE
8
Layer 1
10
123.261720
20
18.048877
11
127.731120
21
18.970092
0
LINE
8
Layer 1
10
127.731120
20
18.970092
11
130.012800
21
19.201491
0
LINE
8
Layer 1
10
130.012800
20
19.201491
11
132.287530
21
18.983494
0
LINE
8
Layer 1
10
132.287530
20
18.983494
11
130.020080
21
19.069768
0
LINE
8
Layer 1
10
130.020080
20
19.069768
11
127.774770
21
18.742112
0
LINE
8
Layer 1
10
127.774770
20
18.742112
11
123.347230
21
17.628322
0
LINE
8
Layer 1
10
123.347230
20
17.628322
11
118.814733
21
16.894919
0
LINE
8
Layer 1
10
118.814733
20
16.894919
11
114.229380
21
16.658390
0
LINE
8
Layer 1
10
114.229380
20
16.658390
11
109.632180
21
16.849706
0
LINE
8
Layer 1
10
109.632180
20
16.849706
11
105.076792
21
17.434076
0
LINE
8
Layer 1
10
105.076792
20
17.434076
11
100.588348
21
18.407174
0
LINE
8
Layer 1
10
100.588348
20
18.407174
11
96.191980
21
19.764670
0
LINE
8
Layer 1
10
96.191980
20
19.764670
11
91.950701
21
21.564124
0
LINE
8
Layer 1
10
91.950701
20
21.564124
11
87.925420
21
23.805460
0
LINE
8
Layer 1
10
87.925420
20
23.805460
11
84.144810
21
26.409120
0
LINE
8
Layer 1
10
84.144810
20
26.409120
11
80.347800
21
28.846750
0
LINE
8
Layer 1
10
80.347800
20
28.846750
11
78.336466
21
29.870209
0
LINE
8
Layer 1
10
78.336466
20
29.870209
11
76.254219
21
30.749523
0
LINE
8
Layer 1
10
76.254219
20
30.749523
11
74.111981
21
31.477867
0
LINE
8
Layer 1
10
74.111981
20
31.477867
11
71.920675
21
32.048419
0
LINE
8
Layer 1
10
71.920675
20
32.048419
11
69.691222
21
32.454352
0
LINE
8
Layer 1
10
69.691222
20
32.454352
11
67.434544
21
32.688843
0
LINE
8
Layer 1
10
67.434544
20
32.688843
11
65.161563
21
32.745067
0
LINE
8
Layer 1
10
65.161563
20
32.745067
11
62.883200
21
32.616200
0
LINE
8
Layer 1
10
62.883200
20
32.616200
11
62.883170
21
32.616130
0
LINE
8
Layer 1
10
105.840670
20
6.286930
11
103.686509
21
7.301138
0
LINE
8
Layer 1
10
103.686509
20
7.301138
11
101.630160
21
8.501330
0
LINE
8
Layer 1
10
101.630160
20
8.501330
11
97.746050
21
11.222160
0
LINE
8
Layer 1
10
97.746050
20
11.222160
11
93.992750
21
14.062550
0
LINE
8
Layer 1
10
93.992750
20
14.062550
11
90.098970
21
16.634720
0
LINE
8
Layer 1
10
90.098970
20
16.634720
11
85.947370
21
18.752930
0
LINE
8
Layer 1
10
85.947370
20
18.752930
11
83.770981
21
19.586701
0
LINE
8
Layer 1
10
83.770981
20
19.586701
11
81.527901
21
20.233514
0
LINE
8
Layer 1
10
81.527901
20
20.233514
11
79.227853
21
20.655422
0
LINE
8
Layer 1
10
79.227853
20
20.655422
11
76.880560
21
20.814480
0
LINE
8
Layer 1
10
76.880560
20
20.814480
11
79.248239
21
20.898826
0
LINE
8
Layer 1
10
79.248239
20
20.898826
11
81.611969
21
20.657500
0
LINE
8
Layer 1
10
81.611969
20
20.657500
11
83.940971
21
20.138641
0
LINE
8
Layer 1
10
83.940971
20
20.138641
11
86.204470
21
19.390390
0
LINE
8
Layer 1
10
86.204470
20
19.390390
11
88.393265
21
18.444890
0
LINE
8
Layer 1
10
88.393265
20
18.444890
11
90.512224
21
17.357535
0
LINE
8
Layer 1
10
90.512224
20
17.357535
11
92.554465
21
16.132147
0
LINE
8
Layer 1
10
92.554465
20
16.132147
11
94.513110
21
14.772550
0
LINE
8
Layer 1
10
94.513110
20
14.772550
11
98.251852
21
11.880911
0
LINE
8
Layer 1
10
98.251852
20
11.880911
11
102.007740
21
9.072530
0
LINE
8
Layer 1
10
102.007740
20
9.072530
11
103.967411
21
7.801321
0
LINE
8
Layer 1
10
103.967411
20
7.801321
11
106.017151
21
6.679463
0
LINE
8
Layer 1
10
106.017151
20
6.679463
11
108.166905
21
5.763731
0
LINE
8
Layer 1
10
108.166905
20
5.763731
11
110.426620
21
5.110900
0
LINE
8
Layer 1
10
110.426620
20
5.110900
11
108.091276
21
5.533066
0
LINE
8
Layer 1
10
108.091276
20
5.533066
11
105.841000
21
6.286930
0
LINE
8
Layer 1
10
105.841000
20
6.286930
11
105.840670
21
6.286930
0
LINE
8
Layer 1
10
109.080070
20
11.988040
11
107.729720
21
12.669042
0
LINE
8
Layer 1
10
107.729720
20
12.669042
11
105.029558
21
13.959982
0
LINE
8
Layer 1
10
105.029558
20
13.959982
11
103.629646
21
14.472594
0
LINE
8
Layer 1
10
103.629646
20
14.472594
11
102.168070
21
14.825042
0
LINE
8
Layer 1
10
102.168070
20
14.825042
11
103.688271
21
14.708354
0
LINE
8
Layer 1
10
103.688271
20
14.708354
11
105.173730
21
14.364783
0
LINE
8
Layer 1
10
105.173730
20
14.364783
11
108.021280
21
13.288503
0
LINE
8
Layer 1
10
108.021280
20
13.288503
11
109.401730
21
12.687260
0
LINE
8
Layer 1
10
109.401730
20
12.687260
11
110.773870
21
12.175614
0
LINE
8
Layer 1
10
110.773870
20
12.175614
11
112.177773
21
11.813976
0
LINE
8
Layer 1
10
112.177773
20
11.813976
11
113.617050
21
11.640168
0
LINE
8
Layer 1
10
113.617050
20
11.640168
11
115.050815
21
11.667126
0
LINE
8
Layer 1
10
115.050815
20
11.667126
11
116.476725
21
11.923871
0
LINE
8
Layer 1
10
116.476725
20
11.923871
11
119.354730
21
12.746028
0
LINE
8
Layer 1
10
119.354730
20
12.746028
11
120.890403
21
13.008891
0
LINE
8
Layer 1
10
120.890403
20
13.008891
11
122.448130
21
12.979330
0
LINE
8
Layer 1
10
122.448130
20
12.979330
11
123.954001
21
12.748339
0
LINE
8
Layer 1
10
123.954001
20
12.748339
11
125.422050
21
12.341105
0
LINE
8
Layer 1
10
125.422050
20
12.341105
11
122.431860
21
12.547240
0
LINE
8
Layer 1
10
122.431860
20
12.547240
11
120.978681
21
12.439593
0
LINE
8
Layer 1
10
120.978681
20
12.439593
11
119.563740
21
12.091372
0
LINE
8
Layer 1
10
119.563740
20
12.091372
11
116.682720
21
11.116241
0
LINE
8
Layer 1
10
116.682720
20
11.116241
11
115.147880
21
10.811464
0
LINE
8
Layer 1
10
115.147880
20
10.811464
11
113.569180
21
10.761330
0
LINE
8
Layer 1
10
113.569180
20
10.761330
11
112.018171
21
10.968578
0
LINE
8
Layer 1
10
112.018171
20
10.968578
11
110.510330
21
11.386903
0
LINE
8
Layer 1
10
110.510330
20
11.386903
11
109.080000
21
11.988000
0
LINE
8
Layer 1
10
109.080000
20
11.988000
11
109.080070
21
11.988040
0
LINE
8
Layer 1
10
240.740000
20
46.554600
11
239.684076
21
46.458946
0
LINE
8
Layer 1
10
239.684076
20
46.458946
11
238.601104
21
46.159730
0
LINE
8
Layer 1
10
238.601104
20
46.159730
11
236.414560
21
45.233340
0
LINE
8
Layer 1
10
236.414560
20
45.233340
11
234.846067
21
44.537931
0
LINE
8
Layer 1
10
234.846067
20
44.537931
11
233.346665
21
44.054437
0
LINE
8
Layer 1
10
233.346665
20
44.054437
11
231.941312
21
43.974373
0
LINE
8
Layer 1
10
231.941312
20
43.974373
11
231.281705
21
44.145475
0
LINE
8
Layer 1
10
231.281705
20
44.145475
11
230.654970
21
44.489253
0
LINE
8
Layer 1
10
230.654970
20
44.489253
11
230.118513
21
45.012608
0
LINE
8
Layer 1
10
230.118513
20
45.012608
11
229.706955
21
45.669745
0
LINE
8
Layer 1
10
229.706955
20
45.669745
11
229.098380
21
47.189323
0
LINE
8
Layer 1
10
229.098380
20
47.189323
11
228.914936
21
47.705843
0
LINE
8
Layer 1
10
228.914936
20
47.705843
11
228.269742
21
49.022923
0
LINE
8
Layer 1
10
228.269742
20
49.022923
11
227.422133
21
49.980814
0
LINE
8
Layer 1
10
227.422133
20
49.980814
11
226.355193
21
50.593362
0
LINE
8
Layer 1
10
226.355193
20
50.593362
11
225.052006
21
50.874413
0
LINE
8
Layer 1
10
225.052006
20
50.874413
11
222.584758
21
50.968363
0
LINE
8
Layer 1
10
222.584758
20
50.968363
11
220.124638
21
50.834145
0
LINE
8
Layer 1
10
220.124638
20
50.834145
11
217.687419
21
50.473353
0
LINE
8
Layer 1
10
217.687419
20
50.473353
11
215.288876
21
49.887581
0
LINE
8
Layer 1
10
215.288876
20
49.887581
11
214.174987
21
49.398276
0
LINE
8
Layer 1
10
214.174987
20
49.398276
11
213.504838
21
48.861795
0
LINE
8
Layer 1
10
213.504838
20
48.861795
11
213.083456
21
48.104281
0
LINE
8
Layer 1
10
213.083456
20
48.104281
11
213.079422
21
47.398111
0
LINE
8
Layer 1
10
213.079422
20
47.398111
11
213.376438
21
46.869715
0
LINE
8
Layer 1
10
213.376438
20
46.869715
11
214.318656
21
46.194101
0
LINE
8
Layer 1
10
214.318656
20
46.194101
11
214.868707
21
45.847089
0
LINE
8
Layer 1
10
214.868707
20
45.847089
11
215.237568
21
45.298566
0
LINE
8
Layer 1
10
215.237568
20
45.298566
11
215.339171
21
44.645409
0
LINE
8
Layer 1
10
215.339171
20
44.645409
11
215.197649
21
43.947710
0
LINE
8
Layer 1
10
215.197649
20
43.947710
11
214.866383
21
43.348036
0
LINE
8
Layer 1
10
214.866383
20
43.348036
11
213.808652
21
42.424424
0
LINE
8
Layer 1
10
213.808652
20
42.424424
11
212.514045
21
41.837884
0
LINE
8
Layer 1
10
212.514045
20
41.837884
11
211.330631
21
41.551729
0
LINE
8
Layer 1
10
211.330631
20
41.551729
11
210.046428
21
41.456016
0
LINE
8
Layer 1
10
210.046428
20
41.456016
11
208.661996
21
41.532137
0
LINE
8
Layer 1
10
208.661996
20
41.532137
11
205.551701
21
42.204396
0
LINE
8
Layer 1
10
205.551701
20
42.204396
11
202.101041
21
43.303036
0
LINE
8
Layer 1
10
202.101041
20
43.303036
11
203.821471
21
43.032103
0
LINE
8
Layer 1
10
203.821471
20
43.032103
11
205.827705
21
42.850803
0
LINE
8
Layer 1
10
205.827705
20
42.850803
11
207.842001
21
42.872199
0
LINE
8
Layer 1
10
207.842001
20
42.872199
11
208.844752
21
43.049512
0
LINE
8
Layer 1
10
208.844752
20
43.049512
11
209.748471
21
43.518809
0
LINE
8
Layer 1
10
209.748471
20
43.518809
11
210.311829
21
44.345250
0
LINE
8
Layer 1
10
210.311829
20
44.345250
11
210.339032
21
45.345069
0
LINE
8
Layer 1
10
210.339032
20
45.345069
11
210.264876
21
44.377996
0
LINE
8
Layer 1
10
210.264876
20
44.377996
11
209.679448
21
43.604689
0
LINE
8
Layer 1
10
209.679448
20
43.604689
11
208.793474
21
43.206590
0
LINE
8
Layer 1
10
208.793474
20
43.206590
11
207.828958
21
43.091948
0
LINE
8
Layer 1
10
207.828958
20
43.091948
11
205.850556
21
43.180359
0
LINE
8
Layer 1
10
205.850556
20
43.180359
11
203.891018
21
43.466894
0
LINE
8
Layer 1
10
203.891018
20
43.466894
11
200.039695
21
44.364698
0
LINE
8
Layer 1
10
200.039695
20
44.364698
11
196.188238
21
45.366124
0
LINE
8
Layer 1
10
196.188238
20
45.366124
11
195.915016
21
45.464902
0
LINE
8
Layer 1
10
195.915016
20
45.464902
11
194.514206
21
46.001869
0
LINE
8
Layer 1
10
194.514206
20
46.001869
11
191.849276
21
46.955410
0
LINE
8
Layer 1
10
191.849276
20
46.955410
11
195.518866
21
46.681505
0
LINE
8
Layer 1
10
195.518866
20
46.681505
11
200.117206
21
46.333633
0
LINE
8
Layer 1
10
200.117206
20
46.333633
11
202.422913
21
46.425756
0
LINE
8
Layer 1
10
202.422913
20
46.425756
11
204.683086
21
46.890937
0
LINE
8
Layer 1
10
204.683086
20
46.890937
11
202.418960
21
46.535983
0
LINE
8
Layer 1
10
202.418960
20
46.535983
11
200.127246
21
46.553549
0
LINE
8
Layer 1
10
200.127246
20
46.553549
11
195.566176
21
47.119257
0
LINE
8
Layer 1
10
195.566176
20
47.119257
11
193.260916
21
47.405272
0
LINE
8
Layer 1
10
193.260916
20
47.405272
11
193.639785
21
47.460714
0
LINE
8
Layer 1
10
193.639785
20
47.460714
11
195.622375
21
47.921275
0
LINE
8
Layer 1
10
195.622375
20
47.921275
11
197.836685
21
48.511333
0
LINE
8
Layer 1
10
197.836685
20
48.511333
11
198.906495
21
48.956595
0
LINE
8
Layer 1
10
198.906495
20
48.956595
11
199.908895
21
49.513523
0
LINE
8
Layer 1
10
199.908895
20
49.513523
11
200.866049
21
50.061081
0
LINE
8
Layer 1
10
200.866049
20
50.061081
11
201.891585
21
50.466344
0
LINE
8
Layer 1
10
201.891585
20
50.466344
11
202.967495
21
50.489746
0
LINE
8
Layer 1
10
202.967495
20
50.489746
11
203.936425
21
49.966611
0
LINE
8
Layer 1
10
203.936425
20
49.966611
11
202.998852
21
50.595323
0
LINE
8
Layer 1
10
202.998852
20
50.595323
11
201.850092
21
50.682569
0
LINE
8
Layer 1
10
201.850092
20
50.682569
11
200.748036
21
50.369825
0
LINE
8
Layer 1
10
200.748036
20
50.369825
11
199.702222
21
49.902268
0
LINE
8
Layer 1
10
199.702222
20
49.902268
11
198.724224
21
49.477721
0
LINE
8
Layer 1
10
198.724224
20
49.477721
11
199.474955
21
50.190010
0
LINE
8
Layer 1
10
199.474955
20
50.190010
11
200.096574
21
51.017381
0
LINE
8
Layer 1
10
200.096574
20
51.017381
11
200.737937
21
52.411692
0
LINE
8
Layer 1
10
200.737937
20
52.411692
11
200.936884
21
53.933491
0
LINE
8
Layer 1
10
200.936884
20
53.933491
11
200.805723
21
54.731379
0
LINE
8
Layer 1
10
200.805723
20
54.731379
11
200.491752
21
55.476531
0
LINE
8
Layer 1
10
200.491752
20
55.476531
11
200.190968
21
55.878551
0
LINE
8
Layer 1
10
200.190968
20
55.878551
11
199.896610
21
56.386528
0
LINE
8
Layer 1
10
199.896610
20
56.386528
11
200.345185
21
56.705721
0
LINE
8
Layer 1
10
200.345185
20
56.705721
11
201.357066
21
56.750977
0
LINE
8
Layer 1
10
201.357066
20
56.750977
11
202.265525
21
56.303035
0
LINE
8
Layer 1
10
202.265525
20
56.303035
11
203.037435
21
55.267930
0
LINE
8
Layer 1
10
203.037435
20
55.267930
11
203.610745
21
54.014775
0
LINE
8
Layer 1
10
203.610745
20
54.014775
11
204.144255
21
52.830285
0
LINE
8
Layer 1
10
204.144255
20
52.830285
11
204.850890
21
51.721757
0
LINE
8
Layer 1
10
204.850890
20
51.721757
11
205.733932
21
50.764508
0
LINE
8
Layer 1
10
205.733932
20
50.764508
11
206.758394
21
49.973840
0
LINE
8
Layer 1
10
206.758394
20
49.973840
11
207.889287
21
49.365054
0
LINE
8
Layer 1
10
207.889287
20
49.365054
11
209.091625
21
48.953452
0
LINE
8
Layer 1
10
209.091625
20
48.953452
11
210.330419
21
48.754336
0
LINE
8
Layer 1
10
210.330419
20
48.754336
11
211.570682
21
48.783006
0
LINE
8
Layer 1
10
211.570682
20
48.783006
11
212.777425
21
49.054765
0
LINE
8
Layer 1
10
212.777425
20
49.054765
11
214.438829
21
49.848552
0
LINE
8
Layer 1
10
214.438829
20
49.848552
11
215.955895
21
50.864375
0
LINE
8
Layer 1
10
215.955895
20
50.864375
11
217.513307
21
51.902073
0
LINE
8
Layer 1
10
217.513307
20
51.902073
11
219.147055
21
52.629855
0
LINE
8
Layer 1
10
219.147055
20
52.629855
11
220.194205
21
52.818497
0
LINE
8
Layer 1
10
220.194205
20
52.818497
11
221.347183
21
52.817618
0
LINE
8
Layer 1
10
221.347183
20
52.817618
11
222.614538
21
52.626607
0
LINE
8
Layer 1
10
222.614538
20
52.626607
11
224.004825
21
52.244856
0
LINE
8
Layer 1
10
224.004825
20
52.244856
11
227.623815
21
51.056986
0
LINE
8
Layer 1
10
227.623815
20
51.056986
11
224.371265
21
53.039236
0
LINE
8
Layer 1
10
224.371265
20
53.039236
11
222.110502
21
54.141676
0
LINE
8
Layer 1
10
222.110502
20
54.141676
11
219.709300
21
54.822644
0
LINE
8
Layer 1
10
219.709300
20
54.822644
11
217.225800
21
55.071079
0
LINE
8
Layer 1
10
217.225800
20
55.071079
11
214.718145
21
54.875916
0
LINE
8
Layer 1
10
214.718145
20
54.875916
11
213.081275
21
54.525769
0
LINE
8
Layer 1
10
213.081275
20
54.525769
11
210.739312
21
54.079466
0
LINE
8
Layer 1
10
210.739312
20
54.079466
11
209.603540
21
54.056128
0
LINE
8
Layer 1
10
209.603540
20
54.056128
11
208.483465
21
54.266272
0
LINE
8
Layer 1
10
208.483465
20
54.266272
11
207.920178
21
54.648799
0
LINE
8
Layer 1
10
207.920178
20
54.648799
11
207.740605
21
55.251820
0
LINE
8
Layer 1
10
207.740605
20
55.251820
11
207.948990
21
56.029749
0
LINE
8
Layer 1
10
207.948990
20
56.029749
11
208.183186
21
56.841891
0
LINE
8
Layer 1
10
208.183186
20
56.841891
11
208.244110
21
57.564650
0
LINE
8
Layer 1
10
208.244110
20
57.564650
11
208.129824
21
58.270385
0
LINE
8
Layer 1
10
208.129824
20
58.270385
11
207.849335
21
58.927992
0
LINE
8
Layer 1
10
207.849335
20
58.927992
11
207.411647
21
59.506371
0
LINE
8
Layer 1
10
207.411647
20
59.506371
11
206.450192
21
60.245065
0
LINE
8
Layer 1
10
206.450192
20
60.245065
11
205.231706
21
60.787129
0
LINE
8
Layer 1
10
205.231706
20
60.787129
11
203.845990
21
61.159383
0
LINE
8
Layer 1
10
203.845990
20
61.159383
11
202.382846
21
61.388645
0
LINE
8
Layer 1
10
202.382846
20
61.388645
11
199.583477
21
61.525466
0
LINE
8
Layer 1
10
199.583477
20
61.525466
11
197.552007
21
61.412141
0
LINE
8
Layer 1
10
197.552007
20
61.412141
11
195.518451
21
60.998737
0
LINE
8
Layer 1
10
195.518451
20
60.998737
11
194.540732
21
60.575356
0
LINE
8
Layer 1
10
194.540732
20
60.575356
11
193.662427
21
59.934431
0
LINE
8
Layer 1
10
193.662427
20
59.934431
11
193.006880
21
59.073717
0
LINE
8
Layer 1
10
193.006880
20
59.073717
11
192.688402
21
58.070400
0
LINE
8
Layer 1
10
192.688402
20
58.070400
11
192.720075
21
57.018225
0
LINE
8
Layer 1
10
192.720075
20
57.018225
11
193.114978
21
56.010941
0
LINE
8
Layer 1
10
193.114978
20
56.010941
11
193.207866
21
55.872370
0
LINE
8
Layer 1
10
193.207866
20
55.872370
11
193.500011
21
55.345179
0
LINE
8
Layer 1
10
193.500011
20
55.345179
11
193.462382
21
54.851683
0
LINE
8
Layer 1
10
193.462382
20
54.851683
11
192.977228
21
54.523179
0
LINE
8
Layer 1
10
192.977228
20
54.523179
11
192.151532
21
54.351430
0
LINE
8
Layer 1
10
192.151532
20
54.351430
11
191.082169
21
54.430505
0
LINE
8
Layer 1
10
191.082169
20
54.430505
11
190.108064
21
54.788185
0
LINE
8
Layer 1
10
190.108064
20
54.788185
11
188.285022
21
55.993040
0
LINE
8
Layer 1
10
188.285022
20
55.993040
11
187.521798
21
56.551312
0
LINE
8
Layer 1
10
187.521798
20
56.551312
11
184.176854
21
58.654410
0
LINE
8
Layer 1
10
184.176854
20
58.654410
11
180.854084
21
60.249265
0
LINE
8
Layer 1
10
180.854084
20
60.249265
11
177.565097
21
61.331198
0
LINE
8
Layer 1
10
177.565097
20
61.331198
11
174.321498
21
61.895532
0
LINE
8
Layer 1
10
174.321498
20
61.895532
11
170.310454
21
62.030153
0
LINE
8
Layer 1
10
170.310454
20
62.030153
11
166.253173
21
61.758691
0
LINE
8
Layer 1
10
166.253173
20
61.758691
11
162.148829
21
61.198000
0
LINE
8
Layer 1
10
162.148829
20
61.198000
11
157.996598
21
60.464932
0
LINE
8
Layer 1
10
157.996598
20
60.464932
11
155.297128
21
59.771752
0
LINE
8
Layer 1
10
155.297128
20
59.771752
11
158.625691
21
61.693251
0
LINE
8
Layer 1
10
158.625691
20
61.693251
11
161.846093
21
63.133698
0
LINE
8
Layer 1
10
161.846093
20
63.133698
11
165.021937
21
64.120728
0
LINE
8
Layer 1
10
165.021937
20
64.120728
11
168.216828
21
64.681972
0
LINE
8
Layer 1
10
168.216828
20
64.681972
11
170.533449
21
64.891032
0
LINE
8
Layer 1
10
170.533449
20
64.891032
11
172.955827
21
64.956773
0
LINE
8
Layer 1
10
172.955827
20
64.956773
11
175.406305
21
64.781451
0
LINE
8
Layer 1
10
175.406305
20
64.781451
11
177.807228
21
64.267317
0
LINE
8
Layer 1
10
177.807228
20
64.267317
11
181.287448
21
63.206747
0
LINE
8
Layer 1
10
181.287448
20
63.206747
11
178.160708
21
65.066967
0
LINE
8
Layer 1
10
178.160708
20
65.066967
11
174.619734
21
67.050576
0
LINE
8
Layer 1
10
174.619734
20
67.050576
11
170.918868
21
68.716947
0
LINE
8
Layer 1
10
170.918868
20
68.716947
11
168.757983
21
69.431700
0
LINE
8
Layer 1
10
168.757983
20
69.431700
11
166.553027
21
69.983260
0
LINE
8
Layer 1
10
166.553027
20
69.983260
11
164.313221
21
70.369681
0
LINE
8
Layer 1
10
164.313221
20
70.369681
11
162.047788
21
70.589017
0
LINE
8
Layer 1
10
162.047788
20
70.589017
11
159.405174
21
70.622826
0
LINE
8
Layer 1
10
159.405174
20
70.622826
11
156.765278
21
70.498331
0
LINE
8
Layer 1
10
156.765278
20
70.498331
11
155.129918
21
70.412089
0
LINE
8
Layer 1
10
155.129918
20
70.412089
11
158.837778
21
71.281767
0
LINE
8
Layer 1
10
158.837778
20
71.281767
11
161.020202
21
71.630784
0
LINE
8
Layer 1
10
161.020202
20
71.630784
11
163.224398
21
71.792967
0
LINE
8
Layer 1
10
163.224398
20
71.792967
11
165.442889
21
71.747680
0
LINE
8
Layer 1
10
165.442889
20
71.747680
11
167.651588
21
71.534598
0
LINE
8
Layer 1
10
167.651588
20
71.534598
11
165.447015
21
71.857806
0
LINE
8
Layer 1
10
165.447015
20
71.857806
11
163.224298
21
72.013151
0
LINE
8
Layer 1
10
163.224298
20
72.013151
11
160.988347
21
71.959507
0
LINE
8
Layer 1
10
160.988347
20
71.959507
11
158.765038
21
71.716095
0
LINE
8
Layer 1
10
158.765038
20
71.716095
11
154.371608
21
70.884082
0
LINE
8
Layer 1
10
154.371608
20
70.884082
11
152.240000
21
70.485800
0
LINE
8
Layer 1
10
152.240000
20
70.485800
11
150.175530
21
70.477181
0
LINE
8
Layer 1
10
150.175530
20
70.477181
11
146.647826
21
70.858278
0
LINE
8
Layer 1
10
146.647826
20
70.858278
11
143.159971
21
71.485761
0
LINE
8
Layer 1
10
143.159971
20
71.485761
11
139.724845
21
72.356842
0
LINE
8
Layer 1
10
139.724845
20
72.356842
11
136.355330
21
73.468731
0
LINE
8
Layer 1
10
136.355330
20
73.468731
11
139.066363
21
73.623190
0
LINE
8
Layer 1
10
139.066363
20
73.623190
11
141.715801
21
74.081954
0
LINE
8
Layer 1
10
141.715801
20
74.081954
11
144.280203
21
74.833567
0
LINE
8
Layer 1
10
144.280203
20
74.833567
11
146.736128
21
75.866574
0
LINE
8
Layer 1
10
146.736128
20
75.866574
11
149.060134
21
77.169518
0
LINE
8
Layer 1
10
149.060134
20
77.169518
11
151.228781
21
78.730945
0
LINE
8
Layer 1
10
151.228781
20
78.730945
11
153.218626
21
80.539397
0
LINE
8
Layer 1
10
153.218626
20
80.539397
11
155.006230
21
82.583421
0
LINE
8
Layer 1
10
155.006230
20
82.583421
11
156.150360
21
84.081741
0
LINE
8
Layer 1
10
156.150360
20
84.081741
11
154.460920
21
83.245370
0
LINE
8
Layer 1
10
154.460920
20
83.245370
11
151.955791
21
82.151564
0
LINE
8
Layer 1
10
151.955791
20
82.151564
11
149.374758
21
81.295320
0
LINE
8
Layer 1
10
149.374758
20
81.295320
11
146.733264
21
80.657876
0
LINE
8
Layer 1
10
146.733264
20
80.657876
11
144.046754
21
80.220472
0
LINE
8
Layer 1
10
144.046754
20
80.220472
11
141.330670
21
79.964349
0
LINE
8
Layer 1
10
141.330670
20
79.964349
11
138.600458
21
79.870744
0
LINE
8
Layer 1
10
138.600458
20
79.870744
11
133.159420
21
80.096050
0
LINE
8
Layer 1
10
133.159420
20
80.096050
11
128.741271
21
80.388670
0
LINE
8
Layer 1
10
128.741271
20
80.388670
11
124.316303
21
80.460419
0
LINE
8
Layer 1
10
124.316303
20
80.460419
11
119.911288
21
80.235571
0
LINE
8
Layer 1
10
119.911288
20
80.235571
11
115.553000
21
79.638400
0
LINE
8
Layer 1
10
115.553000
20
79.638400
11
118.637510
21
79.552887
0
LINE
8
Layer 1
10
118.637510
20
79.552887
11
120.184960
21
79.483827
0
LINE
8
Layer 1
10
120.184960
20
79.483827
11
121.822290
21
79.409233
0
LINE
8
Layer 1
10
121.822290
20
79.409233
11
124.332271
21
79.012549
0
LINE
8
Layer 1
10
124.332271
20
79.012549
11
126.707400
21
78.109153
0
LINE
8
Layer 1
10
126.707400
20
78.109153
11
127.940956
21
77.313373
0
LINE
8
Layer 1
10
127.940956
20
77.313373
11
129.040040
21
76.340263
0
LINE
8
Layer 1
10
129.040040
20
76.340263
11
130.949160
21
74.001183
0
LINE
8
Layer 1
10
130.949160
20
74.001183
11
131.686042
21
73.545711
0
LINE
8
Layer 1
10
131.686042
20
73.545711
11
130.772839
21
73.148599
0
LINE
8
Layer 1
10
130.772839
20
73.148599
11
129.398269
21
73.188897
0
LINE
8
Layer 1
10
129.398269
20
73.188897
11
128.071359
21
73.273474
0
LINE
8
Layer 1
10
128.071359
20
73.273474
11
126.440751
21
73.137015
0
LINE
8
Layer 1
10
126.440751
20
73.137015
11
124.738091
21
72.803254
0
LINE
8
Layer 1
10
124.738091
20
72.803254
11
123.089069
21
72.164478
0
LINE
8
Layer 1
10
123.089069
20
72.164478
11
121.619369
21
71.112974
0
LINE
8
Layer 1
10
121.619369
20
71.112974
11
122.817555
21
70.309702
0
LINE
8
Layer 1
10
122.817555
20
70.309702
11
123.927375
21
69.704141
0
LINE
8
Layer 1
10
123.927375
20
69.704141
11
125.318185
21
69.244872
0
LINE
8
Layer 1
10
125.318185
20
69.244872
11
127.359339
21
68.880474
0
LINE
8
Layer 1
10
127.359339
20
68.880474
11
129.158998
21
68.793079
0
LINE
8
Layer 1
10
129.158998
20
68.793079
11
130.958399
21
68.885636
0
LINE
8
Layer 1
10
130.958399
20
68.885636
11
132.945531
21
69.223442
0
LINE
8
Layer 1
10
132.945531
20
69.223442
11
134.869000
21
69.826000
0
LINE
8
Layer 1
10
134.869000
20
69.826000
11
136.847459
21
70.815135
0
LINE
8
Layer 1
10
136.847459
20
70.815135
11
138.834460
21
72.236950
0
LINE
8
Layer 1
10
138.834460
20
72.236950
11
138.559326
21
71.276008
0
LINE
8
Layer 1
10
138.559326
20
71.276008
11
137.757095
21
70.172785
0
LINE
8
Layer 1
10
137.757095
20
70.172785
11
136.655564
21
69.140902
0
LINE
8
Layer 1
10
136.655564
20
69.140902
11
135.482530
21
68.393980
0
LINE
8
Layer 1
10
135.482530
20
68.393980
11
133.025030
21
67.412042
0
LINE
8
Layer 1
10
133.025030
20
67.412042
11
132.821689
21
67.194562
0
LINE
8
Layer 1
10
132.821689
20
67.194562
11
132.760122
21
67.155734
0
LINE
8
Layer 1
10
132.760122
20
67.155734
11
131.704572
21
66.733358
0
LINE
8
Layer 1
10
131.704572
20
66.733358
11
132.590749
21
66.245379
0
LINE
8
Layer 1
10
132.590749
20
66.245379
11
133.813589
21
65.540157
0
LINE
8
Layer 1
10
133.813589
20
65.540157
11
135.025959
21
64.816424
0
LINE
8
Layer 1
10
135.025959
20
64.816424
11
137.391649
21
63.268494
0
LINE
8
Layer 1
10
137.391649
20
63.268494
11
141.937842
21
59.954689
0
LINE
8
Layer 1
10
141.937842
20
59.954689
11
146.494519
21
56.724764
0
LINE
8
Layer 1
10
146.494519
20
56.724764
11
148.859699
21
55.265424
0
LINE
8
Layer 1
10
148.859699
20
55.265424
11
151.322499
21
54.046384
0
LINE
8
Layer 1
10
151.322499
20
54.046384
11
153.957517
21
53.260518
0
LINE
8
Layer 1
10
153.957517
20
53.260518
11
156.676939
21
52.853524
0
LINE
8
Layer 1
10
156.676939
20
52.853524
11
159.458324
21
52.733825
0
LINE
8
Layer 1
10
159.458324
20
52.733825
11
162.241419
21
52.803190
0
LINE
8
Layer 1
10
162.241419
20
52.803190
11
167.835789
21
53.171061
0
LINE
8
Layer 1
10
167.835789
20
53.171061
11
173.453464
21
53.382291
0
LINE
8
Layer 1
10
173.453464
20
53.382291
11
176.262498
21
53.316405
0
LINE
8
Layer 1
10
176.262498
20
53.316405
11
179.060489
21
53.072723
0
LINE
8
Layer 1
10
179.060489
20
53.072723
11
176.258519
21
53.183780
0
LINE
8
Layer 1
10
176.258519
20
53.183780
11
173.457629
21
53.148356
0
LINE
8
Layer 1
10
173.457629
20
53.148356
11
167.869959
21
52.740655
0
LINE
8
Layer 1
10
167.869959
20
52.740655
11
162.273979
21
52.247909
0
LINE
8
Layer 1
10
162.273979
20
52.247909
11
158.236059
21
52.115061
0
LINE
8
Layer 1
10
158.236059
20
52.115061
11
155.755066
21
51.665766
0
LINE
8
Layer 1
10
155.755066
20
51.665766
11
153.251459
21
51.367192
0
LINE
8
Layer 1
10
153.251459
20
51.367192
11
150.033238
21
51.250631
0
LINE
8
Layer 1
10
150.033238
20
51.250631
11
146.818389
21
51.438453
0
LINE
8
Layer 1
10
146.818389
20
51.438453
11
145.216829
21
51.644142
0
LINE
8
Layer 1
10
145.216829
20
51.644142
11
143.628669
21
51.941322
0
LINE
8
Layer 1
10
143.628669
20
51.941322
11
140.499219
21
52.765560
0
LINE
8
Layer 1
10
140.499219
20
52.765560
11
137.479832
21
53.898063
0
LINE
8
Layer 1
10
137.479832
20
53.898063
11
134.532969
21
55.144470
0
LINE
8
Layer 1
10
134.532969
20
55.144470
11
131.601979
21
56.330047
0
LINE
8
Layer 1
10
131.601979
20
56.330047
11
128.583629
21
57.271250
0
LINE
8
Layer 1
10
128.583629
20
57.271250
11
125.496329
21
57.992364
0
LINE
8
Layer 1
10
125.496329
20
57.992364
11
123.937049
21
58.272972
0
LINE
8
Layer 1
10
123.937049
20
58.272972
11
123.155294
21
58.401448
0
LINE
8
Layer 1
10
123.155294
20
58.401448
11
122.370387
21
58.506999
0
LINE
8
Layer 1
10
122.370387
20
58.506999
11
119.142250
21
58.783371
0
LINE
8
Layer 1
10
119.142250
20
58.783371
11
115.902427
21
58.755072
0
LINE
8
Layer 1
10
115.902427
20
58.755072
11
116.838216
21
57.289381
0
LINE
8
Layer 1
10
116.838216
20
57.289381
11
118.189777
21
56.195202
0
LINE
8
Layer 1
10
118.189777
20
56.195202
11
119.609700
21
55.868333
0
LINE
8
Layer 1
10
119.609700
20
55.868333
11
121.586207
21
55.931042
0
LINE
8
Layer 1
10
121.586207
20
55.931042
11
121.385965
21
55.442637
0
LINE
8
Layer 1
10
121.385965
20
55.442637
11
121.049294
21
55.036079
0
LINE
8
Layer 1
10
121.049294
20
55.036079
11
120.393282
21
54.507458
0
LINE
8
Layer 1
10
120.393282
20
54.507458
11
119.600281
21
54.091741
0
LINE
8
Layer 1
10
119.600281
20
54.091741
11
117.579034
21
53.588789
0
LINE
8
Layer 1
10
117.579034
20
53.588789
11
116.319784
21
53.473823
0
LINE
8
Layer 1
10
116.319784
20
53.473823
11
114.223154
21
53.208125
0
LINE
8
Layer 1
10
114.223154
20
53.208125
11
112.861468
21
52.701806
0
LINE
8
Layer 1
10
112.861468
20
52.701806
11
111.640038
21
51.941806
0
LINE
8
Layer 1
10
111.640038
20
51.941806
11
110.593479
21
50.954788
0
LINE
8
Layer 1
10
110.593479
20
50.954788
11
109.756404
21
49.767415
0
LINE
8
Layer 1
10
109.756404
20
49.767415
11
109.169353
21
48.494051
0
LINE
8
Layer 1
10
109.169353
20
48.494051
11
108.802559
21
47.140705
0
LINE
8
Layer 1
10
108.802559
20
47.140705
11
112.100589
21
47.286224
0
LINE
8
Layer 1
10
112.100589
20
47.286224
11
114.606676
21
47.044523
0
LINE
8
Layer 1
10
114.606676
20
47.044523
11
117.079000
21
46.568600
0
LINE
8
Layer 1
10
117.079000
20
46.568600
11
119.501552
21
45.878116
0
LINE
8
Layer 1
10
119.501552
20
45.878116
11
121.872872
21
45.040618
0
LINE
8
Layer 1
10
121.872872
20
45.040618
11
126.511930
21
43.127080
0
LINE
8
Layer 1
10
126.511930
20
43.127080
11
131.116686
21
41.197390
0
LINE
8
Layer 1
10
131.116686
20
41.197390
11
133.444615
21
40.335536
0
LINE
8
Layer 1
10
133.444615
20
40.335536
11
135.812620
21
39.622060
0
LINE
8
Layer 1
10
135.812620
20
39.622060
11
138.217817
21
39.075271
0
LINE
8
Layer 1
10
138.217817
20
39.075271
11
140.657021
21
38.742244
0
LINE
8
Layer 1
10
140.657021
20
38.742244
11
143.116028
21
38.624287
0
LINE
8
Layer 1
10
143.116028
20
38.624287
11
145.580630
21
38.722709
0
LINE
8
Layer 1
10
145.580630
20
38.722709
11
148.027977
21
39.034313
0
LINE
8
Layer 1
10
148.027977
20
39.034313
11
150.450139
21
39.527798
0
LINE
8
Layer 1
10
150.450139
20
39.527798
11
155.212240
21
40.924829
0
LINE
8
Layer 1
10
155.212240
20
40.924829
11
159.922092
21
42.602671
0
LINE
8
Layer 1
10
159.922092
20
42.602671
11
164.725590
21
44.105359
0
LINE
8
Layer 1
10
164.725590
20
44.105359
11
169.678268
21
45.009246
0
LINE
8
Layer 1
10
169.678268
20
45.009246
11
174.685522
21
45.334656
0
LINE
8
Layer 1
10
174.685522
20
45.334656
11
179.696936
21
45.081229
0
LINE
8
Layer 1
10
179.696936
20
45.081229
11
184.662090
21
44.248601
0
LINE
8
Layer 1
10
184.662090
20
44.248601
11
179.705062
21
44.836498
0
LINE
8
Layer 1
10
179.705062
20
44.836498
11
174.713790
21
44.906875
0
LINE
8
Layer 1
10
174.713790
20
44.906875
11
169.764379
21
44.473227
0
LINE
8
Layer 1
10
169.764379
20
44.473227
11
164.901600
21
43.454355
0
LINE
8
Layer 1
10
164.901600
20
43.454355
11
160.183758
21
41.877274
0
LINE
8
Layer 1
10
160.183758
20
41.877274
11
155.483570
21
40.138855
0
LINE
8
Layer 1
10
155.483570
20
40.138855
11
150.650958
21
38.691217
0
LINE
8
Layer 1
10
150.650958
20
38.691217
11
148.173174
21
38.177074
0
LINE
8
Layer 1
10
148.173174
20
38.177074
11
145.657290
21
37.845845
0
LINE
8
Layer 1
10
145.657290
20
37.845845
11
143.117319
21
37.752633
0
LINE
8
Layer 1
10
143.117319
20
37.752633
11
140.584021
21
37.884313
0
LINE
8
Layer 1
10
140.584021
20
37.884313
11
138.072285
21
38.239447
0
LINE
8
Layer 1
10
138.072285
20
38.239447
11
135.597000
21
38.816600
0
LINE
8
Layer 1
10
135.597000
20
38.816600
11
133.187135
21
39.575153
0
LINE
8
Layer 1
10
133.187135
20
39.575153
11
130.829140
21
40.482190
0
LINE
8
Layer 1
10
130.829140
20
40.482190
11
126.237890
21
42.507700
0
LINE
8
Layer 1
10
126.237890
20
42.507700
11
121.669164
21
44.522920
0
LINE
8
Layer 1
10
121.669164
20
44.522920
11
119.343804
21
45.408693
0
LINE
8
Layer 1
10
119.343804
20
45.408693
11
116.971100
21
46.150840
0
LINE
8
Layer 1
10
116.971100
20
46.150840
11
114.550728
21
46.716871
0
LINE
8
Layer 1
10
114.550728
20
46.716871
11
112.087920
21
47.053273
0
LINE
8
Layer 1
10
112.087920
20
47.053273
11
108.787960
21
47.047236
0
LINE
8
Layer 1
10
108.787960
20
47.047236
11
108.642898
21
45.378256
0
LINE
8
Layer 1
10
108.642898
20
45.378256
11
108.733421
21
44.070396
0
LINE
8
Layer 1
10
108.733421
20
44.070396
11
109.113027
21
42.895403
0
LINE
8
Layer 1
10
109.113027
20
42.895403
11
109.982201
21
42.018336
0
LINE
8
Layer 1
10
109.982201
20
42.018336
11
109.143110
21
41.446788
0
LINE
8
Layer 1
10
109.143110
20
41.446788
11
108.455111
21
40.796960
0
LINE
8
Layer 1
10
108.455111
20
40.796960
11
107.934062
21
40.020561
0
LINE
8
Layer 1
10
107.934062
20
40.020561
11
107.596179
21
39.148710
0
LINE
8
Layer 1
10
107.596179
20
39.148710
11
107.457680
21
38.212528
0
LINE
8
Layer 1
10
107.457680
20
38.212528
11
107.458397
21
38.149186
0
LINE
8
Layer 1
10
107.458397
20
38.149186
11
107.761650
21
36.906564
0
LINE
8
Layer 1
10
107.761650
20
36.906564
11
108.467927
21
35.840146
0
LINE
8
Layer 1
10
108.467927
20
35.840146
11
109.473000
21
35.122800
0
LINE
8
Layer 1
10
109.473000
20
35.122800
11
109.687952
21
35.049586
0
LINE
8
Layer 1
10
109.687952
20
35.049586
11
112.462902
21
35.777188
0
LINE
8
Layer 1
10
112.462902
20
35.777188
11
115.512502
21
36.167382
0
LINE
8
Layer 1
10
115.512502
20
36.167382
11
117.053502
21
36.202809
0
LINE
8
Layer 1
10
117.053502
20
36.202809
11
118.593502
21
36.139052
0
LINE
8
Layer 1
10
118.593502
20
36.139052
11
121.635652
21
35.717130
0
LINE
8
Layer 1
10
121.635652
20
35.717130
11
124.603692
21
35.047654
0
LINE
8
Layer 1
10
124.603692
20
35.047654
11
127.548872
21
34.384220
0
LINE
8
Layer 1
10
127.548872
20
34.384220
11
130.535102
21
33.940754
0
LINE
8
Layer 1
10
130.535102
20
33.940754
11
127.486156
21
33.956397
0
LINE
8
Layer 1
10
127.486156
20
33.956397
11
124.464352
21
34.374617
0
LINE
8
Layer 1
10
124.464352
20
34.374617
11
121.489102
21
34.896902
0
LINE
8
Layer 1
10
121.489102
20
34.896902
11
118.523902
21
35.261587
0
LINE
8
Layer 1
10
118.523902
20
35.261587
11
115.544900
21
35.337618
0
LINE
8
Layer 1
10
115.544900
20
35.337618
11
112.574282
21
35.101684
0
LINE
8
Layer 1
10
112.574282
20
35.101684
11
110.947552
21
34.842795
0
LINE
8
Layer 1
10
110.947552
20
34.842795
11
112.006322
21
34.751536
0
LINE
8
Layer 1
10
112.006322
20
34.751536
11
114.324272
21
34.706945
0
LINE
8
Layer 1
10
114.324272
20
34.706945
11
117.506472
21
34.532041
0
LINE
8
Layer 1
10
117.506472
20
34.532041
11
116.185953
21
33.030064
0
LINE
8
Layer 1
10
116.185953
20
33.030064
11
114.650672
21
31.578481
0
LINE
8
Layer 1
10
114.650672
20
31.578481
11
113.525382
21
30.506961
0
LINE
8
Layer 1
10
113.525382
20
30.506961
11
114.906304
21
30.624427
0
LINE
8
Layer 1
10
114.906304
20
30.624427
11
116.274151
21
30.894928
0
LINE
8
Layer 1
10
116.274151
20
30.894928
11
118.898742
21
31.662481
0
LINE
8
Layer 1
10
118.898742
20
31.662481
11
122.790862
21
32.673791
0
LINE
8
Layer 1
10
122.790862
20
32.673791
11
122.596229
21
31.885204
0
LINE
8
Layer 1
10
122.596229
20
31.885204
11
122.087332
21
30.672104
0
LINE
8
Layer 1
10
122.087332
20
30.672104
11
120.838672
21
28.269861
0
LINE
8
Layer 1
10
120.838672
20
28.269861
11
124.465752
21
28.652404
0
LINE
8
Layer 1
10
124.465752
20
28.652404
11
128.407716
21
28.660998
0
LINE
8
Layer 1
10
128.407716
20
28.660998
11
132.333162
21
28.300411
0
LINE
8
Layer 1
10
132.333162
20
28.300411
11
136.213828
21
27.674274
0
LINE
8
Layer 1
10
136.213828
20
27.674274
11
140.045692
21
26.918691
0
LINE
8
Layer 1
10
140.045692
20
26.918691
11
141.945070
21
26.646455
0
LINE
8
Layer 1
10
141.945070
20
26.646455
11
143.857286
21
26.538340
0
LINE
8
Layer 1
10
143.857286
20
26.538340
11
145.771732
21
26.594489
0
LINE
8
Layer 1
10
145.771732
20
26.594489
11
147.677802
21
26.815048
0
LINE
8
Layer 1
10
147.677802
20
26.815048
11
149.563046
21
27.184682
0
LINE
8
Layer 1
10
149.563046
20
27.184682
11
151.412222
21
27.705568
0
LINE
8
Layer 1
10
151.412222
20
27.705568
11
155.005332
21
29.135778
0
LINE
8
Layer 1
10
155.005332
20
29.135778
11
158.569656
21
30.742082
0
LINE
8
Layer 1
10
158.569656
20
30.742082
11
162.223702
21
32.186348
0
LINE
8
Layer 1
10
162.223702
20
32.186348
11
164.115047
21
32.731541
0
LINE
8
Layer 1
10
164.115047
20
32.731541
11
166.049397
21
33.106665
0
LINE
8
Layer 1
10
166.049397
20
33.106665
11
168.005302
21
33.261865
0
LINE
8
Layer 1
10
168.005302
20
33.261865
11
169.961312
21
33.147286
0
LINE
8
Layer 1
10
169.961312
20
33.147286
11
168.015458
21
33.130549
0
LINE
8
Layer 1
10
168.015458
20
33.130549
11
166.086232
21
32.876161
0
LINE
8
Layer 1
10
166.086232
20
32.876161
11
164.203404
21
32.410860
0
LINE
8
Layer 1
10
164.203404
20
32.410860
11
162.369412
21
31.779971
0
LINE
8
Layer 1
10
162.369412
20
31.779971
11
158.809659
21
30.218531
0
LINE
8
Layer 1
10
158.809659
20
30.218531
11
155.292642
21
28.511381
0
LINE
8
Layer 1
10
155.292642
20
28.511381
11
151.657462
21
26.973861
0
LINE
8
Layer 1
10
151.657462
20
26.973861
11
149.754116
21
26.404908
0
LINE
8
Layer 1
10
149.754116
20
26.404908
11
147.810982
21
25.991796
0
LINE
8
Layer 1
10
147.810982
20
25.991796
11
145.833542
21
25.748162
0
LINE
8
Layer 1
10
145.833542
20
25.748162
11
143.846158
21
25.677202
0
LINE
8
Layer 1
10
143.846158
20
25.677202
11
141.860106
21
25.778827
0
LINE
8
Layer 1
10
141.860106
20
25.778827
11
139.886662
21
26.052951
0
LINE
8
Layer 1
10
139.886662
20
26.052951
11
137.963562
21
26.448451
0
LINE
8
Layer 1
10
137.963562
20
26.448451
11
136.053652
21
26.830512
0
LINE
8
Layer 1
10
136.053652
20
26.830512
11
132.220652
21
27.476476
0
LINE
8
Layer 1
10
132.220652
20
27.476476
11
128.369551
21
27.891288
0
LINE
8
Layer 1
10
128.369551
20
27.891288
11
124.496942
21
27.968414
0
LINE
8
Layer 1
10
124.496942
20
27.968414
11
120.443822
21
27.642007
0
LINE
8
Layer 1
10
120.443822
20
27.642007
11
119.074342
21
25.827817
0
LINE
8
Layer 1
10
119.074342
20
25.827817
11
118.105303
21
24.847528
0
LINE
8
Layer 1
10
118.105303
20
24.847528
11
117.013445
21
24.017312
0
LINE
8
Layer 1
10
117.013445
20
24.017312
11
115.815951
21
23.348420
0
LINE
8
Layer 1
10
115.815951
20
23.348420
11
114.530000
21
22.852100
0
LINE
8
Layer 1
10
114.530000
20
22.852100
11
117.141912
21
21.820275
0
LINE
8
Layer 1
10
117.141912
20
21.820275
11
120.021841
21
21.262336
0
LINE
8
Layer 1
10
120.021841
20
21.262336
11
123.128250
21
21.182697
0
LINE
8
Layer 1
10
123.128250
20
21.182697
11
126.419600
21
21.585770
0
LINE
8
Layer 1
10
126.419600
20
21.585770
11
128.317610
21
22.017036
0
LINE
8
Layer 1
10
128.317610
20
22.017036
11
128.754608
21
22.112881
0
LINE
8
Layer 1
10
128.754608
20
22.112881
11
129.313238
21
22.256284
0
LINE
8
Layer 1
10
129.313238
20
22.256284
11
130.659788
21
22.685668
0
LINE
8
Layer 1
10
130.659788
20
22.685668
11
132.097073
21
22.866687
0
LINE
8
Layer 1
10
132.097073
20
22.866687
11
133.533498
21
22.678966
0
LINE
8
Layer 1
10
133.533498
20
22.678966
11
134.627625
21
22.218631
0
LINE
8
Layer 1
10
134.627625
20
22.218631
11
135.585904
21
21.558018
0
LINE
8
Layer 1
10
135.585904
20
21.558018
11
137.257978
21
19.922226
0
LINE
8
Layer 1
10
137.257978
20
19.922226
11
139.043566
21
18.204113
0
LINE
8
Layer 1
10
139.043566
20
18.204113
11
140.648308
21
16.917306
0
LINE
8
Layer 1
10
140.648308
20
16.917306
11
140.053481
21
16.758158
0
LINE
8
Layer 1
10
140.053481
20
16.758158
11
138.764069
21
16.776513
0
LINE
8
Layer 1
10
138.764069
20
16.776513
11
137.217880
21
16.779672
0
LINE
8
Layer 1
10
137.217880
20
16.779672
11
135.852718
21
16.574937
0
LINE
8
Layer 1
10
135.852718
20
16.574937
11
138.072548
21
16.405480
0
LINE
8
Layer 1
10
138.072548
20
16.405480
11
142.285208
21
16.451854
0
LINE
8
Layer 1
10
142.285208
20
16.451854
11
146.480888
21
16.973660
0
LINE
8
Layer 1
10
146.480888
20
16.973660
11
142.307578
21
16.219520
0
LINE
8
Layer 1
10
142.307578
20
16.219520
11
138.255169
21
15.973240
0
LINE
8
Layer 1
10
138.255169
20
15.973240
11
134.202848
21
16.220954
0
LINE
8
Layer 1
10
134.202848
20
16.220954
11
132.797818
21
15.715040
0
LINE
8
Layer 1
10
132.797818
20
15.715040
11
131.950342
21
15.318716
0
LINE
8
Layer 1
10
131.950342
20
15.318716
11
130.838452
21
14.808430
0
LINE
8
Layer 1
10
130.838452
20
14.808430
11
132.257193
21
13.857465
0
LINE
8
Layer 1
10
132.257193
20
13.857465
11
133.537342
21
12.726810
0
LINE
8
Layer 1
10
133.537342
20
12.726810
11
133.850631
21
12.366130
0
LINE
8
Layer 1
10
133.850631
20
12.366130
11
134.484456
21
11.619497
0
LINE
8
Layer 1
10
134.484456
20
11.619497
11
135.238101
21
11.013490
0
LINE
8
Layer 1
10
135.238101
20
11.013490
11
133.386275
21
10.518761
0
LINE
8
Layer 1
10
133.386275
20
10.518761
11
130.955551
21
10.115589
0
LINE
8
Layer 1
10
130.955551
20
10.115589
11
129.575461
21
9.949036
0
LINE
8
Layer 1
10
129.575461
20
9.949036
11
128.656165
21
9.783654
0
LINE
8
Layer 1
10
128.656165
20
9.783654
11
132.074218
21
9.515009
0
LINE
8
Layer 1
10
132.074218
20
9.515009
11
135.566295
21
9.100310
0
LINE
8
Layer 1
10
135.566295
20
9.100310
11
137.524710
21
8.995203
0
LINE
8
Layer 1
10
137.524710
20
8.995203
11
139.481566
21
9.132251
0
LINE
8
Layer 1
10
139.481566
20
9.132251
11
143.349205
21
9.801321
0
LINE
8
Layer 1
10
143.349205
20
9.801321
11
146.184325
21
10.327064
0
LINE
8
Layer 1
10
146.184325
20
10.327064
11
149.023885
21
10.592107
0
LINE
8
Layer 1
10
149.023885
20
10.592107
11
150.464395
21
10.533921
0
LINE
8
Layer 1
10
150.464395
20
10.533921
11
152.013694
21
10.259466
0
LINE
8
Layer 1
10
152.013694
20
10.259466
11
153.526893
21
9.677553
0
LINE
8
Layer 1
10
153.526893
20
9.677553
11
154.859105
21
8.696997
0
LINE
8
Layer 1
10
154.859105
20
8.696997
11
155.389615
21
8.011989
0
LINE
8
Layer 1
10
155.389615
20
8.011989
11
155.770950
21
7.243252
0
LINE
8
Layer 1
10
155.770950
20
7.243252
11
155.994079
21
6.414649
0
LINE
8
Layer 1
10
155.994079
20
6.414649
11
156.049975
21
5.550037
0
LINE
8
Layer 1
10
156.049975
20
5.550037
11
155.789445
21
4.360307
0
LINE
8
Layer 1
10
155.789445
20
4.360307
11
155.073267
21
3.375207
0
LINE
8
Layer 1
10
155.073267
20
3.375207
11
154.007617
21
2.463348
0
LINE
8
Layer 1
10
154.007617
20
2.463348
11
155.403227
21
2.602396
0
LINE
8
Layer 1
10
155.403227
20
2.602396
11
156.484348
21
2.883584
0
LINE
8
Layer 1
10
156.484348
20
2.883584
11
157.491173
21
3.481033
0
LINE
8
Layer 1
10
157.491173
20
3.481033
11
158.372210
21
4.354597
0
LINE
8
Layer 1
10
158.372210
20
4.354597
11
159.075967
21
5.464126
0
LINE
8
Layer 1
10
159.075967
20
5.464126
11
159.613616
21
6.898538
0
LINE
8
Layer 1
10
159.613616
20
6.898538
11
159.899921
21
8.392465
0
LINE
8
Layer 1
10
159.899921
20
8.392465
11
159.931440
21
9.913252
0
LINE
8
Layer 1
10
159.931440
20
9.913252
11
159.704729
21
11.428246
0
LINE
8
Layer 1
10
159.704729
20
11.428246
11
159.243714
21
12.787437
0
LINE
8
Layer 1
10
159.243714
20
12.787437
11
158.507757
21
14.000331
0
LINE
8
Layer 1
10
158.507757
20
14.000331
11
157.527951
21
15.026355
0
LINE
8
Layer 1
10
157.527951
20
15.026355
11
156.335389
21
15.824936
0
LINE
8
Layer 1
10
156.335389
20
15.824936
11
157.988059
21
16.563881
0
LINE
8
Layer 1
10
157.988059
20
16.563881
11
158.866389
21
16.955291
0
LINE
8
Layer 1
10
158.866389
20
16.955291
11
159.660275
21
17.111040
0
LINE
8
Layer 1
10
159.660275
20
17.111040
11
160.383169
21
17.031774
0
LINE
8
Layer 1
10
160.383169
20
17.031774
11
161.048519
21
16.718144
0
LINE
8
Layer 1
10
161.048519
20
16.718144
11
162.058809
21
15.670014
0
LINE
8
Layer 1
10
162.058809
20
15.670014
11
162.675924
21
14.934670
0
LINE
8
Layer 1
10
162.675924
20
14.934670
11
163.698173
21
14.079607
0
LINE
8
Layer 1
10
163.698173
20
14.079607
11
164.871094
21
13.446850
0
LINE
8
Layer 1
10
164.871094
20
13.446850
11
166.474897
21
12.600142
0
LINE
8
Layer 1
10
166.474897
20
12.600142
11
168.145292
21
11.903372
0
LINE
8
Layer 1
10
168.145292
20
11.903372
11
169.871805
21
11.360364
0
LINE
8
Layer 1
10
169.871805
20
11.360364
11
171.643964
21
10.974940
0
LINE
8
Layer 1
10
171.643964
20
10.974940
11
173.472472
21
10.834105
0
LINE
8
Layer 1
10
173.472472
20
10.834105
11
175.299684
21
10.990852
0
LINE
8
Layer 1
10
175.299684
20
10.990852
11
177.062599
21
11.509394
0
LINE
8
Layer 1
10
177.062599
20
11.509394
11
178.666314
21
12.406532
0
LINE
8
Layer 1
10
178.666314
20
12.406532
11
178.857217
21
12.533665
0
LINE
8
Layer 1
10
178.857217
20
12.533665
11
179.032245
21
12.681549
0
LINE
8
Layer 1
10
179.032245
20
12.681549
11
179.379660
21
12.980035
0
LINE
8
Layer 1
10
179.379660
20
12.980035
11
180.041431
21
13.598014
0
LINE
8
Layer 1
10
180.041431
20
13.598014
11
181.294591
21
14.869504
0
LINE
8
Layer 1
10
181.294591
20
14.869504
11
182.614460
21
16.032921
0
LINE
8
Layer 1
10
182.614460
20
16.032921
11
184.129561
21
16.927384
0
LINE
8
Layer 1
10
184.129561
20
16.927384
11
185.824717
21
17.421244
0
LINE
8
Layer 1
10
185.824717
20
17.421244
11
187.585651
21
17.549949
0
LINE
8
Layer 1
10
187.585651
20
17.549949
11
189.358078
21
17.372280
0
LINE
8
Layer 1
10
189.358078
20
17.372280
11
191.087661
21
16.946127
0
LINE
8
Layer 1
10
191.087661
20
16.946127
11
189.363892
21
17.427239
0
LINE
8
Layer 1
10
189.363892
20
17.427239
11
187.589451
21
17.660058
0
LINE
8
Layer 1
10
187.589451
20
17.660058
11
185.789737
21
17.582832
0
LINE
8
Layer 1
10
185.789737
20
17.582832
11
184.045941
21
17.131047
0
LINE
8
Layer 1
10
184.045941
20
17.131047
11
182.460393
21
16.260995
0
LINE
8
Layer 1
10
182.460393
20
16.260995
11
181.066651
21
15.108417
0
LINE
8
Layer 1
10
181.066651
20
15.108417
11
179.772211
21
13.873697
0
LINE
8
Layer 1
10
179.772211
20
13.873697
11
179.110296
21
13.292847
0
LINE
8
Layer 1
10
179.110296
20
13.292847
11
178.771421
21
13.019176
0
LINE
8
Layer 1
10
178.771421
20
13.019176
11
178.601408
21
12.883766
0
LINE
8
Layer 1
10
178.601408
20
12.883766
11
178.416454
21
12.769266
0
LINE
8
Layer 1
10
178.416454
20
12.769266
11
176.882168
21
11.970802
0
LINE
8
Layer 1
10
176.882168
20
11.970802
11
175.208694
21
11.533696
0
LINE
8
Layer 1
10
175.208694
20
11.533696
11
173.475358
21
11.439655
0
LINE
8
Layer 1
10
173.475358
20
11.439655
11
171.749614
21
11.627015
0
LINE
8
Layer 1
10
171.749614
20
11.627015
11
170.091536
21
12.029249
0
LINE
8
Layer 1
10
170.091536
20
12.029249
11
168.483774
21
12.600317
0
LINE
8
Layer 1
10
168.483774
20
12.600317
11
170.797675
21
12.492558
0
LINE
8
Layer 1
10
170.797675
20
12.492558
11
173.099854
21
12.748918
0
LINE
8
Layer 1
10
173.099854
20
12.748918
11
174.895272
21
13.357196
0
LINE
8
Layer 1
10
174.895272
20
13.357196
11
176.404059
21
14.339187
0
LINE
8
Layer 1
10
176.404059
20
14.339187
11
177.553723
21
15.632837
0
LINE
8
Layer 1
10
177.553723
20
15.632837
11
178.271774
21
17.176088
0
LINE
8
Layer 1
10
178.271774
20
17.176088
11
178.582912
21
19.149098
0
LINE
8
Layer 1
10
178.582912
20
19.149098
11
178.744587
21
20.424284
0
LINE
8
Layer 1
10
178.744587
20
20.424284
11
179.055144
21
21.415929
0
LINE
8
Layer 1
10
179.055144
20
21.415929
11
179.656526
21
22.108297
0
LINE
8
Layer 1
10
179.656526
20
22.108297
11
180.690682
21
22.485648
0
LINE
8
Layer 1
10
180.690682
20
22.485648
11
181.903255
21
22.600234
0
LINE
8
Layer 1
10
181.903255
20
22.600234
11
183.129782
21
22.577519
0
LINE
8
Layer 1
10
183.129782
20
22.577519
11
185.578692
21
22.306982
0
LINE
8
Layer 1
10
185.578692
20
22.306982
11
187.595822
21
22.067071
0
LINE
8
Layer 1
10
187.595822
20
22.067071
11
190.847931
21
22.022577
0
LINE
8
Layer 1
10
190.847931
20
22.022577
11
193.951607
21
22.438879
0
LINE
8
Layer 1
10
193.951607
20
22.438879
11
196.774866
21
23.287849
0
LINE
8
Layer 1
10
196.774866
20
23.287849
11
199.185722
21
24.541361
0
LINE
8
Layer 1
10
199.185722
20
24.541361
11
201.853912
21
26.327501
0
LINE
8
Layer 1
10
201.853912
20
26.327501
11
198.803302
21
25.325801
0
LINE
8
Layer 1
10
198.803302
20
25.325801
11
197.103703
21
24.844973
0
LINE
8
Layer 1
10
197.103703
20
24.844973
11
195.543293
21
24.566124
0
LINE
8
Layer 1
10
195.543293
20
24.566124
11
194.111623
21
24.487982
0
LINE
8
Layer 1
10
194.111623
20
24.487982
11
192.798242
21
24.609273
0
LINE
8
Layer 1
10
192.798242
20
24.609273
11
190.737530
21
25.233382
0
LINE
8
Layer 1
10
190.737530
20
25.233382
11
188.764762
21
26.172253
0
LINE
8
Layer 1
10
188.764762
20
26.172253
11
186.871478
21
27.079194
0
LINE
8
Layer 1
10
186.871478
20
27.079194
11
184.823252
21
27.754343
0
LINE
8
Layer 1
10
184.823252
20
27.754343
11
183.361962
21
27.940711
0
LINE
8
Layer 1
10
183.361962
20
27.940711
11
181.872729
21
27.884846
0
LINE
8
Layer 1
10
181.872729
20
27.884846
11
180.396747
21
27.604225
0
LINE
8
Layer 1
10
180.396747
20
27.604225
11
178.975208
21
27.116321
0
LINE
8
Layer 1
10
178.975208
20
27.116321
11
177.649306
21
26.438610
0
LINE
8
Layer 1
10
177.649306
20
26.438610
11
176.460234
21
25.588566
0
LINE
8
Layer 1
10
176.460234
20
25.588566
11
175.449185
21
24.583666
0
LINE
8
Layer 1
10
175.449185
20
24.583666
11
174.657352
21
23.441383
0
LINE
8
Layer 1
10
174.657352
20
23.441383
11
174.070519
21
22.220493
0
LINE
8
Layer 1
10
174.070519
20
22.220493
11
173.439461
21
20.931454
0
LINE
8
Layer 1
10
173.439461
20
20.931454
11
172.550159
21
19.842913
0
LINE
8
Layer 1
10
172.550159
20
19.842913
11
171.374825
21
19.303422
0
LINE
8
Layer 1
10
171.374825
20
19.303422
11
170.081759
21
19.282400
0
LINE
8
Layer 1
10
170.081759
20
19.282400
11
169.461489
21
19.593270
0
LINE
8
Layer 1
10
169.461489
20
19.593270
11
169.482848
21
19.679046
0
LINE
8
Layer 1
10
169.482848
20
19.679046
11
169.766823
21
19.999611
0
LINE
8
Layer 1
10
169.766823
20
19.999611
11
169.848949
21
20.079198
0
LINE
8
Layer 1
10
169.848949
20
20.079198
11
170.602372
21
21.181286
0
LINE
8
Layer 1
10
170.602372
20
21.181286
11
170.850309
21
22.493068
0
LINE
8
Layer 1
10
170.850309
20
22.493068
11
170.708312
21
23.424141
0
LINE
8
Layer 1
10
170.708312
20
23.424141
11
170.389715
21
24.300993
0
LINE
8
Layer 1
10
170.389715
20
24.300993
11
169.906338
21
25.098940
0
LINE
8
Layer 1
10
169.906338
20
25.098940
11
169.270000
21
25.793300
0
LINE
8
Layer 1
10
169.270000
20
25.793300
11
168.127230
21
26.562096
0
LINE
8
Layer 1
10
168.127230
20
26.562096
11
166.814470
21
26.978790
0
LINE
8
Layer 1
10
166.814470
20
26.978790
11
168.168401
21
27.075413
0
LINE
8
Layer 1
10
168.168401
20
27.075413
11
169.522330
21
26.978756
0
LINE
8
Layer 1
10
169.522330
20
26.978756
11
171.079100
21
26.697719
0
LINE
8
Layer 1
10
171.079100
20
26.697719
11
173.005558
21
26.408120
0
LINE
8
Layer 1
10
173.005558
20
26.408120
11
174.041121
21
26.471528
0
LINE
8
Layer 1
10
174.041121
20
26.471528
11
175.184750
21
26.780269
0
LINE
8
Layer 1
10
175.184750
20
26.780269
11
176.930396
21
27.737396
0
LINE
8
Layer 1
10
176.930396
20
27.737396
11
178.461310
21
28.961229
0
LINE
8
Layer 1
10
178.461310
20
28.961229
11
180.717730
21
30.636119
0
LINE
8
Layer 1
10
180.717730
20
30.636119
11
182.118523
21
31.205736
0
LINE
8
Layer 1
10
182.118523
20
31.205736
11
183.698294
21
31.496355
0
LINE
8
Layer 1
10
183.698294
20
31.496355
11
185.368400
21
31.499923
0
LINE
8
Layer 1
10
185.368400
20
31.499923
11
187.040200
21
31.208386
0
LINE
8
Layer 1
10
187.040200
20
31.208386
11
188.214230
21
30.816145
0
LINE
8
Layer 1
10
188.214230
20
30.816145
11
190.785690
21
29.591755
0
LINE
8
Layer 1
10
190.785690
20
29.591755
11
192.342710
21
28.807708
0
LINE
8
Layer 1
10
192.342710
20
28.807708
11
194.559275
21
27.968610
0
LINE
8
Layer 1
10
194.559275
20
27.968610
11
196.869490
21
27.439318
0
LINE
8
Layer 1
10
196.869490
20
27.439318
11
199.147554
21
27.189059
0
LINE
8
Layer 1
10
199.147554
20
27.189059
11
201.505494
21
27.192286
0
LINE
8
Layer 1
10
201.505494
20
27.192286
11
203.934922
21
27.448509
0
LINE
8
Layer 1
10
203.934922
20
27.448509
11
206.427450
21
27.957238
0
LINE
8
Layer 1
10
206.427450
20
27.957238
11
210.238051
21
29.183731
0
LINE
8
Layer 1
10
210.238051
20
29.183731
11
213.870160
21
30.866808
0
LINE
8
Layer 1
10
213.870160
20
30.866808
11
217.886010
21
33.369318
0
LINE
8
Layer 1
10
217.886010
20
33.369318
11
220.335950
21
35.179508
0
LINE
8
Layer 1
10
220.335950
20
35.179508
11
217.473810
21
34.137348
0
LINE
8
Layer 1
10
217.473810
20
34.137348
11
215.459066
21
33.618306
0
LINE
8
Layer 1
10
215.459066
20
33.618306
11
212.868870
21
33.327230
0
LINE
8
Layer 1
10
212.868870
20
33.327230
11
210.566715
21
33.323141
0
LINE
8
Layer 1
10
210.566715
20
33.323141
11
208.271850
21
33.506255
0
LINE
8
Layer 1
10
208.271850
20
33.506255
11
204.882026
21
34.070787
0
LINE
8
Layer 1
10
204.882026
20
34.070787
11
203.413033
21
34.522024
0
LINE
8
Layer 1
10
203.413033
20
34.522024
11
202.058250
21
35.095185
0
LINE
8
Layer 1
10
202.058250
20
35.095185
11
199.669990
21
36.453865
0
LINE
8
Layer 1
10
199.669990
20
36.453865
11
202.094418
21
35.779713
0
LINE
8
Layer 1
10
202.094418
20
35.779713
11
204.562104
21
35.309348
0
LINE
8
Layer 1
10
204.562104
20
35.309348
11
207.060235
21
35.044667
0
LINE
8
Layer 1
10
207.060235
20
35.044667
11
209.576000
21
34.987565
0
LINE
8
Layer 1
10
209.576000
20
34.987565
11
211.485343
21
35.134850
0
LINE
8
Layer 1
10
211.485343
20
35.134850
11
213.270623
21
35.444432
0
LINE
8
Layer 1
10
213.270623
20
35.444432
11
214.926799
21
35.913864
0
LINE
8
Layer 1
10
214.926799
20
35.913864
11
216.448830
21
36.540696
0
LINE
8
Layer 1
10
216.448830
20
36.540696
11
217.831676
21
37.322482
0
LINE
8
Layer 1
10
217.831676
20
37.322482
11
219.070297
21
38.256772
0
LINE
8
Layer 1
10
219.070297
20
38.256772
11
220.159652
21
39.341119
0
LINE
8
Layer 1
10
220.159652
20
39.341119
11
221.094700
21
40.573075
0
LINE
8
Layer 1
10
221.094700
20
40.573075
11
221.681840
21
41.843565
0
LINE
8
Layer 1
10
221.681840
20
41.843565
11
221.979232
21
43.321076
0
LINE
8
Layer 1
10
221.979232
20
43.321076
11
221.969241
21
44.824075
0
LINE
8
Layer 1
10
221.969241
20
44.824075
11
221.634229
21
46.171025
0
LINE
8
Layer 1
10
221.634229
20
46.171025
11
221.345589
21
47.167571
0
LINE
8
Layer 1
10
221.345589
20
47.167571
11
221.391800
21
47.444735
0
LINE
8
Layer 1
10
221.391800
20
47.444735
11
221.595950
21
47.520632
0
LINE
8
Layer 1
10
221.595950
20
47.520632
11
222.407030
21
47.431296
0
LINE
8
Layer 1
10
222.407030
20
47.431296
11
223.682417
21
46.984008
0
LINE
8
Layer 1
10
223.682417
20
46.984008
11
224.510182
21
46.349848
0
LINE
8
Layer 1
10
224.510182
20
46.349848
11
224.921560
21
45.491297
0
LINE
8
Layer 1
10
224.921560
20
45.491297
11
224.947780
21
44.370836
0
LINE
8
Layer 1
10
224.947780
20
44.370836
11
224.857362
21
43.749078
0
LINE
8
Layer 1
10
224.857362
20
43.749078
11
224.708206
21
42.421368
0
LINE
8
Layer 1
10
224.708206
20
42.421368
11
224.906959
21
41.089778
0
LINE
8
Layer 1
10
224.906959
20
41.089778
11
225.411719
21
40.231975
0
LINE
8
Layer 1
10
225.411719
20
40.231975
11
226.171979
21
39.589628
0
LINE
8
Layer 1
10
226.171979
20
39.589628
11
227.287223
21
39.167990
0
LINE
8
Layer 1
10
227.287223
20
39.167990
11
228.712659
21
39.069453
0
LINE
8
Layer 1
10
228.712659
20
39.069453
11
231.214600
21
39.420400
0
LINE
8
Layer 1
10
231.214600
20
39.420400
11
233.727773
21
40.261641
0
LINE
8
Layer 1
10
233.727773
20
40.261641
11
236.118364
21
41.535488
0
LINE
8
Layer 1
10
236.118364
20
41.535488
11
238.252559
21
43.184253
0
LINE
8
Layer 1
10
238.252559
20
43.184253
11
239.154088
21
43.977362
0
LINE
8
Layer 1
10
239.154088
20
43.977362
11
240.172069
21
44.614143
0
LINE
8
Layer 1
10
240.172069
20
44.614143
11
240.925390
21
44.762464
0
LINE
8
Layer 1
10
240.925390
20
44.762464
11
242.003049
21
44.794778
0
LINE
8
Layer 1
10
242.003049
20
44.794778
11
243.023654
21
44.707952
0
LINE
8
Layer 1
10
243.023654
20
44.707952
11
243.605809
21
44.498855
0
LINE
8
Layer 1
10
243.605809
20
44.498855
11
244.275429
21
45.070834
0
LINE
8
Layer 1
10
244.275429
20
45.070834
11
243.506697
21
45.739003
0
LINE
8
Layer 1
10
243.506697
20
45.739003
11
242.597179
21
46.192542
0
LINE
8
Layer 1
10
242.597179
20
46.192542
11
241.642929
21
46.456168
0
LINE
8
Layer 1
10
241.642929
20
46.456168
11
240.740000
21
46.554600
0
LINE
8
Layer 1
10
240.740000
20
46.554600
11
240.740000
21
46.554600
0
LINE
8
Layer 1
10
190.562000
20
34.788300
11
187.561130
21
35.965610
0
LINE
8
Layer 1
10
187.561130
20
35.965610
11
184.594100
21
37.072170
0
LINE
8
Layer 1
10
184.594100
20
37.072170
11
181.537040
21
37.863151
0
LINE
8
Layer 1
10
181.537040
20
37.863151
11
178.413650
21
38.367307
0
LINE
8
Layer 1
10
178.413650
20
38.367307
11
176.836060
21
38.530474
0
LINE
8
Layer 1
10
176.836060
20
38.530474
11
175.250120
21
38.627254
0
LINE
8
Layer 1
10
175.250120
20
38.627254
11
172.062839
21
38.676908
0
LINE
8
Layer 1
10
172.062839
20
38.676908
11
168.856980
21
38.575469
0
LINE
8
Layer 1
10
168.856980
20
38.575469
11
172.039946
21
39.109311
0
LINE
8
Layer 1
10
172.039946
20
39.109311
11
175.260840
21
39.314487
0
LINE
8
Layer 1
10
175.260840
20
39.314487
11
178.504620
21
39.195831
0
LINE
8
Layer 1
10
178.504620
20
39.195831
11
181.716230
21
38.724925
0
LINE
8
Layer 1
10
181.716230
20
38.724925
11
184.855500
21
37.861571
0
LINE
8
Layer 1
10
184.855500
20
37.861571
11
187.844250
21
36.588921
0
LINE
8
Layer 1
10
187.844250
20
36.588921
11
190.719695
21
35.189663
0
LINE
8
Layer 1
10
190.719695
20
35.189663
11
192.190027
21
34.580801
0
LINE
8
Layer 1
10
192.190027
20
34.580801
11
193.716820
21
34.097291
0
LINE
8
Layer 1
10
193.716820
20
34.097291
11
192.118985
21
34.349546
0
LINE
8
Layer 1
10
192.118985
20
34.349546
11
190.562000
21
34.788300
0
LINE
8
Layer 1
10
190.562000
20
34.788300
11
190.562000
21
34.788300
0
LINE
8
Layer 1
10
122.052000
20
66.466700
11
120.835690
21
66.611446
0
LINE
8
Layer 1
10
120.835690
20
66.611446
11
118.865709
21
66.704003
0
LINE
8
Layer 1
10
118.865709
20
66.704003
11
117.880615
21
66.583112
0
LINE
8
Layer 1
10
117.880615
20
66.583112
11
116.951580
21
66.282677
0
LINE
8
Layer 1
10
116.951580
20
66.282677
11
116.131675
21
65.733631
0
LINE
8
Layer 1
10
116.131675
20
65.733631
11
115.544835
21
64.948195
0
LINE
8
Layer 1
10
115.544835
20
64.948195
11
115.192707
21
63.929511
0
LINE
8
Layer 1
10
115.192707
20
63.929511
11
115.076940
21
62.680717
0
LINE
8
Layer 1
10
115.076940
20
62.680717
11
115.239574
21
61.011541
0
LINE
8
Layer 1
10
115.239574
20
61.011541
11
115.651262
21
59.385777
0
LINE
8
Layer 1
10
115.651262
20
59.385777
11
115.735550
21
59.162906
0
LINE
8
Layer 1
10
115.735550
20
59.162906
11
116.012356
21
59.198491
0
LINE
8
Layer 1
10
116.012356
20
59.198491
11
119.230142
21
59.357221
0
LINE
8
Layer 1
10
119.230142
20
59.357221
11
122.447356
21
59.187293
0
LINE
8
Layer 1
10
122.447356
20
59.187293
11
125.638202
21
58.748106
0
LINE
8
Layer 1
10
125.638202
20
58.748106
11
128.788466
21
58.077123
0
LINE
8
Layer 1
10
128.788466
20
58.077123
11
131.878181
21
57.144703
0
LINE
8
Layer 1
10
131.878181
20
57.144703
11
134.877926
21
55.954213
0
LINE
8
Layer 1
10
134.877926
20
55.954213
11
137.809984
21
54.693412
0
LINE
8
Layer 1
10
137.809984
20
54.693412
11
140.763326
21
53.556503
0
LINE
8
Layer 1
10
140.763326
20
53.556503
11
143.795016
21
52.694924
0
LINE
8
Layer 1
10
143.795016
20
52.694924
11
146.901886
21
52.120489
0
LINE
8
Layer 1
10
146.901886
20
52.120489
11
149.557367
21
51.864214
0
LINE
8
Layer 1
10
149.557367
20
51.864214
11
152.221079
21
51.780808
0
LINE
8
Layer 1
10
152.221079
20
51.780808
11
154.884594
21
51.870262
0
LINE
8
Layer 1
10
154.884594
20
51.870262
11
157.539486
21
52.132565
0
LINE
8
Layer 1
10
157.539486
20
52.132565
11
156.624062
21
52.178042
0
LINE
8
Layer 1
10
156.624062
20
52.178042
11
153.790614
21
52.543290
0
LINE
8
Layer 1
10
153.790614
20
52.543290
11
151.043312
21
53.326982
0
LINE
8
Layer 1
10
151.043312
20
53.326982
11
148.466442
21
54.565532
0
LINE
8
Layer 1
10
148.466442
20
54.565532
11
146.040122
21
56.025462
0
LINE
8
Layer 1
10
146.040122
20
56.025462
11
141.425851
21
59.262147
0
LINE
8
Layer 1
10
141.425851
20
59.262147
11
136.891522
21
62.544162
0
LINE
8
Layer 1
10
136.891522
20
62.544162
11
134.567622
21
64.077132
0
LINE
8
Layer 1
10
134.567622
20
64.077132
11
133.373000
21
64.795900
0
LINE
8
Layer 1
10
133.373000
20
64.795900
11
132.168230
21
65.496714
0
LINE
8
Layer 1
10
132.168230
20
65.496714
11
130.389560
21
66.472742
0
LINE
8
Layer 1
10
130.389560
20
66.472742
11
130.199342
21
66.436993
0
LINE
8
Layer 1
10
130.199342
20
66.436993
11
127.863762
21
66.129636
0
LINE
8
Layer 1
10
127.863762
20
66.129636
11
124.925345
21
66.162929
0
LINE
8
Layer 1
10
124.925345
20
66.162929
11
122.052000
21
66.466700
0
LINE
8
Layer 1
10
122.052000
20
66.466700
11
122.052000
21
66.466700
0
LINE
8
Layer 1
10
129.383000
20
3.431870
11
127.485420
21
5.796190
0
LINE
8
Layer 1
10
127.485420
20
5.796190
11
127.466356
21
5.467796
0
LINE
8
Layer 1
10
127.466356
20
5.467796
11
125.229609
21
5.868401
0
LINE
8
Layer 1
10
125.229609
20
5.868401
11
122.967786
21
6.086760
0
LINE
8
Layer 1
10
122.967786
20
6.086760
11
121.080386
21
6.030925
0
LINE
8
Layer 1
10
121.080386
20
6.030925
11
119.946786
21
5.857706
0
LINE
8
Layer 1
10
119.946786
20
5.857706
11
118.539176
21
5.488546
0
LINE
8
Layer 1
10
118.539176
20
5.488546
11
116.983566
21
5.360536
0
LINE
8
Layer 1
10
116.983566
20
5.360536
11
114.898916
21
5.365788
0
LINE
8
Layer 1
10
114.898916
20
5.365788
11
113.970231
21
5.458535
0
LINE
8
Layer 1
10
113.970231
20
5.458535
11
114.121392
21
5.427750
0
LINE
8
Layer 1
10
114.121392
20
5.427750
11
118.189562
21
4.349940
0
LINE
8
Layer 1
10
118.189562
20
4.349940
11
117.938701
21
3.926237
0
LINE
8
Layer 1
10
117.938701
20
3.926237
11
121.256410
21
3.533705
0
LINE
8
Layer 1
10
121.256410
20
3.533705
11
124.402265
21
2.858220
0
LINE
8
Layer 1
10
124.402265
20
2.858220
11
127.369063
21
1.900398
0
LINE
8
Layer 1
10
127.369063
20
1.900398
11
130.149601
21
0.660857
0
LINE
8
Layer 1
10
130.149601
20
0.660857
11
131.434861
21
0.000074
0
LINE
8
Layer 1
10
131.434861
20
0.000074
11
130.736322
21
1.265344
0
LINE
8
Layer 1
10
130.736322
20
1.265344
11
129.383000
21
3.431870
0
LINE
8
Layer 1
10
129.383000
20
3.431870
11
129.383000
21
3.431870
0
LINE
8
Layer 1
10
124.307000
20
8.017990
11
123.509192
21
7.576457
0
LINE
8
Layer 1
10
123.509192
20
7.576457
11
125.107573
21
7.196648
0
LINE
8
Layer 1
10
125.107573
20
7.196648
11
126.650112
21
6.631270
0
LINE
8
Layer 1
10
126.650112
20
6.631270
11
124.848642
21
8.124800
0
LINE
8
Layer 1
10
124.848642
20
8.124800
11
124.700419
21
8.229121
0
LINE
8
Layer 1
10
124.700419
20
8.229121
11
124.307000
21
8.017990
0
LINE
8
Layer 1
10
124.307000
20
8.017990
11
124.307000
21
8.017990
 0 
ENDSEC
 0 
EOF