999
"DXF R12 Output" (www.mydxf.blogspot.com)
 0 
SECTION
 2 
HEADER
 9 
$ACADVER
 1 
AC1009
 9 
$EXTMIN
 10 
 0 
 20 
 0 
 9 
$EXTMAX
 10 
 8.5 
 20 
 11 
 0 
ENDSEC
 0 
SECTION
 2 
ENTITIES
0
LINE
8
Layer 1
10
78.721200
20
227.068000
11
78.684277
21
227.162465
0
LINE
8
Layer 1
10
78.684277
20
227.162465
11
78.590204
21
227.124758
0
LINE
8
Layer 1
10
78.590204
20
227.124758
11
77.561574
21
226.723125
0
LINE
8
Layer 1
10
77.561574
20
226.723125
11
73.790072
21
225.398439
0
LINE
8
Layer 1
10
73.790072
20
225.398439
11
69.907944
21
224.445495
0
LINE
8
Layer 1
10
69.907944
20
224.445495
11
66.059154
21
223.948019
0
LINE
8
Layer 1
10
66.059154
20
223.948019
11
65.696013
21
223.915614
0
LINE
8
Layer 1
10
65.696013
20
223.915614
11
65.696000
21
211.261000
0
LINE
8
Layer 1
10
65.696000
20
211.261000
11
65.779078
21
211.246271
0
LINE
8
Layer 1
10
65.779078
20
211.246271
11
67.495936
21
210.842772
0
LINE
8
Layer 1
10
67.495936
20
210.842772
11
69.244738
21
210.242521
0
LINE
8
Layer 1
10
69.244738
20
210.242521
11
70.994427
21
209.464062
0
LINE
8
Layer 1
10
70.994427
20
209.464062
11
72.713945
21
208.525939
0
LINE
8
Layer 1
10
72.713945
20
208.525939
11
74.372237
21
207.446695
0
LINE
8
Layer 1
10
74.372237
20
207.446695
11
75.938244
21
206.244873
0
LINE
8
Layer 1
10
75.938244
20
206.244873
11
77.380910
21
204.939017
0
LINE
8
Layer 1
10
77.380910
20
204.939017
11
78.669178
21
203.547671
0
LINE
8
Layer 1
10
78.669178
20
203.547671
11
78.773267
21
203.423942
0
LINE
8
Layer 1
10
78.773267
20
203.423942
11
78.838277
21
203.572027
0
LINE
8
Layer 1
10
78.838277
20
203.572027
11
79.945264
21
206.644370
0
LINE
8
Layer 1
10
79.945264
20
206.644370
11
80.644729
21
209.785761
0
LINE
8
Layer 1
10
80.644729
20
209.785761
11
80.980201
21
212.942342
0
LINE
8
Layer 1
10
80.980201
20
212.942342
11
80.995210
21
216.060253
0
LINE
8
Layer 1
10
80.995210
20
216.060253
11
80.733284
21
219.085634
0
LINE
8
Layer 1
10
80.733284
20
219.085634
11
80.237954
21
221.964625
0
LINE
8
Layer 1
10
80.237954
20
221.964625
11
79.552750
21
224.643367
0
LINE
8
Layer 1
10
79.552750
20
224.643367
11
78.721200
21
227.068000
0
LINE
8
Layer 1
10
78.721200
20
227.068000
11
78.721200
21
227.068000
0
LINE
8
Layer 1
10
78.412600
20
205.036000
11
75.800141
21
207.385822
0
LINE
8
Layer 1
10
75.800141
20
207.385822
11
72.846555
21
209.378263
0
LINE
8
Layer 1
10
72.846555
20
209.378263
11
69.717717
21
210.917025
0
LINE
8
Layer 1
10
69.717717
20
210.917025
11
66.579500
21
211.905810
0
LINE
8
Layer 1
10
66.579500
20
211.905810
11
66.500644
21
211.923093
0
LINE
8
Layer 1
10
66.500644
20
211.923093
11
66.500600
21
223.181000
0
LINE
8
Layer 1
10
66.500600
20
223.181000
11
66.591436
21
223.189836
0
LINE
8
Layer 1
10
66.591436
20
223.189836
11
70.047916
21
223.653925
0
LINE
8
Layer 1
10
70.047916
20
223.653925
11
74.006142
21
224.623438
0
LINE
8
Layer 1
10
74.006142
20
224.623438
11
77.851496
21
225.972795
0
LINE
8
Layer 1
10
77.851496
20
225.972795
11
78.220724
21
226.115577
0
LINE
8
Layer 1
10
78.220724
20
226.115577
11
78.255488
21
226.018555
0
LINE
8
Layer 1
10
78.255488
20
226.018555
11
79.181556
21
222.921650
0
LINE
8
Layer 1
10
79.181556
20
222.921650
11
79.669591
21
220.640045
0
LINE
8
Layer 1
10
79.669591
20
220.640045
11
80.048282
21
217.975361
0
LINE
8
Layer 1
10
80.048282
20
217.975361
11
80.223122
21
215.006864
0
LINE
8
Layer 1
10
80.223122
20
215.006864
11
80.099601
21
211.813820
0
LINE
8
Layer 1
10
80.099601
20
211.813820
11
79.583211
21
208.475495
0
LINE
8
Layer 1
10
79.583211
20
208.475495
11
78.579445
21
205.071155
0
LINE
8
Layer 1
10
78.579445
20
205.071155
11
78.523283
21
204.921295
0
LINE
8
Layer 1
10
78.523283
20
204.921295
11
78.412600
21
205.036000
0
LINE
8
Layer 1
10
75.183900
20
213.636000
11
79.658380
21
210.634060
0
LINE
8
Layer 1
10
79.658380
20
210.634060
11
79.755795
21
211.429472
0
LINE
8
Layer 1
10
79.755795
20
211.429472
11
74.561600
21
215.681000
0
LINE
8
Layer 1
10
74.561600
20
215.681000
11
79.820740
21
212.100670
0
LINE
8
Layer 1
10
79.820740
20
212.100670
11
79.922919
21
214.466481
0
LINE
8
Layer 1
10
79.922919
20
214.466481
11
79.843623
21
216.833170
0
LINE
8
Layer 1
10
79.843623
20
216.833170
11
76.171300
21
219.956000
0
LINE
8
Layer 1
10
76.171300
20
219.956000
11
79.781980
21
217.591370
0
LINE
8
Layer 1
10
79.781980
20
217.591370
11
79.711032
21
218.280432
0
LINE
8
Layer 1
10
79.711032
20
218.280432
11
79.705091
21
218.272479
0
LINE
8
Layer 1
10
79.705091
20
218.272479
11
77.649491
21
220.187259
0
LINE
8
Layer 1
10
77.649491
20
220.187259
11
79.619611
21
219.020269
0
LINE
8
Layer 1
10
79.619611
20
219.020269
11
78.995130
21
222.409900
0
LINE
8
Layer 1
10
78.995130
20
222.409900
11
78.040231
21
225.721659
0
LINE
8
Layer 1
10
78.040231
20
225.721659
11
77.959905
21
225.690629
0
LINE
8
Layer 1
10
77.959905
20
225.690629
11
74.087014
21
224.332084
0
LINE
8
Layer 1
10
74.087014
20
224.332084
11
70.100455
21
223.356239
0
LINE
8
Layer 1
10
70.100455
20
223.356239
11
66.802145
21
222.906879
0
LINE
8
Layer 1
10
66.802145
20
222.906879
11
66.802200
21
212.165000
0
LINE
8
Layer 1
10
66.802200
20
212.165000
11
69.871803
21
211.180031
0
LINE
8
Layer 1
10
69.871803
20
211.180031
11
72.929575
21
209.678500
0
LINE
8
Layer 1
10
72.929575
20
209.678500
11
75.824784
21
207.747969
0
LINE
8
Layer 1
10
75.824784
20
207.747969
11
78.406700
21
205.476000
0
LINE
8
Layer 1
10
78.406700
20
205.476000
11
79.089907
21
207.709883
0
LINE
8
Layer 1
10
79.089907
20
207.709883
11
79.563090
21
209.997480
0
LINE
8
Layer 1
10
79.563090
20
209.997480
11
75.183900
21
213.636000
0
LINE
8
Layer 1
10
44.040500
20
223.590000
11
38.510806
21
223.985796
0
LINE
8
Layer 1
10
38.510806
20
223.985796
11
31.224930
21
224.656636
0
LINE
8
Layer 1
10
31.224930
20
224.656636
11
23.528639
21
225.623545
0
LINE
8
Layer 1
10
23.528639
20
225.623545
11
19.947140
21
226.224596
0
LINE
8
Layer 1
10
19.947140
20
226.224596
11
16.767700
21
226.907550
0
LINE
8
Layer 1
10
16.767700
20
226.907550
11
16.704067
21
226.923261
0
LINE
8
Layer 1
10
16.704067
20
226.923261
11
16.663904
21
226.871615
0
LINE
8
Layer 1
10
16.663904
20
226.871615
11
15.399072
21
225.104265
0
LINE
8
Layer 1
10
15.399072
20
225.104265
11
14.243291
21
223.210462
0
LINE
8
Layer 1
10
14.243291
20
223.210462
11
13.199582
21
221.197757
0
LINE
8
Layer 1
10
13.199582
20
221.197757
11
12.270964
21
219.073702
0
LINE
8
Layer 1
10
12.270964
20
219.073702
11
10.771084
21
214.521744
0
LINE
8
Layer 1
10
10.771084
20
214.521744
11
9.767810
21
209.615000
0
LINE
8
Layer 1
10
9.767810
20
209.615000
11
9.669219
21
208.910326
0
LINE
8
Layer 1
10
9.669219
20
208.910326
11
9.295902
21
204.383188
0
LINE
8
Layer 1
10
9.295902
20
204.383188
11
9.354787
21
199.841066
0
LINE
8
Layer 1
10
9.354787
20
199.841066
11
9.657935
21
196.604519
0
LINE
8
Layer 1
10
9.657935
20
196.604519
11
10.244057
21
193.060925
0
LINE
8
Layer 1
10
10.244057
20
193.060925
11
11.177661
21
189.267705
0
LINE
8
Layer 1
10
11.177661
20
189.267705
11
12.523259
21
185.282285
0
LINE
8
Layer 1
10
12.523259
20
185.282285
11
14.345360
21
181.162087
0
LINE
8
Layer 1
10
14.345360
20
181.162087
11
16.708475
21
176.964536
0
LINE
8
Layer 1
10
16.708475
20
176.964536
11
19.677113
21
172.747054
0
LINE
8
Layer 1
10
19.677113
20
172.747054
11
23.315787
21
168.567066
0
LINE
8
Layer 1
10
23.315787
20
168.567066
11
23.444427
21
168.433516
0
LINE
8
Layer 1
10
23.444427
20
168.433516
11
24.437318
21
172.736206
0
LINE
8
Layer 1
10
24.437318
20
172.736206
11
24.411689
21
172.772734
0
LINE
8
Layer 1
10
24.411689
20
172.772734
11
23.238699
21
174.571744
0
LINE
8
Layer 1
10
23.238699
20
174.571744
11
21.977993
21
176.772297
0
LINE
8
Layer 1
10
21.977993
20
176.772297
11
20.779125
21
179.205330
0
LINE
8
Layer 1
10
20.779125
20
179.205330
11
19.714356
21
181.838312
0
LINE
8
Layer 1
10
19.714356
20
181.838312
11
18.855950
21
184.638718
0
LINE
8
Layer 1
10
18.855950
20
184.638718
11
18.276169
21
187.574018
0
LINE
8
Layer 1
10
18.276169
20
187.574018
11
18.047275
21
190.611684
0
LINE
8
Layer 1
10
18.047275
20
190.611684
11
18.241531
21
193.719187
0
LINE
8
Layer 1
10
18.241531
20
193.719187
11
18.931200
21
196.864000
0
LINE
8
Layer 1
10
18.931200
20
196.864000
11
19.693992
21
198.851508
0
LINE
8
Layer 1
10
19.693992
20
198.851508
11
20.731836
21
200.719846
0
LINE
8
Layer 1
10
20.731836
20
200.719846
11
22.043233
21
202.467643
0
LINE
8
Layer 1
10
22.043233
20
202.467643
11
23.626683
21
204.093531
0
LINE
8
Layer 1
10
23.626683
20
204.093531
11
25.480684
21
205.596140
0
LINE
8
Layer 1
10
25.480684
20
205.596140
11
27.603738
21
206.974101
0
LINE
8
Layer 1
10
27.603738
20
206.974101
11
29.994343
21
208.226044
0
LINE
8
Layer 1
10
29.994343
20
208.226044
11
32.651000
21
209.350600
0
LINE
8
Layer 1
10
32.651000
20
209.350600
11
35.860559
21
210.365378
0
LINE
8
Layer 1
10
35.860559
20
210.365378
11
38.866691
21
210.975768
0
LINE
8
Layer 1
10
38.866691
20
210.975768
11
41.611503
21
211.288283
0
LINE
8
Layer 1
10
41.611503
20
211.288283
11
44.037100
21
211.409440
0
LINE
8
Layer 1
10
44.037100
20
211.409440
11
44.134904
21
211.412189
0
LINE
8
Layer 1
10
44.134904
20
211.412189
11
44.134800
21
223.584000
0
LINE
8
Layer 1
10
44.134800
20
223.584000
11
44.040500
21
223.590000
0
LINE
8
Layer 1
10
43.430881
20
212.094000
11
43.237821
21
212.086340
0
LINE
8
Layer 1
10
43.237821
20
212.086340
11
40.471349
21
211.901881
0
LINE
8
Layer 1
10
40.471349
20
211.901881
11
37.733849
21
211.492228
0
LINE
8
Layer 1
10
37.733849
20
211.492228
11
35.039036
21
210.860011
0
LINE
8
Layer 1
10
35.039036
20
210.860011
11
32.400621
21
210.007860
0
LINE
8
Layer 1
10
32.400621
20
210.007860
11
29.667146
21
208.849578
0
LINE
8
Layer 1
10
29.667146
20
208.849578
11
27.206470
21
207.557316
0
LINE
8
Layer 1
10
27.206470
20
207.557316
11
25.020143
21
206.132482
0
LINE
8
Layer 1
10
25.020143
20
206.132482
11
23.109715
21
204.576483
0
LINE
8
Layer 1
10
23.109715
20
204.576483
11
21.476737
21
202.890727
0
LINE
8
Layer 1
10
21.476737
20
202.890727
11
20.122758
21
201.076623
0
LINE
8
Layer 1
10
20.122758
20
201.076623
11
19.049329
21
199.135578
0
LINE
8
Layer 1
10
19.049329
20
199.135578
11
18.258000
21
197.069000
0
LINE
8
Layer 1
10
18.258000
20
197.069000
11
17.546423
21
193.832877
0
LINE
8
Layer 1
10
17.546423
20
193.832877
11
17.342586
21
190.639141
0
LINE
8
Layer 1
10
17.342586
20
190.639141
11
17.572490
21
187.520615
0
LINE
8
Layer 1
10
17.572490
20
187.520615
11
18.162138
21
184.510125
0
LINE
8
Layer 1
10
18.162138
20
184.510125
11
19.037530
21
181.640494
0
LINE
8
Layer 1
10
19.037530
20
181.640494
11
20.124670
21
178.944547
0
LINE
8
Layer 1
10
20.124670
20
178.944547
11
21.349560
21
176.455107
0
LINE
8
Layer 1
10
21.349560
20
176.455107
11
22.638200
21
174.205000
0
LINE
8
Layer 1
10
22.638200
20
174.205000
11
23.631777
21
172.663860
0
LINE
8
Layer 1
10
23.631777
20
172.663860
11
23.681468
21
172.591194
0
LINE
8
Layer 1
10
23.681468
20
172.591194
11
23.053100
21
169.868000
0
LINE
8
Layer 1
10
23.053100
20
169.868000
11
22.794737
21
170.151207
0
LINE
8
Layer 1
10
22.794737
20
170.151207
11
19.483265
21
174.162541
0
LINE
8
Layer 1
10
19.483265
20
174.162541
11
16.779895
21
178.195056
0
LINE
8
Layer 1
10
16.779895
20
178.195056
11
14.626191
21
182.196039
0
LINE
8
Layer 1
10
14.626191
20
182.196039
11
12.963717
21
186.112776
0
LINE
8
Layer 1
10
12.963717
20
186.112776
11
11.734037
21
189.892554
0
LINE
8
Layer 1
10
11.734037
20
189.892554
11
10.878715
21
193.482659
0
LINE
8
Layer 1
10
10.878715
20
193.482659
11
10.339314
21
196.830379
0
LINE
8
Layer 1
10
10.339314
20
196.830379
11
10.057400
21
199.883000
0
LINE
8
Layer 1
10
10.057400
20
199.883000
11
9.999346
21
204.358136
0
LINE
8
Layer 1
10
9.999346
20
204.358136
11
10.367020
21
208.818520
0
LINE
8
Layer 1
10
10.367020
20
208.818520
11
10.464926
21
209.517302
0
LINE
8
Layer 1
10
10.464926
20
209.517302
11
11.410728
21
214.185065
0
LINE
8
Layer 1
10
11.410728
20
214.185065
11
12.814291
21
218.530788
0
LINE
8
Layer 1
10
12.814291
20
218.530788
11
14.653064
21
222.496692
0
LINE
8
Layer 1
10
14.653064
20
222.496692
11
16.904500
21
226.025000
0
LINE
8
Layer 1
10
16.904500
20
226.025000
11
16.983356
21
226.130859
0
LINE
8
Layer 1
10
16.983356
20
226.130859
11
17.111897
21
226.100613
0
LINE
8
Layer 1
10
17.111897
20
226.100613
11
23.706853
21
224.888556
0
LINE
8
Layer 1
10
23.706853
20
224.888556
11
31.088737
21
223.967202
0
LINE
8
Layer 1
10
31.088737
20
223.967202
11
38.014977
21
223.321400
0
LINE
8
Layer 1
10
38.014977
20
223.321400
11
43.243000
21
222.936000
0
LINE
8
Layer 1
10
43.243000
20
222.936000
11
43.430960
21
222.923625
0
LINE
8
Layer 1
10
43.430960
20
222.923625
11
43.430881
21
212.094000
0
LINE
8
Layer 1
10
22.250300
20
219.566000
11
22.171842
21
219.475658
0
LINE
8
Layer 1
10
22.171842
20
219.475658
11
23.289442
21
219.173206
0
LINE
8
Layer 1
10
23.289442
20
219.173206
11
23.744384
21
218.980931
0
LINE
8
Layer 1
10
23.744384
20
218.980931
11
23.413682
21
219.633141
0
LINE
8
Layer 1
10
23.413682
20
219.633141
11
22.949760
21
220.198401
0
LINE
8
Layer 1
10
22.949760
20
220.198401
11
22.250300
21
219.566000
0
LINE
8
Layer 1
10
22.250300
20
219.566000
11
22.250300
21
219.566000
0
LINE
8
Layer 1
10
21.577100
20
219.553000
11
21.864038
21
219.908481
0
LINE
8
Layer 1
10
21.864038
20
219.908481
11
22.810184
21
220.730800
0
LINE
8
Layer 1
10
22.810184
20
220.730800
11
22.852213
21
220.756920
0
LINE
8
Layer 1
10
22.852213
20
220.756920
11
23.965102
21
221.292891
0
LINE
8
Layer 1
10
23.965102
20
221.292891
11
24.838376
21
221.498472
0
LINE
8
Layer 1
10
24.838376
20
221.498472
11
25.734153
21
221.548020
0
LINE
8
Layer 1
10
25.734153
20
221.548020
11
24.818949
21
221.630959
0
LINE
8
Layer 1
10
24.818949
20
221.630959
11
23.903433
21
221.551556
0
LINE
8
Layer 1
10
23.903433
20
221.551556
11
22.591492
21
221.137745
0
LINE
8
Layer 1
10
22.591492
20
221.137745
11
21.509799
21
220.465261
0
LINE
8
Layer 1
10
21.509799
20
220.465261
11
20.612800
21
219.561000
0
LINE
8
Layer 1
10
20.612800
20
219.561000
11
21.045071
21
219.575532
0
LINE
8
Layer 1
10
21.045071
20
219.575532
11
21.577100
21
219.553000
0
LINE
8
Layer 1
10
21.577100
20
219.553000
11
21.577100
21
219.553000
0
LINE
8
Layer 1
10
22.002800
20
214.455000
11
23.021882
21
215.271563
0
LINE
8
Layer 1
10
23.021882
20
215.271563
11
23.709300
21
216.381860
0
LINE
8
Layer 1
10
23.709300
20
216.381860
11
22.577800
21
216.810000
0
LINE
8
Layer 1
10
22.577800
20
216.810000
11
21.197030
21
216.839264
0
LINE
8
Layer 1
10
21.197030
20
216.839264
11
21.204492
21
216.603586
0
LINE
8
Layer 1
10
21.204492
20
216.603586
11
21.394015
21
215.597636
0
LINE
8
Layer 1
10
21.394015
20
215.597636
11
22.002800
21
214.455000
0
LINE
8
Layer 1
10
22.002800
20
214.455000
11
22.002800
21
214.455000
0
LINE
8
Layer 1
10
17.858300
20
214.542000
11
18.124122
21
215.202682
0
LINE
8
Layer 1
10
18.124122
20
215.202682
11
18.192078
21
215.331911
0
LINE
8
Layer 1
10
18.192078
20
215.331911
11
18.259529
21
215.445821
0
LINE
8
Layer 1
10
18.259529
20
215.445821
11
18.377368
21
215.633781
0
LINE
8
Layer 1
10
18.377368
20
215.633781
11
18.390133
21
215.652439
0
LINE
8
Layer 1
10
18.390133
20
215.652439
11
18.535173
21
215.845891
0
LINE
8
Layer 1
10
18.535173
20
215.845891
11
18.617365
21
215.945859
0
LINE
8
Layer 1
10
18.617365
20
215.945859
11
18.707111
21
216.046807
0
LINE
8
Layer 1
10
18.707111
20
216.046807
11
18.989531
21
216.330406
0
LINE
8
Layer 1
10
18.989531
20
216.330406
11
19.504487
21
216.733021
0
LINE
8
Layer 1
10
19.504487
20
216.733021
11
20.475184
21
217.194172
0
LINE
8
Layer 1
10
20.475184
20
217.194172
11
20.890564
21
217.307100
0
LINE
8
Layer 1
10
20.890564
20
217.307100
11
21.786017
21
217.404016
0
LINE
8
Layer 1
10
21.786017
20
217.404016
11
22.682304
21
217.315152
0
LINE
8
Layer 1
10
22.682304
20
217.315152
11
23.868544
21
216.883273
0
LINE
8
Layer 1
10
23.868544
20
216.883273
11
23.968217
21
217.779438
0
LINE
8
Layer 1
10
23.968217
20
217.779438
11
23.929428
21
218.267092
0
LINE
8
Layer 1
10
23.929428
20
218.267092
11
23.922847
21
218.308336
0
LINE
8
Layer 1
10
23.922847
20
218.308336
11
23.108975
21
218.689336
0
LINE
8
Layer 1
10
23.108975
20
218.689336
11
21.674485
21
219.025570
0
LINE
8
Layer 1
10
21.674485
20
219.025570
11
20.113025
21
218.984913
0
LINE
8
Layer 1
10
20.113025
20
218.984913
11
20.082192
21
219.095880
0
LINE
8
Layer 1
10
20.082192
20
219.095880
11
20.073254
21
219.094506
0
LINE
8
Layer 1
10
20.073254
20
219.094506
11
20.092208
21
218.981970
0
LINE
8
Layer 1
10
20.092208
20
218.981970
11
18.580600
21
218.534000
0
LINE
8
Layer 1
10
18.580600
20
218.534000
11
17.224280
21
217.699309
0
LINE
8
Layer 1
10
17.224280
20
217.699309
11
17.066080
21
217.567918
0
LINE
8
Layer 1
10
17.066080
20
217.567918
11
16.928308
21
217.446348
0
LINE
8
Layer 1
10
16.928308
20
217.446348
11
16.624479
21
217.152340
0
LINE
8
Layer 1
10
16.624479
20
217.152340
11
16.353156
21
216.846744
0
LINE
8
Layer 1
10
16.353156
20
216.846744
11
16.244057
21
216.711622
0
LINE
8
Layer 1
10
16.244057
20
216.711622
11
16.105204
21
216.527991
0
LINE
8
Layer 1
10
16.105204
20
216.527991
11
16.089682
21
216.506387
0
LINE
8
Layer 1
10
16.089682
20
216.506387
11
16.811541
21
215.404007
0
LINE
8
Layer 1
10
16.811541
20
215.404007
11
17.858300
21
214.542000
0
LINE
8
Layer 1
10
17.858300
20
214.542000
11
17.858300
21
214.542000
0
LINE
8
Layer 1
10
25.778400
20
213.192000
11
25.580600
21
214.103000
0
LINE
8
Layer 1
10
25.580600
20
214.103000
11
25.537194
21
214.225747
0
LINE
8
Layer 1
10
25.537194
20
214.225747
11
24.405454
21
213.171087
0
LINE
8
Layer 1
10
24.405454
20
213.171087
11
24.293505
21
213.091740
0
LINE
8
Layer 1
10
24.293505
20
213.091740
11
25.004761
21
213.058353
0
LINE
8
Layer 1
10
25.004761
20
213.058353
11
25.778400
21
213.192000
0
LINE
8
Layer 1
10
25.778400
20
213.192000
11
25.778400
21
213.192000
0
LINE
8
Layer 1
10
24.127800
20
220.803000
11
23.396317
21
220.481301
0
LINE
8
Layer 1
10
23.396317
20
220.481301
11
23.957900
21
219.732420
0
LINE
8
Layer 1
10
23.957900
20
219.732420
11
24.324689
21
218.871221
0
LINE
8
Layer 1
10
24.324689
20
218.871221
11
24.408159
21
218.522615
0
LINE
8
Layer 1
10
24.408159
20
218.522615
11
24.440465
21
218.340554
0
LINE
8
Layer 1
10
24.440465
20
218.340554
11
24.484461
21
217.785731
0
LINE
8
Layer 1
10
24.484461
20
217.785731
11
24.351600
21
216.685000
0
LINE
8
Layer 1
10
24.351600
20
216.685000
11
24.274514
21
216.423202
0
LINE
8
Layer 1
10
24.274514
20
216.423202
11
23.527293
21
215.069548
0
LINE
8
Layer 1
10
23.527293
20
215.069548
11
22.354524
21
214.061912
0
LINE
8
Layer 1
10
22.354524
20
214.061912
11
22.460778
21
213.962533
0
LINE
8
Layer 1
10
22.460778
20
213.962533
11
23.610488
21
213.269641
0
LINE
8
Layer 1
10
23.610488
20
213.269641
11
24.102170
21
213.588984
0
LINE
8
Layer 1
10
24.102170
20
213.588984
11
25.384260
21
214.863414
0
LINE
8
Layer 1
10
25.384260
20
214.863414
11
26.067037
21
216.050244
0
LINE
8
Layer 1
10
26.067037
20
216.050244
11
26.140195
21
216.230144
0
LINE
8
Layer 1
10
26.140195
20
216.230144
11
26.501371
21
217.618674
0
LINE
8
Layer 1
10
26.501371
20
217.618674
11
26.560092
21
218.443936
0
LINE
8
Layer 1
10
26.560092
20
218.443936
11
26.507656
21
219.274699
0
LINE
8
Layer 1
10
26.507656
20
219.274699
11
26.012732
21
221.013019
0
LINE
8
Layer 1
10
26.012732
20
221.013019
11
25.059312
21
221.006325
0
LINE
8
Layer 1
10
25.059312
20
221.006325
11
24.127800
21
220.803000
0
LINE
8
Layer 1
10
24.127800
20
220.803000
11
24.127800
21
220.803000
0
LINE
8
Layer 1
10
18.804900
20
215.345000
11
18.685785
21
215.154887
0
LINE
8
Layer 1
10
18.685785
20
215.154887
11
18.652985
21
215.098914
0
LINE
8
Layer 1
10
18.652985
20
215.098914
11
18.582382
21
214.964969
0
LINE
8
Layer 1
10
18.582382
20
214.964969
11
18.325786
21
214.301146
0
LINE
8
Layer 1
10
18.325786
20
214.301146
11
18.759827
21
214.137152
0
LINE
8
Layer 1
10
18.759827
20
214.137152
11
19.250724
21
214.013821
0
LINE
8
Layer 1
10
19.250724
20
214.013821
11
18.991576
21
215.032341
0
LINE
8
Layer 1
10
18.991576
20
215.032341
11
18.929614
21
215.511749
0
LINE
8
Layer 1
10
18.929614
20
215.511749
11
18.804900
21
215.345000
0
LINE
8
Layer 1
10
10.863000
20
209.460000
11
10.765588
21
208.764162
0
LINE
8
Layer 1
10
10.765588
20
208.764162
11
10.401229
21
204.342889
0
LINE
8
Layer 1
10
10.401229
20
204.342889
11
10.458813
21
199.907002
0
LINE
8
Layer 1
10
10.458813
20
199.907002
11
10.734867
21
196.908512
0
LINE
8
Layer 1
10
10.734867
20
196.908512
11
11.261244
21
193.622197
0
LINE
8
Layer 1
10
11.261244
20
193.622197
11
12.094330
21
190.098888
0
LINE
8
Layer 1
10
12.094330
20
190.098888
11
13.290511
21
186.389420
0
LINE
8
Layer 1
10
13.290511
20
186.389420
11
14.906174
21
182.544624
0
LINE
8
Layer 1
10
14.906174
20
182.544624
11
16.997704
21
178.615334
0
LINE
8
Layer 1
10
16.997704
20
178.615334
11
19.621489
21
174.652382
0
LINE
8
Layer 1
10
19.621489
20
174.652382
11
22.833913
21
170.706602
0
LINE
8
Layer 1
10
22.833913
20
170.706602
11
23.249982
21
172.509532
0
LINE
8
Layer 1
10
23.249982
20
172.509532
11
22.294898
21
173.994892
0
LINE
8
Layer 1
10
22.294898
20
173.994892
11
20.990407
21
176.273607
0
LINE
8
Layer 1
10
20.990407
20
176.273607
11
19.750727
21
178.795454
0
LINE
8
Layer 1
10
19.750727
20
178.795454
11
18.650852
21
181.527481
0
LINE
8
Layer 1
10
18.650852
20
181.527481
11
17.765775
21
184.436736
0
LINE
8
Layer 1
10
17.765775
20
184.436736
11
17.170488
21
187.490268
0
LINE
8
Layer 1
10
17.170488
20
187.490268
11
16.939984
21
190.655123
0
LINE
8
Layer 1
10
16.939984
20
190.655123
11
17.149257
21
193.898351
0
LINE
8
Layer 1
10
17.149257
20
193.898351
11
17.873300
21
197.187000
0
LINE
8
Layer 1
10
17.873300
20
197.187000
11
18.680974
21
199.298379
0
LINE
8
Layer 1
10
18.680974
20
199.298379
11
19.774770
21
201.280781
0
LINE
8
Layer 1
10
19.774770
20
201.280781
11
21.153109
21
203.132730
0
LINE
8
Layer 1
10
21.153109
20
203.132730
11
22.814412
21
204.852750
0
LINE
8
Layer 1
10
22.814412
20
204.852750
11
24.757102
21
206.439363
0
LINE
8
Layer 1
10
24.757102
20
206.439363
11
26.979598
21
207.891094
0
LINE
8
Layer 1
10
26.979598
20
207.891094
11
29.480324
21
209.206465
0
LINE
8
Layer 1
10
29.480324
20
209.206465
11
32.257700
21
210.384000
0
LINE
8
Layer 1
10
32.257700
20
210.384000
11
34.880026
21
211.234593
0
LINE
8
Layer 1
10
34.880026
20
211.234593
11
37.558185
21
211.869242
0
LINE
8
Layer 1
10
37.558185
20
211.869242
11
40.278877
21
212.285357
0
LINE
8
Layer 1
10
40.278877
20
212.285357
11
43.028800
21
212.480350
0
LINE
8
Layer 1
10
43.028800
20
212.480350
11
43.028700
21
222.547000
0
LINE
8
Layer 1
10
43.028700
20
222.547000
11
37.249825
21
222.977594
0
LINE
8
Layer 1
10
37.249825
20
222.977594
11
30.397891
21
223.630111
0
LINE
8
Layer 1
10
30.397891
20
223.630111
11
23.391362
21
224.524012
0
LINE
8
Layer 1
10
23.391362
20
224.524012
11
17.148700
21
225.678760
0
LINE
8
Layer 1
10
17.148700
20
225.678760
11
14.953627
21
222.207274
0
LINE
8
Layer 1
10
14.953627
20
222.207274
11
13.159813
21
218.309720
0
LINE
8
Layer 1
10
13.159813
20
218.309720
11
11.789017
21
214.041996
0
LINE
8
Layer 1
10
11.789017
20
214.041996
11
10.863000
21
209.460000
0
LINE
8
Layer 1
10
10.863000
20
209.460000
11
10.863000
21
209.460000
0
LINE
8
Layer 1
10
15.744300
20
217.583000
11
15.870487
21
217.073152
0
LINE
8
Layer 1
10
15.870487
20
217.073152
11
15.969471
21
217.192365
0
LINE
8
Layer 1
10
15.969471
20
217.192365
11
16.251007
21
217.508761
0
LINE
8
Layer 1
10
16.251007
20
217.508761
11
16.565930
21
217.814159
0
LINE
8
Layer 1
10
16.565930
20
217.814159
11
16.737484
21
217.966367
0
LINE
8
Layer 1
10
16.737484
20
217.966367
11
16.897843
21
218.099330
0
LINE
8
Layer 1
10
16.897843
20
218.099330
11
18.369500
21
219.006000
0
LINE
8
Layer 1
10
18.369500
20
219.006000
11
19.916130
21
219.476182
0
LINE
8
Layer 1
10
19.916130
20
219.476182
11
20.023939
21
219.635657
0
LINE
8
Layer 1
10
20.023939
20
219.635657
11
21.081939
21
220.782817
0
LINE
8
Layer 1
10
21.081939
20
220.782817
11
22.372759
21
221.605920
0
LINE
8
Layer 1
10
22.372759
20
221.605920
11
23.814619
21
222.060580
0
LINE
8
Layer 1
10
23.814619
20
222.060580
11
25.283214
21
222.128247
0
LINE
8
Layer 1
10
25.283214
20
222.128247
11
26.719839
21
221.816063
0
LINE
8
Layer 1
10
26.719839
20
221.816063
11
27.735846
21
221.341208
0
LINE
8
Layer 1
10
27.735846
20
221.341208
11
28.626319
21
220.678035
0
LINE
8
Layer 1
10
28.626319
20
220.678035
11
29.365800
21
219.849838
0
LINE
8
Layer 1
10
29.365800
20
219.849838
11
29.928829
21
218.879913
0
LINE
8
Layer 1
10
29.928829
20
218.879913
11
30.194475
21
218.203677
0
LINE
8
Layer 1
10
30.194475
20
218.203677
11
30.376272
21
217.411153
0
LINE
8
Layer 1
10
30.376272
20
217.411153
11
29.495034
21
218.891893
0
LINE
8
Layer 1
10
29.495034
20
218.891893
11
28.666148
21
219.856991
0
LINE
8
Layer 1
10
28.666148
20
219.856991
11
27.704672
21
220.512779
0
LINE
8
Layer 1
10
27.704672
20
220.512779
11
26.612698
21
220.915381
0
LINE
8
Layer 1
10
26.612698
20
220.915381
11
27.019930
21
219.339091
0
LINE
8
Layer 1
10
27.019930
20
219.339091
11
27.076394
21
218.440570
0
LINE
8
Layer 1
10
27.076394
20
218.440570
11
27.012564
21
217.547157
0
LINE
8
Layer 1
10
27.012564
20
217.547157
11
26.665823
21
216.161567
0
LINE
8
Layer 1
10
26.665823
20
216.161567
11
26.748607
21
215.994238
0
LINE
8
Layer 1
10
26.748607
20
215.994238
11
27.217000
21
214.510000
0
LINE
8
Layer 1
10
27.217000
20
214.510000
11
27.279749
21
212.911910
0
LINE
8
Layer 1
10
27.279749
20
212.911910
11
26.970998
21
211.519450
0
LINE
8
Layer 1
10
26.970998
20
211.519450
11
26.299027
21
210.204960
0
LINE
8
Layer 1
10
26.299027
20
210.204960
11
25.916151
21
209.706502
0
LINE
8
Layer 1
10
25.916151
20
209.706502
11
25.850554
21
209.628727
0
LINE
8
Layer 1
10
25.850554
20
209.628727
11
25.601916
21
209.372232
0
LINE
8
Layer 1
10
25.601916
20
209.372232
11
25.457957
21
209.236717
0
LINE
8
Layer 1
10
25.457957
20
209.236717
11
25.278153
21
209.079206
0
LINE
8
Layer 1
10
25.278153
20
209.079206
11
25.194587
21
209.007522
0
LINE
8
Layer 1
10
25.194587
20
209.007522
11
25.047975
21
208.897930
0
LINE
8
Layer 1
10
25.047975
20
208.897930
11
24.964898
21
208.836067
0
LINE
8
Layer 1
10
24.964898
20
208.836067
11
24.744542
21
208.684054
0
LINE
8
Layer 1
10
24.744542
20
208.684054
11
24.635932
21
208.616100
0
LINE
8
Layer 1
10
24.635932
20
208.616100
11
24.459371
21
208.507100
0
LINE
8
Layer 1
10
24.459371
20
208.507100
11
24.144840
21
208.343693
0
LINE
8
Layer 1
10
24.144840
20
208.343693
11
23.049840
21
207.930401
0
LINE
8
Layer 1
10
23.049840
20
207.930401
11
21.890240
21
207.771781
0
LINE
8
Layer 1
10
21.890240
20
207.771781
11
19.421960
21
208.042432
0
LINE
8
Layer 1
10
19.421960
20
208.042432
11
20.947464
21
208.050085
0
LINE
8
Layer 1
10
20.947464
20
208.050085
11
22.453200
21
208.295000
0
LINE
8
Layer 1
10
22.453200
20
208.295000
11
23.697280
21
208.899316
0
LINE
8
Layer 1
10
23.697280
20
208.899316
11
23.784969
21
208.956663
0
LINE
8
Layer 1
10
23.784969
20
208.956663
11
24.038718
21
209.140296
0
LINE
8
Layer 1
10
24.038718
20
209.140296
11
24.179044
21
209.259704
0
LINE
8
Layer 1
10
24.179044
20
209.259704
11
24.271049
21
209.338264
0
LINE
8
Layer 1
10
24.271049
20
209.338264
11
24.414519
21
209.472994
0
LINE
8
Layer 1
10
24.414519
20
209.472994
11
24.489934
21
209.548607
0
LINE
8
Layer 1
10
24.489934
20
209.548607
11
24.591472
21
209.650929
0
LINE
8
Layer 1
10
24.591472
20
209.650929
11
23.145782
21
210.022333
0
LINE
8
Layer 1
10
23.145782
20
210.022333
11
21.640223
21
210.827841
0
LINE
8
Layer 1
10
21.640223
20
210.827841
11
20.390022
21
211.990833
0
LINE
8
Layer 1
10
20.390022
20
211.990833
11
19.231057
21
212.171392
0
LINE
8
Layer 1
10
19.231057
20
212.171392
11
18.128992
21
212.572955
0
LINE
8
Layer 1
10
18.128992
20
212.572955
11
17.276430
21
213.076721
0
LINE
8
Layer 1
10
17.276430
20
213.076721
11
16.012500
21
214.293438
0
LINE
8
Layer 1
10
16.012500
20
214.293438
11
15.171930
21
215.833361
0
LINE
8
Layer 1
10
15.171930
20
215.833361
11
14.845224
21
217.480751
0
LINE
8
Layer 1
10
14.845224
20
217.480751
11
14.962957
21
218.956036
0
LINE
8
Layer 1
10
14.962957
20
218.956036
11
15.465266
21
220.348161
0
LINE
8
Layer 1
10
15.465266
20
220.348161
11
16.269326
21
221.459593
0
LINE
8
Layer 1
10
16.269326
20
221.459593
11
17.278756
21
222.403761
0
LINE
8
Layer 1
10
17.278756
20
222.403761
11
16.679166
21
221.490066
0
LINE
8
Layer 1
10
16.679166
20
221.490066
11
15.951946
21
220.103651
0
LINE
8
Layer 1
10
15.951946
20
220.103651
11
15.683903
21
218.856853
0
LINE
8
Layer 1
10
15.683903
20
218.856853
11
15.744300
21
217.583000
0
LINE
8
Layer 1
10
15.744300
20
217.583000
11
15.744300
21
217.583000
0
LINE
8
Layer 1
10
25.900600
20
214.698000
11
26.069995
21
214.267496
0
LINE
8
Layer 1
10
26.069995
20
214.267496
11
26.311171
21
213.020766
0
LINE
8
Layer 1
10
26.311171
20
213.020766
11
26.228782
21
211.768136
0
LINE
8
Layer 1
10
26.228782
20
211.768136
11
25.813696
21
210.536516
0
LINE
8
Layer 1
10
25.813696
20
210.536516
11
25.581357
21
210.111902
0
LINE
8
Layer 1
10
25.581357
20
210.111902
11
25.868981
21
210.491344
0
LINE
8
Layer 1
10
25.868981
20
210.491344
11
26.483100
21
211.689000
0
LINE
8
Layer 1
10
26.483100
20
211.689000
11
26.765912
21
212.962440
0
LINE
8
Layer 1
10
26.765912
20
212.962440
11
26.708466
21
214.420700
0
LINE
8
Layer 1
10
26.708466
20
214.420700
11
26.708271
21
214.421877
0
LINE
8
Layer 1
10
26.708271
20
214.421877
11
26.390695
21
215.521697
0
LINE
8
Layer 1
10
26.390695
20
215.521697
11
25.900600
21
214.698000
0
LINE
8
Layer 1
10
25.900600
20
214.698000
11
25.900600
21
214.698000
0
LINE
8
Layer 1
10
15.473300
20
216.641000
11
15.657520
21
216.008205
0
LINE
8
Layer 1
10
15.657520
20
216.008205
11
16.423408
21
214.605306
0
LINE
8
Layer 1
10
16.423408
20
214.605306
11
17.575150
21
213.497065
0
LINE
8
Layer 1
10
17.575150
20
213.497065
11
18.717813
21
212.877686
0
LINE
8
Layer 1
10
18.717813
20
212.877686
11
19.975520
21
212.549838
0
LINE
8
Layer 1
10
19.975520
20
212.549838
11
19.472056
21
213.458376
0
LINE
8
Layer 1
10
19.472056
20
213.458376
11
18.603681
21
213.644758
0
LINE
8
Layer 1
10
18.603681
20
213.644758
11
17.908235
21
213.925803
0
LINE
8
Layer 1
10
17.908235
20
213.925803
11
17.112481
21
214.422960
0
LINE
8
Layer 1
10
17.112481
20
214.422960
11
16.425235
21
215.061773
0
LINE
8
Layer 1
10
16.425235
20
215.061773
11
15.556765
21
216.433413
0
LINE
8
Layer 1
10
15.556765
20
216.433413
11
15.473300
21
216.641000
0
LINE
8
Layer 1
10
15.473300
20
216.641000
11
15.473300
21
216.641000
0
LINE
8
Layer 1
10
25.802600
20
212.663000
11
25.032230
21
212.542209
0
LINE
8
Layer 1
10
25.032230
20
212.542209
11
24.006800
21
212.618000
0
LINE
8
Layer 1
10
24.006800
20
212.618000
11
23.551649
21
212.742121
0
LINE
8
Layer 1
10
23.551649
20
212.742121
11
22.791645
21
213.087583
0
LINE
8
Layer 1
10
22.791645
20
213.087583
11
22.116179
21
213.578190
0
LINE
8
Layer 1
10
22.116179
20
213.578190
11
21.741200
21
213.959000
0
LINE
8
Layer 1
10
21.741200
20
213.959000
11
21.248814
21
214.655167
0
LINE
8
Layer 1
10
21.248814
20
214.655167
11
20.903760
21
215.434930
0
LINE
8
Layer 1
10
20.903760
20
215.434930
11
20.689096
21
216.571490
0
LINE
8
Layer 1
10
20.689096
20
216.571490
11
20.682224
21
216.718593
0
LINE
8
Layer 1
10
20.682224
20
216.718593
11
20.638426
21
216.704256
0
LINE
8
Layer 1
10
20.638426
20
216.704256
11
19.786451
21
216.300264
0
LINE
8
Layer 1
10
19.786451
20
216.300264
11
19.421936
21
216.023345
0
LINE
8
Layer 1
10
19.421936
20
216.023345
11
19.500693
21
215.117556
0
LINE
8
Layer 1
10
19.500693
20
215.117556
11
19.871394
21
213.832716
0
LINE
8
Layer 1
10
19.871394
20
213.832716
11
19.884257
21
213.803848
0
LINE
8
Layer 1
10
19.884257
20
213.803848
11
20.719930
21
212.403328
0
LINE
8
Layer 1
10
20.719930
20
212.403328
11
20.769226
21
212.341659
0
LINE
8
Layer 1
10
20.769226
20
212.341659
11
21.928421
21
211.255624
0
LINE
8
Layer 1
10
21.928421
20
211.255624
11
23.328096
21
210.504549
0
LINE
8
Layer 1
10
23.328096
20
210.504549
11
24.912836
21
210.130805
0
LINE
8
Layer 1
10
24.912836
20
210.130805
11
24.972345
21
210.124715
0
LINE
8
Layer 1
10
24.972345
20
210.124715
11
25.099415
21
210.312472
0
LINE
8
Layer 1
10
25.099415
20
210.312472
11
25.481035
21
211.058790
0
LINE
8
Layer 1
10
25.481035
20
211.058790
11
25.721209
21
211.861872
0
LINE
8
Layer 1
10
25.721209
20
211.861872
11
25.802600
21
212.663000
0
LINE
8
Layer 1
10
25.802600
20
212.663000
11
25.802600
21
212.663000
0
LINE
8
Layer 1
10
52.244800
20
181.329000
11
52.166291
21
185.507760
0
LINE
8
Layer 1
10
52.166291
20
185.507760
11
51.879255
21
189.694920
0
LINE
8
Layer 1
10
51.879255
20
189.694920
11
51.186756
21
193.851490
0
LINE
8
Layer 1
10
51.186756
20
193.851490
11
50.020296
21
197.877500
0
LINE
8
Layer 1
10
50.020296
20
197.877500
11
49.522476
21
199.868580
0
LINE
8
Layer 1
10
49.522476
20
199.868580
11
49.287102
21
201.912790
0
LINE
8
Layer 1
10
49.287102
20
201.912790
11
49.193913
21
203.993530
0
LINE
8
Layer 1
10
49.193913
20
203.993530
11
49.087956
21
206.080500
0
LINE
8
Layer 1
10
49.087956
20
206.080500
11
48.970902
21
203.994260
0
LINE
8
Layer 1
10
48.970902
20
203.994260
11
48.892294
21
201.901980
0
LINE
8
Layer 1
10
48.892294
20
201.901980
11
49.001148
21
199.789920
0
LINE
8
Layer 1
10
49.001148
20
199.789920
11
49.414959
21
197.711240
0
LINE
8
Layer 1
10
49.414959
20
197.711240
11
50.443199
21
193.686360
0
LINE
8
Layer 1
10
50.443199
20
193.686360
11
51.080118
21
189.607520
0
LINE
8
Layer 1
10
51.080118
20
189.607520
11
51.407559
21
185.472310
0
LINE
8
Layer 1
10
51.407559
20
185.472310
11
51.619767
21
181.309850
0
LINE
8
Layer 1
10
51.619767
20
181.309850
11
51.894234
21
177.140520
0
LINE
8
Layer 1
10
51.894234
20
177.140520
11
52.342315
21
172.983900
0
LINE
8
Layer 1
10
52.342315
20
172.983900
11
52.286687
21
177.157950
0
LINE
8
Layer 1
10
52.286687
20
177.157950
11
52.244800
21
181.329000
0
LINE
8
Layer 1
10
50.546200
20
210.195000
11
50.039423
21
210.119114
0
LINE
8
Layer 1
10
50.039423
20
210.119114
11
49.586008
21
209.903729
0
LINE
8
Layer 1
10
49.586008
20
209.903729
11
49.213503
21
209.567252
0
LINE
8
Layer 1
10
49.213503
20
209.567252
11
48.949459
21
209.128092
0
LINE
8
Layer 1
10
48.949459
20
209.128092
11
48.825633
21
208.630851
0
LINE
8
Layer 1
10
48.825633
20
208.630851
11
48.851109
21
208.129525
0
LINE
8
Layer 1
10
48.851109
20
208.129525
11
49.019421
21
207.656612
0
LINE
8
Layer 1
10
49.019421
20
207.656612
11
49.324107
21
207.244607
0
LINE
8
Layer 1
10
49.324107
20
207.244607
11
49.736112
21
206.939921
0
LINE
8
Layer 1
10
49.736112
20
206.939921
11
50.209025
21
206.771609
0
LINE
8
Layer 1
10
50.209025
20
206.771609
11
50.710351
21
206.746133
0
LINE
8
Layer 1
10
50.710351
20
206.746133
11
51.207592
21
206.869959
0
LINE
8
Layer 1
10
51.207592
20
206.869959
11
51.646752
21
207.134003
0
LINE
8
Layer 1
10
51.646752
20
207.134003
11
51.983229
21
207.506508
0
LINE
8
Layer 1
10
51.983229
20
207.506508
11
52.198614
21
207.959923
0
LINE
8
Layer 1
10
52.198614
20
207.959923
11
52.274500
21
208.466700
0
LINE
8
Layer 1
10
52.274500
20
208.466700
11
52.138163
21
209.139092
0
LINE
8
Layer 1
10
52.138163
20
209.139092
11
51.767720
21
209.688220
0
LINE
8
Layer 1
10
51.767720
20
209.688220
11
51.218592
21
210.058663
0
LINE
8
Layer 1
10
51.218592
20
210.058663
11
50.546200
21
210.195000
0
LINE
8
Layer 1
10
50.546200
20
210.195000
11
50.546200
21
210.195000
0
LINE
8
Layer 1
10
50.546200
20
207.542840
11
50.032932
21
207.698537
0
LINE
8
Layer 1
10
50.032932
20
207.698537
11
49.692665
21
208.113150
0
LINE
8
Layer 1
10
49.692665
20
208.113150
11
49.640091
21
208.646931
0
LINE
8
Layer 1
10
49.640091
20
208.646931
11
49.892930
21
209.119961
0
LINE
8
Layer 1
10
49.892930
20
209.119961
11
50.365960
21
209.372802
0
LINE
8
Layer 1
10
50.365960
20
209.372802
11
50.899741
21
209.320230
0
LINE
8
Layer 1
10
50.899741
20
209.320230
11
51.314356
21
208.979965
0
LINE
8
Layer 1
10
51.314356
20
208.979965
11
51.470054
21
208.466697
0
LINE
8
Layer 1
10
51.470054
20
208.466697
11
51.199119
21
207.813824
0
LINE
8
Layer 1
10
51.199119
20
207.813824
11
50.546200
21
207.543000
0
LINE
8
Layer 1
10
50.546200
20
207.543000
11
50.546200
21
207.542840
0
LINE
8
Layer 1
10
59.285300
20
210.195000
11
58.778514
21
210.119139
0
LINE
8
Layer 1
10
58.778514
20
210.119139
11
58.325083
21
209.903773
0
LINE
8
Layer 1
10
58.325083
20
209.903773
11
57.952560
21
209.567309
0
LINE
8
Layer 1
10
57.952560
20
209.567309
11
57.688495
21
209.128154
0
LINE
8
Layer 1
10
57.688495
20
209.128154
11
57.564649
21
208.630912
0
LINE
8
Layer 1
10
57.564649
20
208.630912
11
57.590108
21
208.129581
0
LINE
8
Layer 1
10
57.590108
20
208.129581
11
57.758408
21
207.656657
0
LINE
8
Layer 1
10
57.758408
20
207.656657
11
58.063086
21
207.244639
0
LINE
8
Layer 1
10
58.063086
20
207.244639
11
58.475087
21
206.939940
0
LINE
8
Layer 1
10
58.475087
20
206.939940
11
58.948002
21
206.771615
0
LINE
8
Layer 1
10
58.948002
20
206.771615
11
59.449333
21
206.746131
0
LINE
8
Layer 1
10
59.449333
20
206.746131
11
59.946581
21
206.869950
0
LINE
8
Layer 1
10
59.946581
20
206.869950
11
60.385749
21
207.133993
0
LINE
8
Layer 1
10
60.385749
20
207.133993
11
60.722233
21
207.506499
0
LINE
8
Layer 1
10
60.722233
20
207.506499
11
60.937623
21
207.959918
0
LINE
8
Layer 1
10
60.937623
20
207.959918
11
61.013510
21
208.466700
0
LINE
8
Layer 1
10
61.013510
20
208.466700
11
60.877182
21
209.139070
0
LINE
8
Layer 1
10
60.877182
20
209.139070
11
60.506762
21
209.688188
0
LINE
8
Layer 1
10
60.506762
20
209.688188
11
59.957663
21
210.058637
0
LINE
8
Layer 1
10
59.957663
20
210.058637
11
59.285300
21
210.195000
0
LINE
8
Layer 1
10
59.285300
20
210.195000
11
59.285300
21
210.195000
0
LINE
8
Layer 1
10
59.285300
20
207.542840
11
58.772006
21
207.698490
0
LINE
8
Layer 1
10
58.772006
20
207.698490
11
58.431697
21
208.113084
0
LINE
8
Layer 1
10
58.431697
20
208.113084
11
58.379084
21
208.646872
0
LINE
8
Layer 1
10
58.379084
20
208.646872
11
58.631900
21
209.119928
0
LINE
8
Layer 1
10
58.631900
20
209.119928
11
59.104929
21
209.372795
0
LINE
8
Layer 1
10
59.104929
20
209.372795
11
59.638723
21
209.320239
0
LINE
8
Layer 1
10
59.638723
20
209.320239
11
60.053353
21
208.979975
0
LINE
8
Layer 1
10
60.053353
20
208.979975
11
60.209058
21
208.466697
0
LINE
8
Layer 1
10
60.209058
20
208.466697
11
59.938157
21
207.813857
0
LINE
8
Layer 1
10
59.938157
20
207.813857
11
59.285300
21
207.543000
0
LINE
8
Layer 1
10
59.285300
20
207.543000
11
59.285300
21
207.542840
0
LINE
8
Layer 1
10
55.318900
20
191.422000
11
54.326820
21
191.221710
0
LINE
8
Layer 1
10
54.326820
20
191.221710
11
53.516673
21
190.675500
0
LINE
8
Layer 1
10
53.516673
20
190.675500
11
52.970453
21
189.865361
0
LINE
8
Layer 1
10
52.970453
20
189.865361
11
52.770150
21
188.873283
0
LINE
8
Layer 1
10
52.770150
20
188.873283
11
52.970427
21
187.881200
0
LINE
8
Layer 1
10
52.970427
20
187.881200
11
53.516626
21
187.071047
0
LINE
8
Layer 1
10
53.516626
20
187.071047
11
54.326758
21
186.524816
0
LINE
8
Layer 1
10
54.326758
20
186.524816
11
55.318833
21
186.324500
0
LINE
8
Layer 1
10
55.318833
20
186.324500
11
56.310919
21
186.524764
0
LINE
8
Layer 1
10
56.310919
20
186.524764
11
57.121079
21
187.070953
0
LINE
8
Layer 1
10
57.121079
20
187.070953
11
57.667321
21
187.881077
0
LINE
8
Layer 1
10
57.667321
20
187.881077
11
57.867650
21
188.873150
0
LINE
8
Layer 1
10
57.867650
20
188.873150
11
57.666589
21
189.864747
0
LINE
8
Layer 1
10
57.666589
20
189.864747
11
57.120294
21
190.674573
0
LINE
8
Layer 1
10
57.120294
20
190.674573
11
56.310489
21
191.220900
0
LINE
8
Layer 1
10
56.310489
20
191.220900
11
55.318900
21
191.422000
0
LINE
8
Layer 1
10
55.318900
20
191.422000
11
55.318900
21
191.422000
0
LINE
8
Layer 1
10
55.318900
20
187.128940
11
54.807423
21
187.205531
0
LINE
8
Layer 1
10
54.807423
20
187.205531
11
54.349803
21
187.422916
0
LINE
8
Layer 1
10
54.349803
20
187.422916
11
53.973846
21
187.762517
0
LINE
8
Layer 1
10
53.973846
20
187.762517
11
53.707358
21
188.205755
0
LINE
8
Layer 1
10
53.707358
20
188.205755
11
53.582392
21
188.707610
0
LINE
8
Layer 1
10
53.582392
20
188.707610
11
53.608114
21
189.213585
0
LINE
8
Layer 1
10
53.608114
20
189.213585
11
53.777999
21
189.690881
0
LINE
8
Layer 1
10
53.777999
20
189.690881
11
54.085522
21
190.106699
0
LINE
8
Layer 1
10
54.085522
20
190.106699
11
54.501358
21
190.414198
0
LINE
8
Layer 1
10
54.501358
20
190.414198
11
54.978663
21
190.584056
0
LINE
8
Layer 1
10
54.978663
20
190.584056
11
55.484640
21
190.609749
0
LINE
8
Layer 1
10
55.484640
20
190.609749
11
55.986488
21
190.484754
0
LINE
8
Layer 1
10
55.986488
20
190.484754
11
56.429710
21
190.218240
0
LINE
8
Layer 1
10
56.429710
20
190.218240
11
56.769289
21
189.842264
0
LINE
8
Layer 1
10
56.769289
20
189.842264
11
56.986649
21
189.384632
0
LINE
8
Layer 1
10
56.986649
20
189.384632
11
57.063210
21
188.873150
0
LINE
8
Layer 1
10
57.063210
20
188.873150
11
56.925564
21
188.194581
0
LINE
8
Layer 1
10
56.925564
20
188.194581
11
56.551678
21
187.640419
0
LINE
8
Layer 1
10
56.551678
20
187.640419
11
55.997481
21
187.266584
0
LINE
8
Layer 1
10
55.997481
20
187.266584
11
55.318900
21
187.129000
0
LINE
8
Layer 1
10
55.318900
20
187.129000
11
55.318900
21
187.128940
0
LINE
8
Layer 1
10
55.318900
20
178.438000
11
56.066280
21
178.588884
0
LINE
8
Layer 1
10
56.066280
20
178.588884
11
56.676602
21
179.000365
0
LINE
8
Layer 1
10
56.676602
20
179.000365
11
57.088098
21
179.610677
0
LINE
8
Layer 1
10
57.088098
20
179.610677
11
57.239000
21
180.358053
0
LINE
8
Layer 1
10
57.239000
20
180.358053
11
57.088127
21
181.105435
0
LINE
8
Layer 1
10
57.088127
20
181.105435
11
56.676654
21
181.715763
0
LINE
8
Layer 1
10
56.676654
20
181.715763
11
56.066348
21
182.127268
0
LINE
8
Layer 1
10
56.066348
20
182.127268
11
55.318973
21
182.278180
0
LINE
8
Layer 1
10
55.318973
20
182.278180
11
54.571589
21
182.127317
0
LINE
8
Layer 1
10
54.571589
20
182.127317
11
53.961256
21
181.715853
0
LINE
8
Layer 1
10
53.961256
20
181.715853
11
53.549743
21
181.105552
0
LINE
8
Layer 1
10
53.549743
20
181.105552
11
53.398820
21
180.358180
0
LINE
8
Layer 1
10
53.398820
20
180.358180
11
53.550265
21
179.611150
0
LINE
8
Layer 1
10
53.550265
20
179.611150
11
53.961809
21
179.001060
0
LINE
8
Layer 1
10
53.961809
20
179.001060
11
54.571878
21
178.589484
0
LINE
8
Layer 1
10
54.571878
20
178.589484
11
55.318900
21
178.438000
0
LINE
8
Layer 1
10
55.318900
20
178.438000
11
55.318900
21
178.438000
0
LINE
8
Layer 1
10
55.318900
20
181.473720
11
55.938708
21
181.285689
0
LINE
8
Layer 1
10
55.938708
20
181.285689
11
56.349592
21
180.784997
0
LINE
8
Layer 1
10
56.349592
20
180.784997
11
56.413055
21
180.140412
0
LINE
8
Layer 1
10
56.413055
20
180.140412
11
56.107707
21
179.569202
0
LINE
8
Layer 1
10
56.107707
20
179.569202
11
55.536470
21
179.263905
0
LINE
8
Layer 1
10
55.536470
20
179.263905
11
54.891891
21
179.327426
0
LINE
8
Layer 1
10
54.891891
20
179.327426
11
54.391236
21
179.738355
0
LINE
8
Layer 1
10
54.391236
20
179.738355
11
54.203260
21
180.358180
0
LINE
8
Layer 1
10
54.203260
20
180.358180
11
54.291209
21
180.792280
0
LINE
8
Layer 1
10
54.291209
20
180.792280
11
54.530322
21
181.146810
0
LINE
8
Layer 1
10
54.530322
20
181.146810
11
54.884815
21
181.385981
0
LINE
8
Layer 1
10
54.884815
20
181.385981
11
55.318900
21
181.474000
0
LINE
8
Layer 1
10
55.318900
20
181.474000
11
55.318900
21
181.473720
0
LINE
8
Layer 1
10
55.318900
20
170.460000
11
54.633082
21
170.357304
0
LINE
8
Layer 1
10
54.633082
20
170.357304
11
54.019477
21
170.065824
0
LINE
8
Layer 1
10
54.019477
20
170.065824
11
53.515368
21
169.610472
0
LINE
8
Layer 1
10
53.515368
20
169.610472
11
53.158038
21
169.016158
0
LINE
8
Layer 1
10
53.158038
20
169.016158
11
52.990465
21
168.343245
0
LINE
8
Layer 1
10
52.990465
20
168.343245
11
53.024941
21
167.664803
0
LINE
8
Layer 1
10
53.024941
20
167.664803
11
53.252718
21
167.024812
0
LINE
8
Layer 1
10
53.252718
20
167.024812
11
53.665048
21
166.467248
0
LINE
8
Layer 1
10
53.665048
20
166.467248
11
54.222612
21
166.054918
0
LINE
8
Layer 1
10
54.222612
20
166.054918
11
54.862603
21
165.827141
0
LINE
8
Layer 1
10
54.862603
20
165.827141
11
55.541045
21
165.792665
0
LINE
8
Layer 1
10
55.541045
20
165.792665
11
56.213958
21
165.960238
0
LINE
8
Layer 1
10
56.213958
20
165.960238
11
56.808272
21
166.317568
0
LINE
8
Layer 1
10
56.808272
20
166.317568
11
57.263624
21
166.821677
0
LINE
8
Layer 1
10
57.263624
20
166.821677
11
57.555104
21
167.435282
0
LINE
8
Layer 1
10
57.555104
20
167.435282
11
57.657800
21
168.121100
0
LINE
8
Layer 1
10
57.657800
20
168.121100
11
57.473302
21
169.031048
0
LINE
8
Layer 1
10
57.473302
20
169.031048
11
56.971983
21
169.774183
0
LINE
8
Layer 1
10
56.971983
20
169.774183
11
56.228848
21
170.275502
0
LINE
8
Layer 1
10
56.228848
20
170.275502
11
55.318900
21
170.460000
0
LINE
8
Layer 1
10
55.318900
20
170.460000
11
55.318900
21
170.460000
0
LINE
8
Layer 1
10
55.318900
20
166.586640
11
54.466398
21
166.845245
0
LINE
8
Layer 1
10
54.466398
20
166.845245
11
53.901242
21
167.533892
0
LINE
8
Layer 1
10
53.901242
20
167.533892
11
53.813926
21
168.420466
0
LINE
8
Layer 1
10
53.813926
20
168.420466
11
54.233880
21
169.206134
0
LINE
8
Layer 1
10
54.233880
20
169.206134
11
55.019554
21
169.626078
0
LINE
8
Layer 1
10
55.019554
20
169.626078
11
55.906126
21
169.538750
0
LINE
8
Layer 1
10
55.906126
20
169.538750
11
56.594767
21
168.973586
0
LINE
8
Layer 1
10
56.594767
20
168.973586
11
56.853360
21
168.121080
0
LINE
8
Layer 1
10
56.853360
20
168.121080
11
56.732487
21
167.523906
0
LINE
8
Layer 1
10
56.732487
20
167.523906
11
56.403631
21
167.036167
0
LINE
8
Layer 1
10
56.403631
20
167.036167
11
55.916025
21
166.707114
0
LINE
8
Layer 1
10
55.916025
20
166.707114
11
55.318900
21
166.586000
0
LINE
8
Layer 1
10
55.318900
20
166.586000
11
55.318900
21
166.586640
0
LINE
8
Layer 1
10
87.737700
20
216.921000
11
87.509018
21
219.361909
0
LINE
8
Layer 1
10
87.509018
20
219.361909
11
87.129800
21
221.784000
0
LINE
8
Layer 1
10
87.129800
20
221.784000
11
86.588594
21
224.216563
0
LINE
8
Layer 1
10
86.588594
20
224.216563
11
85.884740
21
226.607140
0
LINE
8
Layer 1
10
85.884740
20
226.607140
11
85.480748
21
227.751550
0
LINE
8
Layer 1
10
85.480748
20
227.751550
11
85.429101
21
227.892173
0
LINE
8
Layer 1
10
85.429101
20
227.892173
11
85.236829
21
228.372168
0
LINE
8
Layer 1
10
85.236829
20
228.372168
11
85.156114
21
228.533413
0
LINE
8
Layer 1
10
85.156114
20
228.533413
11
84.982008
21
228.580352
0
LINE
8
Layer 1
10
84.982008
20
228.580352
11
84.616708
21
228.631612
0
LINE
8
Layer 1
10
84.616708
20
228.631612
11
84.867214
21
229.057795
0
LINE
8
Layer 1
10
84.867214
20
229.057795
11
84.915132
21
229.201951
0
LINE
8
Layer 1
10
84.915132
20
229.201951
11
84.856018
21
229.341589
0
LINE
8
Layer 1
10
84.856018
20
229.341589
11
84.756148
21
229.546237
0
LINE
8
Layer 1
10
84.756148
20
229.546237
11
84.671600
21
229.716318
0
LINE
8
Layer 1
10
84.671600
20
229.716318
11
84.496905
21
230.080243
0
LINE
8
Layer 1
10
84.496905
20
230.080243
11
84.274288
21
230.556899
0
LINE
8
Layer 1
10
84.274288
20
230.556899
11
83.664276
21
231.721149
0
LINE
8
Layer 1
10
83.664276
20
231.721149
11
83.186500
21
232.589000
0
LINE
8
Layer 1
10
83.186500
20
232.589000
11
82.807758
21
232.212702
0
LINE
8
Layer 1
10
82.807758
20
232.212702
11
81.783966
21
231.419441
0
LINE
8
Layer 1
10
81.783966
20
231.419441
11
80.434313
21
230.596517
0
LINE
8
Layer 1
10
80.434313
20
230.596517
11
78.359438
21
229.525782
0
LINE
8
Layer 1
10
78.359438
20
229.525782
11
76.729528
21
228.880623
0
LINE
8
Layer 1
10
76.729528
20
228.880623
11
73.329583
21
227.675673
0
LINE
8
Layer 1
10
73.329583
20
227.675673
11
69.506008
21
226.722603
0
LINE
8
Layer 1
10
69.506008
20
226.722603
11
65.850548
21
226.250660
0
LINE
8
Layer 1
10
65.850548
20
226.250660
11
64.187648
21
226.122509
0
LINE
8
Layer 1
10
64.187648
20
226.122509
11
64.187700
21
227.330000
0
LINE
8
Layer 1
10
64.187700
20
227.330000
11
59.907300
21
231.040000
0
LINE
8
Layer 1
10
59.907300
20
231.040000
11
49.925700
21
231.040000
0
LINE
8
Layer 1
10
49.925700
20
231.040000
11
45.643200
21
227.330000
0
LINE
8
Layer 1
10
45.643200
20
227.330000
11
45.643200
21
225.807000
0
LINE
8
Layer 1
10
45.643200
20
225.807000
11
38.666134
21
226.284562
0
LINE
8
Layer 1
10
38.666134
20
226.284562
11
29.012750
21
227.244750
0
LINE
8
Layer 1
10
29.012750
20
227.244750
11
24.121210
21
227.889656
0
LINE
8
Layer 1
10
24.121210
20
227.889656
11
19.687116
21
228.635812
0
LINE
8
Layer 1
10
19.687116
20
228.635812
11
16.085976
21
229.476750
0
LINE
8
Layer 1
10
16.085976
20
229.476750
11
14.715111
21
229.930740
0
LINE
8
Layer 1
10
14.715111
20
229.930740
11
13.693300
21
230.406000
0
LINE
8
Layer 1
10
13.693300
20
230.406000
11
12.622333
21
231.204752
0
LINE
8
Layer 1
10
12.622333
20
231.204752
11
12.071550
21
232.054180
0
LINE
8
Layer 1
10
12.071550
20
232.054180
11
11.885500
21
232.619000
0
LINE
8
Layer 1
10
11.885500
20
232.619000
11
11.430600
21
232.236000
0
LINE
8
Layer 1
10
11.430600
20
232.236000
11
9.447233
21
230.341125
0
LINE
8
Layer 1
10
9.447233
20
230.341125
11
7.626936
21
228.140812
0
LINE
8
Layer 1
10
7.626936
20
228.140812
11
5.981373
21
225.659531
0
LINE
8
Layer 1
10
5.981373
20
225.659531
11
4.522205
21
222.921750
0
LINE
8
Layer 1
10
4.522205
20
222.921750
11
3.261096
21
219.951938
0
LINE
8
Layer 1
10
3.261096
20
219.951938
11
2.209708
21
216.774563
0
LINE
8
Layer 1
10
2.209708
20
216.774563
11
1.379702
21
213.414094
0
LINE
8
Layer 1
10
1.379702
20
213.414094
11
0.782743
21
209.895000
0
LINE
8
Layer 1
10
0.782743
20
209.895000
11
0.740714
21
209.579000
0
LINE
8
Layer 1
10
0.740714
20
209.579000
11
1.039042
21
209.466266
0
LINE
8
Layer 1
10
1.039042
20
209.466266
11
2.578602
21
208.923423
0
LINE
8
Layer 1
10
2.578602
20
208.923423
11
1.596221
21
208.693638
0
LINE
8
Layer 1
10
1.596221
20
208.693638
11
0.000000
21
208.333000
0
LINE
8
Layer 1
10
0.000000
20
208.333000
11
1.581400
21
207.912512
0
LINE
8
Layer 1
10
1.581400
20
207.912512
11
1.784572
21
207.857126
0
LINE
8
Layer 1
10
1.784572
20
207.857126
11
0.846466
21
207.547407
0
LINE
8
Layer 1
10
0.846466
20
207.547407
11
1.922926
21
207.148325
0
LINE
8
Layer 1
10
1.922926
20
207.148325
11
3.374796
21
206.535565
0
LINE
8
Layer 1
10
3.374796
20
206.535565
11
0.759856
21
206.189118
0
LINE
8
Layer 1
10
0.759856
20
206.189118
11
0.429713
21
206.143751
0
LINE
8
Layer 1
10
0.429713
20
206.143751
11
0.412822
21
205.811054
0
LINE
8
Layer 1
10
0.412822
20
205.811054
11
0.423010
21
200.395912
0
LINE
8
Layer 1
10
0.423010
20
200.395912
11
0.975939
21
195.050685
0
LINE
8
Layer 1
10
0.975939
20
195.050685
11
2.057466
21
189.813667
0
LINE
8
Layer 1
10
2.057466
20
189.813667
11
3.653445
21
184.723153
0
LINE
8
Layer 1
10
3.653445
20
184.723153
11
5.749732
21
179.817435
0
LINE
8
Layer 1
10
5.749732
20
179.817435
11
8.332184
21
175.134807
0
LINE
8
Layer 1
10
8.332184
20
175.134807
11
11.386654
21
170.713564
0
LINE
8
Layer 1
10
11.386654
20
170.713564
11
14.899000
21
166.592000
0
LINE
8
Layer 1
10
14.899000
20
166.592000
11
15.061128
21
166.418775
0
LINE
8
Layer 1
10
15.061128
20
166.418775
11
15.291111
21
166.476712
0
LINE
8
Layer 1
10
15.291111
20
166.476712
11
17.070671
21
167.011898
0
LINE
8
Layer 1
10
17.070671
20
167.011898
11
16.715385
21
166.069186
0
LINE
8
Layer 1
10
16.715385
20
166.069186
11
16.467433
21
165.357834
0
LINE
8
Layer 1
10
16.467433
20
165.357834
11
17.102094
21
165.428734
0
LINE
8
Layer 1
10
17.102094
20
165.428734
11
17.276200
21
165.412433
0
LINE
8
Layer 1
10
17.276200
20
165.412433
11
17.271193
21
165.375312
0
LINE
8
Layer 1
10
17.271193
20
165.375312
11
17.186448
21
164.466580
0
LINE
8
Layer 1
10
17.186448
20
164.466580
11
17.178887
21
164.276467
0
LINE
8
Layer 1
10
17.178887
20
164.276467
11
17.321079
21
164.149986
0
LINE
8
Layer 1
10
17.321079
20
164.149986
11
19.248688
21
162.465947
0
LINE
8
Layer 1
10
19.248688
20
162.465947
11
22.611939
21
159.679966
0
LINE
8
Layer 1
10
22.611939
20
159.679966
11
23.091739
21
159.310537
0
LINE
8
Layer 1
10
23.091739
20
159.310537
11
23.246208
21
159.896196
0
LINE
8
Layer 1
10
23.246208
20
159.896196
11
23.864778
21
161.943811
0
LINE
8
Layer 1
10
23.864778
20
161.943811
11
24.664598
21
163.927656
0
LINE
8
Layer 1
10
24.664598
20
163.927656
11
24.934546
21
164.487584
0
LINE
8
Layer 1
10
24.934546
20
164.487584
11
25.013596
21
164.621332
0
LINE
8
Layer 1
10
25.013596
20
164.621332
11
25.206458
21
165.131965
0
LINE
8
Layer 1
10
25.206458
20
165.131965
11
25.189079
21
166.069571
0
LINE
8
Layer 1
10
25.189079
20
166.069571
11
25.610154
21
165.609998
0
LINE
8
Layer 1
10
25.610154
20
165.609998
11
25.776699
21
166.365543
0
LINE
8
Layer 1
10
25.776699
20
166.365543
11
25.869008
21
167.145040
0
LINE
8
Layer 1
10
25.869008
20
167.145040
11
25.999220
21
166.272246
0
LINE
8
Layer 1
10
25.999220
20
166.272246
11
26.575941
21
167.252863
0
LINE
8
Layer 1
10
26.575941
20
167.252863
11
29.201001
21
169.911303
0
LINE
8
Layer 1
10
29.201001
20
169.911303
11
29.505123
21
170.187243
0
LINE
8
Layer 1
10
29.505123
20
170.187243
11
29.223096
21
170.485571
0
LINE
8
Layer 1
10
29.223096
20
170.485571
11
27.753256
21
172.167521
0
LINE
8
Layer 1
10
27.753256
20
172.167521
11
25.211566
21
175.776531
0
LINE
8
Layer 1
10
25.211566
20
175.776531
11
24.042691
21
177.814341
0
LINE
8
Layer 1
10
24.042691
20
177.814341
11
22.929464
21
180.062078
0
LINE
8
Layer 1
10
22.929464
20
180.062078
11
21.938414
21
182.488155
0
LINE
8
Layer 1
10
21.938414
20
182.488155
11
21.136071
21
185.060986
0
LINE
8
Layer 1
10
21.136071
20
185.060986
11
20.588965
21
187.748986
0
LINE
8
Layer 1
10
20.588965
20
187.748986
11
20.363624
21
190.520568
0
LINE
8
Layer 1
10
20.363624
20
190.520568
11
20.526578
21
193.344145
0
LINE
8
Layer 1
10
20.526578
20
193.344145
11
21.144356
21
196.188131
0
LINE
8
Layer 1
10
21.144356
20
196.188131
11
21.812658
21
197.916029
0
LINE
8
Layer 1
10
21.812658
20
197.916029
11
22.733030
21
199.545524
0
LINE
8
Layer 1
10
22.733030
20
199.545524
11
23.904122
21
201.075419
0
LINE
8
Layer 1
10
23.904122
20
201.075419
11
25.324582
21
202.504516
0
LINE
8
Layer 1
10
25.324582
20
202.504516
11
26.993061
21
203.831620
0
LINE
8
Layer 1
10
26.993061
20
203.831620
11
28.908207
21
205.055533
0
LINE
8
Layer 1
10
28.908207
20
205.055533
11
31.068670
21
206.175059
0
LINE
8
Layer 1
10
31.068670
20
206.175059
11
33.473100
21
207.189000
0
LINE
8
Layer 1
10
33.473100
20
207.189000
11
36.661868
21
208.179986
0
LINE
8
Layer 1
10
36.661868
20
208.179986
11
39.757384
21
208.763304
0
LINE
8
Layer 1
10
39.757384
20
208.763304
11
42.753283
21
209.042779
0
LINE
8
Layer 1
10
42.753283
20
209.042779
11
45.643200
21
209.122240
0
LINE
8
Layer 1
10
45.643200
20
209.122240
11
45.643200
21
209.014000
0
LINE
8
Layer 1
10
45.643200
20
209.014000
11
47.084960
21
207.572390
0
LINE
8
Layer 1
10
47.084960
20
207.572390
11
47.052849
21
207.389987
0
LINE
8
Layer 1
10
47.052849
20
207.389987
11
47.047743
21
207.326549
0
LINE
8
Layer 1
10
47.047743
20
207.326549
11
46.992654
21
198.094469
0
LINE
8
Layer 1
10
46.992654
20
198.094469
11
47.045288
21
187.719969
0
LINE
8
Layer 1
10
47.045288
20
187.719969
11
47.258970
21
174.746269
0
LINE
8
Layer 1
10
47.258970
20
174.746269
11
47.423918
21
165.192096
0
LINE
8
Layer 1
10
47.423918
20
165.192096
11
47.471680
21
155.768207
0
LINE
8
Layer 1
10
47.471680
20
155.768207
11
47.297925
21
145.936749
0
LINE
8
Layer 1
10
47.297925
20
145.936749
11
46.798319
21
135.159869
0
LINE
8
Layer 1
10
46.798319
20
135.159869
11
46.456671
21
131.115403
0
LINE
8
Layer 1
10
46.456671
20
131.115403
11
45.984433
21
127.455444
0
LINE
8
Layer 1
10
45.984433
20
127.455444
11
44.835809
21
120.848569
0
LINE
8
Layer 1
10
44.835809
20
120.848569
11
43.530486
21
113.075312
0
LINE
8
Layer 1
10
43.530486
20
113.075312
11
43.093541
21
108.819104
0
LINE
8
Layer 1
10
43.093541
20
108.819104
11
42.899429
21
104.033969
0
LINE
8
Layer 1
10
42.899429
20
104.033969
11
42.895255
21
103.361945
0
LINE
8
Layer 1
10
42.895255
20
103.361945
11
42.308515
21
102.818363
0
LINE
8
Layer 1
10
42.308515
20
102.818363
11
42.169464
21
102.510019
0
LINE
8
Layer 1
10
42.169464
20
102.510019
11
41.997260
21
101.230364
0
LINE
8
Layer 1
10
41.997260
20
101.230364
11
42.094833
21
99.961759
0
LINE
8
Layer 1
10
42.094833
20
99.961759
11
42.141281
21
99.531255
0
LINE
8
Layer 1
10
42.141281
20
99.531255
11
42.166224
21
98.993904
0
LINE
8
Layer 1
10
42.166224
20
98.993904
11
42.329396
21
97.493732
0
LINE
8
Layer 1
10
42.329396
20
97.493732
11
42.637950
21
96.815100
0
LINE
8
Layer 1
10
42.637950
20
96.815100
11
43.214844
21
96.351864
0
LINE
8
Layer 1
10
43.214844
20
96.351864
11
42.853620
21
96.104892
0
LINE
8
Layer 1
10
42.853620
20
96.104892
11
42.476519
21
95.397416
0
LINE
8
Layer 1
10
42.476519
20
95.397416
11
42.329617
21
94.401806
0
LINE
8
Layer 1
10
42.329617
20
94.401806
11
42.463965
21
91.793562
0
LINE
8
Layer 1
10
42.463965
20
91.793562
11
42.553328
21
90.624402
0
LINE
8
Layer 1
10
42.553328
20
90.624402
11
42.740103
21
89.700348
0
LINE
8
Layer 1
10
42.740103
20
89.700348
11
43.060036
21
89.342255
0
LINE
8
Layer 1
10
43.060036
20
89.342255
11
43.480916
21
89.111068
0
LINE
8
Layer 1
10
43.480916
20
89.111068
11
43.138581
21
88.906911
0
LINE
8
Layer 1
10
43.138581
20
88.906911
11
42.746724
21
88.376824
0
LINE
8
Layer 1
10
42.746724
20
88.376824
11
42.601113
21
87.755210
0
LINE
8
Layer 1
10
42.601113
20
87.755210
11
42.698061
21
86.499071
0
LINE
8
Layer 1
10
42.698061
20
86.499071
11
42.718381
21
86.364344
0
LINE
8
Layer 1
10
42.718381
20
86.364344
11
42.731645
21
86.181890
0
LINE
8
Layer 1
10
42.731645
20
86.181890
11
42.758739
21
85.804215
0
LINE
8
Layer 1
10
42.758739
20
85.804215
11
42.783975
21
85.022742
0
LINE
8
Layer 1
10
42.783975
20
85.022742
11
43.029079
21
82.625312
0
LINE
8
Layer 1
10
43.029079
20
82.625312
11
43.030651
21
82.504329
0
LINE
8
Layer 1
10
43.030651
20
82.504329
11
43.055594
21
82.480566
0
LINE
8
Layer 1
10
43.055594
20
82.480566
11
43.056576
21
82.479584
0
LINE
8
Layer 1
10
43.056576
20
82.479584
11
43.058551
21
82.477718
0
LINE
8
Layer 1
10
43.058551
20
82.477718
11
43.264938
21
81.786306
0
LINE
8
Layer 1
10
43.264938
20
81.786306
11
43.661295
21
81.183358
0
LINE
8
Layer 1
10
43.661295
20
81.183358
11
43.411085
21
80.735963
0
LINE
8
Layer 1
10
43.411085
20
80.735963
11
43.239085
21
79.795595
0
LINE
8
Layer 1
10
43.239085
20
79.795595
11
43.275864
21
78.840333
0
LINE
8
Layer 1
10
43.275864
20
78.840333
11
43.303655
21
78.449108
0
LINE
8
Layer 1
10
43.303655
20
78.449108
11
43.328891
21
77.668033
0
LINE
8
Layer 1
10
43.328891
20
77.668033
11
43.382784
21
76.425074
0
LINE
8
Layer 1
10
43.382784
20
76.425074
11
43.594617
21
75.199113
0
LINE
8
Layer 1
10
43.594617
20
75.199113
11
43.894847
21
74.721895
0
LINE
8
Layer 1
10
43.894847
20
74.721895
11
44.369703
21
74.417942
0
LINE
8
Layer 1
10
44.369703
20
74.417942
11
44.052325
21
74.058434
0
LINE
8
Layer 1
10
44.052325
20
74.058434
11
43.913175
21
73.750090
0
LINE
8
Layer 1
10
43.913175
20
73.750090
11
43.740996
21
72.470752
0
LINE
8
Layer 1
10
43.740996
20
72.470752
11
43.838446
21
71.202610
0
LINE
8
Layer 1
10
43.838446
20
71.202610
11
43.884992
21
70.771124
0
LINE
8
Layer 1
10
43.884992
20
70.771124
11
43.909935
21
70.233977
0
LINE
8
Layer 1
10
43.909935
20
70.233977
11
44.027755
21
68.923979
0
LINE
8
Layer 1
10
44.027755
20
68.923979
11
44.238960
21
68.293395
0
LINE
8
Layer 1
10
44.238960
20
68.293395
11
44.629635
21
67.790887
0
LINE
8
Layer 1
10
44.629635
20
67.790887
11
44.316086
21
67.536650
0
LINE
8
Layer 1
10
44.316086
20
67.536650
11
44.315889
21
67.536456
0
LINE
8
Layer 1
10
44.315889
20
67.536456
11
44.099656
21
67.162512
0
LINE
8
Layer 1
10
44.099656
20
67.162512
11
43.919189
21
65.652779
0
LINE
8
Layer 1
10
43.919189
20
65.652779
11
44.070000
21
64.181192
0
LINE
8
Layer 1
10
44.070000
20
64.181192
11
44.115858
21
63.850851
0
LINE
8
Layer 1
10
44.115858
20
63.850851
11
44.162989
21
63.095701
0
LINE
8
Layer 1
10
44.162989
20
63.095701
11
44.328639
21
61.598928
0
LINE
8
Layer 1
10
44.328639
20
61.598928
11
44.625557
21
60.925082
0
LINE
8
Layer 1
10
44.625557
20
60.925082
11
45.177089
21
60.410741
0
LINE
8
Layer 1
10
45.177089
20
60.410741
11
45.712617
21
60.131855
0
LINE
8
Layer 1
10
45.712617
20
60.131855
11
44.879252
21
59.660499
0
LINE
8
Layer 1
10
44.879252
20
59.660499
11
44.879055
21
59.660304
0
LINE
8
Layer 1
10
44.879055
20
59.660304
11
44.662822
21
59.286360
0
LINE
8
Layer 1
10
44.662822
20
59.286360
11
44.482293
21
57.777087
0
LINE
8
Layer 1
10
44.482293
20
57.777087
11
44.632968
21
56.305810
0
LINE
8
Layer 1
10
44.632968
20
56.305810
11
44.678925
21
55.974682
0
LINE
8
Layer 1
10
44.678925
20
55.974682
11
44.726158
21
55.219335
0
LINE
8
Layer 1
10
44.726158
20
55.219335
11
44.835939
21
53.969190
0
LINE
8
Layer 1
10
44.835939
20
53.969190
11
45.015427
21
53.372174
0
LINE
8
Layer 1
10
45.015427
20
53.372174
11
45.342209
21
52.857065
0
LINE
8
Layer 1
10
45.342209
20
52.857065
11
45.243514
21
48.666201
0
LINE
8
Layer 1
10
45.243514
20
48.666201
11
44.981797
21
44.483944
0
LINE
8
Layer 1
10
44.981797
20
44.483944
11
44.557449
21
40.315047
0
LINE
8
Layer 1
10
44.557449
20
40.315047
11
43.970859
21
36.164265
0
LINE
8
Layer 1
10
43.970859
20
36.164265
11
43.597469
21
35.740982
0
LINE
8
Layer 1
10
43.597469
20
35.740982
11
43.385587
21
35.159814
0
LINE
8
Layer 1
10
43.385587
20
35.159814
11
43.223908
21
33.975805
0
LINE
8
Layer 1
10
43.223908
20
33.975805
11
42.899464
21
31.554026
0
LINE
8
Layer 1
10
42.899464
20
31.554026
11
42.385045
21
29.165375
0
LINE
8
Layer 1
10
42.385045
20
29.165375
11
42.228405
21
28.149640
0
LINE
8
Layer 1
10
42.228405
20
28.149640
11
42.298573
21
27.171510
0
LINE
8
Layer 1
10
42.298573
20
27.171510
11
42.611366
21
26.245100
0
LINE
8
Layer 1
10
42.611366
20
26.245100
11
43.182604
21
25.384525
0
LINE
8
Layer 1
10
43.182604
20
25.384525
11
43.812194
21
24.873436
0
LINE
8
Layer 1
10
43.812194
20
24.873436
11
44.534654
21
24.497501
0
LINE
8
Layer 1
10
44.534654
20
24.497501
11
46.826240
21
22.991731
0
LINE
8
Layer 1
10
46.826240
20
22.991731
11
47.780355
21
22.097801
0
LINE
8
Layer 1
10
47.780355
20
22.097801
11
48.608504
21
21.110143
0
LINE
8
Layer 1
10
48.608504
20
21.110143
11
49.312051
21
20.028986
0
LINE
8
Layer 1
10
49.312051
20
20.028986
11
49.892362
21
18.854557
0
LINE
8
Layer 1
10
49.892362
20
18.854557
11
50.688734
21
16.226791
0
LINE
8
Layer 1
10
50.688734
20
16.226791
11
50.793041
21
14.927088
0
LINE
8
Layer 1
10
50.793041
20
14.927088
11
50.547634
21
13.776737
0
LINE
8
Layer 1
10
50.547634
20
13.776737
11
49.924352
21
12.806036
0
LINE
8
Layer 1
10
49.924352
20
12.806036
11
48.895034
21
12.045281
0
LINE
8
Layer 1
10
48.895034
20
12.045281
11
48.443665
21
11.899816
0
LINE
8
Layer 1
10
48.443665
20
11.899816
11
47.972357
21
11.952385
0
LINE
8
Layer 1
10
47.972357
20
11.952385
11
47.433789
21
12.348146
0
LINE
8
Layer 1
10
47.433789
20
12.348146
11
47.113398
21
12.951130
0
LINE
8
Layer 1
10
47.113398
20
12.951130
11
46.960807
21
14.319385
0
LINE
8
Layer 1
10
46.960807
20
14.319385
11
47.249631
21
15.445256
0
LINE
8
Layer 1
10
47.249631
20
15.445256
11
47.780721
21
16.445585
0
LINE
8
Layer 1
10
47.780721
20
16.445585
11
48.281283
21
17.203976
0
LINE
8
Layer 1
10
48.281283
20
17.203976
11
48.703446
21
17.991385
0
LINE
8
Layer 1
10
48.703446
20
17.991385
11
48.860366
21
18.891531
0
LINE
8
Layer 1
10
48.860366
20
18.891531
11
48.574414
21
19.759355
0
LINE
8
Layer 1
10
48.574414
20
19.759355
11
48.240171
21
20.087669
0
LINE
8
Layer 1
10
48.240171
20
20.087669
11
47.833362
21
20.263079
0
LINE
8
Layer 1
10
47.833362
20
20.263079
11
47.406051
21
20.249265
0
LINE
8
Layer 1
10
47.406051
20
20.249265
11
47.010304
21
20.009909
0
LINE
8
Layer 1
10
47.010304
20
20.009909
11
47.098082
21
19.695991
0
LINE
8
Layer 1
10
47.098082
20
19.695991
11
47.308926
21
19.391795
0
LINE
8
Layer 1
10
47.308926
20
19.391795
11
47.462585
21
19.033329
0
LINE
8
Layer 1
10
47.462585
20
19.033329
11
47.464475
21
18.643323
0
LINE
8
Layer 1
10
47.464475
20
18.643323
11
47.209653
21
18.128079
0
LINE
8
Layer 1
10
47.209653
20
18.128079
11
46.807129
21
17.683576
0
LINE
8
Layer 1
10
46.807129
20
17.683576
11
46.314148
21
16.768243
0
LINE
8
Layer 1
10
46.314148
20
16.768243
11
46.016038
21
15.710806
0
LINE
8
Layer 1
10
46.016038
20
15.710806
11
45.681376
21
14.718948
0
LINE
8
Layer 1
10
45.681376
20
14.718948
11
45.389276
21
15.354932
0
LINE
8
Layer 1
10
45.389276
20
15.354932
11
45.348867
21
15.696271
0
LINE
8
Layer 1
10
45.348867
20
15.696271
11
45.357656
21
16.057007
0
LINE
8
Layer 1
10
45.357656
20
16.057007
11
45.400029
21
16.418917
0
LINE
8
Layer 1
10
45.400029
20
16.418917
11
45.425265
21
16.594499
0
LINE
8
Layer 1
10
45.425265
20
16.594499
11
45.460224
21
16.769733
0
LINE
8
Layer 1
10
45.460224
20
16.769733
11
45.809897
21
18.235553
0
LINE
8
Layer 1
10
45.809897
20
18.235553
11
45.975262
21
19.844353
0
LINE
8
Layer 1
10
45.975262
20
19.844353
11
45.923316
21
20.278540
0
LINE
8
Layer 1
10
45.923316
20
20.278540
11
45.881434
21
20.493644
0
LINE
8
Layer 1
10
45.881434
20
20.493644
11
45.816867
21
20.708161
0
LINE
8
Layer 1
10
45.816867
20
20.708161
11
45.744494
21
20.920612
0
LINE
8
Layer 1
10
45.744494
20
20.920612
11
45.651745
21
21.125014
0
LINE
8
Layer 1
10
45.651745
20
21.125014
11
45.435168
21
21.521985
0
LINE
8
Layer 1
10
45.435168
20
21.521985
11
44.293508
21
22.790365
0
LINE
8
Layer 1
10
44.293508
20
22.790365
11
43.139868
21
23.892065
0
LINE
8
Layer 1
10
43.139868
20
23.892065
11
42.745857
21
24.564984
0
LINE
8
Layer 1
10
42.745857
20
24.564984
11
42.520134
21
25.311385
0
LINE
8
Layer 1
10
42.520134
20
25.311385
11
42.538135
21
24.480292
0
LINE
8
Layer 1
10
42.538135
20
24.480292
11
42.807761
21
23.693945
0
LINE
8
Layer 1
10
42.807761
20
23.693945
11
43.872871
21
22.370665
0
LINE
8
Layer 1
10
43.872871
20
22.370665
11
44.800509
21
21.171015
0
LINE
8
Layer 1
10
44.800509
20
21.171015
11
45.070068
21
20.535824
0
LINE
8
Layer 1
10
45.070068
20
20.535824
11
45.178427
21
19.854365
0
LINE
8
Layer 1
10
45.178427
20
19.854365
11
45.053426
21
18.369184
0
LINE
8
Layer 1
10
45.053426
20
18.369184
11
44.825353
21
16.883895
0
LINE
8
Layer 1
10
44.825353
20
16.883895
11
44.808609
21
16.480199
0
LINE
8
Layer 1
10
44.808609
20
16.480199
11
44.822014
21
16.068011
0
LINE
8
Layer 1
10
44.822014
20
16.068011
11
44.882994
21
15.656458
0
LINE
8
Layer 1
10
44.882994
20
15.656458
11
45.010112
21
15.239308
0
LINE
8
Layer 1
10
45.010112
20
15.239308
11
45.514118
21
14.556531
0
LINE
8
Layer 1
10
45.514118
20
14.556531
11
45.564495
21
14.505762
0
LINE
8
Layer 1
10
45.564495
20
14.505762
11
45.324644
21
14.249413
0
LINE
8
Layer 1
10
45.324644
20
14.249413
11
45.003043
21
14.209006
0
LINE
8
Layer 1
10
45.003043
20
14.209006
11
44.576755
21
14.645923
0
LINE
8
Layer 1
10
44.576755
20
14.645923
11
44.434275
21
15.232096
0
LINE
8
Layer 1
10
44.434275
20
15.232096
11
44.346729
21
16.208584
0
LINE
8
Layer 1
10
44.346729
20
16.208584
11
44.007893
21
17.247524
0
LINE
8
Layer 1
10
44.007893
20
17.247524
11
43.900507
21
17.864120
0
LINE
8
Layer 1
10
43.900507
20
17.864120
11
43.935858
21
18.412064
0
LINE
8
Layer 1
10
43.935858
20
18.412064
11
44.149399
21
19.549794
0
LINE
8
Layer 1
10
44.149399
20
19.549794
11
44.088773
21
20.468820
0
LINE
8
Layer 1
10
44.088773
20
20.468820
11
43.853660
21
20.832168
0
LINE
8
Layer 1
10
43.853660
20
20.832168
11
43.427390
21
21.108754
0
LINE
8
Layer 1
10
43.427390
20
21.108754
11
42.466033
21
21.348898
0
LINE
8
Layer 1
10
42.466033
20
21.348898
11
41.988025
21
21.285455
0
LINE
8
Layer 1
10
41.988025
20
21.285455
11
41.528320
21
21.042714
0
LINE
8
Layer 1
10
41.528320
20
21.042714
11
41.361107
21
20.230310
0
LINE
8
Layer 1
10
41.361107
20
20.230310
11
41.446336
21
19.441890
0
LINE
8
Layer 1
10
41.446336
20
19.441890
11
41.787465
21
17.828774
0
LINE
8
Layer 1
10
41.787465
20
17.828774
11
41.737336
21
17.258637
0
LINE
8
Layer 1
10
41.737336
20
17.258637
11
41.615749
21
16.992936
0
LINE
8
Layer 1
10
41.615749
20
16.992936
11
41.405864
21
16.840255
0
LINE
8
Layer 1
10
41.405864
20
16.840255
11
40.890075
21
16.951219
0
LINE
8
Layer 1
10
40.890075
20
16.951219
11
40.615561
21
16.755712
0
LINE
8
Layer 1
10
40.615561
20
16.755712
11
40.502827
21
16.433711
0
LINE
8
Layer 1
10
40.502827
20
16.433711
11
40.192905
21
14.642581
0
LINE
8
Layer 1
10
40.192905
20
14.642581
11
40.140474
21
12.825591
0
LINE
8
Layer 1
10
40.140474
20
12.825591
11
40.509935
21
10.772103
0
LINE
8
Layer 1
10
40.509935
20
10.772103
11
41.001581
21
8.665291
0
LINE
8
Layer 1
10
41.001581
20
8.665291
11
41.199803
21
6.435888
0
LINE
8
Layer 1
10
41.199803
20
6.435888
11
41.055376
21
4.259252
0
LINE
8
Layer 1
10
41.055376
20
4.259252
11
40.589812
21
2.119218
0
LINE
8
Layer 1
10
40.589812
20
2.119218
11
39.824621
21
-0.000379
0
LINE
8
Layer 1
10
39.824621
20
-0.000379
11
41.212971
21
1.020180
0
LINE
8
Layer 1
10
41.212971
20
1.020180
11
42.200790
21
2.274667
0
LINE
8
Layer 1
10
42.200790
20
2.274667
11
42.779452
21
3.759789
0
LINE
8
Layer 1
10
42.779452
20
3.759789
11
42.940331
21
5.472251
0
LINE
8
Layer 1
10
42.940331
20
5.472251
11
43.778806
21
4.741367
0
LINE
8
Layer 1
10
43.778806
20
4.741367
11
44.864941
21
4.166968
0
LINE
8
Layer 1
10
44.864941
20
4.166968
11
46.045981
21
3.785789
0
LINE
8
Layer 1
10
46.045981
20
3.785789
11
47.169171
21
3.634561
0
LINE
8
Layer 1
10
47.169171
20
3.634561
11
49.486877
21
3.799037
0
LINE
8
Layer 1
10
49.486877
20
3.799037
11
51.511321
21
4.401838
0
LINE
8
Layer 1
10
51.511321
20
4.401838
11
53.376961
21
5.433793
0
LINE
8
Layer 1
10
53.376961
20
5.433793
11
55.218251
21
6.885731
0
LINE
8
Layer 1
10
55.218251
20
6.885731
11
56.983669
21
8.788987
0
LINE
8
Layer 1
10
56.983669
20
8.788987
11
58.289390
21
10.881013
0
LINE
8
Layer 1
10
58.289390
20
10.881013
11
59.270089
21
13.153711
0
LINE
8
Layer 1
10
59.270089
20
13.153711
11
60.060441
21
15.598981
0
LINE
8
Layer 1
10
60.060441
20
15.598981
11
60.833165
21
19.222031
0
LINE
8
Layer 1
10
60.833165
20
19.222031
11
61.824433
21
25.796991
0
LINE
8
Layer 1
10
61.824433
20
25.796991
11
62.278015
21
28.192111
0
LINE
8
Layer 1
10
62.278015
20
28.192111
11
62.694638
21
30.421056
0
LINE
8
Layer 1
10
62.694638
20
30.421056
11
62.862865
21
31.891078
0
LINE
8
Layer 1
10
62.862865
20
31.891078
11
62.815558
21
33.069651
0
LINE
8
Layer 1
10
62.815558
20
33.069651
11
62.787669
21
33.174638
0
LINE
8
Layer 1
10
62.787669
20
33.174638
11
62.795083
21
33.173851
0
LINE
8
Layer 1
10
62.795083
20
33.173851
11
63.113031
21
37.104180
0
LINE
8
Layer 1
10
63.113031
20
37.104180
11
63.260719
21
41.231093
0
LINE
8
Layer 1
10
63.260719
20
41.231093
11
63.239271
21
45.629960
0
LINE
8
Layer 1
10
63.239271
20
45.629960
11
63.049811
21
50.376151
0
LINE
8
Layer 1
10
63.049811
20
50.376151
11
62.962365
21
50.371339
0
LINE
8
Layer 1
10
62.962365
20
50.371339
11
63.246551
21
51.215770
0
LINE
8
Layer 1
10
63.246551
20
51.215770
11
63.208550
21
52.325299
0
LINE
8
Layer 1
10
63.208550
20
52.325299
11
63.078632
21
53.745059
0
LINE
8
Layer 1
10
63.078632
20
53.745059
11
62.945070
21
55.236847
0
LINE
8
Layer 1
10
62.945070
20
55.236847
11
62.553662
21
56.621109
0
LINE
8
Layer 1
10
62.553662
20
56.621109
11
62.174984
21
57.184246
0
LINE
8
Layer 1
10
62.174984
20
57.184246
11
61.640361
21
57.602217
0
LINE
8
Layer 1
10
61.640361
20
57.602217
11
62.196510
21
57.979201
0
LINE
8
Layer 1
10
62.196510
20
57.979201
11
62.653713
21
58.897289
0
LINE
8
Layer 1
10
62.653713
20
58.897289
11
62.645378
21
60.201441
0
LINE
8
Layer 1
10
62.645378
20
60.201441
11
62.515460
21
61.621201
0
LINE
8
Layer 1
10
62.515460
20
61.621201
11
62.386197
21
63.075012
0
LINE
8
Layer 1
10
62.386197
20
63.075012
11
62.018281
21
64.430571
0
LINE
8
Layer 1
10
62.018281
20
64.430571
11
61.850850
21
66.048201
0
LINE
8
Layer 1
10
61.850850
20
66.048201
11
61.670698
21
67.539719
0
LINE
8
Layer 1
10
61.670698
20
67.539719
11
61.457322
21
68.159686
0
LINE
8
Layer 1
10
61.457322
20
68.159686
11
61.093835
21
68.665501
0
LINE
8
Layer 1
10
61.093835
20
68.665501
11
61.518079
21
69.509214
0
LINE
8
Layer 1
10
61.518079
20
69.509214
11
61.652883
21
70.771181
0
LINE
8
Layer 1
10
61.652883
20
70.771181
11
61.668495
21
71.657525
0
LINE
8
Layer 1
10
61.668495
20
71.657525
11
61.646302
21
73.371366
0
LINE
8
Layer 1
10
61.646302
20
73.371366
11
61.472956
21
74.182875
0
LINE
8
Layer 1
10
61.472956
20
74.182875
11
61.103261
21
74.895345
0
LINE
8
Layer 1
10
61.103261
20
74.895345
11
60.505233
21
75.424635
0
LINE
8
Layer 1
10
60.505233
20
75.424635
11
60.916031
21
75.996465
0
LINE
8
Layer 1
10
60.916031
20
75.996465
11
61.063900
21
76.758484
0
LINE
8
Layer 1
10
61.063900
20
76.758484
11
60.938291
21
78.468605
0
LINE
8
Layer 1
10
60.938291
20
78.468605
11
60.845688
21
79.401888
0
LINE
8
Layer 1
10
60.845688
20
79.401888
11
60.847063
21
79.502051
0
LINE
8
Layer 1
10
60.847063
20
79.502051
11
60.835011
21
80.500031
0
LINE
8
Layer 1
10
60.835011
20
80.500031
11
60.669718
21
81.484301
0
LINE
8
Layer 1
10
60.669718
20
81.484301
11
60.777834
21
81.594085
0
LINE
8
Layer 1
10
60.777834
20
81.594085
11
60.614823
21
81.757096
0
LINE
8
Layer 1
10
60.614823
20
81.757096
11
60.617868
21
81.975098
0
LINE
8
Layer 1
10
60.617868
20
81.975098
11
60.623761
21
82.353163
0
LINE
8
Layer 1
10
60.623761
20
82.353163
11
60.563380
21
85.594785
0
LINE
8
Layer 1
10
60.563380
20
85.594785
11
60.352394
21
86.590579
0
LINE
8
Layer 1
10
60.352394
20
86.590579
11
59.944811
21
87.144093
0
LINE
8
Layer 1
10
59.944811
20
87.144093
11
59.682178
21
87.240819
0
LINE
8
Layer 1
10
59.682178
20
87.240819
11
60.005113
21
88.065200
0
LINE
8
Layer 1
10
60.005113
20
88.065200
11
60.073256
21
89.299359
0
LINE
8
Layer 1
10
60.073256
20
89.299359
11
60.078951
21
89.706100
0
LINE
8
Layer 1
10
60.078951
20
89.706100
11
60.018573
21
92.947718
0
LINE
8
Layer 1
10
60.018573
20
92.947718
11
59.807587
21
93.943515
0
LINE
8
Layer 1
10
59.807587
20
93.943515
11
59.400004
21
94.497030
0
LINE
8
Layer 1
10
59.400004
20
94.497030
11
59.285602
21
94.553790
0
LINE
8
Layer 1
10
59.285602
20
94.553790
11
59.643336
21
95.055090
0
LINE
8
Layer 1
10
59.643336
20
95.055090
11
59.855211
21
95.645404
0
LINE
8
Layer 1
10
59.855211
20
95.645404
11
59.998723
21
97.281950
0
LINE
8
Layer 1
10
59.998723
20
97.281950
11
60.035254
21
98.470350
0
LINE
8
Layer 1
10
60.035254
20
98.470350
11
60.076313
21
100.506615
0
LINE
8
Layer 1
10
60.076313
20
100.506615
11
59.899150
21
102.156150
0
LINE
8
Layer 1
10
59.899150
20
102.156150
11
59.620509
21
103.212280
0
LINE
8
Layer 1
10
59.620509
20
103.212280
11
60.116141
21
108.817278
0
LINE
8
Layer 1
10
60.116141
20
108.817278
11
61.064919
21
114.363580
0
LINE
8
Layer 1
10
61.064919
20
114.363580
11
61.743869
21
117.828716
0
LINE
8
Layer 1
10
61.743869
20
117.828716
11
62.248654
21
121.164056
0
LINE
8
Layer 1
10
62.248654
20
121.164056
11
62.835065
21
127.544011
0
LINE
8
Layer 1
10
62.835065
20
127.544011
11
63.022831
21
133.700776
0
LINE
8
Layer 1
10
63.022831
20
133.700776
11
63.010629
21
139.831680
0
LINE
8
Layer 1
10
63.010629
20
139.831680
11
63.076816
21
150.079680
0
LINE
8
Layer 1
10
63.076816
20
150.079680
11
63.214910
21
160.088674
0
LINE
8
Layer 1
10
63.214910
20
160.088674
11
63.165133
21
172.249005
0
LINE
8
Layer 1
10
63.165133
20
172.249005
11
62.877175
21
192.899580
0
LINE
8
Layer 1
10
62.877175
20
192.899580
11
62.839357
21
195.150500
0
LINE
8
Layer 1
10
62.839357
20
195.150500
11
62.821780
21
200.801260
0
LINE
8
Layer 1
10
62.821780
20
200.801260
11
62.825218
21
201.802100
0
LINE
8
Layer 1
10
62.825218
20
201.802100
11
62.826101
21
201.834310
0
LINE
8
Layer 1
10
62.826101
20
201.834310
11
62.825300
21
201.834000
0
LINE
8
Layer 1
10
62.825300
20
201.834000
11
62.825351
21
201.834590
0
LINE
8
Layer 1
10
62.825351
20
201.834590
11
62.825300
21
201.835000
0
LINE
8
Layer 1
10
62.825300
20
201.835000
11
62.785529
21
207.335320
0
LINE
8
Layer 1
10
62.785529
20
207.335320
11
62.780619
21
207.390116
0
LINE
8
Layer 1
10
62.780619
20
207.390116
11
62.748016
21
207.574689
0
LINE
8
Layer 1
10
62.748016
20
207.574689
11
64.187616
21
209.014139
0
LINE
8
Layer 1
10
64.187616
20
209.014139
11
64.187600
21
209.110000
0
LINE
8
Layer 1
10
64.187600
20
209.110000
11
66.420048
21
208.740510
0
LINE
8
Layer 1
10
66.420048
20
208.740510
11
68.803403
21
207.917685
0
LINE
8
Layer 1
10
68.803403
20
207.917685
11
71.213232
21
206.712174
0
LINE
8
Layer 1
10
71.213232
20
206.712174
11
73.525105
21
205.194625
0
LINE
8
Layer 1
10
73.525105
20
205.194625
11
75.614590
21
203.435685
0
LINE
8
Layer 1
10
75.614590
20
203.435685
11
77.357255
21
201.506002
0
LINE
8
Layer 1
10
77.357255
20
201.506002
11
78.628669
21
199.476225
0
LINE
8
Layer 1
10
78.628669
20
199.476225
11
79.048772
21
198.445878
0
LINE
8
Layer 1
10
79.048772
20
198.445878
11
79.304400
21
197.417000
0
LINE
8
Layer 1
10
79.304400
20
197.417000
11
79.358022
21
197.090390
0
LINE
8
Layer 1
10
79.358022
20
197.090390
11
79.689051
21
197.080176
0
LINE
8
Layer 1
10
79.689051
20
197.080176
11
82.706901
21
197.036381
0
LINE
8
Layer 1
10
82.706901
20
197.036381
11
82.920300
21
197.037000
0
LINE
8
Layer 1
10
82.920300
20
197.037000
11
83.040004
21
197.213758
0
LINE
8
Layer 1
10
83.040004
20
197.213758
11
84.325733
21
199.349382
0
LINE
8
Layer 1
10
84.325733
20
199.349382
11
85.393300
21
201.602000
0
LINE
8
Layer 1
10
85.393300
20
201.602000
11
86.392445
21
204.398874
0
LINE
8
Layer 1
10
86.392445
20
204.398874
11
87.113250
21
207.280060
0
LINE
8
Layer 1
10
87.113250
20
207.280060
11
87.154593
21
207.485297
0
LINE
8
Layer 1
10
87.154593
20
207.485297
11
87.010239
21
207.636915
0
LINE
8
Layer 1
10
87.010239
20
207.636915
11
86.345138
21
208.357106
0
LINE
8
Layer 1
10
86.345138
20
208.357106
11
86.068905
21
208.658578
0
LINE
8
Layer 1
10
86.068905
20
208.658578
11
87.328695
21
209.324955
0
LINE
8
Layer 1
10
87.328695
20
209.324955
11
87.475109
21
209.426493
0
LINE
8
Layer 1
10
87.475109
20
209.426493
11
87.498186
21
209.603251
0
LINE
8
Layer 1
10
87.498186
20
209.603251
11
87.632033
21
210.771621
0
LINE
8
Layer 1
10
87.632033
20
210.771621
11
87.646073
21
210.909100
0
LINE
8
Layer 1
10
87.646073
20
210.909100
11
87.681427
21
211.387720
0
LINE
8
Layer 1
10
87.681427
20
211.387720
11
87.673277
21
211.586870
0
LINE
8
Layer 1
10
87.673277
20
211.586870
11
87.509775
21
211.700975
0
LINE
8
Layer 1
10
87.509775
20
211.700975
11
87.067683
21
211.979077
0
LINE
8
Layer 1
10
87.067683
20
211.979077
11
87.150955
21
212.019153
0
LINE
8
Layer 1
10
87.150955
20
212.019153
11
87.529415
21
212.201017
0
LINE
8
Layer 1
10
87.529415
20
212.201017
11
87.731204
21
212.296269
0
LINE
8
Layer 1
10
87.731204
20
212.296269
11
87.757129
21
212.518002
0
LINE
8
Layer 1
10
87.757129
20
212.518002
11
87.792971
21
213.243694
0
LINE
8
Layer 1
10
87.792971
20
213.243694
11
87.813291
21
214.470004
0
LINE
8
Layer 1
10
87.813291
20
214.470004
11
87.737700
21
216.921000
0
LINE
8
Layer 1
10
87.737700
20
216.921000
11
87.737700
21
216.921000
0
LINE
8
Layer 1
10
23.935000
20
164.266000
11
23.209928
21
162.503610
0
LINE
8
Layer 1
10
23.209928
20
162.503610
11
22.628960
21
160.688610
0
LINE
8
Layer 1
10
22.628960
20
160.688610
11
17.999860
21
164.623050
0
LINE
8
Layer 1
10
17.999860
20
164.623050
11
18.068304
21
165.266254
0
LINE
8
Layer 1
10
18.068304
20
165.266254
11
18.130859
21
165.779051
0
LINE
8
Layer 1
10
18.130859
20
165.779051
11
18.196651
21
166.437376
0
LINE
8
Layer 1
10
18.196651
20
166.437376
11
17.617376
21
166.207001
0
LINE
8
Layer 1
10
17.617376
20
166.207001
11
18.311938
21
167.553501
0
LINE
8
Layer 1
10
18.311938
20
167.553501
11
19.708918
21
169.086781
0
LINE
8
Layer 1
10
19.708918
20
169.086781
11
17.840098
21
168.186690
0
LINE
8
Layer 1
10
17.840098
20
168.186690
11
15.322958
21
167.317040
0
LINE
8
Layer 1
10
15.322958
20
167.317040
11
11.919043
21
171.329601
0
LINE
8
Layer 1
10
11.919043
20
171.329601
11
8.956241
21
175.630188
0
LINE
8
Layer 1
10
8.956241
20
175.630188
11
6.448080
21
180.182278
0
LINE
8
Layer 1
10
6.448080
20
180.182278
11
4.408092
21
184.949349
0
LINE
8
Layer 1
10
4.408092
20
184.949349
11
2.849808
21
189.894879
0
LINE
8
Layer 1
10
2.849808
20
189.894879
11
1.786757
21
194.982346
0
LINE
8
Layer 1
10
1.786757
20
194.982346
11
1.232471
21
200.175227
0
LINE
8
Layer 1
10
1.232471
20
200.175227
11
1.200480
21
205.437000
0
LINE
8
Layer 1
10
1.200480
20
205.437000
11
4.934400
21
205.915033
0
LINE
8
Layer 1
10
4.934400
20
205.915033
11
6.539170
21
206.096112
0
LINE
8
Layer 1
10
6.539170
20
206.096112
11
5.036920
21
206.688840
0
LINE
8
Layer 1
10
5.036920
20
206.688840
11
3.732150
21
207.256233
0
LINE
8
Layer 1
10
3.732150
20
207.256233
11
3.214642
21
207.493864
0
LINE
8
Layer 1
10
3.214642
20
207.493864
11
4.281382
21
207.772358
0
LINE
8
Layer 1
10
4.281382
20
207.772358
11
3.194512
21
208.233509
0
LINE
8
Layer 1
10
3.194512
20
208.233509
11
3.168785
21
208.244310
0
LINE
8
Layer 1
10
3.168785
20
208.244310
11
4.138401
21
208.547744
0
LINE
8
Layer 1
10
4.138401
20
208.547744
11
5.394461
21
209.007512
0
LINE
8
Layer 1
10
5.394461
20
209.007512
11
4.093131
21
209.316827
0
LINE
8
Layer 1
10
4.093131
20
209.316827
11
1.623431
21
210.107331
0
LINE
8
Layer 1
10
1.623431
20
210.107331
11
2.202160
21
213.417731
0
LINE
8
Layer 1
10
2.202160
20
213.417731
11
2.990409
21
216.581167
0
LINE
8
Layer 1
10
2.990409
20
216.581167
11
3.978011
21
219.576228
0
LINE
8
Layer 1
10
3.978011
20
219.576228
11
5.154798
21
222.381499
0
LINE
8
Layer 1
10
5.154798
20
222.381499
11
6.510604
21
224.975568
0
LINE
8
Layer 1
10
6.510604
20
224.975568
11
8.035261
21
227.337022
0
LINE
8
Layer 1
10
8.035261
20
227.337022
11
9.718602
21
229.444447
0
LINE
8
Layer 1
10
9.718602
20
229.444447
11
11.550461
21
231.276431
0
LINE
8
Layer 1
10
11.550461
20
231.276431
11
12.321279
21
230.384442
0
LINE
8
Layer 1
10
12.321279
20
230.384442
11
13.288581
21
229.710551
0
LINE
8
Layer 1
10
13.288581
20
229.710551
11
15.307501
21
228.878462
0
LINE
8
Layer 1
10
15.307501
20
228.878462
11
13.245953
21
226.026358
0
LINE
8
Layer 1
10
13.245953
20
226.026358
11
11.455175
21
222.868210
0
LINE
8
Layer 1
10
11.455175
20
222.868210
11
9.946754
21
219.443494
0
LINE
8
Layer 1
10
9.946754
20
219.443494
11
8.732274
21
215.791683
0
LINE
8
Layer 1
10
8.732274
20
215.791683
11
7.823321
21
211.952253
0
LINE
8
Layer 1
10
7.823321
20
211.952253
11
7.231481
21
207.964679
0
LINE
8
Layer 1
10
7.231481
20
207.964679
11
6.968339
21
203.868436
0
LINE
8
Layer 1
10
6.968339
20
203.868436
11
7.045480
21
199.703000
0
LINE
8
Layer 1
10
7.045480
20
199.703000
11
7.546116
21
195.012300
0
LINE
8
Layer 1
10
7.546116
20
195.012300
11
8.481384
21
190.399101
0
LINE
8
Layer 1
10
8.481384
20
190.399101
11
9.843700
21
185.893502
0
LINE
8
Layer 1
10
9.843700
20
185.893502
11
11.625480
21
181.525600
0
LINE
8
Layer 1
10
11.625480
20
181.525600
11
14.103136
21
176.843976
0
LINE
8
Layer 1
10
14.103136
20
176.843976
11
17.020764
21
172.438333
0
LINE
8
Layer 1
10
17.020764
20
172.438333
11
20.355700
21
168.339499
0
LINE
8
Layer 1
10
20.355700
20
168.339499
11
24.085280
21
164.578300
0
LINE
8
Layer 1
10
24.085280
20
164.578300
11
23.935000
21
164.266000
0
LINE
8
Layer 1
10
23.935000
20
164.266000
11
23.935000
21
164.266000
0
LINE
8
Layer 1
10
45.643200
20
209.927000
11
42.692986
21
209.845687
0
LINE
8
Layer 1
10
42.692986
20
209.845687
11
39.630607
21
209.558856
0
LINE
8
Layer 1
10
39.630607
20
209.558856
11
36.460525
21
208.959627
0
LINE
8
Layer 1
10
36.460525
20
208.959627
11
33.187200
21
207.941120
0
LINE
8
Layer 1
10
33.187200
20
207.941120
11
30.694936
21
206.888532
0
LINE
8
Layer 1
10
30.694936
20
206.888532
11
28.454365
21
205.722794
0
LINE
8
Layer 1
10
28.454365
20
205.722794
11
26.466888
21
204.445168
0
LINE
8
Layer 1
10
26.466888
20
204.445168
11
24.733908
21
203.056917
0
LINE
8
Layer 1
10
24.733908
20
203.056917
11
23.256826
21
201.559304
0
LINE
8
Layer 1
10
23.256826
20
201.559304
11
22.037047
21
199.953592
0
LINE
8
Layer 1
10
22.037047
20
199.953592
11
21.075970
21
198.241043
0
LINE
8
Layer 1
10
21.075970
20
198.241043
11
20.375000
21
196.422920
0
LINE
8
Layer 1
10
20.375000
20
196.422920
11
19.732216
21
193.474532
0
LINE
8
Layer 1
10
19.732216
20
193.474532
11
19.558338
21
190.552341
0
LINE
8
Layer 1
10
19.558338
20
190.552341
11
19.784846
21
187.688270
0
LINE
8
Layer 1
10
19.784846
20
187.688270
11
20.343225
21
184.914240
0
LINE
8
Layer 1
10
20.343225
20
184.914240
11
21.164957
21
182.262175
0
LINE
8
Layer 1
10
21.164957
20
182.262175
11
22.181525
21
179.763999
0
LINE
8
Layer 1
10
22.181525
20
179.763999
11
23.324412
21
177.451633
0
LINE
8
Layer 1
10
23.324412
20
177.451633
11
24.525100
21
175.357000
0
LINE
8
Layer 1
10
24.525100
20
175.357000
11
27.127770
21
171.661590
0
LINE
8
Layer 1
10
27.127770
20
171.661590
11
28.360850
21
170.230630
0
LINE
8
Layer 1
10
28.360850
20
170.230630
11
26.335500
21
168.221090
0
LINE
8
Layer 1
10
26.335500
20
168.221090
11
26.144698
21
168.462672
0
LINE
8
Layer 1
10
26.144698
20
168.462672
11
25.971575
21
168.677725
0
LINE
8
Layer 1
10
25.971575
20
168.677725
11
25.523200
21
169.263000
0
LINE
8
Layer 1
10
25.523200
20
169.263000
11
25.273874
21
168.569521
0
LINE
8
Layer 1
10
25.273874
20
168.569521
11
25.072085
21
167.288421
0
LINE
8
Layer 1
10
25.072085
20
167.288421
11
25.060302
21
167.107342
0
LINE
8
Layer 1
10
25.060302
20
167.107342
11
24.918110
21
167.174706
0
LINE
8
Layer 1
10
24.918110
20
167.174706
11
24.271568
21
167.522528
0
LINE
8
Layer 1
10
24.271568
20
167.522528
11
24.345316
21
166.553894
0
LINE
8
Layer 1
10
24.345316
20
166.553894
11
24.414299
21
165.368534
0
LINE
8
Layer 1
10
24.414299
20
165.368534
11
22.144173
21
167.606712
0
LINE
8
Layer 1
10
22.144173
20
167.606712
11
20.083581
21
169.871998
0
LINE
8
Layer 1
10
20.083581
20
169.871998
11
18.222901
21
172.156034
0
LINE
8
Layer 1
10
18.222901
20
172.156034
11
16.552513
21
174.450459
0
LINE
8
Layer 1
10
16.552513
20
174.450459
11
13.744129
21
179.037038
0
LINE
8
Layer 1
10
13.744129
20
179.037038
11
11.581462
21
183.564859
0
LINE
8
Layer 1
10
11.581462
20
183.564859
11
9.987542
21
187.967045
0
LINE
8
Layer 1
10
9.987542
20
187.967045
11
8.885404
21
192.176721
0
LINE
8
Layer 1
10
8.885404
20
192.176721
11
8.198079
21
196.127009
0
LINE
8
Layer 1
10
8.198079
20
196.127009
11
7.848599
21
199.751034
0
LINE
8
Layer 1
10
7.848599
20
199.751034
11
7.773351
21
203.892993
0
LINE
8
Layer 1
10
7.773351
20
203.892993
11
8.039440
21
207.963342
0
LINE
8
Layer 1
10
8.039440
20
207.963342
11
8.635106
21
211.921873
0
LINE
8
Layer 1
10
8.635106
20
211.921873
11
9.548589
21
215.728379
0
LINE
8
Layer 1
10
9.548589
20
215.728379
11
10.768129
21
219.342652
0
LINE
8
Layer 1
10
10.768129
20
219.342652
11
12.281968
21
222.724485
0
LINE
8
Layer 1
10
12.281968
20
222.724485
11
14.078344
21
225.833670
0
LINE
8
Layer 1
10
14.078344
20
225.833670
11
16.145500
21
228.630000
0
LINE
8
Layer 1
10
16.145500
20
228.630000
11
19.336879
21
227.887627
0
LINE
8
Layer 1
10
19.336879
20
227.887627
11
23.141273
21
227.221766
0
LINE
8
Layer 1
10
23.141273
20
227.221766
11
31.646413
21
226.131625
0
LINE
8
Layer 1
10
31.646413
20
226.131625
11
39.775520
21
225.383672
0
LINE
8
Layer 1
10
39.775520
20
225.383672
11
45.643200
21
225.002000
0
LINE
8
Layer 1
10
45.643200
20
225.002000
11
45.643200
21
209.927000
0
LINE
8
Layer 1
10
42.413600
20
13.775100
11
42.144436
21
13.143682
0
LINE
8
Layer 1
10
42.144436
20
13.143682
11
41.996253
21
12.464938
0
LINE
8
Layer 1
10
41.996253
20
12.464938
11
41.948874
21
12.687360
0
LINE
8
Layer 1
10
41.948874
20
12.687360
11
41.735144
21
13.539236
0
LINE
8
Layer 1
10
41.735144
20
13.539236
11
41.638624
21
14.173208
0
LINE
8
Layer 1
10
41.638624
20
14.173208
11
41.784646
21
14.756804
0
LINE
8
Layer 1
10
41.784646
20
14.756804
11
41.843861
21
14.855395
0
LINE
8
Layer 1
10
41.843861
20
14.855395
11
42.078548
21
14.813895
0
LINE
8
Layer 1
10
42.078548
20
14.813895
11
42.230373
21
14.611174
0
LINE
8
Layer 1
10
42.230373
20
14.611174
11
42.413600
21
13.775100
0
LINE
8
Layer 1
10
42.413600
20
13.775100
11
42.413600
21
13.775100
0
LINE
8
Layer 1
10
62.706600
20
227.549000
11
56.161800
21
227.549000
0
LINE
8
Layer 1
10
56.161800
20
227.549000
11
59.734330
21
230.125150
0
LINE
8
Layer 1
10
59.734330
20
230.125150
11
62.706600
21
227.549000
0
LINE
8
Layer 1
10
58.511740
20
230.235330
11
54.916330
21
227.642680
0
LINE
8
Layer 1
10
54.916330
20
227.642680
11
51.321000
21
230.235000
0
LINE
8
Layer 1
10
51.321000
20
230.235000
11
58.511740
21
230.235330
0
LINE
8
Layer 1
10
50.098500
20
230.125000
11
53.670880
21
227.548800
0
LINE
8
Layer 1
10
53.670880
20
227.548800
11
47.124600
21
227.549000
0
LINE
8
Layer 1
10
47.124600
20
227.549000
11
50.098500
21
230.125000
0
LINE
8
Layer 1
10
43.703800
20
104.027000
11
43.896417
21
108.765193
0
LINE
8
Layer 1
10
43.896417
20
108.765193
11
44.330236
21
112.984746
0
LINE
8
Layer 1
10
44.330236
20
112.984746
11
45.626440
21
120.700800
0
LINE
8
Layer 1
10
45.626440
20
120.700800
11
46.781699
21
127.347716
0
LINE
8
Layer 1
10
46.781699
20
127.347716
11
47.256920
21
131.033721
0
LINE
8
Layer 1
10
47.256920
20
131.033721
11
47.601120
21
135.111300
0
LINE
8
Layer 1
10
47.601120
20
135.111300
11
48.101867
21
145.909509
0
LINE
8
Layer 1
10
48.101867
20
145.909509
11
48.276091
21
155.757600
0
LINE
8
Layer 1
10
48.276091
20
155.757600
11
48.228336
21
165.195291
0
LINE
8
Layer 1
10
48.228336
20
165.195291
11
48.063146
21
174.762300
0
LINE
8
Layer 1
10
48.063146
20
174.762300
11
47.849662
21
187.729500
0
LINE
8
Layer 1
10
47.849662
20
187.729500
11
47.785245
21
197.343180
0
LINE
8
Layer 1
10
47.785245
20
197.343180
11
48.046552
21
196.447407
0
LINE
8
Layer 1
10
48.046552
20
196.447407
11
48.585909
21
194.521877
0
LINE
8
Layer 1
10
48.585909
20
194.521877
11
48.653814
21
187.738637
0
LINE
8
Layer 1
10
48.653814
20
187.738637
11
48.866892
21
174.777037
0
LINE
8
Layer 1
10
48.866892
20
174.777037
11
49.032778
21
165.197756
0
LINE
8
Layer 1
10
49.032778
20
165.197756
11
49.080622
21
155.746537
0
LINE
8
Layer 1
10
49.080622
20
155.746537
11
48.905972
21
145.881693
0
LINE
8
Layer 1
10
48.905972
20
145.881693
11
48.404375
21
135.061537
0
LINE
8
Layer 1
10
48.404375
20
135.061537
11
48.057443
21
130.950655
0
LINE
8
Layer 1
10
48.057443
20
130.950655
11
47.579073
21
127.238540
0
LINE
8
Layer 1
10
47.579073
20
127.238540
11
46.417415
21
120.551237
0
LINE
8
Layer 1
10
46.417415
20
120.551237
11
45.130518
21
112.893451
0
LINE
8
Layer 1
10
45.130518
20
112.893451
11
44.699852
21
108.711027
0
LINE
8
Layer 1
10
44.699852
20
108.711027
11
44.508825
21
104.019937
0
LINE
8
Layer 1
10
44.508825
20
104.019937
11
44.507843
21
103.770512
0
LINE
8
Layer 1
10
44.507843
20
103.770512
11
43.701433
21
103.652919
0
LINE
8
Layer 1
10
43.701433
20
103.652919
11
43.703800
21
104.027000
0
LINE
8
Layer 1
10
43.703800
20
104.027000
11
43.703800
21
104.027000
0
LINE
8
Layer 1
10
54.915700
20
216.976000
11
53.959037
21
216.767935
0
LINE
8
Layer 1
10
53.959037
20
216.767935
11
53.129405
21
216.189341
0
LINE
8
Layer 1
10
53.129405
20
216.189341
11
52.477921
21
215.308619
0
LINE
8
Layer 1
10
52.477921
20
215.308619
11
52.055700
21
214.194170
0
LINE
8
Layer 1
10
52.055700
20
214.194170
11
51.006763
21
213.698222
0
LINE
8
Layer 1
10
51.006763
20
213.698222
11
50.033057
21
212.986993
0
LINE
8
Layer 1
10
50.033057
20
212.986993
11
49.155250
21
212.087414
0
LINE
8
Layer 1
10
49.155250
20
212.087414
11
48.394010
21
211.026420
0
LINE
8
Layer 1
10
48.394010
20
211.026420
11
48.234730
21
213.242080
0
LINE
8
Layer 1
10
48.234730
20
213.242080
11
48.370722
21
215.301438
0
LINE
8
Layer 1
10
48.370722
20
215.301438
11
48.760644
21
217.220725
0
LINE
8
Layer 1
10
48.760644
20
217.220725
11
49.377421
21
218.958484
0
LINE
8
Layer 1
10
49.377421
20
218.958484
11
50.193973
21
220.473254
0
LINE
8
Layer 1
10
50.193973
20
220.473254
11
51.183222
21
221.723577
0
LINE
8
Layer 1
10
51.183222
20
221.723577
11
52.318092
21
222.667995
0
LINE
8
Layer 1
10
52.318092
20
222.667995
11
53.571504
21
223.265049
0
LINE
8
Layer 1
10
53.571504
20
223.265049
11
54.916380
21
223.473280
0
LINE
8
Layer 1
10
54.916380
20
223.473280
11
56.260898
21
223.265051
0
LINE
8
Layer 1
10
56.260898
20
223.265051
11
57.513968
21
222.668002
0
LINE
8
Layer 1
10
57.513968
20
222.668002
11
58.648523
21
221.723590
0
LINE
8
Layer 1
10
58.648523
20
221.723590
11
59.637494
21
220.473273
0
LINE
8
Layer 1
10
59.637494
20
220.473273
11
60.453812
21
218.958506
0
LINE
8
Layer 1
10
60.453812
20
218.958506
11
61.070410
21
217.220747
0
LINE
8
Layer 1
10
61.070410
20
217.220747
11
61.460219
21
215.301452
0
LINE
8
Layer 1
10
61.460219
20
215.301452
11
61.596170
21
213.242080
0
LINE
8
Layer 1
10
61.596170
20
213.242080
11
61.437234
21
211.025380
0
LINE
8
Layer 1
10
61.437234
20
211.025380
11
60.676267
21
212.083878
0
LINE
8
Layer 1
10
60.676267
20
212.083878
11
59.798828
21
212.982006
0
LINE
8
Layer 1
10
59.798828
20
212.982006
11
58.825487
21
213.693049
0
LINE
8
Layer 1
10
58.825487
20
213.693049
11
57.776814
21
214.190290
0
LINE
8
Layer 1
10
57.776814
20
214.190290
11
57.354945
21
215.305919
0
LINE
8
Layer 1
10
57.354945
20
215.305919
11
56.703289
21
216.187911
0
LINE
8
Layer 1
10
56.703289
20
216.187911
11
55.873117
21
216.767520
0
LINE
8
Layer 1
10
55.873117
20
216.767520
11
54.915700
21
216.976000
0
LINE
8
Layer 1
10
54.915700
20
216.976000
11
54.915700
21
216.976000
0
LINE
8
Layer 1
10
57.114300
20
212.979000
11
56.941247
21
211.737439
0
LINE
8
Layer 1
10
56.941247
20
211.737439
11
56.469611
21
210.722492
0
LINE
8
Layer 1
10
56.469611
20
210.722492
11
55.770674
21
210.037640
0
LINE
8
Layer 1
10
55.770674
20
210.037640
11
54.915720
21
209.786360
0
LINE
8
Layer 1
10
54.915720
20
209.786360
11
54.060776
21
210.037569
0
LINE
8
Layer 1
10
54.060776
20
210.037569
11
53.361859
21
210.722305
0
LINE
8
Layer 1
10
53.361859
20
210.722305
11
52.890244
21
211.737228
0
LINE
8
Layer 1
10
52.890244
20
211.737228
11
52.717200
21
212.979000
0
LINE
8
Layer 1
10
52.717200
20
212.979000
11
52.890237
21
214.220773
0
LINE
8
Layer 1
10
52.890237
20
214.220773
11
53.361839
21
215.235700
0
LINE
8
Layer 1
10
53.361839
20
215.235700
11
54.060742
21
215.920439
0
LINE
8
Layer 1
10
54.060742
20
215.920439
11
54.915680
21
216.171650
0
LINE
8
Layer 1
10
54.915680
20
216.171650
11
55.770640
21
215.920298
0
LINE
8
Layer 1
10
55.770640
20
215.920298
11
56.469591
21
215.235325
0
LINE
8
Layer 1
10
56.469591
20
215.235325
11
56.941241
21
214.220352
0
LINE
8
Layer 1
10
56.941241
20
214.220352
11
57.114300
21
212.979000
0
LINE
8
Layer 1
10
57.114300
20
212.979000
11
57.114300
21
212.979000
0
LINE
8
Layer 1
10
51.923800
20
213.269000
11
51.912793
21
212.978969
0
LINE
8
Layer 1
10
51.912793
20
212.978969
11
52.149148
21
211.424620
0
LINE
8
Layer 1
10
52.149148
20
211.424620
11
52.793317
21
210.153931
0
LINE
8
Layer 1
10
52.793317
20
210.153931
11
53.747954
21
209.296490
0
LINE
8
Layer 1
10
53.747954
20
209.296490
11
54.311277
21
209.063231
0
LINE
8
Layer 1
10
54.311277
20
209.063231
11
54.915713
21
208.981879
0
LINE
8
Layer 1
10
54.915713
20
208.981879
11
55.520152
21
209.063232
0
LINE
8
Layer 1
10
55.520152
20
209.063232
11
56.083483
21
209.296492
0
LINE
8
Layer 1
10
56.083483
20
209.296492
11
57.038143
21
210.153940
0
LINE
8
Layer 1
10
57.038143
20
210.153940
11
57.682334
21
211.424637
0
LINE
8
Layer 1
10
57.682334
20
211.424637
11
57.918700
21
212.979000
0
LINE
8
Layer 1
10
57.918700
20
212.979000
11
57.907801
21
213.265007
0
LINE
8
Layer 1
10
57.907801
20
213.265007
11
59.199656
21
212.429492
0
LINE
8
Layer 1
10
59.199656
20
212.429492
11
60.400634
21
211.142360
0
LINE
8
Layer 1
10
60.400634
20
211.142360
11
61.373716
21
209.422834
0
LINE
8
Layer 1
10
61.373716
20
209.422834
11
61.981881
21
207.290137
0
LINE
8
Layer 1
10
61.981881
20
207.290137
11
62.020867
21
201.839207
0
LINE
8
Layer 1
10
62.020867
20
201.839207
11
61.923308
21
200.575024
0
LINE
8
Layer 1
10
61.923308
20
200.575024
11
61.687081
21
199.317576
0
LINE
8
Layer 1
10
61.687081
20
199.317576
11
60.991937
21
196.841567
0
LINE
8
Layer 1
10
60.991937
20
196.841567
11
60.869286
21
196.439344
0
LINE
8
Layer 1
10
60.869286
20
196.439344
11
60.832267
21
196.317969
0
LINE
8
Layer 1
10
60.832267
20
196.317969
11
60.360714
21
194.642109
0
LINE
8
Layer 1
10
60.360714
20
194.642109
11
59.800211
21
191.635802
0
LINE
8
Layer 1
10
59.800211
20
191.635802
11
59.538973
21
188.598584
0
LINE
8
Layer 1
10
59.538973
20
188.598584
11
59.514048
21
182.540509
0
LINE
8
Layer 1
10
59.514048
20
182.540509
11
59.548024
21
180.198469
0
LINE
8
Layer 1
10
59.548024
20
180.198469
11
59.550578
21
179.399521
0
LINE
8
Layer 1
10
59.550578
20
179.399521
11
59.509164
21
176.063775
0
LINE
8
Layer 1
10
59.509164
20
176.063775
11
59.306174
21
172.532271
0
LINE
8
Layer 1
10
59.306174
20
172.532271
11
58.551611
21
166.787241
0
LINE
8
Layer 1
10
58.551611
20
166.787241
11
58.008535
21
164.209641
0
LINE
8
Layer 1
10
58.008535
20
164.209641
11
57.547060
21
162.837720
0
LINE
8
Layer 1
10
57.547060
20
162.837720
11
56.906681
21
161.501391
0
LINE
8
Layer 1
10
56.906681
20
161.501391
11
56.389356
21
160.986290
0
LINE
8
Layer 1
10
56.389356
20
160.986290
11
55.696181
21
160.757239
0
LINE
8
Layer 1
10
55.696181
20
160.757239
11
54.795859
21
160.866326
0
LINE
8
Layer 1
10
54.795859
20
160.866326
11
54.044181
21
161.373733
0
LINE
8
Layer 1
10
54.044181
20
161.373733
11
53.424295
21
162.247888
0
LINE
8
Layer 1
10
53.424295
20
162.247888
11
52.949240
21
163.292814
0
LINE
8
Layer 1
10
52.949240
20
163.292814
11
52.285141
21
165.497503
0
LINE
8
Layer 1
10
52.285141
20
165.497503
11
52.273161
21
165.543068
0
LINE
8
Layer 1
10
52.273161
20
165.543068
11
51.413724
21
170.167058
0
LINE
8
Layer 1
10
51.413724
20
170.167058
11
50.994990
21
174.512120
0
LINE
8
Layer 1
10
50.994990
20
174.512120
11
50.782992
21
178.846278
0
LINE
8
Layer 1
10
50.782992
20
178.846278
11
50.773761
21
179.072724
0
LINE
8
Layer 1
10
50.773761
20
179.072724
11
50.676837
21
181.959774
0
LINE
8
Layer 1
10
50.676837
20
181.959774
11
50.373097
21
188.315554
0
LINE
8
Layer 1
10
50.373097
20
188.315554
11
50.007409
21
191.497698
0
LINE
8
Layer 1
10
50.007409
20
191.497698
11
49.386407
21
194.642174
0
LINE
8
Layer 1
10
49.386407
20
194.642174
11
48.966066
21
196.167024
0
LINE
8
Layer 1
10
48.966066
20
196.167024
11
48.967477
21
196.167416
0
LINE
8
Layer 1
10
48.967477
20
196.167416
11
48.816446
21
196.681193
0
LINE
8
Layer 1
10
48.816446
20
196.681193
11
48.147065
21
199.160570
0
LINE
8
Layer 1
10
48.147065
20
199.160570
11
47.837305
21
201.681483
0
LINE
8
Layer 1
10
47.837305
20
201.681483
11
47.837000
21
201.681000
0
LINE
8
Layer 1
10
47.837000
20
201.681000
11
47.837000
21
201.682000
0
LINE
8
Layer 1
10
47.837000
20
201.682000
11
47.837000
21
201.682000
0
LINE
8
Layer 1
10
47.837000
20
201.682000
11
47.852172
21
207.294460
0
LINE
8
Layer 1
10
47.852172
20
207.294460
11
48.461277
21
209.429428
0
LINE
8
Layer 1
10
48.461277
20
209.429428
11
49.434284
21
211.149682
0
LINE
8
Layer 1
10
49.434284
20
211.149682
11
50.634142
21
212.435960
0
LINE
8
Layer 1
10
50.634142
20
212.435960
11
51.923800
21
213.269000
0
LINE
8
Layer 1
10
51.923800
20
213.269000
11
51.923800
21
213.269000
0
LINE
8
Layer 1
10
59.429640
20
154.175100
11
59.606494
21
153.162370
0
LINE
8
Layer 1
10
59.606494
20
153.162370
11
59.707445
21
152.127350
0
LINE
8
Layer 1
10
59.707445
20
152.127350
11
59.739751
21
150.067130
0
LINE
8
Layer 1
10
59.739751
20
150.067130
11
59.683871
21
148.041190
0
LINE
8
Layer 1
10
59.683871
20
148.041190
11
59.815655
21
144.035750
0
LINE
8
Layer 1
10
59.815655
20
144.035750
11
60.028256
21
142.044570
0
LINE
8
Layer 1
10
60.028256
20
142.044570
11
60.301935
21
140.034240
0
LINE
8
Layer 1
10
60.301935
20
140.034240
11
60.500197
21
137.949234
0
LINE
8
Layer 1
10
60.500197
20
137.949234
11
60.466123
21
135.855100
0
LINE
8
Layer 1
10
60.466123
20
135.855100
11
60.037879
21
133.756290
0
LINE
8
Layer 1
10
60.037879
20
133.756290
11
59.457032
21
131.843080
0
LINE
8
Layer 1
10
59.457032
20
131.843080
11
59.107665
21
129.922802
0
LINE
8
Layer 1
10
59.107665
20
129.922802
11
59.004136
21
127.973750
0
LINE
8
Layer 1
10
59.004136
20
127.973750
11
59.013565
21
126.102960
0
LINE
8
Layer 1
10
59.013565
20
126.102960
11
57.980100
21
127.639000
0
LINE
8
Layer 1
10
57.980100
20
127.639000
11
57.441084
21
128.877480
0
LINE
8
Layer 1
10
57.441084
20
128.877480
11
57.262658
21
130.124310
0
LINE
8
Layer 1
10
57.262658
20
130.124310
11
57.218764
21
131.303780
0
LINE
8
Layer 1
10
57.218764
20
131.303780
11
57.145900
21
132.421770
0
LINE
8
Layer 1
10
57.145900
20
132.421770
11
56.688957
21
134.614322
0
LINE
8
Layer 1
10
56.688957
20
134.614322
11
55.826010
21
136.681060
0
LINE
8
Layer 1
10
55.826010
20
136.681060
11
55.319303
21
137.799050
0
LINE
8
Layer 1
10
55.319303
20
137.799050
11
55.197205
21
138.447373
0
LINE
8
Layer 1
10
55.197205
20
138.447373
11
55.237207
21
139.105880
0
LINE
8
Layer 1
10
55.237207
20
139.105880
11
55.600176
21
140.268408
0
LINE
8
Layer 1
10
55.600176
20
140.268408
11
55.963587
21
141.338140
0
LINE
8
Layer 1
10
55.963587
20
141.338140
11
56.111608
21
142.461012
0
LINE
8
Layer 1
10
56.111608
20
142.461012
11
56.077692
21
143.593090
0
LINE
8
Layer 1
10
56.077692
20
143.593090
11
55.714258
21
145.884560
0
LINE
8
Layer 1
10
55.714258
20
145.884560
11
56.326333
21
143.627950
0
LINE
8
Layer 1
10
56.326333
20
143.627950
11
56.471280
21
142.442919
0
LINE
8
Layer 1
10
56.471280
20
142.442919
11
56.409606
21
141.250650
0
LINE
8
Layer 1
10
56.409606
20
141.250650
11
55.858906
21
139.013480
0
LINE
8
Layer 1
10
55.858906
20
139.013480
11
55.980772
21
138.026581
0
LINE
8
Layer 1
10
55.980772
20
138.026581
11
56.497690
21
137.058537
0
LINE
8
Layer 1
10
56.497690
20
137.058537
11
57.532600
21
134.891187
0
LINE
8
Layer 1
10
57.532600
20
134.891187
11
58.127685
21
132.550907
0
LINE
8
Layer 1
10
58.127685
20
132.550907
11
58.222841
21
131.732810
0
LINE
8
Layer 1
10
58.222841
20
131.732810
11
58.310926
21
132.126194
0
LINE
8
Layer 1
10
58.310926
20
132.126194
11
58.890692
21
134.103234
0
LINE
8
Layer 1
10
58.890692
20
134.103234
11
59.127253
21
135.034849
0
LINE
8
Layer 1
10
59.127253
20
135.034849
11
59.213277
21
135.501782
0
LINE
8
Layer 1
10
59.213277
20
135.501782
11
59.275337
21
135.975300
0
LINE
8
Layer 1
10
59.275337
20
135.975300
11
59.320941
21
137.938492
0
LINE
8
Layer 1
10
59.320941
20
137.938492
11
59.149446
21
139.894710
0
LINE
8
Layer 1
10
59.149446
20
139.894710
11
58.753410
21
143.964660
0
LINE
8
Layer 1
10
58.753410
20
143.964660
11
58.769122
21
148.075860
0
LINE
8
Layer 1
10
58.769122
20
148.075860
11
58.915045
21
150.105440
0
LINE
8
Layer 1
10
58.915045
20
150.105440
11
59.006567
21
152.104280
0
LINE
8
Layer 1
10
59.006567
20
152.104280
11
58.971117
21
153.094617
0
LINE
8
Layer 1
10
58.971117
20
153.094617
11
58.866339
21
154.092317
0
LINE
8
Layer 1
10
58.866339
20
154.092317
11
58.829317
21
155.154537
0
LINE
8
Layer 1
10
58.829317
20
155.154537
11
59.072556
21
156.202317
0
LINE
8
Layer 1
10
59.072556
20
156.202317
11
60.008686
21
158.031177
0
LINE
8
Layer 1
10
60.008686
20
158.031177
11
60.431753
21
158.941744
0
LINE
8
Layer 1
10
60.431753
20
158.941744
11
60.642274
21
159.923477
0
LINE
8
Layer 1
10
60.642274
20
159.923477
11
60.542185
21
158.904210
0
LINE
8
Layer 1
10
60.542185
20
158.904210
11
60.211377
21
157.934937
0
LINE
8
Layer 1
10
60.211377
20
157.934937
11
59.462219
21
156.073087
0
LINE
8
Layer 1
10
59.462219
20
156.073087
11
59.318749
21
155.134501
0
LINE
8
Layer 1
10
59.318749
20
155.134501
11
59.429600
21
154.175000
0
LINE
8
Layer 1
10
59.429600
20
154.175000
11
59.429640
21
154.175100
0
LINE
8
Layer 1
10
48.844500
20
115.295000
11
48.593755
21
117.069395
0
LINE
8
Layer 1
10
48.593755
20
117.069395
11
48.650851
21
118.860510
0
LINE
8
Layer 1
10
48.650851
20
118.860510
11
48.948771
21
120.631300
0
LINE
8
Layer 1
10
48.948771
20
120.631300
11
49.404135
21
122.368280
0
LINE
8
Layer 1
10
49.404135
20
122.368280
11
50.500046
21
125.781331
0
LINE
8
Layer 1
10
50.500046
20
125.781331
11
51.439305
21
129.218840
0
LINE
8
Layer 1
10
51.439305
20
129.218840
11
51.689840
21
130.970763
0
LINE
8
Layer 1
10
51.689840
20
130.970763
11
51.729680
21
132.740060
0
LINE
8
Layer 1
10
51.729680
20
132.740060
11
51.515998
21
136.313220
0
LINE
8
Layer 1
10
51.515998
20
136.313220
11
51.514022
21
138.128330
0
LINE
8
Layer 1
10
51.514022
20
138.128330
11
51.740468
21
139.941080
0
LINE
8
Layer 1
10
51.740468
20
139.941080
11
52.649398
21
143.428910
0
LINE
8
Layer 1
10
52.649398
20
143.428910
11
53.072008
21
145.134910
0
LINE
8
Layer 1
10
53.072008
20
145.134910
11
53.321964
21
146.874610
0
LINE
8
Layer 1
10
53.321964
20
146.874610
11
53.290124
21
149.484769
0
LINE
8
Layer 1
10
53.290124
20
149.484769
11
52.774603
21
152.043710
0
LINE
8
Layer 1
10
52.774603
20
152.043710
11
52.200925
21
153.712600
0
LINE
8
Layer 1
10
52.200925
20
153.712600
11
51.601615
21
155.423710
0
LINE
8
Layer 1
10
51.601615
20
155.423710
11
51.182306
21
157.238820
0
LINE
8
Layer 1
10
51.182306
20
157.238820
11
50.993864
21
160.889170
0
LINE
8
Layer 1
10
50.993864
20
160.889170
11
51.146171
21
164.495530
0
LINE
8
Layer 1
10
51.146171
20
164.495530
11
51.271373
21
166.265960
0
LINE
8
Layer 1
10
51.271373
20
166.265960
11
51.495268
21
165.337785
0
LINE
8
Layer 1
10
51.495268
20
165.337785
11
51.507246
21
165.292220
0
LINE
8
Layer 1
10
51.507246
20
165.292220
11
52.133463
21
163.179710
0
LINE
8
Layer 1
10
52.133463
20
163.179710
11
52.014151
21
160.869040
0
LINE
8
Layer 1
10
52.014151
20
160.869040
11
52.131891
21
157.368540
0
LINE
8
Layer 1
10
52.131891
20
157.368540
11
52.493169
21
155.664360
0
LINE
8
Layer 1
10
52.493169
20
155.664360
11
53.033652
21
154.008270
0
LINE
8
Layer 1
10
53.033652
20
154.008270
11
53.585235
21
152.276930
0
LINE
8
Layer 1
10
53.585235
20
152.276930
11
54.069288
21
149.564081
0
LINE
8
Layer 1
10
54.069288
20
149.564081
11
54.041958
21
146.808520
0
LINE
8
Layer 1
10
54.041958
20
146.808520
11
53.743397
21
145.009893
0
LINE
8
Layer 1
10
53.743397
20
145.009893
11
53.266677
21
143.250080
0
LINE
8
Layer 1
10
53.266677
20
143.250080
11
52.291366
21
139.828140
0
LINE
8
Layer 1
10
52.291366
20
139.828140
11
52.035270
21
138.087897
0
LINE
8
Layer 1
10
52.035270
20
138.087897
11
51.997751
21
136.329310
0
LINE
8
Layer 1
10
51.997751
20
136.329310
11
52.131301
21
132.747010
0
LINE
8
Layer 1
10
52.131301
20
132.747010
11
52.049813
21
130.938355
0
LINE
8
Layer 1
10
52.049813
20
130.938355
11
51.753727
21
129.152240
0
LINE
8
Layer 1
10
51.753727
20
129.152240
11
50.728701
21
125.704762
0
LINE
8
Layer 1
10
50.728701
20
125.704762
11
49.557707
21
122.321130
0
LINE
8
Layer 1
10
49.557707
20
122.321130
11
49.066280
21
120.604619
0
LINE
8
Layer 1
10
49.066280
20
120.604619
11
48.730675
21
118.850970
0
LINE
8
Layer 1
10
48.730675
20
118.850970
11
48.634022
21
117.068070
0
LINE
8
Layer 1
10
48.634022
20
117.068070
11
48.844500
21
115.295000
0
LINE
8
Layer 1
10
48.844500
20
115.295000
11
48.844500
21
115.295000
0
LINE
8
Layer 1
10
50.146620
20
105.314060
11
50.216538
21
105.821552
0
LINE
8
Layer 1
10
50.216538
20
105.821552
11
50.333197
21
106.321678
0
LINE
8
Layer 1
10
50.333197
20
106.321678
11
51.030999
21
108.231258
0
LINE
8
Layer 1
10
51.030999
20
108.231258
11
52.006310
21
109.952198
0
LINE
8
Layer 1
10
52.006310
20
109.952198
11
54.014180
21
113.176658
0
LINE
8
Layer 1
10
54.014180
20
113.176658
11
54.714045
21
114.866468
0
LINE
8
Layer 1
10
54.714045
20
114.866468
11
55.063927
21
116.677358
0
LINE
8
Layer 1
10
55.063927
20
116.677358
11
55.267003
21
120.483648
0
LINE
8
Layer 1
10
55.267003
20
120.483648
11
55.647133
21
128.161138
0
LINE
8
Layer 1
10
55.647133
20
128.161138
11
55.856296
21
120.477078
0
LINE
8
Layer 1
10
55.856296
20
120.477078
11
55.884478
21
118.555128
0
LINE
8
Layer 1
10
55.884478
20
118.555128
11
55.847849
21
116.607058
0
LINE
8
Layer 1
10
55.847849
20
116.607058
11
55.551191
21
114.637478
0
LINE
8
Layer 1
10
55.551191
20
114.637478
11
54.852898
21
112.756778
0
LINE
8
Layer 1
10
54.852898
20
112.756778
11
53.906617
21
111.034830
0
LINE
8
Layer 1
10
53.906617
20
111.034830
11
52.905028
21
109.400528
0
LINE
8
Layer 1
10
52.905028
20
109.400528
11
52.022563
21
107.762178
0
LINE
8
Layer 1
10
52.022563
20
107.762178
11
51.442058
21
106.059898
0
LINE
8
Layer 1
10
51.442058
20
106.059898
11
51.349162
21
105.623109
0
LINE
8
Layer 1
10
51.349162
20
105.623109
11
51.295348
21
105.178367
0
LINE
8
Layer 1
10
51.295348
20
105.178367
11
51.245267
21
104.467258
0
LINE
8
Layer 1
10
51.245267
20
104.467258
11
50.076207
21
104.351533
0
LINE
8
Layer 1
10
50.076207
20
104.351533
11
50.146600
21
105.314000
0
LINE
8
Layer 1
10
50.146600
20
105.314000
11
50.146620
21
105.314060
0
LINE
8
Layer 1
10
56.491650
20
158.855360
11
56.359768
21
160.089870
0
LINE
8
Layer 1
10
56.359768
20
160.089870
11
57.022022
21
160.447953
0
LINE
8
Layer 1
10
57.022022
20
160.447953
11
57.034889
21
160.375873
0
LINE
8
Layer 1
10
57.034889
20
160.375873
11
57.118900
21
158.856000
0
LINE
8
Layer 1
10
57.118900
20
158.856000
11
56.944399
21
157.348160
0
LINE
8
Layer 1
10
56.944399
20
157.348160
11
56.578021
21
155.928100
0
LINE
8
Layer 1
10
56.578021
20
155.928100
11
56.364339
21
154.518750
0
LINE
8
Layer 1
10
56.364339
20
154.518750
11
56.562405
21
153.121470
0
LINE
8
Layer 1
10
56.562405
20
153.121470
11
57.051730
21
151.743540
0
LINE
8
Layer 1
10
57.051730
20
151.743540
11
57.223081
21
151.028153
0
LINE
8
Layer 1
10
57.223081
20
151.028153
11
57.228294
21
150.292550
0
LINE
8
Layer 1
10
57.228294
20
150.292550
11
57.170365
21
151.015745
0
LINE
8
Layer 1
10
57.170365
20
151.015745
11
56.950096
21
151.707010
0
LINE
8
Layer 1
10
56.950096
20
151.707010
11
56.358841
21
153.049290
0
LINE
8
Layer 1
10
56.358841
20
153.049290
11
56.040283
21
154.517360
0
LINE
8
Layer 1
10
56.040283
20
154.517360
11
56.154196
21
156.011950
0
LINE
8
Layer 1
10
56.154196
20
156.011950
11
56.415601
21
157.451060
0
LINE
8
Layer 1
10
56.415601
20
157.451060
11
56.491600
21
158.856000
0
LINE
8
Layer 1
10
56.491600
20
158.856000
11
56.491650
21
158.855360
0
LINE
8
Layer 1
10
42.970350
20
99.015660
11
42.941775
21
99.609763
0
LINE
8
Layer 1
10
42.941775
20
99.609763
11
42.894246
21
100.051661
0
LINE
8
Layer 1
10
42.894246
20
100.051661
11
42.803289
21
101.184850
0
LINE
8
Layer 1
10
42.803289
20
101.184850
11
42.937257
21
102.270171
0
LINE
8
Layer 1
10
42.937257
20
102.270171
11
42.991658
21
102.393705
0
LINE
8
Layer 1
10
42.991658
20
102.393705
11
42.991940
21
102.394097
0
LINE
8
Layer 1
10
42.991940
20
102.394097
11
43.311579
21
102.675195
0
LINE
8
Layer 1
10
43.311579
20
102.675195
11
43.780147
21
102.845838
0
LINE
8
Layer 1
10
43.780147
20
102.845838
11
44.809700
21
102.989585
0
LINE
8
Layer 1
10
44.809700
20
102.989585
11
44.916736
21
102.998814
0
LINE
8
Layer 1
10
44.916736
20
102.998814
11
48.278566
21
103.347420
0
LINE
8
Layer 1
10
48.278566
20
103.347420
11
52.038497
21
103.730342
0
LINE
8
Layer 1
10
52.038497
20
103.730342
11
55.813766
21
103.906567
0
LINE
8
Layer 1
10
55.813766
20
103.906567
11
56.679586
21
103.894781
0
LINE
8
Layer 1
10
56.679586
20
103.894781
11
57.948318
21
103.691364
0
LINE
8
Layer 1
10
57.948318
20
103.691364
11
58.718586
21
103.168906
0
LINE
8
Layer 1
10
58.718586
20
103.168906
11
58.988862
21
102.614631
0
LINE
8
Layer 1
10
58.988862
20
102.614631
11
59.113137
21
101.938154
0
LINE
8
Layer 1
10
59.113137
20
101.938154
11
59.120809
21
100.446826
0
LINE
8
Layer 1
10
59.120809
20
100.446826
11
59.105005
21
99.508240
0
LINE
8
Layer 1
10
59.105005
20
99.508240
11
58.990872
21
98.454040
0
LINE
8
Layer 1
10
58.990872
20
98.454040
11
58.636118
21
97.834294
0
LINE
8
Layer 1
10
58.636118
20
97.834294
11
58.133789
21
97.533079
0
LINE
8
Layer 1
10
58.133789
20
97.533079
11
57.576935
21
97.434470
0
LINE
8
Layer 1
10
57.576935
20
97.434470
11
54.275785
21
97.361999
0
LINE
8
Layer 1
10
54.275785
20
97.361999
11
51.936195
21
97.336271
0
LINE
8
Layer 1
10
51.936195
20
97.336271
11
46.144125
21
97.017713
0
LINE
8
Layer 1
10
46.144125
20
97.017713
11
45.749759
21
96.986880
0
LINE
8
Layer 1
10
45.749759
20
96.986880
11
44.675979
21
96.928512
0
LINE
8
Layer 1
10
44.675979
20
96.928512
11
43.609019
21
97.062688
0
LINE
8
Layer 1
10
43.609019
20
97.062688
11
43.282495
21
97.295742
0
LINE
8
Layer 1
10
43.282495
20
97.295742
11
43.094727
21
97.730899
0
LINE
8
Layer 1
10
43.094727
20
97.730899
11
42.970300
21
99.015900
0
LINE
8
Layer 1
10
42.970300
20
99.015900
11
42.970350
21
99.015660
0
LINE
8
Layer 1
10
43.433849
20
90.107440
11
43.357745
21
90.623573
0
LINE
8
Layer 1
10
43.357745
20
90.623573
11
43.264456
21
91.873253
0
LINE
8
Layer 1
10
43.264456
20
91.873253
11
43.123687
21
93.962683
0
LINE
8
Layer 1
10
43.123687
20
93.962683
11
43.187925
21
94.925701
0
LINE
8
Layer 1
10
43.187925
20
94.925701
11
43.437481
21
95.551593
0
LINE
8
Layer 1
10
43.437481
20
95.551593
11
43.862488
21
95.714799
0
LINE
8
Layer 1
10
43.862488
20
95.714799
11
45.457978
21
96.158559
0
LINE
8
Layer 1
10
45.457978
20
96.158559
11
45.815076
21
96.185172
0
LINE
8
Layer 1
10
45.815076
20
96.185172
11
46.201195
21
96.215221
0
LINE
8
Layer 1
10
46.201195
20
96.215221
11
51.961935
21
96.532207
0
LINE
8
Layer 1
10
51.961935
20
96.532207
11
54.276195
21
96.557542
0
LINE
8
Layer 1
10
54.276195
20
96.557542
11
57.629195
21
96.631583
0
LINE
8
Layer 1
10
57.629195
20
96.631583
11
58.467098
21
96.802576
0
LINE
8
Layer 1
10
58.467098
20
96.802576
11
59.193555
21
97.253772
0
LINE
8
Layer 1
10
59.193555
20
97.253772
11
59.128102
21
96.106690
0
LINE
8
Layer 1
10
59.128102
20
96.106690
11
58.887641
21
95.348504
0
LINE
8
Layer 1
10
58.887641
20
95.348504
11
58.328794
21
94.776412
0
LINE
8
Layer 1
10
58.328794
20
94.776412
11
57.308185
21
94.187612
0
LINE
8
Layer 1
10
57.308185
20
94.187612
11
53.981569
21
92.625635
0
LINE
8
Layer 1
10
53.981569
20
92.625635
11
50.741632
21
91.388745
0
LINE
8
Layer 1
10
50.741632
20
91.388745
11
47.531321
21
90.457794
0
LINE
8
Layer 1
10
47.531321
20
90.457794
11
44.293585
21
89.813632
0
LINE
8
Layer 1
10
44.293585
20
89.813632
11
43.823064
21
89.841786
0
LINE
8
Layer 1
10
43.823064
20
89.841786
11
43.433800
21
90.107600
0
LINE
8
Layer 1
10
43.433800
20
90.107600
11
43.433849
21
90.107440
0
LINE
8
Layer 1
10
44.362026
20
75.439640
11
44.133124
21
77.686230
0
LINE
8
Layer 1
10
44.133124
20
77.686230
11
44.106906
21
78.492256
0
LINE
8
Layer 1
10
44.106906
20
78.492256
11
44.077837
21
78.903318
0
LINE
8
Layer 1
10
44.077837
20
78.903318
11
44.039174
21
79.682773
0
LINE
8
Layer 1
10
44.039174
20
79.682773
11
44.164253
21
80.453098
0
LINE
8
Layer 1
10
44.164253
20
80.453098
11
44.315036
21
80.709593
0
LINE
8
Layer 1
10
44.315036
20
80.709593
11
44.441567
21
80.651263
0
LINE
8
Layer 1
10
44.441567
20
80.651263
11
47.960427
21
79.203413
0
LINE
8
Layer 1
10
47.960427
20
79.203413
11
48.650372
21
78.911762
0
LINE
8
Layer 1
10
48.650372
20
78.911762
11
52.983792
21
77.145652
0
LINE
8
Layer 1
10
52.983792
20
77.145652
11
49.162229
21
75.926691
0
LINE
8
Layer 1
10
49.162229
20
75.926691
11
45.236282
21
75.103802
0
LINE
8
Layer 1
10
45.236282
20
75.103802
11
44.703260
21
75.150613
0
LINE
8
Layer 1
10
44.703260
20
75.150613
11
44.362000
21
75.439900
0
LINE
8
Layer 1
10
44.362000
20
75.439900
11
44.362026
21
75.439640
0
LINE
8
Layer 1
10
54.131546
20
76.725260
11
55.030852
21
76.417308
0
LINE
8
Layer 1
10
55.030852
20
76.417308
11
56.141972
21
75.940454
0
LINE
8
Layer 1
10
56.141972
20
75.940454
11
56.178697
21
75.923368
0
LINE
8
Layer 1
10
56.178697
20
75.923368
11
50.390118
21
75.437382
0
LINE
8
Layer 1
10
50.390118
20
75.437382
11
54.131500
21
76.725500
0
LINE
8
Layer 1
10
54.131500
20
76.725500
11
54.131546
21
76.725260
0
LINE
8
Layer 1
10
62.085200
20
34.172100
11
61.415871
21
34.423751
0
LINE
8
Layer 1
10
61.415871
20
34.423751
11
60.706340
21
34.512604
0
LINE
8
Layer 1
10
60.706340
20
34.512604
11
59.491130
21
34.562882
0
LINE
8
Layer 1
10
59.491130
20
34.562882
11
57.008220
21
20.673882
0
LINE
8
Layer 1
10
57.008220
20
20.673882
11
58.703130
21
34.576582
0
LINE
8
Layer 1
10
58.703130
20
34.576582
11
56.874130
21
34.567551
0
LINE
8
Layer 1
10
56.874130
20
34.567551
11
55.576110
21
27.091771
0
LINE
8
Layer 1
10
55.576110
20
27.091771
11
56.332747
21
34.560391
0
LINE
8
Layer 1
10
56.332747
20
34.560391
11
53.226567
21
34.569278
0
LINE
8
Layer 1
10
53.226567
20
34.569278
11
50.214407
21
34.859800
0
LINE
8
Layer 1
10
50.214407
20
34.859800
11
48.276000
21
25.228500
0
LINE
8
Layer 1
10
48.276000
20
25.228500
11
49.579050
21
34.964680
0
LINE
8
Layer 1
10
49.579050
20
34.964680
11
46.003430
21
35.863591
0
LINE
8
Layer 1
10
46.003430
20
35.863591
11
44.807910
21
36.296551
0
LINE
8
Layer 1
10
44.807910
20
36.296551
11
45.365199
21
40.287477
0
LINE
8
Layer 1
10
45.365199
20
40.287477
11
45.773214
21
44.295009
0
LINE
8
Layer 1
10
45.773214
20
44.295009
11
46.031607
21
48.314962
0
LINE
8
Layer 1
10
46.031607
20
48.314962
11
46.140030
21
52.343151
0
LINE
8
Layer 1
10
46.140030
20
52.343151
11
46.850894
21
52.145232
0
LINE
8
Layer 1
10
46.850894
20
52.145232
11
46.286824
21
44.349120
0
LINE
8
Layer 1
10
46.286824
20
44.349120
11
45.239354
21
36.603132
0
LINE
8
Layer 1
10
45.239354
20
36.603132
11
45.733982
21
36.415866
0
LINE
8
Layer 1
10
45.733982
20
36.415866
11
46.148002
21
36.256975
0
LINE
8
Layer 1
10
46.148002
20
36.256975
11
49.712240
21
35.371179
0
LINE
8
Layer 1
10
49.712240
20
35.371179
11
53.363072
21
34.971355
0
LINE
8
Layer 1
10
53.363072
20
34.971355
11
55.036082
21
34.926970
0
LINE
8
Layer 1
10
55.036082
20
34.926970
11
56.875442
21
34.954063
0
LINE
8
Layer 1
10
56.875442
20
34.954063
11
58.729922
21
34.981363
0
LINE
8
Layer 1
10
58.729922
20
34.981363
11
60.799362
21
34.911445
0
LINE
8
Layer 1
10
60.799362
20
34.911445
11
61.131176
21
34.883067
0
LINE
8
Layer 1
10
61.131176
20
34.883067
11
61.419846
21
42.215301
0
LINE
8
Layer 1
10
61.419846
20
42.215301
11
61.308330
21
49.552367
0
LINE
8
Layer 1
10
61.308330
20
49.552367
11
62.276129
21
49.757308
0
LINE
8
Layer 1
10
62.276129
20
49.757308
11
62.459091
21
41.505964
0
LINE
8
Layer 1
10
62.459091
20
41.505964
11
62.085200
21
34.172100
0
LINE
8
Layer 1
10
62.085200
20
34.172100
11
62.085200
21
34.172100
0
LINE
8
Layer 1
10
50.437600
20
48.889900
11
49.898045
21
51.761290
0
LINE
8
Layer 1
10
49.898045
20
51.761290
11
51.050415
21
51.569215
0
LINE
8
Layer 1
10
51.050415
20
51.569215
11
51.339170
21
48.964835
0
LINE
8
Layer 1
10
51.339170
20
48.964835
11
51.329359
21
46.754415
0
LINE
8
Layer 1
10
51.329359
20
46.754415
11
50.979074
21
44.571905
0
LINE
8
Layer 1
10
50.979074
20
44.571905
11
50.190436
21
42.494505
0
LINE
8
Layer 1
10
50.190436
20
42.494505
11
49.193628
21
40.562345
0
LINE
8
Layer 1
10
49.193628
20
40.562345
11
48.850670
21
39.554163
0
LINE
8
Layer 1
10
48.850670
20
39.554163
11
48.688688
21
38.501635
0
LINE
8
Layer 1
10
48.688688
20
38.501635
11
48.694287
21
36.349115
0
LINE
8
Layer 1
10
48.694287
20
36.349115
11
48.537953
21
38.507835
0
LINE
8
Layer 1
10
48.537953
20
38.507835
11
48.629851
21
39.601572
0
LINE
8
Layer 1
10
48.629851
20
39.601572
11
48.911110
21
40.662515
0
LINE
8
Layer 1
10
48.911110
20
40.662515
11
49.776832
21
42.668325
0
LINE
8
Layer 1
10
49.776832
20
42.668325
11
50.388613
21
44.689555
0
LINE
8
Layer 1
10
50.388613
20
44.689555
11
50.576040
21
46.787831
0
LINE
8
Layer 1
10
50.576040
20
46.787831
11
50.437500
21
48.889900
0
LINE
8
Layer 1
10
50.437500
20
48.889900
11
50.437600
21
48.889900
0
LINE
8
Layer 1
10
54.582280
20
41.037420
11
54.329810
21
42.432530
0
LINE
8
Layer 1
10
54.329810
20
42.432530
11
54.282679
21
43.911800
0
LINE
8
Layer 1
10
54.282679
20
43.911800
11
54.715833
21
45.324600
0
LINE
8
Layer 1
10
54.715833
20
45.324600
11
55.484733
21
46.540890
0
LINE
8
Layer 1
10
55.484733
20
46.540890
11
56.403481
21
47.621960
0
LINE
8
Layer 1
10
56.403481
20
47.621960
11
55.666676
21
46.435822
0
LINE
8
Layer 1
10
55.666676
20
46.435822
11
55.062381
21
45.177000
0
LINE
8
Layer 1
10
55.062381
20
45.177000
11
54.791547
21
43.870460
0
LINE
8
Layer 1
10
54.791547
20
43.870460
11
54.940907
21
42.543500
0
LINE
8
Layer 1
10
54.940907
20
42.543500
11
55.276551
21
41.179520
0
LINE
8
Layer 1
10
55.276551
20
41.179520
11
55.476192
21
39.714000
0
LINE
8
Layer 1
10
55.476192
20
39.714000
11
55.440251
21
38.274010
0
LINE
8
Layer 1
10
55.440251
20
38.274010
11
55.416584
21
37.821806
0
LINE
8
Layer 1
10
55.416584
20
37.821806
11
55.706370
21
38.205961
0
LINE
8
Layer 1
10
55.706370
20
38.205961
11
56.081392
21
38.923008
0
LINE
8
Layer 1
10
56.081392
20
38.923008
11
56.301946
21
39.308735
0
LINE
8
Layer 1
10
56.301946
20
39.308735
11
56.542729
21
39.671088
0
LINE
8
Layer 1
10
56.542729
20
39.671088
11
57.348845
21
41.052548
0
LINE
8
Layer 1
10
57.348845
20
41.052548
11
57.947957
21
42.552048
0
LINE
8
Layer 1
10
57.947957
20
42.552048
11
58.408608
21
44.122538
0
LINE
8
Layer 1
10
58.408608
20
44.122538
11
58.719210
21
45.727208
0
LINE
8
Layer 1
10
58.719210
20
45.727208
11
58.823350
21
47.370565
0
LINE
8
Layer 1
10
58.823350
20
47.370565
11
58.658230
21
49.008918
0
LINE
8
Layer 1
10
58.658230
20
49.008918
11
59.069469
21
47.374550
0
LINE
8
Layer 1
10
59.069469
20
47.374550
11
59.152169
21
45.691268
0
LINE
8
Layer 1
10
59.152169
20
45.691268
11
58.975411
21
44.004598
0
LINE
8
Layer 1
10
58.975411
20
44.004598
11
58.605006
21
42.352188
0
LINE
8
Layer 1
10
58.605006
20
42.352188
11
58.044051
21
40.726222
0
LINE
8
Layer 1
10
58.044051
20
40.726222
11
57.232476
21
39.209718
0
LINE
8
Layer 1
10
57.232476
20
39.209718
11
57.019483
21
38.874371
0
LINE
8
Layer 1
10
57.019483
20
38.874371
11
56.834867
21
38.533227
0
LINE
8
Layer 1
10
56.834867
20
38.533227
11
56.448356
21
37.770220
0
LINE
8
Layer 1
10
56.448356
20
37.770220
11
55.829703
21
37.021256
0
LINE
8
Layer 1
10
55.829703
20
37.021256
11
55.037926
21
36.520148
0
LINE
8
Layer 1
10
55.037926
20
36.520148
11
54.226605
21
36.117826
0
LINE
8
Layer 1
10
54.226605
20
36.117826
11
54.433019
21
36.998181
0
LINE
8
Layer 1
10
54.433019
20
36.998181
11
54.557634
21
37.645116
0
LINE
8
Layer 1
10
54.557634
20
37.645116
11
54.610562
21
38.326713
0
LINE
8
Layer 1
10
54.610562
20
38.326713
11
54.700709
21
39.704343
0
LINE
8
Layer 1
10
54.700709
20
39.704343
11
54.582200
21
41.037400
0
LINE
8
Layer 1
10
54.582200
20
41.037400
11
54.582280
21
41.037420
0
LINE
8
Layer 1
10
61.826660
20
56.276720
11
62.156841
21
55.064772
0
LINE
8
Layer 1
10
62.156841
20
55.064772
11
62.275723
21
53.696840
0
LINE
8
Layer 1
10
62.275723
20
53.696840
11
62.414576
21
52.196550
0
LINE
8
Layer 1
10
62.414576
20
52.196550
11
62.455858
21
51.373693
0
LINE
8
Layer 1
10
62.455858
20
51.373693
11
62.178605
21
50.659540
0
LINE
8
Layer 1
10
62.178605
20
50.659540
11
61.661685
21
50.393887
0
LINE
8
Layer 1
10
61.661685
20
50.393887
11
60.862835
21
50.377905
0
LINE
8
Layer 1
10
60.862835
20
50.377905
11
56.471575
21
51.258946
0
LINE
8
Layer 1
10
56.471575
20
51.258946
11
54.485295
21
51.720481
0
LINE
8
Layer 1
10
54.485295
20
51.720481
11
48.490445
21
52.782601
0
LINE
8
Layer 1
10
48.490445
20
52.782601
11
47.740892
21
52.856055
0
LINE
8
Layer 1
10
47.740892
20
52.856055
11
46.918730
21
52.948106
0
LINE
8
Layer 1
10
46.918730
20
52.948106
11
46.141722
21
53.232155
0
LINE
8
Layer 1
10
46.141722
20
53.232155
11
45.816074
21
53.564531
0
LINE
8
Layer 1
10
45.816074
20
53.564531
11
45.638405
21
54.046692
0
LINE
8
Layer 1
10
45.638405
20
54.046692
11
45.530147
21
55.246415
0
LINE
8
Layer 1
10
45.530147
20
55.246415
11
45.476135
21
56.082481
0
LINE
8
Layer 1
10
45.476135
20
56.082481
11
45.429687
21
56.417930
0
LINE
8
Layer 1
10
45.429687
20
56.417930
11
45.287324
21
57.763698
0
LINE
8
Layer 1
10
45.287324
20
57.763698
11
45.433224
21
59.054960
0
LINE
8
Layer 1
10
45.433224
20
59.054960
11
45.461406
21
59.105435
0
LINE
8
Layer 1
10
45.461406
20
59.105435
11
45.856674
21
59.337761
0
LINE
8
Layer 1
10
45.856674
20
59.337761
11
46.357781
21
59.403817
0
LINE
8
Layer 1
10
46.357781
20
59.403817
11
47.417426
21
59.280032
0
LINE
8
Layer 1
10
47.417426
20
59.280032
11
47.589373
21
59.249787
0
LINE
8
Layer 1
10
47.589373
20
59.249787
11
53.028613
21
58.407436
0
LINE
8
Layer 1
10
53.028613
20
58.407436
11
60.035503
21
57.279326
0
LINE
8
Layer 1
10
60.035503
20
57.279326
11
61.174500
21
56.939891
0
LINE
8
Layer 1
10
61.174500
20
56.939891
11
61.556669
21
56.665852
0
LINE
8
Layer 1
10
61.556669
20
56.665852
11
61.826600
21
56.276700
0
LINE
8
Layer 1
10
61.826600
20
56.276700
11
61.826660
21
56.276720
0
LINE
8
Layer 1
10
61.263588
20
64.152870
11
61.593682
21
62.940945
0
LINE
8
Layer 1
10
61.593682
20
62.940945
11
61.712552
21
61.573180
0
LINE
8
Layer 1
10
61.712552
20
61.573180
11
61.851405
21
60.072700
0
LINE
8
Layer 1
10
61.851405
20
60.072700
11
61.892687
21
59.249743
0
LINE
8
Layer 1
10
61.892687
20
59.249743
11
61.615434
21
58.535490
0
LINE
8
Layer 1
10
61.615434
20
58.535490
11
61.098311
21
58.269641
0
LINE
8
Layer 1
10
61.098311
20
58.269641
11
60.299764
21
58.254053
0
LINE
8
Layer 1
10
60.299764
20
58.254053
11
56.588924
21
58.844817
0
LINE
8
Layer 1
10
56.588924
20
58.844817
11
53.719944
21
59.322850
0
LINE
8
Layer 1
10
53.719944
20
59.322850
11
50.834864
21
59.782223
0
LINE
8
Layer 1
10
50.834864
20
59.782223
11
48.162774
21
60.205658
0
LINE
8
Layer 1
10
48.162774
20
60.205658
11
46.828615
21
60.536458
0
LINE
8
Layer 1
10
46.828615
20
60.536458
11
45.578564
21
61.108108
0
LINE
8
Layer 1
10
45.578564
20
61.108108
11
45.252875
21
61.440516
0
LINE
8
Layer 1
10
45.252875
20
61.440516
11
45.075221
21
61.922764
0
LINE
8
Layer 1
10
45.075221
20
61.922764
11
44.967079
21
63.122758
0
LINE
8
Layer 1
10
44.967079
20
63.122758
11
44.913070
21
63.958626
0
LINE
8
Layer 1
10
44.913070
20
63.958626
11
44.866721
21
64.293288
0
LINE
8
Layer 1
10
44.866721
20
64.293288
11
44.724222
21
65.639448
0
LINE
8
Layer 1
10
44.724222
20
65.639448
11
44.870060
21
66.931108
0
LINE
8
Layer 1
10
44.870060
20
66.931108
11
44.898048
21
66.981386
0
LINE
8
Layer 1
10
44.898048
20
66.981386
11
45.293260
21
67.213931
0
LINE
8
Layer 1
10
45.293260
20
67.213931
11
45.794445
21
67.280083
0
LINE
8
Layer 1
10
45.794445
20
67.280083
11
46.854268
21
67.156180
0
LINE
8
Layer 1
10
46.854268
20
67.156180
11
47.026212
21
67.125934
0
LINE
8
Layer 1
10
47.026212
20
67.125934
11
52.465262
21
66.283583
0
LINE
8
Layer 1
10
52.465262
20
66.283583
11
59.472342
21
65.155473
0
LINE
8
Layer 1
10
59.472342
20
65.155473
11
60.611393
21
64.816159
0
LINE
8
Layer 1
10
60.611393
20
64.816159
11
60.993568
21
64.542079
0
LINE
8
Layer 1
10
60.993568
20
64.542079
11
61.263500
21
64.152900
0
LINE
8
Layer 1
10
61.263500
20
64.152900
11
61.263588
21
64.152870
0
LINE
8
Layer 1
10
61.048631
20
65.989780
11
61.088890
21
65.472075
0
LINE
8
Layer 1
10
61.088890
20
65.472075
11
59.623170
21
65.945787
0
LINE
8
Layer 1
10
59.623170
20
65.945787
11
52.581620
21
67.079587
0
LINE
8
Layer 1
10
52.581620
20
67.079587
11
49.402620
21
67.555066
0
LINE
8
Layer 1
10
49.402620
20
67.555066
11
53.705900
21
67.772281
0
LINE
8
Layer 1
10
53.705900
20
67.772281
11
56.021140
21
67.797814
0
LINE
8
Layer 1
10
56.021140
20
67.797814
11
59.373060
21
67.871857
0
LINE
8
Layer 1
10
59.373060
20
67.871857
11
60.457130
21
68.153489
0
LINE
8
Layer 1
10
60.457130
20
68.153489
11
60.721786
21
67.833389
0
LINE
8
Layer 1
10
60.721786
20
67.833389
11
60.884966
21
67.375549
0
LINE
8
Layer 1
10
60.884966
20
67.375549
11
61.048600
21
65.989800
0
LINE
8
Layer 1
10
61.048600
20
65.989800
11
61.048631
21
65.989780
0
LINE
8
Layer 1
10
60.462481
20
74.409160
11
60.732754
21
73.855001
0
LINE
8
Layer 1
10
60.732754
20
73.855001
11
60.857019
21
73.178603
0
LINE
8
Layer 1
10
60.857019
20
73.178603
11
60.864605
21
71.687480
0
LINE
8
Layer 1
10
60.864605
20
71.687480
11
60.848894
21
70.748499
0
LINE
8
Layer 1
10
60.848894
20
70.748499
11
60.734718
21
69.694298
0
LINE
8
Layer 1
10
60.734718
20
69.694298
11
60.379969
21
69.074553
0
LINE
8
Layer 1
10
60.379969
20
69.074553
11
59.877664
21
68.773338
0
LINE
8
Layer 1
10
59.877664
20
68.773338
11
59.320824
21
68.674729
0
LINE
8
Layer 1
10
59.320824
20
68.674729
11
56.020744
21
68.602257
0
LINE
8
Layer 1
10
56.020744
20
68.602257
11
53.680074
21
68.576332
0
LINE
8
Layer 1
10
53.680074
20
68.576332
11
47.887904
21
68.257971
0
LINE
8
Layer 1
10
47.887904
20
68.257971
11
47.492850
21
68.227138
0
LINE
8
Layer 1
10
47.492850
20
68.227138
11
46.419409
21
68.168622
0
LINE
8
Layer 1
10
46.419409
20
68.168622
11
45.352800
21
68.302946
0
LINE
8
Layer 1
10
45.352800
20
68.302946
11
45.026326
21
68.535902
0
LINE
8
Layer 1
10
45.026326
20
68.535902
11
44.838544
21
68.970969
0
LINE
8
Layer 1
10
44.838544
20
68.970969
11
44.714115
21
70.255726
0
LINE
8
Layer 1
10
44.714115
20
70.255726
11
44.685537
21
70.849832
0
LINE
8
Layer 1
10
44.685537
20
70.849832
11
44.637912
21
71.292709
0
LINE
8
Layer 1
10
44.637912
20
71.292709
11
44.547065
21
72.425460
0
LINE
8
Layer 1
10
44.547065
20
72.425460
11
44.680923
21
73.510039
0
LINE
8
Layer 1
10
44.680923
20
73.510039
11
44.735815
21
73.634358
0
LINE
8
Layer 1
10
44.735815
20
73.634358
11
45.055261
21
73.915259
0
LINE
8
Layer 1
10
45.055261
20
73.915259
11
45.523580
21
74.085852
0
LINE
8
Layer 1
10
45.523580
20
74.085852
11
46.552695
21
74.229640
0
LINE
8
Layer 1
10
46.552695
20
74.229640
11
46.660419
21
74.239066
0
LINE
8
Layer 1
10
46.660419
20
74.239066
11
50.024329
21
74.587870
0
LINE
8
Layer 1
10
50.024329
20
74.587870
11
54.219670
21
75.005928
0
LINE
8
Layer 1
10
54.219670
20
75.005928
11
58.423479
21
75.134839
0
LINE
8
Layer 1
10
58.423479
20
75.134839
11
59.692210
21
74.931492
0
LINE
8
Layer 1
10
59.692210
20
74.931492
11
60.462400
21
74.409200
0
LINE
8
Layer 1
10
60.462400
20
74.409200
11
60.462481
21
74.409160
0
LINE
8
Layer 1
10
60.042700
20
79.513700
11
60.041326
21
79.413929
0
LINE
8
Layer 1
10
60.041326
20
79.413929
11
60.141097
21
78.360449
0
LINE
8
Layer 1
10
60.141097
20
78.360449
11
60.267244
21
77.014930
0
LINE
8
Layer 1
10
60.267244
20
77.014930
11
60.213496
21
76.422632
0
LINE
8
Layer 1
10
60.213496
20
76.422632
11
60.002831
21
76.050029
0
LINE
8
Layer 1
10
60.002831
20
76.050029
11
59.438824
21
75.827706
0
LINE
8
Layer 1
10
59.438824
20
75.827706
11
58.445885
21
75.938868
0
LINE
8
Layer 1
10
58.445885
20
75.938868
11
58.284299
21
75.940635
0
LINE
8
Layer 1
10
58.284299
20
75.940635
11
56.482499
21
76.669468
0
LINE
8
Layer 1
10
56.482499
20
76.669468
11
55.283299
21
77.181280
0
LINE
8
Layer 1
10
55.283299
20
77.181280
11
54.259959
21
77.532833
0
LINE
8
Layer 1
10
54.259959
20
77.532833
11
48.963779
21
79.652753
0
LINE
8
Layer 1
10
48.963779
20
79.652753
11
48.273441
21
79.944602
0
LINE
8
Layer 1
10
48.273441
20
79.944602
11
44.741421
21
81.397942
0
LINE
8
Layer 1
10
44.741421
20
81.397942
11
44.483354
21
81.533849
0
LINE
8
Layer 1
10
44.483354
20
81.533849
11
44.024867
21
82.055240
0
LINE
8
Layer 1
10
44.024867
20
82.055240
11
43.834506
21
82.722939
0
LINE
8
Layer 1
10
43.834506
20
82.722939
11
43.833868
21
82.777244
0
LINE
8
Layer 1
10
43.833868
20
82.777244
11
43.823211
21
82.798061
0
LINE
8
Layer 1
10
43.823211
20
82.798061
11
43.821492
21
82.809649
0
LINE
8
Layer 1
10
43.821492
20
82.809649
11
43.808530
21
82.943592
0
LINE
8
Layer 1
10
43.808530
20
82.943592
11
43.737633
21
83.974682
0
LINE
8
Layer 1
10
43.737633
20
83.974682
11
43.544669
21
86.266252
0
LINE
8
Layer 1
10
43.544669
20
86.266252
11
43.520612
21
86.438884
0
LINE
8
Layer 1
10
43.520612
20
86.438884
11
43.492430
21
86.625659
0
LINE
8
Layer 1
10
43.492430
20
86.625659
11
43.397482
21
87.563188
0
LINE
8
Layer 1
10
43.397482
20
87.563188
11
43.459797
21
87.981477
0
LINE
8
Layer 1
10
43.459797
20
87.981477
11
43.660840
21
88.295239
0
LINE
8
Layer 1
10
43.660840
20
88.295239
11
44.205353
21
88.397169
0
LINE
8
Layer 1
10
44.205353
20
88.397169
11
45.466423
21
87.999857
0
LINE
8
Layer 1
10
45.466423
20
87.999857
11
45.935324
21
87.817796
0
LINE
8
Layer 1
10
45.935324
20
87.817796
11
49.448047
21
86.515899
0
LINE
8
Layer 1
10
49.448047
20
86.515899
11
53.362314
21
84.887146
0
LINE
8
Layer 1
10
53.362314
20
84.887146
11
53.463753
21
84.843153
0
LINE
8
Layer 1
10
53.463753
20
84.843153
11
54.266725
21
84.492385
0
LINE
8
Layer 1
10
54.266725
20
84.492385
11
54.675038
21
84.310521
0
LINE
8
Layer 1
10
54.675038
20
84.310521
11
57.202978
21
83.166891
0
LINE
8
Layer 1
10
57.202978
20
83.166891
11
57.967063
21
82.861885
0
LINE
8
Layer 1
10
57.967063
20
82.861885
11
58.709132
21
82.566309
0
LINE
8
Layer 1
10
58.709132
20
82.566309
11
59.376223
21
82.126965
0
LINE
8
Layer 1
10
59.376223
20
82.126965
11
59.804371
21
81.516951
0
LINE
8
Layer 1
10
59.804371
20
81.516951
11
59.801915
21
81.432304
0
LINE
8
Layer 1
10
59.801915
20
81.432304
11
59.857691
21
81.376528
0
LINE
8
Layer 1
10
59.857691
20
81.376528
11
60.033770
21
80.453415
0
LINE
8
Layer 1
10
60.033770
20
80.453415
11
60.042700
21
79.513700
0
LINE
8
Layer 1
10
60.042700
20
79.513700
11
60.042700
21
79.513700
0
LINE
8
Layer 1
10
59.531573
20
86.432010
11
59.542862
21
86.437508
0
LINE
8
Layer 1
10
59.542862
20
86.437508
11
59.716382
21
85.900860
0
LINE
8
Layer 1
10
59.716382
20
85.900860
11
59.803789
21
84.968028
0
LINE
8
Layer 1
10
59.803789
20
84.968028
11
59.826165
21
82.801888
0
LINE
8
Layer 1
10
59.826165
20
82.801888
11
59.072975
21
83.280588
0
LINE
8
Layer 1
10
59.072975
20
83.280588
11
58.246145
21
83.616448
0
LINE
8
Layer 1
10
58.246145
20
83.616448
11
57.538423
21
83.897888
0
LINE
8
Layer 1
10
57.538423
20
83.897888
11
55.835553
21
84.671989
0
LINE
8
Layer 1
10
55.835553
20
84.671989
11
59.531600
21
86.432100
0
LINE
8
Layer 1
10
59.531600
20
86.432100
11
59.531573
21
86.432010
0
LINE
8
Layer 1
10
59.274686
20
89.719900
11
59.268892
21
89.309230
0
LINE
8
Layer 1
10
59.268892
20
89.309230
11
59.233164
21
88.348442
0
LINE
8
Layer 1
10
59.233164
20
88.348442
11
59.058046
21
87.758328
0
LINE
8
Layer 1
10
59.058046
20
87.758328
11
58.597004
21
87.324570
0
LINE
8
Layer 1
10
58.597004
20
87.324570
11
57.703502
21
86.832850
0
LINE
8
Layer 1
10
57.703502
20
86.832850
11
54.431562
21
85.298100
0
LINE
8
Layer 1
10
54.431562
20
85.298100
11
53.784972
21
85.580618
0
LINE
8
Layer 1
10
53.784972
20
85.580618
11
53.683434
21
85.624806
0
LINE
8
Layer 1
10
53.683434
20
85.624806
11
49.739516
21
87.265615
0
LINE
8
Layer 1
10
49.739516
20
87.265615
11
46.195664
21
88.578826
0
LINE
8
Layer 1
10
46.195664
20
88.578826
11
45.770657
21
88.744389
0
LINE
8
Layer 1
10
45.770657
20
88.744389
11
45.753964
21
88.751162
0
LINE
8
Layer 1
10
45.753964
20
88.751162
11
49.169037
21
89.715708
0
LINE
8
Layer 1
10
49.169037
20
89.715708
11
52.518599
21
90.878369
0
LINE
8
Layer 1
10
52.518599
20
90.878369
11
55.794044
21
92.235872
0
LINE
8
Layer 1
10
55.794044
20
92.235872
11
58.986764
21
93.784942
0
LINE
8
Layer 1
10
58.986764
20
93.784942
11
58.998052
21
93.790442
0
LINE
8
Layer 1
10
58.998052
20
93.790442
11
59.186353
21
93.156654
0
LINE
8
Layer 1
10
59.186353
20
93.156654
11
59.270307
21
92.057868
0
LINE
8
Layer 1
10
59.270307
20
92.057868
11
59.274700
21
89.720000
0
LINE
8
Layer 1
10
59.274700
20
89.720000
11
59.274686
21
89.719900
0
LINE
8
Layer 1
10
62.272746
20
150.106100
11
62.206263
21
139.825700
0
LINE
8
Layer 1
10
62.206263
20
139.825700
11
62.218477
21
133.729790
0
LINE
8
Layer 1
10
62.218477
20
133.729790
11
62.032574
21
127.611414
0
LINE
8
Layer 1
10
62.032574
20
127.611414
11
61.451729
21
121.277680
0
LINE
8
Layer 1
10
61.451729
20
121.277680
11
60.951694
21
117.969777
0
LINE
8
Layer 1
10
60.951694
20
117.969777
11
60.279113
21
114.535700
0
LINE
8
Layer 1
10
60.279113
20
114.535700
11
59.376382
21
109.352758
0
LINE
8
Layer 1
10
59.376382
20
109.352758
11
58.871183
21
104.116100
0
LINE
8
Layer 1
10
58.871183
20
104.116100
11
58.081320
21
104.488814
0
LINE
8
Layer 1
10
58.081320
20
104.488814
11
58.599074
21
109.624807
0
LINE
8
Layer 1
10
58.599074
20
109.624807
11
59.493720
21
114.708714
0
LINE
8
Layer 1
10
59.493720
20
114.708714
11
60.159645
21
118.111687
0
LINE
8
Layer 1
10
60.159645
20
118.111687
11
60.654780
21
121.391963
0
LINE
8
Layer 1
10
60.654780
20
121.391963
11
61.230051
21
127.678894
0
LINE
8
Layer 1
10
61.230051
20
127.678894
11
61.414282
21
133.758435
0
LINE
8
Layer 1
10
61.414282
20
133.758435
11
61.402220
21
139.819514
0
LINE
8
Layer 1
10
61.402220
20
139.819514
11
61.468601
21
150.132614
0
LINE
8
Layer 1
10
61.468601
20
150.132614
11
61.606069
21
160.113419
0
LINE
8
Layer 1
10
61.606069
20
160.113419
11
61.556109
21
172.250802
0
LINE
8
Layer 1
10
61.556109
20
172.250802
11
61.269553
21
192.872814
0
LINE
8
Layer 1
10
61.269553
20
192.872814
11
61.236251
21
194.809204
0
LINE
8
Layer 1
10
61.236251
20
194.809204
11
61.626000
21
196.162744
0
LINE
8
Layer 1
10
61.626000
20
196.162744
11
61.759943
21
196.601546
0
LINE
8
Layer 1
10
61.759943
20
196.601546
11
62.013494
21
197.438004
0
LINE
8
Layer 1
10
62.013494
20
197.438004
11
62.035000
21
195.138174
0
LINE
8
Layer 1
10
62.035000
20
195.138174
11
62.072817
21
192.885884
0
LINE
8
Layer 1
10
62.072817
20
192.885884
11
62.360677
21
172.249736
0
LINE
8
Layer 1
10
62.360677
20
172.249736
11
62.410553
21
160.100967
0
LINE
8
Layer 1
10
62.410553
20
160.100967
11
62.272800
21
150.106000
0
LINE
8
Layer 1
10
62.272800
20
150.106000
11
62.272746
21
150.106100
0
LINE
8
Layer 1
10
63.383176
20
209.347200
11
62.536259
21
208.500379
0
LINE
8
Layer 1
10
62.536259
20
208.500379
11
62.044823
21
209.869279
0
LINE
8
Layer 1
10
62.044823
20
209.869279
11
62.312884
21
211.546016
0
LINE
8
Layer 1
10
62.312884
20
211.546016
11
62.400598
21
213.241779
0
LINE
8
Layer 1
10
62.400598
20
213.241779
11
62.248274
21
215.463023
0
LINE
8
Layer 1
10
62.248274
20
215.463023
11
61.811519
21
217.533197
0
LINE
8
Layer 1
10
61.811519
20
217.533197
11
61.120664
21
219.407580
0
LINE
8
Layer 1
10
61.120664
20
219.407580
11
60.206034
21
221.041450
0
LINE
8
Layer 1
10
60.206034
20
221.041450
11
59.097960
21
222.390087
0
LINE
8
Layer 1
10
59.097960
20
222.390087
11
57.826768
21
223.408768
0
LINE
8
Layer 1
10
57.826768
20
223.408768
11
56.422788
21
224.052773
0
LINE
8
Layer 1
10
56.422788
20
224.052773
11
54.916348
21
224.277379
0
LINE
8
Layer 1
10
54.916348
20
224.277379
11
53.409524
21
224.052773
0
LINE
8
Layer 1
10
53.409524
20
224.052773
11
52.005191
21
223.408770
0
LINE
8
Layer 1
10
52.005191
20
223.408770
11
50.733685
21
222.390090
0
LINE
8
Layer 1
10
50.733685
20
222.390090
11
49.625339
21
221.041454
0
LINE
8
Layer 1
10
49.625339
20
221.041454
11
48.710488
21
219.407584
0
LINE
8
Layer 1
10
48.710488
20
219.407584
11
48.019467
21
217.533201
0
LINE
8
Layer 1
10
48.019467
20
217.533201
11
47.582608
21
215.463025
0
LINE
8
Layer 1
10
47.582608
20
215.463025
11
47.430248
21
213.241779
0
LINE
8
Layer 1
10
47.430248
20
213.241779
11
47.518638
21
211.544699
0
LINE
8
Layer 1
10
47.518638
20
211.544699
11
47.785975
21
209.866479
0
LINE
8
Layer 1
10
47.785975
20
209.866479
11
47.296306
21
208.498569
0
LINE
8
Layer 1
10
47.296306
20
208.498569
11
46.447571
21
209.347211
0
LINE
8
Layer 1
10
46.447571
20
209.347211
11
46.447600
21
226.744000
0
LINE
8
Layer 1
10
46.447600
20
226.744000
11
63.383200
21
226.744000
0
LINE
8
Layer 1
10
63.383200
20
226.744000
11
63.383176
21
209.347200
0
LINE
8
Layer 1
10
78.980676
20
200.523730
11
78.029673
21
201.949679
0
LINE
8
Layer 1
10
78.029673
20
201.949679
11
76.828985
21
203.355856
0
LINE
8
Layer 1
10
76.828985
20
203.355856
11
75.393972
21
204.721371
0
LINE
8
Layer 1
10
75.393972
20
204.721371
11
73.739996
21
206.025330
0
LINE
8
Layer 1
10
73.739996
20
206.025330
11
71.305291
21
207.571739
0
LINE
8
Layer 1
10
71.305291
20
207.571739
11
68.821191
21
208.766439
0
LINE
8
Layer 1
10
68.821191
20
208.766439
11
66.408394
21
209.562556
0
LINE
8
Layer 1
10
66.408394
20
209.562556
11
64.187596
21
209.913220
0
LINE
8
Layer 1
10
64.187596
20
209.913220
11
64.187700
21
225.316000
0
LINE
8
Layer 1
10
64.187700
20
225.316000
11
65.922970
21
225.448814
0
LINE
8
Layer 1
10
65.922970
20
225.448814
11
69.646090
21
225.929794
0
LINE
8
Layer 1
10
69.646090
20
225.929794
11
73.556285
21
226.903093
0
LINE
8
Layer 1
10
73.556285
20
226.903093
11
77.019060
21
228.129454
0
LINE
8
Layer 1
10
77.019060
20
228.129454
11
78.667520
21
228.782084
0
LINE
8
Layer 1
10
78.667520
20
228.782084
11
79.471181
21
229.166631
0
LINE
8
Layer 1
10
79.471181
20
229.166631
11
80.886380
21
225.527725
0
LINE
8
Layer 1
10
80.886380
20
225.527725
11
81.877258
21
221.795626
0
LINE
8
Layer 1
10
81.877258
20
221.795626
11
82.445045
21
218.025297
0
LINE
8
Layer 1
10
82.445045
20
218.025297
11
82.590973
21
214.271704
0
LINE
8
Layer 1
10
82.590973
20
214.271704
11
82.316271
21
210.589813
0
LINE
8
Layer 1
10
82.316271
20
210.589813
11
81.622172
21
207.034588
0
LINE
8
Layer 1
10
81.622172
20
207.034588
11
80.509904
21
203.660995
0
LINE
8
Layer 1
10
80.509904
20
203.660995
11
78.980700
21
200.524000
0
LINE
8
Layer 1
10
78.980700
20
200.524000
11
78.980676
21
200.523730
0
LINE
8
Layer 1
10
86.989000
20
213.270000
11
86.970537
21
212.825356
0
LINE
8
Layer 1
10
86.970537
20
212.825356
11
86.801833
21
212.744048
0
LINE
8
Layer 1
10
86.801833
20
212.744048
11
86.052082
21
212.384246
0
LINE
8
Layer 1
10
86.052082
20
212.384246
11
85.372545
21
212.061565
0
LINE
8
Layer 1
10
85.372545
20
212.061565
11
86.018204
21
211.675643
0
LINE
8
Layer 1
10
86.018204
20
211.675643
11
86.862911
21
211.160097
0
LINE
8
Layer 1
10
86.862911
20
211.160097
11
86.846020
21
210.992175
0
LINE
8
Layer 1
10
86.846020
20
210.992175
11
86.831584
21
210.850573
0
LINE
8
Layer 1
10
86.831584
20
210.850573
11
86.724255
21
209.891560
0
LINE
8
Layer 1
10
86.724255
20
209.891560
11
85.240955
21
209.208490
0
LINE
8
Layer 1
10
85.240955
20
209.208490
11
84.609241
21
209.007771
0
LINE
8
Layer 1
10
84.609241
20
209.007771
11
85.078926
21
208.540146
0
LINE
8
Layer 1
10
85.078926
20
208.540146
11
85.751983
21
207.814062
0
LINE
8
Layer 1
10
85.751983
20
207.814062
11
86.283241
21
207.236458
0
LINE
8
Layer 1
10
86.283241
20
207.236458
11
85.593324
21
204.535590
0
LINE
8
Layer 1
10
85.593324
20
204.535590
11
84.650981
21
201.912108
0
LINE
8
Layer 1
10
84.650981
20
201.912108
11
83.668034
21
199.825642
0
LINE
8
Layer 1
10
83.668034
20
199.825642
11
82.492371
21
197.841368
0
LINE
8
Layer 1
10
82.492371
20
197.841368
11
80.036321
21
197.875932
0
LINE
8
Layer 1
10
80.036321
20
197.875932
11
79.415850
21
199.680932
0
LINE
8
Layer 1
10
79.415850
20
199.680932
11
81.123762
21
203.037929
0
LINE
8
Layer 1
10
81.123762
20
203.037929
11
82.363149
21
206.695042
0
LINE
8
Layer 1
10
82.363149
20
206.695042
11
83.119850
21
210.601574
0
LINE
8
Layer 1
10
83.119850
20
210.601574
11
83.379700
21
214.706832
0
LINE
8
Layer 1
10
83.379700
20
214.706832
11
83.171895
21
218.526407
0
LINE
8
Layer 1
10
83.171895
20
218.526407
11
82.565687
21
222.292648
0
LINE
8
Layer 1
10
82.565687
20
222.292648
11
81.567761
21
225.974523
0
LINE
8
Layer 1
10
81.567761
20
225.974523
11
80.184800
21
229.541000
0
LINE
8
Layer 1
10
80.184800
20
229.541000
11
82.980470
21
231.295180
0
LINE
8
Layer 1
10
82.980470
20
231.295180
11
83.530583
21
230.250150
0
LINE
8
Layer 1
10
83.530583
20
230.250150
11
83.775687
21
229.723608
0
LINE
8
Layer 1
10
83.775687
20
229.723608
11
83.938600
21
229.384626
0
LINE
8
Layer 1
10
83.938600
20
229.384626
11
84.032182
21
229.194708
0
LINE
8
Layer 1
10
84.032182
20
229.194708
11
83.512809
21
228.570360
0
LINE
8
Layer 1
10
83.512809
20
228.570360
11
83.004039
21
228.007288
0
LINE
8
Layer 1
10
83.004039
20
228.007288
11
83.755655
21
227.902411
0
LINE
8
Layer 1
10
83.755655
20
227.902411
11
84.385306
21
227.842117
0
LINE
8
Layer 1
10
84.385306
20
227.842117
11
84.595844
21
227.825816
0
LINE
8
Layer 1
10
84.595844
20
227.825816
11
84.673128
21
227.617045
0
LINE
8
Layer 1
10
84.673128
20
227.617045
11
84.727136
21
227.469942
0
LINE
8
Layer 1
10
84.727136
20
227.469942
11
85.121502
21
226.352832
0
LINE
8
Layer 1
10
85.121502
20
226.352832
11
85.809896
21
224.014420
0
LINE
8
Layer 1
10
85.809896
20
224.014420
11
86.339272
21
221.634962
0
LINE
8
Layer 1
10
86.339272
20
221.634962
11
86.934851
21
216.871132
0
LINE
8
Layer 1
10
86.934851
20
216.871132
11
87.008892
21
214.470362
0
LINE
8
Layer 1
10
87.008892
20
214.470362
11
86.989000
21
213.270000
0
LINE
8
Layer 1
10
86.989000
20
213.270000
11
86.989000
21
213.270000
 0 
ENDSEC
 0 
EOF