999
"DXF R12 Output" (www.mydxf.blogspot.com)
 0 
SECTION
 2 
HEADER
 9 
$ACADVER
 1 
AC1009
 9 
$EXTMIN
 10 
 0 
 20 
 0 
 9 
$EXTMAX
 10 
 8.5 
 20 
 11 
 0 
ENDSEC
 0 
SECTION
 2 
ENTITIES
0
LINE
8
Layer 1
10
185.454000
20
59.559100
11
184.673117
21
61.326690
0
LINE
8
Layer 1
10
184.673117
20
61.326690
11
182.839657
21
64.739040
0
LINE
8
Layer 1
10
182.839657
20
64.739040
11
181.923048
21
66.446790
0
LINE
8
Layer 1
10
181.923048
20
66.446790
11
180.320538
21
69.238147
0
LINE
8
Layer 1
10
180.320538
20
69.238147
11
178.527068
21
71.910820
0
LINE
8
Layer 1
10
178.527068
20
71.910820
11
175.988668
21
75.257270
0
LINE
8
Layer 1
10
175.988668
20
75.257270
11
178.339158
21
74.928281
0
LINE
8
Layer 1
10
178.339158
20
74.928281
11
175.581998
21
77.546647
0
LINE
8
Layer 1
10
175.581998
20
77.546647
11
172.679900
21
79.998434
0
LINE
8
Layer 1
10
172.679900
20
79.998434
11
169.640391
21
82.277650
0
LINE
8
Layer 1
10
169.640391
20
82.277650
11
166.471000
21
84.378300
0
LINE
8
Layer 1
10
166.471000
20
84.378300
11
168.304280
21
84.929107
0
LINE
8
Layer 1
10
168.304280
20
84.929107
11
165.509060
21
86.262387
0
LINE
8
Layer 1
10
165.509060
20
86.262387
11
160.943170
21
88.650757
0
LINE
8
Layer 1
10
160.943170
20
88.650757
11
159.986784
21
89.174853
0
LINE
8
Layer 1
10
159.986784
20
89.174853
11
159.138980
21
89.836937
0
LINE
8
Layer 1
10
159.138980
20
89.836937
11
159.081248
21
90.071781
0
LINE
8
Layer 1
10
159.081248
20
90.071781
11
159.193280
21
90.262660
0
LINE
8
Layer 1
10
159.193280
20
90.262660
11
156.650010
21
91.582300
0
LINE
8
Layer 1
10
156.650010
20
91.582300
11
155.442046
21
92.046073
0
LINE
8
Layer 1
10
155.442046
20
92.046073
11
154.265720
21
92.572744
0
LINE
8
Layer 1
10
154.265720
20
92.572744
11
152.375724
21
93.844283
0
LINE
8
Layer 1
10
152.375724
20
93.844283
11
150.433200
21
95.033494
0
LINE
8
Layer 1
10
150.433200
20
95.033494
11
148.170615
21
95.801296
0
LINE
8
Layer 1
10
148.170615
20
95.801296
11
145.811010
21
96.277384
0
LINE
8
Layer 1
10
145.811010
20
96.277384
11
143.283222
21
96.561958
0
LINE
8
Layer 1
10
143.283222
20
96.561958
11
140.736673
21
96.623588
0
LINE
8
Layer 1
10
140.736673
20
96.623588
11
135.630710
21
96.324557
0
LINE
8
Layer 1
10
135.630710
20
96.324557
11
134.484117
21
96.148928
0
LINE
8
Layer 1
10
134.484117
20
96.148928
11
133.543213
21
95.871528
0
LINE
8
Layer 1
10
133.543213
20
95.871528
11
131.807550
21
95.119897
0
LINE
8
Layer 1
10
131.807550
20
95.119897
11
130.000397
21
94.583695
0
LINE
8
Layer 1
10
130.000397
20
94.583695
11
128.211966
21
94.421389
0
LINE
8
Layer 1
10
128.211966
20
94.421389
11
126.435679
21
94.389214
0
LINE
8
Layer 1
10
126.435679
20
94.389214
11
124.664960
21
94.243406
0
LINE
8
Layer 1
10
124.664960
20
94.243406
11
122.938506
21
93.939262
0
LINE
8
Layer 1
10
122.938506
20
93.939262
11
121.302306
21
93.454732
0
LINE
8
Layer 1
10
121.302306
20
93.454732
11
119.761013
21
92.579917
0
LINE
8
Layer 1
10
119.761013
20
92.579917
11
118.319280
21
91.104916
0
LINE
8
Layer 1
10
118.319280
20
91.104916
11
118.269362
21
90.894921
0
LINE
8
Layer 1
10
118.269362
20
90.894921
11
118.373648
21
90.682129
0
LINE
8
Layer 1
10
118.373648
20
90.682129
11
118.743821
21
90.328693
0
LINE
8
Layer 1
10
118.743821
20
90.328693
11
120.156581
21
89.508051
0
LINE
8
Layer 1
10
120.156581
20
89.508051
11
123.910701
21
87.967631
0
LINE
8
Layer 1
10
123.910701
20
87.967631
11
127.528964
21
86.704099
0
LINE
8
Layer 1
10
127.528964
20
86.704099
11
131.121931
21
85.331081
0
LINE
8
Layer 1
10
131.121931
20
85.331081
11
130.317598
21
85.129659
0
LINE
8
Layer 1
10
130.317598
20
85.129659
11
131.447651
21
84.322284
0
LINE
8
Layer 1
10
131.447651
20
84.322284
11
132.656825
21
83.647824
0
LINE
8
Layer 1
10
132.656825
20
83.647824
11
133.933475
21
83.111949
0
LINE
8
Layer 1
10
133.933475
20
83.111949
11
135.265958
21
82.720329
0
LINE
8
Layer 1
10
135.265958
20
82.720329
11
134.508025
21
82.523866
0
LINE
8
Layer 1
10
134.508025
20
82.523866
11
135.816993
21
81.236183
0
LINE
8
Layer 1
10
135.816993
20
81.236183
11
137.368520
21
80.112506
0
LINE
8
Layer 1
10
137.368520
20
80.112506
11
140.608875
21
78.094896
0
LINE
8
Layer 1
10
140.608875
20
78.094896
11
139.700781
21
77.894135
0
LINE
8
Layer 1
10
139.700781
20
77.894135
11
140.056063
21
77.641612
0
LINE
8
Layer 1
10
140.056063
20
77.641612
11
140.386202
21
77.296135
0
LINE
8
Layer 1
10
140.386202
20
77.296135
11
142.830617
21
75.358272
0
LINE
8
Layer 1
10
142.830617
20
75.358272
11
145.508752
21
73.758875
0
LINE
8
Layer 1
10
145.508752
20
73.758875
11
144.296422
21
73.659426
0
LINE
8
Layer 1
10
144.296422
20
73.659426
11
145.295321
21
72.374464
0
LINE
8
Layer 1
10
145.295321
20
72.374464
11
146.434585
21
71.203631
0
LINE
8
Layer 1
10
146.434585
20
71.203631
11
148.922991
21
69.069166
0
LINE
8
Layer 1
10
148.922991
20
69.069166
11
147.780146
21
66.655921
0
LINE
8
Layer 1
10
147.780146
20
66.655921
11
146.463938
21
64.336861
0
LINE
8
Layer 1
10
146.463938
20
64.336861
11
144.980116
21
62.121299
0
LINE
8
Layer 1
10
144.980116
20
62.121299
11
143.334431
21
60.018546
0
LINE
8
Layer 1
10
143.334431
20
60.018546
11
141.647911
21
58.190375
0
LINE
8
Layer 1
10
141.647911
20
58.190375
11
139.843283
21
56.514267
0
LINE
8
Layer 1
10
139.843283
20
56.514267
11
137.922671
21
54.986861
0
LINE
8
Layer 1
10
137.922671
20
54.986861
11
135.888200
21
53.604797
0
LINE
8
Layer 1
10
135.888200
20
53.604797
11
133.741996
21
52.364714
0
LINE
8
Layer 1
10
133.741996
20
52.364714
11
131.486183
21
51.263252
0
LINE
8
Layer 1
10
131.486183
20
51.263252
11
129.122887
21
50.297049
0
LINE
8
Layer 1
10
129.122887
20
50.297049
11
126.654231
21
49.462746
0
LINE
8
Layer 1
10
126.654231
20
49.462746
11
123.167536
21
48.497972
0
LINE
8
Layer 1
10
123.167536
20
48.497972
11
119.590978
21
47.741538
0
LINE
8
Layer 1
10
119.590978
20
47.741538
11
115.954832
21
47.257596
0
LINE
8
Layer 1
10
115.954832
20
47.257596
11
112.289370
21
47.110300
0
LINE
8
Layer 1
10
112.289370
20
47.110300
11
108.624866
21
47.363803
0
LINE
8
Layer 1
10
108.624866
20
47.363803
11
104.991593
21
48.082260
0
LINE
8
Layer 1
10
104.991593
20
48.082260
11
101.419824
21
49.329823
0
LINE
8
Layer 1
10
101.419824
20
49.329823
11
99.666463
21
50.172067
0
LINE
8
Layer 1
10
99.666463
20
50.172067
11
97.939831
21
51.170646
0
LINE
8
Layer 1
10
97.939831
20
51.170646
11
98.325508
21
49.735733
0
LINE
8
Layer 1
10
98.325508
20
49.735733
11
98.859979
21
48.438446
0
LINE
8
Layer 1
10
98.859979
20
48.438446
11
99.601224
21
47.270684
0
LINE
8
Layer 1
10
99.601224
20
47.270684
11
100.607221
21
46.224346
0
LINE
8
Layer 1
10
100.607221
20
46.224346
11
102.032226
21
45.298234
0
LINE
8
Layer 1
10
102.032226
20
45.298234
11
103.754366
21
44.545072
0
LINE
8
Layer 1
10
103.754366
20
44.545072
11
107.137822
21
43.445256
0
LINE
8
Layer 1
10
107.137822
20
43.445256
11
103.988202
21
43.843359
0
LINE
8
Layer 1
10
103.988202
20
43.843359
11
100.838582
21
44.241461
0
LINE
8
Layer 1
10
100.838582
20
44.241461
11
102.708072
21
41.822321
0
LINE
8
Layer 1
10
102.708072
20
41.822321
11
104.173567
21
40.059530
0
LINE
8
Layer 1
10
104.173567
20
40.059530
11
104.974391
21
39.279457
0
LINE
8
Layer 1
10
104.974391
20
39.279457
11
105.893832
21
38.608761
0
LINE
8
Layer 1
10
105.893832
20
38.608761
11
107.611789
21
37.877747
0
LINE
8
Layer 1
10
107.611789
20
37.877747
11
109.394531
21
37.402411
0
LINE
8
Layer 1
10
109.394531
20
37.402411
11
111.885925
21
36.819091
0
LINE
8
Layer 1
10
111.885925
20
36.819091
11
114.415791
21
36.435586
0
LINE
8
Layer 1
10
114.415791
20
36.435586
11
114.996240
21
36.376952
0
LINE
8
Layer 1
10
114.996240
20
36.376952
11
114.328740
21
36.332863
0
LINE
8
Layer 1
10
114.328740
20
36.332863
11
113.633430
21
36.286838
0
LINE
8
Layer 1
10
113.633430
20
36.286838
11
112.242870
21
36.194918
0
LINE
8
Layer 1
10
112.242870
20
36.194918
11
109.461700
21
36.010949
0
LINE
8
Layer 1
10
109.461700
20
36.010949
11
108.857745
21
35.971235
0
LINE
8
Layer 1
10
108.857745
20
35.971235
11
110.601055
21
34.712075
0
LINE
8
Layer 1
10
110.601055
20
34.712075
11
111.619875
21
34.067234
0
LINE
8
Layer 1
10
111.619875
20
34.067234
11
113.877515
21
32.768324
0
LINE
8
Layer 1
10
113.877515
20
32.768324
11
115.532794
21
31.981839
0
LINE
8
Layer 1
10
115.532794
20
31.981839
11
117.352075
21
31.761114
0
LINE
8
Layer 1
10
117.352075
20
31.761114
11
120.233185
21
31.593962
0
LINE
8
Layer 1
10
120.233185
20
31.593962
11
125.535995
21
31.683051
0
LINE
8
Layer 1
10
125.535995
20
31.683051
11
127.089375
21
31.807057
0
LINE
8
Layer 1
10
127.089375
20
31.807057
11
124.163095
21
30.925862
0
LINE
8
Layer 1
10
124.163095
20
30.925862
11
121.293946
21
29.873437
0
LINE
8
Layer 1
10
121.293946
20
29.873437
11
123.642205
21
29.155123
0
LINE
8
Layer 1
10
123.642205
20
29.155123
11
126.272414
21
28.428311
0
LINE
8
Layer 1
10
126.272414
20
28.428311
11
128.878128
21
27.887503
0
LINE
8
Layer 1
10
128.878128
20
27.887503
11
131.529805
21
27.673132
0
LINE
8
Layer 1
10
131.529805
20
27.673132
11
134.297905
21
27.925633
0
LINE
8
Layer 1
10
134.297905
20
27.925633
11
136.530345
21
28.520604
0
LINE
8
Layer 1
10
136.530345
20
28.520604
11
138.675546
21
29.378443
0
LINE
8
Layer 1
10
138.675546
20
29.378443
11
141.082395
21
30.567053
0
LINE
8
Layer 1
10
141.082395
20
30.567053
11
142.258053
21
31.112907
0
LINE
8
Layer 1
10
142.258053
20
31.112907
11
143.324335
21
31.792083
0
LINE
8
Layer 1
10
143.324335
20
31.792083
11
140.991978
21
29.515723
0
LINE
8
Layer 1
10
140.991978
20
29.515723
11
138.506615
21
27.407483
0
LINE
8
Layer 1
10
138.506615
20
27.407483
11
138.912100
21
27.439182
0
LINE
8
Layer 1
10
138.912100
20
27.439182
11
139.344769
21
27.463532
0
LINE
8
Layer 1
10
139.344769
20
27.463532
11
140.582977
21
27.469080
0
LINE
8
Layer 1
10
140.582977
20
27.469080
11
141.811149
21
27.619333
0
LINE
8
Layer 1
10
141.811149
20
27.619333
11
145.915311
21
28.208404
0
LINE
8
Layer 1
10
145.915311
20
28.208404
11
147.935901
21
28.709727
0
LINE
8
Layer 1
10
147.935901
20
28.709727
11
149.862309
21
29.452233
0
LINE
8
Layer 1
10
149.862309
20
29.452233
11
151.722481
21
30.504105
0
LINE
8
Layer 1
10
151.722481
20
30.504105
11
153.442446
21
31.773281
0
LINE
8
Layer 1
10
153.442446
20
31.773281
11
155.032873
21
33.201251
0
LINE
8
Layer 1
10
155.032873
20
33.201251
11
156.504429
21
34.729503
0
LINE
8
Layer 1
10
156.504429
20
34.729503
11
157.726460
21
36.204547
0
LINE
8
Layer 1
10
157.726460
20
36.204547
11
158.800799
21
37.790393
0
LINE
8
Layer 1
10
158.800799
20
37.790393
11
158.200586
21
36.122223
0
LINE
8
Layer 1
10
158.200586
20
36.122223
11
157.049863
21
34.269905
0
LINE
8
Layer 1
10
157.049863
20
34.269905
11
156.509971
21
33.337538
0
LINE
8
Layer 1
10
156.509971
20
33.337538
11
156.197246
21
32.294263
0
LINE
8
Layer 1
10
156.197246
20
32.294263
11
156.635783
21
32.566412
0
LINE
8
Layer 1
10
156.635783
20
32.566412
11
157.593080
21
33.141623
0
LINE
8
Layer 1
10
157.593080
20
33.141623
11
158.674099
21
33.838852
0
LINE
8
Layer 1
10
158.674099
20
33.838852
11
160.687547
21
35.280783
0
LINE
8
Layer 1
10
160.687547
20
35.280783
11
162.604359
21
36.848892
0
LINE
8
Layer 1
10
162.604359
20
36.848892
11
165.565852
21
39.793553
0
LINE
8
Layer 1
10
165.565852
20
39.793553
11
168.279000
21
42.968500
0
LINE
8
Layer 1
10
168.279000
20
42.968500
11
168.304044
21
42.727434
0
LINE
8
Layer 1
10
168.304044
20
42.727434
11
168.338862
21
42.357557
0
LINE
8
Layer 1
10
168.338862
20
42.357557
11
168.155102
21
40.559027
0
LINE
8
Layer 1
10
168.155102
20
40.559027
11
167.890346
21
39.612092
0
LINE
8
Layer 1
10
167.890346
20
39.612092
11
167.719896
21
38.645557
0
LINE
8
Layer 1
10
167.719896
20
38.645557
11
167.443275
21
36.494799
0
LINE
8
Layer 1
10
167.443275
20
36.494799
11
166.846473
21
34.410067
0
LINE
8
Layer 1
10
166.846473
20
34.410067
11
166.005790
21
32.491047
0
LINE
8
Layer 1
10
166.005790
20
32.491047
11
167.641861
21
33.186422
0
LINE
8
Layer 1
10
167.641861
20
33.186422
11
169.300360
21
33.724707
0
LINE
8
Layer 1
10
169.300360
20
33.724707
11
168.695400
21
32.628157
0
LINE
8
Layer 1
10
168.695400
20
32.628157
11
168.010150
21
31.438747
0
LINE
8
Layer 1
10
168.010150
20
31.438747
11
167.250390
21
30.296397
0
LINE
8
Layer 1
10
167.250390
20
30.296397
11
166.571084
21
29.144726
0
LINE
8
Layer 1
10
166.571084
20
29.144726
11
166.034819
21
27.924982
0
LINE
8
Layer 1
10
166.034819
20
27.924982
11
165.646499
21
26.650398
0
LINE
8
Layer 1
10
165.646499
20
26.650398
11
165.411030
21
25.334207
0
LINE
8
Layer 1
10
165.411030
20
25.334207
11
165.093517
21
22.191221
0
LINE
8
Layer 1
10
165.093517
20
22.191221
11
164.647902
21
19.070667
0
LINE
8
Layer 1
10
164.647902
20
19.070667
11
163.772732
21
15.493097
0
LINE
8
Layer 1
10
163.772732
20
15.493097
11
163.088292
21
13.527650
0
LINE
8
Layer 1
10
163.088292
20
13.527650
11
162.227062
21
11.624775
0
LINE
8
Layer 1
10
162.227062
20
11.624775
11
161.167430
21
9.821758
0
LINE
8
Layer 1
10
161.167430
20
9.821758
11
159.887782
21
8.155887
0
LINE
8
Layer 1
10
159.887782
20
8.155887
11
163.089782
21
10.053437
0
LINE
8
Layer 1
10
163.089782
20
10.053437
11
164.624086
21
11.095248
0
LINE
8
Layer 1
10
164.624086
20
11.095248
11
166.073232
21
12.245137
0
LINE
8
Layer 1
10
166.073232
20
12.245137
11
167.401668
21
13.538742
0
LINE
8
Layer 1
10
167.401668
20
13.538742
11
168.552521
21
14.979891
0
LINE
8
Layer 1
10
168.552521
20
14.979891
11
169.463365
21
16.555182
0
LINE
8
Layer 1
10
169.463365
20
16.555182
11
170.071772
21
18.251217
0
LINE
8
Layer 1
10
170.071772
20
18.251217
11
169.489408
21
15.813158
0
LINE
8
Layer 1
10
169.489408
20
15.813158
11
168.690000
21
13.437400
0
LINE
8
Layer 1
10
168.690000
20
13.437400
11
168.047231
21
11.987420
0
LINE
8
Layer 1
10
168.047231
20
11.987420
11
168.258843
21
11.843912
0
LINE
8
Layer 1
10
168.258843
20
11.843912
11
168.609982
21
11.988713
0
LINE
8
Layer 1
10
168.609982
20
11.988713
11
170.943835
21
14.059037
0
LINE
8
Layer 1
10
170.943835
20
14.059037
11
172.758436
21
16.051383
0
LINE
8
Layer 1
10
172.758436
20
16.051383
11
174.167540
21
18.291325
0
LINE
8
Layer 1
10
174.167540
20
18.291325
11
175.284902
21
21.104443
0
LINE
8
Layer 1
10
175.284902
20
21.104443
11
174.006582
21
15.320153
0
LINE
8
Layer 1
10
174.006582
20
15.320153
11
172.517439
21
9.163249
0
LINE
8
Layer 1
10
172.517439
20
9.163249
11
171.550125
21
6.146980
0
LINE
8
Layer 1
10
171.550125
20
6.146980
11
170.319892
21
3.218153
0
LINE
8
Layer 1
10
170.319892
20
3.218153
11
172.625283
21
5.218411
0
LINE
8
Layer 1
10
172.625283
20
5.218411
11
174.683782
21
7.476033
0
LINE
8
Layer 1
10
174.683782
20
7.476033
11
176.351572
21
9.539386
0
LINE
8
Layer 1
10
176.351572
20
9.539386
11
177.018179
21
10.658518
0
LINE
8
Layer 1
10
177.018179
20
10.658518
11
177.473122
21
11.862473
0
LINE
8
Layer 1
10
177.473122
20
11.862473
11
177.268305
21
9.015093
0
LINE
8
Layer 1
10
177.268305
20
9.015093
11
178.276012
21
9.965385
0
LINE
8
Layer 1
10
178.276012
20
9.965385
11
179.134566
21
11.043504
0
LINE
8
Layer 1
10
179.134566
20
11.043504
11
179.832100
21
12.232159
0
LINE
8
Layer 1
10
179.832100
20
12.232159
11
180.356745
21
13.514063
0
LINE
8
Layer 1
10
180.356745
20
13.514063
11
180.953149
21
16.156421
0
LINE
8
Layer 1
10
180.953149
20
16.156421
11
181.064679
21
18.862953
0
LINE
8
Layer 1
10
181.064679
20
18.862953
11
181.288392
21
17.334484
0
LINE
8
Layer 1
10
181.288392
20
17.334484
11
181.333735
21
15.788388
0
LINE
8
Layer 1
10
181.333735
20
15.788388
11
181.141565
21
12.686373
0
LINE
8
Layer 1
10
181.141565
20
12.686373
11
181.032980
21
9.528200
0
LINE
8
Layer 1
10
181.032980
20
9.528200
11
180.956960
21
7.950297
0
LINE
8
Layer 1
10
180.956960
20
7.950297
11
180.746409
21
6.380093
0
LINE
8
Layer 1
10
180.746409
20
6.380093
11
180.264839
21
4.691498
0
LINE
8
Layer 1
10
180.264839
20
4.691498
11
179.549733
21
3.067949
0
LINE
8
Layer 1
10
179.549733
20
3.067949
11
177.730249
21
-0.000017
0
LINE
8
Layer 1
10
177.730249
20
-0.000017
11
178.748786
21
1.122065
0
LINE
8
Layer 1
10
178.748786
20
1.122065
11
179.895279
21
2.144783
0
LINE
8
Layer 1
10
179.895279
20
2.144783
11
182.164439
21
4.355143
0
LINE
8
Layer 1
10
182.164439
20
4.355143
11
184.220626
21
6.662819
0
LINE
8
Layer 1
10
184.220626
20
6.662819
11
185.927059
21
9.239903
0
LINE
8
Layer 1
10
185.927059
20
9.239903
11
186.245970
21
8.220853
0
LINE
8
Layer 1
10
186.245970
20
8.220853
11
186.437704
21
7.293306
0
LINE
8
Layer 1
10
186.437704
20
7.293306
11
186.387482
21
6.347483
0
LINE
8
Layer 1
10
186.387482
20
6.347483
11
186.087610
21
5.156283
0
LINE
8
Layer 1
10
186.087610
20
5.156283
11
185.636677
21
4.005783
0
LINE
8
Layer 1
10
185.636677
20
4.005783
11
184.666622
21
1.725703
0
LINE
8
Layer 1
10
184.666622
20
1.725703
11
185.950222
21
2.525955
0
LINE
8
Layer 1
10
185.950222
20
2.525955
11
187.031152
21
3.624925
0
LINE
8
Layer 1
10
187.031152
20
3.624925
11
188.114234
21
4.782606
0
LINE
8
Layer 1
10
188.114234
20
4.782606
11
189.114532
21
6.004845
0
LINE
8
Layer 1
10
189.114532
20
6.004845
11
189.801625
21
7.233953
0
LINE
8
Layer 1
10
189.801625
20
7.233953
11
190.293302
21
8.553445
0
LINE
8
Layer 1
10
190.293302
20
8.553445
11
190.612704
21
9.948752
0
LINE
8
Layer 1
10
190.612704
20
9.948752
11
190.765742
21
11.371945
0
LINE
8
Layer 1
10
190.765742
20
11.371945
11
190.967438
21
17.185715
0
LINE
8
Layer 1
10
190.967438
20
17.185715
11
190.773031
21
20.395160
0
LINE
8
Layer 1
10
190.773031
20
20.395160
11
190.463418
21
23.602985
0
LINE
8
Layer 1
10
190.463418
20
23.602985
11
192.396298
21
20.152945
0
LINE
8
Layer 1
10
192.396298
20
20.152945
11
192.318777
21
20.993652
0
LINE
8
Layer 1
10
192.318777
20
20.993652
11
192.345498
21
21.880345
0
LINE
8
Layer 1
10
192.345498
20
21.880345
11
192.116094
21
23.688545
0
LINE
8
Layer 1
10
192.116094
20
23.688545
11
191.473424
21
26.979455
0
LINE
8
Layer 1
10
191.473424
20
26.979455
11
191.123599
21
29.284631
0
LINE
8
Layer 1
10
191.123599
20
29.284631
11
190.936920
21
31.608715
0
LINE
8
Layer 1
10
190.936920
20
31.608715
11
190.676151
21
34.950472
0
LINE
8
Layer 1
10
190.676151
20
34.950472
11
190.100826
21
38.254625
0
LINE
8
Layer 1
10
190.100826
20
38.254625
11
189.931521
21
38.873236
0
LINE
8
Layer 1
10
189.931521
20
38.873236
11
189.747682
21
39.460588
0
LINE
8
Layer 1
10
189.747682
20
39.460588
11
191.416212
21
37.136538
0
LINE
8
Layer 1
10
191.416212
20
37.136538
11
191.064563
21
38.348758
0
LINE
8
Layer 1
10
191.064563
20
38.348758
11
189.503233
21
43.370018
0
LINE
8
Layer 1
10
189.503233
20
43.370018
11
188.664794
21
45.861648
0
LINE
8
Layer 1
10
188.664794
20
45.861648
11
188.550630
21
46.345077
0
LINE
8
Layer 1
10
188.550630
20
46.345077
11
188.401335
21
46.977881
0
LINE
8
Layer 1
10
188.401335
20
46.977881
11
187.973825
21
48.471941
0
LINE
8
Layer 1
10
187.973825
20
48.471941
11
185.897375
21
54.461431
0
LINE
8
Layer 1
10
185.897375
20
54.461431
11
185.359926
21
55.765381
0
LINE
8
Layer 1
10
185.359926
20
55.765381
11
185.278256
21
56.625074
0
LINE
8
Layer 1
10
185.278256
20
56.625074
11
185.145696
21
57.574353
0
LINE
8
Layer 1
10
185.145696
20
57.574353
11
184.869306
21
59.083544
0
LINE
8
Layer 1
10
184.869306
20
59.083544
11
184.413810
21
60.548663
0
LINE
8
Layer 1
10
184.413810
20
60.548663
11
184.913151
21
60.131988
0
LINE
8
Layer 1
10
184.913151
20
60.131988
11
185.454000
21
59.559100
0
LINE
8
Layer 1
10
185.454000
20
59.559100
11
185.454000
21
59.559100
0
LINE
8
Layer 1
10
139.398000
20
93.535200
11
138.867315
21
93.468508
0
LINE
8
Layer 1
10
138.867315
20
93.468508
11
137.777495
21
92.902786
0
LINE
8
Layer 1
10
137.777495
20
92.902786
11
136.528705
21
92.719731
0
LINE
8
Layer 1
10
136.528705
20
92.719731
11
135.901438
21
92.789516
0
LINE
8
Layer 1
10
135.901438
20
92.789516
11
135.599142
21
92.862809
0
LINE
8
Layer 1
10
135.599142
20
92.862809
11
135.317436
21
92.952420
0
LINE
8
Layer 1
10
135.317436
20
92.952420
11
134.210336
21
93.245002
0
LINE
8
Layer 1
10
134.210336
20
93.245002
11
133.707399
21
93.362573
0
LINE
8
Layer 1
10
133.707399
20
93.362573
11
134.118721
21
93.653296
0
LINE
8
Layer 1
10
134.118721
20
93.653296
11
134.132773
21
93.663358
0
LINE
8
Layer 1
10
134.132773
20
93.663358
11
135.621253
21
94.318480
0
LINE
8
Layer 1
10
135.621253
20
94.318480
11
136.439654
21
94.366948
0
LINE
8
Layer 1
10
136.439654
20
94.366948
11
137.228464
21
94.251432
0
LINE
8
Layer 1
10
137.228464
20
94.251432
11
138.665854
21
93.884518
0
LINE
8
Layer 1
10
138.665854
20
93.884518
11
140.106724
21
93.863933
0
LINE
8
Layer 1
10
140.106724
20
93.863933
11
139.398000
21
93.535200
0
LINE
8
Layer 1
10
139.398000
20
93.535200
11
139.398000
21
93.535200
0
LINE
8
Layer 1
10
71.634700
20
72.323300
11
70.595431
21
73.495005
0
LINE
8
Layer 1
10
70.595431
20
73.495005
11
69.516467
21
74.446950
0
LINE
8
Layer 1
10
69.516467
20
74.446950
11
68.417948
21
75.424523
0
LINE
8
Layer 1
10
68.417948
20
75.424523
11
67.320010
21
76.673110
0
LINE
8
Layer 1
10
67.320010
20
76.673110
11
66.113492
21
78.679218
0
LINE
8
Layer 1
10
66.113492
20
78.679218
11
65.366086
21
79.755146
0
LINE
8
Layer 1
10
65.366086
20
79.755146
11
64.449420
21
80.614060
0
LINE
8
Layer 1
10
64.449420
20
80.614060
11
62.256157
21
81.977810
0
LINE
8
Layer 1
10
62.256157
20
81.977810
11
59.450749
21
83.244268
0
LINE
8
Layer 1
10
59.450749
20
83.244268
11
57.776383
21
83.732439
0
LINE
8
Layer 1
10
57.776383
20
83.732439
11
55.898451
21
84.066002
0
LINE
8
Layer 1
10
55.898451
20
84.066002
11
53.800111
21
84.201525
0
LINE
8
Layer 1
10
53.800111
20
84.201525
11
51.464520
21
84.095580
0
LINE
8
Layer 1
10
51.464520
20
84.095580
11
51.926751
21
84.282355
0
LINE
8
Layer 1
10
51.926751
20
84.282355
11
52.475348
21
84.714954
0
LINE
8
Layer 1
10
52.475348
20
84.714954
11
53.704140
21
86.031765
0
LINE
8
Layer 1
10
53.704140
20
86.031765
11
55.795650
21
88.470820
0
LINE
8
Layer 1
10
55.795650
20
88.470820
11
58.209161
21
90.442662
0
LINE
8
Layer 1
10
58.209161
20
90.442662
11
60.738237
21
92.264542
0
LINE
8
Layer 1
10
60.738237
20
92.264542
11
63.368330
21
93.943869
0
LINE
8
Layer 1
10
63.368330
20
93.943869
11
66.084891
21
95.488053
0
LINE
8
Layer 1
10
66.084891
20
95.488053
11
71.719225
21
98.200622
0
LINE
8
Layer 1
10
71.719225
20
98.200622
11
77.524850
21
100.461520
0
LINE
8
Layer 1
10
77.524850
20
100.461520
11
81.636609
21
101.776611
0
LINE
8
Layer 1
10
81.636609
20
101.776611
11
85.814100
21
102.865000
0
LINE
8
Layer 1
10
85.814100
20
102.865000
11
88.774430
21
103.731414
0
LINE
8
Layer 1
10
88.774430
20
103.731414
11
90.332415
21
103.966526
0
LINE
8
Layer 1
10
90.332415
20
103.966526
11
91.065802
21
103.917535
0
LINE
8
Layer 1
10
91.065802
20
103.917535
11
91.744000
21
103.712933
0
LINE
8
Layer 1
10
91.744000
20
103.712933
11
90.778893
21
104.876148
0
LINE
8
Layer 1
10
90.778893
20
104.876148
11
89.514998
21
105.843238
0
LINE
8
Layer 1
10
89.514998
20
105.843238
11
88.031149
21
106.600061
0
LINE
8
Layer 1
10
88.031149
20
106.600061
11
86.406181
21
107.132478
0
LINE
8
Layer 1
10
86.406181
20
107.132478
11
84.718928
21
107.426348
0
LINE
8
Layer 1
10
84.718928
20
107.426348
11
83.048224
21
107.467530
0
LINE
8
Layer 1
10
83.048224
20
107.467530
11
81.472903
21
107.241886
0
LINE
8
Layer 1
10
81.472903
20
107.241886
11
80.071800
21
106.735273
0
LINE
8
Layer 1
10
80.071800
20
106.735273
11
85.496740
21
109.748733
0
LINE
8
Layer 1
10
85.496740
20
109.748733
11
83.105970
21
110.379525
0
LINE
8
Layer 1
10
83.105970
20
110.379525
11
81.268842
21
110.772103
0
LINE
8
Layer 1
10
81.268842
20
110.772103
11
79.380280
21
110.849106
0
LINE
8
Layer 1
10
79.380280
20
110.849106
11
77.755420
21
110.452035
0
LINE
8
Layer 1
10
77.755420
20
110.452035
11
76.158700
21
109.854939
0
LINE
8
Layer 1
10
76.158700
20
109.854939
11
71.777930
21
107.999239
0
LINE
8
Layer 1
10
71.777930
20
107.999239
11
71.286322
21
107.757304
0
LINE
8
Layer 1
10
71.286322
20
107.757304
11
71.816744
21
108.115921
0
LINE
8
Layer 1
10
71.816744
20
108.115921
11
72.363834
21
108.492157
0
LINE
8
Layer 1
10
72.363834
20
108.492157
11
73.457064
21
109.254391
0
LINE
8
Layer 1
10
73.457064
20
109.254391
11
75.629474
21
110.814581
0
LINE
8
Layer 1
10
75.629474
20
110.814581
11
76.097508
21
111.160585
0
LINE
8
Layer 1
10
76.097508
20
111.160585
11
74.272288
21
111.142489
0
LINE
8
Layer 1
10
74.272288
20
111.142489
11
73.237518
21
111.079147
0
LINE
8
Layer 1
10
73.237518
20
111.079147
11
70.997608
21
110.876512
0
LINE
8
Layer 1
10
70.997608
20
110.876512
11
69.346808
21
110.607196
0
LINE
8
Layer 1
10
69.346808
20
110.607196
11
67.882468
21
109.949495
0
LINE
8
Layer 1
10
67.882468
20
109.949495
11
65.496108
21
108.765065
0
LINE
8
Layer 1
10
65.496108
20
108.765065
11
61.195228
21
106.437165
0
LINE
8
Layer 1
10
61.195228
20
106.437165
11
59.954358
21
105.717553
0
LINE
8
Layer 1
10
59.954358
20
105.717553
11
64.085458
21
109.526583
0
LINE
8
Layer 1
10
64.085458
20
109.526583
11
61.970558
21
109.033428
0
LINE
8
Layer 1
10
61.970558
20
109.033428
11
57.367458
21
107.710557
0
LINE
8
Layer 1
10
57.367458
20
107.710557
11
55.155598
21
106.848753
0
LINE
8
Layer 1
10
55.155598
20
106.848753
11
52.995538
21
105.753508
0
LINE
8
Layer 1
10
52.995538
20
105.753508
11
51.359786
21
104.570595
0
LINE
8
Layer 1
10
51.359786
20
104.570595
11
49.818608
21
103.219628
0
LINE
8
Layer 1
10
49.818608
20
103.219628
11
48.116258
21
101.565138
0
LINE
8
Layer 1
10
48.116258
20
101.565138
11
46.590958
21
99.981378
0
LINE
8
Layer 1
10
46.590958
20
99.981378
11
49.467018
21
104.711238
0
LINE
8
Layer 1
10
49.467018
20
104.711238
11
49.147574
21
104.550744
0
LINE
8
Layer 1
10
49.147574
20
104.550744
11
48.805273
21
104.394534
0
LINE
8
Layer 1
10
48.805273
20
104.394534
11
46.860273
21
103.492759
0
LINE
8
Layer 1
10
46.860273
20
103.492759
11
43.720951
21
101.788949
0
LINE
8
Layer 1
10
43.720951
20
101.788949
11
42.209059
21
100.855284
0
LINE
8
Layer 1
10
42.209059
20
100.855284
11
40.781563
21
99.762069
0
LINE
8
Layer 1
10
40.781563
20
99.762069
11
39.488139
21
98.488947
0
LINE
8
Layer 1
10
39.488139
20
98.488947
11
38.325847
21
97.097461
0
LINE
8
Layer 1
10
38.325847
20
97.097461
11
36.217673
21
94.133529
0
LINE
8
Layer 1
10
36.217673
20
94.133529
11
34.650213
21
91.318899
0
LINE
8
Layer 1
10
34.650213
20
91.318899
11
34.975491
21
92.684069
0
LINE
8
Layer 1
10
34.975491
20
92.684069
11
35.648221
21
94.323880
0
LINE
8
Layer 1
10
35.648221
20
94.323880
11
36.102891
21
96.031379
0
LINE
8
Layer 1
10
36.102891
20
96.031379
11
35.781305
21
95.713958
0
LINE
8
Layer 1
10
35.781305
20
95.713958
11
35.070862
21
95.040065
0
LINE
8
Layer 1
10
35.070862
20
95.040065
11
34.276125
21
94.267592
0
LINE
8
Layer 1
10
34.276125
20
94.267592
11
31.331245
21
91.171982
0
LINE
8
Layer 1
10
31.331245
20
91.171982
11
30.278025
21
89.973502
0
LINE
8
Layer 1
10
30.278025
20
89.973502
11
29.968656
21
96.031473
0
LINE
8
Layer 1
10
29.968656
20
96.031473
11
30.117307
21
98.976521
0
LINE
8
Layer 1
10
30.117307
20
98.976521
11
30.752011
21
102.203602
0
LINE
8
Layer 1
10
30.752011
20
102.203602
11
31.902330
21
105.745302
0
LINE
8
Layer 1
10
31.902330
20
105.745302
11
33.333507
21
108.996226
0
LINE
8
Layer 1
10
33.333507
20
108.996226
11
35.058300
21
111.967531
0
LINE
8
Layer 1
10
35.058300
20
111.967531
11
37.089466
21
114.670371
0
LINE
8
Layer 1
10
37.089466
20
114.670371
11
39.439763
21
117.115902
0
LINE
8
Layer 1
10
39.439763
20
117.115902
11
42.121947
21
119.315281
0
LINE
8
Layer 1
10
42.121947
20
119.315281
11
45.148778
21
121.279662
0
LINE
8
Layer 1
10
45.148778
20
121.279662
11
48.533011
21
123.020202
0
LINE
8
Layer 1
10
48.533011
20
123.020202
11
45.785251
21
123.943649
0
LINE
8
Layer 1
10
45.785251
20
123.943649
11
44.397947
21
124.143532
0
LINE
8
Layer 1
10
44.397947
20
124.143532
11
42.858271
21
124.019135
0
LINE
8
Layer 1
10
42.858271
20
124.019135
11
41.229764
21
123.513563
0
LINE
8
Layer 1
10
41.229764
20
123.513563
11
39.648640
21
122.734363
0
LINE
8
Layer 1
10
39.648640
20
122.734363
11
36.634301
21
120.894705
0
LINE
8
Layer 1
10
36.634301
20
120.894705
11
41.179971
21
125.173085
0
LINE
8
Layer 1
10
41.179971
20
125.173085
11
38.061021
21
125.264525
0
LINE
8
Layer 1
10
38.061021
20
125.264525
11
35.713984
21
125.230028
0
LINE
8
Layer 1
10
35.713984
20
125.230028
11
34.560578
21
125.103955
0
LINE
8
Layer 1
10
34.560578
20
125.103955
11
33.425701
21
124.827081
0
LINE
8
Layer 1
10
33.425701
20
124.827081
11
31.732861
21
123.961916
0
LINE
8
Layer 1
10
31.732861
20
123.961916
11
30.192451
21
122.852091
0
LINE
8
Layer 1
10
30.192451
20
122.852091
11
28.150313
21
121.206732
0
LINE
8
Layer 1
10
28.150313
20
121.206732
11
26.261900
21
119.387000
0
LINE
8
Layer 1
10
26.261900
20
119.387000
11
25.862209
21
118.945757
0
LINE
8
Layer 1
10
25.862209
20
118.945757
11
26.227847
21
119.517731
0
LINE
8
Layer 1
10
26.227847
20
119.517731
11
26.605155
21
120.111851
0
LINE
8
Layer 1
10
26.605155
20
120.111851
11
27.367510
21
121.302471
0
LINE
8
Layer 1
10
27.367510
20
121.302471
11
28.952230
21
123.642991
0
LINE
8
Layer 1
10
28.952230
20
123.642991
11
29.298940
21
124.143529
0
LINE
8
Layer 1
10
29.298940
20
124.143529
11
27.138440
21
123.506554
0
LINE
8
Layer 1
10
27.138440
20
123.506554
11
25.957470
21
123.041257
0
LINE
8
Layer 1
10
25.957470
20
123.041257
11
23.467290
21
121.935177
0
LINE
8
Layer 1
10
23.467290
20
121.935177
11
21.745530
21
120.942676
0
LINE
8
Layer 1
10
21.745530
20
120.942676
11
20.537600
21
119.576000
0
LINE
8
Layer 1
10
20.537600
20
119.576000
11
18.715350
21
117.160230
0
LINE
8
Layer 1
10
18.715350
20
117.160230
11
17.253149
21
114.820664
0
LINE
8
Layer 1
10
17.253149
20
114.820664
11
15.906320
21
112.416800
0
LINE
8
Layer 1
10
15.906320
20
112.416800
11
15.163134
21
110.960430
0
LINE
8
Layer 1
10
15.163134
20
110.960430
11
16.644514
21
117.153790
0
LINE
8
Layer 1
10
16.644514
20
117.153790
11
14.745234
21
115.427870
0
LINE
8
Layer 1
10
14.745234
20
115.427870
11
12.744317
21
113.379935
0
LINE
8
Layer 1
10
12.744317
20
113.379935
11
10.944743
21
111.266234
0
LINE
8
Layer 1
10
10.944743
20
111.266234
11
9.398726
21
108.970993
0
LINE
8
Layer 1
10
9.398726
20
108.970993
11
8.158484
21
106.378440
0
LINE
8
Layer 1
10
8.158484
20
106.378440
11
7.809707
21
105.230555
0
LINE
8
Layer 1
10
7.809707
20
105.230555
11
7.589963
21
104.040121
0
LINE
8
Layer 1
10
7.589963
20
104.040121
11
7.324693
21
101.613580
0
LINE
8
Layer 1
10
7.324693
20
101.613580
11
7.266711
21
98.788480
0
LINE
8
Layer 1
10
7.266711
20
98.788480
11
7.219216
21
97.504307
0
LINE
8
Layer 1
10
7.219216
20
97.504307
11
7.311121
21
96.200310
0
LINE
8
Layer 1
10
7.311121
20
96.200310
11
6.378405
21
99.468915
0
LINE
8
Layer 1
10
6.378405
20
99.468915
11
5.623040
21
102.783000
0
LINE
8
Layer 1
10
5.623040
20
102.783000
11
5.458505
21
102.391276
0
LINE
8
Layer 1
10
5.458505
20
102.391276
11
5.274793
21
101.986225
0
LINE
8
Layer 1
10
5.274793
20
101.986225
11
4.250613
21
99.675235
0
LINE
8
Layer 1
10
4.250613
20
99.675235
11
2.882634
21
95.703799
0
LINE
8
Layer 1
10
2.882634
20
95.703799
11
2.363146
21
93.685554
0
LINE
8
Layer 1
10
2.363146
20
93.685554
11
2.099283
21
91.592345
0
LINE
8
Layer 1
10
2.099283
20
91.592345
11
2.151323
21
89.474306
0
LINE
8
Layer 1
10
2.151323
20
89.474306
11
2.456931
21
87.398503
0
LINE
8
Layer 1
10
2.456931
20
87.398503
11
3.529933
21
83.317535
0
LINE
8
Layer 1
10
3.529933
20
83.317535
11
4.235524
21
81.584201
0
LINE
8
Layer 1
10
4.235524
20
81.584201
11
5.092743
21
79.922125
0
LINE
8
Layer 1
10
5.092743
20
79.922125
11
3.143624
21
82.879929
0
LINE
8
Layer 1
10
3.143624
20
82.879929
11
1.238343
21
85.918095
0
LINE
8
Layer 1
10
1.238343
20
85.918095
11
0.802679
21
86.594814
0
LINE
8
Layer 1
10
0.802679
20
86.594814
11
0.481229
21
87.384235
0
LINE
8
Layer 1
10
0.481229
20
87.384235
11
0.158608
21
85.110967
0
LINE
8
Layer 1
10
0.158608
20
85.110967
11
0.013784
21
82.815600
0
LINE
8
Layer 1
10
0.013784
20
82.815600
11
0.265182
21
80.358158
0
LINE
8
Layer 1
10
0.265182
20
80.358158
11
0.732170
21
77.967688
0
LINE
8
Layer 1
10
0.732170
20
77.967688
11
1.444950
21
75.645531
0
LINE
8
Layer 1
10
1.444950
20
75.645531
11
2.433724
21
73.393030
0
LINE
8
Layer 1
10
2.433724
20
73.393030
11
3.785752
21
71.131427
0
LINE
8
Layer 1
10
3.785752
20
71.131427
11
5.321486
21
69.010775
0
LINE
8
Layer 1
10
5.321486
20
69.010775
11
6.901557
21
66.926108
0
LINE
8
Layer 1
10
6.901557
20
66.926108
11
8.386594
21
64.772460
0
LINE
8
Layer 1
10
8.386594
20
64.772460
11
7.214978
21
65.551784
0
LINE
8
Layer 1
10
7.214978
20
65.551784
11
5.999514
21
66.092860
0
LINE
8
Layer 1
10
5.999514
20
66.092860
11
2.683990
21
67.361300
0
LINE
8
Layer 1
10
2.683990
20
67.361300
11
3.101444
21
66.962144
0
LINE
8
Layer 1
10
3.101444
20
66.962144
11
3.466706
21
66.426902
0
LINE
8
Layer 1
10
3.466706
20
66.426902
11
4.042610
21
65.434640
0
LINE
8
Layer 1
10
4.042610
20
65.434640
11
5.556960
21
63.504410
0
LINE
8
Layer 1
10
5.556960
20
63.504410
11
7.189390
21
61.391920
0
LINE
8
Layer 1
10
7.189390
20
61.391920
11
8.681270
21
59.226750
0
LINE
8
Layer 1
10
8.681270
20
59.226750
11
10.261608
21
56.269458
0
LINE
8
Layer 1
10
10.261608
20
56.269458
11
10.865640
21
54.729655
0
LINE
8
Layer 1
10
10.865640
20
54.729655
11
11.288850
21
53.131250
0
LINE
8
Layer 1
10
11.288850
20
53.131250
11
11.399546
21
51.706675
0
LINE
8
Layer 1
10
11.399546
20
51.706675
11
11.237814
21
50.358026
0
LINE
8
Layer 1
10
11.237814
20
50.358026
11
10.603767
21
47.659630
0
LINE
8
Layer 1
10
10.603767
20
47.659630
11
10.486013
21
47.132899
0
LINE
8
Layer 1
10
10.486013
20
47.132899
11
10.407908
21
46.701664
0
LINE
8
Layer 1
10
10.407908
20
46.701664
11
9.756283
21
44.516874
0
LINE
8
Layer 1
10
9.756283
20
44.516874
11
8.647933
21
39.843694
0
LINE
8
Layer 1
10
8.647933
20
39.843694
11
8.479579
21
38.563294
0
LINE
8
Layer 1
10
8.479579
20
38.563294
11
9.784259
21
41.099794
0
LINE
8
Layer 1
10
9.784259
20
41.099794
11
9.675556
21
40.477339
0
LINE
8
Layer 1
10
9.675556
20
40.477339
11
9.588403
21
39.827260
0
LINE
8
Layer 1
10
9.588403
20
39.827260
11
9.577959
21
36.213249
0
LINE
8
Layer 1
10
9.577959
20
36.213249
11
9.939278
21
32.617330
0
LINE
8
Layer 1
10
9.939278
20
32.617330
11
10.768545
21
27.440280
0
LINE
8
Layer 1
10
10.768545
20
27.440280
11
11.377191
21
23.740070
0
LINE
8
Layer 1
10
11.377191
20
23.740070
11
11.884753
21
21.710540
0
LINE
8
Layer 1
10
11.884753
20
21.710540
11
12.514591
21
19.960330
0
LINE
8
Layer 1
10
12.514591
20
19.960330
11
12.953336
21
23.964390
0
LINE
8
Layer 1
10
12.953336
20
23.964390
11
14.008624
21
20.519656
0
LINE
8
Layer 1
10
14.008624
20
20.519656
11
15.253496
21
17.169760
0
LINE
8
Layer 1
10
15.253496
20
17.169760
11
16.584565
21
14.380880
0
LINE
8
Layer 1
10
16.584565
20
14.380880
11
18.001446
21
11.683620
0
LINE
8
Layer 1
10
18.001446
20
11.683620
11
18.744971
21
10.422157
0
LINE
8
Layer 1
10
18.744971
20
10.422157
11
19.632006
21
9.257130
0
LINE
8
Layer 1
10
19.632006
20
9.257130
11
20.606843
21
8.271726
0
LINE
8
Layer 1
10
20.606843
20
8.271726
11
21.721906
21
7.448340
0
LINE
8
Layer 1
10
21.721906
20
7.448340
11
23.089317
21
6.737032
0
LINE
8
Layer 1
10
23.089317
20
6.737032
11
24.537006
21
6.107700
0
LINE
8
Layer 1
10
24.537006
20
6.107700
11
25.985636
21
5.565966
0
LINE
8
Layer 1
10
25.985636
20
5.565966
11
27.278776
21
5.366181
0
LINE
8
Layer 1
10
27.278776
20
5.366181
11
25.625051
21
6.979859
0
LINE
8
Layer 1
10
25.625051
20
6.979859
11
24.059466
21
8.686581
0
LINE
8
Layer 1
10
24.059466
20
8.686581
11
23.652589
21
9.467472
0
LINE
8
Layer 1
10
23.652589
20
9.467472
11
23.445105
21
10.323211
0
LINE
8
Layer 1
10
23.445105
20
10.323211
11
23.354616
21
11.292378
0
LINE
8
Layer 1
10
23.354616
20
11.292378
11
25.964471
21
9.713586
0
LINE
8
Layer 1
10
25.964471
20
9.713586
11
28.708366
21
8.381308
0
LINE
8
Layer 1
10
28.708366
20
8.381308
11
31.388816
21
7.411667
0
LINE
8
Layer 1
10
31.388816
20
7.411667
11
33.929600
21
6.457720
0
LINE
8
Layer 1
10
33.929600
20
6.457720
11
31.498286
21
8.317556
0
LINE
8
Layer 1
10
31.498286
20
8.317556
11
30.384409
21
9.339372
0
LINE
8
Layer 1
10
30.384409
20
9.339372
11
29.387380
21
10.530830
0
LINE
8
Layer 1
10
29.387380
20
10.530830
11
27.947786
21
13.031161
0
LINE
8
Layer 1
10
27.947786
20
13.031161
11
26.620970
21
15.641690
0
LINE
8
Layer 1
10
26.620970
20
15.641690
11
25.207532
21
18.334936
0
LINE
8
Layer 1
10
25.207532
20
18.334936
11
24.024110
21
21.136880
0
LINE
8
Layer 1
10
24.024110
20
21.136880
11
25.420306
21
18.745160
0
LINE
8
Layer 1
10
25.420306
20
18.745160
11
26.213420
21
17.615270
0
LINE
8
Layer 1
10
26.213420
20
17.615270
11
27.119840
21
16.574900
0
LINE
8
Layer 1
10
27.119840
20
16.574900
11
28.129171
21
15.693599
0
LINE
8
Layer 1
10
28.129171
20
15.693599
11
29.206984
21
14.982117
0
LINE
8
Layer 1
10
29.206984
20
14.982117
11
31.573720
21
13.852430
0
LINE
8
Layer 1
10
31.573720
20
13.852430
11
30.527400
21
16.077470
0
LINE
8
Layer 1
10
30.527400
20
16.077470
11
32.312700
21
14.655794
0
LINE
8
Layer 1
10
32.312700
20
14.655794
11
34.310840
21
13.553120
0
LINE
8
Layer 1
10
34.310840
20
13.553120
11
36.823365
21
12.521043
0
LINE
8
Layer 1
10
36.823365
20
12.521043
11
39.409670
21
11.690990
0
LINE
8
Layer 1
10
39.409670
20
11.690990
11
35.661121
21
15.834529
0
LINE
8
Layer 1
10
35.661121
20
15.834529
11
32.121170
21
20.203450
0
LINE
8
Layer 1
10
32.121170
20
20.203450
11
28.546330
21
24.692330
0
LINE
8
Layer 1
10
28.546330
20
24.692330
11
30.702224
21
22.987223
0
LINE
8
Layer 1
10
30.702224
20
22.987223
11
33.018394
21
21.521113
0
LINE
8
Layer 1
10
33.018394
20
21.521113
11
35.475102
21
20.305091
0
LINE
8
Layer 1
10
35.475102
20
20.305091
11
38.052610
21
19.350250
0
LINE
8
Layer 1
10
38.052610
20
19.350250
11
38.349922
21
19.331618
0
LINE
8
Layer 1
10
38.349922
20
19.331618
11
38.546239
21
19.534084
0
LINE
8
Layer 1
10
38.546239
20
19.534084
11
37.474679
21
20.475625
0
LINE
8
Layer 1
10
37.474679
20
20.475625
11
34.468009
21
23.859375
0
LINE
8
Layer 1
10
34.468009
20
23.859375
11
37.162713
21
21.849486
0
LINE
8
Layer 1
10
37.162713
20
21.849486
11
38.623313
21
21.063408
0
LINE
8
Layer 1
10
38.623313
20
21.063408
11
40.211919
21
20.467535
0
LINE
8
Layer 1
10
40.211919
20
20.467535
11
41.886242
21
20.070269
0
LINE
8
Layer 1
10
41.886242
20
20.070269
11
43.574765
21
19.809002
0
LINE
8
Layer 1
10
43.574765
20
19.809002
11
46.975479
21
19.401215
0
LINE
8
Layer 1
10
46.975479
20
19.401215
11
43.913791
21
21.401886
0
LINE
8
Layer 1
10
43.913791
20
21.401886
11
41.142519
21
23.788655
0
LINE
8
Layer 1
10
41.142519
20
23.788655
11
39.078819
21
26.296575
0
LINE
8
Layer 1
10
39.078819
20
26.296575
11
37.543174
21
28.568399
0
LINE
8
Layer 1
10
37.543174
20
28.568399
11
36.109409
21
30.886655
0
LINE
8
Layer 1
10
36.109409
20
30.886655
11
34.653968
21
32.728812
0
LINE
8
Layer 1
10
34.653968
20
32.728812
11
32.941169
21
34.333265
0
LINE
8
Layer 1
10
32.941169
20
34.333265
11
31.085229
21
35.941555
0
LINE
8
Layer 1
10
31.085229
20
35.941555
11
30.284418
21
36.738081
0
LINE
8
Layer 1
10
30.284418
20
36.738081
11
33.573388
21
36.339936
0
LINE
8
Layer 1
10
33.573388
20
36.339936
11
32.436108
21
37.716046
0
LINE
8
Layer 1
10
32.436108
20
37.716046
11
31.588994
21
39.241640
0
LINE
8
Layer 1
10
31.588994
20
39.241640
11
30.981878
21
40.877626
0
LINE
8
Layer 1
10
30.981878
20
40.877626
11
30.347753
21
42.418046
0
LINE
8
Layer 1
10
30.347753
20
42.418046
11
29.870197
21
44.354476
0
LINE
8
Layer 1
10
29.870197
20
44.354476
11
29.848289
21
44.605279
0
LINE
8
Layer 1
10
29.848289
20
44.605279
11
29.942466
21
44.843584
0
LINE
8
Layer 1
10
29.942466
20
44.843584
11
30.812319
21
45.380139
0
LINE
8
Layer 1
10
30.812319
20
45.380139
11
31.822346
21
45.536287
0
LINE
8
Layer 1
10
31.822346
20
45.536287
11
32.756724
21
45.433460
0
LINE
8
Layer 1
10
32.756724
20
45.433460
11
33.622446
21
45.067180
0
LINE
8
Layer 1
10
33.622446
20
45.067180
11
35.338486
21
43.833700
0
LINE
8
Layer 1
10
35.338486
20
43.833700
11
36.391706
21
43.023125
0
LINE
8
Layer 1
10
36.391706
20
43.023125
11
38.080836
21
40.720945
0
LINE
8
Layer 1
10
38.080836
20
40.720945
11
39.220376
21
39.637005
0
LINE
8
Layer 1
10
39.220376
20
39.637005
11
39.828189
21
39.151947
0
LINE
8
Layer 1
10
39.828189
20
39.151947
11
40.411593
21
38.675460
0
LINE
8
Layer 1
10
40.411593
20
38.675460
11
41.571973
21
37.715341
0
LINE
8
Layer 1
10
41.571973
20
37.715341
11
42.175618
21
37.290526
0
LINE
8
Layer 1
10
42.175618
20
37.290526
11
42.523400
21
37.078834
0
LINE
8
Layer 1
10
42.523400
20
37.078834
11
42.709850
21
36.986917
0
LINE
8
Layer 1
10
42.709850
20
36.986917
11
42.841890
21
36.913339
0
LINE
8
Layer 1
10
42.841890
20
36.913339
11
42.959046
21
36.794038
0
LINE
8
Layer 1
10
42.959046
20
36.794038
11
42.908088
21
36.730696
0
LINE
8
Layer 1
10
42.908088
20
36.730696
11
42.638174
21
36.593062
0
LINE
8
Layer 1
10
42.638174
20
36.593062
11
42.287894
21
36.455662
0
LINE
8
Layer 1
10
42.287894
20
36.455662
11
41.591618
21
36.186106
0
LINE
8
Layer 1
10
41.591618
20
36.186106
11
41.423623
21
36.106336
0
LINE
8
Layer 1
10
41.423623
20
36.106336
11
41.323730
21
36.055852
0
LINE
8
Layer 1
10
41.323730
20
36.055852
11
41.204548
21
35.987749
0
LINE
8
Layer 1
10
41.204548
20
35.987749
11
40.864626
21
35.704144
0
LINE
8
Layer 1
10
40.864626
20
35.704144
11
40.632098
21
35.298142
0
LINE
8
Layer 1
10
40.632098
20
35.298142
11
40.579117
21
35.014774
0
LINE
8
Layer 1
10
40.579117
20
35.014774
11
40.149423
21
34.341596
0
LINE
8
Layer 1
10
40.149423
20
34.341596
11
39.947135
21
33.422438
0
LINE
8
Layer 1
10
39.947135
20
33.422438
11
40.239314
21
32.578764
0
LINE
8
Layer 1
10
40.239314
20
32.578764
11
40.802598
21
31.944876
0
LINE
8
Layer 1
10
40.802598
20
31.944876
11
40.504572
21
32.667584
0
LINE
8
Layer 1
10
40.504572
20
32.667584
11
40.506598
21
33.365288
0
LINE
8
Layer 1
10
40.506598
20
33.365288
11
40.791170
21
33.837270
0
LINE
8
Layer 1
10
40.791170
20
33.837270
11
41.207637
21
34.198246
0
LINE
8
Layer 1
10
41.207637
20
34.198246
11
41.426712
21
34.163956
0
LINE
8
Layer 1
10
41.426712
20
34.163956
11
41.686743
21
34.184671
0
LINE
8
Layer 1
10
41.686743
20
34.184671
11
41.835451
21
34.229200
0
LINE
8
Layer 1
10
41.835451
20
34.229200
11
41.970229
21
34.294447
0
LINE
8
Layer 1
10
41.970229
20
34.294447
11
42.296339
21
34.513282
0
LINE
8
Layer 1
10
42.296339
20
34.513282
11
42.581138
21
34.702831
0
LINE
8
Layer 1
10
42.581138
20
34.702831
11
42.907248
21
34.880233
0
LINE
8
Layer 1
10
42.907248
20
34.880233
11
43.222047
21
35.040967
0
LINE
8
Layer 1
10
43.222047
20
35.040967
11
43.394806
21
35.118595
0
LINE
8
Layer 1
10
43.394806
20
35.118595
11
43.552207
21
35.181460
0
LINE
8
Layer 1
10
43.552207
20
35.181460
11
44.198120
21
35.260765
0
LINE
8
Layer 1
10
44.198120
20
35.260765
11
44.861534
21
35.154322
0
LINE
8
Layer 1
10
44.861534
20
35.154322
11
45.435054
21
34.890481
0
LINE
8
Layer 1
10
45.435054
20
34.890481
11
45.711042
21
34.671406
0
LINE
8
Layer 1
10
45.711042
20
34.671406
11
45.957619
21
34.396849
0
LINE
8
Layer 1
10
45.957619
20
34.396849
11
46.529593
21
33.872737
0
LINE
8
Layer 1
10
46.529593
20
33.872737
11
46.964407
21
33.722959
0
LINE
8
Layer 1
10
46.964407
20
33.722959
11
47.087518
21
33.701050
0
LINE
8
Layer 1
10
47.087518
20
33.701050
11
47.176934
21
33.587941
0
LINE
8
Layer 1
10
47.176934
20
33.587941
11
47.287661
21
33.241937
0
LINE
8
Layer 1
10
47.287661
20
33.241937
11
47.142881
21
32.511134
0
LINE
8
Layer 1
10
47.142881
20
32.511134
11
47.833560
21
33.199076
0
LINE
8
Layer 1
10
47.833560
20
33.199076
11
48.002986
21
33.698891
0
LINE
8
Layer 1
10
48.002986
20
33.698891
11
47.980959
21
34.200143
0
LINE
8
Layer 1
10
47.980959
20
34.200143
11
48.028225
21
34.372067
0
LINE
8
Layer 1
10
48.028225
20
34.372067
11
48.064183
21
34.596857
0
LINE
8
Layer 1
10
48.064183
20
34.596857
11
48.063111
21
34.811168
0
LINE
8
Layer 1
10
48.063111
20
34.811168
11
48.177651
21
34.745207
0
LINE
8
Layer 1
10
48.177651
20
34.745207
11
48.214083
21
34.702109
0
LINE
8
Layer 1
10
48.214083
20
34.702109
11
48.231942
21
34.673057
0
LINE
8
Layer 1
10
48.231942
20
34.673057
11
48.259566
21
34.623050
0
LINE
8
Layer 1
10
48.259566
20
34.623050
11
48.418395
21
34.399928
0
LINE
8
Layer 1
10
48.418395
20
34.399928
11
48.865830
21
34.141562
0
LINE
8
Layer 1
10
48.865830
20
34.141562
11
49.008705
21
34.114892
0
LINE
8
Layer 1
10
49.008705
20
34.114892
11
49.018230
21
34.088927
0
LINE
8
Layer 1
10
49.018230
20
34.088927
11
49.308741
21
33.861518
0
LINE
8
Layer 1
10
49.308741
20
33.861518
11
49.509598
21
33.476231
0
LINE
8
Layer 1
10
49.509598
20
33.476231
11
49.593178
21
32.470391
0
LINE
8
Layer 1
10
49.593178
20
32.470391
11
50.068722
21
33.513851
0
LINE
8
Layer 1
10
50.068722
20
33.513851
11
50.103963
21
34.137500
0
LINE
8
Layer 1
10
50.103963
20
34.137500
11
49.916680
21
34.712807
0
LINE
8
Layer 1
10
49.916680
20
34.712807
11
49.944301
21
35.131430
0
LINE
8
Layer 1
10
49.944301
20
35.131430
11
49.822977
21
35.580533
0
LINE
8
Layer 1
10
49.822977
20
35.580533
11
49.752611
21
35.709836
0
LINE
8
Layer 1
10
49.752611
20
35.709836
11
49.749873
21
35.964629
0
LINE
8
Layer 1
10
49.749873
20
35.964629
11
49.598546
21
36.324671
0
LINE
8
Layer 1
10
49.598546
20
36.324671
11
49.115986
21
36.767582
0
LINE
8
Layer 1
10
49.115986
20
36.767582
11
48.889889
21
37.015709
0
LINE
8
Layer 1
10
48.889889
20
37.015709
11
47.708079
21
37.419806
0
LINE
8
Layer 1
10
47.708079
20
37.419806
11
47.618067
21
37.430997
0
LINE
8
Layer 1
10
47.618067
20
37.430997
11
46.968110
21
37.453857
0
LINE
8
Layer 1
10
46.968110
20
37.453857
11
46.471622
21
37.462191
0
LINE
8
Layer 1
10
46.471622
20
37.462191
11
45.423282
21
37.867242
0
LINE
8
Layer 1
10
45.423282
20
37.867242
11
44.469713
21
38.478744
0
LINE
8
Layer 1
10
44.469713
20
38.478744
11
43.235393
21
39.258839
0
LINE
8
Layer 1
10
43.235393
20
39.258839
11
42.253520
21
39.958136
0
LINE
8
Layer 1
10
42.253520
20
39.958136
11
41.389813
21
40.799029
0
LINE
8
Layer 1
10
41.389813
20
40.799029
11
40.297118
21
42.517575
0
LINE
8
Layer 1
10
40.297118
20
42.517575
11
39.612093
21
44.435419
0
LINE
8
Layer 1
10
39.612093
20
44.435419
11
39.598088
21
46.266609
0
LINE
8
Layer 1
10
39.598088
20
46.266609
11
39.415401
21
48.088719
0
LINE
8
Layer 1
10
39.415401
20
48.088719
11
39.360038
21
48.746895
0
LINE
8
Layer 1
10
39.360038
20
48.746895
11
41.807958
21
47.948941
0
LINE
8
Layer 1
10
41.807958
20
47.948941
11
42.003933
21
47.956798
0
LINE
8
Layer 1
10
42.003933
20
47.956798
11
42.052986
21
47.925844
0
LINE
8
Layer 1
10
42.052986
20
47.925844
11
42.728251
21
47.490195
0
LINE
8
Layer 1
10
42.728251
20
47.490195
11
43.505666
21
47.127413
0
LINE
8
Layer 1
10
43.505666
20
47.127413
11
45.205756
21
46.688558
0
LINE
8
Layer 1
10
45.205756
20
46.688558
11
45.899650
21
46.503773
0
LINE
8
Layer 1
10
45.899650
20
46.503773
11
46.330844
21
46.248797
0
LINE
8
Layer 1
10
46.330844
20
46.248797
11
46.658790
21
45.870125
0
LINE
8
Layer 1
10
46.658790
20
45.870125
11
46.642954
21
45.581519
0
LINE
8
Layer 1
10
46.642954
20
45.581519
11
46.394235
21
45.388877
0
LINE
8
Layer 1
10
46.394235
20
45.388877
11
46.353990
21
45.366017
0
LINE
8
Layer 1
10
46.353990
20
45.366017
11
45.333510
21
44.805473
0
LINE
8
Layer 1
10
45.333510
20
44.805473
11
44.616878
21
44.049428
0
LINE
8
Layer 1
10
44.616878
20
44.049428
11
44.279575
21
43.694861
0
LINE
8
Layer 1
10
44.279575
20
43.694861
11
44.188968
21
43.551272
0
LINE
8
Layer 1
10
44.188968
20
43.551272
11
44.125866
21
43.416254
0
LINE
8
Layer 1
10
44.125866
20
43.416254
11
44.046333
21
43.175273
0
LINE
8
Layer 1
10
44.046333
20
43.175273
11
44.117887
21
42.228729
0
LINE
8
Layer 1
10
44.117887
20
42.228729
11
44.703317
21
41.528643
0
LINE
8
Layer 1
10
44.703317
20
41.528643
11
45.530560
21
41.278377
0
LINE
8
Layer 1
10
45.530560
20
41.278377
11
44.904769
21
41.706522
0
LINE
8
Layer 1
10
44.904769
20
41.706522
11
44.667595
21
42.312072
0
LINE
8
Layer 1
10
44.667595
20
42.312072
11
44.825950
21
42.859998
0
LINE
8
Layer 1
10
44.825950
20
42.859998
11
44.935456
21
43.016683
0
LINE
8
Layer 1
10
44.935456
20
43.016683
11
45.111937
21
43.077642
0
LINE
8
Layer 1
10
45.111937
20
43.077642
11
45.739511
21
42.945246
0
LINE
8
Layer 1
10
45.739511
20
42.945246
11
46.322738
21
43.173372
0
LINE
8
Layer 1
10
46.322738
20
43.173372
11
46.799161
21
43.645806
0
LINE
8
Layer 1
10
46.799161
20
43.645806
11
47.050279
21
44.114375
0
LINE
8
Layer 1
10
47.050279
20
44.114375
11
47.196292
21
44.311847
0
LINE
8
Layer 1
10
47.196292
20
44.311847
11
47.605808
21
44.552585
0
LINE
8
Layer 1
10
47.605808
20
44.552585
11
48.651427
21
44.786675
0
LINE
8
Layer 1
10
48.651427
20
44.786675
11
49.793228
21
44.634380
0
LINE
8
Layer 1
10
49.793228
20
44.634380
11
50.888440
21
44.132400
0
LINE
8
Layer 1
10
50.888440
20
44.132400
11
51.794288
21
43.317435
0
LINE
8
Layer 1
10
51.794288
20
43.317435
11
51.915731
21
42.855948
0
LINE
8
Layer 1
10
51.915731
20
42.855948
11
51.990395
21
42.401097
0
LINE
8
Layer 1
10
51.990395
20
42.401097
11
52.224338
21
42.003940
0
LINE
8
Layer 1
10
52.224338
20
42.003940
11
51.924661
21
41.445301
0
LINE
8
Layer 1
10
51.924661
20
41.445301
11
51.517468
21
41.095258
0
LINE
8
Layer 1
10
51.517468
20
41.095258
11
50.995498
21
40.847611
0
LINE
8
Layer 1
10
50.995498
20
40.847611
11
51.612003
21
40.847611
0
LINE
8
Layer 1
10
51.612003
20
40.847611
11
52.243616
21
41.010010
0
LINE
8
Layer 1
10
52.243616
20
41.010010
11
52.808907
21
41.345527
0
LINE
8
Layer 1
10
52.808907
20
41.345527
11
53.188716
21
41.682949
0
LINE
8
Layer 1
10
53.188716
20
41.682949
11
53.373024
21
41.774388
0
LINE
8
Layer 1
10
53.373024
20
41.774388
11
53.826714
21
42.200521
0
LINE
8
Layer 1
10
53.826714
20
42.200521
11
54.045249
21
42.783328
0
LINE
8
Layer 1
10
54.045249
20
42.783328
11
53.933823
21
43.277318
0
LINE
8
Layer 1
10
53.933823
20
43.277318
11
53.699970
21
43.720587
0
LINE
8
Layer 1
10
53.699970
20
43.720587
11
53.906461
21
44.214325
0
LINE
8
Layer 1
10
53.906461
20
44.214325
11
53.846892
21
44.746177
0
LINE
8
Layer 1
10
53.846892
20
44.746177
11
53.191573
21
45.389590
0
LINE
8
Layer 1
10
53.191573
20
45.389590
11
51.993748
21
45.983115
0
LINE
8
Layer 1
10
51.993748
20
45.983115
11
50.767353
21
46.489490
0
LINE
8
Layer 1
10
50.767353
20
46.489490
11
48.468983
21
47.437699
0
LINE
8
Layer 1
10
48.468983
20
47.437699
11
47.076673
21
47.843701
0
LINE
8
Layer 1
10
47.076673
20
47.843701
11
46.426594
21
48.022534
0
LINE
8
Layer 1
10
46.426594
20
48.022534
11
46.166442
21
48.092303
0
LINE
8
Layer 1
10
46.166442
20
48.092303
11
45.746510
21
48.217327
0
LINE
8
Layer 1
10
45.746510
20
48.217327
11
45.583516
21
48.278287
0
LINE
8
Layer 1
10
45.583516
20
48.278287
11
44.787585
21
48.678814
0
LINE
8
Layer 1
10
44.787585
20
48.678814
11
44.266809
21
49.170064
0
LINE
8
Layer 1
10
44.266809
20
49.170064
11
43.811991
21
49.823476
0
LINE
8
Layer 1
10
43.811991
20
49.823476
11
43.556301
21
51.537792
0
LINE
8
Layer 1
10
43.556301
20
51.537792
11
43.196321
21
53.223886
0
LINE
8
Layer 1
10
43.196321
20
53.223886
11
43.154360
21
55.416575
0
LINE
8
Layer 1
10
43.154360
20
55.416575
11
43.594107
21
57.565126
0
LINE
8
Layer 1
10
43.594107
20
57.565126
11
44.079122
21
58.598138
0
LINE
8
Layer 1
10
44.079122
20
58.598138
11
44.608877
21
59.544176
0
LINE
8
Layer 1
10
44.608877
20
59.544176
11
45.244564
21
60.925889
0
LINE
8
Layer 1
10
45.244564
20
60.925889
11
46.001427
21
62.179016
0
LINE
8
Layer 1
10
46.001427
20
62.179016
11
46.929465
21
63.154281
0
LINE
8
Layer 1
10
46.929465
20
63.154281
11
48.004637
21
63.964466
0
LINE
8
Layer 1
10
48.004637
20
63.964466
11
49.744331
21
64.957917
0
LINE
8
Layer 1
10
49.744331
20
64.957917
11
51.519117
21
65.886366
0
LINE
8
Layer 1
10
51.519117
20
65.886366
11
51.935713
21
66.180441
0
LINE
8
Layer 1
10
51.935713
20
66.180441
11
50.963094
21
66.570966
0
LINE
8
Layer 1
10
50.963094
20
66.570966
11
53.207901
21
67.158648
0
LINE
8
Layer 1
10
53.207901
20
67.158648
11
55.399344
21
67.921606
0
LINE
8
Layer 1
10
55.399344
20
67.921606
11
55.650507
21
68.067696
0
LINE
8
Layer 1
10
55.650507
20
68.067696
11
55.949889
21
68.133775
0
LINE
8
Layer 1
10
55.949889
20
68.133775
11
55.295165
21
68.593594
0
LINE
8
Layer 1
10
55.295165
20
68.593594
11
57.934640
21
69.040999
0
LINE
8
Layer 1
10
57.934640
20
69.040999
11
60.536165
21
69.664674
0
LINE
8
Layer 1
10
60.536165
20
69.664674
11
60.080275
21
70.146636
0
LINE
8
Layer 1
10
60.080275
20
70.146636
11
61.990376
21
69.683561
0
LINE
8
Layer 1
10
61.990376
20
69.683561
11
63.942765
21
69.457506
0
LINE
8
Layer 1
10
63.942765
20
69.457506
11
63.508902
21
70.032813
0
LINE
8
Layer 1
10
63.508902
20
70.032813
11
66.169645
21
68.804063
0
LINE
8
Layer 1
10
66.169645
20
68.804063
11
68.759302
21
67.397973
0
LINE
8
Layer 1
10
68.759302
20
67.397973
11
70.258814
21
66.684247
0
LINE
8
Layer 1
10
70.258814
20
66.684247
11
71.817412
21
66.110913
0
LINE
8
Layer 1
10
71.817412
20
66.110913
11
73.215322
21
65.889456
0
LINE
8
Layer 1
10
73.215322
20
65.889456
11
73.656342
21
65.936814
0
LINE
8
Layer 1
10
73.656342
20
65.936814
11
73.911716
21
66.195447
0
LINE
8
Layer 1
10
73.911716
20
66.195447
11
73.679767
21
67.839032
0
LINE
8
Layer 1
10
73.679767
20
67.839032
11
73.216977
21
69.424271
0
LINE
8
Layer 1
10
73.216977
20
69.424271
11
72.532303
21
70.927061
0
LINE
8
Layer 1
10
72.532303
20
70.927061
11
71.634700
21
72.323300
0
LINE
8
Layer 1
10
71.634700
20
72.323300
11
71.634700
21
72.323300
0
LINE
8
Layer 1
10
63.620390
20
77.319860
11
62.594670
21
77.683238
0
LINE
8
Layer 1
10
62.594670
20
77.683238
11
62.325712
21
77.757533
0
LINE
8
Layer 1
10
62.325712
20
77.757533
11
62.031273
21
77.852543
0
LINE
8
Layer 1
10
62.031273
20
77.852543
11
61.511330
21
78.067331
0
LINE
8
Layer 1
10
61.511330
20
78.067331
11
60.570264
21
78.748615
0
LINE
8
Layer 1
10
60.570264
20
78.748615
11
59.872797
21
79.650879
0
LINE
8
Layer 1
10
59.872797
20
79.650879
11
59.464295
21
79.952823
0
LINE
8
Layer 1
10
59.464295
20
79.952823
11
58.992451
21
80.490267
0
LINE
8
Layer 1
10
58.992451
20
80.490267
11
60.214391
21
79.900423
0
LINE
8
Layer 1
10
60.214391
20
79.900423
11
61.538841
21
79.548715
0
LINE
8
Layer 1
10
61.538841
20
79.548715
11
62.224640
21
79.293922
0
LINE
8
Layer 1
10
62.224640
20
79.293922
11
62.872935
21
78.868630
0
LINE
8
Layer 1
10
62.872935
20
78.868630
11
63.840790
21
77.605140
0
LINE
8
Layer 1
10
63.840790
20
77.605140
11
63.854602
21
77.571801
0
LINE
8
Layer 1
10
63.854602
20
77.571801
11
64.037837
21
77.141511
0
LINE
8
Layer 1
10
64.037837
20
77.141511
11
63.620400
21
77.319900
0
LINE
8
Layer 1
10
63.620400
20
77.319900
11
63.620390
21
77.319860
 0 
ENDSEC
 0 
EOF