999
"DXF R12 Output" (www.mydxf.blogspot.com)
 0 
SECTION
 2 
HEADER
 9 
$ACADVER
 1 
AC1009
 9 
$EXTMIN
 10 
 0 
 20 
 0 
 9 
$EXTMAX
 10 
 8.5 
 20 
 11 
 0 
ENDSEC
 0 
SECTION
 2 
ENTITIES
0
LINE
8
Layer 1
10
71.634700
20
66.957300
11
70.595431
21
68.129005
0
LINE
8
Layer 1
10
70.595431
20
68.129005
11
69.516467
21
69.080950
0
LINE
8
Layer 1
10
69.516467
20
69.080950
11
68.417948
21
70.058523
0
LINE
8
Layer 1
10
68.417948
20
70.058523
11
67.320010
21
71.307110
0
LINE
8
Layer 1
10
67.320010
20
71.307110
11
66.113492
21
73.313218
0
LINE
8
Layer 1
10
66.113492
20
73.313218
11
65.366086
21
74.389146
0
LINE
8
Layer 1
10
65.366086
20
74.389146
11
64.449420
21
75.248060
0
LINE
8
Layer 1
10
64.449420
20
75.248060
11
62.256157
21
76.611810
0
LINE
8
Layer 1
10
62.256157
20
76.611810
11
59.450749
21
77.878268
0
LINE
8
Layer 1
10
59.450749
20
77.878268
11
57.776383
21
78.366439
0
LINE
8
Layer 1
10
57.776383
20
78.366439
11
55.898451
21
78.700002
0
LINE
8
Layer 1
10
55.898451
20
78.700002
11
53.800111
21
78.835525
0
LINE
8
Layer 1
10
53.800111
20
78.835525
11
51.464520
21
78.729580
0
LINE
8
Layer 1
10
51.464520
20
78.729580
11
51.926751
21
78.916355
0
LINE
8
Layer 1
10
51.926751
20
78.916355
11
52.475348
21
79.348954
0
LINE
8
Layer 1
10
52.475348
20
79.348954
11
53.704140
21
80.665765
0
LINE
8
Layer 1
10
53.704140
20
80.665765
11
55.795650
21
83.104820
0
LINE
8
Layer 1
10
55.795650
20
83.104820
11
58.209161
21
85.076662
0
LINE
8
Layer 1
10
58.209161
20
85.076662
11
60.738237
21
86.898542
0
LINE
8
Layer 1
10
60.738237
20
86.898542
11
63.368330
21
88.577869
0
LINE
8
Layer 1
10
63.368330
20
88.577869
11
66.084891
21
90.122053
0
LINE
8
Layer 1
10
66.084891
20
90.122053
11
71.719225
21
92.834622
0
LINE
8
Layer 1
10
71.719225
20
92.834622
11
77.524850
21
95.095520
0
LINE
8
Layer 1
10
77.524850
20
95.095520
11
81.636607
21
96.410662
0
LINE
8
Layer 1
10
81.636607
20
96.410662
11
85.814100
21
97.499100
0
LINE
8
Layer 1
10
85.814100
20
97.499100
11
88.774430
21
98.365514
0
LINE
8
Layer 1
10
88.774430
20
98.365514
11
90.332415
21
98.600626
0
LINE
8
Layer 1
10
90.332415
20
98.600626
11
91.065802
21
98.551635
0
LINE
8
Layer 1
10
91.065802
20
98.551635
11
91.744000
21
98.347033
0
LINE
8
Layer 1
10
91.744000
20
98.347033
11
90.778893
21
99.510248
0
LINE
8
Layer 1
10
90.778893
20
99.510248
11
89.514998
21
100.477338
0
LINE
8
Layer 1
10
89.514998
20
100.477338
11
88.031149
21
101.234161
0
LINE
8
Layer 1
10
88.031149
20
101.234161
11
86.406181
21
101.766578
0
LINE
8
Layer 1
10
86.406181
20
101.766578
11
84.718928
21
102.060448
0
LINE
8
Layer 1
10
84.718928
20
102.060448
11
83.048224
21
102.101630
0
LINE
8
Layer 1
10
83.048224
20
102.101630
11
81.472903
21
101.875986
0
LINE
8
Layer 1
10
81.472903
20
101.875986
11
80.071800
21
101.369373
0
LINE
8
Layer 1
10
80.071800
20
101.369373
11
85.496740
21
104.382833
0
LINE
8
Layer 1
10
85.496740
20
104.382833
11
83.105970
21
105.013625
0
LINE
8
Layer 1
10
83.105970
20
105.013625
11
81.268842
21
105.406203
0
LINE
8
Layer 1
10
81.268842
20
105.406203
11
79.380280
21
105.483206
0
LINE
8
Layer 1
10
79.380280
20
105.483206
11
77.755420
21
105.086135
0
LINE
8
Layer 1
10
77.755420
20
105.086135
11
76.158700
21
104.489039
0
LINE
8
Layer 1
10
76.158700
20
104.489039
11
71.777930
21
102.633339
0
LINE
8
Layer 1
10
71.777930
20
102.633339
11
71.286322
21
102.391404
0
LINE
8
Layer 1
10
71.286322
20
102.391404
11
71.816744
21
102.750021
0
LINE
8
Layer 1
10
71.816744
20
102.750021
11
72.363834
21
103.126257
0
LINE
8
Layer 1
10
72.363834
20
103.126257
11
73.457064
21
103.888491
0
LINE
8
Layer 1
10
73.457064
20
103.888491
11
75.629474
21
105.448681
0
LINE
8
Layer 1
10
75.629474
20
105.448681
11
76.097508
21
105.794685
0
LINE
8
Layer 1
10
76.097508
20
105.794685
11
74.272288
21
105.776589
0
LINE
8
Layer 1
10
74.272288
20
105.776589
11
73.237518
21
105.713247
0
LINE
8
Layer 1
10
73.237518
20
105.713247
11
70.997608
21
105.510612
0
LINE
8
Layer 1
10
70.997608
20
105.510612
11
69.346808
21
105.241296
0
LINE
8
Layer 1
10
69.346808
20
105.241296
11
67.882468
21
104.583595
0
LINE
8
Layer 1
10
67.882468
20
104.583595
11
65.496108
21
103.399165
0
LINE
8
Layer 1
10
65.496108
20
103.399165
11
61.195228
21
101.071265
0
LINE
8
Layer 1
10
61.195228
20
101.071265
11
59.954358
21
100.351653
0
LINE
8
Layer 1
10
59.954358
20
100.351653
11
64.085458
21
104.160683
0
LINE
8
Layer 1
10
64.085458
20
104.160683
11
61.970558
21
103.667528
0
LINE
8
Layer 1
10
61.970558
20
103.667528
11
57.367458
21
102.344657
0
LINE
8
Layer 1
10
57.367458
20
102.344657
11
55.155598
21
101.482853
0
LINE
8
Layer 1
10
55.155598
20
101.482853
11
52.995538
21
100.387608
0
LINE
8
Layer 1
10
52.995538
20
100.387608
11
51.359786
21
99.204695
0
LINE
8
Layer 1
10
51.359786
20
99.204695
11
49.818608
21
97.853728
0
LINE
8
Layer 1
10
49.818608
20
97.853728
11
48.116258
21
96.199238
0
LINE
8
Layer 1
10
48.116258
20
96.199238
11
46.590958
21
94.615478
0
LINE
8
Layer 1
10
46.590958
20
94.615478
11
49.467018
21
99.345338
0
LINE
8
Layer 1
10
49.467018
20
99.345338
11
49.147574
21
99.184844
0
LINE
8
Layer 1
10
49.147574
20
99.184844
11
48.805273
21
99.028634
0
LINE
8
Layer 1
10
48.805273
20
99.028634
11
46.860273
21
98.126859
0
LINE
8
Layer 1
10
46.860273
20
98.126859
11
43.720951
21
96.423049
0
LINE
8
Layer 1
10
43.720951
20
96.423049
11
42.209059
21
95.489384
0
LINE
8
Layer 1
10
42.209059
20
95.489384
11
40.781563
21
94.396169
0
LINE
8
Layer 1
10
40.781563
20
94.396169
11
39.488139
21
93.123047
0
LINE
8
Layer 1
10
39.488139
20
93.123047
11
38.325847
21
91.731562
0
LINE
8
Layer 1
10
38.325847
20
91.731562
11
36.217673
21
88.767629
0
LINE
8
Layer 1
10
36.217673
20
88.767629
11
34.650213
21
85.952999
0
LINE
8
Layer 1
10
34.650213
20
85.952999
11
34.975491
21
87.318169
0
LINE
8
Layer 1
10
34.975491
20
87.318169
11
35.648221
21
88.957980
0
LINE
8
Layer 1
10
35.648221
20
88.957980
11
36.102891
21
90.665479
0
LINE
8
Layer 1
10
36.102891
20
90.665479
11
35.781305
21
90.348058
0
LINE
8
Layer 1
10
35.781305
20
90.348058
11
35.070862
21
89.674165
0
LINE
8
Layer 1
10
35.070862
20
89.674165
11
34.276125
21
88.901692
0
LINE
8
Layer 1
10
34.276125
20
88.901692
11
31.331245
21
85.806082
0
LINE
8
Layer 1
10
31.331245
20
85.806082
11
30.278025
21
84.607602
0
LINE
8
Layer 1
10
30.278025
20
84.607602
11
29.968656
21
90.665573
0
LINE
8
Layer 1
10
29.968656
20
90.665573
11
30.117307
21
93.610621
0
LINE
8
Layer 1
10
30.117307
20
93.610621
11
30.752011
21
96.837702
0
LINE
8
Layer 1
10
30.752011
20
96.837702
11
31.902330
21
100.379402
0
LINE
8
Layer 1
10
31.902330
20
100.379402
11
33.333507
21
103.630326
0
LINE
8
Layer 1
10
33.333507
20
103.630326
11
35.058300
21
106.601631
0
LINE
8
Layer 1
10
35.058300
20
106.601631
11
37.089466
21
109.304471
0
LINE
8
Layer 1
10
37.089466
20
109.304471
11
39.439763
21
111.750002
0
LINE
8
Layer 1
10
39.439763
20
111.750002
11
42.121947
21
113.949381
0
LINE
8
Layer 1
10
42.121947
20
113.949381
11
45.148778
21
115.913762
0
LINE
8
Layer 1
10
45.148778
20
115.913762
11
48.533011
21
117.654302
0
LINE
8
Layer 1
10
48.533011
20
117.654302
11
45.785251
21
118.577749
0
LINE
8
Layer 1
10
45.785251
20
118.577749
11
44.397947
21
118.777632
0
LINE
8
Layer 1
10
44.397947
20
118.777632
11
42.858271
21
118.653235
0
LINE
8
Layer 1
10
42.858271
20
118.653235
11
41.229764
21
118.147663
0
LINE
8
Layer 1
10
41.229764
20
118.147663
11
39.648640
21
117.368463
0
LINE
8
Layer 1
10
39.648640
20
117.368463
11
36.634301
21
115.528805
0
LINE
8
Layer 1
10
36.634301
20
115.528805
11
41.179971
21
119.807185
0
LINE
8
Layer 1
10
41.179971
20
119.807185
11
38.061021
21
119.898625
0
LINE
8
Layer 1
10
38.061021
20
119.898625
11
35.713984
21
119.864128
0
LINE
8
Layer 1
10
35.713984
20
119.864128
11
34.560578
21
119.738055
0
LINE
8
Layer 1
10
34.560578
20
119.738055
11
33.425701
21
119.461181
0
LINE
8
Layer 1
10
33.425701
20
119.461181
11
31.732861
21
118.596016
0
LINE
8
Layer 1
10
31.732861
20
118.596016
11
30.192451
21
117.486191
0
LINE
8
Layer 1
10
30.192451
20
117.486191
11
28.150310
21
115.840784
0
LINE
8
Layer 1
10
28.150310
20
115.840784
11
26.261900
21
114.021000
0
LINE
8
Layer 1
10
26.261900
20
114.021000
11
25.862209
21
113.579757
0
LINE
8
Layer 1
10
25.862209
20
113.579757
11
26.227847
21
114.151731
0
LINE
8
Layer 1
10
26.227847
20
114.151731
11
26.605155
21
114.745851
0
LINE
8
Layer 1
10
26.605155
20
114.745851
11
27.367510
21
115.936471
0
LINE
8
Layer 1
10
27.367510
20
115.936471
11
28.952230
21
118.276991
0
LINE
8
Layer 1
10
28.952230
20
118.276991
11
29.298940
21
118.777529
0
LINE
8
Layer 1
10
29.298940
20
118.777529
11
27.138440
21
118.140554
0
LINE
8
Layer 1
10
27.138440
20
118.140554
11
25.957470
21
117.675257
0
LINE
8
Layer 1
10
25.957470
20
117.675257
11
23.467290
21
116.569177
0
LINE
8
Layer 1
10
23.467290
20
116.569177
11
21.745530
21
115.576676
0
LINE
8
Layer 1
10
21.745530
20
115.576676
11
20.537600
21
114.210000
0
LINE
8
Layer 1
10
20.537600
20
114.210000
11
18.715350
21
111.794230
0
LINE
8
Layer 1
10
18.715350
20
111.794230
11
17.253149
21
109.454664
0
LINE
8
Layer 1
10
17.253149
20
109.454664
11
15.906320
21
107.050800
0
LINE
8
Layer 1
10
15.906320
20
107.050800
11
15.163134
21
105.594430
0
LINE
8
Layer 1
10
15.163134
20
105.594430
11
16.644514
21
111.787790
0
LINE
8
Layer 1
10
16.644514
20
111.787790
11
14.745234
21
110.061870
0
LINE
8
Layer 1
10
14.745234
20
110.061870
11
12.744317
21
108.013935
0
LINE
8
Layer 1
10
12.744317
20
108.013935
11
10.944743
21
105.900234
0
LINE
8
Layer 1
10
10.944743
20
105.900234
11
9.398726
21
103.604993
0
LINE
8
Layer 1
10
9.398726
20
103.604993
11
8.158484
21
101.012440
0
LINE
8
Layer 1
10
8.158484
20
101.012440
11
7.809707
21
99.864555
0
LINE
8
Layer 1
10
7.809707
20
99.864555
11
7.589963
21
98.674121
0
LINE
8
Layer 1
10
7.589963
20
98.674121
11
7.324693
21
96.247580
0
LINE
8
Layer 1
10
7.324693
20
96.247580
11
7.266711
21
93.422480
0
LINE
8
Layer 1
10
7.266711
20
93.422480
11
7.219216
21
92.138307
0
LINE
8
Layer 1
10
7.219216
20
92.138307
11
7.311121
21
90.834310
0
LINE
8
Layer 1
10
7.311121
20
90.834310
11
6.378405
21
94.102915
0
LINE
8
Layer 1
10
6.378405
20
94.102915
11
5.623040
21
97.417000
0
LINE
8
Layer 1
10
5.623040
20
97.417000
11
5.458505
21
97.025276
0
LINE
8
Layer 1
10
5.458505
20
97.025276
11
5.274793
21
96.620225
0
LINE
8
Layer 1
10
5.274793
20
96.620225
11
4.250613
21
94.309235
0
LINE
8
Layer 1
10
4.250613
20
94.309235
11
2.882634
21
90.337799
0
LINE
8
Layer 1
10
2.882634
20
90.337799
11
2.363146
21
88.319554
0
LINE
8
Layer 1
10
2.363146
20
88.319554
11
2.099283
21
86.226345
0
LINE
8
Layer 1
10
2.099283
20
86.226345
11
2.151323
21
84.108306
0
LINE
8
Layer 1
10
2.151323
20
84.108306
11
2.456931
21
82.032502
0
LINE
8
Layer 1
10
2.456931
20
82.032502
11
3.529933
21
77.951535
0
LINE
8
Layer 1
10
3.529933
20
77.951535
11
4.235524
21
76.218201
0
LINE
8
Layer 1
10
4.235524
20
76.218201
11
5.092743
21
74.556125
0
LINE
8
Layer 1
10
5.092743
20
74.556125
11
3.143624
21
77.513929
0
LINE
8
Layer 1
10
3.143624
20
77.513929
11
1.238343
21
80.552095
0
LINE
8
Layer 1
10
1.238343
20
80.552095
11
0.802679
21
81.228814
0
LINE
8
Layer 1
10
0.802679
20
81.228814
11
0.481229
21
82.018235
0
LINE
8
Layer 1
10
0.481229
20
82.018235
11
0.158608
21
79.744967
0
LINE
8
Layer 1
10
0.158608
20
79.744967
11
0.013784
21
77.449600
0
LINE
8
Layer 1
10
0.013784
20
77.449600
11
0.265182
21
74.992158
0
LINE
8
Layer 1
10
0.265182
20
74.992158
11
0.732170
21
72.601688
0
LINE
8
Layer 1
10
0.732170
20
72.601688
11
1.444950
21
70.279531
0
LINE
8
Layer 1
10
1.444950
20
70.279531
11
2.433724
21
68.027030
0
LINE
8
Layer 1
10
2.433724
20
68.027030
11
3.785752
21
65.765427
0
LINE
8
Layer 1
10
3.785752
20
65.765427
11
5.321486
21
63.644775
0
LINE
8
Layer 1
10
5.321486
20
63.644775
11
6.901557
21
61.560108
0
LINE
8
Layer 1
10
6.901557
20
61.560108
11
8.386594
21
59.406460
0
LINE
8
Layer 1
10
8.386594
20
59.406460
11
7.214978
21
60.185784
0
LINE
8
Layer 1
10
7.214978
20
60.185784
11
5.999514
21
60.726860
0
LINE
8
Layer 1
10
5.999514
20
60.726860
11
2.683990
21
61.995300
0
LINE
8
Layer 1
10
2.683990
20
61.995300
11
3.101444
21
61.596144
0
LINE
8
Layer 1
10
3.101444
20
61.596144
11
3.466706
21
61.060902
0
LINE
8
Layer 1
10
3.466706
20
61.060902
11
4.042610
21
60.068640
0
LINE
8
Layer 1
10
4.042610
20
60.068640
11
5.556960
21
58.138410
0
LINE
8
Layer 1
10
5.556960
20
58.138410
11
7.189390
21
56.025920
0
LINE
8
Layer 1
10
7.189390
20
56.025920
11
8.681270
21
53.860750
0
LINE
8
Layer 1
10
8.681270
20
53.860750
11
10.261608
21
50.903458
0
LINE
8
Layer 1
10
10.261608
20
50.903458
11
10.865640
21
49.363655
0
LINE
8
Layer 1
10
10.865640
20
49.363655
11
11.288850
21
47.765250
0
LINE
8
Layer 1
10
11.288850
20
47.765250
11
11.399546
21
46.340675
0
LINE
8
Layer 1
10
11.399546
20
46.340675
11
11.237814
21
44.992026
0
LINE
8
Layer 1
10
11.237814
20
44.992026
11
10.603767
21
42.293630
0
LINE
8
Layer 1
10
10.603767
20
42.293630
11
10.486013
21
41.766899
0
LINE
8
Layer 1
10
10.486013
20
41.766899
11
10.407908
21
41.335664
0
LINE
8
Layer 1
10
10.407908
20
41.335664
11
9.756283
21
39.150874
0
LINE
8
Layer 1
10
9.756283
20
39.150874
11
8.647933
21
34.477694
0
LINE
8
Layer 1
10
8.647933
20
34.477694
11
8.479579
21
33.197294
0
LINE
8
Layer 1
10
8.479579
20
33.197294
11
9.784259
21
35.733794
0
LINE
8
Layer 1
10
9.784259
20
35.733794
11
9.675556
21
35.111339
0
LINE
8
Layer 1
10
9.675556
20
35.111339
11
9.588403
21
34.461260
0
LINE
8
Layer 1
10
9.588403
20
34.461260
11
9.577959
21
30.847249
0
LINE
8
Layer 1
10
9.577959
20
30.847249
11
9.939278
21
27.251330
0
LINE
8
Layer 1
10
9.939278
20
27.251330
11
10.768545
21
22.074280
0
LINE
8
Layer 1
10
10.768545
20
22.074280
11
11.377191
21
18.374070
0
LINE
8
Layer 1
10
11.377191
20
18.374070
11
11.884753
21
16.344540
0
LINE
8
Layer 1
10
11.884753
20
16.344540
11
12.514591
21
14.594330
0
LINE
8
Layer 1
10
12.514591
20
14.594330
11
12.953336
21
18.598390
0
LINE
8
Layer 1
10
12.953336
20
18.598390
11
14.008624
21
15.153656
0
LINE
8
Layer 1
10
14.008624
20
15.153656
11
15.253496
21
11.803760
0
LINE
8
Layer 1
10
15.253496
20
11.803760
11
16.584565
21
9.014880
0
LINE
8
Layer 1
10
16.584565
20
9.014880
11
18.001446
21
6.317620
0
LINE
8
Layer 1
10
18.001446
20
6.317620
11
18.744971
21
5.056157
0
LINE
8
Layer 1
10
18.744971
20
5.056157
11
19.632006
21
3.891130
0
LINE
8
Layer 1
10
19.632006
20
3.891130
11
20.606843
21
2.905726
0
LINE
8
Layer 1
10
20.606843
20
2.905726
11
21.721906
21
2.082340
0
LINE
8
Layer 1
10
21.721906
20
2.082340
11
23.089317
21
1.371032
0
LINE
8
Layer 1
10
23.089317
20
1.371032
11
24.537006
21
0.741700
0
LINE
8
Layer 1
10
24.537006
20
0.741700
11
25.985636
21
0.199966
0
LINE
8
Layer 1
10
25.985636
20
0.199966
11
27.278776
21
0.000181
0
LINE
8
Layer 1
10
27.278776
20
0.000181
11
25.625051
21
1.613859
0
LINE
8
Layer 1
10
25.625051
20
1.613859
11
24.059466
21
3.320581
0
LINE
8
Layer 1
10
24.059466
20
3.320581
11
23.652589
21
4.101472
0
LINE
8
Layer 1
10
23.652589
20
4.101472
11
23.445105
21
4.957211
0
LINE
8
Layer 1
10
23.445105
20
4.957211
11
23.354616
21
5.926378
0
LINE
8
Layer 1
10
23.354616
20
5.926378
11
25.964471
21
4.347586
0
LINE
8
Layer 1
10
25.964471
20
4.347586
11
28.708366
21
3.015308
0
LINE
8
Layer 1
10
28.708366
20
3.015308
11
31.388816
21
2.045667
0
LINE
8
Layer 1
10
31.388816
20
2.045667
11
33.929600
21
1.091720
0
LINE
8
Layer 1
10
33.929600
20
1.091720
11
31.498286
21
2.951556
0
LINE
8
Layer 1
10
31.498286
20
2.951556
11
30.384409
21
3.973372
0
LINE
8
Layer 1
10
30.384409
20
3.973372
11
29.387380
21
5.164830
0
LINE
8
Layer 1
10
29.387380
20
5.164830
11
27.947786
21
7.665161
0
LINE
8
Layer 1
10
27.947786
20
7.665161
11
26.620970
21
10.275690
0
LINE
8
Layer 1
10
26.620970
20
10.275690
11
25.207532
21
12.968936
0
LINE
8
Layer 1
10
25.207532
20
12.968936
11
24.024110
21
15.770880
0
LINE
8
Layer 1
10
24.024110
20
15.770880
11
25.420306
21
13.379160
0
LINE
8
Layer 1
10
25.420306
20
13.379160
11
26.213420
21
12.249270
0
LINE
8
Layer 1
10
26.213420
20
12.249270
11
27.119840
21
11.208900
0
LINE
8
Layer 1
10
27.119840
20
11.208900
11
28.129171
21
10.327599
0
LINE
8
Layer 1
10
28.129171
20
10.327599
11
29.206984
21
9.616118
0
LINE
8
Layer 1
10
29.206984
20
9.616118
11
31.573720
21
8.486430
0
LINE
8
Layer 1
10
31.573720
20
8.486430
11
30.527400
21
10.711470
0
LINE
8
Layer 1
10
30.527400
20
10.711470
11
32.312700
21
9.289794
0
LINE
8
Layer 1
10
32.312700
20
9.289794
11
34.310840
21
8.187120
0
LINE
8
Layer 1
10
34.310840
20
8.187120
11
36.823365
21
7.155043
0
LINE
8
Layer 1
10
36.823365
20
7.155043
11
39.409670
21
6.324990
0
LINE
8
Layer 1
10
39.409670
20
6.324990
11
35.661121
21
10.468529
0
LINE
8
Layer 1
10
35.661121
20
10.468529
11
32.121170
21
14.837450
0
LINE
8
Layer 1
10
32.121170
20
14.837450
11
28.546330
21
19.326330
0
LINE
8
Layer 1
10
28.546330
20
19.326330
11
30.702224
21
17.621223
0
LINE
8
Layer 1
10
30.702224
20
17.621223
11
33.018394
21
16.155113
0
LINE
8
Layer 1
10
33.018394
20
16.155113
11
35.475102
21
14.939091
0
LINE
8
Layer 1
10
35.475102
20
14.939091
11
38.052610
21
13.984250
0
LINE
8
Layer 1
10
38.052610
20
13.984250
11
38.349922
21
13.965618
0
LINE
8
Layer 1
10
38.349922
20
13.965618
11
38.546239
21
14.168084
0
LINE
8
Layer 1
10
38.546239
20
14.168084
11
37.474679
21
15.109625
0
LINE
8
Layer 1
10
37.474679
20
15.109625
11
34.468009
21
18.493375
0
LINE
8
Layer 1
10
34.468009
20
18.493375
11
37.162713
21
16.483486
0
LINE
8
Layer 1
10
37.162713
20
16.483486
11
38.623313
21
15.697408
0
LINE
8
Layer 1
10
38.623313
20
15.697408
11
40.211919
21
15.101535
0
LINE
8
Layer 1
10
40.211919
20
15.101535
11
41.886242
21
14.704269
0
LINE
8
Layer 1
10
41.886242
20
14.704269
11
43.574765
21
14.443002
0
LINE
8
Layer 1
10
43.574765
20
14.443002
11
46.975479
21
14.035215
0
LINE
8
Layer 1
10
46.975479
20
14.035215
11
43.913791
21
16.035886
0
LINE
8
Layer 1
10
43.913791
20
16.035886
11
41.142519
21
18.422655
0
LINE
8
Layer 1
10
41.142519
20
18.422655
11
39.078819
21
20.930575
0
LINE
8
Layer 1
10
39.078819
20
20.930575
11
37.543174
21
23.202399
0
LINE
8
Layer 1
10
37.543174
20
23.202399
11
36.109409
21
25.520655
0
LINE
8
Layer 1
10
36.109409
20
25.520655
11
34.653968
21
27.362812
0
LINE
8
Layer 1
10
34.653968
20
27.362812
11
32.941169
21
28.967265
0
LINE
8
Layer 1
10
32.941169
20
28.967265
11
31.085229
21
30.575555
0
LINE
8
Layer 1
10
31.085229
20
30.575555
11
30.284418
21
31.372081
0
LINE
8
Layer 1
10
30.284418
20
31.372081
11
33.573388
21
30.973936
0
LINE
8
Layer 1
10
33.573388
20
30.973936
11
32.436108
21
32.350046
0
LINE
8
Layer 1
10
32.436108
20
32.350046
11
31.588994
21
33.875640
0
LINE
8
Layer 1
10
31.588994
20
33.875640
11
30.981878
21
35.511626
0
LINE
8
Layer 1
10
30.981878
20
35.511626
11
30.347753
21
37.052046
0
LINE
8
Layer 1
10
30.347753
20
37.052046
11
29.870197
21
38.988476
0
LINE
8
Layer 1
10
29.870197
20
38.988476
11
29.848289
21
39.239279
0
LINE
8
Layer 1
10
29.848289
20
39.239279
11
29.942466
21
39.477584
0
LINE
8
Layer 1
10
29.942466
20
39.477584
11
30.812319
21
40.014139
0
LINE
8
Layer 1
10
30.812319
20
40.014139
11
31.822346
21
40.170287
0
LINE
8
Layer 1
10
31.822346
20
40.170287
11
32.756724
21
40.067460
0
LINE
8
Layer 1
10
32.756724
20
40.067460
11
33.622446
21
39.701180
0
LINE
8
Layer 1
10
33.622446
20
39.701180
11
35.338486
21
38.467700
0
LINE
8
Layer 1
10
35.338486
20
38.467700
11
36.391706
21
37.657125
0
LINE
8
Layer 1
10
36.391706
20
37.657125
11
38.080836
21
35.354945
0
LINE
8
Layer 1
10
38.080836
20
35.354945
11
39.220376
21
34.271005
0
LINE
8
Layer 1
10
39.220376
20
34.271005
11
39.828189
21
33.785947
0
LINE
8
Layer 1
10
39.828189
20
33.785947
11
40.411593
21
33.309460
0
LINE
8
Layer 1
10
40.411593
20
33.309460
11
41.571973
21
32.349341
0
LINE
8
Layer 1
10
41.571973
20
32.349341
11
42.175618
21
31.924526
0
LINE
8
Layer 1
10
42.175618
20
31.924526
11
42.523400
21
31.712834
0
LINE
8
Layer 1
10
42.523400
20
31.712834
11
42.709850
21
31.620917
0
LINE
8
Layer 1
10
42.709850
20
31.620917
11
42.841890
21
31.547339
0
LINE
8
Layer 1
10
42.841890
20
31.547339
11
42.959046
21
31.428038
0
LINE
8
Layer 1
10
42.959046
20
31.428038
11
42.908088
21
31.364696
0
LINE
8
Layer 1
10
42.908088
20
31.364696
11
42.638174
21
31.227062
0
LINE
8
Layer 1
10
42.638174
20
31.227062
11
42.287894
21
31.089662
0
LINE
8
Layer 1
10
42.287894
20
31.089662
11
41.591618
21
30.820106
0
LINE
8
Layer 1
10
41.591618
20
30.820106
11
41.423623
21
30.740336
0
LINE
8
Layer 1
10
41.423623
20
30.740336
11
41.323730
21
30.689852
0
LINE
8
Layer 1
10
41.323730
20
30.689852
11
41.204548
21
30.621749
0
LINE
8
Layer 1
10
41.204548
20
30.621749
11
40.864626
21
30.338144
0
LINE
8
Layer 1
10
40.864626
20
30.338144
11
40.632098
21
29.932142
0
LINE
8
Layer 1
10
40.632098
20
29.932142
11
40.579117
21
29.648774
0
LINE
8
Layer 1
10
40.579117
20
29.648774
11
40.149423
21
28.975596
0
LINE
8
Layer 1
10
40.149423
20
28.975596
11
39.947135
21
28.056438
0
LINE
8
Layer 1
10
39.947135
20
28.056438
11
40.239314
21
27.212764
0
LINE
8
Layer 1
10
40.239314
20
27.212764
11
40.802598
21
26.578876
0
LINE
8
Layer 1
10
40.802598
20
26.578876
11
40.504572
21
27.301584
0
LINE
8
Layer 1
10
40.504572
20
27.301584
11
40.506598
21
27.999288
0
LINE
8
Layer 1
10
40.506598
20
27.999288
11
40.791170
21
28.471270
0
LINE
8
Layer 1
10
40.791170
20
28.471270
11
41.207637
21
28.832246
0
LINE
8
Layer 1
10
41.207637
20
28.832246
11
41.426712
21
28.797956
0
LINE
8
Layer 1
10
41.426712
20
28.797956
11
41.686743
21
28.818671
0
LINE
8
Layer 1
10
41.686743
20
28.818671
11
41.835451
21
28.863200
0
LINE
8
Layer 1
10
41.835451
20
28.863200
11
41.970229
21
28.928447
0
LINE
8
Layer 1
10
41.970229
20
28.928447
11
42.296339
21
29.147282
0
LINE
8
Layer 1
10
42.296339
20
29.147282
11
42.581138
21
29.336831
0
LINE
8
Layer 1
10
42.581138
20
29.336831
11
42.907248
21
29.514233
0
LINE
8
Layer 1
10
42.907248
20
29.514233
11
43.222047
21
29.674967
0
LINE
8
Layer 1
10
43.222047
20
29.674967
11
43.394806
21
29.752595
0
LINE
8
Layer 1
10
43.394806
20
29.752595
11
43.552207
21
29.815460
0
LINE
8
Layer 1
10
43.552207
20
29.815460
11
44.198120
21
29.894765
0
LINE
8
Layer 1
10
44.198120
20
29.894765
11
44.861534
21
29.788322
0
LINE
8
Layer 1
10
44.861534
20
29.788322
11
45.435054
21
29.524481
0
LINE
8
Layer 1
10
45.435054
20
29.524481
11
45.711042
21
29.305406
0
LINE
8
Layer 1
10
45.711042
20
29.305406
11
45.957619
21
29.030849
0
LINE
8
Layer 1
10
45.957619
20
29.030849
11
46.529593
21
28.506737
0
LINE
8
Layer 1
10
46.529593
20
28.506737
11
46.964407
21
28.356959
0
LINE
8
Layer 1
10
46.964407
20
28.356959
11
47.087518
21
28.335050
0
LINE
8
Layer 1
10
47.087518
20
28.335050
11
47.176934
21
28.221941
0
LINE
8
Layer 1
10
47.176934
20
28.221941
11
47.287661
21
27.875937
0
LINE
8
Layer 1
10
47.287661
20
27.875937
11
47.142881
21
27.145134
0
LINE
8
Layer 1
10
47.142881
20
27.145134
11
47.833560
21
27.833076
0
LINE
8
Layer 1
10
47.833560
20
27.833076
11
48.002986
21
28.332891
0
LINE
8
Layer 1
10
48.002986
20
28.332891
11
47.980959
21
28.834143
0
LINE
8
Layer 1
10
47.980959
20
28.834143
11
48.028225
21
29.006067
0
LINE
8
Layer 1
10
48.028225
20
29.006067
11
48.064183
21
29.230857
0
LINE
8
Layer 1
10
48.064183
20
29.230857
11
48.063111
21
29.445168
0
LINE
8
Layer 1
10
48.063111
20
29.445168
11
48.177651
21
29.379207
0
LINE
8
Layer 1
10
48.177651
20
29.379207
11
48.214083
21
29.336109
0
LINE
8
Layer 1
10
48.214083
20
29.336109
11
48.231942
21
29.307057
0
LINE
8
Layer 1
10
48.231942
20
29.307057
11
48.259566
21
29.257050
0
LINE
8
Layer 1
10
48.259566
20
29.257050
11
48.418395
21
29.033928
0
LINE
8
Layer 1
10
48.418395
20
29.033928
11
48.865830
21
28.775562
0
LINE
8
Layer 1
10
48.865830
20
28.775562
11
49.008705
21
28.748892
0
LINE
8
Layer 1
10
49.008705
20
28.748892
11
49.018230
21
28.722928
0
LINE
8
Layer 1
10
49.018230
20
28.722928
11
49.308741
21
28.495519
0
LINE
8
Layer 1
10
49.308741
20
28.495519
11
49.509598
21
28.110232
0
LINE
8
Layer 1
10
49.509598
20
28.110232
11
49.593178
21
27.104392
0
LINE
8
Layer 1
10
49.593178
20
27.104392
11
50.068722
21
28.147852
0
LINE
8
Layer 1
10
50.068722
20
28.147852
11
50.103963
21
28.771501
0
LINE
8
Layer 1
10
50.103963
20
28.771501
11
49.916680
21
29.346808
0
LINE
8
Layer 1
10
49.916680
20
29.346808
11
49.944301
21
29.765431
0
LINE
8
Layer 1
10
49.944301
20
29.765431
11
49.822977
21
30.214534
0
LINE
8
Layer 1
10
49.822977
20
30.214534
11
49.752611
21
30.343837
0
LINE
8
Layer 1
10
49.752611
20
30.343837
11
49.749873
21
30.598630
0
LINE
8
Layer 1
10
49.749873
20
30.598630
11
49.598546
21
30.958672
0
LINE
8
Layer 1
10
49.598546
20
30.958672
11
49.115986
21
31.401582
0
LINE
8
Layer 1
10
49.115986
20
31.401582
11
48.889889
21
31.649710
0
LINE
8
Layer 1
10
48.889889
20
31.649710
11
47.708079
21
32.053806
0
LINE
8
Layer 1
10
47.708079
20
32.053806
11
47.618067
21
32.064997
0
LINE
8
Layer 1
10
47.618067
20
32.064997
11
46.968110
21
32.087857
0
LINE
8
Layer 1
10
46.968110
20
32.087857
11
46.471622
21
32.096191
0
LINE
8
Layer 1
10
46.471622
20
32.096191
11
45.423282
21
32.501242
0
LINE
8
Layer 1
10
45.423282
20
32.501242
11
44.469713
21
33.112744
0
LINE
8
Layer 1
10
44.469713
20
33.112744
11
43.235393
21
33.892839
0
LINE
8
Layer 1
10
43.235393
20
33.892839
11
42.253520
21
34.592136
0
LINE
8
Layer 1
10
42.253520
20
34.592136
11
41.389813
21
35.433029
0
LINE
8
Layer 1
10
41.389813
20
35.433029
11
40.297118
21
37.151575
0
LINE
8
Layer 1
10
40.297118
20
37.151575
11
39.612093
21
39.069419
0
LINE
8
Layer 1
10
39.612093
20
39.069419
11
39.598088
21
40.900609
0
LINE
8
Layer 1
10
39.598088
20
40.900609
11
39.415401
21
42.722719
0
LINE
8
Layer 1
10
39.415401
20
42.722719
11
39.360038
21
43.380895
0
LINE
8
Layer 1
10
39.360038
20
43.380895
11
41.807958
21
42.582941
0
LINE
8
Layer 1
10
41.807958
20
42.582941
11
42.003933
21
42.590798
0
LINE
8
Layer 1
10
42.003933
20
42.590798
11
42.052986
21
42.559844
0
LINE
8
Layer 1
10
42.052986
20
42.559844
11
42.728251
21
42.124195
0
LINE
8
Layer 1
10
42.728251
20
42.124195
11
43.505666
21
41.761413
0
LINE
8
Layer 1
10
43.505666
20
41.761413
11
45.205756
21
41.322558
0
LINE
8
Layer 1
10
45.205756
20
41.322558
11
45.899650
21
41.137773
0
LINE
8
Layer 1
10
45.899650
20
41.137773
11
46.330844
21
40.882797
0
LINE
8
Layer 1
10
46.330844
20
40.882797
11
46.658790
21
40.504125
0
LINE
8
Layer 1
10
46.658790
20
40.504125
11
46.642954
21
40.215519
0
LINE
8
Layer 1
10
46.642954
20
40.215519
11
46.394235
21
40.022877
0
LINE
8
Layer 1
10
46.394235
20
40.022877
11
46.353990
21
40.000017
0
LINE
8
Layer 1
10
46.353990
20
40.000017
11
45.333510
21
39.439473
0
LINE
8
Layer 1
10
45.333510
20
39.439473
11
44.616878
21
38.683428
0
LINE
8
Layer 1
10
44.616878
20
38.683428
11
44.279575
21
38.328861
0
LINE
8
Layer 1
10
44.279575
20
38.328861
11
44.188968
21
38.185272
0
LINE
8
Layer 1
10
44.188968
20
38.185272
11
44.125866
21
38.050254
0
LINE
8
Layer 1
10
44.125866
20
38.050254
11
44.046333
21
37.809273
0
LINE
8
Layer 1
10
44.046333
20
37.809273
11
44.117887
21
36.862729
0
LINE
8
Layer 1
10
44.117887
20
36.862729
11
44.703317
21
36.162643
0
LINE
8
Layer 1
10
44.703317
20
36.162643
11
45.530560
21
35.912377
0
LINE
8
Layer 1
10
45.530560
20
35.912377
11
44.904769
21
36.340522
0
LINE
8
Layer 1
10
44.904769
20
36.340522
11
44.667595
21
36.946072
0
LINE
8
Layer 1
10
44.667595
20
36.946072
11
44.825950
21
37.493998
0
LINE
8
Layer 1
10
44.825950
20
37.493998
11
44.935456
21
37.650683
0
LINE
8
Layer 1
10
44.935456
20
37.650683
11
45.111937
21
37.711642
0
LINE
8
Layer 1
10
45.111937
20
37.711642
11
45.739511
21
37.579246
0
LINE
8
Layer 1
10
45.739511
20
37.579246
11
46.322738
21
37.807372
0
LINE
8
Layer 1
10
46.322738
20
37.807372
11
46.799161
21
38.279806
0
LINE
8
Layer 1
10
46.799161
20
38.279806
11
47.050279
21
38.748375
0
LINE
8
Layer 1
10
47.050279
20
38.748375
11
47.196292
21
38.945847
0
LINE
8
Layer 1
10
47.196292
20
38.945847
11
47.605808
21
39.186585
0
LINE
8
Layer 1
10
47.605808
20
39.186585
11
48.651427
21
39.420675
0
LINE
8
Layer 1
10
48.651427
20
39.420675
11
49.793228
21
39.268380
0
LINE
8
Layer 1
10
49.793228
20
39.268380
11
50.888440
21
38.766400
0
LINE
8
Layer 1
10
50.888440
20
38.766400
11
51.794288
21
37.951435
0
LINE
8
Layer 1
10
51.794288
20
37.951435
11
51.915731
21
37.489948
0
LINE
8
Layer 1
10
51.915731
20
37.489948
11
51.990395
21
37.035097
0
LINE
8
Layer 1
10
51.990395
20
37.035097
11
52.224338
21
36.637940
0
LINE
8
Layer 1
10
52.224338
20
36.637940
11
51.924661
21
36.079301
0
LINE
8
Layer 1
10
51.924661
20
36.079301
11
51.517468
21
35.729258
0
LINE
8
Layer 1
10
51.517468
20
35.729258
11
50.995498
21
35.481611
0
LINE
8
Layer 1
10
50.995498
20
35.481611
11
51.612003
21
35.481611
0
LINE
8
Layer 1
10
51.612003
20
35.481611
11
52.243616
21
35.644010
0
LINE
8
Layer 1
10
52.243616
20
35.644010
11
52.808907
21
35.979527
0
LINE
8
Layer 1
10
52.808907
20
35.979527
11
53.188716
21
36.316949
0
LINE
8
Layer 1
10
53.188716
20
36.316949
11
53.373024
21
36.408388
0
LINE
8
Layer 1
10
53.373024
20
36.408388
11
53.826714
21
36.834521
0
LINE
8
Layer 1
10
53.826714
20
36.834521
11
54.045249
21
37.417328
0
LINE
8
Layer 1
10
54.045249
20
37.417328
11
53.933823
21
37.911318
0
LINE
8
Layer 1
10
53.933823
20
37.911318
11
53.699970
21
38.354587
0
LINE
8
Layer 1
10
53.699970
20
38.354587
11
53.906461
21
38.848325
0
LINE
8
Layer 1
10
53.906461
20
38.848325
11
53.846892
21
39.380177
0
LINE
8
Layer 1
10
53.846892
20
39.380177
11
53.191573
21
40.023590
0
LINE
8
Layer 1
10
53.191573
20
40.023590
11
51.993748
21
40.617115
0
LINE
8
Layer 1
10
51.993748
20
40.617115
11
50.767353
21
41.123490
0
LINE
8
Layer 1
10
50.767353
20
41.123490
11
48.468983
21
42.071699
0
LINE
8
Layer 1
10
48.468983
20
42.071699
11
47.076673
21
42.477701
0
LINE
8
Layer 1
10
47.076673
20
42.477701
11
46.426594
21
42.656534
0
LINE
8
Layer 1
10
46.426594
20
42.656534
11
46.166442
21
42.726303
0
LINE
8
Layer 1
10
46.166442
20
42.726303
11
45.746510
21
42.851327
0
LINE
8
Layer 1
10
45.746510
20
42.851327
11
45.583516
21
42.912287
0
LINE
8
Layer 1
10
45.583516
20
42.912287
11
44.787585
21
43.312814
0
LINE
8
Layer 1
10
44.787585
20
43.312814
11
44.266809
21
43.804064
0
LINE
8
Layer 1
10
44.266809
20
43.804064
11
43.811991
21
44.457476
0
LINE
8
Layer 1
10
43.811991
20
44.457476
11
43.556301
21
46.171792
0
LINE
8
Layer 1
10
43.556301
20
46.171792
11
43.196321
21
47.857886
0
LINE
8
Layer 1
10
43.196321
20
47.857886
11
43.154360
21
50.050575
0
LINE
8
Layer 1
10
43.154360
20
50.050575
11
43.594107
21
52.199126
0
LINE
8
Layer 1
10
43.594107
20
52.199126
11
44.079122
21
53.232138
0
LINE
8
Layer 1
10
44.079122
20
53.232138
11
44.608877
21
54.178176
0
LINE
8
Layer 1
10
44.608877
20
54.178176
11
45.244564
21
55.559889
0
LINE
8
Layer 1
10
45.244564
20
55.559889
11
46.001427
21
56.813016
0
LINE
8
Layer 1
10
46.001427
20
56.813016
11
46.929465
21
57.788281
0
LINE
8
Layer 1
10
46.929465
20
57.788281
11
48.004637
21
58.598466
0
LINE
8
Layer 1
10
48.004637
20
58.598466
11
49.744331
21
59.591917
0
LINE
8
Layer 1
10
49.744331
20
59.591917
11
51.519117
21
60.520366
0
LINE
8
Layer 1
10
51.519117
20
60.520366
11
51.935713
21
60.814441
0
LINE
8
Layer 1
10
51.935713
20
60.814441
11
50.963094
21
61.204966
0
LINE
8
Layer 1
10
50.963094
20
61.204966
11
53.207901
21
61.792648
0
LINE
8
Layer 1
10
53.207901
20
61.792648
11
55.399344
21
62.555606
0
LINE
8
Layer 1
10
55.399344
20
62.555606
11
55.650507
21
62.701696
0
LINE
8
Layer 1
10
55.650507
20
62.701696
11
55.949889
21
62.767775
0
LINE
8
Layer 1
10
55.949889
20
62.767775
11
55.295165
21
63.227594
0
LINE
8
Layer 1
10
55.295165
20
63.227594
11
57.934640
21
63.674999
0
LINE
8
Layer 1
10
57.934640
20
63.674999
11
60.536165
21
64.298674
0
LINE
8
Layer 1
10
60.536165
20
64.298674
11
60.080275
21
64.780636
0
LINE
8
Layer 1
10
60.080275
20
64.780636
11
61.990376
21
64.317561
0
LINE
8
Layer 1
10
61.990376
20
64.317561
11
63.942765
21
64.091506
0
LINE
8
Layer 1
10
63.942765
20
64.091506
11
63.508902
21
64.666813
0
LINE
8
Layer 1
10
63.508902
20
64.666813
11
66.169645
21
63.438063
0
LINE
8
Layer 1
10
66.169645
20
63.438063
11
68.759302
21
62.031973
0
LINE
8
Layer 1
10
68.759302
20
62.031973
11
70.258814
21
61.318247
0
LINE
8
Layer 1
10
70.258814
20
61.318247
11
71.817412
21
60.744913
0
LINE
8
Layer 1
10
71.817412
20
60.744913
11
73.215322
21
60.523456
0
LINE
8
Layer 1
10
73.215322
20
60.523456
11
73.656342
21
60.570814
0
LINE
8
Layer 1
10
73.656342
20
60.570814
11
73.911716
21
60.829447
0
LINE
8
Layer 1
10
73.911716
20
60.829447
11
73.679767
21
62.473032
0
LINE
8
Layer 1
10
73.679767
20
62.473032
11
73.216977
21
64.058271
0
LINE
8
Layer 1
10
73.216977
20
64.058271
11
72.532303
21
65.561061
0
LINE
8
Layer 1
10
72.532303
20
65.561061
11
71.634700
21
66.957300
0
LINE
8
Layer 1
10
71.634700
20
66.957300
11
71.634700
21
66.957300
0
LINE
8
Layer 1
10
63.620390
20
71.953860
11
62.594670
21
72.317238
0
LINE
8
Layer 1
10
62.594670
20
72.317238
11
62.325712
21
72.391533
0
LINE
8
Layer 1
10
62.325712
20
72.391533
11
62.031273
21
72.486543
0
LINE
8
Layer 1
10
62.031273
20
72.486543
11
61.511330
21
72.701331
0
LINE
8
Layer 1
10
61.511330
20
72.701331
11
60.570264
21
73.382615
0
LINE
8
Layer 1
10
60.570264
20
73.382615
11
59.872797
21
74.284879
0
LINE
8
Layer 1
10
59.872797
20
74.284879
11
59.464295
21
74.586823
0
LINE
8
Layer 1
10
59.464295
20
74.586823
11
58.992451
21
75.124267
0
LINE
8
Layer 1
10
58.992451
20
75.124267
11
60.214391
21
74.534423
0
LINE
8
Layer 1
10
60.214391
20
74.534423
11
61.538841
21
74.182715
0
LINE
8
Layer 1
10
61.538841
20
74.182715
11
62.224640
21
73.927922
0
LINE
8
Layer 1
10
62.224640
20
73.927922
11
62.872935
21
73.502630
0
LINE
8
Layer 1
10
62.872935
20
73.502630
11
63.840790
21
72.239140
0
LINE
8
Layer 1
10
63.840790
20
72.239140
11
63.854602
21
72.205801
0
LINE
8
Layer 1
10
63.854602
20
72.205801
11
64.037837
21
71.775511
0
LINE
8
Layer 1
10
64.037837
20
71.775511
11
63.620400
21
71.953900
0
LINE
8
Layer 1
10
63.620400
20
71.953900
11
63.620390
21
71.953860
 0 
ENDSEC
 0 
EOF