999
"DXF R12 Output" (www.mydxf.blogspot.com)
 0 
SECTION
 2 
HEADER
 9 
$ACADVER
 1 
AC1009
 9 
$EXTMIN
 10 
 0 
 20 
 0 
 9 
$EXTMAX
 10 
 8.5 
 20 
 11 
 0 
ENDSEC
 0 
SECTION
 2 
ENTITIES
0
LINE
8
Layer 1
10
87.513900
20
59.559200
11
86.733017
21
61.326790
0
LINE
8
Layer 1
10
86.733017
20
61.326790
11
84.899557
21
64.739140
0
LINE
8
Layer 1
10
84.899557
20
64.739140
11
83.982951
21
66.446890
0
LINE
8
Layer 1
10
83.982951
20
66.446890
11
82.380441
21
69.238247
0
LINE
8
Layer 1
10
82.380441
20
69.238247
11
80.586971
21
71.910920
0
LINE
8
Layer 1
10
80.586971
20
71.910920
11
78.048571
21
75.257370
0
LINE
8
Layer 1
10
78.048571
20
75.257370
11
80.399061
21
74.928381
0
LINE
8
Layer 1
10
80.399061
20
74.928381
11
77.641940
21
77.546754
0
LINE
8
Layer 1
10
77.641940
20
77.546754
11
74.739882
21
79.998553
0
LINE
8
Layer 1
10
74.739882
20
79.998553
11
71.700413
21
82.277784
0
LINE
8
Layer 1
10
71.700413
20
82.277784
11
68.531061
21
84.378451
0
LINE
8
Layer 1
10
68.531061
20
84.378451
11
70.364351
21
84.929258
0
LINE
8
Layer 1
10
70.364351
20
84.929258
11
67.569121
21
86.262538
0
LINE
8
Layer 1
10
67.569121
20
86.262538
11
63.003231
21
88.650908
0
LINE
8
Layer 1
10
63.003231
20
88.650908
11
62.046845
21
89.175004
0
LINE
8
Layer 1
10
62.046845
20
89.175004
11
61.199041
21
89.837088
0
LINE
8
Layer 1
10
61.199041
20
89.837088
11
61.141310
21
90.071934
0
LINE
8
Layer 1
10
61.141310
20
90.071934
11
61.253341
21
90.262814
0
LINE
8
Layer 1
10
61.253341
20
90.262814
11
58.710071
21
91.582454
0
LINE
8
Layer 1
10
58.710071
20
91.582454
11
57.502107
21
92.046225
0
LINE
8
Layer 1
10
57.502107
20
92.046225
11
56.325781
21
92.572898
0
LINE
8
Layer 1
10
56.325781
20
92.572898
11
54.435786
21
93.844437
0
LINE
8
Layer 1
10
54.435786
20
93.844437
11
52.493261
21
95.033648
0
LINE
8
Layer 1
10
52.493261
20
95.033648
11
50.230676
21
95.801450
0
LINE
8
Layer 1
10
50.230676
20
95.801450
11
47.871071
21
96.277538
0
LINE
8
Layer 1
10
47.871071
20
96.277538
11
45.343283
21
96.562114
0
LINE
8
Layer 1
10
45.343283
20
96.562114
11
42.796734
21
96.623745
0
LINE
8
Layer 1
10
42.796734
20
96.623745
11
37.690771
21
96.324714
0
LINE
8
Layer 1
10
37.690771
20
96.324714
11
36.544178
21
96.149085
0
LINE
8
Layer 1
10
36.544178
20
96.149085
11
35.603276
21
95.871684
0
LINE
8
Layer 1
10
35.603276
20
95.871684
11
33.867621
21
95.120054
0
LINE
8
Layer 1
10
33.867621
20
95.120054
11
32.060491
21
94.583835
0
LINE
8
Layer 1
10
32.060491
20
94.583835
11
30.272090
21
94.421507
0
LINE
8
Layer 1
10
30.272090
20
94.421507
11
28.495824
21
94.389313
0
LINE
8
Layer 1
10
28.495824
20
94.389313
11
26.725100
21
94.243500
0
LINE
8
Layer 1
10
26.725100
20
94.243500
11
24.998646
21
93.939355
0
LINE
8
Layer 1
10
24.998646
20
93.939355
11
23.362446
21
93.454825
0
LINE
8
Layer 1
10
23.362446
20
93.454825
11
21.821153
21
92.580010
0
LINE
8
Layer 1
10
21.821153
20
92.580010
11
20.379420
21
91.105010
0
LINE
8
Layer 1
10
20.379420
20
91.105010
11
20.329504
21
90.895015
0
LINE
8
Layer 1
10
20.329504
20
90.895015
11
20.433790
21
90.682223
0
LINE
8
Layer 1
10
20.433790
20
90.682223
11
20.803964
21
90.328787
0
LINE
8
Layer 1
10
20.803964
20
90.328787
11
22.216724
21
89.508145
0
LINE
8
Layer 1
10
22.216724
20
89.508145
11
25.970844
21
87.967725
0
LINE
8
Layer 1
10
25.970844
20
87.967725
11
29.589108
21
86.704192
0
LINE
8
Layer 1
10
29.589108
20
86.704192
11
33.182074
21
85.331175
0
LINE
8
Layer 1
10
33.182074
20
85.331175
11
32.377741
21
85.129753
0
LINE
8
Layer 1
10
32.377741
20
85.129753
11
33.507794
21
84.322377
0
LINE
8
Layer 1
10
33.507794
20
84.322377
11
34.716968
21
83.647917
0
LINE
8
Layer 1
10
34.716968
20
83.647917
11
35.993618
21
83.112043
0
LINE
8
Layer 1
10
35.993618
20
83.112043
11
37.326101
21
82.720423
0
LINE
8
Layer 1
10
37.326101
20
82.720423
11
36.568168
21
82.523960
0
LINE
8
Layer 1
10
36.568168
20
82.523960
11
37.877137
21
81.236277
0
LINE
8
Layer 1
10
37.877137
20
81.236277
11
39.428663
21
80.112600
0
LINE
8
Layer 1
10
39.428663
20
80.112600
11
42.669018
21
78.094990
0
LINE
8
Layer 1
10
42.669018
20
78.094990
11
41.760924
21
77.894229
0
LINE
8
Layer 1
10
41.760924
20
77.894229
11
42.116205
21
77.641705
0
LINE
8
Layer 1
10
42.116205
20
77.641705
11
42.446345
21
77.296229
0
LINE
8
Layer 1
10
42.446345
20
77.296229
11
44.890763
21
75.358381
0
LINE
8
Layer 1
10
44.890763
20
75.358381
11
47.568900
21
73.759000
0
LINE
8
Layer 1
10
47.568900
20
73.759000
11
46.356580
21
73.659551
0
LINE
8
Layer 1
10
46.356580
20
73.659551
11
47.355478
21
72.374588
0
LINE
8
Layer 1
10
47.355478
20
72.374588
11
48.494739
21
71.203756
0
LINE
8
Layer 1
10
48.494739
20
71.203756
11
50.983140
21
69.069291
0
LINE
8
Layer 1
10
50.983140
20
69.069291
11
49.840295
21
66.656046
0
LINE
8
Layer 1
10
49.840295
20
66.656046
11
48.524086
21
64.336986
0
LINE
8
Layer 1
10
48.524086
20
64.336986
11
47.040265
21
62.121423
0
LINE
8
Layer 1
10
47.040265
20
62.121423
11
45.394580
21
60.018671
0
LINE
8
Layer 1
10
45.394580
20
60.018671
11
43.708060
21
58.190500
0
LINE
8
Layer 1
10
43.708060
20
58.190500
11
41.903430
21
56.514392
0
LINE
8
Layer 1
10
41.903430
20
56.514392
11
39.982817
21
54.986986
0
LINE
8
Layer 1
10
39.982817
20
54.986986
11
37.948345
21
53.604922
0
LINE
8
Layer 1
10
37.948345
20
53.604922
11
35.802140
21
52.364839
0
LINE
8
Layer 1
10
35.802140
20
52.364839
11
33.546327
21
51.263376
0
LINE
8
Layer 1
10
33.546327
20
51.263376
11
31.183032
21
50.297174
0
LINE
8
Layer 1
10
31.183032
20
50.297174
11
28.714380
21
49.462871
0
LINE
8
Layer 1
10
28.714380
20
49.462871
11
25.227697
21
48.498099
0
LINE
8
Layer 1
10
25.227697
20
48.498099
11
21.651144
21
47.741659
0
LINE
8
Layer 1
10
21.651144
20
47.741659
11
18.014996
21
47.257706
0
LINE
8
Layer 1
10
18.014996
20
47.257706
11
14.349529
21
47.110396
0
LINE
8
Layer 1
10
14.349529
20
47.110396
11
10.685020
21
47.363885
0
LINE
8
Layer 1
10
10.685020
20
47.363885
11
7.051744
21
48.082328
0
LINE
8
Layer 1
10
7.051744
20
48.082328
11
3.479979
21
49.329881
0
LINE
8
Layer 1
10
3.479979
20
49.329881
11
1.726624
21
50.172122
0
LINE
8
Layer 1
10
1.726624
20
50.172122
11
0.000000
21
51.170700
0
LINE
8
Layer 1
10
0.000000
20
51.170700
11
0.385681
21
49.735787
0
LINE
8
Layer 1
10
0.385681
20
49.735787
11
0.920157
21
48.438500
0
LINE
8
Layer 1
10
0.920157
20
48.438500
11
1.661402
21
47.270738
0
LINE
8
Layer 1
10
1.661402
20
47.270738
11
2.667390
21
46.224400
0
LINE
8
Layer 1
10
2.667390
20
46.224400
11
4.092394
21
45.298288
0
LINE
8
Layer 1
10
4.092394
20
45.298288
11
5.814535
21
44.545126
0
LINE
8
Layer 1
10
5.814535
20
44.545126
11
9.197990
21
43.445310
0
LINE
8
Layer 1
10
9.197990
20
43.445310
11
6.048370
21
43.843411
0
LINE
8
Layer 1
10
6.048370
20
43.843411
11
2.898750
21
44.241515
0
LINE
8
Layer 1
10
2.898750
20
44.241515
11
4.768240
21
41.822375
0
LINE
8
Layer 1
10
4.768240
20
41.822375
11
6.233737
21
40.059584
0
LINE
8
Layer 1
10
6.233737
20
40.059584
11
7.034560
21
39.279511
0
LINE
8
Layer 1
10
7.034560
20
39.279511
11
7.954000
21
38.608815
0
LINE
8
Layer 1
10
7.954000
20
38.608815
11
9.671958
21
37.877801
0
LINE
8
Layer 1
10
9.671958
20
37.877801
11
11.454700
21
37.402465
0
LINE
8
Layer 1
10
11.454700
20
37.402465
11
13.946114
21
36.819173
0
LINE
8
Layer 1
10
13.946114
20
36.819173
11
16.476000
21
36.435700
0
LINE
8
Layer 1
10
16.476000
20
36.435700
11
17.056452
21
36.377066
0
LINE
8
Layer 1
10
17.056452
20
36.377066
11
16.388949
21
36.332977
0
LINE
8
Layer 1
10
16.388949
20
36.332977
11
15.693641
21
36.286952
0
LINE
8
Layer 1
10
15.693641
20
36.286952
11
14.303081
21
36.195032
0
LINE
8
Layer 1
10
14.303081
20
36.195032
11
11.521911
21
36.011063
0
LINE
8
Layer 1
10
11.521911
20
36.011063
11
10.917956
21
35.971349
0
LINE
8
Layer 1
10
10.917956
20
35.971349
11
12.661266
21
34.712189
0
LINE
8
Layer 1
10
12.661266
20
34.712189
11
13.680086
21
34.067346
0
LINE
8
Layer 1
10
13.680086
20
34.067346
11
15.937726
21
32.768436
0
LINE
8
Layer 1
10
15.937726
20
32.768436
11
17.681526
21
31.957048
0
LINE
8
Layer 1
10
17.681526
20
31.957048
11
19.412276
21
31.761214
0
LINE
8
Layer 1
10
19.412276
20
31.761214
11
22.293386
21
31.594062
0
LINE
8
Layer 1
10
22.293386
20
31.594062
11
27.596196
21
31.683151
0
LINE
8
Layer 1
10
27.596196
20
31.683151
11
29.149576
21
31.807157
0
LINE
8
Layer 1
10
29.149576
20
31.807157
11
26.223296
21
30.925961
0
LINE
8
Layer 1
10
26.223296
20
30.925961
11
23.354146
21
29.873537
0
LINE
8
Layer 1
10
23.354146
20
29.873537
11
25.702406
21
29.155223
0
LINE
8
Layer 1
10
25.702406
20
29.155223
11
28.332613
21
28.428411
0
LINE
8
Layer 1
10
28.332613
20
28.428411
11
30.938325
21
27.887603
0
LINE
8
Layer 1
10
30.938325
20
27.887603
11
33.590002
21
27.673232
0
LINE
8
Layer 1
10
33.590002
20
27.673232
11
36.358106
21
27.925733
0
LINE
8
Layer 1
10
36.358106
20
27.925733
11
38.590545
21
28.520703
0
LINE
8
Layer 1
10
38.590545
20
28.520703
11
40.735746
21
29.378543
0
LINE
8
Layer 1
10
40.735746
20
29.378543
11
43.142596
21
30.567153
0
LINE
8
Layer 1
10
43.142596
20
30.567153
11
44.318253
21
31.113007
0
LINE
8
Layer 1
10
44.318253
20
31.113007
11
45.384536
21
31.792183
0
LINE
8
Layer 1
10
45.384536
20
31.792183
11
43.052178
21
29.515829
0
LINE
8
Layer 1
10
43.052178
20
29.515829
11
40.566816
21
27.407593
0
LINE
8
Layer 1
10
40.566816
20
27.407593
11
40.972304
21
27.439292
0
LINE
8
Layer 1
10
40.972304
20
27.439292
11
41.404973
21
27.463642
0
LINE
8
Layer 1
10
41.404973
20
27.463642
11
42.643171
21
27.469190
0
LINE
8
Layer 1
10
42.643171
20
27.469190
11
43.871343
21
27.619443
0
LINE
8
Layer 1
10
43.871343
20
27.619443
11
47.975504
21
28.208514
0
LINE
8
Layer 1
10
47.975504
20
28.208514
11
49.996095
21
28.709837
0
LINE
8
Layer 1
10
49.996095
20
28.709837
11
51.922503
21
29.452343
0
LINE
8
Layer 1
10
51.922503
20
29.452343
11
53.782674
21
30.504215
0
LINE
8
Layer 1
10
53.782674
20
30.504215
11
55.502639
21
31.773391
0
LINE
8
Layer 1
10
55.502639
20
31.773391
11
57.093066
21
33.201361
0
LINE
8
Layer 1
10
57.093066
20
33.201361
11
58.564623
21
34.729613
0
LINE
8
Layer 1
10
58.564623
20
34.729613
11
59.786654
21
36.204657
0
LINE
8
Layer 1
10
59.786654
20
36.204657
11
60.860993
21
37.790503
0
LINE
8
Layer 1
10
60.860993
20
37.790503
11
60.260783
21
36.122333
0
LINE
8
Layer 1
10
60.260783
20
36.122333
11
59.110059
21
34.270015
0
LINE
8
Layer 1
10
59.110059
20
34.270015
11
58.570167
21
33.337648
0
LINE
8
Layer 1
10
58.570167
20
33.337648
11
58.257443
21
32.294373
0
LINE
8
Layer 1
10
58.257443
20
32.294373
11
58.695982
21
32.566522
0
LINE
8
Layer 1
10
58.695982
20
32.566522
11
59.653279
21
33.141733
0
LINE
8
Layer 1
10
59.653279
20
33.141733
11
60.734299
21
33.838960
0
LINE
8
Layer 1
10
60.734299
20
33.838960
11
62.747746
21
35.280892
0
LINE
8
Layer 1
10
62.747746
20
35.280892
11
64.664559
21
36.849000
0
LINE
8
Layer 1
10
64.664559
20
36.849000
11
67.626123
21
39.793663
0
LINE
8
Layer 1
10
67.626123
20
39.793663
11
70.339339
21
42.968620
0
LINE
8
Layer 1
10
70.339339
20
42.968620
11
70.364381
21
42.727554
0
LINE
8
Layer 1
10
70.364381
20
42.727554
11
70.399198
21
42.357677
0
LINE
8
Layer 1
10
70.399198
20
42.357677
11
70.215438
21
40.559147
0
LINE
8
Layer 1
10
70.215438
20
40.559147
11
69.950683
21
39.612212
0
LINE
8
Layer 1
10
69.950683
20
39.612212
11
69.780232
21
38.645677
0
LINE
8
Layer 1
10
69.780232
20
38.645677
11
69.503613
21
36.494919
0
LINE
8
Layer 1
10
69.503613
20
36.494919
11
68.906811
21
34.410187
0
LINE
8
Layer 1
10
68.906811
20
34.410187
11
68.066125
21
32.491167
0
LINE
8
Layer 1
10
68.066125
20
32.491167
11
69.702196
21
33.186543
0
LINE
8
Layer 1
10
69.702196
20
33.186543
11
71.360695
21
33.724827
0
LINE
8
Layer 1
10
71.360695
20
33.724827
11
70.755735
21
32.628277
0
LINE
8
Layer 1
10
70.755735
20
32.628277
11
70.070485
21
31.438866
0
LINE
8
Layer 1
10
70.070485
20
31.438866
11
69.310725
21
30.296517
0
LINE
8
Layer 1
10
69.310725
20
30.296517
11
68.631419
21
29.144846
0
LINE
8
Layer 1
10
68.631419
20
29.144846
11
68.095154
21
27.925102
0
LINE
8
Layer 1
10
68.095154
20
27.925102
11
67.706834
21
26.650518
0
LINE
8
Layer 1
10
67.706834
20
26.650518
11
67.471365
21
25.334327
0
LINE
8
Layer 1
10
67.471365
20
25.334327
11
67.153852
21
22.191341
0
LINE
8
Layer 1
10
67.153852
20
22.191341
11
66.708237
21
19.070787
0
LINE
8
Layer 1
10
66.708237
20
19.070787
11
65.833067
21
15.493217
0
LINE
8
Layer 1
10
65.833067
20
15.493217
11
65.148627
21
13.527770
0
LINE
8
Layer 1
10
65.148627
20
13.527770
11
64.287397
21
11.624895
0
LINE
8
Layer 1
10
64.287397
20
11.624895
11
63.227765
21
9.821879
0
LINE
8
Layer 1
10
63.227765
20
9.821879
11
61.948117
21
8.156007
0
LINE
8
Layer 1
10
61.948117
20
8.156007
11
65.150119
21
10.053557
0
LINE
8
Layer 1
10
65.150119
20
10.053557
11
66.684425
21
11.095368
0
LINE
8
Layer 1
10
66.684425
20
11.095368
11
68.133577
21
12.245257
0
LINE
8
Layer 1
10
68.133577
20
12.245257
11
69.462013
21
13.538863
0
LINE
8
Layer 1
10
69.462013
20
13.538863
11
70.612866
21
14.980011
0
LINE
8
Layer 1
10
70.612866
20
14.980011
11
71.523710
21
16.555303
0
LINE
8
Layer 1
10
71.523710
20
16.555303
11
72.132117
21
18.251337
0
LINE
8
Layer 1
10
72.132117
20
18.251337
11
71.549786
21
15.813268
0
LINE
8
Layer 1
10
71.549786
20
15.813268
11
70.750407
21
13.437497
0
LINE
8
Layer 1
10
70.750407
20
13.437497
11
70.107638
21
11.987517
0
LINE
8
Layer 1
10
70.107638
20
11.987517
11
70.319250
21
11.844009
0
LINE
8
Layer 1
10
70.319250
20
11.844009
11
70.670389
21
11.988810
0
LINE
8
Layer 1
10
70.670389
20
11.988810
11
73.004242
21
14.059135
0
LINE
8
Layer 1
10
73.004242
20
14.059135
11
74.818843
21
16.051480
0
LINE
8
Layer 1
10
74.818843
20
16.051480
11
76.227947
21
18.291423
0
LINE
8
Layer 1
10
76.227947
20
18.291423
11
77.345309
21
21.104540
0
LINE
8
Layer 1
10
77.345309
20
21.104540
11
76.066989
21
15.320250
0
LINE
8
Layer 1
10
76.066989
20
15.320250
11
74.577846
21
9.163346
0
LINE
8
Layer 1
10
74.577846
20
9.163346
11
73.610532
21
6.147077
0
LINE
8
Layer 1
10
73.610532
20
6.147077
11
72.380299
21
3.218250
0
LINE
8
Layer 1
10
72.380299
20
3.218250
11
74.685694
21
5.218509
0
LINE
8
Layer 1
10
74.685694
20
5.218509
11
76.744189
21
7.476130
0
LINE
8
Layer 1
10
76.744189
20
7.476130
11
78.411976
21
9.539484
0
LINE
8
Layer 1
10
78.411976
20
9.539484
11
79.078583
21
10.658616
0
LINE
8
Layer 1
10
79.078583
20
10.658616
11
79.533529
21
11.862570
0
LINE
8
Layer 1
10
79.533529
20
11.862570
11
79.328709
21
9.015190
0
LINE
8
Layer 1
10
79.328709
20
9.015190
11
80.336406
21
9.965495
0
LINE
8
Layer 1
10
80.336406
20
9.965495
11
81.194949
21
11.043624
0
LINE
8
Layer 1
10
81.194949
20
11.043624
11
81.892470
21
12.232289
0
LINE
8
Layer 1
10
81.892470
20
12.232289
11
82.417100
21
13.514200
0
LINE
8
Layer 1
10
82.417100
20
13.514200
11
83.013506
21
16.156558
0
LINE
8
Layer 1
10
83.013506
20
16.156558
11
83.125034
21
18.863090
0
LINE
8
Layer 1
10
83.125034
20
18.863090
11
83.348747
21
17.334622
0
LINE
8
Layer 1
10
83.348747
20
17.334622
11
83.394090
21
15.788525
0
LINE
8
Layer 1
10
83.394090
20
15.788525
11
83.201923
21
12.686510
0
LINE
8
Layer 1
10
83.201923
20
12.686510
11
83.093336
21
9.528337
0
LINE
8
Layer 1
10
83.093336
20
9.528337
11
83.017316
21
7.950434
0
LINE
8
Layer 1
10
83.017316
20
7.950434
11
82.806767
21
6.380230
0
LINE
8
Layer 1
10
82.806767
20
6.380230
11
82.325196
21
4.691634
0
LINE
8
Layer 1
10
82.325196
20
4.691634
11
81.610090
21
3.068082
0
LINE
8
Layer 1
10
81.610090
20
3.068082
11
79.790607
21
0.000120
0
LINE
8
Layer 1
10
79.790607
20
0.000120
11
80.809143
21
1.122202
0
LINE
8
Layer 1
10
80.809143
20
1.122202
11
81.955637
21
2.144920
0
LINE
8
Layer 1
10
81.955637
20
2.144920
11
84.224807
21
4.355280
0
LINE
8
Layer 1
10
84.224807
20
4.355280
11
86.280994
21
6.662956
0
LINE
8
Layer 1
10
86.280994
20
6.662956
11
87.987427
21
9.240040
0
LINE
8
Layer 1
10
87.987427
20
9.240040
11
88.306338
21
8.220990
0
LINE
8
Layer 1
10
88.306338
20
8.220990
11
88.498073
21
7.293444
0
LINE
8
Layer 1
10
88.498073
20
7.293444
11
88.447850
21
6.347620
0
LINE
8
Layer 1
10
88.447850
20
6.347620
11
88.147978
21
5.156421
0
LINE
8
Layer 1
10
88.147978
20
5.156421
11
87.697045
21
4.005920
0
LINE
8
Layer 1
10
87.697045
20
4.005920
11
86.726990
21
1.725840
0
LINE
8
Layer 1
10
86.726990
20
1.725840
11
88.010590
21
2.526092
0
LINE
8
Layer 1
10
88.010590
20
2.526092
11
89.091520
21
3.625062
0
LINE
8
Layer 1
10
89.091520
20
3.625062
11
90.174603
21
4.782743
0
LINE
8
Layer 1
10
90.174603
20
4.782743
11
91.174900
21
6.004982
0
LINE
8
Layer 1
10
91.174900
20
6.004982
11
91.861993
21
7.234090
0
LINE
8
Layer 1
10
91.861993
20
7.234090
11
92.353670
21
8.553582
0
LINE
8
Layer 1
10
92.353670
20
8.553582
11
92.673080
21
9.948889
0
LINE
8
Layer 1
10
92.673080
20
9.948889
11
92.826127
21
11.372082
0
LINE
8
Layer 1
10
92.826127
20
11.372082
11
93.027820
21
17.185852
0
LINE
8
Layer 1
10
93.027820
20
17.185852
11
92.833415
21
20.395297
0
LINE
8
Layer 1
10
92.833415
20
20.395297
11
92.523803
21
23.603122
0
LINE
8
Layer 1
10
92.523803
20
23.603122
11
94.456673
21
20.153082
0
LINE
8
Layer 1
10
94.456673
20
20.153082
11
94.379153
21
20.993789
0
LINE
8
Layer 1
10
94.379153
20
20.993789
11
94.405873
21
21.880482
0
LINE
8
Layer 1
10
94.405873
20
21.880482
11
94.176472
21
23.688682
0
LINE
8
Layer 1
10
94.176472
20
23.688682
11
93.533799
21
26.979592
0
LINE
8
Layer 1
10
93.533799
20
26.979592
11
93.183976
21
29.284768
0
LINE
8
Layer 1
10
93.183976
20
29.284768
11
92.997295
21
31.608852
0
LINE
8
Layer 1
10
92.997295
20
31.608852
11
92.736527
21
34.950609
0
LINE
8
Layer 1
10
92.736527
20
34.950609
11
92.161204
21
38.254762
0
LINE
8
Layer 1
10
92.161204
20
38.254762
11
91.991899
21
38.873373
0
LINE
8
Layer 1
10
91.991899
20
38.873373
11
91.808057
21
39.460725
0
LINE
8
Layer 1
10
91.808057
20
39.460725
11
93.476587
21
37.136675
0
LINE
8
Layer 1
10
93.476587
20
37.136675
11
93.124938
21
38.348895
0
LINE
8
Layer 1
10
93.124938
20
38.348895
11
91.563608
21
43.370155
0
LINE
8
Layer 1
10
91.563608
20
43.370155
11
90.725172
21
45.861785
0
LINE
8
Layer 1
10
90.725172
20
45.861785
11
90.611005
21
46.345214
0
LINE
8
Layer 1
10
90.611005
20
46.345214
11
90.461710
21
46.978018
0
LINE
8
Layer 1
10
90.461710
20
46.978018
11
90.034197
21
48.472078
0
LINE
8
Layer 1
10
90.034197
20
48.472078
11
87.957747
21
54.461568
0
LINE
8
Layer 1
10
87.957747
20
54.461568
11
87.420300
21
55.765518
0
LINE
8
Layer 1
10
87.420300
20
55.765518
11
87.338627
21
56.625211
0
LINE
8
Layer 1
10
87.338627
20
56.625211
11
87.206067
21
57.574490
0
LINE
8
Layer 1
10
87.206067
20
57.574490
11
86.929678
21
59.083681
0
LINE
8
Layer 1
10
86.929678
20
59.083681
11
86.474181
21
60.548800
0
LINE
8
Layer 1
10
86.474181
20
60.548800
11
86.973525
21
60.132125
0
LINE
8
Layer 1
10
86.973525
20
60.132125
11
87.513900
21
59.559200
0
LINE
8
Layer 1
10
87.513900
20
59.559200
11
87.513900
21
59.559200
0
LINE
8
Layer 1
10
41.457700
20
93.535300
11
40.927015
21
93.468608
0
LINE
8
Layer 1
10
40.927015
20
93.468608
11
39.837195
21
92.902886
0
LINE
8
Layer 1
10
39.837195
20
92.902886
11
38.588405
21
92.719831
0
LINE
8
Layer 1
10
38.588405
20
92.719831
11
37.961141
21
92.789616
0
LINE
8
Layer 1
10
37.961141
20
92.789616
11
37.658842
21
92.862909
0
LINE
8
Layer 1
10
37.658842
20
92.862909
11
37.377136
21
92.952520
0
LINE
8
Layer 1
10
37.377136
20
92.952520
11
36.270036
21
93.245102
0
LINE
8
Layer 1
10
36.270036
20
93.245102
11
35.767099
21
93.362673
0
LINE
8
Layer 1
10
35.767099
20
93.362673
11
36.178421
21
93.653396
0
LINE
8
Layer 1
10
36.178421
20
93.653396
11
36.192476
21
93.663455
0
LINE
8
Layer 1
10
36.192476
20
93.663455
11
37.680900
21
94.318600
0
LINE
8
Layer 1
10
37.680900
20
94.318600
11
38.499300
21
94.367000
0
LINE
8
Layer 1
10
38.499300
20
94.367000
11
39.288110
21
94.251484
0
LINE
8
Layer 1
10
39.288110
20
94.251484
11
40.725500
21
93.884570
0
LINE
8
Layer 1
10
40.725500
20
93.884570
11
42.166370
21
93.863985
0
LINE
8
Layer 1
10
42.166370
20
93.863985
11
41.457700
21
93.535300
0
LINE
8
Layer 1
10
41.457700
20
93.535300
11
41.457700
21
93.535300
 0 
ENDSEC
 0 
EOF