<svg xmlns="http://www.w3.org/2000/svg" viewBox="0 0 358.94804 682.58542"><defs><style>.cls-1{fill:#24373e;}</style></defs><g id="Слой_2" data-name="Слой 2"><g id="Слой_1-2" data-name="Слой 1"><path class="cls-1" d="M177.35447,632.36184c-.003,1.33515-.00641,2.69292-.00942,4.02318a9.11884,9.11884,0,0,0,.03731.9239,7.79747,7.79747,0,0,0,.05881-.916q.06162-5.20191.12364-10.42719a10.54915,10.54915,0,0,0-.242-3.33826C177.40385,626.83387,177.39518,626.89305,177.35447,632.36184Z"/><path class="cls-1" d="M177.11737,679.52164l-.00113-.56429-.00038-.03167v.17566C177.11661,679.24232,177.117,679.38179,177.11737,679.52164Z"/><path class="cls-1" d="M177.12717,682.43056c-.00076-.3042-.00189-.82891-.003-1.19417-.00226-.58729-.00414-1.14932-.00678-1.71475.00151.50662.00264,1.01211.00377,1.53871C177.12528,682.03627,177.12943,682.96093,177.12717,682.43056Z"/><path class="cls-1" d="M177.84752,596.05328c-.00339.11158.017.29591.02639.44744l.026-.63968-.00792-.65627C177.8773,595.4856,177.86335,595.754,177.84752,596.05328Z"/><path class="cls-1" d="M358.92136,211.1058l-.05918-.07049-.11837-.14135-.2371-.28234-.94878-1.1301-3.79815-4.52415-7.69467-9.09391-2.70838-3.21576-1.94883-2.33633-3.89389-4.67531c-9.9658-11.98926-19.85621-24.03733-29.92868-35.93122L277.2356,114.04991,246.795,78.47377,216.27717,42.964,200.22212,24.34605c-5.093-5.9068-10.18329-11.78948-15.27626-17.78373l-3.8185-4.47477L180.17255.96914l-.47722-.5594-.23861-.27969A1.0175,1.0175,0,0,0,179.3376,0l-.11949.14023-1.90925,2.24021-7.63474,8.96009L161.186,21.31161,157.00333,26.25l-2.097,2.51086c-6.40928,7.63964-12.78651,15.30152-19.24706,22.90648Q118.087,72.29915,100.50723,92.93922l-25.56661,29.828c-8.08294,9.47765-15.85941,19.20333-24.20395,28.48308A54.90482,54.90482,0,0,0,47.277,155.566C43.35148,160.993,38.706,166.12439,34.3959,171.39415c-4.69114,5.72549-9.69326,11.23762-14.09415,17.22811q-1.29312,1.72849-2.5904,3.46228l-1.31857,1.717-.66531.85454-.334.42633-.56279.68944c-3.38161,4.11252-6.77341,8.15079-10.16143,12.157L2.0996,210.93806l-.16171.18847.15041.19.30269.38.60387.76069L4.19921,213.98q2.40194,3.06856,4.80008,6.13109,2.53876,3.11718,5.0696,6.22533l1.26919,1.58205.683.90808,1.27221,1.73623c1.23752,1.71059,3.02389,3.70767,4.61575,5.51854l9.94958,11.189q23.01109,25.80033,46.02255,51.5999,6.87726,7.627,13.744,15.24309c4.58672,5.07789,9.3148,10.68728,13.72775,15.08817,5.24978,5.243,8.73883,10.204,13.16271,15.18919,1.639,1.84818,3.34844,3.62889,5.02172,5.45144,7.07837,7.71767,14.34935,15.37277,21.20644,23.15452q11.87109,13.44353,23.82775,26.71141-22.94605,27.85734-45.88948,55.71091-19.02033,23.17506-38.208,46.133c-18.39137,22.05156-36.42126,44.30328-54.41043,66.4683-9.2315,11.39708-17.29521,21.511-24.20168,29.92793-7.26118,8.91335-9.17232,10.63941,2.41512-2.29148,6.1062-6.75343,12.59954-13.93508,19.81511-21.91548,17.04-18.89347,34.14373-37.66406,51.31342-56.504,20.91392-22.96189,41.85046-45.97618,62.86164-68.819q13.95355-15.15337,27.92406-30.32448c.12063,3.14263.22843,6.28639.20921,9.43506a20.9154,20.9154,0,0,0,.1406,2.40456c.33247,2.90289.29968,5.91321.43651,8.87339.14588,3.21916.10818,6.456.42935,9.67932a88.02394,88.02394,0,0,1,.26838,15.03766c-.06672.91523-.02487,2.08038.0034,3.12906l.21109,6.51218.94124,30.07154q.151,4.4663.30156,8.92542c.09952,2.97564.10819,6.1669.32531,8.86963.25406,3.218.04825,5.84422.11987,8.743.02563,1.0743.08821,2.14673.12967,3.22216.17717,4.55318.4056,9.1399.4938,13.65124.1538,6.51708.30722,13.00627.46064,19.506.07124,2.7114.07463,5.60373.21184,8.09952.2028,3.73293.28272,7.35014.31551,11.12114.00716.78821.04146,1.61712.06823,2.42.10215,3.22254.20393,6.43189.30646,9.665.08707,3.22443.13683,6.50012.285,9.60091.14626,3.17769.06107,6.44207.17378,9.67329.03279,1.30236.07124,2.81091.10177,4.00848.19451,4.63912.245,9.56359.337,14.40777q.082,4.45329.16359,8.89.08142,4.82928.16284,9.64878.09387,6.84559.18735,13.69307c.00829.46252.01583.87641.02375,1.31254a9.17375,9.17375,0,0,1,.05691,1.93564c.01471,2.27678.02715,4.17849.04109,6.35726.0098,1.01814.01659,1.691.01885,1.93827.00038-1.0008.00075-1.79729.00113-3.27682-.00151-4.28366-.003-8.53452-.00452-12.77445-.0049-2.96886-.0098-5.96711-.0147-8.89074-.00377-2.41511-.00717-4.66324-.01094-7.16053.01357-4.67418.08293-9.55907-.0637-14.14127-.03958-1.19079-.01885-2.63375.04825-3.56406a27.58722,27.58722,0,0,0,.05051-2.7638c-.04863-1.57188-.043-3.0401-.01583-4.68322.04259-2.60774.0539-5.29049.03355-8-.006-.73429.01809-1.51609.02978-2.31371.2043.13871.24162,3.44494.41389,3.78.11949-1.49461.03392-3.56859.1014-5.20756.08255-1.95826.16435-3.91463.10479-6.064-.08255.07916-.16963.40484-.23936.12929-.03506-.14023-.06107-1.377-.055-2.0932.01659-1.8693.02978-3.83207.09235-5.5619.1161-3.10795.00113-6.433.15832-9.51421.04109-.77877-.02525-2.07435-.03468-3.14564-.03128-3.483.1342-10.92287.38939-13.99878a68.82482,68.82482,0,0,0,.25143-8.39731,49.37978,49.37978,0,0,1,.10856-5.49216,40.79048,40.79048,0,0,0-.00679-5.44127,31.66171,31.66171,0,0,1-.19563-4.20111c.04071-.58766.10856-1.89869.22014-3.00956a35.65487,35.65487,0,0,0,.20845-3.76686c-.00565-3.65264.1798-6.97885.48325-10.14485a30.5717,30.5717,0,0,0,.15191-4.687c-.17038-2.63488.1685-5.3297.02262-7.98757a73.41773,73.41773,0,0,1,.38034-7.79117c.03129-.80479.10328-1.636.09537-2.40419-.06861-5.97352.34943-11.80229.441-17.72493.07953-5.94676.55525-11.84112.38675-17.83726-.02111-.71168.10856-1.55492.1504-2.35217.26613-5.09485.5119-10.20553.55412-15.39085.009-1.08336.00716-2.17877.05051-3.25233q.71018-16.19658,1.42-32.39016.03618-.8272.07275-1.65556c1.423,1.58017,2.82976,3.10908,4.20111,4.52189,5.99123,6.16614,11.54672,12.35679,17.21529,18.91458,1.18475,1.3721,2.49616,2.75739,3.7499,4.11328,5.02587,5.44881,10.03138,10.87538,15.07459,16.34228,5.0025,5.47482,9.98992,11.117,14.96151,16.24427,5.08845,5.2592,9.73662,11.15884,14.82318,16.5824,2.04759,2.18781,4.31456,4.81553,6.22608,6.79942,7.40178,7.70259,14.87632,16.20506,22.3403,24.47383q6.86426,7.60044,13.70212,15.17148,7.43477,8.25068,14.85333,16.48326,10.4971,11.72859,20.998,23.46059c.71659.78707,1.357,1.49046,2.03214,2.23192.16133-.06785.62724.40673,3.06762,3.23122,3.4506,3.9346,6.33388,7.222,9.63634,10.98808,1.593,1.82255,2.67333,3.0254,2.99788,3.37445-1.51345-1.76789-2.7031-3.15657-4.93653-5.76506q-9.6552-11.17958-19.12907-22.28188c-4.42313-5.19625-8.90808-10.434-13.34628-15.47906-3.66735-4.16718-7.0369-8.08784-10.7442-12.47063-6.95284-8.19338-14.08247-16.8719-21.32593-24.53642a59.01111,59.01111,0,0,1-5.2053-6.33011,42.36394,42.36394,0,0,0-4.00321-4.93654c-2.47807-2.63487-4.65947-5.211-7.04934-8.13759-3.79324-4.644-7.781-9.34835-11.88786-14.03233-1.11275-1.26881-2.22363-2.68388-3.38915-4.10046.71205-.19073,5.76016,5.49329,6.69538,5.70627-1.94431-2.85954-5.26938-6.28865-7.56086-9.28654a137.201,137.201,0,0,0-8.84588-10.77812c-.081.30872.19564,1.05734-.386.72186a40.98339,40.98339,0,0,1-3.27117-3.53315c-2.76191-3.2919-5.672-6.74062-8.11874-9.88174-4.38807-5.649-9.64426-11.21124-13.90078-16.89149-1.07317-1.43769-3.1709-3.56256-4.79932-5.41-5.29652-6.00594-16.07879-19.2904-20.14156-25.12068-.89676-1.28389-1.7988-2.55082-2.72459-3.81134q14.80282-16.07559,29.60752-32.15306,24.6446-26.77229,49.3137-53.57134,15.15337-16.50474,30.31769-33.02155Q314.11277,261.537,334.259,239.44828l8.16134-9.01853,2.56665-2.86745,3.98172-4.5c2.73477-2.9975,5.1171-6.02516,7.62607-9.0483l1.86591-2.26962.46666-.56768C358.96131,211.15292,358.94925,211.12955,358.92136,211.1058ZM275.326,515.7792c.46365.524.8847,1.13085,1.32573,1.69966-.32191-.331-.6721-.66117-.962-.9925-1.08448-1.256-2.16067-2.50182-4.50115-5.21171C273.40315,513.67469,274.37568,514.70489,275.326,515.7792Zm-72.84629-88.13161,2.29524,2.70349c-.10554-.04109-.24841-.055-.30909-.12628l-2.31636-2.75023C202.26105,427.53074,202.39939,427.55411,202.47968,427.64759Zm-59.57352-72.7283a4.63018,4.63018,0,0,1-1.01625-.90958q-6.97509-8.34454-13.94375-16.68116c-.242-.29063-.57862-.93106-.47873-.8994a2.68062,2.68062,0,0,1,1.27711.72563c1.982,2.21,3.95043,4.52754,7.53635,8.67135,1.16139,1.45616,3.79815,4.7375,6.34369,7.99133A1.33226,1.33226,0,0,1,142.90616,354.91929Zm9.50366,9.99256c-.79838-1.09466-2.62885-3.49583-4.0703-5.62371a69.42011,69.42011,0,0,0-5.2396-6.91439,212.74873,212.74873,0,0,1-14.30676-18.45282,62.168,62.168,0,0,0-6.76436-8.39392c-4.30024-4.2912-7.71051-9.5274-11.99944-13.89851-4.56222-4.632-7.23743-9.38379-11.02691-14.13826-1.15422-1.44711-2.27527-3.00316-3.45022-4.32173C86.40441,282.923,78.3833,272.1498,69.58642,261.75767c-8.84135-10.42719-16.922-21.3478-26.28885-31.473-1.112-1.2021-2.16708-2.85125-3.30208-4.29158q-2.7276-3.44682-5.46162-6.90006l-2.75211-3.44344-.69095-.8602c-.14927-.18734-.1357-.16284-.19338-.23107l-.12854-.14625-.51114-.576a11.76583,11.76583,0,0,1-.96537-1.14367l-.4448-.58163-.22428-.28874-.11271-.14362c-.03317-.04787-.10517-.09612-.026-.14287.70188-.75088,1.3736-1.49347,1.991-2.26773l.395-.48928.43425-.5134.61141-.71093c.81609-.94614,1.63709-1.88362,2.46826-2.79621C51.10232,186.39712,67.863,168.109,84.53776,149.686q26.31825-29.03795,52.471-58.31224,13.65727-15.37107,27.32773-30.75684l4.9633-5.6173c-.17642,3.3262-.34,6.65354-.467,9.98539-.51416,13.50687-.80705,27.03748-1.34458,40.533-.61029,15.40142-1.02078,30.8262-1.39434,46.24646-.25482,10.54818-.42972,21.10541-.588,31.66076q-.10912,9.74283-.21826,19.4932c-.06483,8.66306-.13117,17.32537-.10328,25.996.02337,7.05047.16887,14.11376.2469,21.16988.07426,6.78095.03393,13.55964.222,20.33908l2.34236,81.47052c.055,1.89719.176,3.79287.26047,5.69006.19413,4.33756.41427,8.67323.56128,13.01419q.20243,6.63186.40522,13.26674-.96461-1.2575-1.89266-2.54705a77.81486,77.81486,0,0,0-8.19564-9.44975A60.67793,60.67793,0,0,1,152.40982,364.91185Zm10.293,15.81379a3.011,3.011,0,0,1,1.27937.73091,32.77216,32.77216,0,0,1,5.33308,5.445q.03281,1.06865.06521,2.13693c-.9974-1.178-2.05286-2.37441-3.19653-3.59912C163.84308,382.93646,162.24708,380.63518,162.70281,380.72564Zm13.86911,250.9852c-.00867-.20053-.01734-.409-.02525-.6001-.003-.72186-.006-1.43806-.01244-2.99562.03468,1.41959.04975,2.03553.06483,2.659C176.60283,631.0787,176.58135,631.39835,176.57192,631.71084Zm.6329-49.12446a.41331.41331,0,0,1-.05051-.12892l.01093-1.56434a.51643.51643,0,0,1,.046.15078Zm.4825-24.256c-.173,1.7532-.2699,3.65076-.36263,5.62523-.00716.14964-.0686.30608-.08218.21674-.04259-.28836-.081-.66117-.10969-1.06073-.01432-.19753-.00264-.52623-.00226-.88734.06936-1.694.12816-3.42045.05994-5.396a6.60858,6.60858,0,0,1,.15341-2.54253,1.48725,1.48725,0,0,1,.17717.60388A16.57729,16.57729,0,0,1,177.68732,558.33041Zm.67134-23.05085c-.029.80969-.09423,2.63978-.15794,4.43519a.61582.61582,0,0,1-.18885.44367,2.34,2.34,0,0,1-.06521-.588q.06276-4.73091.12552-9.45691c.00226-.16473.06484-.47119.08595-.43237a1.25848,1.25848,0,0,1,.18809.60086C178.36733,531.573,178.35753,532.89573,178.35866,535.27956Zm145.748-323.69277-.38638.455-3.32055,3.93648L307.12394,231.728c-21.27693,25.30539-42.25946,50.83808-63.26159,76.34024q-29.7238,36.2013-59.42537,72.3751.67794-16.46573,1.35739-32.94729c.12666-2.98394.1636-5.98936.34114-8.95633.8636-14.35123,1.33629-28.756,1.75546-43.14567.70037-23.89522,1.36079-47.79534,1.82707-71.686.28234-14.37987.20129-28.75071.15757-43.117-.03732-13.82426-.27065-27.63155-.36527-41.45731-.09461-13.82765-.01658-27.67452-.16849-41.50217-.0965-8.691.029-17.36494.498-26.04987q.38789-7.18259.48174-14.349c18.98734,22.8277,38.456,45.3527,57.9711,67.80345q27.03238,31.08931,54.23214,62.04065L316.13719,202.54l6.81751,7.72143.85228.965.32946.3728-.00566-.00264Zm.1651.072-.072-.032.01734.00037c.03016-.00075.06069.00151.07012.02036l.02186.02224.00905.01093Z"/><path class="cls-1" d="M265.02129,499.94429c6.51143,7.15564,6.58041,7.27551,14.66825,16.90092,1.97446,2.34953,4.007,4.719,6.00255,7.03577a13.73246,13.73246,0,0,0,1.484,1.52514,11.70126,11.70126,0,0,0-1.21454-1.73209q-7.63831-9.20227-15.31169-18.44679C267.60981,501.58553,267.24567,501.25721,265.02129,499.94429Z"/><path class="cls-1" d="M349.53456,599.56457c-.24917-.288-.498-.57523-.749-.86548l-.01056-.01131c.07577.08821.14814.17265.22542.26312C349.17947,599.15671,349.35664,599.36026,349.53456,599.56457Z"/><path class="cls-1" d="M354.01988,604.72878c-.45611-.52622-1.247-1.43919-1.79767-2.07548-.92089-1.05848-1.80107-2.06983-2.68765-3.08873.795.919,1.58771,1.835,2.41436,2.79056C353.42241,604.0465,354.82052,605.64816,354.01988,604.72878Z"/><path class="cls-1" d="M226.45858,452.53834c.15945.20091.48476.48061.7343.72487l-.899-1.16628-1.00532-1.12519C225.67339,451.49193,226.03037,451.99817,226.45858,452.53834Z"/></g></g></svg>