<svg xmlns="http://www.w3.org/2000/svg" viewBox="0 0 365.23713 631.97382"><defs><style>.cls-1{fill:#24373e;}</style></defs><g id="Слой_2" data-name="Слой 2"><g id="Слой_1-2" data-name="Слой 1"><path class="cls-1" d="M365.22029,90.33856c-.00778-3.03659-.12205-6.07142-.17937-9.108l-.21334-10.41387-.09517-5.3511-.07677-10.50409-.09481-18.95759.04139-19.12034.03361-9.56052.018-4.77832.0092-2.3888c.06545-.352-.16168-.01238-.28869.09092L363.942.67775l-.86431.86184L349.26321,15.30422l-4.998,4.97184-2.49812,2.48185-1.24924,1.24-1.21457,1.1707-9.718,9.34471L313.93283,49.59127c-6.21436,6.0502-12.15417,12.37494-18.60274,18.2019a27.06039,27.06039,0,0,0-2.64318,2.80486c-2.96513,3.62212-6.55718,6.83738-9.857,10.24263-3.59241,3.69819-7.46112,7.14943-10.791,11.13242A106.68411,106.68411,0,0,1,254.73,108.699a40.82761,40.82761,0,0,0-3.677,3.40277l-7.343,7.4031-33.836,34.26051c-3.34723,3.39534-6.65342,6.8243-9.96739,10.24759-3.31892,3.42081-7.04966,6.91062-9.84249,10.249a52.01021,52.01021,0,0,1-5.03765,5.13317q-.65857.596-1.31009,1.18485l-2.01626,1.86873c-.2986-.34955-.6-.69733-.90925-1.02671-6.30811-6.71426-12.688-13.39456-19.47554-19.8449-1.41729-1.34795-2.86572-2.69625-4.21933-4.08488-13.62134-13.96665-27.17335-27.9754-40.85555-41.89995Q94.68029,93.61168,72.88864,71.79243,61.43587,60.40281,49.97176,49.00185l-3.18483-3.13813-5.56409-5.4162L30.02638,29.54966l-5.6359-5.48908-5.71233-5.63131L7.18274,7.09483Q4.30057,4.26679,1.41062,1.431l-.18043-.17655L1.14,1.16634,1.095,1.12247l-.02265-.02229-.0007.02936L1.066,1.61848l-.01132.979L1.03277,4.55637.9889,8.47533C.92911,13.69978.85977,18.89415.73665,24.005L.51977,33.33665l-.11569,9.6288Q.316,52.73807.22754,62.51777q-.0934,10.73-.18645,21.47129c-.08385,12.98983-.02264,25.98885.03538,38.98116q.33221,64.72218,1.5719,129.44544c.52715,25.96692,1.42083,51.9165,2.27983,77.85831q1.30921,37.44482,2.617,74.861,1.236,37.45437,2.4723,74.942.82947,23.54133,1.39359,47.03948c.571,22.55035,1.54041,45.03349,2.484,67.44444.49885,11.51381,1.03732,21.66552,1.33946,30.2142.35945,9.0263.05307,11.03407.31558-2.60285.17761-7.1512.36653-14.75454.57633-23.20345.46524-19.98182,1.05713-39.92367,1.65327-59.94051.71784-24.38972,1.41835-48.8226,2.2855-73.19179q1.513-41.71634,3.02881-83.50873,1.02954-28.57172,2.06084-57.17138.60552-17.59337,1.21174-35.19948c.502-15.644,1.04616-31.28512,1.46364-46.94219.36086-12.7312.55863-25.48611.84025-38.22723.27844-12.24439.65062-24.48488.7879-36.7275l.29541-36.77846.17761-36.77845.04457-18.3894.02159-9.1947.00035-.14612.35485.32761q4.29858,4.00458,8.60033,8.01091,15.48283,14.60985,30.97308,29.2257L91.2876,125.60314c7.11122,6.72063,14.48425,13.15434,21.38354,20.1198a34.39955,34.39955,0,0,0,3.27081,2.86253c4.17439,3.22057,7.98509,7.0999,11.966,10.67179,4.324,3.88888,8.416,8.06681,13.01388,11.68186a135.685,135.685,0,0,1,19.67261,18.7163,51.9845,51.9845,0,0,0,4.01943,3.97309l4.32936,3.98051,1.08614.991.54307.49531.07783.0697.01415.011.02866.02158a2.234,2.234,0,0,0,.24483.17406,1.80006,1.80006,0,0,1,.155.10119l.03714.16487c.05555.1079-.024.23208-.06191.35449l-.01663.04635a.08357.08357,0,0,0-.00743.03078l.005.21228.02052.84839.041,1.69679.08208,3.39392.32478,13.57571.68211,27.14965c.1355,5.37658.32372,10.74608.502,16.11735.17336,5.373.11144,11.13561.58942,16.01617.56359,5.811-.00956,10.55291.10118,15.78761.04069,1.9402.1769,3.87615.25933,5.81847.34389,8.22142.87174,16.50369,1.009,24.65046.21333,11.76818.51795,23.48613.89155,35.22283.15461,4.89613.109,10.11881.45781,14.62576.52609,6.74009.71006,13.27251.74332,20.08124.006,1.424.09835,2.92055.16628,4.37.27383,5.81917.56571,11.61428.79214,17.45291.22961,5.82271.341,11.73706.77056,17.33652.43268,5.7378.12453,11.63233.45037,17.46742.12772,2.35131.13763,5.07763.29471,7.23788.59579,8.3778.73235,17.26965,1.01079,26.01681q.259,8.042.51689,16.053c.17866,5.81422.35733,11.61181.536,17.4239q.328,12.36079.65629,24.72582c.03113.83566.05908,1.58287.08844,2.37.16452.04211.208.56324.22148,3.49547.05731,4.11036.10472,7.545.15956,11.47914.02158,1.89455.058,3.16078.07748,3.54.00177-1.82592.00283-3.26232.00566-5.9568-.03326-7.73531-.05236-15.41224-.01451-23.06759.02512-5.36.03043-10.77651-.05306-16.054-.0697-4.36014-.075-8.421-.03645-12.93.05555-8.44077.29011-17.26116-.21121-25.53565a36.97227,36.97227,0,0,1,.16734-6.43583,26.57222,26.57222,0,0,0,.1723-4.99059c-.16345-2.83812-.14258-5.48979-.05271-8.45705.14187-4.70862.17725-9.55274.11-14.44568-.0184-1.32566.05872-2.73764.09552-4.17829.65522.25049.78506,6.22108,1.34795,6.82607.38-2.69908.09269-6.44362.30178-9.40344a85.93921,85.93921,0,0,0,.29789-10.94951c-.25862.14222-.5321.73023-.75216.23279a25.7405,25.7405,0,0,1-.18043-3.7792c.046-3.37553.08172-6.91982.26676-10.0438.34176-5.61221-.02158-11.61641.43835-17.1805.11958-1.406-.08633-3.74524-.11923-5.67978-.109-6.28936.34813-19.72391,1.0497-25.27773a78.63687,78.63687,0,0,0,.64355-15.16388,58.07416,58.07416,0,0,1,.24871-9.91715,48.75246,48.75246,0,0,0-.06828-9.82551,38.14814,38.14814,0,0,1-.56748-7.58636c.10507-1.06067.27631-3.4286.56324-5.4346a43.5733,43.5733,0,0,0,.51653-6.802,133.54823,133.54823,0,0,1,1.13674-18.31865,38.98215,38.98215,0,0,0,.32513-8.46376c-.46382-4.7578.34459-9.62385-.05944-14.4234-.44118-5.0946.6064-9.29588.82222-14.06854.06474-1.453.2243-2.95416.1914-4.34138-.26995-10.78641.64178-21.31208.72846-32.00686.0191-2.47194.08561-4.93894.16769-7.40416.73943.70228,1.487,1.40066,2.21439,2.109q11.22033,10.91148,22.56839,21.59476c3.15866,2.98,6.37852,6.30705,9.43316,8.9053,4.5717,3.88287,8.77015,7.87435,13.03405,12.14639.89085.894,1.88855,1.77356,2.83954,2.64,3.81848,3.47884,7.63483,6.92972,11.43173,10.4542,3.78911,3.51174,7.55169,7.165,11.344,10.39547,3.88074,3.31609,7.33234,7.25132,11.19751,10.70363,1.55527,1.39358,3.25984,3.10664,4.71711,4.35907,5.64086,4.86676,11.275,10.38061,16.92011,15.70306q5.19225,4.89187,10.364,9.76431,5.62212,5.31378,11.23148,10.61553,7.93114,7.5676,15.86439,15.138c.54237.50522,1.02742.957,1.53865,1.43286.14328-.0888.49884.20909,2.33432,2.04952.96337.946,1.8613,1.82769,2.74507,2.69554q.19953,5.32917.39837,10.65869,1.3092,33.19188,2.61735,66.359,1.23545,33.2009,2.4723,66.43118.82947,20.86771,1.39323,41.69722c.57138,19.9896,1.54041,39.91942,2.484,59.78484.49884,10.20655,1.03732,19.20525,1.33945,26.78312.35946,8.001.05307,9.78094.31594-2.30743.1776-6.3396.36653-13.079.57633-20.568.46523-17.7126,1.05713-35.38982,1.65327-53.1332.71749-21.62023,1.418-43.27832,2.28514-64.8798q1.513-36.97889,3.02881-74.025,1.03008-25.32655,2.06084-50.67859.606-15.59532,1.21174-31.202c.502-13.86688,1.04652-27.732,1.46364-41.61125.36087-11.28526.55864-22.59139.84026-33.88549.27843-10.854.65062-21.70444.78789-32.5563Q365.39949,155.54208,365.22029,90.33856ZM28.56593,66.39887l-.22784-.035c-.07748-.01239-.17159-.02583-.14046-.03361v-.063c-.01167-.07571.02618-.03184.058-.01557.02442-.00707.00637-.11427.03361-.08809l.07395.04458.06014.041.03538.02582.13869.12808ZM180.642,478.93739c-.02866-.36193-.0789-.738-.08279-1.08367-.00566-1.30337-.01132-2.59683-.0237-5.40948.11675,2.56358.18361,3.67519.2052,4.80167C180.75135,477.79534,180.6767,478.37273,180.642,478.93739Zm2.13053-88.70593c-.05271-.07819-.15071-.15956-.15036-.23315l.03149-2.82432c.04776.09057.13586.17512.13621.27206Zm1.32531-43.80017c-.47373,3.16609-.73978,6.59257-.99876,10.15737-.01981.27066-.19352.55334-.23138.392a17.4494,17.4494,0,0,1-.30992-1.91579c-.03962-.35662-.00672-.94993-.00672-1.60232a80.174,80.174,0,0,0,.16628-9.74379c-.145-2.68953.13763-4.87773.42066-4.5908a2.10517,2.10517,0,0,1,.48788,1.09A19.82091,19.82091,0,0,1,184.09787,346.43129Zm1.28426-33.61484a1.00652,1.00652,0,0,1-.49637.801,2.96532,2.96532,0,0,1-.17689-1.06209q.13586-8.542.27136-17.07648c.0053-.29718.16486-.85087.219-.78082a1.867,1.867,0,0,1,.49,1.08544c.06475,2.33113.0506,4.71958.0743,9.02417C185.69842,306.26988,185.56575,309.57465,185.38213,312.81645Zm6.78821-112.11175a2.05093,2.05093,0,0,1-.68954-.427c-.352-.35309-.69909-.704-1.04935-1.05607l.01522-1.10631c.5137.56465,1.08578,1.19263,1.66706,1.84361a.49065.49065,0,0,1,.11145.36971A1.64,1.64,0,0,1,192.17034,200.7047Zm25.56678,28.77391a13.725,13.725,0,0,1-1.4134-.99062c-.25048-.19706-.59649-.59437-1.003-1.00618a63.06,63.06,0,0,0-5.949-6.26389c-1.7778-1.59454-2.9393-3.17387-2.55933-3.19156a1.78359,1.78359,0,0,1,1.026.34495,15.62375,15.62375,0,0,1,4.20481,3.58851c1.63452,2.33008,3.57861,4.67855,5.61433,7.10945C217.81213,229.2536,217.86449,229.554,217.73712,229.47861Zm20.3855,21.00286-1.73606-1.804c.08987.02335.20591.01486.26606.07571l1.72226,1.76967C238.28855,250.51049,238.16826,250.52782,238.12262,250.48147Zm53.24,56.87455c-.81585-.81832-1.625-1.63027-3.38509-3.39605,1.67945,1.53511,2.41923,2.18927,3.136,2.88482.34954.33964.65593.75606.98283,1.13674C291.85054,307.77314,291.58095,307.57113,291.36267,307.356ZM328.45,342.18756c-3.31963-3.39924-6.68879-6.82005-10.03461-10.09086-2.76488-2.70191-5.297-5.25982-8.07742-8.13155-5.21667-5.3642-10.5423-11.09315-16.0519-15.961a29.09838,29.09838,0,0,1-3.88853-4.17828,20.92422,20.92422,0,0,0-2.98494-3.2694,73.79245,73.79245,0,0,1-5.3037-5.298c-2.831-3.07021-5.82236-6.151-8.91733-9.19081-.83849-.82328-1.66282-1.76825-2.53386-2.70262.62268-.30249,4.43266,3.37305,5.2103,3.35926-1.41022-1.96992-3.94691-4.13053-5.64086-6.14431a67.54872,67.54872,0,0,0-6.60671-7.11723c-.09553.27171.07641.83459-.39024.67538a20.271,20.271,0,0,1-2.48149-2.25754c-2.06933-2.16167-4.25117-4.42311-6.06471-6.52393-3.2517-3.78027-7.2492-7.31288-10.38627-11.14622-.79037-.97116-2.39376-2.30248-3.62177-3.49935a199.76547,199.76547,0,0,1-14.99371-16.68448,61.86161,61.86161,0,0,0-8.98455-10.01833,45.66751,45.66751,0,0,1-5.99854-6.43159,38.35967,38.35967,0,0,0-6.16695-6.15067,30.06785,30.06785,0,0,1-5.12822-4.38738c-.58552-.743-1.93807-2.357-2.98317-3.82378-.55616-.78082-1.12046-1.54289-1.74667-2.31062-.31346-.38386-.64213-.76914-.99345-1.15867a8.49507,8.49507,0,0,0-.86538-.86467c-.67928-.59614-1.32636-1.20749-1.92286-1.8054-.15106-.168-.28692-.33256-.4295-.49884.00743-.78613.01026-1.57084-.02618-2.34175l-.02512-.71113c.61383-.404,1.23191-.77728,1.77674-1.10843a13.68076,13.68076,0,0,0,1.63559-1.10206l.17725-.14894.31381-.282q.35131-.32158.68883-.6538c.449-.44295.87564-.8997,1.26976-1.36953,2.72385-3.25312,6.39727-5.65395,9.1894-8.88938,2.95522-3.44311,6.369-5.26372,9.57255-8.03533.9747-.8445,2.046-1.64973,2.911-2.5243,6.71639-6.81085,14.0834-12.60845,20.98765-19.10513,6.92477-6.53171,14.40217-12.36574,20.97775-19.37507.78046-.83247,1.9409-1.57225,2.91418-2.40083,6.22179-5.29414,12.41067-10.6594,18.37561-16.43081,1.24676-1.205,2.49317-2.4394,3.7792-3.58038,12.93429-11.48373,25.9089-22.89742,38.80286-34.44236l10.169-9.107,1.95046-1.76118.88483-.81513.39837-.37078a3.536,3.536,0,0,1,.39872-.26746l.7274-.43977a5.86442,5.86442,0,0,1,.61949-.334l-.15673,1.27967a5.53006,5.53006,0,0,1-.49991,2.19174q-.23031.459-.46028.85441l-.23032.38174a5.827,5.827,0,0,0-.05979,1.24322l-.03114,1.7909L337.01352,97.378c-.07112,4.7762-.00284,9.58706-.15037,14.33637-.72527,22.97171-.69166,46.02834-.56253,69.062q.33222,57.37162,1.5719,114.745c.44366,19.3786,1.14841,38.74624,1.87227,58.10857Q334.05529,347.90856,328.45,342.18756Zm18.08373,18.30768.00778.00707.16133.16452C346.6448,360.6081,346.59031,360.5529,346.53371,360.49524Z"/><path class="cls-1" d="M288.0356,299.06844c-2.27594-2.39446-2.55756-2.59223-4.33819-3.22587,4.92938,4.595,4.97785,4.68031,11.03831,10.998,1.4792,1.54218,3.00652,3.08931,4.507,4.59965a6.79523,6.79523,0,0,0,1.13248.95984,5.86557,5.86557,0,0,0-.88589-1.18556Q293.77588,305.15508,288.0356,299.06844Z"/><path class="cls-1" d="M254.0698,263.41081c.283.352.54342.69838.86148,1.05783a5.34611,5.34611,0,0,0,.56289.45038l-.66549-.78188Z"/><path class="cls-1" d="M183.32165,480.113c-.03078,2.41038-.03043,4.86287-.02371,7.26441a8.61348,8.61348,0,0,0,.13161,1.66848,7.39765,7.39765,0,0,0,.20273-1.654q.19-9.39264.381-18.82881c.06227-3.72578.00036-4.10788-.8215-6.02826C183.472,470.13115,183.44654,470.238,183.32165,480.113Z"/><path class="cls-1" d="M182.54154,570.52389c-.00319-.54732-.0092-1.49583-.01309-2.15672-.00956-1.08437-.01875-2.12134-.02831-3.16467.005.9372.01026,1.87227.01557,2.84732C182.53269,569.8117,182.55109,571.4816,182.54154,570.52389Z"/><path class="cls-1" d="M182.50014,565.2025l-.0053-.95028-.00071-.01734c0,.09305-.00035.1822-.00035.27737Z"/><path class="cls-1" d="M184.75875,414.549a6.77529,6.77529,0,0,0,.08456.80771l.07536-1.15478-.02972-1.1852C184.843,413.52371,184.78493,414.00841,184.75875,414.549Z"/></g></g></svg>