<svg xmlns="http://www.w3.org/2000/svg" viewBox="0 0 416.87308 659.21426"><defs><style>.cls-1{fill:#24373e;}</style></defs><g id="Слой_2" data-name="Слой 2"><g id="Слой_1-2" data-name="Слой 1"><path class="cls-1" d="M20.98539,233.38917c-1.43091,1.01136-1.45541,1.01927-3.37936,2.23607-.46666.30156-.94162.60839-1.40678.90882a2.01079,2.01079,0,0,0-.3057.23522,1.71464,1.71464,0,0,0,.34528-.16887q1.84047-1.14216,3.68883-2.28922C20.65631,233.85621,20.72227,233.79628,20.98539,233.38917Z"/><path class="cls-1" d="M.05374,246.86324c.10781-.07124.28912-.19074.415-.27367.22467-.14927.43915-.29138.65665-.43575-.19714.13042-.3924.25859-.59671.39391C.1902,246.77239-.13021,246.98537.05374,246.86324Z"/><path class="cls-1" d="M30.47811,227.69572a1.38842,1.38842,0,0,0-.14437.11912l.23408-.12779.22542-.15492C30.68883,227.586,30.58856,227.63805,30.47811,227.69572Z"/><path class="cls-1" d="M17.02251,377.64143a1.98881,1.98881,0,0,0-.3057.23521,1.71484,1.71484,0,0,0,.34491-.16887q1.84045-1.14216,3.68883-2.28922c.72864-.455.795-.51491,1.05772-.92164-1.4309,1.011-1.455,1.0189-3.37936,2.23569C17.96225,377.03416,17.48767,377.341,17.02251,377.64143Z"/><path class="cls-1" d="M.87813,387.96947l-.00151.00113C.79973,388.02187.81443,388.01207.87813,387.96947Z"/><path class="cls-1" d="M.87813,387.96947c.10819-.07086.288-.19.41352-.27253.22654-.15.44253-.29365.66192-.43877-.199.13118-.39542.26085-.602.39693C1.15481,387.7859.96747,387.91029.87813,387.96947Z"/><path class="cls-1" d="M31.15662,368.92258l.23446-.12816.225-.15493c-.10441.05428-.20431.10592-.31513.1636A1.39511,1.39511,0,0,0,31.15662,368.92258Z"/><path class="cls-1" d="M416.84481,199.20435l-.058-.06446-.23183-.25821q-.9239-1.046-1.83348-2.07473-1.85119-2.15483-3.65-4.24747c-1.17458-1.37021-2.49767-2.84559-3.90219-4.29157l-.78971-.81044q-.35339-.35452-.717-.69359c-.48475-.45159-.98233-.8798-1.49159-1.27409-3.52335-2.72535-6.22683-6.45225-9.73661-9.24771-3.73406-2.959-5.82274-6.433-8.87943-9.66537-.93106-.98346-1.82783-2.06757-2.78339-2.93681-7.43986-6.75117-13.87515-14.19932-21.00289-21.15178-7.16468-6.9732-13.64407-14.53443-21.28032-21.13482-.90694-.78368-1.74188-1.96127-2.65636-2.9436-5.845-6.28036-11.76159-12.52453-18.083-18.52746-1.32007-1.25449-2.66993-2.50822-3.92668-3.80493C303.17863,83.03447,290.60434,69.94753,277.89963,56.948l-10.022-10.25265-1.25373-1.28088-.62725-.64043-1.1022-1.09316-4.6704-4.62291-9.43883-9.33441c-6.25925-6.10922-12.94633-12.987-19.58857-19.69147L226.184,4.95687l-2.51652-2.547-1.2609-1.276L221.7752.49492l-.3155-.31928c-.098-.089-.25143-.30947-.207-.06182l-.07727,13.55662c-.05466,9.52176-.06786,19.22821-.19677,28.81291l-.14852,14.52425-.07087,6.86124-.0637,3.762-.46629,28.785c-2.88291,1.43166-5.76092,2.8701-8.573,4.425-4.93314,2.72836-9.77732,5.61014-14.71687,8.32-5.6354,3.09513-11.19164,6.329-16.73016,9.587-3.78834,2.22891-7.54465,4.51322-11.29341,6.80847q-3.46039,2.11865-6.89027,4.28856c-3.04839,1.92734-6.09678,3.85355-9.1071,5.845-2.44716,1.61938-4.84569,3.32394-7.27136,4.98139-2.33106,1.59224-4.71187,3.1072-6.9928,4.77558l-27.37484,20.10348c-.63705.46817-1.24507.98045-1.86967,1.469-1.42676,1.1169-2.84183,2.25077-4.29082,3.33676q-3.93423,2.94983-7.90539,5.84725l-5.77562,4.16567c-1.82783,1.32611-3.5652,2.78641-5.47181,3.99906a4.61944,4.61944,0,0,0-.77689.64119,29.05847,29.05847,0,0,1-2.90214,2.31108A39.178,39.178,0,0,0,79.10086,189.81a19.19613,19.19613,0,0,1-5.12426,3.60062,7.4966,7.4966,0,0,0-1.08938.714l-2.17764,1.62314-10.071,7.47152-2.97941,2.23268c-.99364.74372-2.10225,1.47538-2.94963,2.23569a30.92173,30.92173,0,0,1-2.99524,2.06907c-.363.26161-.70942.54771-1.06639.82025-1.50969,1.15422-3.00844,2.351-4.54262,3.43627-2.21534,1.56886-4.408,3.15092-6.59776,4.74617-.9141.66457-1.92093,1.325-2.731,1.98464-1.21227.985-2.43848,1.86138-3.73858,2.74118-.27178.184-.54545.3958-.81384.59634-1.07845.80139-2.15276,1.59977-3.235,2.40381-1.086.792-2.20591,1.57037-3.22217,2.37516-1.04339.821-2.21872,1.50666-3.29567,2.31711-.435.3253-.95821.67361-1.35287.98007-1.5323,1.18588-3.22669,2.33972-4.87472,3.50337q-1.51645,1.06808-3.02766,2.132l-3.29227,2.3043Q7.579,241.71731,5.23266,243.338c-.15644.11007-.29855.21-.44707.31438.01018.03317-.08556.10668-.64986.47873-.78782.5281-1.44485.96876-2.198,1.47387-.34567.23484-.56995.38713-.67851.46063l-.05014.0328-.08368.05541.12063-.07954c.36149-.23559.64345-.41954,1.167-.76068q2.23853-1.46332,4.451-2.9093c1.03737-.671,2.08378-1.35212,3.0925-2.03251.83344-.562,1.61636-1.07506,2.49126-1.63634,1.63559-1.05395,3.36842-2.11884,4.90148-3.25949a8.33176,8.33176,0,0,1,1.26353-.7784,5.99737,5.99737,0,0,0,.98573-.59482c.5266-.39015,1.04076-.72035,1.6254-1.0762.92768-.56467,1.86779-1.16741,2.80338-1.79767.25331-.17076.5364-.33247.81949-.50624.04109.16849-1.095.94576-1.13651,1.13726.573-.25972,1.25864-.789,1.8595-1.11653a18.38084,18.38084,0,0,0,2.15954-1.30952c-.0637-.03732-.21524-.02187-.14965-.1308a5.39073,5.39073,0,0,1,.70528-.51341c.6589-.41389,1.3491-.85153,1.97936-1.20322,1.13424-.62951,2.24285-1.463,3.38576-2.05853.2895-.14965.71206-.48852,1.08109-.73882a47.82059,47.82059,0,0,1,5.05-2.92362,15.00027,15.00027,0,0,0,3.03708-1.74188,10.731,10.731,0,0,1,1.962-1.17684,8.863,8.863,0,0,0,1.89379-1.24243,6.96228,6.96228,0,0,1,1.37889-1.08674c.22277-.1063.70941-.35924,1.14517-.53716a7.81833,7.81833,0,0,0,1.40451-.71733A22.67354,22.67354,0,0,1,54.35,213.37917a6.68354,6.68354,0,0,0,1.70042-.96461c.844-.71357,1.93149-1.09957,2.79433-1.8022a16.09476,16.09476,0,0,1,2.88216-1.5176c.294-.16209.61518-.30269.87942-.48287,2.05249-1.40489,4.26707-2.45093,6.37158-3.73708,2.10753-1.29935,4.37036-2.32164,6.38666-3.7989a7.127,7.127,0,0,1,.88583-.43387c1.89229-.9812,3.78119-1.979,5.60713-3.13019.38147-.2405.763-.49079,1.15573-.706q5.95674-3.20936,11.91161-6.41757,6.26774-3.37614,12.5464-6.75833,6.55779-3.57574,13.1235-7.156c1.09542-.59408,2.15955-1.25261,3.27117-1.809,5.3802-2.68614,10.60812-5.64633,15.80739-8.63931,8.63554-4.96669,17.25563-9.96127,25.78713-15.084,5.13594-3.08232,10.10979-6.40588,15.09872-9.70344,4.80234-3.16977,9.51346-6.46732,14.2913-9.67592,4.779-3.209,9.63973-6.30712,14.39307-9.55455a86.87146,86.87146,0,0,1,9.29859-5.59242c.48288-.24841.96085-.504,1.43731-.76144-.6491,23.17826-.62008,46.4338-.49418,69.66785q.14758,26.372.47232,52.74733c-2.51576,1.25374-5.0221,2.52142-7.47793,3.87919-4.93314,2.72836-9.7777,5.61052-14.71687,8.32-5.6354,3.09513-11.19164,6.32936-16.73016,9.587-3.78834,2.2289-7.545,4.51322-11.29379,6.80846q-3.45984,2.11866-6.89027,4.28856c-3.048,1.92772-6.0964,3.85356-9.10672,5.845-2.44754,1.61938-4.84607,3.324-7.27136,4.9814-2.33106,1.59223-4.71188,3.10719-6.9928,4.77557l-27.37484,20.10349c-.63743.46817-1.24544.98082-1.86967,1.469-1.42714,1.1169-2.8422,2.25077-4.29082,3.33676q-3.9348,2.94981-7.90577,5.84724l-5.77562,4.16567c-1.82783,1.32611-3.56519,2.78679-5.47143,3.99906a4.60483,4.60483,0,0,0-.77689.64119,29.0991,29.0991,0,0,1-2.90214,2.31108,39.047,39.047,0,0,0-3.18635,2.48976,19.184,19.184,0,0,1-5.12464,3.60062,7.53776,7.53776,0,0,0-1.08938.71394l-2.17764,1.62315-10.07059,7.47152-2.97941,2.23267c-.99364.74372-2.10225,1.47538-2.94963,2.23569a30.99588,30.99588,0,0,1-2.99524,2.06946c-.36338.26122-.7098.54733-1.06639.81986-1.50969,1.1546-3.00844,2.351-4.54263,3.43628q-3.323,2.35386-6.59812,4.74617c-.91373.66456-1.92056,1.325-2.73063,1.98464-1.21265.985-2.43849,1.86138-3.73859,2.74118-.27178.18433-.54544.3958-.81383.59633-1.07845.8014-2.15314,1.59978-3.235,2.40419-1.086.79159-2.20591,1.57037-3.22217,2.37478-1.04377.821-2.21873,1.50667-3.29605,2.31711-.435.32531-.95783.67361-1.35249.98007-1.5323,1.18588-3.22669,2.33973-4.87509,3.50337q-1.51647,1.06809-3.02729,2.132l-3.29228,2.30429q-2.34537,1.61994-4.69114,3.24064c-.15643.11007-.29854.21-.44744.31438.01018.03317-.08519.10667-.64948.47872-.78782.52849-1.44485.96876-2.198,1.47388-.34567.23484-.56995.38712-.67851.46063l-.05014.03279-.07878.0524.11535-.07614c.36149-.236.64345-.41955,1.16741-.76107Q5.47484,384.95765,7.687,383.512c1.03774-.671,2.08415-1.35249,3.09287-2.03289.83306-.562,1.61636-1.07468,2.49126-1.636,1.63521-1.05433,3.36842-2.11921,4.90148-3.25986a8.31316,8.31316,0,0,1,1.26353-.7784,6.01159,6.01159,0,0,0,.98535-.59483c.5266-.39014,1.04113-.72035,1.62578-1.07619.92768-.56467,1.86779-1.167,2.803-1.79767.25369-.17076.5364-.33247.81987-.50625.04071.1685-1.09542.94577-1.13688,1.13726.57334-.25972,1.259-.789,1.85949-1.11652a18.31971,18.31971,0,0,0,2.15954-1.30953c-.06332-.03732-.21523-.02148-.14964-.1308a5.409,5.409,0,0,1,.70565-.513c.6589-.41427,1.34872-.8519,1.97936-1.2036,1.13386-.62913,2.24285-1.46294,3.38538-2.05852.2895-.14965.71244-.48853,1.08147-.73845a47.761,47.761,0,0,1,5.05-2.924,14.98186,14.98186,0,0,0,3.03708-1.74189,10.71877,10.71877,0,0,1,1.962-1.17684,8.87568,8.87568,0,0,0,1.89379-1.24205,6.92337,6.92337,0,0,1,1.37888-1.08712c.2224-.1063.70905-.35923,1.14518-.53715a7.81577,7.81577,0,0,0,1.40413-.71734,22.6764,22.6764,0,0,1,3.74764-1.98388,6.68511,6.68511,0,0,0,1.70042-.96462c.84361-.71356,1.93149-1.09956,2.79395-1.80182a16.05911,16.05911,0,0,1,2.88216-1.5176c.2944-.16209.61556-.30307.8798-.48325,2.05211-1.40489,4.26669-2.45092,6.3712-3.73708,2.10791-1.29934,4.37036-2.32163,6.387-3.79852a7.09572,7.09572,0,0,1,.88545-.43425c1.89229-.98082,3.78156-1.979,5.60751-3.13019.38147-.24049.76257-.49079,1.15573-.706q5.95619-3.20878,11.91123-6.4172,6.26831-3.37671,12.54677-6.7587,6.55724-3.57574,13.12351-7.156c1.09541-.59407,2.15917-1.2526,3.27117-1.809,5.3802-2.68614,10.60774-5.64633,15.807-8.63931,8.63592-4.96669,17.25563-9.96128,25.78713-15.084,5.13632-3.08232,10.11017-6.40589,15.09872-9.70344,4.80272-3.16977,9.51346-6.46733,14.29168-9.67593,4.77859-3.209,9.63973-6.30712,14.39307-9.55454a86.92791,86.92791,0,0,1,9.29822-5.59243c.28535-.14663.56617-.3.84926-.4497q.35566,24.38506.86548,48.76524c.53489,24.17567,1.44146,48.33513,2.313,72.48743q1.32819,34.86182,2.65524,69.69688,1.25355,34.87086,2.50822,69.77264.84135,21.91755,1.41356,43.79477c.57937,20.9946,1.56284,41.927,2.51991,62.79192.50587,10.71969,1.05245,20.17095,1.35891,28.13025.36451,8.40371.0539,10.273.3204-2.42341.18019-6.65882.37168-13.73718.58465-21.603.47194-18.60323,1.07242-37.16951,1.67705-55.80553.72827-22.70745,1.43882-45.45486,2.31862-68.14309q1.53456-38.839,3.07252-77.74852.58578-14.91816,1.17269-29.8514c2.35706,2.75362,4.76351,5.462,7.07647,8.25407,3.2478,3.91688,6.614,7.72558,10.0001,11.51242,2.31636,2.58964,4.67984,5.13669,7.05236,7.67356q2.19045,2.34142,4.4235,4.64252c1.98427,2.04533,3.967,4.091,6.00519,6.0851,1.65745,1.62163,3.38689,3.17618,5.07676,4.76766,1.62352,1.53,3.18145,3.12453,4.86906,4.58936l20.32249,17.55794c.47345.40862.98384.77953,1.47425,1.17118,1.121.89564,2.25642,1.77581,3.35184,2.69859q2.97527,2.506,5.90642,5.05829l4.21958,3.72652c1.34269,1.17684,2.7981,2.23795,4.045,3.51506a2.903,2.903,0,0,0,.64007.47759,18.32544,18.32544,0,0,1,2.316,1.80936,24.564,24.564,0,0,0,2.49956,2.00047,12.03436,12.03436,0,0,1,3.65867,3.33375,4.68807,4.68807,0,0,0,.73166.72374l1.63785,1.38981,7.54465,6.43718,2.2519,1.89831a28.18609,28.18609,0,0,0,2.25189,1.87156,19.3077,19.3077,0,0,1,2.10678,1.959c.265.23446.55034.44744.82476.67323,1.16176.95481,2.36046,1.88852,3.46228,2.88442,1.593,1.43769,3.19541,2.85238,4.80951,4.26066.67247.588,1.3491,1.25675,2.00838,1.75772a32.77313,32.77313,0,0,1,2.77209,2.39891c.18772.17867.40032.35131.60275.52245.80893.68906,1.61523,1.37549,2.4268,2.06681.80139.69812,1.59336,1.429,2.4,2.0638.82363.65364,1.5372,1.4588,2.35405,2.14409.32832.27744.68454.6231.99251.87151,1.19191.965,2.36875,2.07813,3.55049,3.14866l2.16557,1.96844,2.34237,2.14446,3.29944,3.068c.1112.1014.21335.19413.31928.29062.029-.01809.1029.04222.484.41653.54017.52019.98987.95331,1.50591,1.45051.23107.219.38148.36187.4678.44367-.23635-.2356-.42633-.42445-.769-.76521q-1.4995-1.48877-2.98205-2.95906c-.68869-.6917-1.38717-1.38793-2.08189-2.05249-.5741-.54884-1.09956-1.0694-1.6763-1.654-1.0826-1.09127-2.18254-2.26321-3.33412-3.24215a5.237,5.237,0,0,1-.804-.85341,3.761,3.761,0,0,0-.61594-.66984,12.90823,12.90823,0,0,1-1.10144-1.07657c-.58428-.62875-1.20323-1.25713-1.84706-1.87344-.17453-.167-.3434-.36187-.52283-.55336.14777-.08369.94011.66154,1.1154.64119-.28121-.41427-.81308-.84625-1.15762-1.26467a11.47067,11.47067,0,0,0-1.35513-1.4652c-.02827.06521-.00151.19036-.10479.16586a3.37574,3.37574,0,0,1-.51944-.45385c-.42633-.44292-.87678-.90543-1.24506-1.34194-.65929-.78632-1.49989-1.492-2.12977-2.29563a9.37925,9.37925,0,0,0-.75315-.70942A29.86709,29.86709,0,0,1,364.315,506.775a9.39508,9.39508,0,0,0-1.8169-2.08905,6.72807,6.72807,0,0,1-1.21981-1.33478,5.54368,5.54368,0,0,0-1.27258-1.25788,4.38549,4.38549,0,0,1-1.09052-.86284c-.11384-.15945-.38147-.50172-.57786-.8225a4.94252,4.94252,0,0,0-.76106-.99176,14.2802,14.2802,0,0,1-2.09321-2.62583,4.204,4.204,0,0,0-1.00758-1.17307c-.71055-.51378-1.14781-1.331-1.85007-1.86439a10.12286,10.12286,0,0,1-1.60279-2.022,6.9715,6.9715,0,0,0-.507-.61141c-1.432-1.34609-2.55572-2.93418-3.88522-4.35943a57.88321,57.88321,0,0,0-3.94214-4.35452,4.51525,4.51525,0,0,1-.464-.63064,47.58026,47.58026,0,0,0-3.27682-3.88258c-.248-.25595-.50436-.50926-.73015-.78255-2.27263-2.7506-4.503-5.53776-6.75381-8.31438q-3.5537-4.37582-7.113-8.75842-3.75669-4.56468-7.51751-9.13576c-.62461-.7637-1.30462-1.48141-1.89681-2.27-2.85992-3.817-5.95317-7.4244-9.0728-10.99826-5.17816-5.937-10.38007-11.85243-15.68941-17.6552-3.19465-3.49394-6.59209-6.77944-9.9673-10.08529-3.24516-3.18371-6.59738-6.25209-9.87533-9.40376-3.27833-3.15168-6.46393-6.40626-9.77468-9.52552a54.29237,54.29237,0,0,1-5.79485-6.32145,43.98507,43.98507,0,0,0-8.743-8.62725,7.01066,7.01066,0,0,0-2.15993-1.07807q.02658-.68813.05391-1.37549.10233-2.72139.2043-5.44467,6.58833-6.73025,13.16837-13.34967c3.52372-3.53353,7.07007-7.1187,10.46148-10.67522,2.80149-2.9387,5.45371-5.63313,8.43048-8.59332,5.56039-5.55322,11.49848-11.23084,16.5481-17.07055a31.62078,31.62078,0,0,1,4.3304-4.14531,22.7238,22.7238,0,0,0,3.3884-3.18372c1.73849-1.99708,3.48754-3.73934,5.49328-5.64105,3.18184-3.019,6.37573-6.20346,9.52741-9.49386.85341-.89111,1.83273-1.77166,2.80149-2.70047.3091.63328-3.50224,4.68172-3.49131,5.48387,2.03968-1.5176,4.2814-4.20375,6.36819-6.01537a73.45921,73.45921,0,0,0,7.37653-7.0433c-.28007-.09009-.86208.10479-.69547-.38148a21.98786,21.98786,0,0,1,2.34161-2.633c2.24059-2.20365,4.58484-4.52679,6.76135-6.46469,3.91726-3.47547,7.582-7.71277,11.55313-11.07139,1.0057-.84625,2.38722-2.54328,3.62852-3.84865A217.14027,217.14027,0,0,1,369.39928,245.288a67.24074,67.24074,0,0,0,10.38232-9.58885,49.66939,49.66939,0,0,1,6.6656-6.39382,41.675,41.675,0,0,0,6.37724-6.55893,32.67782,32.67782,0,0,1,4.55167-5.43109c.76973-.628,2.44188-2.07473,3.961-3.19955.80855-.5986,1.59751-1.20511,2.39287-1.8757.39768-.33549.79687-.68718,1.20059-1.06187q.2991-.285.60953-.5805.40314-.4054.82325-.82778c1.5029-1.541,2.98808-3.01824,4.4842-4.4661,1.43165-1.45164,2.80149-2.87877,4.238-4.30025q.54055-.536,1.07544-1.06676l.54206-.53339.1357-.13344.0343-.03355ZM17.82918,234.75787c-.10479.07163-.22541.13005-.3385.19489.066-.05127.13194-.10894.19828-.15342.24992-.16624.49833-.33134,1.0385-.68982C18.2476,234.45556,18.03952,234.606,17.82918,234.75787ZM35.43161,223.8546l-.54017.3468c.00716-.02187.00829-.05428.02261-.06333l.55-.34868C35.45347,223.81163,35.45045,223.84216,35.43161,223.8546Zm9.25261-5.74245a3.65289,3.65289,0,0,1-1.12671.89413c-.68718.28309-1.39057.64986-2.11959,1.037-.055.029-.13683.02338-.1112-.00565a3.30728,3.30728,0,0,1,.32154-.31513c.06258-.05428.18245-.12138.30835-.20355a14.927,14.927,0,0,0,1.90736-1.187c.49607-.37393.96349-.58088.95331-.47571A.45023.45023,0,0,1,44.68422,218.11215Zm8.93823-5.04509c-.44066.30759-.90619.602-1.73661,1.14517-.29477.16473-.96084.53715-1.61485.90317a.24084.24084,0,0,1-.2371-.02563c-.01546-.009.10516-.13344.17641-.17754l3.35108-2.0672c.05843-.03581.193-.0637.18848-.04071A.3918.3918,0,0,1,53.62245,213.06706ZM18.65207,375.86524c-.10442.07162-.225.13042-.3385.19488.06634-.05126.1323-.10894.19827-.15342.2503-.16623.49871-.331,1.03887-.68981C19.07086,375.5633,18.86278,375.71333,18.65207,375.86524ZM36.25487,364.962l-.54055.34679c.00754-.02186.00867-.05428.023-.06332l.55-.34868C36.27673,364.919,36.27334,364.94991,36.25487,364.962Zm9.25223-5.74245a3.644,3.644,0,0,1-1.12671.89412c-.6868.28309-1.39056.64986-2.11921,1.037-.05541.0294-.13683.02337-.11157-.00565a3.35627,3.35627,0,0,1,.32191-.31513c.06257-.05428.18207-.121.308-.20318a14.9321,14.9321,0,0,0,1.90736-1.18739c.49645-.37394.96386-.58088.95331-.47571A.44916.44916,0,0,1,45.5071,359.21952Zm8.93861-5.0451c-.441.30759-.90619.602-1.73661,1.14517-.29478.16473-.96122.53754-1.61523.90318a.24.24,0,0,1-.2371-.02564c-.01508-.009.10554-.13344.17641-.17754l3.35146-2.06719c.05843-.03581.19262-.06371.18847-.04071A.391.391,0,0,1,54.44571,354.17442ZM377.71743,521.79c.07275.06861.13532.15455.20279.23258-.05164-.04146-.10856-.08142-.15417-.12477-.17-.16548-.33888-.32983-.70565-.68756C377.41134,521.52013,377.56363,521.65432,377.71743,521.79Zm-11.25384-11.87618.35622.36112c-.02,0-.04938.0083-.05881-.00113l-.35848-.36865C366.42326,509.90744,366.45115,509.90141,366.46359,509.91384Zm-6.16614-6.27847a.35069.35069,0,0,1,.24087.03958,2.31125,2.31125,0,0,1,.89638.70339,15.67527,15.67527,0,0,0,1.10711,1.50968c.03128.03883.03279.11007.00452.09688a2.172,2.172,0,0,1-.30948-.18358,2.48993,2.48993,0,0,1-.20845-.2043,9.31694,9.31694,0,0,0-1.22433-1.2854C360.42712,503.99611,360.20246,503.65686,360.29745,503.63537Zm-5.033-6.13335c.31287.28724.61594.59935,1.17232,1.15158.17264.20393.56241.66494.94539,1.11766a.20938.20938,0,0,1-.003.21c-.00678.01583-.12816-.05127-.17377-.09914l-2.135-2.26358c-.03694-.03958-.07312-.14626-.05239-.14927A.30926.30926,0,0,1,355.26441,497.502ZM238.3086,374.005l-.01056.01169-.17076.17151C238.18948,374.12524,238.24791,374.06644,238.3086,374.005Zm55.6276-58.889c-.35169.37167-.78293.70075-1.17759,1.05018.216-.26009.426-.54507.64911-.77727.84851-.86736,1.69024-1.72831,3.52071-3.60062C295.33619,313.56977,294.65768,314.3542,293.9362,315.116Zm60.21169-58.04121-1.83462,1.8331c.0132-.08933-.00414-.213.04411-.2616l1.87005-1.84894C354.20255,256.89123,354.21084,257.01035,354.14789,257.07481Zm31.49226-30.69766a16.97934,16.97934,0,0,1-3.7235,4.45329c-2.41248,1.76035-4.84569,3.84074-7.36409,6.01838-.19112.16548-.50135.2288-.42294.095a14.822,14.822,0,0,1,1.02907-1.49009c.20431-.265.61631-.6344,1.043-1.06676a68.59434,68.59434,0,0,0,6.493-6.33766c1.65406-1.88513,3.28926-3.134,3.30585-2.74193A1.89425,1.89425,0,0,1,385.64015,226.37715Zm11.91765-25.51158c-.11836.12741-.27857.242-.42407.37243l-.22956.196-.118.101-.05993.05127-.03016.02563a.38692.38692,0,0,0-.06107.06333c-2.55383,2.86406-5.12312,5.701-7.735,8.45159q-11.31415,11.9248-22.39308,23.974c-3.09061,3.35448-6.53932,6.78246-9.23527,10.01744-4.02846,4.84079-8.16775,9.30048-12.59691,13.83594-.92691.94765-1.83913,2.005-2.73816,3.01371-3.60816,4.05108-7.18768,8.09877-10.843,12.12912-3.64209,4.02167-7.43,8.02-10.78189,12.03638-3.44042,4.10988-7.51826,7.79607-11.09929,11.89465-1.4456,1.64915-3.22141,3.46266-4.52113,5.00627-5.04887,5.9754-10.76606,11.96438-16.28574,17.959q-5.073,5.51289-10.126,11.005-5.51005,5.96976-11.00882,11.92707-7.84752,8.42368-15.69769,16.85116c-.524.576-.99251,1.09051-1.48631,1.63332.09122.14513-.21788.52132-2.126,2.47392-1.3589,1.41922-2.60321,2.71856-3.83546,4.00509q.5083-13.54644,1.01663-27.09929c.50926-14.565,1.06149-29.12728,1.48518-43.70431.36564-11.85318.56656-23.72785.85229-35.59046.28233-11.39971.66-22.79566.79913-34.19386q.7277-68.4831.54582-136.96582c-.00791-3.18938-.124-6.37686-.18206-9.56661l-.21637-10.9372-.0965-5.46992-.01018-.68378-.00264-.17076a.557.557,0,0,0-.0049-.11685l-.02149-.01244-.08443-.05165-.16134-.11007a7.03824,7.03824,0,0,1-.55336-.45007c-.124-.075-.09951-.17868-.11949-.27631l-.03845-.30118-.03468-.3091-.01621-.15681-.00792-.07841c.006-.00867.02639.01282.03921.01847l.36488.24351c.08406.08293.2013.09462.26312.25784l.19413.44744.17565.43764.00528.01357c.01659.01771-.032-.02337.0475.05126l.3253.30948.65175.61782,1.30312,1.23526,2.60886,2.46827c6.62452,6.25322,13.51516,12.21543,19.92406,18.71555a29.41244,29.41244,0,0,0,3.05631,2.65373c3.91915,2.96433,7.45757,6.58607,11.17392,9.901,4.03638,3.60929,7.83528,7.51035,12.14909,10.84145a115.99745,115.99745,0,0,1,18.32164,17.4196,44.41434,44.41434,0,0,0,3.7367,3.70391l8.08972,7.38181,37.42847,34.011c3.70919,3.36428,7.45042,6.68558,11.186,10.0148,3.73331,3.3345,7.56312,7.09194,11.1792,9.88589a56.531,56.531,0,0,1,5.606,5.06281q.62876.63893,1.25072,1.2707l.1553.15869c.06446.06408.02865.03807.04788.06107l.03618.06936.07049.13268a1.84969,1.84969,0,0,0,.31664.45574c.2371.18922.62838.35508.96462.56467A5.03975,5.03975,0,0,1,397.5578,200.86557Zm17.37587-1.43052-.242.26273q-.24483.26631-.50285.54658c-.68831.74937-1.449,1.57791-2.305,2.50973-.645.62649-1.59374,1.65179-2.88781,2.83692-1.2526,1.16628-2.70235,2.51576-4.13815,3.85281a.91425.91425,0,0,1-.91071.20543,2.59749,2.59749,0,0,1,.625-.88809c2.28017-2.26095,4.6263-4.52792,6.79829-6.82392l1.665-1.72229c.26312-.28761.58955-.576.8014-.86321l-.83871-.838-3.36692-3.3688c-.23069-.233-.52735-.73882-.41427-.70753a3.54279,3.54279,0,0,1,1.4343.69321c1.02832.95293,2.05362,1.93149,3.28662,3.11926q.46253.44611.96763.9337l.12741.12289C415.03206,199.34872,414.965,199.39207,414.93367,199.43505Z"/><path class="cls-1" d="M293.92451,318.855c-1.59864,1.57528-3.20218,3.20069-4.76841,4.79669a7.396,7.396,0,0,0-.9959,1.19908,6.35664,6.35664,0,0,0,1.2281-.95142q6.28017-6.08793,12.58974-12.20451c2.48184-2.42416,2.6869-2.72157,3.3492-4.57956C300.56184,312.34808,300.47364,312.40085,293.92451,318.855Z"/><path class="cls-1" d="M338.18558,276.32035l.75352-.80667c-.36451.30345-.72337.58314-1.09617.92277a5.84164,5.84164,0,0,0-.467.59521Z"/><path class="cls-1" d="M376.22508,519.49063c1.02681.92918,1.03586.948,2.28846,2.2387.30948.31137.62423.628.933.93823a1.24994,1.24994,0,0,0,.23635.193,1.08527,1.08527,0,0,0-.18018-.24577q-1.17891-1.24111-2.36234-2.48749C376.67139,519.63689,376.61221,519.59768,376.22508,519.49063Z"/><path class="cls-1" d="M389.3761,532.79394l-.12929-.127-.00226-.00226.03581.03581C389.3124,532.73137,389.34444,532.763,389.3761,532.79394Z"/><path class="cls-1" d="M390.06328,533.46566c-.07388-.07237-.19639-.19262-.28045-.27517-.13872-.13532-.27216-.26537-.40673-.39655.12025.118.23937.23484.36414.35735C389.97018,533.3752,390.188,533.58742,390.06328,533.46566Z"/><path class="cls-1" d="M370.32318,513.03235a.86483.86483,0,0,0,.11912.08858l-.1342-.16284-.15794-.14739C370.20708,512.88459,370.25834,512.95771,370.32318,513.03235Z"/></g></g></svg>