<svg xmlns="http://www.w3.org/2000/svg" viewBox="0 0 485.06019 616.00933"><defs><style>.cls-1{fill:#24373e;}</style></defs><g id="Слой_2" data-name="Слой 2"><g id="Слой_1-2" data-name="Слой 1"><path class="cls-1" d="M22.5,84.52118a8.79364,8.79364,0,0,0-.48589-.76709,7.4398,7.4398,0,0,0,.39844.80818q2.50143,4.45554,5.0138,8.93107a10.16809,10.16809,0,0,0,1.84894,2.71818c-2.13579-3.5373-2.15766-3.59195-4.808-8.26387C23.81443,86.81077,23.15062,85.65391,22.5,84.52118Z"/><path class="cls-1" d="M1.54763,47.775c.08142.14022.16247.27969.24427.42067l.00754.01244-.078-.135C1.66336,47.97326,1.60568,47.8745,1.54763,47.775Z"/><path class="cls-1" d="M.0764,45.24716c.15.25821.409.70377.58917,1.01437.30232.51869.59106,1.01438.88206,1.51346-.26122-.4497-.52132-.8979-.7931-1.36532C.272,45.58152-.18558,44.79708.0764,45.24716Z"/><path class="cls-1" d="M41.62832,118.71014l.29138.55713.32946.55412c-.12515-.24615-.245-.48174-.37846-.7441C41.81868,118.98079,41.7105,118.83416,41.62832,118.71014Z"/><path class="cls-1" d="M472.06874,224.60852a83.22422,83.22422,0,0,0-6.5823-10.46413,66.14389,66.14389,0,0,1-5.24111-8.46516c-3.08835-5.72963-6.07643-11.86374-10.69934-16.504a7.70307,7.70307,0,0,1-2.1128-4.517,5.68,5.68,0,0,0-1.57038-3.54408,20.27218,20.27218,0,0,1-3.51656-5.48273,75.28211,75.28211,0,0,0-5.56755-9.63371,28.76117,28.76117,0,0,1-1.49159-2.85878c1.39924-.63026,4.12685,3.09023,5.56265,2.75738-.357-2.21835-2.532-4.26782-3.36428-6.43a22.90036,22.90036,0,0,0-4.0654-7.39727c-.41615.38336-.67625,1.07393-1.28992,1a7.32172,7.32172,0,0,1-1.89493-2.2519,69.51207,69.51207,0,0,1-3.68393-6.81261c-1.74867-3.996-4.82985-7.5307-6.39382-11.59648a25.05989,25.05989,0,0,0-2.53687-3.57462c-2.75965-3.98888-7.59855-13.15592-8.9224-17.35966a28.839,28.839,0,0,0-5.4228-10.37027,22.41755,22.41755,0,0,1-3.79588-6.62941,19.42223,19.42223,0,0,0-4.171-6.31768c-1.11917-1.20209-2.296-1.67629-3.846-4.49437-.30608-.77049-1.069-2.44113-1.54625-3.95986a18.17242,18.17242,0,0,0-2.18668-4.80271,59.12853,59.12853,0,0,1-6.25435-12.70924,17.25215,17.25215,0,0,0-3.14452-5.71644c-2.50068-2.76455-3.60326-6.48279-6.04175-9.3231-2.58851-3.01485-3.17882-6.4466-4.9305-9.68309-.39241-.72676-.7916-1.46558-1.18589-2.19611-.41766-.76822-.84549-1.52551-1.3001-2.21005-3.47133-5.22867-6.59737-10.55912-9.82217-16.16172C351.84326,11.32659,348.53816,5.48236,345.18218,0l-.24464.5119c-2.81129,5.90228-5.68365,11.35372-8.625,17.14254-2.924,5.75188-5.91773,11.843-8.51152,18.06268a19.62032,19.62032,0,0,1-1.16968,2.25265l-.34.58013-.17151.29289-.12364.19413c-.1538.23823-.30344.47834-.43915.72035-3.46416,6.19554-6.85332,12.4514-9.85384,19.00806-.62687,1.36984-1.24016,2.76531-1.93375,4.08765Q303.291,82.80454,292.81519,102.7516q-10.93983,21.03437-21.721,42.192c-7.51977,14.78209-14.93512,29.63692-22.38478,44.46726-1.86251,3.70843-3.61005,7.50469-5.53249,11.15809-9.2986,17.6714-18.02159,35.70015-26.69181,53.73154q-19.27533,40.08635-38.30224,80.29407l-7.87863-12.76805c-.97931-1.58582-2.01517-3.1381-3.02012-4.70961-2.29826-3.59233-4.618-7.17-6.87669-10.78867q-6.10094-9.84687-12.2045-19.69827l-8.75165-14.32823c-2.78151-4.53923-5.736-8.97254-8.37243-13.60563a20.1893,20.1893,0,0,0-1.30274-1.97521c-1.71323-2.30279-3.16336-4.87962-4.73562-7.329-1.7072-2.665-3.264-5.43712-5.125-8.01847a84.91626,84.91626,0,0,1-7.617-12.65609c-.39165-.81157-1.00042-1.78222-1.53946-2.66013l-3.38086-5.43336L91.79543,195.51629q-2.32389-3.72332-4.644-7.441c-1.54775-2.48108-3.12227-5.191-4.63761-7.38143-1.80031-2.61-2.91156-4.94671-4.39712-7.37653-.55-.90128-1.13047-1.78184-1.69477-2.676-2.38948-3.7842-4.83965-7.571-7.13151-11.36428q-5.00061-8.19979-9.97786-16.36113c-1.3932-2.27037-2.81657-4.72883-4.16115-6.78359-2.00876-3.07327-3.85431-6.11035-5.73453-9.30123-.39316-.6672-.83-1.35476-1.24733-2.02422-1.671-2.68992-3.33525-5.3689-5.01155-8.06786-1.659-2.699-3.31074-5.46011-4.96178-8.02337-1.68723-2.6296-3.21652-5.44881-4.90073-8.141-.66833-1.09164-1.44221-2.35556-2.05664-3.35862-2.44678-3.849-4.90864-8.01207-7.3671-12.08651q-2.25831-3.74708-4.50719-7.47982-2.44263-4.0671-4.87961-8.12553-3.44288-5.77581-6.8865-11.55313c-.23446-.38939-.444-.73769-.66532-1.10484a8.80065,8.80065,0,0,1-1-1.61787C4.80222,53.31916,3.858,51.70808,2.77574,49.86178c-.5168-.87528-.85794-1.45276-.9763-1.65368.49493.85869.88621,1.53645,1.61636,2.80225q3.15732,5.46426,6.27734,10.86331c1.46219,2.52255,2.9387,5.07035,4.37865,7.55483,1.18928,2.05249,2.29638,3.96249,3.526,6.08472,2.28356,3.98285,4.62215,8.17227,6.99958,11.99643.619.99326,1.30952,2.23078,1.70833,3.05593a26.64423,26.64423,0,0,0,1.3133,2.37591c.81421,1.31254,1.53041,2.56439,2.31371,3.97569,1.24394,2.23946,2.5512,4.52679,3.89993,6.82128.36526.62159.72864,1.29859,1.11049,1.98276-.245-.01583-1.90134-2.80941-2.21533-3.00806.63063,1.331,1.723,3.05216,2.46939,4.48005.89074,1.70683,1.78034,3.41177,2.88744,5.2102.03279-.10856-.05164-.429.144-.22957.09914.10178.729,1.14065,1.07544,1.75282.90355,1.59827,1.8561,3.27419,2.65147,4.77708,1.42562,2.7016,3.15808,5.47218,4.53508,8.17152.34679.683,1.04038,1.75206,1.57452,2.65825,1.73773,2.947,5.24789,9.35815,6.53744,12.1016a66.37256,66.37256,0,0,0,3.906,7.26834,47.58107,47.58107,0,0,1,2.60321,4.72582,39.33648,39.33648,0,0,0,2.67785,4.6248,30.60336,30.60336,0,0,1,2.23268,3.47547c.25293.52019.83833,1.66951,1.28728,2.66994a34.31317,34.31317,0,0,0,1.66913,3.30811c1.79881,3.10418,3.27155,6.02629,4.56336,8.87076a29.55733,29.55733,0,0,0,2.1701,4.06276c1.44145,2.15578,2.47128,4.61726,3.90294,6.80507a70.71115,70.71115,0,0,1,3.49658,6.81714c.36828.7.71394,1.443,1.09806,2.09245,2.993,5.0466,5.49366,10.21345,8.32267,15.297,2.85125,5.09786,5.33422,10.34953,8.42445,15.36522.3679.59483.66984,1.377,1.02493,2.07586,2.27149,4.46648,4.56825,8.93673,7.078,13.36815.52434.92579,1.06375,1.85685,1.55341,2.79169q7.33921,14.13165,14.67654,28.25992,7.722,14.8701,15.45758,29.76659,8.1455,15.58254,16.30232,31.18656c1.35589,2.60133,2.7996,5.17627,4.1031,7.78854,2.29,4.59426,4.63949,9.16364,7.01013,13.7236-6.57739,14.24418-12.99836,28.55621-19.46418,42.84185q-11.823,26.30525-23.63814,52.59127-11.99718,26.23062-24.00491,52.4846c-4.99006,11.00882-10.16445,21.90267-15.60836,32.68418q-11.74216,23.25536-21.81106,47.13455c-3.44532,8.17981-5.64633,15.79269-6.36216,22.74816-.75579,7.34412,2.18442,10.46677,9.14518,2.15766a85.33309,85.33309,0,0,0,9.96391-15.038c7.208-13.60675,14.52463-27.12832,21.62975-40.81461,8.65778-16.67663,17.18175-33.45316,25.92321-50.07212q14.964-28.4482,29.74435-57.04983,10.1047-19.553,20.21959-39.12588,5.19512-10.11883,10.39363-20.24484,14.96905,27.78384,30.14769,55.44328c6.81713,12.37262,13.9445,24.55526,21.03719,36.753,6.82128,11.7401,13.8039,23.3675,20.67493,35.0797,6.87255,11.71447,13.60525,23.53109,20.52718,35.21653,4.35151,7.34411,8.50248,14.78435,12.36094,22.40627a312.58344,312.58344,0,0,0,18.39024,31.741,34.896,34.896,0,0,0,12.33267,11.85583c5.07525,2.73854,10.01706,1.14668,9.164-6.9257a35.82159,35.82159,0,0,0-3.74612-12.41032c-4.87057-9.73736-9.63069-19.51355-14.70858-29.15329-6.18726-11.74613-12.57844-23.401-18.74006-35.14868-7.035-13.40509-14.25435-26.73026-21.50347-40.03319q-7.4393-13.64879-15.03841-27.22369-4.6902-8.34171-9.38379-16.68945c-4.19847-7.40141-8.39429-14.80206-12.67682-22.16314-3.48226-5.98558-7.07723-11.92065-10.60963-17.88325-3.39443-5.73039-6.68822-11.51656-10.18066-17.1889l-16.36979-26.529q3.36936-6.61434,6.71724-13.243c4.40767-8.758,8.69736-17.593,13.06018-26.3812,4.19281-8.44556,8.52585-16.82063,12.59917-25.3216l48.81989-102.21671c1.13575-2.38081,2.17349-4.80686,3.264-7.20954,2.49277-5.49291,4.93879-11.00543,7.49677-16.47233q2.28036-4.87452,4.58183-9.74038c2.39589,4.64289,4.91957,9.2168,7.28606,13.87175,2.82071,5.54192,5.78278,11.00844,8.7686,16.45838,2.04345,3.72728,4.14268,7.42478,6.25322,11.11436q1.94788,3.40555,3.9478,6.78284c1.77694,3.00127,3.552,6.00255,5.39339,8.96725,1.49763,2.4106,3.08157,4.77483,4.618,7.16431,1.47575,2.29676,2.87273,4.641,4.42614,6.88951l18.72121,26.9896c.43613.62838.91712,1.22848,1.3736,1.84442,1.04415,1.40791,2.10564,2.8045,3.11813,4.23314q2.75079,3.87994,5.44806,7.79495l3.87466,5.69307c1.23376,1.80182,2.60472,3.51732,3.72276,5.39453a4.31671,4.31671,0,0,0,.60123.76671,27.24825,27.24825,0,0,1,2.16332,2.86369,36.56167,36.56167,0,0,0,2.32691,3.14376,17.94859,17.94859,0,0,1,3.34354,5.05,7.031,7.031,0,0,0,.66,1.0728l1.5127,2.14748,6.96264,9.93,2.08152,2.93794c.69321.98007,1.36983,2.07172,2.086,2.90892a29.05226,29.05226,0,0,1,1.91942,2.95152c.24314.3581.51115.7.76559,1.05207,1.07807,1.48895,2.198,2.96772,3.206,4.48q2.18706,3.275,4.41408,6.50352c.61857.90091,1.22885,1.89266,1.847,2.69217.92277,1.19644,1.73774,2.40532,2.5527,3.68582.17039.26763.36828.5379.55487.80252.74712,1.06338,1.49122,2.123,2.24059,3.18975.73694,1.07054,1.45955,2.17425,2.21232,3.17693.76747,1.02945,1.39547,2.18594,2.15163,3.24818.30307.429.62536.94388.91184,1.33327,1.10786,1.51157,2.17726,3.1807,3.258,4.80536q.99176,1.49441,1.98012,2.98355l2.13919,3.24441q1.5029,2.31089,3.00579,4.62253c.10216.1538.19489.294.29176.44066.03355-.00942.10178.08481.44593.64044.48928.77614.89677,1.42336,1.36418,2.1652.21562.33737.35585.55675.42558.66607-.213-.34831-.383-.62612-.69321-1.13387q-1.35194-2.2046-2.688-4.38355c-.6197-1.02153-1.24883-2.05211-1.87872-3.04575-.52056-.821-.99439-1.59224-1.51232-2.45357-.97328-1.61033-1.9526-3.3164-3.0156-4.828a7.81012,7.81012,0,0,1-.7162-1.24356,5.59409,5.59409,0,0,0-.5462-.96989c-.36376-.51943-.66833-1.02568-.99552-1.60128-.51869-.913-1.07469-1.83876-1.65858-2.7604-.15795-.24954-.30609-.52773-.46591-.80668.16849-.03769.88922,1.08185,1.07732,1.12482-.23258-.56316-.72714-1.23941-1.0253-1.83009a17.1376,17.1376,0,0,0-1.20323-2.12524c-.03958.06144-.03091.20958-.13608.144a5.01643,5.01643,0,0,1-.47759-.69547c-.38148-.64873-.78519-1.328-1.106-1.9477-.5741-1.11577-1.35137-2.20892-1.89154-3.33261-.1357-.28422-.45309-.7015-.68491-1.06526a44.67324,44.67324,0,0,1-2.67635-4.9682,14.02863,14.02863,0,0,0-1.59336-2.9877,10.02267,10.02267,0,0,1-1.08034-1.93074,8.29273,8.29273,0,0,0-1.14819-1.86515,6.51086,6.51086,0,0,1-1.01663-1.36041c-.09537-.219-.32493-.69735-.48212-1.12519a7.33027,7.33027,0,0,0-.64949-1.38,21.22211,21.22211,0,0,1-1.80257-3.68468,6.25459,6.25459,0,0,0-.88131-1.67253c-.67022-.833-1.00532-1.89982-1.66348-2.75135a15.04119,15.04119,0,0,1-1.37775-2.83353c-.14776-.2895-.27367-.60463-.44028-.8651-1.30236-2.022-2.24247-4.19771-3.42459-6.269-1.19568-2.07473-2.11016-4.29685-3.48527-6.28489a6.68482,6.68482,0,0,1-.39165-.87037c-.88923-1.86025-1.79542-3.71748-2.85653-5.51515-.22165-.37545-.45309-.75089-.64911-1.13764q-2.91984-5.85666-5.839-11.7122-3.072-6.16314-6.14918-12.33682-3.25685-6.44809-6.51746-12.90525c-.54092-1.07732-1.14706-2.12449-1.64991-3.21726-2.4268-5.28748-5.13179-10.42945-7.87033-15.54466-4.54413-8.49569-9.11691-16.9763-13.82011-25.37211-2.82939-5.05452-5.9053-9.95411-8.95444-14.86765-2.93079-4.73-5.992-9.37248-8.96236-14.07907-2.97074-4.70773-5.828-9.49348-8.83759-14.17708a81.19286,81.19286,0,0,1-5.13518-9.15046,66.72762,66.72762,0,0,0-6.70556-11.25685c.24351-.51114.48476-1.023.72827-1.53418l10.3254-21.40057c3.26552-6.78924,6.142-13.75678,9.73058-20.40542a19.17419,19.17419,0,0,0,1.29671-3.08609c1.25-3.87655,3.26514-7.55218,4.92221-11.32206,1.80182-4.0997,3.9919-8.04109,5.43185-12.321A71.85607,71.85607,0,0,1,342.893,55.64494a27.53448,27.53448,0,0,0,2.04609-3.84451l.9631-2.0491.47571-1.02681.04938-.10743.00377-.01281.0083-.02639.01583-.05353.13608-.45045q.37035-1.115.92767-2.62093.618.75144,1.42374,1.80973c.16812.21788.35245.43349.55223.66494l.07539.08745.03807.04448.01169.01433.05277.08142.10517.16284.84286,1.30274,1.68421,2.60585c2.24323,3.47736,4.37186,7.37691,6.77077,10.31486,2.85577,3.49734,4.00321,7.07647,6.11186,10.51162.7818,1.273,1.674,2.47429,2.50672,3.71823,3.52448,5.26486,7.27136,10.44867,10.52067,15.81417q7.04067,11.62683,14.32145,23.03276c2.02761,3.17882,3.88409,6.758,6.05,9.50064a93.37083,93.37083,0,0,1,8.46969,12.94521c.53036.96047,1.21754,1.89116,1.85157,2.81167,2.54517,3.69524,5.13368,7.3426,7.63776,11.08081,2.49691,3.728,4.805,7.6551,7.62682,10.98281,2.89158,3.41026,4.37074,7.82623,7.09156,11.42874,1.09655,1.45163,2.06418,3.32055,3.16525,4.5969,4.26971,4.94935,7.73463,10.85615,11.45324,16.47647,2.27941,3.44533,4.595,6.856,6.91175,10.26208q3.79908,5.54739,7.59063,11.08346,5.36363,7.87579,10.72912,15.755a10.39526,10.39526,0,0,0,1.29671,1.34609c1.36833-.79989,1.916-.66494,2.90289,1.37812,1.38341,2.86407,3.399,4.7311,4.85851,7.38973a2.81364,2.81364,0,0,0,2.4121,1.70946,13.01421,13.01421,0,0,0-1.59375-4.39259C477.78405,234.952,474.85515,229.81419,472.06874,224.60852ZM25.90123,88.92056c-.15267-.25708-.291-.53979-.43651-.81044.10592.16623.216.33925.317.498.357.61216.71131,1.21981,1.48179,2.54177C26.536,89.95943,26.22088,89.44339,25.90123,88.92056Zm23.89145,42.60512-.752-1.31518c.03657.0279.08745.04976.10743.08444l.75843,1.33591A.49669.49669,0,0,1,49.79268,131.52568ZM62.8178,154.35187a1.44329,1.44329,0,0,1-.4497-.4252,15.98319,15.98319,0,0,1-1.83349-2.84333c-.7113-1.57791-1.55944-3.24026-2.44828-4.96594-.06748-.1308-.09123-.29477-.03582-.22541.17868.22353.395.5217.61632.84738.10931.161.26047.44631.43764.75352.77161,1.47539,1.56848,2.97338,2.59793,4.6199C62.4793,153.35333,62.98516,154.43555,62.8178,154.35187ZM74.196,175.68723a1.22546,1.22546,0,0,1-.45837-.41729c-.65213-1.08787-1.29332-2.21759-2.46488-4.24445-.37243-.70339-1.21491-2.29261-2.04118-3.85167a.59765.59765,0,0,1-.05428-.47157,2.26085,2.26085,0,0,1,.34528.46742q2.26905,4.05522,4.53546,8.10668C74.13647,175.41733,74.233,175.70947,74.196,175.68723ZM416.40834,353.21887c.06634.10328.11912.22164.1783.33322-.04825-.06521-.10216-.13042-.14362-.19563-.1538-.24653-.30608-.49117-.63818-1.02305C416.12713,352.80649,416.267,353.01155,416.40834,353.21887Zm-10.0344-17.32763.31965.53226c-.02111-.00717-.05315-.00905-.06144-.023l-.32154-.54167C406.3321,335.86938,406.36263,335.87315,406.37394,335.89124Zm-5.53325-9.24092a.43273.43273,0,0,1,.24766.13306,3.4194,3.4194,0,0,1,.83645,1.112c.25029.674.58314,1.36606.93483,2.08227.02677.05428.01772.13381-.01017.10893a3.08355,3.08355,0,0,1-.29817-.31852c-.05089-.06182-.11195-.17943-.1881-.30344A13.90155,13.90155,0,0,0,401.27,327.587C400.92136,327.09776,400.737,326.63863,400.84069,326.65032Zm-4.61612-8.7867a.37505.37505,0,0,1,.25481.12779c.28573.43424.55714.89261,1.05886,1.71022.1504.29025.49041.94539.82438,1.58884a.2338.2338,0,0,1-.03543.23069c-.0098.01508-.12778-.10441-.1685-.17415L396.257,318.048C396.22419,317.99028,396.20233,317.8591,396.22457,317.86362ZM386.16566,77.13786c-.05051.06182-.50511-.32116-.6476-.562q-3.32752-5.67516-6.65165-11.345c-.115-.1979-.15644-.67248-.06522-.66532.3027.02375.79688.05164,1.01287.36036,1.031,1.47312,1.99482,3.03973,3.78985,5.82689.52208,1.00043,1.72417,3.24818,2.83391,5.49593C386.59086,76.55925,386.3319,76.93506,386.16566,77.13786Zm15.04293,29.94037a7.18,7.18,0,0,1-1.19379-.99854,7.61981,7.61981,0,0,1-.65364-1.04641,30.36334,30.36334,0,0,0-3.69938-6.53254c-1.27145-1.64916-1.78486-3.31075-1.30387-3.34619a1.57694,1.57694,0,0,1,1.07431.32644c1.132.83344,2.73665,2.16671,3.1479,3.68242a58.40029,58.40029,0,0,0,2.786,7.46474C401.44871,106.8219,401.32545,107.15249,401.20859,107.07823Zm12.95237,21.88c-.37544-.62046-.72939-1.25374-1.08863-1.88362.10894.01508.27782-.01169.317.05164.37846.60576.73467,1.22659,1.0973,1.84328C414.37394,128.9677,414.19037,129.0069,414.161,128.95828ZM444.208,189.88165c-.50286-.86887-.96311-1.7547-1.99558-3.66169,1.2119,1.57225,1.78675,2.224,2.24851,2.9583a4.64059,4.64059,0,0,1,.34981,1.31329A3.48513,3.48513,0,0,1,444.208,189.88165Z"/><path class="cls-1" d="M482.58413,244.36558c.02111.07426.03882.147.06182.222.035.04146.07124.08142.10667.12251-.04221-.115-.08292-.22994-.1259-.34529C482.61353,244.36672,482.5977,244.36445,482.58413,244.36558Z"/><path class="cls-1" d="M455.3382,191.66613c.28422.41841,1.00683.96536,1.09052.83833a1.85066,1.85066,0,0,0-.13269-1.41167c-2.34086-4.22033-4.69981-8.4433-7.14433-12.62556-1.44786-2.47731-1.7792-2.61942-4.46384-2.70951,3.79249,4.53621,3.826,4.61235,7.64492,11.18975C453.265,188.5529,454.29857,190.1342,455.3382,191.66613Z"/><path class="cls-1" d="M484.55746,246.89793a24.89588,24.89588,0,0,0-1.80484-2.18781c.29666.81232.57938,1.6205.91712,2.44452.5217,1.27145,1.47425,2.19573,1.38454,1.386A4.18339,4.18339,0,0,0,484.55746,246.89793Z"/><path class="cls-1" d="M428.1933,143.26163l-.3566-.82439-.55-.73279a11.11342,11.11342,0,0,0,.42219,1.12482C427.77677,142.9695,428.02631,143.11726,428.1933,143.26163Z"/><path class="cls-1" d="M415.18966,350.12c.93936,1.41017.94614,1.4343,2.06757,3.32847.27857.4595.56166.92692.83909,1.38529a1.87852,1.87852,0,0,0,.21976.30156,1.6156,1.6156,0,0,0-.15229-.33925q-1.05113-1.81162-2.10714-3.63116C415.63748,350.44753,415.58131,350.38232,415.18966,350.12Z"/><path class="cls-1" d="M427.62561,370.73158c-.066-.10668-.17641-.285-.25331-.409-.13344-.21411-.26085-.41842-.38977-.62574.1161.18734.2307.37243.35094.56693C427.54117,370.597,427.73832,370.91251,427.62561,370.73158Z"/><path class="cls-1" d="M426.98253,369.69685c-.03128-.05051-.06332-.10215-.09461-.153l-.00151-.00226.03166.05164C426.93956,369.62749,426.96142,369.66255,426.98253,369.69685Z"/><path class="cls-1" d="M409.9625,340.778a1.25477,1.25477,0,0,0,.11233.14249l-.11685-.23032-.14362-.22165C409.863,340.57145,409.906,340.67134,409.9625,340.778Z"/></g></g></svg>