<svg xmlns="http://www.w3.org/2000/svg" viewBox="0 0 396.07116 671.1726"><defs><style>.cls-1{fill:#24373e;}</style></defs><g id="Слой_2" data-name="Слой 2"><g id="Слой_1-2" data-name="Слой 1"><path class="cls-1" d="M20.98539,310.40291c-1.43091,1.01135-1.45541,1.01908-3.37936,2.23587-.46666.30156-.94162.60821-1.40678.90883a2.011,2.011,0,0,0-.3057.23521,1.70393,1.70393,0,0,0,.34528-.16887q1.84047-1.14216,3.68846-2.2894C20.65631,310.86957,20.72227,310.80982,20.98539,310.40291Z"/><path class="cls-1" d="M1.09526,323.18734c.05428-.03562.10931-.07218.164-.108l.00264-.0017-.05278.0343Z"/><path class="cls-1" d="M.05374,323.877c.10781-.07124.28912-.19073.415-.27385.21449-.1423.41917-.27819.6265-.41578-.187.12346-.37243.24559-.56656.37375C.1902,323.78575-.13021,323.99892.05374,323.877Z"/><path class="cls-1" d="M30.47811,304.70908a1.42,1.42,0,0,0-.14437.11949l.23408-.12816.22542-.15474Z"/><path class="cls-1" d="M17.02251,454.65516a1.99309,1.99309,0,0,0-.3057.235,1.71085,1.71085,0,0,0,.34491-.16868q1.84045-1.14245,3.68883-2.28941c.72864-.455.795-.51472,1.05772-.92183-1.4309,1.01136-1.455,1.01908-3.37936,2.23607C17.96225,454.0479,17.48767,454.35454,17.02251,454.65516Z"/><path class="cls-1" d="M.87662,464.98434c.10781-.07124.28912-.19074.415-.27367.21523-.14248.42029-.27875.628-.41653-.18772.12364-.37318.24615-.56806.3745C1.01346,464.89331.69267,465.10647.87662,464.98434Z"/><path class="cls-1" d="M1.91964,464.29414l.16285-.10743.00264-.00169-.05278.0343Z"/><path class="cls-1" d="M31.15662,445.93594l.23446-.128.225-.15473-.31513.1634A1.39251,1.39251,0,0,0,31.15662,445.93594Z"/><path class="cls-1" d="M396.01909,322.91575l-.268-.26556-.53489-.53112-1.06074-1.06243q-1.05339-1.06272-2.06908-2.129l-4.99232-5.20661c-1.53946-1.74622-3.00354-3.50243-4.5381-5.26562l-6.32521-7.31339c-3.02616-3.48735-6.16351-6.87876-9.29672-10.27056q-15.6419-16.8669-31.968-33.11861c-6.5725-6.49956-13.41715-12.74618-20.23391-19.0141q-9.89154-9.00015-19.77554-17.99351c-6.57023-6.02479-13.08392-12.117-19.68544-18.11338-4.14909-3.76931-8.2062-7.60609-12.23655-11.4768-4.92032-4.73524-10.0491-9.25769-15.18881-13.74716q-.01358-4.90308-.03016-9.80522c-.03731-13.86761-.271-27.71844-.36526-41.58736-.09461-13.87118-.01659-27.76159-.1685-41.6324-.09687-8.71847.02865-17.4196.498-26.13166a326.06345,326.06345,0,0,0-.05578-37.4673c-.39052-6.39627-1.87721-12.03582-4.75259-16.78482-3.02577-5.01437-8.10178-6.12977-11.399,1.446a37.23468,37.23468,0,0,0-2.96094,12.89c-.65061,11.10041-1.41657,22.17878-1.83876,33.2986-.51453,13.54946-.807,27.12248-1.34495,40.66025-.61029,15.44967-1.02041,30.92289-1.394,46.3914-.25482,10.58154-.4301,21.17176-.58842,31.76027q-.00792.69435-.01546,1.38887c-3.94515,1.97409-7.92047,3.88937-11.77365,6.02008-4.93314,2.728-9.77732,5.61014-14.71687,8.32-5.6354,3.09494-11.19164,6.329-16.73016,9.58677-3.78834,2.22909-7.54465,4.51341-11.29341,6.80865q-3.46039,2.11865-6.89027,4.28837c-3.04839,1.92754-6.09678,3.85356-9.1071,5.845-2.44754,1.61937-4.84569,3.32394-7.27136,4.98139-2.33106,1.59242-4.71187,3.10719-6.9928,4.77576l-27.37484,20.1033c-.63705.46836-1.24507.98063-1.86967,1.469-1.42713,1.1169-2.8422,2.25077-4.29082,3.33676q-3.93423,2.94954-7.90539,5.84724l-5.77562,4.16567c-1.82783,1.32611-3.5652,2.78661-5.47181,3.99906a4.61949,4.61949,0,0,0-.77689.6412,29.06016,29.06016,0,0,1-2.90214,2.31126,39.17567,39.17567,0,0,0-3.18635,2.48957,19.188,19.188,0,0,1-5.12426,3.60062,7.48264,7.48264,0,0,0-1.08938.71413l-2.17764,1.623-10.071,7.47171-2.97941,2.23248c-.99364.74373-2.10225,1.47538-2.94963,2.23569a30.99277,30.99277,0,0,1-2.99524,2.06927c-.363.2616-.70942.54752-1.06639.81986-1.50969,1.1546-3.00844,2.35123-4.54262,3.43647q-3.323,2.35357-6.59776,4.74617c-.9141.66475-1.92093,1.325-2.731,1.98464-1.21227.985-2.43848,1.86138-3.73858,2.74137-.27178.184-.54545.39579-.81384.596-1.07845.80158-2.15314,1.60015-3.235,2.40418-1.086.79178-2.20591,1.57037-3.22217,2.375-1.04339.821-2.21872,1.50667-3.29567,2.31711-.435.32531-.95821.67361-1.35287.98007-1.5323,1.18589-3.22669,2.33992-4.87509,3.50356q-1.51647,1.0678-3.02729,2.13184L9.9238,317.11091q-2.34483,1.62023-4.69114,3.24064c-.15644.11007-.29855.21-.44707.31438.01018.03336-.08556.10649-.64986.47872-.78782.5283-1.44485.96876-2.198,1.47388-.3434.23314-.56693.385-.67587.45912.35358-.2305.63516-.41408,1.1512-.75032q2.23853-1.46331,4.451-2.90929c1.03737-.671,2.08378-1.35231,3.0925-2.03252.83344-.56222,1.61636-1.07506,2.49126-1.63634,1.63559-1.05414,3.36842-2.11883,4.90148-3.25967a8.36468,8.36468,0,0,1,1.26353-.77859,5.98048,5.98048,0,0,0,.98573-.59464c.5266-.39014,1.04076-.72054,1.6254-1.07619.92768-.56467,1.86779-1.16722,2.80338-1.79748.25331-.171.5364-.33266.81949-.50644.04109.16831-1.095.94577-1.13651,1.13745.573-.2601,1.25864-.78914,1.8595-1.11671a18.381,18.381,0,0,0,2.15954-1.30953c-.0637-.03731-.21524-.02167-.14965-.131a5.41692,5.41692,0,0,1,.70528-.513c.6589-.41389,1.3491-.85171,1.97936-1.2036,1.13424-.62913,2.24285-1.46256,3.38576-2.05814.28912-.14965.71206-.48872,1.08109-.73882a47.79,47.79,0,0,1,5.05-2.92381,14.99085,14.99085,0,0,0,3.03708-1.74189,10.72036,10.72036,0,0,1,1.962-1.17665,8.87013,8.87013,0,0,0,1.89379-1.24242,6.96127,6.96127,0,0,1,1.37889-1.08694c.22277-.10611.70941-.359,1.14517-.53715a7.816,7.816,0,0,0,1.40414-.71734A22.707,22.707,0,0,1,54.35,290.39253a6.67694,6.67694,0,0,0,1.70042-.96443c.844-.71356,1.93149-1.09956,2.79433-1.802a16.0588,16.0588,0,0,1,2.88216-1.5176c.294-.16208.61518-.30287.87942-.48306,2.05249-1.40489,4.26707-2.45092,6.37158-3.73689,2.10753-1.29953,4.37036-2.322,6.38666-3.7989a7.10207,7.10207,0,0,1,.88583-.43424c1.89229-.98083,3.78119-1.97861,5.60713-3.13.38147-.24049.763-.491,1.15573-.706Q88.97,270.6103,94.92483,267.402q6.26774-3.37644,12.5464-6.75871,6.55779-3.57546,13.1235-7.15583c1.09542-.59388,2.15955-1.25279,3.27117-1.809,5.3802-2.68614,10.60812-5.64633,15.80739-8.63931,8.63554-4.96669,17.25563-9.96127,25.78713-15.08421,5.13594-3.08194,10.10979-6.4057,15.09872-9.70306,4.80234-3.17,9.51346-6.46752,14.2913-9.67593,4.779-3.20916,9.63973-6.30712,14.39307-9.55454a86.8733,86.8733,0,0,1,9.29822-5.59262q2.39514-1.23064,4.68021-2.61923c-.06258,8.42049-.12515,16.84023-.09763,25.26826.023,7.07252.16887,14.158.2469,21.23622.07426,6.80206.03355,13.602.222,20.403l1.57,54.78361c-.10253.0475-.207.09028-.30872.14155-4.14155,2.0817-8.32607,4.08085-12.37489,6.31975-4.93314,2.72817-9.7777,5.61014-14.71687,8.32-5.6354,3.09495-11.19164,6.329-16.73016,9.58677-3.78834,2.2291-7.545,4.51341-11.29379,6.80866q-3.45984,2.11864-6.89027,4.28837c-3.048,1.92753-6.0964,3.85356-9.10672,5.845-2.44754,1.61938-4.84607,3.32394-7.27136,4.98139-2.33144,1.59243-4.71188,3.1072-6.9928,4.77577l-27.37484,20.10329c-.63743.46836-1.24544.98082-1.86967,1.46916-1.42714,1.11672-2.8422,2.25058-4.2912,3.33657q-3.93423,2.94982-7.90539,5.84744l-5.77562,4.16548c-1.82783,1.32611-3.56519,2.7866-5.47181,3.99906a4.61717,4.61717,0,0,0-.77651.64119,29.10377,29.10377,0,0,1-2.90214,2.31127,39.04451,39.04451,0,0,0-3.18635,2.48956,19.1838,19.1838,0,0,1-5.12464,3.60063,7.53881,7.53881,0,0,0-1.08938.71413l-2.17764,1.623-10.07059,7.4717L58.48246,423.573c-.99364.74353-2.10225,1.47519-2.94963,2.2355a30.9569,30.9569,0,0,1-2.99524,2.06926c-.36338.26161-.7098.54752-1.06639.82006-1.50969,1.15459-3.00844,2.351-4.54263,3.43627q-3.323,2.35386-6.59812,4.74636c-.91373.66457-1.92056,1.32479-2.73063,1.98446-1.21265.98515-2.43849,1.86156-3.73859,2.74136-.27178.18395-.54582.3958-.81383.59615-1.07883.80158-2.15314,1.6-3.235,2.404-1.086.792-2.20591,1.57037-3.22217,2.37516-1.04377.8208-2.21873,1.50648-3.29605,2.31692-.435.32531-.95783.67361-1.35249.98026-1.5323,1.18569-3.22669,2.33972-4.87509,3.50337q-1.51647,1.06807-3.02729,2.132l-3.29228,2.3043q-2.34537,1.61994-4.69114,3.24045c-.15643.11007-.29854.21-.44744.31456.01018.03317-.08519.10649-.64948.47854-.7882.52848-1.44485.96876-2.198,1.47387-.34341.23352-.56656.38487-.67587.45913.35357-.23051.63553-.41408,1.1512-.75032q2.23851-1.46332,4.45065-2.90911c1.03774-.67116,2.08377-1.3525,3.09287-2.0327.83306-.56222,1.61636-1.07487,2.49126-1.63615,1.63521-1.05433,3.36842-2.119,4.90148-3.25968a8.33061,8.33061,0,0,1,1.26353-.77859,5.99869,5.99869,0,0,0,.98535-.59482c.5266-.39015,1.04113-.72035,1.62578-1.07619.9273-.56467,1.86741-1.16723,2.803-1.79749.25331-.17076.5364-.33266.81949-.50643.04109.1685-1.095.94577-1.1365,1.13745.57334-.25991,1.259-.789,1.85949-1.11672a18.29186,18.29186,0,0,0,2.15954-1.30933c-.06332-.03732-.21523-.02168-.14964-.131a5.38988,5.38988,0,0,1,.70565-.513c.6589-.41408,1.34872-.85191,1.979-1.2036,1.13424-.62913,2.24323-1.46276,3.38576-2.05834.2895-.14965.71206-.48871,1.08147-.73882a47.75453,47.75453,0,0,1,5.05-2.92362,14.99247,14.99247,0,0,0,3.03708-1.74207,10.70651,10.70651,0,0,1,1.962-1.17665,8.8695,8.8695,0,0,0,1.89379-1.24224,6.92394,6.92394,0,0,1,1.37888-1.08693c.2224-.1063.70905-.35924,1.14518-.53735a7.81569,7.81569,0,0,0,1.40413-.71733,22.67649,22.67649,0,0,1,3.74764-1.98389,6.69587,6.69587,0,0,0,1.70042-.96442c.84361-.71376,1.93149-1.09957,2.79395-1.8022a16.07022,16.07022,0,0,1,2.88216-1.51741c.2944-.16228.61556-.30307.8798-.48306,2.05211-1.40489,4.26669-2.45112,6.3712-3.73708,2.10791-1.29954,4.37036-2.32182,6.387-3.79871a7.12081,7.12081,0,0,1,.88545-.43425c1.89229-.98082,3.78156-1.9788,5.60751-3.13.38147-.24068.76257-.491,1.15573-.706q5.95619-3.20907,11.91123-6.41757,6.26831-3.37642,12.54677-6.75852,6.55724-3.57574,13.12351-7.15582c1.09541-.59408,2.15917-1.2528,3.27117-1.809,5.3802-2.68633,10.60774-5.64651,15.807-8.63949,8.63592-4.96651,17.25563-9.96128,25.78713-15.084,5.13632-3.08213,10.11017-6.40588,15.09872-9.70325,4.80272-3.16977,9.51346-6.46751,14.29168-9.67592,4.77859-3.20916,9.63935-6.30712,14.39307-9.55455a86.86688,86.86688,0,0,1,9.29822-5.59261q3.2642-1.67762,6.32521-3.64774l.2454,8.55468c.05465,1.903.17566,3.80493.26047,5.70815.19413,4.35113.41427,8.70038.56128,13.05471q.36016,11.82558.72035,23.65643l.41464,17.14292c.13947,5.43543.48137,10.86557.44782,16.31a21.22466,21.22466,0,0,0,.1406,2.41229c.33247,2.91212.3,5.93168.43689,8.90129.14588,3.22895.10818,6.476.429,9.70985a88.57092,88.57092,0,0,1,.26838,15.0844c-.06634.91824-.0245,2.08717.0034,3.13923l.21109,6.53254.94124,30.16578q.151,4.48014.30156,8.9535c.09989,2.98507.10819,6.18612.32531,8.89752.25406,3.228.04825,5.86251.11987,8.77049.02563,1.0777.08821,2.15314.12967,3.23216.17717,4.56731.406,9.16836.4938,13.694.15418,6.53762.30722,13.04717.461,19.56727.07125,2.71988.07464,5.62145.21147,8.12515.20318,3.74443.28271,7.37314.31589,11.15564.00678.791.04146,1.62258.06785,2.42774.10215,3.23254.20393,6.45206.30646,9.69553.08707,3.2346.13683,6.52029.285,9.63088.14626,3.18748.06144,6.46223.17377,9.70362.03318,1.3067.07163,2.82.10178,4.02093.19451,4.654.245,9.59374.337,14.453q.082,4.46771.1636,8.91788c.05428,3.22989.10856,6.45074.16284,9.67932q.09387,6.86708.18735,13.736c.00829.46384.01583.87924.02374,1.31669a9.15627,9.15627,0,0,1,.0573,1.94167c.0147,2.28394.02676,4.19149.04109,6.37723.01018,1.05377.01658,1.749.01885,1.97616v.14437l.00113.29139-.00113-.41785c.00037-1.02794.00037-1.82821.00113-3.33676q-.00226-6.44584-.00453-12.8146c-.00527-2.97809-.01017-5.986-.01507-8.91863-.00377-2.42284-.00717-4.67775-.01094-7.183.01395-4.68907.08331-9.589-.0637-14.18575-.0392-1.19456-.01847-2.64185.04825-3.57537.04976-.70188.08481-1.65575.05089-2.77228-.04863-1.57678-.043-3.04971-.01621-4.69811.04259-2.61584.05428-5.30689.03355-8.02507-.00566-.73637.01809-1.52081.02978-2.32107.2043.13909.242,3.45606.41426,3.79211.1195-1.4995.03393-3.5797.1014-5.22395.08218-1.96429.164-3.92688.10442-6.08284-.08218.079-.16963.40578-.239.12929-.03543-.14041-.06144-1.38114-.05541-2.09942.017-1.87514.03016-3.84413.09235-5.57961.11648-3.11775.00113-6.45319.15832-9.544.04109-.78123-.02488-2.08076-.0343-3.15545-.03166-3.49394.13419-10.95717.38939-14.0425a69.19329,69.19329,0,0,0,.251-8.42389,49.68778,49.68778,0,0,1,.10856-5.50931,41.04909,41.04909,0,0,0-.00641-5.45842,31.85979,31.85979,0,0,1-.19564-4.2143c.04071-.58936.10857-1.90472.21977-3.01918a35.7734,35.7734,0,0,0,.20845-3.77873c-.00528-3.66414.1798-7.00071.48363-10.17651a30.81387,30.81387,0,0,0,.15191-4.70188c-.17076-2.643.16849-5.34628.02261-8.01245a73.777,73.777,0,0,1,.38035-7.81567c.03128-.80705.10328-1.64105.09536-2.41154-.03317-2.88517.0475-5.73661.14928-8.58126l.01055-.01244c1.757-2.11469,3.51166-4.20393,5.30481-6.2502,1.25449-1.43354,2.5071-2.89535,3.65868-4.37809.95067-1.22546,1.88286-2.32728,2.95151-3.522a48.642,48.642,0,0,0,5.72135-7.04745,4.702,4.702,0,0,1,1.61259-1.63087,3.414,3.414,0,0,0,1.28314-1.23677,11.724,11.724,0,0,1,1.90812-2.32258,41.25528,41.25528,0,0,0,3.414-3.83584,13.84305,13.84305,0,0,1,1.03623-1.06771c.44857.49908-.827,2.19969-.53187,2.73364.91561-.48,1.5568-1.68233,2.4-2.34538a10.85761,10.85761,0,0,0,2.75361-2.76643c-.23257-.13175-.57937-.15229-.63478-.4318a3.33519,3.33519,0,0,1,.73166-1.141,29.0131,29.0131,0,0,1,2.52066-2.54177c1.55718-1.2935,2.66014-3.15695,4.29761-4.35961a9.47345,9.47345,0,0,0,1.21679-1.615A32.344,32.344,0,0,1,284.2,435.89155a10.14575,10.14575,0,0,0,3.99153-3.679,7.375,7.375,0,0,1,2.47769-2.51935,6.18575,6.18575,0,0,0,2.21156-2.7031,5.16725,5.16725,0,0,1,1.3099-2.42567,16.274,16.274,0,0,1,1.68723-1.09976,5.82712,5.82712,0,0,0,1.96654-1.50044,17.4641,17.4641,0,0,1,5.09938-4.20808,5.03077,5.03077,0,0,0,2.20139-2.07586c.73844-1.59224,2.4841-2.37686,3.278-3.9412.83344-1.66838,2.61076-2.11582,3.87693-3.26514a8.45791,8.45791,0,0,0,1.14857-1.04849c2.27715-3.0957,5.407-5.34345,7.93818-8.18,2.53348-2.85521,5.72888-5.102,7.82925-8.36735.24954-.38769.8078-.62291,1.19757-.96273a61.55328,61.55328,0,0,0,7.06253-6.9583,19.52432,19.52432,0,0,1,1.37662-1.56924c5.00174-4.84173,10.05965-9.626,15.009-14.51935q7.82661-7.7,15.45268-15.59667c2.65109-2.76776,5.3018-5.53909,7.90841-8.34906l.97856-1.05264.48928-.52659.88885-.99572,3.76271-4.22862,1.89266-2.1275c.65024-.71112,1.21567-1.42167,1.97673-2.13825l4.34585-4.311q2.15088-2.17377,4.31005-4.35546l.13419-.13646.06747-.06823C396.08129,322.95967,396.03379,322.938,396.01909,322.91575ZM17.82918,311.77161c-.10479.07162-.22541.13-.3385.19469.066-.05145.13194-.10893.19828-.15341.24992-.16624.49833-.33115,1.0385-.68982C18.2476,311.4693,18.03952,311.6197,17.82918,311.77161Zm17.60243-10.90346-.54055.34679c.00754-.02186.00867-.05409.023-.06332l.55-.34868C35.45347,300.82518,35.45045,300.8559,35.43161,300.86815Zm9.25261-5.74245a3.65616,3.65616,0,0,1-1.12671.89431c-.68718.2829-1.39094.64967-2.11959,1.03661-.055.0294-.13683.02375-.11157-.00546a3.33468,3.33468,0,0,1,.32191-.31494c.06258-.05447.18245-.12138.30835-.20356a14.93037,14.93037,0,0,0,1.90736-1.1872c.49607-.37393.96349-.58088.95331-.47552A.44985.44985,0,0,1,44.68422,295.1257Zm8.93823-5.0451c-.44066.30778-.90619.60218-1.73661,1.14518-.29477.16491-.96084.53734-1.61485.90317a.24036.24036,0,0,1-.2371-.02545c-.01546-.00923.10516-.13344.176-.17773l3.35146-2.06719c.05843-.03581.19262-.06371.18848-.04071A.391.391,0,0,1,53.62245,290.0806ZM18.65207,452.879c-.10442.07162-.225.13-.3385.19488.06634-.05146.1323-.10894.19827-.15361.2503-.16623.49871-.33115,1.03887-.68982C19.07086,452.57685,18.86278,452.72706,18.65207,452.879Zm17.6028-10.90328-.54055.34661c.00754-.02168.00867-.05409.023-.06333l.55-.34849C36.27673,441.93273,36.27334,441.96345,36.25487,441.9757Zm9.25223-5.74245a3.64676,3.64676,0,0,1-1.12671.89413c-.6868.2829-1.39056.64986-2.11921,1.0368-.05541.0294-.13683.02356-.11157-.00566a3.33523,3.33523,0,0,1,.32191-.31494c.06257-.05447.18207-.12138.308-.20355a14.90736,14.90736,0,0,0,1.90736-1.18721c.49645-.37393.96386-.58069.95331-.47552A.45023.45023,0,0,1,45.5071,436.23325Zm8.93861-5.04509c-.441.30759-.90619.602-1.73661,1.145-.29478.16492-.96122.53753-1.61523.90317a.24007.24007,0,0,1-.2371-.02544c-.01508-.00924.10517-.13344.17641-.17773l3.35146-2.0672c.05843-.03581.19262-.06351.18847-.04071A.39307.39307,0,0,1,54.44571,431.18816Zm180.06587,188.9502c-.00829-.2011-.017-.41031-.02526-.60218-.003-.72393-.006-1.4424-.01243-3.00485.03467,1.42411.04975,2.04175.06521,2.66748C234.54249,619.504,234.52138,619.82474,234.51158,620.13836Zm.63328-49.27864a.41569.41569,0,0,1-.05089-.12948l.01093-1.56906a.50765.50765,0,0,1,.046.15116Zm.48211-24.33211c-.173,1.75885-.26951,3.66226-.36224,5.64257-.00717.1504-.069.3074-.08218.21768-.043-.28912-.081-.663-.11007-1.06413-.014-.19827-.00226-.52773-.00226-.89016.06974-1.6991.12854-3.431.06031-5.413a6.63654,6.63654,0,0,1,.15342-2.55025,1.49443,1.49443,0,0,1,.17679.60557A16.68172,16.68172,0,0,1,235.627,546.52761Zm.67135-23.12322c-.02865.81232-.09386,2.64807-.15794,4.44913a.61607.61607,0,0,1-.18847.44481,2.344,2.344,0,0,1-.06559-.58974q.06276-4.74561.12552-9.48651c.00264-.1651.06521-.47269.08632-.43387a1.27033,1.27033,0,0,1,.1881.60293C236.307,519.68634,236.29719,521.01321,236.29832,523.40439Zm18.93683-60.68514a2.79634,2.79634,0,0,1-.46591.39259,2.21533,2.21533,0,0,1,.18546-.34773c.29628-.35641.58992-.71,1.22847-1.479C255.68259,462.05544,255.47828,462.40016,255.23515,462.71925ZM276.85661,440.515c-.02262-.05578-.07954-.14229-.06258-.16208.219-.25331.44857-.497.6755-.74316.01583.05579.06446.13683.04259.16322C277.30028,440.02555,277.07675,440.26888,276.85661,440.515Zm12.18452-12.969c-.12364.68378-.389,1.65518-1.06752,1.99123a18.93438,18.93438,0,0,0-3.1121,2.09095c-.07727.06031-.27668.02242-.26876-.04618a2.80914,2.80914,0,0,1,.202-.722,2.5581,2.5581,0,0,1,.36413-.438,10.09447,10.09447,0,0,0,2.374-2.52651c.50776-.82307,1.23037-1.229,1.38266-.96537A.90368.90368,0,0,1,289.04113,427.54607Zm11.83321-10.66391c-.4874.67323-1.0483,1.31009-2.022,2.49032-.38751.35245-1.25148,1.15931-2.14032,1.91566-.12289.1046-.40711-.02507-.56807-.10988-.04862-.02583.02074-.30854.10819-.40353l4.14494-4.44141c.07275-.0769.32342-.12194.34905-.06728C300.83174,416.447,300.97649,416.74118,300.87434,416.88216Zm43.64625-77.55307L337.501,347.7558c-2.20214,2.6918-4.102,5.63653-6.55741,8.12025a4.40057,4.40057,0,0,0-.84889,1.30387c-.77313,1.78862-2.15239,3.1513-3.24893,4.71281-1.1972,1.69383-2.6869,3.15337-3.58706,5.10409a17.19576,17.19576,0,0,1-6.18084,7.4114,6.527,6.527,0,0,0-1.36984,1.47123c-.85643,1.10051-1.67064,2.23663-2.506,3.355q-5.77072,7.75905-11.49131,15.56105c-1.13424,1.54361-2.22664,3.12-3.32658,4.69039a33.59907,33.59907,0,0,0-3.23574,4.72073c-.90393,1.9428-2.43924,2.8488-3.55991,4.33794-.41578.55147-.75654,1.165-1.14065,1.74452-1.6288,2.45055-3.12982,5.0385-4.90148,7.33262-2.54705,3.32431-5.01192,6.69481-7.42817,10.11582a43.58957,43.58957,0,0,0-3.01711,4.25783,34.46023,34.46023,0,0,1-4.05334,5.92188,13.28065,13.28065,0,0,0-.87867,1.29162c-1.12972,1.75452-2.23946,3.51431-3.41026,5.24281a60.90292,60.90292,0,0,0-3.40009,5.19719c-.98836,1.83669-2.58437,3.22877-3.67752,5.02154-.44329.72035-1.06375,1.46445-1.44033,2.15219a86.04684,86.04684,0,0,1-5.21547,7.703q-1.655,2.34453-3.30321,4.6804-1.80088,2.53734-3.59761,5.06941-2.5953,3.5599-5.19135,7.12114c-.17679.23955-.31853.46742-.478.69924.11761.11969.03129.28931-.634,1.09146-.69961.85775-1.28162,1.635-1.90548,2.43359.10819-2.99977.23861-5.99237.285-9.00929.07953-5.96542.55524-11.87844.38675-17.89305-.02073-.71413.10856-1.56019.15078-2.3597.26575-5.11088.5119-10.23758.55411-15.43911.00867-1.08675.00717-2.18593.05052-3.2625q.71016-16.24776,1.41959-32.49194.748-17.09617,1.49687-34.22308.73674-17.94318,1.47462-35.91068c.12666-2.99336.164-6.0082.34114-8.9846.864-14.39627,1.33629-28.84589,1.75546-43.28118.70075-23.96985,1.36116-47.94518,1.82707-71.9107.18584-9.482.20959-18.95944.19489-28.43464q3.78608,4.93814,7.54766,9.91227c5.2592,6.92853,10.5414,13.85649,15.68262,20.881q8.77991,12.0441,17.57566,24.11027,6.01781,8.24473,12.04166,16.49758l7.45719,10.11846c3.34166,4.47232,6.6509,8.97254,10.05966,13.39076,2.7555,3.60722,5.63954,7.10984,8.45724,10.666,2.7016,3.4227,5.332,6.908,8.13986,10.23418l8.52321,9.91378,8.61254,9.8333,4.33945,4.887.54243.61066.25595.288c-.77614.94841-2.057,2.6803-3.00919,3.82736C350.92685,331.5315,347.70469,335.41446,344.52059,339.32909Zm13.40584-15.837-.03392-.0311-.01621-.01583.02148-.01734c.01659-.01244.00641-.00151.01094-.00339l.00678.00735.01583.01734c.00717.01187-.00377.02318-.00791.03826Z"/><path class="cls-1" d="M256.56766,465.1926c-.579.632-1.144,1.29577-1.69175,1.95015-.14927.17905-.33322.534-.28233.53829a1.10864,1.10864,0,0,0,.53753-.31419q2.31088-2.41662,4.63233-4.844c.90657-.96688.94728-1.11087.75466-2.17123A30.18109,30.18109,0,0,1,256.56766,465.1926Z"/><path class="cls-1" d="M272.66568,448.67467l.32455-.26293.24992-.34019a4.70153,4.70153,0,0,0-.45347.32907A.945.945,0,0,0,272.66568,448.67467Z"/><path class="cls-1" d="M235.29451,620.79142c-.0034,1.33912-.00641,2.70142-.00981,4.03563.00076.36451.02564.97328.03732.92673a7.72259,7.72259,0,0,0,.05918-.91863q.06163-5.218.12364-10.46a10.59991,10.59991,0,0,0-.24238-3.34882C235.34351,615.24612,235.33522,615.30549,235.29451,620.79142Z"/><path class="cls-1" d="M235.0672,671.01734c-.00075-.30514-.00226-.83155-.003-1.19814-.00264-.63421-.0049-1.23941-.00716-1.85025.0015.55166.00264,1.1005.00414,1.67384C235.06494,670.62154,235.06909,671.54922,235.0672,671.01734Z"/><path class="cls-1" d="M235.78756,584.36884c-.0034.112.017.297.02638.44876l.026-.64175-.00829-.65816C235.817,583.79927,235.803,584.0686,235.78756,584.36884Z"/></g></g></svg>