<svg xmlns="http://www.w3.org/2000/svg" viewBox="0 0 334.75976 677.15283"><defs><style>.cls-1{fill:#24373e;}</style></defs><g id="Слой_2" data-name="Слой 2"><g id="Слой_1-2" data-name="Слой 1"><path class="cls-1" d="M183.77058,458.36447c-.57938.63215-1.144,1.296-1.69175,1.95034-.14928.179-.3336.534-.28234.53829a1.10779,1.10779,0,0,0,.53715-.31419q2.31145-2.41662,4.63272-4.844c.90656-.96707.94727-1.11087.75465-2.17123A30.19408,30.19408,0,0,1,183.77058,458.36447Z"/><path class="cls-1" d="M199.86859,441.84654l.32456-.26274.24991-.34019a4.70277,4.70277,0,0,0-.45347.32907A.946.946,0,0,0,199.86859,441.84654Z"/><path class="cls-1" d="M139.84425,453.76173c-.81045-1.04905-.94615-1.11181-2.02347-1.09052a30.20883,30.20883,0,0,1,4.151,4.67022c.53188.67229,1.0973,1.33535,1.65632,1.9805.153.17584.4742.41389.48664.36432a1.10542,1.10542,0,0,0-.225-.5805Q141.87168,456.43977,139.84425,453.76173Z"/><path class="cls-1" d="M127.72,438.15846a4.72832,4.72832,0,0,0,.25255.5c.0392.06088.16511.10894.25143.163l-.2077-.36225Z"/><path class="cls-1" d="M331.251,178.66456c.05277.05391.10366.10574.15757.161.127.12892.25255.2567.37883.38487-.17189-.1751-.3434-.34981-.5168-.52622Z"/><path class="cls-1" d="M315.83718,162.91937c-2.85163-2.90666-5.73265-5.84328-8.54055-8.70565-2.31937-2.365-4.47929-4.56675-6.87783-7.01221-4.47477-4.59238-9.11162-9.42958-13.61316-13.81916-1.17043-1.1399-2.54026-2.56892-3.385-3.52788-.63591-.72091-1.52325-1.67761-2.61527-2.74494-1.54286-1.50705-2.94775-2.95039-4.50493-4.58032-2.47128-2.58625-5.0368-5.22415-7.6517-7.86638-.69736-.72619-1.44033-1.49969-2.19837-2.289.27894-.007,3.47811,3.20822,3.92291,3.41629-1.34872-1.54907-3.39971-3.52241-4.92372-5.17627-1.82029-1.97748-3.63869-3.95251-5.7432-6.018.01658.13494.26688.51529-.0475.29383-.15945-.11271-1.36456-1.30708-2.04721-2.01329-1.78147-1.84423-3.65528-3.77779-5.27051-5.51741-2.89912-3.12831-6.17142-6.30769-9.01513-9.43826-.71772-.79216-2.008-2.01612-3.04274-3.05951-3.3639-3.39274-10.38384-10.80263-13.15253-13.99634-2.41776-2.78264-4.82684-5.45069-7.87712-8.40842-1.87269-1.81483-3.552-3.59422-5.19173-5.46012-1.68723-1.92056-3.477-3.6926-5.22528-5.32969-1.15949-1.08694-1.99406-1.67705-4.17057-3.98191-.53451-.60444-1.74415-1.93734-2.73025-3.10437-1.0498-1.24186-2.10036-2.44659-3.46529-3.83886-3.50828-3.57706-6.56722-6.96754-9.38756-10.28356a57.54017,57.54017,0,0,0-4.38845-4.70151c-2.64958-2.46355-4.9927-5.3427-7.64718-7.8464a53.13758,53.13758,0,0,1-3.73783-3.947l-.93559-1.07185q-.66494-.73874-1.3329-1.48085c-.90166-.998-1.8365-2.021-2.81129-3.05386-.59633-.63893-1.20247-1.28841-1.80219-1.93055-.59257-.61688-1.15762-1.15064-1.7057-1.66725q-1.58489-1.491-3.1611-2.97319L159.98429.28309l-.19714-.18866L159.68877,0l-.0034.13778-.01244.553-.026,1.10258q-.05992,2.19611-.11949,4.38524l-.0671,2.189-.04184,2.29581c-.09348,4.91222-.187,9.8137-.2812,14.75419-.07954,8.15757-.55525,16.24314-.38675,24.46781.02111.97649-.10856,2.13316-.15041,3.2265-.26612,6.98884-.51189,13.99935-.55449,21.1122-.00867,1.48594-.00716,2.98884-.05051,4.4612q-.7096,22.21752-1.41959,44.4305-.691,21.6029-1.383,43.24481c-.426.409-.85417.82043-1.29445,1.24864-5.09824,4.965-10.299,9.8186-15.50055,14.70745-6.34105,5.95411-12.67946,11.931-19.12831,17.77808q-11.0614,9.99021-22.14241,19.99794-7.571,6.84645-15.14923,13.69948l-9.28427,8.47346c-4.09858,3.7906-8.22844,7.55181-12.2667,11.40348-3.29944,3.11738-6.48165,6.35142-9.72417,9.52514-3.12152,3.04463-6.31278,6.0246-9.32762,9.16459l-8.96915,9.51233-8.8798,9.59243-4.40692,4.82628-7.9804,8.8193-1.12482,1.2445c-.39881.415-.8455.8308-1.26542,1.246l-2.558,2.49163-5.11219,4.98026-.63856.62235-.31927.31117-.07992.07765c-.02978.026-.06446.05183-.017.07879l.15643.15982,1.2511,1.27843L3.93276,320.156,8.93224,325.266l.70339.71187.62649.70678,1.26014,1.40452,2.52029,2.78924c4.62479,5.22019,5.51025,5.98973,7.58573,8.3108,3.38916,3.738,6.71009,7.53673,10.06871,11.30265l7.20313,8.27027c2.30731,2.60228,4.91241,4.94634,6.97433,7.76554a4.39438,4.39438,0,0,0,1.15195,1.04547c1.64313,1.04774,2.76908,2.62621,4.13627,3.95685,1.48179,1.45144,2.68577,3.1545,4.46874,4.3532a17.19754,17.19754,0,0,1,6.33389,7.28078,6.5255,6.5255,0,0,0,1.23489,1.58621c.95029,1.02078,1.94242,2.00518,2.91382,3.00768q6.74268,6.93154,13.53551,13.81992c1.34383,1.36531,2.7261,2.69425,4.102,4.03a33.58124,33.58124,0,0,0,4.14607,3.94534c1.7743,1.20134,2.42454,2.86124,3.71634,4.2045.47835.49814,1.02983.9322,1.541,1.40357,2.1603,1.998,4.47666,3.89145,6.45979,6.00519,2.87688,3.04312,5.81257,6.01291,8.80593,8.94238a43.5358,43.5358,0,0,0,3.72388,3.65566,34.46344,34.46344,0,0,1,5.20191,4.94388,13.31113,13.31113,0,0,0,1.13537,1.0728c1.55266,1.394,3.11323,2.76983,4.63384,4.20054a60.93054,60.93054,0,0,0,4.59012,4.1832c1.65632,1.26787,2.77661,3.06517,4.373,4.42954.64082.55185,1.27673,1.283,1.89569,1.76412a85.9888,85.9888,0,0,1,6.77567,6.374q2.05136,2.0067,4.09556,4.00547,2.21873,2.18141,4.43255,4.35811.17811.17952.35584.359c.08594,11.79136.19488,23.58085.25369,35.37994.09461,18.96811.017,37.96223.16887,56.92959.0965,11.92216-.029,23.8202-.498,35.73351-.67512,17.13029-.70565,34.20951.05541,51.23388.3909,8.74655,1.87721,16.45819,4.75258,22.95228,3.02615,6.8569,8.10178,8.382,11.399-1.97748a66.94862,66.94862,0,0,0,2.96132-17.62617c.65024-15.179,1.4162-30.32787,1.83876-45.53364.51416-18.52784.80705-37.08809,1.34458-55.60028.61028-21.12633,1.02078-42.2849,1.39434-63.43725q.16284-9.27239.282-18.551c.16435-.20619.33925-.40918.49983-.61613.95067-1.22565,1.88286-2.32747,2.95152-3.52221a48.656,48.656,0,0,0,5.72134-7.04727,4.70044,4.70044,0,0,1,1.61259-1.63087,3.414,3.414,0,0,0,1.28314-1.23677,11.72371,11.72371,0,0,1,1.90812-2.32258,41.25512,41.25512,0,0,0,3.414-3.83584,13.84324,13.84324,0,0,1,1.03624-1.06771c.44857.49908-.827,2.19969-.53188,2.73364.91561-.48005,1.5568-1.68233,2.4-2.34538a10.86058,10.86058,0,0,0,2.75362-2.76644c-.233-.13174-.57937-.15247-.63479-.43179a3.32937,3.32937,0,0,1,.73166-1.141,28.98549,28.98549,0,0,1,2.52067-2.54177c1.55718-1.29369,2.66013-3.15695,4.2976-4.35961a9.481,9.481,0,0,0,1.21679-1.615,32.34375,32.34375,0,0,1,6.63583-6.14805,10.14712,10.14712,0,0,0,3.99152-3.679,7.37,7.37,0,0,1,2.47769-2.51935,6.18568,6.18568,0,0,0,2.21156-2.7031,5.16369,5.16369,0,0,1,1.3099-2.42567,16.27506,16.27506,0,0,1,1.68723-1.09976,5.82725,5.82725,0,0,0,1.96655-1.50044,17.46393,17.46393,0,0,1,5.09937-4.20808,5.03072,5.03072,0,0,0,2.20139-2.07586c.73844-1.59224,2.4841-2.37686,3.27795-3.9412.83344-1.66838,2.61076-2.11582,3.87693-3.26533a8.46649,8.46649,0,0,0,1.14857-1.0483c2.27715-3.0957,5.407-5.34345,7.93818-8.18,2.53348-2.8552,5.72888-5.102,7.82925-8.36734.24916-.38769.8078-.62291,1.19757-.96273a61.56885,61.56885,0,0,0,7.06253-6.9583,19.59888,19.59888,0,0,1,1.37624-1.56924c5.00213-4.84173,10.05966-9.626,15.00939-14.51935q7.826-7.70024,15.4523-15.59667c2.65146-2.76776,5.30217-5.53909,7.90878-8.34906l.97856-1.05264.48928-.5266.88847-.99571,3.76309-4.22862,1.89229-2.12769c.65024-.71093,1.216-1.42148,1.9771-2.13806l4.34548-4.31118q2.15144-2.17348,4.31042-4.35527l.13419-.13646.0671-.06823c.01206-.02261-.03506-.04429-.04976-.06653l-.268-.26556-.53489-.53112-1.06074-1.06243q-1.05339-1.06272-2.06907-2.129l-4.99233-5.20662c-1.53946-1.7464-3.00353-3.50242-4.5381-5.26579l-6.32521-7.31321c-3.02615-3.48735-6.16351-6.87876-9.29671-10.27056q-15.64191-16.8669-31.968-33.11861c-6.5725-6.49975-13.41715-12.74618-20.23391-19.0141q-9.89154-9.00015-19.77554-17.99351c-6.57023-6.02479-13.08392-12.11705-19.68544-18.11338-4.14909-3.76931-8.2062-7.60609-12.23654-11.4768-5.7892-5.5715-11.86638-10.85106-17.91152-16.12553q-1.13481-.985-2.21308-1.90209-.12609-5.65962-.25218-11.31848l-.41464-23.44194c-.13985-7.43269-.48137-14.858-.44819-22.303.00452-1.07035-.05428-2.27131-.14061-3.2985-.33247-3.9821-.29967-8.11121-.43688-12.1719-.14588-4.41559-.10819-8.85568-.429-13.27749a165.44566,165.44566,0,0,1-.26839-20.62725c.06635-1.25543.02488-2.85408-.00339-4.29252l-.21109-8.933-.47684-20.62537-.11686-5.1563-.05843-2.57815-.00263-.13438.00226-.01715.00414-.03449.0083-.06955.01658-.14173.03242-.2927a1.4699,1.4699,0,0,0,.01319-.15474l-.03053-.20958-.06031-.42841-.03053-.21882-.01508-.11082c.00791-.01018.03543.01979.052.02789.1847.13458.37016.22957.57786.40824l.3336.38223.17491.19884.08971.10159.02262.02563.01131.01282.0637.06238.27442.26669c2.92588,2.84767,5.99388,5.97013,8.74222,8.46818,3.26891,2.97715,5.64143,5.69571,8.47383,8.4874q1.5928,1.53456,3.18447,3.06818c4.49475,4.33964,9.05886,8.67644,13.45032,13.03794q9.54379,9.42195,19.04388,18.80074c2.65259,2.60831,5.43,5.44146,7.92235,7.7925,3.72653,3.5175,7.254,7.00806,10.89536,10.68162.76143.76823,1.58168,1.55662,2.37063,2.325,3.1645,3.08778,6.31655,6.16294,9.492,9.26109,3.15583,3.10041,6.33427,6.27659,9.41508,9.213,3.15318,3.01277,6.22419,6.27263,9.40489,9.36173,1.27334,1.25374,2.74872,2.70631,3.91877,3.85846,4.59012,4.41238,9.35062,9.20455,14.064,13.88928q4.33172,4.30881,8.64647,8.601l9.374,9.34571q6.6347,6.64544,13.27127,13.29314c.45007.44781.85228.84813,1.27635,1.27013.026-.003.11044.06389.38336.33058.27065.27291.73015.73637,1.51458,1.52722,2.1946,2.22136,4.02809,4.07727,6.12883,6.20346.99514,1.00268,1.659,1.672,1.884,1.8985-.965-.98685-1.72794-1.76676-3.15394-3.22461Q321.93058,169.14225,315.83718,162.91937ZM104.81129,411.26913c-.03317.0441-.30118-.06955-.38109-.171l-3.72578-4.79838c-.06445-.08406-.069-.3385-.01093-.35546.19225-.05542.50587-.15173.62875-.02865.58692.58823,1.12671,1.24356,2.13693,2.3925.28648.43858.94577,1.42,1.55077,2.41775C105.09363,410.86391,104.92061,411.12363,104.81129,411.26913Zm8.43463,13.05886a2.78685,2.78685,0,0,1-.68077-.31438,2.552,2.552,0,0,1-.37469-.429,10.08613,10.08613,0,0,0-2.117-2.7457c-.73166-.63214-1.01776-1.41-.73317-1.51854a.90323.90323,0,0,1,.628-.0262c.65552.23107,1.57226.6476,1.79617,1.37078a18.91994,18.91994,0,0,0,1.56962,3.4048C113.38124,424.15591,113.31226,424.34683,113.24592,424.328Zm7.41875,9.0941c-.21524-.25633-.41917-.5217-.62612-.78481.05768-.00679.14513-.042.16775-.016.21561.24916.42029.50869.62837.765C120.77587,433.39985,120.68163,433.44225,120.66467,433.42209Zm18.653,25.12539c-.30458-.34886-.60727-.69509-1.26467-1.44786.68077.61669.98874.87339,1.265,1.16383a2.8035,2.8035,0,0,1,.31325.52283A2.25488,2.25488,0,0,1,139.31765,458.54748Zm7.95665,6.46771a48.63638,48.63638,0,0,0-6.0474-6.76945,4.69981,4.69981,0,0,1-1.354-1.85139,3.41091,3.41091,0,0,0-1.017-1.46351,11.72944,11.72944,0,0,1-1.98954-2.25322,41.21354,41.21354,0,0,0-3.244-3.9804,13.92285,13.92285,0,0,1-.88922-1.193c.56392-.36357,2.04005,1.16647,2.61415.9599-.32833-.98026-1.41319-1.80446-1.93376-2.74269a10.86338,10.86338,0,0,0-2.29336-3.15827c-.167.20883-.24275.54771-.52735.55788a3.33191,3.33191,0,0,1-1.01023-.90373,28.97849,28.97849,0,0,1-2.10828-2.89271c-1.02982-1.743-2.69406-3.1285-3.6206-4.93635a9.50231,9.50231,0,0,0-1.40112-1.458,32.35017,32.35017,0,0,1-5.01456-7.5292,10.14865,10.14865,0,0,0-2.99751-4.52565,7.37467,7.37467,0,0,1-2.0932-2.84673,6.18248,6.18248,0,0,0-2.31711-2.6132,5.16932,5.16932,0,0,1-2.18631-1.67913,16.32538,16.32538,0,0,1-.8176-1.84064,5.82439,5.82439,0,0,0-1.16855-2.18009,17.46028,17.46028,0,0,1-3.34354-5.70381,5.03051,5.03051,0,0,0-1.69929-2.50352c-1.45465-.98214-1.95185-2.83032-3.36993-3.863-1.51458-1.08825-1.67366-2.914-2.607-4.347a8.4573,8.4573,0,0,0-.85266-1.30048c-2.69406-2.74061-4.41559-6.188-6.81337-9.1382-2.41587-2.9551-4.12609-6.46714-7.01579-9.06018a6.30235,6.30235,0,0,1-.75993-1.33553,61.5429,61.5429,0,0,0-5.747-8.07916,19.64068,19.64068,0,0,1-1.33025-1.60826c-3.98436-5.70834-7.90351-11.46248-11.9478-17.12728q-6.35708-8.95123-12.94069-17.73605c-2.3107-3.05763-4.62517-6.11544-6.98487-9.13575l-.88395-1.13368-.44179-.56674c-.04825-.06484-.05654-.06729-.05993-.062l-.02262-.0032-.04486-.00566a3.36828,3.36828,0,0,0-.34566-.02412l-.164.00207c-.04373-.006-.13269.02884-.11723-.02356a1.26785,1.26785,0,0,1-.01923-.18772.35934.35934,0,0,0-.06521-.15436.43636.43636,0,0,1,.23748-.12911,3.32751,3.32751,0,0,1,.3728-.075,3.6279,3.6279,0,0,1,.59031.28007l.26951.16417.12779.085c-.00678.03336.0637-.05.10969-.09631l.14927-.15663.29817-.31362,2.36989-2.524c3.15243-3.3737,6.19743-6.84824,9.24318-10.31881Q67.1902,286.216,81.647,268.28116c5.7775-7.21557,11.27494-14.67522,16.7965-22.10942q7.91764-10.77756,15.82925-21.547c5.30519-7.16374,10.68389-14.27829,15.95779-21.46993,3.31527-4.52019,6.70707-8.95614,10.13542-13.3689,4.93654-6.33916,9.55229-12.93484,14.16615-19.49772.19036-.27235.37507-.539.5609-.80705-.0049.14437-.00942.28817-.01394.43255q-.73732,24.536-1.475,49.10543c-.12665,4.09311-.164,8.21581-.34114,12.28592-.86359,19.686-1.33628,39.44477-1.75545,59.18394q-1.05113,49.1662-1.82708,98.33337c-.28271,19.72559-.20129,39.43817-.15756,59.14473q.01922,9.904.09914,19.801C148.82206,466.88222,148.06891,465.99488,147.2743,465.01519Zm35.16376-9.12388a2.798,2.798,0,0,1-.46629.3924,2.2678,2.2678,0,0,1,.18584-.34773c.2959-.35622.58992-.7098,1.22848-1.47878C182.8855,455.2275,182.68119,455.57222,182.43806,455.89131Zm21.62146-22.20423c-.02262-.05579-.07954-.1423-.06257-.16209.219-.25331.44857-.497.67549-.74315.01583.05579.06446.13683.04222.16322C204.50319,433.19761,204.27966,433.44094,204.05952,433.68708Zm12.18452-12.969c-.12364.68378-.389,1.65518-1.06752,1.99123a18.9238,18.9238,0,0,0-3.1121,2.09094c-.07727.06032-.27668.02224-.26876-.04617a2.79269,2.79269,0,0,1,.202-.722,2.55824,2.55824,0,0,1,.36414-.438,10.09483,10.09483,0,0,0,2.374-2.52651c.50737-.82307,1.23036-1.22923,1.38265-.96537A.90363.90363,0,0,1,216.244,420.71813Zm11.83321-10.66391c-.4874.673-1.04868,1.31009-2.022,2.49013-.3875.35264-1.25147,1.1595-2.14032,1.91585-.12289.10441-.40711-.02507-.56806-.11007-.04863-.02564.02073-.30835.10818-.40353L227.6,409.50538c.07275-.0769.323-.12194.34906-.06728C228.03428,409.619,228.1794,409.91324,228.07725,410.05422Zm57.03438-93.45771.00678.00735.01584.01734c.00716.01187-.00377.02318-.0083.03826l.0034.00452-.03393-.03091-.01621-.01583.02149-.01734C285.11728,316.58746,285.10711,316.59839,285.11163,316.59651ZM182.60316,185.50469c5.25921,6.92834,10.5414,13.85649,15.68262,20.88095q8.77992,12.0441,17.57528,24.11008,6.01837,8.245,12.042,16.49777l7.45719,10.11846c3.34166,4.47213,6.65091,8.97254,10.05966,13.39076,2.75551,3.607,5.63955,7.10984,8.45687,10.666,2.702,3.42251,5.33233,6.908,8.14023,10.23418l8.52321,9.91359,8.61255,9.83349,4.33907,4.88677.5428.61085.256.28818c-.77651.94859-2.057,2.6803-3.00919,3.82717-3.15167,3.94063-6.37384,7.8234-9.55793,11.73822l-7.01956,8.42671c-2.20214,2.69179-4.102,5.63653-6.55742,8.12025a4.40919,4.40919,0,0,0-.84927,1.30387c-.77275,1.78862-2.15238,3.1513-3.24855,4.71281-1.19719,1.69383-2.68728,3.15337-3.58705,5.10409a17.19839,17.19839,0,0,1-6.18085,7.4114,6.52594,6.52594,0,0,0-1.36983,1.471c-.85643,1.1007-1.67065,2.23663-2.506,3.35523q-5.77072,7.75905-11.49131,15.56105c-1.13424,1.54361-2.22664,3.11983-3.32658,4.69039a33.58974,33.58974,0,0,0-3.23574,4.72073c-.90392,1.9428-2.43924,2.8488-3.55991,4.33794-.41578.55147-.75654,1.165-1.14065,1.74452-1.62918,2.45055-3.13019,5.0385-4.90148,7.33261-2.547,3.32432-5.01192,6.69482-7.42817,10.11583a43.52657,43.52657,0,0,0-3.01711,4.25783,34.4591,34.4591,0,0,1-4.05334,5.92188,13.28122,13.28122,0,0,0-.87867,1.29162c-1.12971,1.75433-2.23983,3.5143-3.41026,5.24281a60.93242,60.93242,0,0,0-3.40009,5.197c-.98836,1.83688-2.58474,3.229-3.67752,5.02173-.44329.72035-1.06375,1.46445-1.44032,2.15219a86.04908,86.04908,0,0,1-5.21548,7.703q-1.655,2.34453-3.30321,4.6804-1.65669,2.33408-3.30924,4.66324.15322-11.47982.27668-22.96189.10913-13.36466.21825-26.73912c.06446-11.88391.13118-23.76574.10291-35.65963-.023-9.67121-.16887-19.36033-.24653-29.03927-.07463-9.30142-.03392-18.6-.222-27.89974l-2.34236-111.755c-.055-2.60227-.176-5.203-.26048-7.8055-.1945-5.95-.41464-11.89728-.56127-17.85158q-.20073-9.0123-.40146-18.02838C174.37887,174.64911,178.47669,180.0736,182.60316,185.50469Zm15.52807-144.0519q-4.494-4.68172-8.98347-9.3591c-.156-.163-.40559-.50738-.35357-.48419a2.201,2.201,0,0,1,.7113.4578c1.2413,1.26354,2.51237,2.558,4.80347,4.89074.75654.814,2.46563,2.65391,4.14268,4.45875a.99975.99975,0,0,1,.29063.56674A4.3541,4.3541,0,0,1,198.13123,41.45279Zm23.101,24.61142c-.30722-.25256-.69208-.59143-1.09617-.96311-.19978-.18376-.50662-.51415-.853-.8683-1.57527-1.70909-3.18975-3.44287-5.13405-5.33233a12.2895,12.2895,0,0,1-2.32955-2.59963,2.61325,2.61325,0,0,1,.70565.468,31.09452,31.09452,0,0,1,3.42006,3.25722c1.55831,1.83989,3.31,3.7678,5.13783,5.76809C221.22166,65.94585,221.32759,66.14262,221.23222,66.06421Zm17.47991,17.98785-1.49272-1.541a.90962.90962,0,0,1,.17754.11535l1.47539,1.51666A.70349.70349,0,0,1,238.71213,84.05206Zm46.2457,48.1231c-.69471-.70546-1.38416-1.40545-2.88328-2.928,1.38717,1.36738,1.98841,1.96051,2.59793,2.56137.2944.29572.58616.624.87943.93729C285.35325,132.55532,285.14706,132.35723,284.95783,132.17516Z"/><path class="cls-1" d="M286.73553,132.83671c1.27861,1.31084,2.57947,2.64449,3.85318,3.95081.34868.35565.94916.93333.913.87961-.06257-.09329-.48815-.57673-.83645-.93917q-4.94689-5.14281-9.916-10.309a19.65727,19.65727,0,0,0-3.376-3.10324C281.46728,127.383,281.51779,127.4469,286.73553,132.83671Z"/><path class="cls-1" d="M334.61078,182.08143c-.29175-.297-.79649-.81082-1.14818-1.16893-.57372-.58314-1.12294-1.141-1.67517-1.70211.49494.50417.98949,1.0074,1.50441,1.53192C334.23082,181.696,335.12117,182.59973,334.61078,182.08143Z"/><path class="cls-1" d="M252.70036,97.31617l-.5952-.64534-.63554-.63761c.259.28554.50662.55845.78292.86284C252.357,97.00783,252.54845,97.17444,252.70036,97.31617Z"/></g></g></svg>