<svg xmlns="http://www.w3.org/2000/svg" viewBox="0 0 251.61913 708.18232"><defs><style>.cls-1{fill:#24373e;}</style></defs><g id="Слой_2" data-name="Слой 2"><g id="Слой_1-2" data-name="Слой 1"><path class="cls-1" d="M251.346,306.42773l-.61523-.74658-2.46329-2.98909-4.95234-5.99574-5.069-6.04685-2.34592-2.80783-1.267-1.55942c-6.48411-8.00072-12.886-16.0677-19.48956-23.963l-19.93831-23.63244L175.166,215.14134l-20.12535-23.47115-15.63522-18.131-1.34533-1.58417q-.09223-7.67793-.1595-15.35986c-.1052-14.03478-.01856-28.08913-.18754-42.12351-.1074-8.82115.03214-17.62473.55394-26.43989q.464-7.836.54386-15.65209,9.91585,11.4645,20.2578,22.57886c5.79742,6.19017,11.91194,12.11485,17.99471,18.06229,5.847,5.72825,11.80435,11.3539,17.67434,17.06459,5.86539,5.71588,11.66251,11.50163,17.56414,17.188,3.709,3.57437,7.31382,7.22021,10.8859,10.90118,5.13479,5.29388,10.58767,10.30151,16.03356,15.28439,2.80275,2.55592,5.36016,4.73935,7.3814,6.68563,2.16946,2.02613,2.31378,2.75194-.25841-.88271-1.346-1.90716-2.69824-4.00116-4.263-6.27681-3.69614-5.38491-7.27291-10.85047-10.86883-16.3316-4.38313-6.67724-8.79011-13.35289-13.03819-20.13153q-7.24705-11.6238-14.507-23.26915-4.969-7.95639-9.9427-15.92118c-2.03291-3.27214-4.10915-6.51076-6.17161-9.76214-2.7749-4.31216-5.51227-8.65427-8.364-12.91014-2.3001-3.47536-4.74773-6.84093-7.119-10.26279-2.27226-3.29371-4.46158-6.65369-6.8569-9.84639l-6.95192-9.06188L151.218,36.50066,139.20421,21.582l-1.877-2.32435c-.1566-.202-.31221-.3685-.46961-.60006l-.47209-.69188-.9439-1.38375-3.77409-5.53183L124.12772,0l-2.9853,4.40438c-1.47438,2.17545-2.92531,4.52416-4.37334,6.7547l-4.93128,7.62263-.306.4719-.30422.404-.60784.79608-1.21507,1.58338-2.43445,3.13L102.55354,30.766l-2.206,2.78587L99.282,34.93405,95.0365,40.42277,88.79961,48.3097c-1.95077,2.522-3.55959,5.31824-5.79652,7.61465a3.38066,3.38066,0,0,0-.72042,1.23763c-.58389,1.72631-1.84448,2.9839-2.78917,4.46028-1.033,1.60054-2.39613,2.94677-3.0918,4.82518a13.119,13.119,0,0,1-5.4926,6.936,4.95,4.95,0,0,0-1.23764,1.36619c-.75236,1.03442-1.45671,2.10717-2.185,3.16116q-5.0283,7.312-9.999,14.67077c-.986,1.45562-1.92472,2.94717-2.87211,4.43193a25.58664,25.58664,0,0,0-2.7749,4.46906c-.70056,1.87-2.17674,2.66132-3.15527,4.06344-.36331.51941-.64158,1.10589-.96865,1.65564-1.38815,2.32356-2.62778,4.79324-4.18161,6.95032-2.23114,3.12762-4.37215,6.30675-6.45676,9.54017a33.09959,33.09959,0,0,0-2.60443,4.02351,26.27727,26.27727,0,0,1-3.47536,5.60649,10.14009,10.14009,0,0,0-.75236,1.22286c-.95577,1.66642-1.891,3.33922-2.89257,4.97649A46.58747,46.58747,0,0,0,24.466,144.4532c-.80027,1.75824-2.28134,3.02941-3.195,4.73655-.37119.68549-.92274,1.38176-1.22905,2.03971a65.61508,65.61508,0,0,1-4.46148,7.29685q-1.42737,2.21577-2.84936,4.42355-1.55656,2.396-3.10995,4.78765-2.23029,3.37635-4.5028,6.72076c-.15391.22637-.27288.44276-.40962.66234.13534.12775.06657.29064-.5241,1.04161-.81743,1.06117-1.44005,1.997-2.21936,3.01544-.37248.49785-.60135.84558-.66083.95218.37738-.46152.677-.82722,1.23045-1.50393,1.56021-1.97942,3.12113-3.93368,4.72706-5.84244,1.12366-1.337,2.24112-2.70283,3.25229-4.097.8347-1.1522,1.66522-2.18183,2.62508-3.2949,1.7829-2.0944,3.80084-4.15766,5.062-6.60618a3.59353,3.59353,0,0,1,1.4692-1.50832,2.61982,2.61982,0,0,0,1.17645-1.139,8.87681,8.87681,0,0,1,1.69157-2.17545,31.13412,31.13412,0,0,0,3.06454-3.57437,10.556,10.556,0,0,1,.942-.98851c.5226.53019-.59077,2.13193-.22208,2.68527.88751-.41161,1.40532-1.563,2.19661-2.16227a8.27432,8.27432,0,0,0,2.5107-2.55671c-.25581-.14812-.616-.194-.70645-.47629a2.56463,2.56463,0,0,1,.61862-1.08393A22.05184,22.05184,0,0,1,33.24,143.45631c1.45232-1.17576,2.36788-2.95236,3.914-4.0315.39365-.27068.69407-1.00847,1.06257-1.52109a24.73557,24.73557,0,0,1,6.11342-5.644,7.81109,7.81109,0,0,0,3.67927-3.376A5.62984,5.62984,0,0,1,50.265,126.5538,4.71939,4.71939,0,0,0,52.2242,124.021c.25641-.66952.08713-1.3626,1.062-2.322a12.97128,12.97128,0,0,1,1.60982-.97334,4.56339,4.56339,0,0,0,1.85007-1.35222,13.53525,13.53525,0,0,1,4.7595-3.8223,3.8725,3.8725,0,0,0,2.02384-1.90875c.57151-1.53267,2.27934-2.18782,2.91163-3.689.66074-1.60174,2.44134-1.91834,3.61081-2.97152a6.4751,6.4751,0,0,0,1.05987-.96137c1.98-2.91922,4.94126-4.93138,7.21452-7.57393,2.273-2.66091,5.30226-4.66748,7.07957-7.76875.2108-.3681.75915-.56173,1.12086-.87194a46.82528,46.82528,0,0,0,6.45656-6.42053,14.77546,14.77546,0,0,1,1.23285-1.4636c4.58334-4.46108,9.231-8.86067,13.75382-13.37684q4.108-4.07762,8.13495-8.23028c-.4665,7.001-.91125,14.00325-1.20419,21.02184-.57221,13.709-.89779,27.442-1.49595,41.13939-.6787,15.63214-1.13523,31.28782-1.55073,46.93872-.03813,1.44244-.06388,2.88569-.099,4.32813l-3.74465,4.48743L101.681,185.7507l-3.49,4.23311-6.30964,7.60427q-11.54625,13.67307-23.09727,27.35214l-16.84132,19.7323c-5.31375,6.2788-10.29034,12.83787-15.889,18.88911a21.58816,21.58816,0,0,0-2.21636,2.90884c-2.39672,3.752-5.52135,7.09125-8.30623,10.6237-3.034,3.83587-6.40127,7.42063-9.1088,11.54714l-.19752.29943-.09911.14931-.19852.2643-.80267,1.062-1.60633,2.10278q-1.61273,2.06246-3.22893,4.13011c-2.17055,2.72639-4.277,5.37134-6.51575,8.02547l-1.68538,1.9878-.1065.12416.09492.12576.19084.25232.38037.50424.75556,1.00967q1.504,2.02113,2.95715,4.06423c.98771,1.3638,1.88569,2.744,2.91,4.1361q1.60254,2.084,3.188,4.23551c.77951,1.058,1.74556,2.23493,2.76741,3.43344.47569.54975.95887,1.10788,1.43925,1.66282.27437.30661.54725.61163.81274.90826,2.19761,2.45691,4.441,4.87309,6.66178,7.30964l30.851,33.678c3.05856,3.33124,6.158,6.61935,9.25043,9.91586,3.089,3.30129,6.18967,7.02378,9.27009,9.7873,3.6628,3.2941,5.76728,6.74072,8.72692,9.99969,1.09641,1.20849,2.27276,2.34352,3.40629,3.52247,4.79394,4.99366,9.77872,9.8911,14.35468,14.98856q7.0078,7.77973,14.109,15.42214-13.90514,17.51293-27.80727,35.02268Q74.028,482.31827,61.55287,497.64758c-11.94657,14.733-23.51686,29.718-35.06939,44.63831C20.5604,549.96162,15.422,556.80255,10.96613,562.451c-4.67058,5.99415-6.03857,7.04175,1.704-1.41809,4.09528-4.408,8.44756-9.09223,13.284-14.29788,11.41309-12.33643,22.91222-24.55309,34.45627-36.81446,14.05874-14.947,28.12636-29.93321,42.30087-44.75649q6.98176-7.28748,13.9762-14.58853c.02765.404.06657.80367.11309,1.17256.36979,2.94637.33346,6.00174.48587,9.00639.16219,3.267.12027,6.55268.47728,9.82443a81.5697,81.5697,0,0,1,.29843,15.26244c-.07385.929-.02734,2.11157.0037,3.17593l.23485,6.60978,1.0471,30.52168q.16782,4.53275.33546,9.05909c.11069,3.02023.12027,6.25884.36171,9.0024.28266,3.26616.05369,5.93147.13334,8.87385.02845,1.09031.09811,2.17863.14423,3.27055.19722,4.62117.45143,9.27627.54925,13.85552.17127,6.61457.34174,13.20078.51262,19.79778.07935,2.75194.08314,5.68793.23555,8.22109.22567,3.78836.3144,7.46015.35113,11.28723.00768.80048.04611,1.64167.07555,2.45611.11358,3.27095.22687,6.52833.34085,9.81006.09682,3.27295.15221,6.59739.31709,9.74458.16269,3.225.068,6.53831.19324,9.818.0481,1.32188.05619,2.85415.11328,4.06823.21639,4.709.27248,9.70705.37478,14.62366q.09118,4.52016.182,9.02316.09072,4.90162.18125,9.79329.10421,6.94793.2083,13.89784c.00928.46951.01757.8899.02635,1.33226a8.46077,8.46077,0,0,1,.06358,1.96464c.01637,2.31119.03014,4.2411.04581,6.45248.011,1.0428.01817,1.73069.02076,1.97742.0004-1.02085.0008-1.82971.0013-3.336-.0017-4.34769-.00339-8.66225-.00509-12.96563-.00549-3.013-.01108-6.05642-.01657-9.024-.02146-2.45052-.02335-4.733-.01208-7.26772.01527-4.74413.09253-9.70186-.07076-14.353a35.62825,35.62825,0,0,1,.0536-3.61748,25.539,25.539,0,0,0,.05639-2.805c-.0541-1.59536-.04781-3.08571-.01777-4.75332.04741-2.647.06019-5.36974.03723-8.11969-.00639-.74537.02026-1.53866.033-2.34871.22726.14093.26908,3.49692.46082,3.83707.13284-1.5171.03773-3.62228.11278-5.2855.09153-1.98781.18255-3.97321.11638-6.15464-.09172.07984-.18884.41041-.26619.13095-.03923-.14253-.06817-1.39773-.06128-2.12435.01866-1.89717.03313-3.88976.1026-5.64561.12925-3.15437.0012-6.52912.17616-9.65635.04572-.79049-.02784-2.10558-.03842-3.1927-.03494-3.53524.14931-11.08642.43307-14.20845a63.71672,63.71672,0,0,0,.27967-8.52292,45.68023,45.68023,0,0,1,.12066-5.57455,37.79989,37.79989,0,0,0-.00738-5.52264,29.35721,29.35721,0,0,1-.21769-4.26386c.04542-.59646.12087-1.92712.24474-3.055a32.99881,32.99881,0,0,0,.23185-3.8231,95.98372,95.98372,0,0,1,.53768-10.29672,28.35982,28.35982,0,0,0,.16907-4.75731c-.18973-2.67409.18745-5.40927.02506-8.10691-.18036-2.86373.305-5.22522.42309-7.9077.03483-.81684.11488-1.66042.10609-2.44013-.07635-6.06322.38846-11.97912.49037-17.99043.08853-6.03607.61752-12.01864.43018-18.10421-.02336-.72262.12077-1.57858.16748-2.38744.29583-5.17132.56941-10.35821.61642-15.62135.00978-1.0995.008-2.21138.05619-3.30089q.55843-11.6256,1.11687-23.24878c3.521,3.43942,6.79182,6.97866,10.063,10.74267.7844.90387,1.68259,1.791,2.534,2.66611,3.41917,3.51209,6.84073,6.99583,10.23,10.555,3.38334,3.54682,6.71557,7.239,10.14791,10.49674,3.5106,3.34362,6.47264,7.3312,9.9449,10.81534,1.39663,1.40651,2.897,3.1388,4.21385,4.402,5.09517,4.90822,10.07825,10.48237,15.104,15.8593q4.62287,4.94115,9.228,9.864,5.00255,5.36814,9.99471,10.72431,7.04583,7.64679,14.094,15.296c.484.51022.91675.96655,1.37277,1.44763.16389-.09422.48647.20641,2.10279,2.06765,2.29851,2.58107,4.21884,4.73735,6.41873,7.20783,1.05858,1.19611,1.78439,1.979,2.00617,2.20459-.999-1.16777-1.78419-2.08562-3.25748-3.80793-4.26185-4.91141-8.4794-9.79648-12.63675-14.7091-2.91184-3.43863-5.87138-6.89921-8.83133-10.2053-2.44593-2.73118-4.67267-5.31863-7.10742-8.22428-4.57186-5.42683-9.19812-11.22735-14.15595-16.13917a23.21362,23.21362,0,0,1-3.37875-4.22991,16.70878,16.70878,0,0,0-2.58346-3.31128,58.76116,58.76116,0,0,1-4.67347-5.35776c-2.45541-3.10886-5.0762-6.22571-7.81168-9.29864-.74118-.8324-1.44783-1.79017-2.20478-2.73637.69856-.32178,4.07711,3.39312,4.89045,3.36557-1.1515-2.00177-3.44711-4.18-4.88766-6.22211a53.8891,53.8891,0,0,0-5.73744-7.20623c-.14372.28106-.056.85716-.51671.70106a16.16294,16.16294,0,0,1-2.22285-2.27885c-1.80785-2.18782-3.717-4.47584-5.26814-6.605-2.77889-3.83227-6.376-7.39666-9.02685-11.28523a47.46341,47.46341,0,0,0-3.21067-3.53645,159.48234,159.48234,0,0,1-12.93468-16.9017c-.04032-.06668-.08175-.13215-.12217-.19882q9.78111-10.2099,19.55723-20.4142,16.63023-17.36922,33.27673-34.7556,10.21617-10.71651,20.43944-21.44063c9.05271-9.55574,18.14014-19.07915,27.12827-28.70595l2.74-2.93759,5.30616-5.90552,2.6678-2.97431.66752-.74458.59856-.74937,1.19232-1.50033,4.77478-6.01331,1.19512-1.50633.29883-.37648C251.58519,306.67645,251.43318,306.55229,251.346,306.42773ZM17.64507,156.887a2.15377,2.15377,0,0,1-.43417.35691,1.74676,1.74676,0,0,1,.15021-.333c.25481-.34015.5204-.66713,1.09081-1.38416C18.02753,156.25785,17.85766,156.58682,17.64507,156.887ZM37.304,136.33312c-.03014-.05749-.09911-.14772-.08384-.16609.19563-.23674.40333-.46271.60814-.69147.02306.05669.083.14093.06338.16568C37.70334,135.87759,37.50173,136.10356,37.304,136.33312Zm10.16059-10.13105a15.05394,15.05394,0,0,0-2.96164,1.85765c-.07276.0543-.28316.002-.283-.06547a2.382,2.382,0,0,1,.12227-.705,1.92219,1.92219,0,0,1,.32318-.41,7.6628,7.6628,0,0,0,2.1479-2.34512c.42558-.7833,1.12275-1.13543,1.31159-.86115a1.00137,1.00137,0,0,1,.20331.62281C48.28233,124.968,48.12453,125.91662,47.46459,126.20207Zm11.80085-11.67249c-.42239.63558-.92543,1.22925-1.78908,2.33473-.35771.323-1.153,1.06437-1.97982,1.75306-.11438.09541-.423-.0543-.59925-.15052-.0534-.02914-.01547-.30621.06338-.39444q1.85839-2.07564,3.74654-4.12412c.06587-.07147.319-.09822.35223-.04192C59.16923,114.09281,59.354,114.39663,59.26544,114.52958Zm129.078,394.25991a13.63414,13.63414,0,0,1,.841,1.1522c-.22268-.21-.4714-.41321-.66414-.6308-.71812-.82762-1.43066-1.64845-2.9805-3.43464C187.04271,507.42649,187.70844,508.08683,188.34342,508.78949Zm-47.38975-58.808,1.50941,1.79058c-.08783-.01118-.21628.00878-.25641-.03833l-1.5185-1.82571C140.7784,449.93074,140.90047,449.92,140.95367,449.98145Zm-25.16941-30.7736.044,1.656c-.875-1.08952-1.31109-1.95267-1.01945-1.97063A1.61707,1.61707,0,0,1,115.78426,419.20785Zm-13.43982-17.877c-.02685.06069-.53788-.3122-.7325-.54775q-4.55865-5.55079-9.11309-11.096c-.158-.19363-.32468-.66393-.23984-.65914a1.43984,1.43984,0,0,1,1.01376.33256c1.33125,1.44,2.62638,2.97472,5.00244,5.7039.74428.98093,2.43924,3.18751,4.05625,5.3909A.8748.8748,0,0,1,102.34444,401.3308Zm6.51884,6.39019c-.49056-.75416-1.63967-2.391-2.49184-3.88178a27.50563,27.50563,0,0,0-3.28013-4.71978A84.09068,84.09068,0,0,1,94.0397,386.595a24.51661,24.51661,0,0,0-4.35348-5.64c-3.001-2.69485-4.9716-6.39418-7.94442-9.1597-3.16595-2.9272-4.56787-6.37781-6.99514-9.58169-.73968-.97494-1.42437-2.05008-2.21177-2.91084-6.13438-6.68483-11.11376-14.07111-16.89252-20.95915-5.8118-6.908-10.813-14.40648-17.17609-20.94a30.24585,30.24585,0,0,1-2.08182-2.91843l-1.73828-2.33154-.79348-1.05239-.34115-.41122-.67122-.7833a4.847,4.847,0,0,1-.61542-.76773l-.52749-.7885-.27069-.38526-.13813-.19163-.06987-.09542c-.02056-.03154-.06647-.06388-.013-.09422.48427-.49186.93221-.97933,1.3572-1.48716a11.2771,11.2771,0,0,1,1.061-1.26359l.41171-.39524,1.05738-1.11707,2.11576-2.23333,4.23111-4.46507,8.45894-8.93213q8.46857-8.92475,16.88584-17.90739,17.70921-18.88971,35.21322-38.01856,4.47988-4.91481,8.95479-9.8388c-.07027,8.596-.14083,17.19076-.11029,25.79432.02575,7.15592.18784,14.325.27457,21.48654.08265,6.88245.03743,13.76251.24693,20.64376l2.60542,82.69c.06109,1.92552.19553,3.84984.28975,5.77537.216,4.40278.46092,8.80318.62441,13.20876q.38011,11.3555.76025,22.7162c-.69827-.73061-1.41241-1.43566-2.14261-2.0956A24.13624,24.13624,0,0,1,108.86328,407.721ZM123.5089,656.54638c-.00978-.20361-.02655-.41481-.02825-.60924-.00329-.7326-.00669-1.45961-.01387-3.04059.03872,1.44085.05549,2.066.07246,2.69884C123.54313,655.9044,123.51958,656.229,123.5089,656.54638Zm.70405-49.85994c-.01966-.04391-.05649-.08983-.05639-.13095l.01208-1.58776a.48638.48638,0,0,1,.0513.1529Zm.53658-24.619c-.19253,1.7794-.30013,3.70532-.40333,5.70909-.00779.15211-.07646.311-.09123.22-.04771-.29224-.09023-.67072-.12216-1.07674-.01577-.20042-.0028-.53378-.0027-.90068.07735-1.71872.14283-3.47137.067-5.47674a6.13794,6.13794,0,0,1,.17068-2.58027,1.41658,1.41658,0,0,1,.19682.61283A15.37038,15.37038,0,0,1,124.74953,582.06748Zm.74677-23.3961c-.03214.82163-.1046,2.67928-.17576,4.5018a.60245.60245,0,0,1-.2098.44994,2.16837,2.16837,0,0,1-.07286-.59686q.06992-4.80162.13973-9.59846c.00279-.16688.07236-.47829.09562-.43876a1.204,1.204,0,0,1,.2094.61C125.50588,554.90937,125.4951,556.252,125.4963,558.67138Zm86.54185-249.70291-2.16566,2.62259-4.329,5.24678c-13.8676,16.869-27.41372,33.99784-40.98469,51.096q-16.33993,20.69167-32.66729,41.36736.11753-2.44632.23505-4.89025.81984-18.15492,1.64057-36.33418c.14083-3.02862.18225-6.07919.37947-9.09063.96077-14.56617,1.48646-29.18624,1.95247-43.79153.77941-24.25286,1.514-48.51092,2.03232-72.759.14552-6.75589.199-13.50939.21539-20.26128,2.11645,2.52317,4.22413,5.05274,6.35755,7.56394,7.05981,8.33168,14.24838,16.562,21.43056,24.79064q17.90832,20.47967,36.00151,40.80364l9.06069,10.14861,1.94478,2.16666a.11711.11711,0,0,0-.02056.00958Zm1.41031-1.19931-.04372-.02235a.45289.45289,0,0,1,.09472.04391l.02944.02076Z"/><path class="cls-1" d="M182.392,497.60166c4.397,4.64153,4.43383,4.72817,9.731,11.12155,1.29313,1.56062,2.63547,3.12523,3.95554,4.65311a5.46931,5.46931,0,0,0,1.02574.96775,4.73562,4.73562,0,0,0-.7315-1.20409q-4.97769-6.13349-9.97813-12.29491C184.40884,498.4217,184.14694,498.22328,182.392,497.60166Z"/><path class="cls-1" d="M240.93434,566.98869c-.30272-.34694-.82652-.94779-1.19152-1.36659-.61014-.69427-1.19312-1.35781-1.7804-2.02613.52539.60365,1.04919,1.2053,1.59555,1.8329C240.5369,566.54075,241.46652,567.59274,240.93434,566.98869Z"/><path class="cls-1" d="M237.96242,563.596c-.16648-.19123-.33277-.38207-.50054-.5749l-.00769-.008.14921.17446C237.72367,563.32449,237.84285,563.45983,237.96242,563.596Z"/><path class="cls-1" d="M157.473,465.83a4.30048,4.30048,0,0,0,.51422.45353l-.56741-.79249-.67412-.73419C156.98394,465.11414,157.19933,465.46586,157.473,465.83Z"/><path class="cls-1" d="M124.37943,657.20711c-.00349,1.35462-.00708,2.73318-.01058,4.0834a8.45684,8.45684,0,0,0,.04143.93741,7.17406,7.17406,0,0,0,.06567-.92942q.06856-5.27952.13744-10.58338a9.79524,9.79524,0,0,0-.26939-3.38833C124.43423,651.59624,124.42475,651.65652,124.37943,657.20711Z"/><path class="cls-1" d="M124.12662,708.02522c-.0008-.30861-.0023-.84119-.0033-1.21208-.00259-.60245-.00519-1.17935-.00758-1.759.0013.5202.00269,1.03921.00419,1.58058C124.12442,707.62478,124.129,708.56339,124.12662,708.02522Z"/><path class="cls-1" d="M124.11574,705.0541c-.0006-.18445-.001-.3681-.0015-.55414l-.0003-.022v.16808Z"/><path class="cls-1" d="M124.92789,620.35473c-.0038.11338.01886.30062.02934.45393l.029-.64916-.00919-.66593C124.96082,619.77863,124.94525,620.05131,124.92789,620.35473Z"/><path class="cls-1" d="M22.29488,157.02039c.82013-.89748.84469-1.038.51931-2.10837a22.86793,22.86793,0,0,1-3.49832,4.53653c-.5221.58768-1.02554,1.20809-1.51281,1.82012-.13264.16768-.28016.50783-.22706.51582a.913.913,0,0,0,.51721-.27388Q20.18936,159.2703,22.29488,157.02039Z"/><path class="cls-1" d="M.05517,181.75194c.11109-.14293.30023-.38567.43178-.55454.22018-.289.43008-.56412.64257-.84279-.19443.24872-.38676.495-.58857.75336C.19381,181.56549-.13327,182.00066.05517,181.75194Z"/><path class="cls-1" d="M1.12952,180.35461c.05729-.07306.11568-.14812.17337-.222l.0016-.00279-.0557.06827C1.20917,180.25,1.169,180.30311,1.12952,180.35461Z"/><path class="cls-1" d="M34.04663,143.89507c-.04991.04391-.06228.17367-.092.26389l.30342-.23794.21729-.321A3.69364,3.69364,0,0,0,34.04663,143.89507Z"/></g></g></svg>