<svg xmlns="http://www.w3.org/2000/svg" viewBox="0 0 384.60044 631.97382"><defs><style>.cls-1{fill:#24373e;}</style></defs><g id="Слой_2" data-name="Слой 2"><g id="Слой_1-2" data-name="Слой 1"><path class="cls-1" d="M378.25512,150.60914c-4.39938-2.72987-8.59521-5.69948-12.68889-8.79989a59.87183,59.87183,0,0,0-9.0826-5.73944,47.65646,47.65646,0,0,1-7.274-4.68473c-4.52453-3.402-9.09165-7.20313-14.60077-8.89262a5.65537,5.65537,0,0,1-3.28662-2.84334,4.19607,4.19607,0,0,0-2.50333-2.27451,14.622,14.622,0,0,1-4.81742-2.973,54.183,54.183,0,0,0-7.93328-5.531,20.80163,20.80163,0,0,1-2.21458-1.72228c1.01437-1.24733,4.58032.599,5.7221-.40974-1.02267-1.73774-3.5716-2.41738-4.98931-3.86826a16.55863,16.55863,0,0,0-5.90906-4.35226c-.239.54017-.24351,1.26768-.801,1.51232a5.38735,5.38735,0,0,1-2.37026-.99515,50.10734,50.10734,0,0,1-5.39-4.03826c-2.803-2.57608-6.61659-4.08387-9.28163-6.813-.67323-.68944-2.22136-1.18174-3.35334-1.81577-3.67979-2.06191-10.82939-7.55558-13.33008-10.52406a20.89887,20.89887,0,0,0-8.04373-6.2404,16.18555,16.18555,0,0,1-5.42845-3.82416,14.03963,14.03963,0,0,0-5.65462-3.36578c-1.35853-.47722-2.53461-.29591-4.78651-1.95373-.51341-.51228-1.71324-1.573-2.61566-2.64619a13.24494,13.24494,0,0,0-3.44268-3.05291,42.82572,42.82572,0,0,1-9.518-7.8447,12.47575,12.47575,0,0,0-4.56863-3.362c-3.062-1.13349-5.214-3.79362-8.24615-5.024-3.2184-1.30613-4.83288-3.97606-7.395-5.894a22.98657,22.98657,0,0,0-2.32918-1.746c-1.57828-.88357-3.09588-1.83989-4.5788-2.83768q-1.11164-.74862-2.201-1.52476l-3.18938-2.23117c-4.534-3.18372-9.21415-6.53216-13.96071-9.61259-3.50337-2.27376-7.03576-4.73675-10.65146-7.25666C173.934,4.91279,170.2437,2.34123,166.65287,0c-.01018,3.04048.049,6.2257.2273,9.53984a35.90717,35.90717,0,0,1-.30834,4.15889c-.50625,9.299-.91712,19.50979-.82439,29.96788.01055,1.02.02111,2.04571.03166,3.0695.00679.65665.003,1.31179-.02789,1.96014-.62574,13.0451-1.32724,26.0755-1.89681,39.1304q-.8979,20.58995-1.59,41.21757c-.40032,12.21958-.7064,24.45235-1.02342,36.68324q-5.05376-2.3567-10.1162-4.70169-25.19305-11.67885-50.54669-23.10627c-17.70873-7.97852-35.51206-15.79419-53.29844-23.62872q-1.67309-.72147-3.3507-1.44522l-4.59917-1.94732c-4.37864-1.85083-8.746-3.70768-13.12011-5.62975l-3.97795-1.74565-4.039-1.81765-8.14137-3.6681-8.19828-3.6779L.82477,93.89893l-.25708-.115-.12854-.05767c-.043-.01922-.0132.072-.02337.10253l-.00792.53866L.377,96.52477l-.05956,4.32889Q.21674,109.594.1161,118.33922L.04033,136.09657,0,146.62779l.00226,8.78783.07577,17.576q.354,58.36143,1.67479,116.72475c.562,23.41461,1.51383,46.81452,2.42906,70.20651q1.39491,33.7649,2.78867,67.50416,1.31631,33.77337,2.63413,67.57729c.58917,14.15182,1.05923,28.27537,1.48443,42.41664.60877,20.33418,1.64124,40.608,2.64656,60.81632.5315,10.38233,1.10522,19.53655,1.42713,27.24517.383,8.1391.05655,9.95.33662-2.34726.18923-6.44924.39052-13.30482.614-20.923.49569-18.01819,1.12633-36.0002,1.76149-54.05006.76445-21.99276,1.51081-44.02472,2.43472-65.999q1.612-37.61658,3.22706-75.30212,1.09749-25.76358,2.19573-51.55278.64572-15.86467,1.29106-31.7403c.53489-14.10659,1.115-28.21054,1.55944-42.32919.38449-11.48.5952-22.98112.89525-34.47055.29666-11.04086.69321-22.0787.83947-33.11767l.31513-33.16442.18885-33.164.01206-4.1457.006-2.07284.003-1.03624v-.07049l3.754,1.57641,7.64907,3.19879c2.85125,1.18852,5.74471,2.2715,8.61669,3.4114,6.56722,2.60283,13.14726,5.16685,19.69412,7.83113q17.76621,7.26966,35.54033,14.54272l25.70458,10.6575c8.16284,3.3492,16.4776,6.31353,24.52058,9.98577a26.304,26.304,0,0,0,3.69109,1.3231c.147.04108.29289.089.4399.13155-.50624,14.17821-.628,28.39035-.70829,42.59118q-.246,43.30869-.12439,86.61928c.075,17.37587.56316,34.74232.95142,52.10274q.63893,25.05849,1.27786,50.09851.44046,25.06414.88131,50.15128c.22767,10.50257.22881,20.98328-.07652,31.47643q-.65815,22.63225.55147,45.133a59.6595,59.6595,0,0,0,4.21656,20.23391c2.593,6.04966,6.78925,7.40932,9.64766-1.70533a62.27181,62.27181,0,0,0,2.67483-15.51675c.70565-13.36815,1.55266-26.70915,2.12449-40.10143.69736-16.31815,1.22282-32.66533,2.02535-48.96916.91637-18.60624,1.70117-37.2415,2.50559-55.87111q.77349-19.11588,1.54775-38.2506.43821-11.771.87679-23.55069c.36526-10.46676.75314-20.93164,1.04113-31.40783.23446-8.51793.32229-17.05283.50021-25.57792.17114-8.19263.507-16.38224.54017-24.57411l.1538-61.61545a101.42624,101.42624,0,0,1,19.89465,8.55751,39.65516,39.65516,0,0,0,4.66174,2.05852l9.88551,3.8464q22.846,8.82967,45.6912,17.659c4.526,1.74377,9.06753,3.434,13.60676,5.13406,4.53885,1.7057,9.30387,3.77817,13.55888,5.013,5.06357,1.475,8.76974,3.69373,13.16761,5.41225,1.62955.6378,3.29529,1.17947,4.94407,1.77694l2.62206.94275.0803.02865.01545.003.03129.00679.06257.01319.12741.02714.26311.05617c.16887.04523.39391.0622.60387.09612l.32644.04976c.08105.0392.066.153.10329.22918a5.31915,5.31915,0,0,1,.13419.53678l-.08255.62084a18.13276,18.13276,0,0,0,.03468,2.0555q.03732,1.38247.07463,2.76c.2273,10.61151.55186,21.17817.94992,31.76141.16472,4.41483.1161,9.12444.48777,13.18834.56015,6.07794.75654,11.96815.792,18.10791.00641,1.28389.10479,2.63375.17717,3.94063.29176,5.24714.60274,10.4728.844,15.73765.24464,5.25054.36338,10.58362.821,15.63286.461,5.174.13268,10.489.47948,15.75085.13645,2.12034.147,4.57843.31437,6.52651.63478,7.55445.77991,15.57254,1.077,23.46022q.27592,7.25157.55034,14.47524c.19074,5.24262.38072,10.47054.57146,15.71127q.34943,11.14621.69924,22.2962c.03317.75352.063,1.42713.09424,2.1373.1749.0377.22164.50776.236,3.15168.06069,3.70655.11158,6.80357.16963,10.35142.02337,1.7072.06219,2.84823.08293,3.19125.00188-1.64576.003-2.94171.006-5.37078-.03544-6.97507-.05579-13.89776-.01584-20.80046.02714-4.83363.0328-9.71776-.05616-14.47675-.07426-3.93159-.07991-7.59328-.03883-11.65906.05918-7.61137.3091-15.565-.22541-23.026a28.24877,28.24877,0,0,1,.17867-5.80352,20.31538,20.31538,0,0,0,.18358-4.50041,71.64073,71.64073,0,0,1-.05617-7.62569c.15116-4.246.18885-8.61405.11723-13.02625-.0196-1.19531.06258-2.46827.1014-3.76761.69849.22617.83683,5.60976,1.43656,6.15559.40484-2.434.09876-5.81068.32153-8.47949a65.64551,65.64551,0,0,0,.3174-9.87382c-.27593.12854-.56694.65891-.8014.21a19.68123,19.68123,0,0,1-.19224-3.40762c.049-3.04387.08707-6.24.28422-9.057.36413-5.06055-.023-10.47468.467-15.49188.12741-1.26768-.092-3.37747-.127-5.12161a194.04434,194.04434,0,0,1,1.11841-22.79378,60.1328,60.1328,0,0,0,.68567-13.67347,44.36542,44.36542,0,0,1,.265-8.94238,37.24693,37.24693,0,0,0-.07275-8.8602,29.256,29.256,0,0,1-.60463-6.84089c.05127-.478.13344-1.25109.2273-2.13052.11837-1.005.25105-2.13165.37281-3.16524.15681-1.31744.31739-2.67748.3924-4.09179.04637-1.39736.04335-2.87085-.02865-4.44123l-.01658-.3777-.00829-.18847a.28775.28775,0,0,0-.0098-.09047l-.08859-.0377-.70339-.30118q-.69717-.30306-1.38679-.60312-1.36947-.61348-2.71065-1.21378-1.34967-.61914-2.6722-1.22584-.661-.31267-1.31593-.622-.46365-.23523-.92352-.46818c-2.44641-1.256-4.76013-2.57192-6.98451-3.932a29.80555,29.80555,0,0,0-6.90232-3.27456c-4.14683-1.20549-7.859-3.69863-12.016-4.97725-4.41747-1.34571-7.47831-3.84149-11.3575-5.71945-1.18136-.57108-2.36347-1.25223-3.53013-1.70419-9.07921-3.50074-17.4539-8.07125-26.30958-11.89013-8.89677-3.82415-17.34912-8.48476-26.56139-11.76309a36.76529,36.76529,0,0,1-3.41441-1.76149c-7.44966-3.68619-14.9536-7.30981-22.75457-10.53989-1.62918-.67587-3.28587-1.33855-4.87019-2.07963q-3.90879-1.828-7.813-3.66282l.03166-12.63574c.00453-2.29223-.10441-4.5837-.153-6.87631-.11082-5.24149-.27479-10.48109-.31211-15.72635q-.10065-14.24473-.07162-28.49513l.1504-20.64893c.03807-6.54687-.37356-13.08921.0343-19.64587a13.79317,13.79317,0,0,0-.16058-2.90628c-.5609-3.50978-.30608-7.14622-.43311-10.72347-.13834-3.89012.16284-7.80022-.39995-11.6975q-.164-1.13255-.28874-2.26849l-.11422-1.1365-.02525-.28422-.01206-.14211c-.00415-.04863-.0083-.026-.01207-.0426l-.046-.08858a1.64753,1.64753,0,0,1-.15945-.76106c.02148-.493.3106-.8979.93219-.64685.22881.09726.19866-.04749.19489-.17566-.00792-.2518-.08067-.60425-.12176-.945l-.04448-.36979q.59766.22731,1.44108.61406l.90468.42708.24539.11912.12553.06182a.63708.63708,0,0,1,.09235.05013l.44367.27894,3.5471,2.23343c3.04688,1.91377,6.12392,3.77327,9.18965,5.652,3.06687,1.8791,6.16916,4.18075,9.198,5.51553,3.60627,1.58922,5.75225,4.10649,8.68869,6.0165,1.08825.70791,2.24963,1.29821,3.37294,1.95524,4.75447,2.78075,9.6763,5.37982,14.2242,8.386q9.85365,6.51369,19.84565,12.7164c2.7834,1.72944,5.54606,3.89087,8.30986,5.174a67.21434,67.21434,0,0,1,11.51921,6.93587,25.13819,25.13819,0,0,0,2.51274,1.50064c3.39934,1.916,6.82091,3.76874,10.198,5.74245,3.36767,1.96843,6.63507,4.20375,10.15653,5.6633,3.60892,1.49535,6.31278,4.56976,9.83462,6.31692,1.4196.70414,2.86067,1.83348,4.22787,2.38383,5.30142,2.13429,10.21006,5.4997,15.24762,8.49042,3.08759,1.8331,6.19592,3.61834,9.30312,5.39905q5.08486,2.887,10.158,5.76808,7.19163,4.11459,14.38591,8.23032a7.74074,7.74074,0,0,0,1.55944.51228c.93333-1.37813,1.45314-1.53645,2.967-.26613,2.12185,1.78071,4.47364,2.3827,6.59625,3.94742a2.317,2.317,0,0,0,2.64618.2665A9.66687,9.66687,0,0,0,378.25512,150.60914ZM30.19179,139.45482l.00942-.01206c.00717-.00566.0098-.03016.02262-.0181l.0392.01621c-.00037.00641-.00377.01885-.00527.02714l-.05165-.00641C30.16955,139.4567,30.19857,139.45746,30.19179,139.45482ZM327.24025,399.31115c-.03016-.32644-.08369-.66531-.08821-.97743-.006-1.17533-.01206-2.34123-.02488-4.87735.12439,2.31145.19564,3.31376.21863,4.32964C327.35672,398.28133,327.27756,398.80189,327.24025,399.31115Zm2.27-79.98836c-.05579-.07049-.16021-.144-.16021-.21033l.03393-2.54668c.05051.08142.14475.15795.14513.245Zm1.412-39.49566c-.50473,2.85464-.7882,5.9445-1.06375,9.15913-.02111.24388-.20619.4987-.24653.3532a13.52082,13.52082,0,0,1-.3302-1.72756c-.0426-.32154-.00717-.85643-.00717-1.44485a61.27371,61.27371,0,0,0,.17717-8.78632c-.15455-2.42492.14663-4.39825.44819-4.13929a1.79039,1.79039,0,0,1,.51982.98271A15.21042,15.21042,0,0,1,330.92229,279.82713Zm-14.66561-39.88279a1.58743,1.58743,0,0,1,1.10484-.10253c.98234.37544,1.96844.775,3.15771,1.2658,1.25223.51906,2.7212,1.12783,4.61085,1.91113.76747.36,2.01857.94652,3.50337,1.64275.72224.34679,1.501.7211,2.30618,1.10823.39693.19262.80027.38826,1.20662.58541.07049.01093.06709.07162.06069.13419l-.003.17754-.00678.35434-.01395.70828a2.03359,2.03359,0,0,1-.48815,1.184c-.05428.06446-.20657-.65061-.21034-1.04076l-.006-.57824c-.02262-.179.07464-.438-.17792-.46364l-1.05207-.46478-2.10752-.93182-4.26217-1.86779-7.06329-3.13434C316.57068,240.3228,316.176,239.97337,316.25668,239.94434ZM243.5378,57.48107c-.02412.0784-.54243-.02451-.74372-.161q-4.71452-3.23422-9.42525-6.46582c-.16322-.11346-.35169-.50247-.2699-.542.27065-.13156.70942-.35584.9959-.19753,1.36984.75579,2.71027,1.62579,5.1661,3.13321.775.60274,2.54177,1.94205,4.22787,3.32771C243.72175,56.76712,243.617,57.2221,243.5378,57.48107Zm22.69012,18.32428a5.52613,5.52613,0,0,1-1.35853-.26387,5.448,5.448,0,0,1-.9043-.576,21.88025,21.88025,0,0,0-5.31349-3.78872c-1.63521-.78707-2.61452-1.96542-2.20779-2.2372a1.50687,1.50687,0,0,1,1.03887-.25745c1.25185.15191,3.07516.4987,3.91915,1.602a43.05063,43.05063,0,0,0,4.81855,5.053C266.35419,75.46308,266.35306,75.811,266.22792,75.80535ZM284.513,88.213c-.52584-.34754-1.03623-.71733-1.55077-1.08109.09914-.04184.23748-.14965.29214-.115.5232.3336,1.03209.69133,1.54549,1.04227C284.70109,88.11464,284.55408,88.24016,284.513,88.213Zm45.68141,37.57021c-.7162-.49833-1.40074-1.03322-2.9108-2.16294,1.55868.75051,2.26773,1.02493,2.90477,1.42789.311.19639.48815.63176.72563.95933A2.58659,2.58659,0,0,1,330.1944,125.78323Z"/><path class="cls-1" d="M381.051,153.60551c.04222.05353.08105.10743.12515.161.04373.01847.08821.03468.13231.05277-.07351-.07878-.14588-.15756-.22052-.236C381.077,153.59156,381.06226,153.5976,381.051,153.60551Z"/><path class="cls-1" d="M340.44517,121.73705c.3811.219,1.18513.32908,1.21717.17717a1.53733,1.53733,0,0,0-.56844-1.15385c-3.38991-2.472-6.79678-4.93729-10.26472-7.32488-2.054-1.41432-2.388-1.37059-4.75107-.10065,4.75371,2.0163,4.80724,2.06531,10.23871,5.83292C337.64293,120.08752,339.04933,120.9349,340.44517,121.73705Z"/><path class="cls-1" d="M384.53887,155.97389a3.15974,3.15974,0,0,0-.95934-1.17043,18.09178,18.09178,0,0,0-2.27112-.98422c.51831.553,1.02342,1.10936,1.58168,1.6518C383.7518,156.30824,384.877,156.62865,384.53887,155.97389Z"/><path class="cls-1" d="M300.74558,93.39948a1.69228,1.69228,0,0,0,.55977.1308l-.57447-.53339-.71357-.35772A8.25743,8.25743,0,0,0,300.74558,93.39948Z"/><path class="cls-1" d="M330.09526,400.37113c-.03241,2.1735-.032,4.38506-.02487,6.55064a6.60759,6.60759,0,0,0,.14022,1.5044,5.70605,5.70605,0,0,0,.216-1.49121q.20243-8.47006.406-16.97857c.06634-3.35975.00037-3.70428-.87528-5.43562C330.25584,391.37033,330.2287,391.46645,330.09526,400.37113Z"/><path class="cls-1" d="M329.22,477.0936c-.00151-.28347-.0034-.56618-.00528-.85191l-.00075-.01621c-.00038.08406-.00038.16473-.00038.25068C329.21584,476.6831,329.2181,476.88816,329.22,477.0936Z"/><path class="cls-1" d="M329.26447,481.89707c-.0034-.4938-.0098-1.34873-.014-1.94468-.01056-.9797-.02036-1.916-.03053-2.85879.00565.847.01093,1.69175.017,2.5723C329.255,481.25475,329.27464,482.76066,329.26447,481.89707Z"/><path class="cls-1" d="M331.62681,341.25071a5.257,5.257,0,0,0,.08971.72789l.08067-1.04113-.032-1.06865C331.71652,340.32606,331.6547,340.76294,331.62681,341.25071Z"/></g></g></svg>