<svg xmlns="http://www.w3.org/2000/svg" viewBox="0 0 388.09152 690.33913"><defs><style>.cls-1{fill:#24373e;}</style></defs><g id="Слой_2" data-name="Слой 2"><g id="Слой_1-2" data-name="Слой 1"><path class="cls-1" d="M43.65181,243.0078a43.20258,43.20258,0,0,1-5.52382-5.03586c-.72374-.72638-1.48217-1.44183-2.22928-2.13787-.20469-.18961-.605-.44405-.60764-.38939a1.48735,1.48735,0,0,0,.37016.63214q2.77114,2.882,5.55511,5.77714C42.32457,242.98763,42.48553,243.0536,43.65181,243.0078Z"/><path class="cls-1" d="M12.40758,212.53273c.09537.08783.193.17755.28912.26613l.00528.00433-.0852-.081C12.54743,212.6592,12.47656,212.59531,12.40758,212.53273Z"/><path class="cls-1" d="M10.72525,211.00232c.17264.15832.4693.43066.67587.62008.34529.3123.674.60953,1.00646.91033-.297-.2731-.59068-.54337-.8994-.82721C10.9518,211.2038,10.42294,210.72978,10.72525,211.00232Z"/><path class="cls-1" d="M57.39276,258.17249a1.31729,1.31729,0,0,0-.30835-.17359l.3042.393.38713.3238A6.59912,6.59912,0,0,0,57.39276,258.17249Z"/><path class="cls-1" d="M387.93358,211.09467l-.31589-.33586-1.265-1.34477-5.08844-5.40735-9.75358-10.33539q-5.93073-6.39523-11.866-12.79443-24.9765-26.90121-50.19953-53.65371Q283.01715,99.199,256.31479,71.36958c-4.44235-4.64233-9.01814-9.21868-13.37945-13.88928L238.97322,53.249l-1.9854-2.11224L233.751,47.75311q-7.97644-8.27668-15.95855-16.559-8.08273-8.372-16.16963-16.74882L193.4833,6.02609l-4.079-4.2141L188.38392.758l-.51076-.527-.12741-.13175-.06371-.066c-.02148-.02243-.04862-.05824-.04033-.00754l-.00716.35264-.05541,2.82241-.429,22.688-.10366,5.69608c-.0294,1.91057-.08482,3.7646-.06823,5.77676l.00829,11.87938q.0362,17.08233.07238,34.16277.337,77.17452,1.59487,154.35093c.53489,30.96265,1.44108,61.90513,2.31259,92.83782q.47778,16.05805.95481,32.10311c-3.60364-3.264-7.18655-6.551-10.78453-9.82218l-9.62127-8.92127c-3.07176-2.8062-6.41116-5.32309-9.26316-8.37205a6.23243,6.23243,0,0,0-1.47877-1.12294c-2.01254-1.115-3.57839-2.82278-5.35307-4.25406-1.92508-1.561-3.6025-3.40386-5.80012-4.68172a24.46106,24.46106,0,0,1-8.46215-7.85393,9.31451,9.31451,0,0,0-1.68572-1.714c-1.25411-1.09976-2.54591-2.1588-3.81887-3.23819l-17.70609-14.87651c-1.75658-1.46954-3.54709-2.89856-5.33157-4.33492a47.76681,47.76681,0,0,0-5.36136-4.24107c-2.18857-1.28087-3.25534-3.08778-4.95048-4.53414-.62762-.53658-1.32121-1.00117-1.979-1.50761-2.78075-2.14654-5.70852-4.17509-8.32229-6.45224-3.78609-3.278-7.62042-6.4743-11.50828-9.625a62.07619,62.07619,0,0,0-4.84-3.93234,49.05386,49.05386,0,0,1-6.72479-5.31405c-.44442-.41125-.9714-.7801-1.46671-1.15328-1.98916-1.49667-3.984-2.97319-5.94638-4.51095-1.95976-1.53023-3.86562-3.17486-5.89549-4.49268-2.07474-1.35607-3.682-3.30415-5.71268-4.76728-.81609-.59219-1.66536-1.38077-2.44263-1.89549-3.00429-2.0067-5.84875-4.50116-8.74524-6.8505q-2.66484-2.15823-5.31951-4.30816-2.88423-2.34623-5.76205-4.68774-4.04958-3.36683-8.10028-6.7344c-.27253-.229-.53074-.418-.79385-.62668-.12779.10894-.31928-.01093-1.23489-.857-1.29218-1.177-2.42-2.10979-3.65943-3.23386-.60236-.53847-1.01927-.88112-1.14856-.9763.56316.53414,1.00947.95746,1.83763,1.7434,2.41436,2.23361,4.80045,4.46082,7.14055,6.72346,1.639,1.58338,3.30962,3.16864,4.99911,4.64779,1.39622,1.22132,2.65486,2.40324,4.02206,3.74782a69.54447,69.54447,0,0,0,8.04033,7.29888,6.68064,6.68064,0,0,1,1.87269,2.00255,4.83541,4.83541,0,0,0,1.42223,1.58394,16.7763,16.7763,0,0,1,2.65109,2.43,58.82759,58.82759,0,0,0,4.38845,4.29835c.42256.37337.80516.84249,1.22508,1.29011-.53413.41031-2.46977-1.23714-3.04914-.99854.56957,1.06828,1.92734,1.94959,2.69632,2.96792a15.46178,15.46178,0,0,0,3.17731,3.41629c.13608-.23239.14475-.60575.452-.62272a4.702,4.702,0,0,1,1.29369.97027,41.37587,41.37587,0,0,1,2.91872,3.12887c1.49687,1.89041,3.60591,3.37521,5.00514,5.33893a13.5659,13.5659,0,0,0,1.83876,1.57,45.955,45.955,0,0,1,7.08214,8.1538,14.3495,14.3495,0,0,0,4.2388,4.90147,10.48827,10.48827,0,0,1,2.892,3.07874,8.79444,8.79444,0,0,0,3.08458,2.81808,7.19113,7.19113,0,0,1,2.74043,1.79616,22.55787,22.55787,0,0,1,1.28728,2.002,8.148,8.148,0,0,0,1.743,2.36668,24.5822,24.5822,0,0,1,4.87019,6.18631,7.11438,7.11438,0,0,0,2.38986,2.71065c1.79353,1.047,2.73439,3.06384,4.49965,4.1668,1.88173,1.16214,2.45093,3.16129,3.7759,4.71357a11.94453,11.94453,0,0,0,1.2085,1.40866c3.52185,2.95,6.14014,6.69519,9.38568,9.88117,3.26664,3.19088,5.88644,7.0075,9.58922,9.79146a8.8606,8.8606,0,0,1,1.1154,1.449,87.80092,87.80092,0,0,0,7.997,8.74166c.60991.5658,1.24168,1.12218,1.79466,1.7366,5.56793,6.178,11.07478,12.40768,16.69812,18.53651q8.85,9.68573,17.90926,19.1841c5.63276,5.90209,11.3688,11.70787,17.103,17.51327q-8.59049,9.28089-17.12181,18.60926c-3.9395,4.31117-8.29591,8.76163-11.77176,12.87585-5.19475,6.15559-10.46714,11.89182-16.07879,17.75942-1.17382,1.22641-2.34538,2.57607-3.49546,3.86807-4.6165,5.1872-9.20021,10.36687-13.8676,15.53768-4.65156,5.1595-9.466,10.31429-13.78694,15.4229-4.4333,5.22942-9.53758,10.07191-14.1292,15.30943-1.85309,2.10847-4.10235,4.45536-5.77563,6.42021C83.512,508.89024,76.25156,516.61828,69.215,524.32237q-6.46788,7.08477-12.91015,14.14222-7.02256,7.67449-14.03044,15.33262Q32.28282,564.6378,22.28781,575.482c-.66909.73939-1.26693,1.40018-1.89719,2.0966.08519.15191-.31438.62988-2.73138,3.1562-3.36051,3.5682-6.16878,6.54969-9.38529,9.965-1.55944,1.64916-2.58437,2.76568-2.87915,3.0989,1.515-1.56848,2.70537-2.80073,4.94031-5.11483q9.56754-9.99416,19.0827-19.80927c4.45517-4.583,8.94238-9.22811,13.24979-13.8169,3.558-3.79155,6.91551-7.28041,10.67559-11.1236,7.0271-7.20577,14.499-14.61114,20.98178-22.06626a51.7852,51.7852,0,0,1,5.44956-5.40622,37.18114,37.18114,0,0,0,4.25651-4.1619c2.23-2.55138,4.44009-4.81233,6.96151-7.29586,4.00132-3.94176,8.03657-8.07464,12.03751-12.32173,1.08374-1.15064,2.30844-2.30826,3.52788-3.519.2714.67663-4.57617,5.89267-4.66589,6.80847,2.512-2.0491,5.40169-5.46559,8.00415-7.85865a120.25916,120.25916,0,0,0,9.28051-9.18853c-.30646-.06012-.99289.25218-.74184-.32983a35.97721,35.97721,0,0,1,2.99637-3.37087c2.8275-2.86463,5.78731-5.88174,8.50814-8.43274,4.89506-4.57655,9.5994-9.986,14.54045-14.43737,1.2511-1.12255,3.03709-3.27569,4.61425-4.95915,5.12651-5.47482,16.58013-16.68436,21.68968-20.95708a110.06151,110.06151,0,0,0,13.021-12.562,81.34859,81.34859,0,0,1,8.39052-8.33681c.33511-.28969.648-.59521.974-.89187q.22617,7.60554.45234,15.21012,1.25355,44.66034,2.50823,89.36083.84135,28.07051,1.41356,56.08975c.57937,26.889,1.56283,53.69781,2.51991,80.42053.50624,13.72907,1.05244,25.83387,1.3589,36.02734.36451,10.76305.0539,13.15725.32041-3.1038.18018-8.52623.37167-17.59281.58465-27.66736.47194-23.82624,1.07242-47.605,1.67742-71.47306.72789-29.08243,1.43882-58.21612,2.31824-87.27385q1.14386-37.07123,2.29-74.20237,4.04054,3.82311,8.13684,7.588,20.23712,18.64968,41.10637,36.63065c8.39354,7.19183,17.037,14.10848,25.65407,21.04812q12.48627,9.96589,24.96274,19.92444c8.30232,6.67069,16.55563,13.41507,24.8866,20.055,5.23621,4.17378,10.385,8.42087,15.51073,12.70471,7.36409,6.16615,14.989,12.0149,22.577,17.85762,3.90671,2.99336,7.41951,5.55982,10.27226,7.83264,3.04048,2.37007,3.44758,3.18221-.58465-.9927-2.11167-2.19045-4.295-4.58766-6.77039-7.199-5.85629-6.17256-11.59648-12.44274-17.37588-18.7182-7.03916-7.64963-14.10319-15.29926-21.03191-23.05292Q324.11618,498.41839,312.25413,485.1q-8.11384-9.10079-16.236-18.21044-5.01588-5.583-10.03591-11.16978c-4.4857-4.93728-8.94124-9.90492-13.49027-14.78378-3.68393-3.98266-7.48849-7.85224-11.23084-11.77968-3.59083-3.77986-7.11493-7.62776-10.80338-11.303q-17.82558-17.63814-36.07108-34.83167c.86849-.79479,1.75093-1.64953,2.67333-2.6181a186.78571,186.78571,0,0,1,15.99247-14.92269,54.52987,54.52987,0,0,0,7.24309-7.03558c3.59949-4.41012,8.2175-8.01753,11.895-12.42162,3.895-4.68341,8.13722-7.55162,12.24522-11.4964,1.25-1.20134,2.60924-2.37724,3.73331-3.5912,8.73128-9.44825,18.109-17.84047,27.02428-26.95888,8.94388-9.16346,18.45621-17.62184,27.04463-27.27477,1.01965-1.14611,2.47656-2.26377,3.72276-3.44607,7.96759-7.55652,15.90426-15.18976,23.6257-23.25441,1.61372-1.684,3.23046-3.40253,4.88263-5.01946l12.47251-12.1915,3.117-3.048,1.573-1.53909,2.64431-2.64939,5.32253-5.33327,5.12764-5.39359,2.57193-2.7146.64421-.6804a1.19306,1.19306,0,0,0,.14927-.17019ZM40.81187,236.90555a3.98724,3.98724,0,0,1-.45385-.56675,3.11615,3.11615,0,0,1,.39279.2552c.40672.37638.81044.74975,1.68835,1.56189C41.56539,237.49359,41.17525,237.21842,40.81187,236.90555Zm26.32994,27.72729-.84889-.82627c.06069-.016.15417-.06446.17679-.04279l.85077.848C67.25942,264.6204,67.172,264.66073,67.14181,264.63284Zm14.69237,14.36254a.94646.94646,0,0,1-.67662.04165,3.77625,3.77625,0,0,1-2.24926-1.46614,26.1886,26.1886,0,0,0-2.44415-3.70184c-.06973-.09329-.03581-.3042.04-.28478a2.1822,2.1822,0,0,1,1.30839.79329,14.38091,14.38091,0,0,0,2.89573,2.96734C81.64043,278.023,82.11991,278.87042,81.83418,278.99538Zm12.29761,14.49089c-.19677.065-.5168.17717-.677.04448-.76559-.6329-1.49385-1.34043-2.84107-2.57947-.40635-.47514-1.33554-1.53776-2.20968-2.61961-.121-.14965.01093-.438.09838-.59991.02639-.049.34227.07011.45121.17961l5.0892,5.18551C94.131,293.18754,94.19135,293.46667,94.13179,293.48627ZM76.12226,517.89444c-.44744.47891-.97931.922-1.47236,1.38227.27894-.331.55336-.68906.83682-.98874,1.07469-1.12274,2.1407-2.23663,4.46007-4.65947C77.91013,515.91112,77.039,516.9123,76.12226,517.89444ZM151.94759,442.261l-2.31862,2.37855c.02638-.10422.02224-.24294.0833-.30608l2.36084-2.40173C152.03315,442.04273,152.0275,442.17786,151.94759,442.261ZM215.53938,70.4779c.01131.00283.02149-.006.032.00622C215.53185,70.47772,215.50885,70.47376,215.53938,70.4779ZM186.85087,407.97872c-2.96659,2.38383-5.99689,5.13726-9.13651,8.0149-.23823.21825-.59935.33831-.49305.17339.34227-.53206.82062-1.18607,1.35928-1.86251.26575-.33435.781-.82024,1.32121-1.3802a112.44407,112.44407,0,0,0,8.1866-8.246,24.25713,24.25713,0,0,1,3.68317-3.54031c.10894.10837.21486.219.323.32813a3.671,3.671,0,0,1-.44518.84738A27.655,27.655,0,0,1,186.85087,407.97872Zm43.08422-42.35106c-1.88248,2.04646-3.86938,4.08671-7.415,7.798-1.25788,1.20888-4.09029,3.95213-6.90761,6.60548a1.22627,1.22627,0,0,1-1.0253.33756,4.07728,4.07728,0,0,1,.74975-1.03586q7.16958-7.236,14.33276-14.46582c.24992-.25124.82439-.61443.8063-.51623A2.41662,2.41662,0,0,1,229.93509,365.62766ZM356.13071,212.14655l-.11535.16435a2.36724,2.36724,0,0,1-.21486.10253l-.21524.1046-.10366.05767-.05051.0311-.02526.01621-.18395.20016c-4.67644,5.11879-9.64954,10.00538-14.05042,15.404a190.02244,190.02244,0,0,1-22.40288,23.376c-1.49348,1.29765-3.195,3.14263-4.74128,4.78858L304.48708,266.671q-21.98992,23.76988-43.97948,47.5392-6.4922,7.09891-12.97385,14.18688c-4.321,4.73411-9.13576,9.63635-12.82647,14.16219-4.39825,5.38435-8.74184,9.05113-12.99346,13.622-1.5764,1.69364-3.0793,3.45136-4.62706,5.17647q-3.49545,3.89266-6.97093,7.82736.68529-22.34643,1.37059-44.69456.61461-20.97866,1.22961-41.97184c.50926-18.65374,1.06149-37.30427,1.48481-55.974.366-15.18071.56655-30.38931.85228-45.58208.28271-14.6.66-29.1957.79951-43.79365l.29967-43.85452.09575-21.92735V71.359l3.22443,3.29454,7.66829,7.83547L242.486,98.15223c2.86256,2.91383,5.80088,5.75037,8.69963,8.62914,6.62941,6.57984,13.28408,13.12935,19.87467,19.75688q17.87364,18.02347,35.75481,36.05486l25.823,26.21384c4.10309,4.14645,8.27819,8.21845,12.42388,12.32268q3.10927,3.07816,6.18462,6.1929l3.05329,3.13867.75842.7899.09462.09876c.02186.023.00829.01037.01394.01716l.00679.01375.01319.02714a.54887.54887,0,0,1,.03619.10819c.01847.08085.13269.09348.37921.1276a2.02085,2.02085,0,0,1,.61594.18923C356.29317,211.92547,356.18348,212.03817,356.13071,212.14655Z"/><path class="cls-1" d="M69.60329,528.39136a12.03061,12.03061,0,0,0-1.28427,1.52438,10.29785,10.29785,0,0,0,1.51685-1.27673q7.91311-7.9281,15.8628-15.89276c3.12981-3.15413,3.40084-3.52542,4.39-5.75244-6.08284,6.71705-6.1899,6.79112-14.4549,15.17882C73.6163,524.22,71.58643,526.32511,69.60329,528.39136Z"/><path class="cls-1" d="M4.66729,594.56112c.23936-.25049.478-.50041.71922-.753l.00829-.00943c-.075.07784-.147.15248-.2239.232C5.002,594.20848,4.835,594.38451,4.66729,594.56112Z"/><path class="cls-1" d="M.22946,599.22417c.45046-.47194,1.2315-1.29011,1.77581-1.86024.91222-.96085,1.78373-1.87816,2.662-2.80281-.79348.83023-1.58394,1.65763-2.40871,2.52122C.8126,598.60654-.5561,600.0529.22946,599.22417Z"/><path class="cls-1" d="M130.3446,467.66306l1.01135-.938.959-1.03812c-.45309.40277-.89638.77784-1.36342,1.22358A9.56568,9.56568,0,0,0,130.3446,467.66306Z"/></g></g></svg>