<svg xmlns="http://www.w3.org/2000/svg" viewBox="0 0 352.12817 751.07285"><defs><style>.cls-1{fill:#24373e;}</style></defs><g id="Слой_2" data-name="Слой 2"><g id="Слой_1-2" data-name="Слой 1"><path class="cls-1" d="M170.82009,612.1777c-.00791,1.32046-.016,2.66391-.02375,3.97946a8.47069,8.47069,0,0,0,.036.91411,7.18227,7.18227,0,0,0,.065-.90581q.08255-5.14537.16529-10.31448a9.83964,9.83964,0,0,0-.24313-3.30321C170.89039,606.70929,170.88135,606.7681,170.82009,612.1777Z"/><path class="cls-1" d="M170.4111,658.826c0-.18471.00019-.36941.00038-.55563l-.00019-.0196-.00057.16209C170.41072,658.55119,170.41091,658.6884,170.4111,658.826Z"/><path class="cls-1" d="M170.41129,661.70626c.00038-.3008.00075-.81986.00094-1.18136l-.00113-1.69891c-.00056.50172-.00094,1.00306-.00132,1.52476C170.41054,661.31612,170.41186,662.231,170.41129,661.70626Z"/><path class="cls-1" d="M171.46109,576.26193c-.004.11007.01678.29252.0262.44216l.02941-.63252-.00641-.6491C171.49408,575.70028,171.47843,575.96565,171.46109,576.26193Z"/><path class="cls-1" d="M307.05519,171.37268c2.0704-1.43279,2.10414-1.446,4.86284-3.20558.67022-.43425,1.35212-.876,2.02008-1.30877a3.88042,3.88042,0,0,0,.44574-.32832,3.31266,3.31266,0,0,0-.48589.25783q-2.63487,1.65783-5.28125,3.32281A4.56726,4.56726,0,0,0,307.05519,171.37268Z"/><path class="cls-1" d="M335.68264,152.895c-.102.0671-.206.1357-.30872.20318l-.01546.01055.08765-.0573Z"/><path class="cls-1" d="M337.109,151.95449c-.15323.101-.415.27291-.59709.39278-.28422.18772-.55525.36677-.82929.54771.24521-.161.488-.32078.74259-.48815C336.91225,152.08491,337.37383,151.77959,337.109,151.95449Z"/><path class="cls-1" d="M293.49933,179.69309c.05748-.0343.14041-.10894.212-.1651l-.33247.19111-.32512.22014C293.20135,179.85782,293.34252,179.77979,293.49933,179.69309Z"/><path class="cls-1" d="M325.6914,55.76106a1.26778,1.26778,0,0,0,.21562-.16887,1.10141,1.10141,0,0,0-.24672.11685q-1.30727.80629-2.62,1.61674c-.51755.32154-.56391.36489-.74183.66645,1.01192-.72148,1.02945-.72638,2.39532-1.58734C325.02476,56.19116,325.36138,55.974,325.6914,55.76106Z"/><path class="cls-1" d="M337.14822,48.44786c-.07784.05127-.20619.13608-.29421.19413-.16322.10856-.31984.2126-.47853.31777.14437-.095.287-.18923.43613-.288C337.05153,48.51232,337.27865,48.36116,337.14822,48.44786Z"/><path class="cls-1" d="M315.6504,61.9159l-.167.08971-.15945.11007c.07464-.03769.14626-.07388.225-.11346A.90536.90536,0,0,0,315.6504,61.9159Z"/><path class="cls-1" d="M352.018,364.20848l-.1619-.09876-.32343-.19828-1.29406-.79159-2.588-1.58319c-1.73435-1.05018-3.35184-2.16482-5.033-3.24365l-3.07741-2.00839-4.98045-3.23951c-1.85723-1.20473-3.7597-2.33708-5.6386-3.50864-4.297-2.67635-8.609-5.32593-12.88264-8.04487q-11.59149-7.40706-23.18787-14.81751l-16.7509-10.81846c-5.32422-3.40989-10.813-6.55666-16.00528-10.1882a17.98467,17.98467,0,0,0-2.43529-1.40225c-3.08269-1.47425-5.95241-3.50375-8.92164-5.27428-3.22594-1.92923-6.30807-4.11742-9.70759-5.7907a70.99323,70.99323,0,0,1-14.737-9.52326,27.18015,27.18015,0,0,0-3.01955-2.054l-6.47883-3.97644-29.73021-18.14976,11.10324-7.945,8.37224-5.87966c2.65071-1.87,5.20606-3.8807,7.94064-5.632a8.97312,8.97312,0,0,0,1.14027-.88545c1.302-1.18287,2.82524-2.14447,4.24559-3.2086,1.54587-1.15535,3.18484-2.18744,4.65269-3.46718a37.58826,37.58826,0,0,1,7.41121-5.10616,14.75968,14.75968,0,0,0,1.56641-1.02568l3.166-2.27791,14.63489-10.49541,4.3336-3.13094c1.44522-1.043,3.0401-2.09245,4.29478-3.12906,1.49554-1.23112,2.9059-1.94507,4.32549-2.94323.5266-.36941,1.03511-.76408,1.55492-1.14517,2.19988-1.61335,4.39316-3.27419,6.61321-4.81139q4.792-3.35862,9.56171-6.70254c1.32592-.93672,2.7734-1.88513,3.96117-2.79735,1.77694-1.36342,3.55294-2.60246,5.42695-3.85883.392-.26273.7914-.55789,1.18155-.83909,1.56754-1.12557,3.12906-2.247,4.70188-3.37634,1.57565-1.11539,3.19389-2.22174,4.67945-3.33977,1.52495-1.14216,3.19974-2.14975,4.7671-3.2855.63252-.45611,1.38566-.95481,1.96164-1.38227,2.23513-1.65406,4.67927-3.29982,7.06423-4.9486q2.19357-1.51364,4.37921-3.022,2.38214-1.63635,4.75975-3.26967,3.3869-2.30466,6.77473-4.60934c.2273-.15681.432-.29779.64684-.44593-.00754-.03694.13194-.13947.9437-.67323,1.13443-.75541,2.081-1.38529,3.16619-2.1079.498-.33436.824-.55337.96291-.64685-.50153.32682-.90392.58917-1.64255,1.07054q-3.21869,2.10281-6.39854,4.18075c-1.48556.97441-2.98469,1.95787-4.44782,2.91759-1.201.80328-2.32691,1.53984-3.58271,2.34915-2.3484,1.51873-4.82779,3.06724-7.05632,4.6689a16.36191,16.36191,0,0,1-1.80785,1.1316,11.74138,11.74138,0,0,0-1.40809.86812c-.76521.54808-1.50347,1.02417-2.33935,1.54247-1.32611.82289-2.6754,1.69213-4.02356,2.59267-.36527.24388-.768.48287-1.17307.73542-.02431-.18885,1.61523-1.2967,1.704-1.5274-.80384.40485-1.8037,1.14292-2.6558,1.63144a36.057,36.057,0,0,0-3.08646,1.90925c.07746.03242.28064-.01281.17452.12628a10.54053,10.54053,0,0,1-1.02323.723c-.94444.59973-1.93394,1.23225-2.82938,1.754-1.61052.93446-3.22367,2.103-4.83966,2.99976-.409.2258-1.02794.69585-1.56019,1.05282-1.73077,1.161-5.53457,3.47737-7.19277,4.30364a29.379,29.379,0,0,0-4.323,2.56929,21.06923,21.06923,0,0,1-2.80149,1.71927,17.41084,17.41084,0,0,0-2.72327,1.7841,13.5763,13.5763,0,0,1-2.01517,1.51157c-.31306.16322-1.00118.54431-1.609.82929a15.27021,15.27021,0,0,0-1.98314,1.08524,44.34837,44.34837,0,0,1-5.305,2.97714,13.06268,13.06268,0,0,0-2.41813,1.42563c-1.24186.98158-2.74778,1.62428-4.01244,2.59605a31.4101,31.4101,0,0,1-4.07841,2.28017c-.41747.24087-.86717.46214-1.24827.71884-2.96169,2.00161-6.074,3.61382-9.08355,5.48575-3.01616,1.8889-6.188,3.48151-9.11483,5.56077a13.88509,13.88509,0,0,1-1.2477.66343c-2.67484,1.47877-5.34854,2.97677-7.96608,4.64251-.54677.3483-1.095.70754-1.65274,1.02794q-8.44122,4.79706-16.88094,9.59262-8.76267,4.97913-17.541,9.96655.57165-18.30448,1.02587-36.606c.34548-14.22457.30891-28.44048.31193-42.65224q.00339-5.942-.03864-11.88107c.64232-.32833,1.28276-.65967,1.916-1.00344,3.516-1.90775,6.96132-3.93611,10.48241-5.82916,4.01715-2.16256,7.97117-4.43443,11.91161-6.72516,2.695-1.567,5.36494-3.17768,8.02866-4.79706q2.45874-1.49442,4.89356-3.02954c2.16369-1.36343,4.32776-2.72573,6.46148-4.13929,1.73472-1.1497,3.43062-2.36611,5.14782-3.54559,1.65047-1.13311,3.34015-2.20515,4.95123-3.3982l19.33149-14.37875c.45008-.33511.87716-.70489,1.31687-1.05546,1.00533-.80215,2.00123-1.61786,3.02371-2.39589l5.58111-4.18414,4.08143-2.976c1.29124-.94765,2.51161-2.00123,3.86468-2.85916a2.96633,2.96633,0,0,0,.546-.46214,18.63844,18.63844,0,0,1,2.04288-1.662,25.02059,25.02059,0,0,0,2.24492-1.78787,12.26627,12.26627,0,0,1,3.62456-2.5674,4.79743,4.79743,0,0,0,.77237-.50662l1.537-1.16214,7.10909-5.34778,2.10243-1.599c.70132-.53263,1.48707-1.05206,2.08039-1.60241a19.834,19.834,0,0,1,2.12-1.47387c.25671-.18659.50022-.39278.75183-.588,1.06432-.82816,2.1194-1.68874,3.20426-2.463,1.56642-1.11954,3.11625-2.24964,4.66306-3.38991.64553-.475,1.35928-.94351,1.929-1.41846.85285-.70905,1.71964-1.33478,2.64034-1.96052.19244-.1308.38543-.28271.57466-.42633.76144-.57372,1.52-1.14517,2.28357-1.72078.76709-.56617,1.55962-1.12067,2.27508-1.69929.73505-.58992,1.57131-1.07129,2.33124-1.65217.307-.233.67776-.48023.95576-.70037,1.07977-.85115,2.2796-1.67215,3.44532-2.50219l2.14126-1.52024,2.329-1.64275,3.32018-2.30768c.10988-.078.21109-.14965.31626-.22429-.00867-.02563.0588-.0784.45875-.34264.559-.37582,1.02379-.68832,1.55736-1.04717.23371-.15945.38675-.26387.48043-.32757l.03562-.02337.04618-.03091-.06465.043c-.26085.17-.46346.30231-.83532.54432q-1.58744,1.03812-3.1562,2.06342c-.73279.48174-1.46954.9665-2.19253,1.44183-.59012.39995-1.14536.7637-1.7662,1.161-1.16006.74673-2.39137,1.49837-3.47359,2.31485a5.34756,5.34756,0,0,1-.89752.54959,3.83118,3.83118,0,0,0-.70075.41917,13.325,13.325,0,0,1-1.15214.76407c-.65929.39806-1.3263.82477-1.989,1.27259-.17943.12175-.38091.23521-.5822.35772-.036-.13005.76822-.68341.79178-.82853-.41068.17829-.89374.55788-1.32215.78669a11.7217,11.7217,0,0,0-1.53494.92315c.04788.03053.15851.02412.11422.10517a3.38834,3.38834,0,0,1-.49833.36677c-.46779.29289-.95745.60274-1.40659.84889-.80836.4399-1.59054,1.037-2.40644,1.45126-.20657.10366-.504.34755-.76559.52547A30.46736,30.46736,0,0,1,308.943,66.123a9.5823,9.5823,0,0,0-2.16219,1.22208,6.85028,6.85028,0,0,1-1.39509.82853,5.68878,5.68878,0,0,0-1.34269.88131,4.4354,4.4354,0,0,1-.971.781c-.15927.0735-.50681.24916-.81968.36941a5.0253,5.0253,0,0,0-1.00288.498,14.52578,14.52578,0,0,1-2.67427,1.38152,4.27138,4.27138,0,0,0-1.21076.67587c-.59256.51492-1.37549.77086-1.98219,1.27673a10.29437,10.29437,0,0,1-2.05683,1.05584c-.20977.11346-.44008.20958-.62724.33774-1.453.99967-3.03765,1.71965-4.5332,2.62659-1.49743.9175-3.11813,1.61749-4.54224,2.6737a4.58763,4.58763,0,0,1-.63328.30006c-1.351.68152-2.699,1.37624-3.99529,2.19007-.27084.17039-.54111.34793-.82137.49833q-4.248,2.238-8.49532,4.4759-4.47052,2.355-8.94841,4.71376-4.67549,2.49692-9.35683,4.99685c-.78123.41464-1.53683.8798-2.33144,1.265-3.84488,1.85911-7.5682,3.93347-11.26947,6.03383-6.14787,3.48528-12.2831,6.99242-18.349,10.60058-3.65189,2.17048-7.17619,4.53169-10.71235,6.87217-3.40442,2.25-6.73685,4.60068-10.12186,6.88085-3.38557,2.28054-6.835,4.47326-10.20063,6.784q-1.49046,1.024-3.03558,1.95938-.05711-6.99712-.09141-13.99765c-.0524-13.6795.07633-27.3771-.03619-41.05586-.072-8.59822.08915-17.178.61142-25.7679a301.956,301.956,0,0,0,.06822-36.94786,34.091,34.091,0,0,0-4.93427-16.5692c-3.1611-4.95576-8.48778-6.07417-11.97645,1.38491a34.86563,34.86563,0,0,0-3.15337,12.70057c-.72073,10.944-1.56245,21.8661-2.04363,32.83043-.58616,13.35948-.93936,26.74346-1.55,40.09162-.693,15.2333-1.17646,30.49034-1.62107,45.74323-.30326,10.434-.523,20.87661-.72525,31.31774q-.18631,9.63766-.29515,19.28249c-.09745,8.57-.19658,17.13839-.19658,25.71589.00037,6.9747.12948,13.96259.18734,20.94295.02752,3.356.02488,6.71121.03732,10.06682-.40937-.2748-.82382-.54658-1.253-.81082-1.06734-.65816-2.17462-1.25035-3.26175-1.88136-4.59916-2.67333-9.31141-5.24526-13.77977-8.03054q-9.69224-6.0195-19.44967-11.84263c-2.71705-1.6254-5.52325-3.50073-8.11459-4.85888-3.87693-2.02837-7.49226-4.212-11.19126-6.59436-.77313-.4987-1.62334-.96574-2.43736-1.432-3.26853-1.87193-6.532-3.72313-9.79033-5.63389-3.25119-1.90247-6.50031-3.91651-9.718-5.60675-3.29379-1.737-6.349-4.02469-9.64878-5.8676-1.32837-.74485-2.8079-1.7008-4.04562-2.35857-4.79348-2.56025-9.6648-5.609-14.51991-8.51191q-4.46489-2.66711-8.91241-5.32366-4.83664-2.90005-9.66273-5.79447-6.83232-4.1457-13.66669-8.29289c-.46572-.27442-.88225-.51944-1.32121-.778-.09462.095-.39561-.05956-1.98822-1.086-2.24945-1.41394-4.12855-2.59455-6.28149-3.94779-1.03925-.657-1.74283-1.0811-1.95279-1.20021.98911.64722,1.76638,1.1561,3.22443,2.10978,4.20035,2.70952,8.36281,5.4081,12.48891,8.13684,2.8895,1.90963,5.81822,3.82642,8.71055,5.63427,2.38986,1.4931,4.58955,2.92362,7.01277,4.54187,4.54338,3.01823,9.214,6.29016,13.91039,8.87679a19.34618,19.34618,0,0,1,3.4097,2.385,13.9181,13.9181,0,0,0,2.62527,1.878,49.01326,49.01326,0,0,1,4.59935,2.95114c2.48617,1.75809,5.092,3.49244,7.76912,5.17552.72544.45573,1.45578,1.00608,2.21929,1.53909-.4218.35018-3.70937-1.6714-4.28252-1.50856,1.29444,1.20775,3.44645,2.33785,4.95651,3.523a44.964,44.964,0,0,0,5.79541,4.06653c.036-.22353-.163-.614.20243-.58578a13.46329,13.46329,0,0,1,2.12373,1.21415c1.80653,1.22283,3.709,2.49843,5.31857,3.7254,2.88781,2.21081,6.29563,4.088,9.10541,6.36065.70867.57673,2.06456,1.265,3.12567,1.92621a132.90762,132.90762,0,0,1,13.22038,9.62956,41.19665,41.19665,0,0,0,7.92461,5.7858,30.391,30.391,0,0,1,5.2577,3.66923,25.53075,25.53075,0,0,0,5.34684,3.42421,20.06146,20.06146,0,0,1,4.353,2.2994c.52811.4448,1.73472,1.39584,2.695,2.296a22.87917,22.87917,0,0,0,3.45512,2.748,70.00186,70.00186,0,0,1,9.4164,7.23027,20.44008,20.44008,0,0,0,4.4382,3.20671,21.6464,21.6464,0,0,1,2.80979,1.71814l.0098.3566c-7.31321,3.96249-14.49089,8.18282-21.6356,12.44009-12.29422,7.32074-24.57279,14.67126-36.75693,22.1556-7.33488,4.50342-14.49787,9.26015-21.67593,13.98823-6.90968,4.54676-13.72041,9.22622-20.60445,13.81332-6.8848,4.58823-13.85856,9.06149-20.717,13.69006-4.31042,2.90968-8.71395,5.658-13.28088,8.16775A138.16449,138.16449,0,0,0,6.51976,355.0094a17.242,17.242,0,0,0-6.20139,8.815c-1.115,3.76384.65854,7.69882,5.95656,7.54917a17.06775,17.06775,0,0,0,7.79815-2.11846c5.8431-3.16072,11.728-6.23324,17.47615-9.561,7.00372-4.05485,13.91755-8.27329,20.92636-12.30816,7.997-4.60671,15.91388-9.36193,23.81173-14.14127,5.40206-3.27,10.77209-6.59926,16.13363-9.93941q4.94889-3.08327,9.86723-6.22043c4.37035-2.78754,8.7409-5.5732,13.07243-8.42822,3.522-2.322,6.9943-4.73411,10.49371-7.09645,3.36334-2.26962,6.7785-4.45743,10.08906-6.807l24.44632-17.39962,1.55341,57.34234c.05108,1.87684.1717,3.75292.25426,5.62975.18923,4.29157.40559,8.58126.54525,12.87585q.33813,11.663.67644,23.33092l.37752,16.90695c.12816,5.36061.46873,10.71669.41539,16.08558a19.53483,19.53483,0,0,0,.13948,2.37931c.33925,2.87273.29477,5.85063.42859,8.77953.14211,3.18485.0916,6.38666.41785,9.57679a82.06431,82.06431,0,0,1,.23069,14.87632c-.07294.90506-.033,2.05815-.00716,3.09551l.19959,6.44283.88659,29.75113q.14334,4.41823.28648,8.83043c.09443,2.944.09254,6.10055.31136,8.77539.256,3.18409.03091,5.78127.09612,8.64911.02337,1.063.08538,2.12373.12534,3.18786.17076,4.50493.39523,9.04265.47232,13.50611.13947,6.44735.27856,12.86756.41766,19.29757.06577,2.68237.05956,5.5438.19488,8.01319.20054,3.69336.272,7.27212.29383,11.00241.00453.77991.03807,1.60015.06314,2.394.09631,3.18824.19243,6.36367.28912,9.56246.08048,3.19013.12157,6.43039.26669,9.49838.14287,3.14376.04241,6.37271.14965,9.56962.0409,1.28842.04354,2.78189.0933,3.96552.18866,4.59011.22485,9.46181.30514,14.254q.07068,4.4058.14154,8.795c.04618,3.18523.09217,6.36141.13834,9.5455q.07493,6.7721.15022,13.54645c.00716.45724.01357.867.02035,1.29821a8.512,8.512,0,0,1,.05353,1.91528c.00773,2.25228.01414,4.13326.02168,6.28865.00678,1.01928.01149,1.69138.013,1.92923.004-.9959.00679-1.78372.01244-3.25307q.01923-6.3565.03845-12.63687c.0049-2.93681.0098-5.903.01451-8.795.00434-2.38948.00848-4.61311.01282-7.08364.03034-4.624.11987-9.45578-.01866-13.98936-.03751-1.178-.01075-2.6051.06257-3.52561a25.68387,25.68387,0,0,0,.06276-2.73364c-.0458-1.55491-.03486-3.00768-.00094-4.63309.05372-2.57946.07483-5.23281.0622-7.91368-.00339-.726.02431-1.4995.0392-2.28884.21411.138.24238,3.40914.42218,3.74123.13062-1.4784.04769-3.53014.12421-5.151.09292-1.93714.18565-3.872.13042-5.9984-.08688.07765-.17961.39957-.2518.12665-.03656-.13871-.05956-1.36229-.0507-2.07058.02394-1.84894.04429-3.79061.11573-5.502.13268-3.074.023-6.36366.19865-9.41093.0458-.7701-.01923-2.05211-.02563-3.11172-.02111-3.44569.1781-10.80488.45648-13.84649a64.10562,64.10562,0,0,0,.29251-8.30647,45.9389,45.9389,0,0,1,.13269-5.43222,38.03325,38.03325,0,0,0,.01131-5.38284,29.55167,29.55167,0,0,1-.1913-4.15663c.045-.58125.12062-1.878.24143-2.97639a33.23034,33.23034,0,0,0,.23164-3.72577,96.543,96.543,0,0,1,.54205-10.03365,28.52549,28.52549,0,0,0,.17566-4.6361c-.17019-2.607.19507-5.27165.0507-7.90125a68.41178,68.41178,0,0,1,.426-7.706c.03563-.79612.114-1.61787.10819-2.3778-.05164-5.90944.40692-11.67413.52321-17.53269.10385-5.88267.62328-11.71183.46666-17.64388-.0196-.70415.11949-1.538.16623-2.32616.29666-5.03906.57221-10.094.63422-15.22312.01282-1.07166.01489-2.15539.06408-3.21726q.80064-16.01961,1.6011-32.03621.843-16.85643,1.68741-33.74341.83486-17.69157,1.67046-35.40726c.14324-2.95152.19243-5.92452.38882-8.85907.95576-14.19367,1.501-28.44124,1.98992-42.67448q.0735-2.1311.14475-4.26217c2.72421,1.97069,5.42713,3.96287,8.23786,5.83782,5.77788,3.843,11.11756,8.24577,17.19965,11.72728a25.23047,25.23047,0,0,1,2.17462,1.68986c4.76766,3.572,9.58319,7.10475,14.6673,10.385,1.06168.68567,2.14485,1.36531,3.16487,2.094,10.2634,7.32677,20.48119,14.6984,30.78436,21.9822q16.23786,11.50468,32.62632,22.84466c11.44739,7.91783,22.986,15.72823,34.50937,23.55069l2.17537,1.45088.2731.18018.1195.07765.01376-.00113.05522-.00377.1095-.00829c.08312-.023.11761.02865.15512.06521a.42442.42442,0,0,1,.04749.05918c.00792.023-.01677.063-.02732.09311-.03808.0784-.04562.1455-.16492.20468l-.13853.0818-.0343.01847-.01206.37393-.02111.78594-.14174,6.28715q-.108,6.28922-.14644,12.58522c-.06691,8.39392-.01791,16.79349.02846,25.18891q.26547,41.82221,1.256,83.64553c.42143,16.77916,1.13538,33.54739,1.8218,50.31035q1.046,24.19565,2.09132,48.37358.98751,24.20244,1.97559,48.42636c.442,10.14108.79461,20.2618,1.11351,30.39572.45649,14.57174,1.23093,29.09976,1.98483,43.58142.39863,7.43985.82891,13.99991,1.07054,19.52373.28705,5.83254.04222,7.13.25218-1.682.14211-4.624.29289-9.53532.46063-14.99355.37167-12.91166.84475-25.79769,1.321-38.73234.57353-15.76027,1.1333-31.54843,1.82613-47.29513q1.20916-26.95662,2.4204-53.96186.823-18.46226,1.64689-36.943.484-11.36842.9682-22.74515c.40126-10.10866.83607-20.21581,1.16967-30.33315.28818-8.22692.44631-16.46855.67135-24.70189.2224-7.9118.51981-15.82171.62951-23.73238l.23634-23.76555.14174-23.76555.06125-23.76555v-8.85266l.15417-6.0557.02074-.75767C352.1495,364.26163,352.06638,364.24429,352.018,364.20848ZM311.46927,169.21766c.151-.10178.32079-.19149.48194-.28724-.0965.072-.19376.1504-.28913.21449-.36017.23785-.71771.4742-1.49517.988C310.86239,169.64436,311.164,169.43214,311.46927,169.21766Zm-25.19814,15.83113.77576-.49983c-.01357.02638-.02092.06446-.04146.07765l-.78858.504C286.23456,185.1027,286.24436,185.06651,286.27113,185.04879Zm-13.24677,8.33436a7.10681,7.10681,0,0,1,1.64765-1.24205c.958-.45158,1.95316-1.00382,2.98487-1.58432.07841-.0441.18509-.05164.14645-.01319a6.35985,6.35985,0,0,1-.48118.42407c-.09235.07463-.26236.17377-.44348.29213a29.31383,29.31383,0,0,0-2.73119,1.72191c-.72223.524-1.37662.84814-1.34439.72337A.724.724,0,0,1,273.02436,193.38315ZM260.31588,200.849c.63723-.43689,1.30443-.86246,2.49842-1.64275.41879-.24426,1.36569-.79687,2.29468-1.33892a.33633.33633,0,0,1,.30891-.01244,1.01849,1.01849,0,0,1-.26462.23823l-4.79593,3.00429c-.08368.052-.26594.10818-.25614.08066A.61926.61926,0,0,1,260.31588,200.849ZM324.56149,57.05965c.07389-.05088.16021-.09122.24087-.13683-.04655.03694-.09291.07878-.13966.11045-.17716.118-.35339.23484-.73618.48966C324.26559,57.27565,324.413,57.16784,324.56149,57.05965Zm-12.50342,7.69958.38336-.24539c-.00453.0162-.00434.04108-.01451.04749l-.39034.24653C312.04356,64.79127,312.04469,64.7679,312.05807,64.75923Zm-6.57174,4.056a2.34357,2.34357,0,0,1,.79329-.64308,15.88118,15.88118,0,0,0,1.51534-.71582c.03939-.02074.09932-.0132.0818.00829a2.168,2.168,0,0,1-.22448.22881,2.39509,2.39509,0,0,1-.21844.14475,9.4929,9.4929,0,0,0-1.35457.83871c-.35.26763-.68511.409-.68134.32908A.31394.31394,0,0,1,305.48633,68.81521Zm-6.36687,3.5339c.31193-.219.64213-.42746,1.23112-.8127.21-.11535.68435-.37582,1.15064-.63215a.1771.1771,0,0,1,.17452.02828c.01169.00753-.07218.098-.12269.12929L299.17223,72.521c-.04165.02526-.1389.04184-.13664.0245A.27555.27555,0,0,1,299.11946,72.34911ZM56.479,183.73776c-.30175-.187-.58164-.44065-.87208-.66343.20846.10894.43387.20808.62272.32757.70773.45648,1.41.9092,2.93738,1.89455C57.72876,184.469,57.09813,184.1215,56.479,183.73776ZM104.178,216.823l-1.4997-.99553c.06521-.00754.1521-.0441.19187-.01809l1.5144,1.01852C104.31485,216.82792,104.23041,216.85694,104.178,216.823Zm25.99445,17.29709a1.27084,1.27084,0,0,1-.8029-.05843,10.43188,10.43188,0,0,1-3.5684-1.87872c-1.50629-1.435-3.24421-2.82335-5.06036-4.25538-.13759-.10856-.21467-.32493-.111-.29327a9.28442,9.28442,0,0,1,1.17212.4693c.21034.09914.517.331.87.56128a41.93634,41.93634,0,0,0,5.2,3.55238C129.39068,233.06993,130.45141,234.03228,130.17247,234.12011Zm22.34106,17.01476c-1.28974-.77991-2.57608-1.63295-4.9158-3.137-.76276-.56015-2.49315-1.81614-4.16718-3.08382a.65975.65975,0,0,1-.21656-.61519,1.592,1.592,0,0,1,.65175.25671q4.56325,3.10756,9.12218,6.2125c.15851.10857.38863.4105.327.42219A1.12517,1.12517,0,0,1,152.51353,251.13487Zm17.4867,360.396c-.00849-.19828-.02356-.40447-.02451-.59407-.00075-.71395-.0015-1.42224-.003-2.96321.03166,1.40452.04542,2.01367.05937,2.63074C170.03472,610.9055,170.01135,611.22138,170.00023,611.53086Zm.83155-48.59335a.39457.39457,0,0,1-.05278-.12778l.01659-1.54738a.48527.48527,0,0,1,.04806.14927Zm.589-23.99285c-.18772,1.73359-.2959,3.61043-.39994,5.563-.00792.14814-.07313.30269-.08689.2141-.0441-.285-.08293-.654-.11176-1.0498-.01433-.19526-.00076-.52019.00037-.87792.079-1.67516.14664-3.38274.08161-5.33761a6.16969,6.16969,0,0,1,.16982-2.51425,1.4095,1.4095,0,0,1,.18376.59784A15.453,15.453,0,0,1,171.42076,538.94466Zm.7833-22.80056c-.03317.801-.1078,2.61113-.18112,4.38694a.59209.59209,0,0,1-.1996.438,2.18283,2.18283,0,0,1-.06672-.582q.082-4.67889.164-9.35438c.0032-.16285.06992-.46591.09178-.42747a1.19674,1.19674,0,0,1,.19564.59521C172.22555,512.47789,172.211,513.78628,172.20406,516.1441Z"/><path class="cls-1" d="M59.74846,188.99433c1.989,1.35739,2.22268,1.45087,3.62079,1.579-4.23277-2.495-4.2797-2.54969-9.56868-6.12091-1.291-.87189-2.61829-1.73774-3.92084-2.58135a4.51169,4.51169,0,0,0-.96028-.501,3.92659,3.92659,0,0,0,.80648.7196Q54.7257,185.5343,59.74846,188.99433Z"/><path class="cls-1" d="M8.13933,153.86826c.16359.10517.32681.21034.49173.31626l.00622.0034-.14664-.09575C8.37285,154.01716,8.25637,153.9429,8.13933,153.86826Z"/><path class="cls-1" d="M5.21665,152.00085c.29835.1915.81383.52246,1.17288.75277.59954.38223,1.17269.74712,1.7498,1.11464-.51774-.33284-1.034-.66456-1.57245-1.011C5.606,152.24625,4.69438,151.66876,5.21665,152.00085Z"/><path class="cls-1" d="M88.65165,208.569a3.56654,3.56654,0,0,0-.47383-.22881l.592.45837.6542.39844C89.16976,208.98736,88.93285,208.7774,88.65165,208.569Z"/></g></g></svg>