<svg xmlns="http://www.w3.org/2000/svg" viewBox="0 0 422.89303 672.20068"><defs><style>.cls-1{fill:#24373e;}</style></defs><g id="Слой_2" data-name="Слой 2"><g id="Слой_1-2" data-name="Слой 1"><path class="cls-1" d="M409.115,489.27694c.098.071.19224.13928.29251.212.24954.17754.49682.35339.7441.53-.3385-.24257-.67625-.48457-1.017-.729Z"/><path class="cls-1" d="M422.86918,206.51242l-.19-5.41893-.19376-5.4441-.098-2.73156-.049-1.36805-.01281-.34227-.006-.17123-.003-.08557a.15812.15812,0,0,0-.003-.03986l-.03543.02375-.56316.38025-9.06037,6.11459c-2.99,1.98568-6.20233,4.26217-9.35966,6.45329l-4.7669,3.32-2.39288,1.66631L394.65,209.87877l-11.24291,7.62834Q352.65249,238.3922,321.86851,259.298q-4.261,2.90162-8.52434,5.80521-23.784-31.25315-48.16287-62.0595c-11.21048-14.11177-22.72705-27.981-34.21045-41.86752q-1.22019-1.46643-2.43811-2.93182,8.97443-13.50518,17.95185-27.01561,14.4647-21.625,28.94145-43.26931Q284.4717,74.33386,293.727,60.901c8.85606-12.90987,17.34421-26.03592,25.82483-39.10514,4.34472-6.72356,8.09085-12.71433,11.37559-17.663,3.4325-5.25072,4.52641-6.17283-1.34873,1.24733-3.08194,3.888-6.4383,7.96626-10.10753,12.54291-8.67738,10.82137-17.446,21.53985-26.25,32.29733-10.7197,13.11333-21.44241,26.26124-32.282,39.26789q-18.57872,22.2472-37.19137,44.53473-3.84489,4.60694-7.69354,9.21849-9.16781-11.02309-18.34012-22.05061-16.576-20.05236-33.1663-40.12263c-6.97583-8.38-13.8431-16.81337-20.68247-25.28475-9.83236-12.18311-19.97683-24.07531-30.07-35.94376-5.19738-6.08859-9.864-11.394-13.66443-15.958-4.04693-4.79339-4.61763-6.10545.80894,1.64916,2.8422,4.06644,5.78844,8.45046,9.12218,13.27654,7.88277,11.41338,15.6404,22.88528,23.42517,34.40157,9.4931,14.02677,19.01862,28.06636,28.376,42.17662q15.9936,24.173,32.01585,48.38989,4.80384,7.25581,9.613,14.519-2.59869,3.11351-5.19588,6.2257-7.80738,9.40316-15.62079,18.8129c-6.91175,8.3844-13.85818,16.74053-20.70284,25.18618-5.58338,6.8538-11.03784,13.82435-16.55789,20.73394-5.312,6.63535-10.7016,13.20888-15.8922,19.93282l-14.76286,19.31622-.34076.44951c-3.6044-2.66079-7.061-5.59271-10.86822-7.96485-5.64444-3.502-9.41847-7.60817-14.31353-11.43157-1.49122-1.16345-2.97338-2.44527-4.45555-3.47387C73.24453,238.094,62.7216,229.28537,51.50433,221.06033c-2.81582-2.06418-5.59318-4.16907-8.357-6.28875l-2.15992-1.65641-3.36465-2.53244-6.78736-5.10353q-3.4276-2.55939-6.86049-5.12208-3.37783-2.36673-6.76323-4.73845-3.3801-2.3444-6.7278-4.60868l-3.31942-2.22438-.41238-.27329-.20506-.13617-.10253-.06795c-.03317-.02035-.08067-.06832-.06484.00566l.01433,1.08363.03694,2.17349c.052,2.74231-.24653,5.419-.34,8.31759-.31965,9.12868-.52848,18.95-.7064,28.86728q-.095,4.87919-.19074,9.782-.06333,4.537-.05277,9.10258c.00754,2.54394.03845,5.11718-.03167,7.63775-.70188,25.35883-1.48744,50.68975-2.11167,76.0679q-1.01323,40.02456-1.73246,80.12123-.3189,21.00369-.637,42.02754l-.13042,10.567L.36883,484.2848.19167,504.776.08386,515.12344l-.055,5.18984-.02714,2.59888c-.009.04524.02036.01414.04071,0l.06484-.04655.12816-.09311.25784-.186.51566-.37224,1.03058-.74485q8.29818-6.03479,16.62876-12.09293c5.57735-4.08255,11.05745-7.9919,16.576-11.8922l10.051-7.1023,3.863-2.7178,2.59568-1.80654,10.36536-7.26193q10.31448-7.33851,20.64026-14.68483c13.74283-9.82737,27.40349-19.78666,41.05963-29.73813q4.961-3.619,9.91227-7.25167c2.54893,2.51642,4.61236,5.54465,6.91024,8.32588,2.56628,3.11681,4.83024,6.48655,7.73049,9.36155a61.50093,61.50093,0,0,1,11.33638,15.04444,23.54546,23.54546,0,0,0,2.267,3.19955c1.67592,2.14258,3.39858,4.24963,5.09787,6.37459l23.63173,29.36957c2.34387,2.90515,4.72921,5.773,7.10776,8.64779,1.72643,2.09358,3.43251,4.37743,5.16874,6.39675-.56543.86434-1.109,1.74405-1.67215,2.61254-3.11285,4.79311-6.09377,9.73718-9.35212,14.35707q-7.04067,10.025-13.8333,20.16474c-1.89682,2.82241-4.09971,5.69911-5.66933,8.42879a123.17729,123.17729,0,0,1-7.686,11.64586c-.58428.79612-1.12558,1.6876-1.66838,2.53725-2.17726,3.41177-4.32965,6.82185-6.55516,10.21439-2.21646,3.38577-4.5724,6.7474-6.525,10.136-2.00839,3.46775-4.71413,6.5512-6.8537,10.005-.86472,1.38982-1.98652,2.91288-2.74721,4.21487-2.96207,5.04019-6.53028,10.07417-9.91679,15.11832q-3.111,4.639-6.21063,9.26034-3.38349,5.02295-6.76172,10.03534-4.84116,7.08618-9.68459,14.17463c-.31966.48457-.60538.91825-.90694,1.37492.12363.12817-.055.44575-1.259,2.08586-1.654,2.32351-3.0367,4.26443-4.62065,6.48824-.77048,1.07469-1.26655,1.806-1.40376,2.024.75993-1.01748,1.35627-1.81623,2.47656-3.31583,3.17693-4.32494,6.3418-8.60822,9.54663-12.84344,2.2421-2.96621,4.49173-5.97635,6.60718-8.96593,1.74678-2.47034,3.425-4.7328,5.3263-7.21708a176.144,176.144,0,0,0,10.40079-14.342,16.77152,16.77152,0,0,1,2.80979-3.47416,12.09114,12.09114,0,0,0,2.21495-2.66692,42.42622,42.42622,0,0,1,3.45965-4.73882c2.07247-2.52952,4.1095-5.20228,6.07944-7.9674.53376-.74918,1.18513-1.48574,1.81313-2.264.45611.55657-1.90736,3.961-1.67667,4.6559,1.443-1.26,2.74947-3.52637,4.15474-5.03982a38.9595,38.9595,0,0,0,4.79178-5.90266c-.28045-.08556-.75766.06785-.73957-.349a11.71627,11.71627,0,0,1,1.41205-2.2176c1.43769-1.84856,2.9372-3.798,4.39-5.41827,2.61754-2.90515,4.7948-6.47713,7.493-9.27975a34.19933,34.19933,0,0,0,2.25189-3.23612,115.24062,115.24062,0,0,1,11.37107-13.396,35.75834,35.75834,0,0,0,6.83334-8.02733,26.362,26.362,0,0,1,4.32211-5.35928,22.1016,22.1016,0,0,0,4.013-5.51006,17.53588,17.53588,0,0,1,2.659-4.582c.52924-.52339,1.65707-1.7317,2.73289-2.66541a19.93531,19.93531,0,0,0,3.25986-3.45568,59.27646,59.27646,0,0,1,4.63045-5.602c.63554.74805,1.28766,1.48424,1.92546,2.23361,3.70089,4.35528,7.58347,8.62744,11.07629,13.07281q7.58913,9.61731,15.35769,19.02974c2.16067,2.62564,4.28591,5.56057,6.45111,7.84621a123.23529,123.23529,0,0,1,8.95633,10.69972c.59558.7882,1.29444,1.56227,1.95335,2.3254,2.64544,3.06328,5.29615,6.10187,7.90841,9.20643,2.60924,3.09325,5.15516,6.31316,7.84281,9.155,2.74721,2.91721,4.926,6.39307,7.62268,9.432,1.08336,1.227,2.22174,2.73741,3.25082,3.83942,3.98059,4.28215,7.78175,9.14254,11.64473,13.832q3.55313,4.30966,7.09268,8.60256,3.84376,4.68142,7.67847,9.35306,5.40207,6.66862,10.8064,13.33931c.37242.445.7064.843,1.05772,1.26241.15756-.08123.41087.18093,1.63747,1.8037,1.75206,2.251,3.21613,4.13118,4.8928,6.28545.80668,1.04377,1.36456,1.727,1.5357,1.9231-.75692-1.01861-1.351-1.81925-2.466-3.32083-3.23347-4.28252-6.43076-8.54168-9.57075-12.825-2.19988-2.99826-4.439-6.01536-6.69765-8.89865-1.86665-2.38138-3.55312-4.63743-5.38887-7.17072A175.98493,175.98493,0,0,0,296.0942,622.2927a16.76168,16.76168,0,0,1-2.52331-3.68751,12.10377,12.10377,0,0,0-1.92093-2.88631,42.4494,42.4494,0,0,1-3.54936-4.67172c-1.82971-2.71027-3.80719-5.4277-5.89248-8.10744-.56467-.72563-1.08411-1.56038-1.64953-2.38515.66419-.27781,3.24855,2.96151,3.98059,2.94-.79386-1.74377-2.59115-3.64435-3.63832-5.42412a38.96866,38.96866,0,0,0-4.2829-6.28168c-.16209.24389-.15229.74505-.54658.60821a11.70748,11.70748,0,0,1-1.71964-1.988c-1.35929-1.90718-2.79773-3.902-3.93385-5.75772-2.034-3.34-4.8325-6.44942-6.74439-9.83763a34.26686,34.26686,0,0,0-2.4562-3.08421,115.19542,115.19542,0,0,1-9.57679-14.73232,35.78259,35.78259,0,0,0-5.73416-8.84607,26.34422,26.34422,0,0,1-3.89615-5.67611,22.09515,22.09515,0,0,0-4.12986-5.42336,17.5137,17.5137,0,0,1-3.62852-3.85978c-.34981-.657-1.18437-2.0834-1.77091-3.382a19.97881,19.97881,0,0,0-2.377-4.11328,60.9072,60.9072,0,0,1-6.61924-10.91552c-.24426-.51115-.50964-1.03058-.79461-1.54531a29.04032,29.04032,0,0,0,3.241-4.32851c1.734-3.1153,4.37036-4.78613,6.53254-7.30434a30.11965,30.11965,0,0,0,1.9624-2.29337c4.23918-6.1733,9.37927-11.44928,13.88457-17.3444,4.5151-5.92631,9.74717-11.2363,13.79711-17.58536a21.90636,21.90636,0,0,1,2.00161-2.18292c4.22485-4.81148,8.39844-9.686,12.24408-14.9207.80441-1.093,1.59977-2.21213,2.45922-3.24846,7.7908-9.40179,15.61929-18.763,23.37918-28.19462,7.32488,4.85332,14.76436,10.05589,22.16615,15.11964q8.63742,5.90544,17.24092,11.78788,9.35778,6.41475,18.69671,12.81582,13.23207,9.137,26.46866,18.277c.90015.61018,1.70457,1.15525,2.5527,1.72991.147-.10988.72375.24954,3.82227,2.47251,4.36734,3.08326,8.017,5.65952,12.19734,8.61085,2.00839,1.42374,3.36541,2.35707,3.77855,2.63036-1.92245-1.39264-3.43552-2.48834-6.274-4.54432q-12.25955-8.79942-24.31929-17.567c-5.63314-4.10677-11.3379-8.23937-16.95219-12.18933-4.63874-3.2625-8.92164-6.35283-13.6501-9.82237-8.86058-6.48071-18.00991-13.405-27.04313-19.27806a58.58414,58.58414,0,0,1-6.678-5.04961,42.14246,42.14246,0,0,0-5.15215-3.952c-1.697-1.10908-3.30133-2.22862-4.90939-3.39462.19526-.23814.39278-.47354.588-.71178,5.95807,4.05316,7.02182,4.86426,16.25256,11.68592,2.521,1.86335,5.10616,3.73208,7.64077,5.55671a13.68,13.68,0,0,0,1.84027,1.15761,11.58508,11.58508,0,0,0-1.61636-1.43533q-9.77958-7.32238-19.60515-14.67833a38.49819,38.49819,0,0,0-4.07709-2.81911q13.35194-16.26486,26.49881-32.72847,6.86764-8.63942,13.6878-17.32622l6.96678-8.92664,6.53857-8.54036L365.91961,336.1l-.8519-1.0843q-1.74378-2.20049-3.49131-4.40711l-1.76187-2.20789c-.591-.73618-1.18513-1.47255-1.71286-2.20845q-1.62954-2.21294-3.25533-4.421l-1.61184-2.21778-.8014-1.11238-.46666-.672c-8.05466-11.84452-16.54734-23.41518-25.16215-34.894q6.54309-5.00725,13.08543-10.01423,19.32622-14.82882,38.6366-29.64568l19.30284-14.8391,8.08708-6.19753.79009-.57626a2.81294,2.81294,0,0,0,.43726-.37676l.46591-.44424.47873-.45177.24351-.22853c.009-.00735.02261-.02384.02789-.02384l.00528.02884.0098.058.01884.11666.15305.96867a3.76073,3.76073,0,0,1,.06182.516l-.092.6346-.1832,1.3082.63328,24.24682q.6672,24.37249,1.3344,48.7332.8832,30.61689,1.48443,61.1779c.6084,29.32829,1.64124,58.56923,2.64694,87.716.5315,14.97461,1.10522,28.17737,1.42713,39.29559.19074,5.85743.20506,9.441.20657,9.35985-.01508-.01055-.10555-.07539-.29251-.20826-.579-.41408-1.58244-1.13217-2.2813-1.63238-1.14518-.815-2.23908-1.59412-3.34053-2.378.98685.70659,1.97145,1.41187,2.9975,2.14711,1.50026,1.06658,2.93493,2.08491,2.91684,2.07162h0c.00151-.10281-.01055-3.88447.12967-12.74514.18923-9.29945.39052-19.18872.61443-30.17747.49531-25.98757,1.12557-51.92341,1.76111-77.95669.76445-31.72079,1.51081-63.49728,2.43509-95.19112q.79952-27.12738,1.60129-54.28774l.20279-11.56227.05127-2.93474C422.86918,208.4196,422.92346,207.37564,422.86918,206.51242ZM134.20635,618.99967a9.79746,9.79746,0,0,1-.78557.87829c.1259-.21976.23823-.46082.37846-.65589.53527-.72865,1.066-1.45183,2.221-3.02446C135.05825,617.69806,134.65416,618.35923,134.20635,618.99967Zm38.96152-48.65856-1.1693,1.53871c-.01281-.07709-.06257-.18471-.03166-.22561l1.19719-1.55115C173.16712,570.18373,173.20783,570.287,173.16787,570.34111Zm20.28442-25.74454a9.13682,9.13682,0,0,1-2.172,3.75725,63.2565,63.2565,0,0,0-5.06244,5.01569c-.12892.138-.39429.18452-.35961.07087a8.22188,8.22188,0,0,1,.52924-1.26316,9.08266,9.08266,0,0,1,.65815-.89582,36.37009,36.37009,0,0,0,4.17962-5.31537c.98987-1.58847,2.13881-2.62621,2.2617-2.28639A1.33838,1.33838,0,0,1,193.45229,544.59657Zm99.98064,76.69815a9.82146,9.82146,0,0,1,.61669,1.004c-.17415-.1832-.37318-.36036-.52019-.55035-.54432-.72148-1.08562-1.4375-2.26094-2.99467C292.43024,620.10564,292.94817,620.68161,293.43293,621.29472ZM257.974,570.02786l1.13915,1.56095c-.07766-.01-.19526.007-.22542-.03411l-1.14291-1.59148C257.82249,569.98319,257.93331,569.97415,257.974,570.02786Zm-19.72427-27.10457a1.33635,1.33635,0,0,1,.86849.29591,9.134,9.134,0,0,1,2.97791,3.15676,63.2191,63.2191,0,0,0,3.3556,6.287c.095.16284.06333.43085-.03543.36508a8.24777,8.24777,0,0,1-1.05848-.86869,9.26761,9.26761,0,0,1-.67021-.88715,36.27966,36.27966,0,0,0-3.8954-5.52721C238.55433,544.34119,237.88863,542.94365,238.24975,542.92329ZM316.34469,424.4969c.585.40984,1.14744.914,1.7204,1.37445-.39881-.25124-.827-.49437-1.19342-.75456-1.37738-.98836-2.7442-1.969-5.71607-4.10206C313.9307,422.86753,315.14373,423.657,316.34469,424.4969ZM187.38641,219.31467c9.71475-13.93046,19.14528-28.05966,28.58184-42.17813q6.69237,10.05409,13.39,20.1147c6.05306,9.02333,12.06918,18.0721,18.20064,27.04916,4.96745,7.31282,10.08341,14.53518,15.12247,21.80343,4.83551,6.98959,9.5896,14.03676,14.54574,20.93551l11.00467,15.16648q-2.109,1.43617-4.21656,2.87151c-16.7999,11.48867-33.62392,22.939-50.38537,34.51106q-13.94111,9.596-27.80984,19.33649c-1.10522-.9191-2.083-1.75357-2.87462-2.46139a124.57483,124.57483,0,0,0-15.57933-12.11177,92.14216,92.14216,0,0,1-10.296-7.77271,77.31244,77.31244,0,0,0-10.39778-7.4292,60.31134,60.31134,0,0,1-8.34943-5.29153c-1.05245-.89921-3.4408-2.85153-5.37606-4.62791a68.88389,68.88389,0,0,0-6.84541-5.62983c-2.70424-1.93065-5.266-3.8578-7.71691-5.785Q163.227,253.81844,187.38641,219.31467ZM136.836,387.27443q-8.09688-11.91081-16.30157-23.75952-6.31014-9.054-12.67908-18.07738l-6.2438-8.77614c-.15832-.0818-.33322-.13448-.45686-.20723-.046-.1292-.08444-.24728-.11309-.35405l.04675-.03977c.13871-.09461.16811-.22843.31889-.28064.0965-.01008.19526-.01866.2993-.02082l.16058.00292.08444.007c-.01131.04118.08519-.08641.1553-.17283l.21939-.27121c9.62805-11.83029,18.81658-24.04685,27.88372-36.34936,7.46512,4.97083,14.98677,9.9052,22.2423,15.00062q18.80376,13.17622,37.67763,26.07352c2.32578,1.592,4.69378,3.265,7.04293,4.909q-2.178,1.5186-4.35527,3.03728c-13.0779,9.09118-26.21007,18.09839-39.19825,27.30972Zm.91372-98.52938c1.50026,1.1708,4.90035,3.804,8.20243,6.433a1.35247,1.35247,0,0,1,.53376,1.03887,4.60987,4.60987,0,0,1-1.22961-.65664q-4.06087-3.0181-8.11874-6.03337c.19526-.26688.389-.5347.58427-.80158Zm34.53086,28.42238a3.02774,3.02774,0,0,1,1.45277.40946,31.29706,31.29706,0,0,1,6.84314,4.32805c3.04048,2.82175,6.4858,5.66273,10.08114,8.603.27292.22306.46215.5886.26839.49814-.62423-.29195-1.40074-.71187-2.21194-1.1923-.40107-.23738-1.0057-.7179-1.69326-1.21528-3.10154-2.49965-6.286-5.01456-10.16482-7.56944C173.93082,319.10486,171.80105,317.193,172.28053,317.16743ZM75.80326,430.95508,36.99478,458.91759l-4.84531,3.50375L30.09132,463.916l.00151.03769a1.04336,1.04336,0,0,1-.003.1538c-.04222.02978-.11082.09829-.10554.015-.00076-.01348-.04071.008-.0671.01414-.01206.00584-.03016-.0017-.03393-.0328l-.02035-.1521-.11233-7.38284q-.08822-7.63974-.17792-15.28437-.17641-27.68546-.35207-55.38268l-.12666-40.13422c-.07313-12.72507-.55939-25.43779-.288-38.18416a54.45366,54.45366,0,0,0-.20883-5.64727c-.6001-6.81761-.4252-13.887-.61217-20.8391-.196-7.55982.00076-15.16158-.60764-22.732-.46892-5.86666-.74711-11.775-.78028-17.67687q-.02489-4.42656.14022-8.842l.04523-1.10276.006-.13429.00754-.01856.01507-.03685.03167-.07172a1.90934,1.90934,0,0,1,.14324-.258.90586.90586,0,0,1,.3679-.33624c.20054-.10017.19677-.2649.15907-.547-.03241-.2698-.07991-.55968-.13117-.87019l-.07841-.47694c-.02036-.064.02714-.01225.04222-.01611l.06785.0262.13872.05673.68755.30288c.12138.02827.2405.18291.36489.28921l.37846.35443.39655.36592.101.0932.03317.02865.22693.15728.45384.31448,1.81389,1.25825,7.254,5.033,29.0387,20.102q8.65665,5.92934,17.29973,11.84951c5.77034,3.94544,11.80456,8.39024,17.247,11.69722.76445.46506,1.49875.93286,2.21571,1.40188l-4.97875,6.57655L85.49162,307.32754l-7.2608,9.74773-6.83636,9.17891c-2.57608,3.28248-5.26222,6.565-7.88655,9.84584l6.29054,7.80078,1.16779,1.44108,1.09466,1.43646,2.19385,2.86049,4.01376,5.19615c3.36013,4.27264,6.75193,8.51879,10.063,12.83288q8.962,11.73851,17.92773,23.4819l8.792,11.66056-.377.269ZM206.307,530.4685a.75928.75928,0,0,1-.75616.12967c-.05956-.01489.13419-.50436.28874-.7032q2.49918-3.18957,4.99534-6.37611c.18546.25256.37846.50342.57372.75371-.426.57843-.90091,1.22189-1.45729,1.98276C209.29021,527.02732,207.80729,528.78165,206.307,530.4685Zm19.96477-8.31118c.55034.85511,1.80634,2.77831,2.993,4.69868a.76025.76025,0,0,1-.09273.76144c-.03091.05277-.4448-.2731-.59106-.47835q-3.42308-4.83891-6.8439-9.67366c-.11836-.16869-.21185-.57806-.13646-.57391a1.17927,1.17927,0,0,1,.8685.29232C223.48991,518.43965,224.46771,519.77745,226.2718,522.15732Zm50.20065-114.6601a15.63971,15.63971,0,0,0-1.63219,2.54073c-1.69024,3.275-4.08312,6.19489-6.14805,9.2806-2.25114,3.35137-4.83174,6.48552-6.75494,10.08784a61.50759,61.50759,0,0,1-11.16676,15.17081,23.48184,23.48184,0,0,0-2.41624,3.08835c-1.57264,2.21986-3.09853,4.47364-4.647,6.71074l-21.37,31.05406c-2.11242,3.07761-4.1766,6.18462-6.24982,9.28654-1.12934,1.68487-2.36348,3.389-3.51619,5.07892-1.3344-2.02733-2.1456-4.20515-3.47095-6.26839-.54658-.84983-1.03209-1.78655-1.63446-2.53725-4.70056-5.82971-8.28309-12.26613-12.64063-18.27141-4.38468-6.023-7.97324-12.55695-12.8962-18.25568a21.903,21.903,0,0,1-1.51836-2.54347c-3.39933-5.4259-6.87481-10.82053-10.7883-16.005-.81647-1.08363-1.66084-2.16614-2.40795-3.28634q-6.77266-10.15121-13.51214-20.31759,34.33822-25.1761,68.5287-50.5549,2.60549,1.82689,5.226,3.707c1.50478,1.07977,3.13923,2.1407,4.70961,3.18683,6.30335,4.19809,12.59313,8.36263,18.88744,12.61688,6.28,4.239,12.58258,8.65034,18.7525,12.54668,3.78532,2.39674,7.46435,5.06573,11.172,7.71644C279.528,403.55517,278.04207,405.556,276.47245,407.49722Zm6.862-9.31019c-.89413-.67474-1.80182-1.37926-2.73364-2.08293.291-.1619,1.645.57428,3.16864,1.46021Q283.55233,397.87586,283.33445,398.187Zm45.12088-62.08692-.00829.03261.003.008-.03995-.02582-.03242-.01913.03016-.01791C328.45684,336.06006,328.43648,336.09323,328.45533,336.10011Zm-22.58306-29.772L320.32,325.87893l7.2593,9.749.45385.60934.01885.02469c-.049.0687-.1063.15012-.184.26377-3.13094,4.44311-6.228,8.90874-9.41243,13.31669q-8.67927,11.94912-17.36306,23.90314L288.40744,390.9905c-1.38492,1.901-2.72837,3.83122-4.07181,5.762-1.86063-1.35438-3.80493-2.72026-5.42054-4.03713a136.31079,136.31079,0,0,0-11.35373-8.6019c-.01206.3319.43726,1.01607-.22466.82684a40.74247,40.74247,0,0,1-4.09518-2.7245c-3.52825-2.61207-7.242-5.34411-10.41814-7.88466-5.70174-4.572-12.25614-8.8341-17.83274-13.47152-1.38491-1.1562-3.918-2.72893-5.96108-4.15653q15.13077-11.24969,30.22986-22.5382,21.64107-16.20451,43.10948-32.61869Z"/><path class="cls-1" d="M251.244,371.9666c.50587.42585.98007.84521,1.53343,1.28.20657.1619.59709.36046.90393.54262l-1.17005-.94539Z"/><path class="cls-1" d="M289.432,611.55a109.43051,109.43051,0,0,1,7.39424,9.69741c.97329,1.3606,1.98954,2.72478,2.99,4.05692a3.979,3.979,0,0,0,.80441.84437,3.476,3.476,0,0,0-.51265-1.04906q-3.72954-5.34721-7.47642-10.71856C291.14108,612.26847,290.93,612.09527,289.432,611.55Z"/><path class="cls-1" d="M333.62331,672.04648c-.22994-.30288-.62724-.82684-.90468-1.19172-.46515-.60708-.91-1.18721-1.35777-1.77167.40032.52792.79913,1.05414,1.21529,1.60317C333.321,671.65577,334.02891,672.57327,333.62331,672.04648Z"/><path class="cls-1" d="M331.36086,669.08309c-.12515-.1651-.25029-.32983-.3762-.49625l-.00527-.00632c.03769.0508.07388.09942.11233.15144C331.18219,668.84957,331.27115,668.96614,331.36086,669.08309Z"/><path class="cls-1" d="M270.88681,583.85438a3.12624,3.12624,0,0,0,.40711.3958l-.41465-.69076-.51642-.64025C270.534,583.23034,270.68552,583.5368,270.88681,583.85438Z"/><path class="cls-1" d="M132.19268,626.26405a3.97321,3.97321,0,0,0-.57824,1.01192,3.47116,3.47116,0,0,0,.85794-.79121q4.05522-5.10494,8.12779-10.23344c1.59751-2.03345,1.70306-2.28525,1.79654-3.87655a109.29721,109.29721,0,0,1-7.17335,9.86233C134.19881,623.55887,133.18255,624.92362,132.19268,626.26405Z"/><path class="cls-1" d="M99.29778,669.00789c.11761-.161.23522-.32144.35434-.48363l.003-.0049c-.03769.04995-.07313.098-.11157.14909C99.46138,668.78219,99.38,668.89481,99.29778,669.00789Z"/><path class="cls-1" d="M97.09338,672.04347c.22391-.307.61217-.83815.88282-1.20832.45234-.6263.88583-1.22433,1.32158-1.82726-.39579.541-.79008,1.08-1.20171,1.64256C97.38062,671.64164,96.70437,672.58232,97.09338,672.04347Z"/><path class="cls-1" d="M163.619,586.67377a3.18159,3.18159,0,0,0-.26236.50286l.54356-.59445.46516-.67832C164.1158,586.15679,163.8655,586.38937,163.619,586.67377Z"/></g></g></svg>