<svg xmlns="http://www.w3.org/2000/svg" viewBox="0 0 310.91033 638.40331"><defs><style>.cls-1{fill:#24373e;}</style></defs><g id="Слой_2" data-name="Слой 2"><g id="Слой_1-2" data-name="Слой 1"><path class="cls-1" d="M306.31522,101.246c-.69585.44782-1.397.90393-2.06889,1.36531-.55487.38148-1.079.72526-1.66668,1.09881a38.308,38.308,0,0,0-3.27249,2.1995,3.59072,3.59072,0,0,1-.85436.50926,2.57825,2.57825,0,0,0-.66852.38525,8.93754,8.93754,0,0,1-1.08618.72487c-.62837.36753-1.26.76822-1.88305,1.19569-.16887.11572-.36244.21787-.55393.33133-.06144-.16472.69321-.69509.69246-.86736-.4039.14362-.84889.51982-1.26241.72224a7.85763,7.85763,0,0,0-1.46388.8504c.05616.046.17245.05767.14.14852a2.31844,2.31844,0,0,1-.46346.35772c-.44405.27291-.90845.56316-1.341.78255-.779.392-1.50252.97969-2.29412,1.33855a6.42544,6.42544,0,0,0-.71847.5036,20.58022,20.58022,0,0,1-3.4472,1.85912,6.47228,6.47228,0,0,0-2.076,1.10258,4.61078,4.61078,0,0,1-1.33214.7603,3.81121,3.81121,0,0,0-1.26731.83382,3.05124,3.05124,0,0,1-.89111.778c-.15586.06069-.493.213-.80365.30382a3.43386,3.43386,0,0,0-.97517.42746,9.90481,9.90481,0,0,1-2.59059,1.20549,2.8992,2.8992,0,0,0-1.16421.60726c-.53677.52133-1.32158.69359-1.87513,1.20134a7.02126,7.02126,0,0,1-1.99369.91938,4.84646,4.84646,0,0,0-.60519.2993c-1.36324.95858-2.9159,1.55266-4.34077,2.39062a39.664,39.664,0,0,0-4.34227,2.446,3.139,3.139,0,0,1-.6182.25256,32.74156,32.74156,0,0,0-3.84809,1.95524c-.25689.15869-.5119.32681-.78255.45988-2.7212,1.33855-5.47161,2.62658-8.2143,3.93648q-4.32267,2.07115-8.6525,4.14532-4.51493,2.20741-9.03549,4.4171c-.75484.36564-1.47349.79762-2.24775,1.12481-3.74726,1.579-7.32753,3.44156-10.87952,5.3395-5.90077,3.1479-11.78421,6.32484-17.576,9.63747-3.48735,1.99218-6.80526,4.23918-10.13938,6.459-3.21067,2.1324-6.3271,4.40088-9.51176,6.574-2.93,1.99934-5.92735,3.90407-8.84814,5.91886-.09066-7.853-.21015-15.70485-.27348-23.56275-.09933-12.30816-.01753-24.63329-.17717-36.9407q-.08989-6.85011.104-13.6893c.2748-.13156.55412-.25633.82628-.39241,3.38972-1.69627,6.68313-3.552,10.081-5.23017,3.87617-1.91755,7.666-3.97909,11.43779-6.06588,2.57984-1.42826,5.125-2.91344,7.66225-4.41031q2.34171-1.38191,4.65138-2.817c2.05249-1.27446,4.10535-2.5478,6.11695-3.88861,1.63539-1.09052,3.21764-2.26924,4.82929-3.39933,1.54907-1.08562,3.15036-2.08981,4.64685-3.25534l17.946-14.06211c.41766-.328.80479-.70188,1.20888-1.05056.92352-.79763,1.8348-1.613,2.78075-2.3778q2.56874-2.07793,5.17515-4.10008l3.79965-2.89611c1.201-.92352,2.30788-1.98916,3.59045-2.79244a2.03987,2.03987,0,0,0,.49682-.46553,12.67779,12.67779,0,0,1,1.87118-1.65934,16.97984,16.97984,0,0,0,2.06285-1.77694,8.29727,8.29727,0,0,1,3.38765-2.48,3.21618,3.21618,0,0,0,.72921-.4791l1.42355-1.141,6.5887-5.2445,1.94544-1.57226a19.3417,19.3417,0,0,0,1.9215-1.58017,13.29654,13.29654,0,0,1,1.98634-1.41658c.239-.18169.46063-.389.69265-.582.98157-.81873,1.94769-1.67856,2.96056-2.42755,1.46237-1.08411,2.905-2.184,4.34265-3.29681.60029-.46327,1.27409-.90618,1.7939-1.383a22.55209,22.55209,0,0,1,2.45149-1.91679c.18094-.12477.35848-.27555.53377-.41652.70546-.56279,1.40847-1.12369,2.116-1.68836.71281-.55261,1.45465-1.08675,2.11054-1.66348.67474-.58691,1.476-1.02455,2.17877-1.596.28422-.22881.63328-.464.889-.68265.994-.84362,2.12053-1.62956,3.20916-2.43246l2.00066-1.46973,2.178-1.58469,3.111-2.21835c.10253-.075.19715-.14437.29553-.21675-.01357-.03279.04863-.08481.42558-.33511.52622-.3581.96348-.65589,1.46558-.99741.2175-.15115.36-.25029.45121-.31362l.03355-.02186.06785-.04561-.10027.06672c-.239.15568-.43085.28045-.77388.50436-.99967.65363-1.99029,1.3016-2.98054,1.94958-.696.44782-1.39716.90355-2.06908,1.36531-.55487.38148-1.079.72525-1.66668,1.09881a38.21906,38.21906,0,0,0-3.27249,2.1995,3.57584,3.57584,0,0,1-.85436.50888,2.57055,2.57055,0,0,0-.66852.38562,8.93644,8.93644,0,0,1-1.08618.72488c-.62837.36715-1.26.76785-1.88305,1.19531-.16887.1161-.36244.21825-.55393.33171-.06144-.16472.69321-.69509.69227-.86736-.40371.14362-.8487.51981-1.2624.72224a7.86157,7.86157,0,0,0-1.4637.8504c.05617.046.17227.05767.14.14851a2.33238,2.33238,0,0,1-.46346.35773c-.44405.27291-.90845.56278-1.341.78255-.779.392-1.50252.97969-2.29412,1.33817a6.48322,6.48322,0,0,0-.71846.504,20.558,20.558,0,0,1-3.44721,1.85874,6.481,6.481,0,0,0-2.07605,1.10295,4.61058,4.61058,0,0,1-1.33214.76031,3.81144,3.81144,0,0,0-1.26731.83381,3.05116,3.05116,0,0,1-.8911.778c-.15587.06069-.49324.213-.80366.30382a3.44285,3.44285,0,0,0-.97517.42708,9.89409,9.89409,0,0,1-2.59059,1.20587,2.898,2.898,0,0,0-1.16421.60726c-.53677.52132-1.32158.69359-1.87513,1.20134a7.02126,7.02126,0,0,1-1.99369.91938,4.83485,4.83485,0,0,0-.60519.2993c-1.36324.95858-2.91609,1.55266-4.34077,2.39061a39.60315,39.60315,0,0,0-4.34227,2.446,3.16308,3.16308,0,0,1-.61839.25218,32.813,32.813,0,0,0-3.8479,1.95524c-.25689.15907-.5119.32719-.78255.46026-2.7212,1.33854-5.47161,2.6262-8.2143,3.93648q-4.32267,2.07116-8.6525,4.14532-4.51492,2.20741-9.03549,4.41709c-.75484.36565-1.47349.79725-2.24775,1.12482-3.74726,1.579-7.32752,3.44155-10.87971,5.33912-5.90058,3.14828-11.784,6.32522-17.576,9.63785-3.48716,1.99218-6.80507,4.23918-10.13919,6.459-3.21067,2.13241-6.3271,4.40089-9.51176,6.574-2.56137,1.74791-5.174,3.4227-7.74274,5.16157.14324-7.23593-.01847-14.45791-.54017-21.66443A28.51586,28.51586,0,0,0,164.515,46.419c-3.17806-4.44951-8.5087-5.439-11.97173,1.28276a28.85083,28.85083,0,0,0-3.10984,11.43741c-.65495,9.44372-1.41337,18.8701-1.86609,28.32739-2.60887-2.12147-5.27862-4.15662-7.85676-6.31843-3.31565-2.77585-6.72856-5.41488-10.15729-8.02752-2.346-1.78636-4.73034-3.51845-7.12209-5.23809q-2.2077-1.58772-4.451-3.12378c-1.99293-1.36569-3.98493-2.73251-6.02215-4.03374-1.65688-1.0581-3.373-2.03176-5.056-3.05217-1.6173-.98082-3.18145-2.04231-4.85077-2.94284L81.95417,43.964c-.46817-.25068-.96631-.45423-1.44824-.68379-1.10183-.52434-2.21533-1.0302-3.29624-1.58809q-2.936-1.51478-5.83669-3.08684L67.19263,36.293c-1.32913-.72714-2.75-1.31141-4.00189-2.16218a2.04174,2.04174,0,0,0-.62592-.26726,12.68052,12.68052,0,0,1-2.27244-1.04491,16.9931,16.9931,0,0,0-2.457-1.17306,8.29877,8.29877,0,0,1-3.63417-2.10225,3.20677,3.20677,0,0,0-.732-.47458l-1.61749-.844-7.45324-3.91953-2.22231-1.14781a19.43473,19.43473,0,0,0-2.22023-1.12293,13.27393,13.27393,0,0,1-2.09641-1.24771c-.26254-.14587-.54168-.265-.81176-.39994-1.14461-.56882-2.32031-1.1071-3.414-1.73246-1.58093-.90242-3.16864-1.78-4.766-2.64807-.66569-.363-1.3425-.8014-1.98822-1.08524A22.6029,22.6029,0,0,1,24.138,13.44874c-.18716-.11534-.39656-.2175-.59615-.32116-.79932-.41917-1.59582-.83683-2.3974-1.25712-.79273-.4301-1.58036-.89413-2.37233-1.26241C17.963,10.227,17.24,9.66982,16.43371,9.25631c-.3238-.16774-.67964-.39278-.98252-.539-1.1725-.56995-2.34538-1.28464-3.51864-1.95825L9.78186,5.51961,7.4542,4.16372l-3.283-1.95449-.3174-.18357c-.0245.026-.09706-.01018-.47816-.25444L1.87252.83148c-.222-.1357-.36734-.225-.46214-.28271.23521.1538.42652.27894.76539.50059Q3.677,2.027,5.16046,2.99254c.6902.45686,1.38981.91523,2.08265,1.3442.57258.35433,1.09843.69585,1.67686,1.08373a38.339,38.339,0,0,0,3.33092,2.10979,3.58813,3.58813,0,0,1,.81006.57711,2.57411,2.57411,0,0,0,.622.45686,8.89294,8.89294,0,0,1,1.10069.70226c.58936.42746,1.21039.84436,1.85252,1.24242.174.10781.34547.24389.5266.37356-.12628.12289-.91542-.35471-1.0728-.2846.294.31212.8176.56769,1.16911.8651a7.88249,7.88249,0,0,0,1.36776.99741c.0196-.07011-.0164-.18093.07992-.1881a2.34115,2.34115,0,0,1,.514.28008c.42859.29666.88093.605,1.25618.91259.67229.55525,1.50158.9812,2.14861,1.56133a6.49941,6.49941,0,0,0,.75032.455,20.55248,20.55248,0,0,1,3.08967,2.40682,6.48385,6.48385,0,0,0,1.84517,1.45653,4.60871,4.60871,0,0,1,1.23244.91335,3.81126,3.81126,0,0,0,1.27352.82439,3.04623,3.04623,0,0,1,1.07073.50248c.11836.118.39335.36564.60161.61329a3.44371,3.44371,0,0,0,.78368.72073,9.89632,9.89632,0,0,1,2.14673,1.88588,2.90054,2.90054,0,0,0,1.02455.821c.6934.28158,1.16684.93069,1.85459,1.233.73317.31588,1.076.97743,1.64425,1.455a4.82685,4.82685,0,0,0,.51756.43311c1.42619.86209,2.5953,2.0442,3.93592,3.01108a39.613,39.613,0,0,0,3.98718,2.99c.17566.09386.31306.31362.47986.4644a32.81309,32.81309,0,0,0,3.339,2.73515c.249.17114.50549.337.73618.53112,2.32088,1.95223,4.60708,3.95119,6.91043,5.9347q3.63626,3.12284,7.27815,6.25133Q70.96514,53.909,74.808,57.1572c.63855.54356,1.32309,1.02756,1.9345,1.60467,2.95416,2.79433,6.10018,5.32178,9.2675,7.80927,5.25732,4.134,10.53424,8.2405,15.898,12.20865,3.22782,2.39024,6.62037,4.52264,9.99464,6.68106,3.24459,2.08038,6.5757,4.01979,9.84706,6.06022,3.27192,2.04043,6.469,4.20525,9.76714,6.20534a37.26634,37.26634,0,0,1,5.85346,4.31947,30.1721,30.1721,0,0,0,8.746,5.652,5.07574,5.07574,0,0,0,.64553.22014c-.20148,5.61844-.40786,11.235-.67173,16.84513-.64081,13.70853-1.07185,27.4378-1.46407,41.16329q-.19733,6.92928-.34133,13.86346c-1.71964-1.36117-3.44249-2.71705-5.12538-4.128-3.31565-2.77623-6.72855-5.41526-10.15729-8.0279-2.34595-1.78636-4.73034-3.51845-7.12209-5.23809q-2.2077-1.5877-4.451-3.12378c-1.99312-1.36569-3.98492-2.73213-6.02215-4.03374-1.65688-1.0581-3.373-2.03176-5.05621-3.05216-1.61731-.98083-3.18127-2.04232-4.85059-2.94285L81.40288,138.47732c-.46817-.25067-.9665-.45423-1.44824-.68379-1.10182-.52434-2.21533-1.0302-3.29624-1.58809q-2.936-1.51477-5.83669-3.08646l-4.18037-2.31221c-1.32931-.72751-2.75-1.31179-4.00189-2.16256a2.04106,2.04106,0,0,0-.62611-.26726,12.6841,12.6841,0,0,1-2.27225-1.0449,16.9921,16.9921,0,0,0-2.457-1.17307A8.2941,8.2941,0,0,1,53.65,124.05673a3.21955,3.21955,0,0,0-.732-.47458l-1.61749-.84361-7.45324-3.9199-2.2225-1.14782a19.41769,19.41769,0,0,0-2.22-1.12293,13.266,13.266,0,0,1-2.09641-1.2477c-.26254-.14588-.54167-.265-.81195-.4-1.14442-.56881-2.32012-1.1071-3.41384-1.73246-1.58093-.90242-3.16864-1.77995-4.766-2.64807-.66569-.363-1.34269-.8014-1.98822-1.08524a22.55154,22.55154,0,0,1-2.74155-1.47236c-.18716-.11535-.39655-.21713-.59615-.32117-.79932-.41879-1.59582-.83645-2.3974-1.25675-.79273-.4301-1.58036-.89412-2.37233-1.2624-.80913-.38147-1.5323-.93861-2.33841-1.35174-.3238-.16812-.67964-.39316-.98252-.53942-1.17269-.57-2.34538-1.28464-3.51864-1.95825L9.23058,100.033,6.90272,98.67746,3.61987,96.7226c-.11007-.06333-.21185-.12251-.31739-.1832-.02451.02563-.09726-.01018-.47817-.25482-.5396-.33737-.98817-.61782-1.50327-.93974l-.46176-.28271c.23521.1538.42651.27894.7652.50059q1.50122.97763,2.98469,1.94355c.6902.45649,1.38982.91486,2.08265,1.34421.57259.35433,1.09843.69547,1.67686,1.08335a38.339,38.339,0,0,0,3.33092,2.10979,3.58275,3.58275,0,0,1,.80987.57711,2.582,2.582,0,0,0,.622.45686,8.97029,8.97029,0,0,1,1.10088.70226c.58936.42746,1.21039.84437,1.85252,1.2428.174.10781.34548.24351.5266.37318-.12628.12289-.91561-.35471-1.0728-.28459.294.31211.81742.56768,1.16911.86509a7.86315,7.86315,0,0,0,1.36776.99741c.0196-.07011-.01639-.18093.07992-.18809a2.32981,2.32981,0,0,1,.514.28045c.42859.29666.88093.60462,1.25618.91221.67229.55563,1.50139.98121,2.14862,1.56133a6.44677,6.44677,0,0,0,.75031.455,20.54173,20.54173,0,0,1,3.08948,2.40682,6.48775,6.48775,0,0,0,1.84536,1.45654,4.61135,4.61135,0,0,1,1.23244.91335,3.80677,3.80677,0,0,0,1.27334.82439,3.045,3.045,0,0,1,1.07091.50247c.11836.11836.39335.36564.60161.6133a3.43534,3.43534,0,0,0,.78368.72072,9.90079,9.90079,0,0,1,2.14673,1.88588,2.90054,2.90054,0,0,0,1.02455.821c.6934.28158,1.16685.93069,1.8544,1.233.73317.31589,1.07619.97743,1.64445,1.455a4.82579,4.82579,0,0,0,.51755.43311c1.42619.86209,2.5953,2.0442,3.93592,3.01108a39.69237,39.69237,0,0,0,3.987,2.99034c.17584.09348.31324.31325.48.464a32.81434,32.81434,0,0,0,3.339,2.73514c.249.17152.50549.33737.73618.53113,2.32088,1.95222,4.60708,3.95156,6.91044,5.93469q3.63624,3.12285,7.27814,6.25134,3.83811,3.2444,7.68092,6.49258c.63855.54356,1.32309,1.02794,1.9345,1.60467,2.95416,2.79433,6.10018,5.32178,9.2675,7.80927,5.25732,4.134,10.53424,8.2405,15.898,12.20865,3.22782,2.39024,6.62036,4.52264,9.99444,6.68106,3.24478,2.08038,6.57589,4.01979,9.84706,6.06022,3.27211,2.04043,6.46921,4.20525,9.76733,6.20534a37.26688,37.26688,0,0,1,5.85347,4.31947c.11647.1063.23672.207.35452.31136l-3.23367,3.84263-3.18409,3.86788-6.41,7.70485q-11.72154,13.86083-23.44816,27.72692L83.80782,260.02175c-5.394,6.36517-10.46921,12.99458-16.13288,19.14565a23.53036,23.53036,0,0,0-2.25982,2.94059c-2.46506,3.77665-5.62446,7.17259-8.45988,10.74608-3.08835,3.88145-6.49277,7.52693-9.27353,11.68318l-.40635.60236-.20468.30006-.10272.15c-.03393.04976-.059.08859-.14155.19451L45.184,307.91547q-1.64652,2.09094-3.29624,4.18641c-2.23116,2.76945-4.36865,5.4488-6.64581,8.14173l-1.71154,2.01593-.108.12628.09687.12741.19507.25557.389.51114.77293,1.0238q1.53966,2.04853,3.03237,4.12044l1.48537,2.08566c.2503.34906.48231.70037.74561,1.05094l.82024,1.05319q1.638,2.11356,3.26458,4.29572c.79951,1.07318,1.782,2.26622,2.81864,3.48151.29326.33737.59106.67964.88734,1.0204.27781.31136.55411.62084.82307.922,2.22532,2.49541,4.494,4.952,6.74137,7.42817l31.21351,34.22892c3.09419,3.38614,6.22664,6.73082,9.35269,10.08379,3.12284,3.35787,6.27169,7.13038,9.36757,9.95788,3.68148,3.37031,5.85045,6.83711,8.84588,10.14824,1.10974,1.22772,2.29469,2.38609,3.43948,3.5863,4.84211,5.08317,9.86647,10.07775,14.49975,15.25553q7.25016,8.0754,14.59059,16.01509-14.31909,17.9217-28.63517,35.83963-12.49843,15.73293-25.1859,31.25252C80.83142,531.04446,69.03742,546.19407,57.263,561.27885c-6.03779,7.75988-11.28192,14.67088-15.81983,20.38469-4.759,6.06135-6.12826,7.1398,1.70966-1.455,4.14286-4.47967,8.54658-9.24168,13.43995-14.53292,11.5488-12.537,23.17732-24.95973,34.85108-37.42772,14.21741-15.19823,28.44463-30.43567,42.77041-45.5163q8.47968-8.91109,16.9748-17.838l.51247,13.87364q.15831,3.9755.31663,7.94459c.10461,2.64845.11366,5.48877.34152,7.89484.26688,2.86406.0507,5.20153.1259,7.78175.02695.95632.09273,1.91075.13627,2.86821.18621,4.05258.42614,8.135.51849,12.15059.16172,5.80088.32267,11.57689.484,17.36231.075,2.41323.07859,4.9878.2224,7.20916.21316,3.32244.29685,6.54234.33153,9.8987.00735.70151.04353,1.43957.07143,2.15389.10724,2.86821.2141,5.72512.32172,8.60275.09141,2.8701.14381,5.78543.29949,8.54545.15361,2.82863.06408,5.73416.18244,8.61029.04543,1.15912.053,2.50294.10687,3.56783.20431,4.12948.25727,8.51228.354,12.8242q.08593,3.96363.1717,7.91293.08565,4.29837.17113,8.58843.09839,6.093.19677,12.18791c.00867.41125.01658.77991.02488,1.16817a6.91751,6.91751,0,0,1,.05993,1.723c.01546,2.02648.02846,3.719.04335,5.65839.01037.92051.01734,1.52665.0196,1.74151.00038-.89865.00057-1.60845.00113-2.93305-.0015-3.81285-.0032-7.59629-.00471-11.37031-.00528-2.64242-.01055-5.31122-.01564-7.91331-.02036-2.14936-.022-4.151-.0115-6.37346.01451-4.16077.08745-8.50851-.06672-12.58711a29.05223,29.05223,0,0,1,.05051-3.17241,20.82543,20.82543,0,0,0,.05334-2.46c-.05108-1.39886-.04523-2.70612-.01677-4.16869.04467-2.32088.05673-4.70886.03505-7.12058-.006-.65325.01923-1.34948.03129-2.05965.21448.12364.25406,3.06648.435,3.365.12552-1.33064.03562-3.17656.10649-4.63535.08651-1.743.17245-3.48415.10988-5.39717-.08651.07011-.1783.36-.25124.11459a18.61078,18.61078,0,0,1-.05786-1.86288c.01753-1.66386.03129-3.411.09688-4.95086.12194-2.76643.00113-5.72587.16623-8.46855.04316-.69284-.0262-1.84593-.03619-2.79961-.033-3.1.141-9.72229.40881-12.46007a51.91017,51.91017,0,0,0,.264-7.47454,37.23017,37.23017,0,0,1,.114-4.88828,30.79436,30.79436,0,0,0-.007-4.843,23.93921,23.93921,0,0,1-.20562-3.73972c.043-.52283.11421-1.68987.23107-2.67861a26.914,26.914,0,0,0,.219-3.353,78.24362,78.24362,0,0,1,.50757-9.02984,23.10225,23.10225,0,0,0,.15964-4.1717c-.17906-2.34538.177-4.74391.02374-7.10965a55.41951,55.41951,0,0,1,.39938-6.93474c.033-.71621.10856-1.45616.10027-2.13995-.07219-5.31687.36677-10.50521.46289-15.77685.01489-.93785.04524-1.87419.07992-2.81016.46591.4791.9305.94916,1.39245,1.39283,4.167,3.99755,7.942,8.098,11.74858,12.48194.79537.91749,1.701,1.82217,2.56043,2.71328,3.45173,3.5765,6.90478,7.1251,10.329,10.74721,3.4178,3.6093,6.79113,7.36032,10.24681,10.68653,3.535,3.414,6.558,7.44287,10.06042,10.99374,1.409,1.43316,2.93021,3.19088,4.25651,4.48005,5.13236,5.00966,10.17878,10.67031,15.25987,16.13872q4.67352,5.02549,9.32894,10.03177,5.05829,5.45917,10.10583,10.90591,7.12719,7.77345,14.25643,15.54879c.48909.51944.92636.98384,1.38718,1.47275.15643-.0867.481.22014,2.11959,2.10865,2.328,2.62131,4.2731,4.811,6.50125,7.32,1.07242,1.21416,1.80634,2.01027,2.03025,2.23984-1.01343-1.18438-1.80992-2.11507-3.30453-3.86223-4.321-4.98365-8.59785-9.93941-12.817-14.92042-2.95509-3.48679-5.95731-6.99657-8.95463-10.35444-2.47674-2.774-4.73505-5.39867-7.20709-8.34378-4.64062-5.502-9.34741-11.3737-14.34614-16.38148a25.28831,25.28831,0,0,1-3.43721-4.28215,18.19231,18.19231,0,0,0-2.63074-3.34958,64.07237,64.07237,0,0,1-4.73731-5.43712c-2.49918-3.1464-5.1595-6.30637-7.93027-9.42676-.7507-.84512-1.472-1.81237-2.2421-2.7702.66909-.29251,4.0884,3.48188,4.87943,3.483-1.19079-2.01065-3.50205-4.235-4.97574-6.29581a58.72494,58.72494,0,0,0-5.83763-7.294c-.13024.27178-.02469.84211-.47891.67248a17.60627,17.60627,0,0,1-2.2438-2.32088c-1.8365-2.21684-3.77515-4.53584-5.35966-6.686-2.83918-3.86976-6.46619-7.50394-9.18249-11.42421-.68379-.99289-2.149-2.36423-3.2495-3.59346a173.64191,173.64191,0,0,1-13.18325-17.0894c-.13-.21-.26255-.4169-.39354-.62536q9.91077-10.41512,19.81663-20.82459,16.80668-17.67177,33.63032-35.36052,10.32636-10.90139,20.65986-21.81069c9.15253-9.71927,18.33767-19.40688,27.4297-29.19363l2.77152-2.98581.7196-.77954,1.34627-1.50139L272.605,336.454l2.699-3.01522,1.35061-1.51006,1.21548-1.52062,4.86774-6.09452,1.21849-1.52627.30457-.38185c-.0343-.12665-.18923-.25256-.27781-.37883l-.62611-.7573-2.50615-3.03143c-1.68421-2.02648-3.31848-4.039-5.04943-6.08434l-5.14914-6.13071-1.20944-1.44334-.64458-.78934-1.28823-1.579c-6.59379-8.10065-13.10975-16.26387-19.81625-24.26538L227.45206,253.9898l-20.3372-23.87336-20.41823-23.80362-9.85818-11.43176c1.24808-.65778,2.499-1.31028,3.76573-1.936,3.876-1.91755,7.66584-3.97908,11.4376-6.06588,2.57984-1.42788,5.125-2.91344,7.66225-4.41031q2.34171-1.38189,4.65137-2.81694c2.0525-1.27447,4.10536-2.54743,6.117-3.88862,1.63539-1.09051,3.21764-2.26924,4.82929-3.39933,1.54907-1.08562,3.15036-2.08981,4.64685-3.25534l17.946-14.06211c.41766-.32795.80479-.70188,1.20888-1.05056.92352-.79762,1.8348-1.613,2.78075-2.3778q2.56874-2.07793,5.17515-4.10008l3.79965-2.89573c1.201-.9239,2.30787-1.98916,3.59045-2.79282a2.03257,2.03257,0,0,0,.49682-.46553,12.69881,12.69881,0,0,1,1.87117-1.65933,16.97755,16.97755,0,0,0,2.06286-1.77657,8.29409,8.29409,0,0,1,3.38784-2.48033,3.21936,3.21936,0,0,0,.729-.4791l1.42355-1.141,6.5887-5.2445,1.94544-1.57188a19.37529,19.37529,0,0,0,1.9215-1.58055,13.307,13.307,0,0,1,1.98634-1.41658c.239-.18169.46063-.389.69264-.582.98177-.81873,1.9477-1.67818,2.96057-2.42755,1.46237-1.08411,2.905-2.184,4.34265-3.29643.60029-.46365,1.27409-.90656,1.7939-1.3834a22.54753,22.54753,0,0,1,2.45149-1.91642c.18094-.12514.35848-.27592.53376-.41653.70547-.56316,1.40848-1.12406,2.116-1.68873.71281-.55223,1.45465-1.08637,2.11054-1.6631.67474-.58729,1.47614-1.02493,2.17877-1.59639.28422-.2288.63328-.464.88923-.68227.99383-.844,2.12034-1.62993,3.20916-2.43284l2.00047-1.46935,2.178-1.58507,3.11115-2.21835c.10215-.075.19715-.14437.29553-.21637-.01395-.03317.04825-.08519.42558-.33549.52622-.3581.96348-.65551,1.4652-.9974.2175-.15116.36036-.2503.45159-.31363-.23861.15568-.43048.28008-.77313.50361Q307.79683,100.27686,306.31522,101.246ZM298.505,11.98505a2.14136,2.14136,0,0,1,.23126-.12364,1.57693,1.57693,0,0,1-.12854.10931c-.167.112-.33285.22354-.69359.46516C298.22852,12.1935,298.36271,12.08532,298.505,11.98505Zm-11.892,7.147.36319-.2307c-.00207.01923.00264.04938-.007.05541l-.37017.2307C286.60339,19.16858,286.60056,19.14031,286.613,19.132Zm-6.2487,3.76723a1.61337,1.61337,0,0,1,.72695-.64119,10.92984,10.92984,0,0,0,1.47991-.602c.03826-.01772.10309.00189.08839.02488a1.56305,1.56305,0,0,1-.19733.23861,1.60293,1.60293,0,0,1-.206.13721,6.36065,6.36065,0,0,0-1.28747.77991c-.3238.26349-.65382.37582-.66418.27932A.31278.31278,0,0,1,280.3643,22.89925Zm-6.1243,3.169c.29195-.21147.60519-.406,1.16119-.77011.20224-.10291.6591-.33586,1.108-.56467.06276-.03053.14531.02789.19017.06521.01357.01131-.05918.10668-.10724.1357l-2.26566,1.3525c-.03958.02337-.13985.026-.14041.00528C274.18421,26.224,274.17894,26.11237,274.24,26.06827ZM12.891,7.52272a2.109,2.109,0,0,1-.2062-.16171,1.57152,1.57152,0,0,1,.15173.0735c.16981.10781.3385.21486.70508.44782C13.19326,7.692,13.04,7.61243,12.891,7.52272ZM24.22074,15.531l-.35716-.23936c.01828-.006.04391-.02224.05333-.01621l.36018.24615C24.25805,15.52536,24.23336,15.53931,24.22074,15.531Zm6.1865,4.17095a.3131.3131,0,0,1-.22222.03242,1.61,1.61,0,0,1-.8798-.40748,10.90541,10.90541,0,0,0-1.14668-1.112c-.03185-.0279-.04-.095-.013-.09085a1.54243,1.54243,0,0,1,.29816.08444,1.62355,1.62355,0,0,1,.20827.13344,6.39232,6.39232,0,0,0,1.23225.86434C30.25589,19.39663,30.49167,19.65334,30.40724,19.702Zm5.144,4.36282c-.311-.18207-.61537-.39052-1.17231-.75315-.17585-.14361-.57278-.46779-.96311-.78669-.05315-.04523-.0328-.14437-.01677-.20054.00471-.017.12137.01131.16736.04373l2.15012,1.52928c.03732.02677.08029.11761.06163.12628C35.71638,24.05309,35.61649,24.10285,35.55128,24.06478Zm-23.21162,77.9713a2.10893,2.10893,0,0,1-.20619-.16171,1.5702,1.5702,0,0,1,.15172.0735c.16981.10781.3385.21486.70508.44782C12.64178,102.20533,12.48874,102.12617,12.33966,102.03608Zm11.32979,8.0083-.35716-.23937c.01828-.006.04391-.02224.05334-.01583l.36017.24577C23.70677,110.03872,23.68207,110.05267,23.66945,110.04438Zm6.1865,4.17095a.31117.31117,0,0,1-.22222.03241,1.61007,1.61007,0,0,1-.8798-.40748,10.94451,10.94451,0,0,0-1.14668-1.112c-.03185-.0279-.04-.095-.013-.09085a1.53747,1.53747,0,0,1,.298.08444,1.61192,1.61192,0,0,1,.20845.13344,6.41464,6.41464,0,0,0,1.23206.86472C29.7046,113.91,29.94038,114.16708,29.856,114.21533ZM35,118.57814c-.311-.18207-.61537-.39052-1.17231-.75314-.17585-.14362-.57278-.4678-.96311-.7867-.05315-.04523-.03279-.14437-.017-.20054.0049-.017.12156.01131.16755.04373l2.15012,1.52929c.03732.02676.08029.1176.06163.12627C35.16509,118.56646,35.0652,118.61621,35,118.57814Zm186.45894,408.5517c.31344.34868.57353.77388.85888,1.16364-.22409-.21486-.47345-.42331-.66871-.6442-.72807-.83985-1.4505-1.67291-3.02162-3.4849C220.14489,525.74266,220.81605,526.41552,221.45893,527.12984ZM173.26685,467.5846,174.799,469.4c-.08594-.01433-.21033.00113-.251-.04675l-1.54211-1.85006C173.0944,467.52881,173.213,467.5224,173.26685,467.5846Zm-39.28853-49.23982c-.02393.05881-.53451-.32606-.73222-.56467q-4.63224-5.62314-9.26-11.241c-.16077-.19639-.33926-.66494-.25652-.6574a1.48079,1.48079,0,0,1,.99892.36263c1.34628,1.46407,2.66089,3.01974,5.0696,5.78957.7588.99176,2.48617,3.22292,4.13721,5.44843A.87135.87135,0,0,1,133.97832,418.34478Zm6.57042,6.51746c-.504-.75917-1.67987-2.41059-2.56137-3.90783a29.90821,29.90821,0,0,0-3.35824-4.76126,91.46731,91.46731,0,0,1-9.2496-12.64515,26.67465,26.67465,0,0,0-4.43538-5.704c-3.01616-2.75776-5.06356-6.46808-8.05466-9.29407-3.18485-2.99185-4.66984-6.43792-7.14489-9.6763-.75409-.98572-1.45823-2.06794-2.25491-2.94284-6.20611-6.79452-11.31151-14.23966-17.17836-21.2219-5.89964-7.00335-11.03049-14.55968-17.4539-21.21322a32.91863,32.91863,0,0,1-2.12864-2.94549l-1.77373-2.35631-.89074-1.17608-.43971-.57862-.17377-.20808c-.45065-.55751-.93521-1.05056-1.33685-1.56962l-.54526-.79951-.27857-.39089-.14192-.19375-.07162-.09688c-.02111-.032-.06785-.06446-.014-.09537.48627-.50021.94388-.99439,1.36946-1.51044a11.9066,11.9066,0,0,1,1.07676-1.28276q8.41013-8.92919,16.81535-17.85234,8.55883-9.079,17.06979-18.21383,17.90615-19.20974,35.62043-38.64753,5.33394-5.8742,10.6575-11.76422c.00076.26122-.00207.52207-.00113.78292.02431,6.27546.17736,12.56223.25934,18.843.078,6.03534.03525,12.06917.23315,18.10338l2.46,72.51571c.05767,1.68874.18452,3.37634.27348,5.06507.20393,3.86072.43519,7.71994.58955,11.58329q.37827,10.49316.75635,20.99045l.43556,15.21105c.14663,4.8227.50568,9.64087.47062,14.47186a15.85072,15.85072,0,0,0,.14758,2.14032c.34924,2.584.31494,5.26335.45875,7.89823.15323,2.86519.11365,5.74622.45064,8.61556.21543,1.838.3615,3.68694.43707,5.53626a33.55922,33.55922,0,0,0-5.42393-6.19178A26.21534,26.21534,0,0,1,140.54874,424.86224Zm6.17765,11.20672a1.67353,1.67353,0,0,1,.99985.36715,17.86407,17.86407,0,0,1,2.9683,2.53461q-.01188,1.10484-.06352,2.20516c-.53093-.61142-1.09033-1.22547-1.69646-1.84367C147.32442,437.69211,146.33832,436.07951,146.72639,436.069Zm8.90393,157.05159c-.00924-.1783-.02507-.36376-.02677-.53414-.003-.64232-.00622-1.28012-.013-2.66654.03656,1.26391.05239,1.812.06841,2.36686C155.66254,592.55776,155.6403,592.84236,155.63032,593.12055Zm.66475-43.725c-.01866-.03845-.05334-.07879-.05334-.115l.0115-1.39208a.40391.40391,0,0,1,.04843.1342Zm.50662-21.5898c-.18188,1.56057-.28347,3.24931-.38091,5.00665-.00735.13344-.07219.27253-.08613.193-.04505-.25632-.08519-.58841-.11535-.94425-.01489-.17566-.00264-.46818-.00245-.78971.07294-1.50743.13476-3.04425.06314-4.8031-.055-1.32535.053-2.40418.16114-2.26283a1.18464,1.18464,0,0,1,.18584.53753A12.53572,12.53572,0,0,1,156.80169,527.80571Zm.70508-20.51737c-.03034.72072-.09876,2.34952-.166,3.94779a.51589.51589,0,0,1-.19808.39467,1.7806,1.7806,0,0,1-.0688-.52359q.06617-4.21014.13194-8.41728c.00264-.14664.06841-.41955.09028-.38487a1.00949,1.00949,0,0,1,.19771.53489C157.51582,503.98927,157.50564,505.16649,157.50677,507.28834ZM248.22067,323.283l-.09349-.049-.0113-.00566a.30656.30656,0,0,1,.09518.04448S248.2463,323.29653,248.22067,323.283Zm-48.53643-54.70672q18.15494,20.78162,36.48478,41.417l9.178,10.30467,2.30034,2.57118.23917.26726c-.01281.01319-.03242.03543-.07275.08594l-.55035.66381-1.10107,1.328-2.20119,2.656L239.561,333.1843c-14.09792,17.083-27.89145,34.411-41.70836,51.70959q-18.58747,23.382-37.16064,46.74553c.0049-.14475.00527-.291.01206-.435q.74551-14.41607,1.491-28.82987.78539-15.16977,1.5717-30.36631.77406-15.92122,1.54907-31.86356c.13288-2.656.17208-5.33121.35829-7.97212.90713-12.77369,1.40339-25.59488,1.84347-38.40326.6983-20.18226,1.35269-40.36868,1.8365-60.54793q4.28,5.116,8.59483,10.207C185.11476,251.87549,192.40271,260.22681,199.68424,268.57624Zm77.45922-149.12848-2.26566,1.3525c-.03958.02337-.13985.026-.14041.00528-.00189-.06823-.00717-.17981.0539-.22391.29195-.21147.60519-.406,1.16119-.77011.20224-.10291.6591-.33586,1.10805-.56467.06276-.03053.14531.02789.19017.06521C277.26427,119.32337,277.19152,119.41874,277.14346,119.44776Zm5.87-3.01446a1.63361,1.63361,0,0,1-.206.13683A6.39543,6.39543,0,0,0,281.52,117.35c-.32361.26386-.65382.3762-.664.27932a.3106.3106,0,0,1,.05956-.21637,1.61147,1.61147,0,0,1,.72714-.64157,10.87728,10.87728,0,0,0,1.47971-.602c.03827-.01771.1031.00189.0884.02488A1.57108,1.57108,0,0,1,283.01351,116.4333Zm4.507-2.9632-.37017.23069c.00434-.01885.00151-.04712.01395-.05541l.36319-.23032C287.52541,113.43391,287.53012,113.46406,287.52051,113.4701Zm11.63851-6.986c-.167.11233-.33285.22353-.69359.46553.31438-.24238.44876-.35094.59087-.45121a2.20934,2.20934,0,0,1,.23126-.12364A1.57909,1.57909,0,0,1,299.159,106.48409Z"/><path class="cls-1" d="M310.06889,98.7928l.03354-.02186.07087-.0475-.10441.06936Z"/><path class="cls-1" d="M296.82212,107.23082a22.99956,22.99956,0,0,1,2.25812-1.50591c.313-.20091.63139-.4056.94369-.60614a.87368.87368,0,0,0,.19846-.167.75793.75793,0,0,0-.24087.098q-1.24308.74919-2.49126,1.50177C296.99853,106.85086,296.95725,106.89534,296.82212,107.23082Z"/><path class="cls-1" d="M310.87443,98.25565c-.07389.049-.19489.12929-.27744.18433-.14437.0965-.28346.1896-.42369.28346.127-.084.25293-.16774.38411-.25481C310.78321,98.31709,310.99731,98.17348,310.87443,98.25565Z"/><path class="cls-1" d="M290.37647,110.91061a.60623.60623,0,0,0,.09235-.0867l-.16134.07916-.14946.10592C290.23077,110.977,290.3024,110.94981,290.37647,110.91061Z"/><path class="cls-1" d="M299.47264,10.60541a.87848.87848,0,0,0,.19846-.167.75827.75827,0,0,0-.24087.098q-1.24308.74919-2.49126,1.50177c-.49173.2993-.533.34378-.66833.67926a23.0283,23.0283,0,0,1,2.25831-1.50591C298.842,11.01026,299.16034,10.806,299.47264,10.60541Z"/><path class="cls-1" d="M310.32333,3.74229c-.07389.049-.19489.12929-.27744.18395-.1455.09763-.28535.19111-.42708.28573.12816-.08482.25482-.16888.38712-.25671C310.2321,3.80373,310.44621,3.66011,310.32333,3.74229Z"/><path class="cls-1" d="M289.91753,16.31055l-.16134.07916-.14946.10592c.07276-.032.14438-.05918.21845-.09839A.61509.61509,0,0,0,289.91753,16.31055Z"/><path class="cls-1" d="M10.68711,101.70587a.86075.86075,0,0,0-.23277-.11421.76554.76554,0,0,0,.18678.18093q1.18626.83627,2.37761,1.67592c.47194.32945.52943.34943.89073.33812a23.046,23.046,0,0,1-2.28752-1.46068C11.31172,102.12014,10.9964,101.91093,10.68711,101.70587Z"/><path class="cls-1" d="M.70171,94.96111c.04976.032.10065.06446.15078.09688l.00679.00414-.04034-.02638Z"/><path class="cls-1" d="M.03639,94.53666l.28027.17981c.13136.08331.25764.164.385.24464-.11327-.07275-.2256-.14475-.34265-.21976C.1295,94.59547-.08838,94.45713.03639,94.53666Z"/><path class="cls-1" d="M19.75633,108.15548l.1374.1161.157.09386c-.05843-.05352-.11214-.10818-.17792-.1602A.6382.6382,0,0,0,19.75633,108.15548Z"/><path class="cls-1" d="M13.57021,8.93477c.47175.32983.52924.34981.89054.3385a22.96685,22.96685,0,0,1-2.28733-1.46106c-.31042-.20543-.62573-.41464-.935-.6197a.88.88,0,0,0-.23277-.11459.76538.76538,0,0,0,.18678.18131Q12.37867,8.0955,13.57021,8.93477Z"/><path class="cls-1" d="M.58768.0233C.66232.07117.78464.14958.868.20311c.137.08707.26876.17076.40182.25557C1.151.38216,1.03324.30677.91035.22761.68079.08173.46291-.05623.58768.0233Z"/><path class="cls-1" d="M1.26977.45868l.134.08594.0066.00415L1.37023.52238Z"/><path class="cls-1" d="M20.4241,13.69188a.60294.60294,0,0,0-.11648-.04976l.1374.11572.157.09424C20.54359,13.79855,20.48988,13.7439,20.4241,13.69188Z"/><path class="cls-1" d="M156.45225,593.69992c-.00339,1.18814-.00678,2.397-.01,3.581a6.89884,6.89884,0,0,0,.039.82213,5.85519,5.85519,0,0,0,.062-.815q.06474-4.63026.12986-9.28125a8.00327,8.00327,0,0,0-.25444-2.9715C156.5039,588.77959,156.495,588.83237,156.45225,593.69992Z"/><path class="cls-1" d="M156.21346,638.26555c-.00076-.271-.00208-.73806-.003-1.063-.00245-.53753-.0049-1.05132-.00735-1.56849.00132.46478.00283.92843.00415,1.41167C156.21138,637.91424,156.21572,638.7375,156.21346,638.26555Z"/><path class="cls-1" d="M156.20309,635.63407c-.00038-.153-.00094-.30571-.00132-.45988l-.00019-.01206v.14022C156.20215,635.41355,156.20253,635.52362,156.20309,635.63407Z"/><path class="cls-1" d="M156.97,561.38213c-.00358.09952.01791.26349.02771.39806l.02733-.56919-.00867-.5839C157.00109,560.877,156.98639,561.116,156.97,561.38213Z"/><path class="cls-1" d="M215.27488,515.90805c4.44311,4.72242,4.48213,4.80912,9.86252,11.28738,1.31348,1.5813,2.67521,3.16864,4.01376,4.71866a5.93993,5.93993,0,0,0,1.03246.98836,5.12452,5.12452,0,0,0-.75408-1.21114q-5.06055-6.21118-10.1441-12.45141C217.26744,516.78521,217.00546,516.58052,215.27488,515.90805Z"/><path class="cls-1" d="M271.68994,582.82l-.51416-.59106-.00773-.00829c.0507.05955.09933.11647.15134.17716C271.4436,582.53919,271.56649,582.67941,271.68994,582.82Z"/><path class="cls-1" d="M274.69517,586.25591c-.30684-.35244-.83777-.962-1.20775-1.38717-.61593-.70188-1.20473-1.37285-1.79748-2.04872.53018.6099,1.059,1.21792,1.6107,1.85233C274.29259,585.80094,275.23439,586.86921,274.69517,586.25591Z"/><path class="cls-1" d="M189.90447,483.76177a4.69629,4.69629,0,0,0,.51661.4644l-.58013-.79988-.6819-.74636C189.4035,483.03991,189.62553,483.39349,189.90447,483.76177Z"/></g></g></svg>