<svg xmlns="http://www.w3.org/2000/svg" viewBox="0 0 288.33677 669.07266"><defs><style>.cls-1{fill:#24373e;}</style></defs><g id="Слой_2" data-name="Слой 2"><g id="Слой_1-2" data-name="Слой 1"><path class="cls-1" d="M145.01106,618.8491c-.0034,1.335-.00641,2.693-.00943,4.02309a9.17341,9.17341,0,0,0,.03694.92381,7.67593,7.67593,0,0,0,.05919-.9158q.06162-5.20177.12363-10.42719a10.53493,10.53493,0,0,0-.24237-3.33836C145.06006,613.32122,145.05177,613.3805,145.01106,618.8491Z"/><path class="cls-1" d="M144.78376,668.91782c-.00076-.3041-.00227-.82891-.003-1.19436-.00264-.63215-.0049-1.23527-.00716-1.84423.00151.54978.00264,1.09692.00415,1.66838C144.78187,668.52334,144.786,669.44819,144.78376,668.91782Z"/><path class="cls-1" d="M145.50411,582.54054c-.0034.11158.017.296.02638.44725l.026-.63959-.00829-.65617C145.53351,581.97276,145.51956,582.24125,145.50411,582.54054Z"/><path class="cls-1" d="M215.42188,597.21906a104.44364,104.44364,0,0,1,7.05159,9.24809c.92768,1.29746,1.89719,2.59859,2.85163,3.86891a3.7828,3.7828,0,0,0,.76634.80526,3.3135,3.3135,0,0,0-.48891-1.00023q-3.55708-5.099-7.13038-10.22128C217.05068,597.90511,216.84938,597.73982,215.42188,597.21906Z"/><path class="cls-1" d="M255.43207,652.11576c-.1274-.16774-.25406-.335-.38222-.50408l-.00754-.00867c.03656.04929.072.09669.10931.14711C255.24548,651.87263,255.33859,651.99391,255.43207,652.11576Z"/><path class="cls-1" d="M257.56636,654.911c-.21976-.28893-.599-.78849-.86321-1.13641-.43538-.56835-.85191-1.112-1.27108-1.65886.37356.49314.74674.98525,1.13538,1.49819C257.27762,654.53841,257.95236,655.41341,257.56636,654.911Z"/><path class="cls-1" d="M197.73426,570.80864a3.03556,3.03556,0,0,0,.38788.37742l-.395-.65862-.49267-.61057C197.39765,570.21363,197.542,570.50576,197.73426,570.80864Z"/><path class="cls-1" d="M287.52444,333.50116q-1.66235-2.09858-3.32922-4.2028l-1.68006-2.10545c-.56392-.70207-1.12859-1.40433-1.63182-2.10621q-1.55435-2.11017-3.10455-4.21581l-1.53758-2.11506-.7637-1.06074-.43613-.62837c-9.65067-14.18952-19.95648-27.97024-30.32976-41.67915q-25.84612-34.13949-52.43182-67.72995c-10.68992-13.45824-21.67159-26.6854-32.62161-39.92916q-1.06921-1.2852-2.13693-2.56985c-.00075-.174-.00226-.34774-.003-.5217q8.46723-12.74014,16.93786-25.485,13.79523-20.6216,27.6029-41.26148,8.6278-12.99345,17.45466-25.80315c8.44668-12.311,16.54243-24.82761,24.631-37.29032,4.14381-6.41154,7.71729-12.124,10.84975-16.84306,3.27456-5.007,4.3172-5.88682-1.28578,1.18985-2.97187,3.68883-6.1292,7.60741-9.63785,11.96193C235.796,41.426,227.43413,51.6483,219.03909,61.90774c-10.22213,12.50606-20.44727,25.04548-30.78247,37.45q-15.48246,18.54254-30.99281,37.11843-.05655-5.42639-.09688-10.855c-.09461-13.82784-.01658-27.6749-.16849-41.50217-.09688-8.69133.02864-17.36513.498-26.05006A324.02217,324.02217,0,0,0,157.4406,20.719c-.39052-6.3763-1.87721-11.99812-4.75258-16.73242-3.02578-4.99873-8.10179-6.11055-11.399,1.44164a37.01892,37.01892,0,0,0-2.96094,12.84965c-.65062,11.06574-1.41658,22.10923-1.83877,33.19438-.51453,13.50687-.80705,27.03748-1.345,40.533-.5888,14.85917-.99025,29.74021-1.35325,44.61785q-2.92269-3.515-5.84536-7.02917-15.80587-19.12409-31.62608-38.2653c-6.65166-7.99209-13.2-16.03507-19.722-24.11423-9.37587-11.61891-19.04915-22.96076-28.67305-34.28-4.95576-5.80691-9.40528-10.86689-13.02927-15.21972-3.85959-4.57146-4.40353-5.82256.77161,1.57244,2.68276,3.90426,5.53287,8.05184,8.7,12.6608,7.51789,10.88386,14.91666,21.82351,22.34144,32.80556,9.05433,13.37588,18.1392,26.76419,27.06386,40.2196q15.254,23.05122,30.53557,46.1443,4.468,6.74693,8.94049,13.50045-.00509.32455-.01055.64892-2.35782,2.82572-4.71451,5.6501-7.44552,8.96765-14.89555,17.94206c-6.59059,7.99623-13.21435,15.96552-19.74124,24.02018-5.32441,6.53649-10.52556,13.18419-15.78967,19.77365C73.03175,238.981,67.892,245.25006,62.94231,251.66254L48.86362,270.0837,34.86974,288.56818l-13.91661,18.5416-6.92457,9.296-6.50917,8.74C5.06432,328.27607,2.50219,331.40645,0,334.53513l5.998,7.43911,1.11389,1.37417,1.04264,1.36983,2.09245,2.728,3.81775,4.942c3.20407,4.07482,6.43792,8.12439,9.59563,12.23842q8.5464,11.19456,17.09656,22.394l12.2912,16.30138c3.92178,5.15027,8.15568,10.06,11.82152,15.41442a14.90232,14.90232,0,0,0,1.87532,2.185c2.52971,2.44018,4.54413,5.42374,6.79942,8.15361,2.44678,2.97244,4.606,6.18593,7.37125,8.92805A58.73489,58.73489,0,0,1,91.72657,452.3504a22.48083,22.48083,0,0,0,2.16181,3.05122c1.59864,2.04325,3.241,4.05277,4.8619,6.07944l22.53443,28.00963c2.23493,2.77058,4.50945,5.50554,6.77718,8.24747,1.6484,1.999,3.27758,4.18,4.93578,6.10772-.54168.8274-1.06225,1.66988-1.60166,2.50144-2.96923,4.5707-5.81257,9.285-8.92014,13.69062q-6.715,9.5602-13.19324,19.22934c-1.809,2.69142-3.9101,5.43486-5.40734,8.0377a117.81319,117.81319,0,0,1-7.33055,11.1055c-.5575.75918-1.07393,1.6092-1.59148,2.41945-2.07661,3.25336-4.12911,6.50512-6.25246,9.7402-2.11394,3.22867-4.36056,6.43434-6.22344,9.66555-1.91566,3.30661-4.49588,6.24747-6.53631,9.54079-.82514,1.32526-1.89455,2.77774-2.62018,4.01923-2.826,4.80611-6.22872,9.60666-9.4588,14.41672q-2.96735,4.42389-5.923,8.83062-3.228,4.79-6.44923,9.56981-4.61725,6.75738-9.23678,13.517c-.30458.462-.57749.87556-.86472,1.31112.11723.12195-.05315.42492-1.201,1.98888-1.57792,2.21581-2.89611,4.06673-4.40655,6.18735-.73392,1.02295-1.20586,1.71927-1.33817,1.92876.72412-.9697,1.29369-1.73143,2.36121-3.16063,3.02955-4.12449,6.04779-8.20921,9.10334-12.24832,2.13881-2.82873,4.28366-5.69929,6.30109-8.55026,1.66612-2.35575,3.26665-4.51341,5.07978-6.88254a168.07,168.07,0,0,0,9.91868-13.67705,16.01677,16.01677,0,0,1,2.67973-3.31339,11.53847,11.53847,0,0,0,2.11243-2.54337,40.46285,40.46285,0,0,1,3.29906-4.51916c1.976-2.41248,3.91915-4.96132,5.79787-7.59827.50888-.71451,1.12934-1.41686,1.72869-2.15907.43424.53018-1.81954,3.77666-1.60053,4.43877,1.37587-1.20172,2.62168-3.36287,3.96136-4.80639a37.17553,37.17553,0,0,0,4.56939-5.62947c-.26688-.08123-.72186.06522-.70414-.33218a11.19454,11.19454,0,0,1,1.34684-2.1145c1.37134-1.76309,2.80073-3.62211,4.186-5.16751,2.49541-2.77087,4.57241-6.1768,7.14546-8.85a32.73777,32.73777,0,0,0,2.14749-3.08609,110.02451,110.02451,0,0,1,10.843-12.77614,34.15555,34.15555,0,0,0,6.516-7.65566,25.14538,25.14538,0,0,1,4.12119-5.11125,21.10441,21.10441,0,0,0,3.82717-5.25468,16.74728,16.74728,0,0,1,2.53612-4.369c.50473-.49927,1.5798-1.65179,2.60585-2.54234a19.06974,19.06974,0,0,0,3.10833-3.296,56.52822,56.52822,0,0,1,3.79174-4.667c.00264.19564.00339.38958.00829.58748.02563,1.07449.08821,2.14654.12967,3.22216.17754,4.553.406,9.13972.49381,13.65124.15417,6.51708.30721,13.00627.461,19.506.07125,2.7114.07464,5.60373.21185,8.0997.2028,3.73265.28234,7.35015.31551,11.12078.00678.78848.04146,1.61739.06785,2.42011.10215,3.22245.20393,6.43189.30646,9.66518.08707,3.22443.13683,6.49984.285,9.60072.14664,3.17759.06145,6.442.17378,9.67328.03317,1.30255.07162,2.81111.10177,4.00839.19489,4.6395.245,9.56369.337,14.40777q.082,4.45358.16359,8.89c.05466,3.21971.10856,6.43048.16322,9.64906q.0933,6.84546.187,13.693c.00867.46243.01583.87651.02375,1.31254a9.10158,9.10158,0,0,1,.05729,1.93573c.0147,2.27678.02714,4.17821.04109,6.35717.01018,1.05046.017,1.74339.01885,1.96994v.144l.00113.29063-.00113-.41691c.00037-1.02455.00037-1.82227.00113-3.3262-.00151-4.28366-.003-8.53471-.00452-12.77454-.00528-2.96867-.01018-5.96721-.01508-8.89065-.00377-2.41521-.00716-4.66315-.01093-7.16044.01394-4.67446.0833-9.55907-.06333-14.14127-.03958-1.19088-.01885-2.63375.04787-3.56425a27.57186,27.57186,0,0,0,.05089-2.7637c-.04863-1.57179-.043-3.0401-.01621-4.68341.043-2.60765.05428-5.29021.03355-7.99991-.00566-.73411.01847-1.516.02978-2.31381.2043.13871.242,3.44522.41427,3.78024.11949-1.4947.03392-3.56859.10139-5.20756.08218-1.95826.16435-3.91453.1048-6.0638-.08256.07878-.17.40446-.23937.12891-.03543-.14013-.06144-1.3769-.055-2.09292.01658-1.8692.02978-3.83207.092-5.56208.11648-3.108.00114-6.43312.1587-9.5143.04071-.77859-.02525-2.07427-.03468-3.14546-.03129-3.483.1342-10.92306.38939-13.9986a68.83222,68.83222,0,0,0,.25143-8.39749,49.19667,49.19667,0,0,1,.10856-5.49216,40.85452,40.85452,0,0,0-.00679-5.44127,31.65994,31.65994,0,0,1-.19563-4.20111c.04071-.58747.10856-1.89869.21976-3.00975a35.54489,35.54489,0,0,0,.20845-3.76686c-.00264-1.91735.04938-3.74085.14136-5.50215,2.6492,3.05386,5.31612,6.09924,7.77986,9.23452q7.23575,9.172,14.64412,18.14862c2.06079,2.50408,4.08727,5.30312,6.1522,7.483a117.78955,117.78955,0,0,1,8.54017,10.2045c.56769.75173,1.23414,1.48989,1.86213,2.21788,2.52255,2.92155,5.05,5.81954,7.54126,8.78038,2.48787,2.9501,4.9158,6.02083,7.47793,8.73148,2.61942,2.78245,4.69792,6.09678,7.26872,8.99534,1.03322,1.17014,2.11884,2.61066,3.10041,3.66169,3.79513,4.08415,7.41988,8.71941,11.10306,13.19173q3.38859,4.11008,6.764,8.2044,3.66453,4.46474,7.3215,8.92005,5.15158,6.35976,10.305,12.72168c.35509.42435.67323.804,1.00834,1.204.1504-.07737.392.17274,1.5617,1.72031,1.67065,2.14663,3.06649,3.93978,4.66589,5.99435.76634.99185,1.29633,1.64152,1.46181,1.83131-.72-.97017-1.28691-1.73359-2.34915-3.1643-3.08383-4.08406-6.133-8.14589-9.12746-12.23051-2.09773-2.85936-4.23353-5.73652-6.387-8.48618-1.78-2.27112-3.38878-4.42256-5.13933-6.83843a168.09272,168.09272,0,0,0-10.26284-13.42073,16.02019,16.02019,0,0,1-2.40682-3.51647,11.54073,11.54073,0,0,0-1.8316-2.75239,40.49686,40.49686,0,0,1-3.385-4.45517c-1.74527-2.58437-3.63078-5.176-5.61919-7.73143-.53866-.69218-1.034-1.488-1.57339-2.2747.63253-.26425,3.0974,2.82514,3.79438,2.80507-.75729-1.66254-2.4709-3.47539-3.4702-5.17241a37.19737,37.19737,0,0,0-4.08463-5.9903c-.15455.23239-.14437.71008-.52019.57937a11.18975,11.18975,0,0,1-1.6401-1.896c-1.29633-1.81888-2.668-3.72115-3.75179-5.49075-1.93978-3.18484-4.60821-6.1504-6.43264-9.38133a32.594,32.594,0,0,0-2.34161-2.94134,110.06228,110.06228,0,0,1-9.13463-14.04835,34.1579,34.1579,0,0,0-5.46878-8.43557,25.1594,25.1594,0,0,1-3.71635-5.41281,21.10246,21.10246,0,0,0-3.93837-5.17194,16.73016,16.73016,0,0,1-3.45927-3.68148c-.334-.62649-1.1301-1.98653-1.68949-3.22481a19.06241,19.06241,0,0,0-2.26773-3.92216,58.139,58.139,0,0,1-6.31391-10.40852c-.23333-.48853-.49154-.98346-.76445-1.47557a27.78856,27.78856,0,0,0,3.09739-4.13608c1.65444-2.97056,4.16681-4.56486,6.22835-6.9666a28.78148,28.78148,0,0,0,1.87117-2.18725c4.04317-5.88682,8.94427-10.9191,13.24074-16.54112,4.30514-5.6518,9.2937-10.71649,13.1563-16.77087a20.94143,20.94143,0,0,1,1.90925-2.08189c4.02809-4.589,8.00754-9.23791,11.67527-14.23005.76709-1.04226,1.52551-2.10959,2.345-3.098,8.24087-9.94638,16.53716-19.834,24.72526-29.83218q12.93467-15.75245,25.66727-31.70166,6.54818-8.23908,13.05263-16.52359l6.63432-8.501,6.23437-8.14438,6.73873-8.21411ZM67.39371,604.32456a9.43659,9.43659,0,0,1-.749.83759c.11987-.2094.22768-.43934.36112-.62527.51039-.695,1.01664-1.38454,2.11808-2.88442C68.206,603.08346,67.82117,603.71372,67.39371,604.32456Zm37.15292-46.40524-1.115,1.46727c-.01169-.07331-.05919-.17584-.03016-.21486l1.14178-1.47934C104.54626,557.76929,104.58471,557.86786,104.54663,557.91932Zm19.34318-24.55206a8.72012,8.72012,0,0,1-2.07134,3.58253A60.37252,60.37252,0,0,0,116.992,541.734c-.12289.13155-.3762.17622-.343.06766a7.90375,7.90375,0,0,1,.50474-1.20417,8.83309,8.83309,0,0,1,.62762-.85435,34.66763,34.66763,0,0,0,3.98587-5.069c.94463-1.51478,2.03967-2.50465,2.15652-2.181A1.27723,1.27723,0,0,1,123.88981,533.36726Zm95.35094,73.14257a9.37351,9.37351,0,0,1,.58805.95746c-.16662-.17481-.35585-.34388-.49569-.525-.51982-.688-1.03548-1.37078-2.15691-2.85577C218.28443,605.37588,218.77786,605.92519,219.24075,606.50983ZM185.42233,557.621l1.08637,1.48876c-.07388-.00961-.18546.00641-.21448-.03279l-1.09014-1.5176C185.27834,557.57837,185.38388,557.56988,185.42233,557.621Zm-18.81055-25.848a1.27445,1.27445,0,0,1,.82779.28271,8.71877,8.71877,0,0,1,2.83918,3.01108,60.34193,60.34193,0,0,0,3.20144,5.99444c.09084.15531.06106.41069-.03355.34793a7.88293,7.88293,0,0,1-1.0091-.82854,8.80791,8.80791,0,0,1-.63893-.84606,34.69193,34.69193,0,0,0-3.71484-5.27089C166.90317,533.12469,166.26838,531.79218,166.61178,531.773Zm-41.42036-66.94439c-4.18151-5.74377-7.605-11.974-12.2995-17.409a21.01972,21.01972,0,0,1-1.44786-2.4253c-3.24252-5.174-6.557-10.31824-10.28922-15.26232-.77916-1.0334-1.58432-2.06587-2.29638-3.13414-7.16921-10.74458-14.266-21.52553-21.50008-32.2343Q65.9713,377.4584,54.33768,360.69111q-6.01837-8.634-12.09255-17.23885l-5.96259-8.38186c-.15078-.07784-.317-.12873-.43575-.19752-.0441-.12326-.08029-.236-.10781-.33775l.04448-.03788c.13231-.09009.15945-.21807.3042-.26726.092-.0098.18584-.0179.285-.02l.15342.00264.07992.0066c-.01244.042.09687-.10687.15643-.17773l.20958-.25859c10.83052-13.31066,21.082-27.1319,31.245-40.99724q25.30559-34.54236,49.87384-69.63506,7.48284-10.72836,14.77229-21.59055-.03563,6.91854-.02224,13.84159c.023,7.05047.16887,14.114.2469,21.16988.07426,6.78076.03355,13.55945.222,20.33926l2.34237,81.47015c.05466,1.89719.17566,3.79325.26047,5.69044.19413,4.33756.41427,8.67323.56128,13.01381q.36018,11.78881.72035,23.58235l.41464,17.08939c.13948,5.41847.48137,10.83165.44782,16.259a21.08907,21.08907,0,0,0,.1406,2.40475c.33247,2.90308.30006,5.91321.43689,8.87339.14588,3.219.10818,6.45583.429,9.67951a88.02087,88.02087,0,0,1,.26839,15.03728c-.06635.91523-.02451,2.08057.00339,3.12943l.21109,6.51219.87528,27.95158a32.40035,32.40035,0,0,0-1.61486-2.93211,28.76939,28.76939,0,0,0-1.55944-2.41945C132.76471,476.69268,129.34729,470.55537,125.19142,464.82856Zm10.95529,55.06388a.72438.72438,0,0,1-.72035.124c-.05655-.01414.12854-.4808.27592-.6706q2.38779-3.04793,4.77294-6.0932c.17679.2403.36036.4791.5462.71733-.40861.55487-.864,1.17288-1.39924,1.90416C138.99117,516.61034,137.57723,518.28343,136.14671,519.89244Zm8.0818,98.30576c-.00867-.20054-.01734-.409-.02563-.60029-.003-.72177-.006-1.43788-.01244-2.99553.03468,1.41959.04975,2.03534.06521,2.6591C144.259,617.56577,144.23793,617.88542,144.22851,618.1982Zm.6329-49.12447a.41516.41516,0,0,1-.05089-.1292l.01093-1.564a.51473.51473,0,0,1,.04637.15049Zm.48249-24.256c-.17339,1.75338-.26989,3.65075-.36262,5.625-.00716.14984-.069.30627-.08218.21693-.043-.28818-.081-.66117-.10969-1.06092-.01432-.19752-.00264-.526-.00264-.88734.06974-1.69364.12854-3.42026.06031-5.396a6.60649,6.60649,0,0,1,.15342-2.54234,1.48769,1.48769,0,0,1,.17679.60369A16.577,16.577,0,0,1,145.3439,544.81768Zm.67135-23.05086c-.029.80969-.09424,2.63978-.15832,4.43519a.61386.61386,0,0,1-.18847.44348,2.33215,2.33215,0,0,1-.06559-.588q.0441-3.31169.0882-6.62074c.10857.12571.216.25218.32493.37789C146.01563,520.38492,146.01487,521.01933,146.01525,521.76682Zm9.17043-9.79485c.52472.81534,1.723,2.64939,2.85464,4.48061a.72406.72406,0,0,1-.08745.72563c-.02978.05033-.42369-.26066-.56354-.4563q-3.26477-4.61442-6.52726-9.22509c-.11308-.161-.202-.5511-.13042-.547a1.12429,1.12429,0,0,1,.82778.27894C152.53309,508.42676,153.46566,509.70236,155.18568,511.972Zm87.933-164.31823q-8.27724,11.395-16.55827,22.7949L214.46254,386.8942c-3.811,5.23263-7.30227,10.69577-11.38238,15.74143a14.91643,14.91643,0,0,0-1.556,2.42284c-1.61335,3.12265-3.89465,5.90737-5.86421,8.84984-2.14711,3.19578-4.60746,6.185-6.44283,9.61976a58.74405,58.74405,0,0,1-10.6492,14.4677,22.43595,22.43595,0,0,0-2.3043,2.94511c-1.4995,2.117-2.95453,4.26613-4.4318,6.39948l-20.38129,29.61355q-1.9004,2.76888-3.75932,5.56377c.09273-2.4611.18772-4.92108.22617-7.39726.07991-5.947.55525-11.84131.38675-17.83726-.02073-.71187.10856-1.55511.15078-2.35217.26575-5.09485.5119-10.20553.55412-15.39085.00867-1.08336.00716-2.179.05051-3.25233q.71017-16.19687,1.42-32.39016.74748-17.04274,1.49649-34.116.73674-17.88721,1.47462-35.79835c.12666-2.98394.164-5.98936.34152-8.95652.86359-14.35123,1.33629-28.75561,1.75508-43.14566.70075-23.895,1.36116-47.79535,1.82707-71.68567.05956-3.0188.095-6.03722.12591-9.05527l.64684.9714c5.77336,8.60463,11.51129,17.23339,17.35891,25.79391,4.73751,6.97376,9.61675,13.861,14.42248,20.79218,4.61235,6.66541,9.14631,13.38567,13.8725,19.96457l13.61656,18.76513,13.70174,18.70217,13.77827,18.64469,6.92306,9.29709.43274.58106a.3884.3884,0,0,0,.029.03694l-.18659.26538C249.1095,339.19159,246.1561,343.45018,243.11863,347.65374Zm9.5406-13.07978-.03882-.02507-.02978-.01772.02827-.01677c.04712-.01772.02752.01432.04561.02073l-.00829.0311Z"/><path class="cls-1" d="M65.47052,611.24988a3.775,3.775,0,0,0-.55186.9649A3.31618,3.31618,0,0,0,65.737,611.46q3.86637-4.86858,7.75046-9.75951c1.52288-1.93922,1.62353-2.17933,1.71362-3.69618a104.36673,104.36673,0,0,1-6.84051,9.40527C67.38316,608.67013,66.4144,609.97155,65.47052,611.24988Z"/><path class="cls-1" d="M34.09209,652.02586c.11534-.15766.23069-.31485.34679-.47374l.00377-.00612c-.03581.04815-.07011.09433-.10705.14362C34.25418,651.80223,34.17351,651.91381,34.09209,652.02586Z"/><path class="cls-1" d="M31.99851,654.9082c.21411-.293.58389-.79941.84173-1.15224.429-.59285.83909-1.15931,1.25185-1.7301-.37431.51171-.74749,1.02181-1.13688,1.55378C32.27293,654.52494,31.628,655.42208,31.99851,654.9082Z"/><path class="cls-1" d="M95.4384,573.49309a2.99114,2.99114,0,0,0-.2503.47957l.51755-.567.444-.64685C95.91222,573,95.67361,573.22187,95.4384,573.49309Z"/></g></g></svg>