<svg xmlns="http://www.w3.org/2000/svg" viewBox="0 0 248.64413 679.08873"><defs><style>.cls-1{fill:#24373e;}</style></defs><g id="Слой_2" data-name="Слой 2"><g id="Слой_1-2" data-name="Слой 1"><path class="cls-1" d="M248.60979,420.51937l-.16109-.13415-.322-.26868-.644-.53778-2.57688-2.15348-5.16114-4.32254-10.46-8.75448-5.28211-4.408-2.6168-2.24651-5.26993-4.4487q-40.55453-33.65569-81.69471-66.58359c.832-13.497,1.33025-27.03434,1.76183-40.5605.77931-24.25286,1.51391-48.51091,2.03232-72.759.3144-14.59532.224-29.181.17546-43.76239-.01816-6.1754-.081-12.34761-.15211-18.51941,1.472-1.61332,2.95156-3.21945,4.41716-4.84036,2.46948-2.72918,5.27253-5.47314,7.3805-8.15a136.39374,136.39374,0,0,1,10.04142-11.28125c.74916-.76294,1.46819-1.63328,2.18163-2.4589,2.86293-3.31527,5.69891-6.63253,8.61035-9.921,2.90006-3.28213,5.94364-6.51954,8.56583-9.842,2.693-3.39871,6.06162-6.29118,8.89161-9.65675,1.14322-1.35342,2.57907-2.81263,3.59773-4.08779,3.96063-4.93377,8.56124-9.77572,12.97121-14.6536q4.05246-4.48723,8.08935-8.95689,4.40429-4.85611,8.79959-9.70186,6.28468-6.84133,12.57118-13.68466c.4176-.4695.79108-.8895,1.18473-1.33185-.10939-.15331.13175-.46551,1.674-2.03731,2.13173-2.23373,3.91233-4.09977,5.95263-6.23768.98871-1.02884,1.63128-1.73349,1.81493-1.94828-.96954.97214-1.73209,1.73588-3.16176,3.16875-4.07022,4.14408-8.12128,8.24584-12.20607,12.29091-2.85914,2.83339-5.73245,5.71229-8.46084,8.58839-2.25349,2.37666-4.40019,4.54212-6.81917,6.912-4.51517,4.4491-9.37449,8.95768-13.35588,13.7617a18.54613,18.54613,0,0,1-3.543,3.29251,13.35294,13.35294,0,0,0-2.78109,2.51959,46.9215,46.9215,0,0,1-4.43712,4.54372c-2.60742,2.39382-5.20146,4.94415-7.73921,7.60227-.68729.72063-1.49674,1.41051-2.28923,2.1483-.39165-.65515,2.6669-3.93648,2.53715-4.70661-1.73369,1.13423-3.48733,3.35639-5.222,4.7653a43.04728,43.04728,0,0,0-6.03786,5.59211c.28246.13015.81244.03434.725.47429a12.94225,12.94225,0,0,1-1.85745,2.15549c-1.82471,1.76023-3.73047,3.61868-5.533,5.13419-3.246,2.716-6.13548,6.20135-9.45034,8.79679a37.84094,37.84094,0,0,0-2.91284,3.11844,127.41,127.41,0,0,1-14.22841,12.62069c-.0507.03473-.1.07066-.15071.1054q-.04042-3.82549-.07406-7.65258c-.1052-14.03479-.01857-28.08913-.18744-42.12352-.1074-8.82115.03213-17.62473.55394-26.43988a300.134,300.134,0,0,0-.06208-37.90917c-.43457-6.47164-2.08781-12.17754-5.2861-16.98275-3.366-5.07351-9.01179-6.20215-12.67948,1.4632a34.8662,34.8662,0,0,0-3.29371,13.04188c-.72351,11.23134-1.57539,22.44033-2.04509,33.69123-.5722,13.70941-.89778,27.44237-1.49594,41.1398-.60924,14.032-1.03662,28.08274-1.41879,42.1323q-.94918-1.06716-1.89837-2.13472c-2.66671-3.06495-5.40078-6.0716-8.14564-9.06588-1.87791-2.04809-3.78247-4.073-5.692-6.092l-3.55-3.70572c-1.58787-1.63648-3.17493-3.27375-4.79344-4.88267-1.31619-1.3083-2.67339-2.58027-4.00794-3.87221-1.28225-1.242-2.52777-2.51958-3.84586-3.72528L64.27349,87.57071c-.36949-.337-.75965-.65275-1.13852-.98013-.86655-.74817-1.74088-1.48835-2.59305-2.25209l-4.605-4.174L52.63353,77.1063c-1.04989-.96735-2.16257-1.87-3.15966-2.89287a3.30069,3.30069,0,0,0-.49076-.40482,20.85566,20.85566,0,0,1-1.785-1.5183c-.64357-.55494-1.23265-1.17057-1.93231-1.67161a13.77023,13.77023,0,0,1-2.8762-2.7212,5.386,5.386,0,0,0-.582-.58289l-1.27557-1.149-5.87936-5.315L32.90054,59.28c-.58379-.52419-1.17885-1.11666-1.74916-1.553a22.23521,22.23521,0,0,1-1.66083-1.59375l-.63908-.56053c-.90118-.79369-1.82471-1.57779-2.69-2.39183q-1.88758-1.75165-3.7665-3.49493c-.5259-.48347-1.06387-1.022-1.5705-1.44483-.757-.6328-1.45362-1.28275-2.16407-1.97583-.1534-.14013-.3144-.28745-.4707-.43038q-.94559-.85337-1.89088-1.70714c-.62611-.5741-1.24982-1.16976-1.87223-1.70154-.63608-.547-1.21518-1.18294-1.85056-1.75066-.253-.23315-.54187-.49945-.77622-.71583-.92264-.80446-1.85276-1.70754-2.781-2.58227L7.31692,35.77008,5.47424,34.02063l-2.60113-2.496c-.08664-.08184-.16748-.15849-.25112-.23754-.01747.00878-.07456-.04152-.37738-.343-.42858-.42159-.7844-.77132-1.19312-1.17335C.87642,29.60067.76034,29.48769.6798,29.409l-.02665-.02675-.04981-.04951.07017.06987c.19293.194.34644.34853.62021.624Q2.48709,31.225,3.66659,32.4089c.55354.55295,1.10888,1.10789,1.65524,1.654.45124.45114.86724.86715,1.33275,1.33266.86345.87632,1.74836,1.80974,2.64525,2.6186a5.9872,5.9872,0,0,1,.64646.6799,4.33055,4.33055,0,0,0,.497.53178c.30722.27787.578.55374.87453.86874.4706.49985.96506,1.00408,1.47458,1.50313.13315.13973.27518.28905.4202.44116-.09023.03792-.71593-.56692-.83251-.57531.23984.3162.65186.67631.93482,1.00329a13.17558,13.17558,0,0,0,1.09271,1.16417c.01138-.04072-.02156-.12855.0515-.099a3.80775,3.80775,0,0,1,.40592.37329c.34175.35372.702.72422,1.00349,1.06636.54036.61642,1.19392,1.20091,1.71632,1.82492.13155.15849.39295.37927.59476.57609a34.30991,34.30991,0,0,1,2.476,2.734,10.73623,10.73623,0,0,0,1.47967,1.64566,7.71157,7.71157,0,0,1,.98532,1.05877,6.35992,6.35992,0,0,0,1.01227,1.01327,4.96735,4.96735,0,0,1,.84169.72262c.09612.12216.31819.38806.48926.63039a5.56755,5.56755,0,0,0,.63359.76814A16.25549,16.25549,0,0,1,27.82823,57.99a4.78076,4.78076,0,0,0,.82223.92224c.54286.43836.93621,1.0476,1.47568,1.49754a11.49558,11.49558,0,0,1,1.32636,1.573c.13954.16009.27118.33775.41631.47869,1.13054,1.09271,2.08082,2.31158,3.15148,3.44541,1.07883,1.13463,2.023,2.38345,3.1893,3.44941a5.09888,5.09888,0,0,1,.38916.48587c.862,1.03443,1.73319,2.06486,2.68247,3.04578.19832.20481.40223.40882.58778.62281q2.78289,3.24461,5.56517,6.48881,2.92855,3.41468,5.8614,6.83494,3.08844,3.56918,6.18059,7.142c.514.59646,1.06017,1.169,1.555,1.7782,2.39183,2.94877,4.9169,5.78455,7.456,8.60117,4.215,4.67826,8.44367,9.34455,12.73178,13.94855,2.58037,2.7715,5.27382,5.42723,7.9546,8.09413,2.57807,2.5679,5.215,5.07072,7.81137,7.62064,2.59694,2.55033,5.14288,5.15815,7.75778,7.69051a62.37784,62.37784,0,0,1,4.679,5.01682c.74188.89548,1.5178,1.755,2.31039,2.59663q-.12323,5.51727-.23246,11.03612a20.67906,20.67906,0,0,0-3.3469,2.75992,67.29877,67.29877,0,0,1-10.61183,8.8471A19.60412,19.60412,0,0,0,92.798,176.213c-2.14889,2.90165-5.373,4.84873-7.59179,7.72524-2.34572,3.063-5.40887,4.46547-8.10921,6.83454-.82153.72222-1.74427,1.39414-2.45261,2.15867-5.4973,5.95662-11.80155,10.8341-17.5351,16.45856-5.74842,5.656-12.15527,10.55623-17.4811,16.72644a24.20508,24.20508,0,0,1-2.47627,2.03571c-2.62828,2.25769-5.24657,4.53294-7.82614,6.86848l-1.92353,1.767-.95667.89549-1.58837,1.54225c-2.11655,2.06326-4.227,4.15487-6.30585,6.25845-.85077.87952-1.77411,1.76143-2.56729,2.64175-.81215.88032-1.63278,1.75345-2.47947,2.6154L7.0648,257.30082l-.40583.41361-.20311.2072c-.02216.03394-.09382.07067-.07545.10181l.106.091.84858.729,1.70265,1.462,3.42675,2.94277L26.54747,275.328q8.33278,7.41264,16.67275,14.83087,17.32444,15.33251,34.87686,30.44822c12.03521,10.36021,24.20515,20.58427,36.35684,30.82072.18544,3.667.37728,7.33318.51352,11.003q.40047,11.96514.80106,23.93547l.46132,17.34526c.15521,5.49949.53548,10.99379.49835,16.50247a19.45566,19.45566,0,0,0,.1564,2.44054c.3698,2.94637.33346,6.00173.48587,9.00639.16219,3.267.12027,6.55228.47729,9.82443a81.56967,81.56967,0,0,1,.29843,15.26244c-.07386.929-.02735,2.11156.00369,3.17593l.23486,6.60977,1.0471,30.52168q.16782,4.53274.33545,9.0591c.11069,3.02022.12027,6.25884.36171,9.0024.03244.37448.0565.73938.07676,1.0991q-3.18323,3.55421-6.36564,7.10761-18.84929,20.921-37.71574,41.86122c-7.87006,8.7948-15.81279,17.4834-23.79983,26.14964-11.487,12.4586-22.62,25.19866-33.73534,37.87963-5.69921,6.52593-10.64536,12.35878-14.93147,17.15-4.49342,5.09067-5.802,5.9159,1.63118-1.13463,3.89835-3.69375,8.11839-7.55078,12.75084-11.89288,10.95547-10.26678,21.99128-20.411,33.07021-30.59195,13.49232-12.41228,26.99363-24.8613,40.59444-37.14343q14.586-13.14429,29.19871-26.31333c.018.61.03973,1.22167.0527,1.82891.17128,6.61456.34175,13.20078.51262,19.79777.07935,2.75194.08315,5.68754.23555,8.22109.22567,3.78837.3144,7.46015.35113,11.28724.00769.80007.04612,1.64166.07556,2.45611.11358,3.27095.22687,6.52832.34085,9.81.09681,3.27255.15221,6.597.31709,9.74458.16269,3.225.068,6.53831.19323,9.818.04811,1.32187.0562,2.85414.11329,4.06822.21638,4.709.27248,9.70706.37478,14.62366q.09117,4.52016.182,9.02276c.06049,3.26816.12077,6.52713.18126,9.79369q.10419,6.94792.2083,13.89785c.00928.4695.01756.8899.02635,1.33225a8.46191,8.46191,0,0,1,.06358,1.96465c.01636,2.31118.03014,4.24109.04581,6.45247.011,1.04241.01816,1.73069.02076,1.97742.0005-1.02085.0008-1.8297.0013-3.336-.0017-4.3477-.0034-8.66225-.00509-12.96563-.00549-3.01344-.01108-6.05643-.01657-9.024-.02146-2.45052-.02336-4.733-.01208-7.26771.01527-4.74414.09252-9.70187-.07076-14.353a35.63162,35.63162,0,0,1,.05359-3.61749,25.53854,25.53854,0,0,0,.0564-2.805c-.0541-1.59535-.04781-3.0857-.01777-4.75332.04741-2.64694.06018-5.36974.03723-8.12008-.00639-.745.02026-1.53826.033-2.34832.22726.14093.26908,3.49692.46082,3.83707.13284-1.5171.03772-3.62228.11278-5.2855.09152-1.9878.18255-3.97321.11638-6.15464-.09173.07985-.18884.41042-.26619.13095-.03923-.14253-.06817-1.39773-.06129-2.12434.01867-1.89718.03314-3.88977.10261-5.64561.12925-3.15438.00119-6.52913.17616-9.65675.04571-.79009-.02785-2.10518-.03843-3.19231-.03493-3.53524.14932-11.08641.43308-14.20845a63.7167,63.7167,0,0,0,.27966-8.52291,45.68012,45.68012,0,0,1,.12067-5.57455,37.78743,37.78743,0,0,0-.00738-5.52265,29.35971,29.35971,0,0,1-.21769-4.26425c.04162-.54576.10889-1.70674.215-2.76472.30891.39564.616.79288.93372,1.18054,2.26407,2.76193,4.63734,5.42444,6.88844,8.19554,2.57028,3.16077,5.23978,6.2321,7.92565,9.28506,1.83769,2.08762,3.7147,4.14009,5.5993,6.18379q1.73968,1.887,3.51549,3.74c1.57778,1.64686,3.15437,3.29411,4.77727,4.89864,1.31988,1.30471,2.7,2.55392,4.04687,3.83388,1.29393,1.23005,2.53316,2.514,3.88078,3.69015l16.23259,14.09826c.37808.32817.78729.62481,1.17954.939.89709.71783,1.80615,1.42328,2.68168,2.16386q2.37745,2.01156,4.71859,4.061l3.36876,2.99348c1.07175.945,2.23852,1.79418,3.23023,2.82261a2.23989,2.23989,0,0,0,.513.38247,14.106,14.106,0,0,1,1.85385,1.45,18.96394,18.96394,0,0,0,2,1.60414,9.252,9.252,0,0,1,2.91843,2.67928,3.60735,3.60735,0,0,0,.58248.58208l1.3089,1.11587,6.02789,5.16733,1.79956,1.52349a21.66174,21.66174,0,0,0,1.80056,1.50193,14.85663,14.85663,0,0,1,1.67979,1.575c.21159.188.44016.35891.65954.53977.929.76613,1.88859,1.5143,2.76771,2.31478,1.271,1.155,2.55053,2.29162,3.83926,3.42266.53718.47229,1.07575,1.01007,1.60374,1.4113a25.22954,25.22954,0,0,1,2.214,1.92632c.14971.14412.31979.28226.48148.4196.64657.55334,1.29073,1.10429,1.9391,1.65923.63977.56053,1.27157,1.1482,1.91733,1.65723.65894.5238,1.22466,1.173,1.87781,1.72271.2623.22277.546.501.79229.70026.95338.77372,1.89139,1.66881,2.83419,2.52957l1.72769,1.58178,1.86843,1.7235,2.63058,2.46649c.088.08065.17007.1561.25491.23395.024-.01557.083.03314.38646.33416.431.4192.7885.76694,1.19951,1.16658.17646.16927.29364.28106.37469.35891l.02674.02675.03434.03393-.04951-.0491c-.19542-.19683-.34913-.35173-.6252-.6296q-1.19382-1.1977-2.37367-2.381c-.54815-.55694-1.10429-1.11746-1.65763-1.652-.45733-.44116-.87573-.86-1.33445-1.33066-.86135-.87872-1.73528-1.82292-2.65533-2.60862a4.01269,4.01269,0,0,1-.63878-.68748,2.88088,2.88088,0,0,0-.48906-.53977,9.98555,9.98555,0,0,1-.87713-.86635c-.46391-.50663-.95637-1.01246-1.46919-1.50831-.13913-.13415-.27288-.29145-.4156-.44555.12256-.07027.75415.529.89788.51022-.221-.33536-.64656-.6819-.91884-1.01925a8.80221,8.80221,0,0,0-1.07615-1.18094c-.02435.05349-.00519.1557-.08943.13693a2.60564,2.60564,0,0,1-.41461-.3645c-.339-.35692-.69726-.729-.98891-1.08113-.522-.63479-1.19372-1.20091-1.69116-1.85007a7.23132,7.23132,0,0,0-.60026-.57051,22.9751,22.9751,0,0,1-2.41458-2.79506,7.23932,7.23932,0,0,0-1.44-1.68518,5.16291,5.16291,0,0,1-.96815-1.07594,4.26618,4.26618,0,0,0-1.01327-1.01207,3.37459,3.37459,0,0,1-.87253-.69148c-.08983-.129-.30122-.40562-.45473-.66513a3.81312,3.81312,0,0,0-.60065-.80127,10.97353,10.97353,0,0,1-1.65464-2.12035,3.22661,3.22661,0,0,0-.79828-.94579c-.56971-.41121-.90966-1.07395-1.472-1.50113a7.78743,7.78743,0,0,1-1.26639-1.63248,5.37447,5.37447,0,0,0-.40123-.49346c-1.14142-1.08233-2.02593-2.36668-3.08211-3.51488a44.43968,44.43968,0,0,0-3.12822-3.5101,3.46536,3.46536,0,0,1-.3655-.50982,36.635,36.635,0,0,0-2.595-3.13242c-.197-.206-.401-.41-.57989-.63039q-2.6709-3.35659-5.34119-6.712-2.81043-3.532-5.62545-7.06969-2.97213-3.68476-5.94784-7.37351c-.49406-.61643-1.03442-1.19452-1.50133-1.8317-2.25569-3.08411-4.706-5.99415-7.17929-8.87624-4.10435-4.78845-8.22887-9.55854-12.44362-14.23521-2.53576-2.81621-5.242-5.45917-7.92965-8.11928-2.58406-2.56191-5.25775-5.028-7.869-7.56315-2.61181-2.53556-5.14557-5.15575-7.78433-7.66416a41.70707,41.70707,0,0,1-4.60041-5.09466,35.99971,35.99971,0,0,0-3.05257-3.53844q1.81574-1.63668,3.63046-3.27175,15.95682-14.3899,31.9296-28.79379,9.803-8.88342,19.61292-17.77284c8.68741-7.92845,17.40735-15.82137,26.03406-23.82408l5.25377-4.89146,2.61939-2.4557,1.30531-1.23245,2.51918-2.45531,5.15535-5.03079,2.58307-2.52078c.85576-.84079,1.75385-1.68119,2.5108-2.52637l9.50644-10.161,1.1484-1.22486.07187-.07665.03593-.03833C248.64233,420.54132,248.62057,420.53094,248.60979,420.51937ZM200.30888,79.97442a10.82645,10.82645,0,0,1,.97514-.82163c-.16888.21519-.328.45553-.50783.64278-.68589.69826-1.36619,1.39134-2.84617,2.89806C199.19421,81.23641,199.72959,80.59125,200.30888,79.97442Zm-49.20219,46.17219,1.48955-1.4692c.0006.08384.03593.20481-.00339.24394l-1.5211,1.47837C151.08153,126.31349,151.05578,126.19811,151.10669,126.14661ZM9.7877,38.237c-.05759-.05549-.11029-.12177-.16529-.18325l.11947.1038c.13475.13375.26879.26669.56.55534C10.02724,38.45855,9.90777,38.348,9.7877,38.237Zm9.039,9.4707-.28436-.28984c.01367.00279.03244.0008.04.00838l.28685.295C18.85487,47.71726,18.83671,47.71766,18.82673,47.70767Zm4.92558,5.03439a.29635.29635,0,0,1-.16788-.0571,2.60946,2.60946,0,0,1-.69127-.59007c-.27089-.38127-.59257-.76573-.92983-1.16338-.02565-.02994-.03523-.07864-.01437-.06587a2.38168,2.38168,0,0,1,.23156.16329c.04112.03234.09841.09741.16548.16488a10.74649,10.74649,0,0,0,.98272,1.02564C23.62176,52.481,23.8143,52.73926,23.75231,52.74206Zm4.14,4.79324c-.241-.24034-.48726-.48587-.93162-.92863-.14123-.16009-.46-.5218-.77352-.87712a.14849.14849,0,0,1-.02285-.14213c.00279-.00958.09322.0511.12985.089l1.71592,1.80415c.02984.03154.067.1082.0532.1078A.25784.25784,0,0,1,27.8923,57.5353ZM235.326,640.93463a2.37982,2.37982,0,0,1,.1611.18764c-.04133-.03313-.08724-.06507-.12357-.09981-.13514-.13334-.26968-.26549-.56192-.55334C235.08184,640.71785,235.20361,640.826,235.326,640.93463Zm-8.94251-9.56652.28346.29065c-.01637.00039-.04052.00718-.04791-.0004l-.28526-.29664C226.35072,631.36332,226.37348,631.35813,226.38346,631.36811Zm-4.90463-5.05514a.28193.28193,0,0,1,.19583.02914,1.781,1.781,0,0,1,.71743.56373,12.05114,12.05114,0,0,0,.87273,1.22046c.02455.03114.02435.08943.0014.079a1.66332,1.66332,0,0,1-.24873-.14652,1.75815,1.75815,0,0,1-.16608-.16408,7.15516,7.15516,0,0,0-.97314-1.03523C221.577,626.60641,221.40058,626.33173,221.47883,626.313Zm-3.98179-4.95054c.24952.23116.49046.48228.93341.92663.13674.16448.44515.53657.74877.90187.04113.05111.01278.129-.007.17168-.006.01277-.1038-.04033-.14013-.07905l-1.69616-1.82332c-.02935-.03194-.0567-.11857-.03973-.12137C217.35291,621.33009,217.44474,621.31412,217.497,621.36243Zm-117.259-448.729c1.18314-1.29233,2.4593-2.55273,4.72018-4.86311.82672-.72621,2.68327-2.37985,4.54711-3.95964a.81409.81409,0,0,1,.82133-.03114c.06039.02436-.22487.51662-.42109.70585q-4.6329,4.43932-9.26181,8.87425c-.16169.1541-.58229.32218-.58877.24154A1.276,1.276,0,0,1,100.23808,172.63339ZM85.17376,288.28881l-18.13126-14.432c-5.77027-4.54891-11.80993-8.75208-17.36113-13.59243a17.23069,17.23069,0,0,0-2.67828-1.87283c-.86634-.49345-1.70724-1.03282-2.53226-1.60094l-1.22686-.87193c-.07136-.0539-.04561-.02915-.059-.03633l-.01677-.0032-.033-.00758-.06368-.01956a3.42907,3.42907,0,0,0-.51092-.20361,3.33829,3.33829,0,0,1-.65765-.32219c-.36111-.10021-.22736-.25751-.45932-.47349a.6495.6495,0,0,1-.1565-.29025.73215.73215,0,0,1-.02-.16369l.00339-.08464.0563-.05749a2.42215,2.42215,0,0,1,.70375-.44634,2.70377,2.70377,0,0,1,.47859-.15371q.92643-.87912,1.888-1.71951c1.282-1.12026,2.606-2.193,3.98289-3.20189a25.98828,25.98828,0,0,0,3.06285-2.93838c2.02792-2.13512,4.01133-4.313,6.0171-6.47L85.16218,209.3676c2.73927-2.96992,5.43282-5.97778,8.135-8.97924,2.70743-2.99788,5.8089-6.01651,8.01169-8.99482,2.62688-3.542,5.59691-5.61008,8.28078-8.485.54606-.58408,1.06876-1.19052,1.588-1.80056-.04751,3.71091-.1065,7.42063-.13664,11.13313-.07187,8.7928-.14582,17.58441-.11458,26.38519.02575,7.15593.18784,14.325.27457,21.48655.08264,6.88245.03743,13.7625.24693,20.64376l1.55573,49.37486c-.89659-.69268-1.79927-1.37657-2.69176-2.07484Q97.74545,298.17493,85.17376,288.28881Zm38.41909,339.164c-.00978-.20361-.02654-.41481-.02824-.60923-.00329-.73261-.00669-1.45962-.01387-3.0406.03872,1.44085.05549,2.06606.07246,2.69885C123.62709,626.81082,123.60353,627.1354,123.59285,627.45279Zm.70406-49.85993c-.01966-.04392-.05649-.08983-.05639-.13095l.01207-1.58777a.48612.48612,0,0,1,.05131.15291Zm.53657-24.61937c-.19253,1.7798-.30012,3.70572-.40332,5.7095-.00779.1521-.07646.3106-.09123.22-.04771-.29225-.09023-.67072-.12217-1.07675-.01577-.20041-.00279-.53378-.00269-.90068.07735-1.71871.14283-3.47136.067-5.47673a6.13807,6.13807,0,0,1,.17067-2.58027,1.41641,1.41641,0,0,1,.19683.61283A15.368,15.368,0,0,1,124.83348,552.97349ZM199.13712,429.275l-8.3259,8.85388c-13.33172,14.24239-26.36143,28.76744-39.41429,43.26055q-12.381,13.824-24.7529,27.63759c.02555-2.20339.35971-4.17882.45592-6.36344.03474-.81684.11478-1.66043.106-2.44014-.07625-6.06321.38846-11.97911.49026-17.99043.08864-6.03606.61762-12.01863.43018-18.10421-.02335-.72262.121-1.57858.16748-2.38743.296-5.17132.56951-10.35821.61662-15.62136.00959-1.0995.008-2.21137.0561-3.30089Q129.75648,426.38,130.546,409.944q.83151-17.29794,1.66462-34.62664.19343-4.28241.38686-8.57082c12.12324,10.32028,24.57046,20.29642,37.0584,30.20189l19.08114,15.052,9.56832,7.49249L203.1,423.2258l1.00807.7841-.80347.842Z"/><path class="cls-1" d="M199.76312,76.39407c1.30112-1.2588,2.59983-2.5647,3.86661-3.84825a4.38741,4.38741,0,0,0,.77812-.99291,3.83543,3.83543,0,0,0-1.038.719q-5.1271,4.84893-10.27756,9.71983c-2.02334,1.93391-2.17625,2.18662-2.53576,3.863A120.92221,120.92221,0,0,1,199.76312,76.39407Z"/><path class="cls-1" d="M245.4658,31.77532c-.1585.16209-.31679.32378-.47669.48706l-.00659.00759.14493-.14532C245.24083,32.00767,245.35321,31.89149,245.4658,31.77532Z"/><path class="cls-1" d="M248.27344,28.88644c-.28765.29463-.7851.80406-1.13184,1.15858-.57411.59287-1.12306,1.15979-1.6758,1.7303.49984-.51063.99809-1.01966,1.5179-1.551C247.90334,29.2729,248.77308,28.36942,248.27344,28.88644Z"/><path class="cls-1" d="M164.24738,109.65452l-.67212.55494-.60364.65435c.305-.23316.608-.44515.91545-.71224A3.46312,3.46312,0,0,0,164.24738,109.65452Z"/><path class="cls-1" d="M11.07194,39.984c-.80656-.75935-.81484-.77292-1.81723-1.80615-.24682-.25032-.49775-.50423-.74387-.75376a1.43406,1.43406,0,0,0-.18325-.16049,1.24467,1.24467,0,0,0,.15141.18924l1.89677,1.98421A1.68865,1.68865,0,0,0,11.07194,39.984Z"/><path class="cls-1" d="M.03194,28.76507c.05988.05988.1565.1561.22227.22157.11877.11778.23335.23156.34913.34614-.1044-.1038-.2077-.2068-.31559-.3142C.17636,28.908.07645,28.80938.03194,28.76507Z"/><path class="cls-1" d="M.03194,28.76507l-.0004-.0004C-.00709,28.72634.00359,28.73712.03194,28.76507Z"/><path class="cls-1" d="M15.83963,45.107a.97609.97609,0,0,0-.09132-.075l.11049.12735.12446.11977Z"/><path class="cls-1" d="M234.156,639.07419c.81923.74657.82622.76174,1.82212,1.80136.24633.25032.49665.505.74238.755a.98808.98808,0,0,0,.189.15491.83672.83672,0,0,0-.14193-.19882l-1.87741-2.00377C234.51732,639.188,234.46981,639.15643,234.156,639.07419Z"/><path class="cls-1" d="M245.16557,650.32429c-.06008-.05988-.1573-.1561-.22317-.22157-.12456-.12257-.24453-.24074-.3659-.36052.11.109.21858.21679.33177.329C245.09132,650.25163,245.265,650.42211,245.16557,650.32429Z"/><path class="cls-1" d="M229.471,633.86893a.70389.70389,0,0,0,.09562.07107l-.1066-.13175-.12556-.11858C229.37914,633.74956,229.41966,633.80865,229.471,633.86893Z"/><path class="cls-1" d="M124.46339,628.11353c-.00349,1.35461-.00708,2.73318-.01058,4.083a8.46432,8.46432,0,0,0,.04142.93781,7.1784,7.1784,0,0,0,.06568-.92943q.06857-5.28011.13743-10.58338a9.795,9.795,0,0,0-.26938-3.38832C124.51819,622.50265,124.50871,622.56293,124.46339,628.11353Z"/><path class="cls-1" d="M124.1997,675.96051c-.0006-.18445-.001-.3685-.0015-.55414l-.0003-.022v.16808Z"/><path class="cls-1" d="M124.21057,678.93163c-.00079-.30861-.00229-.84119-.00329-1.21208-.00259-.60245-.00519-1.17935-.00758-1.759.00129.52021.00269,1.03921.00419,1.58018C124.20838,678.5312,124.213,679.46981,124.21057,678.93163Z"/><path class="cls-1" d="M125.01184,591.26114c-.00379.11338.01887.30063.02935.45393l.02894-.64916L125.061,590.4C125.04478,590.685,125.02921,590.95772,125.01184,591.26114Z"/></g></g></svg>