<svg xmlns="http://www.w3.org/2000/svg" viewBox="0 0 251.53443 668.64815"><defs><style>.cls-1{fill:#24373e;}</style></defs><g id="Слой_2" data-name="Слой 2"><g id="Слой_1-2" data-name="Слой 1"><path class="cls-1" d="M244.87681,364.92316c-1.00118,1.152-2.0114,2.31409-2.99769,3.44909-.8046.945-1.56415,1.81614-2.41531,2.777-1.58978,1.80144-3.28587,3.65339-4.743,5.508a12.12862,12.12862,0,0,1-1.236,1.35249,8.72348,8.72348,0,0,0-.96707,1.04151c-.50078.63516-1.001,1.20059-1.57395,1.82143-.909.98572-1.82368,2.01743-2.727,3.07741-.24483.28724-.52434.57674-.80159.87905-.08236-.16661,1.0123-1.46709,1.01663-1.69213-.58106.51265-1.22847,1.3623-1.82556,1.95939a26.60961,26.60961,0,0,0-2.11733,2.28884c.079.01507.24426-.06258.19507.08255a7.84084,7.84084,0,0,1-.673.84022c-.64289.71432-1.31518,1.46671-1.93979,2.10149-1.12481,1.13877-2.17669,2.489-3.31847,3.5946-.28931.27856-.68567.81647-1.04208,1.23639a69.21039,69.21039,0,0,1-4.98139,5.20228,21.702,21.702,0,0,0-2.99939,3.111,15.54469,15.54469,0,0,1-1.9264,2.06531,12.85932,12.85932,0,0,0-1.83631,2.10941,10.03569,10.03569,0,0,1-1.29709,1.734c-.22466.20468-.71111.67474-1.15723,1.043a11.30958,11.30958,0,0,0-1.406,1.34269,32.79206,32.79206,0,0,1-3.73727,3.65868,9.679,9.679,0,0,0-1.68158,1.72982c-.7833,1.11389-1.90925,1.96956-2.71592,3.07893a23.25139,23.25139,0,0,1-2.87612,2.80488c-.29195.294-.61858.576-.8734.87754-1.97729,2.34952-4.21316,4.3745-6.27433,6.61584-2.06191,2.25755-4.35659,4.27574-6.27809,6.689a10.19216,10.19216,0,0,1-.89092.827c-1.89173,1.82482-3.77591,3.66659-5.55662,5.6501-.37186.41427-.74146.83909-1.132,1.23074q-5.92763,5.87534-11.85413,11.7499-6.23777,6.18235-12.48646,12.37526-6.51651,6.5154-13.04189,13.0387c-1.08939,1.08486-2.12939,2.22739-3.24535,3.27757-3.19729,3.00542-6.30939,6.0983-9.38548,9.22547.11006-3.97343.34358-7.91293.41106-11.89578.08368-5.69872.58314-11.34732.40616-17.09354-.022-.6819.114-1.49008.15813-2.25416.27932-4.88225.53772-9.78.582-14.74929.00924-1.03774.00754-2.08792.05315-3.11662q.74552-15.52147,1.491-31.03955c.0392-.81534.0784-1.63294.11761-2.44829.91165-1.03133,1.81539-2.08566,2.62734-3.17316a33.42461,33.42461,0,0,1,2.17782-2.616,25.50037,25.50037,0,0,0,4.18773-5.26373,2.51646,2.51646,0,0,1,1.23469-1.17419,1.84284,1.84284,0,0,0,.99176-.88094,6.15911,6.15911,0,0,1,1.40093-1.73133,21.54709,21.54709,0,0,0,2.55516-2.8192,7.32868,7.32868,0,0,1,.79065-.77124c.4889.50323-.4252,1.78938-.072,2.29939.76917-.27819,1.17533-1.22735,1.85007-1.67592a5.77354,5.77354,0,0,0,2.11092-1.98878c-.23427-.15-.55638-.22127-.64986-.4727-.04731-.12779.26424-.63478.49889-.88206a15.25275,15.25275,0,0,1,1.93093-1.82858c1.23507-.88885,1.96541-2.34312,3.28832-3.14037.337-.199.56938-.81045.87282-1.22057A17.33938,17.33938,0,0,1,154.25923,380.4a5.5135,5.5135,0,0,0,3.1104-2.59417,3.93956,3.93956,0,0,1,1.89492-1.81576,3.29838,3.29838,0,0,0,1.62183-2.01593c.19658-.55563.01376-1.16892.83494-1.91264a9.572,9.572,0,0,1,1.38435-.7,3.28465,3.28465,0,0,0,1.58017-1.00646,9.627,9.627,0,0,1,4.0492-2.88555,2.73437,2.73437,0,0,0,1.70852-1.47161c.43613-1.27409,1.92245-1.69062,2.414-2.93191.51209-1.32574,2.07888-1.44372,3.06856-2.25152a4.51592,4.51592,0,0,0,.89639-.73732c1.62258-2.34839,4.15888-3.82792,6.05456-5.91132,1.89474-2.09961,4.49192-3.56821,5.92565-6.09113.17019-.29968.64817-.41917.95482-.65552a32.603,32.603,0,0,0,5.43542-4.98139,10.20753,10.20753,0,0,1,1.02662-1.15611c3.8628-3.45248,7.78552-6.84653,11.59215-10.35217q6.02488-5.51063,11.83547-11.22254l3.01748-3.016,1.49989-1.51684.187-.19.33737-.369.70528-.77614,1.41431-1.55756,5.72474-6.30373,6.9468-6.43755c1.17043-1.08222,2.299-2.17462,3.44024-3.26513l.107-.10216.05353-.05126c.00961-.017-.02752-.03317-.039-.04976l-.2109-.199-.41974-.39806-.83023-.79574c-.54827-.53112-1.08467-1.06224-1.603-1.59563l-3.84846-3.90218-1.98238-1.97145-1.00363-.98949c-.32173-.32983-.57033-.65853-.86058-.98836-2.24586-2.63752-4.55468-5.29389-6.89629-7.95063l-1.94808-2.22325c-.56354-.64307-1.13971-1.27522-1.71814-1.90548l-3.49017-3.76233Q206.56581,256.9655,194.18235,245.187c-4.99176-4.704-10.27037-9.14367-15.52053-13.60638-5.04641-4.29911-10.19272-8.498-15.25987-12.77935-5.06281-4.28667-10.06361-8.64157-15.15922-12.89847-3.20256-2.67634-6.31108-5.42581-9.38982-8.20921-2.66729-2.41285-5.44409-4.71752-8.25652-6.98186q-.00537-1.56453-.01055-3.12944c-.039-13.2479-.28441-26.47959-.38355-39.729-.09932-13.25129-.01752-26.52068-.17716-39.77159-.1014-8.32908.03034-16.6412.523-24.96388q.4382-7.39857.51359-14.77869,9.3623,10.8245,19.12681,21.31877c5.47387,5.84423,11.24705,11.43854,16.99025,17.054,5.52062,5.40848,11.14527,10.72008,16.68757,16.11159,5.538,5.39679,11.01145,10.85992,16.58352,16.22844,3.502,3.37483,6.90572,6.81751,10.27829,10.29261,4.84814,4.99873,9.99671,9.72644,15.13849,14.43114,2.64638,2.41324,5.06093,4.47478,6.96943,6.31241,2.04834,1.91339,2.18461,2.59831-.24408-.83344-1.27089-1.80069-2.54761-3.77741-4.02488-5.9264-3.4898-5.0843-6.86689-10.24437-10.26208-15.41951-4.13853-6.30448-8.29949-12.60784-12.31042-19.00769q-6.84249-10.97545-13.697-21.97014-4.69161-7.5128-9.38774-15.03276c-1.91943-3.0891-3.87976-6.14729-5.82708-9.21679-2.62-4.07181-5.20455-8.17152-7.8971-12.18943-2.17161-3.28172-4.48268-6.45941-6.72158-9.69024-2.14541-3.10984-4.21241-6.28187-6.47411-9.29672l-6.56382-8.556-6.65-8.48589L131.433,20.37715l-1.77222-2.1946c-.14777-.19074-.29478-.34755-.4433-.56656l-.44574-.65325-.8913-1.30651-3.5633-5.223L117.19828,0l-2.81864,4.15851c-1.39208,2.054-2.7621,4.272-4.1293,6.37761l-4.65589,7.1971-.28893.44556-.28724.38185-.5739.75126-1.14725,1.495-2.29864,2.95529-4.17,5.28672-2.08283,2.63-1.00608,1.305-4.00848,5.18268L83.84238,45.6128c-1.842,2.38157-3.36089,5.02173-5.47294,7.18994a3.189,3.189,0,0,0-.6802,1.16817c-.55129,1.62993-1.74151,2.81732-2.63356,4.21128-.97536,1.51157-2.26227,2.78227-2.9191,4.55582a12.38535,12.38535,0,0,1-5.18608,6.54874A4.67525,4.67525,0,0,0,65.782,70.57668c-.71036.97705-1.3753,1.98991-2.063,2.98468q-4.74758,6.90384-9.4407,13.85178c-.93107,1.37473-1.81728,2.78264-2.712,4.18489a24.16487,24.16487,0,0,0-2.62,4.2192c-.66135,1.766-2.05513,2.51275-2.979,3.837-.343.49-.60576,1.04415-.91448,1.56284-1.31065,2.19384-2.48108,4.52565-3.94817,6.56269-2.10658,2.95265-4.12817,5.95468-6.09641,9.00722a31.2666,31.2666,0,0,0-2.459,3.79927,24.79866,24.79866,0,0,1-3.28135,5.29313,9.60256,9.60256,0,0,0-.71036,1.155c-.90242,1.573-1.78542,3.15243-2.731,4.69831a43.98549,43.98549,0,0,0-2.72629,4.65646c-.7556,1.66046-2.15389,2.86029-3.01673,4.47213-.35037.6476-.87113,1.30462-1.16025,1.92621a61.94694,61.94694,0,0,1-4.21241,6.88913q-1.34769,2.09208-2.69029,4.177-1.46982,2.26227-2.93644,4.52-2.10564,3.18843-4.25143,6.346c-.14531.21335-.25765.418-.38675.625.12779.12062.06295.27442-.49475.98346-.7718,1.00193-1.35965,1.88588-2.09546,2.84748-.35056.46893-.56637.79574-.6231.89789.35584-.435.63874-.781,1.16082-1.41883,1.47312-1.86892,2.947-3.71447,4.46327-5.51666,1.06074-1.26241,2.116-2.552,3.07063-3.86789.78821-1.08787,1.57226-2.0604,2.47864-3.111a34.74771,34.74771,0,0,0,4.77934-6.23777,3.39241,3.39241,0,0,1,1.38718-1.42373,2.47336,2.47336,0,0,0,1.11087-1.07544,8.38707,8.38707,0,0,1,1.59695-2.05438,29.4263,29.4263,0,0,0,2.89365-3.37445,9.89594,9.89594,0,0,1,.88941-.93333c.49343.50021-.55788,2.01253-.20977,2.53536.838-.389,1.32686-1.47613,2.074-2.04193a7.81147,7.81147,0,0,0,2.37064-2.41361c-.24163-.14023-.58164-.1832-.667-.45008a2.42255,2.42255,0,0,1,.58409-1.02342,20.80253,20.80253,0,0,1,2.16915-2.21835c1.37116-1.11011,2.23569-2.78754,3.69543-3.80644.37167-.25519.65533-.95217,1.00325-1.43617a23.35566,23.35566,0,0,1,5.77223-5.32857,7.37669,7.37669,0,0,0,3.47378-3.18748,5.31612,5.31612,0,0,1,2.13-2.20026,4.45481,4.45481,0,0,0,1.84969-2.39137c.24219-.63177.08236-1.28653,1.00269-2.19234a12.33849,12.33849,0,0,1,1.51986-.919,4.30912,4.30912,0,0,0,1.74678-1.27635,12.77872,12.77872,0,0,1,4.494-3.6093,3.65547,3.65547,0,0,0,1.91076-1.80182c.5396-1.44748,2.15219-2.06568,2.74909-3.483.62385-1.5127,2.305-1.81162,3.40932-2.806a6.07889,6.07889,0,0,0,1.00062-.90769c1.86948-2.75626,4.6655-4.65608,6.81186-7.15111,2.146-2.51237,5.00626-4.40692,6.68426-7.33469.199-.34793.71677-.53075,1.05828-.82364a44.1958,44.1958,0,0,0,6.09622-6.0621,13.98028,13.98028,0,0,1,1.164-1.3819c4.32739-4.21166,8.71565-8.36565,12.98592-12.63008q3.87882-3.85,7.68092-7.77082c-.44047,6.61057-.86039,13.22151-1.13707,19.84829-.54036,12.9437-.84757,25.91039-1.41243,38.84316-.64082,14.75909-1.07186,29.5408-1.46407,44.31836-.26745,10.10829-.4514,20.22524-.61782,30.34069q-.15324,9.33686-.22919,18.68049c-.06785,8.30232-.13759,16.60313-.10818,24.91224.02431,6.75644.17735,13.52571.25934,20.28743.078,6.49824.03524,12.99421.23314,19.49132l2.45979,78.07345c.05767,1.818.1847,3.6353.27366,5.45333.20393,4.15663.43519,8.31137.58955,12.47138q.378,11.29719.75635,22.5989l.43557,16.37695c.14663,5.19249.50567,10.38007.47062,15.58122a18.36288,18.36288,0,0,0,.14757,2.30467c.34925,2.78189.31494,5.66669.45875,8.50323.15323,3.085.11365,6.18688.45064,9.276a77.00034,77.00034,0,0,1,.28177,14.41041c-.06973.87717-.02582,1.99407.00359,2.999l.22164,6.24078.98874,28.81743q.09839,2.65918.19677,5.315c-8.23183,8.55789-16.43878,17.1399-24.52718,25.81955-5.04283,5.40885-9.85233,11.01522-14.68408,16.59936-4.6525,5.3704-9.17514,10.843-13.79183,16.24578-4.61745,5.40357-9.35043,10.71932-13.9315,16.15455a125.93871,125.93871,0,0,1-9.12633,9.806A102.00207,102.00207,0,0,0,24.22269,601.202a13.74588,13.74588,0,0,0-2.65335,9.103c.22353,3.60778,3.05819,6.84428,7.69863,5.74471a13.28254,13.28254,0,0,0,6.21967-3.33563c4.15436-3.92253,8.37432-7.77308,12.39109-11.82943,4.89413-4.94294,9.656-10.01744,14.561-14.94267,5.59544-5.623,11.07252-11.36541,16.52472-17.12671q5.59374-5.91207,11.08138-11.92744,3.388-3.69,6.73157-7.42327c2.9713-3.31678,5.94336-6.63243,8.8585-10.0035,2.37008-2.74117,4.667-5.55548,7.00448-8.32908.38619-.458.77614-.913,1.16553-1.36832.13137,2.88291.25727,5.76431.31815,8.61443.16171,6.2453.32267,12.46422.484,18.69294.075,2.59831.07841,5.37.2224,7.76177.21317,3.57725.29685,7.04368.33153,10.65712.00716.75579.04354,1.55.07143,2.31937.10724,3.088.21411,6.16388.32173,9.262.09141,3.09024.1438,6.2291.29948,9.20059.15361,3.045.06409,6.17331.18245,9.26995.04542,1.24808.053,2.69482.10686,3.8415.20431,4.44574.25727,9.16478.354,13.80691q.08595,4.26783.1717,8.51944c.05711,3.08534.114,6.16238.17113,9.247q.09838,6.55948.19677,13.122c.00867.44292.01659.83985.02488,1.25789a8.00362,8.00362,0,0,1,.05994,1.855c.01545,2.18178.02846,4.004.04335,6.09188.01036.99289.01734,1.64727.0196,1.87533.00037-.96763.00056-1.73134.00113-3.15771-.00151-4.10536-.00321-8.17906-.00471-12.2422-.00528-2.84484-.01056-5.71833-.01565-8.51982-.02035-2.31409-.022-4.46911-.01149-6.862.01451-4.47967.08726-9.16063-.06672-13.55172a33.55541,33.55541,0,0,1,.05051-3.41554,24.13768,24.13768,0,0,0,.05334-2.64845c-.05108-1.50629-.04524-2.91345-.01678-4.48834.04467-2.4988.05673-5.0696.03506-7.66641-.006-.70338.01922-1.45276.03128-2.21721.21449.13268.25407,3.30132.435,3.62248.12553-1.43241.03563-3.41969.10649-4.99043.08632-1.87646.17246-3.75141.10988-5.81106-.0867.07539-.17829.38788-.25123.12364-.03713-.1342-.06446-1.3197-.05787-2.00575.01753-1.79127.03129-3.67225.09688-5.33007.12194-2.97866.00113-6.165.16624-9.11766.04316-.74636-.0262-1.98766-.03619-3.01447-.033-3.33751.141-10.46752.4088-13.41489a60.14705,60.14705,0,0,0,.264-8.0475,43.14272,43.14272,0,0,1,.114-5.263,35.71734,35.71734,0,0,0-.007-5.21434,27.72119,27.72119,0,0,1-.20563-4.0262c.043-.56317.11422-1.81954.23107-2.88405a31.16829,31.16829,0,0,0,.219-3.61c-.00471-2.85879.1291-5.502.35019-8.03016.06427-.07992.1308-.15795.19469-.23824l26.0755-32.824c.60689-.76445,1.17175-1.56509,1.76-2.34613,1.3442-1.786,2.67163-3.58555,4.04674-5.34666l7.52109-9.52476,5.51817-6.84277c1.74452-2.17425,3.35918-4.45819,5.21623-6.54008a6.68014,6.68014,0,0,0,.7245-1.00834,42.14006,42.14006,0,0,1,2.725-3.67564c.99666-1.32611,2.11526-2.558,3.00279-3.98322a27.78006,27.78006,0,0,1,4.91655-5.9675,10.9162,10.9162,0,0,0,1.0564-1.213l2.06908-2.63714,9.57622-12.15776,2.82825-3.621c.94351-1.20662,2.01744-2.4464,2.79452-3.61231.92767-1.386,1.94619-2.28846,2.8814-3.44984.34718-.4301.67022-.8798,1.00778-1.319,1.42807-1.85987,2.83485-3.7612,4.30514-5.55586q3.1842-3.89013,6.30656-7.80362c.87189-1.089,1.84819-2.21005,2.60567-3.25156,1.13424-1.55681,2.3073-3.0009,3.562-4.47854.26217-.30873.52076-.64873.77558-.974,1.0253-1.30349,2.04664-2.60209,3.07534-3.9101,1.03567-1.296,2.11205-2.59078,3.067-3.87278.98233-1.31066,2.14032-2.52707,3.16223-3.83961.41314-.52811.919-1.11615,1.29124-1.60769,1.44636-1.90285,3.08006-3.8366,4.66023-5.76206q1.45457-1.76865,2.90365-3.53089,1.58205-1.914,3.16072-3.82415,2.25633-2.701,4.51322-5.40282c.15059-.18282.28648-.34793.429-.52095-.01847-.03241.072-.1504.61857-.781.76144-.89,1.396-1.63181,2.1243-2.483.33888-.39995.5594-.66042.65382-.772-.34377.39316-.61612.70415-1.11916,1.279Q247.02289,362.46469,244.87681,364.92316ZM16.65994,148.12881a2.05011,2.05011,0,0,1-.40993.33737,1.6333,1.6333,0,0,1,.14192-.31438c.2405-.32116.49136-.62988,1.02983-1.30726C17.02106,147.53511,16.86067,147.84534,16.65994,148.12881ZM35.22133,128.7223c-.02828-.0539-.09349-.13909-.079-.15681.18471-.22315.38072-.43688.5741-.65287.02186.05352.0784.13306.05993.15643C35.59846,128.29221,35.4081,128.50594,35.22133,128.7223Zm9.59355-9.56509a14.21164,14.21164,0,0,0-2.7964,1.75357c-.0686.05126-.26725.00188-.26707-.06182a2.24883,2.24883,0,0,1,.11535-.6657,1.81586,1.81586,0,0,1,.30514-.38713,7.23105,7.23105,0,0,0,2.028-2.21382c.40183-.73958,1.06017-1.07205,1.23847-.81346a.94621.94621,0,0,1,.19187.588C45.58688,117.99205,45.438,118.88769,44.81488,119.15721ZM55.957,108.13633c-.399.59972-.87377,1.16062-1.6893,2.204-.33774.30533-1.08863,1.00495-1.86929,1.65556-.108.08972-.39938-.05164-.5658-.14248-.05051-.02752-.01451-.28875.05993-.37243q1.75452-1.95976,3.5373-3.89389c.0622-.06747.30118-.09235.33266-.0392C55.86592,107.72394,56.04045,108.0108,55.957,108.13633ZM131.70651,399.3398a1.5324,1.5324,0,0,1-.369.27065,1.25336,1.25336,0,0,1,.118-.27442c.21034-.27178.431-.53074.90431-1.10032C132.01693,398.83016,131.88123,399.09893,131.70651,399.3398Zm16.50211-16.03469c-.0294-.05239-.095-.13608-.08218-.15078.16266-.18734.33662-.36451.50775-.54394.02319.05089.08048.12892.06409.14852C148.542,382.94626,148.37353,383.12418,148.20862,383.30511Zm8.552-7.86242a11.02423,11.02423,0,0,0-2.544,1.34571c-.062.04072-.25142-.023-.25444-.08142a1.8745,1.8745,0,0,1,.07577-.59784c.02846-.09914.15643-.19526.268-.32606a5.32841,5.32841,0,0,0,1.79824-1.83763c.34151-.63931.94426-.88244,1.12481-.62951a.97718.97718,0,0,1,.20978.55563C157.42937,374.4483,157.33344,375.25347,156.76066,375.44269Zm9.937-9.05056c-.34567.51152-.76465.98082-1.48029,1.85987-.3025.24766-.97441.81836-1.67648,1.34119-.09725.07237-.37827-.08368-.53942-.18245-.04881-.02977-.02808-.26537.03789-.33473q1.55379-1.63068,3.13528-3.235c.055-.05579.27875-.05654.31079-.00528C166.5917,366.00651,166.77,366.2847,166.69763,366.39213ZM202.90968,296.569a.1591.1591,0,0,1,.01866.03468c-.0147-.00867-.02582-.01659-.03977-.02526l.017-.01395ZM131.712,199.904c3.72841,5.28295,7.47774,10.5625,11.0842,15.948q6.151,9.24017,12.31288,18.49654,4.2175,6.32427,8.43953,12.6542c1.72511,2.60134,3.48942,5.16949,5.24129,7.75009,2.35839,3.41818,4.68285,6.86614,7.11041,10.227,1.95731,2.74759,4.0475,5.384,6.06889,8.07766,1.93658,2.59379,3.79833,5.25355,5.84611,7.74669l6.24493,7.40594,6.3386,7.32149,1.36229,1.53946c-2.22023,2.84032-4.503,5.62937-6.75079,8.44745-1.69194,2.11582-3.47623,4.15361-5.17156,6.26641-1.615,2.008-2.91345,4.28253-4.79329,6.0704a2.37691,2.37691,0,0,0-.582,1.0057c-.438,1.43995-1.49912,2.41587-2.26923,3.60816-.84286,1.29219-1.99067,2.336-2.52085,3.89729a9.16993,9.16993,0,0,1-4.55488,5.51025,3.44445,3.44445,0,0,0-1.03567,1.072c-.61989.82778-1.19549,1.69288-1.79315,2.53914q-4.12476,5.87589-8.19639,11.79664c-.8078,1.17118-1.57207,2.377-2.34425,3.57687a17.874,17.874,0,0,0-2.25605,3.61684c-.53489,1.55416-1.80917,2.10865-2.61282,3.23423-.29855.41653-.51831.899-.78312,1.34495-1.12462,1.88551-2.11035,3.90973-3.38972,5.63729-1.83574,2.506-3.58912,5.06469-5.28973,7.67507a23.07351,23.07351,0,0,0-2.12543,3.24742,18.36182,18.36182,0,0,1-2.82505,4.5381,7.05649,7.05649,0,0,0-.61123.99062c-.77124,1.35552-1.52382,2.71857-2.3369,4.04505a32.62084,32.62084,0,0,0-2.33445,4.0066c-.62875,1.44862-1.88493,2.41738-2.61678,3.81172-.2976.55977-.755,1.11275-.99628,1.65443a45.81569,45.81569,0,0,1-3.6223,5.9117q-1.16421,1.789-2.32427,3.5716-1.27078,1.93319-2.53895,3.8626c-.56561.844-1.14347,1.67781-1.71493,2.51765q.68953-14.33691,1.37945-28.69266.77406-17.14141,1.54907-34.30582c.13288-2.85954.17208-5.73943.3583-8.58314.90694-13.75264,1.40338-27.55654,1.84347-41.34687.7358-22.89856,1.42939-45.80278,1.91886-68.6972.21939-10.18405.229-20.36283.20129-30.539C130.98446,198.87755,131.34879,199.3887,131.712,199.904ZM116.614,619.8946c-.00924-.19224-.02507-.39165-.02676-.57523-.00321-.6917-.00622-1.37775-.013-2.87047.03638,1.36041.05221,1.95034.06842,2.54818C116.64624,619.28847,116.624,619.59493,116.614,619.8946Zm.66475-47.0765c-.01866-.04146-.05334-.08444-.05334-.12364l.0115-1.49875a.45525.45525,0,0,1,.04844.14437Zm.50662-23.2446c-.18188,1.68006-.28347,3.49847-.38091,5.39038-.00735.14361-.07218.29364-.08613.20807-.04505-.2763-.08519-.63365-.11535-1.01663-.01489-.18923-.00264-.50436-.00264-.8504.07313-1.62314.135-3.27758.06333-5.171a5.80052,5.80052,0,0,1,.16115-2.4366,1.3349,1.3349,0,0,1,.18583.57862A14.51457,14.51457,0,0,1,117.78538,549.5735Zm.70509-22.09c-.03035.77614-.09877,2.52971-.166,4.25048a.56769.56769,0,0,1-.19809.42482,2.049,2.049,0,0,1-.06879-.56354q.05088-3.483.1014-6.963c.11139-.135.22127-.2714.33209-.40673C118.4931,525.0842,118.48971,526.0948,118.49047,527.48349ZM202.64167,412.181l-3.27815,3.59007c-.05729.06257-.20053.14663-.20072.11987a.50137.50137,0,0,1,.08425-.33662c.4235-.51114.877-1.01776,1.6827-1.94091.29195-.29741.95218-.96952,1.60015-1.62918a.28833.28833,0,0,1,.26933-.0671A.76784.76784,0,0,1,202.64167,412.181Zm8.4776-8.6608c-.05786.08444-.17642.20506-.29855.34491a21.69143,21.69143,0,0,0-1.86345,2.05475c-.47043.60539-.94539,1.01777-.95688.899a.58177.58177,0,0,1,.09216-.33134,5.26982,5.26982,0,0,1,1.05866-1.42374c.70264-.58276,1.40565-1.26353,2.132-1.97635.05522-.0539.1472-.08029.12534-.03844A4.723,4.723,0,0,1,211.11927,403.52017Zm6.53009-7.49866-.53584.59935c.00679-.02827.00377-.063.02168-.08368l.52584-.5937C217.65765,395.97025,217.6633,396.00568,217.64936,396.02151Zm16.84154-18.49278c-.24219.28083-.48268.55977-1.00551,1.16629.45837-.56882.65721-.81572.85832-1.06526.10064-.1195.22221-.23183.33416-.34755C234.61549,377.36476,234.55461,377.45372,234.4909,377.52873Z"/><path class="cls-1" d="M250.31412,358.69783l.04938-.05654.095-.11007c-.0475.05466-.09594.11045-.14381.16586Z"/><path class="cls-1" d="M232.10632,378.95662a3.40747,3.40747,0,0,0-.97592,1.426c1.37153-1.6729,1.397-1.691,3.27249-3.78495.45347-.51492.91485-1.0385,1.36682-1.55153a2.92021,2.92021,0,0,0,.28893-.37808,2.46453,2.46453,0,0,0-.34717.32154Q233.91285,376.96915,232.10632,378.95662Z"/><path class="cls-1" d="M251.48248,357.34685l-.40221.46364c-.213.24728-.416.4825-.62177.72073.1864-.21524.37073-.42784.56429-.651C251.35017,357.50064,251.6604,357.14028,251.48248,357.34685Z"/><path class="cls-1" d="M221.80956,390.37669a2.04335,2.04335,0,0,0,.13457-.18772l-.23276.233-.21675.25859C221.59885,390.57987,221.69874,390.48337,221.80956,390.37669Z"/><path class="cls-1" d="M132.05142,403.13719c-.10988.13306-.225.41427-.17754.42558a.69226.69226,0,0,0,.44668-.19149q1.75734-1.75169,3.52241-3.51091c.68661-.70377.70169-.82288.36281-1.77544a15.83265,15.83265,0,0,1-2.89554,3.61231C132.87393,402.159,132.4557,402.65093,132.05142,403.13719Z"/><path class="cls-1" d="M145.599,389.77093l.2584-.17943.17811-.25821a2.67566,2.67566,0,0,0-.367.2175C145.62613,389.58434,145.62123,389.69516,145.599,389.77093Z"/><path class="cls-1" d="M117.436,620.51845c-.00339,1.27937-.00679,2.5806-.01,3.85544a7.99968,7.99968,0,0,0,.039.88508,6.77126,6.77126,0,0,0,.062-.87754q.06474-4.98479.12986-9.99256a9.24743,9.24743,0,0,0-.25444-3.19917C117.48759,615.22118,117.47873,615.27772,117.436,620.51845Z"/><path class="cls-1" d="M117.18678,665.6661c-.00037-.16435-.00075-.3287-.00131-.49456l-.00019-.01281v.15077C117.18584,665.429,117.18641,665.54736,117.18678,665.6661Z"/><path class="cls-1" d="M117.19715,668.49963c-.00075-.29138-.00207-.79423-.003-1.14442-.00245-.57862-.00509-1.132-.00736-1.68911.00151.50059.00264,1,.00415,1.52061C117.19508,668.12193,117.19941,669.00814,117.19715,668.49963Z"/><path class="cls-1" d="M117.95369,585.72373c-.00358.10668.0179.28347.0277.42859l.02733-.61292-.00867-.62913C117.98479,585.17941,117.97009,585.43687,117.95369,585.72373Z"/><path class="cls-1" d="M21.5405,146.264a21.58084,21.58084,0,0,1-3.303,4.28328c-.49286.55487-.9682,1.14065-1.42826,1.71889-.12534.15794-.26462.47948-.21449.487a.86279.86279,0,0,0,.48834-.259q1.97927-2.11468,3.96721-4.23917C21.82453,147.40733,21.84771,147.27464,21.5405,146.264Z"/><path class="cls-1" d="M1.058,170.29722c.05673-.07237.11478-.147.17208-.22014l.00245-.00377-.05353.06522Z"/><path class="cls-1" d="M.0521,171.60561c.1048-.13457.28347-.36413.40767-.52358.20507-.26914.40033-.52547.59822-.78481-.18074.23145-.35961.45988-.54733.70038C.1829,171.42958-.12582,171.84083.0521,171.60561Z"/><path class="cls-1" d="M32.146,135.86211c-.04712.04146-.0588.164-.08689.24954l.28649-.225.20506-.30307A3.52689,3.52689,0,0,0,32.146,135.86211Z"/></g></g></svg>