<svg xmlns="http://www.w3.org/2000/svg" viewBox="0 0 841.67374 841.67364"><defs><style>.cls-1{fill:#24373e;}</style></defs><g id="Слой_2" data-name="Слой 2"><g id="Слой_1-2" data-name="Слой 1"><polygon class="cls-1" points="425.81 253.485 468.31 327.096 492.837 284.609 573.092 423.617 422.531 423.617 380.035 497.223 700.584 497.223 492.837 137.395 425.81 253.485"/><polygon class="cls-1" points="317.635 423.617 268.584 423.617 348.837 284.609 424.115 414.999 509.11 414.999 348.837 137.395 141.09 497.223 275.138 497.223 317.635 423.617"/><polygon class="cls-1" points="476.564 505.841 501.091 548.322 340.583 548.322 415.862 417.933 373.364 344.328 213.088 621.928 628.585 621.928 561.563 505.841 476.564 505.841"/><path class="cls-1" d="M802.49352,383.98007a34.61492,34.61492,0,0,1-5.40007,4.54683,25.734,25.734,0,0,1-6.70219,3.29326c-5.46493,1.69317-10.38959.76092-13.49774-2.35482a10.46549,10.46549,0,0,1-2.53375-4.22739,15.50163,15.50163,0,0,1-.41617-8.0912c.45066-2.37132.91932-4.92757,1.37-7.60586.21034-1.3368.47991-2.7139.62425-4.095.13085-1.38442.2632-2.7873.39705-4.2003,1.1544,1.478,2.314,2.963,3.461,4.43154l5.13162,7.01047c-.39742,2.27252-.78959,4.51543-1.17277,6.706l-.01537.08474a2.11683,2.11683,0,0,0,.44166,1.70432,1.85744,1.85744,0,0,0,1.758.68846,13.90045,13.90045,0,0,0,5.25723-2.2968s.47053-.33331.51177-.36265a30.9726,30.9726,0,0,0,9.62212-12.45769A40.42143,40.42143,0,0,0,804.739,353.3943c.394-4.05811.6865-8.12794.75623-12.17021q-.099-6.02263-.62538-11.99757c-.53689-7.99868-2.416-15.69668-4.50512-23.26654-5.37157-17.20295-14.233-33.11559-26.80538-46.06144-2.04373-2.15236-4.05221-4.24632-6.10306-6.23165q-3.19437-2.92064-6.32464-5.597a41.31558,41.31558,0,0,0,4.10208-10.63414c3.60829,2.96764,7.06362,6.01982,10.3266,9.12253q1.21308,1.17553,2.41041,2.3357c.75922.79672,1.48733,1.60506,2.21281,2.41031q2.16915,2.41926,4.17744,4.85661,2.09265,2.535,4.16693,5.29256,1.02188,1.3891,2.0666,2.80857c.66624.96225,1.28262,1.96209,1.9215,2.96792,2.53113,4.03356,5.00827,8.33969,7.4048,12.87836a3528.99576,3528.99576,0,0,0,.439.57111,2.23617,2.23617,0,0,0,.31119.25607,2.20492,2.20492,0,0,0,.33181.20828,1.81888,1.81888,0,0,0,.35955.11716,1.62959,1.62959,0,0,0,.36068.06289,1.50281,1.50281,0,0,0,.37343-.04189,1.53856,1.53856,0,0,0,.24408-.02944c.04049-.0149.06636-.05155.10535-.06851s.08136-.0135.12035-.03318a1.543,1.543,0,0,0,.213-.18944,1.402,1.402,0,0,0,.22833-.20339,1.76869,1.76869,0,0,0,.21521-.36209,2.08532,2.08532,0,0,0,.12635-.26985,2.17041,2.17041,0,0,0,.07086-.487,2.39765,2.39765,0,0,0,.027-.27464,2.55946,2.55946,0,0,0-.17059-.81631s-2.41791-6.12967-6.0442-15.32428c-1.91737-4.55264-4.36265-9.77593-6.89115-15.41043-.646-1.40241-1.27025-2.84372-1.96312-4.27313q-1.08316-2.123-2.18882-4.29188c-1.47834-2.88553-2.97992-5.8168-4.4815-8.74817-6.16867-11.63594-12.89073-22.97672-18.33991-31.21293-1.33549-2.0769-2.55925-3.98059-3.64429-5.66814-1.07942-1.6911-2.14721-3.07927-2.9623-4.2661-1.6673-2.34854-2.62036-3.69115-2.62036-3.69115a2.55836,2.55836,0,0,0-.58414-.58339,1.98431,1.98431,0,0,0-.24-.13085,2.24133,2.24133,0,0,0-.451-.21277,2.08866,2.08866,0,0,0-.28944-.0478,1.94038,1.94038,0,0,0-.42629-.02531,1.81413,1.81413,0,0,0-.29732.068,1.59336,1.59336,0,0,0-.25045.0568c-.04724.02118-.072.06692-.11585.092-.04424.0255-.09748.02569-.13947.05587-.06262.045-.09261.11641-.14623.1704a1.47652,1.47652,0,0,0-.24482.2812,1.60439,1.60439,0,0,0-.1571.32787,1.7569,1.7569,0,0,0-.10085.356,1.98856,1.98856,0,0,0-.01987.39143,2.23883,2.23883,0,0,0,.03861.38692,2.38591,2.38591,0,0,0,.13423.415,2.28577,2.28577,0,0,0,.07761.24333q1.40991,2.68681,2.73621,5.45256c.43867.92326.883,1.84314,1.29575,2.78477l1.14653,2.88619c1.49708,3.86736,2.86631,7.80916,4.0912,11.78675a51.01463,51.01463,0,0,1,2.21169,11.88743,50.38415,50.38415,0,0,1-.34831,11.099,35.16637,35.16637,0,0,1-1.9065,7.38408,34.78516,34.78516,0,0,1-3.12614,6.41716,25.6366,25.6366,0,0,1-5.3487,6.27065c-4.39152,3.64241-9.30831,4.66558-13.39126,2.98722-2.24656-.90329-5.889-3.475-7.41155-10.26633a143.10864,143.10864,0,0,0-4.37277-17.13453c2.22031,1.27035,4.55911,2.5092,6.70819,3.8519,0,0,5.44993,3.38419,5.4653,3.39375l.28307.17443c.58939,2.40619,1.13041,4.7925,1.63881,7.11058,0,0,.20771.93882.21858.98765a2.12381,2.12381,0,0,0,.78622,1.23923,1.9047,1.9047,0,0,0,2.14683.15981,13.57931,13.57931,0,0,0,4.113-4.32365c.20133-.31616.44166-.70758.68011-1.1499l.02587-.06252a32.14413,32.14413,0,0,0,3.64729-15.56884,40.69419,40.69419,0,0,0-1.96724-12.40079c-8.77366-29.51348-28.0044-54.18553-53.4593-68.90984-3.57193-2.00024-7.19409-3.88687-10.90624-5.58322a152.316,152.316,0,0,0-17.749-6.78918,40.12383,40.12383,0,0,0-.00338-11.29766c4.76457,1.39472,9.35142,3.01722,13.79955,4.73569,2.2102.87452,4.41889,1.73779,6.502,2.715q3.09258,1.50158,6.03032,3.09239c3.50482,1.89807,7.10749,4.04565,10.72741,6.41537,1.10266.80591,2.22931,1.62943,3.356,2.45315,1.05729.79334,2.10484,1.57975,3.18312,2.389.66475.53165,1.35311,1.08185,2.02611,1.62025l2.665,2.13671c.4829.39292.94181.84339,1.45659,1.1902a2.55351,2.55351,0,0,0,1.29275.433,1.8842,1.8842,0,0,0,.31756-.02418,1.68907,1.68907,0,0,0,.41579-.09167,1.66053,1.66053,0,0,0,.27445-.1511,1.54812,1.54812,0,0,0,.25195-.14116c.03749-.0343.04874-.08436.08248-.122.02475-.026.06-.03618.08324-.06411a145.01306,145.01306,0,0,1,.26507-.54383,1.73933,1.73933,0,0,0,.05061-.34962,2.32484,2.32484,0,0,0-.59425-1.73647c-1.38573-1.56888-2.90794-3.05284-4.35365-4.56923l-4.81444-5.04071c-.86608-.88839-1.69354-1.81483-2.62036-2.66722,0,0-4.0897-3.90243-10.22463-9.756-3.01028-2.98986-6.81879-6.15236-10.80876-9.64031-2.00511-1.73291-4.07658-3.52356-6.18179-5.34308-2.11534-1.80733-4.38439-3.49844-6.59084-5.26491-2.22369-1.74584-4.447-3.49188-6.63583-5.21054q-1.64555-1.28337-3.26111-2.54294-1.66524-1.18888-3.28548-2.34535c-4.32141-3.07065-8.35524-5.93678-11.81282-8.3933-3.52018-2.36429-6.5271-4.22692-8.60044-5.5776-2.08384-1.33492-3.275-2.0979-3.275-2.0979a2.53465,2.53465,0,0,0-.75922-.32169,2.07611,2.07611,0,0,0-.2692-.03055,2.26513,2.26513,0,0,0-.49565-.02681,2.06445,2.06445,0,0,0-.28495.065,1.74462,1.74462,0,0,0-.40079.13872,1.59163,1.59163,0,0,0-.249.17509,1.62823,1.62823,0,0,0-.20884.14772c-.03562.03768-.042.08886-.07273.12879-.03.04124-.07874.06149-.10611.10554a1.45123,1.45123,0,0,0-.07124.21315,1.56287,1.56287,0,0,0-.11847.3543,1.71522,1.71522,0,0,0-.02025.36481,1.893,1.893,0,0,0,.042.36986,2.04374,2.04374,0,0,0,.1316.37193,2.15711,2.15711,0,0,0,.18334.34606,2.37747,2.37747,0,0,0,.279.33406,2.31782,2.31782,0,0,0,.165.19758c3.089,2.62224,6.121,5.38883,9.06272,8.27239,2.90606,2.93567,5.61153,6.15217,8.25739,9.36717a50.69274,50.69274,0,0,1,10.75215,21.47374,39.81756,39.81756,0,0,1,.94369,7.3883,34.24582,34.24582,0,0,1-.60513,7.04281,25.8566,25.8566,0,0,1-2.41528,7.07918c-2.6676,5.06845-6.80267,7.88958-11.19194,7.87421-2.32979-.081-6.91027-.7731-10.82151-6.59515-1.34748-2.009-2.81307-4.16224-4.37764-6.39006-1.63581-2.13146-3.38109-4.3229-5.19949-6.51923,1.85327.23958,3.717.48066,5.55829.71893,2.92893.30144,5.77312.76541,8.63981,1.24832,1.31675,1.9005,2.617,3.77738,3.88537,5.60852l.04986.0718a2.10944,2.10944,0,0,0,1.50983.90245,1.84327,1.84327,0,0,0,1.725-.7521,13.99974,13.99974,0,0,0,2.09659-5.35433l.10648-.62013a31.3,31.3,0,0,0-1.96349-15.67681,45.68957,45.68957,0,0,0-7.07-11.81375q-1.92337-2.38875-3.92324-4.70065c-1.325-1.55238-2.77408-2.93192-4.192-4.36471q-4.29216-4.24126-8.85277-8.14547a59.18974,59.18974,0,0,0-4.69783-3.67409q-2.40591-1.74707-4.86655-3.40227-2.4599-1.65456-4.97078-3.21463c-1.674-1.03817-3.34885-2.07184-5.1125-2.93642q-6.01251-3.08978-12.23236-5.65052l-3.11489-1.24363c-1.055-.37587-2.12808-.709-3.19588-1.04755q-3.20955-1.00386-6.45136-1.86732a114.22114,114.22114,0,0,0-26.50694-3.87037c-2.92968-.17884-5.90735-.02868-8.76991.03787q-4.30848.14115-8.40024.412a37.77008,37.77008,0,0,0-4.61722-10.414c2.35979-.33594,4.65247-.45348,6.94027-.57289q3.42945-.17181,6.797-.2169a99.10692,99.10692,0,0,1,13.04483.48872c4.34278.47128,8.88576,1.17371,13.58434,2.1009,2.36729.42161,4.69784,1.07736,7.07825,1.74922q3.5678,1.01343,7.22746,2.1967a2.30065,2.30065,0,0,0,.28569.04124,2.38294,2.38294,0,0,0,.42592.0613,2.24013,2.24013,0,0,0,.39817-.03524,2.16275,2.16275,0,0,0,.3813-.08286,1.83172,1.83172,0,0,0,.33481-.16909,1.5968,1.5968,0,0,0,.29994-.20771,1.55254,1.55254,0,0,0,.23321-.29338,1.52472,1.52472,0,0,0,.15334-.19421c.01837-.03937.0105-.08286.02475-.12279.01574-.03937.04949-.06693.06186-.10873a82.30319,82.30319,0,0,0,.03637-.59014,1.8234,1.8234,0,0,0-.10348-.41166,1.97159,1.97159,0,0,0-.099-.28232,8.18619,8.18619,0,0,0-.46679-.6162,2.56956,2.56956,0,0,0-.69324-.46678s-1.50083-.67843-4.12756-1.86564c-2.63986-1.15589-6.33964-2.97391-10.96848-4.71414-4.60485-1.79215-9.93744-3.99259-15.73455-6.1218-5.85224-1.97774-12.08052-4.13713-18.34817-6.16623-6.33963-1.79965-12.67889-3.59911-18.62223-5.28628-6.01833-1.39173-11.63548-2.69085-16.45029-3.80438q-1.80751-.40943-3.45757-.78341l-3.14639-.56858c-1.97549-.355-3.69752-.66437-5.11587-.91913l-4.45938-.79578a2.55122,2.55122,0,0,0-.82484-.00638,2.14453,2.14453,0,0,0-.26207.07518,2.23469,2.23469,0,0,0-.46754.165,1.9143,1.9143,0,0,0-.23807.16909,1.79416,1.79416,0,0,0-.31907.28157,1.69575,1.69575,0,0,0-.162.257,1.50191,1.50191,0,0,0-.13684.21652,1.39007,1.39007,0,0,0-.01763.147,1.32566,1.32566,0,0,0-.05773.13816,1.4066,1.4066,0,0,0,.01574.224,1.54961,1.54961,0,0,0,.02587.37249,1.66249,1.66249,0,0,0,.12073.34474,1.84522,1.84522,0,0,0,.18034.32506,2.09662,2.09662,0,0,0,.26245.29338,2.28409,2.28409,0,0,0,.30181.24933,2.453,2.453,0,0,0,.38693.2019,2.30639,2.30639,0,0,0,.22833.11941c3.85912,1.23839,7.72049,2.63218,11.54362,4.16844,3.807,1.61462,7.54052,3.55055,11.2163,5.51611q2.78383,1.50636,5.29509,3.16925,1.25414.83066,2.43778,1.6988c.78284.60232,1.53457,1.24531,2.26568,1.88325a51.14794,51.14794,0,0,1,7.57314,8.20771,35.38912,35.38912,0,0,1,6.23241,13.20979,25.978,25.978,0,0,1,.63438,8.25645c-.53652,5.69739-3.28736,9.87951-7.34632,11.53275-2.17982.79878-6.70444,1.98767-12.51767-1.95468-2.2162-1.4579-4.59173-3.11358-7.15023-4.615-2.56713-1.46634-5.27185-2.95574-8.0568-4.40108,2.49214-.66831,4.99327-1.33905,7.46441-2.00174,0,0,1.56832-.41748,3.13889-.83571,1.56832-.38748,3.146-.71442,3.146-.71442l.32244-.07311c2.10858,1.31412,4.17143,2.64886,6.16192,3.95735,0,0,.80721.52883.84808.55583a2.12252,2.12252,0,0,0,1.4281.33912,1.876,1.876,0,0,0,1.62868-1.39791,13.71709,13.71709,0,0,0-.1436-5.98027c-.08023-.36837-.18634-.81791-.32956-1.3025l-.02587-.063a32.37608,32.37608,0,0,0-8.39536-13.70807A49.266,49.266,0,0,0,506.37565,40.53C479.61,25.97586,448.94475,22.15479,420.83687,29.32152l-.99318.26507.00037.09467c-3.89511,1.10791-7.74786,2.3283-11.53274,3.74383-2.99192,1.1544-5.95047,2.21338-8.84378,3.5783q-4.34052,2.02995-8.50558,4.16019a41.03438,41.03438,0,0,0-7.98444-7.98482c8.72154-4.64834,17.54094-8.7954,26.072-11.15613,3.71852-1.11653,7.6755-2.1069,11.78732-3.00054l.25682-.04817c1.42172-.21915,2.87644-.44354,4.33-.66775,1.24063-.17546,2.46777-.34887,3.732-.52771.94782-.10423,1.92937-.21221,2.89031-.31794l2.95592-.32262,1.53458-.15091a3.01267,3.01267,0,0,0,1.37186-.40679,2.15617,2.15617,0,0,0,.361-.25308,1.88141,1.88141,0,0,0,.207-.24126,1.29338,1.29338,0,0,0,.31606-.6595,1.57068,1.57068,0,0,0,.07836-.27782,1.39123,1.39123,0,0,0-.02812-.14491c-.00112-.03581.01688-.068.0135-.10385a1.58563,1.58563,0,0,0-.07686-.22327,1.56624,1.56624,0,0,0-.12035-.34906,1.7472,1.7472,0,0,0-.21108-.28345,1.90315,1.90315,0,0,0-.24146-.26938,2.28037,2.28037,0,0,0-.3603-.21839,3.94558,3.94558,0,0,0-1.94025-.34288l-2.779-.07236-3.83288-.09691-3.9521-.09617-3.12914-.07368c-.45741-.01049-.91332-.021-1.376-.03149l-1.0348.02362s-5.6464.13966-14.11562.34906c-2.11683.07686-4.41251.07123-6.83528.23283-2.42241.1809-4.97678.37174-7.61927.56914-2.6421.20246-5.37232.41166-8.1464.62425q-2.07972.16872-4.18718.33949-2.0966.26237-4.20406.52621c-5.61115.71593-11.22755,1.39773-16.47953,2.12921-5.22348.92963-10.09865,1.7974-14.27758,2.54107-2.08722.38411-4.00722.7028-5.69626,1.04792-1.68117.38486-3.14714.72023-4.3544.99655-2.41378.55508-3.79351.87227-3.79351.87227a2.54649,2.54649,0,0,0-.763.31756,2.1409,2.1409,0,0,0-.21295.17172,2.33475,2.33475,0,0,0-.36893.33612,2.05835,2.05835,0,0,0-.15485.24952,1.82054,1.82054,0,0,0-.18409.38411,1.60928,1.60928,0,0,0-.05324.30106,1.98272,1.98272,0,0,0-.04311.25345c.0015.05174.03449.09186.04086.1421.00675.05062-.01312.09973-.0015.15035a1.33849,1.33849,0,0,0,.10161.2,1.46737,1.46737,0,0,0,.16647.3335,1.60389,1.60389,0,0,0,.24332.27051,1.791,1.791,0,0,0,.291.22945,1.99409,1.99409,0,0,0,.3543.167,2.12478,2.12478,0,0,0,.37493.11136,2.30284,2.30284,0,0,0,.43267.03468,2.22656,2.22656,0,0,0,.255.02081q3.024-.27867,6.08843-.45029l3.06915-.14229,3.107.04649c4.14856.09861,8.31587.34381,12.46069.73674a49.92093,49.92093,0,0,1,12.35458,2.65673,49.41075,49.41075,0,0,1,10.435,4.93085q1.618,1.02157,3.09465,2.1577a37.22945,37.22945,0,0,1,2.7992,2.47658,34.61,34.61,0,0,1,4.54711,5.40007,25.72937,25.72937,0,0,1,3.293,6.70219c1.69317,5.46512.76111,10.38978-2.35454,13.49773a10.46418,10.46418,0,0,1-4.22767,2.53357,15.49606,15.49606,0,0,1-8.09092.41654c-2.37141-.451-4.92766-.9195-7.60614-1.37017-1.33661-.21014-2.71372-.47971-4.09495-.62406-1.38422-.13085-2.7872-.26357-4.2003-.39705,1.478-1.1544,2.96305-2.31423,4.43163-3.46113l7.01038-5.13163c2.27243.39743,4.51562.78979,6.70632,1.173l.08473.015a2.11478,2.11478,0,0,0,1.704-.44167,1.85727,1.85727,0,0,0,.68874-1.758,13.90436,13.90436,0,0,0-2.2968-5.25722s-.33368-.47034-.36293-.51177a30.97452,30.97452,0,0,0-12.45769-9.62212,40.42541,40.42541,0,0,0-13.35938-3.40865c-4.05821-.394-8.128-.68649-12.1705-.756q-6.02263.0987-11.99728.62538c-7.99869.53671-15.69706,2.416-23.26683,4.50512-17.20276,5.3712-33.1154,14.23278-46.06125,26.8052-2.15245,2.04391-4.24642,4.0522-6.23165,6.10287q-2.92106,3.19466-5.59728,6.325a41.31542,41.31542,0,0,0-10.634-4.10245c2.96755-3.60792,6.01982-7.06343,9.12272-10.32642q1.17539-1.21307,2.33579-2.4104c.79672-.75942,1.60506-1.48752,2.41-2.21282q2.41939-2.16913,4.8568-4.17724,2.5347-2.09267,5.29247-4.16713,1.38909-1.02214,2.80857-2.06641c.96244-.66624,1.962-1.28281,2.96792-1.92168,4.03346-2.53113,8.3395-5.00827,12.87836-7.405a2.38979,2.38979,0,0,0,.22983-.17622,2.41773,2.41773,0,0,0,.34118-.26264,3.1213,3.1213,0,0,0,.46454-.64281,1.80668,1.80668,0,0,0,.117-.35974,1.62269,1.62269,0,0,0,.063-.36068,41.49655,41.49655,0,0,0-.07123-.61732c-.015-.04068-.05174-.06655-.06862-.10554-.01687-.0388-.01349-.08136-.03336-.12035a1.55866,1.55866,0,0,0-.18934-.213,1.42625,1.42625,0,0,0-.20321-.22852,1.77793,1.77793,0,0,0-.36218-.215,2.08172,2.08172,0,0,0-.26995-.12635,2.179,2.179,0,0,0-.487-.07086,2.31177,2.31177,0,0,0-.27444-.0268,2.55591,2.55591,0,0,0-.8166.17059s-6.12967,2.41752-15.324,6.044c-4.55274,1.91738-9.77621,4.36246-15.41061,6.89134-1.40223.64582-2.84382,1.27007-4.273,1.96312q-2.123,1.08259-4.29179,2.18882c-2.88581,1.47815-5.817,2.97973-8.74816,4.48131-11.63623,6.16867-22.977,12.89073-31.213,18.34011-2.07672,1.3353-3.98059,2.55925-5.66814,3.6441-1.69129,1.0796-3.07927,2.147-4.26592,2.96248-2.34891,1.6673-3.69115,2.62018-3.69115,2.62018a2.55671,2.55671,0,0,0-.58376.58413,1.94588,1.94588,0,0,0-.13048.24014,2.22139,2.22139,0,0,0-.213.45085,2.11823,2.11823,0,0,0-.048.28944,1.94133,1.94133,0,0,0-.02512.42648,1.85572,1.85572,0,0,0,.06786.29713,1.62276,1.62276,0,0,0,.057.25064c.02137.04724.06711.0718.09223.11567a1.33835,1.33835,0,0,0,.05586.13966c.04462.06261.11623.0926.17022.146a1.46769,1.46769,0,0,0,.28119.24464,1.5833,1.5833,0,0,0,.32807.15747,1.77286,1.77286,0,0,0,.3558.10086,2.004,2.004,0,0,0,.39142.01968,2.20493,2.20493,0,0,0,.38693-.03862,2.38671,2.38671,0,0,0,.415-.13422,2.24538,2.24538,0,0,0,.24333-.07761q2.6871-1.40991,5.45256-2.73622c.92307-.43866,1.84314-.88314,2.78458-1.29574l2.88619-1.14653c3.86774-1.49727,7.80934-2.8665,11.78694-4.091a51.02145,51.02145,0,0,1,11.88743-2.21207,50.39579,50.39579,0,0,1,11.099.34868,35.14984,35.14984,0,0,1,7.38419,1.90632,34.783,34.783,0,0,1,6.41724,3.12632,25.628,25.628,0,0,1,6.27028,5.34852c3.64278,4.39152,4.66558,9.30849,2.98741,13.39144-.9032,2.24657-3.47519,5.88879-10.26624,7.41137a143.12753,143.12753,0,0,0-17.13453,4.37277c1.27025-2.2205,2.509-4.55892,3.85162-6.708,0,0,3.38447-5.44994,3.39384-5.46531l.17434-.28307c2.40628-.58957,4.79269-1.13078,7.11086-1.639,0,0,.93882-.2079.98756-.21858a2.12421,2.12421,0,0,0,1.23913-.78622,1.90533,1.90533,0,0,0,.1601-2.14665,13.58474,13.58474,0,0,0-4.32366-4.11294c-.31644-.20153-.70786-.442-1.15027-.68031l-.06224-.02587A32.14713,32.14713,0,0,0,224.8743,89.456a40.70791,40.70791,0,0,0-12.40108,1.96725c-29.51311,8.77384-54.18516,28.0044-68.90966,53.45948-2.00023,3.57156-3.88686,7.19391-5.5834,10.90606a152.31263,152.31263,0,0,0-6.7888,17.749,40.12433,40.12433,0,0,0-11.29767.00337c1.39473-4.76456,3.017-9.35142,4.73532-13.79955.87471-2.21038,1.73779-4.4187,2.71522-6.502q1.50159-3.09229,3.0924-6.03032c1.89825-3.50463,4.04546-7.10767,6.41537-10.7274.80572-1.10247,1.62943-2.22932,2.45315-3.356.79334-1.05729,1.57956-2.10484,2.389-3.18313.53165-.66474,1.082-1.35311,1.62006-2.02629l2.13708-2.6646c.39255-.4831.84321-.942,1.19-1.457a2.55286,2.55286,0,0,0,.433-1.29256,1.86263,1.86263,0,0,0-.024-.31737,1.70247,1.70247,0,0,0-.09185-.41617,1.65028,1.65028,0,0,0-.1511-.27408,1.55036,1.55036,0,0,0-.141-.25213c-.0345-.0375-.08474-.04893-.12223-.08249-.02624-.02455-.03637-.06017-.06411-.083a1.51955,1.51955,0,0,0-.21221-.1033,1.56828,1.56828,0,0,0-.33143-.16178,1.72866,1.72866,0,0,0-.34981-.0508,2.32535,2.32535,0,0,0-1.73629.59445c-1.56907,1.38554-3.053,2.90774-4.56923,4.35365l-5.04089,4.81424c-.88858.8659-1.815,1.69373-2.66723,2.62018,0,0-3.90223,4.09007-9.756,10.225-2.99,3.0101-6.15254,6.8186-9.64011,10.80876-1.73291,2.00492-3.52394,4.07658-5.34346,6.18161-1.80714,2.11533-3.49806,4.38439-5.26472,6.59083-1.746,2.22351-3.49169,4.447-5.21035,6.63583q-1.28338,1.64583-2.54313,3.26111-1.1889,1.665-2.34554,3.2853c-3.07065,4.32178-5.93659,8.35543-8.39311,11.81281-2.36429,3.52019-4.22693,6.52748-5.57741,8.60064-1.33512,2.08384-2.09809,3.275-2.09809,3.275a2.535,2.535,0,0,0-.32169.759,2.09051,2.09051,0,0,0-.03037.2692,2.24489,2.24489,0,0,0-.027.496,2.07887,2.07887,0,0,0,.06486.28456,1.75,1.75,0,0,0,.1391.401,1.57061,1.57061,0,0,0,.17471.24876,1.60662,1.60662,0,0,0,.14772.20921c.03787.03543.08924.04162.129.07255.04124.03018.06149.07873.10573.1061a1.41064,1.41064,0,0,0,.213.071,1.53532,1.53532,0,0,0,.3543.11848,1.67872,1.67872,0,0,0,.36481.02043,1.89746,1.89746,0,0,0,.37005-.042,2.04832,2.04832,0,0,0,.37193-.1316,2.116,2.116,0,0,0,.34568-.18334,543.3664,543.3664,0,0,1,.532-.44372c2.62186-3.0894,5.38882-6.12106,8.272-9.06292,2.93605-2.90624,6.15217-5.61134,9.36754-8.25738A50.69214,50.69214,0,0,1,117.448,178.004a39.84668,39.84668,0,0,1,7.38831-.94388,34.26747,34.26747,0,0,1,7.04262.60551,25.84726,25.84726,0,0,1,7.07937,2.41509c5.06826,2.6676,7.88958,6.80285,7.87421,11.19193-.081,2.3298-.7731,6.91009-6.595,10.82133-2.00923,1.34786-4.16244,2.81345-6.39025,4.37783-2.13146,1.6358-4.32291,3.38109-6.51923,5.19948.23958-1.85326.48066-3.71683.71874-5.55829.30144-2.92911.7656-5.77331,1.2485-8.63981,1.90051-1.31655,3.77739-2.6168,5.60853-3.88536l.072-.04968a2.11118,2.11118,0,0,0,.90245-1.50983,1.84369,1.84369,0,0,0-.75248-1.72523,13.99585,13.99585,0,0,0-5.354-2.09659l-.6205-.10648a31.30223,31.30223,0,0,0-15.67643,1.96331,45.69732,45.69732,0,0,0-11.814,7.07037q-2.38846,1.92309-4.70045,3.923c-1.55257,1.325-2.9323,2.77427-4.3649,4.19206q-4.24155,4.29244-8.14566,8.85277a59.30935,59.30935,0,0,0-3.6739,4.69792q-1.74735,2.40562-3.40209,4.86646-1.65454,2.46-3.21462,4.97078c-1.03817,1.67414-2.07222,3.34893-2.93643,5.11268q-3.09033,6.01253-5.65089,12.232l-1.24363,3.11517c-.37568,1.05486-.70862,2.12818-1.04755,3.196q-1.00331,3.20942-1.86713,6.45118a114.21092,114.21092,0,0,0-3.87037,26.50694c-.17884,2.92986-.02887,5.90753.03787,8.76991q.14115,4.30875.412,8.40042a37.75882,37.75882,0,0,0-10.414,4.61694c-.33594-2.3596-.45367-4.65218-.57289-6.94q-.17209-3.4296-.21671-6.79705a99.13489,99.13489,0,0,1,.48853-13.04483c.47128-4.34305,1.17352-8.88576,2.10071-13.58462.4218-2.36729,1.07754-4.69765,1.74941-7.078q1.01343-3.5681,2.1967-7.22765a2.30468,2.30468,0,0,0,.04124-.2856,2.40568,2.40568,0,0,0,.06149-.426,2.2779,2.2779,0,0,0-.03525-.39818,2.224,2.224,0,0,0-.08285-.38139,1.85926,1.85926,0,0,0-.1691-.33481,1.61288,1.61288,0,0,0-.20808-.29985,1.53189,1.53189,0,0,0-.29319-.2332,1.56839,1.56839,0,0,0-.19422-.15353c-.03936-.01828-.08285-.01031-.1226-.02466-.03936-.01555-.06711-.04939-.1091-.06186a135.92121,135.92121,0,0,0-.58976-.03618,1.814,1.814,0,0,0-.412.10348,1.98635,1.98635,0,0,0-.28232.099,2.28553,2.28553,0,0,0-.3993.29188,2.33215,2.33215,0,0,0-.21671.17491,2.55368,2.55368,0,0,0-.46678.69323s-.67825,1.50084-1.86564,4.12739c-1.1559,2.63995-2.97392,6.33991-4.71433,10.96848-1.79215,4.60485-3.99259,9.93752-6.1218,15.73464-1.97774,5.85214-4.13694,12.08042-6.166,18.34835-1.79964,6.33936-3.59929,12.67871-5.28609,18.622-1.3921,6.01842-2.69122,11.63567-3.80475,16.45048q-.40943,1.80723-.78323,3.45757c-.20021,1.10782-.39029,2.15864-.56876,3.1462-.35468,1.97549-.66437,3.69781-.91894,5.11615-.50653,2.83736-.7956,4.4592-.7956,4.4592a2.5625,2.5625,0,0,0-.00675.82493,2.17312,2.17312,0,0,0,.07536.262,2.22955,2.22955,0,0,0,.165.46753,1.91746,1.91746,0,0,0,.16909.23827,1.80329,1.80329,0,0,0,.28157.319,1.666,1.666,0,0,0,.2572.16178,1.46928,1.46928,0,0,0,.21633.13685,1.443,1.443,0,0,0,.147.0179,1.42992,1.42992,0,0,0,.138.05774,1.45491,1.45491,0,0,0,.22421-.01575,1.54167,1.54167,0,0,0,.3723-.026,1.67633,1.67633,0,0,0,.34493-.12064,1.88374,1.88374,0,0,0,.32506-.18043,2.09665,2.09665,0,0,0,.29319-.26264,2.23347,2.23347,0,0,0,.24933-.30181,2.44567,2.44567,0,0,0,.20209-.38683,2.22728,2.22728,0,0,0,.11922-.22815c1.23839-3.8594,2.63236-7.72077,4.16881-11.54371,1.61444-3.80719,3.55056-7.54071,5.51592-11.2164q1.50609-2.78369,3.16926-5.2949.83066-1.25455,1.69879-2.43806c.60251-.78275,1.24513-1.53429,1.88326-2.26568a51.15085,51.15085,0,0,1,8.20752-7.573,35.3863,35.3863,0,0,1,13.21017-6.2324,25.9761,25.9761,0,0,1,8.25626-.63438c5.69739.53633,9.87932,3.28727,11.53275,7.34622.799,2.17973,1.98748,6.70435-1.9545,12.51777-1.45809,2.2162-3.11376,4.59164-4.615,7.15014-1.46671,2.56721-2.95592,5.27184-4.40126,8.057-.6685-2.49214-1.33924-4.99347-2.00174-7.46442,0,0-.41767-1.56832-.83571-3.139-.38767-1.56832-.71461-3.14592-.71461-3.14592l-.07311-.32243c1.31449-2.10887,2.64923-4.17163,3.95735-6.16192,0,0,.529-.80732.556-.84837a2.12454,2.12454,0,0,0,.33931-1.428,1.87606,1.87606,0,0,0-1.39811-1.6285,13.71239,13.71239,0,0,0-5.98008.14341c-.36855.08042-.81809.18634-1.30287.32956l-.063.02578a32.383,32.383,0,0,0-13.70807,8.39545A49.27068,49.27068,0,0,0,40.53,335.29809c-14.5539,26.76564-18.37516,57.4308-11.20843,85.53868l.26507.99318.09486-.00028c1.10791,3.8953,2.32829,7.748,3.74364,11.53266,1.15478,2.99219,2.21357,5.95074,3.5783,8.84386q2.03023,4.34053,4.16056,8.50568a41.02663,41.02663,0,0,0-7.98481,7.98454c-4.64872-8.72155-8.79541-17.541-11.15632-26.07222-1.11653-3.71852-2.10671-7.67559-3.00054-11.78742l-.048-.25673c-.21933-1.42172-.44391-2.87653-.66812-4.33012-.17509-1.24035-.34868-2.46758-.52752-3.73174-.10423-.94791-.21221-1.92947-.31794-2.8905L17.1379,406.672l-.15072-1.53476a3.01033,3.01033,0,0,0-.4068-1.37177,2.16217,2.16217,0,0,0-.25307-.361,1.87409,1.87409,0,0,0-.24108-.20714,1.697,1.697,0,0,0-.35918-.22908,1.63709,1.63709,0,0,0-.30069-.0868,1.53118,1.53118,0,0,0-.27782-.07836,1.43018,1.43018,0,0,0-.14472.028c-.036.001-.06786-.017-.10386-.01341a1.51231,1.51231,0,0,0-.22308.07686,1.561,1.561,0,0,0-.34906.12007,1.74284,1.74284,0,0,0-.28382.21118,1.93479,1.93479,0,0,0-.26919.24145,2.3019,2.3019,0,0,0-.21858.36021,3.94373,3.94373,0,0,0-.34269,1.94025l-.07236,2.77886-.0971,3.83316-.096,3.95191-.07348,3.12914c-.0105.45732-.021.91351-.03187,1.376l.024,1.0349s.13947,5.6463.34905,14.1158c.07649,2.11665.07124,4.41232.23246,6.83519.18109,2.42222.37192,4.97659.56951,7.61908.20246,2.64211.41167,5.37232.62388,8.14659q.16872,2.07987.33968,4.18709.26263,2.0966.526,4.20415c.71611,5.61106,1.39811,11.22765,2.12959,16.47934.92944,5.22357,1.797,10.09893,2.54088,14.27786.38392,2.08713.703,4.00694,1.04792,5.69608.38467,1.68136.72023,3.14713.99655,4.3543.55489,2.41388.87246,3.7937.87246,3.7937a2.532,2.532,0,0,0,.31756.763,2.15715,2.15715,0,0,0,.17134.21286,2.34563,2.34563,0,0,0,.33631.369,2.10768,2.10768,0,0,0,.24933.15494,1.81989,1.81989,0,0,0,.3843.18381,1.61379,1.61379,0,0,0,.30106.05324,1.97086,1.97086,0,0,0,.25345.04321c.05174-.0016.09186-.03459.1421-.041a1.43644,1.43644,0,0,0,.15035.00159,1.30487,1.30487,0,0,0,.20021-.1016,1.47442,1.47442,0,0,0,.33331-.16657,1.622,1.622,0,0,0,.27069-.24323,1.81122,1.81122,0,0,0,.22946-.29085,2.01158,2.01158,0,0,0,.16684-.3543,2.13835,2.13835,0,0,0,.11135-.37493,2.31985,2.31985,0,0,0,.03487-.43276,2.27033,2.27033,0,0,0,.02062-.25476q-.27894-3.024-.45028-6.08863l-.14248-3.06915.04649-3.107c.09861-4.14838.34419-8.316.73711-12.46079a52.7712,52.7712,0,0,1,7.58739-22.78945q1.0213-1.61786,2.15771-3.09455a37.2903,37.2903,0,0,1,2.47639-2.79939,34.62875,34.62875,0,0,1,5.40044-4.54683,25.72537,25.72537,0,0,1,6.70219-3.29326c5.46493-1.69317,10.3896-.761,13.49774,2.35472a10.46688,10.46688,0,0,1,2.53338,4.22749,15.49671,15.49671,0,0,1,.41654,8.09111c-.451,2.37141-.91969,4.92756-1.37,7.606-.21033,1.33671-.47991,2.71381-.62425,4.095-.13085,1.38451-.26358,2.7873-.397,4.2004-1.1544-1.478-2.31442-2.963-3.46132-4.43155L56.74628,468.986c.3978-2.27243.79-4.51543,1.17315-6.706l.015-.08473a2.11562,2.11562,0,0,0-.44167-1.70432,1.85681,1.85681,0,0,0-1.758-.68846,13.90287,13.90287,0,0,0-5.25722,2.2968s-.47016.33331-.51178.36265a30.97741,30.97741,0,0,0-9.62212,12.45769,40.43186,40.43186,0,0,0-3.40883,13.35967c-.394,4.0582-.68612,8.12794-.75585,12.17021q.09841,6.02279.62538,11.99756c.53652,7.99869,2.416,15.69669,4.50512,23.26664,5.3712,17.20295,14.23259,33.11559,26.80538,46.06144,2.04373,2.15236,4.05221,4.24623,6.10268,6.23156q3.19439,2.92077,6.325,5.59709a41.31473,41.31473,0,0,0-4.10245,10.63415c-3.60792-2.96774-7.06362-6.01992-10.32623-9.12253q-1.21308-1.17553-2.41041-2.3358c-.7596-.79672-1.48771-1.60506-2.21319-2.41031q-2.16913-2.41913-4.17706-4.85661-2.09265-2.53484-4.16731-5.29256-1.02186-1.389-2.06622-2.80858c-.66624-.96225-1.283-1.962-1.92187-2.96782-2.53113-4.03365-5.0079-8.33969-7.40481-12.87836a2.39525,2.39525,0,0,0-.17621-.22974,2.424,2.424,0,0,0-.26245-.34146,2.24468,2.24468,0,0,0-.31156-.256,2.20273,2.20273,0,0,0-.33144-.20837,1.82613,1.82613,0,0,0-.35955-.11716,1.62369,1.62369,0,0,0-.36106-.0628,1.5025,1.5025,0,0,0-.37343.0418,1.54462,1.54462,0,0,0-.2437.02953c-.04087.0149-.06674.05155-.10535.06851-.039.017-.08136.01341-.12073.03319a1.58146,1.58146,0,0,0-.213.18943,1.4342,1.4342,0,0,0-.22833.2033,1.78446,1.78446,0,0,0-.21483.36209,2.0413,2.0413,0,0,0-.12673.26994,2.16953,2.16953,0,0,0-.07048.48694,2.24141,2.24141,0,0,0-.027.27473,2.55946,2.55946,0,0,0,.17059.81631l6.04382,15.32419c1.91738,4.55273,4.36265,9.776,6.89153,15.41052.64563,1.40232,1.27025,2.84372,1.96312,4.273q1.08259,2.12316,2.18882,4.292c1.478,2.88553,2.97954,5.8168,4.48112,8.74807,6.169,11.636,12.89111,22.97682,18.34029,31.21293,1.33512,2.07691,2.55925,3.98069,3.64429,5.66824,1.07942,1.69111,2.14683,3.07927,2.9623,4.266l2.62036,3.69115a2.55124,2.55124,0,0,0,.58414.58348,1.95733,1.95733,0,0,0,.23995.13076,2.22391,2.22391,0,0,0,.45066.21277,2.09574,2.09574,0,0,0,.28982.0479,1.93825,1.93825,0,0,0,.42629.02521,1.83329,1.83329,0,0,0,.29732-.068,1.62333,1.62333,0,0,0,.25045-.0568c.04724-.02127.07161-.067.11585-.09214.04424-.0254.09711-.02568.13947-.05586.06262-.0449.09261-.11632.14623-.17031a1.48034,1.48034,0,0,0,.24445-.28119,1.585,1.585,0,0,0,.15747-.328,1.77772,1.77772,0,0,0,.10085-.356,2.04732,2.04732,0,0,0,.01987-.39143,2.23879,2.23879,0,0,0-.03861-.38683,2.41609,2.41609,0,0,0-.13423-.415,2.20694,2.20694,0,0,0-.078-.24333q-1.40991-2.687-2.73622-5.45256c-.43829-.92326-.88295-1.84323-1.29537-2.78477l-1.1469-2.88618c-1.49708-3.86747-2.86631-7.80916-4.09083-11.78676A51.03484,51.03484,0,0,1,79.264,619.36928a50.40713,50.40713,0,0,1,.34868-11.09905,35.14169,35.14169,0,0,1,1.90613-7.384,34.76282,34.76282,0,0,1,3.12651-6.41725,25.62784,25.62784,0,0,1,5.3487-6.27055c4.39152-3.64251,9.30831-4.66569,13.39126-2.98733,2.24656.9033,5.889,3.475,7.41118,10.26634a143.18267,143.18267,0,0,0,4.37277,17.13462c-2.22032-1.27044-4.55874-2.5092-6.70781-3.8519,0,0-5.44994-3.38428-5.46531-3.39384l-.28307-.17434c-.58976-2.40619-1.13078-4.79259-1.63918-7.11067,0,0-.20771-.93882-.21858-.98765a2.12212,2.12212,0,0,0-.78622-1.23914,1.9043,1.9043,0,0,0-2.14646-.1599,13.57632,13.57632,0,0,0-4.113,4.32365c-.20171.31616-.442.70768-.68049,1.1499l-.02549.06252a32.14475,32.14475,0,0,0-3.64729,15.56883,40.70505,40.70505,0,0,0,1.96687,12.40089c8.774,29.51339,28.0044,54.18544,53.45967,68.90975,3.57155,2.00024,7.19372,3.88687,10.90624,5.58332a152.275,152.275,0,0,0,17.749,6.78908,40.12347,40.12347,0,0,0,.00337,11.29766c-4.76494-1.39472-9.3518-3.01722-13.79955-4.7356-2.21057-.87452-4.41889-1.73779-6.50236-2.715q-3.092-1.50173-6.02994-3.0924c-3.50482-1.89816-7.10786-4.04565-10.72741-6.41537-1.10266-.80591-2.22931-1.62943-3.35634-2.45315-1.05729-.79344-2.10484-1.57975-3.18313-2.38912-.66474-.53156-1.35273-1.08185-2.0261-1.62025l-2.66461-2.13671c-.4829-.39283-.94219-.8433-1.457-1.1902a2.55215,2.55215,0,0,0-1.29237-.433,1.87385,1.87385,0,0,0-.31757.02409,1.68771,1.68771,0,0,0-.41617.09176,1.63586,1.63586,0,0,0-.27407.1511,1.53234,1.53234,0,0,0-.252.14107c-.03749.0343-.04911.08445-.08248.12213-.02475.02606-.06037.03618-.08324.064a1.50551,1.50551,0,0,0-.10348.21221,1.569,1.569,0,0,0-.16159.33162,1.74127,1.74127,0,0,0-.051.34962,2.32675,2.32675,0,0,0,.59463,1.73647c1.38573,1.569,2.90794,3.05284,4.35365,4.56923l4.81444,5.0407c.8657.88839,1.69354,1.81493,2.62,2.66723,0,0,4.09007,3.90243,10.225,9.75606,3.00991,2.98986,6.81841,6.15236,10.80876,9.64021,2.00473,1.73292,4.07658,3.52366,6.18179,5.34318,2.115,1.80724,4.384,3.49835,6.59084,5.26481,2.22331,1.74594,4.447,3.49188,6.63545,5.21055q1.64612,1.28337,3.26111,2.54294,1.66524,1.18889,3.28549,2.34545c4.32178,3.07065,8.35561,5.93668,11.81281,8.3932,3.52019,2.36438,6.52748,4.227,8.60082,5.5776,2.08384,1.33492,3.275,2.0979,3.275,2.0979a2.53461,2.53461,0,0,0,.75885.32178,2.10656,2.10656,0,0,0,.26919.03046,2.2619,2.2619,0,0,0,.496.0269,2.04691,2.04691,0,0,0,.28457-.06514,1.74382,1.74382,0,0,0,.40117-.13872,1.5767,1.5767,0,0,0,.24858-.175,1.6047,1.6047,0,0,0,.20921-.14772c.03524-.03768.04162-.089.07274-.12888.03-.04115.07873-.06149.1061-.10554a1.48363,1.48363,0,0,0,.07086-.21315,1.54515,1.54515,0,0,0,.11848-.35421,1.69225,1.69225,0,0,0,.02062-.3649,1.92259,1.92259,0,0,0-.042-.36986,2.072,2.072,0,0,0-.1316-.37193,2.15711,2.15711,0,0,0-.18334-.34606,758.59475,758.59475,0,0,1-.44391-.53165c-3.0894-2.62214-6.12106-5.38882-9.06311-8.27228-2.90606-2.93577-5.61115-6.15218-8.25738-9.36727a50.69125,50.69125,0,0,1-10.75178-21.47374,39.81694,39.81694,0,0,1-.94406-7.38821,34.27059,34.27059,0,0,1,.6055-7.04281,25.85712,25.85712,0,0,1,2.41491-7.07927c2.6676-5.06836,6.803-7.88959,11.19231-7.87412,2.32942.08089,6.9099.7731,10.82113,6.59505,1.34787,2.00905,2.81345,4.16235,4.37765,6.39007,1.6358,2.13155,3.38146,4.323,5.19948,6.51932-1.85326-.23967-3.71665-.48075-5.55829-.71893-2.92892-.30153-5.77312-.7655-8.63981-1.24841-1.31637-1.9005-2.61661-3.77738-3.885-5.60853l-.04986-.07179a2.11119,2.11119,0,0,0-1.50983-.90245,1.843,1.843,0,0,0-1.725.75219,13.99307,13.99307,0,0,0-2.09659,5.35424l-.10648.62022a31.30253,31.30253,0,0,0,1.96311,15.67672,45.7007,45.7007,0,0,0,7.07037,11.81375q1.92282,2.38875,3.92286,4.70065c1.325,1.55247,2.77446,2.932,4.19206,4.3648q4.29271,4.24127,8.85277,8.14547a59.30454,59.30454,0,0,0,4.6982,3.67409q2.40534,1.74707,4.86618,3.40218,2.46045,1.65456,4.97115,3.21462c1.67405,1.03818,3.34885,2.07194,5.1125,2.93643q6.01251,3.08991,12.232,5.65061l3.11526,1.24354c1.05467.376,2.12809.709,3.19588,1.04764q3.20955,1.00373,6.45136,1.86723a114.21324,114.21324,0,0,0,26.50657,3.87046c2.93.17884,5.90772.02868,8.77029-.038q4.30846-.141,8.40023-.412a37.75666,37.75666,0,0,0,4.61685,10.414c-2.35942.33593-4.65209.45357-6.9399.57289q-3.42945.17195-6.797.21689a99.102,99.102,0,0,1-13.04483-.48871c-4.34315-.47119-8.88576-1.17362-13.58472-2.10081-2.36729-.42161-4.69746-1.07735-7.07787-1.74932q-3.56837-1.01342-7.22783-2.19669a2.31221,2.31221,0,0,0-.28532-.04124,2.40846,2.40846,0,0,0-.42629-.0613,2.24333,2.24333,0,0,0-.39818.03524,2.187,2.187,0,0,0-.3813.08286,1.8564,1.8564,0,0,0-.33481.16909,1.61,1.61,0,0,0-.29994.2078,1.53546,1.53546,0,0,0-.23283.29329,1.5757,1.5757,0,0,0-.15372.19421c-.01837.03937-.01049.08286-.02474.12279-.01537.03937-.04949.06692-.06186.10882a1.66807,1.66807,0,0,0-.01763.28345,1.61716,1.61716,0,0,0-.01837.30659,1.80444,1.80444,0,0,0,.10348.41177,1.97466,1.97466,0,0,0,.099.28222,2.296,2.296,0,0,0,.2917.39958,2.37747,2.37747,0,0,0,.17509.21671,2.55781,2.55781,0,0,0,.69324.46669s1.50083.67843,4.12719,1.86573c2.64023,1.1559,6.34,2.97392,10.96848,4.71414,4.60485,1.79215,9.93743,3.99259,15.73455,6.1218,5.85223,1.97774,12.08051,4.137,18.34854,6.16623,6.33926,1.79956,12.6789,3.59911,18.62186,5.28619,6.0187,1.39182,11.63585,2.69094,16.45066,3.80448q1.807.40941,3.45757.7834,1.66187.30033,3.146.56858c1.97549.355,3.6979.66437,5.11625.91913l4.459.79569a2.55354,2.55354,0,0,0,.82521.00638,2.10446,2.10446,0,0,0,.2617-.07518,2.22,2.22,0,0,0,.46753-.16487,1.92814,1.92814,0,0,0,.23846-.16909,1.80707,1.80707,0,0,0,.31906-.28157,1.66508,1.66508,0,0,0,.16159-.25711,1.44014,1.44014,0,0,0,.13685-.21652,1.392,1.392,0,0,0,.018-.14688,1.42372,1.42372,0,0,0,.05773-.13816,1.45175,1.45175,0,0,0-.01574-.224,1.549,1.549,0,0,0-.02587-.37249,1.68318,1.68318,0,0,0-.12073-.34483,1.89658,1.89658,0,0,0-.18034-.325,2.10064,2.10064,0,0,0-.26282-.29338,2.23677,2.23677,0,0,0-.30182-.24933,2.43763,2.43763,0,0,0-.38692-.2019,2.28237,2.28237,0,0,0-.228-.11941c-3.85949-1.23838-7.72086-2.63227-11.54362-4.16853-3.80738-1.61462-7.5409-3.55056-11.2163-5.51611q-2.78384-1.50623-5.29509-3.16916-1.25471-.83079-2.43815-1.69889c-.78247-.60232-1.5342-1.24522-2.26568-1.88316a51.1622,51.1622,0,0,1-7.57277-8.20771,35.38308,35.38308,0,0,1-6.23241-13.20989,25.96633,25.96633,0,0,1-.63438-8.25635c.53615-5.69748,3.287-9.87951,7.34594-11.53284,2.17983-.79878,6.70444-1.98758,12.51806,1.95468,2.21619,1.458,4.59135,3.11358,7.14985,4.615,2.5675,1.46634,5.27222,2.95574,8.05717,4.40117-2.49214.66831-4.99365,1.33905-7.46441,2.00164,0,0-1.56832.41758-3.13889.83572-1.56832.38758-3.146.71451-3.146.71451l-.32244.07311c-2.109-1.31421-4.17181-2.649-6.16192-3.95735,0,0-.80721-.52893-.84846-.55583a2.12311,2.12311,0,0,0-1.42809-.33921,1.87572,1.87572,0,0,0-1.62831,1.39791,13.7112,13.7112,0,0,0,.1436,5.98027c.08023.36837.186.8179.32918,1.30259l.02587.063a32.3833,32.3833,0,0,0,8.39574,13.70807,49.25605,49.25605,0,0,0,10.18263,7.31182c26.76527,14.554,57.43053,18.37506,85.53841,11.20843l.99318-.26507-.00038-.09467c3.89549-1.108,7.74824-2.32829,11.53275-3.74383,2.99229-1.15449,5.95084-2.21338,8.84415-3.5783q4.34-2.02995,8.50558-4.16028a41.02381,41.02381,0,0,0,7.98444,7.98481c-8.72154,4.64844-17.54094,8.79541-26.0724,11.15614-3.71852,1.11662-7.6755,2.1069-11.78732,3.00063l-.25683.04808c-1.42134.21924-2.87643.44363-4.33.66784l-3.73164.52762c-.94782.10423-1.92937.2123-2.89069.318l-2.95554.32262-1.53458.15082a3.01132,3.01132,0,0,0-1.37186.40679,2.156,2.156,0,0,0-.361.25317,1.87672,1.87672,0,0,0-.20733.24117,1.68545,1.68545,0,0,0-.22871.3589,1.61248,1.61248,0,0,0-.087.30069,1.5378,1.5378,0,0,0-.07836.27782,1.38908,1.38908,0,0,0,.02812.14482c.00075.0359-.01725.068-.0135.10395a1.49125,1.49125,0,0,0,.07686.22317,1.56318,1.56318,0,0,0,.12.34906,1.74831,1.74831,0,0,0,.21108.28354,1.9561,1.9561,0,0,0,.24145.26938,2.33018,2.33018,0,0,0,.36031.21849,3.94738,3.94738,0,0,0,1.94024.34278l2.779.07236,3.83325.09692,3.95173.09617,3.12914.07357c.45741.0105.91369.021,1.376.03159l1.03517-.02371s5.646-.13966,14.11562-.34906c2.11646-.07677,4.41251-.07123,6.83529-.23283,2.422-.1809,4.9764-.37174,7.61888-.56914,2.64211-.20246,5.37233-.41167,8.14678-.62416q2.07972-.16871,4.18719-.33959,2.09658-.26235,4.204-.52611c5.61078-.716,11.22755-1.39782,16.47915-2.1293,5.22348-.92964,10.099-1.7974,14.278-2.54107,2.08722-.384,4.00684-.7028,5.69589-1.04783,1.68154-.38486,3.14751-.72032,4.3544-.99655,2.41415-.55508,3.79388-.87236,3.79388-.87236a2.5483,2.5483,0,0,0,.763-.31757,2.13483,2.13483,0,0,0,.21258-.17162,2.33846,2.33846,0,0,0,.3693-.33621,2.1065,2.1065,0,0,0,.15485-.24942,1.80068,1.80068,0,0,0,.18371-.38412,1.61065,1.61065,0,0,0,.05324-.30116,1.91653,1.91653,0,0,0,.04312-.25335c-.0015-.05184-.0345-.09195-.04087-.1421a1.43718,1.43718,0,0,0,.00188-.15035,1.33511,1.33511,0,0,0-.10161-.20011,1.4817,1.4817,0,0,0-.16684-.33341,1.60261,1.60261,0,0,0-.24295-.2706,1.81317,1.81317,0,0,0-.29095-.22946,2.00106,2.00106,0,0,0-.3543-.167,2.12436,2.12436,0,0,0-.37493-.11126,2.31455,2.31455,0,0,0-.43267-.03478,2.26348,2.26348,0,0,0-.255-.02081q-3.024.27881-6.08881.45038l-3.06915.14229-3.10664-.04649c-4.14856-.09861-8.31625-.3439-12.46106-.73683a49.90975,49.90975,0,0,1-12.35421-2.65673,49.40952,49.40952,0,0,1-10.43534-4.93085q-1.61743-1.02144-3.09427-2.1577a37.2366,37.2366,0,0,1-2.79958-2.47648,34.629,34.629,0,0,1-4.54673-5.40017,25.73028,25.73028,0,0,1-3.29336-6.70219c-1.69317-5.465-.7611-10.38969,2.35492-13.49773a10.46329,10.46329,0,0,1,4.22729-2.53357,15.49957,15.49957,0,0,1,8.0913-.41645c2.37141.45094,4.92766.91951,7.60576,1.37007,1.337.21024,2.71372.47982,4.095.62416q2.07691.19628,4.20031.39705c-1.478,1.15431-2.963,2.31424-4.43126,3.46114l-7.01076,5.13162c-2.27243-.39752-4.51524-.78978-6.70594-1.173l-.08473-.01509a2.116,2.116,0,0,0-1.70442.44166,1.857,1.857,0,0,0-.68836,1.758,13.90433,13.90433,0,0,0,2.2968,5.25723s.33331.47034.36255.51177a30.97879,30.97879,0,0,0,12.45769,9.62212,40.42775,40.42775,0,0,0,13.35977,3.40874c4.0582.394,8.128.6864,12.17012.756q6.02263-.0987,11.99765-.62547c7.99869-.53661,15.69668-2.41593,23.26645-4.505,17.20314-5.37129,33.11578-14.23278,46.06163-26.80529,2.15245-2.04391,4.24642-4.05221,6.23165-6.10287q2.9205-3.19452,5.59691-6.325a41.31188,41.31188,0,0,0,10.63405,4.10245c-2.96755,3.608-6.01983,7.06352-9.12235,10.32642q-1.17539,1.21307-2.33579,2.4104c-.79672.75941-1.60506,1.48752-2.4104,2.21291q-2.41884,2.16913-4.85643,4.17725-2.53525,2.09265-5.29247,4.16712-1.38909,1.022-2.80857,2.06641c-.96244.66624-1.96237,1.28281-2.96792,1.92169-4.03384,2.53113-8.33987,5.00817-12.87836,7.40489a2.37312,2.37312,0,0,0-.22983.17622,2.42951,2.42951,0,0,0-.34156.26263,2.25179,2.25179,0,0,0-.25607.31129,2.19474,2.19474,0,0,0-.20809.33162,1.83472,1.83472,0,0,0-.11735.35965,1.62161,1.62161,0,0,0-.06261.36077,1.509,1.509,0,0,0,.04162.37352,1.5659,1.5659,0,0,0,.02961.2437c.015.04078.05137.06665.06862.10555.01687.03889.01349.08135.033.12044a1.564,1.564,0,0,0,.18934.213,1.42743,1.42743,0,0,0,.20358.22842,1.77747,1.77747,0,0,0,.36218.215,2.065,2.065,0,0,0,.26957.12645,2.18216,2.18216,0,0,0,.487.07077,2.328,2.328,0,0,0,.27483.0268,2.55353,2.55353,0,0,0,.81621-.1705s6.12968-2.41762,15.32438-6.044c4.55274-1.91738,9.77584-4.36256,15.41024-6.89134,1.4026-.64581,2.84382-1.27016,4.27341-1.96312q2.123-1.08274,4.29179-2.18891c2.88544-1.47806,5.81661-2.97964,8.74816-4.48122,11.63585-6.16877,22.97664-12.89083,31.21265-18.3401,2.0771-1.33531,3.981-2.55925,5.66852-3.6442,1.69092-1.07951,3.07927-2.147,4.26592-2.96248,2.34854-1.66721,3.69115-2.62018,3.69115-2.62018a2.55494,2.55494,0,0,0,.58339-.58413,1.99524,1.99524,0,0,0,.13085-.24014,2.24062,2.24062,0,0,0,.21295-.45076,2.11838,2.11838,0,0,0,.04762-.28954,1.94061,1.94061,0,0,0,.02512-.42648,1.78169,1.78169,0,0,0-.06786-.29713,1.62437,1.62437,0,0,0-.05662-.25054c-.02137-.04724-.06711-.07189-.09223-.11576-.02549-.04433-.02587-.09729-.05586-.13957-.045-.06261-.11623-.0926-.17022-.14612a1.48246,1.48246,0,0,0-.28119-.24464,1.58753,1.58753,0,0,0-.32806-.15747,1.77578,1.77578,0,0,0-.35618-.10076,2.00875,2.00875,0,0,0-.39143-.01978,2.19984,2.19984,0,0,0-.38655.03862,2.384,2.384,0,0,0-.415.13422,2.24675,2.24675,0,0,0-.24333.0777q-2.6871,1.40992-5.45256,2.73622c-.92344.43857-1.84314.883-2.78495,1.29565l-2.88619,1.14662c-3.86737,1.49718-7.809,2.86641-11.78657,4.091a51.03356,51.03356,0,0,1-11.88743,2.212,50.39454,50.39454,0,0,1-11.09895-.34859,35.13831,35.13831,0,0,1-7.38418-1.90641,34.77108,34.77108,0,0,1-6.41725-3.12623,25.63747,25.63747,0,0,1-6.27065-5.34861c-3.64241-4.39152-4.66559-9.3084-2.98742-13.39135.90358-2.24656,3.4752-5.88888,10.26662-7.41137a143.1458,143.1458,0,0,0,17.13453-4.37277c-1.27025,2.22041-2.50939,4.55892-3.852,6.708,0,0-3.38409,5.44994-3.39384,5.46531l-.17434.283c-2.40628.58966-4.79268,1.13078-7.11048,1.63908l-.98756.21859a2.12348,2.12348,0,0,0-1.23951.78622,1.90459,1.90459,0,0,0-.15972,2.14664,13.57521,13.57521,0,0,0,4.32366,4.11285c.31606.20162.70749.442,1.1499.6804l.06261.02578a32.14465,32.14465,0,0,0,15.56883,3.64728,40.7024,40.7024,0,0,0,12.40071-1.96714c29.51348-8.77385,54.18553-28.0044,68.91-53.45949,2.00023-3.57165,3.88649-7.19391,5.583-10.90615a152.24336,152.24336,0,0,0,6.78917-17.749,40.12393,40.12393,0,0,0,11.29767-.00338c-1.39473,4.76467-3.017,9.35152-4.7357,13.79956-.87433,2.21038-1.73778,4.41879-2.71484,6.50207q-1.50159,3.09229-3.0924,6.03023c-1.89825,3.50472-4.04583,7.10767-6.41537,10.7274-.80609,1.10266-1.62943,2.22931-2.45315,3.35606-.79372,1.0573-1.57994,2.10484-2.3894,3.18313-.53127.66475-1.08167,1.353-1.62006,2.0262l-2.13671,2.6647c-.39292.483-.84321.942-1.19039,1.45687a2.55234,2.55234,0,0,0-.43267,1.29256,1.86124,1.86124,0,0,0,.024.31737,1.68311,1.68311,0,0,0,.09186.41617,1.62778,1.62778,0,0,0,.15109.27417,1.54574,1.54574,0,0,0,.141.252c.0345.03749.08436.04893.12223.08249.02587.02465.036.06017.06411.08314a1.54809,1.54809,0,0,0,.21184.10329,1.5661,1.5661,0,0,0,.33181.16178,1.74147,1.74147,0,0,0,.34943.0508,2.32592,2.32592,0,0,0,1.73666-.59454c1.56907-1.38554,3.05265-2.90774,4.56923-4.35355l5.04051-4.81434c.88858-.8659,1.815-1.69374,2.66723-2.62018,0,0,3.90262-4.09,9.75635-10.22491,2.98966-3.0101,6.15217-6.8186,9.64011-10.80876,1.73291-2.00492,3.52356-4.07658,5.34308-6.1817,1.80752-2.11524,3.49844-4.3843,5.2651-6.59083,1.74566-2.22351,3.49169-4.447,5.21035-6.63583q1.28339-1.64569,2.54313-3.261,1.18833-1.66511,2.34517-3.28539c3.07065-4.32178,5.93659-8.35543,8.39348-11.81282,2.36429-3.52018,4.22693-6.52738,5.57741-8.60063,1.33474-2.08384,2.09809-3.275,2.09809-3.275a2.54242,2.54242,0,0,0,.32169-.759,2.08873,2.08873,0,0,0,.03037-.2692,2.267,2.267,0,0,0,.027-.49593,2.08107,2.08107,0,0,0-.06523-.28467,1.73324,1.73324,0,0,0-.13873-.401,1.57635,1.57635,0,0,0-.17509-.24876,1.60377,1.60377,0,0,0-.14772-.20912c-.03749-.03543-.08886-.04171-.129-.07264-.04087-.03009-.06149-.07874-.10536-.10611a1.44935,1.44935,0,0,0-.213-.07105,1.54615,1.54615,0,0,0-.3543-.11847,1.69344,1.69344,0,0,0-.36518-.02044,1.89826,1.89826,0,0,0-.36968.042,2.0449,2.0449,0,0,0-.37192.1316,2.12705,2.12705,0,0,0-.34606.18333,2.4002,2.4002,0,0,0-.33406.27886,2.36866,2.36866,0,0,0-.19759.165c-2.62224,3.08931-5.38882,6.12106-8.27238,9.06292-2.93568,2.90615-6.15217,5.61125-9.36717,8.25739a50.694,50.694,0,0,1-21.47355,10.752,39.84708,39.84708,0,0,1-7.38831.94388,34.25865,34.25865,0,0,1-7.043-.60551,25.85225,25.85225,0,0,1-7.079-2.415c-5.06863-2.66761-7.88958-6.80286-7.87421-11.192.08061-2.3297.7731-6.91008,6.595-10.82132,2.00886-1.34786,4.16244-2.81335,6.38988-4.37774,2.13183-1.6358,4.32328-3.38118,6.5196-5.19957-.24,1.85335-.48066,3.71683-.71911,5.55838-.30144,2.929-.76523,5.77321-1.24851,8.63972-1.9005,1.31665-3.77738,2.61689-5.60815,3.88536l-.072.04977a2.111,2.111,0,0,0-.90245,1.50974,1.8433,1.8433,0,0,0,.75211,1.72522,13.998,13.998,0,0,0,5.35433,2.0966s.57026.09785.62012.10647a31.30231,31.30231,0,0,0,15.67682-1.9633A45.68906,45.68906,0,0,0,740.01273,644.54q2.389-1.9231,4.70083-3.923c1.55257-1.325,2.93193-2.77427,4.3649-4.19215q4.241-4.29229,8.14528-8.85267a59.32854,59.32854,0,0,0,3.67428-4.69793q1.7468-2.40562,3.40209-4.86646,1.65454-2.46017,3.21462-4.97087c1.03817-1.67414,2.07185-3.34884,2.93643-5.11269q3.08976-6.01236,5.65052-12.232l1.24363-3.11508c.376-1.05495.709-2.12818,1.04754-3.19606q1.00388-3.20941,1.86714-6.45118a114.21058,114.21058,0,0,0,3.87074-26.50685c.17884-2.93.0285-5.90762-.03786-8.77q-.14117-4.30861-.412-8.40042a37.75634,37.75634,0,0,0,10.41359-4.61694c.33593,2.3596.45366,4.65227.57326,6.94008q.17154,3.42958.21671,6.797a99.13627,99.13627,0,0,1-.48853,13.04492c-.47128,4.34306-1.17389,8.88576-2.10109,13.58462-.42142,2.36729-1.07716,4.69756-1.749,7.078q-1.01343,3.56809-2.19707,7.22765a2.29714,2.29714,0,0,0-.04087.28551,2.40663,2.40663,0,0,0-.06149.42611,2.24348,2.24348,0,0,0,.03525.39817,2.18966,2.18966,0,0,0,.08286.3813,1.83845,1.83845,0,0,0,.16909.3349,1.59586,1.59586,0,0,0,.20771.29985,1.55568,1.55568,0,0,0,.29319.23311,1.5913,1.5913,0,0,0,.19459.15353c.039.01828.08248.01041.1226.02475.03936.01546.06673.04939.10873.06186a1.64081,1.64081,0,0,0,.28344.01772,1.61809,1.61809,0,0,0,.30669.01837,1.81084,1.81084,0,0,0,.41167-.10339,1.98723,1.98723,0,0,0,.28232-.09907,2.28741,2.28741,0,0,0,.39967-.29179,2.3479,2.3479,0,0,0,.21671-.175,2.56213,2.56213,0,0,0,.46641-.69314s.67862-1.50093,1.866-4.12738c1.1559-2.64,2.97392-6.33992,4.714-10.96848,1.79215-4.60485,3.9926-9.93753,6.12181-15.73465,1.97773-5.85214,4.13694-12.08042,6.16642-18.34835,1.79927-6.33945,3.59892-12.6788,5.28609-18.62205,1.39173-6.01841,2.69085-11.63566,3.80438-16.45047q.40943-1.80725.7836-3.45757c.20021-1.10782.38992-2.15864.56838-3.14611.35506-1.97558.66437-3.69781.91932-5.11615.50616-2.83745.7956-4.45919.7956-4.45919a2.55212,2.55212,0,0,0,.00637-.825,2.10277,2.10277,0,0,0-.07536-.26189,2.22818,2.22818,0,0,0-.16459-.46753,1.9581,1.9581,0,0,0-.16909-.23836,1.80234,1.80234,0,0,0-.28157-.31888,1.67336,1.67336,0,0,0-.2572-.16187,1.46051,1.46051,0,0,0-.21671-.13685.54272.54272,0,0,1-.28494-.07564,1.45006,1.45006,0,0,0-.22383.01584,1.54658,1.54658,0,0,0-.37268.026,1.671,1.671,0,0,0-.34493.12064,1.86586,1.86586,0,0,0-.32469.18034,2.10054,2.10054,0,0,0-.29357.26263,2.2654,2.2654,0,0,0-.24933.30191,2.44107,2.44107,0,0,0-.20171.38683,2.30785,2.30785,0,0,0-.1196.22815c-1.23838,3.8593-2.63236,7.72077-4.16843,11.54362-1.61444,3.80728-3.55056,7.54071-5.5163,11.2164q-1.50608,2.78368-3.16888,5.295-.83121,1.25442-1.69879,2.438c-.60251.78276-1.24551,1.53439-1.88326,2.26578a51.17691,51.17691,0,0,1-8.2079,7.573,35.38481,35.38481,0,0,1-13.20979,6.2324,25.98131,25.98131,0,0,1-8.25626.63438c-5.69776-.53643-9.87969-3.28726-11.53275-7.34622-.799-2.17973-1.98786-6.70435,1.9545-12.51787,1.45809-2.21609,3.11339-4.59154,4.615-7.15,1.46634-2.56721,2.95555-5.27193,4.40127-8.05708.66811,2.49214,1.33886,4.99356,2.00135,7.46442,0,0,.41767,1.56832.83609,3.13907.3873,1.56832.71424,3.14592.71424,3.14592l.07311.32234c-1.31412,2.10887-2.64886,4.17172-3.95735,6.162,0,0-.529.80731-.55565.84827a2.1226,2.1226,0,0,0-.3393,1.42809,1.87556,1.87556,0,0,0,1.3981,1.6285,13.71139,13.71139,0,0,0,5.98008-.1435c.36818-.08033.81809-.18625,1.30249-.32947l.063-.02578A32.38124,32.38124,0,0,0,793.832,516.5581a49.2538,49.2538,0,0,0,7.31182-10.18264c14.55428-26.76555,18.37516-57.43071,11.20844-85.53869l-.26508-.99308-.09448.00018c-1.10828-3.8952-2.32829-7.748-3.744-11.53255-1.1544-2.99229-2.21319-5.95084-3.5783-8.844q-2.02967-4.34053-4.16018-8.50559a41.02746,41.02746,0,0,0,7.98481-7.98463c4.64834,8.72155,8.79541,17.54095,11.15632,26.07231,1.11653,3.71843,2.10671,7.6755,3.00054,11.78732l.048.25683c.21933,1.42163.44354,2.87644.66774,4.33.17547,1.24035.34906,2.46758.52753,3.73183.1046.94782.21258,1.92937.31831,2.8905l.32244,2.95573.15072,1.53467a3.01952,3.01952,0,0,0,.40679,1.37186,2.16775,2.16775,0,0,0,.25345.361,1.8573,1.8573,0,0,0,.24108.20715,1.68546,1.68546,0,0,0,.3588.229,1.65323,1.65323,0,0,0,.3007.08689,1.5462,1.5462,0,0,0,.27782.07836,1.416,1.416,0,0,0,.14472-.02812c.036-.00094.06823.01706.10423.0135a1.53837,1.53837,0,0,0,.22308-.07695,1.5693,1.5693,0,0,0,.34906-.12007,1.75077,1.75077,0,0,0,.28344-.21118,1.91128,1.91128,0,0,0,.26957-.24145,2.32771,2.32771,0,0,0,.21821-.36012,3.94872,3.94872,0,0,0,.34306-1.94025l.07236-2.779.09673-3.83307.09636-3.952.07348-3.129c.0105-.45741.021-.91351.0315-1.37608l-.02362-1.03489s-.13948-5.6463-.34906-14.11571c-.07686-2.11665-.07124-4.41242-.23283-6.83519-.18109-2.42231-.37193-4.97669-.56914-7.61908-.20246-2.6422-.41167-5.37241-.62425-8.14668q-.16872-2.07972-.33969-4.18709-.26207-2.09659-.526-4.20406c-.71611-5.61106-1.39773-11.22764-2.12921-16.47934-.92982-5.22357-1.7974-10.09893-2.54125-14.27786-.38393-2.08722-.70261-4.00694-1.04755-5.69608-.38505-1.68136-.72023-3.14723-.99655-4.3544-.55527-2.41387-.87246-3.7936-.87246-3.7936a2.55177,2.55177,0,0,0-.31756-.76307,2.16047,2.16047,0,0,0-.17171-.21277,2.34353,2.34353,0,0,0-.33594-.369,2.11422,2.11422,0,0,0-.2497-.15494,1.79986,1.79986,0,0,0-.38393-.18381,1.605,1.605,0,0,0-.30144-.05324,1.92371,1.92371,0,0,0-.25307-.04321c-.05174.0016-.09223.0345-.1421.041a1.46536,1.46536,0,0,0-.15034-.00168,1.29669,1.29669,0,0,0-.20022.1016,1.47855,1.47855,0,0,0-.33331.16656,1.59724,1.59724,0,0,0-.27069.24324,1.79414,1.79414,0,0,0-.22946.29085,2.01479,2.01479,0,0,0-.16721.3543,2.10673,2.10673,0,0,0-.111.375,2.31888,2.31888,0,0,0-.03487.43267,2.27418,2.27418,0,0,0-.021.25476q.279,3.02412.45066,6.08872l.1421,3.06915-.04649,3.10692c-.0986,4.14838-.34381,8.31606-.73673,12.46088a52.77229,52.77229,0,0,1-7.58739,22.78945q-1.02186,1.61772-2.15808,3.09455A37.22561,37.22561,0,0,1,802.49352,383.98007Zm-10.00567-24.47559c1.14128,1.53026,2.38,3.05781,3.4452,4.62341a1.92992,1.92992,0,0,0,.532.51534l.97631,1.33483a28.66785,28.66785,0,0,1-6.48773,8.725c-.92345-1.32949-1.98861-2.86359-2.53113-3.64494l-.00038-.00234-.29994-.41514-.00487-.00872-3.29223-4.46931c-.67862-.9854-1.427-1.95506-2.18545-2.91806q-3.173-4.05454-6.38763-8.16121l-.02324-.03037-.01275-.016q-2.19107-2.80309-4.1988-5.371c-1.31712-1.70573-2.74447-3.294-4.00872-4.84012-2.57575-3.0819-4.90254-5.91325-7.06812-8.61394.20284-1.16406.436-2.30046.67637-3.39787.19758-1.08616.41767-2.13718.65912-3.14648a41.95017,41.95017,0,0,1,1.68867-5.501c1.23276,1.46878,2.48839,2.96464,3.77926,4.50222q.99037,1.158,2.00961,2.34919.97405,1.21224,1.98,2.46383c5.32021,6.63021,11.18106,13.329,15.58832,19.28839Q789.916,356.1518,792.48785,359.50448ZM736.0895,218.53663q2.03472,1.17609,4.0612,2.34732l5.0004,2.925.05774.02062.006.00469c1.06554.60841,2.09659,1.2576,3.149,1.89975a29.95524,29.95524,0,0,1-2.31967,10.83079c-1.47459-.981-2.94168-1.9574-4.43351-2.89153l-.13835-.09176-1.0378-.64619c-1.83714-1.13968-3.61129-2.29942-5.47805-3.38455q-5.37477-3.039-10.82413-6.12031l-.1301-.07789q-3.06953-1.71824-5.87923-3.291c-1.91475-.99281-3.75114-1.94484-5.52342-2.8636-3.50819-1.83367-6.69169-3.53265-9.67611-5.17333a54.03157,54.03157,0,0,1-1.52483-12.055c2.89819,1.53139,6.00408,3.08958,9.3713,4.79363,3.70277,2.02666,7.50828,4.04452,11.322,6.04775q2.8845,1.5103,5.71389,2.99154,2.75571,1.575,5.43156,3.10515Zm-104.28062-105.024q4.20612.58488,8.37249,1.16433l5.70826.82934a2.05568,2.05568,0,0,0,.754-.03056l1.66842.20677a28.67908,28.67908,0,0,1,1.56082,10.79021c-1.58631-.29488-3.41783-.6355-4.35027-.80891l-.00075-.00075c-.23846-.03993-.4083-.06842-.50428-.08454l-.00975-.00282c-1.82889-.296-3.64241-.59257-5.52-.784l-3.63117-.48628q-5.08738-.65827-10.23625-1.32461l-.03749-.00506-.02025-.00263q-1.76478-.22833-3.45345-.44654-1.71473-.16028-3.35822-.314c-2.16632-.20752-4.24492-.40642-6.25227-.59876-3.99372-.3693-7.5724-.84021-11.06109-1.14052a53.32308,53.32308,0,0,1-6.388-10.64811c3.76014.40642,7.73248.76185,12.08838,1.08748,4.28167.377,8.51759.90432,12.716,1.29649C624.019,112.65142,628.16347,112.94424,631.80888,113.51263ZM500.65652,54.80379q2.2653-.58432,4.52161-1.16621l5.59353-1.411.05549-.02568.0075-.00094c1.19039-.32543,2.39391-.65443,3.59555-.98287a28.53177,28.53177,0,0,1,6.01045,9.31937c-1.73141.32918-3.4527.65687-5.16274,1.03161l-.16347.03093-1.18739.2632c-2.10709.50315-4.2183,1.08429-6.304,1.62849q-5.93322,1.58988-11.95116,3.20281l-.14773.03506c-8.89738,2.704-16.20433,4.92466-22.91927,6.96558a49.48931,49.48931,0,0,1-9.606-7.45149c3.13026-.95175,6.421-2.00173,10.006-3.18481l3.06653-1.02111,3.06277-.9017q3.09258-.92795,6.154-1.8467c4.09945-1.21214,8.22327-2.57875,12.208-3.6516Zm-141.15166-5.6179c1.53007-1.14109,3.05752-2.37985,4.62322-3.44521a1.9352,1.9352,0,0,0,.51552-.53183l1.33474-.9765a28.67094,28.67094,0,0,1,8.72492,6.48792c-1.32949.92307-2.86369,1.98843-3.645,2.53113l-.00225.00019c-.19646.1421-.33593.24258-.415.29994l-.009.00488-4.46913,3.29242c-.9853.67843-1.95524,1.42659-2.918,2.18526q-4.05428,3.17328-8.1614,6.38744l-.03.02343-.01612.01275q-2.80352,2.19135-5.3712,4.199c-1.70554,1.31711-3.29411,2.74446-4.83993,4.00853-3.0819,2.57593-5.91334,4.90273-8.61394,7.0683-1.16415-.20321-2.30055-.436-3.398-.67655-1.08616-.19759-2.13708-.41786-3.14639-.65912a41.92323,41.92323,0,0,1-5.5013-1.68867c1.469-1.23276,2.96492-2.48839,4.5025-3.77908q1.158-.99065,2.34929-2.00979,1.212-.97434,2.46364-1.98c6.63021-5.32021,13.329-11.18107,19.28848-15.58814Q356.15208,51.75788,359.50486,49.18589Zm-145.70215,64.682q1.57526-2.75544,3.10514-5.43175l1.62906-2.85188q1.176-2.03473,2.347-4.06121l2.92518-5.0004.02062-.05774.0045-.00618c.60851-1.06536,1.25788-2.0964,1.90013-3.14864a29.94665,29.94665,0,0,1,10.83051,2.31968c-.98081,1.47439-1.9575,2.94167-2.89144,4.43332l-.09186.13853-.646,1.0378c-1.13978,1.83714-2.29943,3.61111-3.38484,5.47787q-3.0386,5.37475-6.12031,10.82432l-.07761.12991q-1.71865,3.06981-3.2911,5.87923c-.99281,1.91493-1.94475,3.75114-2.86369,5.52323-1.8334,3.50838-3.53256,6.69188-5.17324,9.67648a54.054,54.054,0,0,1-12.055,1.52483c1.5312-2.89818,3.08977-6.00408,4.79344-9.37129,2.02685-3.703,4.04471-7.50847,6.04794-11.32242Q212.32119,116.69735,213.80271,113.86787Zm-102.89,120.66791c.37717-4.28166.90469-8.51777,1.29649-12.716.44242-4.16516.73523-8.30932,1.30362-11.9551q.58489-4.20583,1.16415-8.37249l.82971-5.70789a2.06862,2.06862,0,0,0-.03074-.75416l.20658-1.66824a28.67668,28.67668,0,0,1,10.79039-1.56082c-.29506,1.58613-.6355,3.41765-.80871,4.3499l-.00075.00094c-.04012.23845-.06861.4083-.08474.50446l-.00262.00956c-.29619,1.82871-.59276,3.64242-.784,5.51986l-.48666,3.63154q-.658,5.08683-1.32424,10.23588l-.00525.03787-.00262.02024q-.22833,1.7645-.44654,3.45326-.16027,1.71459-.31419,3.35822c-.20733,2.16652-.40642,4.24511-.59838,6.25237-.36968,3.99363-.84021,7.57249-1.1409,11.06119a53.31963,53.31963,0,0,1-10.64792,6.38772C110.23183,242.864,110.58726,238.89177,110.9127,234.53578ZM60.53679,321.23327c.32919,1.73113.6565,3.4527,1.03143,5.16274l.03074.16347.26357,1.18711c.50278,2.10737,1.08392,4.21859,1.62831,6.30412q1.58988,5.93307,3.20262,11.95125l.03525.14772c2.704,8.8972,4.92466,16.20424,6.96576,22.91937a49.50361,49.50361,0,0,1-7.45167,9.606c-.95194-3.13045-2.00173-6.42128-3.18463-10.00633l-1.0213-3.06643-.90169-3.06287q-.92794-3.09231-1.84652-6.154c-1.21251-4.09945-2.57912-8.22318-3.65178-12.20809l-.83272-3.16025q-.58432-2.26532-1.16639-4.52153L52.22654,330.902l-.02549-.0553-.00113-.0076c-.32543-1.19029-.65425-2.39372-.98268-3.59554A28.52577,28.52577,0,0,1,60.53679,321.23327ZM49.18626,482.16907c-1.14128-1.53017-2.38-3.05781-3.4452-4.62341a1.92992,1.92992,0,0,0-.532-.51534l-.97631-1.33483a28.66235,28.66235,0,0,1,6.48773-8.72492c.92307,1.32949,1.98861,2.8635,2.53113,3.64494l.00038.00225c.14172.19665.2422.33584.29956.41523l.00488.00872L56.849,475.511c.67825.98541,1.4266,1.95506,2.18508,2.91806q3.17357,4.05441,6.38762,8.16122l.02325.03027.01275.01612q2.19162,2.8031,4.19917,5.371c1.31712,1.70573,2.74447,3.294,4.00872,4.84,2.57575,3.082,4.90254,5.91325,7.06812,8.61394-.20321,1.164-.436,2.30055-.67674,3.39787-.19721,1.08625-.41767,2.13727-.65912,3.14657a41.946,41.946,0,0,1-1.6883,5.50093c-1.23313-1.46869-2.48876-2.96464-3.77926-4.50212q-.99093-1.1581-2.01-2.3493-.97407-1.21222-1.97962-2.46373c-5.32058-6.6303-11.18106-13.32912-15.58832-19.28848Q51.75807,485.52175,49.18626,482.16907Zm56.398,140.96785q-2.03473-1.176-4.06121-2.34723l-5.0004-2.92508-.05736-.02062-.00637-.0046c-1.06555-.60841-2.09622-1.25769-3.14864-1.89984a29.9385,29.9385,0,0,1,2.31967-10.8307c1.47459.9809,2.94168,1.9574,4.43314,2.89143l.13872.09177,1.0378.64618c1.83714,1.13969,3.61129,2.29952,5.47768,3.38466q5.37475,3.03887,10.82451,6.1203l.13009.0778q3.06953,1.71837,5.87886,3.2911c1.91512.99271,3.75114,1.94475,5.52342,2.8636,3.50819,1.83358,6.69169,3.53256,9.67648,5.17324a54.03223,54.03223,0,0,1,1.52483,12.05511c-2.89819-1.53139-6.00408-3.08968-9.3713-4.79362-3.70315-2.02677-7.50865-4.04453-11.32241-6.04785q-2.8845-1.51017-5.71388-2.99145-2.75516-1.57512-5.43157-3.10514ZM209.86485,728.161q-4.2061-.585-8.37248-1.16434l-5.70789-.82943a2.05727,2.05727,0,0,0-.754.03056l-1.66842-.20668a28.67167,28.67167,0,0,1-1.56082-10.7903c1.58632.295,3.41783.6355,4.3499.80891l.00112.00075.50428.08454.00975.00281c1.82852.2961,3.642.59267,5.51967.784l3.63154.48637q5.08682.65828,10.23587,1.32452l.03787.00516.02025.00262q1.76478.2282,3.45345.44644,1.71417.16042,3.35784.3141c2.1667.20743,4.2453.40642,6.25266.59866,3.99334.3694,7.57239.84021,11.06108,1.14062a53.31662,53.31662,0,0,1,6.38763,10.648c-3.76014-.40642-7.73211-.76185-12.088-1.08738-4.28167-.37709-8.518-.90442-12.716-1.29659C217.65471,729.02213,213.51064,728.72931,209.86485,728.161Zm131.15237,58.70874q-2.26532.58433-4.52124,1.16621l-5.59391,1.41113-.05511.02568-.0075.00094c-1.19039.32544-2.39391.65434-3.59592.98287a28.52878,28.52878,0,0,1-6.01008-9.31946c1.731-.32919,3.4527-.65678,5.16274-1.03152l.16347-.03093,1.187-.26329c2.10746-.50315,4.21867-1.08419,6.304-1.6284q5.9332-1.59,11.95154-3.20281l.14772-.03506c8.897-2.70406,16.204-4.92475,22.91927-6.96567a49.512,49.512,0,0,1,9.606,7.45158c-3.13063.95175-6.42137,2.00164-10.00642,3.18472l-3.06652,1.02111-3.06278.90179q-3.092.92795-6.154,1.84661c-4.09945,1.21223-8.2229,2.57884-12.208,3.65169Zm141.152,5.6179c-1.53007,1.14109-3.0579,2.37994-4.62359,3.4452a1.93278,1.93278,0,0,0-.51515.53193l-1.33474.9764a28.65947,28.65947,0,0,1-8.72492-6.48782c1.32949-.92317,2.86332-1.98852,3.64466-2.53113l.00263-.00028c.19646-.142.33556-.24249.415-.29985l.00862-.00487,4.46951-3.29242c.9853-.67843,1.95486-1.42669,2.918-2.18526q4.05428-3.17329,8.161-6.38754l.03037-.02343.01612-.01265q2.803-2.19137,5.37083-4.199c1.70591-1.31711,3.2941-2.74446,4.8403-4.00862,3.0819-2.57584,5.91334-4.90263,8.61394-7.0683,1.16415.20321,2.30055.43613,3.398.67664,1.08617.1975,2.13708.41777,3.14639.65913a41.929,41.929,0,0,1,5.50092,1.68857c-1.46859,1.23285-2.96454,2.48848-4.50212,3.77908q-1.158.99078-2.34929,2.00988-1.21251.9742-2.46364,1.9799c-6.63058,5.3203-13.329,11.18106-19.28848,15.58823Q485.522,789.91576,482.16925,792.48766ZM627.8714,727.80577q-1.57525,2.75529-3.10514,5.43166l-1.62906,2.852q-1.176,2.03474-2.34742,4.06121l-2.9248,5.0004-.02062.05764-.00487.00619c-.60851,1.06535-1.25751,2.0964-1.89976,3.14873a29.94922,29.94922,0,0,1-10.83088-2.31967c.98118-1.4745,1.95749-2.94168,2.89181-4.43332l.09148-.13854.64638-1.0378c1.13977-1.83723,2.29942-3.6112,3.38446-5.478q3.03915-5.37462,6.1203-10.82423l.078-.13q1.7181-3.06968,3.2911-5.87913c.99281-1.91494,1.94475-3.75115,2.86332-5.52333,1.83377-3.50828,3.53256-6.69179,5.17324-9.67639a54.04375,54.04375,0,0,1,12.05539-1.52483c-1.53157,2.89819-3.08977,6.00408-4.79381,9.3713-2.02648,3.70287-4.04434,7.50847-6.04794,11.32231Q629.35255,724.97635,627.8714,727.80577ZM730.761,607.13777c-.37718,4.28166-.90432,8.51777-1.2965,12.716-.44241,4.16515-.73485,8.30941-1.30324,11.9551q-.58489,4.206-1.16452,8.37249l-.82934,5.70788a2.05224,2.05224,0,0,0,.03074.75417l-.207,1.66824a28.67331,28.67331,0,0,1-10.79039,1.56091c.29507-1.58622.63588-3.41774.80909-4.35l.00075-.00094c.04012-.23836.06861-.4082.08474-.50437l.00262-.00966c.29619-1.8287.59276-3.64232.784-5.51985l.48628-3.63155q.65856-5.08682,1.32462-10.23587l.00525-.03777.00262-.02025q.22777-1.76464.44654-3.45336.16028-1.71444.31381-3.35812c.20734-2.16651.40642-4.2452.59876-6.25237.3693-3.99363.84021-7.57249,1.14053-11.06128a53.32862,53.32862,0,0,1,10.64792-6.38762C731.44228,598.80961,731.08648,602.78177,730.761,607.13777Zm50.37628-86.6974c-.32919-1.73113-.65687-3.4527-1.03143-5.16274l-.03111-.16347-.2632-1.18711c-.50315-2.10747-1.08429-4.21868-1.62831-6.30411q-1.58988-5.93322-3.203-11.95136l-.03487-.14772c-2.704-8.8971-4.925-16.20414-6.96576-22.91927a49.50074,49.50074,0,0,1,7.45167-9.606c.95156,3.13045,2.00136,6.42118,3.18463,10.00623l1.02092,3.06652.90208,3.06287q.92793,3.09231,1.84651,6.154c1.21214,4.09945,2.57875,8.22308,3.65179,12.20808l.83271,3.16016q.58433,2.26531,1.166,4.52152l1.41122,5.59372.02587.05521.00075.00759c.32544,1.1904.65425,2.39372.98306,3.59565A28.531,28.531,0,0,1,781.13732,520.44037ZM767.472,435.333s.47916,1.58463,1.07679,3.56012c.51027,1.98636,1.12178,4.36565,1.526,5.9379a38.93512,38.93512,0,0,0-8.35149,7.14311q-1.1619-3.90384-2.15508-7.79407-.47466-1.939-.95119-3.88827c-.28419-1.29406-.59576-2.59009-.96544-3.89015q-2.07015-7.79093-3.46919-15.5649l-.21484-.8478s-2.0321-8.99824-2.70959-13.49183a1478.68406,1478.68406,0,0,1-.20471-.54974,1.62585,1.62585,0,0,0-.2692-.3528,1.50817,1.50817,0,0,0-.12335-.12945,1.84239,1.84239,0,0,0-3.06053,1.34533c-.00337.05156-.02849.099-.02737.15138l.33481,13.0422.02362.83271-.3513,13.56757a338.68786,338.68786,0,0,1-7.10186,55.855,1.5275,1.5275,0,0,0-.00413.21108,1.64073,1.64073,0,0,0-.00712.38777,1.50544,1.50544,0,0,0,.06448.25673,1.6934,1.6934,0,0,0,.1706.40736l.09935.13329a1.81077,1.81077,0,0,0,.44392.42441,1.72318,1.72318,0,0,0,2.54012-.421l.06562-.10029a1.71164,1.71164,0,0,0,.17884-.27623c.53427-1.45678,1.292-3.065,1.90912-4.85277.65612-1.77959,1.4071-3.68918,2.26718-5.6792,1.66655-3.98894,4.02484-8.25833,6.37038-12.56117a75.15348,75.15348,0,0,1,7.78873-11.2509c3.46433-4.27857,6.98489-7.52806,10.72891-9.55988a19.56981,19.56981,0,0,1,3.02978-1.37364c3.79463-1.36782,7.467-.97912,10.336,1.243,2.81682,2.17354,4.48787,5.78184,5.43831,9.82111a29.5493,29.5493,0,0,1,.73036,6.22172c.06636,2.08947.0075,4.15419-.117,6.066q-.16647,2.56886-.49453,5.19554a43.72816,43.72816,0,0,1-.90882,5.302q-1.23669,5.33932-3.10814,10.942c-.925-3.0699-1.86789-6.19931-2.81908-9.35592q-.68724-2.3287-1.37935-4.67355l-1.55182-4.67281c.126-1.09375.22758-2.18854.30369-3.30807.37192-6.01767-.33444-10.13821-1.21889-11.84618a1.82116,1.82116,0,0,0-2.25406-.938,15.53331,15.53331,0,0,0-3.7249,2.123c-3.6,2.67079-7.4153,7.26982-10.9921,13.18345-.37418.60813-.73261,1.25235-1.13978,1.97952a83.2993,83.2993,0,0,0-5.54329,10.70706c-.87245,1.98046-1.65042,4.09514-2.53675,6.334-.93957,2.22763-1.872,4.60336-2.81008,7.15632-8.65518,25.192-14.47329,51.29476-18.28592,78.4552a40.41722,40.41722,0,0,0-10.53957,3.66838q.65238-5.74244,1.60356-11.33188c.55864-3.764,1.0528-7.55777,1.74529-11.2613q.50334-2.78551,1.088-5.53645c.3828-1.837.64674-3.72424,1.019-5.5671q1.05954-5.55248,2.45914-10.982a1.61392,1.61392,0,0,0,.01162-.25523,1.14821,1.14821,0,0,0,.00675-.31869,1.94823,1.94823,0,0,0-.17884-.56679,1.89431,1.89431,0,0,0-1.26313-1.0408,1.79,1.79,0,0,0-2.11158,1.14559c-.0195.03984-.05549.06814-.072.11l-3.76164,9.51742-1.87463,4.7612-2.11759,4.65931-4.2078,9.33089-4.65922,9.11606-2.326,4.56042c-.77273,1.52155-1.68717,2.96708-2.52138,4.45554l-5.09976,8.88089c-1.73178,2.9412-3.66678,5.76028-5.48143,8.65181-1.85851,2.86387-3.60979,5.79974-5.66214,8.53427a1.55609,1.55609,0,0,0-.08511.1958,1.63557,1.63557,0,0,0-.15409.35421,1.54,1.54,0,0,0-.03862.2633,1.6637,1.6637,0,0,0,.003.44016c.01462.0583.02662.10713.04049.16206a1.76465,1.76465,0,0,0,.24708.56145,1.82981,1.82981,0,0,0,.27257.37165,1.85536,1.85536,0,0,0,2.23644.20949l.09935-.06861a1.7024,1.7024,0,0,0,.27108-.18737c2.22556-2.20888,4.78031-5.12881,7.89745-8.14959,3.10515-3.02885,6.84279-6.12106,10.67567-9.18a72.1574,72.1574,0,0,1,10.59917-6.87794l.17884-.107a37.58987,37.58987,0,0,1,13.53861-5.06489,22.86868,22.86868,0,0,1,4.086-.19514c4.05108.20592,7.2987,1.96508,9.08222,5.09253,3.51682,6.1369.69737,15.95641-2.86894,22.73678q-1.24119,2.50164-2.6736,4.99158a48.04735,48.04735,0,0,1-3.14151,4.92551,122.40917,122.40917,0,0,1-7.79135,9.63983c.30182-2.97035.61825-6.08318.94219-9.27222.31194-3.16316.73673-6.30345.93507-9.56072l.41954-.71545c.81734-1.4222,1.59231-2.87222,2.31255-4.3246,2.67248-5.40007,3.57792-9.48967,3.38071-11.425a1.81628,1.81628,0,0,0-1.69917-1.73751,14.62551,14.62551,0,0,0-5.27334.85624l-.16609.05943c-4.47588,1.38066-9.7121,4.3125-15.05968,8.40145l-.7836.59538a92.29151,92.29151,0,0,0-9.18233,7.77729c-1.56307,1.49765-3.10552,3.14658-4.77057,4.88811-1.722,1.70357-3.49469,3.54793-5.34195,5.55529a399.3735,399.3735,0,0,0-42.53731,58.48472s-.198.36734-.5189.96366c-.31382.60541-.7671,1.42407-1.3055,2.298-1.05392,1.78831-2.3163,3.93045-3.15051,5.34627a38.63068,38.63068,0,0,0-10.92761-.83131,7.0347,7.0347,0,0,0,.74385-1.37551l.78285-1.42276,1.59194-2.81513q1.60956-2.79564,3.28886-5.50852c1.14915-1.78034,2.22069-3.64476,3.30985-5.48865q1.64554-2.75247,3.36347-5.42359c1.86376-2.89753,3.84112-5.67452,5.65239-8.61272,1.64818-2.55232,3.30236-5.08373,5.033-7.54494l.96431-1.34158a1.60317,1.60317,0,0,0,.10423-.22711,1.66281,1.66281,0,0,0,.14022-.305,1.63085,1.63085,0,0,0,.05924-.43923,1.49418,1.49418,0,0,0,.00412-.17846,1.8447,1.8447,0,0,0-3.11639-1.21449c-.039.03384-.09035.0494-.12635.08727l-9.4564,9.92515-9.92243,9.45912a333.38468,333.38468,0,0,1-44.57767,34.40553,1.5086,1.5086,0,0,0-.15072.14875,1.66862,1.66862,0,0,0-.27782.27407,1.56523,1.56523,0,0,0-.13347.22927,1.68516,1.68516,0,0,0-.16534.413c-.00863.06008-.01538.10929-.02325.16572a1.80409,1.80409,0,0,0,2.10334,2.10549l.11623-.02577a1.70863,1.70863,0,0,0,.31943-.07171c5.76263-2.4374,14.13024-6.48417,23.85359-8.80225a74.32164,74.32164,0,0,1,13.40513-2.5211q2.07859-.18446,4.03946-.20489,1.911-.08,3.7024.01312a29.07839,29.07839,0,0,1,6.63846,1.07388,19.54746,19.54746,0,0,1,3.10776,1.16705c3.64317,1.71211,5.964,4.58611,6.4255,8.194.45066,3.52778-.88633,7.303-3.09427,10.80361a50.918,50.918,0,0,1-8.26339,9.11671q-1.92337,1.71249-4.00121,3.352c-1.43185,1.03142-2.92143,2.03154-4.46051,3.013q-4.62,2.94131-9.87257,5.62362c2.98142-5.62465,6.07831-11.46685,9.16584-17.29162.85708-.68977,1.69916-1.39885,2.53975-2.14308,4.50474-4.00853,6.85891-7.50013,7.49628-9.26735a1.76758,1.76758,0,0,0-.90919-2.2339A14.95254,14.95254,0,0,0,645.076,697.87c-4.42789-.653-10.32436-.03149-17.04605,1.60422-.71123.14247-1.43784.32075-2.26.51974a79.01028,79.01028,0,0,0-11.436,3.73418c-1.96986.85539-4.12007,1.64433-6.34263,2.58446-2.22482.93619-4.54861,1.98411-7.001,3.15548a417.83565,417.83565,0,0,0-68.4275,42.52625,39.53548,39.53548,0,0,0-10.01017-4.74245q4.49351-3.67648,9.08935-7.03494,2.299-1.67845,4.627-3.27583,2.2878-1.68323,4.591-3.37771,4.61778-3.30981,9.36979-6.29277,4.642-3.25384,9.43241-6.19088a1.73478,1.73478,0,0,0,.18821-.17631,1.54206,1.54206,0,0,0,.23058-.21671,1.84066,1.84066,0,0,0-2.18545-2.8352c-.04236.01556-.08773.01069-.129.02925l-9.32293,4.22561-9.51789,3.75883-4.75707,1.88513c-1.58219.63812-3.22474,1.11072-4.83318,1.67658l-9.69111,3.28445c-3.23149,1.091-6.55259,1.8931-9.82158,2.86378l-4.92016,1.40354-2.46177.69586-2.49439.56905c-6.65832,1.4863-13.263,3.22428-20.01733,4.2557a1.59285,1.59285,0,0,0-.198.08042,1.60963,1.60963,0,0,0-.35768.14519,1.51717,1.51717,0,0,0-.21259.16141,1.68747,1.68747,0,0,0-.30856.31709l-.087.14435a1.82411,1.82411,0,0,0-.22159.57514,1.96,1.96,0,0,0-.06973.45722,1.83319,1.83319,0,0,0,1.43072,1.718l.11735.0209a1.666,1.666,0,0,0,.32431.05577c6.26765-.02109,15.53284-.61488,25.39641.9944a70.74013,70.74013,0,0,1,12.31,2.48l.20284.04827c5.36182,1.63347,9.76721,3.50632,13.17717,6.07091a22.56109,22.56109,0,0,1,3.01929,2.72281c2.713,2.98732,3.768,6.52944,2.82694,10.02892-.92944,3.41905-3.58017,6.47226-6.97851,8.79428a51.01484,51.01484,0,0,1-11.111,5.29987c-1.76291.60035-3.54868,1.22535-5.41169,1.67105q-2.80014.64773-5.73376,1.15046a114.433,114.433,0,0,1-12.30059,1.42528c4.66933-3.84693,9.67161-8.0448,14.64013-12.03074l.80985-.17968a46.913,46.913,0,0,0,4.68621-1.4401c5.68726-2.00726,9.19657-4.3363,10.462-5.71753a1.77,1.77,0,0,0,.03374-2.4046,15.33483,15.33483,0,0,0-4.36864-3.2344,1.44285,1.44285,0,0,0-.15935-.07395,37.23847,37.23847,0,0,0-7.32156-2.75852c-1.39286-.3798-2.86444-.7179-4.40277-1.01146q-2.299-.409-4.83693-.86037c-.33106-.05633-.658-.11191-.98456-.16749a78.75065,78.75065,0,0,0-11.968-.91192c-2.145.03909-4.432-.04218-6.84916-.03384-2.41678.01078-4.96853.08661-7.68788.22711a373.704,373.704,0,0,0-56.95961,7.99944c-4.82606.89064-9.66261,1.92787-14.49617,3.20881,0,0-1.58444.47925-3.55993,1.0766-1.98636.51056-4.366,1.12216-5.93809,1.52624a38.92544,38.92544,0,0,0-7.1431-8.3515q3.90411-1.16188,7.794-2.15536,1.93911-.47423,3.88836-.9509c1.29425-.28448,2.59-.59586,3.89024-.96572q7.79079-2.06988,15.56471-3.4692l.84808-.21455s8.99787-2.0321,13.49174-2.70978a1.60881,1.60881,0,0,0,.23433-.08745,1.66352,1.66352,0,0,0,.31531-.117,1.62315,1.62315,0,0,0,.35281-.26939,1.45356,1.45356,0,0,0,.12935-.12344A1.84227,1.84227,0,0,0,434.86325,747.6c-.05174-.00356-.099-.02868-.15147-.02746l-13.0422.33481-.83271.02352-13.56748-.35121a338.67038,338.67038,0,0,1-55.85508-7.102,1.54666,1.54666,0,0,0-.21108-.004,1.64474,1.64474,0,0,0-.38768-.00721,1.54267,1.54267,0,0,0-.25682.06448,1.685,1.685,0,0,0-.40717.17078l-.13347.09926a1.814,1.814,0,0,0-.42442.44382,1.72329,1.72329,0,0,0,.421,2.54023l.10048.06561a1.73414,1.73414,0,0,0,.27632.179c1.45659.53417,3.065,1.29181,4.85268,1.909,1.7794.65612,3.68928,1.40682,5.679,2.26709,3.98922,1.66673,8.25851,4.02484,12.56117,6.37056a75.16514,75.16514,0,0,1,11.25118,7.78836c4.27829,3.46441,7.52778,6.98516,9.55988,10.72909a19.55771,19.55771,0,0,1,1.37336,3.02987c1.3681,3.79445.97931,7.46686-1.24288,10.3358-2.17346,2.81682-5.78175,4.48815-9.82121,5.4384a29.53348,29.53348,0,0,1-6.22153.73027c-2.08947.06664-4.15419.00768-6.06594-.1167q-2.569-.16676-5.19574-.49472a43.73441,43.73441,0,0,1-5.30221-.90863q-5.33877-1.237-10.94186-3.10824c3.0699-.925,6.19941-1.868,9.35592-2.81907q2.32885-.68739,4.67383-1.37945l4.67272-1.55192c1.09366.126,2.18844.22777,3.308.3036,6.01758.37193,10.1384-.33434,11.84619-1.2186a1.82132,1.82132,0,0,0,.93807-2.25416,15.53182,15.53182,0,0,0-2.12321-3.725c-2.67061-3.59995-7.26983-7.415-13.18318-10.992-.60813-.37427-1.25263-.73251-1.97961-1.13987a83.33541,83.33541,0,0,0-10.70716-5.5431c-1.98036-.87264-4.095-1.65071-6.334-2.53675-2.22744-.93976-4.60335-1.8723-7.15623-2.81027-25.19207-8.65518-51.29484-14.47329-78.45529-18.28583a40.41821,40.41821,0,0,0-3.66828-10.53947q5.74257.65252,11.33179,1.60365c3.76389.55855,7.55777,1.0528,11.2613,1.74529q2.78552.50334,5.53654,1.08775c1.83714.3829,3.72415.647,5.56691,1.01915q5.55248,1.05968,10.982,2.45933a1.67433,1.67433,0,0,0,.25532.01153,1.15252,1.15252,0,0,0,.31869.00665,1.94611,1.94611,0,0,0,.56689-.17893,1.89277,1.89277,0,0,0,1.0408-1.26322,1.78971,1.78971,0,0,0-1.14578-2.11149c-.03974-.01931-.06786-.05531-.10985-.072l-9.51752-3.76155-4.76119-1.87444-4.65922-2.11778-9.3308-4.20789-9.11634-4.65931-4.56023-2.32577c-1.52146-.77272-2.96717-1.68707-4.45563-2.52138l-8.88089-5.09984c-2.9413-1.732-5.76038-3.66669-8.65181-5.48134-2.86369-1.85851-5.79974-3.61-8.53446-5.66214a1.536,1.536,0,0,0-.19571-.08511,1.617,1.617,0,0,0-.35393-.154,1.50513,1.50513,0,0,0-.26357-.03862,1.66764,1.66764,0,0,0-.44017.00291l-.162.04021a1.76923,1.76923,0,0,0-.56126.24717,1.72205,1.72205,0,0,0-.58114,2.5091l.06861.09954a1.72734,1.72734,0,0,0,.18709.271c2.20907,2.22566,5.129,4.78032,8.14978,7.89737,3.02866,3.10523,6.12106,6.843,9.17971,10.67556a72.15082,72.15082,0,0,1,6.878,10.59909l.10723.17921a37.59,37.59,0,0,1,5.06488,13.53842,22.86824,22.86824,0,0,1,.195,4.08595c-.20584,4.05127-1.965,7.29879-5.09226,9.08223-6.13717,3.51681-15.9565.69717-22.737-2.869q-2.50152-1.2409-4.9914-2.67351A48.057,48.057,0,0,1,224.7277,740.37a122.47067,122.47067,0,0,1-9.63974-7.79117c2.97054.30191,6.08318.61816,9.27231.94219,3.16326.31175,6.30364.73683,9.56063.93516l.71574.41927c1.42209.81752,2.87194,1.59259,4.3244,2.31282,5.40007,2.67229,9.48977,3.57793,11.42514,3.38072a1.81613,1.81613,0,0,0,1.73741-1.69926,14.62143,14.62143,0,0,0-.85633-5.27325l-.05924-.16628c-1.38085-4.47569-4.3124-9.712-8.40135-15.05968l-.59539-.7837a92.35794,92.35794,0,0,0-7.77748-9.18233c-1.49783-1.563-3.14638-3.10523-4.88792-4.77056-1.70366-1.72176-3.54793-3.4946-5.55529-5.34158a399.38613,399.38613,0,0,0-58.48481-42.5375s-.36743-.19787-.96357-.519c-.6055-.31372-1.42434-.767-2.2983-1.3055-1.788-1.05382-3.93035-2.31611-5.34608-3.15032a38.62888,38.62888,0,0,0,.83122-10.92771,7.02808,7.02808,0,0,0,1.3756.74367l1.42285.78313,2.815,1.59184q2.79564,1.60971,5.50842,3.289c1.78053,1.14915,3.645,2.22069,5.48893,3.30976q2.75233,1.64569,5.42331,3.36366c2.89781,1.86376,5.67452,3.84093,8.61282,5.65211,2.5525,1.64837,5.08363,3.30236,7.545,5.033l1.34148.9644a1.58847,1.58847,0,0,0,.22721.10414,1.65869,1.65869,0,0,0,.30481.14031,1.62592,1.62592,0,0,0,.43942.05906,1.45871,1.45871,0,0,0,.17846.00431,1.84475,1.84475,0,0,0,1.21439-3.1163c-.03374-.03909-.04949-.09036-.08736-.12654l-9.92506-9.4564-9.459-9.92225a333.37609,333.37609,0,0,1-34.40553-44.57775,1.52975,1.52975,0,0,0-.14884-.15082,1.6655,1.6655,0,0,0-.27408-.27782,1.60213,1.60213,0,0,0-.22908-.13357,1.69231,1.69231,0,0,0-.41317-.16515l-.16571-.02343a1.81851,1.81851,0,0,0-.61751.01565,1.779,1.779,0,0,0-.44991.1106,1.82784,1.82784,0,0,0-1.03817,1.97709l.02587.1166a1.711,1.711,0,0,0,.07161.31906c2.4374,5.76281,6.48436,14.13052,8.80253,23.85368a74.33005,74.33005,0,0,1,2.521,13.40513q.18446,2.07846.20471,4.03956.08042,1.91085-.01313,3.70258a29.08029,29.08029,0,0,1-1.07379,6.63836,19.54289,19.54289,0,0,1-1.16714,3.10749c-1.71192,3.64344-4.58611,5.964-8.194,6.42549-3.52768.451-7.30282-.886-10.80351-3.094a50.92575,50.92575,0,0,1-9.11672-8.26357q-1.71247-1.92338-3.35184-4.00112-1.54715-2.14778-3.01329-4.4606-2.9413-4.61989-5.62352-9.87248c5.62465,2.98152,11.46675,6.07841,17.29162,9.166.68986.8568,1.39885,1.69907,2.14308,2.53947,4.00871,4.50493,7.5,6.859,9.26744,7.49628a1.76741,1.76741,0,0,0,2.23381-.90929,14.94949,14.94949,0,0,0,1.18589-4.17678c.65275-4.42779.03112-10.32435-1.60431-17.04595-.14247-.71151-.32094-1.43812-.51965-2.26043a79.03843,79.03843,0,0,0-3.73427-11.43573c-.85558-1.96977-1.64443-4.12017-2.58437-6.34264-.93619-2.225-1.98411-4.5488-3.15576-7.00091a417.842,417.842,0,0,0-42.52606-68.42759,39.53589,39.53589,0,0,0,4.74245-10.01036q3.67635,4.49392,7.03475,9.08944,1.67874,2.29905,3.27611,4.62716,1.68322,2.2878,3.37771,4.591,3.30967,4.61749,6.2924,9.3696,3.254,4.64184,6.19116,9.43241a1.69835,1.69835,0,0,0,.17622.188,1.54935,1.54935,0,0,0,.21671.23086,1.84074,1.84074,0,0,0,2.83519-2.18554c-.01537-.04246-.01087-.08774-.02924-.12879l-4.22543-9.32293-3.759-9.51808-1.88513-4.75707c-.63813-1.58228-1.11054-3.22465-1.67667-4.833l-3.28436-9.69111c-1.091-3.23168-1.893-6.553-2.86369-9.82186l-1.40373-4.92007-.69586-2.46158-.56877-2.49467c-1.48658-6.65823-3.22437-13.263-4.25579-20.01724a1.6374,1.6374,0,0,0-.08061-.19815,1.602,1.602,0,0,0-.1451-.3574,1.53738,1.53738,0,0,0-.16121-.21286,1.6923,1.6923,0,0,0-.31719-.30829l-.14435-.087a1.82293,1.82293,0,0,0-.57514-.22167,1.96,1.96,0,0,0-.45741-.06965,1.833,1.833,0,0,0-1.71791,1.43054l-.021.11754a1.71215,1.71215,0,0,0-.05586.32421c.02137,6.26775.61525,15.53294-.99431,25.39651a70.74421,70.74421,0,0,1-2.47976,12.31l-.04837.20265c-1.63355,5.36182-3.50631,9.76712-6.07081,13.17736a22.55308,22.55308,0,0,1-2.72272,3.01909c-2.98742,2.71307-6.52972,3.76811-10.02891,2.827-3.41934-.92916-6.47236-3.58027-8.79428-6.97851a51.00629,51.00629,0,0,1-5.3-11.111c-.60026-1.76272-1.22526-3.5485-1.671-5.41169q-.64787-2.8-1.15065-5.73348a114.4722,114.4722,0,0,1-1.42509-12.30069c3.84674,4.66934,8.0448,9.67142,12.03064,14.64l.17959.80984a46.963,46.963,0,0,0,1.4401,4.68621c2.00736,5.68717,4.3364,9.19658,5.71763,10.46205a1.77036,1.77036,0,0,0,2.40478.03383,15.33475,15.33475,0,0,0,3.23412-4.36892,1.39988,1.39988,0,0,0,.07423-.15916,37.25572,37.25572,0,0,0,2.75834-7.32166c.3798-1.393.718-2.86425,1.01155-4.40277q.40886-2.29919.86046-4.837c.05624-.331.11173-.658.16722-.98456a78.66344,78.66344,0,0,0,.91182-11.96785c-.039-2.145.04236-4.432.03412-6.84916-.01088-2.41668-.08661-4.96881-.22721-7.68815a373.7014,373.7014,0,0,0-7.99944-56.95934c-.89045-4.82615-1.92787-9.6627-3.20862-14.49626,0,0-.47953-1.58453-1.07679-3.56-.51065-1.98636-1.12215-4.36574-1.52632-5.938a38.92617,38.92617,0,0,0,8.35149-7.143q1.1619,3.90382,2.15545,7.79407.47409,1.939.95082,3.88817c.28457,1.29406.59613,2.59009.96581,3.89015q2.07015,7.79092,3.46919,15.56489l.21446.8479s2.0321,8.99815,2.71,13.49183a1.62028,1.62028,0,0,0,.08736.23443,1.67427,1.67427,0,0,0,.117.31531,1.63182,1.63182,0,0,0,.26957.3528,1.46416,1.46416,0,0,0,.12335.12945,1.84221,1.84221,0,0,0,3.06015-1.34533c.00375-.05165.02887-.099.02775-.15147l-.33481-13.0422-.02362-.83272.3513-13.56747a338.64718,338.64718,0,0,1,7.10187-55.85508,1.52775,1.52775,0,0,0,.00412-.211,1.66138,1.66138,0,0,0,.00712-.38786,1.53888,1.53888,0,0,0-.06448-.25664,1.6783,1.6783,0,0,0-.171-.40736l-.099-.13338a1.809,1.809,0,0,0-.44391-.42432,1.72294,1.72294,0,0,0-2.54013.421l-.06562.10029a1.74361,1.74361,0,0,0-.17921.27623c-.53427,1.45677-1.29162,3.06512-1.90913,4.85286-.65612,1.77959-1.40672,3.68919-2.2668,5.6792-1.66693,3.98885-4.02522,8.25823-6.37076,12.56108a75.1531,75.1531,0,0,1-7.78835,11.251c-3.46432,4.27857-6.98526,7.52806-10.7289,9.55979a19.55894,19.55894,0,0,1-3.03016,1.37373c-3.79426,1.36782-7.46667.979-10.33561-1.243-2.81682-2.17354-4.48824-5.78193-5.43831-9.82111a29.52585,29.52585,0,0,1-.73036-6.22182c-.06673-2.08946-.00787-4.15409.11661-6.06593q.167-2.56887.4949-5.19565a43.65064,43.65064,0,0,1,.90845-5.302q1.23726-5.33919,3.10814-10.942c.92532,3.0699,1.86826,6.19932,2.81907,9.356q.68781,2.32872,1.37973,4.67355l1.55182,4.67272c-.126,1.09384-.22795,2.18863-.30369,3.30816-.37192,6.01758.33444,10.13811,1.21852,11.84609a1.82148,1.82148,0,0,0,2.25443.938,15.53707,15.53707,0,0,0,3.7249-2.123c3.6-2.67069,7.41492-7.26973,10.99172-13.18336.37456-.60813.73261-1.25235,1.14016-1.97952a83.35373,83.35373,0,0,0,5.54291-10.70715c.87283-1.98046,1.6508-4.09514,2.53676-6.334.93994-2.22753,1.87238-4.60325,2.81045-7.15622,8.65518-25.19208,14.47329-51.29476,18.28592-78.4552a40.41623,40.41623,0,0,0,10.53919-3.66847q-.65237,5.74242-1.60356,11.33188c-.55864,3.76408-1.05279,7.55777-1.74528,11.26139q-.50334,2.78538-1.08766,5.53636c-.3828,1.83714-.64713,3.72424-1.01906,5.5671q-1.06009,5.55248-2.45951,10.982a1.70919,1.70919,0,0,0-.01163.25524,1.14927,1.14927,0,0,0-.00637.31878,1.94917,1.94917,0,0,0,.17884.56679,1.89261,1.89261,0,0,0,1.26313,1.0408,1.79011,1.79011,0,0,0,2.11158-1.14568c.01913-.03984.05512-.068.072-.11l3.76126-9.51733,1.87464-4.7612,2.118-4.6594,4.2078-9.3308,4.65922-9.11615,2.32567-4.56033c.77272-1.52164,1.68717-2.96708,2.52138-4.45554l5.10013-8.88089c1.73178-2.9413,3.66641-5.76037,5.48105-8.6518,1.85851-2.864,3.61017-5.79975,5.66214-8.53437a1.55768,1.55768,0,0,0,.08511-.19571,1.59933,1.59933,0,0,0,.1541-.35421,1.50462,1.50462,0,0,0,.03861-.26329,1.66333,1.66333,0,0,0-.003-.44017c-.01425-.05839-.02662-.10723-.04012-.16215a1.77334,1.77334,0,0,0-.24708-.56146,1.72344,1.72344,0,0,0-2.509-.581l-.09973.06861a1.71863,1.71863,0,0,0-.27107.18728c-2.22557,2.20888-4.78032,5.1289-7.89708,8.14959-3.10552,3.02885-6.84316,6.12115-10.67567,9.18a72.1574,72.1574,0,0,1-10.59917,6.87794l-.17922.107a37.58432,37.58432,0,0,1-13.53823,5.065,22.88806,22.88806,0,0,1-4.08595.19515c-4.05146-.20593-7.29907-1.96518-9.08222-5.09254-3.51682-6.13689-.69737-15.95641,2.86894-22.73687q1.24062-2.50165,2.6736-4.99158a48.05714,48.05714,0,0,1,3.14151-4.92551,122.42475,122.42475,0,0,1,7.79135-9.63974c-.30219,2.97026-.61825,6.08318-.94219,9.27212-.31194,3.16317-.73711,6.30346-.93544,9.56073l-.41917.71545c-.81772,1.42219-1.59269,2.87232-2.31292,4.32459-2.67211,5.40007-3.57793,9.48968-3.38072,11.42515a1.81647,1.81647,0,0,0,1.69955,1.73741,14.62291,14.62291,0,0,0,5.273-.85624l.16646-.05933c4.4755-1.38077,9.7121-4.3125,15.05968-8.40146l.7836-.59547a92.38744,92.38744,0,0,0,9.18233-7.7772c1.56307-1.49774,3.10514-3.14657,4.77057-4.88811,1.72166-1.70367,3.49469-3.548,5.34158-5.55538A399.349,399.349,0,0,0,185.919,165.50559s.19758-.36743.51889-.96375c.31382-.60532.76673-1.424,1.3055-2.29793,1.05392-1.7884,2.31592-3.93054,3.15013-5.34626a38.63759,38.63759,0,0,0,10.928.83121,7.013,7.013,0,0,0-.74385,1.3756l-.78322,1.42266-1.59157,2.81514q-1.61011,2.79564-3.28923,5.50861c-1.14915,1.78034-2.22069,3.64466-3.30948,5.48855q-1.64612,2.75262-3.36384,5.42369c-1.86376,2.89744-3.84075,5.67452-5.652,8.61263-1.64855,2.55232-3.30236,5.08382-5.033,7.545l-.96431,1.34149a1.60882,1.60882,0,0,0-.10423.2272,1.63624,1.63624,0,0,0-.14022.305,1.6153,1.6153,0,0,0-.05924.43923,1.49688,1.49688,0,0,0-.0045.17847,1.84488,1.84488,0,0,0,3.11639,1.21438c.03937-.03374.09036-.0493.12673-.08717l9.4564-9.92524,9.92206-9.459a333.38814,333.38814,0,0,1,44.578-34.40553,1.59393,1.59393,0,0,0,.15072-.14884,1.66515,1.66515,0,0,0,.27782-.27407,1.59373,1.59373,0,0,0,.13347-.22927,1.68311,1.68311,0,0,0,.165-.413c.00862-.06.01575-.10929.02362-.16572a1.81415,1.81415,0,0,0-.01575-.6175,1.76535,1.76535,0,0,0-.1106-.44992,1.82685,1.82685,0,0,0-1.977-1.038l-.1166.02568a1.698,1.698,0,0,0-.31906.0718c-5.76263,2.4374-14.13062,6.48417-23.85359,8.80215a74.33332,74.33332,0,0,1-13.40513,2.5212q-2.0786.18445-4.03984.2049-1.91043.07986-3.7024-.01313a29.08158,29.08158,0,0,1-6.63845-1.074,19.53428,19.53428,0,0,1-3.10739-1.167c-3.64354-1.71211-5.964-4.58611-6.4255-8.194-.451-3.52787.886-7.303,3.0939-10.8037a50.93719,50.93719,0,0,1,8.26376-9.11672q1.92337-1.71247,4.00122-3.352c1.43184-1.03142,2.92105-2.03154,4.4605-3.01291q4.62-2.9413,9.87257-5.62371c-2.98179,5.62465-6.07869,11.46694-9.16621,17.29162-.85671.68986-1.69917,1.39885-2.53938,2.14308-4.50512,4.00853-6.85928,7.50022-7.49628,9.26744a1.76712,1.76712,0,0,0,.90919,2.23381,14.94993,14.94993,0,0,0,4.17669,1.18571c4.42788.65312,10.32435.03149,17.046-1.60413.71161-.14247,1.43822-.32075,2.26043-.51983a79.00494,79.00494,0,0,0,11.43564-3.73409c1.96987-.85539,4.12045-1.64442,6.34264-2.58455,2.22519-.93619,4.549-1.98411,7.001-3.15539A417.8422,417.8422,0,0,0,309.111,89.67928a39.54427,39.54427,0,0,0,10.01054,4.74245q-4.49406,3.67635-9.08935,7.03494-2.29961,1.67846-4.62734,3.27573-2.28782,1.68324-4.591,3.37772-4.61723,3.30994-9.36942,6.29277-4.642,3.254-9.43241,6.191a1.67459,1.67459,0,0,0-.18821.17621,1.56891,1.56891,0,0,0-.231.21671,1.88985,1.88985,0,0,0-.13384,2.12115,1.80461,1.80461,0,0,0,2.31967.71405c.04236-.01556.08736-.01069.1286-.02925l9.32292-4.22561,9.51827-3.75883,4.75707-1.88513c1.58219-.63813,3.22437-1.11072,4.83281-1.67648l9.6911-3.28455c3.23187-1.091,6.553-1.893,9.822-2.86369l4.92016-1.40354,2.46139-.69586,2.49477-.56914c6.65832-1.48621,13.263-3.22418,20.01733-4.25561a997.62138,997.62138,0,0,0,.55527-.2257,1.51373,1.51373,0,0,0,.213-.16141,1.685,1.685,0,0,0,.30819-.317l.087-.14435a1.816,1.816,0,0,0,.22158-.57513,1.94024,1.94024,0,0,0,.06974-.45723,1.83344,1.83344,0,0,0-1.43035-1.7181l-.11772-.02081a1.66747,1.66747,0,0,0-.32394-.05586c-6.268.02118-15.53321.61488-25.39679-.99431a70.74733,70.74733,0,0,1-12.31-2.48l-.20246-.04837c-5.36182-1.63336-9.76721-3.50631-13.17755-6.07081a22.55713,22.55713,0,0,1-3.0189-2.7229c-2.713-2.98723-3.768-6.52935-2.827-10.02892.92907-3.419,3.58017-6.47217,6.97851-8.79428a51.011,51.011,0,0,1,11.111-5.29978c1.76253-.60044,3.54831-1.22544,5.41169-1.671q2.80014-.64788,5.73338-1.15047a114.4326,114.4326,0,0,1,12.3006-1.42528c-4.66934,3.84693-9.67124,8.0448-14.63976,12.03065l-.80985.17977a46.82912,46.82912,0,0,0-4.68621,1.4401c-5.68726,2.00717-9.19657,4.33621-10.46233,5.71744a1.77,1.77,0,0,0-.03374,2.4046,15.34444,15.34444,0,0,0,4.369,3.23449,1.43538,1.43538,0,0,0,.159.07386,37.25157,37.25157,0,0,0,7.32195,2.75852c1.39285.3798,2.86406.718,4.40276,1.01155q2.29905.40887,4.83693.86027c.33106.05643.658.11192.98456.1676a78.75893,78.75893,0,0,0,11.96766.91182c2.14533-.039,4.432.04218,6.84916.03393,2.41678-.01087,4.9689-.08661,7.68825-.22721a373.698,373.698,0,0,0,56.95924-7.99943c4.82643-.89064,9.663-1.92788,14.49654-3.20881,0,0,1.58444-.47916,3.55993-1.07661,1.98636-.51046,4.36565-1.12215,5.93809-1.52613a38.92767,38.92767,0,0,0,7.14273,8.35149q-3.90355,1.1619-7.794,2.15526-1.93913.47437-3.888.951c-1.29425.28438-2.59037.59575-3.89024.96562q-7.79079,2.06988-15.56508,3.4692l-.84771.21464s-8.99824,2.0321-13.49174,2.70978a1.62919,1.62919,0,0,0-.2347.08736,1.66361,1.66361,0,0,0-.31532.117,1.64448,1.64448,0,0,0-.3528.26938,1.49332,1.49332,0,0,0-.12935.12354,1.84228,1.84228,0,0,0,1.34523,3.06034c.05174.00356.099.02868.15147.02737l13.04221-.33481.83271-.02343,13.56747.35112a338.66519,338.66519,0,0,1,55.85508,7.102,1.55965,1.55965,0,0,0,.21109.00393,1.64261,1.64261,0,0,0,.38805.00732,1.53823,1.53823,0,0,0,.25645-.06449,1.69537,1.69537,0,0,0,.40754-.17078l.1331-.09936a1.79973,1.79973,0,0,0,.42442-.44372,1.7234,1.7234,0,0,0-.421-2.54032l-.1001-.06561a1.73414,1.73414,0,0,0-.27632-.179c-1.45659-.53408-3.065-1.29181-4.85268-1.90894-1.77978-.65612-3.68928-1.40691-5.67939-2.26718-3.98884-1.66674-8.25813-4.02484-12.56117-6.37057a75.1281,75.1281,0,0,1-11.2508-7.78835c-4.27866-3.46432-7.52815-6.98507-9.55988-10.72909a19.554,19.554,0,0,1-1.37373-3.02978c-1.36773-3.79445-.97894-7.46686,1.24288-10.33579,2.17383-2.81683,5.78212-4.48825,9.82121-5.4385a29.53913,29.53913,0,0,1,6.2219-.73017c2.08947-.06674,4.15419-.00769,6.06594.1166q2.569.16674,5.19536.49471a43.75934,43.75934,0,0,1,5.30222.90864q5.33933,1.237,10.94186,3.10833c-3.0699.92494-6.199,1.86788-9.35592,2.81907q-2.32886.68724-4.67346,1.37936l-4.67272,1.552c-1.094-.126-2.18882-.22777-3.30835-.30369-6.01757-.37193-10.138.33443-11.84581,1.2187a1.82083,1.82083,0,0,0-.93807,2.25406,15.54247,15.54247,0,0,0,2.12284,3.72508c2.671,3.59986,7.26983,7.41493,13.18355,10.99191.60813.37437,1.25225.73261,1.97961,1.14a83.36621,83.36621,0,0,0,10.70678,5.5431c1.98074.87264,4.09533,1.65062,6.334,2.53676,2.22782.93975,4.60336,1.87219,7.15661,2.81026,25.19207,8.65518,51.29447,14.4733,78.45491,18.28574a40.42072,40.42072,0,0,0,3.66866,10.53956q-5.74257-.65265-11.33179-1.60375c-3.76426-.55845-7.55777-1.05279-11.26167-1.74528q-2.785-.50334-5.53617-1.08766c-1.83714-.383-3.72414-.64713-5.56728-1.01924q-5.55249-1.05954-10.982-2.45914a1.63418,1.63418,0,0,0-.255-.01163,1.15914,1.15914,0,0,0-.31907-.00675,1.942,1.942,0,0,0-.56651.179,1.89239,1.89239,0,0,0-1.0408,1.26313,1.79,1.79,0,0,0,1.1454,2.11159c.04012.01931.06824.0553.11023.072l9.51714,3.76145,4.7612,1.87445,4.65959,2.11777,9.3308,4.208,9.116,4.65922,4.5606,2.32586c1.52146.77272,2.9668,1.687,4.45526,2.52138l8.88089,5.09975c2.9413,1.732,5.76037,3.66679,8.65181,5.48143,2.86406,1.85851,5.79974,3.61,8.53445,5.66214a1.55782,1.55782,0,0,0,.19572.08511,1.62426,1.62426,0,0,0,.3543.15391,1.48417,1.48417,0,0,0,.2632.03862,1.67171,1.67171,0,0,0,.44016-.00281l.16235-.04031a1.77612,1.77612,0,0,0,.56126-.24708,1.72311,1.72311,0,0,0,.58114-2.50919l-.06861-.09955a1.70455,1.70455,0,0,0-.18747-.27088c-2.20869-2.22575-5.12862-4.78032-8.1494-7.89746-3.029-3.10514-6.12106-6.843-9.18008-10.67547a72.15159,72.15159,0,0,1-6.878-10.59918l-.10685-.17922a37.57582,37.57582,0,0,1-5.06488-13.53841,22.8676,22.8676,0,0,1-.19534-4.086c.20583-4.05127,1.96536-7.2987,5.09263-9.08223,6.1368-3.51681,15.9565-.69717,22.73668,2.86913q2.50207,1.2409,4.99177,2.67341a48.06957,48.06957,0,0,1,4.92542,3.1417,122.35357,122.35357,0,0,1,9.63974,7.79117c-2.97017-.30182-6.08319-.61807-9.27194-.94219-3.16326-.31176-6.30364-.73674-9.561-.93507l-.71536-.41936c-1.42209-.81753-2.87231-1.5925-4.3244-2.31273-5.40045-2.67229-9.48977-3.57793-11.42514-3.38072a1.8167,1.8167,0,0,0-1.73779,1.69917,14.63,14.63,0,0,0,.85633,5.27335l.05962.16628c1.38048,4.47568,4.3124,9.71191,8.40135,15.05968l.59539.78359a92.38039,92.38039,0,0,0,7.7771,9.18233c1.49784,1.56307,3.14676,3.10533,4.8883,4.77057,1.70366,1.72185,3.54793,3.49469,5.55529,5.34158a399.33893,399.33893,0,0,0,58.48482,42.5375s.36705.198.96356.51909c.6055.31362,1.424.76691,2.29792,1.30549,1.7884,1.05373,3.93073,2.31611,5.34646,3.15032a38.62707,38.62707,0,0,0-.83159,10.92762,7.03444,7.03444,0,0,0-1.37523-.74367l-1.42285-.783-2.81495-1.59194q-2.7962-1.60956-5.5088-3.28886c-1.78015-1.14915-3.64466-2.22069-5.48855-3.30985q-2.75233-1.64556-5.42369-3.36366c-2.89743-1.86376-5.67451-3.84094-8.61244-5.652-2.5525-1.64836-5.084-3.30235-7.545-5.033l-1.34149-.96449a1.62765,1.62765,0,0,0-.22721-.10405,1.65754,1.65754,0,0,0-.30519-.14041,1.63063,1.63063,0,0,0-.439-.05905,1.49743,1.49743,0,0,0-.17846-.00431,1.84477,1.84477,0,0,0-1.21477,3.11639c.03412.039.0495.09036.08736.12654l9.92506,9.4564,9.4594,9.92225a333.40032,333.40032,0,0,1,34.40553,44.57766,1.548,1.548,0,0,0,.14847.15082,1.695,1.695,0,0,0,.27407.27791,1.60516,1.60516,0,0,0,.22946.13347,1.69532,1.69532,0,0,0,.41279.16516l.16572.02343a1.81817,1.81817,0,0,0,.61788-.01556,1.78376,1.78376,0,0,0,.44953-.1106,1.82694,1.82694,0,0,0,1.03818-1.97718l-.02587-.1166a1.68513,1.68513,0,0,0-.07161-.31906c-2.4374-5.76272-6.484-14.13052-8.80216-23.85359a74.333,74.333,0,0,1-2.521-13.40513q-.18446-2.07859-.20508-4.03965-.07986-1.91072.01312-3.70259a29.08059,29.08059,0,0,1,1.07379-6.63826,19.54067,19.54067,0,0,1,1.16715-3.10758c1.71229-3.64335,4.5861-5.964,8.194-6.4255,3.52806-.45084,7.3032.88614,10.80389,3.09409a50.90679,50.90679,0,0,1,9.11634,8.26357q1.71249,1.92338,3.35222,4.001,1.54715,2.14778,3.01291,4.46069,2.94131,4.61976,5.6239,9.87238c-5.625-2.98141-11.46713-6.07831-17.29162-9.166-.68986-.8567-1.39885-1.699-2.14345-2.53938-4.00834-4.50493-7.5-6.85909-9.26706-7.49628a1.76708,1.76708,0,0,0-2.23382.9092,14.93858,14.93858,0,0,0-1.18589,4.17687c-.65312,4.42769-.0315,10.32435,1.60431,17.04585.14247.71161.32056,1.43822.51965,2.26044a78.99278,78.99278,0,0,0,3.73427,11.43582c.85521,1.96978,1.64443,4.12007,2.58437,6.34264.93619,2.225,1.98411,4.5488,3.15538,7.00091a417.82239,417.82239,0,0,0,42.52644,68.4276,39.535,39.535,0,0,0-4.74245,10.01026q-3.67634-4.49378-7.03512-9.08935-1.67817-2.29919-3.27574-4.62716-1.68323-2.2878-3.37771-4.591-3.30968-4.6175-6.29277-9.3696-3.254-4.64182-6.19079-9.4325a1.71538,1.71538,0,0,0-.17622-.188,1.5509,1.5509,0,0,0-.21708-.23077,1.88773,1.88773,0,0,0-2.121-.13413,1.8052,1.8052,0,0,0-.71424,2.31968c.01575.04246.01088.08764.02962.12878l4.22543,9.32293,3.759,9.51808,1.88513,4.75707c.63775,1.58219,1.11054,3.22456,1.6763,4.833l3.28436,9.69111c1.09141,3.23158,1.89338,6.55287,2.86406,9.82186l1.40335,4.92.69587,2.46168.56914,2.49457c1.48621,6.65833,3.22437,13.26313,4.25579,20.01734a1.57166,1.57166,0,0,0,.08023.19806,1.59955,1.59955,0,0,0,.14548.3574,1.49849,1.49849,0,0,0,.16121.21286,1.68444,1.68444,0,0,0,.31719.30838c.05137.03112.09561.05764.14435.087a1.82154,1.82154,0,0,0,.57514.22158,1.95465,1.95465,0,0,0,.457.06974,1.8339,1.8339,0,0,0,1.71829-1.43053l.02062-.11754a1.65578,1.65578,0,0,0,.05587-.32432c-.021-6.26765-.61488-15.53283.9943-25.39641a70.74469,70.74469,0,0,1,2.48014-12.31006l.048-.20265c1.63356-5.36173,3.50632-9.76712,6.07119-13.17727a22.54913,22.54913,0,0,1,2.72272-3.01919c2.98742-2.713,6.52935-3.7681,10.02891-2.82694,3.419.92925,6.47236,3.58027,8.79429,6.97851a51.00867,51.00867,0,0,1,5.3,11.111c.60026,1.76281,1.22526,3.54859,1.67105,5.41169q.64731,2.80014,1.15027,5.73357a114.37189,114.37189,0,0,1,1.42547,12.3006c-3.84712-4.66934-8.0448-9.67133-12.031-14.64l-.17959-.80984a46.87065,46.87065,0,0,0-1.44009-4.68621c-2.00736-5.68708-4.336-9.19648-5.71726-10.462a1.77029,1.77029,0,0,0-2.40478-.03393,15.343,15.343,0,0,0-3.23449,4.369,1.46492,1.46492,0,0,0-.07386.15915,37.2531,37.2531,0,0,0-2.75871,7.32166c-.3798,1.39286-.71761,2.86416-1.01118,4.40277q-.40886,2.29918-.86046,4.837c-.05624.33087-.1121.6579-.16759.98456a78.75648,78.75648,0,0,0-.91182,11.96785c.039,2.14495-.042,4.432-.03375,6.84916.0105,2.41668.08661,4.96872.22683,7.68806a373.748,373.748,0,0,0,7.99944,56.95933C765.15382,425.663,766.19086,430.49948,767.472,435.333Z"/><path class="cls-1" d="M809.67149,259.75682a421.39062,421.39062,0,1,0,32.00225,161.08A421.84113,421.84113,0,0,0,809.67149,259.75682Zm-3.4272,320.73884a417.67757,417.67757,0,1,1,31.71955-159.65889A418.128,418.128,0,0,1,806.24429,580.49566Z"/><path class="cls-1" d="M645.695,195.97869A317.49,317.49,0,1,0,714.67518,299.1484,318.97085,318.97085,0,0,0,645.695,195.97869Zm65.55331,345.12539a314.83992,314.83992,0,1,1,23.87609-120.26731A315.26485,315.26485,0,0,1,711.24835,541.10408Z"/></g></g></svg>