<svg xmlns="http://www.w3.org/2000/svg" viewBox="0 0 670.84121 1180.26139"><defs><style>.cls-1{fill:#24373e;}</style></defs><g id="Слой_2" data-name="Слой 2"><g id="Слой_1-2" data-name="Слой 1"><path class="cls-1" d="M665.69153,217.67132a33.10785,33.10785,0,0,1,3.36014,12.73816,34.52894,34.52894,0,0,1-2.25314,12.69832,47.28836,47.28836,0,0,1-6.518,11.054,57.42059,57.42059,0,0,1-9.15949,8.93189,56.09536,56.09536,0,0,1-10.799,6.60026l-1.41334.67828-1.45914.55779c-.98485.361-1.90385.76966-2.92974,1.09365-2.0699.62125-4.08827,1.33365-6.1973,1.83943a174.05894,174.05894,0,0,1-25.67482,4.59669c-11.34487,1.31719-22.92831,1.9988-34.715,3.15448,6.10092-10.047,9.00059-22.52535,5.21913-34.30873a33.3776,33.3776,0,0,0-13.32315-17.67625,31.88481,31.88481,0,0,0-20.35071-4.85792,39.28236,39.28236,0,0,0-18.27222,6.75319A40.46347,40.46347,0,0,0,508.5306,245.082a38.66279,38.66279,0,0,1,14.412-10.37887,33.83367,33.83367,0,0,1,16.5659-2.68758,22.75285,22.75285,0,0,1,13.69248,6.22593,20.75162,20.75162,0,0,1,5.87761,12.50722,32.50925,32.50925,0,0,1-1.77216,13.7464,33.242,33.242,0,0,1-8.001,11.83872,48.4333,48.4333,0,0,1-21.38995,11.59871c-1.317.27556-2.63391.56567-3.9499.85459-.53012.09256-1.05833.21114-1.58893.28629l.011.05487c-9.17237,2.04987-18.32279,4.42372-27.41978,7.22224q-13.34844,4.09329-26.44113,9.54742c-2.18919.8813-4.3364,1.88142-6.50936,2.82572l-6.3395,2.96409c-4.24383,1.93487-8.36169,4.13742-12.54635,6.22856a338.86333,338.86333,0,0,0-47.6784,30.25075q-6.74007,5.13717-13.23726,10.65728l.28343-.904.85411-2.24311,1.68627-4.50436c4.79828-11.98258,12.08255-23.60778,20.57211-34.8658a357.24444,357.24444,0,0,1,28.79828-32.83741c20.85555-21.47012,44.07778-42.27222,65.066-66.52989,5.00012-5.80723,9.87571-11.83633,14.47549-18.14458,9.59848-3.92485,18.78516-7.96827,28.03054-11.24919a138.68913,138.68913,0,0,1,17.88381-5.22248,82.3737,82.3737,0,0,1,18.13-1.806,62.44937,62.44937,0,0,1,17.90767,2.97316c5.63331,1.94393,11.04617,5.03352,14.79757,9.561a20.186,20.186,0,0,1,2.42968,3.64,13.02444,13.02444,0,0,1,1.41524,3.98974,10.53158,10.53158,0,0,1-1.61469,8.10426c-1.67959,2.37481-4.54062,3.90982-7.58583,4.794a44.44337,44.44337,0,0,1-9.60229,1.45795,45.05757,45.05757,0,0,0,9.88954-.14959,15.84918,15.84918,0,0,0,9.33985-4.36765,13.86731,13.86731,0,0,0,3.571-10.2424,17.339,17.339,0,0,0-1.10414-5.43361,25.22717,25.22717,0,0,0-2.36192-4.88346c-3.85161-6.18823-9.72349-10.65489-16.01718-13.86091a71.59471,71.59471,0,0,0-20.03579-6.24883,94.32623,94.32623,0,0,0-20.95765-.80091,152.98035,152.98035,0,0,0-20.4032,3.013c-2.79423.58285-5.54456,1.23536-8.28439,1.89765a138.06335,138.06335,0,0,0,13.80365-40.50579c4.77872-12.58237,10.42921-24.68782,17.80127-35.61279,8.70237-12.63342,19.5844-24.42252,33.02684-31.36562a49.297,49.297,0,0,1,21.66-5.7984,56.003,56.003,0,0,1,22.50173,4.412,24.1399,24.1399,0,0,1,8.94286,6.673,14.75851,14.75851,0,0,1,3.35155,10.35835,15.6443,15.6443,0,0,1-4.77634,10.261c-2.78086,2.73435-6.50554,4.98414-10.63676,4.81857,4.11308.57091,8.22522-1.3463,11.42312-3.94943A17.50948,17.50948,0,0,0,652.606,75.82233a18.99791,18.99791,0,0,0-2.62722-6.1002,28.17048,28.17048,0,0,0-9.649-8.79423,61.69748,61.69748,0,0,0-24.50579-7.28,57.50815,57.50815,0,0,0-25.66241,4.27914,86.96652,86.96652,0,0,0-22.2288,13.33556,134.37919,134.37919,0,0,0-18.18824,18.12573c-2.08327,2.52606-4.04247,5.13181-5.94251,7.77287-.20231-1.70655-.57831-3.38208-.8312-5.07574l-1.0612-6.08208c-.39508-2.02743-.91518-4.14791-1.47823-6.18251a88.32934,88.32934,0,0,0-26.213-42.73148A75.89248,75.89248,0,0,0,492.835,23.71449a82.29006,82.29006,0,0,0-24.146-5.65478,83.56941,83.56941,0,0,0-24.39795,1.76691,74.2644,74.2644,0,0,0-22.52368,9.14232c-6.852,4.30776-13.22677,10.06036-16.98962,17.54312l-1.357,2.78731c-.38173.95837-.68806,1.94966-1.02971,2.92l-.49528,1.46058c-.1317.496-.22331,1.00346-.335,1.50352l-.626,3.00465a46.25434,46.25434,0,0,0-.01431,12.05392c.99916,7.91841,3.80484,15.30049,7.0495,22.30419a189.38545,189.38545,0,0,0,11.42885,20.062,188.711,188.711,0,0,1-9.7359-20.78588c-2.63676-7.12179-4.74674-14.49982-5.07312-21.90648a42.15262,42.15262,0,0,1,.86938-10.87486l.76345-2.579c.13169-.42658.24144-.86008.38936-1.27973l.53632-1.2251c.3655-.81141.68711-1.63856,1.07742-2.43207l1.357-2.28653c3.656-6.04557,9.49732-10.55923,15.8559-13.88238,25.84183-13.22963,59.91364-7.75952,78.63343,12.41751a71.81149,71.81149,0,0,1,18.445,36.32471c.32256,1.69438.59168,3.336.78636,5.09579l.48288,5.32267c.11547,1.77121.43516,3.53573.39127,5.3024l.02194,5.2857a106.96237,106.96237,0,0,1-2.192,20.747c-2.88393,13.552-8.76059,26.26769-16.41322,38.05965-7.63927,11.82393-17.26542,22.65537-27.69987,32.96266-5.65764,5.58249-11.56531,10.99941-17.62233,16.34952a67.7899,67.7899,0,0,0-2.35047-9.2511,70.42,70.42,0,0,0-5.95587-13.28451,64.68407,64.68407,0,0,0-8.75581-11.60348,54.49116,54.49116,0,0,0-24.45807-15.02374,52.437,52.437,0,0,0-13.99786-2.037c-1.16521.01-2.32947-.03579-3.48324.03125l-3.44507.2727a44.46768,44.46768,0,0,0-7.01419,1.25945,32.70133,32.70133,0,0,0-12.868,6.758,23.41644,23.41644,0,0,0-7.41214,12.647,26.895,26.895,0,0,0,.94954,13.86544,48.82233,48.82233,0,0,0,5.82035,11.70369c4.66754,7.14923,10.2789,13.28116,14.28033,20.65609-2.98032-7.843-7.85113-14.90755-11.362-22.298a44.67333,44.67333,0,0,1-3.86879-11.29524,20.97506,20.97506,0,0,1,.64416-10.8763,15.84038,15.84038,0,0,1,6.16963-7.85876,23.63382,23.63382,0,0,1,9.73685-3.47561,34.12814,34.12814,0,0,1,5.39759-.21281l2.81141.15484c.93045.06943,1.84659.2443,2.76369.35524a39.8617,39.8617,0,0,1,10.44113,2.98843c13.15615,5.72349,21.81081,18.71645,24.19182,32.44758a47.15745,47.15745,0,0,1-.61267,20.24287,37.53963,37.53963,0,0,1-1.27115,4.006c-9.10461,7.60706-18.35,15.29261-27.53,23.3179a395.52786,395.52786,0,0,0-34.694,33.75642,223.26343,223.26343,0,0,0-20.5263,26.6246c-2.4292-5.73327-5.2177-11.15329-8.01241-16.32042-2.93928-5.42956-5.87093-10.33067-8.92568-15.30645-12.12931-19.79983-24.75486-38.69116-36.52726-57.6889-.98724-1.59322-1.95968-3.18907-2.93451-4.78444a47.42785,47.42785,0,0,1,2.09662-10.02076c2.9202-9.24132,8.39891-18.5566,14.71168-27.78671,6.30228-9.27735,13.4539-18.517,20.13218-28.63558a152.60093,152.60093,0,0,0,9.358-16.03006A88.88064,88.88064,0,0,0,350.1033,122.415a64.081,64.081,0,0,0,1.51163-19.51926,42.22461,42.22461,0,0,0-.70429-5.11178,39.22452,39.22452,0,0,0-1.38757-4.99105,43.645,43.645,0,0,0-4.39365-9.03018,51.26716,51.26716,0,0,0-13.24013-13.99452,47.68483,47.68483,0,0,0-17.19385-7.96039,33.51108,33.51108,0,0,0-18.86675.86413A31.0931,31.0931,0,0,0,281.31742,73.8951a27.05078,27.05078,0,0,0-4.25242,8.04151,16.9609,16.9609,0,0,0-.2987,9.05094,14.33047,14.33047,0,0,0,12.81832,10.72051,13.6512,13.6512,0,0,1-11.48324-11.00752,15.25835,15.25835,0,0,1,.90564-8.10736,18.58511,18.58511,0,0,1,1.89145-3.6376,31.83436,31.83436,0,0,1,2.6444-3.23918,27.12891,27.12891,0,0,1,13.72206-8.27722,27.48871,27.48871,0,0,1,15.48563,1.17905,41.41122,41.41122,0,0,1,22.53417,20.6704,31.79516,31.79516,0,0,1,2.39342,6.96553,26.64875,26.64875,0,0,1,.51724,3.49851,29.80308,29.80308,0,0,1,.0334,3.55768A49.79158,49.79158,0,0,1,335.19694,118.18a74.27906,74.27906,0,0,1-6.91972,14.0284,134.84374,134.84374,0,0,1-9.25779,13.37969c-6.79756,8.799-14.54849,17.39879-22.04652,26.79614a156.09684,156.09684,0,0,0-15.54766,22.74532c-4.46332-8.356-8.62984-16.80783-12.33162-25.42789-8.59358-19.938-14.75272-40.82191-17.28546-62.34785a148.69312,148.69312,0,0,1-.51628-32.09544,92.50909,92.50909,0,0,1,8.0334-30.42443,71.43806,71.43806,0,0,1,8.18895-13.37135,73.999,73.999,0,0,1,5.16092-5.89908A57.01075,57.01075,0,0,1,278.59,20.47055,80.39034,80.39034,0,0,1,307.874,7.10087a68.12274,68.12274,0,0,1,16.2214-1.88047,43.92666,43.92666,0,0,1,15.938,2.9388,28.592,28.592,0,0,1,12.75916,9.8924,34.84261,34.84261,0,0,1,5.83848,15.613,35.65339,35.65339,0,0,0-4.47668-16.48837A31.03044,31.03044,0,0,0,341.4,5.22421,47.93593,47.93593,0,0,0,324.39221.373a73.7539,73.7539,0,0,0-17.67482.35691A88.38974,88.38974,0,0,0,273.1695,12.41114,67.06447,67.06447,0,0,0,265.639,17.7405a81.05622,81.05622,0,0,0-17.72063,20.9629A106.95081,106.95081,0,0,0,235.289,72.81863c-.54253,2.72743-.99058,5.46487-1.36991,8.20661l-2.33091-5.337a157.7271,157.7271,0,0,0-7.40737-14.89371,76.20993,76.20993,0,0,0-10.28749-14.04032,54.37117,54.37117,0,0,0-14.058-10.85292,66.33518,66.33518,0,0,0-16.17082-6.053,63.14543,63.14543,0,0,0-17.05738-1.64428,47.96581,47.96581,0,0,0-16.86556,3.77073l-1.99547.89181c-.6537.32184-1.28069.70738-1.91912,1.05952-.6308.36932-1.27878.7019-1.88859,1.10366l-1.78933,1.26781a29.913,29.913,0,0,0-6.40535,6.09686,32.91067,32.91067,0,0,0-6.53894,15.90719,35.96648,35.96648,0,0,0-.1756,8.50961,26.61149,26.61149,0,0,0,2.32852,8.2455,24.524,24.524,0,0,0,11.64834,11.84611c10.03841,4.80043,22.61816,2.85006,30.13051-4.67517-8.11739,6.85936-20.30682,7.37731-28.87463,2.309a21.166,21.166,0,0,1-9.20053-11.03854,22.27153,22.27153,0,0,1-1.358-7.0433,31.216,31.216,0,0,1,.77777-7.21985,26.84517,26.84517,0,0,1,6.38053-12.521,22.88761,22.88761,0,0,1,5.3995-4.30371l1.51449-.8961c.51438-.28081,1.06788-.4972,1.59657-.75033.53728-.23715,1.05547-.50793,1.60324-.721l1.672-.575c8.95717-3.01753,19.06716-2.2474,28.18466.71526a54.98717,54.98717,0,0,1,12.887,6.10641A41.60609,41.60609,0,0,1,203.81675,55.579c5.77264,7.25278,9.4935,16.32876,12.82692,26.02577l2.51365,7.41381,2.38483,7.363,4.5807,15.01992c2.72409,9.01921,5.60468,18.21377,9.09126,27.40261a265.57523,265.57523,0,0,0,9.60945,39.94179c7.25754,22.606,17.03352,44.04676,27.2752,64.74245.33258.67184.67422,1.32984,1.00823,2.00024.06728.31182.12454.627.19611.9369l.24383-.06394c9.82417,19.67959,20.0501,38.78874,29.35226,57.84063l3.62161,7.47132,1.79888,3.67839,1.6815,3.58655a145.3603,145.3603,0,0,1,5.69247,13.9561,120.99613,120.99613,0,0,1,6.13242,28.41513,196.30965,196.30965,0,0,1,.71573,25.86663c-2.15388-3.89979-4.33973-7.781-6.59239-11.62257A473.10709,473.10709,0,0,0,274.13717,315.192l-5.88429-7.03806-6.03316-6.90588-6.38531-6.89872L249.26683,287.74c-8.86174-8.63009-18.08994-16.54515-27.37922-24.09711-1.66623-1.353-3.3358-2.68352-5.00489-4.01622a89.61437,89.61437,0,0,0-4.17655-42.44829,80.668,80.668,0,0,0-11.7075-21.71991,74.581,74.581,0,0,0-17.294-16.4669A72.00087,72.00087,0,0,1,202.288,219.68444a74.38483,74.38483,0,0,1-1.87666,27.00227c-11.41262-8.87367-22.68591-17.61279-33.42622-26.84528l-6.47119-5.68675-6.31183-5.8318-6.00071-5.95706c-1.88-2.08636-3.844-4.12525-5.67912-6.26554a140.63712,140.63712,0,0,1-18.97841-28.00262c-5.08743-10.08947-8.88941-20.99153-10.01741-32.37672a73.105,73.105,0,0,1,4.38125-34.10569,75.32,75.32,0,0,0-8.731,34.29631c-.2987,12.09162,2.27317,24.17608,6.35859,35.60254a151.4602,151.4602,0,0,0,16.57354,32.46809c1.68531,2.543,3.5071,4.9858,5.26685,7.49183,1.86472,2.4063,3.74758,4.83693,5.65334,7.20744l4.15031,4.91566a109.44849,109.44849,0,0,0-16.71574-2.11237,90.91313,90.91313,0,0,0-9.34558-.03626c-1.54885-.01193-3.1206.27675-4.66945.40439a42.64674,42.64674,0,0,0-4.638.61529l-4.59406.93618a46.50808,46.50808,0,0,0-4.50244,1.31528,59.68707,59.68707,0,0,0-8.648,3.524,20.784,20.784,0,0,0-7.57438,6.32542,14.18828,14.18828,0,0,0-2.57855,9.458,15.8852,15.8852,0,0,0,3.698,8.54873,21.3987,21.3987,0,0,0,7.05523,5.48253,20.71627,20.71627,0,0,1-5.96159-6.256,13.86733,13.86733,0,0,1-2.11284-7.85065,10.79871,10.79871,0,0,1,3.03948-6.87439,16.187,16.187,0,0,1,6.56853-3.91864c10.66635-3.44483,22.0742-3.368,32.97531-1.03567a105.43588,105.43588,0,0,1,16.042,4.66468,126.031,126.031,0,0,1,15.12108,7.06287,117.65481,117.65481,0,0,1,13.87475,8.89037c.21233.16009.41274.32876.62317.49028,9.92055,10.0062,19.895,19.75307,29.3785,29.645,7.97137,8.30752,15.60015,16.721,22.54659,25.4088l5.07694,6.56543,3.33771,4.64846c-.324-.07158-.64941-.15126-.97293-.22188-17.50018-3.885-34.68448-6.48956-51.40976-9.58607-8.35214-1.55171-16.62126-3.16832-24.71382-5.10366-8.26435-1.97256-16.52774-4.08637-24.68329-6.34809A395.07882,395.07882,0,0,1,85.57173,281.991c-15.39879-6.52511-30.24312-14.34331-43.27044-24.43374-12.98246-10.047-24.00668-22.70452-30.19635-37.87808A77.09933,77.09933,0,0,1,6.5413,195.81566a62.26043,62.26043,0,0,1,17.10223-45.588A56.97258,56.97258,0,0,1,44.97337,136.394a58.07387,58.07387,0,0,0-22.83288,12.25886,67.186,67.186,0,0,0-15.77764,21.143A68.856,68.856,0,0,0,.01094,195.85312a84.548,84.548,0,0,0,3.89932,26.767A92.2765,92.2765,0,0,0,15.93651,247.057,120.39776,120.39776,0,0,0,33.83559,267.5017C47.16352,279.74552,62.3972,289.44038,78.109,297.72381a414.23575,414.23575,0,0,0,48.57355,21.22009c8.25289,3.05571,16.50769,5.9239,24.83407,8.66945,8.49529,2.80377,17.00394,5.22057,25.45914,7.541,16.8961,4.6141,33.59562,8.62317,49.44865,13.58559a232.11066,232.11066,0,0,1,34.94692,13.62281q8.56233,16.152,15.78433,32.94191,6.6549,15.4645,12.21615,31.34964l.51056,1.49779A129.1289,129.1289,0,0,0,266.266,419.1739a126.81192,126.81192,0,0,0-30.00072-4.34117,162.30807,162.30807,0,0,0-29.01014,1.98879c-2.62961.40749-5.22295.86842-7.79625,1.35751-3.65693-.03722-7.29715-.14267-10.90255-.42467-9.88763-.79828-19.64738-2.57831-28.28295-6.66587a40.53436,40.53436,0,0,1-11.63784-8.13647,25.41314,25.41314,0,0,1-4.25242-5.54551,15.85384,15.85384,0,0,1,3.85638-19.02922,13.78668,13.78668,0,0,1,6.75176-2.941,19.06805,19.06805,0,0,1,7.75.58786,19.72676,19.72676,0,0,0-7.832-1.87952,15.74974,15.74974,0,0,0-8.11738,2.08708,19.42089,19.42089,0,0,0-9.20721,14.387,21.52216,21.52216,0,0,0,.75964,9.112,44.6521,44.6521,0,0,0,3.76953,8.11762,50.48819,50.48819,0,0,0,11.68651,13.20458,73.27473,73.27473,0,0,0,9.02445,6.14577q-4.15339,1.15591-8.26864,2.29274c-16.74913,4.63843-33.14517,8.83789-49.71013,10.47358-2.068.21162-4.13217.32255-6.20589.49266-2.0699.12692-4.13313.15007-6.2078.234-2.06991.03865-4.13122-.03555-6.2059-.0439-2.04318-.07444-3.99952-.18132-5.99117-.38244a73.34958,73.34958,0,0,1-11.69319-2.189,58.53522,58.53522,0,0,1-10.904-4.36693,44.06972,44.06972,0,0,1-9.36562-6.76107,37.9622,37.9622,0,0,1-6.83956-9.22963,39.68549,39.68549,0,0,1-3.46606-11.25062,48.48212,48.48212,0,0,1-.11261-12.22451,45.43848,45.43848,0,0,1,3.12537-12.006,36.72415,36.72415,0,0,1,6.4941-10.66731,34.25764,34.25764,0,0,1,9.93534-7.81534,38.75822,38.75822,0,0,1,12.471-3.46654,39.4836,39.4836,0,0,0-13.06645,2.08279A36.53676,36.53676,0,0,0,45.32169,369.46a40.50067,40.50067,0,0,0-8.41035,10.8064A50.68879,50.68879,0,0,0,31.926,393.15457a55.24235,55.24235,0,0,0-1.46869,13.92819,43.537,43.537,0,0,0,9.98688,26.93595,55.24363,55.24363,0,0,0,10.81618,9.92055,71.11305,71.11305,0,0,0,12.76011,6.92306,87.49505,87.49505,0,0,0,13.73637,4.26673c2.32471.51342,4.72385.92616,7.03424,1.27592,2.29321.28056,4.59406.62268,6.89777.846,2.3018.17751,4.61505.41155,6.92258.53585,2.30276.08159,4.62078.21711,6.92544.24764,18.4879.30109,36.63606-2.24144,54.08948-4.972,17.45914-2.73459,34.41823-5.6586,50.6005-6.25,16.17846-.63987,31.38161,1.24991,44.89849,6.76822a93.09113,93.09113,0,0,1,19.23321,10.54754,131.28587,131.28587,0,0,1,17.41429,14.65012,174.80073,174.80073,0,0,1,17.54647,20.6382c1.29261,7.66289,2.27555,15.32459,2.90158,23.03758.86079,10.60312,1.149,21.32912,1.04879,32.17392-.07491,9.48062-.6098,19.11607-1.2573,28.77443a25.98788,25.98788,0,0,1-6.50985,8.533,35.429,35.429,0,0,1-11.94035,6.44066,78.62543,78.62543,0,0,1-14.61721,3.12442l-8,.95765-2.151.29154-2.07085.3395c-1.17667.21352-2.37052.40009-3.59776.51747-9.77884,1.138-20.71526-.40725-32.30252.93618a55.47739,55.47739,0,0,0-8.66134,1.69677,52.43324,52.43324,0,0,0-8.21567,3.14541c-5.13707,2.43207-9.72922,5.20148-14.35763,7.26566-9.07933,4.22045-19.49279,4.83884-29.83753,3.36968-10.38292-1.421-20.70763-4.543-31.21652-7.169-10.48216-2.6141-21.409-4.82214-32.3865-3.97209a70.26839,70.26839,0,0,0-30.66682,10.10259,69.29765,69.29765,0,0,1,30.75844-8.172c10.65012-.18346,21.05118,2.56329,31.24609,5.76214,7.41692,2.32471,14.81475,4.94907,22.47883,7.04927a23.06827,23.06827,0,0,0-5.60467,4.2047c-2.54468,2.52392-4.835,5.16975-7.14924,7.67052l-.11976-.05487c-.03961.10068-.07158.20041-.1107.30109a53.73871,53.73871,0,0,1-6.225,5.89765,22.38812,22.38812,0,0,1-8.23953,3.969c-2.3772.657-4.888,1.09746-7.40881,1.672a34.99863,34.99863,0,0,0-4.96863-4.15556,8.01213,8.01213,0,0,0-3.4422-1.30717,17.20363,17.20363,0,0,0-3.5195-.13145c-2.3123.1231-4.53776.51962-6.77753.59072a12.23049,12.23049,0,0,1-6.497-1.40809,11.96465,11.96465,0,0,0,3.07861,1.4892,14.74592,14.74592,0,0,0,3.40976.54253c2.30085.10593,4.58165-.11595,6.79852-.057a15.90163,15.90163,0,0,1,3.24275.37385,7.13679,7.13679,0,0,1,2.82191,1.21365,32.65518,32.65518,0,0,1,3.84683,3.34081c-.04438.01193-.08875.02075-.1336.03292a24.61656,24.61656,0,0,0-9.00967,4.365,22.88479,22.88479,0,0,0-6.14,7.69056,22.53582,22.53582,0,0,1,6.57235-7.092,23.49745,23.49745,0,0,1,8.90087-3.52308c3.16736-.61315,6.42825-.83789,9.71108-1.47585a25.103,25.103,0,0,0,9.43338-3.70082c.77538-.51652,1.52213-1.06072,2.25313-1.61947-.46666,1.48348-.92759,2.95312-1.4267,4.38936a37.80083,37.80083,0,0,1-2.17488,5.23822,32.36517,32.36517,0,0,1-3.2647,4.68138,28.62508,28.62508,0,0,0-3.39353,5.14613,24.32238,24.32238,0,0,0-1.92008,5.8318,34.4475,34.4475,0,0,0-.24907,11.958,33.98427,33.98427,0,0,1,1.232-11.70464,23.17021,23.17021,0,0,1,2.26936-5.34677,26.69115,26.69115,0,0,1,3.59489-4.55207,35.174,35.174,0,0,0,3.8936-4.68257,39.56131,39.56131,0,0,0,2.83335-5.41907c1.63283-3.66265,2.97793-7.39306,4.68615-10.82071,2.19921-2.07491,4.33258-4.16676,6.5671-6.06155a16.69454,16.69454,0,0,1,7.79482-3.96087,43.82357,43.82357,0,0,1,9.295-.33735v-.16677a67.357,67.357,0,0,0,11.175.5838,58.35538,58.35538,0,0,0,8.57449-1.00394,56.862,56.862,0,0,0,8.3426-2.41631c5.35083-2.02792,10.17583-4.56329,14.914-6.45235a41.949,41.949,0,0,1,4.02577-1.42145c-1.2053,1.72421-2.32232,3.4601-3.3921,5.18669-3.56627,5.73232-6.70309,11.53072-10.77037,16.308a21.63434,21.63434,0,0,1-7.05237,5.67959c-2.77323,1.36538-6.01408,2.16533-9.23106,3.395a21.90978,21.90978,0,0,0-8.63367,5.64428,22.76626,22.76626,0,0,0-4.89562,8.78779,22.16273,22.16273,0,0,1,5.75069-7.90028,20.04667,20.04667,0,0,1,8.52391-4.18227c2.94119-.73745,6.09424-1.1373,9.294-2.14911a80.49155,80.49155,0,0,1-4.25623,12.88035,47.88569,47.88569,0,0,1-4.28964,7.99571,21.16386,21.16386,0,0,1-2.924,3.40379,43.469,43.469,0,0,0-3.42121,3.17667,43.20062,43.20062,0,0,1,3.98521-2.42252,15.4613,15.4613,0,0,0,3.68365-3.09007,49.9809,49.9809,0,0,0,5.59131-7.70989,82.50719,82.50719,0,0,0,7.80055-17.26494,30.23285,30.23285,0,0,0,3.56245-2.85936c5.15806-4.86436,9.02111-10.50149,13.09507-15.63855a75.65839,75.65839,0,0,1,6.2288-7.18406,22.71806,22.71806,0,0,1,5.09412-3.9332c8.92712-.05273,18.43063,1.58606,28.81832,1.1132,1.463-.05439,2.94406-.19038,4.43374-.36836l1.93057-.22761,1.86187-.18537,8.083-.684a90.94274,90.94274,0,0,0,17.065-3.06812,55.11241,55.11241,0,0,0,8.18036-3.11487,81.17573,81.17573,0,0,1-3.44793,7.93844,68.00238,68.00238,0,0,1-6.09615,10.12717,51.609,51.609,0,0,1-7.7032,8.63032c-.89276.7823-1.82274,1.50638-2.76847,2.19969a31.17537,31.17537,0,0,0-10.8219-4.21186,18.90963,18.90963,0,0,0-13.473,2.465c-1.87045,1.21341-3.36586,2.56472-4.868,3.75a22.63906,22.63906,0,0,1-4.73243,2.97746,18.90927,18.90927,0,0,1-11.28665,1.46677,20.10187,20.10187,0,0,0,12.04246.76441,25.61005,25.61005,0,0,0,5.87666-2.22975c1.82751-.93594,3.53-1.92628,5.15806-2.55756a13.02981,13.02981,0,0,1,9.56412.16366,20.78436,20.78436,0,0,1,3.81868,1.99595,68.89245,68.89245,0,0,1-9.28308,2.1033c-4.17988.77491-8.94667,1.60945-13.21722,3.74186-1.0612.50531-2.1787.93189-3.17977,1.51068l-2.945,1.80651-1.46487.90612-1.35417,1.01778-2.68639,2.0489a101.34851,101.34851,0,0,0-9.57366,8.93428l-.19945-.0773c-.01145.041-.01766.08159-.02911.12263-2.662.13026-5.31552.33162-7.9394.68495-1.9.26793-3.72277.52845-5.71728.98438a15.49719,15.49719,0,0,0-5.76691,2.54539c-3.36682,2.62841-5.17333,5.92413-7.41119,8.80591a20.81624,20.81624,0,0,1-3.6722,3.93559,6.31017,6.31017,0,0,1-5.00155,1.54789,6.7395,6.7395,0,0,0,5.47966-.81737,22.08615,22.08615,0,0,0,4.49863-3.50566c2.6883-2.57569,5.15615-5.52141,7.99237-7.02684a11.62921,11.62921,0,0,1,4.58738-1.17691c1.65668-.11308,3.52618-.09638,5.3117-.06227.774.01814,1.54169.08661,2.31325.12526q-1.59609,1.80579-3.174,3.61278c-5.61231,6.46-11.03853,12.98271-17.04879,18.85936-2.01837,1.9511-4.12263,3.84421-6.31946,5.60492a10.534,10.534,0,0,1-4.40606.02076,25.27252,25.27252,0,0,1-4.69521-1.35871,24.97861,24.97861,0,0,1-8.293-5.36681,25.61235,25.61235,0,0,0,7.75474,6.49242,40.76791,40.76791,0,0,0,4.66564,2.23,16.18835,16.18835,0,0,0,1.61422.50674,39.11037,39.11037,0,0,1-10.99893,5.45533c-8.05249,2.31826-16.79208.86508-24.96863-1.30168a73.92363,73.92363,0,0,0,12.42038,3.20219,36.10077,36.10077,0,0,0,12.96528-.2047c1.06979-.23476,2.09663-.61791,3.15114-.92353a19.48078,19.48078,0,0,0,3.09961-1.09627,44.62967,44.62967,0,0,0,5.83467-2.99177l2.79995-1.70917,2.633-1.92342c1.7941-1.24872,3.43552-2.6568,5.09316-4.0532,6.59525-5.62376,12.53585-11.85662,18.53656-17.87737q1.73137-1.73066,3.47179-3.44746c-.00906,1.15639-.00763,2.30968.042,3.44459a26.8849,26.8849,0,0,1-.0124,3.91364,21.46776,21.46776,0,0,1-2.04319,7.5708,36.91451,36.91451,0,0,1-4.50244,6.88011,37.73983,37.73983,0,0,0,5.98735-5.96183,24.10322,24.10322,0,0,0,3.98426-7.81438,30.772,30.772,0,0,0,.94477-4.33115c.22331-1.33794.481-2.6568.7873-3.94369a30.27405,30.27405,0,0,1,2.45259-6.93571,87.33758,87.33758,0,0,1,7.56579-6.00286l2.52224-1.66241,1.25874-.82381,1.31123-.68234,2.60527-1.36991a19.94782,19.94782,0,0,1,2.08469-.82477c-2.05892,6.80091-4.083,13.55792-6.31993,20.20876a151.30819,151.30819,0,0,1-11.70273,27.22391,82.455,82.455,0,0,1-6.86389,10.33806,17.37311,17.37311,0,0,1-9.096,3.28355,19.61443,19.61443,0,0,1-6.08756-1.0662,19.28169,19.28169,0,0,1-5.619-2.97364,19.73383,19.73383,0,0,0,5.2888,3.7681,18.5184,18.5184,0,0,0,6.35954,1.9227,16.09725,16.09725,0,0,0,5.39234-.53775,38.68368,38.68368,0,0,1-8.65991,6.90469c-4.22092,2.38864-9.19766,3.60992-13.89192,5.69629a26.14452,26.14452,0,0,0-11.68461,9.59179,25.47775,25.47775,0,0,1,12.16749-8.37695c4.6914-1.63212,9.7483-2.3896,14.58-4.57378a44.35193,44.35193,0,0,0,12.68663-9.164,83.63414,83.63414,0,0,0,9.858-12.03554c5.95109-8.47167,10.36287-17.99523,14.19348-27.42527,3.42408-8.37863,6.48074-16.83431,9.62806-25.15806.62555-.07492,1.243-.15078,1.88763-.22617,4.17321-.47549,8.83312-.89944,13.4978-2.53275a44.34633,44.34633,0,0,0,12.63509-6.8763,62.32455,62.32455,0,0,0,10.01265-9.74687,79.57887,79.57887,0,0,0,7.88262-11.25706,95.37266,95.37266,0,0,0,5.31743-10.371c-1.03591,4.11308-2.09472,8.21424-3.22176,12.283a262.48272,262.48272,0,0,1-11.30192,33.44483,117.22811,117.22811,0,0,1-7.84254,15.441,82.3711,82.3711,0,0,1-6.98557,9.82083,15.126,15.126,0,0,0-4.78588-3.12322,10.78974,10.78974,0,0,0-7.227-.34141,12.74613,12.74613,0,0,0-5.22868,3.45008,35.68032,35.68032,0,0,0-3.25134,4.01527,43.02146,43.02146,0,0,1-5.83181,7.2313,16.86928,16.86928,0,0,1-8.18227,4.24955A18.0369,18.0369,0,0,0,263.822,695.088a45.85151,45.85151,0,0,0,7.92556-5.98831,30.4586,30.4586,0,0,1,3.55-2.69593,6.06019,6.06019,0,0,1,3.07193-1.11416,3.32461,3.32461,0,0,1,2.06609.85077,7.957,7.957,0,0,1,1.81129,2.29751l2.95836-2.38006c-3.87116,4.19468-8.13217,8.2987-12.22187,12.78134a81.79,81.79,0,0,0-11.15878,15.18025,72.39777,72.39777,0,0,0-3.34677,6.84266,16.43,16.43,0,0,0-4.77443,2.627,28.14647,28.14647,0,0,0-4.17511,4.16438,48.67168,48.67168,0,0,0-5.86616,9.24824c-.80449,1.60206-1.51068,3.24562-2.17679,4.89563l-1.818,4.7873c-1.20053,3.16713-2.38292,6.30634-3.74854,9.31266a38.0859,38.0859,0,0,1-4.88417,8.36264,20.469,20.469,0,0,1-7.69462,5.58965c-3.0204,1.41357-6.328,2.9085-8.89515,5.28808a32.36617,32.36617,0,0,0-6.35667,8.03245,31.83494,31.83494,0,0,1,7.02564-7.1979c2.68544-1.99833,5.80509-3.02231,9.04879-4.14744a23.19587,23.19587,0,0,0,9.23107-5.38853,41.55218,41.55218,0,0,0,6.32232-8.56543c1.77025-3.0142,3.31528-6.09567,4.84981-9.13778l2.28844-4.5275c.751-1.43266,1.52881-2.84361,2.38674-4.20088a44.91629,44.91629,0,0,1,4.65036-6.21114c-1.48539,5.023-2.76894,10.05225-4.04151,15.04783-1.484,5.8268-2.95264,11.619-4.74389,17.26757a75.12639,75.12639,0,0,1-6.893,16.12979,43.8647,43.8647,0,0,1-11.86878,12.648c-3.57819,2.68352-7.48562,5.03256-11.23082,7.70655l-.59693-.2319c-.10688.298-.18943.60384-.28724.90493-.89706.65919-1.797,1.31432-2.66349,2.02743a47.997,47.997,0,0,0-11.62352,13.97949,50.48389,50.48389,0,0,0-5.60945,17.13467,50.03821,50.03821,0,0,1,6.36526-16.69688A46.67266,46.67266,0,0,1,212.648,806.6648c.26-.19444.54014-.36407.80449-.5535a27.53114,27.53114,0,0,0-.669,5.31934,40.22943,40.22943,0,0,0,1.16045,9.0538,31.136,31.136,0,0,1,.86365,8.85506,30.49717,30.49717,0,0,1-2.35047,8.62722,30.76126,30.76126,0,0,0,2.80186-8.57736,31.81459,31.81459,0,0,0-.42085-9.06119,39.05988,39.05988,0,0,1-.69474-8.8355,26.66988,26.66988,0,0,1,1.4663-6.86437c3.959-2.59621,8.19993-4.87129,12.24717-7.603a46.96763,46.96763,0,0,0,13.2888-12.89013,78.8026,78.8026,0,0,0,8.08684-16.60194c1.12227-3.024,2.14291-6.06847,3.11917-9.11511.0105.07634.02863.151.03865.22736a44.85457,44.85457,0,0,1,.15173,9.7619c-.60885,6.57307-2.68829,13.15472-4.43469,19.95706A94.88284,94.88284,0,0,0,245.1547,809.241a71.79051,71.79051,0,0,0,2.235,20.76536,70.92966,70.92966,0,0,1-.49242-20.64417,92.17451,92.17451,0,0,1,4.55779-20.00143c2.23882-6.47358,4.97292-13.01849,6.27651-20.23953a50.46968,50.46968,0,0,0,.74723-11.01205,26.246,26.246,0,0,0-2.63342-10.924c3.2251-10.43231,6.46021-20.83455,11.9895-29.60635A74.33506,74.33506,0,0,1,278.673,704.2585c4.13217-4.11715,8.65752-8.05345,13.07694-12.41513a91.76218,91.76218,0,0,0,12.1169-14.50841c.41179-.60694.79542-1.228,1.19385-1.84135-.18991.90875-.40463,1.81081-.6518,2.70023a36.34713,36.34713,0,0,1-5.03686,10.5232c-2.25409,3.34773-5.014,6.61768-7.48849,10.26506a43.67869,43.67869,0,0,0-5.82512,11.907,66.26724,66.26724,0,0,0-2.60337,12.73124,116.38126,116.38126,0,0,0,.3197,25.53764,115.31008,115.31008,0,0,1,1.9802-25.17739c1.68245-8.20064,4.58165-16.06895,9.86472-22.219,2.58333-3.15615,5.59609-6.12025,8.417-9.56341a42.84867,42.84867,0,0,0,6.98461-11.75307,55.3268,55.3268,0,0,0,3.39831-22.13861,284.12717,284.12717,0,0,0,12.22092-31.52285c2.15579-6.53608,4.14792-13.09317,6.07611-19.64834a234.19151,234.19151,0,0,1-3.404,29.097,197.33788,197.33788,0,0,1-5.39664,22.35333,179.11334,179.11334,0,0,1-6.10569,16.90469l-.01431.00143.00429.02291c-.6475,1.58034-1.30693,3.16688-1.99308,4.78492-3.0767,7.395-6.18681,15.30168-7.91411,23.70965a90.8653,90.8653,0,0,0-1.68437,12.66874c-.14553,2.58284-.18084,5.13945-.1732,7.68293-.10545.26291-.19421.52988-.30872.79041a28.56961,28.56961,0,0,1-4.428,7.331c-1.86282,2.30324-4.12168,4.53012-6.26315,7.05166a58.67324,58.67324,0,0,0-9.69391,16.90349,89.61156,89.61156,0,0,0-4.83932,18.44805,88.46044,88.46044,0,0,1,6.95408-17.48037A55.23722,55.23722,0,0,1,298.40056,742.745c2.21687-2.04891,4.73244-3.9771,7.16116-6.30944.28916-.2715.56686-.5764.85077-.86389.83741,14.00334,2.48026,27.42.89467,40.54181-1.63,15.18932-6.96744,29.93153-14.51509,43.52882-4.302,7.86-9.52213,15.30669-14.73459,22.87057a13.138,13.138,0,0,1-6.46928,1.07c-2.8887-.10855-6.01026-.66277-9.34272-.43636a14.66293,14.66293,0,0,0-4.94143,1.17118,17.849,17.849,0,0,0-4.16271,2.68973,76.21944,76.21944,0,0,0-6.60575,6.5943,40.49575,40.49575,0,0,0-9.17667,16.0711c-1.72157,5.94727-2.33806,12.05917-3.01658,18.12692,1.01157-6.01765,1.97829-12.09662,3.98712-17.81272a38.92724,38.92724,0,0,1,9.69009-14.98723c4.365-4.02338,8.71955-9.08983,14.34045-8.66349,2.79709.02076,5.7087.76059,8.90183,1.15711a24.92594,24.92594,0,0,0,3.28808.16485c-2.62722,3.89193-5.20482,7.83944-7.59776,11.92819a129.51715,129.51715,0,0,0-10.4125,21.81725,121.50384,121.50384,0,0,0-5.92342,23.34821,150.16028,150.16028,0,0,0,.23,47.69176c-3.00083-26.11905.48575-53.29358,11.85924-76.66683a19.38223,19.38223,0,0,1,.48384,1.93821c.39508,2.07563.563,4.28653.8188,6.53489a62.15614,62.15614,0,0,0,3.14064,13.23106c1.4057,4.24049,2.79327,8.50579,4.50722,12.65848,1.7273,4.11452,3.74376,8.26625,6.9283,11.4391-2.965-3.37111-4.66658-7.5708-6.11046-11.74687-1.42479-4.20708-2.52415-8.52415-3.64929-12.841a59.97158,59.97158,0,0,1-2.20541-12.95312c-.1088-2.19778-.125-4.455-.41036-6.79375a20.212,20.212,0,0,0-.73959-3.55242,12.37355,12.37355,0,0,0-.7687-1.8757,110.17026,110.17026,0,0,1,5.98879-9.91245c4.46809-6.9054,9.54694-13.44387,14.59668-20.105a47.93437,47.93437,0,0,0-1.23058,9.755c-.18419,9.45389,2.7885,18.25289,4.9901,26.86962a141.04029,141.04029,0,0,1,4.53775,26.41584c.50483,8.91137-.03244,18.01265-2.73506,26.61911,3.071-8.48694,4.01575-17.63664,3.88883-26.66444a142.75466,142.75466,0,0,0-3.44221-26.89634c-1.87809-8.82834-4.34594-17.5374-3.77526-26.20828.40988-7.10342,2.88584-13.83944,5.63808-20.64345,1.83562-2.63056,3.63307-5.301,5.327-8.07062,1.43-2.31659,2.778-4.69712,4.08446-7.10509.063,2.79041.27007,5.56746.606,8.31826a77.07107,77.07107,0,0,0,5.221,19.93607,69.72733,69.72733,0,0,0,10.45354,17.4663,68.96982,68.96982,0,0,1-8.9734-18.00215,74.7813,74.7813,0,0,1-3.56341-19.64929,71.0497,71.0497,0,0,1,1.55744-18.96171,113.75267,113.75267,0,0,0,8.15078-27.67076c2.72552-16.51271.84839-32.90016,1.06979-48.29155.05821-3.85471.24048-7.65788.62126-11.384a79.134,79.134,0,0,1,1.96015-10.8837,82.04944,82.04944,0,0,1,3.27711-9.93224c.45044,1.22963.92568,2.45306,1.46392,3.65478a78.97817,78.97817,0,0,0,4.0291,7.58416,26.14911,26.14911,0,0,1,3.008,7.13491,32.51607,32.51607,0,0,1,.59167,7.94441,129.85687,129.85687,0,0,1-1.442,16.55351,130.907,130.907,0,0,0,3.76-16.33735,35.33363,35.33363,0,0,0,.54492-8.67494,30.07407,30.07407,0,0,0-2.25027-8.606,74.17562,74.17562,0,0,1-2.77991-7.61255,56.69494,56.69494,0,0,1-1.61947-7.74377c-.2276-1.56459-.39652-3.14684-.54157-4.73768.05391-.114.10545-.22665.15889-.34045,1.67482-3.56937,3.42884-7.20482,5.07408-11.00728,1.62137-3.81105,3.18072-7.64977,4.5368-11.5467a212.59734,212.59734,0,0,0,6.89872-23.71514c.67947-2.96076,1.28546-5.93654,1.85614-8.919q.72075,5.635,1.33508,11.26137a74.76105,74.76105,0,0,1-1.8046,9.1602,62.47628,62.47628,0,0,1-2.7322,8.06323c-1.06119,2.58213-2.51938,5.202-3.9165,8.10449a41.0284,41.0284,0,0,0-3.2876,9.25779,54.75705,54.75705,0,0,0-1.13468,9.46892,101.48389,101.48389,0,0,0,1.27305,18.43947,99.85059,99.85059,0,0,1,2.11858-18.00406,50.53139,50.53139,0,0,1,2.63772-8.36479,34.959,34.959,0,0,1,4.27436-7.30454c1.41143-1.92246,3.0204-3.90457,4.5683-6.09663.0563.89109.13074,1.78266.18131,2.67375,1.35036,24.20064.47716,48.40773-5.50733,71.36419-2.99273,11.5615-7.26518,23.25755-10.58237,35.69128a149.03659,149.03659,0,0,0-5.494,38.52225q-.0272,2.42133.0105,4.83288l-.32828-.12979a55.06518,55.06518,0,0,0-3.24562,18.9901,63.63524,63.63524,0,0,0,.7415,9.45891l1.26924,8.99416a107.92109,107.92109,0,0,1,1.252,17.7168,51.925,51.925,0,0,1-3.66456,17.04784c-2.08326,5.577-4.69808,11.118-6.62292,16.97388A53.56069,53.56069,0,0,0,314.893,924.834a61.99557,61.99557,0,0,0,3.16259,18.03412,53.1253,53.1253,0,0,0,3.61684,8.38721,45.29452,45.29452,0,0,0,5.16092,7.48992,46.58467,46.58467,0,0,1-7.938-16.13718,60.66828,60.66828,0,0,1-2.24454-17.7724,51.247,51.247,0,0,1,3.41262-17.37827c2.13957-5.56889,4.9796-10.88345,7.42646-16.54276a55.97857,55.97857,0,0,0,4.81737-18.11738,112.56679,112.56679,0,0,0-.37314-18.55327l-.13742-1.51879a351.791,351.791,0,0,0,8.42944,35.10391c4.18562,14.18179,8.82882,28.06084,12.95,41.98115-5.01586,13.32435-6.86866,27.52619-7.05905,41.37612-.24621,14.65633,1.53358,28.99678.25576,43.14208a72.26309,72.26309,0,0,1-4.82787,20.58022,107.7342,107.7342,0,0,1-9.92389,18.93714c-3.76286,6.03865-9.01634,11.275-12.01289,18.02815a32.38841,32.38841,0,0,0-2.69116,10.53847,24.18463,24.18463,0,0,0,1.274,10.69427,23.97914,23.97914,0,0,1-.84552-10.64941,31.74967,31.74967,0,0,1,3.04235-10.21449c3.14923-6.42824,8.543-11.39926,12.658-17.42479a109.84637,109.84637,0,0,0,10.8887-18.91661,75.36611,75.36611,0,0,0,5.86711-21.18693c1.89145-14.59955.66325-29.17572,1.48682-43.33914a126.44765,126.44765,0,0,1,5.09364-30.30133c1.61327,5.99213,3.07957,12.00859,4.31588,18.078,1.25015,5.99212,2.26363,12.02362,2.99941,18.08565.77776,6.05964,1.24346,12.14792,1.4391,18.267a302.09587,302.09587,0,0,1-1.2492,36.87463c-1.05833,12.319-2.58141,24.643-3.95658,37.00871l-1.9592,18.53752c-.69951,6.14863-1.54121,12.29822-2.36765,18.45831-1.64428,12.31683-3.2981,24.69331-3.73708,37.16665a124.15565,124.15565,0,0,0,.64511,18.68424,63.69311,63.69311,0,0,0,4.64655,18.02672,63.3744,63.3744,0,0,1-3.99762-18.09328,123.20879,123.20879,0,0,1,.0105-18.55088c.86938-12.35859,2.94119-24.59645,5.01491-36.84028,1.04116-6.1243,2.10044-12.2548,3.02326-18.42586l2.62341-18.45688c1.817-12.27818,3.79053-24.56424,5.31075-36.96433,1.03638-8.45378,1.85136-16.9703,2.28462-25.53263,1.96541,2.841,3.86926,5.69438,5.599,8.63748a61.70064,61.70064,0,0,1,7.05046,16.49314c2.81808,11.74759,2.30753,24.182,2.05463,36.51843-.271,12.31636-.27007,25.03878,3.50042,37.00442a63.23232,63.23232,0,0,0,7.90075,16.84361c3.50329,5.0989,7.9437,9.73781,13.51879,12.49577-5.48348-2.93236-9.7273-7.66862-13.033-12.815a62.34342,62.34342,0,0,1-7.27091-16.84863c-3.33246-11.87188-2.94882-24.30872-2.29416-36.59716.62125-12.2925,1.59274-24.86676-.97913-37.37755a65.457,65.457,0,0,0-6.90731-17.72588c-2.71693-4.9734-5.83657-9.6543-8.8856-14.27723.02863-1.45007.09066-2.89681.09066-4.34951.02672-6.30419-.22618-12.63534-.80258-18.92736-.53537-6.298-1.357-12.56781-2.42014-18.78325-4.14935-24.91686-11.926-48.86079-18.00882-72.66612-2.26841-9.02159-4.27437-18.11857-5.82942-27.23893A14.63753,14.63753,0,0,1,347.833,861.419a98.62038,98.62038,0,0,1,5.62949,10.63152,106.47143,106.47143,0,0,0,5.82416,11.04,18.15393,18.15393,0,0,0,4.16844,4.80639,5.54272,5.54272,0,0,0,2.98223,1.18812,5.18408,5.18408,0,0,0,3.00131-.78993,4.64286,4.64286,0,0,1-5.41572-1.08243,16.97866,16.97866,0,0,1-3.17882-4.981,104.52288,104.52288,0,0,1-4.073-11.48754,102.21648,102.21648,0,0,0-4.26387-11.89836,19.41753,19.41753,0,0,0-4.00334-6.00072A9.94763,9.94763,0,0,0,346.705,851.486a7.93006,7.93006,0,0,0-2.43827-.8825c-.22617-.03412-.45616-.04843-.68615-.07754a197.59631,197.59631,0,0,1-2.02791-37.42479,135.06123,135.06123,0,0,1,6.28319-34.8868c.16891-.554.35214-1.10938.5263-1.66384.81355,2.5275,1.70822,5.02779,2.72313,7.48085a107.17393,107.17393,0,0,0,8.35883,15.96231c3.09388,5.00632,6.28319,9.78289,9.085,14.69784a71.13833,71.13833,0,0,1,6.73172,15.35966,82.06045,82.06045,0,0,1,2.97936,16.71072c.91614,11.42026.07635,23.034-.836,34.57784,1.87714-11.42884,3.70942-22.92687,3.76477-34.69021a85.70353,85.70353,0,0,0-1.64142-17.66479,76.38028,76.38028,0,0,0-5.78123-16.96983c-5.04258-10.77824-11.22939-20.50507-14.40534-31.014a92.20439,92.20439,0,0,1-4.20184-24.21282c1.59514-4.55779,3.16927-9.19432,4.59692-13.95777a199.83151,199.83151,0,0,0,6.07659-27.62973c.80067,1.23631,1.60038,2.47334,2.42825,3.68985,2.1911,3.285,4.71716,6.54324,6.83192,9.57151,4.24669,5.90863,5.1905,13.81248,6.349,21.51665q1.65335,11.6042,2.4564,23.3513.36074-11.75844-.13838-23.56507c-.187-3.927-.33591-7.86353-.90564-11.87833a40.92154,40.92154,0,0,0-1.30359-6.02648,31.28929,31.28929,0,0,0-2.46785-5.7984c-2.02982-3.6178-4.02338-6.76655-5.85471-10.20661q-2.76988-5.08494-5.2115-10.32542c-.27054-.57975-.52105-1.1676-.7854-1.74973.7959-8.02911,1.19289-16.05488,1.32173-24.05869,1.5832,3.91459,3.20553,7.813,4.90039,11.67458,2.862,6.49552,5.8194,12.81021,8.481,19.144,5.39282,12.64512,9.40857,25.47775,10.44114,38.98008.76345,8.68353.66038,17.6116.82166,26.67589a83.90629,83.90629,0,0,0-4.4366,26.16415,93.73112,93.73112,0,0,0,.71955,13.85184,80.42465,80.42465,0,0,0,2.98414,13.54074c2.62245,8.71764,5.89574,16.96481,6.98461,25.51927,1.29882,8.48049-.794,17.226-1.07265,26.43111-.04581,1.54789-.04485,3.09388-.0229,4.63891a5.6524,5.6524,0,0,0-3.27043,1.0235,8.40243,8.40243,0,0,0-2.45449,2.72361,13.89834,13.89834,0,0,0-1.75594,6.11905,34.70976,34.70976,0,0,0,1.57653,11.45938,94.35551,94.35551,0,0,1,2.72838,10.68043c.5764,3.55982.34546,7.47441,1.8485,10.92-1.12609-3.5782-.4867-7.27854-.69-11.03639a95.40037,95.40037,0,0,0-1.61374-11.06835,31.967,31.967,0,0,1-.38173-10.5442,10.10171,10.10171,0,0,1,1.71109-4.32113,4.13463,4.13463,0,0,1,1.36276-1.24156,1.00864,1.00864,0,0,1,.92282-.08636l.14934-.60169a114.43813,114.43813,0,0,0,2.46738,18.40248,121.988,121.988,0,0,0,8.51437,25.68961,107.89655,107.89655,0,0,0,14.31469,22.85626,131.19669,131.19669,0,0,0,19.18168,18.82333,130.72959,130.72959,0,0,1-18.48026-19.37683,106.55939,106.55939,0,0,1-13.37755-23.01563c1.75307-.77824,4.08016-.511,6.23738.229a34.54772,34.54772,0,0,1,7.1459,3.6054,29.12132,29.12132,0,0,0,7.44268,3.76643,8.54452,8.54452,0,0,0,4.19515.20995,6.63811,6.63811,0,0,0,3.50424-2.14411,6.45827,6.45827,0,0,1-3.57008,1.79459,8.02119,8.02119,0,0,1-3.90982-.53728,28.52058,28.52058,0,0,1-6.85864-4.25838,36.16257,36.16257,0,0,0-7.20983-4.3729,14.57956,14.57956,0,0,0-4.2925-1.16378,8.60815,8.60815,0,0,0-3.644.40654,120.35036,120.35036,0,0,1-6.56329-23.03138,108.753,108.753,0,0,1-1.63855-26.36956c.24717-4.377,1.003-8.72241,1.56412-13.23822a60.40583,60.40583,0,0,0,.37886-13.86568c-.88942-9.32363-4.03483-17.99022-6.26411-26.47931a76.92021,76.92021,0,0,1-2.40009-12.74865,87.6761,87.6761,0,0,1-.28439-12.972c.03579-.68758.09066-1.37564.14124-2.06394a102.75155,102.75155,0,0,0,11.13778,32.06871,93.00865,93.00865,0,0,0,12.37171,17.48754c2.277,2.549,4.68472,4.95884,7.17165,7.27138a69.42826,69.42826,0,0,0,2.82859,12.82691,57.97208,57.97208,0,0,0,2.3247,6.18991,58.88564,58.88564,0,0,0,3.09865,5.80962c2.23023,3.75092,4.71812,7.29524,7.18884,10.83144,2.48407,3.509,4.99678,7.15544,8.42085,9.827-3.21222-2.91351-5.40523-6.6673-7.62305-10.34307-2.20446-3.70774-4.41274-7.40666-6.3185-11.227a53.922,53.922,0,0,1-4.46427-11.8392,71.76319,71.76319,0,0,1-1.63283-8.65251q2.23881,1.93606,4.52821,3.79434l33.06215,26.0346L435.5238,862.88955A128.7741,128.7741,0,0,1,421.086,847.9369a88.92478,88.92478,0,0,1-9.4935-14.49624,5.50621,5.50621,0,0,1,1.47346-.00931,15.78959,15.78959,0,0,1,4.1045,1.368c2.83717,1.26256,5.76118,3.10342,9.2177,3.84922a19.21034,19.21034,0,0,0,10.07277-.54778,33.56913,33.56913,0,0,0,8.72528-4.47858,33.00515,33.00515,0,0,1-9.01157,3.35011,17.44983,17.44983,0,0,1-9.15377-.564c-2.85148-.96672-5.326-2.94644-8.209-4.69164a19.42818,19.42818,0,0,0-4.88513-2.26792,9.27384,9.27384,0,0,0-4.3717-.10808,97.3448,97.3448,0,0,1-9.07742-38.25408c-.52392-13.68174,1.13945-27.61924.65657-42.088-.0315-1.00227-.10784-2.01122-.16558-3.018a24.80974,24.80974,0,0,0,2.38053,2.062c.85984.6506,1.65478,1.17213,2.49171,1.71537,3.31624,2.12979,6.56186,3.86735,9.35322,6.06871a37.6384,37.6384,0,0,1,7.27949,7.89789c4.22474,6.00454,7.20983,12.96863,9.61088,20.07134a129.177,129.177,0,0,1,5.06359,22.04819,130.018,130.018,0,0,0-3.37445-22.5337,80.88353,80.88353,0,0,0-8.34451-21.49016,41.6142,41.6142,0,0,0-7.38542-9.33938c-2.97269-2.73148-6.29179-4.84242-9.17953-7.0433-.71288-.54348-1.45724-1.12609-2.067-1.66933a19.994,19.994,0,0,1-1.73684-1.75856,36.0306,36.0306,0,0,1-3.09484-4.21114c-.84647-1.33389-1.618-2.73387-2.3581-4.15388-.355-2.12812-.752-4.24669-1.23107-6.33807a168.026,168.026,0,0,0-6.22116-20.76393c-2.424-6.72933-5.0779-13.264-7.53334-19.73732q-3.66456-9.69534-6.83956-19.54265a455.12132,455.12132,0,0,1-12.27866-46.99106q-.37647-3.7261-.78253-7.44006c1.51974,4.7353,3.07718,9.46774,4.73863,14.18371,2.13671,6.0711,4.39557,12.12215,6.92831,18.09925a190.494,190.494,0,0,0,8.36741,17.67291A123.3415,123.3415,0,0,0,395.374,679.49934c2.05272,2.62579,4.177,5.22438,6.4855,7.64165,2.31135,2.39533,4.69617,4.695,7.13349,6.83574.61076.538,1.222,1.05929,1.83323,1.58846a18.16287,18.16287,0,0,0-.45234,3.28832,17.08877,17.08877,0,0,0,.60217,5.45175l1.56507,4.51676c.51151,1.30741.95622,2.65155,1.35608,4.01813a55.92517,55.92517,0,0,1,2.18537,17.263,58.255,58.255,0,0,0,2.42109-17.94727c-.03435-1.54647-.1231-3.10271-.29583-4.66134l-.3092-4.11977a9.58777,9.58777,0,0,1,.12311-1.62853c5.35035,4.61028,10.42061,9.22748,14.57235,14.57092a88.32031,88.32031,0,0,0,1.21006,18.49982c.28534,1.58463.63462,3.17309,1.0841,4.77108a35.68547,35.68547,0,0,0,1.68723,4.6246,73.812,73.812,0,0,1,3.36967,8.304,45.58752,45.58752,0,0,1,1.96255,12.95145l-.02625.01551c.01.01431.01909.03077.02959.04509.01,1.53191-.05058,3.06764-.19277,4.60026a44.86743,44.86743,0,0,1-1.78361,8.86222,37.26,37.26,0,0,0-2.00978,8.99678,36.84474,36.84474,0,0,1,2.96982-8.64941,46.40749,46.40749,0,0,0,2.84289-8.90135c.07921-.38458.13981-.77323.21-1.16a25.83477,25.83477,0,0,0,2.66635,4.7143,11.59282,11.59282,0,0,0,4.04438,3.13563l4.29726,2.344-3.82774-3.05022a10.675,10.675,0,0,1-3.11965-3.36633c-1.46773-2.66015-1.77311-5.91125-3.362-9.19981l-.021.01216a48.78652,48.78652,0,0,0-.71382-12.328,77.20025,77.20025,0,0,0-2.5442-9.092,37.148,37.148,0,0,1-1.56794-8.42681c-.16032-2.131-.20565-4.29918-.19515-6.46881,1.41381,2.8386,2.67732,5.78886,3.84063,8.81713,2.24168,5.802,4.16366,11.81009,6.12859,17.84874,1.96684,6.03937,3.95849,12.12931,6.39867,18.10808a76.86108,76.86108,0,0,0,6.74126,13.21389,17.65878,17.65878,0,0,0,.09734,6.52606,19.41629,19.41629,0,0,0,2.23118,6.32256,51.29261,51.29261,0,0,0,3.62925,5.12633,35.92677,35.92677,0,0,1,3.2084,4.913A40.95324,40.95324,0,0,1,475.853,819.6048a45.67082,45.67082,0,0,1,.8417,12.0272,46.32072,46.32072,0,0,0,.35214-12.20995,42.81515,42.81515,0,0,0-2.98509-12.02863,38.70071,38.70071,0,0,0-2.89825-5.5813,48.54656,48.54656,0,0,1-2.91542-5.10939,16.03377,16.03377,0,0,1-1.336-5.23416c-.01527-.15627-.01813-.31516-.02958-.4731a55.12939,55.12939,0,0,0,13.47489,10.92688c5.51211,3.299,11.27329,5.97447,16.42658,9.50113a49.97073,49.97073,0,0,1,13.24585,13.17094,47.45778,47.45778,0,0,1,7.16689,17.4,47.90027,47.90027,0,0,0-6.43206-17.87189A51.2815,51.2815,0,0,0,497.807,810.00823c-2.455-1.848-5.02779-3.47918-7.61016-5.06024a31.39478,31.39478,0,0,1,5.25874-2.47119,14.36186,14.36186,0,0,1,3.54718-.79924,32.27971,32.27971,0,0,1,3.80007.0816,17.86331,17.86331,0,0,0,7.87021-1.22057,14.888,14.888,0,0,0,6.11523-4.85411,14.525,14.525,0,0,1-6.3624,4.18681,16.79568,16.79568,0,0,1-7.49421.47071,33.32165,33.32165,0,0,0-3.9728-.44232,15.88163,15.88163,0,0,0-4.10641.55589,35.18329,35.18329,0,0,0-7.29,2.88393c-1.96493-1.19-3.92079-2.37958-5.81176-3.635a50.23543,50.23543,0,0,1-13.52356-12.43707,66.12739,66.12739,0,0,1-8.18037-16.5077c-2.089-5.87522-3.77335-11.93988-5.4558-18.04771q-.36074-1.30944-.7229-2.62412a25.048,25.048,0,0,1,13.817,3.26923,44.5947,44.5947,0,0,1,13.56364,12.04557,46.33656,46.33656,0,0,0-11.60158-14.935,32.08,32.08,0,0,0-8.56591-5.08648,27.53722,27.53722,0,0,0-9.05356-1.87761c-.8813-3.07-1.8089-6.14387-2.83335-9.20959a85.47948,85.47948,0,0,0-8.04867-18.00287,75.38221,75.38221,0,0,0-5.7421-8.17941c-.55254-.66563-1.127-1.30908-1.69152-1.9635a29.47485,29.47485,0,0,1,17.31266,1.99809c3.64834,1.49923,6.79757,4.22665,10.24073,6.819a38.88747,38.88747,0,0,0,5.41,3.5677,12.513,12.513,0,0,0,6.19445,1.64,12.00008,12.00008,0,0,1-5.64476-2.51987,37.54057,37.54057,0,0,1-4.5807-4.23834c-1.45151-1.52189-2.86866-3.10247-4.408-4.64416a31.56164,31.56164,0,0,0-5.19146-4.266,35.00839,35.00839,0,0,0-25.65239-5.09364c-4.16892-4.11834-8.47573-7.92461-12.44662-11.82155-2.23405-2.15054-4.31731-4.36168-6.31087-6.62388-1.97161-2.26482-3.75617-4.67565-5.50066-7.12466a113.554,113.554,0,0,1-9.04974-15.82083,179.73517,179.73517,0,0,1-7.13635-17.066c-1.79935-4.85291-3.40642-9.80412-4.94524-14.78754a53.41512,53.41512,0,0,0,13.8547,14.71454c7.96851,5.32626,16.73482,7.843,24.58309,10.43111a89.64515,89.64515,0,0,1,11.26947,4.40558,67.46148,67.46148,0,0,1,10.22164,6.27986l.00811.006a87.66755,87.66755,0,0,0,4.55923,14.54706,36.25353,36.25353,0,0,0,3.91077,7.07122c1.51927,2.17893,3.17023,4.1274,4.73435,6.02075a58.87728,58.87728,0,0,1,4.32685,5.74449,46.96266,46.96266,0,0,1,3.38972,6.35763,62.953,62.953,0,0,1,4.24764,14.08756,64.14664,64.14664,0,0,0-1.93725-14.88441,49.89416,49.89416,0,0,0-2.45736-7.2721,62.95514,62.95514,0,0,0-3.55576-6.824c-1.26065-2.16772-2.49553-4.24765-3.48611-6.33687a36.36959,36.36959,0,0,1-2.33425-6.36789c-.27627-1.04927-.52391-2.11881-.75247-3.1979q3.96875,3.70679,7.76762,7.65978c5.85185,6.01313,11.258,12.47334,17.23584,18.66635a70.25472,70.25472,0,0,0,9.78361,8.53967,34.6254,34.6254,0,0,0,11.905,5.3556c8.54205,2.01742,17.15185.757,25.46773-.50865-8.39031.67231-17.05261,1.23989-24.97817-1.27687-.32542-.10306-.63605-.24049-.95765-.35309,1.48682-.90565,2.9722-1.82417,4.501-2.59335,2.21878-1.086,4.55589-1.99833,6.85674-3.04378a31.193,31.193,0,0,0,6.55708-3.81176,21.82683,21.82683,0,0,0,5.04354-5.58774,21.47634,21.47634,0,0,1-5.432,5.05834,30.27483,30.27483,0,0,1-6.67446,3.12919c-2.33711.82452-4.75534,1.53143-7.164,2.46164-2.34666.93881-4.46523,2.09806-6.706,3.15377A32.02139,32.02139,0,0,1,489.034,703.59a67.24636,67.24636,0,0,1-8.70715-8.80735c-9.316-11.45079-18.10855-23.84922-29.26255-34.47692-.00144-.02052-.0043-.04127-.00621-.06179l-.053.00787c-1.4539-1.38327-2.9369-2.74484-4.47811-4.06179a77.195,77.195,0,0,0-9.89336-7.20625,13.521,13.521,0,0,1,4.908-1.29333c3.6302-.30037,7.80723.69068,12.08732,1.624,4.27341.93117,8.61267,1.864,13.013,2.42825a49.53109,49.53109,0,0,0,13.19719.12883,48.38774,48.38774,0,0,1-12.7019-2.40344c-4.10259-1.29452-8.08875-2.93-12.11595-4.5974-4.00048-1.61613-8.15555-3.58392-13.27544-4.16223a21.59013,21.59013,0,0,0-14.2851,3.55362c-1.26542-.56185-2.52893-1.10629-3.781-1.62162-3.99-1.649-7.85494-3.164-11.47751-4.87224a53.67414,53.67414,0,0,1-9.88858-5.91435c-5.52547-4.314-9.87523-11.00584-13.16856-18.08517-.56543-1.222-1.06692-2.48074-1.57843-3.73327a46.27569,46.27569,0,0,0,9.95252,2.98938,98.72016,98.72016,0,0,0,16.94191,1.32673c2.64153.04557,5.27639.0649,7.34248.29894l2.00214.219c.731.06919,1.46965.177,2.194.21066,1.4496.07849,2.90588.1818,4.3259.17345,9.35512.09114,17.97972-1.21532,26.13145-1.18144a22.81416,22.81416,0,0,1,5.05834,3.917,75.5213,75.5213,0,0,1,6.22879,7.18406c4.07492,5.13706,7.937,10.77419,13.09508,15.63855a30.30745,30.30745,0,0,0,3.56245,2.85912,82.503,82.503,0,0,0,7.80055,17.26518,49.9809,49.9809,0,0,0,5.59131,7.70989,15.4613,15.4613,0,0,0,3.68365,3.09007,43.32781,43.32781,0,0,1,3.98521,2.42252,43.31235,43.31235,0,0,0-3.42217-3.17667,21.20672,21.20672,0,0,1-2.92306-3.40379,47.81628,47.81628,0,0,1-4.28963-7.99571,80.48173,80.48173,0,0,1-4.25576-12.88035c3.19933,1.01205,6.35238,1.41166,9.29357,2.14911a20.04665,20.04665,0,0,1,8.52392,4.18227,22.16273,22.16273,0,0,1,5.75069,7.90028,22.76639,22.76639,0,0,0-4.89562-8.78779,21.90985,21.90985,0,0,0-8.63367-5.64428c-3.217-1.22963-6.45878-2.02958-9.23106-3.395a21.64419,21.64419,0,0,1-7.05237-5.67959c-4.06728-4.77729-7.2041-10.57569-10.77037-16.308-1.06215-1.71371-2.17011-3.43672-3.3649-5.14828a48.98751,48.98751,0,0,1,5.66193,2.06871c4.71335,1.99571,9.53167,4.5046,14.93881,6.37481a53.29745,53.29745,0,0,0,16.78635,2.84361,65.80207,65.80207,0,0,0,9.61756-.61266v.16414a43.82345,43.82345,0,0,1,9.295.33735,16.69457,16.69457,0,0,1,7.79483,3.96087c2.235,1.89479,4.36836,3.98688,6.56757,6.06179,1.70822,3.42765,3.05285,7.15782,4.68472,10.82047a39.675,39.675,0,0,0,2.83431,5.41907,35.174,35.174,0,0,0,3.8936,4.68257,26.7382,26.7382,0,0,1,3.59489,4.55207,23.16975,23.16975,0,0,1,2.26935,5.34677,33.98427,33.98427,0,0,1,1.232,11.70464,34.4475,34.4475,0,0,0-.24907-11.958,24.32282,24.32282,0,0,0-1.92008-5.8318,28.62562,28.62562,0,0,0-3.39353-5.14613,32.44969,32.44969,0,0,1-3.26566-4.68138,37.7997,37.7997,0,0,1-2.17393-5.23822c-.4991-1.43624-.96-2.90612-1.42669-4.38936.731.55875,1.47775,1.10271,2.25313,1.61947a25.103,25.103,0,0,0,9.43338,3.70082c3.28283.638,6.54372.8627,9.71108,1.47585a23.49745,23.49745,0,0,1,8.90087,3.52308,22.54678,22.54678,0,0,1,6.57235,7.092,22.89646,22.89646,0,0,0-6.14-7.69056,24.61651,24.61651,0,0,0-9.00966-4.365c-.04485-.01217-.0897-.021-.13408-.03292a32.69779,32.69779,0,0,1,3.84731-3.34081,7.13091,7.13091,0,0,1,2.8219-1.21365,15.90172,15.90172,0,0,1,3.24276-.37385c2.21686-.05893,4.49767.163,6.79852.057a14.74592,14.74592,0,0,0,3.40976-.54253,11.96465,11.96465,0,0,0,3.07861-1.4892,12.23244,12.23244,0,0,1-6.497,1.40809c-2.23977-.0711-4.46523-.46762-6.77753-.59072a17.21544,17.21544,0,0,0-3.52046.13145,8.013,8.013,0,0,0-3.44125,1.30717,34.99728,34.99728,0,0,0-4.96815,4.15579c-2.52129-.57473-5.03209-1.01515-7.40928-1.67219a22.3997,22.3997,0,0,1-8.24049-3.969,53.80852,53.80852,0,0,1-6.224-5.89765c-.03913-.10068-.0711-.20041-.1107-.30109l-.11977.05487c-2.3142-2.50053-4.60455-5.1466-7.14923-7.67052a23.07372,23.07372,0,0,0-5.59465-4.19969c7.93558-2.17774,15.5801-4.92091,23.26565-7.30145,10.06323-3.14732,20.35167-5.75712,30.86247-5.51115a69.57679,69.57679,0,0,1,30.34427,8.1682,70.52386,70.52386,0,0,0-30.24025-10.073c-10.82572-.90659-21.63808,1.16856-31.99142,3.74067-10.38769,2.55779-20.57593,5.67386-30.8262,7.20219-10.20827,1.57915-20.533,1.21795-29.61135-2.58308-4.56257-1.87761-9.07456-4.55541-14.01217-7.0204a59.01425,59.01425,0,0,0-7.89217-3.347,52.487,52.487,0,0,0-8.51628-2.05774c-11.48324-1.7378-22.43016-.24812-32.24908-1.02636-1.23965-.06394-2.43063-.23023-3.63211-.36312-.60217-.06155-1.17571-.19014-1.76357-.27961l-1.95061-.31874c-3.20936-.47143-5.90529-.54372-8.57545-.70094a87.00332,87.00332,0,0,1-14.78994-1.66194,28.63845,28.63845,0,0,1-11.77812-5.28737,23.71686,23.71686,0,0,1-7.10486-9.87212c-.63175-11.37349-1.39663-22.77395-2.737-34.30514-1.19862-10.397-2.74985-20.84624-4.73244-31.27592q-1.53381-10.86342-2.66826-21.71729c1.07217-1.49254,2.18586-2.97029,3.38972-4.41417a94.24291,94.24291,0,0,1,11.74186-11.15782,121.95579,121.95579,0,0,1,14.4063-9.45485,153.87388,153.87388,0,0,1,16.35214-7.65549,184.16266,184.16266,0,0,1,17.67387-5.92724c6.02553-1.681,12.29631-3.1497,18.79232-4.46451,12.95479-2.637,26.36288-4.88488,39.8454-7.33508,13.493-2.46642,27.092-5.09913,40.6079-8.50555,6.75462-1.69533,13.48921-3.56173,20.15221-5.749a200.53612,200.53612,0,0,0,19.70846-7.42479,140.4063,140.4063,0,0,0,18.73793-9.75A103.09261,103.09261,0,0,0,609.2974,403.475a87.3099,87.3099,0,0,0,13.50829-15.93152,88.25764,88.25764,0,0,0,8.93332-18.49577A86.73208,86.73208,0,0,1,620.40559,385.721a82.76738,82.76738,0,0,1-14.893,13.0631,95.63976,95.63976,0,0,1-17.2406,9.40833,130.05861,130.05861,0,0,1-18.57092,6.39532,187.361,187.361,0,0,1-19.28284,4.15413c-6.496,1.11153-13.06931,1.92031-19.67315,2.56924-13.20577,1.31218-26.56328,1.89765-40.03817,2.34117-13.494.4335-27.10534.67446-41.0717,1.41-.35118.01837-.70857.04366-1.06119.06322a27.61573,27.61573,0,0,0-.16224-3.5071,23.38711,23.38711,0,0,0-4.6933-12.16462,28.41785,28.41785,0,0,0-8.51056-7.316,46.80277,46.80277,0,0,0-18.76369-5.661,42.69229,42.69229,0,0,1,13.45962,11.75069,17.82848,17.82848,0,0,1,3.09674,6.87033,8.76873,8.76873,0,0,1-.71382,5.59585c-1.53358,2.91256-4.377,5.07885-7.77574,6.7093-6.0198.85363-12.04724,2.00071-18.08517,3.352a191.96705,191.96705,0,0,0-21.78314,6.47405,163.14589,163.14589,0,0,0-16.05153,7.01873c.00763-.40153.02577-.80186.03435-1.20315a69.56617,69.56617,0,0,1,4.25528-8.8689,242.39625,242.39625,0,0,1,13.20864-20.679c2.32375-3.41931,4.92712-6.64154,7.41978-9.963,2.6339-3.206,5.19528-6.49218,7.98378-9.59537,5.43767-6.33114,11.27329-12.3655,17.35512-18.19182a305.49591,305.49591,0,0,1,39.67649-31.91936c3.593-2.32446,7.1249-4.77251,10.81332-6.97721l5.49111-3.36706c1.83132-1.05,3.63116-2.15746,5.49779-3.16211q7.44936-4.14625,15.25516-7.82489c1.10271-.23905,2.19874-.49982,3.30908-.70809a111.74856,111.74856,0,0,1,12.13217-1.468c2.03555-.10974,4.0816-.204,6.12-.19682l3.06334.02529c.97531.04008,1.89717.06537,2.88107.16462a82.102,82.102,0,0,1,23.52762,5.97065c7.46845,3.15162,14.71359,7.45628,19.16927,13.47441a19.894,19.894,0,0,1,2.55088,4.78159,16.7236,16.7236,0,0,1,.87415,5.25015,19.03877,19.03877,0,0,1-.97149,5.48133c-.25576.92353-.72242,1.80389-1.06788,2.7217a15.35644,15.35644,0,0,1-1.40284,2.40057,22.23058,22.23058,0,0,1-9.254,7.17523,39.84918,39.84918,0,0,1-12.16653,2.91829c-8.44376.72146-17.38089-.48527-24.99249-4.86938,7.13635,5.15329,16.17464,7.40332,25.0946,7.54623a43.13576,43.13576,0,0,0,13.4873-1.83681,26.89113,26.89113,0,0,0,12.01383-7.58559,20.87567,20.87567,0,0,0,2.22641-3.03949c.55351-1.06931,1.20816-2.08279,1.67-3.22271a25.40332,25.40332,0,0,0,2.04318-7.21365,23.72773,23.72773,0,0,0-.46188-7.71705,27.50116,27.50116,0,0,0-2.85817-7.09674,41.80083,41.80083,0,0,0-9.58607-10.98127,72.21184,72.21184,0,0,0-11.70082-7.83252,96.52959,96.52959,0,0,0-19.58583-7.97424,73.513,73.513,0,0,0,8.16891-3.15782q6.34785-1.97827,12.77872-3.78432c16.49911-4.73816,34.25886-7.28331,52.06061-11.38352a184.26582,184.26582,0,0,0,26.46976-7.895c2.17392-.79208,4.28868-1.80652,6.4187-2.72242,1.06311-.47334,2.13957-1.08481,3.20267-1.62161l1.59371-.83264,1.52022-.94715A62.885,62.885,0,0,0,663.968,256.77666a51.01359,51.01359,0,0,0,5.69629-12.7353,36.77252,36.77252,0,0,0,.88751-13.77121A33.84746,33.84746,0,0,0,665.69153,217.67132Z"/></g></g></svg>