<svg xmlns="http://www.w3.org/2000/svg" viewBox="0 0 633.45508 667.59416"><defs><style>.cls-1{fill:#24373e;}</style></defs><g id="Слой_2" data-name="Слой 2"><g id="Слой_1-2" data-name="Слой 1"><path class="cls-1" d="M541.28965,17.39815C502.18044,1.3274,458.65562-3.274,417.65617,2.20855A249.34482,249.34482,0,0,0,299.19853,50.83124a255.3379,255.3379,0,0,0-47.23831,46.61508,260.76361,260.76361,0,0,0-34.06784,58.174,266.10367,266.10367,0,0,0-18.4163,66.06455c-.32593,2.38893-.6085,4.66448-.85393,6.86232q2.83054-2.03849,5.71911-4.01265c.09075-.70291.17785-1.39682.27637-2.11852a260.95143,260.95143,0,0,1,18.0559-64.7677,255.55268,255.55268,0,0,1,33.389-57.01722A250.1023,250.1023,0,0,1,302.32566,54.977,244.208,244.208,0,0,1,418.32872,7.35832a231.07551,231.07551,0,0,1,74.91341,2.36176c-3.27477-.25149-7.54545-.59953-12.22482-.75309-6.502-.32334-13.74687-.22692-20.03134-.09325a286.73013,286.73013,0,0,0-35.78272,3.79138c4.60707-1.12142,9.37684-2.00193,14.2039-2.86848,4.856-.62152,9.76187-1.48543,14.72387-1.74243,1.86443-.0807,3.72546-.16194,5.62526-.2448,5.0965-.14069,9.35933-.03051,12.692-.08047,3.25808.12043,5.65276.20837,7.11327.26244,1.39166.042,1.91721-.006,1.23505-.12023-.9482-.15916-2.38547-.3559-4.2803-.59326-2.62343-.39217-6.14381-.62757-10.44631-.88752-4.3047-.38219-9.38073-.35341-15.13357-.449-1.18617-.04357-2.42754.03317-3.83844.07763a217.45271,217.45271,0,0,0-46.94461,5.97839,222.32823,222.32823,0,0,0-68.72207,29.03568,196.7937,196.7937,0,0,0-53.34884,50.072q-2.47295,1.687-5.51083,4.07664c-1.95124,1.652-4.05263,3.57433-6.3554,5.7377,14.45461-23.09529,35.19094-43.86947,59.6195-59.844.13914-.09661.25879-.17954.39319-.27259.16607-.11467.32955-.22717.4866-.33552.24594-.19348.46646-.366.72918-.57229.58056-.49419.881-.86829.66276-.944-.34662-.11994-1.7986.52193-3.3284,1.46691l-.22356.12646C278.19494,69.16585,241.32678,114.606,222.2118,167.60421c-.04349.14706-.07984.27024-.12212.41411-.07554.25807-.14793.5017-.21973.7476-.03646.17081-.06846.32139-.10287.48175a7.31781,7.31781,0,0,0-.11617.73673l-.01194.23205a2.38941,2.38941,0,0,0,.048.69624.88192.88192,0,0,0,.12009.3519c.35292.34976,1.06745-.47144,1.71853-1.83824l.09551-.21017c.08786-.19229.16726-.36715.26112-.5722A202.95713,202.95713,0,0,1,247.282,125.61763c2.26972-3.35447,4.79891-6.31187,7.046-9.14531,2.22686-2.84845,4.56283-5.34308,6.713-7.64084l.23073-.25434a95.421,95.421,0,0,1,8.45049-8.2537,51.80881,51.80881,0,0,1,6.73908-5.26721,26.51719,26.51719,0,0,1,3.3897-1.88351c2.96463-1.296,3.8492-.12616,2.6849,3.26108a108.092,108.092,0,0,1-7.2141,13.99766c-3.13066,5.68118-6.728,11.87972-9.61017,17.39972-5.6636,10.6836-11.22575,22.14889-16.55338,35.03572.77631-4.36351,1.92091-8.86349,3.05316-13.53891,1.40423-4.55659,2.61706-9.39123,4.43483-14.00374l.65765-1.24994c1.32548-2.45663,2.49255-5.00452,3.903-7.37306,4.88293-8.99458,8.43484-14.90858,9.57536-17.50441.61029-1.28066.62538-1.92659-.0725-1.58971a23.65871,23.65871,0,0,0-4.71945,3.721l-.17157.16792a81.89414,81.89414,0,0,0-7.849,8.42232c-1.454,1.76515-3.04853,3.66071-4.63964,5.75165q-2.305,3.24417-4.83061,6.8002l-.98434,1.40868a195.23639,195.23639,0,0,0-21.52353,44.10089,226.58891,226.58891,0,0,0-8.40778,33.82129c-.231,1.52947-.43293,3.06512-.63451,4.60088q5.103-3.10477,10.33873-5.99581c.17889-.76058.36956-1.53488.5848-2.3363.53685-1.99208,1.09365-4.05592,1.66658-6.17674.65391-2.09676,1.32507-4.25108,2.01034-6.44681,1.25642-4.40738,2.97749-8.87436,4.51448-13.436-.23658,2.86883-.474,5.7515-.70853,8.60273-.20145,4.43009-.25268,8.8542-.26008,13.23648-.23346.92329-.46353,1.83317-.69547,2.75.27424-.14158.54546-.2896.81992-.43016.75389-.38607,1.52465-.75087,2.28358-1.131-.044-1.09742-.07085-2.07775-.03982-2.74038l.00021-.00182c.00187-.35909.00348-.61463.00469-.7597l.00065-.01543.06417-8.29041c.02888-1.83906.22373-3.64888.33634-5.48353.208-2.59579.35023-5.2311.65015-7.84831q.52741-3.92875,1.0597-7.8814l.00793-.059.00492-.03157a189.84972,189.84972,0,0,1,9.80107-37.47738c2.29485-3.26533,4.40438-6.285,6.43373-8.91552,2.10756-2.58848,4.02117-4.84914,5.69734-6.72724-1.27211,2.8034-2.56808,5.662-3.9026,8.60451-1.14143,2.9946-2.31482,6.07423-3.53249,9.26714a188.01122,188.01122,0,0,0-8.77954,36.64311c-.43637,4.16719-1.07618,8.21919-1.21478,12.34472l-.41092,8.27482a4.92418,4.92418,0,0,0,.08649.97169l.03223,2.36506c-1.03,2.39935-2.03655,4.40061-2.94042,6.09716,1.27155-.61642,2.55234-1.21592,3.83551-1.81465.25894-.59872.52394-1.21451.79814-1.85352,2.13734-5.42719,4.44727-11.54991,6.812-18.24262a334.99051,334.99051,0,0,1,13.44288-32.63818,314.29987,314.29987,0,0,1,16.52555-30.7612,267.57737,267.57737,0,0,1,50.92692-60.99,229.97465,229.97465,0,0,1,20.04875-15.52531c3.19765-.80649,6.916-2.33376,11.35771-3.82581A241.06764,241.06764,0,0,0,333.977,60.92669a248.27657,248.27657,0,0,0-28.2198,29.95093c-.08554.115-.1581.212-.24018.321-.12384.166-.24129.32329-.358.4782-.097.1511-.18258.28439-.27365.42534l-.2297.39656a2.75308,2.75308,0,0,0-.13885.32581,1.56091,1.56091,0,0,0-.07729.2886.38248.38248,0,0,0,.02238.19111c.01133.03493-.00795.10464.01607.126l.05918-.00238s.00764.04.02491.04308c.04034.00755.11272-.03693.1642-.04933a.63771.63771,0,0,0,.17777-.054l.33347-.20782c.08633-.05731.16363-.10887.2531-.16893.15072-.13018.30752-.26461.468-.40294l.26583-.237c.26157-.25419.53093-.53658.801-.851,0,0,1.527-1.77549,4.198-4.88216,1.294-1.60175,3.09289-3.31873,5.03992-5.41844,1.9524-2.0959,4.18861-4.43317,6.7899-6.81751A227.21314,227.21314,0,0,1,364.56,42.9463a231.54988,231.54988,0,0,1,48.35054-21.17553c3.45176-1.152,6.6821-1.95644,9.54878-2.68318,2.86806-.71235,5.35594-1.45108,7.44808-1.81706.31648-.06464.6024-.12331.89806-.18355q-5.0508,1.19381-10.0294,2.62759c-5.00858,1.39-10.0888,3.01842-15.09051,4.838a223.54036,223.54036,0,0,0-83.44494,53.36069,214.8825,214.8825,0,0,0-32.9342,43.54284c-.18556.28078-.352.56774-.52108.864l-.19989.34739a212.456,212.456,0,0,0-20.433,50.85746,195.95781,195.95781,0,0,0-4.12753,19.82947q2.80029-1.067,5.62091-2.0714c.94444-5.53341,2.10937-11.04241,3.53657-16.46263a207.1807,207.1807,0,0,1,19.91406-49.58086l.19811-.34306c.11912-.208.23193-.41166.36568-.6078l.10277-.16317a209.71987,209.71987,0,0,1,32.18007-42.57086A218.44168,218.44168,0,0,1,407.452,29.43613c4.88373-1.77622,9.8337-3.363,14.73776-4.72342,36.91169-10.64184,77.13281-11.12511,116.31373-1.399,21.93881,6.16679,31.8476,10.9411,55.20676,22.52344C571.79345,31.41326,561.95526,25.974,541.28965,17.39815ZM412.72368,13.191l.22584-.06694A200.94272,200.94272,0,0,1,449.61174,6.4491c3.75643.03873,7.2496.07524,10.42314.10848,3.10437.0584,5.81991.32334,8.06794.44535-2.60672.046-5.26565-.01657-7.99167.14809-2.71813.18341-5.515.37212-8.41667.56717a197.224,197.224,0,0,0-37.731,7.22566l-4.584,1.47255c-2.15716.73805-4.34525,1.32725-6.44965,2.19781L395.18049,21.652l-.07025.03028-.01085.00441c-1.62161.60937-3.203,1.40072-4.79759,2.13356-3.16171.91116-5.7848,1.58837-7.935,2.09067-2.11442.5962-3.75648,1.01432-5.00061,1.28763,2.32019-1.19191,4.63072-2.43215,7.016-3.44085l.22766-.10177,1.64556-.7373c2.93067-1.25326,5.80693-2.704,8.824-3.75567q4.33176-1.60979,8.69809-3.23274Q408.23932,14.56452,412.72368,13.191Zm26.883,1.87433.04781-.02847a.557.557,0,0,1-.0806-.01941.359.359,0,0,0-.13334-.03229l-.26443-.00618a2.69619,2.69619,0,0,0-.34448.01943c-.149.01845-.29657.0362-.45539.056-.16536.02315-.32505.04624-.50127.07209-.2.03346-.3996.06646-.61156.10265-.12388.02013-.23191.03841-.3611.05985a271.2264,271.2264,0,0,0-35.31978,8.44564c-11.7629,3.4897-21.70015,7.357-30.10983,10.16657-6.012,2.25063-11.25508,3.76584-14.95809,4.78555a17.00893,17.00893,0,0,1-5.48658.712c-2.60876-.30566-1.42137-2.49841,3.456-5.92441a45.75158,45.75158,0,0,1,6.72954-3.9751,96.37192,96.37192,0,0,1,13.10557-5.57451c2.09819-.73861,4.272-1.50312,6.50605-2.28908,2.26914-.68741,4.60059-1.39333,6.97772-2.11354,4.71054-1.56473,9.774-2.66629,14.81975-4.04316-3.665,1.34155-7.355,2.62754-10.93282,4.0541,0,0-8.83816,3.8666-8.86493,3.87775l-.45048.20078c-3.75112,1.36971-7.4732,2.72825-11.098,4.05206,0,0-1.47585.53015-1.53907.58305a24.36086,24.36086,0,0,0-2.23842,1.08564c-1.10836.61519-1.74082,1.11431-1.59023,1.25371.22365.21084.97408.38438,3.334-.05064.31227-.06619.69677-.146,1.12212-.23505l.06753-.01891c1.1954-.26887,3.22634-.6414,6.19836-1.46454,3.203-.93232,7.20415-2.097,12.11356-3.52654,5.276-1.70561,11.21048-3.24042,17.48606-5.0599a305.90746,305.90746,0,0,1,33.39579-6.84949,280.66833,280.66833,0,0,1,33.85264-2.53372c4.98459-.01984,9.96079.12417,14.92433.40314A225.60144,225.60144,0,0,0,438.691,15.392c.0778-.02388.15243-.04672.23091-.07039l.38666-.1151.16755-.06615.1426-.05536C439.63239,15.07549,439.60666,15.0653,439.60666,15.0653Z"/><path class="cls-1" d="M265.74036,167.691c.68753-2.29148,1.40094-4.25147,1.92828-5.88995,1.08494-3.26625,1.73179-5.13089,1.73179-5.13089A9.85823,9.85823,0,0,0,269.75,155.588c.02559-.12194.04705-.22524.07089-.34116.04658-.215.09118-.42334.11249-.61261l.01379-.31021a2.4118,2.4118,0,0,0-.01-.41284.88425.88425,0,0,0-.06282-.21.93959.93959,0,0,0-.05228-.17665c-.01781-.02364-.04836-.00429-.06837-.02111-.01965-.015-.02341-.06352-.04607-.07328-.03338-.01567-.08346.02508-.1218.02477a.40165.40165,0,0,0-.20271.04256,1.19317,1.19317,0,0,0-.2293.16757,2.34322,2.34322,0,0,0-.24689.24781c-.08666.11617-.17276.23235-.26568.358-.08479.13317-.16826.26338-.26077.40763-.08887.16973-.1782.33856-.273.51958l-.16172.30675c-4.40129,10.46138-8.40661,21.33823-11.95045,32.36793-1.14258,3.49919-2.21235,6.85739-3.246,10.07914q3.30991-1.42455,6.64731-2.76429c1.19541-7.27481,2.66706-14.03693,4.17646-19.76565C264.3671,172.589,265.09535,169.99209,265.74036,167.691Z"/><path class="cls-1" d="M541.62241,314.56715c4.08247,4.16307,7.52354,7.65173,9.73891,10.25465,2.23816,2.59125,3.51782,4.073,3.51782,4.073a9.97807,9.97807,0,0,0,.7928.81427c.09557.07926.177.147.26843.22208.16938.13435.33235.26287.49063.3878l.269.15913a2.552,2.552,0,0,0,.37234.188.98512.98512,0,0,0,.21763.0461.93591.93591,0,0,0,.18308.03872c.02877-.00391.02684-.04.05159-.04893.02293-.00974.06747.01047.08831-.00391.029-.02171.01779-.08376.03653-.11671a.37543.37543,0,0,0,.06119-.19374,1.12952,1.12952,0,0,0-.03737-.2766,2.15424,2.15424,0,0,0-.1-.32827c-.06125-.13018-.12249-.25922-.18837-.399-.07753-.13637-.1531-.26947-.23619-.41724-.10732-.15673-.21465-.31345-.32854-.48077-.0665-.09758-.12551-.18388-.19408-.285a338.08229,338.08229,0,0,0-22.00675-26.31928c-2.73654-3.08762-5.432-5.92873-7.96386-8.70235q-.43839,3.61694-.97122,7.22524A194.29328,194.29328,0,0,1,541.62241,314.56715Z"/><path class="cls-1" d="M532.91066,235.71892q-2.67762-2.05407-5.369-4.01422l.00266.02855c.0601.6342.11635,1.2453.16947,1.83693l.00227.02447c.05335.59208.10334,1.16536.15069,1.724l.00228.025c.096,1.13378.181,2.21164.25812,3.26735.53319.40247,1.06726.80277,1.598,1.20992a259.04973,259.04973,0,0,1,47.07055,47.68485,251.8133,251.8133,0,0,1,33.82,60.08342,255.45472,255.45472,0,0,1,15.51306,59.51648,209.26676,209.26676,0,0,1,2.10657,27.59538q-.00636-.30616-.02122-.62392l-.00314-.25538a247.32377,247.32377,0,0,0-16.88206-79.83006,234.84872,234.84872,0,0,0-18.06178-37.31565,242.65394,242.65394,0,0,0-24.29926-34.08544c-.10462-.11082-.19263-.20478-.2937-.31314-.18335-.19557-.3573-.38057-.53194-.56693-.12713-.11695-.2411-.221-.3617-.33074a7.17914,7.17914,0,0,0-.57252-.4715l-.19369-.12674a2.37,2.37,0,0,0-.62119-.30783.87185.87185,0,0,0-.36158-.07239c-.47666.13129-.12974,1.16534.71695,2.41641l.13225.18869c.12109.173.23114.33008.36028.51438a197.28393,197.28393,0,0,1,25.564,41.54543,184.19155,184.19155,0,0,1,7.72553,20.15983l.11276.32033a133.39674,133.39674,0,0,1,4.12206,19.83563,16.36833,16.36833,0,0,1-.06841,3.86594c-.43353,3.23864-1.87751,3.42768-4.13229.71331-4.813-5.20726-12.12986-19.62-18.8468-30.04559a383.02471,383.02471,0,0,0-22.0869-31.618,180.43028,180.43028,0,0,1,20.14338,20.05478c.262.38921.52983.77144.76489,1.17814,1.46428,2.36191,2.929,4.727,4.3749,7.06015,5.20258,8.58676,8.73487,14.41881,10.28255,16.97306.76184,1.17942,1.35087,1.49231,1.393.72942a27.41529,27.41529,0,0,0-.682-6.015l-.05509-.23276c-.76529-2.93526-1.91339-6.61582-3.40429-10.93852-1.63075-4.24082-3.62912-9.121-6.16792-14.3778l-.76752-1.5221c-5.83815-11.71325-13.69761-24.73644-27.42585-40.44379a209.57029,209.57029,0,0,0-25.0638-24.01209c-1.40667-1.13895-2.84213-2.24235-4.28208-3.34q.09763,5.85447-.04321,11.72167c.80867.73177,1.62963,1.51537,2.45988,2.36772,2.8912,2.94346,6.05058,5.98832,9.08415,9.42953q2.32074,2.51634,4.72342,5.11978,2.292,2.69473,4.63358,5.44728c-2.36667-1.63937-4.6549-3.36649-7.06956-4.87815-3.80322-2.27923-7.42533-4.71331-11.33729-6.73087-.94855-.90032-1.87483-1.82-2.79724-2.73885-.06611,1.27178-.1465,2.54348-.22927,3.815,1.28464.682,2.47045,1.31185,3.2201,1.70973l.00137.001c.31772.16865.54479.28826.67327.35666l.01345.00735,7.08911,4.20087c1.55561.95412,3.13793,1.89086,4.61472,2.95144,4.27329,2.93454,8.63109,5.90558,12.71913,9.28173l.04606.0371.025.01994a178.2405,178.2405,0,0,1,27.52144,27.01575c1.85709,3.48557,3.18581,6.94913,4.48218,9.98679a72.166,72.166,0,0,1,3.00958,8.23172c-1.66667-2.57907-3.57178-5.06907-5.54371-7.59722-1.97689-2.52391-3.9124-5.15561-6.216-7.65924a174.19907,174.19907,0,0,0-27.30932-25.707l-4.94336-3.72447L542.4539,292.646c-2.30707-1.51632-4.55-3.07432-6.96791-4.41707a4.88826,4.88826,0,0,0-.87669-.41118l-2.045-1.15592c-1.9075-2.69107-3.41942-4.91233-4.58387-6.76053-.10945,1.457-.25339,2.91277-.385,4.3688.636.847,1.31024,1.7251,2.04159,2.64747,1.7512,2.33691,3.77122,4.64015,5.82681,7.14027,2.02034,2.537,4.24106,5.09528,6.57818,7.73956,15.22661,18.03014,28.80872,36.94263,39.79226,57.33347a265.89612,265.89612,0,0,1,27.70229,74.07459c.78592,4.27517,1.789,8.48927,2.35276,12.66054q.67571,6.27555,1.32566,12.30559c-.37034,1.5823-.6369,3.36559-1.01112,5.322-.455,1.955-.89171,4.087-1.30242,6.376-.01072-6.6614-1.06864-13.19679-1.80005-19.53356-.52559-6.35214-2.18874-12.44652-3.27823-18.352a260.34627,260.34627,0,0,0-11.95723-39.1581c-.05457-.1316-.1-.24253-.15156-.36826-.07839-.19035-.15282-.37019-.226-.54754-.07923-.15972-.14932-.30047-.22368-.44957-.08919-.13354-.17387-.25884-.258-.38471-.08316-.0973-.1568-.18267-.23514-.2739a1.6541,1.6541,0,0,0-.21589-.20682.39238.39238,0,0,0-.17991-.07369c-.03636-.00759-.08732-.05813-.11773-.048l-.0274.05221s-.03766-.01234-.04955.00115c-.02556.03076-.02169.11454-.03685.165a.66886.66886,0,0,0-.03841.18036,2.69741,2.69741,0,0,0,.03275.38608c.01424.10012.026.191.04051.29551.0402.19366.083.39513.12488.601l.06744.34809c.08349.35441.18736.72858.31759,1.11974,0,0,.73728,2.208,2.02846,6.07169a139.62982,139.62982,0,0,1,4.8304,16.23346c.83712,3.4227,1.74358,7.131,2.70166,11.053.62931,3.99552,1.29271,8.20836,1.979,12.56649.29286,2.1897.8271,4.40565.94066,6.67806q.25269,3.41088.51,6.89521c.27686,4.64584.92193,9.392.70025,14.13532.70392,19.07664-2.492,38.11106-5.36208,52.26279-1.84149,6.974-3.11856,12.92053-4.44417,16.93854-1.36675,4.00945-2.14853,6.301-2.14853,6.301-.12771.39875-.24905.776-.36754,1.14381-.03623.124-.06672.2319-.101.34916-.05986.2147-.11731.41906-.1739.62013l-.07105.30021-.08466.3938-.01845.18039-.01735.15248c.0022.01654.02313-.00045.02313-.00045l.00258.05623a.72187.72187,0,0,1,.05316-.062.32254.32254,0,0,0,.09021-.1009l.12709-.22919c.04981-.103.09651-.19986.15035-.30949l.1815-.41945c.06293-.1536.12364-.30322.19125-.466.07213-.18908.14358-.37724.21922-.57724.04469-.11691.08432-.21812.13054-.34094q1.53251-4.19262,3.08622-8.44227,1.23037-4.33278,2.473-8.71117,1.26946-4.3357,2.54769-8.70553.96378-4.42105,1.93213-8.86382,1.01855-4.42345,1.98816-8.62925.72168-4.1586,1.40635-8.11078c.83645-5.2063,2.16271-9.93293,2.66249-14.299a112.33231,112.33231,0,0,1,3.37609-15.2861,16.30211,16.30211,0,0,1,1.92356-5.09748c1.48422-2.10829,2.87593-.00324,3.632,5.90492a104.98033,104.98033,0,0,1-1.58989,21.86279c-.88472,4.341-1.83446,8.99614-2.823,13.83814-1.01927,4.8304-2.6332,9.74025-3.92445,14.78115.65547-3.8167,1.31351-7.64783,1.96383-11.434,0,0,.0975-.59069.24387-1.47821.07456-.89975.17345-2.09972.273-3.30061.18691-2.39779.37568-4.8142.37568-4.8142l.0361-.49087c.68059-3.91618,1.59311-7.77336,2.10264-11.57459,0,0,.17721-1.54607.18576-1.62395a24.0263,24.0263,0,0,0,.15535-2.47223c.00937-1.2624-.11487-2.05521-.30912-1.99391-.29356.08994-.81368.65375-1.59558,2.9095-.096.30272-.21442.6745-.34654,1.0869l-.01682.06731c-.52212,2.3552-2.52042,7.7696-4.64853,18.30307-.45282,2.7203-1.28965,5.51246-2.04346,8.44616q-1.096,4.47507-2.24342,9.1617a273.55131,273.55131,0,0,1-24.849,62.84009,240.35118,240.35118,0,0,1-15.24,24.142c-.60047.65226-1.19,1.31484-1.79753,1.96047a247.84509,247.84509,0,0,0,13.32441-21.39281l6.70489-13.13772.06891-.14583c1.24576-2.86711,2.44283-5.7959,3.60138-8.62746.68164-1.66764,1.36284-3.33279,2.01772-4.90581a80.80512,80.80512,0,0,0,3.53121-9.83487c.4413-1.42262.88216-2.84274,1.37266-4.29055l2.23113-7.00263c.4855-1.7313.88111-3.469,1.26366-5.14985q.23175-1.01787.46768-2.02647l1.67392-7.06144a63.975,63.975,0,0,0,1.43-7.33083l2.14705-14.21451.02255-.20187q.14613-2.06293.3014-4.1203a209.48029,209.48029,0,0,0,.85206-24.72664c-.54123-21.11728-3.28559-39.51337-8.3792-56.20237A221.04907,221.04907,0,0,0,574.579,362.688a209.1022,209.1022,0,0,0-34.17531-43.63765,192.98178,192.98178,0,0,0-15.46142-13.61344l-.00054.00284q-.48221,2.93635-1.02413,5.85514l-.00076.00409c4.44622,3.62492,8.75949,7.447,12.859,11.468a203.91054,203.91054,0,0,1,33.32974,42.55951,215.92133,215.92133,0,0,1,21.24493,49.20876c4.96479,16.26834,7.63538,34.211,8.16615,54.90289a202.63631,202.63631,0,0,1-.8412,24.15923q-.15,2.01535-.29541,4.03632l-2.011,13.40637-.136.81154a59.61363,59.61363,0,0,1-1.33257,6.80115l-1.67392,7.06145c-.16259.68727-.32015,1.37767-.47769,2.07033-.36908,1.61926-.75033,3.29376-1.17436,4.81352l-2.19023,6.86886c-.48962,1.44508-.94459,2.90775-1.4,4.37292a75.97446,75.97446,0,0,1-3.32686,9.29146c-.69616,1.6671-1.38179,3.34476-2.06875,5.02425-1.1377,2.78214-2.31352,5.65788-3.52551,8.45071l-6.626,12.9868q-1.20092,2.16634-2.44631,4.307c-10.35048,17.79338-22.87273,35.22143-38.26594,48.98394-14.55188,13.01086-25.52727,22.08066-42.28852,34.71009,25.9563-14.52346,37.59864-22.52793,52.26541-34.35143,16.03367-12.83234,30.07634-29.69766,42.57371-46.06051l8.9531-12.53857.09032-.13629c1.62972-2.61472,3.23056-5.3081,4.77871-7.913,1.0647-1.79087,2.12982-3.58425,3.17657-5.30781a89.82282,89.82282,0,0,0,5.21343-9.73451c.68809-1.4225,1.37481-2.84544,2.11846-4.29184l3.4468-7.01662.048-.10322c.63342-1.44693,1.2091-2.90532,1.76574-4.31634.39235-.99412.78424-1.98914,1.21519-3.02582l2.86563-7.25463a67.71366,67.71366,0,0,0,2.72626-7.64139l4.61121-15.07188.05033-.18988c.08527-.37872.17424-.74908.2632-1.12058.09335-.38742.18578-.7755.27541-1.17241l.40149-1.78629c2.00156-8.88513,4.07007-18.0735,5.02875-27.32715,2.87936-23.1847,2.8675-45.013-.03233-64.852a260.60092,260.60092,0,0,0-15.82525-60.70023A256.96687,256.96687,0,0,0,580.93687,284.372,264.23827,264.23827,0,0,0,532.91066,235.71892Zm73.44,288.04707,1.1356-4.64552c.437-2.22441.72756-4.47872,1.08849-6.70807l1.22-8.19257.00857-.07618.0017-.01113c.19758-1.716.57129-3.41974.62169-5.17894a119.41873,119.41873,0,0,1,3.38015-12.867l-.53761,7.757-.01915.24856-.12719,1.7934-.36277,4.76656-.75485,4.70638q-.75717,4.53661-1.52262,9.10768l-.798,4.58714-1.17138,4.51-.0611.22674c-1.91762,6.88879-3.3253,13.333-5.69374,18.98762-1.0883,2.87081-2.13724,5.63656-3.15409,8.3192q-.77945,2.01631-1.53655,3.97332-.9157,1.89292-1.80737,3.73822c-1.86525,3.24077-3.59978,6.25391-5.17546,8.99139q-1.14351,1.97969-2.16837,3.75044c-.73063,1.1269-1.46312,2.13167-2.09816,3.05747a60.71678,60.71678,0,0,0,3.71226-7.03234c1.1636-2.44895,2.36074-4.97092,3.60281-7.58542,3.01112-5.83507,4.90816-12.15206,7.13914-18.15913l1.58668-4.51354c.48149-1.51158.82152-3.0624,1.22882-4.57644Q605.23579,528.18974,606.35063,523.766Zm-27.532,61.09489c1.64571-2.83831,3.35412-5.78451,5.04513-8.699a90.32853,90.32853,0,0,0,4.73941-8.67121c2.37536-5.0787,5.1396-10.14629,7.46431-15.63041,2.14388-5.56017,4.675-11.187,6.8198-17.21493-1.21074,4.56832-3.008,9.04556-4.57389,13.67209-.849,2.28782-1.57563,4.6475-2.561,6.902l-3.09739,6.72087c-.8371,1.65893-1.67264,3.31479-2.52578,5.00416a121.7657,121.7657,0,0,1-6.17488,11.01209q-1.50143,2.54589-2.50964,4.25457l-1.34641,1.88614q-1.9992,2.617-4.07039,5.17806C576.94389,587.88886,577.88579,586.41843,578.81868,584.86088Zm47.32521-114.21515c-.93254,9.00094-2.96713,18.03632-4.93518,26.77437l-.40194,1.78766c-.08351.37212-.17117.73725-.25884,1.10238-.08678.36241-.174.725-.25756,1.09376l-4.59844,15.03115a63.42065,63.42065,0,0,1-2.55673,7.15684l-2.86563,7.25463c-.42611,1.02166-.83041,2.047-1.23472,3.07114-.53181,1.35045-1.08271,2.74487-1.66858,4.08767l-3.40053,6.92227c-.741,1.44275-1.44774,2.90331-2.154,4.36477-.902,1.86654-1.78424,3.66768-2.72583,5.428,2.54347-5.02746,5.02091-10.52768,7.9198-16.61583,1.36459-3.62257,2.80169-7.44069,4.33548-11.51118q1.14888-3.08076,2.37231-6.35753.96168-3.37036,1.98858-6.96331a220.30726,220.30726,0,0,0,8.754-73.74068c-1.36677-24.86787-7.0921-49.36354-17.1036-70.79379-.05479-.9999-.11441-2.07767-.23592-3.21121q-.31059-1.70468-.64171-3.52848-.73455-3.73422-1.84738-8.30951a199.87641,199.87641,0,0,1,22.49957,80.981c.01658.167.03159.31148.04744.47317l.05895.58578c.04992.30778.09477.58339.14853.912.1519.745.33446,1.18774.5063,1.03649a6.06041,6.06041,0,0,0,.34855-2.78315A265.11341,265.11341,0,0,1,626.14389,470.64573Z"/><path class="cls-1" d="M523.17478,229.705l-.064-.52-.00324-.00632a287.54723,287.54723,0,0,0-14.82945-66.19954,299.42425,299.42425,0,0,0-15.443-36.30942A320.70045,320.70045,0,0,0,472.5189,92.47085a296.99515,296.99515,0,0,0-56.7617-61.48859q-3.24687,1.047-6.46778,2.2108A292.71723,292.71723,0,0,1,467.992,95.70055a312.108,312.108,0,0,1,20.06136,33.57332,293.31271,293.31271,0,0,1,15.26019,35.60755,269.43063,269.43063,0,0,1,8.96484,30.56827,293.186,293.186,0,0,1,5.714,34.74968l.05446.42569c.35113,3.57415.59565,6.3949.78769,9.091a280.21119,280.21119,0,0,1-3.01956,63.53251l-.11623.83676a278.68506,278.68506,0,0,1-26.38092,80.90384c-3.98373,7.85914-8.36617,15.52558-13.05843,22.87688,2.3006-.3773,4.61091-.7946,6.93253-1.28495,3.82528-6.23862,7.42874-12.67562,10.75816-19.2438a283.89412,283.89412,0,0,0,27.00723-83.22807l.12-.87173-.00047-.0009a285.39308,285.39308,0,0,0,2.93909-63.87992C523.81193,236.4992,523.55276,233.523,523.17478,229.705Z"/><path class="cls-1" d="M321.18252,102.76048c-2.403-.33384-4.86293-.67667-7.36333-1.02443q-3.22856,4.14535-6.28047,8.48431c.12562.04223.24043.08116.37128.12526,1.43574.438,3.12338,1.09971,5.062,1.86538,1.93458.77172,4.17868,1.53308,6.50311,2.626a179.57356,179.57356,0,0,1,61.96068,43.75578c1.84768,1.89718,3.42445,3.73992,4.79869,5.39749,1.37737,1.65367,2.65739,3.0438,3.59745,4.27469,1.89642,2.45913,2.97947,3.8641,2.97947,3.8641a3.58655,3.58655,0,0,0,.7623.72133,3.30116,3.30116,0,0,0,.3058.16876,3.42158,3.42158,0,0,0,.57476.27946,3.0097,3.0097,0,0,0,.36343.076,2.52347,2.52347,0,0,0,.53066.05817,1.99327,1.99327,0,0,0,.36829-.05527,2.31884,2.31884,0,0,0,.30848-.048c.05719-.02074.08481-.07307.13764-.099.0535-.02683.12-.02271.1705-.05484.07529-.04824.10694-.13.16988-.18956a1.45541,1.45541,0,0,0,.28481-.314,1.62215,1.62215,0,0,0,.17261-.37729,1.91966,1.91966,0,0,0,.09872-.41753,2.32955,2.32955,0,0,0-.00609-.467,2.51809,2.51809,0,0,0-.08189-.4709,343.96177,343.96177,0,0,0-.31492-.80855c-5.15513-9.02818-10.54273-18.28945-16.30373-27.60167-6.07907-9.90662-10.879-19.40447-13.90442-29.1398a71.385,71.385,0,0,1-2.46385-9.97393,52.39863,52.39863,0,0,1-.961-9.49224,34.3883,34.3883,0,0,1,1.25964-9.86932c2.10946-7.10557,7.43021-11.3581,14.67838-10.52627,3.85641.363,12.01519,2.66536,19.86221,13.25809,5.418,7.16984,11.05111,15.6632,16.55856,24.34512-2.73459-1.57-5.68178-2.91154-8.465-4.30112-4.32914-2.15122-8.94242-3.87257-13.34118-5.66961-2.38262-3.17541-4.73513-6.3104-7.03342-9.374l-.09322-.11637a5.05932,5.05932,0,0,0-2.60388-1.682,2.19637,2.19637,0,0,0-2.49879.7013A15.261,15.261,0,0,0,379.36,97.92151s-.03237.78242-.0349.84981a44.98167,44.98167,0,0,0,.62722,8.46827,53.309,53.309,0,0,0,1.40229,6.09406,65.48646,65.48646,0,0,0,2.34372,7.30259c1.17071,2.85071,2.37119,5.87081,3.82949,8.81187,1.50508,2.9,3.02075,5.95641,4.77559,8.953,11.508,20.15873,21.87987,39.43143,31.13281,59.3387,10.68266,22.7091,20.277,46.1026,27.53039,71.57478,1.09958,4.2,2.25449,8.39847,3.20515,12.56249.81519,4.15875,1.90817,8.30915,2.48656,12.37492a74.59247,74.59247,0,0,0-8.94624,10.61591,321.80529,321.80529,0,0,0-8.1059-36.74709,365.17608,365.17608,0,0,0-12.19163-36.616c-.05247-.12584-.13294-.21342-.19417-.32964a4.06152,4.06152,0,0,0-.28757-.48865,3.37238,3.37238,0,0,0-.34082-.389,3.0941,3.0941,0,0,0-.36227-.33188,2.18906,2.18906,0,0,0-.39136-.2201,1.81239,1.81239,0,0,0-.39387-.151,1.40251,1.40251,0,0,0-.40667-.02024,1.458,1.458,0,0,0-.26775-.00932c-.04413.01063-.07141.05138-.113.06528-.04251.01323-.09.0011-.13115.01873-.09237.04218-.15045.1346-.23016.19537a1.26553,1.26553,0,0,0-.24817.20971,1.84934,1.84934,0,0,0-.23331.40952,2.2838,2.2838,0,0,0-.13674.30992,2.79857,2.79857,0,0,0-.0753.589,3.04061,3.04061,0,0,0-.02876.33383,3.83206,3.83206,0,0,0,.18991,1.04067,15.164,15.164,0,0,1,.42395,1.45816c.256.95724.63249,2.36108,1.112,4.14806,1.05372,3.56194,2.17746,8.73764,3.40159,15.00955a197.21857,197.21857,0,0,1,2.73111,47.06112,199.30843,199.30843,0,0,1-8.82934,47.14076c-1.96739,6.31427-4.00378,11.44844-5.40336,15.065-1.46133,3.58665-2.41033,5.59121-2.41033,5.59121a5.59252,5.59252,0,0,0-.34093,1.05725c-.01671.12594-.0311.233-.04676.34931a4.17529,4.17529,0,0,0-.059.632,3.00756,3.00756,0,0,0,.0375.33693,2.30074,2.30074,0,0,0,.0945.46159,1.41489,1.41489,0,0,0,.13834.25567c.04351.06661.06374.16451.11731.21628.03071.03271.07734.02194.11025.04782.034.02644.04842.08176.08626.10113.0561.03053.12572.00513.18617.01748a.75279.75279,0,0,0,.30971.03285,1.16828,1.16828,0,0,0,.32843-.09639,1.73273,1.73273,0,0,0,.33738-.17905,2.75128,2.75128,0,0,0,.34831-.29234,3.73794,3.73794,0,0,0,.32983-.35068,4.88921,4.88921,0,0,0,.32977-.47431c.06235-.09689.13537-.16961.19445-.27622,5.32859-9.67041,10.61226-19.71953,15.4088-30.10952a197.36683,197.36683,0,0,1,14.91252-27.42737,66.24782,66.24782,0,0,1,11.78371-13.75968,22.45653,22.45653,0,0,1,7.62937-4.51513c5.47909-1.73524,9.89829.74651,11.89165,7.30542a23.73087,23.73087,0,0,1,.88064,8.4986,43.91015,43.91015,0,0,1-.81316,6.67989,65.07356,65.07356,0,0,1-2.54233,8.17856c-1.67008,4.49813-3.85836,9.19327-5.88915,14.08525-2.32505,4.81475-4.4637,9.85827-7.07639,14.78842.456-4.17782.6181-8.41938.7215-12.56079,0,0,.11048-2.58544.09684-5.17512-.06583-2.59088-.13341-5.19967-.13341-5.19967l-.01757-.52834c1.65774-3.84792,3.06514-7.73516,4.46918-11.54717,0,0,.57483-1.54742.60468-1.62766a6.65187,6.65187,0,0,0,.4327-2.54817c-.0949-1.34917-.627-2.2585-1.33524-2.29408-1.09481-.061-2.87645.301-5.68812,2.21609-.35739.24457-.79354.55454-1.26285.93107l-.06134.06047c-2.61165,2.00416-7.56558,6.87228-13.409,16.273-3.11964,4.78918-5.91677,10.13915-8.87587,15.79373-5.15249,9.98536-10.3634,19.69921-16.01549,29.06005-5.65513,9.35158-11.53808,18.43577-17.72412,27.30365-.11425.16079-.234.317-.34834.47754.22469.06044.44685.12929.67187.18871a167.50572,167.50572,0,0,0,17.3489,3.57645c1.11951-1.81069,2.22235-3.586,3.27411-5.272,6.02924-9.67365,12.0263-20.0488,18.29107-31.52461a169.66476,169.66476,0,0,1-7.95914,29.89056c-1.03574,1.6427-2.07057,3.28438-3.12641,4.95846q-.995,1.57455-1.90584,3.03079c1.71842.17328,3.44006.315,5.1632.43628,1.2255-2.92112,2.40344-5.95237,3.62253-9.06794a177.762,177.762,0,0,0,9.25035-39.75667l.56458-5.00838.43564-7.13445q.30033-4.31461.23113-8.65369l-.01214-.08325.00124-.012c-.04011-1.80744-.08037-3.62905-.1213-5.45032a59.24255,59.24255,0,0,1,9.47319-11.41228c.20927,2.74136.20743,5.466.3395,8.22357l.00638.2617.07385,1.91837c.16924,3.412-.03864,6.76361-.07514,10.19894-.023,3.30987-.31438,6.58344-.59283,9.909-.247,3.33688-.58148,6.68889-1.1156,10.01152l-.04.24843A177.70315,177.70315,0,0,1,448.68812,403.225q-3.54849,3.76432-6.78869,6.75535,2.30025.09213,4.60161.123c1.30405-1.2801,2.63433-2.62805,3.99328-4.0602.87368-.99445,1.78528-2.03112,2.81873-3.2054,9.30328-10.68479,18.62131-24.19034,27.71035-44.69338a207.97883,207.97883,0,0,0,12.37872-39.69091,199.76135,199.76135,0,0,0,3.77784-41.642,178.79033,178.79033,0,0,0-5.17508-40.93585,169.49956,169.49956,0,0,0-13.7671-37.47764c1.76307-4.92127,2.50287-10.95332,2.824-18.43371,15.59374,26.19027,25.02788,58.3214,25.84275,91.58045.003.199.044.35637.05925.54631.0206.23105.03349.46207.07293.67037a5.55792,5.55792,0,0,0,.29847,1.05459c.34537.86021.85151,1.38622,1.44132,1.22776.93893-.25006,1.693-2.04883,1.75023-4.11239l.03843-.296a274.74816,274.74816,0,0,0-13.44251-93.11184,282.1446,282.1446,0,0,0-44.45139-84.41711c-.10479-.14064-.22429-.23045-.33717-.363a6.99876,6.99876,0,0,0-.60785-.65342,5.04366,5.04366,0,0,0-.46219-.34338,4.93511,4.93511,0,0,0-.76859-.45713l-.27977-.10346a2.47548,2.47548,0,0,0-.95022-.16753,1.6659,1.6659,0,0,0-.61715.07559c-.94568.46664-.93594,1.9466-.14894,3.51229l.12249.23529a6.64012,6.64012,0,0,0,.32456.65546c7.99307,11.76528,18.19,30.70191,23.22378,50.6416a112.16259,112.16259,0,0,1,2.73372,12.90819,99.87991,99.87991,0,0,1,1.30933,11.62334l.03308.39617c.66717,10.32935-.49876,18.48567-2.56914,24.16377a21.38947,21.38947,0,0,1-2.50151,4.86295c-2.92756,4.15006-6.79905,4.90475-10.90271,2.5657a26.24852,26.24852,0,0,1-6.05973-5.10269,87.997,87.997,0,0,1-5.7718-7.56247c-1.9627-2.74713-3.70272-5.75873-5.51164-8.69346-1.84912-2.917-3.55189-5.85364-5.06176-8.61443-6.18334-10.58088-12.51473-21.71788-19.82014-33.91566a169.07,169.07,0,0,1,24.23729,18.80868l.69073,1.297c1.37748,2.55736,2.80735,5.09074,4.26566,7.56283,2.5556,4.67149,4.84918,8.51645,6.84752,11.45332a42.73718,42.73718,0,0,0,4.43856,6.252c1.062,1.15191,2.27,1.27976,2.85074.2786a20.02633,20.02633,0,0,0,2.0856-7.46372l.02245-.28217c.80084-7.27531-.20088-17.90856-3.626-30.60684-.18131-.61885-.36049-1.22911-.54012-1.838-4.15112-14.102-11.19775-29.641-24.94305-48.51664a192.05157,192.05157,0,0,0-44.63194-42.72666c-3.32942-2.29537-6.7417-4.4577-10.20891-6.51754a211.91836,211.91836,0,0,0-50.62842,37.99359q-2.29458,2.329-4.52023,4.7503,2.40932.3068,4.86289.57925c9.2272,1.321,18.65442,2.94291,27.89425,5.19646a70.506,70.506,0,0,0,2.779,14.96487A383.40523,383.40523,0,0,0,321.18252,102.76048ZM421.79917,120.3989l.02921.01865a174.00512,174.00512,0,0,1,33.60448,26.50489,88.19252,88.19252,0,0,1,3.46417,21.92019,155.78822,155.78822,0,0,0-14.39812-15.39648,166.43449,166.43449,0,0,0-32.83636-24.05257c-3.82745-2.25144-7.90462-4.14821-11.75139-6.09857l-8.085-3.52359a3.09869,3.09869,0,0,0-1.05854-.2511c-.76809-.31094-1.54624-.607-2.35316-.87418a53.67322,53.67322,0,0,1-3.10321-15.21022c2.46281.8129,5.26495,1.86,6.659,2.44642l.003.00189c.36224.14043.61883.23924.76568.29623l.015.00768c2.76465,1.0874,5.65295,2.108,8.38165,3.34947l5.40541,2.54822c2.60691,1.1961,5.11275,2.54311,7.63085,3.938,2.49851,1.41,5.14583,2.75124,7.57211,4.33956Z"/><path class="cls-1" d="M488.352,370.51713a5.56714,5.56714,0,0,0,.27618-.8104c.03519-.18441.06761-.35087.10106-.52755a5.61813,5.61813,0,0,0,.09454-.82793l-.01094-.26393a2.31336,2.31336,0,0,0-.16326-.81784,1.11587,1.11587,0,0,0-.2333-.43553c-.60174-.49015-1.62733.27553-2.48654,1.6888l-.12448.21589c-.12037.19669-.23.37592-.35729.5847a187.21552,187.21552,0,0,1-26.94791,40.51533q4.64532-.26647,9.25722-.78793a275.76129,275.76129,0,0,0,20.437-38.09669C488.24975,370.79973,488.29924,370.66327,488.352,370.51713Z"/><path class="cls-1" d="M297.36321,126.19959l-.27032.43018c-.05188.07671-.09509.15924-.14192.24248l-.19833.34432A162.436,162.436,0,0,1,370.08905,171.999c3.7071,4.02537,6.9115,7.76345,9.82015,11.4581,1.41917,1.75308,2.87395,3.67139,4.68414,6.17354A178.85623,178.85623,0,0,1,396.804,209.43524a174.61243,174.61243,0,0,1,16.21959,43.97009c.81332,3.70556,1.55126,7.63891,2.19188,11.68933l.0546.29912a184.67,184.67,0,0,1-31.49468,131.87959c.3121.12764.621.26348.93375.38907,1.46046.5903,2.94153,1.15409,4.42931,1.7076a192.40187,192.40187,0,0,0,23.77765-47.12142,189.34745,189.34745,0,0,0,6.2407-99.72687A183.70945,183.70945,0,0,0,390.12209,186.142a196.86731,196.86731,0,0,0-14.92328-18.45814c-20.07613-21.63087-47.20351-38.44836-74.37031-47.28869Q299.05694,123.26146,297.36321,126.19959Z"/><path class="cls-1" d="M322.84138,198.22162c.22249-.01394.42312-.00215.65826-.03481,12.97161-1.62572,32.64777-2.4697,51.27074.799,4.596.77463,8.88774,1.81362,12.84708,2.74761-2.1741-3.48648-4.38807-6.7682-6.442-9.74071-.19391-.26794-.37053-.50656-.55683-.76131A269.69266,269.69266,0,0,0,323.314,194.9809c-.153.04389-.28772.083-.4317.12393-.28048.06985-.54317.13828-.79533.22838-.16593.06987-.31684.13348-.477.20126a5.30755,5.30755,0,0,0-.71536.37l-.20551.15283a2.19216,2.19216,0,0,0-.56715.57878,1.10124,1.10124,0,0,0-.22289.4321c-.06675.76925,1.1032,1.21287,2.70143,1.16592Z"/><path class="cls-1" d="M566.52463,367.43362c-.19255-.32591-.39746-.64093-.59181-.96534a160.8195,160.8195,0,0,1-32.58474,25.06382,170.88024,170.88024,0,0,1-39.767,16.80737,162.425,162.425,0,0,1-19.24909,4.049,174.703,174.703,0,0,1-69.79118-3.7735,181.35459,181.35459,0,0,1-81.21135-46.4076,183.37762,183.37762,0,0,1-30.01882-38.69023c-2.51827-4.19914-4.86109-8.55139-7.01994-12.98559-.24454.19846-.49583.39039-.73888.59008q-1.70986,1.39619-3.35824,2.81728c.11971.241.23411.48441.35472.72493,1.94125,3.94363,4.00231,7.82134,6.22778,11.60118A190.70255,190.70255,0,0,0,319.462,366.3257a186.736,186.736,0,0,0,83.64746,48.52082,179.66063,179.66063,0,0,0,92.46978.40385,177.25684,177.25684,0,0,0,41.58937-17.16371,185.02418,185.02418,0,0,0,32.878-24.41282Q568.33558,370.52728,566.52463,367.43362Z"/><path class="cls-1" d="M580.04643,394.78982c-1.352-3.30977-2.766-6.594-4.28414-9.8315-2.15733,1.90881-5.26723,4.55732-9.14948,7.582-3.92772,3.06163-8.67649,6.46-13.98913,9.83652-5.346,3.30985-11.196,6.68581-17.24749,9.651a180.84586,180.84586,0,0,1-34.83062,13.05484c-4.9351,1.341-9.13925,2.12928-12.06772,2.77655-2.95644.498-4.64628.78337-4.64628.78337a3.3536,3.3536,0,0,0-.95973.32739,9.03157,9.03157,0,0,0-.78078.5611,2.904,2.904,0,0,0-.22908.28314,2.5103,2.5103,0,0,0-.28973.43955,2.07981,2.07981,0,0,0-.11867.3491,2.43108,2.43108,0,0,0-.099.29459c-.00736.06018.02419.10955.02249.168-.001.06034-.03426.11669-.02961.17585a1.28218,1.28218,0,0,0,.08488.23973,1.50273,1.50273,0,0,0,.1395.3998,1.63134,1.63134,0,0,0,.24453.33063,1.82514,1.82514,0,0,0,.3117.2854,2.19771,2.19771,0,0,0,.40267.21659,2.42058,2.42058,0,0,0,.43788.15241,2.88286,2.88286,0,0,0,.52463.06752,2.94426,2.94426,0,0,0,.30932.03989c10.04623-.21248,20.39423-.62794,30.98912-1.19662a124.888,124.888,0,0,1,31.3534,1.97706,67.44285,67.44285,0,0,1,18.32143,6.56314,34.53128,34.53128,0,0,1,7.92782,5.96544c5.16557,5.3623,6.32331,11.94685,2.29695,17.809a22.25764,22.25764,0,0,1-6.226,5.9669A36.60916,36.60916,0,0,1,554.2577,474.865c-8.66448,1.09637-18.43395,2.13468-28.41515,2.64549,2.56377-1.72379,5.12085-3.38945,7.5336-5.29688,3.74786-2.9416,7.44816-5.73576,10.90721-8.94257,3.77667-.51924,7.603-.881,11.2448-1.57447l.14245-.02394a4.736,4.736,0,0,0,2.6453-1.40826,2.16439,2.16439,0,0,0,.545-2.49459,15.735,15.735,0,0,0-5.31993-5.27927s-.6602-.41292-.7177-.44843c-3.122-1.87139-10.05991-5.24965-20.7484-6.74137a70.03652,70.03652,0,0,0-9.2934-.87109,86.43713,86.43713,0,0,0-9.84868-.14169c-22.52205.42186-43.59794.41025-64.77875-.57843-24.2455-1.08421-48.7353-3.15618-73.95139-7.97711-4.20825-.69455-8.22166-1.76639-12.32015-2.60491q-6.0398-1.6028-11.8415-3.14234a61.7748,61.7748,0,0,0-5.14705-12.5652,335.7242,335.7242,0,0,0,35.47964,8.72635c11.50025,2.23787,23.95788,4.23447,37.06595,5.53726.13167.01121.2432-.01913.37044-.0199a3.64449,3.64449,0,0,0,.55-.02867,3.19,3.19,0,0,0,.48832-.12243,2.91149,2.91149,0,0,0,.44841-.167,2.1251,2.1251,0,0,0,.36781-.24648,1.7,1.7,0,0,0,.30762-.27834,1.43017,1.43017,0,0,0,.20257-.351,1.50928,1.50928,0,0,0,.12954-.23329c.01114-.04389-.01218-.08722-.00421-.13062.00729-.04362.03961-.07954.04439-.12473a1.42741,1.42741,0,0,0-.06385-.2938,1.294,1.294,0,0,0-.06635-.3176,1.84386,1.84386,0,0,0-.24472-.39664,2.41148,2.41148,0,0,0-.204-.26478,2.75794,2.75794,0,0,0-.46963-.33957,2.952,2.952,0,0,0-.27393-.17995,3.64166,3.64166,0,0,0-.97681-.314s-2.03154-.31293-5.52776-1.147c-1.74586-.41935-3.911-.8029-6.33282-1.4573-2.42555-.66616-5.162-1.41756-8.14795-2.23777a202.21016,202.21016,0,0,1-41.902-18.22069,200.14238,200.14238,0,0,1-36.98389-27.90539c-2.39134-2.12817-4.32492-4.32382-6.15423-6.1757-1.82145-1.85875-3.39694-3.49872-4.58425-4.9426-2.46272-2.82612-3.87126-4.44161-3.87126-4.44161a5.346,5.346,0,0,0-.79166-.73137c-.10452-.06614-.19444-.12266-.29189-.18387-.1862-.11547-.34662-.23845-.51892-.32344a2.53679,2.53679,0,0,0-.30574-.1141,2.1898,2.1898,0,0,0-.43778-.11826,1.35319,1.35319,0,0,0-.28228.01293,1.20024,1.20024,0,0,0-.23853.00933c-.04161.01333-.05432.05973-.09247.0787-.03793.01828-.09134.00746-.12626.03161-.05092.03633-.0629.11085-.1019.15931a.82312.82312,0,0,0-.17212.26365,1.21059,1.21059,0,0,0-.07.335,1.805,1.805,0,0,0-.00517.38157,2.78073,2.78073,0,0,0,.0875.44011,2.1981,2.1981,0,0,0,.15713.44035,4.7066,4.7066,0,0,0,.27663.48343c.05875.0947.09163.18783.16083.28289,6.06865,8.80251,12.66032,17.52922,19.44922,26.2683,6.829,8.873,12.78887,16.91124,17.0938,24.948a63.90579,63.90579,0,0,1,4.05813,8.52953,45.16226,45.16226,0,0,1,2.54335,7.89269,23.09622,23.09622,0,0,1,.431,8.79611c-.93818,5.57066-5.16172,8.55813-11.67774,7.39067-3.49181-.54178-10.91375-2.97528-19.15679-12.24835q-2.30889-2.61087-4.77238-5.399-2.34509-2.87011-4.80631-5.88248c-3.35716-3.88948-6.43882-8.307-9.78881-12.48843,3.57795,2.04187,7.12024,4.07751,10.65,5.96969,0,0,9.04491,4.36312,9.07,4.37536l.46209.21579c2.71317,3.017,5.40135,6.00739,8.02075,8.92137,0,0,1.09945,1.15325,1.16122,1.20823a6.52352,6.52352,0,0,0,2.06106,1.4198c1.20485.51122,2.22669.43807,2.57889-.17935.5381-.93428,1.07238-2.735.6503-6.02154-.05595-.41524-.135-.92574-.25938-1.49343l-.02548-.07869a45.20041,45.20041,0,0,0-2.15884-7.20639,94.45786,94.45786,0,0,0-5.88113-11.72542c-2.90741-4.64689-6.09858-9.62426-9.81-14.51812a509.36844,509.36844,0,0,1-34.43554-53.47224q-3.51029-6.38379-6.77315-12.87807a180.347,180.347,0,0,0-12.66447,14.772c.10543.14744.20775.29106.314.43951,3.56347,5.40725,7.46266,11.35768,10.65389,16.62221,6.0143,9.25829,12.30866,18.97887,19.5445,29.3729a171.38417,171.38417,0,0,1-22.68025-19.5981c-1.00135-1.58925-2.00384-3.17849-3.02568-4.79885-2.69222-4.37247-4.93062-8.04682-6.8936-10.82173-1.14947-1.75386-2.11827-3.20053-2.91731-4.30961-1.319,1.908-2.60546,3.83324-3.84156,5.78455a70.478,70.478,0,0,0,1.481,8.79914,116.15641,116.15641,0,0,0,4.7159,15.67441c.41007,1.2191.905,2.46823,1.52086,3.85321,1.3469,3.15081,2.80907,6.39873,4.41647,9.79449,1.74212,3.29943,3.64615,6.73589,5.73262,10.36725,2.1594,3.5735,4.64713,7.22843,7.29643,11.17328,2.81979,3.79373,5.82811,7.87439,9.3048,12.04512,17.27,20.28608,39.06767,37.7013,63.36169,49.36387a177.54,177.54,0,0,0,75.85942,18.31774,61.8434,61.8434,0,0,0,14.47636,10.95c-29.4883,1.70328-61.17783-4.43228-90.21821-18.25521-.17253-.08544-.32573-.11866-.49517-.18916-.20769-.0851-.41317-.17589-.609-.23343a5.198,5.198,0,0,0-1.0406-.20273c-.89443-.07529-1.57622.14223-1.70681.73733-.21018.94926.99192,2.422,2.73786,3.39008l.24105.15691a277.9842,277.9842,0,0,0,178.37133,30.46517c.1667-.02611.29721-.08781.46221-.125a6.56148,6.56148,0,0,0,.83391-.22534,5.1413,5.1413,0,0,0,.507-.22662,4.51523,4.51523,0,0,0,.74554-.428l.21752-.18832a2.29739,2.29739,0,0,0,.57908-.73076,1.61026,1.61026,0,0,0,.21683-.56576c.03076-1.04428-1.25-1.77819-2.96064-1.889l-.25663-.00932a6.419,6.419,0,0,0-.7093-.02423c-13.69517,1.394-34.53154,1.42778-53.915-3.48774a126.50428,126.50428,0,0,1-22.854-7.86938l-.35311-.15764a90.54874,90.54874,0,0,1-11.706-6.63863,46.40383,46.40383,0,0,1-7.77342-6.88956,21.14,21.14,0,0,1-3.02755-4.40416c-2.21277-4.52112-1.09757-8.29519,2.76744-10.85a22.43525,22.43525,0,0,1,7.12618-3.04315,92.06642,92.06642,0,0,1,9.09121-1.63058c6.461-.70471,13.49963-1.11262,19.58634-1.302,11.84366-.37284,24.22755-.87076,37.97381-1.459q-3.03264,1.68726-6.197,3.44882c-2.14376,1.08133-4.36051,2.12027-6.62985,3.18728-4.53142,2.22716-9.32586,3.9702-14.23778,5.80987l-1.4203.05725c-2.8124.00547-5.62716.04748-8.40274.15433-10.30075.25735-17.34659,1.024-20.26376,1.76116-1.46651.39317-2.12572,1.39917-1.53486,2.3838a19.71414,19.71414,0,0,0,5.42708,5.35887l.23126.15337a67.36218,67.36218,0,0,0,11.45523,5.98983,112.93709,112.93709,0,0,0,16.38956,5.06179l1.82052.39878c13.95787,2.96,30.4676,4.1601,52.86118,1.11961a189.71409,189.71409,0,0,0,64.9252-22.3566c.10652-3.2068.12438-6.387-.01792-9.57007-.52318-20.37436-3.13542-37.9717-7.98918-53.87524-.52226-1.79757-1.08093-3.58333-1.65056-5.36547-.69984.96782-1.39573,1.9339-2.10675,2.90773a270.78458,270.78458,0,0,1-17.35,21.456,67.38544,67.38544,0,0,0-14.181-4.97286c9.37012-10.31673,17.23514-20.5493,24.12549-29.79269C577.47707,398.27464,578.76105,396.53643,580.04643,394.78982Zm-291.57235,7.30456a184.42787,184.42787,0,0,1-30.059-25.41221c-1.36177-3.86858-2.51239-7.435-3.43486-10.62826a75.61233,75.61233,0,0,1-1.76666-8.57137c1.7309,2.11368,3.42048,4.29353,5.32432,6.41665q2.90641,3.11,6.00168,6.42192a179.21658,179.21658,0,0,0,30.71394,24.923l4.21468,2.53748c2.00356,1.174,3.93285,2.38436,5.96058,3.47762l7.4681,3.8555.07715.02715.00958.00536c1.55478.78616,3.20124,1.48206,4.83764,2.17058a60.41722,60.41722,0,0,1,3.71048,7.76053,37.92036,37.92036,0,0,1,1.94678,5.5172c-2.45208-1.0184-4.9683-2.00623-7.3455-3.16213l-.22834-.10985-1.68149-.77768c-2.95153-1.41393-6.02638-2.75046-8.87949-4.37946-2.77956-1.52878-5.62872-3.05326-8.4232-4.69463q-4.11087-2.61458-8.242-5.241Zm226.576,76.57373-.05459.03195-.02909.01774a168.14754,168.14754,0,0,1-37.91087,17.01357,88.65932,88.65932,0,0,1-11.4314-3.33128,55.8063,55.8063,0,0,1-8.90339-3.84755c3.20456-.59549,6.43806-1.45937,9.7174-2.39174,3.28-.91219,6.6061-1.86282,9.99-3.14733a161.10437,161.10437,0,0,0,35.44851-17.49791c3.66664-2.2618,7.14962-4.86832,10.54122-7.40182,2.30485-1.6647,4.53032-3.46995,6.695-5.34266a3.1,3.1,0,0,0,.69048-.82086l1.82025-1.62793c6.757,1.36656,11.47448,3.02317,14.48363,4.69706-1.87008,1.68194-4.02958,3.62435-5.13081,4.61454l-.00407.00094c-.28151.257-.4814.43914-.595.54287l-.01284.00943c-2.15239,1.99746-4.42921,3.74581-6.69993,5.63406l-4.61345,3.57521C524.554,472.48132,519.96412,475.89457,515.0501,478.66811Z"/><path class="cls-1" d="M242.57648,365.86281c-.1235-.46982-.242-.92313-.36277-1.38322-2.0122,3.973-3.88042,8.047-5.58829,12.18867A262.69691,262.69691,0,0,0,269.02568,425.196c.11245.11222.2122.21242.31927.31857.19769.21244.38524.409.58748.58749.14193.11079.27085.21287.408.32043a5.26027,5.26027,0,0,0,.671.44673l.23249.10459a2.14155,2.14155,0,0,0,.77837.21252,1.07028,1.07028,0,0,0,.48263-.01782c.69779-.32259.5063-1.57329-.31854-2.95862l-.12867-.20563c-.12069-.19-.20887-.37225-.35373-.56332-7.98671-10.41321-18.57476-27.13438-25.05038-44.97039A121.2329,121.2329,0,0,1,242.57648,365.86281Z"/><path class="cls-1" d="M590.89366,517.53939a56.04542,56.04542,0,0,0,1.19681-6.06038c-.54456.21734-1.087.44157-1.63227.657-.46776.18371-.93125.36408-1.38684.53985a298.41443,298.41443,0,0,1-74.25726,18.30121,287.68164,287.68164,0,0,1-146.50367-22.05238c-1.09154-.47466-2.19741-.9773-3.3771-1.51281a280.08835,280.08835,0,0,1-64.93211-40.6494l-1.26741-1.02279a269.68893,269.68893,0,0,1-43.11637-45.8875,266.35866,266.35866,0,0,1-22.11518-35.03186q-1.182,3.31653-2.252,6.76716a270.83241,270.83241,0,0,0,20.19754,31.36076,275.15546,275.15546,0,0,0,45.1923,47.8148l1.34875,1.08484.00271-.00139a285.48631,285.48631,0,0,0,64.866,40.32658c1.13321.51485,2.26642,1.02971,3.378,1.51234a292.88019,292.88019,0,0,0,149.15326,22.45281A303.56322,303.56322,0,0,0,590.89366,517.53939Z"/><path class="cls-1" d="M259.88317,531.63616a257.04281,257.04281,0,0,1-42.64456-2.57324A248.72645,248.72645,0,0,1,129.688,499.321q-6.53554-3.684-12.83115-7.76191a250.83627,250.83627,0,0,0,152.51319,37.08169c.15674-.02329.28788-.04316.44054-.06663.27543-.04077.53659-.07935.79911-.11863.17563-.0398.33113-.07442.49612-.11276.27361-.06433.52112-.13069.744-.20724l.2237-.08948a2.58977,2.58977,0,0,0,.63547-.33912c.10918-.08611.24673-.17137.28014-.25856.181-.46992-.89431-.76826-2.45677-.775l-.23861.0014c-.218.00278-.41573.00492-.64888.00807a207.31759,207.31759,0,0,1-50.48486-3.69957c-4.10237-.93511-7.97475-1.87175-11.59352-2.78272-3.60186-1.06378-6.94966-2.12548-10.02836-3.13239l-.33672-.1045c-4.36836-1.51458-8.12988-3.116-11.33255-4.48849a71.70472,71.70472,0,0,1-7.78044-4.18388,27.39275,27.39275,0,0,1-3.21377-2.311c-2.4458-2.2946-1.735-3.50251,1.94652-3.77529,7.24868-.43172,23.83766,2.14154,36.6828,2.94763a363.01317,363.01317,0,0,0,40.02462.92111,185.26477,185.26477,0,0,1-29.143,4.36586l-1.45631-.07759c-2.88586-.08626-5.75757-.42193-8.596-.64588-10.39811-.9236-17.45445-1.55053-20.52856-1.823-1.45816-.0812-2.08209.20812-1.467.69259a25.45046,25.45046,0,0,0,5.47441,2.95335l.23085.08692a133.73621,133.73621,0,0,0,27.0765,7.40448l1.7455.3107c13.39977,2.174,29.11473,3.42552,50.68747,1.47152a210.92153,210.92153,0,0,0,61.42582-15.9823q-6.03957-3.359-11.90475-6.99386c-.13055.10447-.25159.20805-.38837.31314a30.37326,30.37326,0,0,1-7.21652,4.04728c-1.76285.75919-3.82032,1.545-6.19162,2.31668-2.40047.688-5.137,1.2928-8.19051,1.86279-8.39846,1.5613-18.077,2.6949-27.98365,3.64107,2.79678-1.01346,5.6087-2.03182,8.38853-3.03831,4.2963-1.5113,8.42276-3.58122,12.56624-5.36754,3.82533-.62507,7.55576-1.47106,11.2533-2.15206l.14513-.02816a8.26893,8.26893,0,0,0,2.8694-1.07971c.89791-.551,1.32272-1.09678,1.11919-1.43188-.352-.5884-1.32063-1.41492-3.81325-2.02622,0,0-.54528-.139-.5928-.15057a36.47272,36.47272,0,0,0-6.59977-.867c-1.5753-.09187-3.38719-.08936-5.48766-.06955-2.11645-.03811-4.50344.0008-7.18582.15166q-4.59383.29608-9.54288.614-2.51622.23385-5.12445.47723-2.64456.19188-5.37912.38827a322.51919,322.51919,0,0,1-72.38826-1.599c-27.26518-3.77839-54.05726-11.373-78.70709-23.35648-4.07506-1.95995-7.98532-4.09548-11.85444-6.15292-3.72975-2.25816-7.52289-4.3152-10.99879-6.64068-2.06413-2.70317-5.03429-5.60219-8.236-9.22937a230.23078,230.23078,0,0,0,34.3838,19.79844,245.31686,245.31686,0,0,0,39.9242,14.63568c.14546.03036.26775.05662.40618.08659.21048.04492.41.08746.60529.12935.18557.02634.34866.04994.52039.07482.16551.0161.31967.03117.47338.04647.13131-.00285.24652-.00487.36875-.00764a1.65122,1.65122,0,0,0,.30113-.034.38985.38985,0,0,0,.17013-.09282c.0279-.02341.10064-.03159.11056-.06118l-.02662-.05531s.03381-.02188.03-.04044c-.01013-.03983-.08163-.09153-.11449-.13568a.70018.70018,0,0,0-.12391-.14737,2.91662,2.91662,0,0,0-.3372-.22562c-.09193-.05378-.17338-.10267-.26875-.15982-.18612-.083-.38181-.17029-.58114-.2591l-.33733-.14464c-.35264-.13337-.73586-.26192-1.14847-.38,0,0-2.34627-.607-6.3434-2.01316-1.99586-.705-4.47717-1.43777-7.23592-2.502-2.7558-1.08737-5.86544-2.31491-9.25628-3.65315a228.7625,228.7625,0,0,1-46.62449-26.79348,230.83289,230.83289,0,0,1-39.30178-37.77344c-2.29606-2.97358-4.40123-5.6979-6.26728-8.11331-1.86254-2.42634-3.29038-4.67926-4.57107-6.46793-1.2555-1.81068-2.24162-3.23223-2.91309-4.2018l-.95478-1.535c-.23467-.36587-.4569-.71191-.67291-1.048-.07683-.11109-.14172-.20663-.2135-.31119-.132-.18994-.25762-.37065-.38-.5473-.06916-.09165-.128-.1698-.19345-.25536l-.25788-.32664-.13013-.13393-.11044-.11439c-.01392-.0094-.0132.01872-.0132.01872l-.04593-.03517a.63384.63384,0,0,1,.01464.08311.37834.37834,0,0,0,.02471.13949l.10223.25192c.04959.108.0966.20866.15035.32473.07141.13723.14214.27423.21751.42139.08221.15164.16233.29808.24963.45965.10429.18249.20834.36341.31884.55583.0646.11279.12.21092.188.32822a296.31738,296.31738,0,0,0,21.81521,30.54116c8.055,9.79274,15.61995,17.78511,21.66443,24.66889,4.56587,4.801,8.13215,9.16006,10.607,12.25462a18.00511,18.00511,0,0,1,2.92423,4.88671c.78941,2.56735-1.74518,2.28467-6.95288-1.00129a48.18708,48.18708,0,0,1-6.47534-4.82773c-1.436-1.22078-3.05761-2.65253-4.85787-4.31414-1.78613-1.67741-3.6295-3.717-5.70149-5.94145a270.67093,270.67093,0,0,1-19.24375-23.68512c2.53726,3.123,5.46131,5.94421,8.15607,8.864,0,0,1.68534,1.83444,3.54044,3.51413,1.81817,1.70772,3.65053,3.42755,3.65053,3.42755l.37309.348c2.63523,3.19192,5.57829,6.03246,8.273,8.97565,0,0,1.10877,1.17924,1.16515,1.23926a14.94036,14.94036,0,0,0,1.90027,1.73007c1.03171.80844,1.75761,1.21336,1.82515,1.01922.10607-.29023-.04222-1.06047-1.4189-3.11223-.18254-.27634-.407-.61555-.65694-.99239l-.04231-.05925c-1.33615-2.20073-5.05276-6.74092-12.10166-15.41467-1.89588-2.14543-3.65511-4.60815-5.6492-7.03435q-1.49611-1.8416-3.03011-3.72932-1.47764-1.97071-2.99-3.98806c-3.65616-4.62243-6.92678-9.51125-10.30775-14.31734-3.12307-4.97122-6.44348-9.82485-9.26177-14.96867A243.80121,243.80121,0,0,1,19.288,354.90177a236.85553,236.85553,0,0,1-9.11355-26.50365A229.16836,229.16836,0,0,0,48.23532,401.229a215.20457,215.20457,0,0,0,33.02561,34.26483l.42136.36658a219.97779,219.97779,0,0,0,61.1376,36.075,215.35557,215.35557,0,0,0,80.22335,14.623,210.93913,210.93913,0,0,0,32.6297-2.92058q8.35956-1.37968,16.64065-3.49785a200.59192,200.59192,0,0,0,21.15425-6.62048q-2.31142-1.939-4.57235-3.92074a193.9678,193.9678,0,0,1-34.08083,8.91717,205.61857,205.61857,0,0,1-31.83331,2.84892,210.10638,210.10638,0,0,1-78.27328-14.26778,214.79314,214.79314,0,0,1-59.29521-34.88971l-.42959-.37375a210.0522,210.0522,0,0,1-32.64218-33.78539A224.63392,224.63392,0,0,1,6.58489,287.02836c-1.721-15.15823-1.47846-32.50694-.37721-50.81367C1.35818,260.5505.19827,272.22238.04522,286.38386c-.89287,42.92934,11.481,86.53062,33.191,124.36125A240.56513,240.56513,0,0,0,78.94849,468.539a253.9285,253.9285,0,0,0,137.54626,65.664,260.94567,260.94567,0,0,0,142.31576-19.31806q-3.1748-1.46184-6.31369-2.98937A258.92111,258.92111,0,0,1,259.88317,531.63616Zm17.26858-30.4491,7.95176-3.16907a5.14694,5.14694,0,0,0,.88594-.452c.74616-.29323,1.47491-.675,2.21264-1.01917a77.16755,77.16755,0,0,1,13.51307.61047c-2.19016,1.18544-4.79088,2.37144-6.12356,2.9525l-.00249.0007c-.337.15319-.57769.2628-.71342.3249l-.016.0065c-2.5869,1.16069-5.172,2.41617-7.81874,3.48444l-5.30476,2.00666c-5.02819,2.01375-10.24689,3.443-15.53618,5.07817l-.059.01713-.03256.00984a187.04107,187.04107,0,0,1-39.49509,6.35725,138.90863,138.90863,0,0,1-19.86429-4.77411,181.09619,181.09619,0,0,0,19.9911-.42149,189.35628,189.35628,0,0,0,38.26974-6.94629C269.12111,503.91388,273.185,502.64867,277.15175,501.18706ZM49.58611,414.08214l4.64369,5.29566c1.84145,2.19268,3.97384,4.14234,5.95016,6.2067l.05792.05524.00892.00853q1.9141,1.89336,3.85065,3.80941c4.33181,5.22744,6.79607,8.8944,8.40148,10.95553-2.11463-1.68354-4.04333-3.56258-6.02037-5.37356l-.1877-.17625-1.36775-1.26657c-2.4667-2.20412-4.752-4.58147-7.02644-6.98092a191.29669,191.29669,0,0,1-12.63355-14.51833l-.14636-.19457A197.71909,197.71909,0,0,1,24.495,379.39394c-3.06489-7.2632-5.32674-13.439-6.74278-17.87755,1.99674,5.005,4.382,10.07315,7.059,15.43292a197.87642,197.87642,0,0,0,21.61067,33.29842Q47.917,412.23258,49.58611,414.08214ZM14.59792,348.39621c2.21136,6.34983,5.05032,13.28313,7.707,19.21062,2.36313,5.31652,4.98094,10.69977,7.92413,16.14089q2.2341,4.062,4.54811,8.27348,2.48694,4.1018,5.07411,8.36594c-2.79228-4.02264-5.6946-8.11884-8.22074-12.51082-2.65742-4.31564-5.18968-8.77743-7.467-13.3789-.802-1.75518-1.63509-3.491-2.392-5.30287-4.19636-9.66732-6.56354-16.34478-7.52152-19.03434a10.16661,10.16661,0,0,0-.58533-1.42224q-1.27206-5.01585-2.322-10.07737C12.24793,341.502,13.3487,344.83752,14.59792,348.39621Zm23.1519,59.77985a236.75958,236.75958,0,0,1-19.26353-42.983c1.34072,3.87309,2.98472,8.28833,4.99,13.13854.48385,1.13174.9888,2.31024,1.56106,3.648a238.95,238.95,0,0,0,24.1224,42.52131A235.566,235.566,0,0,0,74.27828,453.756a212.76911,212.76911,0,0,0,30.08288,24.54527,202.49153,202.49153,0,0,0,69.30977,30.12406,104.33859,104.33859,0,0,0,14.24062,6.99366A204.84537,204.84537,0,0,1,106.71,483.54763c-.14744-.0943-.27344-.17565-.41586-.26682-.17506-.11264-.34852-.22324-.514-.33052-.283-.15878-.53435-.30016-.83516-.46806-.70005-.35889-1.17253-.49928-1.15258-.26561a1.18859,1.18859,0,0,0,.30909.49785,245.57178,245.57178,0,0,1-21.61072-17.97365A235.40273,235.40273,0,0,1,37.74982,408.17606Z"/><path class="cls-1" d="M244.72528,489.6213c-1.76582.216-3.15848.34054-4.109.37149-.95009.05634-1.4579.08619-1.4579.08619a10.68083,10.68083,0,0,0-1.168.136c-.12516.0282-.23178.05145-.34992.07891-.21724.05313-.42475.10413-.62592.15415-.10507.04185-.19681.07857-.29782.11833a2.5483,2.5483,0,0,0-.38544.182.94867.94867,0,0,0-.17189.145c-.042.04146-.121.07965-.1449.12207-.014.02486.017.04543.00906.07-.005.02478-.05012.0479-.04988.07284-.00055.03676.05893.065.07537.10044a.39832.39832,0,0,0,.125.1662,1.15617,1.15617,0,0,0,.25583.13794,2.34291,2.34291,0,0,0,.336.1197c.14591.03012.29159.05979.44977.09161.16149.02157.31979.0425.49422.066.19676.01035.394.02047.60456.03.12277.00607.2308.01229.35743.0181,11.71474-.21622,23.652-1.04611,35.53193-2.43072,12.60087-1.54241,23.48616-3.14018,32.87059-3.53171q1.06412-.08851,2.10141-.14593-5.61966-4.09624-11.03321-8.45759a215.37421,215.37421,0,0,1-38.86481,10.36909C253.30216,488.75555,248.25947,489.2422,244.72528,489.6213Z"/><path class="cls-1" d="M269.57831,320.06128a161.70674,161.70674,0,0,1,13.33645-12.14966,184.27291,184.27291,0,0,1,67.19854-34.78844,191.00887,191.00887,0,0,1,61.15279-6.31053c-.03507-.24872-.06107-.49866-.097-.74692l-.04119-.22507c-.23115-1.45945-.47624-2.88157-.7275-4.28628a193.1608,193.1608,0,0,0-61.66822,6.562c-3.79748,1.05441-7.55907,2.24457-11.28632,3.53682-.26068.08848-.51882.1825-.77914.27222-1.01265.35591-2.02355.71634-3.03,1.08932a186.63852,186.63852,0,0,0-68.16921,43.09291,189.04435,189.04435,0,0,0-28.81558,36.94459,186.91368,186.91368,0,0,0-17.68743,42.38251l-1.44277,5.49886a40.14059,40.14059,0,0,0-1.26508,5.5204l-2.01444,11.10092-1.11462,11.1706a41.7978,41.7978,0,0,0-.27569,5.5747l-.12737,5.56114a177.94534,177.94534,0,0,0,3.75776,37.30484c2.15235.04479,4.30393.068,6.45165.04369.389-.00488.77717-.0185,1.16611-.02565a170.34235,170.34235,0,0,1-4.34471-37.68433l.06918-5.43163c.00623-.43625.00656-.8729.00643-1.30931a22.69075,22.69075,0,0,1,.19329-3.71165l.02329-.17261c.3118-3.13642.6184-6.57674.96492-10.817l1.86024-10.8379a36.361,36.361,0,0,1,1.01692-4.58018l1.50741-5.84108c1.49743-5.51232,3.2195-10.87415,5.1195-15.94418a176.70094,176.70094,0,0,1,11.56259-24.94881A181.12418,181.12418,0,0,1,269.57831,320.06128Z"/><path class="cls-1" d="M181.09347,446.30478q1.681,4.641,3.31519,9.15617c2.30737,5.93313,4.86275,11.52158,6.80381,16.82175.47166.98443.92668,1.98421,1.38339,2.98227q5.69171.78873,11.41565,1.26265c-.129-.66416-.2628-1.35379-.4059-2.09165-.198-.98524-.40863-2.03411-.63139-3.14-.11511-1.11715-.23669-2.29254-.36375-3.51868-.47085-4.90947-1.42574-10.66511-1.3647-16.89373-.01546-3.10672-.40291-6.35457-.18587-9.62708.15222-3.29.306-6.63157.45974-9.97423,1.14711-13.32863,3.38922-26.78781,6.43363-36.53066.69141-2.46526,1.32561-4.724,1.88765-6.72757.54877-2.01386,1.32482-3.65293,1.80428-5.07,1.03969-2.80774,1.63415-4.41193,1.63415-4.41193a3.38355,3.38355,0,0,0,.1941-.99516,3.14177,3.14177,0,0,0-.02255-.33889,3.28825,3.28825,0,0,0-.07447-.61829,2.85675,2.85675,0,0,0-.13032-.34126,2.55058,2.55058,0,0,0-.23591-.47179,2.02159,2.02159,0,0,0-.24312-.27779,2.32336,2.32336,0,0,0-.20482-.23416c-.04844-.03673-.10716-.03344-.15736-.06471-.05065-.031-.08273-.08812-.13675-.11459a1.34361,1.34361,0,0,0-.24951-.04659,1.49686,1.49686,0,0,0-.41542-.08128,1.60546,1.60546,0,0,0-.40718.045,1.79251,1.79251,0,0,0-.40163.12591,2.17835,2.17835,0,0,0-.38785.23851,2.51871,2.51871,0,0,0-.35.30234,2.91445,2.91445,0,0,0-.3185.41953,3.00363,3.00363,0,0,0-.18861.247c-2.31691,4.43507-5.05733,8.7742-7.24764,13.42422q-1.78347,3.43052-3.74915,6.8535c-1.37726,2.26206-2.31111,4.68339-3.58357,7.01658q-1.91854,3.74757-4.11829,7.19639c-1.41418,2.3146-2.62493,4.60137-4.101,6.75732a127.50022,127.50022,0,0,1-9.38447,11.95548,65.19353,65.19353,0,0,1-14.9937,12.38181,32.33067,32.33067,0,0,1-9.0102,3.79715c-7.24593,1.72779-13.42148-.59184-16.72247-7.02983a20.29211,20.29211,0,0,1-1.78325-8.33893,33.36623,33.36623,0,0,1,.50386-6.57677,29.90924,29.90924,0,0,1,2.43717-8.05233c1.75554-3.9379,3.63586-8.15622,5.59166-12.54539,1.87966-4.35646,4.40348-8.6935,6.53238-13.14967.23918,3.044.47963,6.1016.71863,9.12746a60.16711,60.16711,0,0,0,.98213,6.97934l1.27651,6.90437c-1.44922,3.50237-3.26907,6.93529-4.4088,10.42447l-.04792.13452a4.71275,4.71275,0,0,0-.0812,2.987,2.20431,2.20431,0,0,0,1.89756,1.73032,15.524,15.524,0,0,0,7.20207-1.90021s.68294-.35772.74252-.38824a49.21785,49.21785,0,0,0,6.81973-4.68968,57.2019,57.2019,0,0,0,9.5274-9.69583c1.74824-2.39108,3.67245-4.88139,5.50789-7.52056a79.38519,79.38519,0,0,0,4.99357-8.42472c10.90557-19.62358,21.58116-37.76238,32.9385-55.53576,13.14409-20.26282,27.20335-40.11167,43.92075-59.44993q2.085-2.40283,4.14057-4.76954a51.53792,51.53792,0,0,1,4.23245-4.579q4.41556-4.38444,8.65586-8.59819a76.87014,76.87014,0,0,0,13.37907,1.81531c-2.35265,2.28236-4.7829,4.27967-6.95528,6.627q-3.2812,3.39664-6.475,6.70468c-4.36341,4.14746-8.08971,8.78463-11.81776,12.93322-7.80853,8.61043-15.47071,18.61377-23.33915,28.98542a3.43568,3.43568,0,0,0-.18115.31386,3.54858,3.54858,0,0,0-.27.46534,2.62252,2.62252,0,0,0-.13046.48962,3.09826,3.09826,0,0,0-.06728.47948,2.271,2.271,0,0,0,.03652.44741,1.87633,1.87633,0,0,0,.09379.41124,1.4865,1.4865,0,0,0,.206.35436,1.46725,1.46725,0,0,0,.13877.2298c.033.03212.08016.033.114.06128.03386.02939.04995.07528.086.10124a1.386,1.386,0,0,0,.28192.091,1.279,1.279,0,0,0,.30286.09848,1.7229,1.7229,0,0,0,.45506-.01937,2.12458,2.12458,0,0,0,.32254-.04779,2.5688,2.5688,0,0,0,.51252-.24652l.30039-.13446a3.6464,3.6464,0,0,0,.8-.63989s1.38584-1.48979,3.81248-4.09723A117.47769,117.47769,0,0,1,260.9774,307.656c8.70738-8.75906,22.20735-18.44308,36.61012-27.01958a196.037,196.037,0,0,1,42.5011-18.08108c3.07074-.8301,5.88583-1.59081,8.38079-2.26565,2.53018-.55043,4.73621-1.03115,6.55247-1.42679,3.63347-.85674,5.74924-1.12371,5.74924-1.12371A5.18126,5.18126,0,0,0,361.8,257.455c.1148-.044.20226-.10074.30386-.14992a4.01665,4.01665,0,0,0,.53682-.29087,2.78856,2.78856,0,0,0,.24858-.21391,2.21671,2.21671,0,0,0,.318-.32925,1.37011,1.37011,0,0,0,.12911-.25416,1.21959,1.21959,0,0,0,.10976-.214c.00933-.0441-.02366-.07735-.02134-.11956.00276-.04244.0391-.08442.03439-.12588-.00582-.06312-.06364-.10815-.08621-.16668a.79917.79917,0,0,0-.14127-.27753,1.13981,1.13981,0,0,0-.25393-.22324,1.706,1.706,0,0,0-.32482-.18752,2.711,2.711,0,0,0-.42206-.13429,3.43733,3.43733,0,0,0-.45745-.08768,4.70646,4.70646,0,0,0-.55616-.02118c-.11159.00074-.20866-.02078-.32585-.01318-10.58187.93181-21.42332,2.06552-32.333,3.62677a180.07816,180.07816,0,0,1-30.02771,2.33679c-6.61458-.28505-12.55838-.87145-17.5064-2.63336a21.79316,21.79316,0,0,1-7.70747-3.88562c-4.32287-3.59436-4.79919-8.766-.63117-13.95816,2.26907-2.62248,8.0196-7.86892,20.10512-10.37537,4.55576-.90341,9.4542-1.74184,14.49328-2.62608,5.12126-.64256,10.30358-1.63435,15.668-2.11026-3.59372,1.874-7.06194,4.08321-10.43852,6.221,0,0-2.0983,1.35036-4.20042,2.70326-2.03532,1.46-4.08663,2.931-4.08663,2.931l-.41241.30181q-2.97507.56628-5.91569,1.1286-2.9111.67284-5.76537,1.33312s-1.54782.359-1.62906.37841a6.463,6.463,0,0,0-2.27462,1.01273c-1.05156.755-1.5058,1.65835-1.14759,2.27437.5389.93659,1.83175,2.31617,4.89891,3.65435.38993.16614.87384.36335,1.42913.55193l.0816.018a36.04442,36.04442,0,0,0,7.26241,1.67357,69.96263,69.96263,0,0,0,13.04356.77627,169.25882,169.25882,0,0,0,17.43547-1.12132c10.7472-1.19313,21.31929-2.12679,31.83383-2.56086,10.49823-.50094,20.92871-.80764,31.34118-.51249q6.24569.10886,12.491.42786a178.51112,178.51112,0,0,0-6.03026-18.13076c-6.14874.436-12.77636.62114-18.563.91751-10.965.45623-22.49752,1.01387-35.034,2.22075q3.31839-1.4464,6.69167-2.91579c2.27759-.91681,4.60684-1.721,6.961-2.57734,4.70392-1.79241,9.57621-3.06077,14.51349-4.43535,1.86635-.14038,3.73835-.07167,5.64276-.14664,5.10109-.2174,9.37121-.39786,12.75978-.5417,1.40653-.07413,2.64428-.18576,3.72386-.30358q-1.67129-3.65238-3.50085-7.12312c-1.887-.80008-4.03379-1.609-6.44771-2.3854a120.99922,120.99922,0,0,0-15.87122-3.67134c-1.26711-.19215-2.58692-.39264-4.08368-.61932-13.55-1.76081-29.37476-2.09345-50.71834,1.46576A198.7816,198.7816,0,0,0,278.43,219.046,206.91851,206.91851,0,0,0,242.861,237.83982c-22.30076,14.8492-41.11013,34.383-53.81148,56.12454-4.88633,1.10574-10.31583,3.49083-16.62837,7.02787,13.22875-26.27732,34.49826-50.49389,60.96313-68.49558.157-.10948.26047-.228.40385-.343a6.49,6.49,0,0,0,.49586-.42147,5.28847,5.28847,0,0,0,.68122-.81725c.49971-.75222.64554-1.46.19926-1.87077-.70766-.65415-2.554-.32286-4.23413.737l-.25692.12588a274.391,274.391,0,0,0-68.92956,58.8569,281.57743,281.57743,0,0,0-46.80224,79.19343c-.0645.15555-.07787.29858-.131.45742a6.25283,6.25283,0,0,0-.23385.82406,4.82158,4.82158,0,0,0-.06777.5464,4.40539,4.40539,0,0,0-.01447.85075l.04965.27942a2.07777,2.07777,0,0,0,.34087.86479,1.73783,1.73783,0,0,0,.39564.47547c.88473.55151,2.12016-.18831,3.12087-1.58229l.13969-.21457a6.32473,6.32473,0,0,0,.38625-.59212c1.53979-3.073,3.2959-6.50571,5.24509-10.16783q1.479-2.725,3.0651-5.64675c1.11436-1.90976,2.42558-3.799,3.69951-5.74428,2.58634-3.8756,5.34964-7.84181,8.24963-11.77033,3.07481-3.84084,6.47774-7.55055,9.86362-11.14783q2.32056-2.38672,4.54681-4.67615c1.507-1.48462,3.17244-2.79565,4.70706-4.09952q4.67505-3.86942,8.975-6.928l.301-.23223a61.7029,61.7029,0,0,1,11.63034-6.70882,45.36674,45.36674,0,0,1,9.75512-3.30169,20.71763,20.71763,0,0,1,5.27965-.42451c5.05767.40713,7.72661,3.23648,8.0052,7.84952.42027,4.675-1.3545,10.47577-4.0616,16.31754a160.97166,160.97166,0,0,1-8.6925,17.497c-2.5941,5.30582-5.42638,10.63276-8.583,16.05856-2.66662,5.66491-6.02645,11.28025-9.16127,17.365-.14234-4.64408.43608-9.32278.77854-14.3365.2219-2.48637.432-5.03908.74359-7.59073q.70035-3.75965,1.4038-7.55219l.69149-1.2345c1.35366-2.45055,2.6585-4.93081,3.89966-7.4041,5.17811-8.83434,7.83746-15.41693,8.59475-18.34216.43077-1.432-.09551-2.49419-1.25982-2.49339a16.58018,16.58018,0,0,0-7.27072,2.02653l-.2392.1282a71.63737,71.63737,0,0,0-10.91861,6.8435q-1.51819,1.16126-3.12827,2.3901-1.47476,1.36125-3.0291,2.79517-3.0877,2.92832-6.38946,6.37994c-.43522.45309-.86234.89976-1.29016,1.34507q-1.81746,1.9872-3.68834,4.03252c-1.14114,1.438-2.26331,2.93862-3.40971,4.48872-2.28508,3.103-4.61381,6.43132-7.01176,10.0372-2.47447,3.57442-4.40832,7.67486-6.74684,11.98652a122.6515,122.6515,0,0,0-6.64885,14.2441c-1.76033,4.59506-3.50636,9.23694-5.10868,13.93913q-1.98948,7.15237-3.77522,14.42665a119.99545,119.99545,0,0,0-2.71932,14.7093l-1.00625,7.42609-.45816,3.71851-.18507,3.74106q-.15656,3.59312-.254,7.18588a210.47211,210.47211,0,0,0,32.88734,16.22763,202.19658,202.19658,0,0,0,29.98369,9.089c-.05495-.12287-.11146-.24379-.16618-.36677q-2.57829-6.34142-5.14519-12.655c-1.75886-4.28235-2.93558-8.6252-4.47631-13.01013a87.893,87.893,0,0,0,11.42248-9.63381q.7375,2.45489,1.46908,4.88147Q180.2025,443.93135,181.09347,446.30478ZM333.38486,223.56135l.22041-.10091a168.77531,168.77531,0,0,1,36.85933-13.29376,88.02083,88.02083,0,0,1,10.87433,2.32138,72.30518,72.30518,0,0,1,8.27546,2.66422c-2.68316.37634-5.40778.96822-8.187,1.49519-2.78039.52471-5.6162,1.13649-8.52324,1.95854a166.34148,166.34148,0,0,0-36.75134,14.16669c-1.44272.76732-2.89724,1.4387-4.3022,2.287l-5.94129,3.50647c-2.41035,1.38082-4.74907,2.92041-7.04033,4.51262l-.06049.05434-.00992.00622q-2.1367,1.519-4.29322,3.05392a53.40494,53.40494,0,0,1-14.2911-1.81037l6.413-4.69052.2059-.14761,1.49438-1.10206c2.64957-1.95293,5.43458-3.62135,8.20608-5.44411,2.66291-1.77,5.42843-3.343,8.24612-4.892C327.59656,226.56267,330.43288,224.89874,333.38486,223.56135ZM154.637,388.59758l-.31275-4.228-.004-4.197.00144-.06285-.00055-.03334c.12838-7.80732.05591-15.27245,1.11087-21.95252.90834-6.73605,1.60233-13.26089,3.24526-19.16113,5.96644-6.16673,11.384-11.033,16.389-13.87532-2.27888,6.0504-3.613,12.78057-5.07958,19.73068a167.2008,167.2008,0,0,0-2.7061,39.26405,110.10458,110.10458,0,0,0,1.1229,12.802L169.511,405.302a2.92552,2.92552,0,0,0,.3256.99853c.10419.78428.35749,1.59933.52939,2.39565a45.54813,45.54813,0,0,1-11.32575,10.06635c-.47774-2.44945-1.03036-5.27766-1.3117-6.71939l.00132-.0041c-.07548-.371-.12814-.633-.15863-.78375l-.00151-.01631c-.55681-2.83861-1.22563-5.74464-1.63748-8.62955l-.57278-5.71827Q155.00007,392.758,154.637,388.59758Z"/><path class="cls-1" d="M83.75519,414.90073l-1.58273,9.0376c1.70331,1.5107,3.42491,3.00091,5.17757,4.45442.0787-.51838.1399-1.04091.22155-1.55909l1.65116-9.44474c.56695-3.14,1.066-6.28459,1.91821-9.36611l4.73645-18.478,6.05942-18.01987c.95676-3.00972,2.19-5.92343,3.43543-8.8291l3.709-8.70653a300.41393,300.41393,0,0,1,38.70692-64.1476,293.97812,293.97812,0,0,1,53.39537-51.19789,280.1578,280.1578,0,0,1,106.494-48.55765c.03486-.00759.06994-.01587.10479-.02346.56474-.12454,1.13139-.23922,1.69672-.36036q12.17922-2.5691,24.52446-4.04627a272.09888,272.09888,0,0,1,41.084-1.56279q-2.13072-2.62178-4.50548-5.32455a276.95639,276.95639,0,0,0-37.1822,1.7285,285.78709,285.78709,0,0,0-68.60041,17.00431,282.39679,282.39679,0,0,0-65.71412,35.82886c-.35165.22795-.71471.49594-1.01734.72727a297.74118,297.74118,0,0,0-54.46771,51.93794A304.48047,304.48047,0,0,0,104.0136,351.167l-3.75883,8.76508a91.93554,91.93554,0,0,0-3.54487,9.07717c-2.06007,5.92467-4.19078,12.05077-6.20277,18.20839L85.63671,405.987C84.82556,408.9484,84.28178,411.97455,83.75519,414.90073Z"/></g></g></svg>