<svg xmlns="http://www.w3.org/2000/svg" viewBox="0 0 665.84114 613.84432"><defs><style>.cls-1{fill:#24373e;}</style></defs><g id="Слой_2" data-name="Слой 2"><g id="Слой_1-2" data-name="Слой 1"><path class="cls-1" d="M662.44556,569.768c-.90624-1.59558-1.77415-3.21671-2.70625-4.79951l-1.39115-2.38682c-.44688-.79779-.86791-1.6149-1.302-2.42547l-5.20153-9.72024-10.45446-19.41494c-7.02677-12.94974-14.26421-25.87392-22.38265-38.31942q-12.11969-18.62994-25.98236-36.02173c-4.6144-5.80142-9.40737-11.44983-14.32187-16.98979q-7.40028-8.28094-15.29823-16.11533-1.65712-1.64451-3.33887-3.26315.2571-1.702.48678-3.40462a229.99182,229.99182,0,0,0,2.07986-30.93676,228.1078,228.1078,0,0,0-139.13251-209.94c-.13214-.05734-.26489-.11282-.39765-.16392-1.11691-.47244-2.16213-.90313-3.1656-1.307q-.88723-3.54-1.84458-7.062a394.78572,394.78572,0,0,0-20.48105-56.8088c-4.09085-9.20324-8.53945-18.22168-13.2623-27.12482-4.72285-8.89067-9.76481-17.58345-14.92177-26.16747-10.35848-17.1428-21.22118-33.85181-31.57343-50.75215L333.78848,0,329.8187,6.65686,318.45177,25.70158c-3.79106,6.33775-7.59489,12.688-11.335,19.09582-7.48644,12.79672-14.83249,25.75892-21.43824,39.15554C279.0921,97.343,273.0607,110.96932,267.706,124.8764a441.66656,441.66656,0,0,0-14.02192,42.45514q-.84821,3.117-1.64279,6.25361c-1.065.41323-2.13191.83456-3.21936,1.27521-.92681.38207-1.85237.76414-2.77232,1.15306A227.72341,227.72341,0,0,0,106.87847,385.97026a230.7502,230.7502,0,0,0,1.62113,27.34982c.138,1.18017.29169,2.36283.45156,3.53957-2.552,2.45351-5.0817,4.9304-7.56185,7.45559a393.38114,393.38114,0,0,0-29.56915,33.96648q-6.90243,8.88444-13.36467,18.10669c-4.29529,6.14609-8.431,12.41372-12.43273,18.73869-3.99518,6.33744-7.86929,12.77709-11.55189,19.3255C30.801,521.039,27.36727,527.60646,23.889,534.18666q-10.37772,19.75976-20.53824,39.5831L0,580.31818l7.41632.287,44.408,1.6978,22.236.82957c7.49922.31289,15.0176.383,22.504.24246,7.49282-.134,14.98565-.44035,22.4657-.96358,7.48644-.50423,14.93455-1.302,22.37-2.22758a371.8226,371.8226,0,0,0,44.172-8.316q5.44725-1.36918,10.84993-2.92938c.5879-.1714,1.17316-.35059,1.75966-.52573,1.08293.81118,2.01691,1.49865,2.87951,2.1185a227.70343,227.70343,0,0,0,267.23684.1153c.97916-.70554,1.97515-1.44194,2.97426-2.18986,2.58.73826,5.1663,1.45534,7.77127,2.1347,9.77136,2.56571,19.65116,4.65273,29.58831,6.38232q14.90619,2.59437,29.96507,4.07184c5.00987.48521,10.02659.90655,15.062,1.22566,2.5149.15956,5.04851.29356,7.55687.402,2.52082.10191,4.99085.22968,7.531.27424,10.0967.37023,20.23828.1661,30.297-.38923,20.12983-1.11691,40.02968-3.55484,59.80206-5.942l6.9953-.8489ZM489.11907,231.61a217.63435,217.63435,0,0,1,63.94028,154.36031A221.01219,221.01219,0,0,1,551.49,412.2948q-2.15637-1.94742-4.34733-3.85868-8.38612-7.31426-17.2447-14.0093-6.24612-4.73437-12.7802-9.06924h.83206c0-.90374-.01308-1.8131-.03241-2.695a182.91414,182.91414,0,0,0-24.5158-88.24106,184.92275,184.92275,0,0,0-61.89595-63.96023c-1.254-.78968-2.60216-1.60742-4.24885-2.57848-1.55008-.91-2.96927-1.71586-4.31741-2.4507a181.95739,181.95739,0,0,0-29.573-13.04136c-1.704-.58027-3.46539-1.14682-5.22364-1.67972-1.70091-.52043-3.466-1.03027-5.24359-1.51455a183.59632,183.59632,0,0,0-98.062.493q.819-2.90384,1.72865-5.78085c.36383-1.20012.74668-2.39992,1.15523-3.58694l1.1998-3.57415c.86168-2.36782,1.67863-4.74217,2.61042-7.07789,1.78708-4.70384,3.75912-9.331,5.83337-13.90708q1.18827-2.67851,2.463-5.31714c1.09182-.17514,2.18722-.345,3.28013-.50267a222.84771,222.84771,0,0,1,59.26013-.55035c1.97453.25243,3.79573.5061,5.57206.7766,1.92342.29045,3.79386.60021,5.57268.92369a215.17385,215.17385,0,0,1,36.1336,9.77665c1.53886.55721,3.15189,1.16739,4.94816,1.87107,1.50209.58214,3.09455,1.23034,4.86776,1.98076l.26926.10907A217.58684,217.58684,0,0,1,489.11907,231.61ZM348.589,497.16925c3.56138,3.56793,7.19288,7.05888,10.94576,10.42237,3.72717,3.36349,7.57556,6.67587,11.50717,9.83524a270.30338,270.30338,0,0,0,24.59122,17.70437q6.47424,4.12529,13.19343,7.84139a173.39687,173.39687,0,0,1-149.31881-.551q4.37257-2.51211,8.63856-5.19685c24.60384-15.41976,46.17608-35.17937,64.47412-57.37068Q340.26966,488.79559,348.589,497.16925Zm71.86535,39.7595c-.90623.51762-1.86358,1.05083-2.85272,1.59028-6.10433-3.06713-12.0999-6.34087-17.935-9.8848a265.06885,265.06885,0,0,1-24.3039-16.68344c-3.90573-3.006-7.69056-6.11431-11.43066-9.35-3.73356-3.22325-7.40993-6.50385-10.99671-9.89258-7.14815-6.78463-14.0283-13.91986-20.53184-21.349a383.79084,383.79084,0,0,1-35.524-47.64389q-8.00328-12.5605-15.11326-25.70158c-2.36143-4.37818-4.6719-8.78846-6.89293-13.24984q-2.71895-5.47577-5.27819-11.02227,7.75461-1.78987,15.6175-3.159,7.24717-1.27335,14.5517-2.2148c2.55293,5.90363,5.09307,11.83937,7.99067,17.59623,3.172,6.40132,6.57381,12.707,10.1542,18.90417q2.70936,4.63387,5.55912,9.197c1.90831,3.04437,3.86133,6.02486,5.8142,9.01813,1.9658,2.99326,3.96978,5.97406,6.0632,8.91622,2.11258,2.93593,4.30806,5.77587,6.53548,8.5968,4.474,5.62285,9.10757,11.131,14.00275,16.43445,4.88256,5.29751,9.963,10.42237,15.32409,15.27953a228.11807,228.11807,0,0,0,34.59848,26.20549,207.15489,207.15489,0,0,0,39.35312,18.662c.7498.2677,1.503.52293,2.255.78252A174.39024,174.39024,0,0,1,420.45437,536.92875Zm-207.21662-27.075c-.64431-.63263-1.27833-1.26244-1.887-1.88291a173.61653,173.61653,0,0,1-44.67244-78.394c-.22157-.84734-.4366-1.70434-.64633-2.56414q2.44853-2.26856,4.95642-4.46544c5.29735-4.63372,10.83076-8.967,16.54929-13.06473a193.09247,193.09247,0,0,1,17.78119-11.322c6.1143-3.45917,12.46467-6.61853,18.89809-9.465,3.21671-1.41047,6.51631-2.757,9.80314-4.03351,3.29337-1.283,6.61214-2.50836,9.95647-3.64427A261.92115,261.92115,0,0,1,269.42281,373.78a384.33975,384.33975,0,0,0,24.81451,51.53717q7.53418,12.99148,16.02589,25.42079c.26817.38923.54256.77878.81057,1.168-6.73322,6.33121-13.67725,12.38817-20.93386,18.04281a239.51185,239.51185,0,0,1-24.36777,16.862A219.84215,219.84215,0,0,1,213.23775,509.85379Zm28.82417-254.11446a273.49965,273.49965,0,0,0,4.65273,44.33151A284.52906,284.52906,0,0,0,257.32836,340.458a315.32157,315.32157,0,0,0-43.1571,11.16281c-7.1036,2.42516-14.13053,5.12486-21.02346,8.13745-6.89277,2.98672-13.68363,6.27386-20.31479,9.84771q-5.79246,3.12914-11.42022,6.54031a173.22558,173.22558,0,0,1,80.80433-137.0165Q241.88687,247.4322,242.06192,255.73933Zm-65.57185,120.4789q9.54471-5.40893,19.54894-9.9948,9.97571-4.61424,20.33411-8.37367,10.33939-3.79106,20.9404-6.87376c7.05233-2.04215,14.21342-3.82284,21.41253-5.38663q7.52486-1.62721,15.11981-2.92315,7.59169-1.30186,15.24089-2.31671,7.64919-1.005,15.33671-1.71057c5.125-.49114,10.26281-.75291,15.407-1.0848,2.57193-.19789,5.15041-.22968,7.7225-.34467,2.57848-.0829,5.15057-.21067,7.73528-.26178,5.157-.1019,10.31391-.12122,15.47087-.02555,5.16319.10221,10.32654.24276,15.48334.50423q6.25173.316,12.48384.83612-1.78054,5.83008-3.86118,11.56482c-1.85112,5.25886-4.123,10.35193-6.1972,15.53444l-.10845.25523c-.08944.21067-.17888.4151-.27455.62546a313.05075,313.05075,0,0,0-40.64267-2.89105c-7.18633-.06389-14.40476.12122-21.59125.58712-7.18649.44689-14.39214,1.1169-21.54669,2.068a273.521,273.521,0,0,0-42.41681,9.1138,222.46961,222.46961,0,0,0-40.31717,16.56222A205.05439,205.05439,0,0,0,165.5507,416.184c-.51888.43349-1.02949.87663-1.54369,1.31573a173.93783,173.93783,0,0,1-2.85459-28.711c-.0187-.9399-.02431-1.87854-.02431-2.81844,0-.10035.00156-.19976.00187-.30011Q168.6525,380.6885,176.49007,376.21823ZM279.475,233.2289c.76756-4.25445,1.61848-8.4924,2.58923-12.70229.89938-.28608,1.7983-.57341,2.70376-.84609a174.02019,174.02019,0,0,1,95.61-1.24842q1.32009.35948,2.62055.737,1.73285,7.13943,3.01009,14.3789a207.66768,207.66768,0,0,1,3.1656,33.43047,223.16846,223.16846,0,0,1-2.106,33.62836,243.4952,243.4952,0,0,1-6.98876,33.07957c-.41479,1.46781-.8489,2.93592-1.29578,4.39095-9.26682-1.32757-18.60438-2.20825-27.9544-2.83371q-7.75461-.49784-15.53445-.68279c-2.59125-.07043-5.1889-.06389-7.78015-.096l-3.89312-.038c-.651,0-1.29563-.01933-1.94663-.00655l-1.94664.04457c-5.18251.14054-10.37764.20443-15.56639.50422q-7.78335.42165-15.55377,1.14246c-.47867.04488-.96373.08944-1.4424.14055a262.8262,262.8262,0,0,1-10.269-57.80448c-.26178-5.055-.36384-10.10979-.25539-15.15176q.0575-3.79106.26162-7.5631c.12777-2.508.34467-5.01641.58089-7.531Q278.20176,240.67717,279.475,233.2289ZM332.72268,420.69c-2.0998-2.8655-4.206-5.73754-6.24192-8.6289q-3.06369-4.34638-5.99307-8.79468c-3.93784-5.91019-7.71612-11.92851-11.2775-18.08114-1.76791-3.08894-3.60594-6.14609-5.23346-9.31169l-4.03366-7.52477a355.39432,355.39432,0,0,1,68.26517-1.94025q-3.30257,7.55359-7.06511,14.909c-2.64875,5.157-5.44413,10.2438-8.34172,15.27922q-4.36556,7.54424-9.114,14.8772-4.08789,6.37608-8.47573,12.5605Q333.95754,422.37826,332.72268,420.69Zm124.31218,88.41215c-.59211.59273-1.21507,1.20291-1.88477,1.84831q-3.54-1.07187-7.048-2.24845c-1.666-.536-3.29337-1.15493-4.94006-1.73582-1.65292-.58089-3.28028-1.21257-4.90141-1.84457-3.24881-1.27646-6.46552-2.64237-9.65668-4.0653a193.083,193.083,0,0,1-18.61715-9.54822c-6.06319-3.5165-11.94751-7.282-17.65326-11.36039-5.69951-4.05906-11.21392-8.431-16.56222-13.00084-2.67415-2.29115-5.27164-4.6144-7.84389-7.03332q-3.87707-3.5994-7.62683-7.32688-1.86678-1.85719-3.689-3.75273a385.2903,385.2903,0,0,0,29.74163-48.4289q6.91179-13.29768,12.98776-27.03538c.29387-.65755.58089-1.32134.86821-1.97858,4.21862,1.11691,8.41823,2.28461,12.57951,3.57416,4.8313,1.50614,9.62458,3.11449,14.354,4.87586a244.67524,244.67524,0,0,1,27.59695,12.24762q6.67291,3.49422,13.0772,7.44187c4.27,2.61681,8.431,5.37386,12.48383,8.316,4.05283,2.93593,8.01,6.00586,11.83283,9.21634,3.81038,3.23572,7.55033,6.5481,11.16281,10.001.0346.0321.06794.06575.10253.09785-.20381.82864-.42538,1.6978-.67375,2.63831A173.65646,173.65646,0,0,1,457.03486,509.10212ZM383.67257,399.27744c-4.21239,8.99258-8.68,17.87671-13.492,26.56949-2.40646,4.35262-4.8634,8.68-7.41648,12.94973q-3.06347,5.09292-6.2801,10.10325c-3.6251-3.772-7.14192-7.66532-10.58192-11.62871-3.689-4.25041-7.1801-8.584-10.56914-13.071,3.29337-3.86772,6.40786-7.88845,9.48418-11.94128q5.25582-7.01742,10.12865-14.32187A276.941,276.941,0,0,0,371.961,368.853h.05111l.632-1.34034c2.44416-5.22085,4.99085-10.41582,7.148-15.77721q3.29368-8.02245,6.03141-16.2749c1.81248-5.50131,3.47194-11.06682,4.83784-16.70869,1.38491-5.64217,2.54638-11.32237,3.52305-17.04713A221.06115,221.06115,0,0,0,397.369,266.972a205.80115,205.80115,0,0,0-2.6165-34.87927c-.50828-3.24413-1.09945-6.47113-1.75295-9.686a172.5926,172.5926,0,0,1,25.33572,11.419c.8704.47431,1.76884.97916,2.70967,1.52047q.69137,10.8814.50672,21.79086a260.23782,260.23782,0,0,1-2.31047,29.35863c-.65724,4.87617-1.46157,9.733-2.36781,14.57086q-1.34953,7.26612-3.07616,14.45588-3.4657,14.39853-8.11189,28.516A486.22759,486.22759,0,0,1,383.67257,399.27744Zm35.97716-82.26169a273.07086,273.07086,0,0,0,6.344-29.531,265.42,265.42,0,0,0,3.01259-30.12432q.34265-8.51982.14117-17.04806a173.10422,173.10422,0,0,1,79.111,139.36935q-7.75554-4.783-15.81866-9.04181a267.77036,267.77036,0,0,0-40.80846-17.14935,298.60526,298.60526,0,0,0-40.23411-10.135Q416.00219,330.35472,419.64973,317.01575Zm-114.528-157.00922a278.80565,278.80565,0,0,1,28.55835-43.223l1.50614,2.09357c1.6403,2.29115,3.33155,4.55674,4.92712,6.86721q4.79632,6.95058,9.20979,14.16886,4.40365,7.20861,8.41823,14.641,1.3395,2.4705,2.63489,4.965A232.93352,232.93352,0,0,0,305.12168,160.00653Zm-11.82893-72.218c6.70142-13.0133,14.02192-25.74614,21.6168-38.37676l18.94266-31.27955C342.95355,32.97112,352.35468,47.542,361.23242,62.336c5.10569,8.48212,10.09031,17.01534,14.73026,25.70813,4.63372,8.67969,8.99913,17.53857,13.07751,26.5056q6.10776,13.451,11.25194,27.3037c3.39559,9.24157,6.54187,18.57882,9.216,28.03729.08134.28608.15862.57216.23871.85825a224.68106,224.68106,0,0,0-34.53584-9.07766c-1.08792-.19757-2.21542-.39079-3.36443-.57839A298.48562,298.48562,0,0,0,357.435,134.92854q-4.57614-7.41009-9.53513-14.5771c-.817-1.20635-1.69141-2.36158-2.55293-3.52959l-2.57848-3.504L340.19,109.81408c-.8489-1.17424-1.77431-2.30393-2.66138-3.45916l-3.59332-4.6973-3.66344,4.57607-4.86963,6.08221c-1.59558,2.04869-3.17214,4.11671-4.70384,6.21652q-4.60489,6.28025-8.82678,12.822-4.241,6.53876-8.09912,13.28786c-1.28285,2.25313-2.54653,4.52527-3.74649,6.823-1.23174,2.2846-2.3996,4.60162-3.56122,6.91832a246.47323,246.47323,0,0,0-12.08806,28.66306c-.88084,2.43793-1.65308,4.91419-2.46364,7.37144l-1.12969,3.72717q-.5745,1.8572-1.07857,3.73372c-1.42324,4.99085-2.61042,10.03936-3.689,15.11342a206.13688,206.13688,0,0,0-3.98256,30.80089c-.134,2.57848-.249,5.16973-.268,7.76722q-.04791,3.87753.051,7.761c.14693,5.16973.54256,10.32669,1.085,15.45155.54895,5.1314,1.3084,10.231,2.2148,15.28576.90624,5.07375,2.04869,10.07769,3.29321,15.062,1.27008,4.97185,2.62943,9.91191,4.225,14.78808q2.02969,6.23209,4.34639,12.35607c-4.62717.45312-9.26712.9829-13.87513,1.62113q-5.14083.718-10.269,1.59558l.0254-.05111-5.18236.96358-.1915.03833a316.25714,316.25714,0,0,1-8.50767-40.7318,290.96947,290.96947,0,0,1-2.80177-43.96783c.10269-6.56773.49177-13.11895,1.0457-19.65614.096-.0561.191-.11531.287-.17109l-.23841-.41011c.04955-.57466.09162-1.14963.14382-1.724.166-1.819.35106-3.66983.54256-5.47607l.67018-5.46329.74668-5.41874.87445-5.425a360.77126,360.77126,0,0,1,9.98186-42.79982C268.56768,141.08086,280.03667,113.918,293.29275,87.78856Zm-159.674,213.2016A218.98174,218.98174,0,0,1,249.3486,185.01846c-.29418,1.35344-.58494,2.70781-.8598,4.06405l-.55518,2.73772-.52339,2.76359-.98914,5.4954c-.64477,3.6826-1.16162,7.35243-1.6914,11.0475l-.72113,5.54651-.60006,5.58452-.51046,5.559c-.00358.04518-.00638.08913-.01.134l-.18729-.32223c-.8944.51981-1.78381,1.05333-2.667,1.59059a182.808,182.808,0,0,0-88.3414,149.7886c-.063,1.57751-.10347,3.20362-.12528,4.98431-.00623.66005-.01247,1.31885-.01247,1.97827,0,1.001.00686,2.002.02556,2.98548a183.4363,183.4363,0,0,0,3.55328,33.14563c.3509,1.74205.70055,3.3638,1.06829,4.95377.37957,1.6498.78843,3.3127,1.21164,4.9332a183.12852,183.12852,0,0,0,45.186,80.71692q-2.46209.60161-4.93928,1.15367c-4.79312,1.07235-9.599,2.0487-14.43047,2.872-4.8313.83612-9.68192,1.50645-14.54516,2.087q-3.31728.388-6.64486.69776c-.627-.80839-1.244-1.61116-1.8371-2.39711a217.535,217.535,0,0,1-26.58507-46.17078c-.24307-.574-.47992-1.14807-.71676-1.72086-.77161-1.86919-1.42729-3.51713-2.00943-5.04726-.64945-1.69842-1.28706-3.42364-1.89475-5.12268a216.29324,216.29324,0,0,1-9.4781-36.36858c-.30416-1.79876-.579-3.55577-.81961-5.2386-.25367-1.73145-.48615-3.49531-.69245-5.25606a221.21056,221.21056,0,0,1-1.55445-26.22357A216.947,216.947,0,0,1,133.61873,300.99016ZM125.29742,475.8284a227.20745,227.20745,0,0,0,25.41316,44.56118c-8.695.52106-17.39943.72643-26.10873.52823-4.908-.08944-9.81592-.268-14.71765-.56811-2.45071-.14647-4.89518-.32535-7.34605-.52324-.29356-.02556-.58712-.05111-.88068-.07012A304.87218,304.87218,0,0,1,117.894,487.82546Q121.43945,481.735,125.29742,475.8284Zm69.38223,86.80411q-5.3229,1.41732-10.70315,2.64236a363.19656,363.19656,0,0,1-43.47,7.23121,426.33744,426.33744,0,0,1-44.02517,2.36781q-11.02866.029-22.019-.52324l-22.255-1.07234-37.13879-1.704q8.597-16.48572,17.2514-32.939c3.46571-6.53564,6.95043-13.11584,10.49888-19.50438,3.57415-6.40164,7.3462-12.70074,11.25848-18.93q11.73708-18.69678,25.12723-36.21307c4.46762-5.84006,9.08825-11.52649,13.86875-17.111,4.76757-5.57829,9.66914-11.04159,14.74944-16.326q1.41849-1.47764,2.85739-2.93562a226.02837,226.02837,0,0,0,9.29954,34.65863c.373,1.044.75821,2.093,1.14775,3.13974q-5.9806,8.61751-11.34527,17.638a304.34174,304.34174,0,0,0-19.4916,39.05332l-2.72526,6.58675h6.92487c2.34225.23622,4.84407.47212,7.28216.66378q3.78147.287,7.55671.50423,7.56294.43052,15.13243.517c10.1031.0829,20.21912-.26832,30.27765-1.15523q7.55337-.67034,15.05593-1.69157,7.52462-1.02419,14.96649-2.52082a249.288,249.288,0,0,0,29.33946-7.646,216.49019,216.49019,0,0,0,28.10772-11.34138,210.231,210.231,0,0,0,26.11-15.28576,225.93559,225.93559,0,0,0,23.53166-18.77671c3.6826-3.389,7.28855-6.85444,10.76688-10.44791q4.42305-4.60489,8.58433-9.42014c2.54638,3.657,5.13125,7.30132,7.82456,10.87548q4.53805,6.01193,9.331,11.82005,2.04885,2.48919,4.1485,4.93351l-1.90831,2.05493-3.84855,4.02105c-2.63582,2.61026-5.23985,5.24608-7.895,7.83111-5.35469,5.12485-10.84993,10.08392-16.56207,14.78776a268.86937,268.86937,0,0,1-36.25779,25.3058c-3.765,2.18208-7.5913,4.24168-11.45824,6.22088-.11889-.062-.23856-.12247-.35745-.18448l-.09287-.04862-.32846.62919c-2.4264,1.23221-4.86464,2.44105-7.32486,3.60751q-9.97546,4.71988-20.29578,8.64821-10.30081,3.93458-20.87651,7.07789Q200.01518,561.241,194.67965,562.63251Zm225.05173,24.4784a218.10979,218.10979,0,0,1-210.22127-22.31066q9.4746-3.22029,18.72763-7.04361,11.07773-4.60536,21.755-10.1341l-.29886.57248.09286.048c.8327.435,1.66539.86947,2.495,1.28768a183.01677,183.01677,0,0,0,163.87955.53726c1.46282-.7286,2.99171-1.517,4.553-2.34849,1.57438-.84266,3.084-1.67535,4.482-2.47377a184.01323,184.01323,0,0,0,30.68371-21.94106c1.30451-1.15305,2.65265-2.37965,4.01574-3.65487,1.50708-1.41732,2.74926-2.61774,3.89608-3.76519a183.28163,183.28163,0,0,0,47.44694-80.70289c.86915.90281,1.733,1.81123,2.57567,2.74053,3.40805,3.65082,6.6631,7.44187,9.8287,11.303,4.81291,5.88369,9.36529,11.98615,13.688,18.24287-.3883.9667-.78283,1.93433-1.18547,2.89386l-.24681.58774a217.90246,217.90246,0,0,1-27.59851,47.494c-1.12127,1.46033-2.28866,2.94309-3.47038,4.4084-1.20853,1.49711-2.41331,2.95245-3.58881,4.33237-3.79448,4.47385-7.87318,8.89659-12.122,13.14607a222.78161,222.78161,0,0,1-17.77574,15.96388c-1.25963,1.01468-2.61837,2.078-4.27253,3.34323-1.46532,1.11753-2.935,2.20763-4.38161,3.25037A217.55214,217.55214,0,0,1,419.73138,587.11091ZM543.68066,477.07214a307.70259,307.70259,0,0,1,22.89623,43.62222,318.55053,318.55053,0,0,1-48.77108,1.039A227.54687,227.54687,0,0,0,543.68066,477.07214Zm54.84611,95.95094c-4.92073.26178-9.84147.44689-14.74943.50423-2.4638.05111-4.91451.03179-7.36521.03179l-7.37176-.14678c-2.44416-.03833-4.95252-.16579-7.416-.25523-2.47-.10845-4.92073-.22345-7.37175-.37646q-7.3713-.45951-14.74944-1.168a393.25115,393.25115,0,0,1-58.22581-9.78414c-.402-.1-.80433-.20568-1.20634-.30758,5.46734-4.54179,10.77669-9.37963,15.818-14.421,4.43334-4.434,8.69029-9.05054,12.64683-13.71574.7099-.83331,1.4329-1.70028,2.16026-2.58221q9.90862.79982,19.85248.94675a314.44107,314.44107,0,0,0,43.29126-2.43825l6.08252-.77223-2.31671-5.61631a292.92857,292.92857,0,0,0-13.23083-27.878q-3.6667-6.78742-7.665-13.39007c-2.6486-4.40373-5.49508-8.699-8.37367-12.956-2.92315-4.2314-5.92919-8.40545-9.05646-12.48384-3.1656-4.05906-6.39509-8.06078-9.79691-11.92227-3.3825-3.87395-6.85444-7.67155-10.47347-11.3286-1.78693-1.85081-3.65674-3.61872-5.48854-5.41842-1.88914-1.7489-3.74026-3.53582-5.68051-5.22084a210.0564,210.0564,0,0,0-24.41857-18.78949c-4.27627-2.83994-8.69278-5.50162-13.17318-7.99066-4.48662-2.48281-9.08825-4.7484-13.73474-6.88a218.89749,218.89749,0,0,0-28.65652-10.75425c-4.8824-1.44257-9.79036-2.79538-14.74943-3.91229q-6.38542-1.44583-12.822-2.57847c3.69538-8.45033,7.15454-17.00911,10.27527-25.70158.268-.74668.53632-1.48713.79155-2.23381q9.45848,2.20171,18.77048,4.927,10.54951,3.12118,20.86374,6.93141A280.35215,280.35215,0,0,1,490.73583,373.761c6.02393,3.413,11.8989,7.08069,17.6327,10.954.00155.21441.00779.42881.00779.64259h.95392q9.01906,6.1475,17.54855,12.956,8.54927,6.81642,16.61333,14.20064,8.05143,7.38111,15.61734,15.28576,7.57277,7.87894,14.64753,16.21755,7.11325,8.30013,13.78585,16.95769,13.32619,17.33742,24.91657,35.9005c7.6971,12.33051,14.67931,25.14625,21.5082,38.1153l10.19269,19.51716,5.10585,9.75826c.421.81712.85513,1.62768,1.26991,2.44448l.63823,1.34658C633.5656,570.08092,616.0398,572.1103,598.52677,573.02308Z"/></g></g></svg>