<svg xmlns="http://www.w3.org/2000/svg" viewBox="0 0 631.21928 568.77408"><defs><style>.cls-1{fill:#24373e;}</style></defs><g id="Слой_2" data-name="Слой 2"><g id="Слой_1-2" data-name="Слой 1"><path class="cls-1" d="M155.51416,79.87041c10.93492-7.64875,27.98836-11.94921,42.43615-10.70035l.46958.04051-.17117-.43924c-9.31438-23.88282-31.24891-40.552-48.67088-48.18828l-.27078-.11864-.11622.27164c-.41.95661-.83624,1.92124-1.29222,2.948a120.087,120.087,0,0,1-11.08077,20.46985c-2.02285,2.88987-4.28185,5.8201-6.90753,8.95815l-.68168.81535,26.084,26.08386ZM132.57121,53.57888c2.31653-2.817,4.33423-5.45973,6.1676-8.081A122.14882,122.14882,0,0,0,150.04355,24.6342l.46686-1.05536.27164.12837c7.32258,3.45477,32.12523,16.73042,43.84331,42.50772l.19306.42478-.46657-.01031c-13.41948-.30184-28.19058,3.61807-38.54945,10.23006l-.19807.127L132.40218,53.78426Z"/><path class="cls-1" d="M193.43446,65.73605a73.36788,73.36788,0,0,0-6.93587-11.7029L169.972,55.559l15.41-3.03514q-.71059-.93643-1.43864-1.84024L164.4736,52.626l18.21943-3.4602a90.06291,90.06291,0,0,0-9.70724-9.80156l-14.00527,1.13265,12.31589-2.56828q-.78617-.65264-1.56645-1.27406l.004.02863-8.18345.29024,6.466-1.65532a102.00611,102.00611,0,0,0-17.06789-10.55723l-.10147.22957a122.99764,122.99764,0,0,1-11.388,21.011c-1.7568,2.51218-3.681,5.04282-5.87206,7.72446l22.14034,22.14034C165.95947,69.47,180.27431,65.62985,193.43446,65.73605Z"/><path class="cls-1" d="M85.26426,99.23294c-12.27982,10.82157-43.0052,37.29658-63.051,49.375l-.16359.09889.02362.18921c2.10815,16.60032,9.4917,33.81419,21.355,49.78277l1.24929,1.65561a139.0858,139.0858,0,0,0,18.04483,19.34121c17.847,15.83334,48.51015,34.877,93.23593,35.68433l.54042.01016-6.82194-10.91488-.12824-.02247c-1.99237-.35379-4.053-.78759-6.12567-1.29037-18.36383-4.4297-42.78221-14.4561-54.82531-37.0683-7.8152-14.68294-6.9602-32.85629,2.54166-54.015,5.605-12.48906,13.21812-21.36993,19.22485-27.71185l.19579-.20724L85.47078,99.05075Zm22.05618,25.365a98.54882,98.54882,0,0,0-18.05312,26.62114c-9.77522,21.76708-10.60961,40.5474-2.48055,55.81913,12.40175,23.28573,37.38245,33.57075,56.15489,38.09877,1.75522.42578,3.5123.80533,5.22445,1.12864l.25217.04723,4.3175,6.90782-1.11634-.05124c-41.87355-1.91494-70.71432-20.10575-87.53533-35.02856a137.06765,137.06765,0,0,1-17.7792-19.05554l-1.23855-1.64215c-11.26811-15.16726-18.44285-31.52127-20.75151-47.2975l-.05582-.3807.32732-.20266c19.64819-12.16088,48.77263-37.15546,60.38194-47.33757l.4129-.36181,22.32138,22.32124Z"/><path class="cls-1" d="M48.64592,152.44014c.00644.11579.0146.23143.02448.34793a18.77486,18.77486,0,0,1,2.92694-1.68023q.64554-.29325,1.334-.54142a9.79912,9.79912,0,0,0-4.14718-.87146A12.386,12.386,0,0,0,48.64592,152.44014Z"/><path class="cls-1" d="M46.14319,154.90552q.5483-.54828,1.142-1.05121a13.10745,13.10745,0,0,1-.14126-1.32414,14.154,14.154,0,0,1,.25518-3.645c.018-.08444.02448-.11278.03278-.14054a14.2015,14.2015,0,0,1,1.18918-3.39852,14.87746,14.87746,0,0,1,3.12044-4.17209,15.16216,15.16216,0,0,0-3.78065,3.76606,15.41293,15.41293,0,0,0-1.85125,3.557,15.95637,15.95637,0,0,0-.82738,7.32945Q45.69695,155.35227,46.14319,154.90552Z"/><path class="cls-1" d="M55.002,157.446a11.23246,11.23246,0,0,0-2.90634,2.78569c.16387.16473.33147.32187.50106.47043a11.16374,11.16374,0,0,0,2.4641,1.68266,10.9903,10.9903,0,0,0,3.60962,1.1,11.21966,11.21966,0,0,0-.45426-7.48889A11.61388,11.61388,0,0,0,55.002,157.446Z"/><path class="cls-1" d="M42.14872,170.70237l.09245.66465.01245.07656a13.15468,13.15468,0,0,0,3.76005.7843,12.84713,12.84713,0,0,0,3.93464-.38055,11.80043,11.80043,0,0,1-.81378-1.90951l-.12637-.40646a2.40156,2.40156,0,0,1-.09575-.37383c-.0352-.15829-.08358-.36982-.1444-.6303l-.01217-.06483-.09975-.69771a2.94144,2.94144,0,0,1-.03664-.3754l-.02319-.393c-.0186-.40317-.01961-.79331-.00229-1.16671a12.26929,12.26929,0,0,1,.23143-1.89119,12.54206,12.54206,0,0,1,1.05035-2.95127,11.19214,11.19214,0,0,1,.62343-1.08885,12.72674,12.72674,0,0,1,3.67632-3.70967,12.92166,12.92166,0,0,1,3.33512-1.55485,10.43872,10.43872,0,0,0-1.64159-2.05262,10.96492,10.96492,0,0,0-1.08513-.92513l-.09847-.07142a16.83076,16.83076,0,0,0-2.4628.89207,17.34945,17.34945,0,0,0-3.64984,2.26372,17.163,17.163,0,0,0-3.13461,3.30221l-.29225-.16516-.01546.02118.27093.19292a18.12657,18.12657,0,0,0-2.19274,4.03884,18.57347,18.57347,0,0,0-1.07526,4.516l-.05524.59681a5.08381,5.08381,0,0,0-.03335.53455c-.00916.41949-.01832.82709-.02032,1.23227l.0707,1.189C42.1032,170.37233,42.12582,170.53277,42.14872,170.70237Z"/><path class="cls-1" d="M66.202,161.57347a10.20261,10.20261,0,0,0,1.53481-1.39713,9.73387,9.73387,0,0,0,1.31813-1.871,12.36193,12.36193,0,0,0-2.28433-1.46912c-.11235-.056-.2267-.11092-.34249-.16344a18.66385,18.66385,0,0,1-.15886,4.50641Q66.23835,161.3754,66.202,161.57347Z"/><path class="cls-1" d="M49.12208,148.19192a11.35873,11.35873,0,0,1,5.23218,1.405c.33533.19006.62486.36781.89049.54657.12437.08043.26391.178.44195.30857A12.40337,12.40337,0,0,1,56.921,151.505a12.05468,12.05468,0,0,1,1.99508,2.54281q.19623.33662.3807.69842a12.70647,12.70647,0,0,1,.90953,8.82434c.14169-.00244.28323-.007.42378-.01417a10.599,10.599,0,0,0,3.798-.94159,16.51213,16.51213,0,0,0,.35522-1.67164,17.26043,17.26043,0,0,0,.01574-5.26924,17.54941,17.54941,0,0,0-1.0389-3.85364c-.06212-.154-.13053-.31629-.22012-.52153a17.581,17.581,0,0,0-2.11746-3.60633,18.34308,18.34308,0,0,0-1.5799-1.82206,19.62729,19.62729,0,0,0-1.82048-1.60423,18.09119,18.09119,0,0,0-4.603-2.56284,13.39231,13.39231,0,0,0-3.45233,4.31778A12.54915,12.54915,0,0,0,49.12208,148.19192Z"/><path class="cls-1" d="M50.4385,169.06193l.13067.42163a10.27775,10.27775,0,0,0,.83939,1.897,12.30314,12.30314,0,0,0,1.23255-.55659,11.69349,11.69349,0,0,0,1.266-.75753,17.91754,17.91754,0,0,1-2.6334-1.56516q-.57084-.40446-1.11591-.86044l.08659.60068c.05324.21883.10333.43766.14641.63745A1.03491,1.03491,0,0,0,50.4385,169.06193Z"/><path class="cls-1" d="M25.53137,150.3556c2.33958,15.46767,9.414,31.49794,20.47342,46.38483l1.23341,1.635a135.88072,135.88072,0,0,0,17.62362,18.88809c16.52919,14.66405,44.768,32.50979,85.693,34.67949l-2.85854-4.57368c-1.65145-.316-3.3427-.68354-5.03008-1.093-19.00545-4.58412-44.30773-15.01712-56.91458-38.68713-8.3081-15.60849-7.485-34.736,2.44635-56.85031a99.18011,99.18011,0,0,1,17.87981-26.52152L85.32881,103.46828C70.86684,116.13767,44.34618,138.64025,25.53137,150.3556Zm51.01589,16.76291-.04608.69527c-.00744.11507-.014.2174-.02433.31987l-.07643.52812c-.01774.10848-.03091.20351-.04365.29883a6.27708,6.27708,0,0,1-.141.76741l-.08373.36395c-.04408.19307-.09.39287-.13925.58865l-.31143.98495A15.19592,15.19592,0,0,1,72.213,177.4914a37.62606,37.62606,0,0,1-5.64521,4.52974,28.49373,28.49373,0,0,0,5.72837-6.76714,14.14565,14.14565,0,0,0,1.31856-3.8097q.03262-.1492.06269-.29912l.1444-.90137c.014-.154.02877-.34778.04308-.53541l.02777-.35164a4.48062,4.48062,0,0,0,.018-.57334c-.00143-.10548-.002-.20838-.00043-.31129l-.00157-.4202a20.03754,20.03754,0,0,1-3.7453,2.21435,19.34531,19.34531,0,0,1-9.7373,1.62255,17.573,17.573,0,0,1-5.86018,3.46049,17.34193,17.34193,0,0,1-2.79556.71889,16.845,16.845,0,0,1-10.01953-1.344A15.98017,15.98017,0,0,1,37.682,172.002a16.22557,16.22557,0,0,1-4.63207-7.18819,20.87985,20.87985,0,0,1-.49906-7.97463,39.69643,39.69643,0,0,0,2.00611,7.47557,14.38407,14.38407,0,0,0,4.76617,5.62189,12.73744,12.73744,0,0,0,1.31084.79088c-.01861-.14828-.03435-.29841-.04165-.44983l-.07185-1.2324c.00086-.455.01031-.87332.01961-1.27864a6.32117,6.32117,0,0,1,.03993-.66722l.05653-.60454a20.10662,20.10662,0,0,1,1.16557-4.90128,19.64708,19.64708,0,0,1,2.21879-4.15691c-.03693-.17446-.072-.35637-.10649-.55087a17.64478,17.64478,0,0,1-.18376-4.5452,17.30481,17.30481,0,0,1,.96391-4.35713,16.95518,16.95518,0,0,1,2.03488-3.90889,16.52531,16.52531,0,0,1,6.49191-5.48406,16.06009,16.06009,0,0,1,12.6661-.56246,15.09291,15.09291,0,0,1,3.94953,2.10515c-1.18532-.4338-4.86836-1.2357-4.86836-1.2357a16.437,16.437,0,0,0-3.69764-.28066,13.86,13.86,0,0,0-6.41391,2.05091,19.48734,19.48734,0,0,1,4.08821,2.40956,21.14972,21.14972,0,0,1,1.96847,1.73562,19.771,19.771,0,0,1,1.70985,1.9729,18.85968,18.85968,0,0,1,2.14122,3.5707c.17088.0551.343.11263.51551.17417a17.528,17.528,0,0,1,4.02353,2.09313,17.02252,17.02252,0,0,1,3.42328,3.16452,17.25648,17.25648,0,0,1,2.23367,3.50643,16.15239,16.15239,0,0,1,1.32429,4.09437,15.67357,15.67357,0,0,1,.23829,1.81648l.02505.29554.01617,1.0412A4.82788,4.82788,0,0,1,76.54726,167.11851Z"/><path class="cls-1" d="M73.60672,159.95178a15.76574,15.76574,0,0,0-2.04188-3.2076,15.52253,15.52253,0,0,0-3.124-2.88729l-.00287-.002a15.67128,15.67128,0,0,0-2.9215-1.61239,18.9896,18.9896,0,0,1,.68755,2.708,12.92325,12.92325,0,0,1,1.23655.53828,13.96723,13.96723,0,0,1,3.06677,2.07251,14.74865,14.74865,0,0,1,2.412,2.75162,13.95055,13.95055,0,0,1,1.683,3.39409,12.06892,12.06892,0,0,1,.39644,1.35406,12.31768,12.31768,0,0,0-.18935-1.375A14.70425,14.70425,0,0,0,73.60672,159.95178Z"/><path class="cls-1" d="M53.33381,172.16033a14.06747,14.06747,0,0,1-2.01283.85414,14.38193,14.38193,0,0,1-5.39791.71531,14.67383,14.67383,0,0,1-4.61733-1.03719q-.30485-.12258-.59981-.25575a14.786,14.786,0,0,0,1.68394.92455,15.3366,15.3366,0,0,0,9.12832,1.22324,15.7118,15.7118,0,0,0,6.89981-2.99506,18.80782,18.80782,0,0,1-2.9102-.835A13.36978,13.36978,0,0,1,53.33381,172.16033Z"/><path class="cls-1" d="M73.1871,164.21876a12.54477,12.54477,0,0,0-1.5082-3.05389,13.20449,13.20449,0,0,0-1.48343-1.81906,11.20381,11.20381,0,0,1-1.33889,1.8368,11.87355,11.87355,0,0,1-2.26916,1.95831,11.39818,11.39818,0,0,1-1.194.68225,12.09373,12.09373,0,0,1-4.68188,1.23541,12.35111,12.35111,0,0,1-1.55843-.01288,12.51165,12.51165,0,0,1-4.76818-1.316,12.64879,12.64879,0,0,1-2.78511-1.90021q-.15886-.13867-.31744-.2891c-.02075.04036-.04107.08-.06068.11994a11.02663,11.02663,0,0,0-.92341,2.58875,10.6061,10.6061,0,0,0-.18047,1.322,16.48522,16.48522,0,0,0,2.02929,1.7047,16.69214,16.69214,0,0,0,3.41226,1.884l.086.03306a17.35049,17.35049,0,0,0,4.60917,1.16428l.22871.02548a17.83521,17.83521,0,0,0,9.06062-1.48773,18.47949,18.47949,0,0,0,4.03684-2.496c.04422-.03535.08873-.07185.1351-.11006l-.12508-.6489A12.50584,12.50584,0,0,0,73.1871,164.21876Z"/><path class="cls-1" d="M169.81769,154.76713c3.14935,2.50187,6.18564,5.15646,9.19817,7.8484,3.03013,2.6739,5.98784,5.44127,9.01683,8.14208,3.00608,2.729,6.07858,5.38774,9.15937,8.02787,3.1017,2.62067,6.22772,5.22187,9.49085,7.64374q-4.39278-4.22359-8.718-8.48857l-8.68336-8.5109q-4.317-4.28286-8.77482-8.45108c-2.98261-2.76837-6.04938-5.46-9.22192-8.03875a106.81279,106.81279,0,0,0-9.99462-7.14c-3.48711-2.18887-7.15985-4.00549-10.7025-5.89382a53.37685,53.37685,0,0,1-5.13-3.07793,49.43723,49.43723,0,0,1-4.69848-3.72827c-1.51621-1.32014-2.97632-2.732-4.48079-4.09652q-2.24169-2.06028-4.51987-4.0832,2.01284,2.28741,4.05873,4.54133c1.36551,1.49932,2.723,3.00552,4.15033,4.4745a42.5991,42.5991,0,0,0,9.71512,7.56044c3.50629,2.11674,7.09788,3.93994,10.41511,6.17648A111.62224,111.62224,0,0,1,169.81769,154.76713Z"/><path class="cls-1" d="M133.40688,113.43285a5.03768,5.03768,0,1,0,0,7.12465A5.04377,5.04377,0,0,0,133.40688,113.43285Zm-1.658,5.46646a2.693,2.693,0,1,1,0-3.80841A2.6958,2.6958,0,0,1,131.74884,118.89931Z"/><path class="cls-1" d="M151.41936,102.54488a5.03779,5.03779,0,1,0-7.12436-.00015A5.04342,5.04342,0,0,0,151.41936,102.54488Zm-5.46646-5.46646a2.693,2.693,0,1,1,.00029,3.80813A2.69569,2.69569,0,0,1,145.9529,97.07842Z"/><path class="cls-1" d="M185.32028,152.79623a7.42937,7.42937,0,1,0-10.50671.00042A7.43755,7.43755,0,0,0,185.32028,152.79623Zm-8.84852-8.84867a5.08449,5.08449,0,1,1,0,7.19091A5.09,5.09,0,0,1,176.47176,143.94756Z"/><path class="cls-1" d="M201.57554,169.05148a5.59682,5.59682,0,1,0-7.91524-.00014A5.60317,5.60317,0,0,0,201.57554,169.05148Zm-6.25691-6.257a3.25194,3.25194,0,1,1-.00029,4.59872A3.25554,3.25554,0,0,1,195.31863,162.79443Z"/><path class="cls-1" d="M227.66155,195.13749a6.81765,6.81765,0,1,0-9.64155,0A6.82529,6.82529,0,0,0,227.66155,195.13749ZM219.678,187.154a4.47278,4.47278,0,1,1,0,6.32547A4.47789,4.47789,0,0,1,219.678,187.154Z"/><path class="cls-1" d="M501.309,53.112c-2.62567-3.138-4.88482-6.06828-6.90753-8.95815A120.08694,120.08694,0,0,1,483.32066,23.684c-.456-1.02674-.88234-1.99137-1.29223-2.948l-.11621-.27164-.27079.11864c-17.422,7.6363-39.3565,24.30546-48.67087,48.18828l-.17118.43924.46958-.04051c14.4478-1.24886,31.50123,3.0516,42.43615,10.70035l.20152.14083,26.084-26.08386ZM475.615,76.98641l-.19808-.127c-10.35887-6.612-25.13-10.5319-38.54945-10.23006l-.46657.01031.19307-.42478c11.71807-25.7773,36.52072-39.05295,43.8433-42.50772l.27165-.12837.46671,1.05536a122.16007,122.16007,0,0,0,11.30489,20.86371c1.83322,2.62124,3.85106,5.264,6.1676,8.081l.169.20538Z"/><path class="cls-1" d="M480.3721,24.99043l-.10161-.22957a102.01246,102.01246,0,0,0-17.06775,10.55723l6.466,1.65532-8.18359-.29024.00415-.02863q-.78013.62129-1.56644,1.27406l12.31588,2.56828-14.00541-1.13265a90.07562,90.07562,0,0,0-9.7071,9.80156l18.21943,3.4602L447.276,50.68357q-.72841.90381-1.43864,1.84024l15.41,3.03514-16.52661-1.5258a73.3789,73.3789,0,0,0-6.936,11.7029c13.1603-.1062,27.47513,3.734,37.70719,10.13016L497.6322,53.72587c-2.191-2.68164-4.11526-5.21228-5.8722-7.72446A122.997,122.997,0,0,1,480.3721,24.99043Z"/><path class="cls-1" d="M568.49666,219.67566a139.0778,139.0778,0,0,0,18.045-19.34121l1.24929-1.65561c11.86334-15.96858,19.24689-33.18245,21.35505-49.78277l.02361-.18921-.16359-.09889c-20.04592-12.07845-50.7713-38.55346-63.051-49.375l-.20653-.18219-25.08918,25.08932.19579.20724c6.00674,6.34192,13.61985,15.22279,19.22471,27.71185,9.502,21.15868,10.357,39.332,2.5418,54.015-12.0431,22.6122-36.46147,32.6386-54.82545,37.0683-2.07252.50278-4.13316.93658-6.12553,1.29037l-.12824.02247-6.82194,10.91488.54042-.01016C519.98665,254.55265,550.64977,235.509,568.49666,219.67566ZM482.801,246.31282l.25218-.04723c1.71214-.32331,3.46922-.70286,5.22444-1.12864,18.77245-4.528,43.75314-14.813,56.1549-38.09877,8.12906-15.27173,7.29467-34.05205-2.48055-55.81913a98.54881,98.54881,0,0,0-18.05313-26.62114l-.38213-.41376,22.32139-22.32124.41275.36181c11.60945,10.18211,40.73389,35.17669,60.38209,47.33757l.32731.20266-.05582.3807c-2.3088,15.77623-9.4834,32.13024-20.7515,47.2975l-1.23856,1.64215a137.06765,137.06765,0,0,1-17.7792,19.05554c-16.821,14.92281-45.66192,33.11362-87.53547,35.02856l-1.11619.05124Z"/><path class="cls-1" d="M582.54888,152.78807c.00987-.1165.018-.23214.02447-.34793a12.38653,12.38653,0,0,0-.13825-2.74518,9.79868,9.79868,0,0,0-4.14719.87146q.687.24753,1.334.54142A18.775,18.775,0,0,1,582.54888,152.78807Z"/><path class="cls-1" d="M583.78743,148.74465c.00831.02776.01475.0561.03264.14054a14.14756,14.14756,0,0,1,.25532,3.645,13.10457,13.10457,0,0,1-.14126,1.32414q.59316.50214,1.142,1.05121.44633.44633.861.921a15.95415,15.95415,0,0,0-.82752-7.32945,15.41252,15.41252,0,0,0-1.85111-3.557,15.162,15.162,0,0,0-3.78065-3.76606,14.88014,14.88014,0,0,1,3.12044,4.17209A14.2015,14.2015,0,0,1,583.78743,148.74465Z"/><path class="cls-1" d="M576.21726,157.446a11.61394,11.61394,0,0,0-3.21419-1.45009,11.21983,11.21983,0,0,0-.45426,7.48889,10.99144,10.99144,0,0,0,3.60963-1.1,11.16345,11.16345,0,0,0,2.46409-1.68266c.1696-.14856.33719-.3057.50106-.47043A11.23242,11.23242,0,0,0,576.21726,157.446Z"/><path class="cls-1" d="M582.64648,154.74036a17.34945,17.34945,0,0,0-3.64984-2.26372,16.83033,16.83033,0,0,0-2.4628-.89207l-.09847.07142a10.96607,10.96607,0,0,0-1.08513.92513,10.44468,10.44468,0,0,0-1.64173,2.05262,12.92024,12.92024,0,0,1,3.33526,1.55485,12.72662,12.72662,0,0,1,3.67632,3.70967,11.19214,11.19214,0,0,1,.62343,1.08885,12.54254,12.54254,0,0,1,1.05036,2.95127,12.27051,12.27051,0,0,1,.23142,1.89119c.01732.3734.01632.76354-.00229,1.16671l-.02318.393a2.97075,2.97075,0,0,1-.03664.3754l-.09976.69771-.01216.06483c-.061.26048-.10935.472-.14455.6303a2.38459,2.38459,0,0,1-.09561.37383l-.12637.40646a11.78867,11.78867,0,0,1-.81392,1.90951,12.84848,12.84848,0,0,0,3.93479.38055,13.15469,13.15469,0,0,0,3.76-.7843l.01245-.07656.09231-.66465c.02305-.1696.04566-.33.05367-.50336l.0707-1.189c-.002-.40518-.01116-.81278-.02032-1.23227a5.08639,5.08639,0,0,0-.03334-.53455l-.05525-.59681a18.57347,18.57347,0,0,0-1.07526-4.516,18.12617,18.12617,0,0,0-2.19274-4.03884l.27093-.19292-.01546-.02118-.29225.16516A17.163,17.163,0,0,0,582.64648,154.74036Z"/><path class="cls-1" d="M564.44866,156.83621a12.36227,12.36227,0,0,0-2.28433,1.46912,9.73387,9.73387,0,0,0,1.31813,1.871,10.1959,10.1959,0,0,0,1.53482,1.39713q-.03628-.19771-.06727-.39429a18.66435,18.66435,0,0,1-.15886-4.50641C564.67537,156.72529,564.561,156.78025,564.44866,156.83621Z"/><path class="cls-1" d="M566.79125,162.61481a10.599,10.599,0,0,0,3.798.94159c.14054.00715.28209.01173.42377.01417a12.70647,12.70647,0,0,1,.90953-8.82434q.18526-.36237.3807-.69842a12.05439,12.05439,0,0,1,1.99509-2.54281,12.40218,12.40218,0,0,1,1.23426-1.05293c.1779-.13053.31759-.22814.442-.30857.26563-.17876.55516-.35651.89049-.54657a11.35869,11.35869,0,0,1,5.23217-1.405,12.54993,12.54993,0,0,0-.84469-2.17084,13.39247,13.39247,0,0,0-3.45234-4.31778,18.089,18.089,0,0,0-4.603,2.56284,19.62859,19.62859,0,0,0-1.82048,1.60423,18.34441,18.34441,0,0,0-1.5799,1.82206,17.5882,17.5882,0,0,0-2.1176,3.60633c-.08945.20524-.15786.36753-.22.52153a17.54887,17.54887,0,0,0-1.03891,3.85364,17.256,17.256,0,0,0,.01574,5.26924A16.51217,16.51217,0,0,0,566.79125,162.61481Z"/><path class="cls-1" d="M579.81071,171.38061a10.27846,10.27846,0,0,0,.8394-1.897l.13052-.42163a1.02038,1.02038,0,0,0,.0478-.18291c.04308-.19979.09317-.41862.14641-.63745l.08659-.60068q-.54378.45448-1.1159.86044a17.91816,17.91816,0,0,1-2.63341,1.56516,11.69542,11.69542,0,0,0,1.266.75753A12.28988,12.28988,0,0,0,579.81071,171.38061Z"/><path class="cls-1" d="M583.98108,198.37543l1.2334-1.635c11.05944-14.88689,18.13385-30.91716,20.47343-46.38483-18.81481-11.71535-45.33548-34.21793-59.79744-46.88732l-20.74893,20.74908a99.18034,99.18034,0,0,1,17.87981,26.52152c9.93136,22.11429,10.75444,41.24182,2.44634,56.85031-12.60684,23.67-37.90913,34.103-56.91457,38.68713-1.68739.40947-3.37863.777-5.03009,1.093L480.6645,251.943c40.925-2.1697,69.16362-20.01544,85.693-34.67949A135.88079,135.88079,0,0,0,583.98108,198.37543Zm-24.97483-20.884a15.19592,15.19592,0,0,1-3.46837-5.82584l-.31142-.98495c-.04924-.19578-.09518-.39558-.13926-.58865l-.08372-.36395a6.27527,6.27527,0,0,1-.141-.76741c-.01274-.09532-.0259-.19035-.04365-.29883l-.07643-.52812c-.0103-.10247-.01688-.2048-.02447-.31987l-.04594-.69527a4.82788,4.82788,0,0,1-.01732-.57606l.01618-1.0412.025-.29554a15.67362,15.67362,0,0,1,.2383-1.81648,16.15238,16.15238,0,0,1,1.32428-4.09437,17.25691,17.25691,0,0,1,2.23367-3.50643,17.02279,17.02279,0,0,1,3.42328-3.16452,17.528,17.528,0,0,1,4.02353-2.09313c.17246-.06154.34463-.11907.51552-.17417a18.85964,18.85964,0,0,1,2.14121-3.5707,19.77235,19.77235,0,0,1,1.70985-1.9729,21.151,21.151,0,0,1,1.96847-1.73562,19.48385,19.48385,0,0,1,4.08822-2.40956,13.86,13.86,0,0,0-6.41391-2.05091,16.4371,16.4371,0,0,0-3.69765.28066s-3.683.8019-4.86836,1.2357a15.09281,15.09281,0,0,1,3.94954-2.10515,16.05976,16.05976,0,0,1,12.66595.56246,16.52477,16.52477,0,0,1,6.49206,5.48406,16.94969,16.94969,0,0,1,2.03473,3.90889,17.29864,17.29864,0,0,1,.96405,4.35713,17.64478,17.64478,0,0,1-.18376,4.5452c-.03464.1945-.06956.37641-.10648.55087a19.647,19.647,0,0,1,2.21878,4.15691,20.10662,20.10662,0,0,1,1.16557,4.90128l.05653.60454a6.31849,6.31849,0,0,1,.03993.66722c.00916.40532.01875.82366.01961,1.27864l-.072,1.2324c-.00715.15142-.0229.30155-.04165.44983a12.73947,12.73947,0,0,0,1.311-.79088,14.384,14.384,0,0,0,4.76617-5.62189,39.69564,39.69564,0,0,0,2.00611-7.47557,20.88,20.88,0,0,1-.49905,7.97463,16.22559,16.22559,0,0,1-4.63208,7.18819,15.97982,15.97982,0,0,1-4.06889,2.72214,16.845,16.845,0,0,1-10.01953,1.344,17.33845,17.33845,0,0,1-2.79556-.71889,17.57316,17.57316,0,0,1-5.86018-3.46049,19.34613,19.34613,0,0,1-9.73744-1.62255,20.04054,20.04054,0,0,1-3.74515-2.21435l-.00158.4202c.00158.10291.001.20581-.00043.31129a4.47876,4.47876,0,0,0,.018.57334l.02776.35164c.01431.18763.029.38141.04308.53541l.14441.90137q.02984.15006.06268.29912a14.1453,14.1453,0,0,0,1.31857,3.8097,28.49363,28.49363,0,0,0,5.72836,6.76714A37.62606,37.62606,0,0,1,559.00625,177.4914Z"/><path class="cls-1" d="M560.712,157.56125a13.96747,13.96747,0,0,1,3.06677-2.07251,12.9079,12.9079,0,0,1,1.23655-.53828,18.97089,18.97089,0,0,1,.68755-2.708,15.67128,15.67128,0,0,0-2.9215,1.61239l-.00286.002a15.52706,15.52706,0,0,0-3.12417,2.88729,15.7716,15.7716,0,0,0-2.04174,3.2076,14.70425,14.70425,0,0,0-1.20264,3.73428,12.31768,12.31768,0,0,0-.18934,1.375,12.06472,12.06472,0,0,1,.39644-1.35406A13.95054,13.95054,0,0,1,558.3,160.31287,14.749,14.749,0,0,1,560.712,157.56125Z"/><path class="cls-1" d="M579.8983,173.01447a14.06711,14.06711,0,0,1-2.01284-.85414,13.36978,13.36978,0,0,1-2.174-1.40572,18.80738,18.80738,0,0,1-2.91019.835,15.71172,15.71172,0,0,0,6.8998,2.99506,15.33656,15.33656,0,0,0,9.12832-1.22324,14.79808,14.79808,0,0,0,1.68395-.92455q-.29541.13331-.59982.25575a14.67383,14.67383,0,0,1-4.61733,1.03719A14.38188,14.38188,0,0,1,579.8983,173.01447Z"/><path class="cls-1" d="M562.36269,161.18261a11.20318,11.20318,0,0,1-1.33888-1.8368,13.20383,13.20383,0,0,0-1.48344,1.81906,13.4418,13.4418,0,0,0-1.91179,4.47507l-.12509.6489c.04637.03821.09088.07471.13511.11006a18.47942,18.47942,0,0,0,4.03683,2.496,17.835,17.835,0,0,0,9.06063,1.48773l.2287-.02548a17.35184,17.35184,0,0,0,4.60917-1.16428l.086-.03306a16.69214,16.69214,0,0,0,3.41226-1.884,16.48606,16.48606,0,0,0,2.0293-1.7047,10.608,10.608,0,0,0-.18048-1.322,11.03923,11.03923,0,0,0-.92341-2.58875c-.01975-.03993-.03993-.07958-.06068-.11994q-.15865.15006-.31744.2891a12.64855,12.64855,0,0,1-2.78511,1.90021,12.51165,12.51165,0,0,1-4.76818,1.316,12.35108,12.35108,0,0,1-1.55843.01288,12.09373,12.09373,0,0,1-4.68187-1.23541,11.39716,11.39716,0,0,1-1.19405-.68225A11.87362,11.87362,0,0,1,562.36269,161.18261Z"/><path class="cls-1" d="M490.46,133.09994a49.4371,49.4371,0,0,1-4.69847,3.72827,53.39542,53.39542,0,0,1-5.13,3.07793c-3.54264,1.88833-7.21538,3.70495-10.70249,5.89382a106.81162,106.81162,0,0,0-9.99463,7.14c-3.17254,2.57873-6.23931,5.27038-9.22192,8.03875q-4.44816,4.18045-8.77482,8.45108l-8.68336,8.5109q-4.32279,4.279-8.718,8.48857c3.26313-2.42187,6.38915-5.02307,9.49084-7.64374,3.08079-2.64013,6.15329-5.29886,9.15938-8.02787,3.029-2.70081,5.9867-5.46818,9.01683-8.14208,3.01253-2.69194,6.04881-5.34653,9.198-7.8484a111.64571,111.64571,0,0,1,9.72-7.09416c3.31723-2.23654,6.90882-4.05974,10.41511-6.17648a42.59933,42.59933,0,0,0,9.71511-7.56044c1.42733-1.469,2.78482-2.97518,4.15033-4.4745q2.04783-2.252,4.05873-4.54133-2.276,2.02485-4.51986,4.0832C493.43636,130.36793,491.97625,131.7798,490.46,133.09994Z"/><path class="cls-1" d="M497.81239,113.43285a5.03768,5.03768,0,1,0,7.12465,0A5.04377,5.04377,0,0,0,497.81239,113.43285Zm5.46632,5.46632a2.69286,2.69286,0,1,1,.00014-3.80827A2.69581,2.69581,0,0,1,503.27871,118.89917Z"/><path class="cls-1" d="M486.92427,102.54473a5.03758,5.03758,0,1,0-7.1245.00015A5.04368,5.04368,0,0,0,486.92427,102.54473Zm-5.46617-5.466a2.6926,2.6926,0,1,1-.00015,3.80813A2.69567,2.69567,0,0,1,481.4581,97.0787Z"/><path class="cls-1" d="M456.4057,152.79665a7.42956,7.42956,0,1,0-10.50671-.00042A7.43823,7.43823,0,0,0,456.4057,152.79665Zm-8.84881-8.8488a5.08454,5.08454,0,1,1,.00014,7.19033A5.09,5.09,0,0,1,447.55689,143.94785Z"/><path class="cls-1" d="M437.559,169.05134a5.59682,5.59682,0,1,0-7.91538.00014A5.6032,5.6032,0,0,0,437.559,169.05134Zm-6.257-6.25705a3.25194,3.25194,0,1,1-.00028,4.59915A3.25556,3.25556,0,0,1,431.30192,162.79429Z"/><path class="cls-1" d="M403.55773,185.4958a6.81765,6.81765,0,1,0,9.64155,0A6.82528,6.82528,0,0,0,403.55773,185.4958Zm7.9835,7.98365a4.47278,4.47278,0,1,1,0-6.32547A4.47789,4.47789,0,0,1,411.54123,193.47945Z"/><path class="cls-1" d="M630.98919,148.62614l-.14885-1.72659-1.54712.78043c-1.59092.80219-3.85851.82094-6.7398.05439-14.48143-3.80255-61.98516-44.23145-75.33194-56.37459l3.13747-3.13747-1.18016-16.47366L528.60532,51.17533,512.13625,49.9996,509.648,52.48774c-1.12435-1.28135-2.16855-2.49916-3.16324-3.69163-2.54066-3.04416-4.68688-5.82669-6.56175-8.50718A114.2753,114.2753,0,0,1,489.48239,20.9523c-.73649-1.66119-1.39742-3.1608-2.02972-4.68932-.69013-1.66648-3.61864-10.72052-3.63038-14.7067L483.81714,0l-2.77366.80419c-1.921.55473-2.97918.86058-3.657,1.14224-.46027.19149-.93657.35308-1.44121.52367-.37183.126-.74337.25161-1.11.39-.16859.06383-.35179.12136-.525.17632-.235.07428-.45655.14655-.62773.216l-.4096.166-.19837.39586a4.3609,4.3609,0,0,0-.36209,1.39471,6.15841,6.15841,0,0,0-.85843-.64719l-.4557-.2622-.49863.166a14.39815,14.39815,0,0,0-1.38568.59309l-.39644.18334c-1.06109.48431-2.13478.99769-3.19129,1.52608a107.75174,107.75174,0,0,0-12.50752,7.375,115.52407,115.52407,0,0,0-11.27612,8.76981c-1.78155,1.57246-3.53391,3.21991-5.20755,4.89613-.8404.8414-1.6768,1.706-2.48571,2.56957-.26964.28753-1.24056,1.33989-1.422,1.56959l-.40359.51037.21954.61226c.063.17475.2184.619.40532,1.155.02919.08258.05839.16774.089.25418-.68869-.16387-1.29552-.30456-1.48444-.338l-.57219-.10175-.42736.39357a12.05587,12.05587,0,0,0-.91339,1.05938l-.25447.31243c-.72332.88061-1.44064,1.78327-2.13248,2.68392l-.31658.4119.09245.51122a22.218,22.218,0,0,0,1.22311,3.97c-.375.016-.77915.03364-1.19076.0521-1.102.04837-2.2278.098-2.85524.11349l-.61.015-.33776.50822a88.40565,88.40565,0,0,0-8.1584,15.24826,73.189,73.189,0,0,0-4.19541,13.89622l-.11764.611.44023.4401c3.23737,3.23751,6.2801,6.10134,6.31044,6.13l.70329.66121.78372-.56274c13.11865-9.42086,42.97543-3.91533,55.25883,7.0568l-.19808.19808v5.93417c-.14942.10391-.29969.20624-.44739.31315l-.12309.1029c-4.123,3.94367-7.84468,7.65934-11.41895,11.25494l-.00029-.00014-.00114.00129-.00143-.00158c-.022.02233-.04265.0458-.06469.06827q-1.03391,1.04055-2.05577,2.06994c-3.66874,3.69678-7.46255,7.5198-11.68316,11.61073-1.08084,1.04821-2.68492,2.59791-4.71722,4.56152-18.36857,17.74742-67.16124,64.89092-88.66928,87.84633-7.095,7.572-14.15683,14.53009-20.98622,21.259-6.33247,6.239-12.53113,12.358-18.60213,18.7816-6.07329-6.42622-12.27767-12.54029-18.61244-18.7816-6.82939-6.72892-13.89135-13.687-20.98622-21.259-21.50818-22.95541-70.30085-70.09891-88.66927-87.84633-2.03245-1.96361-3.63625-3.51331-4.71723-4.56152-4.2206-4.09093-8.01442-7.91395-11.6833-11.61073q-1.02036-1.02789-2.05577-2.06994c-.022-.02247-.04265-.04594-.06454-.06827l-.00158.00158-.00114-.00129-.00015.00014c-3.57427-3.5956-7.2961-7.31127-11.41895-11.25494l-.12308-.1029c-.14785-.10691-.29812-.20924-.44754-.31315l.00029-5.93417-.19822-.19808c12.28339-10.97213,42.14-16.47766,55.25882-7.0568l.78372.56274.7033-.66121c.03019-.02862,3.07292-2.89245,6.31043-6.13l.44009-.4401-.11764-.611A73.17826,73.17826,0,0,0,215.8191,59.3197a88.41365,88.41365,0,0,0-8.15825-15.24826l-.33791-.50822-.61-.015c-.62743-.01545-1.75321-.06512-2.85524-.11349-.41161-.01846-.81578-.03607-1.19075-.0521a22.206,22.206,0,0,0,1.2231-3.97l.09245-.51122-.31672-.4119c-.69184-.90065-1.40916-1.80331-2.13234-2.68392l-.25447-.31243a12.07468,12.07468,0,0,0-.91353-1.05938l-.42721-.39357-.5722.10175c-.18891.03349-.79588.17418-1.48443.338.03048-.08644.05982-.1716.089-.25418.18691-.536.3422-.98023.40517-1.155l.21969-.61226-.4036-.51051c-.18162-.22956-1.15254-1.28192-1.4219-1.56945-.80919-.86359-1.64559-1.72817-2.4857-2.56957-1.67393-1.67622-3.42614-3.32367-5.20784-4.89613a115.50425,115.50425,0,0,0-11.276-8.76981,107.77514,107.77514,0,0,0-12.50752-7.375c-1.05665-.52839-2.13019-1.04177-3.19143-1.52608l-.39629-.18334a14.41433,14.41433,0,0,0-1.38569-.59309l-.49863-.166-.45569.2622a6.15787,6.15787,0,0,0-.85858.64719,4.35263,4.35263,0,0,0-.36209-1.39471l-.19837-.39586-.4096-.166c-.171-.06942-.39258-.14169-.62758-.216-.17332-.055-.35637-.11249-.525-.17632-.36667-.1384-.73807-.26406-1.11-.39-.50464-.17059-.98109-.33218-1.44136-.52367-.67768-.28166-1.73605-.58751-3.657-1.14224L147.40213,0,147.397,1.55628c-.01173,3.98618-2.94025,13.04022-3.63037,14.7067-.63231,1.52852-1.29323,3.02813-2.02973,4.68932a114.26661,114.26661,0,0,1-10.44073,19.33663c-1.87472,2.68049-4.02109,5.463-6.56161,8.50718-.99468,1.19247-2.03888,2.41028-3.16338,3.69163L119.083,49.9996l-16.46922,1.17573L82.04049,71.74865,80.86032,88.22231l3.13733,3.13747c-13.34649,12.14314-60.85037,52.572-75.33194,56.37459-2.88115.76655-5.14888.7478-6.7398-.05453l-1.54712-.78029-.1487,1.72659c-1.79616,20.86,6.9881,45.6429,24.10093,67.99434l.56547.73864.84727-.38241c.13095-.059,2.13864-.96635,4.29216-2.05435-.43938.72834-.94788,1.54284-1.55113,2.4983l-2.547,4.0334,4.12628-2.39282q.2705-.1565.53284-.3047l-1.29509,2.572,3.04129-1.39614c1.9231-.8829,3.06248-1.29766,4.25538-1.7296-2.29306,2.96444-4.64237,6.06012-4.67558,6.10392l-.58693.774.65091.72046a155.48837,155.48837,0,0,0,110.69368,50.97754l.69127.0229.35465-.59337c.07815-.13081,1.382-2.322,2.56485-4.771.392.98824.844,1.92,1.21065,2.67533l.95518,1.9772,1.162-1.45424a1.88019,1.88019,0,0,1,.39244-.32531l.06626.08688a24.4249,24.4249,0,0,0,1.69826,2.04775l.3764.40747.55373-.03249c.12953-.0073,13.01517-.76755,20.11849-1.69182l1.75036-.22756-.88878-1.52551a69.42249,69.42249,0,0,1-5.38588-11.2329c-.20824-.56575-.41018-1.13852-.59767-1.71043a4.00462,4.00462,0,0,1-.11278-.43866,3.14721,3.14721,0,0,0-.65491-1.44994,17.72339,17.72339,0,0,0-1.96833-1.89677l1.81519.07943-1.21409-1.90063a15.34641,15.34641,0,0,0-1.41645-1.79687l2.06736,1.53052-.83252-3.20989c-.26692-1.02917-.26077-6.947-.0687-10.89012l.0581-1.19548-1.19619-.03363c-2.14279-.0604-4.32823-.20724-6.49635-.43723a97.92779,97.92779,0,0,1-12.6774-2.1999c-17.02152-4.11011-39.59194-13.291-50.45444-33.6881-6.78717-12.74309-5.86634-28.92164,2.73659-48.08595,5.50682-12.26421,13.34764-21.23968,21.09958-29.06891l.22355.2237,5.943-.00029c.10276.1477.20394.29612.30985.4421l.12022.14126c12.63046,12.64148,16.41212,16.55352,18.915,19.14227,3.33054,3.445,4.70893,4.87108,21.49187,21.27475,9.659,9.44046,18.56649,18.01162,27.18087,26.30011,27.44722,26.40961,51.15129,49.21746,80.64369,82.54261,4.49282,5.0766,8.36564,9.86052,11.86563,14.45237a203.49809,203.49809,0,0,1-19.35451,24.96782,10.33632,10.33632,0,0,0-2.75134,1.60251c-2.28648,1.29838-5.12769,4.35542-7.87731,7.31642-.81578.87861-1.61582,1.74-2.37407,2.52478-2.74761,2.84479-4.07433,4.57482-4.15333,7.09287a2.16188,2.16188,0,0,0-.35294-.11879c-2.33829-.54672-5.819,2.83735-11.27411,8.47541-.29283.303-.56847.58536-.82666.85013-2.07438,2.12547-3.189,3.34943-3.43688,5.049a2.1307,2.1307,0,0,0-.7405-.34191c-2.33858-.54672-5.81925,2.8372-11.2744,8.47526-.2725.28452-.52668.54515-.76713.79145q-.23013.23593-.44309.4557h-.67181l-.00343.44911a18.869,18.869,0,0,0-4.45131,3.72011l-.20352.20924a21.63072,21.63072,0,0,1-2.11445,1.73275c-2.56242,1.95015-5.73395,4.37016-5.38159,7.16672a6.33259,6.33259,0,0,0-2.32341-.14169c-3.12115.42822-5.62747,3.127-7.83867,5.50854-.63516.68383-1.23541,1.33044-1.79472,1.85913-2.11588,1.99895-3.017,3.84734-3.18785,5.49236-2.46423-.0395-4.57582,1.77841-6.955,3.83418-1.07856.93185-2.30023,1.98478-3.67933,2.9892-2.50459.953-4.69633,2.88672-6.81507,4.76574-1.10317.97837-2.14566,1.90249-3.19415,2.65845-2.38323,1.71773-3.61263,3.56969-3.65528,5.50553a4.81132,4.81132,0,0,0,.36925,1.92339,6.30084,6.30084,0,0,0-3.90459.13983c-2.58732.92383-4.83573,2.91778-7.01,4.84575-1.10345.97893-2.14594,1.90306-3.19415,2.65859a8.17317,8.17317,0,0,0-3.51988,4.53489l-.17032-.19021c-14.34,12.83913-25.43982,24.2724-34.93123,35.98146l.01688.01359c-.09131.05253-.18147.10033-.27393.15887-3.03127,1.91952-7.87988,9.58244-8.94527,11.16133-2.23152,3.30707-2.59276,3.906-4.00191,5.87149C97.632,475.82,93.84157,480.3816,90.1113,485.85235a107.83,107.83,0,0,0-5.87478,9.06034c-4.91588,8.98363-8.62182,17.3693-7.97864,27.9397.59079,9.70881,2.83463,16.55452,9.889,23.29145,2.93338,2.80128,8.48986,5.29443,12.50408,4.92847-5.15546,4.87566-6.73578,10.86365-4.858,17.70177,3.31694-8.30667,8.18588-15.10815,15.43518-20.28708,3.43058-2.4505,7.40158-4.16035,10.34985-6.8a37.21391,37.21391,0,0,0,6.69-8.18373,1.63229,1.63229,0,0,0,.26849-1.86485c-.221-.36295-1.06338-.4338-1.2918-.83439-.519-.9101.57992-2.27,1.25087-2.824,2.54638-2.10214,5.80894-2.8591,7.15856-6.09032-.27422-2.17942-1.93727-3.30735-3.77808-4.05029-2.097-.84641-3.4884.15343-4.70148,1.725-1.54369,2.00009-2.05119,3.748-4.4536,5.037-.79889.42865-1.99108.90337-2.83978,1.44308a25.6277,25.6277,0,0,0-2.19317,1.83222c-.85213.68139-2.05892,1.44522-3.28088.93643-.6801-.28266-.68354-1.11748-.54557-1.76882a1.65622,1.65622,0,0,1,.20838-.00085,7.52589,7.52589,0,0,0,2.44621-.36854,5.11606,5.11606,0,0,0,1.12177-.59781,11.36534,11.36534,0,0,0,.97407-.72247c.30685-.2599.60626-.54285.877-.82208.27107-.27922.5679-.58493.79746-.86644,1.846-2.262,3.26628-4.87194,5.395-6.85029a8.274,8.274,0,0,1,3.4927-1.935,20.42162,20.42162,0,0,1,4.38462-.5606,23.60966,23.60966,0,0,0,4.92274-.53212,7.88211,7.88211,0,0,0,3.92664-2.74088,9.65329,9.65329,0,0,1-4.20286,1.648,29.222,29.222,0,0,1-4.64853-.10705,20.6213,20.6213,0,0,0-4.9674.26119,9.09972,9.09972,0,0,0-1.2646.37183c-.15829.0581-.4245.15514-.61256.23013-.18777.07471-.40159.19379-.58707.28867-.1852.09489-.407.20309-.57506.309-.168.106-.39673.26534-.52983.35708a8.87118,8.87118,0,0,0-1.00184.78788,18.86817,18.86817,0,0,0-2.97517,3.65671c-.82065,1.2958-1.469,2.48084-2.30051,3.742-.07814.1185-.19779.306-.2891.43336s-.23014.301-.31.41391c-.21525.30484-.43336.55716-.65835.83324a9.67714,9.67714,0,0,1-.72561.76168,4.28436,4.28436,0,0,1-.78688.62028,5.69516,5.69516,0,0,1-1.91265.70873,19.10733,19.10733,0,0,1,1.35449-2.73416c1.1564-1.99666,2.20519-3.555,2.43561-5.69674.13968-1.299-.11679-2.2454.62314-3.333a2.86025,2.86025,0,0,1,1.86342-1.2221c.31257-.08916,1.88832-.20437,1.88947-.65849.00458-1.99752-1.89-3.01539-3.74029-2.70754a5.48111,5.48111,0,0,0-3.91,3.3782c-.77742,1.66205-.80175,3.29018-1.28407,5.0879-.57906,2.15711-1.10288,4.23621-2.69265,6.07243-1.58978,1.83637-4.44788,3.914-6.96364,2.7937a3.2936,3.2936,0,0,1-1.71028-2.09313c-1.63786-5.18694.43108-9.30793,4.92161-12.31574,9.26013-6.20266,19.10391-7.75022,29.73169-4.36272a10.62555,10.62555,0,0,0,14.05179-5.19052,90.22985,90.22985,0,0,1,8.18587-11.64394c1.20135-1.47127,3.42744-3.9086,2.97117-6.05039a313.67664,313.67664,0,0,1,31.57995-37.23274c2.40412-.11507,4.44472-2.01527,6.13869-3.59932.59023-.55187,1.14782-1.07354,1.65418-1.45939l.77714-.58794c2.27016-1.71057,4.61733-3.47938,6.08173-6.20481a2.57243,2.57243,0,0,0,.32517-1.21638v-.00086a4.939,4.939,0,0,0-.74623-2.68907c.55817.19664,1.11891.37826,1.67851.529,3.06162.82351,5.5914-1.543,7.62427-3.444.59023-.552,1.14783-1.07368,1.6539-1.45925l.77513-.58636c2.271-1.71085,4.61876-3.48,6.084-6.2061a2.576,2.576,0,0,0,.32489-1.21638v-.00071a4.681,4.681,0,0,0-.12223-1.17043c2.502.24573,4.86121-1.98121,6.51911-3.55209.42506-.40231.82666-.78287,1.15841-1.0558.32288-.26491.65291-.52811.98523-.79331a17.777,17.777,0,0,0,5.09678-5.40478,3.92,3.92,0,0,0,.34864-.9224,4.32188,4.32188,0,0,0,.087-1.39513,3.7663,3.7663,0,0,0,3.2076-.0126,28.38944,28.38944,0,0,0,5.63634-4.541c.5639-.53871,1.11691-1.06739,1.66191-1.55786.2788-.24932.56962-.49777.86387-.74909a12.724,12.724,0,0,0,3.62837-4.18583,4.85734,4.85734,0,0,0,.40646-1.43792,7.24066,7.24066,0,0,0,3.91-1.42547l.008.00014h.004l.10047.00243.25275-.24616a29.18028,29.18028,0,0,0,5.44656-4.43614c.56418-.53928,1.11748-1.06825,1.66277-1.55872.26878-.2413.55044-.48088.8341-.72261l.40331-.34864.31973-.23586c1.80617-1.31012,4.27928-3.10427,4.05487-5.87092a3.47765,3.47765,0,0,0-.28481-1.12635,4.14516,4.14516,0,0,0,2.7416.31229,5.1323,5.1323,0,0,0,2.28963-1.51951c.54958-.55158,1.49675-1.32729,2.59391-2.22565,4.37574-3.58272,8.00411-6.78488,8.08311-9.68935a3.25946,3.25946,0,0,0-.23529-1.25373c2.89618,1.17272,5.71077-1.4873,7.60682-3.28417.42535-.40288.82666-.78286,1.159-1.05608.322-.2642.65148-.52725.983-.79174a17.7786,17.7786,0,0,0,5.0985-5.40606,3.8847,3.8847,0,0,0,.34892-.92212,4.629,4.629,0,0,0-.08873-2.32971q.68912-.69642,1.37652-1.39384c5.30259-5.40291,9.75648-10.4662,13.72247-15.36161,3.96571,4.89483,8.42489,9.95956,13.72676,15.36161q.6859.69857,1.37652,1.3937a4.62966,4.62966,0,0,0-.08887,2.32985,3.89118,3.89118,0,0,0,.34892.92212,17.7786,17.7786,0,0,0,5.0985,5.40606c.33161.26449.66107.52754.98309.79174.33233.27322.73349.6532,1.159,1.05608,1.89606,1.79687,4.71051,4.45689,7.607,3.28417a3.257,3.257,0,0,0-.23557,1.25373c.079,2.90447,3.70752,6.10663,8.08312,9.68935,1.09729.89836,2.04446,1.67407,2.594,2.22565a5.1323,5.1323,0,0,0,2.28963,1.51951,4.14476,4.14476,0,0,0,2.74146-.31229,3.48148,3.48148,0,0,0-.28481,1.12635c-.22441,2.76665,2.24884,4.5608,4.055,5.87092l.31945.23586.40345.34864c.28381.24173.56547.48131.83425.72261.54514.49047,1.09858,1.01944,1.66276,1.55872a29.17181,29.17181,0,0,0,5.44671,4.43614l.25261.24616.10032-.00243h.00415l.00773-.00014A7.24235,7.24235,0,0,0,378.003,393.535a4.85344,4.85344,0,0,0,.40646,1.43792,12.72548,12.72548,0,0,0,3.62837,4.18583c.29426.25132.58522.49977.86359.74909.54514.49047,1.09815,1.01915,1.662,1.55786a28.39455,28.39455,0,0,0,5.63648,4.541,3.7663,3.7663,0,0,0,3.2076.0126,4.32571,4.32571,0,0,0,.08688,1.39513,3.921,3.921,0,0,0,.34878.9224,17.77851,17.77851,0,0,0,5.09664,5.40478c.33232.2652.6625.5284.98523.79331.3319.27293.73349.65349,1.15856,1.0558,1.6579,1.57088,4.01708,3.79768,6.519,3.55209a4.69454,4.69454,0,0,0-.12223,1.17043v.00071a2.5778,2.5778,0,0,0,.325,1.21638c1.46526,2.72614,3.81314,4.49525,6.08388,6.2061l.77528.58636c.50593.38557,1.06352.9071,1.65375,1.45925,2.03287,1.90106,4.56294,4.26755,7.62427,3.444.55974-.15071,1.12034-.33233,1.67865-.529a4.93864,4.93864,0,0,0-.74622,2.68907v.00086a2.574,2.574,0,0,0,.325,1.21638c1.4644,2.72543,3.81171,4.49424,6.08188,6.20481l.77714.58794c.50621.38585,1.0638.90752,1.65417,1.45939,1.694,1.584,3.73457,3.48425,6.13884,3.59932a313.67476,313.67476,0,0,1,31.5798,37.23274c-.45626,2.14179,1.76968,4.57912,2.97117,6.05039a90.25841,90.25841,0,0,1,8.18588,11.64394,10.62554,10.62554,0,0,0,14.05178,5.19052c10.62764-3.3875,20.47156-1.83994,29.73156,4.36258,4.49066,3.00795,6.5596,7.12894,4.9216,12.31588a3.29318,3.29318,0,0,1-1.71028,2.09313c-2.51562,1.12034-5.37372-.95733-6.96364-2.7937-1.58963-1.83622-2.11359-3.91532-2.69251-6.07243-.48231-1.79772-.50664-3.42585-1.28421-5.0879a5.48063,5.48063,0,0,0-3.90989-3.3782c-1.85025-.30785-3.74487.71-3.74029,2.70754.001.454,1.57689.56933,1.88946.65849a2.85978,2.85978,0,0,1,1.86328,1.2221c.74007,1.08757.4836,2.034.62329,3.333.23027,2.14179,1.27934,3.70008,2.43561,5.69674a19.13781,19.13781,0,0,1,1.35463,2.73416,5.69665,5.69665,0,0,1-1.91294-.70873,4.29413,4.29413,0,0,1-.78688-.62028,9.70381,9.70381,0,0,1-.72533-.76168c-.22527-.27608-.44324-.5284-.65863-.83324-.07986-.11293-.21855-.28653-.30986-.41391-.09145-.12737-.211-.31486-.2891-.43336-.83138-1.26117-1.48-2.44621-2.30051-3.742a18.8678,18.8678,0,0,0-2.97517-3.65671,8.8713,8.8713,0,0,0-1.002-.78788c-.1331-.09174-.36166-.251-.52969-.35708-.16816-.10591-.38986-.21411-.5752-.309s-.39916-.214-.58707-.28867c-.18806-.075-.45412-.172-.61241-.23013a9.10584,9.10584,0,0,0-1.26461-.37183,20.62242,20.62242,0,0,0-4.96754-.26119,29.22121,29.22121,0,0,1-4.64853.10705,9.65338,9.65338,0,0,1-4.20271-1.648,7.88172,7.88172,0,0,0,3.92649,2.74088,23.61106,23.61106,0,0,0,4.92289.53212,20.42038,20.42038,0,0,1,4.38461.5606,8.274,8.274,0,0,1,3.4927,1.935c2.12876,1.9782,3.54908,4.58828,5.3949,6.85029.2297.28151.52654.58722.7976.86644.27079.27923.57034.56218.877.82208a11.36394,11.36394,0,0,0,.97408.72247,5.11268,5.11268,0,0,0,1.12177.59781,7.52583,7.52583,0,0,0,2.4462.36854,1.68374,1.68374,0,0,1,.20838.00071c.138.65148.13454,1.4863-.54557,1.769-1.222.50879-2.42874-.255-3.281-.93643a25.58307,25.58307,0,0,0-2.19317-1.83222c-.84855-.53971-2.04088-1.01443-2.83978-1.44308-2.40226-1.28893-2.90991-3.03686-4.4536-5.037-1.21294-1.5716-2.60435-2.57144-4.70134-1.725-1.84066.74294-3.504,1.87087-3.77822,4.05029,1.34962,3.23122,4.61232,3.98818,7.15856,6.09032.67109.554,1.77,1.91394,1.251,2.824-.22841.40059-1.07082.47144-1.29194.83439a1.63277,1.63277,0,0,0,.2685,1.86485,37.22129,37.22129,0,0,0,6.69,8.18373c2.94826,2.6397,6.91941,4.34955,10.34984,6.8,7.24945,5.17893,12.11838,11.98041,15.43533,20.28708,1.87773-6.83812.2974-12.82611-4.85806-17.70177,4.01408.366,9.5707-2.12719,12.50409-4.92847,7.05423-6.73693,9.29806-13.58264,9.88914-23.29145.643-10.5704-3.0629-18.95607-7.97878-27.9397a107.76388,107.76388,0,0,0-5.87492-9.06034c-3.73013-5.47075-7.52052-10.0324-11.50884-15.595-1.40915-1.96546-1.77039-2.56442-4.00177-5.87149-1.06538-1.57889-5.914-9.24181-8.94527-11.16133-.09245-.05854-.18276-.10634-.27393-.15887l.01689-.01374c-9.49142-11.70891-20.59121-23.14218-34.93124-35.98131l-.17031.19021a8.17293,8.17293,0,0,0-3.52-4.53489c-1.04821-.75553-2.09055-1.67966-3.19415-2.65859-2.17413-1.928-4.42269-3.92192-7.01-4.84575a6.30082,6.30082,0,0,0-3.90459-.13983,4.80891,4.80891,0,0,0,.36925-1.92339c-.04265-1.93584-1.272-3.78795-3.65514-5.50553-1.04863-.756-2.091-1.68008-3.19414-2.65845-2.11875-1.879-4.31048-3.81271-6.81522-4.76574-1.3791-1.00442-2.60077-2.05735-3.67932-2.9892-2.37908-2.05577-4.49067-3.87368-6.95491-3.83418-.17088-1.645-1.072-3.49341-3.18785-5.49236-.55945-.52869-1.1597-1.1753-1.79472-1.85913-2.21134-2.38151-4.71751-5.08032-7.83853-5.50854a6.333,6.333,0,0,0-2.32355.14169c.35222-2.79656-2.81917-5.21657-5.38158-7.16672a21.614,21.614,0,0,1-2.11446-1.73275l-.20351-.20924a18.87217,18.87217,0,0,0-4.45131-3.72011l-.00344-.44911h-.67194q-.21254-.21984-.4431-.4557c-.2403-.2463-.49448-.50693-.76713-.79145-5.455-5.63806-8.93582-9.022-11.27411-8.47526a2.12777,2.12777,0,0,0-.74065.34191c-.248-1.69955-1.36264-2.92351-3.43687-5.049-.25833-.26477-.53384-.54715-.82666-.85013-5.45516-5.63806-8.93583-9.02213-11.27426-8.47541a2.147,2.147,0,0,0-.35279.11879c-.079-2.51805-1.40572-4.24808-4.15334-7.09287-.75825-.78473-1.55829-1.64617-2.37407-2.52478-2.74961-2.961-5.591-6.018-7.87745-7.31642a10.33335,10.33335,0,0,0-2.75119-1.60251,203.46122,203.46122,0,0,1-19.35395-24.9671c3.5-4.59229,7.37167-9.37592,11.86506-14.45309,29.4924-33.32515,53.19647-56.133,80.64369-82.54261,8.61438-8.28849,17.52187-16.85965,27.18073-26.30011,16.78308-16.40353,18.16133-17.82972,21.492-21.27475,2.50288-2.58875,6.28467-6.50079,18.915-19.14227l.12022-.14126c.10563-.146.207-.2944.30971-.4421l5.9432.00029.22355-.2237c7.75194,7.82923,15.59261,16.8047,21.09957,29.06891,8.60293,19.16431,9.52376,35.34286,2.73645,48.08595-10.8625,20.39714-33.43277,29.578-50.45429,33.6881a97.92144,97.92144,0,0,1-12.67755,2.1999c-2.168.23-4.3537.377-6.49621.43723l-1.19619.03363.05811,1.19548c.19206,3.94309.19807,9.861-.0687,10.89012l-.83267,3.20989,2.06751-1.53052a15.36378,15.36378,0,0,0-1.4166,1.79687l-1.21395,1.90063,1.815-.07943a17.71815,17.71815,0,0,0-1.96818,1.89677,3.14725,3.14725,0,0,0-.65492,1.44994,4.00005,4.00005,0,0,1-.11278.43866c-.18749.57191-.38957,1.14468-.59767,1.71043a69.446,69.446,0,0,1-5.38588,11.2329l-.88877,1.52551,1.75035.22756c7.10332.92427,19.989,1.68452,20.11863,1.69182l.55359.03249.3764-.40747a24.42094,24.42094,0,0,0,1.69826-2.04775l.06612-.08688a1.87623,1.87623,0,0,1,.39244.32531l1.16213,1.45424.95518-1.9772c.36668-.75538.81865-1.68709,1.21051-2.67533,1.183,2.44906,2.48685,4.64023,2.565,4.771l.35465.59337.69127-.0229a155.48842,155.48842,0,0,0,110.69369-50.97754l.6509-.72046-.58679-.774c-.0332-.0438-2.38265-3.13948-4.67572-6.10392,1.19276.43194,2.332.8467,4.25552,1.7296l3.041,1.39614-1.295-2.572q.26192.14792.533.3047l4.12615,2.39282-2.547-4.0334c-.6034-.95546-1.11176-1.77-1.55114-2.4983,2.15338,1.088,4.16107,1.99538,4.29217,2.05435l.84726.38255.56533-.73878C624.00122,194.269,632.78534,169.48614,630.98919,148.62614ZM116.103,536.90117a7.37263,7.37263,0,0,1,.74651-1.85627,3.89389,3.89389,0,0,1,2.101-1.34561c.36953-.10476,1.14582-.27264,1.3001.29325a.45931.45931,0,0,1-.08129.32532,6.42158,6.42158,0,0,1-.90166,1.5039,4.24031,4.24031,0,0,1-1.5059,1.10775,6.67947,6.67947,0,0,0-2.19632,1.31527,1.21876,1.21876,0,0,1-.55616.3608A6.0501,6.0501,0,0,0,116.103,536.90117Zm399.55071,1.34361a6.67651,6.67651,0,0,0-2.19632-1.31527,4.23679,4.23679,0,0,1-1.50562-1.10775,6.418,6.418,0,0,1-.90194-1.5039.45931.45931,0,0,1-.08114-.32532c.15428-.56589.93042-.398,1.3-.29325a3.892,3.892,0,0,1,2.101,1.34561,7.368,7.368,0,0,1,.74666,1.85627,6.05271,6.05271,0,0,0,1.09357,1.70441A1.221,1.221,0,0,1,515.6537,538.24478ZM547.75732,84.71731,534.26456,71.2244l12.673,2.05334Zm-3.11257-14.18646L531.89049,68.4642l-2.06665-12.75441ZM527.0768,53.417l2.05377,12.67325L515.64068,52.60052ZM418.76148,78.04177c-1.00556-.95618-2.99721-2.86526-5.13342-4.991a71.07272,71.07272,0,0,1,3.94124-12.83971A85.79208,85.79208,0,0,1,425.179,45.8726c.63717-.0229,1.46755-.05939,2.28563-.09546,1.22911-.05439,2.49944-.10992,2.88386-.10934l1.93183.00429-.8882-1.71586a21.71724,21.71724,0,0,1-1.6496-4.4652c.57391-.73849,1.1627-1.47585,1.75551-2.19789l.26219-.32159c.08874-.10891.20151-.24774.31114-.381.75339.17532,1.99109.47373,2.80372.67853l2.12619.53541-.73535-2.06579c-.22155-.62243-.54357-1.54254-.80376-2.28691-.06441-.18505-.12538-.35937-.18033-.51537.27536-.303.62743-.68669.87847-.95447.79231-.84569,1.61124-1.6921,2.4336-2.51562,1.6393-1.64187,3.35588-3.25554,5.10079-4.7958a113.25449,113.25449,0,0,1,11.04656-8.59133A105.47961,105.47961,0,0,1,466.97538,8.865c1.03161-.51566,2.07982-1.017,3.11543-1.48959l.41448-.19192c.19321-.09031.39815-.18563.58965-.27107.15371.12881.32288.27536.46743.40045.42678.3691.91081.78744,1.42232,1.17344l1.76524,1.333.11192-2.20919a20.4327,20.4327,0,0,1,.2164-2.35733c.19579-.06254.39816-.12823.58421-.19865.3412-.12852.68784-.24559,1.03447-.36281.51953-.17589,1.05708-.35808,1.59064-.58006.54213-.22527,1.58-.52654,3.28774-1.02016a60.13818,60.13818,0,0,0,2.1468,9.37792,105.853,105.853,0,0,0-37.16076,23.99074c-11.49051,11.527-19.35838,25.0491-22.80069,39.14053A24.943,24.943,0,0,0,418.76148,78.04177Zm29.77464-3.82c-8.31183-1.35234-15.95814-1.13265-22.1412.53785,6.94331-26.04021,29.43544-49.3507,58.02733-60.0489.37039,1.13451.68411,2.01484.86359,2.44906.64289,1.55285,1.30983,3.06663,2.05262,4.743a116.4922,116.4922,0,0,0,10.663,19.73049c1.91351,2.73531,4.09953,5.56965,6.68255,8.66533,1.03676,1.24242,2.127,2.51232,3.30292,3.85035L476.23866,85.89719C470.201,80.4771,459.739,76.04425,448.53612,74.22176ZM335.86223,234.44132c6.84627-6.74523,13.92526-13.72017,21.05234-21.32656,21.46825-22.91261,70.23-70.02635,88.58684-87.76261,2.0343-1.96532,3.63867-3.51573,4.72037-4.56437,1.65561-1.6048,3.2431-3.16638,4.78449-4.6959q-.60882,1.12491-1.20163,2.24669l-.62829,1.18045c-.6429,1.2035-1.30354,2.41286-1.98651,3.59317-1.03618,1.00412-2.40212,2.326-4.05973,3.92262-18.34252,17.72911-67.07765,64.81436-88.50383,87.68318-7.15885,7.63973-14.25959,14.63256-21.11989,21.39354-6.36568,6.27222-12.5964,12.4165-18.68815,18.87463q-.79712-.86622-1.59736-1.72344C323.30118,246.82347,329.51487,240.6948,335.86223,234.44132Zm-6.58809,23.40108a35.99541,35.99541,0,0,1,6.05024-3.597,34.02082,34.02082,0,0,1,6.6004-2.33414,18.4822,18.4822,0,0,0,3.06047-.92985,5.82262,5.82262,0,0,0,2.28534-1.783c1.27376-1.60151,2.06722-3.81629,3.47609-5.74611a20.09817,20.09817,0,0,1,5.07159-4.72839,55.55269,55.55269,0,0,1,5.91285-3.38951c-1.88174,1.2586-3.7443,2.55225-5.472,3.97386a20.52236,20.52236,0,0,0-4.41267,4.883c-1.15268,1.8129-1.69482,4.0314-3.104,6.09819a7.80739,7.80739,0,0,1-2.86268,2.52435,20.21216,20.21216,0,0,1-3.34871,1.25988,34.40057,34.40057,0,0,0-11.49939,6.05855c-.84612.68354-1.64244,1.39313-2.4545,2.15424-.58837.551-1.19133,1.12248-1.81219,1.693q-1.86213-2.20068-3.74186-4.32766c.72576-1.00155,1.41946-2.026,2.05162-3.08966.97665-1.6174,1.797-3.33427,2.74618-5.14058a29.14838,29.14838,0,0,1,3.44318-5.2087,54.99881,54.99881,0,0,1,8.95242-8.27533c1.56774-1.22825,3.16037-2.39024,4.7075-3.57957q2.3237-1.7754,4.54233-3.66587c2.95371-2.53307,5.80981-5.18708,8.52736-7.98407,1.35649-1.40172,2.6918-2.85081,4.0606-4.291,1.38168-1.42891,2.80285-2.84422,4.31305-4.17981.75883-.66437,1.536-1.31112,2.34144-1.92525.80777-.61513,1.64989-1.18517,2.45193-1.72288a15.47114,15.47114,0,0,0,2.20662-1.74949,10.41384,10.41384,0,0,0,1.63872-2.23024,51.58681,51.58681,0,0,0,2.29335-5.38173,12.9525,12.9525,0,0,1,3.21047-4.98672,13.11133,13.11133,0,0,0-2.59419,5.20627,46.3892,46.3892,0,0,1-1.84024,5.699,11.717,11.717,0,0,1-1.65818,2.66088,16.89186,16.89186,0,0,1-2.26559,2.113c-.78773.63073-1.54512,1.21609-2.27245,1.84052-.727.62829-1.42862,1.28893-2.11445,1.96818-1.36594,1.36579-2.65688,2.82032-3.93122,4.30848-1.2855,1.47843-2.559,2.98948-3.88226,4.48394a102.0081,102.0081,0,0,1-8.44149,8.50618c-2.964,2.6855-6.14127,5.1629-9.20489,7.57247a51.74761,51.74761,0,0,0-8.33816,7.81906c-.2954.36023-.5825.72533-.84784,1.10388-.28052.36939-.53842.75138-.78516,1.13966a27.4944,27.4944,0,0,0-1.43263,2.40785c-.90194,1.67665-1.80159,3.51645-2.88014,5.26995-.20437.3339-.41676.66322-.62915.99225C327.99551,258.81719,328.61808,258.312,329.27414,257.8424Zm7.8776,19.29283q-.30957-.42162-.61943-.84025a44.51541,44.51541,0,0,1,5.50611-6.49793c2.49772-2.46881,5.16605-4.7208,7.65891-7.10832a41.1198,41.1198,0,0,0,6.60641-7.81678c1.852-2.87728,3.38936-5.97925,5.043-9.06334a53.1264,53.1264,0,0,1,5.73624-8.93239,43.14411,43.14411,0,0,1,12.2127-10.32981c1.55485-.88405,3.14005-1.66334,4.7052-2.43161a47.66992,47.66992,0,0,0,8.78469-5.06744,68.2936,68.2936,0,0,0,7.45769-6.97222c1.54-1.6287,3.03757-3.3075,4.51686-5.00862,2.00339-.9403,3.91919-2.05634,5.64493-3.06333l.1185-.06927c.8029-.46844,1.59264-.95633,2.37464-1.45167l-3.39108,3.90717c-2.31138,2.62238-4.65482,5.22931-7.11935,7.74722a71.04546,71.04546,0,0,1-7.91223,7.13538,31.856,31.856,0,0,1-4.60559,2.877c-1.58319.82923-3.18442,1.56086-4.76188,2.29163-1.57575.72963-3.13261,1.45353-4.6222,2.25729a40.834,40.834,0,0,0-11.78248,9.526,51.1747,51.1747,0,0,0-5.71591,8.48843c-1.7037,3.01067-3.33154,6.12424-5.31547,9.06234a37.64441,37.64441,0,0,1-3.26971,4.203c-1.18561,1.32-2.45107,2.55226-3.74516,3.73714-2.58961,2.36978-5.29715,4.55279-7.80518,6.92442A43.34264,43.34264,0,0,0,337.15174,277.13523Zm49.71236-70.13841a22.07477,22.07477,0,0,0-2.73788,3.05146c-.79575,1.12463-1.58463,2.33915-2.4276,3.505a21.98506,21.98506,0,0,1-2.84579,3.31523,12.31614,12.31614,0,0,1-3.68248,2.36934c-1.32757.57349-2.68549.99483-3.98531,1.548a9.27463,9.27463,0,0,0-3.48869,2.342,9.4243,9.4243,0,0,1,3.35445-2.62668c1.27519-.65706,2.60735-1.18188,3.84877-1.83164a11.51318,11.51318,0,0,0,3.28832-2.47168,20.94961,20.94961,0,0,0,2.46452-3.34528c.73993-1.19763,1.408-2.42817,2.1717-3.68219a23.74122,23.74122,0,0,1,2.74819-3.4675,25.36764,25.36764,0,0,1,3.30606-2.95972c.05754-.04122.11736-.081.17518-.12208a7.14144,7.14144,0,0,0,.62687,2.10314A23.831,23.831,0,0,0,386.8641,206.99682ZM149.644,3.0911c1.70771.49362,2.74561.79489,3.28775,1.02016.53341.222,1.071.40417,1.59049.58006.34678.11722.69341.23429,1.03447.36281.1862.07042.38857.13611.58436.19865a20.4699,20.4699,0,0,1,.21639,2.35733l.11192,2.20919,1.76524-1.333c.51151-.386.99554-.80434,1.42218-1.17344.14441-.12509.31372-.27164.46757-.40045.1915.08544.39645.18076.58951.27107l.41462.19178c1.03562.47272,2.08383.97407,3.11529,1.48973a105.4679,105.4679,0,0,1,12.23416,7.21424,113.21961,113.21961,0,0,1,11.04656,8.59133c1.74506,1.54026,3.46149,3.15393,5.10093,4.7958.82237.82352,1.6413,1.66993,2.43346,2.51562.25118.26778.6034.65148.87847.95447-.05481.156-.11578.33032-.18018.51537-.26034.74437-.58207,1.66448-.80376,2.28691l-.7355,2.06579,2.12619-.53541c.81292-.2048,2.05033-.50321,2.80372-.67853.10977.13324.22255.27207.31128.381l.262.32159c.593.722,1.18174,1.4594,1.75551,2.19789a21.69938,21.69938,0,0,1-1.64945,4.4652L198.939,45.672l1.93184-.00415c.38441-.00058,1.65489.05495,2.88386.1092.81793.03621,1.64845.0727,2.28548.0956a85.79394,85.79394,0,0,1,7.61,14.33845,71.08241,71.08241,0,0,1,3.94109,12.83971c-2.13635,2.12575-4.12786,4.03483-5.13342,4.991a24.9403,24.9403,0,0,0-4.99932-2.44148c-3.44231-14.09143-11.31018-27.61352-22.8004-39.14053A105.85493,105.85493,0,0,0,147.49716,12.469,60.17008,60.17008,0,0,0,149.644,3.0911ZM126.53527,50.29858c2.583-3.09568,4.769-5.93,6.68255-8.66533a116.49149,116.49149,0,0,0,10.663-19.73049c.7428-1.67636,1.40973-3.19014,2.05249-4.743.17975-.43422.49347-1.31455.86387-2.44906,28.59175,10.6982,51.084,34.00869,58.02719,60.0489-6.18321-1.6705-13.82938-1.89019-22.14135-.53785-11.2027,1.82249-21.66489,6.25534-27.7024,11.67543L123.23236,54.14893C124.40823,52.8109,125.49837,51.541,126.53527,50.29858ZM104.14247,53.417l11.43613-.8165L102.0887,66.09027Zm-2.747,2.29277L99.32864,68.4642,86.57452,70.53085ZM84.2816,73.27774,96.95471,71.2244,83.46181,84.71716Zm81.48423,188.718c.11106.318.21725.63889.3329.95232a69.0306,69.0306,0,0,0,4.68159,10.06547c-6.26507.71044-15.324,1.28865-17.65068,1.43177-.50306-.56962-.82394-.99211-1.1846-1.46684-.26778-.35236-.55029-.724-.928-1.18589L149.79567,270.3l-.719,1.66892a12.84174,12.84174,0,0,1-1.34375-4.207l-.28094-6.03965-1.99681,5.70718a49.36216,49.36216,0,0,1-3.39566,6.98067,152.50833,152.50833,0,0,1-107.67872-49.462c1.34447-1.76553,4.67515-6.12768,6.71074-8.68136l2.93439-3.6809-4.31793,1.87458c-1.70956.74208-2.80214,1.13752-3.85879,1.51994-.51008.18448-1.00814.36524-1.55657.57677l1.62469-2.77266-3.19057,1.28965c-.02533.01-.05023.02032-.07542.03077.53784-.93371.97236-1.76008,1.37309-2.624l1.6413-3.53648-3.31981,2.0446c-1.962,1.20922-5.19453,2.75119-6.71961,3.46107C9.6528,193.3037,1.26971,170.08781,2.4546,150.35646a13.80091,13.80091,0,0,0,6.81006-.35493,30.26261,30.26261,0,0,0,5.87636-2.44621c2.70882,26.81664,18.71419,55.53319,43.10652,77.16488a146.64864,146.64864,0,0,0,46.90621,28.02614A157.1352,157.1352,0,0,0,165.76583,261.99574Zm-70.617-108.13742c-8.91535,19.85958-9.81257,36.732-2.66718,50.1483,11.27183,21.16569,34.48543,30.64251,51.97337,34.86512a100.24371,100.24371,0,0,0,12.98125,2.25227c1.82907.19407,3.671.33075,5.49093.40789-.07771,2.22308-.14713,5.89038-.03263,8.31641-.29554-.04766-.59065-.07571-.89121-.10462-.24459-.02319-.50821-.04795-.8-.08645l-2.12976-.28137.91554,1.94328a13.51323,13.51323,0,0,0,2.22451,3.05646c.1185.13425.23529.26678.34907.39759-.13625.05439-.27837.1082-.43194.15428l-2.04962.61571,2.14852,1.84452c.72146.61313,1.96417,1.66935,2.58545,2.30094C114.249,261.40637,79.837,240.732,59.80354,222.96569c-24.26109-21.5149-40.07167-50.10479-42.42284-76.62517C37.09043,135.20108,73.844,103.788,85.65769,93.01983l31.07159,31.07158C108.81876,132.07993,100.80935,141.25147,95.14882,153.85832Zm24.4337-30.22976L83.72472,87.77062l34.90662-34.90676,35.8578,35.85808-.00015,3.491a29.27131,29.27131,0,0,0-3.83432-1.80861,46.34555,46.34555,0,0,0-6.218-7.68453c-12.542-12.542-29.666-15.82575-38.1719-7.31971-8.50818,8.508-5.226,25.63375,7.316,38.17576a46.78,46.78,0,0,0,7.69011,6.22371,29.37141,29.37141,0,0,0,1.81018,3.82874Zm13.36953-33.33288c-4.122-2.52863-8.88-2.60334-11.63893.15543-2.75677,2.75692-2.68378,7.50892-.16115,11.62877a21.37725,21.37725,0,0,0-1.018,14.0764,45.04589,45.04589,0,0,1-4.89513-4.23849c-11.62791-11.62805-14.90964-27.266-7.316-34.85968,7.59165-7.59179,23.22777-4.30819,34.85582,7.31986A44.95459,44.95459,0,0,1,147.02,89.27438,21.44739,21.44739,0,0,0,132.95205,90.29568Zm1.13122,3.86252c3.62865,3.62866,4.54763,8.61338,2.0489,11.1121-2.49873,2.49859-7.48316,1.57947-11.11182-2.04918s-4.54777-8.61324-2.04919-11.11182C125.46989,89.61057,130.45461,90.52954,134.08327,94.1582Zm4.16478,42.407-.00057.00071-.00129-.00129v.00015c-2.717-2.75048-6.39058-6.44826-11.53688-11.59943-5.37229-7.46913-5.81539-15.51547-3.9222-20.70657.18749.209.3734.41877.5752.62043,4.54262,4.54276,11.01507,5.462,14.4279,2.04919,3.413-3.413,2.49386-9.88557-2.0489-14.42819-.19894-.19908-.406-.382-.612-.567,5.2077-1.89162,13.25675-1.44909,20.71229,3.91776,4.07891,3.903,7.7694,7.58749,11.31548,11.15475,3.44589,3.51245,5.85274,8.04147,8.18015,12.42165.19021.35823.38313.72.5762,1.08184l.17389.32646c.7936,1.48258,1.61382,2.9809,2.48227,4.42612,6.15114,10.23764,14.817,18.60027,23.198,26.68826,1.64116,1.58362,3.27974,3.16481,4.89742,4.7573q.82974.81707,1.652,1.64144c4.30046,4.31463,9.25613,9.36161,13.65048,14.65818,3.91718,4.72224,7.55472,9.63983,10.28616,13.39658,2.69594,3.708,5.985,8.68265,7.50448,14.28536a4.6272,4.6272,0,0,1-.96119,4.02882,5.63953,5.63953,0,0,1-4.67572,2.1342c-4.01323-.14-8.51134-2.76493-12.1254-4.87394l-.1185-.06927a114.576,114.576,0,0,1-11.30217-7.75924c-6.72562-5.1068-13.06168-10.94408-19.18906-16.589l-.4859-.44782c-2.05691-1.89462-4.138-3.85508-6.15028-5.75084-8.90019-8.3841-18.10308-17.05329-28.8-23.48037-1.3343-.80161-2.67863-1.54755-4.00921-2.27646l.002-.00387-1.37023-.74766C146.09,142.413,141.85653,140.10809,138.24805,136.56516ZM311.765,268.27083a11.54549,11.54549,0,0,1-3.66372-1.44179,20.35653,20.35653,0,0,1-2.93768-2.202c-.89006-.78058-1.71-1.58062-2.52148-2.34058-.81206-.76111-1.60824-1.4707-2.45451-2.15424a34.402,34.402,0,0,0-11.49938-6.05855,20.21788,20.21788,0,0,1-3.34886-1.25988,7.81142,7.81142,0,0,1-2.86283-2.52435c-1.40887-2.06679-1.951-4.28529-3.10369-6.09819a20.52512,20.52512,0,0,0-4.41267-4.883c-1.7276-1.42161-3.5903-2.71526-5.472-3.97386a55.53693,55.53693,0,0,1,5.91271,3.38951,20.0933,20.0933,0,0,1,5.07159,4.72839c1.409,1.92982,2.20233,4.1446,3.47609,5.74611a5.82369,5.82369,0,0,0,2.28534,1.783,18.48832,18.48832,0,0,0,3.06061.92985,34.0241,34.0241,0,0,1,6.6004,2.33414,36.001,36.001,0,0,1,6.05024,3.597c.65607.46958,1.27864.97479,1.88232,1.49-.21254-.329-.42493-.65835-.6293-.99225-1.07855-1.7535-1.97806-3.5933-2.88-5.26995a27.52664,27.52664,0,0,0-1.43263-2.40785c-.24674-.38828-.50478-.77027-.78515-1.13966-.26549-.37855-.55245-.74365-.848-1.10388a51.74693,51.74693,0,0,0-8.338-7.81906c-3.06362-2.40957-6.241-4.887-9.20489-7.57247a101.962,101.962,0,0,1-8.44149-8.50618c-1.32329-1.49446-2.59677-3.00551-3.88241-4.48394-1.2742-1.4883-2.56514-2.94269-3.93136-4.30848-.68569-.67925-1.38711-1.33989-2.11416-1.96818-.72734-.62443-1.48473-1.20979-2.27246-1.84052a16.89179,16.89179,0,0,1-2.26558-2.113,11.72253,11.72253,0,0,1-1.65833-2.66088,46.41031,46.41031,0,0,1-1.84009-5.699,13.10979,13.10979,0,0,0-2.59434-5.20627,12.95088,12.95088,0,0,1,3.21047,4.98672,51.62153,51.62153,0,0,0,2.29349,5.38173,10.41418,10.41418,0,0,0,1.63872,2.23024,15.4717,15.4717,0,0,0,2.20662,1.74949c.80205.53771,1.64416,1.10775,2.45193,1.72288.80562.61413,1.58262,1.26088,2.34144,1.92525,1.5102,1.33545,2.93138,2.7509,4.31291,4.17981,1.36894,1.44021,2.70425,2.8893,4.0606,4.29087,2.7177,2.79714,5.5738,5.45115,8.5275,7.98422q2.22343,1.89327,4.54219,3.66587c1.54727,1.18933,3.13991,2.35132,4.70764,3.57957a54.99223,54.99223,0,0,1,8.95228,8.27533,29.15255,29.15255,0,0,1,3.44332,5.20856c.949,1.80645,1.76954,3.52332,2.74618,5.14072a44.86706,44.86706,0,0,0,7.04178,8.90877l3.8754,3.83647Zm10.38363,19.13868,4.01951,3.90331c1.33946,1.31112,2.67677,2.65129,3.9398,4.09079a30.72253,30.72253,0,0,1,3.448,4.671,31.57487,31.57487,0,0,1,2.437,5.31561c1.27691,3.651,2.019,7.37053,2.9029,10.93263a32.27827,32.27827,0,0,0,3.8701,9.90089l.70887,1.09171.80576,1.0276a15.30545,15.30545,0,0,0,1.3625,1.56888q-1.09551,1.32029-2.17112,2.64815a24.41568,24.41568,0,0,1-1.83881-2.12905l-.90194-1.19-.7903-1.27134a26.03028,26.03028,0,0,1-2.49759-5.37429,54.7358,54.7358,0,0,1-1.537-5.55734c-.8477-3.69377-1.44737-7.3376-2.5076-10.7845a28.95962,28.95962,0,0,0-2.04032-4.92547,31.888,31.888,0,0,0-3.01138-4.4536c-2.26315-2.84135-4.91444-5.506-7.42663-8.26387-5.047-5.50353-10.09967-11.00119-15.041-16.60791C311.37472,277.06754,316.7586,282.24132,322.14864,287.40951Zm-69.11726-71.21166a11.51125,11.51125,0,0,0,3.28832,2.47168c1.24142.64976,2.57344,1.17458,3.84864,1.83164a9.42483,9.42483,0,0,1,3.35458,2.62668,9.274,9.274,0,0,0-3.48883-2.342c-1.29967-.55316-2.65773-.9745-3.98531-1.548a12.32237,12.32237,0,0,1-3.68248-2.36934,22.0183,22.0183,0,0,1-2.84579-3.31523c-.84283-1.16585-1.63171-2.38037-2.42731-3.505a22.09565,22.09565,0,0,0-2.73817-3.05146,23.8196,23.8196,0,0,0-2.81631-2.2726,7.14144,7.14144,0,0,0,.627-2.10314c.058.04107.1175.08086.175.12208a25.36963,25.36963,0,0,1,3.30621,2.95972,23.74116,23.74116,0,0,1,2.74818,3.4675c.76369,1.254,1.43163,2.48456,2.17184,3.68219A20.92328,20.92328,0,0,0,253.03138,216.19785Zm-5.81324,7.917c1.56545.76827,3.15064,1.54756,4.7055,2.43161a43.13625,43.13625,0,0,1,12.21255,10.32981,53.13682,53.13682,0,0,1,5.73652,8.93239c1.65347,3.08409,3.19086,6.18606,5.04283,9.06334a41.10883,41.10883,0,0,0,6.60641,7.81678c2.49271,2.38752,5.16118,4.63951,7.65891,7.10832a44.2878,44.2878,0,0,1,6.631,8.1876c3.75918,5.94476,6.371,12.43582,9.55353,18.60614a58.01727,58.01727,0,0,0,5.44785,8.85711,30.24311,30.24311,0,0,0,7.564,7.09487,30.36389,30.36389,0,0,1-7.74822-6.94989,58.364,58.364,0,0,1-5.67728-8.78254c-3.33211-6.12381-6.09532-12.55447-9.92521-18.31475a43.17865,43.17865,0,0,0-6.65922-7.85628c-2.508-2.37163-5.21571-4.55464-7.80518-6.92442-1.29423-1.18488-2.55955-2.41715-3.7453-3.73714a37.62669,37.62669,0,0,1-3.26957-4.203c-1.98392-2.9381-3.61191-6.05167-5.31546-9.06234a51.19266,51.19266,0,0,0-5.71592-8.48843,40.83653,40.83653,0,0,0-11.78234-9.526c-1.48987-.80376-3.04659-1.52766-4.62233-2.25729-1.57747-.73077-3.17869-1.4624-4.762-2.29163a31.85921,31.85921,0,0,1-4.60545-2.877,71.0594,71.0594,0,0,1-7.91237-7.13538c-2.46438-2.51791-4.80783-5.12484-7.11921-7.74722l-3.39108-3.90717c.78186.49534,1.5716.98323,2.37464,1.45167l.11851.06927c1.72559,1.007,3.64139,2.123,5.64493,3.06333,1.47928,1.701,2.97689,3.37992,4.51671,5.00862a68.31916,68.31916,0,0,0,7.45769,6.97222A47.67355,47.67355,0,0,0,247.21814,224.1148Zm39.36123,68.137q.75245,1.00577,1.48372,2.0001a207.75207,207.75207,0,0,1-16.53319,21.52578,8.371,8.371,0,0,0-2.39611-.85972A203.70935,203.70935,0,0,0,286.57937,292.25183Zm5.74382,24.071c.88391-3.5621,1.62613-7.28164,2.903-10.93263.07987-.22641.16974-.45068.255-.676q.98667,1.43127,1.95917,2.8508c-.8351,3.054-1.38669,6.24446-2.12776,9.473a54.69836,54.69836,0,0,1-1.53682,5.55734,26.02357,26.02357,0,0,1-2.49773,5.37429l-.7903,1.27134-.90194,1.19a24.39182,24.39182,0,0,1-1.83881,2.12905q-1.07683-1.32695-2.17084-2.64815a15.337,15.337,0,0,0,1.36222-1.56888l.80576-1.0276.709-1.09171A32.278,32.278,0,0,0,292.32319,316.32285Zm-54.52805,28.29421c.261-.26749.539-.5523.83439-.85829,2.43819-2.52005,7.44938-7.69927,8.96015-7.81992l.012.03463A175.7893,175.7893,0,0,0,264.501,373.62357l-.04837-.02047c-.45942-.19307-.89364-.37555-1.21738-.53484-6.24174-3.04473-13.28037-6.10076-21.52178-9.34457l-.30055-.11822q-.95446-.37526-1.91494-.75052c-1.25488-3.12287-2.4296-6.3664-3.58057-9.90718C234.36084,348.13652,234.48993,348.004,237.79514,344.61706Zm-6.4839,5.35439.012.0345c1.23456,3.8462,2.57616,7.61225,3.99047,11.24577q-2.45464-.93042-5.10537-1.91437c-.6698-.24845-1.335-.55444-2.03888-.87861a14.44655,14.44655,0,0,0-4.93563-1.57775C225.8392,354.20336,229.96477,350.07894,231.31124,349.97145Zm-45.249,39.04236c2.547-2.20061,4.07605-3.43631,5.679-3.24066a8.0411,8.0411,0,0,0,1.65389,2.815c2.15624,2.45665,4.49453,4.79737,6.75611,7.06124,1.5663,1.568,3.18584,3.18928,4.71923,4.82471,3.00093,3.19916,5.90455,6.44912,8.422,9.31738-2.54466-1.861-5.06472-3.73413-7.53239-5.57236-5.46145-4.0689-11.10867-8.276-16.85063-12.17663a13.62644,13.62644,0,0,0-3.99734-2.04461C185.31026,389.66085,185.697,389.32924,186.06221,389.01381Zm-45.56646,68.68574c.90652-1.00412,1.84452-2.05577,2.89388-3.04215a20.23628,20.23628,0,0,1,3.432-2.60907c1.19476-.73635,2.38638-1.39742,3.50328-2.11961a16.09178,16.09178,0,0,0,3.043-2.42716,12.82325,12.82325,0,0,0,2.13477-3.25126,37.602,37.602,0,0,0,2.275-7.8036c-.06268,1.37395-.14655,2.74847-.33461,4.122a20.60464,20.60464,0,0,1-.922,4.09165,12.82461,12.82461,0,0,1-2.01913,3.80484,15.75077,15.75077,0,0,1-3.14635,2.9517c-1.13694.83883-2.30222,1.58233-3.39566,2.35518a20.76416,20.76416,0,0,0-2.99177,2.5036c-.91454.92813-1.75465,1.96832-2.65373,3.02526-.458.53126-.92341,1.035-1.2958,1.51406a18.152,18.152,0,0,0-1.07655,1.59021l-1.38912,2.24-.843-2.50145a11.44229,11.44229,0,0,1-.5991-2.66489,8.32975,8.32975,0,0,1,.2685-2.81889c.23614-.87789.535-1.64058.776-2.3692.12137-.36539.22985-.72362.32288-1.08371.09475-.36939.16258-.69427.25189-1.13021a31.53407,31.53407,0,0,1,3.64841-9.30608c.82008-1.4239,1.68738-2.82547,2.64228-4.16922a40.555,40.555,0,0,1,3.112-3.84076,24.92211,24.92211,0,0,1,7.85642-5.82011,29.34579,29.34579,0,0,0-6.88979,6.63832,39.25737,39.25737,0,0,0-2.66746,3.94768q-1.2284,2.04246-2.28734,4.18654a38.03791,38.03791,0,0,0-1.856,4.3255,29.04726,29.04726,0,0,0-1.18589,4.50885c-.06727.35708-.15171.82752-.25046,1.24314-.09932.42549-.21611.8444-.34062,1.24972-.24646.81321-.5264,1.5643-.70473,2.25084a5.97382,5.97382,0,0,0-.19464,1.38912C139.915,458.33844,140.21237,458.019,140.49575,457.69955Zm17.5917,8.15855c.76426-1.93513,1.262-3.99276,1.92783-6.03694a28.75451,28.75451,0,0,1,2.6563-5.90741,41.68963,41.68963,0,0,1,8.3124-9.79655c1.91122-1.70284,3.924-3.26713,5.96322-4.7729q1.404.98775,2.77109,1.97921c-2.42531,1.51921-4.79738,3.07993-7.03062,4.80624a39.69169,39.69169,0,0,0-8.55655,8.75865,27.14445,27.14445,0,0,0-2.90505,5.427c-.78115,1.93212-1.42576,3.978-2.34974,5.91872a18.27518,18.27518,0,0,1-3.67217,5.21013,50.37877,50.37877,0,0,1-4.77161,4.12729,50.06506,50.06506,0,0,0,4.44816-4.42526A17.7369,17.7369,0,0,0,158.08745,465.8581Zm.247,17.83186a29.27252,29.27252,0,0,0-3.35673-1.57174,86.1876,86.1876,0,0,1-9.22264-5.51713L128.3735,499.35456l15.85624-23.84662a71.56261,71.56261,0,0,1-6.80735-5.60972c-2.1986-2.05706-4.31334-4.219-6.42064-6.384l-13.83424,16.9534,12.73308-18.084c-1.24256-1.27577-2.48885-2.544-3.75117-3.78838l-25.16188,32.1487,23.50971-33.74477c-.85843-.81636-1.72374-1.6227-2.6085-2.40112a8.88771,8.88771,0,0,0-3.54393-2.14022,311.00514,311.00514,0,0,1,31.72965-32.51666,6.83822,6.83822,0,0,0,1.57231,2.41715,392.18324,392.18324,0,0,0-29.87053,30.60058c.26106.21353.50951.42592.74251.62543,1.37853,1.18188,2.77967,2.49143,4.40952,4.12127,1.27548,1.27535,2.54152,2.59892,3.76605,3.87869,1.21709,1.272,2.47569,2.58732,3.73543,3.84706,1.28579,1.28579,2.44391,2.38381,3.53964,3.35688a79.655,79.655,0,0,0,17.52129,12.22128c.38471.18978.78315.35737,1.18074.526.46714.19794.94029.39988,1.40543.63345a366.46887,366.46887,0,0,1,28.713-35.35616A10.08165,10.08165,0,0,0,188.663,447.87,315.06274,315.06274,0,0,0,158.33448,483.69Zm45.61971-48.197c-1.22167,2.27274-3.26456,3.81214-5.428,5.44256l-.78716.59566c-.60025.45727-1.19992,1.01787-1.8348,1.612-1.77468,1.65947-3.61005,3.37577-5.41221,2.891a10.11285,10.11285,0,0,1-4.07119-2.52091c-.52868-.45341-1.07511-.92212-1.69654-1.39342-4.52487-3.43516-9.28275-6.761-14.54526-10.16708-1.62183-1.0495-3.2846-2.06622-5.04526-3.14277a111.26535,111.26535,0,0,1-10.86708-7.235c-1.4375-1.13737-2.15481-2.24383-2.13134-3.29247.03177-1.44579,1.47556-2.78525,2.68149-3.65442,1.14439-.82451,2.28047-1.83236,3.37849-2.80615,2.008-1.78026,4.0832-3.62093,6.24317-4.39191,1.85511-.66265,3.45491.06025,5.75828,1.62541,5.69988,3.87167,11.32621,8.06322,16.76733,12.117,4.204,3.13189,8.5517,6.3704,12.94748,9.47481l.41676.29211c1.56745,1.09229,3.71281,2.5876,3.6716,4.39148A.257.257,0,0,1,203.95419,435.493Zm17.39449-15.07309c-1.222,2.27317-3.266,3.81314-5.43,5.44385l-.78544.59423c-.6.45741-1.19934,1.018-1.83422,1.61153-1.775,1.66-3.61063,3.377-5.41279,2.892a21.5914,21.5914,0,0,1-7.18633-3.46622c-2.33257-1.77067-4.29874-3.16208-6.38028-4.63493-2.0781-1.47-4.22718-2.99006-6.8935-4.9996-2.15052-1.62112-4.56438-3.30235-6.89866-4.92819-3.015-2.10014-6.13268-4.27155-8.86627-6.43094-1.43778-1.13494-2.15481-2.2424-2.13163-3.29175.03177-1.4458,1.47614-2.78569,2.68207-3.65485,1.14467-.825,2.28047-1.83237,3.37877-2.80644,2.0074-1.78,4.08292-3.62064,6.2426-4.39177,1.85511-.66265,3.45519.05968,5.75856,1.62555,5.69989,3.87168,11.32621,8.06366,16.76763,12.11738,4.20428,3.13146,8.55112,6.37,12.9469,9.47438l.41676.29211c1.568,1.092,3.71424,2.588,3.67188,4.39235A.25642.25642,0,0,1,221.34868,420.41986Zm14.093-13.5397a1.60212,1.60212,0,0,1-.14312.36939,16.04775,16.04775,0,0,1-4.48137,4.65884c-.34091.27207-.6801.54271-1.011.81464-.39672.32545-.82723.73377-1.28349,1.16571-2.0678,1.95916-3.89715,3.51545-5.34152,2.70854a17.46352,17.46352,0,0,1-4.56724-4.25467q-.37311-.44009-.75052-.87789c-3.03643-3.50086-7.06324-8.096-11.28241-12.59454-1.55858-1.66248-3.19157-3.29705-4.771-4.87795-2.235-2.23739-4.54606-4.55107-6.6525-6.95133-1.42117-1.61883-2.57758-3.92563,1.12464-7.42391.61541-.58121,1.24085-1.25444,1.90321-1.96775,1.94385-2.09356,4.14732-4.46677,6.43838-4.78092,1.64359-.22512,3.56111.6854,5.69846,2.707,5.88336,5.55935,11.11926,12.10851,16.18455,18.43912,2.02372,2.52993,4.1167,5.14573,6.21455,7.65247l.20266.24144C234.07088,403.27226,235.80377,405.33375,235.44168,406.88016Zm-18.86691-28.30393.11078.0405a33.42084,33.42084,0,0,1,3.27315,1.30726c.78687.39715,1.61267.80032,2.48828,1.219,1.56229,3.61091,3.24538,7.05294,5.057,10.366C224.01128,387.14724,220.42412,382.7184,216.57477,378.57623Zm34.09972,15.42716a10.82717,10.82717,0,0,1-3.01611,3.37233c-.30828.26334-.614.52439-.90709.78745-.56361.50678-1.13408,1.05178-1.71544,1.60723a26.80359,26.80359,0,0,1-5.1025,4.15878c-.74451.3661-1.88918-.28224-2.494-1.10976a114.49063,114.49063,0,0,1-11.76015-20.1773c4.16422,1.88088,8.27118,3.54894,12.57193,5.29156l2.02314.82094c3.42056,1.38769,6.56633,2.71026,10.23707,4.26869.1248.05352.25361.09517.381.14054A2.45238,2.45238,0,0,1,250.67449,394.00339Zm14.10674-11.33752-.44281.32689c-.14055.10476-.27737.20681-.40561.30613-1.77611,1.38769-3.47666,2.88115-5.12082,4.32551-.75481.66293-1.50934,1.326-2.27131,1.97906q-.149.1271-.30284.24946l-.02748.02032-.065.0209-.11306.11063a4.60021,4.60021,0,0,1-3.78838,1.11347,3.97911,3.97911,0,0,1-.81206-.25175c-3.18928-1.354-6.63847-2.80887-10.27543-4.28443l-2.02457-.82136c-5.24105-2.12419-10.19185-4.13044-15.28548-6.54659q-1.41259-.67065-2.83377-1.38468a34.80142,34.80142,0,0,0-3.52676-1.41674,36.03782,36.03782,0,0,1-5.21614-2.21163c-.11335-.10849-.22269-.2217-.33662-.32947a16.65081,16.65081,0,0,0-2.2756-1.81747,3.69473,3.69473,0,0,1-.70415-1.62069c-.241-1.457,2.59848-3.6175,4.47707-5.04712a22.35758,22.35758,0,0,0,2.37694-1.96575l.20294-.20838a15.32249,15.32249,0,0,1,4.22089-3.45835h.22985l.16945-.17947a5.78862,5.78862,0,0,1,2.13964-.37483,11.46723,11.46723,0,0,1,4.41925,1.38969c.713.3276,1.45038.66737,2.20347.94617,2.67377.9921,5.21958,1.952,7.56761,2.85323q.60882.23614,1.21651.46686,1.18847.46328,2.37808.932l.29969.11851c8.18359,3.22048,15.16669,6.252,21.34861,9.26757.38327.18878.84841.38442,1.3416.59109a15.34911,15.34911,0,0,1,3.41827,1.78041,2.02234,2.02234,0,0,1,.91225,1.33244C267.99369,380.3356,266.21243,381.62768,264.78123,382.66587Zm11.28642-10.34641c-1.1461.93858-2.1362,1.74907-2.76793,2.38352a3.14679,3.14679,0,0,1-1.22082.9068,2.578,2.578,0,0,1-2.3775-1.16642c-7.59422-10.38148-13.25289-21.76995-17.80954-35.84019-1.74377-5.39762-1.36822-6.2625,2.43361-10.20587a7.06878,7.06878,0,0,0,1.94214,4.50669c2.1571,2.45766,4.49625,4.79924,6.7584,7.06368,1.56544,1.5673,3.18441,3.18785,4.71751,4.82228,4.19341,4.47106,8.19905,9.0433,11.22059,12.52712.24674.28467.49033.57134.73392.85772.22355.26334.45283.52711.68125.79088.75739,1.45224,1.55485,2.86712,2.37378,4.20314a2.99551,2.99551,0,0,1,.53956,1.21237C283.23623,366.45,278.74886,370.12429,276.06765,372.31946Zm22.24654-21.12333-.00029.00143a1.56809,1.56809,0,0,1-.14226.36667,16.048,16.048,0,0,1-4.48394,4.66141c-.34063.27164-.6781.54128-1.009.81292-.39672.32546-.82723.73364-1.28321,1.16557-2.06837,1.9596-3.89744,3.51617-5.3418,2.709A17.49614,17.49614,0,0,1,281.485,356.657q-.37268-.43946-.74937-.87647c-3.03557-3.49956-7.06067-8.09385-11.28156-12.59482-1.55858-1.66134-3.19071-3.29519-4.76932-4.87523-2.23582-2.23825-4.54778-4.55264-6.65479-6.95362-1.42118-1.61869-2.57787-3.92578,1.12464-7.42391.61513-.58078,1.24027-1.2543,1.90206-1.967,1.94442-2.09384,4.14818-4.467,6.43953-4.78163,1.64416-.22527,3.56168.68526,5.699,2.70654q.91454.86473,1.80875,1.76023a200.87877,200.87877,0,0,1,14.37867,16.68376c2.02314,2.52806,4.1144,5.14257,6.21082,7.64774l.20151.23959C296.94224,347.58651,298.67657,349.64858,298.31419,351.19613Zm1.89719-4.83187c-.25446.25948-.51094.51709-.76626.776a19.7337,19.7337,0,0,0-1.41975-1.9045c.17117-.17174.34263-.34334.51237-.51609A209.04727,209.04727,0,0,0,312.61729,328.87q.73377.94716,1.4893,1.90149C310.09953,335.7422,305.59426,340.87991,300.21138,346.36426Zm30.79637,0c-13.79446-14.05507-21.86283-25.84642-30.40422-38.32976-7.13237-10.424-14.50776-21.20247-25.63189-33.77225-29.55494-33.396-53.2905-56.23419-80.77393-82.67857-8.61108-8.28549-17.51528-16.85335-27.16727-26.28709-14.105-13.786-17.31063-16.97472-19.94789-19.6824q1.19448.66444,2.3848,1.30768c1.67207.90982,3.39738,1.85312,5.08061,2.85725,2.8863,2.85123,7.18318,7.0631,14.1212,13.84111,9.64555,9.43045,18.54545,17.99015,27.15482,26.2765,27.52007,26.47544,51.28453,49.3444,80.90589,82.81253,11.22116,12.68012,18.63677,23.51987,25.81236,34.0031,8.4807,12.394,16.4894,24.10022,30.13945,38.00731.16959.17275.34091.34435.51194.51609a19.8051,19.8051,0,0,0-1.41975,1.9045C331.51869,346.88135,331.26236,346.62374,331.00775,346.36426Zm62.77218,56.45516c-.605.82752-1.7495,1.47586-2.49415,1.10976a26.80753,26.80753,0,0,1-5.10236-4.15878c-.58135-.55545-1.15183-1.10045-1.71543-1.60723-.29311-.26306-.59882-.52411-.9071-.78745a10.82526,10.82526,0,0,1-3.0161-3.37233,2.45611,2.45611,0,0,1-.218-.83954c.12766-.04537.25632-.087.381-.14054,3.67088-1.55843,6.81651-2.881,10.23721-4.26869l2.02314-.82094c4.30061-1.74262,8.40757-3.41068,12.57193-5.29156A114.49928,114.49928,0,0,1,393.77993,402.81942Zm14.99237-21.67648c.8756-.41863,1.7014-.8218,2.48828-1.219a33.40461,33.40461,0,0,1,3.27315-1.30726l.11077-.0405c-3.84935,4.14217-7.4365,8.571-10.92934,12.93273C405.52691,388.19573,407.21,384.75385,408.7723,381.14294Zm72.37251,38.79819a311.00354,311.00354,0,0,1,31.7295,32.51666,8.88871,8.88871,0,0,0-3.54393,2.14022c-.88476.77842-1.75006,1.58476-2.60835,2.40112l23.50971,33.74477-25.162-32.1487c-1.26217,1.24428-2.50846,2.51261-3.75117,3.78838l12.73322,18.084-13.83424-16.9534c-2.1073,2.165-4.22218,4.32694-6.42064,6.384a71.57476,71.57476,0,0,1-6.80735,5.60958l15.85638,23.84676L485.464,476.60109a86.1876,86.1876,0,0,1-9.22264,5.51713,29.25943,29.25943,0,0,0-3.35659,1.57174,315.06364,315.06364,0,0,0-30.3285-35.82,10.08063,10.08063,0,0,0,1.873-1.05723,366.4518,366.4518,0,0,1,28.713,35.35616c.46514-.23357.93829-.43551,1.40543-.63345.39773-.16873.79618-.33618,1.18088-.526a79.65074,79.65074,0,0,0,17.52115-12.22128c1.09587-.97307,2.25385-2.07109,3.53978-3.35688,1.25974-1.25974,2.51834-2.575,3.73529-3.84706,1.22467-1.27977,2.49071-2.60334,3.76619-3.87869,1.62985-1.62984,3.03085-2.93939,4.40952-4.12127.23315-.19951.48146-.4119.74237-.62543a392.15485,392.15485,0,0,0-29.87039-30.60058A6.84226,6.84226,0,0,0,481.14481,419.94113ZM451.501,441.32351q1.36578-.99225,2.77108-1.97921c2.03917,1.50577,4.05186,3.07006,5.96323,4.7729a41.68546,41.68546,0,0,1,8.31225,9.79655,28.739,28.739,0,0,1,2.6563,5.90741c.66594,2.04418,1.16385,4.10181,1.928,6.03694a17.73648,17.73648,0,0,0,3.2066,5.28813,50.08521,50.08521,0,0,0,4.44816,4.42526,50.39624,50.39624,0,0,1-4.77161-4.12729,18.272,18.272,0,0,1-3.672-5.21013c-.92412-1.9407-1.56859-3.9866-2.34988-5.91872a27.1378,27.1378,0,0,0-2.905-5.427,39.68576,39.68576,0,0,0-8.55656-8.75865C456.29836,444.40344,453.92615,442.84272,451.501,441.32351Zm31.58524-6.56276a40.58,40.58,0,0,1,3.11214,3.84076c.95475,1.34375,1.822,2.74532,2.64242,4.16922a31.53342,31.53342,0,0,1,3.648,9.30608c.08959.43594.15743.76082.25232,1.13021.09288.36009.20137.71832.32259,1.08371.2413.72862.54,1.49131.776,2.3692a8.32624,8.32624,0,0,1,.26864,2.81889,11.44229,11.44229,0,0,1-.5991,2.66489l-.843,2.50145-1.38912-2.24a18.14476,18.14476,0,0,0-1.07654-1.59035c-.37254-.47888-.83783-.98266-1.29581-1.51392-.89908-1.05694-1.73919-2.09713-2.65373-3.02526a20.76362,20.76362,0,0,0-2.99177-2.5036c-1.09344-.77285-2.25872-1.51635-3.3958-2.35518a15.75405,15.75405,0,0,1-3.1462-2.9517,12.818,12.818,0,0,1-2.01914-3.80484,20.60572,20.60572,0,0,1-.92212-4.09165c-.18791-1.37352-.27178-2.748-.33461-4.122a37.61081,37.61081,0,0,0,2.27517,7.8036,12.82676,12.82676,0,0,0,2.13478,3.25126,16.087,16.087,0,0,0,3.043,2.42716c1.11676.72219,2.30852,1.38311,3.503,2.11961a20.22767,20.22767,0,0,1,3.4323,2.60907c1.04935.98638,1.98736,2.038,2.89388,3.04215.28337.31945.58063.63889.88333.9808a5.97382,5.97382,0,0,0-.19464-1.38912c-.17847-.68654-.45841-1.43763-.70487-2.25084-.12437-.40532-.2413-.82423-.34048-1.24972-.09875-.41562-.18333-.88606-.2506-1.24314a29.01591,29.01591,0,0,0-1.18589-4.50885,38.01343,38.01343,0,0,0-1.85583-4.3255q-1.05493-2.14445-2.28749-4.18654a39.23085,39.23085,0,0,0-2.66732-3.94768,29.34828,29.34828,0,0,0-6.88979-6.63832A24.92144,24.92144,0,0,1,483.08623,434.76075ZM466.78074,407.43c2.15982.771,4.2352,2.61165,6.243,4.39191,1.098.97379,2.2341,1.98164,3.37849,2.80615,1.20593.86917,2.64986,2.20863,2.68163,3.65442.02319,1.04864-.69384,2.1551-2.13148,3.29247a111.262,111.262,0,0,1-10.86694,7.235c-1.76066,1.07655-3.42342,2.09327-5.04526,3.14263-5.26265,3.40625-10.02053,6.73192-14.54554,10.16722-.62114.4713-1.16757.94-1.69626,1.39342a10.11325,10.11325,0,0,1-4.07133,2.52091c-1.802.48475-3.63738-1.23155-5.41221-2.891-.63488-.59409-1.23441-1.15469-1.83451-1.612l-.78716-.59566c-2.16354-1.63042-4.20658-3.16982-5.4281-5.44256a.25773.25773,0,0,1-.0458-.16216c-.04136-1.80388,2.10414-3.29919,3.67174-4.39148l.41662-.29211c4.39578-3.10441,8.74347-6.34292,12.94733-9.47481,5.44141-4.05373,11.06759-8.24528,16.76733-12.117C463.32583,407.49014,464.92548,406.76738,466.78074,407.43ZM449.38625,392.3568c2.15968.77113,4.23505,2.61179,6.24245,4.39177,1.09845.97407,2.2341,1.98149,3.37892,2.80644,1.20592.86916,2.65029,2.209,2.68206,3.65485.02319,1.04935-.69384,2.15681-2.13177,3.29175-2.73344,2.15939-5.85116,4.3308-8.86612,6.43094-2.33429,1.62584-4.74814,3.30707-6.89866,4.92819-2.66632,2.00954-4.81541,3.52962-6.89351,4.9996-2.08167,1.47285-4.04771,2.86426-6.38028,4.63493a21.59079,21.59079,0,0,1-7.18647,3.46622c-1.80216.485-3.63767-1.232-5.41279-2.892-.63473-.59352-1.23426-1.15412-1.83422-1.61153l-.7853-.59423c-2.16411-1.63071-4.20815-3.17068-5.43-5.44385a.25644.25644,0,0,1-.04609-.16129c-.04236-1.80431,2.10386-3.30034,3.67188-4.39235l.41677-.29211c4.39578-3.10441,8.74247-6.34292,12.94675-9.47438,5.44142-4.05372,11.06788-8.2457,16.76777-12.11738C445.93105,392.41648,447.531,391.69415,449.38625,392.3568Zm-9.908-6.58365c1.6028-.19565,3.13189,1.04005,5.67885,3.24066.365.31543.752.647,1.15011.984a13.62588,13.62588,0,0,0-3.99748,2.04475c-5.74182,3.90058-11.38918,8.10773-16.85049,12.17663-2.46767,1.83823-4.98772,3.71138-7.53239,5.57236,2.51762-2.86826,5.42109-6.11822,8.42188-9.31738,1.53339-1.63543,3.15307-3.25669,4.71937-4.82471,2.26144-2.26387,4.59987-4.60459,6.75612-7.06138A8.04408,8.04408,0,0,0,439.47821,385.77315Zm-12.88278-12.90483c2.2912.31415,4.49467,2.68736,6.43853,4.78092.66236.71331,1.28779,1.38654,1.90306,1.96775,3.70237,3.49828,2.546,5.80508,1.12478,7.42391-2.10644,2.40026-4.41768,4.71394-6.65264,6.95133-1.57932,1.5809-3.21232,3.21547-4.771,4.87795-4.21917,4.49854-8.246,9.09354-11.28227,12.59454q-.37848.43687-.75066.87789a17.459,17.459,0,0,1-4.56724,4.25467c-1.44408.80691-3.27358-.74938-5.34137-2.70854-.45627-.43194-.88677-.84026-1.2835-1.16571-.331-.27193-.67009-.54257-1.011-.81464a16.04646,16.04646,0,0,1-4.48151-4.65884,1.60212,1.60212,0,0,1-.14312-.36939c-.36195-1.54641,1.37095-3.6079,2.51791-4.97184l.20266-.24144c2.09784-2.50674,4.19069-5.12254,6.21454-7.65247,5.0653-6.33061,10.30119-12.87977,16.18441-18.43912C423.03432,373.55372,424.95184,372.6432,426.59543,372.86832Zm-16.00666-13.294.16946.17947h.23a15.32888,15.32888,0,0,1,4.22089,3.45835l.2028.20838a22.346,22.346,0,0,0,2.37693,1.96575c1.87859,1.42962,4.71809,3.59016,4.47722,5.04712a3.69834,3.69834,0,0,1-.7043,1.62069,16.6607,16.6607,0,0,0-2.27574,1.81747c-.11378.10777-.22327.221-.33662.32947a36.01172,36.01172,0,0,1-5.216,2.21148,34.80822,34.80822,0,0,0-3.52676,1.41689q-1.41924.71617-2.83377,1.38468c-5.09363,2.41615-10.04443,4.4224-15.28562,6.54659l-2.02443.82136c-3.6371,1.47556-7.086,2.93038-10.27542,4.28443a3.9822,3.9822,0,0,1-.81206.25175,4.60008,4.60008,0,0,1-3.78838-1.11347l-.11321-.11063-.06483-.0209-.02748-.02032q-.1535-.12216-.3027-.24946c-.76211-.65305-1.51664-1.31613-2.27146-1.97906-1.64416-1.44436-3.3447-2.93782-5.12082-4.32551-.12824-.09932-.26506-.20137-.40546-.30613l-.4431-.32689c-1.4312-1.03819-3.21232-2.33027-3.0941-3.78838a2.02283,2.02283,0,0,1,.91224-1.33244,15.35134,15.35134,0,0,1,3.41813-1.78041c.49333-.20667.95862-.40231,1.34175-.59109,6.18177-3.01553,13.165-6.04709,21.3486-9.26757l.29969-.11851q1.18954-.46692,2.37808-.932.6084-.23207,1.21638-.46686c2.348-.90122,4.89412-1.86113,7.5676-2.85323.75338-.2788,1.49044-.61857,2.20361-.94617a11.46655,11.46655,0,0,1,4.41925-1.38969A5.78808,5.78808,0,0,1,410.58877,359.57436ZM399.896,350.006l.01188-.0345c1.34647.10749,5.472,4.23191,8.07753,6.90954a14.4465,14.4465,0,0,0-4.93562,1.57775c-.704.32417-1.36923.63016-2.03889.87861q-2.6485.98238-5.10537,1.91437C397.31985,357.6182,398.66132,353.85215,399.896,350.006Zm-16.27844-14.03247.012-.03463c1.51063.12065,6.522,5.29987,8.96,7.81992.29554.306.57348.5908.83453.85829,3.30521,3.38693,3.43431,3.51946,1.87774,8.33071-1.151,3.54078-2.32584,6.78431-3.58057,9.90718q-.96048.375-1.91509.75052l-.30041.11822c-8.24155,3.24381-15.28,6.29984-21.52192,9.34457-.32359.15929-.75782.34177-1.21723.53484l-.04838.02047A175.78931,175.78931,0,0,0,383.61757,335.97348Zm-6.72391-7.57618c3.80183,3.94337,4.17752,4.80825,2.43375,10.20572-4.55665,14.07039-10.21532,25.45886-17.80954,35.84034a2.578,2.578,0,0,1-2.3775,1.16642,3.1467,3.1467,0,0,1-1.22081-.9068c-.63188-.63445-1.62184-1.44494-2.76794-2.38352-2.6812-2.19517-7.16858-5.86948-7.225-7.93828a2.99551,2.99551,0,0,1,.53956-1.21237c.81908-1.336,1.61625-2.7509,2.37393-4.20314.22813-.26377.45755-.52754.68111-.79088.24359-.28638.48718-.573.73391-.85786,3.02155-3.48368,7.027-8.05592,11.22031-12.527,1.53324-1.63443,3.15235-3.255,4.7178-4.82228,2.26215-2.26444,4.6013-4.606,6.7584-7.06368A7.06864,7.06864,0,0,0,376.89366,328.3973Zm-13.17074-11.213c2.29149.31458,4.49511,2.68779,6.43967,4.78163.66179.71274,1.28694,1.38626,1.90192,1.967,3.70251,3.49813,2.546,5.80522,1.12478,7.42391-2.107,2.401-4.41911,4.71537-6.65478,6.95362-1.57861,1.58-3.21075,3.21389-4.76932,4.87523-4.22089,4.501-8.246,9.09526-11.28156,12.59482q-.37784.436-.74938.87647a17.49614,17.49614,0,0,1-4.56867,4.25609c-1.44422.8072-3.27357-.74937-5.34165-2.709-.45627-.43193-.88677-.84011-1.2835-1.16557-.33075-.27164-.66823-.54128-1.00871-.81292a16.04851,16.04851,0,0,1-4.48409-4.66141,1.57607,1.57607,0,0,1-.1424-.36667l-.00029-.00143c-.36223-1.54755,1.37195-3.60962,2.51934-4.974l.20151-.23959c2.09642-2.50517,4.18769-5.11968,6.21083-7.64789a200.8993,200.8993,0,0,1,14.37852-16.68361q.89457-.89436,1.80889-1.76023C360.16124,317.86955,362.07876,316.959,363.72292,317.18429Zm-4.03354-1.40658A204.12571,204.12571,0,0,1,341.53592,291.802c-14.91036-23.25867-30.894-39.01029-47.82318-55.69047-6.86016-6.761-13.961-13.75381-21.11975-21.39354-21.42631-22.86882-70.16145-69.95407-88.50382-87.68318-1.65762-1.59664-3.02355-2.9185-4.05988-3.92262-.683-1.18031-1.34347-2.38967-1.98651-3.59317l-.62829-1.18045q-.59466-1.11955-1.20149-2.24669c1.54126,1.52952,3.12888,3.0911,4.78464,4.6959,1.08141,1.04864,2.68607,2.59905,4.72023,4.56437,18.35682,17.73626,67.11844,64.85,88.58683,87.76261,7.12694,7.60639,14.20593,14.58133,21.05235,21.32656,17.02409,16.77307,33.10431,32.61642,48.15407,56.09837a201.12378,201.12378,0,0,0,18.57437,24.37816A8.37407,8.37407,0,0,0,359.68938,315.77771ZM464.18884,165.29659c-9.652,9.43374-18.55634,18.0016-27.16728,26.28709-27.48357,26.44438-51.21913,49.28257-80.77393,82.67857-4.32393,4.886-8.07138,9.49585-11.4679,13.92455q-.6801-1.04829-1.36278-2.07667c3.29232-4.26626,6.917-8.705,11.07231-13.40087,29.6215-33.46813,53.386-56.33709,80.90589-82.81253,8.60951-8.28635,17.50927-16.846,27.155-26.2765,6.93787-6.778,11.2349-10.98988,14.12134-13.84111,1.68309-1.00413,3.40825-1.94743,5.08046-2.85725q1.18761-.64619,2.38466-1.30768C481.49946,148.32187,478.29386,151.51058,464.18884,165.29659ZM504.51,124.9653c-5.1463,5.15117-8.8199,8.84895-11.53689,11.59943v-.00015l-.00143.00129-.00057-.00071c-3.60834,3.54293-7.84182,5.84787-12.32433,8.2882l-1.37023.74766.002.00387c-1.33073.72891-2.67491,1.47485-4.00936,2.27646-10.69677,6.42708-19.89966,15.09627-28.8,23.48037-2.01226,1.89576-4.09322,3.85622-6.15014,5.75084l-.486.44782c-6.12724,5.64493-12.46344,11.48221-19.18892,16.589a114.59143,114.59143,0,0,1-11.30217,7.75924l-.1185.06927c-3.61435,2.109-8.11231,4.734-12.12539,4.87394a5.63951,5.63951,0,0,1-4.67572-2.1342,4.6272,4.6272,0,0,1-.9612-4.02882c1.51936-5.60271,4.80854-10.57741,7.50434-14.28536,2.73159-3.75675,6.36912-8.67434,10.28631-13.39658,4.39435-5.29657,9.35-10.34355,13.65047-14.65818q.82223-.82458,1.65189-1.64144c1.61783-1.59249,3.25626-3.17368,4.89756-4.7573,8.38109-8.088,17.04671-16.45062,23.198-26.68826.86846-1.44522,1.68853-2.94354,2.48227-4.42612l.17375-.32646c.19321-.3618.38614-.72361.5762-1.08184,2.3277-4.38018,4.7344-8.90906,8.18015-12.42165,3.54623-3.56726,7.23671-7.25173,11.31562-11.15475,7.4554-5.36685,15.50445-5.80938,20.7123-3.91776-.2061.18505-.413.368-.612.567-4.54263,4.54262-5.462,11.01521-2.04891,14.42819,3.41284,3.41283,9.88528,2.49357,14.42791-2.049.20179-.2018.38756-.41161.57505-.62057C510.32521,109.44983,509.88211,117.49617,504.51,124.9653Zm5.55734-22.88542c2.52263-4.11985,2.59562-8.87185-.16116-11.62877-2.75906-2.75877-7.51693-2.68406-11.63907-.15543a21.447,21.447,0,0,0-14.06781-1.0213,44.96949,44.96949,0,0,1,4.24121-4.89641c11.62819-11.62805,27.26431-14.91165,34.856-7.31986,7.59365,7.59365,4.31191,23.23163-7.316,34.85968a45.07187,45.07187,0,0,1-4.895,4.23849A21.37826,21.37826,0,0,0,510.06731,102.07988Zm-3.86853,1.14124c-3.62837,3.62865-8.613,4.54777-11.11182,2.04918-2.49858-2.49872-1.57975-7.48344,2.0489-11.1121s8.61352-4.54763,11.11211-2.0489C510.74655,94.60788,509.82772,99.59246,506.19878,103.22112Zm5.438,20.40744-3.49871-.00028a29.33377,29.33377,0,0,0,1.81018-3.82874,46.78238,46.78238,0,0,0,7.6904-6.22371c12.54187-12.542,15.82389-29.66772,7.31571-38.17576-8.5059-8.506-25.62989-5.2223-38.17176,7.31971a46.35369,46.35369,0,0,0-6.218,7.68453,29.26449,29.26449,0,0,0-3.83446,1.80861v-3.491L512.58793,52.864l34.90662,34.90662ZM468.98965,257.38771l2.14851-1.84452-2.04976-.61571c-.15342-.04608-.29569-.09989-.43165-.15428.11364-.13081.23042-.26334.34864-.39759a13.501,13.501,0,0,0,2.22465-3.05646l.91568-1.94328-2.1299.28137c-.29168.0385-.55531.06326-.8.08645-.30055.02891-.59567.057-.89107.10462.1145-2.426.04523-6.09333-.03263-8.31641,1.81991-.07714,3.66186-.21382,5.49093-.40789a100.24342,100.24342,0,0,0,12.98125-2.25227c17.48809-4.22261,40.70154-13.69943,51.97337-34.86512,7.1454-13.41633,6.24832-30.28872-2.66718-50.1483-5.66039-12.60685-13.66994-21.77839-21.58046-29.76691l31.07159-31.07158c11.81339,10.76818,48.56712,42.18125,68.277,53.32069-2.35118,26.52038-18.1619,55.11027-42.423,76.62517-20.03333,17.76632-54.44533,38.44068-105.01154,36.723C467.02547,259.05706,468.268,258.00084,468.98965,257.38771Zm136.60351-42.93764c-1.52508-.70988-4.75787-2.25185-6.71976-3.46107l-3.3198-2.0446,1.64129,3.53648c.40074.86388.83525,1.69025,1.37309,2.624-.02519-.01045-.05009-.02075-.07528-.03077l-3.19071-1.28965,1.6247,2.77266c-.54844-.21153-1.0465-.39229-1.55657-.57677-1.0568-.38242-2.14938-.77786-3.8588-1.51994l-4.31792-1.87458,2.93424,3.6809c2.03573,2.55368,5.36642,6.91583,6.71088,8.68136a152.50833,152.50833,0,0,1-107.67872,49.462,49.36325,49.36325,0,0,1-3.39566-6.98067l-1.99681-5.70718-.28108,6.03965a12.83772,12.83772,0,0,1-1.34361,4.207l-.719-1.66892-1.22139,1.49259c-.37755.46185-.66035.83353-.928,1.18589-.36066.47473-.68153.89722-1.18474,1.46684-2.32656-.14312-11.38547-.72133-17.65068-1.43177a69.01861,69.01861,0,0,0,4.68174-10.06547c.11564-.31343.22183-.63431.33289-.95232a157.136,157.136,0,0,0,60.61208-9.2494,146.648,146.648,0,0,0,46.90607-28.02614c24.39247-21.63155,40.39784-50.34824,43.10652-77.16488a30.26333,30.26333,0,0,0,5.8765,2.44621,13.80035,13.80035,0,0,0,6.80992.35493C629.94957,170.08781,621.56647,193.3037,605.59316,214.45007Z"/></g></g></svg>