<svg xmlns="http://www.w3.org/2000/svg" viewBox="0 0 865.54235 323.86178"><defs><style>.cls-1{fill:#24373e;}</style></defs><g id="Слой_2" data-name="Слой 2"><g id="Слой_1-2" data-name="Слой 1"><path class="cls-1" d="M392.20576,300.15977c.24406.05434.5026.1005.75.15282l-.04343.18952a116.86812,116.86812,0,0,0,14.35434,2.272,46.9421,46.9421,0,0,0,7.15723.013c1.82524-.1513,3.61392-.12507,5.42976-.4577,3.0326-.55549,5.85745-1.59052,8.953-1.90575a44.96162,44.96162,0,0,1,7.00155-.20711,46.54987,46.54987,0,0,1,13.85911,2.8145,47.4543,47.4543,0,0,0-13.73949-4.17855,45.21552,45.21552,0,0,0-5.30608-.45993c2.27857-1.1295,4.49339-2.35838,6.67089-3.56738q1.08264-.60123,2.1653-1.19731a70.3541,70.3541,0,0,1,12.67665-5.57192,38.75955,38.75955,0,0,1,6.72879-1.5109c5.66113-.71618,11.32124-1.26024,16.94935-2.22372-.88685.14971-3.3851-3.38008-4.0868-4.05-3.26522-3.11875-7.01679-6.34416-11.24632-8.05588a22.02414,22.02414,0,0,0-3.86712-1.13859c4.66787-.32038,8.80978-2.92942,13.09645-4.80431a43.90808,43.90808,0,0,1,25.89094-2.82872c-9.06883-3.8122-13.56527-15.23452-23.02342-17.94064a18.245,18.245,0,0,0-9.13791.00241,31.20443,31.20443,0,0,0-4.47257,1.42779,31.11844,31.11844,0,0,1-3.76807.927q-3.40415.89646-6.86416,1.5594c-14.55776,2.7905-30.08288,2.22264-43.51685-4.70349-1.85419-.956-3.68782-1.95057-5.51966-2.94776,8.12636-.08813,15.664-4.73625,21.06789-10.806s9.00686-13.49225,12.54128-20.81056q-5.48868,1.75129-10.97711,3.502c-8.09868,2.58409-16.606,5.18373-24.96092,3.82071,1.00113-.7478,1.97864-1.5509,2.9399-2.39718,1.62867-1.43331,3.21773-2.97526,4.8172-4.533a82.509,82.509,0,0,1,8.66629-7.68948c-.13816.10089-.73726.00311-.91783.00457q-.54323.00343-1.086.00991-1.04532.01294-2.09064.031c-1.39579.02279-2.79183.04914-4.18788.06438-2.78955.0299-5.58163.01511-8.36661-.16228-1.4095-.0894-2.81621-.21994-4.22064-.36978a18.927,18.927,0,0,1-5.431-1.10417,12.47577,12.47577,0,0,1-4.2849-3.04751,15.22348,15.22348,0,0,1-4.12921-9.54984,15.49617,15.49617,0,0,1,8.15176-13.75917c-2.37432-1.32817-3.24618-4.28749-3.61493-6.98333a34.19223,34.19223,0,0,1,3.8821-21.50249,27.561,27.561,0,0,1,17.153-13.18172c3.95829-.93808,8.07658-.887,12.11335-1.38893,4.03677-.502,8.20128-1.671,11.08632-4.53892-9.22907,3.04465-17.04661-5.32088-19.63858-13.29385-2.84212-8.74451-4.41695-22.31809,5.718-26.97181,4.612-2.11781,9.94119-1.89826,14.864-1.3415,8.17335.92456,16.27507,2.24549,24.532,1.69839a62.14245,62.14245,0,0,0,8.00776-1.05345c2.49673-.49656,6.19725-.89567,8.36865-2.26568l.2179-.13759c-1.08722.08769-2.17648.1581-3.26853.19549a55.706,55.706,0,0,0,12.921-4.56831,27.13748,27.13748,0,0,0,11.59324-10.014,26.18248,26.18248,0,0,1-12.10624,8.7534,54.74006,54.74006,0,0,1-14.40361,3.46872,67.94955,67.94955,0,0,1-14.7076-.10788c-6.85476-.77605-15.39382-3.75289-20.80174-8.25416-1.05142-.878-.20622-2.16747.559-2.9239,6.47382-6.39864,15.70137-7.99468,24.39255-8.40756,3.16186-.1506,6.17464.649,9.30831.64221-1.0763-.04133-2.00073-1.60887-2.57926-2.35832-.8965-1.16176-1.73-2.37692-2.68441-3.501A33.74438,33.74438,0,0,0,447.984,48.9327a41.93915,41.93915,0,0,0-16.49754-4.36863c-3.75462-.30171-7.52752-.21384-11.28086-.50844a116.904,116.904,0,0,0-41.12856,4.40261A152.61682,152.61682,0,0,0,353.56377,58.39l3.90039-2.99958c2.93151-2.26358,5.85337-4.55307,8.71987-6.92364,2.9018-2.36054,5.56894-4.91765,8.55531-6.99591a41.79647,41.79647,0,0,1,9.52977-5.22437,27.12074,27.12074,0,0,1,10.63426-1.84841,27.37943,27.37943,0,0,0-10.83616,1.19972,42.447,42.447,0,0,0-10.02856,4.72356q-2.36759,1.48169-4.59955,3.18808c-1.48163,1.12417-2.92542,2.2366-4.41848,3.31716-2.96732,2.16816-5.99128,4.25772-9.03429,6.32753L346.82507,59.361c-3.04936,2.09419-6.06112,4.16547-9.14248,6.0702a68.57608,68.57608,0,0,1-9.42488,4.99911q-1.12684.4558-2.26079.84449c-1.05726.28216-2.11705.54349-3.18167.75758a28.83077,28.83077,0,0,1-9.27327.60012,11.3681,11.3681,0,0,1-3.96312-1.2283,7.565,7.565,0,0,1-2.54345-2.28676c.643-4.2416,1.455-9.90221,1.90575-12.612.56024-3.36573,1.54461-10.46817,1.62182-11.31965,1.25763-13.90983,1.01-24.51895-2.00023-36.92779a12.33868,12.33868,0,0,0-4.39029-7.16555,4.13569,4.13569,0,0,0-4.46089-.72895c-4.80349,2.19248-5.82138,8.39646-7.32358,12.98027-.37485,1.1436-.9003,3.20846-1.26017,3.9407-21.22637,43.193-70.94224,52.92865-112.69124,58.88736-3.15449.45028-6.09693.57752-9.16228,1.23579-22.47841,4.82667-42.09541,23.37491-56.78853,40.45074-6.48905,7.541-6.2455,11.41907-16.04117,13.61466-19.93852,4.46864-39.55678,4.94019-60.6201,5.12387-7.68726.06634-19.85039.21707-27.64558,2.20568-6.777,1.72734-8.7181,6.24093-8.05728,12.05532.52113,4.58248,1.65331,6.22315,2.78472,10.18767.60723,2.12943.82894,2.516,1.68048,5.227,1.7516,5.57535,3.77646,11.818,7.109,16.88707,3.45062,6.64746,8.29449,11.989,14.426,14.85985a48.15769,48.15769,0,0,0,14.3523,14.17733c-.98563-2.51413-1.86918-5.07269-2.66993-7.65786a62.36846,62.36846,0,0,0,21.763,19.18734,144.27823,144.27823,0,0,1-9.10743-24.2168q1.18551.13772,2.35933.26768c2.01115.2212,4.05074.38235,6.10506.49987a104.28275,104.28275,0,0,0,8.76838,10.31134c-.55719-3.39481-.94576-6.76054-1.20277-10.09916q1.27008.00116,2.54168-.02069a44.20394,44.20394,0,0,0,9.31034,7.54605c-.74081-2.7072-1.44607-5.07974-1.84835-7.44028a54.52849,54.52849,0,0,0,5.29033,3.76909c-.43656-1.59547-.85814-3.07056-1.21649-4.50012,8.32116-.83625,16.92142-3.3,25.19762-3.01717,6.3613.2174,15.17566,2.21026,18.56075,8.56883,2.42739,4.56057.75682,9.21937-2.13026,13.07874a64.62107,64.62107,0,0,0-11.79411,8.11322c-3.49481,3.02719-6.79407,6.51114-11.02,8.2355a19.45122,19.45122,0,0,1-2.79564.86951c-.578-.98106-1.16316-2.00225-1.78893-3.07621-.24406,1.2551-.43479,2.43495-.59834,3.57817-2.90891.51314-5.86836.84463-8.58248,2.02328A16.47577,16.47577,0,0,0,81.77,240.59038c-.99376-1.74-1.8867-3.64236-2.914-5.73077a50.38979,50.38979,0,0,0-1.8062,10.706c-.17168.21472-.34488.42691-.51529.64367-2.90739,3.69639-5.97274,7.258-8.7435,11.0714-1.54588,2.12854-4.63942,6.63292-1.85953,9.01625a2.6447,2.6447,0,0,0,3.27462-.25244,14.43624,14.43624,0,0,0,2.28975-2.81685,12.66414,12.66414,0,0,1,2.21635-2.27216,15.63117,15.63117,0,0,0-.84012,3.36789c-1.86689,14.28348-3.06281,14.511,7.27355,17.20363,6.836,1.77928,15.47636-.78614,22.371-1.29782A56.00336,56.00336,0,0,0,118.008,276.6448c12.1296-4.595,22.62088-12.71252,34.48306-17.90077,12.729-5.56747,26.9647-8.052,40.54521-10.10747a139.99476,139.99476,0,0,1,41.415.27326l-.06654.34755c16.50034,3.46611,30.33557,10.01592,41.12094,19.46811,1.98753,1.7415,3.90191,3.68071,5.75281,5.55656,4.50787,4.56723,9.16939,9.29053,15.59165,12.02052,1.68988.71866,3.48922,1.437,5.35917,2.18423a135.27156,135.27156,0,0,1,14.74595,6.60632l9.14882,4.99961-5.76932-8.96165c-1.29826-2.0142-1.78715-4.04287-1.40417-4.61917a3.24829,3.24829,0,0,1,1.28786-.98971c2.35527-1.20176,5.36932-1.11934,8.9586.24381,3.19539,1.21465,6.39356,2.71222,9.48736,4.16128l.40914.19161c2.53939,1.18513,5.093,2.33718,7.64535,3.48979,5.988,2.70346,12.17938,5.499,18.04038,8.66852a94.61507,94.61507,0,0,0,16.177,6.75457c5.05339,1.62105,9.41752,3.02116,15.17058,3.44147a30.88369,30.88369,0,0,0,8.08014-.43955l11.92669-3.15252-12.12021-2.20467C399.75664,305.905,395.83873,303.31534,392.20576,300.15977ZM169.71925,119.736c-3.8562,5.5565-8.12814,9.5052-14.20907,11.36162-4.9739,1.51979-9.57473.47936-14.57427.8137a38.37657,38.37657,0,0,0-14.18672,3.71614,7.2073,7.2073,0,0,1,3.65429-2.9884c5.81148-2.64974,9.58615-7.25158,13.70546-12.07875a27.95831,27.95831,0,0,1,10.90093-7.79487c4.20032-1.72792,8.42832-2.29318,12.829-2.805a4.64088,4.64088,0,0,1,2.59958.11123C174.32159,111.96293,171.36087,117.37168,169.71925,119.736Zm246.301,100.45205a88.51945,88.51945,0,0,1-23.78023,9.49625,122.66068,122.66068,0,0,1-25.46911,3.40484,112.456,112.456,0,0,1-25.62757-2.525c-2.09648-.45263-4.212-.91028-6.29553-1.56049-1.77877-.54831-3.5197-1.18805-5.24209-1.86245a99.67331,99.67331,0,0,0,9.47085,4.879q3.168,1.43922,6.42988,2.65228c2.17927.79021,4.38851,1.49046,6.61578,2.12918a79.61127,79.61127,0,0,0,13.63765,2.61736,66.52548,66.52548,0,0,0,13.918.01517c4.659-.45091,9.33244-1.3062,14.05313-1.66994-4.61174,1.04767-9.15111,2.2973-13.83625,3.18668a59.63526,59.63526,0,0,1-14.319.89644,72.33564,72.33564,0,0,1-14.22-2.192,87.49409,87.49409,0,0,1-13.56426-4.79352A99.68024,99.68024,0,0,1,325.21217,227.94c-1.99261-1.3229-3.96058-2.68142-5.86049-4.12845l-5.62532-4.28648q-11.25889-8.53635-22.79638-16.75316a241.6468,241.6468,0,0,1,24.21477,14.78487c1.41458.95948,2.82028,1.94137,4.21709,2.92523,7.23621,3.41443,14.33351,6.98663,22.11981,8.55709a110.30959,110.30959,0,0,0,25.27431,3.02453,121.86854,121.86854,0,0,0,25.36675-2.87888A88.24947,88.24947,0,0,0,416.02028,220.18807ZM392.365,208.222a44.67232,44.67232,0,0,1-17.73994,2.74815,40.66,40.66,0,0,1-9.00813-1.50893c-2.90993-.79726-5.74062-1.78366-8.5454-2.76-2.785-1.02964-5.54634-2.04867-8.31659-2.9712a73.30185,73.30185,0,0,0-8.36991-2.36307,39.6573,39.6573,0,0,0-8.602-.89167c-2.87107.02044-5.8935.38552-8.85574.461a84.48635,84.48635,0,0,1,8.74755-1.98963,34.0375,34.0375,0,0,1,9.10921.01791,57.49024,57.49024,0,0,1,8.8621,1.9481c2.88123.86386,5.68957,1.87616,8.48039,2.85348,2.77151,1.02868,5.53744,2.0015,8.31683,2.86663a46.33716,46.33716,0,0,0,8.40445,1.92162A66.34165,66.34165,0,0,0,392.365,208.222Zm-59.27206-43.51139a62.11275,62.11275,0,0,0,6.49744,3.58719,59.05661,59.05661,0,0,0,6.9119,2.68422,42.7296,42.7296,0,0,0,14.6657,1.91984,43.94,43.94,0,0,0,7.44116-1.036,29.50024,29.50024,0,0,1,7.60878-.71485c-5.09783.31981-9.68392,2.7378-14.91585,3.27735A41.316,41.316,0,0,1,345.842,173.326a54.388,54.388,0,0,1-14.30405-6.1029,68.48746,68.48746,0,0,1-6.38823-4.44991c-2.01115-1.58848-3.971-3.20966-5.93261-4.79726a71.34434,71.34434,0,0,0-12.19132-8.52267c-1.0791-.57873-2.18969-1.0838-3.31374-1.55573-1.15655-.42825-2.30168-.90678-3.48871-1.26487a68.54039,68.54039,0,0,0-7.20091-1.93438c-9.78806-2.06645-19.98474-2.18366-30.13444-2.57571,10.10323-.89186,20.36162-1.47935,30.58116.191a56.5471,56.5471,0,0,1,7.56866,1.71617c1.25357.3412,2.46929.80481,3.70331,1.22373,1.2302.47434,2.44593.98722,3.62154,1.57388a71.44776,71.44776,0,0,1,12.8242,8.73061l3.43309,2.82834a59.1908,59.1908,0,0,0,20.27375,2.80421,71.95323,71.95323,0,0,0,10.55045-1.07268c3.4496-.73225,7.049-1.15046,10.57712-1.69445l-5.13466,1.57959a40.804,40.804,0,0,1-5.21415,1.32982,73.23343,73.23343,0,0,1-10.71654,1.37427,62.80478,62.80478,0,0,1-16.39622-1.18062C330.03648,162.6377,331.54122,163.70823,333.09294,164.71056ZM279.15974,95.3558c.76875-.48063,1.59489-.86133,2.39488-1.29884a32.13785,32.13785,0,0,1,5.12171-1.898,51.95017,51.95017,0,0,1,10.80112-1.68328c7.27837-.40983,14.52957.14642,21.59461-.425a73.58856,73.58856,0,0,0,10.47909-1.73229,91.567,91.567,0,0,0,10.219-3.03259,122.13219,122.13219,0,0,0,19.36328-9.03213c12.53164-6.92377,24.49515-15.30251,38.049-20.90021A67.14136,67.14136,0,0,1,418.404,50.06526a54.22873,54.22873,0,0,1,21.47957,2.94536,68.76918,68.76918,0,0,0-10.64137-1.736,51.95742,51.95742,0,0,0-10.69471.305,69.78,69.78,0,0,0-20.4058,6.00214,176.67932,176.67932,0,0,0-18.86475,10.2582c-6.15865,3.7202-12.28732,7.56675-18.62374,11.13749a121.53707,121.53707,0,0,1-19.9121,9.09937c-.36419.12323-.73243.23472-1.09814.3539q3.09976.026,6.18607.29237a83.62134,83.62134,0,0,1,8.59289,1.22538c2.84669.53987,5.63065,1.307,8.407,1.96836a130.6436,130.6436,0,0,0,16.87926,3.06808,62.4877,62.4877,0,0,0,17.12585-.35193,62.75742,62.75742,0,0,1-17.17182.87008,131.36574,131.36574,0,0,1-17.06084-2.57139c-2.82485-.58361-5.60043-1.25922-8.40978-1.70321a82.18794,82.18794,0,0,0-8.47658-.94932,74.14672,74.14672,0,0,0-16.10466.81395c-1.61649.33314-3.24059.63225-4.87435.87-.9064.12635-1.81686.24209-2.74332.31523-.92139.08679-1.84226.1833-2.76035.20254-7.36142.37142-14.55192-.52272-21.70839-.4758a50.79083,50.79083,0,0,0-10.64848.95706,31.88724,31.88724,0,0,0-9.97167,3.90414Zm-29.12366,22.518c3.34091-.61828,6.72245-.99129,10.11186-1.30436a129.148,129.148,0,0,1,20.40962.14133,185.78209,185.78209,0,0,1,20.21051,2.84192c4.28717.79428,8.5068,1.85026,12.71753,2.94085,4.83854.4,9.6725.77859,14.49732.887a81.15509,81.15509,0,0,0,16.22022-1.11637,151.93114,151.93114,0,0,0,15.94542-3.66712c5.22812-1.59452,10.455-3.39779,15.86111-4.36692-5.35408,1.23668-10.43871,3.27938-15.60765,5.13942-2.59476.92443-5.23193,1.72759-7.8856,2.46066-2.658.72247-5.30964,1.42811-8.037,1.94093a82.87661,82.87661,0,0,1-16.52091,1.41515c-1.50753-.00889-3.012-.04679-4.51448-.09943l2.0495.54463c1.6335.413,3.29824.91123,4.92056,1.46188,3.248,1.09161,6.40575,2.29267,9.563,3.35812a55.0652,55.0652,0,0,0,9.578,2.43361,49.31163,49.31163,0,0,0,9.83376.51619,48.53221,48.53221,0,0,0,9.76215-1.56265c3.19767-.82164,6.32271-2.088,9.51707-3.22916a85.485,85.485,0,0,1,9.76317-2.97316,40.35484,40.35484,0,0,1,5.04755-.80526,31.87189,31.87189,0,0,1,5.08945.03873,35.29935,35.29935,0,0,0-9.929,1.56709,84.43108,84.43108,0,0,0-9.41066,3.59614c-3.1037,1.30347-6.19877,2.73335-9.50767,3.7701a48.18625,48.18625,0,0,1-10.15986,2.02721,51.11956,51.11956,0,0,1-20.50079-2.56955c-3.26979-1.03319-6.43165-2.24232-9.60291-3.27215-3.13037-1.0589-6.45426-1.77349-9.69536-2.65285-6.5081-1.70988-12.98775-3.57163-19.57966-4.89529-6.57362-1.39789-13.19829-2.53152-19.86308-3.31558a148.86291,148.86291,0,0,0-20.09724-1.03649c-3.35716.07886-6.725.21619-10.07173.5998-1.68277.12654-3.33634.4633-5.00819.69345l-5.02393.71434C243.40811,119.33571,246.69264,118.459,250.03608,117.87383Zm-5.93693,39.05386a72.11948,72.11948,0,0,1,14.25656,2.70288,70.33514,70.33514,0,0,1,13.34762,5.8104c4.21124,2.36187,8.22439,4.97059,12.21824,7.53614,3.97049,2.60524,7.97576,5.086,12.09685,7.33279a71.17239,71.17239,0,0,0,12.93086,5.48367,45.192,45.192,0,0,0,13.94927,2.07273,39.23368,39.23368,0,0,1-14.33072-.59739,63.19469,63.19469,0,0,1-13.64121-4.79282c-8.75213-4.1294-16.52319-9.78976-24.73641-14.30786a70.10028,70.10028,0,0,0-12.712-5.71573,79.0726,79.0726,0,0,0-13.647-3.10446,81.943,81.943,0,0,0-28.13269,1.1462A66.60436,66.60436,0,0,1,244.09915,156.92769Zm-21.28453,51.36518a98.17771,98.17771,0,0,1,32.3292.5113,108.03454,108.03454,0,0,1,15.74683,4.18235,111.81767,111.81767,0,0,1,14.96055,6.51794,118.52207,118.52207,0,0,1,13.90431,8.56775c4.36768,3.11843,8.80749,6.129,13.3593,8.93511A152.4598,152.4598,0,0,0,341.89968,250.897a188.65172,188.65172,0,0,0,30.94839,8.29474,202.59562,202.59562,0,0,0,31.92285,3.21843c5.35332.12406,10.70943-.04806,16.04955-.44151a143.70191,143.70191,0,0,0,15.934-2.05953c5.27383-.92462,10.48823-2.35711,15.83647-3.26415a53.5848,53.5848,0,0,1,8.08471-.81992,36.887,36.887,0,0,1,8.06008.77243,44.01145,44.01145,0,0,0-15.99012.85529c-5.24387,1.12272-10.3836,2.77692-15.68816,3.94649a149.49256,149.49256,0,0,1-32.30736,3.43677,189.47612,189.47612,0,0,1-63.91224-11.00651,152.9168,152.9168,0,0,1-29.291-14.31776c-4.58685-2.91482-9.03352-6.02036-13.39587-9.22559a129.3739,129.3739,0,0,0-13.454-8.63727C266.06176,211.31924,244.33356,206.17919,222.81462,208.29287Zm152.2117,93.29265a95.59089,95.59089,0,0,1-14.91915-7.8463c-4.76591-2.9804-9.28191-6.30975-13.7626-9.64075-4.46242-3.35132-8.83036-6.82124-13.29912-10.06437a155.20513,155.20513,0,0,0-13.79688-9.114,129.976,129.976,0,0,0-14.7104-7.50549c-10.10932-4.32095-20.94066-7.23393-32.12653-7.30472,11.14676-1.2436,22.547,1.04488,33.0375,5.046a127.27264,127.27264,0,0,1,29.4401,16.36243c9.00838,6.69489,17.46642,13.89536,26.55581,20.19692,9.06121,6.26912,18.87948,11.66346,29.83069,14.03727A58.27736,58.27736,0,0,1,375.02632,301.58552Zm11.47819-20.20079c-1.61852-.77669-3.20351-1.59814-4.7847-2.413-6.32219-3.21424-12.6223-6.43718-19.70664-7.63939a35.88644,35.88644,0,0,1,10.65,1.63084,89.46257,89.46257,0,0,1,10.08976,3.81359l4.89136,2.13039a47.31845,47.31845,0,0,0,4.8619,1.81292,38.96292,38.96292,0,0,0,10.07427,1.89725c6.81184.56532,13.43194-1.93985,20.33038-3.91842a29.32935,29.32935,0,0,1,10.96086-.82666,45.62431,45.62431,0,0,1,10.53751,2.26143,65.27886,65.27886,0,0,0-10.59516-.7304,30.88576,30.88576,0,0,0-10.16265,1.61528c-3.3183,1.21045-6.67825,2.46777-10.20836,3.45519a38.81709,38.81709,0,0,1-5.4384,1.07992,33.10044,33.10044,0,0,1-5.59383.17764,40.27035,40.27035,0,0,1-10.83845-2.2166A50.05566,50.05566,0,0,1,386.50451,281.38473Z"/><path class="cls-1" d="M853.01768,158.90468c-4.90089-.14025-10.20037,2.31076-15.32639,4.68165-7.53412,3.48439-14.65122,6.776-20.408,2.63653-2.89253-2.07934-4.2266-5.88588-5.51547-9.56717-.21562-.61561-.43035-1.22772-.65-1.83019-2.59666-7.09273-6.94606-10.66068-13.68755-11.22721a94.44765,94.44765,0,0,0-34.5938,3.49665c-1.12582.33053-6.79431,2.18657-7.81449,6.31877-.94869,3.81607,2.25813,5.593,4.3767,6.76835a12.18917,12.18917,0,0,1,1.949,1.22957,5.39424,5.39424,0,0,1,1.667,4.25791c-.30375,7.07-9.42336,10.26176-14.20349,10.96187-5.84639.85631-12.54357.09968-20.47653-2.3126-3.91347-1.18976-7.96243-2.47933-12.22675-3.89283,2.02435.35377,4.0548.68259,6.096.96a70.87869,70.87869,0,0,0,14.246.56659,11.91689,11.91689,0,0,0,6.75521-2.29114,6.2905,6.2905,0,0,0,2.09254-6.471,6.09648,6.09648,0,0,1-2.33711,6.16671,11.36507,11.36507,0,0,1-6.55686,1.8168,69.8248,69.8248,0,0,1-13.95333-1.32855c-9.16406-1.7636-18.12863-4.47639-27.29333-6.72956-.3271-.11866-.63808-.22977-.96811-.35-1.6622-.60488-3.31246-1.25351-4.96349-1.90264-3.05684-1.20126-6.20867-2.4201-9.44266-3.37869,4.34013.31727,8.67569.62177,13.00249.97053,5.39967.45053,10.82651,1.11084,16.29335,1.23262a50.20244,50.20244,0,0,0,16.17832-1.9747,49.82193,49.82193,0,0,1-16.14276,1.19547c-5.40221-.379-10.7521-1.29135-16.1613-2.00448q-4.08412-.52675-8.16826-1.01344c.44774-.06445.896-.12134,1.34245-.19645a56.72163,56.72163,0,0,0,7.02492-1.63191,57.11041,57.11041,0,0,0,7.846-2.09076,37.00971,37.00971,0,0,0,3.79067-1.5777c1.23376-.60354,2.417-1.28931,3.55183-1.97337a27.29112,27.29112,0,0,1,7.02529-3.37614,7.76255,7.76255,0,0,1,3.81227-.08292,8.88989,8.88989,0,0,1,3.43322,1.85363,9.08584,9.08584,0,0,0-3.32211-2.22772,8.34449,8.34449,0,0,0-4.07042-.30914,28.231,28.231,0,0,0-7.61056,2.76485c-1.15275.56476-2.30181,1.06551-3.46535,1.5043a21.94045,21.94045,0,0,0,4.86266-5.45548,18.12718,18.12718,0,0,0,2.97748-10.33268,12.17625,12.17625,0,0,0-1.57724-5.46748,10.40338,10.40338,0,0,0-1.06577-1.42448c-.54881-.652-1.16811-1.39071-1.043-1.79992a2.40936,2.40936,0,0,1,1.58944-1.131,7.21388,7.21388,0,0,1,6.80435,1.42684c2.23819,2.07311,3.46661,5.00475,4.76653,8.108.58311,1.38944,1.18462,2.82612,1.89039,4.197,5.73325,11.14079,19.45623,17.1423,30.59,13.37784,4.16909-1.40982,7.77513-3.95321,11.26232-6.412,3.71754-2.62181,7.22911-5.098,11.30727-6.25566,4.71066-1.33795,10.34043-.89091,17.21258,1.36417l12.82319,4.209-11.52479-7.02371a50.12558,50.12558,0,0,0-34.204-6.50791c-1.94664.3379-3.90522.79726-5.79992,1.24068-5.67065,1.3283-11.02766,2.58225-16.29146.91948a4.06189,4.06189,0,0,1-1.9959-1.35541c-1.05853-1.37674-.67225-2.69006.10209-4.89314a17.61958,17.61958,0,0,0,.82983-2.87767,10.4613,10.4613,0,0,0-2.7338-9.44107c-7.58745-7.99322-28.28354-7.54117-34.93576-6.75273-4.66673.55307-9.954,1.60778-13.782,5.236a11.083,11.083,0,0,0-1.93978,13.90215l.32913.491a7.44153,7.44153,0,0,1,1.03516,1.868,1.887,1.887,0,0,1-.13333,1.74861c-.6278.91713-2.40809,1.596-4.64476,1.77255-5.34037.42088-9.40126-2.60879-13.70025-5.81674-.89535-.6685-1.79388-1.33808-2.70434-1.97813-15.837-11.12912-31.57416-17.50014-46.77268-18.93624-18.84189-1.77928-38.113,1.38258-57.84426,5.06907a81.29726,81.29726,0,0,0-9.56507,2.45615c16.08117-10.25782,30.53938-15.70917,45.77865-17.39842,10.57255-1.1723,22.87816-1.914,33.98175,1.46925l12.33151,3.75792-11.079-6.59134a164.30355,164.30355,0,0,0-25.66008-12.933,108.45629,108.45629,0,0,0-31.433-6.63331,156.3105,156.3105,0,0,0-18.71758.32133c-1.90918.10978-3.84871.21759-5.79459.30558,4.33213-1.21668,8.70325-2.23336,13.1381-3.08154a92.01775,92.01775,0,0,1,15.54315-1.81134,103.79875,103.79875,0,0,1,15.68689.91548,104.18761,104.18761,0,0,0-15.68727-1.69566,93.19676,93.19676,0,0,0-15.80054,1.05256,157.42992,157.42992,0,0,0-15.56727,2.94808A50.852,50.852,0,0,1,539.4334,74.109a54.39312,54.39312,0,0,1-7.31507.03054,178.54292,178.54292,0,0,1-48.96909-10.6,83.66732,83.66732,0,0,0,66.086-32.29618l4.054-5.309-5.9862,2.96352c-23.26329,11.5166-49.97911,13.34546-75.47767,11.159C451.01,38.272,429.87812,37.85845,409.439,41.67852q5.50469-.11628,10.92937.303c1.807.1419,3.67563.19422,5.4831.2447,1.89432.05276,3.8529.10749,5.80157.26431a43.6359,43.6359,0,0,1,17.30947,4.6066,34.30947,34.30947,0,0,1,8.26528,6.26772c2.52491,2.567,4.41416,5.58678,6.7646,8.28808a7.02967,7.02967,0,0,0,2.611,1.61388,7.50361,7.50361,0,0,1-3.23576,1.40709,20.639,20.639,0,0,1-4.87054-.14279,28.55937,28.55937,0,0,0-4.70164-.29968c-7.33552.34825-16.53945,1.543-22.8614,7.65532,6.45112,4.343,8.57733,6.332,20.33851,7.91043a63.92314,63.92314,0,0,0,12.75258-.01829A52.86744,52.86744,0,0,0,477.883,76.44692c4.69682-1.72036,9.31365-4.77822,14.05085-8.54274.304,3.86738-6.52486,11.09762-11.87691,13.61683a54.14182,54.14182,0,0,1-8.70769,3.47931,2.07956,2.07956,0,0,1-.7205.7706l-.21815.13758a13.25978,13.25978,0,0,1-3.74014,1.49661q1.571.86247,3.14,1.72906c1.472.78513,2.9051,1.63737,4.33289,2.49882l4.29581,2.56441q4.26242,2.63605,8.38236,5.48481c10.96569,7.59374,21.23907,15.989,32.25428,23.18647,2.73519,1.82772,5.5462,3.52122,8.38058,5.17091a71.68333,71.68333,0,0,0,8.72648,4.31943,69.01949,69.01949,0,0,0,18.97243,4.22667,145.24711,145.24711,0,0,0,19.71667.17835c6.59838-.32,13.20324-.85948,19.82258-1.30348,13.22991-.81427,26.593-1.29776,39.77264.34844-3.30865-.21174-6.61654-.39-9.92824-.39351q-4.96374-.07848-9.92443.12552c-6.61273.24437-13.20743.80716-19.79883,1.44461-6.5947.60958-13.19321,1.275-19.82829,1.74595-4.747.32412-9.5205.53859-14.30761.47072a147.7977,147.7977,0,0,1-17.662,2.64993,120.71568,120.71568,0,0,1-22.79435-.2525c-1.9-.16762-3.78433-.47187-5.67484-.72882-1.8801-.32457-3.76376-.63643-5.62735-1.053a103.08378,103.08378,0,0,1-11.0886-2.92053c-7.2733-2.38581-14.20958-5.50526-21.14028-8.42922a136.48336,136.48336,0,0,0-21.08034-7.53583c-3.617-.98163-7.27329-1.79407-10.93927-2.55513-1.84124-.32927-3.67487-.71891-5.525-.99428l-2.77-.45523-2.78117-.374a121.99306,121.99306,0,0,0-22.918-.879,19.21681,19.21681,0,0,0,8.10478,9.07042c2.61736,1.32614,6.78771,1.45039,12.03462.936a6.20569,6.20569,0,0,1-1.90245,3.17113c-2.78523,2.76815-6.80752,4.44534-12.29621,5.12818-1.49762.1861-3.00414.29854-4.4619.40736a47.48959,47.48959,0,0,0-7.429.94145,25.58328,25.58328,0,0,0-15.82707,12.19151,29.72928,29.72928,0,0,0-3.37977,9.30724,72.23426,72.23426,0,0,1,11.68593-.51562A94.91333,94.91333,0,0,1,414.848,158.855c11.58587,2.83513,22.56933,7.53773,33.42378,12.19437,10.87858,4.60025,21.64592,9.49326,32.95522,12.41938a99.428,99.428,0,0,0,34.61107,3.18668c11.61914-.98913,23.01606-4.01708,34.12777-7.80281,11.13254-3.76852,22.13379-8.32858,33.70873-11.26962a154.12032,154.12032,0,0,1,70.64129-.50755,170.23271,170.23271,0,0,0-35.24991-2.33247,147.84517,147.84517,0,0,0-34.76764,5.14672c-11.28086,3.2218-22.17353,7.76383-33.371,11.74783-11.21178,3.92719-22.84488,7.043-34.81754,8.12484A101.56574,101.56574,0,0,1,480.461,186.323a143.79417,143.79417,0,0,1-16.894-5.9017c-5.50773-2.2413-10.89762-4.70939-16.26821-7.177-10.73408-4.923-21.49-9.81554-32.8351-12.90877a93.75167,93.75167,0,0,0-17.30261-3.1976,79.2689,79.2689,0,0,0-11.69279.02139,33.54488,33.54488,0,0,0-.514,5.9137c.0033,1.54207.17828,3.093.32075,4.63415a9.42694,9.42694,0,0,0,4.42483,7.27108c-.90868.75446-2.2359,1.45553-2.97316,2.02517a14.99325,14.99325,0,0,0-5.972,11.46l.00254.22444a13.17947,13.17947,0,0,0,3.57709,8.18166A10.42277,10.42277,0,0,0,387.898,199.411c.24559.10336.50438.17974.76164.25942a83.84662,83.84662,0,0,1,9.8325-2.57812,85.30951,85.30951,0,0,1,10.80569-1.38258c1.81483-.19486,3.6388-.1094,5.46024-.12553,1.82448-.04457,3.63855.12318,5.45668.22591a106.00886,106.00886,0,0,1,10.77928,1.495c3.53824.73085,7.05057,1.50042,10.51668,2.37216a144.32224,144.32224,0,0,0,21.01684,3.9221c-7.17932.65955-14.45948-.29492-21.51055-1.53731-7.07216-1.24087-14.02418-2.6465-21.04885-3.14281a100.82581,100.82581,0,0,0-21.08135.56659c-1.92886.24952-3.84858.56374-5.764.91732,1.41.1466,2.61786.25136,3.75156.32336,2.916.18571,5.78837.18406,8.21322.158,1.055-.01143,8.5835.51688,11.27552.61974-1.64594,2.82923-7.45843,7.87424-10.119,10.46537-1.26018,1.22684-2.60644,2.53762-3.98725,3.79671,6.52664-.1019,13.0995-2.19914,19.03948-4.09435,0,0,10.5596-3.08307,13.791-3.58338.10311,2.212-4.44489,11.50009-6.91723,15.60448,4.2506-.5918,8.52457-1.1163,12.85188-1.35547a148.99226,148.99226,0,0,1,27.87668,1.24722c9.20445,1.18442,18.354,3.09989,27.32787,4.89586a79.11907,79.11907,0,0,0,27.04292.36724,84.10381,84.10381,0,0,0,13.2322-3.15539,132.08241,132.08241,0,0,0,12.7315-5.06767c8.39874-3.7463,16.7543-7.82834,25.57691-10.80912,8.80013-2.89894,18.20927-4.662,27.41676-3.4049a56.31973,56.31973,0,0,0-13.7306.96068,77.20337,77.20337,0,0,0-13.16985,3.88414c-8.5722,3.27785-16.70491,7.61538-25.0752,11.58161a116.27032,116.27032,0,0,1-12.88058,5.44792,86.93974,86.93974,0,0,1-13.62927,3.47976,81.19037,81.19037,0,0,1-28.07833-.21669c-2.33369-.43333-4.55283-.9405-6.81413-1.40138-2.25394-.46806-4.50914-.92487-6.7674-1.35376q-6.77209-1.305-13.58152-2.28885a157.10754,157.10754,0,0,0-27.36749-1.74309c-4.78139.15308-9.56253.63574-14.36145,1.15656a54.1479,54.1479,0,0,1-4.8525,6.42822A34.56913,34.56913,0,0,1,405.814,242.88984c11.64123,5.98722,26.20738,7.5385,42.12842,4.487,2.25343-.432,4.516-.94634,6.72524-1.52811.5219-.13777,1.03719-.23949,1.54842-.33961a11.01748,11.01748,0,0,0,1.9794-.50812,32.94168,32.94168,0,0,1,4.77124-1.52144,20.16552,20.16552,0,0,1,10.18246.02375c5.5542,1.589,9.43961,5.74664,13.197,9.768,3.18624,3.40942,9.68113,9.27562,12.013,10.64735-.48,1.47464-11.65977-.54869-16.99226,1.21312,2.61253.28317,5.2337.49231,7.86554.60044a124.48107,124.48107,0,0,0,14.92677-.16432c4.97161-.39218,9.92773-1.03319,14.86658-1.84892a135.15994,135.15994,0,0,1-14.78734,2.67215,118.2265,118.2265,0,0,1-28.71757-.00508,40.78228,40.78228,0,0,0-4.97847,1.79261c-1.0062.4405-2.00378.92215-3.00287,1.4043-1.28989.622-2.59629,1.25255-3.93976,1.8081a45.54911,45.54911,0,0,1,9.563,7.37583,15.4729,15.4729,0,0,1,1.11008,1.278c1.40138,1.71089,2.94878,3.74629,4.91625,4.79282-1.24468.90132-11.19476,2.71278-15.17439,3.18154-1.62918.192-3.25964.38393-4.89009.59015a33.07981,33.07981,0,0,0-3.25735.586c7.9689.38939,16.16612,1.34189,24.48473,2.4213,9.23975,1.1991,18.56254-.67294,27.57727-2.4839,6.6206-1.32931,13.46558-2.70434,20.10714-2.802,6.32042-.09238,15.03776.99713,20.676,6.71495a15.4216,15.4216,0,0,1,4.21962,11.15064,10.52261,10.52261,0,0,1-3.46078,7.70611l-3.77594,3.231,4.94507-.49269c5.20208-.51815,10.18868-4.40394,13.01366-10.14a31.9967,31.9967,0,0,0,2.2279-21.13272,23.20657,23.20657,0,0,0-11.93862-15.57883,34.956,34.956,0,0,0,5.85591-2.61831c4.37023-2.40689,7.81551-2.58092,10.84417-.5466a16.20992,16.20992,0,0,1,3.57976,3.71386,32.52158,32.52158,0,0,0,2.18663,2.60555,23.43414,23.43414,0,0,0,7.77818,5.2718,70.9103,70.9103,0,0,0,23.99839,8.75873,40.046,40.046,0,0,0,12.95334-.05638,29.13258,29.13258,0,0,0,11.929-5.01618l.67643-.45047c.21283-.16705.4132-.34984.62018-.524l1.231-1.05763a28.57252,28.57252,0,0,0,2.34486-2.18969c1.49483-1.50467,2.94484-3.03462,4.44032-4.50527a33.004,33.004,0,0,1,10.04519-7.2917,29.77124,29.77124,0,0,1,12.246-2.20594,44.58888,44.58888,0,0,1,12.40871,2.13953,44.78354,44.78354,0,0,0-12.39525-2.52968,30.36046,30.36046,0,0,0-12.55576,1.87445,33.94019,33.94019,0,0,0-10.55655,7.16682c-1.56,1.44182-3.06129,2.93132-4.5866,4.375a27.36242,27.36242,0,0,1-2.34537,2.05813l-1.20074.9697c-.20127.15942-.39619.328-.60241.4798l-.65535.40571a27.37362,27.37362,0,0,1-11.36607,4.378,37.92849,37.92849,0,0,1-12.25658-.33066,58.54857,58.54857,0,0,1-11.5719-3.44871,52.18816,52.18816,0,0,0,16.35621-.52654c9.04521-1.89324,16.06707-7.904,18.32571-15.68682a38.32156,38.32156,0,0,0,1.10246-6.991c.63567-6.66949,1.33687-10.8086,7.46847-11.82243,5.67763-.93923,11.59577-.13987,17.31975.63307,2.34232.31593,4.76374.64291,7.14733.85008,15.50708,1.343,30.85874-1.93375,41.0666-8.76718l9.45421-6.32886-10.80924,3.54935c-8.37487,2.75075-15.33579,3.581-21.2778,2.53888-5.12805-.89865-9.57929-3.1524-14.29186-5.53814-4.36184-2.20867-8.87213-4.49226-13.966-5.60583-13.54571-2.9604-29.70447,3.89493-36.02095,15.28214-.78729,1.41985-1.44442,2.89735-2.07933,4.326-1.41535,3.18275-2.75171,6.189-5.3871,8.42451a11.14617,11.14617,0,0,1-8.74629,1.98607,3.42443,3.42443,0,0,1-2.19781-1.10151c-.01321-.02692-.04178-.08933.07568-.30393a5.72466,5.72466,0,0,1,1.00621-1.13586l.291-.282a11.53949,11.53949,0,0,0,3.54814-8.55309A16.8767,16.8767,0,0,0,599.775,232.4684a17.19117,17.19117,0,0,0-8.7007-4.20057,33.777,33.777,0,0,1,9.59479.00012c1.99464.24864,3.78534.62876,5.51611.9958,4.53492.9624,8.81867,1.87147,14.5476-.2925,4.50673-1.70214,8.1176-4.76565,11.60987-7.72783a49.93146,49.93146,0,0,1,7.99519-5.93465c6.05554-3.33747,14.6398-4.11486,22.40248-2.02772a38.94347,38.94347,0,0,1,4.15994,1.38983,97.40093,97.40093,0,0,1,9.11149,4.33841c1.793.93123,3.648,1.89432,5.517,2.77812a61.49685,61.49685,0,0,0,16.03978,4.84863c10.56061,1.78188,21.95524,1.164,33.86682-1.83515a115.82517,115.82517,0,0,0,26.37182-10.3095c3.04-1.63039,11.95031-7.18251,14.22939-8.86718l8.68089-6.41407-10.14144,3.69271c-4.13036,1.50423-9.46768,2.44327-16.31673,2.8705a100.23884,100.23884,0,0,1-16.28866-.63434c-8.848-.83421-15.84295-2.62326-22.0167-5.63008a83.27488,83.27488,0,0,1-8.46236-4.81422,107.54228,107.54228,0,0,0,35.10008,5.19555c18.61129-.6172,32.72411-7.461,40.81415-19.79121,3.43056-5.22742,4.29-14.12622,1.91172-19.83528-1.46944-3.53252-.97154-4.3793-.859-4.51314.05981-.06972.67008-.66329,3.59728.04762,7.132,1.73083,9.73942,4.87288,9.00267,10.84416-.08991.72958-.20521,1.46531-.32038,2.20308-.48393,3.09939-.984,6.305.17574,9.42272a10.50219,10.50219,0,0,0,4.48235,5.31549c2.33851,1.39179,5.19841,1.97781,9.00242,1.84314,11.58294-.409,24.53641-5.99578,33.80282-14.58a26.207,26.207,0,0,1,6.80143-5.06653c2.19222-.96983,11.05279-.87313,12.16681.4085,0,0,2.38092-2.01807,2.37267-2.0267C862.39647,160.45951,857.01127,159.01845,853.01768,158.90468ZM675.22044,200.59647c-3.62713-1.22951-7.14962-2.70555-10.633-4.17156-3.49531-1.47255-6.94593-2.79082-10.51312-3.9209a109.93473,109.93473,0,0,0-10.8321-2.80269c-3.65709-.74792-7.34377-1.38963-11.06714-1.78638-1.85306-.27029-3.72478-.38762-5.58989-.57815-1.87172-.09854-3.74166-.27892-5.61948-.34292-7.51012-.36374-15.055-.1666-22.65289.18349a111.55562,111.55562,0,0,1,22.69086-2.61857,105.54488,105.54488,0,0,1,22.87345,2.089,102.06335,102.06335,0,0,1,11.1234,3.05913,93.16085,93.16085,0,0,1,10.59008,4.5094c6.81272,3.36147,13.42076,6.917,20.80834,8.82863A48.56388,48.56388,0,0,1,675.22044,200.59647Z"/><path class="cls-1" d="M432.4683,88.3498c-1.43515-.17524-2.87157-.35041-4.30978-.51288-4.45428-.50387-9.57218-.759-13.7626,1.16493-4.42152,2.03058-6.65641,6.32442-6.64244,12.76287a39.42061,39.42061,0,0,0,2.035,11.675c.08685.267.20063.52577.29866.7897.32711-.04063.6532-.0906.98081-.12609a111.901,111.901,0,0,1,22.8012.03968,156.20949,156.20949,0,0,1,22.46851,3.93366,135.03736,135.03736,0,0,1,21.57684,7.52212c6.95305,2.99037,13.80019,6.09077,20.8538,8.49582a100.13424,100.13424,0,0,0,10.7422,3.05284c3.63233.851,7.30936,1.51509,11.00861,2.0354a145.58423,145.58423,0,0,0,37.69216-.04279c-1.08074-.0388-2.162-.08781-3.24363-.16114a67.69317,67.69317,0,0,1-19.77433-4.07106,74.39368,74.39368,0,0,1-9.13066-4.38857c-2.91247-1.6516-5.80005-3.349-8.59721-5.173-11.24-7.24167-21.554-15.64193-32.41631-23.09777q-4.054-2.82777-8.2343-5.43179L472.58253,94.27c-1.40671-.85586-2.8185-1.70309-4.26889-2.4832-2.09572-1.16221-4.18229-2.34194-6.30239-3.45837-.23161.04191-.45891.08381-.674.12667a64.506,64.506,0,0,1-8.27569,1.08906C446.06887,90.00724,439.15443,89.16477,432.4683,88.3498Z"/><path class="cls-1" d="M458.4428,311.70189a67.33452,67.33452,0,0,0-6.72372-8.37753,9.66164,9.66164,0,0,1-.06755,1.1636,99.45453,99.45453,0,0,0-15.93984-2.19318,43.09516,43.09516,0,0,0-6.68765.19784,32.845,32.845,0,0,0-4.01671.61377c-1.68074.38742-3.28249,1.00932-4.98761,1.30805a31.96438,31.96438,0,0,1-5.512.45358,49.09964,49.09964,0,0,1-7.38656-.01861c-1.10551-.08241-2.20162-.19434-3.29062-.32863q.26856.06039.53561.10908s12.35716,2.99659,14.41478,3.819c.001.0259-.69815,1.184-.88888,1.50131,16.06885,1.18512,30.58192,5.04964,43.267,11.57025l4.55409,2.34136-2.47514-4.48324C461.88554,316.92816,459.4231,313.14834,458.4428,311.70189Z"/><path class="cls-1" d="M440.4593,295.45183c-.718.39371-2.60314,1.44005-2.82688,1.56449a49.35082,49.35082,0,0,1,11.12924,3.34909,67.20765,67.20765,0,0,0-6.38315-5.29205c-.176-.12838-.34971-.2438-.5252-.36964C441.39237,294.947,440.92914,295.1938,440.4593,295.45183Z"/></g></g></svg>