<svg xmlns="http://www.w3.org/2000/svg" viewBox="0 0 311.14995 824.24217"><defs><style>.cls-1{fill:#24373e;}</style></defs><g id="Слой_2" data-name="Слой 2"><g id="Слой_1-2" data-name="Слой 1"><path class="cls-1" d="M278.93358,19.66888l-.13083-.33472-.33333.13361c-1.17468.46973-2.37023.9325-3.64477,1.42311a145.9802,145.9802,0,0,1-27.11918,8.07034c-4.22271.74531-8.68334,1.32221-13.63744,1.76271l-1.28672.11482V75.67969l.29437.05219c15.97357,2.82465,34.32825,13.78645,45.67349,27.27854l.36882.43841.23035-.52471C291.87069,74.38949,287.34491,41.20765,278.93358,19.66888ZM277.84,97.73342c-11.2753-11.7941-27.34117-21.12123-41.92851-24.34185l-.27941-.06124V33.4435l.32186-.03131c4.4126-.43007,8.41854-.9673,12.24738-1.64441a148.50209,148.50209,0,0,0,27.65049-8.21648l1.30829-.50592.12318.34378c3.32465,9.2638,13.23251,41.994,1.14788,74.22317l-.199.531Z"/><path class="cls-1" d="M266.39984,67.2621l15.85448,10.63681q.19416-1.41572.34517-2.81839L264.19471,60.015l18.63477,12.68623a109.48512,109.48512,0,0,0,.08108-16.76872L269.89864,44.86773l12.79375,8.37862q-.11482-1.2367-.25139-2.44156l-.02105.02818-7.28363-6.78467,6.98074,4.135a123.99653,123.99653,0,0,0-5.59625-23.74511l-.28462.10995a149.50758,149.50758,0,0,1-27.84848,8.27145c-3.66947.64927-7.49865,1.1705-11.68692,1.59222V72.47333C250.99351,75.7705,266.59869,84.774,277.81936,96.177a89.19418,89.19418,0,0,0,4.09745-16.021Z"/><path class="cls-1" d="M156.04925,31.99151c-19.85677-1.25331-69.02341-4.90678-96.636-11.75512l-.22547-.05567-.14231.183C46.58855,36.44457,38.139,57.58736,34.61039,81.51028l-.34934,2.49688a169.06463,169.06463,0,0,0-1.11413,32.13521c1.7307,28.95009,11.71824,71.67549,49.46831,110.81353l.45581.47321,3.51812-15.24575-.09081-.12943c-1.4085-2.01672-2.80691-4.16078-4.15626-6.37444C70.365,186.08716,57.99433,156.48015,67.07894,126.6922c5.90331-19.33833,22.259-34.2243,48.6134-44.24385,15.55264-5.91723,29.73019-7.007,40.34439-7.29511l.34655-.00974V32.01239Zm-2.16007,40.73374-.68407.02714a119.79362,119.79362,0,0,0-38.39969,7.3647C87.6932,90.42474,70.83332,105.85,64.69375,125.96429,55.33843,156.63951,67.97,186.95216,80.214,206.98013c1.14267,1.87475,2.32674,3.71123,3.52055,5.46072l.17607.25748L81.68412,222.347l-.91546-1.00349C46.42223,183.7051,37.268,143.279,35.6365,115.99345a166.61008,166.61008,0,0,1,1.09708-31.6613l.34691-2.476C40.43193,59.13365,48.322,38.90944,59.898,23.36445l.27941-.37509.45546.10717C87.97435,29.5322,134.4924,33.082,153.22321,34.30885l.666.04385Z"/><path class="cls-1" d="M78.83963,46.25048q-.14091.15762-.278.32011a22.81163,22.81163,0,0,1,3.96,1.07168c.53793.20181,1.07656.42937,1.612.68129a11.91042,11.91042,0,0,0-2.8156-4.31388A15.06623,15.06623,0,0,0,78.83963,46.25048Z"/><path class="cls-1" d="M76.45444,46.29641a15.8859,15.8859,0,0,1,1.01671-1.25958,17.19667,17.19667,0,0,1,3.35249-2.91373c.088-.05706.118-.07585.14892-.09255a17.2594,17.2594,0,0,1,3.94331-1.89911,18.0904,18.0904,0,0,1,6.26831-.904,18.43165,18.43165,0,0,0-6.48682-.01253,18.73583,18.73583,0,0,0-4.6486,1.46626A19.39589,19.39589,0,0,0,73.03758,46.27q.76408-.05115,1.53167-.05149Q75.51185,46.21847,76.45444,46.29641Z"/><path class="cls-1" d="M77.9628,64.36055a13.63867,13.63867,0,0,0,6.04666-6.82747A14.11718,14.11718,0,0,0,80,56.01672a13.65275,13.65275,0,0,0-4.89251-.10369c-.0007.28254.00835.56159.02644.83508a13.56947,13.56947,0,0,0,.67154,3.56439A13.36322,13.36322,0,0,0,77.9628,64.36055Z"/><path class="cls-1" d="M63.2776,64.05157a14.34648,14.34648,0,0,1,.94189-2.341l.24079-.4579a2.90619,2.90619,0,0,1,.239-.40362c.10577-.16632.246-.3897.41754-.666l.04523-.06611.51392-.68546a3.61947,3.61947,0,0,1,.29123-.35422l.318-.35769c.33055-.36256.66493-.69868,1.0007-1.00488a14.93639,14.93639,0,0,1,1.82465-1.42659,15.24623,15.24623,0,0,1,3.43948-1.634,13.60077,13.60077,0,0,1,1.47182-.40014,15.47213,15.47213,0,0,1,6.34869-.02853,15.70632,15.70632,0,0,1,4.20323,1.53028,12.68846,12.68846,0,0,0,.35317-3.17539,13.31422,13.31422,0,0,0-.13744-1.72791l-.02332-.14614a20.46369,20.46369,0,0,0-2.8838-1.35,21.07944,21.07944,0,0,0-5.08285-1.19138,20.86776,20.86776,0,0,0-5.53274.14406l-.10925-.39319-.03167.00487.06716.39875A22.04033,22.04033,0,0,0,65.83676,49.906a22.58184,22.58184,0,0,0-4.80587,2.95757l-.56055.46556a6.1811,6.1811,0,0,0-.48817.43076c-.36848.35282-.72652.6952-1.07656,1.04176l-.96138,1.08282c-.142.15588-.26062.31315-.38657.47878l-.492.65066-.055.07655a15.99316,15.99316,0,0,0,2.55777,3.90608A15.61814,15.61814,0,0,0,63.2776,64.05157Z"/><path class="cls-1" d="M91.34076,68.83448A15.02334,15.02334,0,0,0,90.64,65.60829c-.04837-.14474-.09952-.29019-.1538-.43493a22.68945,22.68945,0,0,1-4.01011,3.737q-.19521.142-.39667.28115a12.40792,12.40792,0,0,0,2.5202.1183A11.82457,11.82457,0,0,0,91.34076,68.83448Z"/><path class="cls-1" d="M85.49242,41.8684a15.2518,15.2518,0,0,0-2.59187,1.13988,13.8073,13.8073,0,0,1,3.28951,5.705c.12492.45164.221.85317.29576,1.23522.03758.17606.07376.38.11447.6451a15.04736,15.04736,0,0,1,.15589,1.96591A14.6473,14.6473,0,0,1,86.2854,56.46c-.08038.3055-.17154.61378-.27314.92763a15.44486,15.44486,0,0,1-6.80311,8.36679q.18581.17955.37649.35213a12.88587,12.88587,0,0,0,4.07379,2.45513,20.05229,20.05229,0,0,0,1.74218-1.13153,20.97776,20.97776,0,0,0,4.54283-4.51569,21.33058,21.33058,0,0,0,2.41929-4.20532c.079-.1858.15971-.38413.25922-.63744a21.37865,21.37865,0,0,0,1.27976-4.92,22.32658,22.32658,0,0,0,.20807-2.92416,23.87207,23.87207,0,0,0-.1858-2.94365,21.99424,21.99424,0,0,0-1.75367-6.1594A16.28058,16.28058,0,0,0,85.49242,41.8684Z"/><path class="cls-1" d="M66.63148,61.20673c-.14231.23382-.28741.46486-.42206.67363a1.2465,1.2465,0,0,0-.11622.19833l-.25017.47461a12.5051,12.5051,0,0,0-.9092,2.35213,14.98055,14.98055,0,0,0,1.53794.58108,14.2396,14.2396,0,0,0,1.7394.437,21.79055,21.79055,0,0,1-.91824-3.60893c-.09534-.5588-.16841-1.12666-.21955-1.69869Z"/><path class="cls-1" d="M38.49107,82.05864l-.34516,2.46557a165.16926,165.16926,0,0,0-1.087,31.38365c1.60335,26.81228,10.53661,66.42423,43.84876,103.46623l1.47426-6.38835c-1.14788-1.691-2.28568-3.46071-3.38416-5.26309C66.6019,187.44625,53.821,156.73,63.33048,125.54814,69.6054,104.9906,86.75391,89.257,114.299,78.78514a120.56373,120.56373,0,0,1,38.16518-7.428V35.68743c-23.32062-1.54072-65.45868-4.99447-91.70085-11.0968C49.479,39.89692,41.78093,59.75648,38.49107,82.05864ZM55.78694,53.27627a15.48662,15.48662,0,0,0,.44712,1.80655c.11134-.14335.22686-.286.35073-.42241l.99757-1.12109c.39179-.3904.75957-.74183,1.11587-1.08212a7.63551,7.63551,0,0,1,.60787-.53932l.5682-.47113A24.44606,24.44606,0,0,1,65.089,48.23588a23.88638,23.88638,0,0,1,5.4802-1.666c.11831-.18163.24461-.36813.382-.56507a21.45215,21.45215,0,0,1,3.74881-4.06474,21.03292,21.03292,0,0,1,4.57379-2.91651,20.60884,20.60884,0,0,1,5.10894-1.611,20.09034,20.09034,0,0,1,10.29409.8664,19.52335,19.52335,0,0,1,11.37046,10.40368c.39614.89528,1.58543,3.7596,1.58543,5.20428-.646-1.3918-3.1225-5.24673-3.1225-5.24673a19.99122,19.99122,0,0,0-2.937-3.41964,16.84949,16.84949,0,0,0-7.276-3.7502,23.69265,23.69265,0,0,1,1.44295,5.58528,25.72939,25.72939,0,0,1,.20007,3.18374,24.03147,24.03147,0,0,1-.22617,3.16564,22.92463,22.92463,0,0,1-1.22861,4.90957c.09952.19415.198.39179.29333.5929A21.30136,21.30136,0,0,1,96.43822,64.165a20.6953,20.6953,0,0,1,.22234,5.66253,20.97488,20.97488,0,0,1-1.094,4.93392,19.63093,19.63093,0,0,1-2.381,4.65765,19.02932,19.02932,0,0,1-1.35665,1.76619l-.23243.27558-.881.90884a5.8356,5.8356,0,0,1-.51009.48017l-.6371.55811c-.10543.09256-.199.17467-.2961.254l-.51949.38832c-.10856.07794-.20146.14822-.29437.2192a7.62908,7.62908,0,0,1-.78079.53863l-.38484.24078c-.20389.12805-.4151.26027-.62561.38622l-1.11448.579a18.47365,18.47365,0,0,1-7.98874,2.02646,45.74242,45.74242,0,0,1-8.74589-.959A34.63516,34.63516,0,0,0,79.5585,86.1888a17.19677,17.19677,0,0,0,4.40817-2.14128q.156-.1002.31071-.2032l.89911-.65067c.14439-.12039.32359-.27418.49722-.4231l.326-.27836a5.43813,5.43813,0,0,0,.50836-.47739c.08942-.09186.17745-.18093.26722-.26792l.35978-.36256a24.35514,24.35514,0,0,1-5.12251-1.316,23.51526,23.51526,0,0,1-9.7645-6.975,21.36142,21.36142,0,0,1-8.01154-2.06264,21.09706,21.09706,0,0,1-3.02089-1.785,20.47577,20.47577,0,0,1-7.45691-9.76764,19.42481,19.42481,0,0,1-1.15762-5.8372,19.72476,19.72476,0,0,1,2.197-10.16012c1.567-2.975,3.88851-5.09885,6.42575-7.28363-.24547.255-3.85284,5.66166-4.70131,8.15A17.48636,17.48636,0,0,0,55.78694,53.27627Z"/><path class="cls-1" d="M91.774,63.50042a15.73194,15.73194,0,0,1,.60022,1.52541,16.98457,16.98457,0,0,1,.85456,4.41756,17.93041,17.93041,0,0,1-.29193,4.43844,16.95464,16.95464,0,0,1-1.47078,4.364,14.68235,14.68235,0,0,1-.82325,1.50454,14.92194,14.92194,0,0,0,1.01914-1.34448A17.879,17.879,0,0,0,93.838,74.16228a19.17164,19.17164,0,0,0,1.00209-4.51221,18.8702,18.8702,0,0,0-.20355-5.16705l-.00069-.00417a19.05615,19.05615,0,0,0-1.12527-3.897A23.07751,23.07751,0,0,1,91.774,63.50042Z"/><path class="cls-1" d="M54.8266,56.6138a17.96876,17.96876,0,0,0,.65275,2.24219,18.64511,18.64511,0,0,0,6.79476,8.89776,19.09881,19.09881,0,0,0,8.50527,3.35632,22.85466,22.85466,0,0,1-1.78393-3.21923,16.2353,16.2353,0,0,1-3.07692-.66041,17.09734,17.09734,0,0,1-2.46418-.99583,17.48226,17.48226,0,0,1-5.25473-4.02508,17.836,17.836,0,0,1-3.07726-4.86015Q54.96577,56.98193,54.8266,56.6138Z"/><path class="cls-1" d="M91.4267,70.70923a13.6183,13.6183,0,0,1-2.72966.428A14.43086,14.43086,0,0,1,85.0634,70.87a13.85419,13.85419,0,0,1-1.61274-.4398,14.70211,14.70211,0,0,1-5.08633-2.96245A15.00814,15.00814,0,0,1,77.03586,66.117a15.2088,15.2088,0,0,1-2.96731-5.22967,15.3719,15.3719,0,0,1-.76062-4.02717q-.01722-.25575-.02435-.52123c-.05254.0167-.104.0334-.15519.0508a13.40311,13.40311,0,0,0-3.01881,1.43147,12.87678,12.87678,0,0,0-1.29159.98121,20.03667,20.03667,0,0,0,.27906,3.20949,20.29664,20.29664,0,0,0,1.31351,4.55257l.04558.10229a21.09348,21.09348,0,0,0,2.96105,4.96246l.17467.21851a21.682,21.682,0,0,0,9.06686,6.50944,22.46007,22.46007,0,0,0,5.61521,1.32429c.06855.00766.13814.01462.21086.02158l.45025-.66528a16.33508,16.33508,0,0,0,2.20321-5.49A16.02609,16.02609,0,0,0,91.4267,70.70923Z"/><path class="cls-1" d="M185.11954,181.73744c-.01948-4.928-.12474-9.8621-.27818-14.80663-.18424-4.94315-.50662-9.8929-1.01706-14.83639a129.79623,129.79623,0,0,0-2.45374-14.728c-1.11587-4.87878-2.71122-9.59714-4.13312-14.26541a64.86225,64.86225,0,0,1-1.76393-7.055,60.1103,60.1103,0,0,1-.834-7.24326c-.16841-2.43808-.21-4.90661-.3302-7.3727q-.15606-3.69758-.37544-7.39479-.23592,3.69652-.41476,7.39218c-.115,2.46261-.24287,4.924-.27853,7.41358a60.06572,60.06572,0,0,0,.3857,7.4837,59.45827,59.45827,0,0,0,1.46626,7.36539c1.19451,4.83337,2.71435,9.48771,3.64338,14.2614a135.68069,135.68069,0,0,1,2.2568,14.4526c.55654,4.85738.88466,9.749,1.16023,14.65233.3062,4.903.46974,9.82383.75192,14.74887.23817,4.92958.59378,9.85585.97252,14.77324.41354,4.91879.86466,9.84157,1.58769,14.72818-.0969-4.93758-.17206-9.86089-.19711-14.78994Z"/><path class="cls-1" d="M179.10073,79.45424a6.12391,6.12391,0,1,0,6.12391,6.12391A6.13086,6.13086,0,0,0,179.10073,79.45424Zm0,9.39742a3.27351,3.27351,0,1,1,3.2735-3.27351A3.277,3.277,0,0,1,179.10073,88.85166Z"/><path class="cls-1" d="M210.06613,79.45424a6.12391,6.12391,0,1,0,6.12357,6.12391A6.13085,6.13085,0,0,0,210.06613,79.45424Zm0,9.39742a3.27351,3.27351,0,1,1,3.27316-3.27351A3.277,3.277,0,0,1,210.06613,88.85166Z"/><path class="cls-1" d="M196.01211,145.97312a9.031,9.031,0,1,0,9.031,9.03137A9.04168,9.04168,0,0,0,196.01211,145.97312Zm0,15.21165a6.18063,6.18063,0,1,1,6.18062-6.18028A6.18765,6.18765,0,0,1,196.01211,161.18477Z"/><path class="cls-1" d="M196.01211,191.97968a6.80346,6.80346,0,1,0-6.80345-6.8038A6.81126,6.81126,0,0,0,196.01211,191.97968Zm0-10.7565a3.953,3.953,0,1,1-3.95305,3.9527A3.95745,3.95745,0,0,1,196.01211,181.22318Z"/><path class="cls-1" d="M196.01211,220.24918a8.28746,8.28746,0,1,0,8.28746,8.28746A8.29675,8.29675,0,0,0,196.01211,220.24918Zm0,13.72451a5.43706,5.43706,0,1,1,5.43706-5.437A5.44331,5.44331,0,0,1,196.01211,233.97369Z"/><path class="cls-1" d="M310.882,55.62249A140.37912,140.37912,0,0,0,308.72784,38.392a130.997,130.997,0,0,0-4.41165-17.08988c-.45408-1.36257-.93564-2.72653-1.43147-4.055l-.183-.49827a17.55534,17.55534,0,0,0-.68128-1.70077l-.286-.57134-.61691-.16632a7.48322,7.48322,0,0,0-1.29437-.18163,5.28929,5.28929,0,0,0,.88762-1.5101l.16979-.51079-.20946-.49478c-.08734-.20668-.21573-.45929-.35387-.72513-.1016-.19624-.20946-.40292-.29958-.60265-.19624-.43424-.40745-.86152-.619-1.2895-.28706-.58038-.55776-1.12874-.7888-1.68894-.3403-.82464-.98714-1.99723-2.16146-4.12529L294.75558.10647l-1.342,1.33334c-3.43635,3.41617-13.736,8.68134-15.76176,9.5206-1.85735.77036-3.71436,1.49131-5.77526,2.286-7.38766,2.84971-16.20609,5.98682-25.59516,7.64654-3.91547.69242-8.15211,1.23939-12.95242,1.67224-1.88.17-3.82431.31925-5.89217.45408V18.742L212.27,5.59642H176.90234L161.72792,18.742v5.39356C139.81824,23.10106,64.23563,17.01977,48.51945,7.84069c-3.13537-1.81769-5.06857-3.7829-5.74638-5.84L42.11405,0,40.502,1.35631C21.028,17.74264,7.27632,46.59529,2.7735,80.51688L2.62458,81.638l1.05707.39945c.16319.06193,2.66877,1.00766,5.45515,1.92346-1.00383.24844-2.14093.51149-3.48088.8142L0,86.05275l5.60338,1.48992q.36692.09813.7199.19625l-3.324,1.09743,3.81422,1.41407c2.412.89423,3.74777,1.51706,5.14444,2.1712-4.51917.5769-9.19944,1.21852-9.26555,1.22757l-1.1698.16075-.05985,1.17885A189.00948,189.00948,0,0,0,52.79192,233.95351l.57447.61379.8149-.20529c.17954-.04524,3.18373-.80794,6.30554-1.89633-.51253,1.18651-.92485,2.3758-1.25889,3.34032l-.87857,2.52054,2.2488-.25122a2.28712,2.28712,0,0,1,.61691.05776l-.01774.13153a29.66018,29.66018,0,0,0-.30028,3.21992l-.02679.67363.50383.44816c.1176.10508,11.847,10.52756,18.74716,15.83866l1.70008,1.309.54733-2.07517a84.3748,84.3748,0,0,1,5.02578-14.28471c.30724-.66528.626-1.33126.95651-1.984a4.84617,4.84617,0,0,1,.2801-.47391,3.82631,3.82631,0,0,0,.68337-1.80933,21.54245,21.54245,0,0,0-.06158-3.32223l1.492,1.62841.59012-2.67713a18.65377,18.65377,0,0,0,.32708-2.762l.46138,3.09258,2.0435-3.47463c.65519-1.11413,5.74708-6.19558,9.30139-9.41968l1.0776-.97774-.99931-1.05707c-1.78986-1.89354-3.54213-3.89842-5.20811-5.95968a119.0504,119.0504,0,0,1-9.006-12.78783c-11.09785-18.16366-22.607-45.45541-14.41137-72.32476C80.04054,112.29788,94.73827,99.183,118.60551,90.105c15.27532-5.80832,29.72966-6.78362,43.12241-6.85008v.38449l5.10859,5.10807c-.03862.21521-.07916.42989-.11378.64631l-.01809.22478c-.0094,21.72248-.12143,28.33561-.1952,32.71211-.09847,5.824-.13953,8.23457.1865,36.76016.18789,16.41695.477,31.44071.75714,45.96968.89179,46.29258,1.66215,86.272-1.63223,140.26675-1.23174,20.18942-4.1406,35.70518-6.95377,50.70945-3.412,18.19914-6.6347,35.38924-6.86121,59.57937-.00731.79333-.01079,1.58735-.01479,2.38119a5.62749,5.62749,0,0,0-2.079,1.92608,4.72649,4.72649,0,0,0-.4927,1.09256c-.94155,3.01115-.59743,6.07032-.26444,9.02929.05776.51218.11483,1.02158.16458,1.52541.0508.52053.0689,1.19207.08838,1.904.08525,3.17434.218,7.88,3.71558,9.36157a3.9594,3.9594,0,0,0-1.27993.8751c-2.42869,2.56438-2.0623,8.43568-1.38067,15.27637.17085,1.71539.31838,3.19626.31664,4.14268a6.239,6.239,0,0,0,.6618,3.27421,5.0385,5.0385,0,0,0,2.62493,2.088,4.2302,4.2302,0,0,0-1.213.72339c-2.571,2.18512-1.98714,5.8532-1.5609,8.53172l.072.47738.047.64649c.03619.45164.07238.8998.096,1.33822.047.89.06785,1.82047.08942,2.769a35.463,35.463,0,0,0,.86848,8.49483l.00557.42868.08838.0842.00348.00348.007.00661a8.80329,8.80329,0,0,0,2.13571,4.58632,5.90559,5.90559,0,0,0-.88657,1.58526,15.47056,15.47056,0,0,0-.47913,6.71681c.03688.469.07342.93251.09847,1.38623.047.89006.06785,1.81978.08942,2.76759a34.52609,34.52609,0,0,0,.94155,8.74815,4.57859,4.57859,0,0,0,2.74637,2.76793,5.259,5.259,0,0,0-1.12457,1.27385,4.76991,4.76991,0,0,0-.49305,1.09256c-.9412,3.01046-.59743,6.06893-.26479,9.0265.05776.51357.11517,1.02367.16493,1.52889.0508.51984.06889,1.19208.08838,1.90328.07481,2.77525.18841,6.71717,2.55012,8.65664a5.70415,5.70415,0,0,0-1.111.90084l-.0007.00069a3.13225,3.13225,0,0,0-.76618,1.325c-1.08387,3.60266-.5863,7.14131-.10508,10.56374l.16249,1.1705c.10334.76618.13431,1.69382.167,2.67573.11344,3.38137.254,7.59017,3.59328,9.51363.61065.35178,1.24861.67746,1.89754.98818a6.00506,6.00506,0,0,0-2.95287,1.67016l-.0007.00069a3.12875,3.12875,0,0,0-.76618,1.325c-1.08387,3.60128-.58665,7.13923-.10578,10.561l.16284,1.17329c.10334.76688.13431,1.69451.16736,2.67643.09447,2.81752.21521,6.2048,2.18286,8.37027a381.29637,381.29637,0,0,1-4.85911,59.14791c-2.23314,1.44886-2.41477,5.45724-2.64668,7.7544a109.69858,109.69858,0,0,1-2.97235,17.04483c-1.25088,4.86537-.50818,9.50876,2.826,13.39674,1.3323,1.55325,3.01968,2.22827,4.79074,3.143,12.04671,6.22325,19.17776,16.01472,21.80582,29.30569,1.27454,6.44541-.48922,11.76591-6.35565,14.81638a4.00365,4.00365,0,0,1-3.26933.32916c-3.12528-1.19938-3.79613-5.44193-3.58423-8.387.21191-2.9447,1.54873-5.18219,2.90521-7.5338,1.13066-1.95983,2.50923-3.38033,3.2695-5.47725a6.662,6.662,0,0,0-.4572-6.26448c-1.32569-1.85509-3.829-2.60858-5.54214-.88779-.38935.39127.86605,1.84483,1.05811,2.19017a3.47694,3.47694,0,0,1,.55116,2.65207c-.29872,1.571-1.33265,2.16389-2.32918,3.40068-1.643,2.03881-2.08073,4.27995-2.80308,6.99013a23.25039,23.25039,0,0,1-1.18581,3.51446,6.92345,6.92345,0,0,1-1.035-2.25349,5.21258,5.21258,0,0,1-.14318-1.20947,11.77194,11.77194,0,0,1,.03114-1.2782c.04366-.43093.07324-.83508.15014-1.28236.02835-.16563.05845-.43407.08942-.62214s.08925-.452.12387-.62091c.36952-1.79873.83055-3.37476,1.239-5.19384a22.92866,22.92866,0,0,0,.58594-5.70046,10.77906,10.77906,0,0,0-.18406-1.53846c-.03549-.19328-.095-.52662-.1484-.76218-.05341-.23574-.151-.51931-.22878-.7601-.07776-.24095-.15919-.527-.25644-.75278-.09725-.226-.24252-.53811-.32864-.72426a11.06659,11.06659,0,0,0-.7674-1.40659,25.06625,25.06625,0,0,0-4.04526-4.49428,35.50523,35.50523,0,0,1-4.08771-3.90365,11.73312,11.73312,0,0,1-2.19591-5.02909,9.58073,9.58073,0,0,0,1.01915,5.73108,28.697,28.697,0,0,0,3.774,4.68879,24.81963,24.81963,0,0,1,3.28691,4.25072,10.05949,10.05949,0,0,1,1.33908,4.66531c.12926,3.53029-.89336,6.99448-1.25105,10.5253-.04454.43963-.0522.95738-.05933,1.43042-.00713.47286.00713.97338.0475,1.46051a13.77237,13.77237,0,0,0,.21607,1.45826,6.21571,6.21571,0,0,0,.45042,1.47809,9.14486,9.14486,0,0,0,1.78585,2.41929,2.02054,2.02054,0,0,1,.1785.17989c-.44137.6785-1.1618,1.39319-1.9894,1.0515-1.48766-.61308-1.86849-2.3069-2.01532-3.62511a31.11678,31.11678,0,0,0-.3102-3.46c-.26548-1.19329-.8824-2.62614-1.2006-3.6813-.95686-3.17278.10908-5.11155.5014-8.15767.30828-2.39355-.02836-4.44889-2.5583-5.52388-2.22079-.94346-4.6199-1.40362-6.729.234-1.61727,3.9374.53653,7.39253.91823,11.388.10074,1.05307-.12369,3.16651-1.35213,3.50263-.54071.14805-1.32551-.51514-1.8276-.39318-.93546.22738-1.201,1.0087-1.37214,1.83369a45.24082,45.24082,0,0,0-1.28393,12.7847c.26513,4.8031,2.20878,9.68622,3.05117,14.74123,1.77976,10.68274.11865,20.71412-4.17035,30.70514,7.4917-4.26377,11.28034-10.769,11.03991-19.39122,3.13572,3.76481,10.05487,6.39809,14.98409,6.51152,11.85429.2728,19.66715-3.68269,28.52037-11.5199,9.63855-8.53311,13.661-18.92636,17.15738-30.87373a130.97522,130.97522,0,0,0,2.738-12.83759c1.49618-7.90872,2.1592-15.08761,3.51237-23.29712.47809-2.90068.68251-3.726,1.60718-8.48666.44138-2.27281,2.86032-13.02723,1.90468-17.28265-.02906-.12979-.06559-.24844-.09882-.372l.02627.00279c1.90607-18.22281,2.19278-37.59106.90258-60.95308l-.30985.01705c1.04646-1.67782,1.348-3.99324.87231-6.9235-.25157-1.55046-.35317-3.2408-.46034-5.03065-.21155-3.52612-.43041-7.17263-1.86013-10.19074a7.65889,7.65889,0,0,0-3.23611-3.47637,5.84738,5.84738,0,0,0,1.97061-1.33577c1.62736-1.70078,2.16251-4.34937,1.59048-7.8741-.25157-1.55116-.35317-3.2415-.46034-5.03065-.20616-3.43635-.428-6.9823-1.76166-9.95448-.322-2.04873-.46713-4.00386-.59326-5.73178-.27784-3.81213-.53027-7.18967-2.68234-9.27389,1.26706-1.5609,2.08126-3.92417,1.98088-7.46108-.02645-.93529.01322-2.007.05532-3.14059.14614-3.94783.31176-8.42177-2.0028-11.47259a7.69841,7.69841,0,0,0-2.119-1.87544c2.70653-2.10092,2.06073-6.90715,1.53446-10.78574a26.25218,26.25218,0,0,1-.32812-3.30691l.00487-.35491a22.94073,22.94073,0,0,0-.62839-7.02371l.38309-.389-.5776-.5776q.00627-.37161.01079-.77245c.00522-.41823.01079-.86082.02088-1.3396.15727-9.53521.07411-15.43573-2.40573-16.97576a2.591,2.591,0,0,0-.93059-.34273c1.24775-1.674,1.3417-3.68408,1.38571-7.29406.00557-.44955.01148-.929.02018-1.44121.15728-9.5352.07412-15.43573-2.40572-16.97575a2.60748,2.60748,0,0,0-.40536-.20112c2.09657-2.23244,2.4433-4.8598,2.52681-9.66673.02262-1.32638.0755-2.75436.12944-4.21088.18163-4.90852.36708-9.97849-.48226-13.05993a12.56008,12.56008,0,0,0-.98731-3.7422,245.52264,245.52264,0,0,1,5.118-39.51243c7.31633-33.43237,7.11139-61.02685,6.89427-90.24137-.08629-11.65422-.17572-23.7051.23452-36.312,1.24392-38.21876-.17363-120.68068-.70739-151.724-.05915-3.43495-.10577-6.14548-.134-7.97569-.11134-7.1441-.08629-13.69112-.06228-20.0224q.00653-1.76072.01218-3.5463c.00035-.0381.00278-.076.00313-.11413h-.00261l.00018-.00209h-.00035c.01844-6.16288.013-12.55575-.14092-19.48934l-.0174-.19416c-.03514-.219-.07637-.43615-.11552-.654l5.10094-5.10041v-.34064c19.98917,1.127,50.38481,22.05807,53.56333,41.43207l.19,1.15728,1.17294.03619c.05045.00139,5.12738.15518,10.69318.15518h.75644l.42415-.62631A88.94284,88.94284,0,0,0,302.575,109.9026a107.46779,107.46779,0,0,0,6.09433-20.11913l.14649-.72722-.51149-.53723c-.5261-.55254-1.45095-1.563-2.35666-2.55186-.33786-.36952-.67015-.73209-.97878-1.06821a26.98823,26.98823,0,0,0,4.46384-2.36118l.51879-.35978.08177-.62631c.17954-1.36883.33891-2.76132.47426-4.1399l.04975-.48713a14.65,14.65,0,0,0,.12527-1.6959l-.02888-.70565-.57934-.40431c-.191-.13362-.83369-.53445-1.56647-.9854.10056-.048.199-.096.29506-.142.62144-.29993,1.13675-.54837,1.341-.6444l.715-.33751.09186-.78567c.0414-.35352.11134-2.09257.127-2.57135.04662-1.43772.071-2.89981.072-4.34519C311.152,61.42768,311.06188,58.5056,310.882,55.62249ZM84.80918,242.19435a83.88429,83.88429,0,0,0-4.62772,12.67579c-5.99587-4.77456-14.2795-12.0641-16.40234-13.94094.05707-.92206.1444-1.5609.24252-2.27907.07272-.53305.14927-1.09534.22165-1.817l.23312-2.33265-2.05255.81629a15.60976,15.60976,0,0,1,2.46105-4.77108l4.94992-5.43288-6.62182,3.1893a60.0283,60.0283,0,0,1-8.919,3.08144A185.38851,185.38851,0,0,1,4.25368,96.31309c2.6733-.36187,9.28573-1.24845,13.23043-1.69382l5.68619-.64162-5.32293-2.10022c-2.10718-.8316-3.38625-1.43077-4.62321-2.01045-.59708-.27976-1.18059-.55255-1.83369-.842l3.77978-.98679-3.85111-1.634c-.03027-.01322-.06054-.02574-.09116-.03827,1.26479-.3403,2.34866-.67711,3.43565-1.07516l4.45062-1.6291-4.611-1.096c-2.72584-.64719-6.8299-2.10023-8.75093-2.801,4.44644-31.90626,17.196-59.06719,35.17455-75.00884a16.77565,16.77565,0,0,0,6.15871,5.5484,36.77253,36.77253,0,0,0,7.15366,2.94835C33.51727,38.63125,22.59131,77.072,24.96432,116.63194a178.26234,178.26234,0,0,0,16.22836,64.40821,191.01247,191.01247,0,0,0,44.14887,60.04946C85.16357,241.45843,84.97916,241.82552,84.80918,242.19435ZM161.72792,80.40449c-13.66606.067-28.43408,1.066-44.13564,7.03658-24.73364,9.40716-40.00757,23.13864-45.39765,40.81238C63.6904,156.13533,75.49771,184.23433,86.9,202.89555a121.83643,121.83643,0,0,0,9.22205,13.094c1.40537,1.73905,2.87128,3.43983,4.3692,5.07032-1.97774,1.84413-5.18966,4.93671-7.17645,7.12044-.21295-.29506-.4426-.57273-.67607-.856-.19033-.23034-.39562-.47808-.61343-.762L90.43657,224.49l-.88344,2.45721a16.428,16.428,0,0,0-.715,4.53935c-.01357.21712-.02714.43146-.04175.64162-.16389-.07028-.3323-.14614-.50383-.23869l-2.2909-1.23244.26131,3.43217c.09307,1.14719.2533,3.1232.24443,4.2001-44.94062-41.98757-56.7488-89.337-58.6975-121.82787C25.44937,77.11463,36.434,38.95015,57.20845,14.13353,83.725,21.50014,142.31774,26.09064,161.72792,26.98922ZM150.28456,775.43183a8.9552,8.9552,0,0,1-.95373,2.23731,7.3597,7.3597,0,0,0-.52506,2.405,1.48335,1.48335,0,0,1-.16788-.78811,8.11859,8.11859,0,0,0-.75731-3.01846,5.14913,5.14913,0,0,1-.342-2.24636,7.8056,7.8056,0,0,1,.5174-2.06786.55816.55816,0,0,1,.20982-.34934c.619-.35387,1.142.45755,1.36953.86535A4.7316,4.7316,0,0,1,150.28456,775.43183ZM222.18882,17.96532h-23.1903l12.65857-9.1281Zm-14.8637-9.5185-12.73964,9.18656L181.84635,8.44682ZM177.51438,8.837l12.65805,9.12828H166.97691ZM154.85627,455.64251c.22408-23.93822,3.42417-41.00862,6.8125-59.08042,2.82917-15.09056,5.75438-30.6947,6.99691-51.06087,3.30169-54.10961,2.53029-94.14189,1.6371-140.4957-.27975-14.52341-.56889-29.5416-.75644-45.94672-.27418-23.97371-.2888-29.46992-.22825-34.06425.30376,1.06525.61552,2.123.92589,3.174.65519,2.21922,1.32743,4.5129,1.91111,6.82276.0301,4.93167.10317,12.24556.24061,24.03513.18511,16.39677.47739,31.40417.755,45.92688.89806,46.41193,1.66772,86.4957-1.63884,140.72431-1.254,20.54432-4.19732,36.23579-7.04041,51.41439-3.36363,17.94305-6.5418,34.88888-6.76274,58.57554-.00279.29436-.003.58908-.00348.88379a24.05134,24.05134,0,0,0-2.85736.41667C154.851,456.52612,154.85209,456.0844,154.85627,455.64251ZM194.58339,55.429c-4.73925,0-8.76119,4.14739-10.13385,9.85689-5.10077,1.79211-9.686,5.87286-12.97451,11.22432a54.76217,54.76217,0,0,1-.56438-7.85078c0-19.98969,10.62081-36.25215,23.67517-36.25215,13.05089,0,23.66857,16.26246,23.66857,36.25215a54.6642,54.6642,0,0,1-.56316,7.85444c-3.2876-5.33755-7.87009-9.41221-12.97-11.21424C203.35171,59.583,199.32629,55.429,194.58339,55.429ZM202.37363,69.592c0,6.238-3.49481,11.31253-7.79024,11.31253S186.7935,75.83,186.7935,69.592s3.49445-11.31254,7.78989-11.31254S202.37363,63.35393,202.37363,69.592ZM183.98207,68.5643c-.01845.34081-.039.68076-.039,1.02767,0,7.80937,4.77317,14.16293,10.64029,14.16293S205.224,77.40134,205.224,69.592c0-.342-.0207-.67729-.03862-1.01341,6.10216,2.85023,12.6403,10.14934,14.43572,21.17081.15118,6.86087.15623,13.2.13814,19.31432-.05724,5.98108-1.88137,11.94267-3.64582,17.70819-.1444.47147-.28967.94834-.43459,1.4252l-.13117.43007c-.59221,1.95652-1.175,3.9494-1.67086,5.9381-3.51255,14.08708-3.25193,28.72392-3,42.87989.04941,2.77177.09882,5.53936.12039,8.29859q.011,1.41546.00905,2.83092c-.01218,7.40506-.09047,16.00289-.866,24.3328-.69208,7.42593-1.79229,14.7795-2.67365,20.35643-.86987,5.50456-2.31873,12.6076-5.8285,18.72942a5.624,5.624,0,0,1-4.28917,2.63676,6.85476,6.85476,0,0,1-5.85355-2.18443c-3.32918-3.57-4.93914-9.69248-6.23282-14.61178l-.04245-.16145a139.28646,139.28646,0,0,1-3.04525-16.38424c-1.39145-10.17056-1.82013-20.6341-2.23488-30.75316l-.03271-.80237c-.13953-3.39669-.24322-6.87061-.34343-10.22972-.44363-14.85674-.90223-30.2187-4.5724-44.93766-.4579-1.83595-.97217-3.63259-1.4894-5.403l.005-.00139-.53515-1.82047c-1.7554-5.95063-3.413-11.57071-3.4694-17.71758h-.001v-.00209h-.00018c.02871-4.69958.04959-11.03556.05376-19.8867C171.35742,78.69606,177.89278,71.399,183.98207,68.5643Zm26.59551,209.38811c.22721,1.15136.461,2.36536.62665,3.5884.16458,1.22026.27662,2.444.3577,3.66739.15031,2.44608.15518,4.88416.11447,7.3-.06124,2.41442-.159,4.808-.198,7.17854-.0682,4.74011.10543,9.4764.46695,14.19251.18928,2.35909.43911,4.70636.75331,7.05537.30758,2.35214.6778,4.71993.96973,7.12322a66.84709,66.84709,0,0,1,.58177,14.808,35.43634,35.43634,0,0,1-1.5174,7.43672c-.737,2.36849-1.50732,4.54944-2.05812,6.7791a54.53517,54.53517,0,0,0-1.60475,13.71025l.03341,6.62878L205.4415,371.977a14.03456,14.03456,0,0,1-1.9099-4.38833,24.73351,24.73351,0,0,1-.63222-4.41792c-.0943-1.436-.11135-2.82848-.15553-4.17922-.04385-1.35213-.11831-2.6465-.25818-3.9614a41.81508,41.81508,0,0,0-4.67679-15.092,24.58644,24.58644,0,0,1-1.79542-3.9614,9.49493,9.49493,0,0,1-.29089-4.63051c.56542-2.9875,2.00628-5.36051,2.57379-7.90959a24.95041,24.95041,0,0,0,.40431-7.99c-.263-2.707-.75226-5.42-1.28776-8.1194a67.51614,67.51614,0,0,1,2.16877,7.99588,24.42747,24.42747,0,0,1,.29506,8.4235c-.44781,2.86989-1.66946,5.4555-1.9513,7.927a7.07944,7.07944,0,0,0,.43181,3.49689,22.47225,22.47225,0,0,0,1.8316,3.43008,41.35418,41.35418,0,0,1,3.667,7.67959,43.76143,43.76143,0,0,1,2.10857,8.29233c.16041.96765.26131,1.937.33717,2.89877.10021-.46556.20076-.93111.31211-1.39388.58-2.43426,1.38832-4.78883,2.05429-7.00527a33.48817,33.48817,0,0,0,.83821-3.301c.12178-.54593.22826-1.096.30481-1.65449.09707-.55359.16423-1.11414.2199-1.67782a62.90558,62.90558,0,0,0-.44607-13.8877c-.56229-4.70462-1.16389-9.56513-1.40328-14.42111a123.98476,123.98476,0,0,1,.05567-14.56725c.14718-2.42208.35143-4.81562.51705-7.19142.18407-2.3744.32464-4.7342.32429-7.08251-.00557-1.17328-.04071-2.34413-.12561-3.50907-.08838-1.1618-.23626-2.31595-.37126-3.53516a20.53,20.53,0,0,1-.13118-3.76377,14.24952,14.24952,0,0,1,.86187-3.71262,56.39262,56.39262,0,0,1,3.317-6.48021,15.93653,15.93653,0,0,0,2.245-6.705,15.74362,15.74362,0,0,1-1.5268,7.046,62.765,62.765,0,0,0-2.6545,6.59712,12.65755,12.65755,0,0,0-.50836,3.3257A18.806,18.806,0,0,0,210.57758,277.95241ZM173.07107,415.71462a36.909,36.909,0,0,1-.68616-12.6337,70.94962,70.94962,0,0,1,2.66912-12.4291c2.39946-8.12775,5.55188-16.03037,7.21125-24.27364a52.4933,52.4933,0,0,0,1.02889-12.47677c-.11726-4.19418-.5682-8.39811-.75714-12.66083-.09394-2.13085-.12248-4.27769-.007-6.4315a45.74839,45.74839,0,0,1,.80237-6.42315c.82012-4.23071,2.0971-8.30624,3.22062-12.35846a62.22079,62.22079,0,0,0,2.38311-12.2092,49.63959,49.63959,0,0,0-1.93947-18.31571c-.58977-1.97148-1.30551-3.93182-2.03272-5.9134-.72791-1.984-1.47531-3.98924-2.12354-6.063a38.72711,38.72711,0,0,1-1.48574-6.4315,86.35737,86.35737,0,0,1-.66771-12.93432c.04592-4.28256.27244-8.53764.53967-12.77844l.44363-6.27318c.24635,1.09778.50574,2.19608.79333,3.28881l.04244.16145c.61762,2.34883,1.305,4.955,2.21888,7.48526-.1905,2.73367-.34639,5.464-.42276,8.18743a83.0566,83.0566,0,0,0,.41719,12.40335,57.954,57.954,0,0,0,3.19522,11.90648c.68511,2.00593,1.37788,4.0383,1.95443,6.13469a52.43443,52.43443,0,0,1,1.61831,19.37626,64.598,64.598,0,0,1-2.74706,12.60864c-1.22965,4.072-2.57447,8.0599-3.45583,12.125a49.98133,49.98133,0,0,0-1.04037,12.39743c.09047,4.19488.44851,8.4242.47321,12.6932a53.82613,53.82613,0,0,1-1.33786,12.73738c-1.87858,8.341-5.213,16.16538-7.78119,24.20475a70.51625,70.51625,0,0,0-2.93043,12.29584A36.76152,36.76152,0,0,0,173.07107,415.71462Zm4.61381,35.36557.24774-1.7982.41336-1.7721a31.66233,31.66233,0,0,1,2.47253-6.76623,66.58089,66.58089,0,0,1,3.45583-6.09781c2.44644-3.90365,5.063-7.5512,7.11452-11.42527a35.21344,35.21344,0,0,0,2.47984-5.98751,38.77791,38.77791,0,0,0,1.23974-6.41653c.49688-4.38765.50836-8.95692.71956-13.48687.39249-9.06861.77489-18.13721,1.34692-27.20373.36987,9.077.55045,18.15183.74113,27.227l.09986,6.81007c.02436,2.27837.02192,4.57971-.12979,6.90262a37.35144,37.35144,0,0,1-1.05115,6.97882,38.38442,38.38442,0,0,1-2.47427,6.66392c-2.04072,4.23559-4.59989,8.07069-6.90192,11.89222-2.278,3.82709-4.33232,7.70777-5.18375,11.83689l-.32916,1.54768-.19068,1.57586a18.62071,18.62071,0,0,0-.17745,2.51968q-2.07648.19311-4.14234.41005A29.672,29.672,0,0,1,177.68488,451.08019Zm22.4824-189.71348a28.979,28.979,0,0,0-.4673-4.37425,8.67681,8.67681,0,0,0,2.34657-1.2688c.01462.08508.03167.1705.04559.2554A30.82754,30.82754,0,0,1,202.39,261.365a28.867,28.867,0,0,1-.61831,5.34276c-.42136,1.73418-.905,3.36606-1.29819,5.0317a25.441,25.441,0,0,0-.75714,4.99376,13.99313,13.99313,0,0,0,.70181,4.951c.5087,1.62562,1.20251,3.22166,1.73383,4.88242a11.45667,11.45667,0,0,1,.62562,5.1413,11.27267,11.27267,0,0,0-.98574-5.01186c-.64162-1.59256-1.44678-3.12215-2.095-4.75612a14.97993,14.97993,0,0,1-1.12875-5.20184,26.7559,26.7559,0,0,1,.40363-5.29579c.27766-1.72653.64335-3.44853.92624-5.0992A26.85178,26.85178,0,0,0,200.16728,261.36671Zm-47.91,212.03061c-.02088-.7634-.04-1.48435-.10125-2.10509-.0508-.51775-.10926-1.03968-.16841-1.56578-.29993-2.66529-.61031-5.42174.1524-7.86087a1.9241,1.9241,0,0,1,.19276-.43772l.001-.00139c1.01879-1.64163,4.28186-1.92346,6.44089-2.11l.37926-.0327c3.95514-.35143,8.00006-.801,11.912-1.23522a244.18786,244.18786,0,0,1,26.69955-1.98123q1.53759,0,3.06787.04176c3.57448.09951,6.00526.96521,7.22482,2.572,1.69939,2.2401,1.55359,6.174,1.4252,9.64516-.04384,1.18163-.08525,2.29785-.056,3.3257.17572,6.18932-2.80134,7.17819-5.41444,7.348-3.87476.25261-7.85148.2547-11.697.25679-2.715.00139-5.52231.00278-8.2899.09116-7.49692.24078-14.9058.73-20.5231,1.12875-.46625.0334-.93215.071-1.39736.10925a21.26761,21.26761,0,0,1-7.5853-.26861C152.585,479.76967,152.35051,476.85942,152.25726,473.39732Zm1.64232,31.56458a3.82463,3.82463,0,0,1-.26966-1.82882c.00209-1.08839-.15205-2.63607-.33055-4.428-.41789-4.1914-1.11657-11.20675.61308-13.03349a3.63938,3.63938,0,0,1,1.50593-.57829c1.85231-.44433,3.75368-.9753,5.65331-1.57238.42276-.03062.84673-.0602,1.26531-.0943.45547-.03688.91128-.07376,1.36814-.10647,5.59155-.39736,12.9646-.88449,20.4121-1.12318,2.72271-.087,5.50735-.08838,8.20013-.08977,3.89077-.00209,7.91411-.00418,11.88073-.26235a8.59318,8.59318,0,0,0,5.543-2.20461c-.12161,6.65731-.54211,7.72378-6.68046,10.86437-16.01089,8.17751-30.66373,13.10238-46.11477,15.49836A3.13443,3.13443,0,0,1,153.89958,504.9619Zm3.28882,51.9725a32.57831,32.57831,0,0,1-.81107-7.96038c-.02227-.977-.04419-1.936-.0929-2.856-.0261-.47809-.06438-.96521-.103-1.45652a13.15912,13.15912,0,0,1,.3062-5.49134,2.98657,2.98657,0,0,1,.53427-.90884c.14875.07063.29506.14544.44834.20668,4.49481,1.8156,8.33547,3.38277,12.46842,5.13017l2.44469,1.03341c5.19453,2.19869,10.15838,4.29508,15.35466,6.25787a139.19182,139.19182,0,0,1-27.45182,7.23491C159.0548,558.31576,157.51373,557.88917,157.1884,556.9344Zm34.61644-4.55535c1.11239.39283,2.16877.75609,3.18652,1.09117a40.58149,40.58149,0,0,1,3.93705,1.68964c.04262.01983.08716.04071.13013.06054-6.86922.25157-13.75931.975-20.51075,1.722C182.953,555.65186,187.35822,554.14,191.80484,552.37905ZM219.987,703.15874a10.80456,10.80456,0,0,0-4.88573-1.20651c-1.42964-.09134-2.86641-.14214-4.30588-.17815l-8.79772,49.21309,6.0056-49.26146c-2.15459-.01531-4.316.00365-6.48073.032l-4.59928,26.489,2.681-26.46364c-3.67226.04958-7.34835.09012-11.00616-.03149a87.02236,87.02236,0,0,1-10.673-1.02941L171.057,734.84893l4.61712-34.49832a104.7518,104.7518,0,0,1-12.66953-3.18512,35.56842,35.56842,0,0,0-4.23611-1.53411,382.96243,382.96243,0,0,0,4.7201-56.85806,12.25567,12.25567,0,0,0,2.51881.70129,445.45389,445.45389,0,0,1-5.7102,55.07064c.60056.199,1.18094.43216,1.75262.66354.48678.19694.97322.39527,1.467.563a96.82176,96.82176,0,0,0,25.56523,4.55536c1.77837.10577,3.71749.15727,5.928.15727,2.16564,0,4.3779-.04871,6.51744-.096,2.15277-.04732,4.3786-.09673,6.571-.09673,2.802,0,5.1319.07863,7.33268.24774.372.02888.76793.05984,1.17572.10055a476.7162,476.7162,0,0,0,.62771-51.97789,8.31562,8.31562,0,0,0,3.42921-.72617C221.7471,668.86311,221.5345,686.56573,219.987,703.15874Zm-41.27115-52.14961c-.43563-3.40347-1.13309-6.784-1.91181-10.17421q2.0269.321,4.08319.68058c.45842,3.047.84378,6.12165,1.02315,9.22814a50.67909,50.67909,0,0,1-1.27593,15.56552,34.94582,34.94582,0,0,1-2.79439,7.36087c-1.18476,2.32952-2.52541,4.52612-3.532,6.84625a21.56548,21.56548,0,0,0-1.78916,7.30172,60.90954,60.90954,0,0,0,.01984,7.62705,61.26136,61.26136,0,0,1-.55394-7.649,22.21161,22.21161,0,0,1,1.32221-7.63471c.8737-2.46243,2.0783-4.77491,3.06752-7.10721a32.98678,32.98678,0,0,0,2.16773-7.16184A48.23736,48.23736,0,0,0,178.71585,651.00913Zm14.6859,27.82377c-.27557-1.60439-.63814-3.245-.89458-4.94331a19.1468,19.1468,0,0,1-.167-5.24151,15.578,15.578,0,0,1,1.5348-5.006,25.0464,25.0464,0,0,1,2.72445-4.3097c1.01914-1.342,2.1284-2.59571,3.25541-3.83058a45.71266,45.71266,0,0,0-4.75194,8.66325,15.58778,15.58778,0,0,0-.95965,4.62946,19.55607,19.55607,0,0,0,.52923,4.70184c.33925,1.58074.79542,3.1733,1.18929,4.833a24.58769,24.58769,0,0,1,.70739,5.1928c.05428,1.74983-.0435,3.46-.12735,5.10233-.031.51809-.05011,1.04837-.08386,1.6023a7.26378,7.26378,0,0,0,1.0268-1.36118c.43668-.74356.84169-1.62979,1.32882-2.54072.24147-.45512.501-.9158.78149-1.36675.27245-.44224.604-.91928.85317-1.28393a35.27767,35.27767,0,0,0,2.85632-4.89495,46.25309,46.25309,0,0,0,2.12284-5.31319q.93633-2.75,1.63223-5.56475a47.7121,47.7121,0,0,0,1.10056-5.68584,35.6751,35.6751,0,0,0-.21607-11.62813,30.29863,30.29863,0,0,1,1.75018,11.75547,49.34338,49.34338,0,0,1-.62631,5.97638c-.33438,1.97566-.79367,3.92592-1.31246,5.855a38.33051,38.33051,0,0,1-4.86329,11.13473c-.29784.45163-.51879.78915-.7547,1.18824-.22965.38936-.44433.79054-.65415,1.20878-.41893.83369-.81768,1.746-1.36953,2.70357a10.1162,10.1162,0,0,1-2.19208,2.65381,13.9023,13.9023,0,0,1-2.80551,1.77558l-2.87476,1.42555.73139-3.11937a22.03949,22.03949,0,0,0,.44155-2.29229c.09151-.73173.12456-1.56472.18754-2.41511.1357-1.68129.30759-3.29752.31942-4.88138A25.23706,25.23706,0,0,0,193.40175,678.8329Zm25.6691-53.99757c1.19381,2.51916,1.39562,5.88522,1.59117,9.14133.10682,1.7808.21712,3.62354.492,5.316.2895,1.78359.37927,4.17609-.83612,5.4461-.88136.92137-2.44887,1.2561-4.66217.99792a135.22916,135.22916,0,0,1-15.55961-3.1218c-2.43877-.588-4.74185-1.14336-7.038-1.63536-7.45133-1.5957-14.39954-2.82674-21.24161-3.76342-.93912-.12874-1.81177-.19555-2.6559-.26027a12.29552,12.29552,0,0,1-5.66636-1.33264c-1.96556-1.13223-2.06786-4.18514-2.167-7.13714-.03515-1.05638-.06855-2.0536-.19138-2.96244l-.16458-1.1886c-.45825-3.261-.89109-6.34033.01253-9.34383a.31279.31279,0,0,1,.09986-.17885c1.515-1.586,4.64443-1.02714,6.9308-.61865l.60926.10717c6.44681,1.11,12.96738,2.06334,19.27292,2.98471,8.1615,1.19277,16.60032,2.4259,24.82758,3.99724C216.0496,621.91743,218.04579,622.67109,219.07085,624.83533Zm-1.99514-27.90763c1.19346,2.51916,1.39527,5.88522,1.59082,9.14063.10682,1.78151.21712,3.62355.492,5.31667.2895,1.78359.37927,4.17679-.83612,5.4468-.882.92207-2.45026,1.25749-4.66183.99722-4.20566-.49339-8.752-1.30689-13.14866-2.09326-3.404-.60891-6.92384-1.2387-10.16569-1.69382-4.01916-.56437-7.173-1.10508-10.22275-1.6277-3.05534-.52332-5.94123-1.01741-9.46805-1.50036a26.24235,26.24235,0,0,1-9.15664-3.19766c-1.96591-1.13222-2.06786-4.18583-2.16668-7.13853-.03549-1.05568-.06889-2.0529-.19137-2.96174l-.16423-1.18581c-.4586-3.26168-.89179-6.34243.01183-9.34662a.3117.3117,0,0,1,.09917-.17815c1.51427-1.58735,4.64512-1.02854,6.9315-.61935l.60925.10717c6.44681,1.11,12.96669,2.06264,19.27223,2.98471,8.1615,1.19277,16.601,2.4259,24.82827,3.99724C214.05446,594.0091,216.05065,594.76346,217.07571,596.9277Zm-.76166-6.50874c.04262.58491.09011,1.20252.14265,1.83439a16.56833,16.56833,0,0,0-5.19349-1.67851c-8.28815-1.58247-16.75863-2.82047-24.9504-4.01742-3.701-.54106-7.47726-1.09708-11.26417-1.68477,4.62947-.30132,9.91882-.59917,15.24784-.76966,2.72375-.08769,5.50943-.08908,8.2036-.09047,3.88973-.00209,7.91167-.00418,11.8769-.26236a9.77981,9.77981,0,0,0,3.84119-.99791C215.76411,583.96172,216.01637,586.33821,216.31405,590.419Zm-2.07691-29.83248c1.69938,2.2394,1.55359,6.17332,1.42485,9.64376-.04384,1.18234-.0849,2.29856-.05567,3.3271.17536,6.18932-2.80134,7.17819-5.41444,7.348-3.87372.25261-7.84905.2547-11.69319.25679-2.71644.00139-5.52509.00278-8.29372.09186-7.49344.24008-14.90441.7286-20.52345,1.12805-.4673.0334-.9339.071-1.3998.10925a21.22181,21.22181,0,0,1-7.58286-.26861c-1.93495-.54768-2.16981-3.45792-2.26306-6.91932-.02088-.76341-.04-1.48436-.10126-2.1051-.0508-.51844-.1096-1.04245-.16875-1.56925-.29959-2.6646-.60961-5.41966.1524-7.8567a1.94412,1.94412,0,0,1,.1945-.4405c1.0181-1.64023,4.27943-1.92277,6.43776-2.10927l.3817-.0334c3.95793-.35143,8.00527-.801,11.91936-1.23592,9.79547-1.08769,19.92532-2.21644,29.7608-1.93808C210.58715,558.11465,213.01792,558.98034,214.23714,560.58648ZM212.75,542.49937l-.00487.35352a27.14982,27.14982,0,0,0,.35352,3.7328c.38587,2.84344.96938,7.14131-.48992,8.18655a4.49446,4.49446,0,0,1-1.99845.78776,20.233,20.233,0,0,0-3.51829-.39388c-.19032-.00522-.38187-.00209-.57255-.00626a43.78472,43.78472,0,0,1-6.38435-2.58248,42.29326,42.29326,0,0,0-4.24915-1.81351q-1.83561-.60439-3.626-1.24566c-6.45516-2.30134-12.435-4.83232-18.766-7.51153l-2.44608-1.03411c-4.3946-1.85805-8.60966-3.572-12.51505-5.14965a4.84875,4.84875,0,0,1-.91441-.48156,5.59207,5.59207,0,0,1-2.29907-4.21332l-.00226-.19242-.03776-.07376-.00609-.04106c-.01809-.158-.0334-.31663-.04593-.4746-.09359-1.21643-.17223-2.43495-.25121-3.65347-.17189-2.65486-.34969-5.40018-.68373-8.11975-.0247-.19555-.05462-.40084-.08524-.61169l-.09986-.6618c-.33786-2.12249-.75819-4.76413.59673-5.91584a2.459,2.459,0,0,1,1.92938-.36117,18.65848,18.65848,0,0,1,4.46836,1.4078c.60161.24635,1.16981.47809,1.66146.6451,7.90541,2.72166,16.51368,6.11834,26.31611,10.3842l.35943.15588q1.42381.62109,2.84518,1.24288.72236.3236,1.44678.6444c2.793,1.24357,5.80658,2.60684,8.95726,4.05222.88727.4078,1.81282.74948,2.70739,1.08073a13.94272,13.94272,0,0,1,4.99308,2.60405,7.03617,7.03617,0,0,1,1.51706,2.16147l-.0087.29993.19763.19763A18.62967,18.62967,0,0,1,212.75,542.49937Zm-1.81108-24.51373.04-.01948c1.0649,1.24983,1.06594,8.341,1.00383,12.88213a17.56054,17.56054,0,0,0-5.5985-2.88624c-.8838-.32638-1.71853-.63536-2.50768-.99723q-3.12109-1.43216-6.03379-2.74288C202.18156,522.31448,206.57181,520.23026,210.93892,517.98564Zm-.91023-11.65c-.00905.517-.015,1.0007-.02053,1.45513-.07029,5.75229-.07307,5.97707-5.54666,8.77458-4.03274,2.0543-7.8306,3.83232-11.5935,5.4381q-1.14771-.50313-2.29107-1.00105l-.35978-.15657c-9.87237-4.29579-18.54919-7.71891-26.53149-10.467-.41511-.14126-.945-.35769-1.50593-.58664l-.05915-.024a213.67938,213.67938,0,0,0,46.88792-17.83623l.04-.01949C210.24337,493.31464,210.099,502.07392,210.02869,506.3356Zm10.62307-213.96695c-.412,12.664-.32255,24.74407-.23557,36.42682.21573,29.05029.41928,56.49028-6.8285,89.61019a244.47834,244.47834,0,0,0-4.98873,36.92,10.17532,10.17532,0,0,0-2.79873-1.32064,248.15488,248.15488,0,0,1,5.00456-36.21214c7.17576-32.80815,6.97638-60.08634,6.7624-88.97518-.08525-11.70815-.17816-23.82236.23521-36.54234,1.24009-38.074-.17815-120.43642-.70529-151.44184-.05237-2.79717-.0903-5.1072-.118-6.86122.42746-1.60161.89928-3.20878,1.381-4.796l.4746-1.55481c.30081-.98226.60265-1.97043.89841-2.96383.01009,2.63954.03253,5.34642.0762,8.149.02818,1.83091.07481,4.54283.134,7.98057C220.47674,171.81114,221.89324,254.22087,220.65176,292.36865Zm3.93461-209.90952-3.00089,3.00055a35.57457,35.57457,0,0,0-1.74131-4.85042,56.33611,56.33611,0,0,0,1.26062-11.9498c0-21.561-11.89639-39.10255-26.519-39.10255-14.6264,0-26.52557,17.54152-26.52557,39.10255a56.86749,56.86749,0,0,0,1.26045,11.95972,35.70855,35.70855,0,0,0-1.73505,4.84693l-3.00733-3.007V20.81572h60.00805Zm55.26689,31.2643c-3.87894-6.75057-10.26225-13.51174-18.56937-19.49386-11.19579-8.06286-23.99876-13.24539-33.84712-13.776V25.87508c2.16077-.13935,4.18931-.29384,6.14861-.4706,4.881-.4405,9.19631-.99792,13.19216-1.70426,9.6288-1.70286,18.60972-4.89564,26.12473-7.79406,2.07935-.80237,3.95375-1.53028,5.841-2.31247.52784-.21886,1.55411-.70582,2.84762-1.36257C296.9715,46.00274,296.26812,85.37251,279.85326,113.72343ZM308.22888,68.56c-.01427.44607-.04141,1.07864-.06542,1.57551-.18128.087-.38344.18442-.59777.2881-.86361.41615-1.93112.93042-2.6566,1.27489l-2.40781,1.14336,2.28777,1.36744c.87474.52262,2.19486,1.32987,2.99306,1.82674-.02018.20877-.04245.42519-.05985.595l-.05115.50174c-.111,1.13014-.23869,2.27-.3803,3.39808a26.37423,26.37423,0,0,1-5.25578,2.42033l-2.23836.71121,1.66424,1.65694c.3309.32985,1.3751,1.46974,2.38485,2.57274.67189.73417,1.35457,1.47948,1.88241,2.04663a104.28673,104.28673,0,0,1-5.78362,18.86582,86.4091,86.4091,0,0,1-7.64862,14.42389c-3.66356-.009-7.0164-.08-8.70256-.12247a30.317,30.317,0,0,0-2.19852-6.39566c9.15333-15.07108,14.01348-33.4569,14.04515-53.24148A128.67832,128.67832,0,0,0,284.11964,10.906a73.144,73.144,0,0,0,9.90594-6.21559c1.0435,1.89215,1.67677,3.04316,1.94922,3.70288.26757.64927.57307,1.26792.86848,1.8657.19728.39875.39457.7975.57725,1.20112.09951.2206.21712.45094.33159.67294a24.86267,24.86267,0,0,1-1.8403,2.21226l-1.80273,1.99514,2.66321.37161c.7714.10786,1.547.16423,2.23105.21364.23173.0167.50313.03619.746.05776.09116.238.18546.49618.27384.73974l.19137.52123c.484,1.29646.95408,2.62841,1.39736,3.95827a128.20246,128.20246,0,0,1,4.31492,16.71688,137.63765,137.63765,0,0,1,2.11032,16.87972c.17606,2.824.26444,5.68619.26235,8.50667C308.29847,65.72068,308.27481,67.15214,308.22888,68.56Z"/></g></g></svg>