<svg xmlns="http://www.w3.org/2000/svg" viewBox="0 0 681.72124 443.85277"><defs><style>.cls-1{fill:#24373e;}</style></defs><g id="Слой_2" data-name="Слой 2"><g id="Слой_1-2" data-name="Слой 1"><path class="cls-1" d="M657.12114,232.81652c-.82754-2.12745-1.76428-4.21144-2.76691-6.26311-2.009-4.1108-4.28065-8.08748-6.49651-12.091-1.10884-2.00308-2.2048-4.01347-3.24783-6.05107a163.26348,163.26348,0,0,0-12.033-19.36076,122.44186,122.44186,0,0,0-8.99433-11.85752,46.82257,46.82257,0,0,1,8.32852,1.16571A231.83563,231.83563,0,0,0,589.859,144.87424l6.49589-1.95168q-4.98764-2.29508-9.90434-4.72421-8.19385-4.0479-16.17835-8.46272c-2.231-1.23328-4.67481-2.31781-6.39281-4.203-.62068-.68118.01105-1.035.1924-1.50847a60.924,60.924,0,0,0-9.0116-4.6759c-2.80142-1.19546-5.79633-2.01683-8.44828-3.50945-4.69662-2.64306-8.635-6.46509-13.5798-8.71919-5.00989-2.28389-10.90961-3.50177-16.37784-4.4075-11.88091-1.96815-24.04163-1.24736-36.07186-.16715-6.08827.54663-9.12059,2.31114-13.54663,4.2685-8.59232,3.80034-16.94559,1.76452-25.30842,3.10568-8.36237,1.34135-15.91588,2.40382-22.4847,11.12063-.7186.95379.73089,2.12425,1.50428,2.7504a24.68464,24.68464,0,0,0,5.00585,2.90779c4.32271,2.04951,8.85908,3.66153,13.302,5.45817,8.27412,3.34627,17.397,5.47859,25.55164,9.3421-.60714.23354-2.24317.48029-2.85.7137a44.06622,44.06622,0,0,0,17.53358,8.537q-1.34256.34817-2.68559.69613c5.37872,6.57421,14.44387,10.97924,21.61719,15.69321q-1.60889.35551-3.21766.71136c.48276-.10669,2.06469,1.78644,2.42866,2.1189a83.823,83.823,0,0,0,18.15078,12.53361q-2.148.17625-4.29565.35238c4.30449,6.39352,10.43418,11.38928,16.39336,16.26472a127.89526,127.89526,0,0,1-19.802,32.06915c-15.37094,18.00306-35.28617,30.13186-59.10309,37.40249-32.4253,9.89819-69.39126,14.34685-101.744-6.05162,1.56192,7.117,3.98195,12.857,9.45138,17.52626,5.65552,4.82811,16.368,7.75666,23.13993,9.84719-6.03049-1.16741-16.28967-1.65379-22.32016-2.8212,2.36455,2.71737,4.34674,5.75641,6.62419,8.57178,3.50688,4.335,6.57762,8.52576,11.28814,11.38665,3.89738,2.36692,8.2006,3.11548,12.40407,4.27447a114.00868,114.00868,0,0,0,17.79189,3.42576q1.0283.11358,2.05671.20776a15.51882,15.51882,0,0,0-2.36516.15622q-1.23162.08163-2.4637.16308-2.46341.16278-4.92717.3257-4.92715.32625-9.85456.65186c-.71332.04727-1.4263.09739-2.14.14072a49.23812,49.23812,0,0,0,6.1771,4.46158q1.79334,1.16619,3.61,2.28487,3.94476,2.42733,7.99951,4.60245a20.20231,20.20231,0,0,0,12.31145,3.56886c3.40265.15732,6.80865.486,10.20868.59227q9.42937.29562,18.7895-.31567,2.75742-.17994,5.50412-.43939a183.3328,183.3328,0,0,0-20.535,6.85141c2.77541.83836,5.53952,1.73886,8.3206,2.54521,12.595,3.652,24.29281,6.8734,37.75636,4.35647a68.28763,68.28763,0,0,0,15.51134-5.14774c2.89306-1.30128,5.72613-2.73,8.5282-4.21163,2.26284-1.19634,6.19777-2.51445,7.94388-4.34067a165.56328,165.56328,0,0,1-17.07066,15.536c.23632-.19446,1.12139-.08766,1.43676-.11232a7.82324,7.82324,0,0,1,1.53308-.08628c2.89655.35287,5.89-.22127,8.73914-.55205,9.53473-1.10632,19.73552-2.29486,28.52774-6.49452,9.13621-4.364,16.84684-11.33415,23.5351-18.699a70.41379,70.41379,0,0,0,8.13675-10.84568c-.77574,1.9124-1.28672,4.02519-2.12674,5.91084-2.10882,4.73434-6.398,8.24671-7.09845,13.56366a6.88521,6.88521,0,0,1,1.55387-.96431,27.68185,27.68185,0,0,0,3.392-2.03815q1.934-1.20285,3.83038-2.4705a136.73467,136.73467,0,0,0,13.92614-10.6655A182.47225,182.47225,0,0,0,596.266,291.602a5.387,5.387,0,0,0,.08874.85417q.06553.6547.12337,1.31059a19.7182,19.7182,0,0,1-.65112,6.37276c-.57673,2.33-1.41088,4.35741-1.54207,6.78a50.96573,50.96573,0,0,1-3.09481,15.00767,59.71586,59.71586,0,0,1-2.9788,6.79967c2.96949-1.80635,8.59822-3.30705,11.67368-4.37125a15.25129,15.25129,0,0,0-2.14356,3.88542c-1.40657,3.00121-3.36153,5.48326-5.12011,8.26216a39.8678,39.8678,0,0,0-6.51742,17.58259c-.843,7.46923-1.25579,14.8304-2.704,22.19366a129.28565,129.28565,0,0,1-3.101,12.67645c-2.85,9.37468-7.16623,18.51044-13.76557,25.998,7.62966-4.35257,15.31981-8.74724,21.91695-14.48947,6.59727-5.74191,12.10642-13.00451,14.16806-21.2814A98.59471,98.59471,0,0,1,597.72248,396.24q-1.04817,2.6031-2.27753,5.13772c-.0124.8174,1.34722.54011,1.994-.00458,12.43182-10.478,18.88244-17.14284,23.65131-32.29985q-2.265,10.24767-4.5295,20.49552c-3.22155,14.57679-6.49474,29.305-13.0631,42.881,5.91114-4.19946,10.71791-9.67165,15.46262-15.087,4.11174-4.69257,8.35242-9.62286,9.88348-15.54251a90.73725,90.73725,0,0,1-.72573,10.08916,34.45786,34.45786,0,0,0,10.94329-15.94123,53.15847,53.15847,0,0,0,2.50843-18.95276c1.57757,7.16253.87388,14.59333.27243,21.88555-.61343,7.43949.05415,14.95317-1.40016,22.34509-1.6009,8.13757-6.14389,15.62275-10.6872,22.60671,1.81341-2.78772,5.25346-5.28141,7.67138-7.59968,2.70122-2.59006,5.41733-5.167,8.04035-7.832a76.67365,76.67365,0,0,0,13.33213-17.30823,18.65434,18.65434,0,0,0,1.13,3.6108,13.10023,13.10023,0,0,1,.50142,6.63794c-.90831,5.76369-4.15339,10.90382-6.09754,16.3764.18421-.51856,3.88263-2.27487,4.5482-2.83554a39.41949,39.41949,0,0,0,3.83007-3.894c2.49973-2.77857,5.27344-5.34922,7.38206-8.4328a32.63125,32.63125,0,0,0,4.17676-9.03047,43.038,43.038,0,0,0,1.674-9.98683c.39462-6.83083.76277-13.76307.71467-20.6-.05291-7.52018-1.18871-15.22586-1.7859-22.73837a101.14157,101.14157,0,0,1,6.84878,12.22456c-.61942-1.31108-.05306-4.59237-.18-6.1207-.17812-2.14445-.47139-4.27981-.81285-6.407-.62846-3.91519-1.49255-7.8003-2.27718-11.66072a117.282,117.282,0,0,1-1.901-16.40289c-.47-7.87617-1.00644-15.85-2.96254-23.54852q-.27981-1.10167-.5999-2.19193a9.551,9.551,0,0,0-.6514-2.08117,58.65243,58.65243,0,0,0,5.91212,8.23483q-.61516-2.15018-1.246-4.29528-2.62888-8.9391-5.53227-17.79189-1.45127-4.42592-2.97085-8.8286a5.702,5.702,0,0,1-.40452-1.71294,10.09,10.09,0,0,0-.529-2.24222q-.7296-2.655-1.5148-5.29393-3.2052-10.77019-7.35749-21.22261c-.61638-1.54675-1.25537-3.08569-1.90435-4.62031a12.87764,12.87764,0,0,1-.28938-3.04616q-.19628-1.68789-.4697-3.36359a45.22182,45.22182,0,0,0-2.5933-10.53889,7.62937,7.62937,0,0,1,1.76932,1.47641C655.77292,231.3076,656.84072,232.09528,657.12114,232.81652ZM493.92953,112.42859a12.01284,12.01284,0,0,1-1.88038.23631,15.92178,15.92178,0,0,1-3.86156,2.00453,14.96588,14.96588,0,0,1-4.42485.64862,13.5076,13.5076,0,0,1-2.2226-.24727c-.36294-.05744-.73131-.17007-1.07113-.2597-.34-.08919-.68982-.22477-.99817-.31752-1.33629-.40187-2.53472-.70887-3.9228-1.03671-.49-.116-1.25131-.28317-1.78206-.41659.46944-.34672.98755-.69737,1.45744-1.03012.0415-.029.03316-.02648.04979-.03565a19.35481,19.35481,0,0,1,5.27413-2.3213,11.6882,11.6882,0,0,1,2.89985-.17174,15.16254,15.16254,0,0,1,2.795.40931c1.75166.38987,3.36218.95489,5.09311,1.30009a14.11925,14.11925,0,0,0,5.10545.07294A7.34842,7.34842,0,0,1,493.92953,112.42859Z"/><path class="cls-1" d="M253.82409,187.58868c-4.78447-6.44117-10.13425-8.48726-15.28828-15.41274-2.65528-3.56821-5.35443-10.73247-10.17138-13.964-9.12807-6.1256-22.767-14.61472-46.00936-12.33609,3.85911-.37834,12.18714-12.74874,15.34654-15.50284,22.21305-19.36341,49.34372-32.77895,76.99332-42.48689A279.7538,279.7538,0,0,1,304.066,79.36973c6.04524-1.40688,14.92257-5.77822,21.01147-3.00449-7.45924-11.87306-29.19081-16.86791-41.35811-10.70907,6.48588-3.283,12.81778-7.11448,19.22225-10.67762-2.88815-.57628-5.58477-1.59469-8.47123-2.23509-4.44782-.98719-8.51046-2.16759-13.20128-1.66387-3.88.41681-7.668,2.16083-11.41506,3.52264-5.238,1.90434-10.44053,4.228-15.52242,6.57533-.5843.27-1.16184.57628-1.74192.85725.66656-.37969,1.24579-.82688,1.87945-1.27069s1.2922-.88678,1.93851-1.33312q1.93893-1.34029,3.87364-2.70083,3.86964-2.72362,7.69751-5.52824c.5535-.405,1.10742-.81759,1.65839-1.226a58.427,58.427,0,0,0-6.46733.06412c-1.23187.0675-2.446.13162-3.6665.22444-2.649.2-5.30211.42018-7.93671.718a31.8772,31.8772,0,0,0-5.84929.95427,33.80133,33.80133,0,0,0-5.18862,2.33044c-2.82023,1.42087-5.66746,2.76749-8.45562,4.1968-5.15572,2.64261-10.20344,5.411-15.23935,8.24847-1.48542.837-2.92485,1.69509-4.39677,2.54981a188.1574,188.1574,0,0,0,14.63776-13.49659c-2.47556.63281-5.02874,1.11965-7.49375,1.7474-11.18429,2.84765-21.7092,5.778-31.80127,11.62178-4.07066,2.35743-7.633,5.82692-11.25686,8.97832-2.08785,1.81575-3.9171,3.82555-6.03195,5.86236a43.83919,43.83919,0,0,0-5.40462,5.61177q4.81062-8.53282,10.19078-16.75936a4.24786,4.24786,0,0,1-1.13189.56868c-.397.18732-.79439.40163-1.21288.5535a47.36144,47.36144,0,0,0-6.89174,3.19527c-7.4351,4.13943-15.04824,7.55323-21.53876,13.219-6.49011,5.66661-11.3231,12.86293-16.17127,19.94366a98.52975,98.52975,0,0,0-5.554,9.9731c.50667-1.59637.56911-3.25349,1.15256-4.83721,1.46812-3.98417,3.55682-7.5566,3.99472-11.86056a9.51191,9.51191,0,0,1-1.13948,1.12472c-.90112.75768-1.63561,1.51453-2.51732,2.38781-.88214.87412-1.88409,1.814-2.816,2.73711-3.57622,3.54374-6.99551,7.2537-10.43463,10.96872-1.26435,1.366-2.40426,2.70168-3.73189,4.24658-.68049-15.77217-2.80251-27.02355,1.67948-43.33488,9.58244-34.87378,29.29787-58.33587,63.00348-73.75957-6.9567-2.47556-12.30395-5.07008-20.10735-3.53953-7.8034,1.52972-15.17269,6.91958-22.05346,11.07082,5.4928-4.84565,10.657-10.20091,16.10673-15.15962-3.6509.065-7.42161-.335-11.05141-.324-5.58941.016-11.11258-.20671-16.42439,1.55-4.39551,1.45462-7.78105,4.38749-11.45641,6.998A104.83192,104.83192,0,0,0,93.05388,20.82786c-.50541.513-.92348,1.0454-1.41623,1.56346a21.82311,21.82311,0,0,0,1.29557-2.02668c.43242-.69694.891-1.40315,1.33692-2.10515.89184-1.40568,1.78579-2.82571,2.70126-4.21874,1.83262-2.78943,3.71586-5.551,5.61514-8.29319.41259-.59569.818-1.18125,1.2285-1.77356a61.58336,61.58336,0,0,0-7.65533,2.257c-1.42635.51385-2.81685,1.07831-4.18456,1.64869-2.97126,1.23862-5.95475,2.54221-8.82349,3.9192a29.64424,29.64424,0,0,0-6.10072,3.51674A27.22714,27.22714,0,0,0,72.771,20.15708c-2.18025,2.8679-4.46469,5.62526-6.45678,8.55982-3.68507,5.42867-6.81326,11.075-9.95327,16.80745-.92559,1.69-1.75415,3.44334-2.63334,5.16036,2.068-7.247,3.83906-14.53439,5.249-21.945-2.21737,2.0849-4.55582,3.974-6.72973,6.11548-9.84654,9.70226-18.284,18.932-23.33891,32.06495-2.03638,5.29029-2.35068,11.17628-2.95438,16.88339-.3472,3.28724-.09155,6.52217-.20545,10.01022-.092,2.81643-.40922,6.26061.15736,9.17069A223.59882,223.59882,0,0,1,19.92416,79.6607a4.60527,4.60527,0,0,1-.583,1.388c-.20883.47672-.40247.9779-.65095,1.43522a53.345,53.345,0,0,0-3.629,8.18857c-3.2324,9.46769-7.15245,18.511-7.62284,28.64017-.47081,10.12834,2.16042,19.72513,5.06924,29.32023,1.31034,4.32252,3.51083,8.04513,5.53751,12.031-4.606-7.16764-9.25844-13.69825-13.65732-21.24557-.65433-1.12218-2.56795-3.54036-2.68269-5.195C1.201,139.56172-.287,144.96845.04884,150.41147c.726,11.76606,3.20371,22.912,8.57458,33.38709,5.73411,11.183,14.5209,20.04239,21.09285,30.54536-1.85962-2.06718-6.39139-3.737-8.45815-4.67858A111.85992,111.85992,0,0,0,9.5102,205.17069c2.09629,1.37278,3.69477,5.18061,4.814,6.82677,1.87818,2.76158,3.65553,4.59083,5.36581,6.83941,3.85888,5.07177,7.87554,9.83641,11.07039,15.15709,4.11833,6.85629,7.73421,13.88724,9.23946,21.59825,1.366,6.99973-1.03908,12.74143-2.42746,19.38763a13.66288,13.66288,0,0,0-.41724,1.86637,6.10409,6.10409,0,0,1-.27675,1.528c-.77287,2.64937-1.53941,5.03464-2.30891,7.74139a149.717,149.717,0,0,0-3.92722,16.55854c-.22444,1.35675-.38939,3.11934-.59653,4.53684q2.4958-4.38413,4.62289-8.9876a14.80331,14.80331,0,0,0-.38517,2.20555c-.08606.77794-.26874,1.47909-.30881,2.30343a124.34022,124.34022,0,0,0,1.24326,25.547c.93276,6.01423,2.08406,12.22,2.93835,18.34391.60961,4.36977,1.231,8.7117,2.15662,13.111a69.61951,69.61951,0,0,0,1.79845,7.19126c.57712,1.80225,1.86974,4.18246,2.23171,6.20155a130.60235,130.60235,0,0,1,1.55461-14.18762c2.40552,7.99788,4.849,16.52564,8.15018,24.07549,3.00205,6.86558,6.32937,13.00637,9.73684,19.43911a43.93956,43.93956,0,0,0,5.77757,8.59779,31.77179,31.77179,0,0,0,7.40515,6.4091c3.00332,1.89928,6.5922,3.23831,9.97478,4.7503a28.072,28.072,0,0,0,5.13294,1.91953c.97242.23962,3.43363.178,4.582.7079-3.78167-3.91836-8.04176-7.40726-11.407-11.76521a12.89919,12.89919,0,0,1-2.17687-5.79908c-.2101-1.18041-.06792-2.28993-.32063-3.43406a117.487,117.487,0,0,0,18.97,10.31482c3.29948,1.38965,6.318,2.322,9.49765,3.43574A65.20139,65.20139,0,0,1,120.223,420.971c-5.89021-4.48789-11.718-8.27463-16.09449-14.4323-3.97658-5.5932-6.35848-11.99556-9.80224-18.10936a128.85093,128.85093,0,0,1-9.20149-19.47116c3.17587,5.69614,6.36017,11.51462,10.96914,16.16452s9.8516,7.18451,15.78146,9.64656c-1.31583-2.60718-2.55656-5.21267-3.70743-7.884a48.12463,48.12463,0,0,0,13.40589,8.94457,121.55017,121.55017,0,0,0,18.06674,6.59811c-9.47233-9.51241-17.33859-19.58507-25.82543-30.16229-3.97742-4.95786-8.64841-10.75525-12.66676-15.90549a92.80967,92.80967,0,0,0,33.68368,18.92864c.66782.21853,1.5584.17465,1.74908-.65138-1.25845-1.11037-2.60549-2.15071-3.79686-3.33617-3.804-3.78421-7.25243-7.86542-10.65358-11.98966,6.19479,5.28017,12.48282,9.70479,20.35246,12.01834,7.86921,2.31356,15.9173,2.64937,23.96539,3.7783a98.10532,98.10532,0,0,1-20.668-15.54605,87.73831,87.73831,0,0,1-7.31233-8.88635c-3.95887-5.19326-7.044-10.85144-10.52154-16.26408-3.113-4.8448-6.89721-8.49063-11.22606-12.2124a80.90088,80.90088,0,0,1-6.57617-5.69867,27.60222,27.60222,0,0,0-2.83752-2.82234,108.1102,108.1102,0,0,1,11.65384,1.41075,57.96146,57.96146,0,0,1-4.02974-4.876,40.84349,40.84349,0,0,1-5.15277-11.20244c-.59315-1.91446-1.4774-3.4408-2.2469-5.4582a26.99512,26.99512,0,0,1-1.69213-6.86136c-.04978-.5729-.24258-1.21921.25607-1.73306a9.12932,9.12932,0,0,1,6.661-2.45446,11.50036,11.50036,0,0,1,6.37831,1.66219,65.70114,65.70114,0,0,1,6.08047,4.37061c1.07325.77709,2.56415,2.05031,3.7319,2.87212a67.15644,67.15644,0,0,0,5.98512,8.15735,47.98809,47.98809,0,0,0,4.03775,3.84074c.69356.61678,1.4483,1.15424,2.15367,1.71871.70579.56531,1.39556,1.11375,2.06718,1.68834,1.33354,1.14075,2.7696,2.34224,4.11158,3.402.67163.53072,1.59342,1.13569,2.1389,1.50525.54549.36871.88172.54337,1.2323.75009.35057.20587.43537.205.66065.32569a4.45411,4.45411,0,0,1,.46786.26071c.16284.10969.44086.22107.41512.42272s.04683.05231-.18056.22444a4.63721,4.63721,0,0,1-.95639.48768c-.39318.16453-.645.27507-1.24115.48685-.59611.21093-1.7512.62943-2.46712.95512-.13415.06159-.44634.20334-.59526.28265-.14934.07847-.18731.07932-.35395.17888a4.27158,4.27158,0,0,0-.4223.24131,7.03831,7.03831,0,0,0-1.20445,1.0049,6.48,6.48,0,0,0-.82392,1.43859c-.16664.3991-.01519.69525-.18773,1.00406a22.95856,22.95856,0,0,0-1.52254,2.38528,7.7504,7.7504,0,0,0-.71677,3.25686,6.24929,6.24929,0,0,0,1.03528,2.9894,16.46136,16.46136,0,0,0,1.99589,2.24606,14.93131,14.93131,0,0,1-1.056-2.56078,4.16294,4.16294,0,0,1,.00718-2.47218,6.2432,6.2432,0,0,1,2.484-2.95143c.227-.16031.51215.15272.77625.1215a7.82791,7.82791,0,0,0,.92137-.0734,3.39517,3.39517,0,0,0,.52692-.15778,2.73321,2.73321,0,0,0,.47756-.23119c.27844-.15609.83362-.53494,1.15551-.7754a9.8373,9.8373,0,0,1,1.00913-.67163c.35521-.2025.80746-.43537,1.15551-.62859.34847-.19322.82982-.43453,1.11543-.56953.28561-.13415.40458-.18731.61214-.27506a4.471,4.471,0,0,1,.55772-.22275,8.05993,8.05993,0,0,1,2.28867-.281,10.94118,10.94118,0,0,1,2.35068.37716,7.98528,7.98528,0,0,1,2.03216.93487,5.0257,5.0257,0,0,1,.97791.77625,7.76891,7.76891,0,0,1,.8737.97284,10.99762,10.99762,0,0,0,2.02668,1.85709,6.50181,6.50181,0,0,0,1.54068.53071c.37927.1156.216-.08437.43622.07763s.16158.05147.31683.40078a2.89921,2.89921,0,0,1,.39234,1.226,4.98188,4.98188,0,0,1-.513,2.58946,7.02237,7.02237,0,0,0,2.44729-2.43759,6.06507,6.06507,0,0,0,.60033-1.771,6.35352,6.35352,0,0,0-.07805-1.77609c-.03459-.43537.124-.32315.16748-.60918.043-.286.097-.54759.12741-.7965.02995-.2489-.09408-.58725-.0038-.75937.08986-.17213.34.19912.40585.23372.06539.03375.08521.10125.12909.15271.0443.05147.01266.02279.06328.10294a1.47113,1.47113,0,0,0,.09788.17719,4.267,4.267,0,0,0,.56278.79059,5.13937,5.13937,0,0,0,1.5854.91547c.35521.08015.32189-.06582.50625.0945.18435.16115-.11391-.17719.03375.092s.713.46407,1.02937.80578a3.14319,3.14319,0,0,1,.7117,1.36519,14.02732,14.02732,0,0,1,.29615,3.564,17.01679,17.01679,0,0,0,1.685-3.6973,6.92415,6.92415,0,0,0,.12487-2.20978,14.99755,14.99755,0,0,0-.6636-2.03849c-.11982-.59738.1485-.96778.09787-1.48331a6.54475,6.54475,0,0,0-.42989-1.59131c-.15441-.36534-.18267-.14428-.24933-.45816-.06623-.31471.1-.50371-.0097-.90281a3.48475,3.48475,0,0,0-.5362-1.27574,11.65715,11.65715,0,0,0-1.70986-1.56937c-.41976-.32653-.47207-.67078-.80113-.87919a10.963,10.963,0,0,0-4.18752-1.43184c-.09029-.01687-.246-.03122-.31894-.03965a22.20943,22.20943,0,0,0-2.303-.081,9.25159,9.25159,0,0,1-1.75921-.02953,11.97237,11.97237,0,0,1-3.7146-1.43522c-1.23947-.69947-2.06592-1.26225-3.37879-2.16674-1.31329-.9045-2.79576-1.72547-4.37357-2.76412a27.91787,27.91787,0,0,1-6.53946-5.45736,32.38471,32.38471,0,0,1-6.299-12.88487,70.34081,70.34081,0,0,0-.69694-12.94478c-.11432-.95765-.111-1.44534-.19617-2.33212a39.83213,39.83213,0,0,0,8.67373,2.8274,6.82628,6.82628,0,0,0,.6944-.02784c.18183.02531.1177.07509.17381.10968,1.9267,1.17028,2.738,2.00306,5.14729,2.82909,1.39893.48009,4.166,1.06312,6.02393,1.555a20.43756,20.43756,0,0,1,2.45868.65475,5.51849,5.51849,0,0,1,2.68987,2.24521,1.09519,1.09519,0,0,1-.05611,1.02262,2.66113,2.66113,0,0,1-.88129.68259c-.16622.10378-.116.06666-.1426.081-1.30063.66909-2.25027,1.24959-3.61588,1.98618a8.63636,8.63636,0,0,0-2.53925,2.6789c-.3645.7425-.97411.84881-1.19517,1.25634-.22149.40669-.20039.26663-.32105.50878a4.414,4.414,0,0,0-.22359.47841,3.722,3.722,0,0,0-.28181.85387,6.74183,6.74183,0,0,0,.25354,3.3539,5.21275,5.21275,0,0,0,2.07436,2.48062,8.02821,8.02821,0,0,0,2.93118.88677,7.44507,7.44507,0,0,1-2.21737-1.51705,3.63058,3.63058,0,0,1-.84038-2.14565,2.88829,2.88829,0,0,1,.5611-1.94147c.3666-.4919.33032-.73153,1.01334-.77118.68343-.03966,1.36265.6075,2.22369.46912,1.91869-.308,2.34056-1.02009,3.75468-2.4823,1.41412-1.46306.00591-1.89337,2.8582-3.213,4.48789-2.07646,11.23365-.15525,14.8411,4.37652a2.40928,2.40928,0,0,1,.43031,1.63519,4.4439,4.4439,0,0,0,1.09349,3.01893,6.41031,6.41031,0,0,1-1.06185,1.97943,5.8152,5.8152,0,0,1-1.44281,1.24031,14.22406,14.22406,0,0,1-1.8495.87749,17.63377,17.63377,0,0,0,2.18447,0,8.78226,8.78226,0,0,0,2.238-.57543,10.66935,10.66935,0,0,0,2.003-1.18884c.51807-.37209,1.02474-.92644,1.34578-1.19559.32147-.27.48474-.21094.65306-.324a4.85815,4.85815,0,0,0,2.3819-3.575c.08944-1.46728-.73448-2.09334-1.22343-3.321a3.77585,3.77585,0,0,0,.52059-3.634,5.15144,5.15144,0,0,0-2.322-2.27981c-2.67257-1.64868-5.78221-2.66034-8.58978-3.89727a82.06239,82.06239,0,0,0-8.14385-3.3598c-1.54026-.497-3.30791-.983-4.93339-1.43859-.63661-.17888-1.77693-.49106-2.30343-.63366-.52608-.14343-.513-.14428-.9218-.24721-.40879-.1021-1.18842-.33666-1.48795-.443-.29995-.10631-.44971-.16369-.57754-.216a14.01972,14.01972,0,0,1-2.82023-1.41919,11.92919,11.92919,0,0,1-1.84527-1.74065,12.52267,12.52267,0,0,1-1.61156-2.31524c-.01181-4.08374-1.677-8.09829-2.18151-12.04872a35.23082,35.23082,0,0,1,1.40948-15.38236c.85514-2.66877,2.52913-4.75452,3.59563-7.01239,1.56135-3.30665,2.8004-6.63692,4.93424-9.33607a29.04067,29.04067,0,0,1,7.098-6.32642c3.95929-2.6578,8.32779-4.4592,12.45288-6.80988a9.15471,9.15471,0,0,0,1.47613-1.042c-1.15-.45984-2.28993-.934-3.44629-1.38375a104.13262,104.13262,0,0,0,15.719-4.78573c.35269-.14091,1.37025-.98888,1.95075-.75178-.72984-.58725-1.55208-1.08084-2.31989-1.62928,6.2661-1.03022,12.48367-1.93218,18.57047-3.79518-.52987-.578-1.06059-1.15256-1.61536-1.70774a56.85089,56.85089,0,0,0,13.686,2.4418c-.50076-.69018-1.02009-1.35337-1.53731-2.03849,6.6095,2.46712,12.33011,6.03111,18.6038,9.33607a64.15685,64.15685,0,0,0,10.83583,4.56045,31.75192,31.75192,0,0,0,4.95322.78469c.80535.10462,2.53926-.19069,2.46754-1.08422A40.82063,40.82063,0,0,0,253.82409,187.58868Zm-28.39717-17.70436c-1.23862-.50625-2.35912-.89775-3.63444-1.28756-.29447-.08943-.59611-.14512-.953-.26325-.3569-.119-.55856-.15356-1.04329-.33665a11.97963,11.97963,0,0,1-1.84232-.76106,18.41856,18.41856,0,0,1-3.33449-2.414,34.05247,34.05247,0,0,1-2.47134-3.197c-.38391-.46322-.94879-.56953-1.44745-1.06988a18.59815,18.59815,0,0,1-1.67189-1.90433,25.58988,25.58988,0,0,0,4.3297,2.09c1.54743.51131,3.10414.76275,4.69292,1.24621a13.978,13.978,0,0,1,2.43.90281,9.4191,9.4191,0,0,1,2.29711,1.50694,21.5911,21.5911,0,0,1,3.42941,4.47692c.0097.016-.04852-.10631.04894.11813s.513,1.1669.64926,1.52465C226.45123,170.35176,225.864,170.0632,225.42692,169.88432Z"/></g></g></svg>