<svg xmlns="http://www.w3.org/2000/svg" viewBox="0 0 334.68909 342.37662"><defs><style>.cls-1{fill:#24373e;}</style></defs><g id="Слой_2" data-name="Слой 2"><g id="Слой_1-2" data-name="Слой 1"><path class="cls-1" d="M310.089,131.34037c-.82753-2.12745-1.76427-4.21144-2.76691-6.26311-2.009-4.1108-4.28065-8.08748-6.49651-12.091-1.10884-2.00308-2.20479-4.01347-3.24782-6.05107a163.26355,163.26355,0,0,0-12.033-19.36076,122.44024,122.44024,0,0,0-8.99433-11.85752,46.82244,46.82244,0,0,1,8.32852,1.16571,231.83563,231.83563,0,0,0-42.05205-33.48453l6.4959-1.95168q-4.98763-2.29508-9.90435-4.72421-8.19385-4.04789-16.17835-8.46272c-2.231-1.23328-4.6748-2.31781-6.39281-4.203-.62068-.68119.01106-1.035.1924-1.50848a60.92393,60.92393,0,0,0-9.01159-4.6759c-2.80142-1.19546-5.79634-2.01682-8.44828-3.50945-4.69663-2.64306-8.635-6.46509-13.5798-8.71919-5.00989-2.28389-10.90962-3.50177-16.37785-4.40749-11.88091-1.96816-24.04163-1.24737-36.07186-.16716-6.08826.54663-9.12059,2.31114-13.54662,4.2685C111.41134,9.13762,103.05807,7.1018,94.69524,8.443c-8.36236,1.34135-15.91588,2.40382-22.4847,11.12063-.71859.95379.73089,2.12425,1.50429,2.7504a24.68437,24.68437,0,0,0,5.00585,2.90779c4.32271,2.04951,8.85907,3.66153,13.302,5.45817,8.27412,3.34627,17.397,5.4786,25.55164,9.3421-.60714.23354-2.24317.48029-2.85.7137a44.06629,44.06629,0,0,0,17.53358,8.537q-1.34256.34817-2.68559.69613c5.37872,6.57421,14.44387,10.97924,21.6172,15.69321q-1.6089.35551-3.21766.71136c.48275-.10669,2.06468,1.78644,2.42866,2.1189A83.82267,83.82267,0,0,0,168.55132,81.026q-2.148.17625-4.29564.35238c4.30449,6.39352,10.43417,11.38928,16.39335,16.26472a127.89552,127.89552,0,0,1-19.802,32.06915c-15.37095,18.00306-35.28618,30.13186-59.1031,37.40249C69.31867,177.01292,32.35272,181.46158,0,161.06311c1.56193,7.117,3.982,12.857,9.45138,17.52626,5.65552,4.82811,16.368,7.75666,23.13994,9.84719-6.0305-1.16741-16.28967-1.65378-22.32017-2.8212,2.36456,2.71737,4.34674,5.75641,6.62419,8.57178,3.50689,4.335,6.57762,8.52576,11.28814,11.38665,3.89739,2.36692,8.2006,3.11548,12.40408,4.27447A114.00833,114.00833,0,0,0,58.37944,213.274q1.0283.11358,2.05672.20776a15.51887,15.51887,0,0,0-2.36517.15622q-1.23162.08163-2.46369.16308-2.46342.16278-4.92718.3257-4.92715.32625-9.85456.65186c-.71332.04727-1.4263.09739-2.14.14072a49.23812,49.23812,0,0,0,6.1771,4.46158q1.79335,1.1662,3.61,2.28488,3.94476,2.42732,7.99952,4.60244a29.47738,29.47738,0,0,0,6.17884,2.875,29.4072,29.4072,0,0,0,6.1326.6939c3.40265.15732,6.80866.486,10.20868.59227q9.42938.29562,18.78951-.31567,2.75742-.17994,5.50411-.43939a183.33415,183.33415,0,0,0-20.535,6.85141c2.77542.83836,5.53952,1.73887,8.32061,2.54521,12.595,3.652,24.2928,6.8734,37.75635,4.35647a68.28731,68.28731,0,0,0,15.51134-5.14774c2.89307-1.30128,5.72613-2.73,8.5282-4.21163,2.26284-1.19634,6.19778-2.51445,7.94389-4.34067a165.56442,165.56442,0,0,1-17.07067,15.53595c.23632-.19446,1.12139-.08766,1.43677-.11232a7.82319,7.82319,0,0,1,1.53308-.08628c2.89654.35287,5.88995-.22127,8.73913-.55205,9.53473-1.10632,19.73552-2.29486,28.52775-6.49452,9.1362-4.364,16.84684-11.33415,23.53509-18.699a70.41379,70.41379,0,0,0,8.13675-10.84568c-.77574,1.9124-1.28671,4.02519-2.12673,5.91084-2.10883,4.73434-6.398,8.24671-7.09846,13.56366a6.88505,6.88505,0,0,1,1.55388-.96431,27.68249,27.68249,0,0,0,3.392-2.03815q1.934-1.20285,3.83038-2.47049a136.73621,136.73621,0,0,0,13.92614-10.66551,182.47233,182.47233,0,0,0,20.10749-21.68371,5.38687,5.38687,0,0,0,.08873.85417q.06555.65471.12337,1.31059a19.7182,19.7182,0,0,1-.65112,6.37276c-.57673,2.33-1.41087,4.35741-1.54207,6.78a50.96572,50.96572,0,0,1-3.0948,15.00767,59.71593,59.71593,0,0,1-2.97881,6.79967c2.96949-1.80635,8.59823-3.30705,11.67368-4.37125a15.25176,15.25176,0,0,0-2.14356,3.88542c-1.40657,3.00122-3.36153,5.48326-5.12011,8.26216a39.8678,39.8678,0,0,0-6.51742,17.58259c-.843,7.46923-1.25579,14.8304-2.704,22.19366a129.29136,129.29136,0,0,1-3.101,12.67645c-2.85,9.37469-7.16624,18.51044-13.76558,25.998,7.62966-4.35257,15.31981-8.74724,21.917-14.48947,6.59727-5.74191,12.10642-13.00451,14.16806-21.2814a98.59357,98.59357,0,0,1-4.89583,17.05691q-1.04817,2.6031-2.27753,5.13772c-.0124.8174,1.34722.54011,1.994-.00458,12.43182-10.478,18.88244-17.14284,23.65131-32.29985q-2.265,10.24767-4.5295,20.49552c-3.22155,14.57679-6.49474,29.305-13.0631,42.881,5.91115-4.19946,10.71792-9.67165,15.46263-15.087,4.11174-4.69257,8.35241-9.62286,9.88348-15.54251a90.73967,90.73967,0,0,1-.72574,10.08916A34.45786,34.45786,0,0,0,292.02915,294.492a53.15825,53.15825,0,0,0,2.50843-18.95276c1.57757,7.16253.87388,14.59333.27244,21.88555-.61344,7.43949.05414,14.95317-1.40016,22.34509-1.60091,8.13757-6.1439,15.62276-10.6872,22.60671,1.8134-2.78772,5.25346-5.28141,7.67137-7.59968,2.70122-2.59006,5.41734-5.167,8.04036-7.832a76.67361,76.67361,0,0,0,13.33212-17.30823,18.65572,18.65572,0,0,0,1.13,3.6108,13.10012,13.10012,0,0,1,.50142,6.63794c-.90831,5.76369-4.15339,10.90382-6.09753,16.3764.1842-.51856,3.88262-2.27487,4.54819-2.83554a39.41729,39.41729,0,0,0,3.83007-3.894c2.49974-2.77857,5.27344-5.34922,7.38207-8.4328a32.63109,32.63109,0,0,0,4.17675-9.03047,43.03855,43.03855,0,0,0,1.67406-9.98683c.39461-6.83083.76276-13.76307.71466-20.6-.0529-7.52018-1.1887-15.22586-1.78589-22.73837a101.1415,101.1415,0,0,1,6.84877,12.22456c-.61942-1.31108-.05305-4.59237-.18-6.1207-.17812-2.14445-.47139-4.27981-.81284-6.407-.62847-3.91519-1.49256-7.8003-2.27719-11.66072a117.285,117.285,0,0,1-1.901-16.40289c-.47-7.87617-1.00644-15.85-2.96253-23.54852q-.27983-1.10167-.5999-2.19193a9.551,9.551,0,0,0-.65141-2.08117,58.654,58.654,0,0,0,5.91212,8.23483q-.61517-2.15018-1.246-4.29528-2.62889-8.9391-5.53228-17.79189-1.45126-4.42591-2.97084-8.8286a5.70175,5.70175,0,0,1-.40453-1.71294,10.09016,10.09016,0,0,0-.529-2.24222q-.7296-2.655-1.51481-5.29393-3.20519-10.77019-7.35749-21.22261c-.61637-1.54675-1.25537-3.08568-1.90434-4.62031a12.87764,12.87764,0,0,1-.28939-3.04616q-.19628-1.68789-.4697-3.36359a45.22182,45.22182,0,0,0-2.5933-10.53889,7.62988,7.62988,0,0,1,1.76933,1.47641C308.74077,129.83146,309.80857,130.61913,310.089,131.34037ZM146.89738,10.95244a12.01046,12.01046,0,0,1-1.88038.23631,15.92178,15.92178,0,0,1-3.86156,2.00453,14.96546,14.96546,0,0,1-4.42485.64862,13.50736,13.50736,0,0,1-2.22259-.24727c-.363-.05744-.73131-.17007-1.07114-.2597-.34-.08918-.68982-.22477-.99817-.31752-1.33629-.40187-2.53472-.70887-3.9228-1.03671-.49-.116-1.25131-.28317-1.78206-.41659.46944-.34672.98755-.69737,1.45744-1.03012.04151-.029.03317-.02648.0498-.03564A19.35447,19.35447,0,0,1,133.51519,8.177,11.6882,11.6882,0,0,1,136.415,8.0053a15.16242,15.16242,0,0,1,2.795.40931c1.75167.38987,3.36218.95489,5.09311,1.30009a14.1193,14.1193,0,0,0,5.10546.07294A7.34828,7.34828,0,0,1,146.89738,10.95244Z"/></g></g></svg>