<svg xmlns="http://www.w3.org/2000/svg" viewBox="0 0 293.522 1489.86102"><defs><style>.cls-1{fill:#24373e;}</style></defs><g id="Слой_2" data-name="Слой 2"><g id="Слой_1-2" data-name="Слой 1"><path class="cls-1" d="M231.47133,941.48316a4.22858,4.22858,0,0,0,.04535.69189,3.64109,3.64109,0,0,0,.07143-.68575q.0746-3.895.14964-7.80667a5.00746,5.00746,0,0,0-.29337-2.49939c.09816,3.14922.08786,3.19391.03856,7.28785C231.47922,939.47059,231.47527,940.48717,231.47133,941.48316Z"/><path class="cls-1" d="M232.11239,911.62277l.03155-.47894-.00986-.4912c-.01884.21033-.0425.411-.05368.63537A3.03138,3.03138,0,0,0,232.11239,911.62277Z"/><path class="cls-1" d="M54.6664,843.83241c.07756-1.72512.007-1.90215-.93727-2.79429a45.06556,45.06556,0,0,1,.12159,8.13881c-.039,1.116-.04228,2.25138-.0379,3.36349.00175.30366.10231.81151.14964.77295a1.57751,1.57751,0,0,0,.236-.76507Q54.43174,848.20045,54.6664,843.83241Z"/><path class="cls-1" d="M55.79625,818.66715l-.03264-.54861a6.88551,6.88551,0,0,0-.15205.709,1.3782,1.3782,0,0,0,.09574.37421Z"/><path class="cls-1" d="M273.19355,264.81c.84415-.60951.85927-.613,2.00534-1.33164.27759-.17877.55934-.36062.83627-.539a.93781.93781,0,0,0,.179-.14372.80625.80625,0,0,0-.20924.09377l-2.20033,1.34653C273.37013,264.50417,273.332,264.54141,273.19355,264.81Z"/><path class="cls-1" d="M285.056,257.21675c-.0425.02805-.08588.05653-.1286.085l-.00416.00263.03395-.02191C284.99008,257.26057,285.02338,257.23823,285.056,257.21675Z"/><path class="cls-1" d="M285.643,256.82677c-.06748.0447-.1744.11524-.24626.163-.11568.07668-.22763.15161-.34069.227.101-.067.20113-.1332.3052-.202C285.56191,256.88111,285.75208,256.754,285.643,256.82677Z"/><path class="cls-1" d="M267.51623,268.13539a.65766.65766,0,0,0,.08391-.07362l-.14109.07318-.13321.0929Z"/><path class="cls-1" d="M267.90578,1307.7863c-.40138-.33477-.45-.35931-.75368-.40926.86563.62221.87418.63536,1.94422,1.51348.26378.2112.53195.42591.79508.63712a.95687.95687,0,0,0,.1974.12707.85769.85769,0,0,0-.15972-.17177Z"/><path class="cls-1" d="M278.374,1316.41674c-.03922-.03067-.07887-.06222-.11831-.09289l-.00548-.00438.034.02716C278.31415,1316.36942,278.34416,1316.39308,278.374,1316.41674Z"/><path class="cls-1" d="M278.94929,1316.86457c-.06507-.05083-.16848-.13234-.23815-.18667-.11458-.08851-.22544-.1744-.33718-.26116.09969.07712.1985.15512.301.23487C278.8702,1316.80322,279.05533,1316.94694,278.94929,1316.86457Z"/><path class="cls-1" d="M262.07466,1302.95314a.69027.69027,0,0,0,.09881.05784l-.11721-.113-.13343-.099C261.97322,1302.84973,262.02208,1302.89969,262.07466,1302.95314Z"/><path class="cls-1" d="M275.54615,179.10676a.94788.94788,0,0,0,.179-.14372.80625.80625,0,0,0-.20924.09377l-2.20033,1.34653c-.43446.26817-.47258.30542-.61105.574.84416-.60951.85928-.61345,2.00535-1.33164C274.98746,179.467,275.26922,179.2851,275.54615,179.10676Z"/><path class="cls-1" d="M284.54883,173.39593l-.11042.07317-.00373.00263.03352-.02191Z"/><path class="cls-1" d="M285.154,172.99367c-.06748.04514-.1744.11568-.24626.163-.12181.08106-.2399.15993-.35887.23925.10692-.07055.21317-.1411.32338-.21384C285.07289,173.048,285.26307,172.92094,285.154,172.99367Z"/><path class="cls-1" d="M267.11113,184.22911l-.14109.07318-.13321.0929.19039-.09246A.65766.65766,0,0,0,267.11113,184.22911Z"/><path class="cls-1" d="M128.68925,1003.22265c-.66517-.65639-.78391-.66384-1.76216-.2502a13.23158,13.23158,0,0,1,3.45223,2.72374c.4373.41584.90594.81152,1.36975,1.19317.12708.10342.40247.20245.41693.15293a.63537.63537,0,0,0-.16519-.44519Q130.34875,1004.91316,128.68925,1003.22265Z"/><path class="cls-1" d="M118.73658,993.48448a2.3589,2.3589,0,0,0,.19565.3615c.03133.04119.14241.03856.21712.05609l-.16432-.25283Z"/><path class="cls-1" d="M293.37032,446.36354l-.29139-.26379q-5.61641-5.086-11.27466-10.10624c-4.118-3.39285-8.35307-6.76861-12.481-10.0896l-13.81919-10.98742c-8.27573-6.5631-16.69037-12.93209-25.01036-19.44129-8.32153-6.51052-16.52365-13.19324-24.88834-19.649a193.08066,193.08066,0,0,1-15.16484-12.90491,156.30414,156.30414,0,0,0-22.32563-17.774,22.94415,22.94415,0,0,0-4.56016-2.311c1.92866-1.0604,3.85338-2.12737,5.80526-3.14571,3.39153-1.772,6.72194-3.64831,10.039-5.543,2.26891-1.29658,4.51307-2.63435,6.75152-3.98089q2.06615-1.24224,4.10928-2.52393c1.81539-1.138,3.63122-2.27505,5.41769-3.46121,1.45235-.96444,2.867-1.99329,4.30229-2.98621,1.37962-.95436,2.79692-1.85,4.13864-2.86177l16.09642-12.19944c.37464-.28438.72716-.60207,1.09217-.90134.83386-.68488,1.659-1.38247,2.50925-2.04369l4.64517-3.55278,3.40183-2.52043c1.076-.80275,2.08378-1.708,3.21868-2.42446a2.18837,2.18837,0,0,0,.45154-.39656,13.69606,13.69606,0,0,1,1.69292-1.421,18.32,18.32,0,0,0,1.8625-1.52575,8.98693,8.98693,0,0,1,3.02521-2.16856,3.48776,3.48776,0,0,0,.647-.4246l1.27883-.98723,5.91569-4.5422,1.74856-1.35924a20.98957,20.98957,0,0,0,1.72929-1.36363A14.46471,14.46471,0,0,1,255.2044,279.26c.21405-.15819.41517-.33477.62441-.50128.884-.70548,1.7582-1.44118,2.66349-2.09539q1.94782-1.43877,3.8869-2.87054c.53787-.40269,1.13577-.7953,1.60725-1.20193a24.55918,24.55918,0,0,1,2.19858-1.66334c.161-.11.32119-.23969.47872-.3615q.95009-.73089,1.90018-1.46178c.63887-.47981,1.30074-.94779,1.89382-1.44206.60951-.50391,1.31367-.90178,1.94575-1.39561.25524-.19806.56548-.40576.7964-.59374.8963-.72563,1.8993-1.41664,2.87207-2.11817l1.78691-1.28432,1.94443-1.38684,2.7737-1.946.26378-.1893c-.009-.0241.04711-.06879.3821-.29051.46863-.31681.85643-.57884,1.30293-.88031.1801-.12357.30235-.20726.39744-.273-.21055.13759-.38363.2502-.68138.44388-.88644.57972-1.76478,1.15417-2.644,1.72907-.6139.404-1.22976.80976-1.83621,1.20894-.49361.33609-.95874.64107-1.4793.97365-.97255.62441-2.0071,1.24969-2.90756,1.94334a3.9077,3.9077,0,0,1-.75411.45746,2.80893,2.80893,0,0,0-.58914.34748,9.69462,9.69462,0,0,1-.96444.64106c-.5543.33083-1.11364.688-1.66794,1.06434-.15008.1021-.31988.19587-.489.298-.03878-.12269.63339-.58848.64566-.72125-.349.14153-.75017.46491-1.11189.65245a8.51562,8.51562,0,0,0-1.29045.76639c.0436.03111.14.03154.10582.10384a2.52451,2.52451,0,0,1-.41518.31111c-.39261.24407-.8034.5026-1.18243.7046-.682.36106-1.33251.86892-2.02265,1.20588a6.89858,6.89858,0,0,0-.64.44256,22.383,22.383,0,0,1-3.02806,1.69446,7.01193,7.01193,0,0,0-1.82218,1.00738,5.00577,5.00577,0,0,1-1.17345.68707,4.14587,4.14587,0,0,0-1.1246.73877,3.27721,3.27721,0,0,1-.80516.66736c-.13518.05871-.4292.20156-.69627.29489a3.68432,3.68432,0,0,0-.849.40357,10.66866,10.66866,0,0,1-2.261,1.12569,3.12963,3.12963,0,0,0-1.021.55649c-.48923.44257-1.15965.63493-1.66159,1.06829a7.574,7.574,0,0,1-1.73958.85972,5.23,5.23,0,0,0-.52933.27649c-1.21442.84219-2.55986,1.418-3.81679,2.17207a43.20618,43.20618,0,0,0-3.822,2.21458,3.34316,3.34316,0,0,1-.537.24143,35.56651,35.56651,0,0,0-3.37094,1.79918c-.22719.142-.45352.29052-.69013.41365q-3.58938,1.82919-7.17809,3.65751-3.77769,1.9245-7.56062,3.85162l-7.90219,4.09c-.6599.33915-1.29461.72651-1.96766,1.03762-3.25811,1.50121-6.39768,3.20837-9.51645,4.9405-5.18063,2.874-10.349,5.76912-15.45076,8.7619-3.07166,1.80006-6.02084,3.78371-8.98142,5.74721-2.8506,1.88725-5.63284,3.87222-8.4646,5.78839-2.83241,1.917-5.726,3.74909-8.53908,5.69506a42.177,42.177,0,0,1-4.47691,2.71848q-.30169-26.32382-.60338-52.659-.07-8.38221-.13978-16.77144c1.60572-.73658,3.20552-1.48193,4.76151-2.30221,2.96759-1.56475,5.86661-3.24474,8.83946-4.79591,3.39153-1.772,6.72194-3.64831,10.039-5.543,2.26891-1.29658,4.51306-2.63435,6.75152-3.98089q2.06615-1.2429,4.10928-2.52393c1.81539-1.138,3.63122-2.275,5.41769-3.46121,1.45235-.96444,2.867-1.99329,4.30229-2.98621,1.37962-.95436,2.79692-1.85,4.13864-2.86177l16.09642-12.19988c.37464-.28394.72716-.60163,1.09217-.9009.83386-.68488,1.659-1.38247,2.50925-2.04369l4.64517-3.55278,3.40183-2.52043c1.076-.80319,2.08378-1.708,3.21867-2.4249a2.17289,2.17289,0,0,0,.45155-.39612,13.69363,13.69363,0,0,1,1.69292-1.421,18.37909,18.37909,0,0,0,1.86249-1.52576,8.98092,8.98092,0,0,1,3.02522-2.16856,3.50979,3.50979,0,0,0,.647-.4246l1.27884-.98723,5.91568-4.5422,1.74857-1.35924a20.90074,20.90074,0,0,0,1.72929-1.36406,14.50679,14.50679,0,0,1,1.77091-1.24225c.21406-.15818.41518-.33477.62441-.50128.884-.70548,1.75821-1.44118,2.6635-2.09583q1.94783-1.43811,3.8869-2.87009c.53787-.40269,1.13577-.79531,1.60725-1.20194a24.4747,24.4747,0,0,1,2.19858-1.66334c.161-.11.32119-.23969.47872-.3615q.95009-.73089,1.90018-1.46178c.63887-.48025,1.30074-.94779,1.89382-1.4425.60951-.50347,1.31367-.90134,1.94575-1.39517.25524-.19806.56547-.40576.7964-.59374.8963-.72563,1.8993-1.41664,2.87207-2.11817l1.7869-1.28431,1.94444-1.38685,2.7737-1.946.26378-.1893c-.009-.0241.04711-.06923.3821-.29051.46863-.31681.85642-.57884,1.30293-.88031.18031-.12357.30257-.2077.39787-.273-.21076.13715-.38385.24977-.68181.44388-.88644.57972-1.76478,1.15417-2.644,1.72907-.6139.404-1.22976.80976-1.83621,1.20894-.49361.33609-.95874.64107-1.4793.97321-.97255.62485-2.0071,1.25013-2.90756,1.94378a3.90745,3.90745,0,0,1-.75412.45746,2.80915,2.80915,0,0,0-.58913.34748,9.69462,9.69462,0,0,1-.96444.64106c-.5543.33083-1.11364.68751-1.66794,1.06434-.15008.1021-.31988.19587-.489.29753-.03878-.12225.6334-.588.64567-.72081-.349.1411-.75017.46491-1.11189.65245a8.51562,8.51562,0,0,0-1.29045.76639c.0436.03111.14.03154.10582.10385a2.49486,2.49486,0,0,1-.41518.31067c-.39261.2445-.8034.503-1.18243.705-.682.36106-1.33252.86892-2.02265,1.20544a6.99514,6.99514,0,0,0-.64.443A22.384,22.384,0,0,1,261.482,187.739a7.01177,7.01177,0,0,0-1.82218,1.00738,5.00583,5.00583,0,0,1-1.17346.68707,4.14584,4.14584,0,0,0-1.12459.73878,3.27723,3.27723,0,0,1-.80516.66735c-.13518.05871-.4292.20112-.69627.29489a3.68413,3.68413,0,0,0-.849.40357,10.66849,10.66849,0,0,1-2.261,1.12569,3.12968,3.12968,0,0,0-1.021.55649c-.48923.44257-1.15965.63449-1.66159,1.06785a7.558,7.558,0,0,1-1.73958.86016,5.23,5.23,0,0,0-.52933.27649c-1.21442.84219-2.55986,1.418-3.81679,2.17207a43.09757,43.09757,0,0,0-3.822,2.21458,3.34353,3.34353,0,0,1-.537.24144,35.56412,35.56412,0,0,0-3.37094,1.79917c-.2272.142-.45352.29052-.69014.41365q-3.58936,1.82919-7.17808,3.65751-3.77769,1.9245-7.56063,3.85162l-7.90218,4.09c-.6599.33915-1.29461.72651-1.96766,1.03718-3.25811,1.50165-6.39769,3.20881-9.51645,4.94094-5.18063,2.874-10.349,5.76912-15.45076,8.76147-3.07166,1.80049-6.02085,3.7837-8.98143,5.74764-2.85059,1.88725-5.63283,3.87222-8.46459,5.78839-2.83241,1.917-5.726,3.74909-8.53908,5.69506a41.624,41.624,0,0,1-4.84959,2.90734q-.06342-7.61254-.12685-15.22334c-.04053-7.70325-.15928-15.40606-.12839-23.108.04886-7.7015.184-15.40168-.13584-23.09923q-1.36318-29.02982-2.35216-58.00705c-.96181-27.80795-2.48778-55.53308-3.94671-83.16926-.76244-14.19843-1.56366-26.71687-2.00293-37.25866-.52188-11.13072-.07559-13.60689-.45725,3.20968-.20616,8.81536-.56065,18.19335-.86015,28.61333-.69781,24.64076-1.64078,49.232-2.587,73.91571q-.89094,22.55764-1.783,45.13807c-.53918,15.0485-1.55094,30.0935-1.47842,45.11922-.00745,8.57348-.19609,17.15047-.33324,25.73009q-.208,12.86876-.41606,25.74366-.3983,25.74871-.79705,51.5053-.50577,35.23317-1.0122,70.50095-.284,21.69531-.56789,43.40637-.33291,28.93714-.6656,57.88743-.14524,23.54881-.29095,47.13969-.0539,8.03912-.13715,16.076c-5.72135-5.11534-11.43153-10.24778-17.0762-15.44374q-14.24608-13.15863-28.518-26.34048l-4.87281-4.51547-2.442-2.25138L80.942,493.18642l-.30541-.28132-.15271-.14065-.07822-.0723-.15007-.12664-1.203-1.017-9.76885-8.25273-4.97885-4.20568c-1.66159-1.421-3.404-2.76362-5.11885-4.16229L46.26622,464.549l-3.28681-2.63391L41.3279,460.5922c-.101-.11962-.04776.0723-.06332.12489l-.00306.24625-.00636.49252-.0127.98679-.09553,7.9666-.12116,10.79769c-.03352,1.80488-.009,3.66584-.08917,5.44924l-.23179,5.38264-.45725,10.90943-.22281,5.52241-.05434,1.3185-.04973.67962-.09837,1.3588c-.43578,5.89268-.68423,11.79719-1.02908,17.69513-.34024,5.66789-.78851,11.334-.96641,17.00149-.62879,22.70224-.85314,45.40579-.85336,68.11022.00351,1.58579.1297,3.17157.19061,4.75779.14175,3.62684.3282,7.25236.40072,10.88183.1549,6.571.20594,13.14416.31374,19.7169l.08785,14.28782c.06288,4.53037.57358,9.05767.26423,13.59418a6.53191,6.53191,0,0,0,.21931,2.01126c.64084,2.42928.44322,4.94533.6369,7.42106.20309,2.69175-.0195,5.39709.62988,8.09455a25.567,25.567,0,0,1,.07121,12.57189,9.73328,9.73328,0,0,0-.10977,2.61595c.064,1.81539.19039,3.63035.28592,5.44574q.68158,12.573,1.43877,25.146c.14767,2.48976.3558,4.97644.553,7.464a49.91431,49.91431,0,0,0,.65377,7.41756c.64018,2.69263-.02761,4.88617.09179,7.30976.0436.89871.19784,1.79567.28942,2.69526.38341,3.80781.97847,7.64454,1.12372,11.41685.22742,5.44924.55978,10.87569.97167,16.31135a64.91061,64.91061,0,0,0,.50435,6.77343,51.23764,51.23764,0,0,1,.82488,9.30042,19.79424,19.79424,0,0,0,.18469,2.02353c.30651,2.69526.63362,5.37957.88513,8.084.25568,2.69658.37465,5.43522.86081,8.02926.48923,2.65845.12488,5.38658.491,8.08929.14372,1.08932.15073,2.35129.32841,3.35209.67283,3.88143.81722,7.99859,1.12263,12.04959q.28328,3.72411.56569,7.4342.29808,4.039.59549,8.06914.35854,5.72485.71709,11.45059c.02235.38735.06638.73308.09815,1.09764.1893.02016.239.2616.24977,1.61909.02037,1.33207.0769,2.5121.12028,3.72411-2.0943,1.3128-4.205,2.60412-6.19284,4.04925q-3.7182,2.71257-7.39236,5.47947l-3.6643,2.77983-.91208.69978-1.67429,1.315-3.8444,3.03223-7.67959,6.05919-.959.75674-.241.18929-.29972.19061-.59943.38122-2.39664,1.52444-4.79,3.04668-9.566,6.08636L.03423,922.00112c-.0975.03068.04185.06485.06551.09772l.14832.099.29621.19762.59286.39568,1.18507.79135,4.73763,3.16368c1.767,1.17959,3.70746,2.33376,5.53315,3.48925l6.24366,3.93313c.505.32513,1.0523.65158,1.51765.975l1.22888.96357,2.42184,1.932,8.60262,7.01355c1.74528,1.44293,2.04346,1.65457,2.81642,2.27416l2.0875,1.65371,5.981,4.87609c1.91,1.53014,4.12834,2.69176,5.80724,4.501a2.01247,2.01247,0,0,0,.9732.5302c1.41708.35449,2.332,1.37721,3.48662,2.08137,1.24992.77252,2.2286,1.87849,3.76465,2.31623a7.73545,7.73545,0,0,1,5.25775,4.29639,2.88743,2.88743,0,0,0,1.01373.98941c.79355.57928,1.62741,1.11036,2.44156,1.666,3.76749,2.55329,7.54244,5.09826,11.35134,7.602,1.12722.74886,2.29213,1.45039,3.45047,2.16068a15.06229,15.06229,0,0,0,3.49626,2.06691c1.5286.44212,2.00753,1.712,3.0894,2.45952.4005.2778.87155.47017,1.3036.71161a56.8639,56.8639,0,0,1,5.4569,3.09181c2.40563,1.712,4.86931,3.33589,7.388,4.90195a19.35378,19.35378,0,0,0,3.13279,1.95824,15.49123,15.49123,0,0,1,4.38708,2.58791,5.94465,5.94465,0,0,0,.95787.55955c1.31477.698,2.6383,1.37721,3.92151,2.12037a27.58264,27.58264,0,0,0,3.88318,2.1208c1.4173.546,2.31338,1.76851,3.66978,2.424.544.26685,1.07179.69846,1.60112.90879a38.64853,38.64853,0,0,1,5.7185,3.31179q1.72634,1.072,3.44652,2.14052l3.47939,2.18565.06244,9.984q.21362,33.48154.42745,66.96176.10451,9.94455.2088,19.87464c.07383,6.6262-.09334,13.73221.29424,19.75065.46162,7.1656-.21274,13.01358-.209,19.46845.00154,2.39248.10276,4.7797.14877,7.17524.19455,10.13823.56481,20.35183.54159,30.39761-.0333,14.51217.01643,28.96211.14241,43.43529.05236,6.03771-.16388,12.47812.15051,18.036.47,8.31145.52867,16.367.35143,24.76345-.03659,1.75536.03286,3.60142.06112,5.38877.10867,7.17568.13781,14.322.47828,21.52222.34616,7.18006.57928,14.47317,1.2624,21.37805.68466,7.07577.23794,14.34522.76222,21.54018.20135,2.89989.22632,6.26163.47346,8.92578.93661,10.33059,1.16337,21.29568,1.60221,32.08286q.40225,9.91694.80275,19.79533c.27255,7.16955.54466,14.31893.81721,21.48585q.48771,15.24349.9754,30.49137c.04513,1.03061.08544,1.95167.12795,2.92268.23311.05171.29555.69408.31615,4.31.0815,5.06889.14942,9.30437.22741,14.15592.03111,2.3434.08194,3.90947.10823,4.37131.0022-2.254.004-4.026.00723-7.35182-.0471-9.53836-.076-19.00574-.02278-28.44507.03593-6.61042.044-13.2892-.07822-19.798-.10231-5.3765-.11042-10.384-.055-15.94459.078-10.40859.43139-21.28516-.321-31.48868a37.43741,37.43741,0,0,1,.24955-7.93724,26.90933,26.90933,0,0,0,.2594-6.15384,94.26807,94.26807,0,0,1-.0804-10.42874c.21536-5.8068.27057-11.7801.1676-17.81388-.02826-1.63442.09027-3.37576.147-5.15215,1.00979.30848,1.20325,7.6717,2.06384,8.41749.58782-3.32844.1538-7.946.48091-11.59607a85.149,85.149,0,0,0,.48244-13.50216c-.40248.17528-.82773.9-1.16864.28658a25.27041,25.27041,0,0,1-.27518-4.66052c.07428-4.16185.14219-8.53316.41409-12.38566.4958-6.92066-.177-14.32463.41583-21.18526.14811-1.73389-.1641-4.61888-.2272-7.00435a310.80087,310.80087,0,0,1,1.10159-31.17143,97.44907,97.44907,0,0,0,.65881-17.60968c.96379,1.01044,1.9383,2.00862,2.94678,2.96781,2.48756,2.36618,5.0632,4.63071,7.53981,7.00654,2.82759,2.70928,5.73515,5.32742,8.65542,7.92716,1.99811,1.77814,4.02777,3.51948,6.06335,5.25293q1.87915,1.59981,3.78721,3.16587c1.69533,1.39167,3.38978,2.78421,5.12148,4.13294,1.4081,1.09633,2.86484,2.137,4.29485,3.20837,1.37392,1.02973,2.70424,2.11379,4.12067,3.08963l17.05209,11.68545c.39722.27167.81919.51224,1.22757.76989.934.58935,1.8774,1.16556,2.79429,1.77771l4.95169,3.36261,3.548,2.48756c1.1281.78479,2.33113,1.47273,3.39592,2.34121a2.3049,2.3049,0,0,0,.5302.31111,14.296,14.296,0,0,1,1.92559,1.18616,19.21027,19.21027,0,0,0,2.08268,1.31674,9.41214,9.41214,0,0,1,3.08568,2.23473,3.64938,3.64938,0,0,0,.62244.48989l1.37195.92281,6.323,4.2771,1.88506,1.25846a22.12006,22.12006,0,0,0,1.88287,1.23918,15.13923,15.13923,0,0,1,1.78034,1.3163c.223.15687.45943.29534.68838.44432.97036.631,1.96678,1.24269,2.89551,1.9096q2.027,1.42629,4.04508,2.84556c.565.39261,1.14037.84481,1.68723,1.1717a25.69238,25.69238,0,0,1,2.32609,1.59761c.15928.12006.33674.234.5061.34792.67787.45746,1.35376.91317,2.0336,1.37239.67283.46535,1.34172.95611,2.0128,1.37239.68575.43029,1.30184.98328,1.9854,1.43723.275.184.57731.418.83408.581.994.63712,1.99045,1.38641,2.98644,2.10328l1.82612,1.31893,1.97664,1.439,2.78838,2.06209c.09246.0666.17965.1297.26948.19455.02038-.01577.08172.02366.40576.27693.45921.3523.83978.64413,1.2773.9789.17878.135.29972.227.39261.29622-.2009-.1595-.36632-.29008-.65092-.51531-.85073-.67217-1.69379-1.33821-2.53729-2.00512-.59243-.46447-1.18529-.92982-1.77048-1.389-.48638-.3707-.93355-.723-1.42541-1.12-.92259-.74053-1.866-1.54153-2.83088-2.19179a4.04549,4.04549,0,0,1-.68926-.58279,2.9449,2.9449,0,0,0-.52954-.45746,10.327,10.327,0,0,1-.93552-.72826c-.50172-.43029-1.02973-.85708-1.57549-1.27248-.14788-.113-.294-.24714-.448-.37771.10429-.07537.77471.42591.90616.397-.252-.29183-.69561-.57665-.99555-.86673a9.00242,9.00242,0,0,0-1.16447-1.00168c-.01534.05083.01665.14372-.06419.13321a2.6095,2.6095,0,0,1-.43621-.30235c-.36479-.30147-.74952-.61608-1.06939-.91755-.57314-.54335-1.27642-1.01133-1.829-1.56957a7.33178,7.33178,0,0,0-.63734-.47762,23.41914,23.41914,0,0,1-2.63238-2.38459,7.34053,7.34053,0,0,0-1.5722-1.43812,5.22771,5.22771,0,0,1-1.04945-.91492,4.33426,4.33426,0,0,0-1.08253-.85095,3.44442,3.44442,0,0,1-.90747-.567c-.10122-.11218-.33609-.35055-.51465-.57753a3.87214,3.87214,0,0,0-.66932-.69057,11.16738,11.16738,0,0,1-1.83183-1.82372,3.29269,3.29269,0,0,0-.87329-.808c-.58717-.333-.99446-.91755-1.577-1.26547a7.937,7.937,0,0,1-1.4035-1.40481,5.455,5.455,0,0,0-.44125-.42329c-1.21158-.90572-2.21151-2.02-3.35254-2.99366a45.17838,45.17838,0,0,0-3.39526-2.98578,3.55581,3.55581,0,0,1-.41035-.44125,37.2354,37.2354,0,0,0-2.84644-2.68124c-.21186-.174-.42985-.34528-.6266-.53458l-5.89553-5.763q-3.10233-3.03265-6.209-6.07014l-6.55127-6.32429c-.54466-.52889-1.12723-1.01878-1.64954-1.56913-2.52393-2.665-5.20539-5.15215-7.90416-7.61211-4.47954-4.08649-8.97529-8.15458-13.54225-12.1289-2.74806-2.39335-5.63109-4.61231-8.49921-6.84835-2.75792-2.15411-5.58639-4.21225-8.36622-6.33919-2.78027-2.12738-5.49963-4.33932-8.30137-6.43953a42.47215,42.47215,0,0,1-4.98345-4.32881,34.402,34.402,0,0,0-7.43486-5.841,6.008,6.008,0,0,0-4.68571-.48244c.02695-.33959.044-.67875.07493-1.01921a65.19512,65.19512,0,0,0-.19565-12.11663,50.94473,50.94473,0,0,1-.70679-9.3552c.10692-1.308.27474-4.22758.56723-6.70156a60.221,60.221,0,0,0,.4866-8.38769,197.6899,197.6899,0,0,1,.98613-22.59007,57.8824,57.8824,0,0,0,.22983-10.43707,111.197,111.197,0,0,1-.0826-11.522l.40335.29665q.57807.42525,1.14081.8676a38.75826,38.75826,0,0,1,4.21926,3.84461,16.43926,16.43926,0,0,0,1.82174,1.52619l3.95,2.98665,18.21459,13.82291,5.42361,4.08211c1.80728,1.36187,3.66912,2.91348,5.40936,4.0326,2.06888,1.33733,3.43491,2.81138,5.17581,4.16186.64457.50128,1.31652.96706,1.97424,1.45432,2.78487,2.06034,5.62933,4.09,8.32043,6.213q5.83364,4.59764,11.69816,9.10544c1.63179,1.25846,3.31573,2.669,4.87346,3.7618,2.32807,1.63573,4.49313,3.32975,6.71077,5.14163.4636.379.97255.75192,1.45959,1.12,1.953,1.47974,3.89807,2.95379,5.8574,4.43879,1.94225,1.49508,3.88515,3.04975,5.80329,4.42739,1.96109,1.41709,3.79226,3.09138,5.75838,4.5663.79092.59637,1.67408,1.32726,2.40957,1.86447,2.84862,2.08663,5.75049,4.44624,8.63811,6.7283q2.65243,2.10065,5.29522,4.193,2.871,2.2847,5.736,4.56412,4.05208,3.25875,8.10572,6.518c.27474.21778.52187.41365.7815.61959.046-.02717.22259.10341,1.16973.893,1.33558,1.0994,2.44987,2.01651,3.72762,3.06859.59987.48857.99292.80932,1.14935.93684-.585-.493-1.0512-.8847-1.912-1.60945q-3.73694-3.13782-7.42939-6.23884c-1.72052-1.45652-3.46295-2.924-5.17975-4.331-1.41862-1.16206-2.72725-2.25927-4.17085-3.48925-2.70665-2.29695-5.49174-4.74858-8.27-6.85142a18.368,18.368,0,0,1-2.03426-1.78647,13.1085,13.1085,0,0,0-1.56694-1.39781c-.95151-.723-1.80071-1.446-2.73492-2.27416-1.48259-1.31367-3.0331-2.63523-4.62436-3.94058-.43117-.35317-.86694-.75762-1.32177-1.15812.24012-.12181,2.19135,1.45915,2.52042,1.4631-.77558-.84131-2.04784-1.77552-2.94787-2.63874a40.18611,40.18611,0,0,0-3.44346-3.06071c-.0184.11525.10275.35537-.11152.28526a11.80123,11.80123,0,0,1-1.25977-.97189c-1.07333-.92894-2.20428-1.9004-3.16127-2.80349-1.71592-1.627-3.73857-3.14527-5.40695-4.79678-.42066-.41847-1.22538-.9903-1.85549-1.50516a104.75128,104.75128,0,0,1-7.83383-7.202,32.81914,32.81914,0,0,0-4.68548-4.33713,23.5113,23.5113,0,0,1-3.10781-2.78465,19.4544,19.4544,0,0,0-3.16828-2.65276,15.19864,15.19864,0,0,1-2.5947-1.87192c-.30958-.32469-1.019-1.02841-1.5779-1.67473a17.07824,17.07824,0,0,0-2.02725-2.034,49.59161,49.59161,0,0,1-5.52-5.4063,14.64359,14.64359,0,0,0-2.60631-2.43148c-1.66444-1.12919-2.9665-2.761-4.62546-3.92436-1.76653-1.22823-2.77874-2.77019-4.23241-4.16011-.44322-.4224-.87045-.89564-1.32309-1.26328-3.52584-2.85563-6.58829-6.092-9.95967-9.07125-3.39482-2.98008-6.45049-6.302-10.06725-9.07564a15.52392,15.52392,0,0,1-1.24991-1.28913c-1.37677-1.36845-2.76055-2.73383-4.17216-4.079q-1.06839-.99774-2.14162-2.0003l-1.09173-.9846-.55233-.48769-.2778-.24232-.12489-.10648-.05586-.03593a6.44065,6.44065,0,0,1-.732-.50654,5.66177,5.66177,0,0,1-1.21749-1.37019l-.11415-.16126c-.01226-.02629-.05148-.05345-.041-.07887l.12489-.07055.48945-.27255a8.81185,8.81185,0,0,0,.8952-.51442l.64786-.52407.15073-.12269.08676-.06923.30936-.22961,1.23743-.91931,4.94971-3.68029q10.40169-7.75518,20.82156-15.52437,10.8792-8.18373,21.77285-16.378c1.8178-1.36187,3.57711-2.8162,5.42536-4.12329,8.944-6.31553,17.60925-13.01666,26.22392-19.75941l21.42515-16.83585,5.435-4.313,10.60227-8.7803,2.64312-2.19179c.42021-.36632.92478-.72826,1.27555-1.09765l1.0444-1.10772,4.17063-4.42652,4.15747-4.41732,2.07348-2.2045.25875-.27518.12948-.13759.06464-.06923c.0092-.01139.02563-.02278.02848-.03418l-.03615-.03286-.5795-.52538-1.159-1.05032-5.5934-5.04217-2.80262-2.50684c-.932-.83387-1.8408-1.662-2.92574-2.51342l-12.42862-10.023-12.95048-10.29247c-7.84763-6.22307-15.81927-12.27262-23.71686-18.433-.0035-.71993-.00547-1.44293-.01446-2.15367-.02344-1.8075-.02563-3.49144-.01336-5.36072.01687-3.49977.101-7.15684-.0769-10.58737a17.79341,17.79341,0,0,1,.05828-2.66853,12.77524,12.77524,0,0,0,.06156-2.0691c-.05893-1.17652-.05214-2.27592-.0195-3.50634.05171-1.9521.06573-3.96029.04053-5.98908-.00679-.54948.02213-1.13489.03615-1.73257.24758.10385.29315,2.57958.50194,2.83022.14482-1.11912.04119-2.6716.12291-3.89851a39.14875,39.14875,0,0,0,.12686-4.54c-.10013.05915-.20573.30278-.29008.0964a11.47758,11.47758,0,0,1-.06682-1.56694c.02037-1.39912.03615-2.86878.11173-4.16405.14088-2.32675.00154-4.81651.19215-7.1231.04973-.58278-.03046-1.55292-.04207-2.35479a101.82148,101.82148,0,0,1,.47192-10.48045,31.92982,31.92982,0,0,0,.30454-6.28705,22.86255,22.86255,0,0,1,.13167-4.1119,18.91045,18.91045,0,0,0-.0081-4.07379,14.76315,14.76315,0,0,1-.23728-3.14527c.04952-.43994.13168-1.42147.26664-2.25314a16.61336,16.61336,0,0,0,.25261-2.82014,48.21562,48.21562,0,0,1,.58585-7.595,14.22427,14.22427,0,0,0,.184-3.5094c-.2066-1.9727.20442-3.99009.02739-5.97988-.19652-2.11248.33236-3.85426.461-5.83309.0379-.6025.1251-1.22472.11546-1.8-.083-4.47209.42328-8.836.53436-13.27036.0964-4.45194.67261-8.86488.46864-13.35406a15.08957,15.08957,0,0,1,.18228-1.761c.32251-3.81438.62047-7.64059.67174-11.52289.01051-.81108.00854-1.63135.06112-2.435q.86038-12.126,1.72053-24.24947.906-12.75964,1.81342-25.5421.89324-13.39129,1.78734-26.80144c.15337-2.23385.1985-4.48392.41343-6.70507,1.0466-10.74467,1.6193-21.52879,2.12716-32.30238.74754-15.75091,1.44731-31.50446,1.99154-47.25362,1.074.86848,2.14446,1.75142,3.25613,2.57477.799.59505,1.69248,1.32462,2.43564,1.86052,2.87842,2.0818,5.81293,4.43747,8.73254,6.71471q2.682,2.096,5.35372,4.18464,2.90285,2.28009,5.79978,4.55535,4.09744,3.2522,8.19643,6.5057c.2778.21734.52735.41277.79.61827.04579-.0276.22435.103,1.18244.89127,1.35047,1.09721,2.47748,2.013,3.76968,3.06289.60688.48814,1.00432.808,1.16228.93465-.59177-.49164-1.063-.88294-1.93392-1.60638q-3.78-3.13257-7.51483-6.22789c-1.74046-1.45389-3.503-2.91874-5.23935-4.32355-1.43461-1.15987-2.75814-2.25532-4.2186-3.48311-2.738-2.293-5.55638-4.74114-8.36425-6.83959a18.56064,18.56064,0,0,1-2.05858-1.78385,13.28694,13.28694,0,0,0-1.58579-1.39561c-.96181-.72125-1.82086-1.44293-2.76624-2.26978-1.50012-1.31192-3.0686-2.63173-4.678-3.93445-.436-.35273-.87724-.7563-1.33733-1.15636.23946-.12269,2.21282,1.45521,2.54321,1.45783-.78654-.84043-2.07217-1.77244-2.98359-2.63523-.14832-.14065-.29818-.28131-.44716-.422.04119-1.233.08939-2.46609.12816-3.6987.34244-10.76614.24385-21.52484.19127-32.28047-.04513-10.34987-.3282-20.68748-.44256-31.03823-.11481-10.3525-.02038-20.71946-.20441-31.07153a185.303,185.303,0,0,1,.60359-19.50307,150.09019,150.09019,0,0,0-.06748-27.96306,22.90882,22.90882,0,0,0-.59242-3.39285l14.43965-11.1535,5.40564-4.21049,10.15247-8.24485c1.77683-1.45652,3.5931-2.91,5.33093-4.366l4.23547-4.41469,4.22255-4.40505,2.10591-2.1988,1.05142-1.09808.52538-.54905c.02716-.04513.12444-.092.09421-.13627ZM275.12023,264.07606a2.25884,2.25884,0,0,1,.20288-.11261c-.03856.03155-.07668.06748-.1159.09421-.14832.09859-.29577.19718-.61608.411C274.87376,264.25879,274.99689,264.16765,275.12023,264.07606Zm-10.50148,6.411.32141-.2055c-.00307.0149-.00132.03768-.00986.04338l-.32754.20594C264.6078,270.516,264.60758,270.49413,264.61875,270.48711Zm-5.51913,3.37752a1.72807,1.72807,0,0,1,.65749-.54948,11.60868,11.60868,0,0,0,1.285-.57621c.03353-.01666.08633-.00658.0723.01226a1.62814,1.62814,0,0,1-.18338.19938,1.78152,1.78152,0,0,1-.18294.12094,6.95866,6.95866,0,0,0-1.13752.6989c-.291.22785-.576.33959-.5773.26554A.2646.2646,0,0,1,259.09962,273.86463Zm-5.36927,2.90734c.2605-.18535.53765-.35887,1.03082-.68181.17725-.09465.57709-.30848.9708-.51925.055-.02848.11962.01052.15446.03593.01051.00745-.05784.08632-.10013.11261l-2.00008,1.21421c-.03484.021-.11919.03067-.11809.0149C253.67185,276.896,253.6758,276.81053,253.73035,276.772Zm20.90087-96.52856a2.25643,2.25643,0,0,1,.20288-.11262c-.03856.03155-.07668.06748-.1159.09377-.1481.099-.29577.19762-.61608.41146C274.38474,180.42613,274.50787,180.335,274.63122,180.24341Zm-10.50148,6.411.3214-.20551c-.00306.0149-.00131.03768-.00985.04338l-.32755.20594C264.11878,186.68294,264.11856,186.66147,264.12974,186.65446Zm-5.51913,3.37751a1.72807,1.72807,0,0,1,.65749-.54948,11.60868,11.60868,0,0,0,1.285-.57621c.03352-.01665.08632-.00658.0723.01227a1.62885,1.62885,0,0,1-.18338.19937,1.78152,1.78152,0,0,1-.18294.12094,6.95866,6.95866,0,0,0-1.13752.6989c-.291.22785-.576.33959-.57731.26554A.26467.26467,0,0,1,258.61061,190.032Zm-5.36927,2.90734c.2605-.18535.53765-.35931,1.03082-.68181.17725-.09465.57709-.30892.9708-.51925.055-.02848.11962.01052.15446.03549.01051.00789-.05784.08676-.10013.113l-2.00008,1.21421c-.03484.021-.11919.03067-.11809.0149C253.18284,193.06331,253.18678,192.97787,253.24134,192.93931ZM50.76438,848.62219a3.272,3.272,0,0,1-.09377-.50216c-.0046-.60338-.009-1.20237-.01862-2.50465.13058,1.18747.20594,1.70234.229,2.22421A4.13788,4.13788,0,0,1,50.76438,848.62219ZM268.4971,1309.00006c.06179.04645.11722.10692.17572.16038-.043-.02717-.09005-.05258-.12861-.08238-.14416-.1113-.28767-.2226-.59922-.46447C268.24011,1308.82041,268.3685,1308.9098,268.4971,1309.00006Zm-9.64089-8.10287.30366.24538c-.01512.00176-.03659.01052-.04469.00351l-.30629-.25064C258.82488,1300.89544,258.84547,1300.8893,258.85621,1300.89719Zm-5.26148-4.26615a.26964.26964,0,0,1,.18645.01052,1.80163,1.80163,0,0,1,.74557.46185,12.31051,12.31051,0,0,0,.98021,1.056c.02695.02629.03484.08062.01205.07273a1.7494,1.7494,0,0,1-.25173-.1148,1.83835,1.83835,0,0,1-.17725-.13759,7.24611,7.24611,0,0,0-1.04835-.87636C253.72641,1296.89395,253.5244,1296.65471,253.59473,1296.631Zm-4.38774-4.24686c.26422.1928.523.40488.99665.77909.14986.14022.48813.45834.82093.7712a.16.16,0,0,1,.01709.1595c-.00372.01227-.10231-.028-.14131-.06135l-1.82985-1.545c-.03177-.02717-.06924-.10516-.05346-.10867A.23212.23212,0,0,1,249.207,1292.38418Zm9.337-83.79541c.17965.14547.349.32162.52319.48331-.12335-.08983-.25612-.1779-.36874-.26992-.42175-.35011-.84043-.69715-1.751-1.45258C257.8,1208.01124,258.1698,1208.29825,258.544,1208.58877ZM230.113,1183.7184l.89193.75937c-.039-.00439-.09093.00394-.11459-.01578l-.90068-.7747C230.03124,1183.69693,230.08185,1183.69211,230.113,1183.7184Zm-15.45075-13.19982a.86525.86525,0,0,1,.489.13058,7.97209,7.97209,0,0,1,2.12979,1.52751c.88425,1.01746,1.91179,2.03448,2.98709,3.08524.0815.07975.12444.2134.062.18228a7.24547,7.24547,0,0,1-.70219-.41671c-.126-.08325-.30782-.25458-.51771-.43161a32.77538,32.77538,0,0,0-3.08985-2.69263C215.11375,1171.22406,214.48956,1170.53655,214.66221,1170.51858Zm-13.668-12.77959a.74783.74783,0,0,1,.49624.11918c.76682.61171,1.52816,1.26723,2.91457,2.431.44826.42241,1.46112,1.37721,2.45514,2.314a.42521.42521,0,0,1,.11064.39174,1.15779,1.15779,0,0,1-.393-.22654l-5.39907-4.73807C201.0849,1157.94756,200.95542,1157.73943,200.9942,1157.739Zm57.206-509.91442c.18163.145.35318.32075.52954.48244-.12466-.08983-.25874-.177-.37245-.269-.42679-.34923-.85029-.69627-1.77113-1.44994C257.44789,647.24836,257.82166,647.53449,258.20025,647.82457ZM230.56758,937.28274c.00438.22786-.02147.4671-.03308.70109-.01052-.14985-.0287-.30585-.03068-.44913-.00372-.54072-.00723-1.07662-.01511-2.24306C230.53077,936.35467,230.54918,936.81564,230.56758,937.28274ZM216.93879,612.63105c-.54028-.47674-1.11474-.9548-1.76106-1.43373-.91624-.67743-1.54941-1.36494-1.37611-1.38334a.87541.87541,0,0,1,.49186.12926,8.06308,8.06308,0,0,1,2.15191,1.524c.16213.1836.33346.3672.50435.55123C216.94645,612.22267,216.94185,612.42686,216.93879,612.63105Zm4.21772-98.94119c-.62331,10.11238-.978,20.24228-1.6296,30.3459-.73943,11.53077-1.23677,23.07907-1.68941,34.62387-.3087,7.89693-.521,15.80087-.71293,23.70349-.06879,2.839-.1056,5.67972-.15424,8.52-.49207-.44081-.96268-.897-1.41949-1.37545a19.65675,19.65675,0,0,0-3.20465-2.64838,15.40018,15.40018,0,0,1-2.62164-1.86709c-.314-.3247-1.03236-1.028-1.59937-1.67386a17.31192,17.31192,0,0,0-2.05376-2.03185,50.19464,50.19464,0,0,1-5.591-5.40017,14.81719,14.81719,0,0,0-2.6383-2.4284c-1.68131-1.12613-3.00352-2.75749-4.67935-3.9178-1.78428-1.22515-2.81467-2.76712-4.28674-4.15572-.44892-.422-.88206-.89433-1.33975-1.262-3.56549-2.85037-6.66957-6.08372-10.08126-9.05854-3.43514-2.97526-6.53309-6.2945-10.18885-9.0625a15.67383,15.67383,0,0,1-1.26656-1.28825c-2.768-2.71192-5.5612-5.412-8.55026-7.9631q-.00132-1.95144-.00131-3.90245l1.09063-.79925,5.00974-3.66189q10.52757-7.71639,21.074-15.44681,11.012-8.143,22.03839-16.29689c1.83993-1.35486,3.62246-2.80349,5.49218-4.10314,3.24168-2.25051,6.43932-4.5628,9.62074-6.89656C221.5397,508.323,221.32214,511.00467,221.15651,513.68986Zm-15.14512,88.60885a1.17015,1.17015,0,0,1-.39634-.22567l-5.46348-4.731c-.09487-.08238-.22676-.29052-.18776-.291a.75547.75547,0,0,1,.49931.11744c.77514.61038,1.54547,1.265,2.94787,2.42665.45374.422,1.47931,1.37546,2.48559,2.31141A.42719.42719,0,0,1,206.01139,602.29871Zm-59.56655,609.34244c-.01643-.59462-.03812-1.19624-.06945-1.811-.16914-3.31617.15621-6.01494.48091-5.66088a2.69682,2.69682,0,0,1,.565,1.34434,40.23428,40.23428,0,0,1,.60228,4.175A5.906,5.906,0,0,0,146.44484,1211.64115ZM66.59285,508.1245a.88483.88483,0,0,1,.35581-.49471,9.65914,9.65914,0,0,0,.40356,1.24006l.15271.34616.04163.08808.02147.04425.01073.02235c.00548.00833.06727.04426.09816.06485l.75586.48244a4.67489,4.67489,0,0,1-.92259.06617c-.12532.02322-.1365-.08589-.19587-.14548l-.15183-.2226q-.15346-.2353-.31308-.52187c-.10275-.18886-.22063-.40751-.314-.62222A1.48064,1.48064,0,0,1,66.59285,508.1245Zm-10.537,255.57527c.00657-.13759.191-.393.25348-.36063.20683.10823.54839.27869.56307.50479.07077,1.07924.05083,2.18522.07142,4.17807-.07756.677-.23574,2.20669-.45242,3.70659-.03.2077-.37158.31768-.57358.36895-.06113.01533-.20792-.32426-.20178-.49252Zm-2.89179,26.83649a15.03343,15.03343,0,0,0,.20726-4.51065c-.163-1.24575.16629-2.258.49208-2.12387a1.05834,1.05834,0,0,1,.56043.50654,3.97,3.97,0,0,1,.53393,2.87886,27.49381,27.49381,0,0,0-1.1671,4.69863c-.02322.12532-.22391.25546-.26707.18053a3.91246,3.91246,0,0,1-.35427-.8882A3.80448,3.80448,0,0,1,53.16409,790.53626Zm.22128,15.7347-.02476,1.28957c-.06046-.03637-.17308-.07449-.17286-.10823l.041-1.30754C53.28349,806.18683,53.38515,806.22627,53.38537,806.271ZM52.7993,874.6831c.03769-2.48143.05258-4.98915-.03527-7.43289-.07383-2.01915-.073-3.899-.02169-5.98645.07712-3.90816.36172-7.9907-.2031-11.82349a6.98731,6.98731,0,0,1,.20332-2.9792,5.05761,5.05761,0,0,0,.20682-2.3101,17.50033,17.50033,0,0,1-.04754-3.9156,61.46068,61.46068,0,0,0,.14964-6.688c-.01906-.61346.07208-1.26722.11655-1.9337.75521.11831.895,2.88324,1.54284,3.16543.44235-1.24794.11722-2.98315.36282-4.35247a16.15254,16.15254,0,0,0,.36062-5.06845c-.2984.06485-.61433.33608-.86716.10516a4.92214,4.92214,0,0,1-.20178-1.75054,43.19622,43.19622,0,0,1,.32338-4.64912c.40269-2.59711-.00658-5.37869.53239-7.95257a14.167,14.167,0,0,0-.12839-2.63041,48.03054,48.03054,0,0,1,1.24992-11.699,15.01684,15.01684,0,0,0,.76572-7.01837,10.95774,10.95774,0,0,1,.30257-4.5904,9.19184,9.19184,0,0,0-.0631-4.54922,7.55179,7.55179,0,0,1-.64194-3.51466,23.68111,23.68111,0,0,1,.65771-2.51385,8.5412,8.5412,0,0,0,.606-3.14747,25.74449,25.74449,0,0,1,1.3393-8.47664,7.44354,7.44354,0,0,0,.388-3.91735c-.52691-2.20494.41277-4.45457-.04557-6.67834-.50018-2.36049.7138-4.30164.96992-6.51052a12.52205,12.52205,0,0,0,.22764-2.00907c-.2938-4.99528.77361-9.8648.89038-14.81583.10451-4.97162,1.22976-9.89548.65815-14.91048a9.25773,9.25773,0,0,1,.33324-1.96525,91.73679,91.73679,0,0,0,1.02579-12.86416c-.00526-.90572-.03528-1.822.04382-2.71892.79-9.02481,1.67057-18.03954,2.37714-27.07136q1.145-14.24511,1.972-28.516c.57424-9.96778.94647-19.94827,1.34544-29.92481.0907-2.49413.02037-5.00711.19893-7.48722.877-11.99525.87965-24.03826.77208-36.069q-.141-14.98386-.52823-29.96993c-.11261-4.99485-.29884-9.99013-.46557-14.985l-.2881-7.49205-.16016-3.74558-.04053-.9364-.005-.11743L72.25877,512.36q7.33026,4.67915,14.66378,9.3609c9.75285,6.28222,19.45794,12.65252,29.23971,18.89662,6.14814,3.92524,12.206,7.94338,18.242,12.00577.19193.12926.38736.25327.5795.38209-.053,6.35716-.096,12.71431-.09662,19.0719l.09092,181.41462c.00307,4.22408.08786,8.446.12905,12.67092q.13375,14.48763.26773,28.97877.05094,20.69888.10209,41.4065-4.079,2.50028-8.19949,4.96286c-5.27857,3.16368-10.553,6.34927-15.93517,9.37492q-9.234,5.15435-18.48451,10.31745-6.3197,3.53547-12.64573,7.07445c-2.6,1.44425-5.166,2.93276-7.74466,4.40725-3.41563,1.99154-6.86106,3.945-10.21842,6.01449-2.74543,1.66378-5.378,3.47785-8.06848,5.21437-.46513.29884-.93442.59243-1.40306.88645C52.75439,881.41008,52.74672,878.04133,52.7993,874.6831ZM99.758,977.43911c-.03308.05215-.26861.04689-.33433-.01577q-1.543-1.48281-3.05808-2.99586a.33721.33721,0,0,1,.0138-.319c.1779-.1205.46886-.32295.57205-.2559.49317.31943.93859.71774,1.77814,1.39166.23049.29359.76266.94385,1.24488,1.62873C100.04108,976.96763,99.86691,977.26691,99.758,977.43911Zm6.77671,8.7768a1.781,1.781,0,0,1-.59636-.03681c-.09794-.02235-.18645-.14723-.31111-.25239a4.47339,4.47339,0,0,0-1.7363-1.71987c-.62135-.30629-.82883-.90835-.56329-1.11123a1.10213,1.10213,0,0,1,.57117-.25327c.57906-.03023,1.38247.01315,1.53715.588a9.76553,9.76553,0,0,0,1.196,2.51868C106.669,986.01,106.59345,986.20846,106.53473,986.21591Zm6.12032,5.547c-.17812-.15424-.34551-.32075-.51552-.48419.05258-.02717.13452-.09114.15336-.0758.179.14766.34726.30848.51859.46535C112.75736,991.702,112.66907,991.77469,112.65505,991.76286Zm15.23714,15.99936c-.26006-.19718-.507-.40575-1.05032-.8527.57643.31111.83846.43205,1.0696.59461a1.30941,1.30941,0,0,1,.24933.36019A1.0761,1.0761,0,0,1,127.89219,1007.76222Zm6.78329,2.96475c-1.57023-1.41139-3.07933-3.0423-5.03209-3.93707a2.12652,2.12652,0,0,1-1.104-1.18616,1.56608,1.56608,0,0,0-.82444-.95743,5.15451,5.15451,0,0,1-1.65371-1.31893,18.00131,18.00131,0,0,0-2.676-2.42929,6.09228,6.09228,0,0,1-.72672-.75849c.53568-.53634,1.772.31374,2.30637-.08413-.23223-.77033-1.16118-1.12219-1.57044-1.78384a4.86572,4.86572,0,0,0-1.86885-2.0301c-.16542.25108-.25656.58629-.51531.69977-.13123.057-.62156-.22785-.85555-.45176a12.8108,12.8108,0,0,1-1.719-1.85614c-.81721-1.20676-2.23385-1.85614-2.95379-3.1593-.17943-.33214-.7793-.52889-1.173-.812a14.68,14.68,0,0,1-4.04465-5.00492,4.70282,4.70282,0,0,0-2.41592-3.0147,3.325,3.325,0,0,1-1.708-1.81977,2.78606,2.78606,0,0,0-1.92669-1.52663c-.5462-.16344-1.17389.0666-1.8706-.72519a8.49024,8.49024,0,0,1-.61828-1.37283,2.86077,2.86077,0,0,0-.91427-1.55292,8.27844,8.27844,0,0,1-2.65122-3.9581,2.33214,2.33214,0,0,0-1.3737-1.65239c-1.25342-.35975-1.58075-1.857-2.7978-2.27636-1.301-.43424-1.32331-2.03448-2.07414-2.99454a3.825,3.825,0,0,0-.68619-.86979c-2.25993-1.50384-3.59091-4.00543-5.56821-5.80811-1.99351-1.80049-3.30981-4.36561-5.75706-5.66395-.29073-.1538-.38144-.63624-.60009-.93508a27.384,27.384,0,0,0-4.6719-5.23628,8.49989,8.49989,0,0,1-1.09875-.97452c-3.22524-3.736-6.40491-7.517-9.686-11.19294q-2.59-2.89529-5.222-5.74632l-2.64991-2.8311-1.33514-1.40438-.67174-.69758-.3363-.34836-.08479-.0035a3.26109,3.26109,0,0,0-1.27687.24231.76911.76911,0,0,1,.08107-.55912c-.00767-.06178.023-.13058.296-.1687a5.10949,5.10949,0,0,1,.71971-.04689l.10758.00439.04535.00306c.01139-.00175.02257-.00306.07668.04645.17.14416.32842.29052.4785.43774.29971.29446.567.59024.82049.88075l.09421.10911.04689.05433.23114-.18754.94144-.77339,1.86994-1.563q12.4031-10.4,24.13707-21.637c4.68987-4.53037,9.1131-9.38762,13.55912-14.21245,4.2839-4.63641,8.46569-9.38762,12.7314-14.0477,4.27075-4.65525,8.61051-9.23776,12.85124-13.93026,2.66612-2.94853,5.40608-5.79234,8.18065-8.60109,2.04872-2.0726,4.021-4.23372,5.9549-6.43558q.00624,2.493.01227,4.98608l-.05236,38.054c-.00964,12.0658.305,24.11933.0287,36.20484-.03988,1.73783.01687,3.68731.12378,5.35459.41409,6.46451.24035,13.16739.34157,19.759.1102,7.16779-.09618,14.3759.32031,21.55377a242.36273,242.36273,0,0,1-.1836,33.4846c-.16519,2.038-.14307,4.6329-.14,6.96842l.01753,2.8105C135.53212,1011.49072,135.11037,1011.1244,134.67548,1010.727Zm8.6449,365.84874c-.04382-.44607-.11984-.90967-.12685-1.33646-.0114-1.60725-.02279-3.20136-.04733-6.67.18141,3.161.28417,4.53168.319,5.92072C143.48185,1375.16739,143.37143,1375.87988,143.32038,1376.57571Zm3.16521-109.38791c-.07208-.0964-.20594-.19674-.20572-.28745l.04162-3.48267c.06442.1113.184.216.18448.33521Zm.36019-41.48669c-.023.33346-.23377.68225-.27956.48332a21.32486,21.32486,0,0,1-.37618-2.36268c-.0482-.4395-.00833-1.17127-.00833-1.97577.11284-1.80882.2123-3.63648.26182-5.53206a4.88018,4.88018,0,0,0,.93,1.40745c.03308.03461.06573.06967.09881.10472C147.22919,1220.36711,147.03354,1222.99533,146.84578,1225.70111Zm2.37122-53.978a1.25218,1.25218,0,0,1-.52735.98766,4.14176,4.14176,0,0,1-.19608-1.30973q.09529-10.53346.19017-21.05774c.00394-.36676.16475-1.04945.22084-.96312a2.54253,2.54253,0,0,1,.5118,1.33864c.08347,2.87492.08654,5.82.14394,11.12809C149.50182,1163.65007,149.38921,1167.72561,149.217,1171.72315Zm94.601-167.32924,2.85257,2.35918,1.42891,1.17652.71512.5876c.17177.13277.1045.10648.12181.13628l.00614.05871a2.53282,2.53282,0,0,1-.00438.578c.00613.16519-.14986.37114.00284.429l.21362.20638c.02169.02892.07339.04207.064.07318l-.13978.1297a.77652.77652,0,0,0-.13693.174.48368.48368,0,0,0-.03374.07537c-.00482.025-.00044.05083-.09311.046a3.69988,3.69988,0,0,1-.74908-.02936l-.0425-.00745-.34507.30366-.72344.63931-1.4506,1.27467-2.90471,2.545c-1.93327,1.69971-3.8547,3.41344-5.73209,5.17844l-45.04649,42.50722c-1.04857.99029-2.04456,2.04061-3.06969,3.05807-2.3434,2.32719-4.66511,4.67673-7.04773,6.96185q-6.46988,6.20729-13.00569,12.34316l-9.50966,8.846c-2.31711,2.1655-4.54067,4.4366-6.87793,6.58151.04469-1.08144.08325-2.1563.05608-3.17989-.35427-13.30148.37618-26.28088.35537-39.4693-.02082-13.24188.71446-26.36764.18864-39.71907-.06244-1.5849.158-3.46295.2112-5.23759.33981-11.345.6082-22.72547.51289-34.27158-.01993-2.41219-.05762-4.852-.01621-7.24228q.40587-23.22543.812-46.44079c5.28229,5.13638,10.52734,10.30694,15.98731,15.247,7.62044,6.8948,15.42272,13.59067,23.01861,20.50212,8.67142,7.88378,17.50781,15.58966,26.36939,23.25874q9.09405,7.86822,18.33006,15.577Zm-13.77624-48.47044c-8.27179-6.47064-16.42418-13.11349-24.73913-19.52936a190.81239,190.81239,0,0,1-15.07086-12.82955,154.4175,154.4175,0,0,0-22.19132-17.66665,20.53462,20.53462,0,0,0-13.21449-3.45726q.02662-1.5308.05346-3.05939.51661-37.94969,1.03455-75.96816.37168-39.83014.74359-79.71418c.05938-6.6446.01118-13.337.12905-19.94388.57073-31.95666.63142-64.03162.65508-96.0746q.02071-27.83227.01249-55.66716c.14679.11173.29358.223.43577.33126l3.9925,2.98008,18.41025,13.79312,5.48144,4.0729c1.82679,1.35881,3.70988,2.90778,5.467,4.02383,2.08881,1.33339,3.47369,2.80613,5.23365,4.154.65158.5,1.33032.96487,1.995,1.45082,2.81422,2.056,5.688,4.08035,8.40894,6.19941q4.9818,3.87594,9.98618,7.6809c-.00109.08588-.0035.17177-.0046.25765-.07843,6.486-.15906,12.97108-.12488,19.46276.028,5.27835.20463,10.56677.29906,15.84906.09,5.07679.04075,10.15182.269,15.22772l2.83833,60.99459c.0666,1.42058.21318,2.83986.31571,4.26045.2353,3.24737.50216,6.49342.68028,9.743q.48441,8.82586.87264,17.65569l.5026,12.79449c.16913,4.0567.58344,8.10945.5429,12.17272a9.79405,9.79405,0,0,0,.17046,1.8,61.92284,61.92284,0,0,1,.52932,6.64372c.17659,2.40957.131,4.83316.5199,7.24667a40.86728,40.86728,0,0,1,.32514,11.25779,16.05859,16.05859,0,0,0,.00394,2.343l.2559,4.87566,1.14081,22.51382q.18272,3.34354.36544,6.68228c.1205,2.22772.131,4.6167.39393,6.64022.308,2.40957.05849,4.37569.14525,6.546.03112.80407.10692,1.60682.15731,2.4122.21471,3.40862.49164,6.84266.59834,10.22017.15643,4.87916.3477,9.73773.55825,14.60375.08654,2.0301.0907,4.1956.25677,6.064.24582,2.79473.34244,5.5027.38253,8.32591.00833.59023.05018,1.2107.08216,1.81188.124,2.41264.24736,4.81563.37158,7.23615.10538,2.414.16585,4.86646.34529,7.188.17724,2.37889.074,4.82264.21055,7.24184.05236.975.06134,2.10547.12335,3.00111.23574,3.47348.29686,7.15991.40838,10.78675q.09925,3.33435.19828,6.65555c.06573,2.41088.13145,4.81475.1974,7.22432l.04667,2.10766C230.57634,956.338,230.30817,956.132,230.04176,955.92347Zm1.26-54.71806c-.02169-.03242-.06156-.06616-.06156-.0964l.01314-1.17126c.0195.03769.05587.07274.05587.113Zm.58454-18.1596c-.20989,1.31236-.3271,2.733-.4395,4.21138-.00854.11173-.08325.22917-.09947.16212a6.959,6.959,0,0,1-.133-.794c-.01731-.14811-.00307-.39393-.00307-.66473a31.81294,31.81294,0,0,0,.073-4.0396c-.06354-1.11518.06112-2.02221.186-1.90347a.8513.8513,0,0,1,.21449.45221A7.74655,7.74655,0,0,1,231.88629,883.04581Zm.81349-17.25782c-.03506.60645-.11393,1.9762-.19149,3.32055a.41989.41989,0,0,1-.22873.33214,1.13058,1.13058,0,0,1-.07931-.44037l.15227-7.08016c.00306-.12313.07887-.35273.10428-.32381a.7355.7355,0,0,1,.22808.45045C232.71007,863.013,232.69846,864.00327,232.69978,865.788Zm16.32909-416.64024-.13715.12532a.71679.71679,0,0,0-.13365.16914.44791.44791,0,0,0-.03242.07274c-.01578.021-.12445.01183-.179.018-.13387.00395-.26094.00395-.38451-.00175l-.18272-.01358-.08939-.011-.04425-.00657-.011-.00175-.08873.07712-.19017.16651c-3.89764,3.41431-7.884,6.72084-11.69181,10.23988L190.168,502.344c-1.06391.98634-2.07545,2.034-3.11592,3.04843-2.37845,2.3193-4.73566,4.66226-7.15289,6.93994q-6.56453,6.1856-13.19412,12.3011l-9.27764,8.47883q-.03745-32.53242-.13211-65.05872c-.10122-32.02107-.5004-64.02111-.82773-96.01107q-.03384-2.94591-.06748-5.88918c4.68242,4.55754,9.35849,9.11771,14.20282,13.49734,7.66885,6.93337,15.52,13.66823,23.1643,20.61869,8.72685,7.928,17.61867,15.67861,26.5359,23.39194q9.15057,7.91357,18.444,15.66809l5.71741,4.77181,2.86988,2.3732,1.43592,1.18221.02673.23794a2.4194,2.4194,0,0,1-.01775.5692c-.01226.08632-.03658.17133-.05323.24757l.1343.13671.20332.19762.03965.03462A.77214.77214,0,0,1,249.02887,449.14775Z"/><path class="cls-1" d="M256.12,644.57807a5.20289,5.20289,0,0,0-2.15038-1.40262c2.5362,1.97664,2.56446,2.01345,5.74852,4.71923.78259.6542,1.57855,1.3198,2.35829,1.97182a4.41653,4.41653,0,0,0,.572.41583,3.768,3.768,0,0,0-.493-.50172Q259.14453,647.185,256.12,644.57807Z"/><path class="cls-1" d="M287.23686,671.10083c-.10078-.08326-.20376-.16783-.30519-.25152l-.01074-.00876.0953.07931C287.08963,670.97989,287.1639,671.0408,287.23686,671.10083Z"/><path class="cls-1" d="M288.98258,672.53325c-.18053-.14855-.48967-.40269-.7046-.57972-.35712-.29271-.69715-.571-1.04112-.8527.30892.25414.61455.50566.9353.76988C288.749,672.34264,289.2961,672.79,288.98258,672.53325Z"/><path class="cls-1" d="M256.50185,1205.34315a5.14272,5.14272,0,0,0-2.12934-1.40657c2.50837,1.98059,2.5362,2.01739,5.68344,4.72755.77362.65552,1.56037,1.322,2.33114,1.97489a4.35315,4.35315,0,0,0,.56613.41671,3.71,3.71,0,0,0-.48639-.50215Q259.491,1207.954,256.50185,1205.34315Z"/><path class="cls-1" d="M287.28243,1231.92856c-.10779-.08983-.21778-.18141-.32645-.27211l-.01051-.00832.094.07887Z"/><path class="cls-1" d="M288.98367,1233.34345c-.17855-.149-.48419-.40356-.69671-.581-.34463-.28613-.67261-.55824-1.00453-.83386.29709.248.59111.493.9.75061C288.75275,1233.15241,289.29347,1233.60067,288.98367,1233.34345Z"/><path class="cls-1" d="M239.3343,1190.4629a3.04636,3.04636,0,0,0,.28065.19412l-.35164-.33653-.38779-.3133C239.02648,1190.1588,239.16735,1190.30822,239.3343,1190.4629Z"/><path class="cls-1" d="M147.3383,1378.02522c-.04864,2.97263-.04886,5.997-.04075,8.95908a8.8721,8.8721,0,0,0,.195,2.05683,7.64527,7.64527,0,0,0,.30366-2.0393q.29742-11.58249.59636-23.2193c.10035-4.59391.00943-5.06539-1.23633-7.43333C147.57448,1365.71667,147.53526,1365.84812,147.3383,1378.02522Z"/><path class="cls-1" d="M146.11226,1482.91562l-.00723-1.13314-.00066-.01578c-.00021.11306-.00043.22085-.00043.33653C146.10657,1482.37578,146.10941,1482.64482,146.11226,1482.91562Z"/><path class="cls-1" d="M146.16988,1489.5164c-.0046-.6748-.01227-1.84475-.01774-2.65977-.01381-1.35048-.02673-2.64136-.03988-3.941.00723,1.16819.01446,2.33376.02213,3.54928C146.15783,1488.63828,146.18281,1490.69687,146.16988,1489.5164Z"/><path class="cls-1" d="M149.61575,1297.17527a6.8903,6.8903,0,0,0,.13737.99555l.10736-1.4241-.06025-1.4609C149.73713,1295.91067,149.65037,1296.50835,149.61575,1297.17527Z"/></g></g></svg>