<svg xmlns="http://www.w3.org/2000/svg" viewBox="0 0 318.09568 1489.86102"><defs><style>.cls-1{fill:#24373e;}</style></defs><g id="Слой_2" data-name="Слой 2"><g id="Слой_1-2" data-name="Слой 1"><path class="cls-1" d="M313.19666,548.32206c-.73187-.81546-1.4747-1.63618-2.215-2.421-.61181-.64807-1.17072-1.262-1.78319-1.95079-1.15012-1.28607-2.3148-2.66327-3.55-3.82621a5.78669,5.78669,0,0,1-.85161-1.00388,4.16551,4.16551,0,0,0-.65125-.7861,14.4984,14.4984,0,0,1-1.17236-1.27029c-.61805-.73921-1.27566-1.4793-1.96163-2.20712-.18579-.19719-.36369-.42548-.55375-.6507.17187-.08676,1.01724.794,1.21628.7804-.29029-.48156-.86212-.99643-1.22318-1.48544a12.74376,12.74376,0,0,0-1.43352-1.72162c-.036.07186-.014.21427-.12915.18141a3.73246,3.73246,0,0,1-.55617-.53809c-.45231-.52144-.93037-1.06566-1.31739-1.577-.69255-.92018-1.59477-1.75886-2.253-2.697a10.40246,10.40246,0,0,0-.80341-.83868,33.15712,33.15712,0,0,1-3.20979-4.06415,10.42545,10.42545,0,0,0-1.91355-2.449,7.43883,7.43883,0,0,1-1.289-1.56738,6.15727,6.15727,0,0,0-1.354-1.48325,4.86142,4.86142,0,0,1-1.17368-1.02885c-.1182-.18535-.39776-.58541-.59834-.957a5.4875,5.4875,0,0,0-.794-1.1568,15.846,15.846,0,0,1-2.1907-3.06816,4.65994,4.65994,0,0,0-1.06018-1.37414c-.76824-.61608-1.2084-1.55949-1.9658-2.19705a11.22534,11.22534,0,0,1-1.67626-2.3618,7.78834,7.78834,0,0,0-.53218-.71512c-1.52761-1.591-2.69208-3.43929-4.0993-5.11446a64.10944,64.10944,0,0,0-4.16362-5.1114,5.02053,5.02053,0,0,1-.482-.73484,52.8355,52.8355,0,0,0-3.44411-4.5457c-.2628-.30147-.53557-.59987-.77263-.91975-2.38448-3.21757-4.71944-6.47458-7.07763-9.7202q-3.724-5.11557-7.454-10.23945-3.94035-5.339-7.88575-10.68552c-.65486-.893-1.37524-1.737-1.99176-2.65627-2.978-4.45018-6.23238-8.676-9.5193-12.86548-5.45471-6.95921-10.9378-13.89521-16.54939-20.70982-3.37619-4.10314-6.99514-7.9815-10.58747-11.88176-3.45365-3.7561-7.03525-7.38732-10.52778-11.10881-3.49319-3.72192-6.875-7.55427-10.40662-11.24113a60.20155,60.20155,0,0,1-6.12557-7.42457,49.7332,49.7332,0,0,0-7.39247-8.49417q-.5199-45.36834-1.03937-90.70643-.19242-23.094-.38505-46.20811c-.04064-7.70325-.15928-15.40606-.12839-23.108.04886-7.7015.18393-15.40168-.13584-23.09923q-1.36335-29.02982-2.35227-58.00705c-.96181-27.80795-2.48778-55.53308-3.94671-83.16926-.76244-14.19843-1.56366-26.71687-2.00293-37.25866-.52177-11.13072-.07548-13.60689-.45725,3.20968-.20605,8.81536-.56065,18.19335-.86015,28.61333-.69781,24.64076-1.64078,49.232-2.587,73.91571q-.89094,22.55764-1.78286,45.13807c-.53929,15.0485-1.55105,30.0935-1.47853,45.11922-.00745,8.57348-.196,17.15047-.33313,25.73009q-.208,12.86876-.41606,25.74366-.39847,25.74871-.79716,51.5053-.50577,35.23317-1.0122,70.50095-.28378,21.69531-.56789,43.40637-.33274,28.93714-.66549,57.88743-.12932,20.93484-.25874,41.90647c-1.25792,1.45126-2.5155,2.8977-3.77221,4.3253l-6.1982,7.1564-5.11655,5.99434c-4.643,5.50182-9.25058,11.03037-13.94911,16.48969q-12.79021,14.80115-25.58614,29.608l-18.6462,21.364c-5.88567,6.79665-11.42977,13.88294-17.60464,20.44516a25.22837,25.22837,0,0,0-2.4685,3.14265c-2.69789,4.04311-6.14223,7.66513-9.23843,11.48389-3.37225,4.1474-7.08344,8.03583-10.126,12.48426a110.87964,110.87964,0,0,1-7.625,9.927q-2.04774,2.36423-4.24446,4.58646-1.10028,1.10817-2.23276,2.18171l-1.14475,1.06041L16.58647,673.761c-2.06735,2.04632-4.4699,4.86821-6.633,7.3733-2.24328,2.59843-4.3632,5.15654-6.52914,7.73086L.20173,692.71375l-.20113.24012c-.01095.07581.131.14066.18886.21164l.46666.41715.93223.83386,1.8614,1.666,4.28674,3.84024,2.13965,1.91661,1.069.957,1.17433.94034,9.39222,7.49862,10.32074,8.02224L51.583,734.51943c3.91166,3.02215,7.85661,5.993,11.79587,8.974,3.93686,2.98622,7.97734,6.4093,11.78843,8.83683,4.53344,2.89508,7.47584,6.17663,11.26852,9.13743,1.40526,1.09808,2.878,2.10809,4.31556,3.17025,6.08164,4.49926,12.34119,8.871,18.2182,13.51048q12.75112,10.032,25.62854,19.79359c3.58488,2.72418,7.25455,5.81775,10.706,8.14143.33674.22654.65935.46053.99292.68838q-4.59632,4.1198-9.19318,8.23959-16.084,14.49684-32.33186,28.73295c-15.57081,13.688-30.802,27.691-46.00084,41.62866-7.79812,7.173-14.60134,13.58541-20.44144,18.85062-6.13675,5.59559-7.785,6.49649,2.077-1.2405,5.20233-4.023,10.7311-8.2983,16.87485-13.04908,14.50911-11.26523,29.08306-22.39463,43.713-33.56347Q123.814,838.9331,146.712,821.55477q.03221,13.05018.06441,26.0986l-.05236,38.054c-.00964,12.0658.305,24.11933.0287,36.20484-.03977,1.73783.01687,3.68731.12378,5.35459.13715,2.13921.20639,4.306.24593,6.48511q-4.725,2.92288-9.51415,5.77831c-5.27845,3.16368-10.553,6.34927-15.93494,9.37492q-9.23437,5.15435-18.48463,10.31745Q96.86892,962.758,90.54315,966.297c-2.6,1.44425-5.16617,2.9332-7.74466,4.40724-3.41563,1.99154-6.86128,3.945-10.21864,6.0145-2.74521,1.66378-5.37781,3.47829-8.06825,5.21437-2.58922,1.66422-5.2606,3.22415-7.739,5.026q-3.71787,2.71257-7.39236,5.47947l-3.6643,2.77983-.91207.69978-1.67408,1.315-3.84462,3.03223-7.67936,6.05919-.95919.75718-.24078.18885-.29971.19061-.59944.38122-2.39686,1.52444-4.78977,3.04668-9.56619,6.08636-2.38875,1.52049c-.09727.03068.04207.06485.06551.09772l.14833.099.29643.19762.59264.39568,1.18506.79135,4.73785,3.16368c1.76675,1.17959,3.70747,2.3342,5.53315,3.48925l6.24345,3.93313c.50522.32513,1.05229.65158,1.51764.975l1.22911.96357,2.42161,1.93194,8.60262,7.014c1.7455,1.4425,2.04347,1.65414,2.81642,2.27373l2.08772,1.6537,5.981,4.8761c1.90981,1.53013,4.12811,2.69176,5.80723,4.501a2.01153,2.01153,0,0,0,.9732.5302c1.41687.35449,2.33179,1.37721,3.4864,2.08137,1.24992.773,2.22882,1.87849,3.76465,2.31623a7.73544,7.73544,0,0,1,5.25775,4.29638,2.88552,2.88552,0,0,0,1.01374.98942c.79377.57928,1.62763,1.11079,2.44155,1.666,3.7675,2.55329,7.54244,5.09826,11.35134,7.602,1.12734.74886,2.29224,1.45039,3.45047,2.16068a15.04949,15.04949,0,0,0,3.49626,2.06691c1.52882.44212,2.00775,1.712,3.08952,2.45952.40038.2778.87154.47017,1.30359.71161a56.85072,56.85072,0,0,1,5.45691,3.09181c2.40551,1.712,4.8693,3.33589,7.388,4.90195a19.3456,19.3456,0,0,0,3.1329,1.95824,15.49175,15.49175,0,0,1,4.38687,2.58791,5.94631,5.94631,0,0,0,.95808.55955c1.31466.69847,2.63819,1.37721,3.9213,2.12037a27.58474,27.58474,0,0,0,3.88328,2.1208c1.4173.546,2.31328,1.76851,3.66967,2.424.54411.26729,1.07191.69846,1.60134.90923a38.65679,38.65679,0,0,1,5.71839,3.31134q1.72634,1.072,3.44642,2.14053l3.726,2.34033c.473.30366.93815.617,1.40975.92281.02607,5.95184-.06573,12.13985.27791,17.47429.46163,7.1656-.21284,13.01358-.209,19.46845.00143,2.39248.10276,4.7797.14865,7.17524.19456,10.13823.56482,20.35183.54171,30.39761-.03341,14.51217.01632,28.96211.1423,43.43529.05247,6.03771-.16388,12.47812.15051,18.036.47006,8.31145.52867,16.367.35154,24.76345-.0367,1.75536.03275,3.60142.06112,5.38877.10856,7.17568.13781,14.322.47828,21.52222.34616,7.18006.57928,14.47317,1.26229,21.37805.68466,7.07577.238,14.34522.76222,21.54018.20135,2.89989.22632,6.26163.47346,8.92578.93672,10.33059,1.16337,21.29568,1.60221,32.08286q.40225,9.91694.80275,19.79533c.27266,7.16955.54466,14.31893.81721,21.48585q.48771,15.24349.97551,30.49137c.04513,1.03061.08544,1.95167.12795,2.92268.233.05171.29555.69408.31615,4.31.08139,5.06889.14942,9.30437.22741,14.15592.03089,2.34078.08161,3.90509.108,4.36956.00231-2.254.00406-4.02514.00734-7.35007-.0471-9.53836-.07591-19.00574-.02267-28.44507.03582-6.61042.04393-13.2892-.07822-19.798-.10242-5.3765-.11042-10.384-.0551-15.94459.078-10.40859.43139-21.28516-.32086-31.48868a37.4306,37.4306,0,0,1,.24944-7.93724,26.9099,26.9099,0,0,0,.2594-6.15384,94.29778,94.29778,0,0,1-.0803-10.42874c.21526-5.8068.27058-11.7801.1675-17.81388-.02815-1.63442.09027-3.37576.147-5.15215,1.0099.30848,1.20336,7.6717,2.064,8.41749.58771-3.32844.15369-7.946.4808-11.59607a85.13485,85.13485,0,0,0,.48243-13.50216c-.40236.17528-.82761.9-1.16852.28658a25.26777,25.26777,0,0,1-.27529-4.66052c.07438-4.16185.14219-8.53316.41409-12.38566.49591-6.92066-.17692-14.32463.41594-21.18526.148-1.73389-.16421-4.61888-.22731-7.00435a310.76735,310.76735,0,0,1,1.1017-31.17143,96.29243,96.29243,0,0,0,.59823-18.69944,75.42736,75.42736,0,0,1,.16991-12.22924,65.19494,65.19494,0,0,0-.19576-12.11663,50.94734,50.94734,0,0,1-.70668-9.3552c.10692-1.308.27474-4.22758.56712-6.70156a60.20322,60.20322,0,0,0,.48671-8.38769,197.66474,197.66474,0,0,1,.98613-22.59007,57.87326,57.87326,0,0,0,.22972-10.43707c-.52221-5.86683.23607-11.86774-.21581-17.78627-.4797-6.28223.49624-11.4633.64457-17.34853.04524-1.79217.18228-3.643.13671-5.35371-.35416-13.30148.37618-26.28088.35548-39.4693-.02082-13.24188.71434-26.36764.18864-39.71907-.06245-1.5849.15785-3.46295.21109-5.23759.33981-11.345.6082-22.72547.51289-34.27158-.01993-2.41219-.05751-4.852-.01621-7.24228q.63049-36.06594,1.26109-72.12486.51678-37.94969,1.03455-75.96816.00477-.5061.00942-1.01351c3.02784,2.20581,6.05305,4.41337,9.06841,6.66256,4.29693,3.19874,8.57227,6.55653,12.85748,9.44722,4.38544,2.96913,8.33916,6.68842,12.71529,9.80916,1.76117,1.26065,3.70133,2.84512,5.34835,3.96818,6.377,4.36693,12.78168,9.4424,19.18824,14.3071q5.892,4.47078,11.76115,8.92315,6.38048,4.85857,12.74739,9.70706,9.005,6.93292,18.01314,13.868c.61531.461,1.16556.87286,1.74528,1.30666.1504-.12138.55189.14416,2.64092,1.84606,2.95653,2.35173,5.42646,4.31654,8.25624,6.56792,1.3668,1.09327,2.29531,1.804,2.57268,2.00425-1.29636-1.07048-2.31426-1.91223-4.2254-3.491-5.50916-4.49181-10.96628-8.96171-16.36677-13.46973-3.78218-3.15536-7.61868-6.32605-11.422-9.33636-3.14275-2.48625-6.02578-4.85506-9.19482-7.52447-5.94428-4.983-12.02647-10.34681-18.26094-14.737a27.13261,27.13261,0,0,1-4.44065-3.91078,19.53816,19.53816,0,0,0-3.41224-3.07035,68.79819,68.79819,0,0,1-6.03508-4.89581c-3.23467-2.87842-6.64351-5.74107-10.16234-8.54106-.95337-.75849-1.89787-1.65238-2.89255-2.527.65815-.43643,4.98663,2.938,5.82838,2.79078-1.63519-1.9153-4.50112-3.84856-6.44622-5.76429a63.01075,63.01075,0,0,0-7.54572-6.66476c-.08873.3133.12795.9-.38615.80494a18.90171,18.90171,0,0,1-2.812-2.0485c-2.35951-2.01389-4.84652-4.11717-6.926-6.10783-3.72893-3.58389-8.25262-6.76992-11.86029-10.43094-.07569-.07712-.166-.15862-.25338-.23924q.02613-2.81116.05237-5.62452,24.31683-18.2538,48.65108-36.52076,21.01387-15.78378,42.04834-31.58245,12.9187-9.74475,25.84663-19.49562l8.59945-6.51753,8.146-6.43077,2.06527-1.63135c.6829-.5451,1.40645-1.08494,2.0026-1.64494l3.756-3.33983,3.76859-3.35429,1.8889-1.68218.9456-.84219c-.2-.31856-.51728-.64588-.77033-.96838l-6.46582-7.79834c-2.13921-2.60017-4.45139-5.26914-6.68283-7.91445l-3.38551-3.98527-1.15352-1.38028-.85687-1.04243c-7.42325-9.0511-15.00172-17.99485-22.49936-26.99249-7.19879-8.65323-14.31411-17.37482-21.63362-25.91894l-22.09021-25.57891L207.33623,565.9186l-22.27939-25.4124-8.74109-9.91739-5.59756-6.35058-2.03306-2.3399q-.0391-26.92456-.11754-53.84475c-.07044-22.26888-.2869-44.52724-.52111-66.77947.1457.19455.295.3856.43983.58059,3.40906,4.58251,6.95845,9.04935,10.53139,13.49208,2.44473,3.0388,4.94522,6.03158,7.45644,9.01342q2.31821,2.75266,4.68779,5.46151c2.10514,2.40737,4.20863,4.81562,6.37807,7.16866,1.76413,1.91267,3.614,3.75479,5.41649,5.63547,1.73181,1.80794,3.38562,3.686,5.19389,5.42382l21.78238,20.83822c.50742.48506,1.05909.92938,1.58655,1.39648,1.20654,1.067,2.43005,2.11774,3.60548,3.21407q3.19287,2.97812,6.33349,6.00617l4.51755,4.41776c1.43779,1.396,3.01043,2.66678,4.33407,4.17062a3.24078,3.24078,0,0,0,.691.57139,20.32267,20.32267,0,0,1,2.49479,2.15893,27.27162,27.27162,0,0,0,2.68946,2.38327,13.34871,13.34871,0,0,1,3.91,3.94671,5.20328,5.20328,0,0,0,.77843.85315l1.75723,1.65107,8.0917,7.64453,2.41657,2.25577a31.21138,31.21138,0,0,0,2.41877,2.22553,21.54975,21.54975,0,0,1,2.249,2.31667c.28373.27824.59177.53283.88645.80143,1.2486,1.13621,2.53992,2.25051,3.71809,3.4301,1.70321,1.70234,3.41892,3.3797,5.14787,5.05.72049.69759,1.4402,1.48588,2.15137,2.08444a36.39925,36.39925,0,0,1,2.97066,2.84731c.20014.2112.42909.41671.64588.61959.868.81852,1.73279,1.634,2.60346,2.4547.85829.82816,1.7041,1.69313,2.5729,2.45031.88656.77909,1.63891,1.72337,2.51605,2.538.35208.32951.73143.7379,1.0627,1.03323,1.28157,1.14935,2.53686,2.46478,3.80014,3.73244l2.31492,2.33026,2.50279,2.538,3.52211,3.62815c.11885.12006.228.23005.34145.34441.03385-.01928.11305.053.51859.49427.57566.61433,1.0546,1.12569,1.60441,1.71242.24023.25239.39611.41627.49076.51574-.24768-.27386-.44946-.49646-.80943-.89389Q314.773,550.05595,313.19666,548.32206Zm-92.05745,313.2068c.39732.312.752.71555,1.12689,1.07661-.2777-.18623-.581-.3615-.82926-.56-.92829-.75674-1.84935-1.50778-3.85272-3.14089C219.48737,860.29932,220.32462,860.88955,221.13921,861.52886ZM108.15634,762.20513c-.01479.067-.62847-.2467-.8825-.4636q-5.95721-5.11293-11.90926-10.22192c-.20671-.17878-.48266-.64369-.39327-.65114a1.595,1.595,0,0,1,1.129.19849c1.70037,1.30535,3.38365,2.71367,6.45312,5.20824.98886.91274,3.235,2.96255,5.39906,5.02026A.94085.94085,0,0,1,108.15634,762.20513ZM137.424,789.3444a12.96025,12.96025,0,0,1-1.58546-.84393c-.28219-.17309-.67863-.549-1.14124-.93027a58.80145,58.80145,0,0,0-6.7869-5.84316c-2.01312-1.44294-3.35758-2.97351-2.94667-3.0572a1.80185,1.80185,0,0,1,1.13062.20331,14.63968,14.63968,0,0,1,4.75132,3.21188c1.89766,2.272,4.13206,4.51109,6.47,6.8247C137.493,789.08544,137.56595,789.40531,137.424,789.3444Zm-1.42355-5.80854a42.59471,42.59471,0,0,1-6.84945-6.01757,35.78216,35.78216,0,0,0-7.01684-5.68191,28.1486,28.1486,0,0,1-5.79507-3.92962c-.67513-.71336-2.22849-2.24963-3.44061-3.67723a32.11531,32.11531,0,0,0-4.44438-4.43485A98.244,98.244,0,0,1,96.29857,748.0768a28.6409,28.6409,0,0,0-5.763-5.23584c-3.71349-2.36838-6.5711-5.93168-10.27045-8.37717-3.93576-2.58572-6.14661-5.97287-9.37273-8.95427-.98284-.907-1.93-1.92625-2.93779-2.70753-7.8461-6.06444-14.64078-13.0276-22.16065-19.355-1.88791-1.588-3.73332-3.21889-5.564-4.86558l-2.73886-2.47792-.68379-.62047-.342-.31023c-.12291-.11218-.11787-.09816-.18294-.15337l-.578-.45877c-.38363-.30147-.764-.59243-1.15-.87462l-.57928-.42109-.52472-.46623c-.35778-.308-.73352-.6117-1.14454-.91843l-.64544-.46359a1.386,1.386,0,0,1-.16125-.11831l.0907-.13584.17527-.27562a8.20619,8.20619,0,0,1,1.42015-1.113c.71315-.58191,1.31806-1.1235,1.9096-1.64231l.854-.76244,2.21677-2.28643c2.94634-3.07123,5.848-6.20686,8.67777-9.44766,1.182-1.354,2.35939-2.73952,3.59375-4.02558C62.85329,658.67,75.324,645.805,87.68642,632.79972q19.52-20.48985,38.83525-41.229Q136.365,580.96359,146.16506,570.3c-.00076.59243-.0058,1.18485-.0058,1.77727l.091,181.41462c.003,4.22408.08775,8.446.12894,12.67092q.12553,13.5944.25129,27.19186c-.11677-.12795-.24406-.26378-.35-.38341A57.78523,57.78523,0,0,0,136.00043,783.53586Zm-25.91149,291.92251c-.033.05214-.26849.04689-.33422-.01577q-1.54311-1.48281-3.05808-2.99586a.33669.33669,0,0,1,.0138-.31856c.178-.12094.46875-.32294.57194-.25633.49318.31987.9387.71774,1.77815,1.39166.23059.29359.76276.94385,1.24509,1.62873C110.37223,1074.98689,110.19794,1075.28617,110.08894,1075.45837Zm6.77672,8.7768a1.78037,1.78037,0,0,1-.59626-.03681c-.09783-.02235-.18656-.14723-.31111-.25239a4.4748,4.4748,0,0,0-1.7363-1.71987c-.62134-.30629-.82871-.90835-.56339-1.11123a1.102,1.102,0,0,1,.57128-.25327c.579-.0298,1.38246.01315,1.53714.588a9.76259,9.76259,0,0,0,1.196,2.51868C117,1084.02922,116.92448,1084.22816,116.86566,1084.23517Zm6.12042,5.547c-.17812-.15424-.34551-.32031-.51552-.48375.05269-.02761.13463-.09158.15325-.07625.179.14767.34726.30849.51881.46535C123.0884,1089.72121,123.0001,1089.794,122.98608,1089.78212Zm15.237,15.99936c-.25984-.19718-.50675-.40575-1.0501-.85226.57621.31111.83824.43161,1.06938.59417a1.3092,1.3092,0,0,1,.24933.36019A1.0764,1.0764,0,0,1,138.22311,1105.78148Zm9.279,5.02026a27.8771,27.8771,0,0,1-2.49545-2.05551c-1.57023-1.41139-3.07944-3.0423-5.0322-3.93707a2.12693,2.12693,0,0,1-1.104-1.18616,1.566,1.566,0,0,0-.82444-.95743,5.15723,5.15723,0,0,1-1.65381-1.31893,18.0018,18.0018,0,0,0-2.676-2.42929,6.091,6.091,0,0,1-.72662-.75849c.53568-.53634,1.7719.31374,2.30637-.08413-.23234-.77033-1.16118-1.12219-1.57044-1.78384a4.865,4.865,0,0,0-1.86885-2.0301c-.16541.25108-.25656.58629-.5153.69977-.13124.05741-.62157-.22785-.85566-.45176a12.82259,12.82259,0,0,1-1.719-1.85614c-.81722-1.20676-2.23386-1.85614-2.95357-3.1593-.17944-.33214-.77931-.52889-1.17324-.812a14.67969,14.67969,0,0,1-4.04453-5.00492,4.701,4.701,0,0,0-2.41592-3.01426,3.3273,3.3273,0,0,1-1.708-1.82021,2.7843,2.7843,0,0,0-1.92669-1.52619c-.54619-.16388-1.17378.06616-1.8706-.72563a8.50908,8.50908,0,0,1-.61839-1.37283,2.86059,2.86059,0,0,0-.91415-1.55292,8.27746,8.27746,0,0,1-2.65112-3.95766,2.33227,2.33227,0,0,0-1.37392-1.65283c-1.25342-.35975-1.58074-1.857-2.7978-2.27636-1.30074-.43424-1.3232-2.03448-2.07391-2.99454a3.83419,3.83419,0,0,0-.6862-.86979c-2.26014-1.50384-3.591-4.00543-5.56831-5.80811-1.99362-1.80049-3.30992-4.36518-5.75717-5.664-.29063-.1538-.38122-.63624-.6-.93464a27.38023,27.38023,0,0,0-4.67179-5.23672,8.51634,8.51634,0,0,1-1.099-.97452c-3.22524-3.736-6.40492-7.517-9.68581-11.19294q-2.59032-2.89529-5.22226-5.74632l-2.64991-2.8311-1.33514-1.40438-.67174-.69758-.3363-.34836-.08457-.00307a3.26149,3.26149,0,0,0-1.27708.24188.76985.76985,0,0,1,.08128-.55912c-.00767-.06178.023-.13058.296-.1687a5.17421,5.17421,0,0,1,.7195-.04689l.10757.00438.04535.00307c.01162-.00175.02257-.00307.0769.04645.1698.14416.3282.29051.47828.43774.29994.29446.567.59024.8205.88075l.09443.10911.04666.05433.23136-.1871.94122-.77383,1.87016-1.563q12.4031-10.4,24.13685-21.637c4.69009-4.53037,9.11311-9.38762,13.55935-14.21245,4.28367-4.63641,8.46557-9.38763,12.73117-14.0477,4.27086-4.65481,8.61051-9.23776,12.85146-13.92982,2.6659-2.949,5.40608-5.79278,8.18043-8.60153,2.52919-2.55855,4.93788-5.25556,7.30494-7.99464.00745,2.63567.00493,5.27572.04525,7.89824.1102,7.16779-.09629,14.3759.3202,21.55377a242.36274,242.36274,0,0,1-.18349,33.4846c-.1653,2.038-.14307,4.6329-.14,6.96842l.09059,14.50077q.21378,33.48154.42756,66.96176.1045,9.94455.2088,19.87464c.00284.25809.00339.52057.00558.78C147.79784,1111.03617,147.65324,1110.91173,147.50207,1110.80174Zm7.09045,265.774c-.04371-.44607-.11984-.90967-.12674-1.33646-.0114-1.60725-.02279-3.20136-.04733-6.67.18141,3.161.284,4.53168.31889,5.92072C154.754,1375.16739,154.64357,1375.87988,154.59252,1376.57571Zm3.16532-109.38791c-.07219-.0964-.206-.19674-.20583-.28745l.04173-3.48267c.06431.1113.18393.216.18437.33521Zm1.51272-54.01214c-.53962,3.90421-.84756,8.12916-1.15253,12.52545-.02312.33346-.23377.68225-.27967.48332a21.3769,21.3769,0,0,1-.37618-2.36268c-.04809-.4395-.00833-1.17127-.00833-1.97577a102.369,102.369,0,0,0,.19379-12.01584c-.16925-3.31617.15621-6.01494.48091-5.66088a2.697,2.697,0,0,1,.56492,1.34434A26.089,26.089,0,0,1,159.27056,1213.17566Zm1.21869-41.45251a1.25252,1.25252,0,0,1-.52746.98766,4.14306,4.14306,0,0,1-.196-1.30973q.09515-10.53346.19018-21.05774c.00394-.36676.16464-1.04945.22084-.96312a2.54344,2.54344,0,0,1,.5118,1.33864c.08347,2.87492.08643,5.82.14383,11.12809C160.774,1163.65007,160.66146,1167.72561,160.48925,1171.72315ZM175.9686,580.68666c7.81992,9.01868,15.77074,17.93307,23.71477,26.84526q19.806,22.181,39.79936,44.20211l20.05036,21.96741,10.06572,10.94624,5.04468,5.462.63077.68269c.07449.08062.05882.06266.05882.06266h.00318l.00964.00087.0252.007a1.43475,1.43475,0,0,1,.326.06222.8405.8405,0,0,1,.08019.10692l.03462.06091c.01884.02717-.06792-.02147-.09783-.02673a2.45738,2.45738,0,0,0-.271-.07712l-.07121-.0149c-.00558.00219-.00022-.00657-.01479.00438l-.10483.09246-.20945.18535-.419.3707-1.67539,1.48281-6.68831,5.94614q-13.33723,11.93938-26.66878,23.87263-25.59063,23.04993-51.16187,46.08235-10.45065,9.36615-20.91062,18.74107.20556-22.02854.411-44.05313c.05927-6.6446.01107-13.337.12905-19.94388.57062-31.95666.63131-64.03162.65508-96.0746q.02053-27.7028.0126-55.40907C171.1372,575.07924,173.53976,577.89237,175.9686,580.68666Zm107.39812-66.45652c-.00876.01752-.14153-.06442-.19-.12094l-2.2608-2.66152c-.03922-.04645-.07307-.16826-.04941-.17046.07855-.00744.20584-.0219.27584.04908.33422.34.65574.70767,1.24761,1.3588.18141.23881.59111.77822.99369,1.30842A.23658.23658,0,0,1,283.36672,514.23014Zm5.43807,7.0337a2.37462,2.37462,0,0,1-.33707-.223,2.57915,2.57915,0,0,1-.22172-.241,10.363,10.363,0,0,0-1.29779-1.51173c-.40455-.37509-.636-.769-.52714-.78829a.39306.39306,0,0,1,.26883.057,2.56266,2.56266,0,0,1,.96532.83868,17.3084,17.3084,0,0,0,1.151,1.75887C288.83864,521.19987,288.8359,521.28006,288.80479,521.26384Zm4.47538,5.05181-.38057-.4338c.02323.00351.055-.00175.06836.01271l.37837.42547C293.32366,526.31916,293.29024,526.327,293.28017,526.31565Zm11.65774,13.67c-.181-.19543-.36063-.38954-.75127-.81107.37563.36676.53875.52626.70328.68707a3.38289,3.38289,0,0,1,.21395.27255C305.04822,540.08466,304.98643,540.0369,304.93791,539.98563Z"/><path class="cls-1" d="M317.17744,552.70476l.04612.05083.13375.1446-.16935-.18447Z"/><path class="cls-1" d="M306.78342,540.93956a1.38157,1.38157,0,0,0,.25426.22961,1.21447,1.21447,0,0,0-.18744-.28614q-1.24881-1.4598-2.5029-2.92574c-.49733-.57709-.56142-.62441-.99095-.76463,1.09787,1.10027,1.10674,1.12175,2.43575,2.64136C306.12111,540.20078,306.45555,540.57411,306.78342,540.93956Z"/><path class="cls-1" d="M318.05687,553.65825c-.07854-.08545-.2089-.227-.29818-.32426-.13715-.1481-.26872-.29051-.40138-.4338.11755.128.234.255.3557.38735C317.95773,553.55177,318.18986,553.802,318.05687,553.65825Z"/><path class="cls-1" d="M297.24758,529.71463l-.14109-.19061-.16827-.17439c.05916.08632.11262.17133.18075.259A.98033.98033,0,0,0,297.24758,529.71463Z"/><path class="cls-1" d="M139.02017,1101.24191c-.66494-.6564-.7838-.66384-1.76215-.2502a13.23005,13.23005,0,0,1,3.45233,2.72374c.43741.41628.90594.81152,1.36976,1.19317.12707.10342.40236.20244.41682.15293a.63559.63559,0,0,0-.165-.44519Q140.67956,1102.93307,139.02017,1101.24191Z"/><path class="cls-1" d="M129.06751,1091.50374a2.35924,2.35924,0,0,0,.19587.3615c.03122.04119.1423.03856.2169.05609l-.16432-.25283Z"/><path class="cls-1" d="M217.38157,853.54342c-2.59623-2.233-2.91238-2.40124-4.87642-2.79254,5.59131,4.19034,5.64861,4.27535,12.55875,10.15839,1.68689,1.43592,3.42593,2.86922,5.13374,4.267a6.37477,6.37477,0,0,0,1.27939.858,5.50534,5.50534,0,0,0-1.02414-1.14672Q223.93224,859.22839,217.38157,853.54342Z"/><path class="cls-1" d="M288.5984,914.446c-.391-.31725-1.06752-.86629-1.53889-1.24882-.79333-.63887-1.551-1.24926-2.31448-1.86447.68488.55649,1.36756,1.11123,2.07994,1.69051C288.08683,914.03759,289.28438,914.99721,288.5984,914.446Z"/><path class="cls-1" d="M284.745,911.33269c-.209-.17-.41737-.33959-.628-.51048l-.0069-.00526c.06386.053.12532.10385.19072.15775C284.44969,911.09432,284.59692,911.21351,284.745,911.33269Z"/><path class="cls-1" d="M179.6294,821.31026a4.99045,4.99045,0,0,0,.63449.397l-.76365-.74185-.86212-.666C178.964,820.63634,179.26505,820.97111,179.6294,821.31026Z"/><path class="cls-1" d="M158.61044,1378.02522c-.04864,2.97263-.04875,5.997-.04064,8.95908a8.86542,8.86542,0,0,0,.195,2.05683,7.64991,7.64991,0,0,0,.30366-2.0393q.2974-11.58249.59625-23.2193c.10046-4.59391.00942-5.06539-1.23622-7.43333C158.84673,1365.71667,158.80751,1365.84812,158.61044,1378.02522Z"/><path class="cls-1" d="M157.442,1489.5164c-.00449-.6748-.01238-1.84475-.01774-2.65977-.01359-1.34346-.02662-2.62734-.03977-3.92.00734,1.16206.01457,2.32062.02213,3.52825C157.43008,1488.63828,157.455,1490.69687,157.442,1489.5164Z"/><path class="cls-1" d="M157.38451,1482.93665l-.00723-1.15417-.00088-.01753-.00032.33828C157.37892,1482.38279,157.38177,1482.65972,157.38451,1482.93665Z"/><path class="cls-1" d="M160.88789,1297.17527a6.892,6.892,0,0,0,.13748.99555l.10725-1.4241-.06014-1.4609C161.00938,1295.91067,160.92251,1296.50835,160.88789,1297.17527Z"/></g></g></svg>