<svg xmlns="http://www.w3.org/2000/svg" viewBox="0 0 508.02697 1489.86102"><defs><style>.cls-1{fill:#24373e;}</style></defs><g id="Слой_2" data-name="Слой 2"><g id="Слой_1-2" data-name="Слой 1"><path class="cls-1" d="M504.00155,1178.59955c-2.89486-2.95642-5.90254-6.17794-9.30065-9.6983-8.03407-8.32547-15.95116-16.7412-23.89629-25.19024-9.688-10.28765-19.40754-20.57837-28.96847-30.983q-16.34409-17.83512-32.718-35.70268-11.19928-12.21018-22.40931-24.43218-6.91846-7.4949-13.84219-14.995c-6.18079-6.63321-12.32717-13.30147-18.5807-19.86939-5.068-5.3581-10.27472-10.58956-15.40935-15.88587-4.92846-5.09607-9.78111-10.26881-14.82021-15.24613q-30.36276-29.81394-61.43517-58.87641c-.12708-.11874-.26116-.23048-.38955-.34791q.24484-13.9914.48945-27.99111.51695-37.94969,1.03477-75.96816.25173-26.987.50369-54.01082c.0493.035.09772.06879.147.10385,1.37.982,2.86813,1.93413,4.30449,2.87623,5.76736,3.78107,11.524,7.52885,17.2782,11.36777,5.74085,3.82489,11.49,7.82375,17.15178,11.30686,5.79672,3.57689,11.24355,7.95389,17.0613,11.69729,2.3423,1.51216,4.96417,3.39372,7.14281,4.74595,8.4394,5.25556,17.06174,11.29635,25.64157,17.10446q7.88959,5.33706,15.74916,10.654,8.54753,5.79913,17.07729,11.58643,12.07971,8.2685,24.16358,16.54008c.82291.55079,1.5584,1.04287,2.33354,1.56168.1514-.12444.68072.1963,3.50283,2.21808,3.982,2.79823,7.30889,5.13638,11.1202,7.81455,1.83336,1.29439,3.07342,2.13921,3.44938,2.38415-1.75076-1.269-3.128-2.26672-5.71171-4.13863-7.44341-5.33488-14.82087-10.643-22.1394-15.98885-5.1252-3.74208-10.31767-7.50475-15.43717-11.08777-4.23-2.95949-8.12895-5.77174-12.42883-8.93586-8.06015-5.90758-16.36349-12.24545-24.63989-17.51723a44.94168,44.94168,0,0,1-6.06116-4.62151,32.33124,32.33124,0,0,0-4.67124-3.62289c-2.83329-1.81627-5.3627-3.675-8.14867-5.81775-4.42148-3.399-9.04474-6.79227-13.78435-10.12377-1.28387-.90266-2.58637-1.95386-3.94364-2.98753.68291-.43862,6.49825,3.58214,7.459,3.4761-2.33266-2.22728-6.11922-4.55666-8.81711-6.805a104.4208,104.4208,0,0,0-10.30342-7.87458c-.03834.34047.34134,1.00388-.2846.8641a31.27475,31.27475,0,0,1-3.74734-2.45339c-3.20706-2.38459-6.58326-4.877-9.45532-7.21686-5.15325-4.21225-11.15876-8.038-16.18559-12.32783a35.45515,35.45515,0,0,0-3.21561-2.279q13.25328-9.9084,26.477-19.854Q321.649,722.226,347.65054,702.02688q4.91412,3.79641,9.82384,7.58976,8.09762,6.27434,16.17792,12.53509,11.43886,8.93892,22.88146,17.88092c.78018.59636,1.47733,1.12963,2.21194,1.69138.15863-.1148.66275.23575,3.3291,2.41307,3.76574,3.01908,6.91211,5.54126,10.5166,8.43108,1.73476,1.39736,2.91,2.31141,3.26577,2.57607-1.6537-1.36581-2.95422-2.4398-5.39446-4.455-7.03218-5.7472-14.00081-11.4633-20.90854-17.21357-4.83754-4.02514-9.74037-8.07483-14.58294-11.94179-4.00127-3.19391-7.68375-6.22175-11.74067-9.62336-4.483-3.74427-9.04124-7.6384-13.63755-11.38224q9.45455-7.3069,18.903-14.61864,17.52258-13.5944,35.03116-27.17784l17.49926-13.60689,4.37964-3.39679.8229-.61214c.23356-.177.46689-.32907.72388-.54159l.84767-.84789.44059-.4338.22413-.21909c.05609-.02936.03944.10779.06266.15468l.16432.847.08062.44475.0401.22742a1.4392,1.4392,0,0,1-.03681.28263l-.20047,1.19886-.10012.617-.02476.156.0184.6564.04316,1.38641.17133,5.54607.35011,11.093q.7217,22.18563,1.44316,44.36074.956,27.87037,1.60615,55.6895c.65815,26.69715,1.7753,53.31456,2.86265,79.84651.5749,13.631,1.19558,25.649,1.54372,35.77016.20638,5.32524.22238,8.58488.22391,8.51959-.01446-.01052-.09684-.0688-.2662-.18886-.52735-.37684-1.44118-1.02929-2.07786-1.48412-1.047-.7436-2.04828-1.45389-3.05566-2.169.90265.64545,1.80334,1.28957,2.74236,1.96087,1.361.96488,2.66218,1.88506,2.65736,1.88112h0c.00131-.09684-.01117-3.5392.14-11.60132.20485-8.46657.42241-17.46772.66428-27.47011.53612-23.65617,1.21837-47.265,1.90544-70.9628.82707-28.87492,1.63464-57.80023,2.63392-86.65061q.43182-12.34689.86409-24.70211l.43687-12.35631.21471-6.17925.10823-3.19917.10867-5.29763.21953-10.68377.02761-1.3439-.04536-1.223-.09881-2.4363-.20068-4.89011-.20376-4.91247-.103-2.46434-.05193-1.23436-.01292-.30848-.00658-.15468-.00328-.07712a.18645.18645,0,0,0-.00285-.03593l-.032.021-.50938.33916-8.1949,5.45493-4.12789,2.74609c-1.38313.92282-2.85739,1.96657-4.2874,2.9481l-8.69245,6.01011-2.187,1.51173-1.40613.94866-2.56819,1.72294-5.13747,3.44411q-28.105,18.85851-56.23833,37.73629-9.34151,6.29011-18.6898,12.58373c-.3144-.26948-.62682-.53765-.94122-.80757-3.32975-2.83767-3.72126-3.06816-6.06335-3.771,2.98994,2.28819,4.73237,3.62946,6.41259,4.97731l-.87484.58892c-2.66217-1.95692-5.03187-3.94014-7.63073-6.21606-4.16186-3.64217-8.5244-7.29136-13.00679-10.88533-1.2142-.97364-2.43673-2.0967-3.71513-3.20487.70744-.39611,6.21168,3.94759,7.17239,3.89851-2.16659-2.35348-5.76977-4.8945-8.29764-7.29048a102.694,102.694,0,0,0-9.70159-8.442c-.0609.33653.27168,1.01878-.34046.84263a30.72154,30.72154,0,0,1-3.55608-2.662c-3.02411-2.56161-6.209-5.24023-8.90343-7.73743-4.834-4.49488-10.53982-8.65542-15.24306-13.21953-.342-.33346-.78-.70284-1.26437-1.09064q.00033-.22676.00065-.45351.00264-3.734.00329-7.46839,30.977-23.73482,61.98181-47.49155,26.63931-20.42018,53.30491-40.8614,16.38288-12.59928,32.77716-25.20821l10.90965-8.42187,2.727-2.1059.68159-.52626,1.20829-.9605,2.60719-2.0783,5.23058-4.1693,2.61573-2.09276,2.42951-2.12694,4.87149-4.267,2.442-2.14008,1.22253-1.07179c-.25918-.40708-.67-.8251-.998-1.23743l-8.387-9.9726-8.65827-10.11895-4.503-5.39491c-9.57123-11.48871-19.30151-22.87357-28.94876-34.31057-9.26471-10.99663-18.44508-22.06162-27.83007-32.94914l-28.29521-32.61919L314.27856,317.558l-28.4845-32.45269L263.8146,260.1276l-.7333-.84262q-.10746-12.88323-.21471-25.76558c-.04075-7.70325-.15928-15.40606-.12839-23.108.04886-7.7015.184-15.40168-.13583-23.09923q-1.3632-29.02982-2.35239-58.00705c-.96159-27.80795-2.48756-55.53308-3.94649-83.16926-.76266-14.19843-1.56387-26.71687-2.00293-37.25866-.52188-11.13072-.07559-13.60689-.45725,3.20968-.20616,8.81536-.56087,18.19335-.86015,28.61333-.698,24.64076-1.641,49.232-2.587,73.91571q-.89125,22.55764-1.783,45.13807c-.53941,15.0485-1.551,30.0935-1.47865,45.11922-.00745,8.57348-.19587,17.15047-.333,25.73009q-.208,12.86876-.41605,25.74366-.0102.64939-.02016,1.29921l-3.97585,4.57726-7.13274,8.12566-3.97081,4.54614-3.16521,3.675-3.89457,4.60793c-5.96454,7.00084-11.89293,14.028-17.91378,20.98807q-16.38189,18.8756-32.77058,37.75951L149.68928,369.197c-7.53652,8.66988-14.72973,17.62721-22.55808,26.06529a41.12247,41.12247,0,0,0-3.20092,3.97432c-3.58237,5.04611-7.94382,9.70881-11.94158,14.55073-4.3529,5.26038-9.05044,10.26749-13.07493,15.83022a162.28013,162.28013,0,0,1-20.99289,23.99225c-.35777.33127-.72541.698-1.09786,1.08845q-.31681.34177-.64435.69539-.53043.59418-1.07289,1.20282c-1.42563,1.63573-2.89573,3.32273-4.2885,4.92079l-4.2898,4.969-4.18289,4.92955-4.16537,4.9186-.26006.30673c-.04009.02717-.01139.04908.018.07055l.07558.0666.151.13233.60359.53064,1.20632,1.06084,2.40913,2.11949,5.54892,4.88486c.89324.81809,1.91136,1.616,2.90691,2.41658l2.98512,2.40124,5.95884,4.79328,3.44653,2.71892,12.53684,9.849,25.09625,19.66827q7.49062,5.79912,14.9692,11.58949c4.99506,3.85863,10.17,8.2168,14.942,11.43656,5.67753,3.83848,9.5537,7.889,14.377,11.69948,1.78735,1.41314,3.64108,2.73733,5.46129,4.11453,7.70019,5.834,15.59054,11.54962,23.07141,17.5111q16.22678,12.89767,32.56376,25.511c4.549,3.5186,9.247,7.45962,13.58585,10.51507.98854.69539,1.951,1.40174,2.92137,2.105v.25809q-6.8133,5.99761-13.62682,11.99437-20.71893,18.31756-41.59361,36.3674-8.54226,7.40552-17.00061,14.88025a35.01626,35.01626,0,0,0-3.82906-2.65671c-4.87741-2.86746-8.99961-6.99821-13.87681-9.95025-5.18545-3.12249-8.50841-7.0153-12.9415-10.52777-1.35-1.06873-2.68233-2.25927-4.03522-3.19041-10.53041-7.23133-20.01224-15.38459-30.21357-22.88452l-3.81438-2.853-4.94248-3.74471q-6.17245-4.67388-12.344-9.34731l-3.12709-2.3548-3.06838-2.16988q-3.07013-2.13876-6.14639-4.28279-3.06848-2.11248-6.0995-4.13732l-3.00242-1.98322-.372-.24319-.18579-.12094-.09268-.06c-.02979-.0184-.07252-.06134-.05849.00614l.016.99117.03944,1.98978c.05652,2.5121-.26576,4.85638-.3672,7.46576q-.2284,6.33218-.45746,12.67706-.16038,6.65556-.32119,13.33433c-.18491,10.63426-.28723,14.17258-.26751,20.10382.00832,2.3158.04141,4.65832-.0344,6.95265-.75915,23.08346-1.60879,46.14194-2.28425,69.24337-.142,4.71659-.26159,9.438-.39589,14.15636-1.81561-1.57658-3.51248-3.31879-5.451-4.78057-1.09019-.82685-2.24415-1.90128-3.27694-2.62734-3.994-2.82847-7.84194-6.24454-11.73914-9.48622q-3.58509-2.97876-7.15617-5.9457-3.88121-3.23708-7.75452-6.4667-5.45734-4.63443-10.91645-9.27019c-.36785-.31461-.71292-.5784-1.06653-.86716-.14789.12137-.4016-.04908-1.64516-1.20238-1.774-1.5849-3.25548-2.90865-4.95321-4.42564-.819-.73834-1.38247-1.212-1.55292-1.34347.76813.72826,1.3726,1.3014,2.50333,2.3732,3.27914,3.044,6.52213,6.07715,9.71144,9.14925,2.23386,2.14973,4.50715,4.30558,6.79249,6.3313,1.88879,1.673,3.60011,3.28155,5.46589,5.10439,3.50568,3.39855,7.02867,7.09856,10.90483,9.96427a10.834,10.834,0,0,1,2.57367,2.69658,7.81678,7.81678,0,0,0,1.96218,2.1265,27.28869,27.28869,0,0,1,3.5977,3.31441c1.86775,1.98891,3.87682,3.94233,5.98755,5.82915.57182.51092,1.10465,1.1362,1.6813,1.73914-.624.45-3.23729-1.81276-3.93707-1.5814.83408,1.39036,2.63611,2.637,3.71513,3.98746a25.38752,25.38752,0,0,0,4.29748,4.53782q-.679,24.79764-1.22231,49.6198-.34441,19.11945-.689,38.25685l-.071,5.14865-.07011,9.17773L55.863,881.57571l-.21756,18.78445-.11721,9.46562-.05916,4.74727-.02958,2.37758c.58235-.3672,1.23962-.88031,1.85637-1.31411q7.56489-5.5073,15.15914-11.03607,3.80135-2.76383,7.59415-5.522c2.53116-1.83467,5.01784-3.58083,7.52841-5.34934q9.168-6.46165,18.3443-12.9277l10.1207-7.06657q9.42826-6.626,18.80833-13.34,5.50994-3.93182,10.99729-7.89912a72.82342,72.82342,0,0,0,8.79893,8.6861,14.24822,14.24822,0,0,1,1.5619,1.924,142.61346,142.61346,0,0,0,11.01218,11.75119c.82839.77076,1.68306,1.53232,2.44594,2.35742,7.67762,8.29523,15.28425,16.64831,23.0254,24.88877q12.18783,13.01928,24.61754,25.82911c8.68368,8.94419,17.51722,17.7521,26.32864,26.57578.06222.06178.12641.12225.18885.184.00241,4.62939.01227,9.26449.28044,13.88732a242.32674,242.32674,0,0,1-.18338,33.4846c-.16541,2.038-.14306,4.6329-.14,6.96842l.09049,14.50077q.21394,33.48154.42766,66.96176.1045,9.94455.2088,19.87464c.07383,6.6262-.09355,13.73221.29424,19.75065.46162,7.1656-.213,13.01358-.209,19.46845.00154,2.39248.10276,4.7797.14855,7.17524.19455,10.13823.565,20.35183.54181,30.39761-.03352,14.51217.01621,28.96211.14219,43.43529.05258,6.03771-.16366,12.47812.15052,18.036.47017,8.31145.52888,16.367.35164,24.76345-.03681,1.75536.03264,3.60142.06113,5.38877.10845,7.17568.1378,14.322.47827,21.52222.34617,7.18006.57928,14.47317,1.26219,21.37805.68466,7.07577.23815,14.34522.76222,21.54018.20134,2.89989.22632,6.26163.47345,8.92578.93684,10.33059,1.1636,21.29568,1.60244,32.08286q.40191,9.91694.80253,19.79533c.27277,7.16955.54466,14.31893.81743,21.48585q.48737,15.24349.97539,30.49137c.04513,1.03061.08545,1.95167.12795,2.92268.23289.05171.29555.69408.31615,4.31.0815,5.06889.14942,9.30437.22742,14.15592.03111,2.3434.08172,3.90947.108,4.37131.00241-2.254.00416-4.026.00723-7.35182-.04711-9.53836-.07581-19.00574-.02257-28.44507.03571-6.61042.044-13.2892-.07821-19.798-.10254-5.3765-.11043-10.384-.05522-15.94459.078-10.40859.4314-21.28516-.32075-31.48868a37.43741,37.43741,0,0,1,.24955-7.93724,26.92194,26.92194,0,0,0,.2594-6.15384,94.26807,94.26807,0,0,1-.0804-10.42874c.21515-5.8068.27058-11.7801.1676-17.81388-.02826-1.63442.09027-3.37576.14679-5.15215,1.01.30848,1.20347,7.6717,2.06406,8.41749.58761-3.32844.15359-7.946.48069-11.59607a85.12179,85.12179,0,0,0,.48244-13.50216c-.40225.17528-.82751.9-1.16842.28658a25.28446,25.28446,0,0,1-.27539-4.66052c.07449-4.16185.14219-8.53316.41408-12.38566.496-6.92066-.17681-14.32463.416-21.18526.14789-1.73389-.1641-4.61888-.22741-7.00435a310.73383,310.73383,0,0,1,1.10181-31.17143,96.31022,96.31022,0,0,0,.59834-18.69944,75.42756,75.42756,0,0,1,.16979-12.22924,65.19391,65.19391,0,0,0-.19587-12.11663,50.95087,50.95087,0,0,1-.70657-9.3552c.10692-1.308.27474-4.22758.56723-6.70156a60.221,60.221,0,0,0,.4866-8.38769,197.64187,197.64187,0,0,1,.98613-22.59007,57.86228,57.86228,0,0,0,.22961-10.43707c-.52209-5.86683.23618-11.86774-.2158-17.78627-.4796-6.28223.49624-11.4633.64478-17.34853.04513-1.79217.18207-3.643.1365-5.35371-.35406-13.30148.37639-26.28088.35558-39.4693-.02081-13.24188.71424-26.36764.18864-39.71907-.06244-1.5849.158-3.46295.211-5.23759.33981-11.345.6082-22.72547.5129-34.27158-.01731-2.11949-.04032-4.25563-.01972-6.36548,6.92942,6.82426,14.03915,13.47631,21.17934,20.08717q27.47832,25.426,55.67526,50.09216c11.336,9.87094,22.95485,19.42814,34.543,29.01076q16.78119,13.77382,33.54989,27.538,16.727,13.83955,33.469,27.69139c7.037,5.76955,13.97211,11.62016,20.88269,17.51416,9.93426,8.47708,20.15531,16.594,30.32553,24.70386,5.23628,4.15484,9.93119,7.73523,13.76506,10.87744C508.92628,1183.18118,509.52813,1184.23545,504.00155,1178.59955ZM345.746,822.65373c.53415.37158,1.03762.84131,1.556,1.26591-.36676-.22479-.76134-.43862-1.0959-.6748-1.25429-.89871-2.49851-1.79085-5.20517-3.73069C343.53908,821.18363,344.65053,821.89217,345.746,822.65373ZM40.7676,738.41532a6.35772,6.35772,0,0,1-.633-.75455,4.991,4.991,0,0,1,.52122.36106c.55255.51267,1.10072,1.02184,2.29323,2.12869C41.7787,739.23034,41.25836,738.84474,40.7676,738.41532ZM279.043,649.51069c5.44332,4.14346,10.88314,8.46131,16.27081,12.26079,5.51519,3.90026,10.62944,8.57655,16.15448,12.6442,2.22422,1.64231,4.701,3.66934,6.77343,5.143,2.897,2.06647,5.811,4.239,8.73407,6.46363q-5.81851,3.918-11.63594,7.8347c-15.34669,10.38362-30.71945,20.726-46.02188,31.19817q-2.37671,1.62084-4.74595,3.2557.01938-2.28271.05652-4.55579c.5026-28.1471.60513-56.38534.63975-84.6135C269.86546,642.58259,274.45805,646.01487,279.043,649.51069ZM266.176,313.01887q7.439,8.676,14.96109,17.29463c10.0116,11.50536,20.15531,22.90775,30.29135,34.30707q25.26594,28.37583,50.71963,56.5926l25.51034,28.162L410.41012,474.288c-.02475.018.22654.03067.30323.08895a.72466.72466,0,0,1,.05937.12576c.02914.03812-.021.02059-.07208.00394l-.14285-.03505-.1492-.02717-2.05289,1.77815-4.30974,3.75522-8.60459,7.52579q-17.16931,15.09757-34.33183,30.189-32.963,29.12709-65.90135,58.23227-14.95,13.15863-29.91341,26.32952.024-67.10437-.15753-134.20087c-.10144-32.02107-.5004-64.02111-.82794-96.01107q-.35559-31.03977-.711-62.05586ZM190.56251,565.86032a3.54768,3.54768,0,0,1-1.09151-.63581q-7.63917-6.49977-15.27154-12.99386c-.26532-.227-.65-.78172-.54685-.77778a2.213,2.213,0,0,1,1.34259.37465c2.15936,1.6835,4.31281,3.47961,8.23,6.67308,1.27664,1.14979,4.17347,3.736,6.97586,6.31991A1.1828,1.1828,0,0,1,190.56251,565.86032ZM228.368,600.03725a20.65362,20.65362,0,0,1-1.96262-1.155c-.35251-.23092-.86563-.70285-1.45673-1.19054a95.92367,95.92367,0,0,0-8.70538-7.42413c-2.54255-1.87937-4.31807-3.76531-3.85053-3.80255a2.49552,2.49552,0,0,1,1.34522.38034,23.68491,23.68491,0,0,1,5.97484,4.22058c2.52087,2.78552,5.43,5.58069,8.46985,8.47313C228.41317,599.75856,228.54177,600.12445,228.368,600.03725Zm10.81523,5.2411a94.04792,94.04792,0,0,0-13.26576-11.89622,69.45593,69.45593,0,0,1-8.802-7.627,58.31532,58.31532,0,0,0-8.95141-7.2769,45.60171,45.60171,0,0,1-7.28873-5.16047c-.884-.886-2.90362-2.80612-4.51065-4.55929a52.11993,52.11993,0,0,0-5.78357-5.53907,159.64035,159.64035,0,0,1-15.76253-14.69095,46.61779,46.61779,0,0,0-7.42938-6.60954c-4.65-3.14046-8.46591-7.49336-13.11021-10.71839-4.939-3.41213-7.97711-7.48153-12.14291-11.23719-1.26876-1.14278-2.51145-2.40562-3.79247-3.41213-9.96975-7.81542-18.837-16.48662-28.46238-24.55006-4.83359-4.04661-9.49059-8.26412-14.20588-12.4308l-.88512-.7804-.22151-.195c-.07843-.06968-.07471-.06091-.11611-.09509l-.184-.14329-.73615-.56218-1.4896-1.08626c-.45965-.39217-.93618-.77909-1.44951-1.16951l-.80078-.59111a1.58575,1.58575,0,0,1-.198-.15073l.12466-.1744.2445-.35361a11.81881,11.81881,0,0,1,1.69227-1.42278l2.288-2.10021q2.78585-2.91633,5.58113-5.84229c3.72718-3.95723,7.41295-7.98281,11.03256-12.11925,1.51217-1.72863,3.023-3.49319,4.5847-5.15,15.70556-16.672,31.46239-33.26551,47.11669-50.00584q24.71217-26.38165,49.22872-53.02229,12.79482-13.99665,25.60213-28.00732l8.508-9.371q-.00492.31221-.00964.62441-.50577,35.23317-1.012,70.50095-.284,21.69531-.5681,43.40637-.33258,28.93714-.66538,57.88743-.14559,23.54881-.29118,47.13969c-.101,15.09933-.321,30.19385-.3225,45.29055l.0184,36.72847C241.33473,607.46225,240.10256,606.24936,239.18326,605.27835Zm3.57863,32.21606.05215,104.1639a94.97739,94.97739,0,0,0-13.91493-10.93923,70.64567,70.64567,0,0,1-9.346-7.11215,59.28444,59.28444,0,0,0-9.472-6.75283,46.35252,46.35252,0,0,1-7.66118-4.73281c-.9467-.83386-3.10234-2.63654-4.83316-4.29594a52.95072,52.95072,0,0,0-6.17662-5.20123,161.553,161.553,0,0,1-15.95357-12.98466q2.97744-2.31229,5.95424-4.62414Q212.03882,661.21936,242.76189,637.49441Zm-10.95456,99.74132a21.12644,21.12644,0,0,1-2.04719-1.03937c-.36917-.21033-.9158-.65245-1.54175-1.1051a97.61632,97.61632,0,0,0-9.23513-6.9154c-2.678-1.72994-4.58646-3.512-4.12-3.57732a2.52264,2.52264,0,0,1,1.37523.3006,24.06785,24.06785,0,0,1,6.27916,3.87c2.71739,2.63874,5.82476,5.26389,9.06994,7.97887C231.83384,736.954,231.98742,737.31241,231.80733,737.23573Zm-56.80315-45.089c2.28009,1.55686,4.56192,3.22677,8.70735,6.19064,1.35858,1.07574,4.43945,3.49232,7.42566,5.9124a1.19374,1.19374,0,0,1,.43293,1.01921,3.59,3.59,0,0,1-1.13818-.57139q-8.10288-6.05283-16.19874-12.1c-.28153-.21121-.70525-.744-.6014-.74623A2.24032,2.24032,0,0,1,175.00418,692.14674ZM84.25832,651.04126c.0092-.92237.03724-.72869.06529-.87636a2.24318,2.24318,0,0,1,.0999-.26948.86887.86887,0,0,1,.686-.59987c.11283-.00877.165-.05083.18228-.1319a2.17889,2.17889,0,0,0-.037-.358c-.03527-.25152-.08676-.52582-.14219-.82028l-.08457-.45221c.03265-.0517.14482.02673.21844.03988l.61039.23005a1.63589,1.63589,0,0,1,.32776.15029l.3374.33171.72059.69452.09443.08938.04754.04514.02388.02278c-.02147-.01183.11283.07844.16169.11262l1.65524,1.13927,3.31047,2.279,26.50654,18.19772q7.90635,5.36007,15.80064,10.71181c5.272,3.56593,10.75826,7.62132,15.76319,10.56064a75.3853,75.3853,0,0,1,6.94891,4.68856q-14.70551,13.08435-29.30149,26.20419c-10.06527,9.0419-18.86726,17.10183-26.39042,23.75476-7.914,7.06-9.9577,8.28691,2.58944-1.66334,6.60911-5.18239,13.63559-10.69253,21.44356-16.81482q17.97775-14.14191,36.03439-28.1563c1.26525.96137,2.54474,1.91354,3.88974,2.84468,1.88835,1.308,3.83783,2.52349,5.75685,3.79422,8.11952,5.3822,16.42133,10.63513,24.32943,16.15843q17.15091,11.9466,34.393,23.60226c1.31017.88732,2.63348,1.80576,3.95811,2.729q-1.09043.75455-2.18,1.51c-11.93434,8.23433-23.92872,16.37839-35.766,24.74286L160.8292,800.77089l-23.01883,16.48137q-.30926-.255-.61806-.51093a77.47994,77.47994,0,0,0-7.20131-5.86682c-2.88938-1.83555-4.43-4.19911-6.71866-6.18539-.84788-.73658-1.76982-1.39079-2.65166-2.0932-3.72937-2.977-7.62985-5.82432-11.164-8.94462q-7.676-6.74232-15.51671-13.24144c-2.181-1.81495-4.34085-3.92743-6.51227-5.42514-.13781-.09465-.26619-.19543-.40269-.29051l-.08983-23.97341c-.07843-11.58336-.60447-23.15576-.31089-34.7584a41.8403,41.8403,0,0,0-.2261-5.14076c-.64917-6.206-.46009-12.64113-.66231-18.96936-.2123-6.88166.00088-13.80144-.65771-20.69274-.50654-5.34013-.80735-10.71838-.84329-16.09094Q84.2214,653.05405,84.25832,651.04126Zm29.74142,163.60819c-.23946.05872-.62835.16213-.84416-.02059-1.03148-.87155-2.02462-1.832-3.85337-3.52168-.56329-.63536-1.848-2.059-3.066-3.5002-.16826-.19937-.03527-.54291.05631-.734.0276-.05784.43731.12532.58629.27343l6.96579,7.00961C113.96535,814.27831,114.07226,814.63192,113.99974,814.64945ZM96.9483,795.2774a1.17714,1.17714,0,0,1-.84459-.0241,6.00854,6.00854,0,0,1-2.98578-2.07261,41.63574,41.63574,0,0,0-3.48092-4.87083c-.09815-.12357-.07931-.38166.01818-.34924a5.62768,5.62768,0,0,1,1.05077.50129,5.931,5.931,0,0,1,.6794.63054,23.39664,23.39664,0,0,0,3.96533,4.00937C96.59644,794.0483,97.29294,795.15427,96.9483,795.2774ZM90.0914,851.562l-2.13351,1.54416.00526.03856.00833.07843c-.00132.04076.02081.13628-.00921.13058-.03965.028-.10275.09027-.101.01928.00044-.01446-.16366.09553-.14547.04557l-.02147-.1056-.01359-.0872-.00635-.05258-.02826-1.59192q-.0963-6.954-.19259-13.91317-.17778-23.50544-.3558-47.02138a19.917,19.917,0,0,0,2.295,1.98585,16.987,16.987,0,0,1,3.97322,4.147,14.2653,14.2653,0,0,0,4.18574,3.84505,11.48024,11.48024,0,0,1,3.63911,2.53752c.36281.50916,1.223,1.59323,1.83949,2.63a13.0338,13.0338,0,0,0,2.45141,3.13432,39.55287,39.55287,0,0,1,6.80323,8.22775,11.483,11.483,0,0,0,3.30192,3.63341c2.3675,1.50122,3.77385,4.111,6.112,5.67841a8.7841,8.7841,0,0,1,1.4896,1.2646ZM216.738,885.9847c-4.168-3.8284-8.63943-7.32816-12.559-11.43393a10.09516,10.09516,0,0,0-1.981-1.55993c-2.65013-1.60989-4.806-3.906-7.19255-5.88217-2.58988-2.1541-4.90129-4.63027-7.80119-6.46319a39.682,39.682,0,0,1-11.49638-10.70086,15.16834,15.16834,0,0,0-2.307-2.31755c-1.69642-1.506-3.43557-2.96562-5.15368-4.44886l-4.38709-3.7583q4.18257-3.04909,8.36294-6.10081,35.53091-25.965,70.86377-52.21209.06474,7.0164.1297,14.03455.06474,26.25021.12948,52.51181l-.05236,38.054c-.00657,8.30356.13671,16.60143.1389,24.90806l-13.62441-12.47462Zm34.42406,490.591c-.04359-.44607-.11984-.90967-.12663-1.33646-.01139-1.60725-.02279-3.20136-.04732-6.67.1814,3.161.28394,4.53168.319,5.92072C251.32376,1375.16739,251.21312,1375.87988,251.16207,1376.57571Zm3.16544-109.38791c-.07209-.0964-.20617-.19674-.20573-.28745l.04163-3.48267c.06419.1113.18381.216.18425.33521Zm1.51282-54.01214c-.53962,3.90421-.84766,8.12916-1.15264,12.52545-.02322.33346-.23377.68225-.27978.48332a21.4292,21.4292,0,0,1-.37618-2.36268c-.048-.4395-.00832-1.17127-.00832-1.97577a102.37,102.37,0,0,0,.19389-12.01584c-.16935-3.31617.15621-6.01494.48091-5.66088a2.69884,2.69884,0,0,1,.565,1.34434A26.08862,26.08862,0,0,1,255.84033,1213.17566Zm1.21859-41.45251a1.25276,1.25276,0,0,1-.52736.98766,4.13508,4.13508,0,0,1-.19608-1.30973q.095-10.53346.19017-21.05774c.00394-.36676.16454-1.04945.22084-.96312a2.54436,2.54436,0,0,1,.5118,1.33864c.08347,2.87492.08632,5.82.14372,11.12809C257.34352,1163.65007,257.23112,1167.72561,257.05892,1171.72315Z"/><path class="cls-1" d="M34.48318,736.53464c-.27781-.25809-.80888-.61916-.806-.55168a2.31984,2.31984,0,0,0,.53524.82642q3.7997,3.88908,7.6167,7.79614c1.51743,1.53189,1.72688,1.63223,3.18472,1.70585a70.2587,70.2587,0,0,1-7.494-6.87246C36.53037,738.45607,35.49867,737.48243,34.48318,736.53464Z"/><path class="cls-1" d="M.11959,702.87914c.23377.21559.63668.58717.91733.8457.4774.43511.93136.84876,1.39123,1.2681-.41189-.38078-.8194-.75718-1.2475-1.15286C.4261,703.15476-.29055,702.50669.11959,702.87914Z"/><path class="cls-1" d="M2.42815,704.99294c.12094.1113.24429.22522.36588.33784l.00461.0035-.11349-.10735C2.5997,705.14937,2.51316,705.07006,2.42815,704.99294Z"/><path class="cls-1" d="M430.38271,881.36363c.08873.06441.174.1262.26488.19192.223.15863.44432.3155.666.4728-.30454-.21777-.6082-.43467-.91493-.6542Z"/><path class="cls-1" d="M357.43209,826.99174q-8.88273-6.69368-17.806-13.41759c-3.5324-2.64312-3.94057-2.85038-6.33765-3.41476,7.47627,5.008,7.56172,5.10571,16.95066,12.07281,2.29191,1.701,4.64495,3.402,6.9533,5.06189a10.45638,10.45638,0,0,0,1.68941,1.03411A9.004,9.004,0,0,0,357.43209,826.99174Z"/><path class="cls-1" d="M286.92983,774.22228c.45549.39437.881.78479,1.38224,1.18441a8.29082,8.29082,0,0,0,.83167.48156l-1.05689-.872Z"/><path class="cls-1" d="M416.7125,755.84052c-.28-.22829-.55912-.45571-.84109-.68575l-.01424-.01052.24911.20551C416.30938,755.51408,416.5105,755.67708,416.7125,755.84052Z"/><path class="cls-1" d="M421.58751,759.79687c-.49822-.40575-1.36188-1.109-1.9635-1.59892-.99774-.80757-1.95145-1.57965-2.91151-2.35743.86081.702,1.71921,1.40175,2.61442,2.13176C420.93571,759.27281,422.46212,760.50366,421.58751,759.79687Z"/><path class="cls-1" d="M281.90825,641.34647a8.12866,8.12866,0,0,0,.79355.528l-.99095-.92938-1.09545-.8584C281.04109,640.506,281.43743,640.91925,281.90825,641.34647Z"/><path class="cls-1" d="M255.18,1378.02522c-.04864,2.97263-.04864,5.997-.04053,8.95908a8.85935,8.85935,0,0,0,.195,2.05683,7.65456,7.65456,0,0,0,.30366-2.0393q.29742-11.58249.59615-23.2193c.10056-4.59391.00942-5.06539-1.23612-7.43333C255.41639,1365.71667,255.37717,1365.84812,255.18,1378.02522Z"/><path class="cls-1" d="M253.954,1482.90686c-.00241-.37421-.0046-.74754-.007-1.12438l-.00087-.01578c0,.11306,0,.22085-.00022.33653C253.9487,1482.37227,253.95133,1482.63869,253.954,1482.90686Z"/><path class="cls-1" d="M254.0118,1489.5164c-.00461-.6748-.01249-1.84475-.018-2.65977-.01358-1.354-.02673-2.6475-.03988-3.94977.00723,1.1717.01468,2.33989.02235,3.558C253.99975,1488.63828,254.0245,1490.69687,254.0118,1489.5164Z"/><path class="cls-1" d="M257.45744,1297.17527a6.89645,6.89645,0,0,0,.13759.99555l.10714-1.4241-.06-1.4609C257.579,1295.91067,257.49228,1296.50835,257.45744,1297.17527Z"/></g></g></svg>