<svg xmlns="http://www.w3.org/2000/svg" viewBox="0 0 315.06661 1489.86102"><defs><style>.cls-1{fill:#24373e;}</style></defs><g id="Слой_2" data-name="Слой 2"><g id="Слой_1-2" data-name="Слой 1"><path class="cls-1" d="M175.51574,521.02985c-.49054.35318-.95809.74974-1.40963,1.14585-.12269.10867-.24385.39-.18711.4246a.62937.62937,0,0,0,.51662-.0298c1.327-.85533,2.65889-1.71066,3.97147-2.594.77317-.52844.785-.66253.33587-1.93676A9.99748,9.99748,0,0,1,175.51574,521.02985Z"/><path class="cls-1" d="M189.68372,512.2627l.19652-.22654a2.00992,2.00992,0,0,0-.42153.09508c-.048.021-.0482.14986-.07033.22917Z"/><path class="cls-1" d="M273.04336,1123.57959q-3.05271-2.66394-6.11878-5.3397a5.40328,5.40328,0,0,0-2.17865-1.44819c2.5706,2.03273,2.5993,2.07041,5.82718,4.84849.79311.67173,1.6,1.3553,2.39028,2.02484a4.61019,4.61019,0,0,0,.57972.42811A3.92131,3.92131,0,0,0,273.04336,1123.57959Z"/><path class="cls-1" d="M298.45291,1145.45454c-.09662-.08063-.19543-.163-.29292-.24451l-.00833-.00657.094.07887Z"/><path class="cls-1" d="M300.23894,1146.94c-.18294-.15249-.49624-.41409-.71423-.59593-.36742-.305-.71753-.59549-1.0718-.88951.31856.26554.63361.52845.96466.8045C300.00233,1146.74411,300.55663,1147.20376,300.23894,1146.94Z"/><path class="cls-1" d="M249.316,1102.989a3.27377,3.27377,0,0,0,.28723.19937l-.36106-.34441-.39744-.32119C248.99984,1102.67784,249.14466,1102.83032,249.316,1102.989Z"/><path class="cls-1" d="M314.29628,705.06962l-6.46582-7.79834c-2.13921-2.60017-4.45128-5.26958-6.68272-7.91445l-3.38562-3.98571-1.15352-1.37984-.85686-1.04243c-7.42326-9.05154-15.00162-17.99485-22.49937-26.99293-7.19868-8.65279-14.31411-17.37438-21.63351-25.9185l-22.09032-25.57935-22.19242-25.48864L185.05673,553.557l-8.74109-9.91739-5.59756-6.35058-1.27708-1.46967q-.00626-5.75508-.0149-11.5093c.06463-.04995.11984-.10078.18579-.15074,1.66641-1.29789,3.58324-2.44637,4.66533-4.37043a1.66856,1.66856,0,0,1,1.39495-.84262,1.24956,1.24956,0,0,0,1.12372-.60338,3.89471,3.89471,0,0,1,1.56212-1.42716,13.52922,13.52922,0,0,0,2.867-2.20362,4.678,4.678,0,0,1,.89214-.56263c.60272.80976-.40839,1.92581.03462,2.68387.89258.01052,1.32221-.93114,2.09473-1.16381a3.76764,3.76764,0,0,0,2.3859-1.4184c-.28394-.28044-.66735-.50654-.7907-.84482-.06244-.17176.27869-.63317.54247-.82159a9.80987,9.80987,0,0,1,2.18215-1.30885c1.41051-.50522,2.19617-1.90084,3.71491-2.25927.38692-.08676.62924-.70591.96576-1.05733a11.55909,11.55909,0,0,1,5.86748-2.84907c1.52466-.07274,2.80547-.3891,3.53329-1.69314a2.601,2.601,0,0,1,2.1403-1.30929,2.17421,2.17421,0,0,0,1.80816-1.6664c.20266-.5692-.04447-1.37414.88513-1.89076a7.78942,7.78942,0,0,1,1.5963-.21646,2.45169,2.45169,0,0,0,1.81123-.49208,6.83713,6.83713,0,0,1,4.625-1.62347c.861-.02848,1.67714-.22873,1.93852-.98547.448-1.31192,2.1793-1.14892,2.69438-2.39818.535-1.34,2.3767-.78916,3.50174-1.30666.34178-.15862.78675-.21339,1.01877-.47586,1.79151-2.05815,4.70564-2.68781,6.83324-4.313,2.12519-1.6445,5.11162-2.23474,6.67155-4.58208.18491-.27912.7425-.20945,1.09195-.35361a21.07412,21.07412,0,0,0,6.151-3.4875,6.42216,6.42216,0,0,1,1.15067-.91317c4.38533-2.364,8.82171-4.6592,13.13934-7.10908q3.40074-1.937,6.75239-3.93707l1.669-1.00825c.08107-.05259.1124-.06223.234-.14942l.38714-.28088.77558-.5635,1.55708-1.134,6.29953-4.63071,6.69719-5.00186,1.68722-1.2716,2.2321-1.30272,4.51153-2.62734,18.48846-10.76045,2.31141-1.37371.56723-.34441.28285-.1722c.02344-.02805.14722-.05784.08829-.085l-.13715-.08282-1.09634-.6599c-1.45871-.88075-2.88652-1.76062-4.17325-2.64925-6.232-4.30208-13.26619-8.74876-20.53915-13.18273-.21909-.138-.47367-.2778-.6645-.415l-.50391-.41057-1.01133-.82116-2.03514-1.64143-4.11059-3.278-8.31429-6.53243-1.7328-1.35355-.95633-.72387L267.34063,402.7l-3.27651-2.38064q-3.288-2.36619-6.6343-4.66007-6.70026-4.57727-13.6242-8.87233c-5.57587-3.42308-11.49988-6.404-17.38927-9.42487-5.66023-2.91566-11.44248-5.667-17.1279-8.552-5.68038-2.89331-11.28474-5.89487-17.00478-8.73823-3.59485-1.78779-7.07643-3.7044-10.52142-5.67491a151.04884,151.04884,0,0,0-13.56328-6.66563q-.38976-33.99881-.77931-68.00375-.19225-23.094-.38494-46.20811c-.04075-7.70325-.15928-15.40606-.12839-23.108.04886-7.7015.18382-15.40168-.13584-23.09923q-1.36318-29.02982-2.35238-58.00705c-.96181-27.80795-2.48778-55.53308-3.94671-83.16926C159.709,31.93743,158.90774,19.419,158.46847,8.8772c-.52166-11.13072-.07537-13.60689-.45725,3.20968-.20594,8.81536-.56065,18.19335-.85993,28.61333-.698,24.64076-1.641,49.232-2.58725,73.91571q-.89094,22.55764-1.78275,45.13807c-.5394,15.0485-1.55116,30.0935-1.47864,45.11922-.00745,8.57348-.19587,17.15047-.333,25.73009q-.208,12.86876-.41606,25.74366-.39863,25.74871-.79727,51.5053-.50577,35.23317-1.0122,70.50095-.28362,21.69531-.56789,43.40637-.33258,28.93714-.66538,57.88743-.14558,23.54881-.29117,47.13969-.02365,3.53547-.05784,7.07007c-1.47405,1.70278-2.94743,3.39986-4.41973,5.07241l-6.19831,7.15683-5.11644,5.99434c-4.643,5.50138-9.25069,11.02993-13.94911,16.48969Q104.688,583.37119,91.89209,598.178l-18.6462,21.36359C67.36,626.33872,61.8159,633.425,55.641,639.98723a25.2478,25.2478,0,0,0-2.46828,3.14265c-2.69789,4.04311-6.14245,7.66513-9.23843,11.48389-3.37225,4.1474-7.08344,8.03583-10.126,12.48382a110.91175,110.91175,0,0,1-7.62525,9.92747q-2.04741,2.36421-4.24424,4.58645-1.10028,1.10817-2.23276,2.18171l-1.145,1.06041-1.97489,1.9578c-2.06735,2.04631-4.46968,4.86864-6.63277,7.37373-2.24328,2.59843-4.3632,5.15654-6.52914,7.73086L.20173,705.76414l-.20113.24012c-.01095.07625.131.1411.18886.21208l.46666.41715.93223.83343,1.8614,1.6664,4.28674,3.84024,2.13965,1.91617,1.069.95743,1.17433.94034,9.39222,7.49862,10.32074,8.02225L51.583,747.57027c3.91144,3.0217,7.85639,5.993,11.79587,8.97354,3.93686,2.98665,7.97734,6.40973,11.78843,8.83726,4.53322,2.89508,7.47584,6.17619,11.26852,9.13743,1.40526,1.09764,2.878,2.10809,4.31545,3.17025,6.08175,4.49926,12.34119,8.87057,18.21831,13.51q12.75112,10.03263,25.62843,19.794c3.585,2.72418,7.25455,5.81775,10.70612,8.14143.33674.22654.65924.46053.9927.68838q-4.59632,4.11979-9.19307,8.23959Q121.02,842.55906,104.772,856.79473c-15.57081,13.68839-30.802,27.69139-46.00084,41.6291-7.79834,7.17305-14.60156,13.58542-20.44144,18.85062-6.13675,5.59515-7.78519,6.49649,2.077-1.2405,5.20233-4.023,10.7311-8.2983,16.87485-13.04908,14.50911-11.26523,29.08284-22.39463,43.71288-33.56391q23.2021-17.72931,46.48592-35.396.01709,6.81462.03374,13.62836l-.05236,38.054c-.00964,12.0658.305,24.11933.0287,36.20484-.03966,1.73783.01687,3.68731.12378,5.35459.41431,6.46451.24035,13.16739.34179,19.759.1102,7.16779-.0964,14.3759.32009,21.55377a242.36276,242.36276,0,0,1-.18338,33.4846c-.16541,2.038-.14307,4.6329-.14,6.96842l.09048,14.50077q.21394,33.48154.42767,66.96176.10451,9.94455.20879,19.87464c.07384,6.6262-.09355,13.73221.29424,19.75065.46163,7.1656-.213,13.01358-.209,19.46845.00154,2.39248.10276,4.7797.14855,7.17524.19455,10.13823.565,20.35183.54181,30.39761-.03352,14.51217.01621,28.96211.14219,43.43529.05258,6.03771-.16388,12.47812.15051,18.036.47017,8.31145.52889,16.367.35165,24.76345-.03681,1.75536.03264,3.60142.06112,5.38877.10845,7.17568.13781,14.322.47828,21.52222.34616,7.18006.57928,14.47317,1.26218,21.37805.68466,7.07577.23816,14.34522.76222,21.54018.20135,2.89989.22632,6.26163.47346,8.92578.93683,10.33059,1.16359,21.29568,1.60243,32.08286q.40193,9.91694.80253,19.79533c.27277,7.16955.54466,14.31893.81743,21.48585q.48738,15.24349.9754,30.49137c.04513,1.03061.08544,1.95167.12795,2.92268.23289.05171.29555.69408.31615,4.31.08128,5.06889.14942,9.30437.22741,14.15592.03089,2.3434.08172,3.90859.108,4.37131.0022-2.25488.004-4.026.00723-7.35182-.0471-9.53836-.0758-19.00574-.02256-28.44507.03571-6.61042.04382-13.2892-.07822-19.798-.10253-5.3765-.11042-10.384-.05521-15.94459.078-10.40859.43139-21.28516-.32075-31.48868a37.43771,37.43771,0,0,1,.24933-7.93724,26.90933,26.90933,0,0,0,.2594-6.15384,94.32509,94.32509,0,0,1-.08019-10.42874c.21515-5.8068.27058-11.7801.16739-17.81388-.028-1.63442.09049-3.37576.147-5.15215,1.01.30848,1.20347,7.6717,2.06406,8.41749.5876-3.32844.15358-7.946.48069-11.59607a85.123,85.123,0,0,0,.48244-13.50216c-.40226.17528-.82751.9-1.16842.28658a25.26514,25.26514,0,0,1-.2754-4.66052c.07449-4.16185.14219-8.53316.41409-12.38566.496-6.92066-.17681-14.32463.41605-21.18526.14789-1.73389-.16432-4.61888-.22742-7.00435a310.73383,310.73383,0,0,1,1.10181-31.17143,96.30943,96.30943,0,0,0,.59834-18.69944,75.40257,75.40257,0,0,1,.1698-12.22924,65.19477,65.19477,0,0,0-.19587-12.11663,50.95,50.95,0,0,1-.70657-9.3552c.10692-1.308.27474-4.22758.567-6.70156a60.18541,60.18541,0,0,0,.48682-8.38769,197.63958,197.63958,0,0,1,.98613-22.59007,57.8632,57.8632,0,0,0,.22961-10.43707c-.5221-5.86683.23618-11.86774-.21581-17.78627-.47959-6.28223.49624-11.4633.64479-17.34853.04513-1.79217.18206-3.643.13649-5.35371-.35405-13.30148.37618-26.28088.35559-39.4693-.00855-5.41857.10845-10.81829.21493-16.222.18425.18666.38209.35975.5624.54992a17.347,17.347,0,0,0,1.868,1.56475l4.04617,3.06771,18.65782,14.19493,5.55506,4.193c1.85132,1.39868,3.76005,2.98972,5.54038,4.143,2.1162,1.37677,3.521,2.88368,5.30464,4.26965.66034.51486,1.34829.9938,2.02177,1.4942,2.85192,2.1173,5.76408,4.20349,8.52178,6.38257q5.97758,4.71923,11.98583,9.34687c1.67166,1.29264,3.39832,2.73864,4.99287,3.86214,2.38306,1.68262,4.60136,3.42133,6.87465,5.2801.47521.38867.99642.77164,1.49529,1.14936,2.00053,1.52005,3.99294,3.034,6,4.55885,1.98979,1.53539,3.98089,3.13038,5.9446,4.54658,2.00819,1.45652,3.88756,3.17157,5.90123,4.68636.81.61215,1.71548,1.36188,2.4685,1.914,2.9172,2.14446,5.89158,4.565,8.85063,6.90707q2.71816,2.1552,5.42624,4.303,2.94228,2.3445,5.87843,4.68374,4.153,3.34354,8.30751,6.688c.28175.22347.5348.4246.80078.6358.04644-.02717.22741.10692,1.19843.91668,1.3691,1.12744,2.51144,2.06866,3.82117,3.14746.61827.50391,1.02315.8343,1.18068.96313-.60075-.5061-1.0788-.90835-1.96284-1.65239q-3.8319-3.21735-7.6178-6.397c-1.76434-1.49332-3.551-2.9976-5.31078-4.441-1.45432-1.19229-2.796-2.31754-4.27644-3.5782-2.77545-2.35479-5.63284-4.86689-8.47861-7.02713a19.303,19.303,0,0,1-2.08685-1.83029,13.78977,13.78977,0,0,0-1.60769-1.432c-.97474-.74272-1.84563-1.48369-2.80393-2.332-1.52093-1.34653-3.1111-2.70139-4.74223-4.04-.44191-.36238-.88951-.77646-1.356-1.187.2421-.11962,2.24218,1.50209,2.5763,1.51042-.79793-.86015-2.10065-1.81977-3.025-2.70359a42.31373,42.31373,0,0,0-3.53263-3.13563c-.0173.11611.10867.36018-.10976.28657a12.43007,12.43007,0,0,1-1.29045-.99774c-1.10115-.95217-2.2608-1.94773-3.24343-2.87273-1.76171-1.66509-3.83344-3.22459-5.54739-4.91422-.432-.42854-1.25583-1.01614-1.90171-1.54415-2.10043-1.71636-6.40579-5.59822-8.04021-7.37593a34.52569,34.52569,0,0,0-4.80928-4.441,24.7344,24.7344,0,0,1-3.18887-2.85257,20.46234,20.46234,0,0,0-3.24847-2.72068,15.946,15.946,0,0,1-2.6567-1.92362c-.31834-.33214-1.047-1.05207-1.62237-1.712a17.90308,17.90308,0,0,0-2.08268-2.08093,52.1389,52.1389,0,0,1-5.66965-5.53205,15.39308,15.39308,0,0,0-2.67532-2.48976c-1.70343-1.16162-3.04515-2.82671-4.74333-4.023-1.80794-1.26372-2.85454-2.83417-4.34721-4.25694-.45527-.43249-.89455-.91581-1.35858-1.29308-3.61391-2.92969-6.76247-6.23841-10.221-9.29079-3.48246-3.05413-6.6251-6.44873-10.33015-9.29692a16.31614,16.31614,0,0,1-1.28476-1.31849c-1.41423-1.4-2.83569-2.79692-4.285-4.17369l-1.09283-1.02885a1.891,1.891,0,0,0-.16673-.14679l-.10494-.08326-.21121-.16344c-.28306-.21515-.57292-.42022-.884-.62353a3.30745,3.30745,0,0,1-.61543-.56833l-.28416-.36325-.13474-.17615-.06573-.08676c.01621-.02717.08041-.05258.11809-.07887l1.02316-.592a4.52344,4.52344,0,0,0,.80844-.5876l.34814-.28263.17966-.1446.633-.4728q5.065-3.77866,10.13451-7.5604,10.65047-7.96944,21.31977-15.95335,11.14014-8.40851,22.29539-16.82753c1.8614-1.39955,3.66474-2.89157,5.55616-4.23591,9.15341-6.49562,18.02924-13.37772,26.854-20.30188l10.98589-8.62913,5.485-4.324,2.74-2.1655,1.3691-1.08319.7666-.61258,1.363-1.12613L290.57833,934.91a39.48914,39.48914,0,0,0,4.68943-4.53256l4.31281-4.54439,4.30186-4.53694.26839-.28351c.03856-.04688.10363-.09464.12006-.14109l-.14876-.1354-.59549-.54028-1.191-1.081-2.38109-2.15936-4.75954-4.31084-2.378-2.151-2.63019-2.1839-11.92273-9.7706-6.516-5.2928-13.13868-10.44321c-8.43414-6.6893-17.00675-13.18492-25.48492-19.82119-8.47971-6.63671-16.84046-13.44607-25.36333-20.02889a200.49337,200.49337,0,0,1-15.46281-13.14285,165.3426,165.3426,0,0,0-18.74611-15.38722q21.22042-15.92968,42.44719-31.86376,21.01371-15.78378,42.04823-31.58289,12.9187-9.74409,25.84663-19.49562l8.59934-6.51709,8.146-6.43077,2.06538-1.63135c.6829-.54554,1.40634-1.08538,2.00249-1.64494l3.7561-3.34027,3.76859-3.35385,1.88879-1.68218.9456-.84263C314.86658,705.71944,314.54933,705.39212,314.29628,705.06962ZM269.03771,1121.5451c.184.14942.358.32908.537.49471-.12642-.09245-.26226-.18272-.3775-.27737-.4327-.35887-.8619-.71467-1.79523-1.48938C268.27528,1120.95224,268.65408,1121.2467,269.03771,1121.5451Zm-29.16434-25.48689.91449.77865c-.03965-.00526-.09224.00263-.11656-.01752l-.92368-.794C239.79012,1096.03543,239.84139,1096.031,239.87337,1096.05821ZM224.028,1082.52669a.89747.89747,0,0,1,.49778.138,8.37675,8.37675,0,0,1,2.18061,1.57c.91011,1.03937,1.96569,2.08005,3.06991,3.15492.08391.08194.12905.21733.06551.18491a7.5639,7.5639,0,0,1-.718-.42942c-.12883-.08588-.31549-.2616-.53086-.44257a34.45957,34.45957,0,0,0-3.16937-2.75967C224.49514,1083.24531,223.853,1082.54247,224.028,1082.52669Zm-14.03082-13.08457a.77351.77351,0,0,1,.505.12664c.78588.62748,1.56672,1.29921,2.98841,2.49282.46009.43249,1.4999,1.41007,2.52042,2.36925a.43571.43571,0,0,1,.11722.397,1.2087,1.2087,0,0,1-.4016-.234l-5.53862-4.85507C210.09164,1069.65377,209.95777,1069.44212,209.99721,1069.44212ZM173.50229,517.53885c-.09465.10079-.27868.10648-.42109.15687a.924.924,0,0,1,.12488-.27211c.234-.22785.48091-.43687,1.00935-.9009A9.708,9.708,0,0,1,173.50229,517.53885Zm18.6278-11.66442c-.03724-.07449-.119-.20244-.10472-.21427.18206-.14942.37815-.28219.57073-.4189.03.07055.10144.188.08325.20375C192.50474,505.59794,192.31522,505.73334,192.13009,505.87443Zm9.67683-5.51672a8.8332,8.8332,0,0,0-2.92991.46842.42775.42775,0,0,1-.30432-.20814,1.93014,1.93014,0,0,1,.05828-.673c.02848-.10429.1744-.16126.29906-.26686a3.43068,3.43068,0,0,0,2.02528-1.37764c.36961-.60426,1.06785-.62617,1.29373-.24758a1.70539,1.70539,0,0,1,.27606.74842C202.54394,499.47828,202.47274,500.38707,201.80692,500.35771Zm11.24858-6.30939a18.95623,18.95623,0,0,1-1.6491,1.54416c-.344.1595-1.10663.53721-1.90741.84525-.11086.04251-.45045-.266-.64566-.45308a.387.387,0,0,1,.02739-.379q1.7477-1.24093,3.52934-2.43848c.06222-.04163.32579.05608.36632.131C212.91046,493.54616,213.13525,493.95367,213.0555,494.04832Zm31.90912-57.217.00613.02892-.12269-.113-.09815-.08763C244.86186,436.71388,244.95323,436.777,244.96462,436.83131Zm-71.64176-76.6526c4.0729,4.67059,8.17057,9.32716,12.09581,14.1739q6.69235,8.3316,13.39634,16.67723,4.55983,5.736,9.18343,11.40282c1.87651,2.34866,3.80035,4.63992,5.70908,6.95177,2.57235,3.04581,5.10351,6.14157,7.75977,9.08791,2.13921,2.42139,4.43945,4.65087,6.65666,6.97893,2.12562,2.24394,4.13994,4.62458,6.41258,6.684,1.914,1.72688,3.85075,3.42527,5.79124,5.11885-.94626.8251-1.89339,1.64976-2.82058,2.49808-1.81189,1.64581-3.20816,3.77932-5.33531,5.05882a1.60063,1.60063,0,0,0-.63646.92851c-.44585,1.50252-1.64735,2.18653-2.48888,3.26095-.92281,1.15943-2.22137,1.88725-2.76647,3.4967a6.03178,6.03178,0,0,1-5.08533,4.50013,2.20236,2.20236,0,0,0-1.16556.80976c-.68817.70416-1.32178,1.4723-1.98278,2.20844-3.03945,3.41432-6.0697,6.84-9.05329,10.31964-.89192,1.0271-1.7306,2.11467-2.57892,3.19085-.8538,1.07092-2.0152,1.92888-2.47289,3.27761-.55013,1.59936-2.024,1.69269-2.91325,2.66765a12.28229,12.28229,0,0,0-.85358,1.24356,44.41524,44.41524,0,0,1-3.70484,5.16355c-2.0347,2.1506-3.96949,4.39979-5.83944,6.73311a14.88491,14.88491,0,0,0-2.33792,2.89858,12.05062,12.05062,0,0,1-3.0962,4.1141,4.63264,4.63264,0,0,0-.66932.9009c-.8389,1.26065-1.65568,2.53883-2.54584,3.7469a21.71041,21.71041,0,0,0-2.545,3.70352c-.66625,1.43373-2.09736,2.024-2.88806,3.34815-.32185.52976-.83255.98153-1.0891,1.51436a30.0648,30.0648,0,0,1-3.96468,5.3857q-1.03817,1.29747-2.0726,2.5901-.03911-26.38232-.11612-52.76025c-.10144-32.02107-.50041-64.02111-.828-96.01107q-.10089-8.818-.202-17.629C169.96572,356.32183,171.642,358.2494,173.32286,360.17871ZM108.15634,775.256c-.0149.067-.62858-.24714-.8825-.4636q-5.95721-5.11359-11.90937-10.22192c-.2066-.17878-.48266-.64413-.39327-.65158a1.59536,1.59536,0,0,1,1.129.19893c1.70037,1.30491,3.38365,2.71367,6.45312,5.20824.989.91274,3.2351,2.96255,5.39906,5.02026A.94073.94073,0,0,1,108.15634,775.256Zm29.26753,27.13928a12.96121,12.96121,0,0,1-1.58535-.84394c-.28219-.17309-.67874-.549-1.14124-.9307a58.84343,58.84343,0,0,0-6.787-5.84273c-2.013-1.44294-3.35758-2.97351-2.94656-3.0572a1.80029,1.80029,0,0,1,1.13051.20288,14.64036,14.64036,0,0,1,4.75143,3.21231c1.89755,2.27154,4.13206,4.51109,6.47,6.8247C137.49288,802.13627,137.56584,802.45614,137.42387,802.39524Zm-1.42344-5.80855a42.62812,42.62812,0,0,1-6.84945-6.01756,35.77164,35.77164,0,0,0-7.01684-5.68236,28.14167,28.14167,0,0,1-5.79518-3.92918c-.675-.71336-2.22838-2.24963-3.44061-3.67723a32.11417,32.11417,0,0,0-4.44427-4.43485,98.24589,98.24589,0,0,1-12.15562-11.71787,28.63688,28.63688,0,0,0-5.763-5.23629c-3.71338-2.36794-6.571-5.93124-10.27034-8.37717-3.93576-2.58528-6.14683-5.97243-9.37273-8.95383-.98284-.907-1.93019-1.92625-2.93779-2.708-7.8461-6.06445-14.641-13.02717-22.16065-19.35453-1.88791-1.588-3.73354-3.21933-5.56426-4.86558l-2.73864-2.47792-.68379-.62047-.342-.31023c-.12291-.11218-.11787-.09859-.18294-.15337l-.57818-.45877c-.38341-.30147-.764-.59243-1.14979-.87462l-.5795-.42109-.5245-.46623c-.35778-.308-.73352-.61214-1.14454-.91843l-.64544-.46359a1.386,1.386,0,0,1-.16125-.11831l.0907-.13584.17527-.27562a8.22813,8.22813,0,0,1,1.42015-1.11342c.71315-.58147,1.31806-1.12306,1.9096-1.64187l.854-.76287,2.21677-2.286c2.94634-3.07166,5.848-6.2073,8.67777-9.44766,1.182-1.354,2.35917-2.74,3.59375-4.02558,12.41591-12.93953,24.8868-25.80458,37.24925-38.80984q19.52-20.49051,38.83525-41.229,10.0977-10.88182,20.15026-21.82149l.23027-.25152.08588,170.94337c.00285,4.22408.08764,8.446.12883,12.67092q.13408,14.48763.26773,28.97877.01479,6.04954.02979,12.10129c-.41912-.43774-.80954-.85446-1.134-1.22121A57.7988,57.7988,0,0,0,136.00043,796.58669Zm19.32977,579.989c-.0436-.44607-.11984-.90967-.12663-1.33646-.0114-1.60725-.02279-3.20136-.04733-6.67.18141,3.161.284,4.53168.31878,5.92072C155.49167,1375.16739,155.38125,1375.87988,155.3302,1376.57571Zm3.16543-109.38791c-.0723-.0964-.20616-.19674-.20594-.28745l.04184-3.48267c.0642.1113.18382.216.18426.33521Zm1.51261-54.01214c-.53962,3.90421-.84745,8.12916-1.15242,12.52545-.02322.33346-.23377.68225-.27978.48332a21.4292,21.4292,0,0,1-.37618-2.36268c-.048-.4395-.00833-1.17127-.00833-1.97577a102.36776,102.36776,0,0,0,.1939-12.01584c-.16936-3.31617.15621-6.01494.48091-5.66088a2.69711,2.69711,0,0,1,.56481,1.34434A26.074,26.074,0,0,1,160.00824,1213.17566Zm1.2188-41.45251a1.25339,1.25339,0,0,1-.52735.98766,4.13528,4.13528,0,0,1-.19609-1.30973q.095-10.53346.19018-21.05774c.00394-.36676.16453-1.04945.22084-.96312a2.54436,2.54436,0,0,1,.5118,1.33864c.08347,2.87492.08632,5.82.14372,11.12809C161.51164,1163.65007,161.39925,1167.72561,161.227,1171.72315ZM260.5832,923.64343a.88715.88715,0,0,0-.04075.14942l-.01008.0631c-.00329.01928.01534.04382-.07712.03243a2.22286,2.22286,0,0,1-.71972-.1503l-.01949-.00789c-.02235.014.02541-.04425-.06354.03812l-.37136.32733-.74141.65552-1.47689,1.31893q-1.4723,1.32441-2.91939,2.67773L207.9073,972.27863c-1.07618,1.014-2.09978,2.08838-3.15273,3.1295-2.40672,2.38153-4.79174,4.78584-7.23768,7.12573q-6.64207,6.35452-13.35011,12.63894l-9.759,9.06118c-3.0881,2.88017-6.013,5.94351-9.24281,8.66944-.01052.00876-.02059.0206-.03111.02936.3385-11.31607.60557-22.66763.51048-34.18438-.01993-2.41219-.0574-4.852-.01621-7.24228q.63066-36.06594,1.26109-72.12486.38976-28.59864.77953-57.249,2.33792,2.19529,4.71616,4.34678c7.82353,7.05693,15.82956,13.9158,23.62834,20.98938,8.903,8.06913,17.9714,15.9608,27.065,23.81566q9.332,8.05818,18.80636,15.95774,5.81393,4.87763,11.68787,9.68865l3.91494,3.20531,1.95955,1.60068.98065.79881c.053.08281.00964.10078.01731.15249a1.84909,1.84909,0,0,1-.11108.47017,1.6393,1.6393,0,0,1-.09158.19762c.021.03987.07406.06134.10648.08719a.79146.79146,0,0,0,.184.08633.68077.68077,0,0,1,.08785.02848ZM275.71408,704.117a2.45957,2.45957,0,0,0-.271-.07712l-.07121-.0149c-.00569.00219-.00022-.007-.0149.004l-.10472.09289-.20945.18535-.41912.37027-1.67518,1.48324-6.68842,5.94614q-13.3374,11.93872-26.66889,23.87263-25.59063,23.04993-51.16176,46.08191Q178.289,791.1495,168.14,800.246q.26389-28.27067.52757-56.547c.05916-6.6446.011-13.337.12905-19.94388.57051-31.95666.63142-64.03162.65508-96.0746q.01545-20.74686.01709-41.49546c2.1655,2.51824,4.31982,5.0448,6.49978,7.55252,7.81981,9.01867,15.77063,17.93262,23.71466,26.84482q19.8063,22.18167,39.79947,44.20254l20.05036,21.96741,10.06572,10.9458,5.04457,5.46239.63077.68225c.07449.08106.05893.0631.05893.0631h.00307l.00964.00087.0252.007a1.43321,1.43321,0,0,1,.326.06223.82457.82457,0,0,1,.08019.10647l.03462.06091C275.83064,704.17047,275.74388,704.12227,275.71408,704.117Z"/><path class="cls-1" d="M159.34812,1378.02522c-.04864,2.97263-.04864,5.997-.04053,8.95908a8.85875,8.85875,0,0,0,.195,2.05683,7.65456,7.65456,0,0,0,.30366-2.0393q.29741-11.58249.59614-23.2193c.10057-4.59391.00943-5.06539-1.23611-7.43333C159.58452,1365.71667,159.5453,1365.84812,159.34812,1378.02522Z"/><path class="cls-1" d="M158.12208,1482.91124c-.00219-.376-.0046-.75017-.007-1.12876l-.00088-.01578c0,.11306,0,.22085-.00021.33653C158.1166,1482.374,158.11945,1482.64219,158.12208,1482.91124Z"/><path class="cls-1" d="M158.1797,1489.5164c-.00438-.6748-.01227-1.84475-.01774-2.65977-.01359-1.35223-.02673-2.644-.03988-3.94539.00745,1.16994.01468,2.33726.02235,3.55366C158.16787,1488.63828,158.19263,1490.69687,158.1797,1489.5164Z"/><path class="cls-1" d="M161.62557,1297.17527a6.89365,6.89365,0,0,0,.13759.99555l.10714-1.4241-.06-1.4609C161.74717,1295.91067,161.66041,1296.50835,161.62557,1297.17527Z"/></g></g></svg>