<svg xmlns="http://www.w3.org/2000/svg" viewBox="0 0 352.79186 1489.86102"><defs><style>.cls-1{fill:#24373e;}</style></defs><g id="Слой_2" data-name="Слой 2"><g id="Слой_1-2" data-name="Слой 1"><path class="cls-1" d="M16.09727,595.467a26.93175,26.93175,0,0,1-2.58319,1.63048c-.35778.21778-.72158.43906-1.07837.656a1.01346,1.01346,0,0,0-.22884.18141.899.899,0,0,0,.27266-.10561q1.4184-.81041,2.84238-1.62434C15.88289,595.88152,15.93109,595.83288,16.09727,595.467Z"/><path class="cls-1" d="M.04106,605.17932c.08479-.053.223-.14022.31735-.19937.16114-.1021.31626-.20025.47291-.29972-.14131.08895-.28131.177-.42734.26861C.14535,605.11272-.09949,605.26871.04106,605.17932Z"/><path class="cls-1" d="M.83132,604.68023l.13146-.08238.00153-.00087-.04.02453Z"/><path class="cls-1" d="M23.44122,591.49006a.73279.73279,0,0,0-.1067.09421l.18316-.08545.17122-.11437C23.60652,591.41863,23.52557,591.448,23.44122,591.49006Z"/><path class="cls-1" d="M347.52316,601.96613c-.78928-.49427-1.58918-.9903-2.38021-1.45477-.65377-.38341-1.25485-.7528-1.9165-1.17258-1.24115-.78128-2.51177-1.64055-3.80507-2.28293a4.19957,4.19957,0,0,1-.92829-.62528,3.01587,3.01587,0,0,0-.71347-.49515,10.40972,10.40972,0,0,1-1.2578-.75981c-.67568-.46316-1.38619-.91449-2.11938-1.34522-.19861-.117-.3959-.26422-.60338-.40488.13463-.135,1.0351.38122,1.20686.30322-.34189-.33871-.93628-.61477-1.34149-.93727a9.21632,9.21632,0,0,0-1.56859-1.081c-.0184.07712.02684.19806-.08.20639a2.70949,2.70949,0,0,1-.585-.30235c-.49087-.32163-1.00859-.65508-1.44052-.989-.774-.6025-1.71669-1.06171-2.46391-1.69138a7.4698,7.4698,0,0,0-.85609-.49208,24.06978,24.06978,0,0,1-3.5506-2.60982,7.57987,7.57987,0,0,0-2.12135-1.57965,5.39566,5.39566,0,0,1-1.41412-.98941,4.46229,4.46229,0,0,0-1.45565-.89258,3.54621,3.54621,0,0,1-1.21486-.54159c-.13726-.12839-.45494-.397-.69824-.66648a4.01912,4.01912,0,0,0-.90584-.78216,11.54259,11.54259,0,0,1-2.47693-2.04718,3.39287,3.39287,0,0,0-1.17849-.89039c-.78479-.30279-1.34216-1.00914-2.12136-1.33471-.83046-.34-1.24312-1.06127-1.89787-1.57921a5.638,5.638,0,0,0-.59615-.47017c-1.62719-.932-2.98348-2.21676-4.52062-3.264a46.44152,46.44152,0,0,0-4.57638-3.24123,3.64046,3.64046,0,0,1-.55595-.50435,38.38372,38.38372,0,0,0-3.84341-2.96694c-.28492-.18535-.57818-.36457-.84393-.57533-2.6739-2.11818-5.31155-4.28762-7.96748-6.43953q-4.19226-3.38957-8.39142-6.784-4.42263-3.52035-8.85074-7.04466c-.736-.58979-1.52049-1.1143-2.22772-1.7409-3.418-3.03441-7.03721-5.77568-10.67807-8.47313-6.0433-4.48261-12.10742-8.935-18.2617-13.23575-3.7033-2.5901-7.578-4.89713-11.4335-7.23308-3.70779-2.25138-7.505-4.34765-11.24037-6.55521-3.73616-2.20756-7.395-4.5514-11.15843-6.71427a43.59708,43.59708,0,0,1-6.71547-4.68155,37.41209,37.41209,0,0,0-5.0253-3.64217q-.02743-11.455-.05718-22.90906c-.10144-32.02107-.50052-64.02111-.82795-96.01107q-.52911-46.17481-1.05766-92.315-.19242-23.094-.38506-46.20811c-.04075-7.70325-.15938-15.40606-.12838-23.108.04874-7.7015.18392-15.40168-.13584-23.09923q-1.36335-29.02982-2.35238-58.00705c-.9617-27.80795-2.48768-55.53308-3.9466-83.16926-.76244-14.19843-1.56377-26.71687-2.00294-37.25866-.52176-11.13072-.07558-13.60689-.45724,3.20968-.20617,8.81536-.56066,18.19335-.86015,28.61333-.69792,24.64076-1.64089,49.232-2.587,73.91571q-.89094,22.55764-1.78286,45.13807c-.53929,15.0485-1.55106,30.0935-1.47865,45.11922-.00745,8.57348-.196,17.15047-.333,25.73009q-.208,12.86876-.41617,25.74366-.39848,25.74871-.79705,51.5053-.50593,35.23317-1.0122,70.50095-.284,21.69531-.568,43.40637-.33275,28.93714-.66549,57.88743-.04305,6.97236-.08621,13.95743c-2.66941,1.05953-5.34583,2.10372-7.92136,3.32756-3.85107,1.82985-7.60258,3.835-11.46165,5.64511-4.40253,2.06822-8.71578,4.29506-13.0103,6.54951-2.93725,1.54284-5.83878,3.14835-8.732,4.767q-2.67034,1.494-5.30738,3.04625c-2.34329,1.379-4.68713,2.75617-6.98825,4.20787-1.87082,1.1809-3.68653,2.4582-5.53271,3.68248-1.77442,1.17565-3.60328,2.26234-5.32293,3.52606L83.90647,543.60415c-.48014.35536-.92851.76156-1.3944,1.13971-1.065.86585-2.11719,1.751-3.20564,2.58046q-2.9556,2.2538-5.95052,4.44624l-4.36342,3.13914c-1.37962,1.00168-2.66119,2.15892-4.12593,3.02828a2.37351,2.37351,0,0,0-.57468.50522,14.817,14.817,0,0,1-2.1598,1.80093,19.83723,19.83723,0,0,0-2.37867,1.92844,9.69805,9.69805,0,0,1-3.8857,2.68738,3.7591,3.7591,0,0,0-.83364.51881l-1.63738,1.23742-7.577,5.68717-2.23835,1.70541a22.64886,22.64886,0,0,0-2.21216,1.71417,15.51928,15.51928,0,0,1-2.27647,1.53452c-.27452.19718-.53075.42241-.798.63186-1.13062.88819-2.2458,1.82108-3.408,2.633-1.67791,1.17476-3.33456,2.36706-4.98651,3.57338-.68959.50259-1.46.9824-2.06078,1.49989a26.43565,26.43565,0,0,1-2.81762,2.0783c-.20715.1354-.41189.29885-.61346.45133-.8114.61083-1.61985,1.219-2.43344,1.83117-.81919.599-1.66959,1.17783-2.42655,1.804-.77821.63711-1.69029,1.10947-2.499,1.7295-.327.24845-.72651.503-1.0213.74009-1.14552.91537-2.43575,1.76632-3.68479,2.63655l-2.29487,1.59279-2.49764,1.71724L3.98525,602.58c-.11743.08106-.22632.15643-.339.23443.01369.03637-.05795.09245-.48945.36369-.60218.38779-1.10258.71029-1.67715,1.08012-.24669.16213-.40893.269-.5153.33872.27211-.16783.49164-.30323.88206-.54423,1.14256-.70722,2.27537-1.40919,3.40764-2.11029.79541-.48463,1.59674-.978,2.366-1.478.63537-.41277,1.23469-.78523,1.9061-1.18923,1.2543-.76025,2.5913-1.51217,3.74427-2.38153a4.184,4.184,0,0,1,.97441-.55035,3.01848,3.01848,0,0,0,.76189-.41671,10.48084,10.48084,0,0,1,1.24247-.78479c.71642-.397,1.43789-.83079,2.15136-1.29351.19324-.12576.41332-.23618.63175-.35888.06069.181-.804.75543-.81107.94385.456-.15424.96871-.56219,1.43844-.7804a9.21279,9.21279,0,0,0,1.6686-.91931c-.06047-.05083-.18908-.06441-.14876-.16344a2.7049,2.7049,0,0,1,.53228-.38779c.507-.29534,1.03718-.60908,1.52871-.84614.88513-.42284,1.71767-1.0604,2.61529-1.44687a7.48128,7.48128,0,0,0,.823-.54554,24.065,24.065,0,0,1,3.92261-2.00775,7.57345,7.57345,0,0,0,2.36158-1.19055,5.40367,5.40367,0,0,1,1.51787-.822A4.4567,4.4567,0,0,0,35.93,584.4213a3.55491,3.55491,0,0,1,1.02786-.84438c.17637-.06529.5588-.22917.90847-.32645a4.00843,4.00843,0,0,0,1.10509-.46009,11.56062,11.56062,0,0,1,2.93878-1.29921,3.39065,3.39065,0,0,0,1.32364-.65552c.62179-.56657,1.50319-.74886,2.14283-1.30009a8.19131,8.19131,0,0,1,2.26135-.99073,5.67124,5.67124,0,0,0,.68729-.32294c1.56168-1.03806,3.31715-1.67649,4.94182-2.58265a46.36466,46.36466,0,0,0,4.94588-2.64268,3.6601,3.6601,0,0,1,.69978-.27167,38.31647,38.31647,0,0,0,4.373-2.10985c.29336-.17177.58508-.35362.89225-.49734,3.0905-1.44381,6.211-2.832,9.324-4.24424q4.90671-2.23341,9.82131-4.4699,5.12691-2.38,10.25994-4.76348c.857-.39437,1.67692-.86147,2.55373-1.21377,4.24325-1.69883,8.31385-3.70921,12.3551-5.75859,6.71285-3.39942,13.40784-6.83039,20.00742-10.41035,3.97333-2.15322,7.7704-4.58645,11.58423-6.98945,3.6723-2.30878,7.24623-4.76655,10.89147-7.12,3.64579-2.35347,7.37911-4.57725,10.99729-6.975a44.15923,44.15923,0,0,1,6.70912-3.693q-.03778,6.15471-.07591,12.3068c-.10111,15.09933-.32108,30.19385-.32272,45.29055l.0437,87.35872c-2.34493.92982-4.68614,1.86446-6.94859,2.93933-3.85107,1.82985-7.60257,3.83541-11.46165,5.64554-4.40253,2.06822-8.71578,4.29463-13.0103,6.54908-2.93724,1.54284-5.83878,3.14878-8.732,4.767q-2.67034,1.49463-5.30738,3.04668c-2.34329,1.37852-4.68713,2.75573-6.98824,4.20787-1.87082,1.18046-3.68665,2.4582-5.53272,3.68205-1.77442,1.17608-3.60328,2.26233-5.32293,3.52605L84.39548,709.04744c-.48013.35537-.9285.76156-1.3944,1.14015-1.065.86541-2.11719,1.75054-3.20564,2.58046q-2.95558,2.25313-5.95052,4.44624l-4.36342,3.13914c-1.37962,1.00125-2.66119,2.15849-4.12593,3.02784a2.37329,2.37329,0,0,0-.57467.50523,14.82706,14.82706,0,0,1-2.15981,1.80136,19.8754,19.8754,0,0,0-2.37867,1.928,9.69922,9.69922,0,0,1-3.88569,2.68781,3.7572,3.7572,0,0,0-.83365.51837l-1.63737,1.23743-7.57706,5.68761-2.23834,1.705a22.64878,22.64878,0,0,0-2.21217,1.7146,15.58932,15.58932,0,0,1-2.27647,1.53452c-.27452.19674-.53075.422-.79815.63142-1.13051.8882-2.24568,1.82153-3.40785,2.63348-1.67791,1.17477-3.33457,2.36706-4.98652,3.57338-.68959.50216-1.46.982-2.06077,1.49946a26.43714,26.43714,0,0,1-2.81763,2.0783c-.20715.1354-.41189.29884-.61345.45177-.81141.61038-1.61986,1.21858-2.43345,1.83116-.81918.599-1.66959,1.1774-2.42655,1.80356-.77821.63712-1.69029,1.10992-2.49895,1.73-.327.248-.72651.50259-1.0213.73965-1.14552.91536-2.43574,1.76675-3.68478,2.637l-2.29488,1.59236-2.49764,1.71767-3.56549,2.403c-.11743.0815-.22632.15686-.339.23486.01369.03593-.05795.09246-.48945.36325-.60217.38823-1.10258.7103-1.67715,1.08056-.24056.15819-.39874.2616-.50522.33215.2674-.1652.48649-.29972.872-.53765Q4.04922,768.435,5.743,767.3862c.79541-.48463,1.59674-.97846,2.366-1.478.63536-.41321,1.23469-.78523,1.90609-1.18923,1.2543-.76068,2.5913-1.51261,3.74427-2.38152a4.1864,4.1864,0,0,1,.97441-.5508,3.00432,3.00432,0,0,0,.76189-.41671,10.4816,10.4816,0,0,1,1.24247-.78478c.71643-.397,1.43789-.83036,2.15136-1.29352.19324-.12532.41332-.23574.63175-.35843.06058.181-.804.755-.81107.94384.456-.15424.96871-.56262,1.43844-.78084a9.18322,9.18322,0,0,0,1.6686-.91887c-.06047-.05083-.18907-.06485-.14876-.16388a2.72356,2.72356,0,0,1,.53228-.38779c.507-.29534,1.03718-.60907,1.52871-.84613.88513-.42285,1.71768-1.06,2.61529-1.44644a7.54433,7.54433,0,0,0,.823-.54554,23.99661,23.99661,0,0,1,3.92261-2.00775,7.58476,7.58476,0,0,0,2.36159-1.191,5.39105,5.39105,0,0,1,1.51786-.82159,4.458,4.458,0,0,0,1.44918-.90266,3.555,3.555,0,0,1,1.02787-.84438c.17636-.06529.55868-.22917.90846-.326a4.00831,4.00831,0,0,0,1.10509-.46009,11.54727,11.54727,0,0,1,2.93879-1.29965,3.38466,3.38466,0,0,0,1.32364-.65552c.62178-.56613,1.50318-.74841,2.14282-1.29965a8.206,8.206,0,0,1,2.26135-.99117,5.60417,5.60417,0,0,0,.68729-.3225c1.56168-1.03849,3.31715-1.67692,4.94182-2.58265a46.3681,46.3681,0,0,0,4.94588-2.64312,3.66062,3.66062,0,0,1,.69978-.27123,38.39043,38.39043,0,0,0,4.373-2.10985c.29336-.17221.58508-.35405.89225-.49734,3.0905-1.44381,6.211-2.832,9.324-4.24467q4.90671-2.23277,9.82131-4.46946,5.12691-2.38065,10.25994-4.76393c.857-.39436,1.67692-.861,2.55373-1.21332,4.24325-1.69928,8.31386-3.70966,12.3551-5.759,6.71285-3.399,13.40784-6.83039,20.00742-10.41034,3.97333-2.15323,7.7704-4.586,11.58424-6.98945,3.67229-2.30879,7.24622-4.76655,10.89146-7.11959,3.64579-2.35392,7.37911-4.57726,10.99729-6.97543a45.23963,45.23963,0,0,1,5.8757-3.31529l.0367,73.191c.003,4.22408.08775,8.446.12893,12.67092q.13392,14.48763.26784,28.97877.06457,26.25021.12938,52.51181l-.05237,38.054c-.00953,12.0658.305,24.11933.02871,36.20484-.03977,1.73783.01687,3.68731.12378,5.35459.41419,6.46451.24034,13.16739.34167,19.759.11021,7.16779-.09629,14.3759.32021,21.55377a242.34552,242.34552,0,0,1-.18349,33.4846c-.1652,2.038-.143,4.6329-.14,6.96842l.09059,14.50077q.21378,33.48154.42767,66.96176.10434,9.94455.20868,19.87464c.07384,6.6262-.09344,13.73221.29435,19.75065.46163,7.1656-.21284,13.01358-.209,19.46845.00142,2.39248.10264,4.7797.14854,7.17524.19456,10.13823.56493,20.35183.54182,30.39761-.03353,14.51217.01621,28.96211.14219,43.43529.05258,6.03771-.16377,12.47812.15051,18.036.47017,8.31145.52878,16.367.35153,24.76345-.03658,1.75536.03276,3.60142.06124,5.38877.10856,7.17568.1377,14.322.47817,21.52222.34616,7.18006.57938,14.47317,1.2624,21.37805.68455,7.07577.23793,14.34522.76211,21.54018.20134,2.89989.22632,6.26163.47357,8.92578.93672,10.33059,1.16337,21.29568,1.60221,32.08286q.40209,9.91694.80264,19.79533c.27277,7.16955.54466,14.31893.81732,21.48585q.48753,15.24349.9754,30.49137c.04513,1.03061.08544,1.95167.12795,2.92268.233.05171.29566.69408.31614,4.31.08151,5.06889.14953,9.30437.22753,14.15592.03089,2.3434.08172,3.90947.108,4.37131.0023-2.254.004-4.026.00723-7.35182-.047-9.53836-.07591-19.00574-.02256-28.44507.03582-6.61042.04392-13.2892-.07822-19.798-.10242-5.3765-.11042-10.384-.05521-15.94459.07811-10.40859.43139-21.28516-.32086-31.48868a37.43674,37.43674,0,0,1,.24955-7.93724,26.91621,26.91621,0,0,0,.2594-6.15384,94.295,94.295,0,0,1-.08041-10.42874c.21526-5.8068.27058-11.7801.16761-17.81388-.02827-1.63442.09026-3.37576.147-5.15215,1.00979.30848,1.20336,7.6717,2.06384,8.41749.58782-3.32844.1538-7.946.48079-11.59607a85.1333,85.1333,0,0,0,.48255-13.50216c-.40236.17528-.82772.9-1.16852.28658a25.27513,25.27513,0,0,1-.2754-4.66052c.07449-4.16185.14219-8.53316.41408-12.38566.49592-6.92066-.1768-14.32463.416-21.18526.1481-1.73389-.1641-4.61888-.2272-7.00435a310.76818,310.76818,0,0,1,1.10159-31.17143,96.30074,96.30074,0,0,0,.59834-18.69944,75.41488,75.41488,0,0,1,.16991-12.22924,65.19477,65.19477,0,0,0-.19587-12.11663,50.96651,50.96651,0,0,1-.70668-9.3552c.10692-1.308.27485-4.22758.56723-6.70156a60.23855,60.23855,0,0,0,.48671-8.38769,197.66582,197.66582,0,0,1,.986-22.59007,57.86318,57.86318,0,0,0,.22972-10.43707c-.52221-5.86683.23618-11.86774-.21581-17.78627-.4797-6.28223.49624-11.4633.64468-17.34853.04513-1.79217.18217-3.643.1366-5.35371-.35416-13.30148.37629-26.28088.35548-39.4693-.02082-13.24188.71434-26.36764.18874-39.71907-.06244-1.5849.15786-3.46295.211-5.23759.33981-11.345.6082-22.72547.513-34.27158-.01994-2.41219-.05762-4.852-.01632-7.24228q.63065-36.06594,1.26109-72.12486.08643-6.33678.17275-12.68539l.2995.248.95874.81677.54653.4877q1.084.98392,2.09155,2.04412a17.29453,17.29453,0,0,0,1.86775,1.56519l4.04629,3.06727L216.916,909.12031l5.55517,4.193c1.85132,1.39868,3.76,2.98972,5.54038,4.14258,2.11609,1.37677,3.52091,2.88368,5.30464,4.27008.66034.51443,1.34818.9938,2.02166,1.49421,2.852,2.11686,5.76408,4.20348,8.52178,6.38257q5.97774,4.71857,11.98583,9.34687c1.67166,1.29264,3.39832,2.73864,4.99287,3.86214,2.38305,1.68218,4.60135,3.42089,6.87464,5.27966.47532.38867.99632.77208,1.49541,1.14979,2.00042,1.52006,3.99283,3.034,5.99993,4.55886,1.98978,1.53495,3.98089,3.12993,5.94471,4.54658,2.00808,1.45652,3.88734,3.17113,5.90112,4.68592.81.61258,1.71548,1.36231,2.46861,1.914,2.91709,2.14446,5.89136,4.56542,8.85052,6.90707q2.71832,2.15586,5.42623,4.30339,2.9423,2.34384,5.87844,4.68373,4.15316,3.34356,8.30762,6.68755c.28164.22391.53469.42459.80077.6358.04645-.02673.22731.10735,1.19843.91712,1.369,1.12744,2.51145,2.06866,3.82118,3.14746.62167.507,1.02863.83868,1.18429.96532-.60272-.507-1.08055-.90923-1.96656-1.65458q-3.83175-3.218-7.6178-6.397c-1.76424-1.49332-3.55093-2.998-5.31089-4.44142-1.45422-1.19185-2.79593-2.31711-4.27644-3.57776-2.77545-2.35523-5.63273-4.86689-8.4784-7.02713a19.23571,19.23571,0,0,1-2.08684-1.83073,13.83863,13.83863,0,0,0-1.60769-1.432c-.97485-.74228-1.84563-1.48325-2.804-2.332-1.521-1.3461-3.111-2.701-4.74223-4.0396-.44191-.36238-.88941-.77646-1.356-1.187.2421-.12006,2.24218,1.50209,2.57629,1.51-.79782-.85972-2.10064-1.81978-3.02488-2.70359a42.39488,42.39488,0,0,0-3.53274-3.13563c-.01731.11611.10867.36018-.10976.287a12.43916,12.43916,0,0,1-1.29045-.99774c-1.101-.95217-2.2608-1.94816-3.24332-2.87272-1.76193-1.66553-3.83355-3.22459-5.54739-4.91466-.43205-.4281-1.25594-1.01614-1.90182-1.54415-2.10043-1.71593-6.4059-5.59779-8.04021-7.37549a34.53077,34.53077,0,0,0-4.80917-4.441,24.704,24.704,0,0,1-3.18887-2.853,20.4405,20.4405,0,0,0-3.24847-2.72024,15.97174,15.97174,0,0,1-2.65681-1.92362c-.31823-.33214-1.04693-1.05252-1.62226-1.71242a17.97906,17.97906,0,0,0-2.08268-2.08093,52.09569,52.09569,0,0,1-5.66976-5.53162,15.392,15.392,0,0,0-2.67521-2.48975c-1.70344-1.16206-3.04526-2.82671-4.74333-4.02339-1.80805-1.26328-2.85465-2.83373-4.34721-4.25695-.45527-.432-.89455-.91536-1.35858-1.29307-3.614-2.92969-6.76248-6.238-10.22116-9.29079-3.48246-3.05369-6.625-6.44829-10.33016-9.29648a16.334,16.334,0,0,1-1.28464-1.31849c-1.41434-1.4-2.8357-2.79692-4.2851-4.17369l-1.09282-1.02885a1.79587,1.79587,0,0,0-.16673-.1468l-.105-.08369-.2112-.16344c-.28318-.21515-.57281-.41978-.884-.6231a3.29612,3.29612,0,0,1-.61532-.56876l-.28416-.36281-.135-.17615-.06562-.08676c.01621-.02761.08051-.05258.1182-.07887l1.023-.59243a4.54207,4.54207,0,0,0,.80855-.58716l.348-.28263.17965-.145.63285-.47236q5.06511-3.77866,10.13461-7.56084,10.65048-7.96944,21.31978-15.95291,11.14031-8.40851,22.2955-16.828c1.86129-1.39912,3.66463-2.89157,5.55615-4.23547,9.15342-6.49606,18.02914-13.37816,26.85392-20.30188l10.986-8.62913,5.48484-4.32442,2.74-2.16506,1.3691-1.08363.76671-.61258,1.363-1.12613,10.88752-9.00509a39.49616,39.49616,0,0,0,4.68932-4.53256l4.31281-4.54439,4.30186-4.537.2685-.2835c.03845-.04688.10363-.09465.12006-.14109l-.14887-.1354-.59549-.54072-1.19087-1.08056-2.38109-2.15936L322.03,760.63249l-2.378-2.1506-2.6303-2.1839-11.92284-9.7706-6.51588-5.29281-13.13869-10.4432c-8.43414-6.68974-17.00674-13.18492-25.48492-19.82119-8.47971-6.63672-16.84045-13.44651-25.36332-20.02889a200.49724,200.49724,0,0,1-15.46292-13.14285,162.33321,162.33321,0,0,0-22.75307-18.11622,23.29124,23.29124,0,0,0-5.59439-2.697q.04125-14.65326.05193-29.30477.04173-56.38163-.0379-112.76893c1.12569.84657,2.24776,1.698,3.35439,2.57169,3.81953,3.01207,7.74072,5.8734,11.67823,8.70538,2.69394,1.93633,5.4282,3.81306,8.17,5.67665q2.53083,1.71944,5.09891,3.38365c2.28162,1.47843,4.56192,2.95861,6.88977,4.36693,1.893,1.145,3.848,2.19748,5.76867,3.30083,1.84541,1.06084,3.63538,2.21019,5.535,3.183L260.16,557.72546c.53261.27036,1.09644.48945,1.6433.737,1.25057.56526,2.51308,1.10992,3.742,1.71242q3.33764,1.63464,6.63868,3.33238l4.75965,2.49808c1.51294.78566,3.12117,1.414,4.55392,2.33507a2.38249,2.38249,0,0,0,.70909.28789,14.82815,14.82815,0,0,1,2.57717,1.12569,19.86178,19.86178,0,0,0,2.7886,1.26459,9.70056,9.70056,0,0,1,4.142,2.27286,3.76893,3.76893,0,0,0,.83693.51355l1.839.91054,8.47642,4.232,2.52656,1.23874a22.59967,22.59967,0,0,0,2.52284,1.21157,15.57922,15.57922,0,0,1,2.39094,1.34917c.29906.15774.6151.28613.92205.43117,1.3.61389,2.63348,1.19361,3.87967,1.86973,1.80126.97495,3.60887,1.92318,5.42678,2.86089.75784.39217,1.53145.86673,2.26321,1.17214a26.42222,26.42222,0,0,1,3.11921,1.59016c.21372.12489.45154.23487.67841.34661.9089.45264,1.81474.90353,2.72626,1.357.90222.46447,1.80028.96619,2.69877,1.36318.9181.411,1.74879,1.01527,2.665,1.4609.36829.18141.7747.425,1.11857.58235,1.33131.61477,2.66985,1.38816,4.00674,2.116l2.45108,1.33953,2.65342,1.46572,3.74449,2.11335c.12521.0688.24133.13233.36161.19806.02618-.028.10856.01052.544.27518.61642.365,1.12843.66823,1.71658,1.01658.25064.14548.4154.24144.5256.305-.26827-.16607-.48726-.30191-.8734-.54116C349.79108,603.36437,348.65685,602.665,347.52316,601.96613ZM13.57707,596.25135a2.48625,2.48625,0,0,1-.26313.13364c.0494-.03987.09771-.08588.1481-.11874.19116-.12138.381-.24188.79366-.50391C13.89322,596.02349,13.73558,596.13742,13.57707,596.25135Zm13.56657-7.72867-.41485.24933c.00307-.02059-.00066-.05346.0103-.06047l.42262-.24932C27.15613,588.48281,27.15788,588.51392,27.14364,588.52268Zm7.12912-4.07422a1.87953,1.87953,0,0,1-.839.69627,12.71829,12.71829,0,0,0-1.67462.6472c-.04338.01928-.11459-.00263-.09717-.02761a1.79939,1.79939,0,0,1,.2307-.25984,1.93211,1.93211,0,0,1,.23574-.1481,7.49512,7.49512,0,0,0,1.46912-.8435c.37246-.28614.745-.40664.75181-.3006A.34556.34556,0,0,1,34.27276,584.44846Zm6.96261-3.42045c-.33466.22917-.69233.43993-1.32813.83386-.22983.1113-.749.36238-1.25934.60951-.0712.03287-.16026-.032-.20846-.07274-.01457-.01227.07088-.11611.12565-.14766l2.58429-1.46266c.04513-.025.15687-.0276.15654-.00482C41.30483,580.85843,41.30548,580.98025,41.23537,581.028ZM14.06608,761.69508a2.57118,2.57118,0,0,1-.26313.13321c.04941-.03988.09772-.08588.14811-.11875.19115-.12094.38089-.24144.79365-.50347C14.38223,761.46723,14.22459,761.58072,14.06608,761.69508Zm13.56646-7.7291-.41474.24976c.00307-.021-.00066-.05389.0103-.06047l.42263-.24976C27.64514,753.92654,27.64689,753.95722,27.63254,753.966Zm7.12923-4.07378a1.87863,1.87863,0,0,1-.839.69583,12.72285,12.72285,0,0,0-1.67462.64763c-.04338.01928-.11459-.00263-.09717-.0276a1.80035,1.80035,0,0,1,.2307-.26028,1.93143,1.93143,0,0,1,.23575-.14811,7.494,7.494,0,0,0,1.46911-.8435c.37246-.28613.745-.4062.75182-.30059A.34605.34605,0,0,1,34.76177,749.8922Zm6.96261-3.42046c-.33466.22917-.69232.4395-1.32813.83386-.22982.11086-.749.36238-1.25933.60908-.07121.03286-.16027-.03155-.20847-.07274-.01457-.01227.07088-.11612.12565-.14767l2.58429-1.46221c.04513-.02542.15687-.02761.15654-.00482C41.79384,746.30173,41.79449,746.424,41.72438,746.47174ZM295.87249,969.53342c.18426.149.35822.32908.5371.49471-.1263-.09246-.26214-.18272-.3776-.27737-.43249-.35887-.86169-.71511-1.79512-1.48938C295.11016,968.94056,295.48908,969.235,295.87249,969.53342Zm-29.16423-25.48733.9146.77865c-.03966-.00482-.09224.00307-.11656-.01753l-.92369-.79354C266.625,944.02374,266.67627,944.01936,266.70826,944.04609Zm-15.84534-13.53152a.89968.89968,0,0,1,.49789.13847,8.3746,8.3746,0,0,1,2.1805,1.57c.91011,1.03893,1.96569,2.07961,3.07,3.15491.0838.0815.129.21734.0654.18492a7.49724,7.49724,0,0,1-.718-.42986c-.12883-.08589-.3155-.26116-.53086-.44213a34.44515,34.44515,0,0,0-3.16938-2.76011C251.33,931.23319,250.68787,930.53079,250.86292,930.51457Zm-14.03083-13.08413a.77135.77135,0,0,1,.50512.12664c.78577.62747,1.56661,1.29921,2.9883,2.49282.46009.43248,1.5,1.40963,2.52042,2.36881a.43621.43621,0,0,1,.11722.39743,1.21766,1.21766,0,0,1-.4016-.234l-5.53874-4.8555C236.92663,917.64208,236.79266,917.43044,236.83209,917.43044Zm-60.11591,459.14527c-.04371-.44607-.12-.90967-.12675-1.33646-.0115-1.60725-.02278-3.20136-.04743-6.67.18141,3.161.28405,4.53168.319,5.92072C176.87765,1375.16739,176.76712,1375.87988,176.71618,1376.57571Zm3.16532-109.38791c-.07219-.0964-.206-.19674-.20584-.28745l.04163-3.48267c.0643.1113.18393.216.18448.33521Zm1.51272-54.01214c-.53963,3.90421-.84756,8.12916-1.15253,12.52545-.02312.33346-.23377.68225-.27967.48332a21.37453,21.37453,0,0,1-.37618-2.36268c-.0482-.4395-.00844-1.17127-.00844-1.97577a102.32332,102.32332,0,0,0,.19379-12.01584c-.16925-3.31617.15632-6.01494.4809-5.66088a2.69671,2.69671,0,0,1,.565,1.34434A26.0893,26.0893,0,0,1,181.39422,1213.17566Zm1.21869-41.45251a1.25252,1.25252,0,0,1-.52746.98766,4.142,4.142,0,0,1-.19609-1.30973q.09514-10.53346.19017-21.05774c.004-.36676.16465-1.04945.221-.96312a2.54519,2.54519,0,0,1,.51179,1.33864c.08337,2.87492.08633,5.82.14373,11.12809C182.89751,1163.65007,182.78512,1167.72561,182.61291,1171.72315Zm16.607-477.25624c7.82353,7.05737,15.82935,13.91625,23.62834,20.98983,8.903,8.06913,17.97141,15.9608,27.065,23.81522q9.33182,8.05818,18.80636,15.95774,5.81374,4.87762,11.68775,9.68909l3.91506,3.20531,1.95944,1.60024.98065.79925c.053.08281.00964.10034.01731.152a1.85265,1.85265,0,0,1-.11108.47061,1.64582,1.64582,0,0,1-.09158.19718c.02092.03988.07416.06179.10648.0872a.75842.75842,0,0,0,.18393.08633.675.675,0,0,1,.08807.02892l-.03757.08544a.90963.90963,0,0,0-.04065.14942l-.01007.06354c-.0034.01928.01511.04338-.07723.03242a2.22254,2.22254,0,0,1-.71972-.15029l-.01939-.00789c-.02256.014.02542-.0447-.06364.03768l-.37125.32733-.74152.65595-1.47689,1.3185q-1.4723,1.3244-2.91939,2.67773l-46.23605,43.53125c-1.07628,1.014-2.09988,2.08794-3.15272,3.1295-2.40672,2.38152-4.79186,4.78583-7.23779,7.12529q-6.64209,6.35518-13.35,12.63938l-9.75921,9.06074c-3.08787,2.88017-6.01274,5.94351-9.24258,8.66988a10.57709,10.57709,0,0,0-1.30831,1.35048,25.18274,25.18274,0,0,1-1.93906,2.07654q.27852-20.45173.55715-40.90566.37152-39.83014.74359-79.71418c.05927-6.6446.01118-13.337.12905-19.94388q.33274-18.637.44683-37.32177C193.45947,689.14738,196.30853,691.84045,199.21992,694.46691Zm115.97719-113.4354c-.00449.01841-.13562-.01183-.1882-.04644l-2.46423-1.65677c-.04272-.02936-.09475-.128-.07438-.138.06737-.03242.17615-.08764.25042-.04645.3546.19675.703.42241,1.33975.815.20233.15556.65924.50742,1.10838.85358C315.23019,580.86106,315.21223,580.96973,315.19711,581.03151Zm6.04243,4.55535a1.79689,1.79689,0,0,1-.33565-.09026,1.88116,1.88116,0,0,1-.238-.14417,7.485,7.485,0,0,0-1.4115-.93683c-.42262-.20507-.697-.48419-.60535-.53765a.34445.34445,0,0,1,.24572-.03725,1.87953,1.87953,0,0,1,.99785.43862,12.65345,12.65345,0,0,0,1.32824,1.20807C321.2574,585.51763,321.26977,585.59124,321.23954,585.58686Zm4.83841,3.08393-.41233-.26642c.021-.00394.04787-.01928.06222-.01051l.40883.259C326.11662,588.6594,326.0888,588.6778,326.078,588.67079Zm12.69634,8.49417c-.19389-.11656-.38658-.23224-.80549-.48419.39579.20726.56778.29752.74086.38823a2.518,2.518,0,0,1,.23706.17527A1.87616,1.87616,0,0,1,338.77429,597.165Z"/><path class="cls-1" d="M351.80858,604.61056l.04755.02936c.04184.02541.08435.05083.126.0758-.05433-.03286-.10954-.0666-.16431-.0999Z"/><path class="cls-1" d="M340.56361,597.41779a1.00913,1.00913,0,0,0,.26445.12313.894.894,0,0,0-.21636-.19631q-1.35924-.90637-2.72418-1.81539c-.5405-.35711-.60524-.37859-1.00672-.36325a26.93662,26.93662,0,0,1,2.61354,1.58053C339.84916,596.96953,340.20978,597.19563,340.56361,597.41779Z"/><path class="cls-1" d="M352.75024,605.1802c-.08556-.05215-.22512-.13672-.3202-.19456l-.44794-.26992c.132.08019.26291.15994.39952.24319C352.644,605.11666,352.89287,605.26608,352.75024,605.1802Z"/><path class="cls-1" d="M330.17025,590.43053l-.15829-.12576-.17911-.10166c.06759.05828.12981.11744.2054.174A.70926.70926,0,0,0,330.17025,590.43053Z"/><path class="cls-1" d="M12.92472,763.19673a1.02713,1.02713,0,0,0-.22884.18141.88706.88706,0,0,0,.27266-.1056q1.4184-.81042,2.84238-1.62391c.561-.32381.60919-.372.77537-.73789a26.93933,26.93933,0,0,1-2.5832,1.63C13.6452,762.75855,13.28151,762.97983,12.92472,763.19673Z"/><path class="cls-1" d="M.53007,770.62305c.08479-.05346.223-.14022.31735-.19937.149-.09465.2926-.18535.43731-.27737-.12959.0815-.258.16213-.39184.24582C.63436,770.55645.38952,770.712.53007,770.62305Z"/><path class="cls-1" d="M1.28473,770.14631c.05521-.03462.11152-.06967.16706-.10473l.01161-.00744-.05006.03067C1.3705,770.092,1.32734,770.11958,1.28473,770.14631Z"/><path class="cls-1" d="M23.82353,757.028l.18316-.08545.17122-.1148c-.08238.03462-.16333.06354-.24768.106A.70736.70736,0,0,0,23.82353,757.028Z"/><path class="cls-1" d="M299.87825,971.5679q-3.05255-2.66392-6.11868-5.33969a5.39414,5.39414,0,0,0-2.17864-1.44819c2.57049,2.03272,2.59919,2.07,5.82695,4.848.79322.67217,1.60014,1.3553,2.39051,2.02484a4.57676,4.57676,0,0,0,.57971.42854A3.8831,3.8831,0,0,0,299.87825,971.5679Z"/><path class="cls-1" d="M327.07383,994.92786c-.18283-.15249-.49624-.41365-.71424-.59549-.36807-.30542-.71851-.59681-1.0731-.89127.319.26642.63448.52933.966.80582C326.8371,994.73243,327.39162,995.19164,327.07383,994.92786Z"/><path class="cls-1" d="M325.28649,993.4411c-.09641-.08019-.19456-.16213-.29162-.24319l-.0046-.00394c.0309.02629.05872.04951.09038.07624C325.149,993.32717,325.21835,993.38458,325.28649,993.4411Z"/><path class="cls-1" d="M276.15088,950.97683a3.17832,3.17832,0,0,0,.28723.19981l-.361-.34485-.39765-.32119C275.83473,950.66572,275.97955,950.8182,276.15088,950.97683Z"/><path class="cls-1" d="M180.734,1378.02522c-.04863,2.97263-.04874,5.997-.04064,8.95908a8.86382,8.86382,0,0,0,.1951,2.05683,7.65106,7.65106,0,0,0,.30356-2.0393q.2974-11.58249.59625-23.2193c.10057-4.59391.00942-5.06539-1.23611-7.43333C180.97027,1365.71667,180.93106,1365.84812,180.734,1378.02522Z"/><path class="cls-1" d="M179.508,1482.91387c-.00241-.37684-.00482-.75193-.00712-1.13139l-.00077-.01578-.00033.33653Z"/><path class="cls-1" d="M179.56568,1489.5164c-.00449-.6748-.01238-1.84475-.01786-2.65977-.01369-1.35135-.02672-2.64311-.03987-3.94276.00734,1.16907.01468,2.33551.02224,3.551C179.55363,1488.63828,179.57861,1490.69687,179.56568,1489.5164Z"/><path class="cls-1" d="M183.01144,1297.17527a6.90741,6.90741,0,0,0,.13748.99555l.10724-1.4241-.06014-1.4609C183.133,1295.91067,183.04616,1296.50835,183.01144,1297.17527Z"/></g></g></svg>