999
"DXF R12 Output" (www.mydxf.blogspot.com)
 0 
SECTION
 2 
HEADER
 9 
$ACADVER
 1 
AC1009
 9 
$EXTMIN
 10 
 0 
 20 
 0 
 9 
$EXTMAX
 10 
 8.5 
 20 
 11 
 0 
ENDSEC
 0 
SECTION
 2 
ENTITIES
0
LINE
8
Layer 1
10
65.326300
20
154.765000
11
65.339099
21
154.569733
0
LINE
8
Layer 1
10
65.339099
20
154.569733
11
65.359258
21
154.763267
0
LINE
8
Layer 1
10
65.359258
20
154.763267
11
65.401490
21
156.966477
0
LINE
8
Layer 1
10
65.401490
20
156.966477
11
65.318694
21
157.671860
0
LINE
8
Layer 1
10
65.318694
20
157.671860
11
65.329577
21
155.615070
0
LINE
8
Layer 1
10
65.329577
20
155.615070
11
65.326300
21
154.765000
0
LINE
8
Layer 1
10
65.326300
20
154.765000
11
65.326300
21
154.765000
0
LINE
8
Layer 1
10
65.507200
20
163.192000
11
65.516104
21
163.327167
0
LINE
8
Layer 1
10
65.516104
20
163.327167
11
65.513321
21
163.465794
0
LINE
8
Layer 1
10
65.513321
20
163.465794
11
65.498172
21
163.286479
0
LINE
8
Layer 1
10
65.498172
20
163.286479
11
65.507200
21
163.192000
0
LINE
8
Layer 1
10
65.507200
20
163.192000
11
65.507200
21
163.192000
0
LINE
8
Layer 1
10
15.428100
20
182.324000
11
15.403984
21
182.806462
0
LINE
8
Layer 1
10
15.403984
20
182.806462
11
15.163582
21
183.112610
0
LINE
8
Layer 1
10
15.163582
20
183.112610
11
15.197897
21
180.815660
0
LINE
8
Layer 1
10
15.197897
20
180.815660
11
15.187201
21
179.866409
0
LINE
8
Layer 1
10
15.187201
20
179.866409
11
15.229433
21
179.648266
0
LINE
8
Layer 1
10
15.229433
20
179.648266
11
15.296037
21
179.864186
0
LINE
8
Layer 1
10
15.296037
20
179.864186
11
15.428100
21
182.324000
0
LINE
8
Layer 1
10
15.428100
20
182.324000
11
15.428100
21
182.324000
0
LINE
8
Layer 1
10
15.746900
20
189.426000
11
15.737688
21
189.580830
0
LINE
8
Layer 1
10
15.737688
20
189.580830
11
15.694776
21
189.380735
0
LINE
8
Layer 1
10
15.694776
20
189.380735
11
15.721796
21
189.275125
0
LINE
8
Layer 1
10
15.721796
20
189.275125
11
15.746900
21
189.426000
0
LINE
8
Layer 1
10
77.101200
20
345.737000
11
77.667151
21
346.112818
0
LINE
8
Layer 1
10
77.667151
20
346.112818
11
77.903165
21
346.264936
0
LINE
8
Layer 1
10
77.903165
20
346.264936
11
77.953683
21
346.305497
0
LINE
8
Layer 1
10
77.953683
20
346.305497
11
77.894631
21
346.279033
0
LINE
8
Layer 1
10
77.894631
20
346.279033
11
77.273649
21
345.899013
0
LINE
8
Layer 1
10
77.273649
20
345.899013
11
77.101200
21
345.737000
0
LINE
8
Layer 1
10
77.101200
20
345.737000
11
77.101200
21
345.737000
0
LINE
8
Layer 1
10
80.449100
20
347.880000
11
80.412806
21
347.856011
0
LINE
8
Layer 1
10
80.412806
20
347.856011
11
80.411632
21
347.855269
0
LINE
8
Layer 1
10
80.411632
20
347.855269
11
80.421214
21
347.861452
0
LINE
8
Layer 1
10
80.421214
20
347.861452
11
80.449100
21
347.880000
0
LINE
8
Layer 1
10
80.449100
20
347.880000
11
80.449100
21
347.880000
0
LINE
8
Layer 1
10
80.614700
20
347.990000
11
80.545200
21
347.943998
0
LINE
8
Layer 1
10
80.545200
20
347.943998
11
80.449050
21
347.879933
0
LINE
8
Layer 1
10
80.449050
20
347.879933
11
80.535184
21
347.936942
0
LINE
8
Layer 1
10
80.535184
20
347.936942
11
80.614700
21
347.990000
0
LINE
8
Layer 1
10
80.614700
20
347.990000
11
80.614700
21
347.990000
0
LINE
8
Layer 1
10
75.499000
20
344.798000
11
75.522681
21
344.818777
0
LINE
8
Layer 1
10
75.522681
20
344.818777
11
75.482862
21
344.798124
0
LINE
8
Layer 1
10
75.482862
20
344.798124
11
75.445268
21
344.771906
0
LINE
8
Layer 1
10
75.445268
20
344.771906
11
75.499000
21
344.798000
0
LINE
8
Layer 1
10
75.608900
20
51.385900
11
75.396195
21
51.501402
0
LINE
8
Layer 1
10
75.396195
20
51.501402
11
75.944897
21
51.074265
0
LINE
8
Layer 1
10
75.944897
20
51.074265
11
76.169286
21
50.894456
0
LINE
8
Layer 1
10
76.169286
20
50.894456
11
76.224997
21
50.858594
0
LINE
8
Layer 1
10
76.224997
20
50.858594
11
76.179920
21
50.907071
0
LINE
8
Layer 1
10
76.179920
20
50.907071
11
75.608900
21
51.385900
0
LINE
8
Layer 1
10
78.563300
20
48.950200
11
78.529910
21
48.976416
0
LINE
8
Layer 1
10
78.529910
20
48.976416
11
78.528364
21
48.977652
0
LINE
8
Layer 1
10
78.528364
20
48.977652
11
78.537959
21
48.969987
0
LINE
8
Layer 1
10
78.537959
20
48.969987
11
78.563300
21
48.950200
0
LINE
8
Layer 1
10
78.563300
20
48.950200
11
78.563300
21
48.950200
0
LINE
8
Layer 1
10
78.725600
20
48.823800
11
78.658389
21
48.876482
0
LINE
8
Layer 1
10
78.658389
20
48.876482
11
78.563229
21
48.950187
0
LINE
8
Layer 1
10
78.563229
20
48.950187
11
78.648178
21
48.883902
0
LINE
8
Layer 1
10
78.648178
20
48.883902
11
78.725600
21
48.823800
0
LINE
8
Layer 1
10
78.725600
20
48.823800
11
78.725600
21
48.823800
0
LINE
8
Layer 1
10
73.963200
20
52.750000
11
73.991086
21
52.733676
0
LINE
8
Layer 1
10
73.991086
20
52.733676
11
73.958007
21
52.765567
0
LINE
8
Layer 1
10
73.958007
20
52.765567
11
73.920350
21
52.793507
0
LINE
8
Layer 1
10
73.920350
20
52.793507
11
73.963200
21
52.750000
0
LINE
8
Layer 1
10
73.963200
20
52.750000
11
73.963200
21
52.750000
0
LINE
8
Layer 1
10
77.765200
20
369.924000
11
77.815718
21
369.964561
0
LINE
8
Layer 1
10
77.815718
20
369.964561
11
77.756666
21
369.938097
0
LINE
8
Layer 1
10
77.756666
20
369.938097
11
77.135684
21
369.558077
0
LINE
8
Layer 1
10
77.135684
20
369.558077
11
76.963232
21
369.396082
0
LINE
8
Layer 1
10
76.963232
20
369.396082
11
77.529186
21
369.771900
0
LINE
8
Layer 1
10
77.529186
20
369.771900
11
77.765200
21
369.924000
0
LINE
8
Layer 1
10
77.765200
20
369.924000
11
77.765200
21
369.924000
0
LINE
8
Layer 1
10
80.305900
20
371.536000
11
80.274737
21
371.515350
0
LINE
8
Layer 1
10
80.274737
20
371.515350
11
80.273684
21
371.514608
0
LINE
8
Layer 1
10
80.273684
20
371.514608
11
80.283144
21
371.520791
0
LINE
8
Layer 1
10
80.283144
20
371.520791
11
80.305900
21
371.536000
0
LINE
8
Layer 1
10
80.476700
20
371.649000
11
80.407200
21
371.602998
0
LINE
8
Layer 1
10
80.407200
20
371.602998
11
80.305919
21
371.535476
0
LINE
8
Layer 1
10
80.305919
20
371.535476
11
80.397184
21
371.595827
0
LINE
8
Layer 1
10
80.397184
20
371.595827
11
80.476700
21
371.649000
0
LINE
8
Layer 1
10
80.476700
20
371.649000
11
80.476700
21
371.649000
0
LINE
8
Layer 1
10
75.384600
20
368.478000
11
75.344781
21
368.457347
0
LINE
8
Layer 1
10
75.344781
20
368.457347
11
75.307187
21
368.431129
0
LINE
8
Layer 1
10
75.307187
20
368.431129
11
75.360919
21
368.457223
0
LINE
8
Layer 1
10
75.360919
20
368.457223
11
75.384600
21
368.478000
0
LINE
8
Layer 1
10
75.384600
20
368.478000
11
75.384600
21
368.478000
0
LINE
8
Layer 1
10
36.318900
20
137.340000
11
36.103374
21
137.488551
0
LINE
8
Layer 1
10
36.103374
20
137.488551
11
35.821580
21
137.410612
0
LINE
8
Layer 1
10
35.821580
20
137.410612
11
36.795875
21
136.641913
0
LINE
8
Layer 1
10
36.795875
20
136.641913
11
37.182449
21
136.305174
0
LINE
8
Layer 1
10
37.182449
20
136.305174
11
37.300116
21
136.262014
0
LINE
8
Layer 1
10
37.300116
20
136.262014
11
37.253496
21
136.387656
0
LINE
8
Layer 1
10
37.253496
20
136.387656
11
36.318900
21
137.340000
0
LINE
8
Layer 1
10
36.318900
20
137.340000
11
36.318900
21
137.340000
0
LINE
8
Layer 1
10
33.510100
20
140.089000
11
33.565317
21
139.986977
0
LINE
8
Layer 1
10
33.565317
20
139.986977
11
33.626593
21
139.971147
0
LINE
8
Layer 1
10
33.626593
20
139.971147
11
33.580218
21
140.042501
0
LINE
8
Layer 1
10
33.580218
20
140.042501
11
33.510100
21
140.089000
0
LINE
8
Layer 1
10
82.795600
20
294.498000
11
82.713363
21
294.572447
0
LINE
8
Layer 1
10
82.713363
20
294.572447
11
79.531403
21
297.424647
0
LINE
8
Layer 1
10
79.531403
20
297.424647
11
76.008993
21
300.272157
0
LINE
8
Layer 1
10
76.008993
20
300.272157
11
72.108913
21
303.373047
0
LINE
8
Layer 1
10
72.108913
20
303.373047
11
65.050443
21
308.859807
0
LINE
8
Layer 1
10
65.050443
20
308.859807
11
58.026403
21
314.405187
0
LINE
8
Layer 1
10
58.026403
20
314.405187
11
53.746553
21
318.047237
0
LINE
8
Layer 1
10
53.746553
20
318.047237
11
50.710880
21
320.699436
0
LINE
8
Layer 1
10
50.710880
20
320.699436
11
47.445773
21
323.063447
0
LINE
8
Layer 1
10
47.445773
20
323.063447
11
46.158793
21
323.715662
0
LINE
8
Layer 1
10
46.158793
20
323.715662
11
47.797163
21
324.603451
0
LINE
8
Layer 1
10
47.797163
20
324.603451
11
50.630393
21
326.167811
0
LINE
8
Layer 1
10
50.630393
20
326.167811
11
52.535823
21
327.291301
0
LINE
8
Layer 1
10
52.535823
20
327.291301
11
53.695553
21
328.003610
0
LINE
8
Layer 1
10
53.695553
20
328.003610
11
55.224543
21
328.980440
0
LINE
8
Layer 1
10
55.224543
20
328.980440
11
56.438743
21
329.823214
0
LINE
8
Layer 1
10
56.438743
20
329.823214
11
57.606763
21
330.630868
0
LINE
8
Layer 1
10
57.606763
20
330.630868
11
62.149523
21
334.073818
0
LINE
8
Layer 1
10
62.149523
20
334.073818
11
62.457757
21
334.328196
0
LINE
8
Layer 1
10
62.457757
20
334.328196
11
63.165923
21
334.904970
0
LINE
8
Layer 1
10
63.165923
20
334.904970
11
64.476893
21
335.907640
0
LINE
8
Layer 1
10
64.476893
20
335.907640
11
65.436964
21
336.618961
0
LINE
8
Layer 1
10
65.436964
20
336.618961
11
66.345346
21
337.303197
0
LINE
8
Layer 1
10
66.345346
20
337.303197
11
66.472781
21
337.415115
0
LINE
8
Layer 1
10
66.472781
20
337.415115
11
66.950560
21
337.816152
0
LINE
8
Layer 1
10
66.950560
20
337.816152
11
67.476198
21
338.246752
0
LINE
8
Layer 1
10
67.476198
20
338.246752
11
68.329979
21
338.858767
0
LINE
8
Layer 1
10
68.329979
20
338.858767
11
68.512577
21
338.978598
0
LINE
8
Layer 1
10
68.512577
20
338.978598
11
68.873491
21
339.257216
0
LINE
8
Layer 1
10
68.873491
20
339.257216
11
70.543031
21
340.539126
0
LINE
8
Layer 1
10
70.543031
20
340.539126
11
71.036513
21
340.922733
0
LINE
8
Layer 1
10
71.036513
20
340.922733
11
71.524557
21
341.307579
0
LINE
8
Layer 1
10
71.524557
20
341.307579
11
72.024300
21
341.659000
0
LINE
8
Layer 1
10
72.024300
20
341.659000
11
72.200522
21
341.800472
0
LINE
8
Layer 1
10
72.200522
20
341.800472
11
72.952217
21
342.391837
0
LINE
8
Layer 1
10
72.952217
20
342.391837
11
74.049187
21
343.201967
0
LINE
8
Layer 1
10
74.049187
20
343.201967
11
74.502788
21
343.541178
0
LINE
8
Layer 1
10
74.502788
20
343.541178
11
75.123276
21
344.010609
0
LINE
8
Layer 1
10
75.123276
20
344.010609
11
75.258381
21
344.112632
0
LINE
8
Layer 1
10
75.258381
20
344.112632
11
75.794654
21
344.525178
0
LINE
8
Layer 1
10
75.794654
20
344.525178
11
76.329132
21
344.932159
0
LINE
8
Layer 1
10
76.329132
20
344.932159
11
76.878265
21
345.326031
0
LINE
8
Layer 1
10
76.878265
20
345.326031
11
77.103027
21
345.493597
0
LINE
8
Layer 1
10
77.103027
20
345.493597
11
77.913588
21
346.091391
0
LINE
8
Layer 1
10
77.913588
20
346.091391
11
78.417893
21
346.453854
0
LINE
8
Layer 1
10
78.417893
20
346.453854
11
78.966654
21
346.845251
0
LINE
8
Layer 1
10
78.966654
20
346.845251
11
79.749453
21
347.394455
0
LINE
8
Layer 1
10
79.749453
20
347.394455
11
79.823897
21
347.447880
0
LINE
8
Layer 1
10
79.823897
20
347.447880
11
79.931734
21
347.529868
0
LINE
8
Layer 1
10
79.931734
20
347.529868
11
80.299450
21
347.778311
0
LINE
8
Layer 1
10
80.299450
20
347.778311
11
80.411616
21
347.855357
0
LINE
8
Layer 1
10
80.411616
20
347.855357
11
80.219316
21
347.730084
0
LINE
8
Layer 1
10
80.219316
20
347.730084
11
79.473121
21
347.242102
0
LINE
8
Layer 1
10
79.473121
20
347.242102
11
78.954902
21
346.900914
0
LINE
8
Layer 1
10
78.954902
20
346.900914
11
78.537411
21
346.626128
0
LINE
8
Layer 1
10
78.537411
20
346.626128
11
77.716834
21
346.077675
0
LINE
8
Layer 1
10
77.716834
20
346.077675
11
77.504008
21
345.948571
0
LINE
8
Layer 1
10
77.504008
20
345.948571
11
77.337740
21
345.850504
0
LINE
8
Layer 1
10
77.337740
20
345.850504
11
77.065554
21
345.669583
0
LINE
8
Layer 1
10
77.065554
20
345.669583
11
76.594825
21
345.369203
0
LINE
8
Layer 1
10
76.594825
20
345.369203
11
76.456818
21
345.285101
0
LINE
8
Layer 1
10
76.456818
20
345.285101
11
76.639037
21
345.488654
0
LINE
8
Layer 1
10
76.639037
20
345.488654
11
76.325237
21
345.304518
0
LINE
8
Layer 1
10
76.325237
20
345.304518
11
75.961044
21
345.088226
0
LINE
8
Layer 1
10
75.961044
20
345.088226
11
75.990909
21
345.058920
0
LINE
8
Layer 1
10
75.990909
20
345.058920
11
75.873736
21
344.971118
0
LINE
8
Layer 1
10
75.873736
20
344.971118
11
75.540028
21
344.772264
0
LINE
8
Layer 1
10
75.540028
20
344.772264
11
74.969192
21
344.431938
0
LINE
8
Layer 1
10
74.969192
20
344.431938
11
74.788570
21
344.307038
0
LINE
8
Layer 1
10
74.788570
20
344.307038
11
73.933985
21
343.828824
0
LINE
8
Layer 1
10
73.933985
20
343.828824
11
73.419726
21
343.544519
0
LINE
8
Layer 1
10
73.419726
20
343.544519
11
73.088553
21
343.350613
0
LINE
8
Layer 1
10
73.088553
20
343.350613
11
72.771166
21
343.142116
0
LINE
8
Layer 1
10
72.771166
20
343.142116
11
72.543932
21
342.953772
0
LINE
8
Layer 1
10
72.543932
20
342.953772
11
72.347429
21
342.870547
0
LINE
8
Layer 1
10
72.347429
20
342.870547
11
72.107823
21
342.756651
0
LINE
8
Layer 1
10
72.107823
20
342.756651
11
71.469719
21
342.438957
0
LINE
8
Layer 1
10
71.469719
20
342.438957
11
71.181570
21
342.281903
0
LINE
8
Layer 1
10
71.181570
20
342.281903
11
70.712633
21
341.980408
0
LINE
8
Layer 1
10
70.712633
20
341.980408
11
70.221685
21
341.737776
0
LINE
8
Layer 1
10
70.221685
20
341.737776
11
70.072296
21
341.659745
0
LINE
8
Layer 1
10
70.072296
20
341.659745
11
68.995116
21
341.046739
0
LINE
8
Layer 1
10
68.995116
20
341.046739
11
67.916466
21
340.421736
0
LINE
8
Layer 1
10
67.916466
20
340.421736
11
67.764913
21
340.353599
0
LINE
8
Layer 1
10
67.764913
20
340.353599
11
66.813560
21
339.845831
0
LINE
8
Layer 1
10
66.813560
20
339.845831
11
66.618790
21
339.729090
0
LINE
8
Layer 1
10
66.618790
20
339.729090
11
64.592980
21
338.696860
0
LINE
8
Layer 1
10
64.592980
20
338.696860
11
62.459210
21
337.609850
0
LINE
8
Layer 1
10
62.459210
20
337.609850
11
60.229040
21
336.455560
0
LINE
8
Layer 1
10
60.229040
20
336.455560
11
59.673723
21
336.162721
0
LINE
8
Layer 1
10
59.673723
20
336.162721
11
56.987973
21
334.768401
0
LINE
8
Layer 1
10
56.987973
20
334.768401
11
52.627433
21
332.295601
0
LINE
8
Layer 1
10
52.627433
20
332.295601
11
50.092683
21
330.673611
0
LINE
8
Layer 1
10
50.092683
20
330.673611
11
47.703783
21
329.040001
0
LINE
8
Layer 1
10
47.703783
20
329.040001
11
45.293863
21
327.432731
0
LINE
8
Layer 1
10
45.293863
20
327.432731
11
44.030383
21
326.665516
0
LINE
8
Layer 1
10
44.030383
20
326.665516
11
43.860096
21
341.527016
0
LINE
8
Layer 1
10
43.860096
20
341.527016
11
43.820647
21
346.260286
0
LINE
8
Layer 1
10
43.820647
20
346.260286
11
45.164447
21
346.910020
0
LINE
8
Layer 1
10
45.164447
20
346.910020
11
47.659137
21
348.263530
0
LINE
8
Layer 1
10
47.659137
20
348.263530
11
50.492367
21
349.827890
0
LINE
8
Layer 1
10
50.492367
20
349.827890
11
52.397797
21
350.951380
0
LINE
8
Layer 1
10
52.397797
20
350.951380
11
53.557527
21
351.663689
0
LINE
8
Layer 1
10
53.557527
20
351.663689
11
55.086517
21
352.640519
0
LINE
8
Layer 1
10
55.086517
20
352.640519
11
56.300717
21
353.483293
0
LINE
8
Layer 1
10
56.300717
20
353.483293
11
57.468737
21
354.290947
0
LINE
8
Layer 1
10
57.468737
20
354.290947
11
62.011497
21
357.734017
0
LINE
8
Layer 1
10
62.011497
20
357.734017
11
62.319731
21
357.988271
0
LINE
8
Layer 1
10
62.319731
20
357.988271
11
63.027897
21
358.565045
0
LINE
8
Layer 1
10
63.027897
20
358.565045
11
64.338867
21
359.567715
0
LINE
8
Layer 1
10
64.338867
20
359.567715
11
65.298938
21
360.279036
0
LINE
8
Layer 1
10
65.298938
20
360.279036
11
66.207317
21
360.963396
0
LINE
8
Layer 1
10
66.207317
20
360.963396
11
66.334754
21
361.075190
0
LINE
8
Layer 1
10
66.334754
20
361.075190
11
66.812533
21
361.476227
0
LINE
8
Layer 1
10
66.812533
20
361.476227
11
67.338169
21
361.906830
0
LINE
8
Layer 1
10
67.338169
20
361.906830
11
68.191953
21
362.518845
0
LINE
8
Layer 1
10
68.191953
20
362.518845
11
68.374551
21
362.638676
0
LINE
8
Layer 1
10
68.374551
20
362.638676
11
68.735468
21
362.917294
0
LINE
8
Layer 1
10
68.735468
20
362.917294
11
70.405008
21
364.199204
0
LINE
8
Layer 1
10
70.405008
20
364.199204
11
70.898493
21
364.582811
0
LINE
8
Layer 1
10
70.898493
20
364.582811
11
71.386537
21
364.967779
0
LINE
8
Layer 1
10
71.386537
20
364.967779
11
71.886327
21
365.318369
0
LINE
8
Layer 1
10
71.886327
20
365.318369
11
72.062549
21
365.459841
0
LINE
8
Layer 1
10
72.062549
20
365.459841
11
72.814247
21
366.051330
0
LINE
8
Layer 1
10
72.814247
20
366.051330
11
73.911217
21
366.861333
0
LINE
8
Layer 1
10
73.911217
20
366.861333
11
74.364818
21
367.200547
0
LINE
8
Layer 1
10
74.364818
20
367.200547
11
74.985306
21
367.669978
0
LINE
8
Layer 1
10
74.985306
20
367.669978
11
75.120411
21
367.772001
0
LINE
8
Layer 1
10
75.120411
20
367.772001
11
75.656684
21
368.184547
0
LINE
8
Layer 1
10
75.656684
20
368.184547
11
76.191162
21
368.591652
0
LINE
8
Layer 1
10
76.191162
20
368.591652
11
76.740295
21
368.985400
0
LINE
8
Layer 1
10
76.740295
20
368.985400
11
76.965057
21
369.152966
0
LINE
8
Layer 1
10
76.965057
20
369.152966
11
77.775618
21
369.750760
0
LINE
8
Layer 1
10
77.775618
20
369.750760
11
78.279920
21
370.113221
0
LINE
8
Layer 1
10
78.279920
20
370.113221
11
78.828684
21
370.504621
0
LINE
8
Layer 1
10
78.828684
20
370.504621
11
79.611483
21
371.053825
0
LINE
8
Layer 1
10
79.611483
20
371.053825
11
79.685928
21
371.107249
0
LINE
8
Layer 1
10
79.685928
20
371.107249
11
79.793765
21
371.189238
0
LINE
8
Layer 1
10
79.793765
20
371.189238
11
80.161481
21
371.437681
0
LINE
8
Layer 1
10
80.161481
20
371.437681
11
80.273769
21
371.514727
0
LINE
8
Layer 1
10
80.273769
20
371.514727
11
80.081347
21
371.389454
0
LINE
8
Layer 1
10
80.081347
20
371.389454
11
79.335152
21
370.901472
0
LINE
8
Layer 1
10
79.335152
20
370.901472
11
78.816933
21
370.560283
0
LINE
8
Layer 1
10
78.816933
20
370.560283
11
78.399442
21
370.285622
0
LINE
8
Layer 1
10
78.399442
20
370.285622
11
77.578865
21
369.737045
0
LINE
8
Layer 1
10
77.578865
20
369.737045
11
77.366036
21
369.607940
0
LINE
8
Layer 1
10
77.366036
20
369.607940
11
77.199771
21
369.509874
0
LINE
8
Layer 1
10
77.199771
20
369.509874
11
76.927585
21
369.328953
0
LINE
8
Layer 1
10
76.927585
20
369.328953
11
76.456856
21
369.028573
0
LINE
8
Layer 1
10
76.456856
20
369.028573
11
76.318849
21
368.944603
0
LINE
8
Layer 1
10
76.318849
20
368.944603
11
76.501071
21
369.148031
0
LINE
8
Layer 1
10
76.501071
20
369.148031
11
76.187271
21
368.963895
0
LINE
8
Layer 1
10
76.187271
20
368.963895
11
75.823078
21
368.747603
0
LINE
8
Layer 1
10
75.823078
20
368.747603
11
75.852942
21
368.718295
0
LINE
8
Layer 1
10
75.852942
20
368.718295
11
75.735769
21
368.630617
0
LINE
8
Layer 1
10
75.735769
20
368.630617
11
75.402061
21
368.431650
0
LINE
8
Layer 1
10
75.402061
20
368.431650
11
74.831225
21
368.091448
0
LINE
8
Layer 1
10
74.831225
20
368.091448
11
74.650603
21
367.966424
0
LINE
8
Layer 1
10
74.650603
20
367.966424
11
73.796000
21
367.488000
0
LINE
8
Layer 1
10
73.796000
20
367.488000
11
73.281741
21
367.203695
0
LINE
8
Layer 1
10
73.281741
20
367.203695
11
72.950565
21
367.009789
0
LINE
8
Layer 1
10
72.950565
20
367.009789
11
72.633181
21
366.801289
0
LINE
8
Layer 1
10
72.633181
20
366.801289
11
72.405947
21
366.612948
0
LINE
8
Layer 1
10
72.405947
20
366.612948
11
72.209444
21
366.529724
0
LINE
8
Layer 1
10
72.209444
20
366.529724
11
71.969838
21
366.415828
0
LINE
8
Layer 1
10
71.969838
20
366.415828
11
71.331734
21
366.098134
0
LINE
8
Layer 1
10
71.331734
20
366.098134
11
71.043585
21
365.941080
0
LINE
8
Layer 1
10
71.043585
20
365.941080
11
70.574648
21
365.639709
0
LINE
8
Layer 1
10
70.574648
20
365.639709
11
70.083700
21
365.396953
0
LINE
8
Layer 1
10
70.083700
20
365.396953
11
69.934311
21
365.318921
0
LINE
8
Layer 1
10
69.934311
20
365.318921
11
68.857131
21
364.705915
0
LINE
8
Layer 1
10
68.857131
20
364.705915
11
67.778481
21
364.080912
0
LINE
8
Layer 1
10
67.778481
20
364.080912
11
67.626928
21
364.012772
0
LINE
8
Layer 1
10
67.626928
20
364.012772
11
66.675575
21
363.505007
0
LINE
8
Layer 1
10
66.675575
20
363.505007
11
66.480802
21
363.388266
0
LINE
8
Layer 1
10
66.480802
20
363.388266
11
64.454992
21
362.356036
0
LINE
8
Layer 1
10
64.454992
20
362.356036
11
62.321212
21
361.269026
0
LINE
8
Layer 1
10
62.321212
20
361.269026
11
60.091042
21
360.114736
0
LINE
8
Layer 1
10
60.091042
20
360.114736
11
59.535725
21
359.822021
0
LINE
8
Layer 1
10
59.535725
20
359.822021
11
56.849975
21
358.427581
0
LINE
8
Layer 1
10
56.849975
20
358.427581
11
52.489435
21
355.954901
0
LINE
8
Layer 1
10
52.489435
20
355.954901
11
49.954675
21
354.332791
0
LINE
8
Layer 1
10
49.954675
20
354.332791
11
47.565785
21
352.699181
0
LINE
8
Layer 1
10
47.565785
20
352.699181
11
45.155865
21
351.091911
0
LINE
8
Layer 1
10
45.155865
20
351.091911
11
43.787205
21
350.271396
0
LINE
8
Layer 1
10
43.787205
20
350.271396
11
43.751405
21
354.567756
0
LINE
8
Layer 1
10
43.751405
20
354.567756
11
43.715171
21
361.089346
0
LINE
8
Layer 1
10
43.715171
20
361.089346
11
43.676834
21
367.608456
0
LINE
8
Layer 1
10
43.676834
20
367.608456
11
43.013003
21
383.979356
0
LINE
8
Layer 1
10
43.013003
20
383.979356
11
42.508690
21
395.733651
0
LINE
8
Layer 1
10
42.508690
20
395.733651
11
41.899153
21
407.451556
0
LINE
8
Layer 1
10
41.899153
20
407.451556
11
41.333882
21
417.966756
0
LINE
8
Layer 1
10
41.333882
20
417.966756
11
41.254519
21
420.471585
0
LINE
8
Layer 1
10
41.254519
20
420.471585
11
41.204836
21
417.060914
0
LINE
8
Layer 1
10
41.204836
20
417.060914
11
40.962083
21
408.985604
0
LINE
8
Layer 1
10
40.962083
20
408.985604
11
40.231975
21
388.125004
0
LINE
8
Layer 1
10
40.231975
20
388.125004
11
39.728773
21
375.386004
0
LINE
8
Layer 1
10
39.728773
20
375.386004
11
39.455413
21
369.016778
0
LINE
8
Layer 1
10
39.455413
20
369.016778
11
39.311530
21
362.652404
0
LINE
8
Layer 1
10
39.311530
20
362.652404
11
39.217482
21
355.390804
0
LINE
8
Layer 1
10
39.217482
20
355.390804
11
39.100061
21
348.125374
0
LINE
8
Layer 1
10
39.100061
20
348.125374
11
38.875116
21
333.589474
0
LINE
8
Layer 1
10
38.875116
20
333.589474
11
38.589451
21
313.692574
0
LINE
8
Layer 1
10
38.589451
20
313.692574
11
38.429180
21
301.442374
0
LINE
8
Layer 1
10
38.429180
20
301.442374
11
38.241333
21
285.105274
0
LINE
8
Layer 1
10
38.241333
20
285.105274
11
38.159220
21
271.801374
0
LINE
8
Layer 1
10
38.159220
20
271.801374
11
38.120514
21
267.264374
0
LINE
8
Layer 1
10
38.120514
20
267.264374
11
33.301234
21
271.622934
0
LINE
8
Layer 1
10
33.301234
20
271.622934
11
25.252824
21
279.056794
0
LINE
8
Layer 1
10
25.252824
20
279.056794
11
23.877614
21
280.331154
0
LINE
8
Layer 1
10
23.877614
20
280.331154
11
23.188428
21
280.966543
0
LINE
8
Layer 1
10
23.188428
20
280.966543
11
22.843600
21
281.284000
0
LINE
8
Layer 1
10
22.843600
20
281.284000
11
22.757407
21
281.363395
0
LINE
8
Layer 1
10
22.757407
20
281.363395
11
22.714308
21
281.403089
0
LINE
8
Layer 1
10
22.714308
20
281.403089
11
22.692233
21
281.423494
0
LINE
8
Layer 1
10
22.692233
20
281.423494
11
22.649880
21
281.459234
0
LINE
8
Layer 1
10
22.649880
20
281.459234
11
22.310367
21
281.746254
0
LINE
8
Layer 1
10
22.310367
20
281.746254
11
19.553387
21
284.075354
0
LINE
8
Layer 1
10
19.553387
20
284.075354
11
18.148247
21
285.262294
0
LINE
8
Layer 1
10
18.148247
20
285.262294
11
16.703597
21
286.436984
0
LINE
8
Layer 1
10
16.703597
20
286.436984
11
13.057300
21
289.366000
0
LINE
8
Layer 1
10
13.057300
20
289.366000
11
12.129690
21
290.109347
0
LINE
8
Layer 1
10
12.129690
20
290.109347
11
11.663600
21
290.483000
0
LINE
8
Layer 1
10
11.663600
20
290.483000
11
11.645730
21
290.447753
0
LINE
8
Layer 1
10
11.645730
20
290.447753
11
11.644866
21
290.378256
0
LINE
8
Layer 1
10
11.644866
20
290.378256
11
11.643071
21
290.239256
0
LINE
8
Layer 1
10
11.643071
20
290.239256
11
11.639487
21
289.960762
0
LINE
8
Layer 1
10
11.639487
20
289.960762
11
11.612526
21
287.712412
0
LINE
8
Layer 1
10
11.612526
20
287.712412
11
11.578332
21
284.665062
0
LINE
8
Layer 1
10
11.578332
20
284.665062
11
11.553167
21
283.127162
0
LINE
8
Layer 1
10
11.553167
20
283.127162
11
11.487750
21
281.608062
0
LINE
8
Layer 1
10
11.487750
20
281.608062
11
11.358704
21
278.529182
0
LINE
8
Layer 1
10
11.358704
20
278.529182
11
11.295822
21
276.970632
0
LINE
8
Layer 1
10
11.295822
20
276.970632
11
11.280487
21
276.598522
0
LINE
8
Layer 1
10
11.280487
20
276.598522
11
11.266452
21
276.406718
0
LINE
8
Layer 1
10
11.266452
20
276.406718
11
11.238689
21
276.023235
0
LINE
8
Layer 1
10
11.238689
20
276.023235
11
10.948260
21
271.029285
0
LINE
8
Layer 1
10
10.948260
20
271.029285
11
10.675518
21
266.231095
0
LINE
8
Layer 1
10
10.675518
20
266.231095
11
10.434681
21
247.008895
0
LINE
8
Layer 1
10
10.434681
20
247.008895
11
10.488476
21
245.666145
0
LINE
8
Layer 1
10
10.488476
20
245.666145
11
10.601568
21
242.595055
0
LINE
8
Layer 1
10
10.601568
20
242.595055
11
10.690112
21
237.030515
0
LINE
8
Layer 1
10
10.690112
20
237.030515
11
10.714905
21
232.998175
0
LINE
8
Layer 1
10
10.714905
20
232.998175
11
10.791585
21
231.080538
0
LINE
8
Layer 1
10
10.791585
20
231.080538
11
10.789477
21
229.161595
0
LINE
8
Layer 1
10
10.789477
20
229.161595
11
10.851371
21
228.593973
0
LINE
8
Layer 1
10
10.851371
20
228.593973
11
10.988569
21
227.551696
0
LINE
8
Layer 1
10
10.988569
20
227.551696
11
11.031118
21
226.499583
0
LINE
8
Layer 1
10
11.031118
20
226.499583
11
11.072769
21
225.357956
0
LINE
8
Layer 1
10
11.072769
20
225.357956
11
11.208884
21
224.215123
0
LINE
8
Layer 1
10
11.208884
20
224.215123
11
11.440418
21
222.442348
0
LINE
8
Layer 1
10
11.440418
20
222.442348
11
11.228981
21
220.667063
0
LINE
8
Layer 1
10
11.228981
20
220.667063
11
11.198001
21
219.928784
0
LINE
8
Layer 1
10
11.198001
20
219.928784
11
11.278694
21
218.391874
0
LINE
8
Layer 1
10
11.278694
20
218.391874
11
11.684747
21
211.295124
0
LINE
8
Layer 1
10
11.684747
20
211.295124
11
11.840816
21
209.188614
0
LINE
8
Layer 1
10
11.840816
20
209.188614
11
12.025324
21
207.095214
0
LINE
8
Layer 1
10
12.025324
20
207.095214
11
12.093393
21
206.035254
0
LINE
8
Layer 1
10
12.093393
20
206.035254
11
12.051229
21
205.032234
0
LINE
8
Layer 1
10
12.051229
20
205.032234
11
12.132910
21
204.271572
0
LINE
8
Layer 1
10
12.132910
20
204.271572
11
12.450049
21
201.049482
0
LINE
8
Layer 1
10
12.450049
20
201.049482
11
12.724276
21
196.446062
0
LINE
8
Layer 1
10
12.724276
20
196.446062
11
12.866615
21
194.534452
0
LINE
8
Layer 1
10
12.866615
20
194.534452
11
13.099414
21
191.909672
0
LINE
8
Layer 1
10
13.099414
20
191.909672
11
13.151538
21
191.338587
0
LINE
8
Layer 1
10
13.151538
20
191.338587
11
13.401341
21
189.057107
0
LINE
8
Layer 1
10
13.401341
20
189.057107
11
13.644281
21
186.791077
0
LINE
8
Layer 1
10
13.644281
20
186.791077
11
13.782852
21
184.508097
0
LINE
8
Layer 1
10
13.782852
20
184.508097
11
13.875536
21
183.562063
0
LINE
8
Layer 1
10
13.875536
20
183.562063
11
14.192367
21
180.161403
0
LINE
8
Layer 1
10
14.192367
20
180.161403
11
14.352017
21
178.063313
0
LINE
8
Layer 1
10
14.352017
20
178.063313
11
14.520077
21
175.786023
0
LINE
8
Layer 1
10
14.520077
20
175.786023
11
14.722456
21
172.554413
0
LINE
8
Layer 1
10
14.722456
20
172.554413
11
14.750156
21
172.244635
0
LINE
8
Layer 1
10
14.750156
20
172.244635
11
14.820647
21
171.787692
0
LINE
8
Layer 1
10
14.820647
20
171.787692
11
14.854593
21
170.736662
0
LINE
8
Layer 1
10
14.854593
20
170.736662
11
13.106833
21
169.593872
0
LINE
8
Layer 1
10
13.106833
20
169.593872
11
11.020543
21
168.047442
0
LINE
8
Layer 1
10
11.020543
20
168.047442
11
9.986393
21
167.262913
0
LINE
8
Layer 1
10
9.986393
20
167.262913
11
9.728984
21
167.065420
0
LINE
8
Layer 1
10
9.728984
20
167.065420
11
9.256463
21
166.694298
0
LINE
8
Layer 1
10
9.256463
20
166.694298
11
8.171493
21
165.838536
0
LINE
8
Layer 1
10
8.171493
20
165.838536
11
6.004143
21
164.128496
0
LINE
8
Layer 1
10
6.004143
20
164.128496
11
5.733492
21
163.914927
0
LINE
8
Layer 1
10
5.733492
20
163.914927
11
5.665476
21
163.861505
0
LINE
8
Layer 1
10
5.665476
20
163.861505
11
5.580889
21
163.807711
0
LINE
8
Layer 1
10
5.580889
20
163.807711
11
5.411717
21
163.700122
0
LINE
8
Layer 1
10
5.411717
20
163.700122
11
4.735332
21
163.269891
0
LINE
8
Layer 1
10
4.735332
20
163.269891
11
3.383492
21
162.410051
0
LINE
8
Layer 1
10
3.383492
20
162.410051
11
0.683752
21
160.692351
0
LINE
8
Layer 1
10
0.683752
20
160.692351
11
0.009660
21
160.263000
0
LINE
8
Layer 1
10
0.009660
20
160.263000
11
0.028149
21
160.235421
0
LINE
8
Layer 1
10
0.028149
20
160.235421
11
0.070008
21
160.207481
0
LINE
8
Layer 1
10
0.070008
20
160.207481
11
0.153605
21
160.151709
0
LINE
8
Layer 1
10
0.153605
20
160.151709
11
0.320923
21
160.040039
0
LINE
8
Layer 1
10
0.320923
20
160.040039
11
0.655376
21
159.816703
0
LINE
8
Layer 1
10
0.655376
20
159.816703
11
1.992436
21
158.923843
0
LINE
8
Layer 1
10
1.992436
20
158.923843
11
3.554016
21
157.939100
0
LINE
8
Layer 1
10
3.554016
20
157.939100
11
5.316116
21
156.829080
0
LINE
8
Layer 1
10
5.316116
20
156.829080
11
5.744430
21
156.553914
0
LINE
8
Layer 1
10
5.744430
20
156.553914
11
6.091247
21
156.281973
0
LINE
8
Layer 1
10
6.091247
20
156.281973
11
6.774744
21
155.736720
0
LINE
8
Layer 1
10
6.774744
20
155.736720
11
9.202594
21
153.757340
0
LINE
8
Layer 1
10
9.202594
20
153.757340
11
9.997450
21
153.115522
0
LINE
8
Layer 1
10
9.997450
20
153.115522
11
10.586588
21
152.648809
0
LINE
8
Layer 1
10
10.586588
20
152.648809
11
12.274558
21
151.272669
0
LINE
8
Layer 1
10
12.274558
20
151.272669
11
13.118482
21
150.667066
0
LINE
8
Layer 1
10
13.118482
20
150.667066
11
13.913488
21
150.002389
0
LINE
8
Layer 1
10
13.913488
20
150.002389
11
14.188146
21
149.852755
0
LINE
8
Layer 1
10
14.188146
20
149.852755
11
14.707924
21
149.596057
0
LINE
8
Layer 1
10
14.707924
20
149.596057
11
15.172147
21
149.265347
0
LINE
8
Layer 1
10
15.172147
20
149.265347
11
15.673099
21
148.903070
0
LINE
8
Layer 1
10
15.673099
20
148.903070
11
16.234617
21
148.611656
0
LINE
8
Layer 1
10
16.234617
20
148.611656
11
17.116693
21
148.176895
0
LINE
8
Layer 1
10
17.116693
20
148.176895
11
17.718467
21
147.399116
0
LINE
8
Layer 1
10
17.718467
20
147.399116
11
18.004564
21
147.119883
0
LINE
8
Layer 1
10
18.004564
20
147.119883
11
18.693626
21
146.649701
0
LINE
8
Layer 1
10
18.693626
20
146.649701
11
21.897226
21
144.504251
0
LINE
8
Layer 1
10
21.897226
20
144.504251
11
22.871025
21
143.894460
0
LINE
8
Layer 1
10
22.871025
20
143.894460
11
23.857746
21
143.311133
0
LINE
8
Layer 1
10
23.857746
20
143.311133
11
24.340973
21
142.996389
0
LINE
8
Layer 1
10
24.340973
20
142.996389
11
24.729643
21
142.617002
0
LINE
8
Layer 1
10
24.729643
20
142.617002
11
25.097548
21
142.416170
0
LINE
8
Layer 1
10
25.097548
20
142.416170
11
26.637608
21
141.543593
0
LINE
8
Layer 1
10
26.637608
20
141.543593
11
28.722668
21
140.160153
0
LINE
8
Layer 1
10
28.722668
20
140.160153
11
29.606810
21
139.607495
0
LINE
8
Layer 1
10
29.606810
20
139.607495
11
30.844940
21
138.877130
0
LINE
8
Layer 1
10
30.844940
20
138.877130
11
31.115272
21
138.719213
0
LINE
8
Layer 1
10
31.115272
20
138.719213
11
32.222012
21
138.120798
0
LINE
8
Layer 1
10
32.222012
20
138.120798
11
33.317932
21
137.522262
0
LINE
8
Layer 1
10
33.317932
20
137.522262
11
34.353622
21
136.838156
0
LINE
8
Layer 1
10
34.353622
20
136.838156
11
34.805493
21
136.581675
0
LINE
8
Layer 1
10
34.805493
20
136.581675
11
36.419383
21
135.647015
0
LINE
8
Layer 1
10
36.419383
20
135.647015
11
37.392067
21
135.042913
0
LINE
8
Layer 1
10
37.392067
20
135.042913
11
38.374027
21
134.426074
0
LINE
8
Layer 1
10
38.374027
20
134.426074
11
38.391649
21
131.608374
0
LINE
8
Layer 1
10
38.391649
20
131.608374
11
38.512285
21
112.710274
0
LINE
8
Layer 1
10
38.512285
20
112.710274
11
38.571213
21
107.101214
0
LINE
8
Layer 1
10
38.571213
20
107.101214
11
38.654254
21
101.527144
0
LINE
8
Layer 1
10
38.654254
20
101.527144
11
38.673221
21
98.704712
0
LINE
8
Layer 1
10
38.673221
20
98.704712
11
38.595270
21
96.032724
0
LINE
8
Layer 1
10
38.595270
20
96.032724
11
38.637256
21
94.007714
0
LINE
8
Layer 1
10
38.637256
20
94.007714
11
38.790105
21
85.428844
0
LINE
8
Layer 1
10
38.790105
20
85.428844
11
38.830296
21
73.170444
0
LINE
8
Layer 1
10
38.830296
20
73.170444
11
38.872773
21
68.080284
0
LINE
8
Layer 1
10
38.872773
20
68.080284
11
38.971954
21
61.091494
0
LINE
8
Layer 1
10
38.971954
20
61.091494
11
38.989204
21
59.570664
0
LINE
8
Layer 1
10
38.989204
20
59.570664
11
39.124185
21
53.496624
0
LINE
8
Layer 1
10
39.124185
20
53.496624
11
39.480462
21
47.463264
0
LINE
8
Layer 1
10
39.480462
20
47.463264
11
39.604993
21
44.436320
0
LINE
8
Layer 1
10
39.604993
20
44.436320
11
39.695577
21
41.384154
0
LINE
8
Layer 1
10
39.695577
20
41.384154
11
39.829198
21
38.865104
0
LINE
8
Layer 1
10
39.829198
20
38.865104
11
40.107968
21
34.386181
0
LINE
8
Layer 1
10
40.107968
20
34.386181
11
40.281377
21
29.810614
0
LINE
8
Layer 1
10
40.281377
20
29.810614
11
40.507931
21
24.223934
0
LINE
8
Layer 1
10
40.507931
20
24.223934
11
40.738566
21
18.160154
0
LINE
8
Layer 1
10
40.738566
20
18.160154
11
41.013845
21
9.554814
0
LINE
8
Layer 1
10
41.013845
20
9.554814
11
41.049955
21
8.729969
0
LINE
8
Layer 1
10
41.049955
20
8.729969
11
41.139180
21
7.513589
0
LINE
8
Layer 1
10
41.139180
20
7.513589
11
41.203360
21
3.518479
0
LINE
8
Layer 1
10
41.203360
20
3.518479
11
41.233905
21
2.284799
0
LINE
8
Layer 1
10
41.233905
20
2.284799
11
41.235945
21
4.359649
0
LINE
8
Layer 1
10
41.235945
20
4.359649
11
41.229516
21
12.387469
0
LINE
8
Layer 1
10
41.229516
20
12.387469
11
41.207441
21
17.974899
0
LINE
8
Layer 1
10
41.207441
20
17.974899
11
41.191919
21
22.474809
0
LINE
8
Layer 1
10
41.191919
20
22.474809
11
41.234505
21
26.939910
0
LINE
8
Layer 1
10
41.234505
20
26.939910
11
41.101325
21
31.361609
0
LINE
8
Layer 1
10
41.101325
20
31.361609
11
41.171754
21
33.601669
0
LINE
8
Layer 1
10
41.171754
20
33.601669
11
41.244962
21
35.338419
0
LINE
8
Layer 1
10
41.244962
20
35.338419
11
41.222272
21
38.281639
0
LINE
8
Layer 1
10
41.222272
20
38.281639
11
41.269572
21
43.309109
0
LINE
8
Layer 1
10
41.269572
20
43.309109
11
41.311059
21
44.763159
0
LINE
8
Layer 1
10
41.311059
20
44.763159
11
41.488142
21
44.384841
0
LINE
8
Layer 1
10
41.488142
20
44.384841
11
41.618080
21
43.621641
0
LINE
8
Layer 1
10
41.618080
20
43.621641
11
41.893520
21
42.387559
0
LINE
8
Layer 1
10
41.893520
20
42.387559
11
41.988973
21
43.989854
0
LINE
8
Layer 1
10
41.988973
20
43.989854
11
42.029243
21
45.660229
0
LINE
8
Layer 1
10
42.029243
20
45.660229
11
42.173019
21
47.562829
0
LINE
8
Layer 1
10
42.173019
20
47.562829
11
42.165398
21
49.470839
0
LINE
8
Layer 1
10
42.165398
20
49.470839
11
41.993973
21
49.346928
0
LINE
8
Layer 1
10
41.993973
20
49.346928
11
41.835582
21
49.389959
0
LINE
8
Layer 1
10
41.835582
20
49.389959
11
41.757920
21
50.705259
0
LINE
8
Layer 1
10
41.757920
20
50.705259
11
41.874785
21
54.200769
0
LINE
8
Layer 1
10
41.874785
20
54.200769
11
41.923194
21
57.196597
0
LINE
8
Layer 1
10
41.923194
20
57.196597
11
41.992141
21
60.179719
0
LINE
8
Layer 1
10
41.992141
20
60.179719
11
41.928020
21
62.156499
0
LINE
8
Layer 1
10
41.928020
20
62.156499
11
41.973039
21
66.559032
0
LINE
8
Layer 1
10
41.973039
20
66.559032
11
42.238913
21
70.953759
0
LINE
8
Layer 1
10
42.238913
20
70.953759
11
42.444448
21
73.434468
0
LINE
8
Layer 1
10
42.444448
20
73.434468
11
42.424844
21
75.923599
0
LINE
8
Layer 1
10
42.424844
20
75.923599
11
43.256490
21
75.086018
0
LINE
8
Layer 1
10
43.256490
20
75.086018
11
45.384390
21
73.108618
0
LINE
8
Layer 1
10
45.384390
20
73.108618
11
47.827140
21
70.871398
0
LINE
8
Layer 1
10
47.827140
20
70.871398
11
49.538350
21
69.388908
0
LINE
8
Layer 1
10
49.538350
20
69.388908
11
50.607180
21
68.495430
0
LINE
8
Layer 1
10
50.607180
20
68.495430
11
52.052570
21
67.329020
0
LINE
8
Layer 1
10
52.052570
20
67.329020
11
53.264670
21
66.423547
0
LINE
8
Layer 1
10
53.264670
20
66.423547
11
54.427610
21
65.551585
0
LINE
8
Layer 1
10
54.427610
20
65.551585
11
59.240080
21
62.253695
0
LINE
8
Layer 1
10
59.240080
20
62.253695
11
59.586527
21
62.036415
0
LINE
8
Layer 1
10
59.586527
20
62.036415
11
60.375137
21
61.534706
0
LINE
8
Layer 1
10
60.375137
20
61.534706
11
61.772617
21
60.585703
0
LINE
8
Layer 1
10
61.772617
20
60.585703
11
62.773937
21
59.883659
0
LINE
8
Layer 1
10
62.773937
20
59.883659
11
63.732340
21
59.222918
0
LINE
8
Layer 1
10
63.732340
20
59.222918
11
63.881974
21
59.135116
0
LINE
8
Layer 1
10
63.881974
20
59.135116
11
64.425418
21
58.800356
0
LINE
8
Layer 1
10
64.425418
20
58.800356
11
65.013196
21
58.428743
0
LINE
8
Layer 1
10
65.013196
20
58.428743
11
65.884043
21
57.798053
0
LINE
8
Layer 1
10
65.884043
20
57.798053
11
66.059709
21
57.659795
0
LINE
8
Layer 1
10
66.059709
20
57.659795
11
66.446903
21
57.399358
0
LINE
8
Layer 1
10
66.446903
20
57.399358
11
68.231393
21
56.192268
0
LINE
8
Layer 1
10
68.231393
20
56.192268
11
68.763398
21
55.837103
0
LINE
8
Layer 1
10
68.763398
20
55.837103
11
69.294785
21
55.487379
0
LINE
8
Layer 1
10
69.294785
20
55.487379
11
69.797236
21
55.115890
0
LINE
8
Layer 1
10
69.797236
20
55.115890
11
69.991512
21
54.990493
0
LINE
8
Layer 1
10
69.991512
20
54.990493
11
70.808689
21
54.451562
0
LINE
8
Layer 1
10
70.808689
20
54.451562
11
71.950299
21
53.648482
0
LINE
8
Layer 1
10
71.950299
20
53.648482
11
72.426472
21
53.317802
0
LINE
8
Layer 1
10
72.426472
20
53.317802
11
73.082946
21
52.866921
0
LINE
8
Layer 1
10
73.082946
20
52.866921
11
73.225779
21
52.768731
0
LINE
8
Layer 1
10
73.225779
20
52.768731
11
73.799706
21
52.381412
0
LINE
8
Layer 1
10
73.799706
20
52.381412
11
74.367762
21
51.994093
0
LINE
8
Layer 1
10
74.367762
20
51.994093
11
74.928086
21
51.588475
0
LINE
8
Layer 1
10
74.928086
20
51.588475
11
75.163482
21
51.424504
0
LINE
8
Layer 1
10
75.163482
20
51.424504
11
76.006321
21
50.830912
0
LINE
8
Layer 1
10
76.006321
20
50.830912
11
76.521692
21
50.458681
0
LINE
8
Layer 1
10
76.521692
20
50.458681
11
77.079543
21
50.052564
0
LINE
8
Layer 1
10
77.079543
20
50.052564
11
77.866485
21
49.470597
0
LINE
8
Layer 1
10
77.866485
20
49.470597
11
77.942538
21
49.415690
0
LINE
8
Layer 1
10
77.942538
20
49.415690
11
78.057052
21
49.337535
0
LINE
8
Layer 1
10
78.057052
20
49.337535
11
78.417534
21
49.061268
0
LINE
8
Layer 1
10
78.417534
20
49.061268
11
78.528337
21
48.977668
0
LINE
8
Layer 1
10
78.528337
20
48.977668
11
78.344633
21
49.123100
0
LINE
8
Layer 1
10
78.344633
20
49.123100
11
77.628554
21
49.688989
0
LINE
8
Layer 1
10
77.628554
20
49.688989
11
77.128886
21
50.080995
0
LINE
8
Layer 1
10
77.128886
20
50.080995
11
76.726604
21
50.397084
0
LINE
8
Layer 1
10
76.726604
20
50.397084
11
75.927667
21
51.015655
0
LINE
8
Layer 1
10
75.927667
20
51.015655
11
75.733143
21
51.180131
0
LINE
8
Layer 1
10
75.733143
20
51.180131
11
75.583695
21
51.309236
0
LINE
8
Layer 1
10
75.583695
20
51.309236
11
75.319671
21
51.514767
0
LINE
8
Layer 1
10
75.319671
20
51.514767
11
74.875033
21
51.873889
0
LINE
8
Layer 1
10
74.875033
20
51.873889
11
74.748598
21
51.980487
0
LINE
8
Layer 1
10
74.748598
20
51.980487
11
75.004336
21
51.868445
0
LINE
8
Layer 1
10
75.004336
20
51.868445
11
74.723370
21
52.113055
0
LINE
8
Layer 1
10
74.723370
20
52.113055
11
74.394731
21
52.395751
0
LINE
8
Layer 1
10
74.394731
20
52.395751
11
74.376615
21
52.358156
0
LINE
8
Layer 1
10
74.376615
20
52.358156
11
74.253507
21
52.443486
0
LINE
8
Layer 1
10
74.253507
20
52.443486
11
73.951702
21
52.702439
0
LINE
8
Layer 1
10
73.951702
20
52.702439
11
73.435518
21
53.145406
0
LINE
8
Layer 1
10
73.435518
20
53.145406
11
73.255647
21
53.280201
0
LINE
8
Layer 1
10
73.255647
20
53.280201
11
72.512731
21
53.953185
0
LINE
8
Layer 1
10
72.512731
20
53.953185
11
72.069022
21
54.359054
0
LINE
8
Layer 1
10
72.069022
20
54.359054
11
71.772844
21
54.617265
0
LINE
8
Layer 1
10
71.772844
20
54.617265
11
71.467330
21
54.857422
0
LINE
8
Layer 1
10
71.467330
20
54.857422
11
71.211222
21
55.017442
0
LINE
8
Layer 1
10
71.211222
20
55.017442
11
71.065976
21
55.180434
0
LINE
8
Layer 1
10
71.065976
20
55.180434
11
70.877079
21
55.375328
0
LINE
8
Layer 1
10
70.877079
20
55.375328
11
70.360096
21
55.890022
0
LINE
8
Layer 1
10
70.360096
20
55.890022
11
70.113634
21
56.118057
0
LINE
8
Layer 1
10
70.113634
20
56.118057
11
69.668570
21
56.475200
0
LINE
8
Layer 1
10
69.668570
20
56.475200
11
69.272471
21
56.871668
0
LINE
8
Layer 1
10
69.272471
20
56.871668
11
69.147941
21
56.991130
0
LINE
8
Layer 1
10
69.147941
20
56.991130
11
68.201780
21
57.836007
0
LINE
8
Layer 1
10
68.201780
20
57.836007
11
67.243563
21
58.678660
0
LINE
8
Layer 1
10
67.243563
20
58.678660
11
67.127753
21
58.803190
0
LINE
8
Layer 1
10
67.127753
20
58.803190
11
66.324425
21
59.559895
0
LINE
8
Layer 1
10
66.324425
20
59.559895
11
66.147585
21
59.710765
0
LINE
8
Layer 1
10
66.147585
20
59.710765
11
64.483735
21
61.337215
0
LINE
8
Layer 1
10
64.483735
20
61.337215
11
62.731415
21
63.050345
0
LINE
8
Layer 1
10
62.731415
20
63.050345
11
60.882505
21
64.835195
0
LINE
8
Layer 1
10
60.882505
20
64.835195
11
60.416969
21
65.278038
0
LINE
8
Layer 1
10
60.416969
20
65.278038
11
58.186239
21
67.426338
0
LINE
8
Layer 1
10
58.186239
20
67.426338
11
54.364319
21
70.849378
0
LINE
8
Layer 1
10
54.364319
20
70.849378
11
51.965659
21
72.782138
0
LINE
8
Layer 1
10
51.965659
20
72.782138
11
49.604529
21
74.571198
0
LINE
8
Layer 1
10
49.604529
20
74.571198
11
47.261699
21
76.388578
0
LINE
8
Layer 1
10
47.261699
20
76.388578
11
45.855259
21
77.610268
0
LINE
8
Layer 1
10
45.855259
20
77.610268
11
44.863021
21
78.506926
0
LINE
8
Layer 1
10
44.863021
20
78.506926
11
43.756979
21
79.258728
0
LINE
8
Layer 1
10
43.756979
20
79.258728
11
43.109674
21
79.461810
0
LINE
8
Layer 1
10
43.109674
20
79.461810
11
42.434569
21
79.394883
0
LINE
8
Layer 1
10
42.434569
20
79.394883
11
42.455716
21
79.682526
0
LINE
8
Layer 1
10
42.455716
20
79.682526
11
42.507732
21
81.393602
0
LINE
8
Layer 1
10
42.507732
20
81.393602
11
42.400500
21
83.102106
0
LINE
8
Layer 1
10
42.400500
20
83.102106
11
42.201028
21
85.742346
0
LINE
8
Layer 1
10
42.201028
20
85.742346
11
42.361113
21
87.633676
0
LINE
8
Layer 1
10
42.361113
20
87.633676
11
42.498442
21
90.000866
0
LINE
8
Layer 1
10
42.498442
20
90.000866
11
42.546369
21
93.192553
0
LINE
8
Layer 1
10
42.546369
20
93.192553
11
42.776750
21
96.376276
0
LINE
8
Layer 1
10
42.776750
20
96.376276
11
42.841613
21
99.321846
0
LINE
8
Layer 1
10
42.841613
20
99.321846
11
42.818301
21
102.573606
0
LINE
8
Layer 1
10
42.818301
20
102.573606
11
42.932135
21
102.489885
0
LINE
8
Layer 1
10
42.932135
20
102.489885
11
43.254097
21
102.245029
0
LINE
8
Layer 1
10
43.254097
20
102.245029
11
44.444867
21
101.159999
0
LINE
8
Layer 1
10
44.444867
20
101.159999
11
44.959002
21
100.729275
0
LINE
8
Layer 1
10
44.959002
20
100.729275
11
46.073782
21
99.886377
0
LINE
8
Layer 1
10
46.073782
20
99.886377
11
51.214342
21
95.985247
0
LINE
8
Layer 1
10
51.214342
20
95.985247
11
52.745002
21
94.833187
0
LINE
8
Layer 1
10
52.745002
20
94.833187
11
54.271642
21
93.695097
0
LINE
8
Layer 1
10
54.271642
20
93.695097
11
55.732372
21
92.520527
0
LINE
8
Layer 1
10
55.732372
20
92.520527
11
56.289546
21
92.110086
0
LINE
8
Layer 1
10
56.289546
20
92.110086
11
58.637756
21
90.356636
0
LINE
8
Layer 1
10
58.637756
20
90.356636
11
61.939236
21
87.786876
0
LINE
8
Layer 1
10
61.939236
20
87.786876
11
63.314636
21
86.725216
0
LINE
8
Layer 1
10
63.314636
20
86.725216
11
65.208566
21
85.274136
0
LINE
8
Layer 1
10
65.208566
20
85.274136
11
65.620494
21
84.958047
0
LINE
8
Layer 1
10
65.620494
20
84.958047
11
67.273584
21
83.705327
0
LINE
8
Layer 1
10
67.273584
20
83.705327
11
68.911404
21
82.455817
0
LINE
8
Layer 1
10
68.911404
20
82.455817
11
70.536544
21
81.167107
0
LINE
8
Layer 1
10
70.536544
20
81.167107
11
71.216578
21
80.640913
0
LINE
8
Layer 1
10
71.216578
20
80.640913
11
73.654438
21
78.742043
0
LINE
8
Layer 1
10
73.654438
20
78.742043
11
75.148868
21
77.558683
0
LINE
8
Layer 1
10
75.148868
20
77.558683
11
76.767698
21
76.270583
0
LINE
8
Layer 1
10
76.767698
20
76.270583
11
79.055308
21
74.431063
0
LINE
8
Layer 1
10
79.055308
20
74.431063
11
79.275864
21
74.256201
0
LINE
8
Layer 1
10
79.275864
20
74.256201
11
79.605988
21
74.004177
0
LINE
8
Layer 1
10
79.605988
20
74.004177
11
80.658008
21
73.138153
0
LINE
8
Layer 1
10
80.658008
20
73.138153
11
80.982380
21
72.873756
0
LINE
8
Layer 1
10
80.982380
20
72.873756
11
80.442772
21
73.327978
0
LINE
8
Layer 1
10
80.442772
20
73.327978
11
78.346032
21
75.088718
0
LINE
8
Layer 1
10
78.346032
20
75.088718
11
76.884192
21
76.311018
0
LINE
8
Layer 1
10
76.884192
20
76.311018
11
75.707082
21
77.295761
0
LINE
8
Layer 1
10
75.707082
20
77.295761
11
73.373102
21
79.229381
0
LINE
8
Layer 1
10
73.373102
20
79.229381
11
72.798989
21
79.733562
0
LINE
8
Layer 1
10
72.798989
20
79.733562
11
72.356764
21
80.128055
0
LINE
8
Layer 1
10
72.356764
20
80.128055
11
71.584909
21
80.769873
0
LINE
8
Layer 1
10
71.584909
20
80.769873
11
70.279809
21
81.881993
0
LINE
8
Layer 1
10
70.279809
20
81.881993
11
69.906776
21
82.208840
0
LINE
8
Layer 1
10
69.906776
20
82.208840
11
70.618094
21
81.795921
0
LINE
8
Layer 1
10
70.618094
20
81.795921
11
69.786140
21
82.540631
0
LINE
8
Layer 1
10
69.786140
20
82.540631
11
68.814320
21
83.404431
0
LINE
8
Layer 1
10
68.814320
20
83.404431
11
68.782847
21
83.323924
0
LINE
8
Layer 1
10
68.782847
20
83.323924
11
68.427312
21
83.598213
0
LINE
8
Layer 1
10
68.427312
20
83.598213
11
67.535132
21
84.389420
0
LINE
8
Layer 1
10
67.535132
20
84.389420
11
66.009172
21
85.743180
0
LINE
8
Layer 1
10
66.009172
20
85.743180
11
65.485512
21
86.167969
0
LINE
8
Layer 1
10
65.485512
20
86.167969
11
63.274632
21
88.200529
0
LINE
8
Layer 1
10
63.274632
20
88.200529
11
61.952282
21
89.424559
0
LINE
8
Layer 1
10
61.952282
20
89.424559
11
61.075190
21
90.210448
0
LINE
8
Layer 1
10
61.075190
20
90.210448
11
60.181032
21
90.959115
0
LINE
8
Layer 1
10
60.181032
20
90.959115
11
59.448751
21
91.487412
0
LINE
8
Layer 1
10
59.448751
20
91.487412
11
59.003433
21
91.960058
0
LINE
8
Layer 1
10
59.003433
20
91.960058
11
58.431298
21
92.534098
0
LINE
8
Layer 1
10
58.431298
20
92.534098
11
56.873428
21
94.059878
0
LINE
8
Layer 1
10
56.873428
20
94.059878
11
56.137870
21
94.746095
0
LINE
8
Layer 1
10
56.137870
20
94.746095
11
54.832460
21
95.853635
0
LINE
8
Layer 1
10
54.832460
20
95.853635
11
54.202109
21
96.423560
0
LINE
8
Layer 1
10
54.202109
20
96.423560
11
53.637980
21
97.027705
0
LINE
8
Layer 1
10
53.637980
20
97.027705
11
53.264575
21
97.384230
0
LINE
8
Layer 1
10
53.264575
20
97.384230
11
50.453735
21
99.944340
0
LINE
8
Layer 1
10
50.453735
20
99.944340
11
49.056624
21
101.246860
0
LINE
8
Layer 1
10
49.056624
20
101.246860
11
47.612535
21
102.505690
0
LINE
8
Layer 1
10
47.612535
20
102.505690
11
47.259783
21
102.869511
0
LINE
8
Layer 1
10
47.259783
20
102.869511
11
46.082303
21
104.020691
0
LINE
8
Layer 1
10
46.082303
20
104.020691
11
45.477891
21
104.585220
0
LINE
8
Layer 1
10
45.477891
20
104.585220
11
45.169781
21
104.863096
0
LINE
8
Layer 1
10
45.169781
20
104.863096
11
45.013901
21
105.000733
0
LINE
8
Layer 1
10
45.013901
20
105.000733
11
44.935499
21
105.069121
0
LINE
8
Layer 1
10
44.935499
20
105.069121
11
44.900253
21
105.099172
0
LINE
8
Layer 1
10
44.900253
20
105.099172
11
44.884488
21
105.109312
0
LINE
8
Layer 1
10
44.884488
20
105.109312
11
44.677901
21
105.252269
0
LINE
8
Layer 1
10
44.677901
20
105.252269
11
44.334299
21
105.638967
0
LINE
8
Layer 1
10
44.334299
20
105.638967
11
44.302083
21
105.684478
0
LINE
8
Layer 1
10
44.302083
20
105.684478
11
44.290512
21
105.706737
0
LINE
8
Layer 1
10
44.290512
20
105.706737
11
44.325759
21
105.726648
0
LINE
8
Layer 1
10
44.325759
20
105.726648
11
44.463893
21
105.803567
0
LINE
8
Layer 1
10
44.463893
20
105.803567
11
44.716538
21
105.948748
0
LINE
8
Layer 1
10
44.716538
20
105.948748
11
44.899378
21
106.096652
0
LINE
8
Layer 1
10
44.899378
20
106.096652
11
44.941917
21
106.131278
0
LINE
8
Layer 1
10
44.941917
20
106.131278
11
44.966403
21
106.150816
0
LINE
8
Layer 1
10
44.966403
20
106.150816
11
45.053711
21
106.215617
0
LINE
8
Layer 1
10
45.053711
20
106.215617
11
45.402941
21
106.475067
0
LINE
8
Layer 1
10
45.402941
20
106.475067
11
46.799861
21
107.513727
0
LINE
8
Layer 1
10
46.799861
20
107.513727
11
52.676161
21
111.895047
0
LINE
8
Layer 1
10
52.676161
20
111.895047
11
58.820941
21
116.517277
0
LINE
8
Layer 1
10
58.820941
20
116.517277
11
60.352101
21
117.680957
0
LINE
8
Layer 1
10
60.352101
20
117.680957
11
67.753071
21
123.257497
0
LINE
8
Layer 1
10
67.753071
20
123.257497
11
73.799721
21
128.008947
0
LINE
8
Layer 1
10
73.799721
20
128.008947
11
75.333601
21
129.226167
0
LINE
8
Layer 1
10
75.333601
20
129.226167
11
78.325791
21
131.704157
0
LINE
8
Layer 1
10
78.325791
20
131.704157
11
79.071738
21
132.322728
0
LINE
8
Layer 1
10
79.071738
20
132.322728
11
79.431726
21
132.632509
0
LINE
8
Layer 1
10
79.431726
20
132.632509
11
79.726479
21
132.945132
0
LINE
8
Layer 1
10
79.726479
20
132.945132
11
80.903519
21
134.194392
0
LINE
8
Layer 1
10
80.903519
20
134.194392
11
82.076849
21
135.441052
0
LINE
8
Layer 1
10
82.076849
20
135.441052
11
82.662031
21
136.063210
0
LINE
8
Layer 1
10
82.662031
20
136.063210
11
82.735056
21
136.140872
0
LINE
8
Layer 1
10
82.735056
20
136.140872
11
82.771598
21
136.179703
0
LINE
8
Layer 1
10
82.771598
20
136.179703
11
82.789841
21
136.199241
0
LINE
8
Layer 1
10
82.789841
20
136.199241
11
82.797878
21
136.208888
0
LINE
8
Layer 1
10
82.797878
20
136.208888
11
82.787676
21
136.218162
0
LINE
8
Layer 1
10
82.787676
20
136.218162
11
82.624128
21
136.366436
0
LINE
8
Layer 1
10
82.624128
20
136.366436
11
82.297033
21
136.662859
0
LINE
8
Layer 1
10
82.297033
20
136.662859
11
80.718453
21
138.085869
0
LINE
8
Layer 1
10
80.718453
20
138.085869
11
79.927492
21
138.793354
0
LINE
8
Layer 1
10
79.927492
20
138.793354
11
79.101784
21
139.502696
0
LINE
8
Layer 1
10
79.101784
20
139.502696
11
75.594154
21
142.331406
0
LINE
8
Layer 1
10
75.594154
20
142.331406
11
71.939244
21
145.236166
0
LINE
8
Layer 1
10
71.939244
20
145.236166
11
65.245824
21
150.438366
0
LINE
8
Layer 1
10
65.245824
20
150.438366
11
65.241743
21
151.046179
0
LINE
8
Layer 1
10
65.241743
20
151.046179
11
65.237973
21
152.559089
0
LINE
8
Layer 1
10
65.237973
20
152.559089
11
65.216270
21
155.547079
0
LINE
8
Layer 1
10
65.216270
20
155.547079
11
65.232718
21
156.300197
0
LINE
8
Layer 1
10
65.232718
20
156.300197
11
65.250091
21
156.884143
0
LINE
8
Layer 1
10
65.250091
20
156.884143
11
65.244588
21
157.873709
0
LINE
8
Layer 1
10
65.244588
20
157.873709
11
65.256026
21
159.563959
0
LINE
8
Layer 1
10
65.256026
20
159.563959
11
65.266229
21
160.052928
0
LINE
8
Layer 1
10
65.266229
20
160.052928
11
65.407888
21
159.254178
0
LINE
8
Layer 1
10
65.407888
20
159.254178
11
65.442576
21
160.354428
0
LINE
8
Layer 1
10
65.442576
20
160.354428
11
65.478378
21
161.635718
0
LINE
8
Layer 1
10
65.478378
20
161.635718
11
65.396511
21
161.608511
0
LINE
8
Layer 1
10
65.396511
20
161.608511
11
65.377653
21
162.050736
0
LINE
8
Layer 1
10
65.377653
20
162.050736
11
65.409186
21
163.225926
0
LINE
8
Layer 1
10
65.409186
20
163.225926
11
65.463415
21
165.236226
0
LINE
8
Layer 1
10
65.463415
20
165.236226
11
65.451542
21
165.900800
0
LINE
8
Layer 1
10
65.451542
20
165.900800
11
65.584728
21
168.858610
0
LINE
8
Layer 1
10
65.584728
20
168.858610
11
65.670676
21
170.632950
0
LINE
8
Layer 1
10
65.670676
20
170.632950
11
65.707836
21
171.793420
0
LINE
8
Layer 1
10
65.707836
20
171.793420
11
65.705550
21
172.943130
0
LINE
8
Layer 1
10
65.705550
20
172.943130
11
65.638584
21
173.830794
0
LINE
8
Layer 1
10
65.638584
20
173.830794
11
65.713836
21
174.466680
0
LINE
8
Layer 1
10
65.713836
20
174.466680
11
65.785128
21
175.262586
0
LINE
8
Layer 1
10
65.785128
20
175.262586
11
65.950468
21
177.406066
0
LINE
8
Layer 1
10
65.950468
20
177.406066
11
66.002397
21
178.396496
0
LINE
8
Layer 1
10
66.002397
20
178.396496
11
66.010127
21
180.084146
0
LINE
8
Layer 1
10
66.010127
20
180.084146
11
66.040766
21
180.921406
0
LINE
8
Layer 1
10
66.040766
20
180.921406
11
66.140231
21
181.730376
0
LINE
8
Layer 1
10
66.140231
20
181.730376
11
66.172816
21
182.238376
0
LINE
8
Layer 1
10
66.172816
20
182.238376
11
66.323624
21
185.983566
0
LINE
8
Layer 1
10
66.323624
20
185.983566
11
66.421544
21
187.864030
0
LINE
8
Layer 1
10
66.421544
20
187.864030
11
66.455885
21
189.752376
0
LINE
8
Layer 1
10
66.455885
20
189.752376
11
66.507329
21
190.249369
0
LINE
8
Layer 1
10
66.507329
20
190.249369
11
66.696909
21
193.501379
0
LINE
8
Layer 1
10
66.696909
20
193.501379
11
66.714158
21
194.188590
0
LINE
8
Layer 1
10
66.714158
20
194.188590
11
67.199729
21
201.032320
0
LINE
8
Layer 1
10
67.199729
20
201.032320
11
67.711516
21
208.240860
0
LINE
8
Layer 1
10
67.711516
20
208.240860
11
68.215943
21
215.804820
0
LINE
8
Layer 1
10
68.215943
20
215.804820
11
68.332622
21
217.697140
0
LINE
8
Layer 1
10
68.332622
20
217.697140
11
68.932953
21
226.813580
0
LINE
8
Layer 1
10
68.932953
20
226.813580
11
69.495009
21
240.149580
0
LINE
8
Layer 1
10
69.495009
20
240.149580
11
70.413961
21
239.422923
0
LINE
8
Layer 1
10
70.413961
20
239.422923
11
71.101352
21
238.897843
0
LINE
8
Layer 1
10
71.101352
20
238.897843
11
73.565862
21
237.002803
0
LINE
8
Layer 1
10
73.565862
20
237.002803
11
75.076802
21
235.821803
0
LINE
8
Layer 1
10
75.076802
20
235.821803
11
76.713632
21
234.536183
0
LINE
8
Layer 1
10
76.713632
20
234.536183
11
79.026842
21
232.700133
0
LINE
8
Layer 1
10
79.026842
20
232.700133
11
79.249797
21
232.525644
0
LINE
8
Layer 1
10
79.249797
20
232.525644
11
79.583508
21
232.274108
0
LINE
8
Layer 1
10
79.583508
20
232.274108
11
80.647398
21
231.409693
0
LINE
8
Layer 1
10
80.647398
20
231.409693
11
80.975419
21
231.145914
0
LINE
8
Layer 1
10
80.975419
20
231.145914
11
80.429624
21
231.599270
0
LINE
8
Layer 1
10
80.429624
20
231.599270
11
78.308774
21
233.356920
0
LINE
8
Layer 1
10
78.308774
20
233.356920
11
76.830114
21
234.577120
0
LINE
8
Layer 1
10
76.830114
20
234.577120
11
75.639534
21
235.560130
0
LINE
8
Layer 1
10
75.639534
20
235.560130
11
73.278954
21
237.490410
0
LINE
8
Layer 1
10
73.278954
20
237.490410
11
72.697977
21
237.993852
0
LINE
8
Layer 1
10
72.697977
20
237.993852
11
72.250432
21
238.387724
0
LINE
8
Layer 1
10
72.250432
20
238.387724
11
71.469738
21
239.028306
0
LINE
8
Layer 1
10
71.469738
20
239.028306
11
70.149508
21
240.138696
0
LINE
8
Layer 1
10
70.149508
20
240.138696
11
69.772084
21
240.465046
0
LINE
8
Layer 1
10
69.772084
20
240.465046
11
70.489834
21
240.053614
0
LINE
8
Layer 1
10
70.489834
20
240.053614
11
69.647799
21
240.797334
0
LINE
8
Layer 1
10
69.647799
20
240.797334
11
69.521601
21
240.916432
0
LINE
8
Layer 1
10
69.521601
20
240.916432
11
69.557771
21
241.960282
0
LINE
8
Layer 1
10
69.557771
20
241.960282
11
69.611751
21
251.070542
0
LINE
8
Layer 1
10
69.611751
20
251.070542
11
69.486851
21
259.830212
0
LINE
8
Layer 1
10
69.486851
20
259.830212
11
69.429162
21
268.599282
0
LINE
8
Layer 1
10
69.429162
20
268.599282
11
69.599508
21
274.103482
0
LINE
8
Layer 1
10
69.599508
20
274.103482
11
69.774175
21
278.049822
0
LINE
8
Layer 1
10
69.774175
20
278.049822
11
69.580464
21
281.995272
0
LINE
8
Layer 1
10
69.580464
20
281.995272
11
69.413270
21
282.952809
0
LINE
8
Layer 1
10
69.413270
20
282.952809
11
73.488460
21
286.100569
0
LINE
8
Layer 1
10
73.488460
20
286.100569
11
75.014050
21
287.288859
0
LINE
8
Layer 1
10
75.014050
20
287.288859
11
77.879300
21
289.615739
0
LINE
8
Layer 1
10
77.879300
20
289.615739
11
79.383810
21
290.847919
0
LINE
8
Layer 1
10
79.383810
20
290.847919
11
80.579150
21
292.093839
0
LINE
8
Layer 1
10
80.579150
20
292.093839
11
81.770850
21
293.337039
0
LINE
8
Layer 1
10
81.770850
20
293.337039
11
82.365184
21
293.957589
0
LINE
8
Layer 1
10
82.365184
20
293.957589
11
82.661918
21
294.267491
0
LINE
8
Layer 1
10
82.661918
20
294.267491
11
82.810192
21
294.422445
0
LINE
8
Layer 1
10
82.810192
20
294.422445
11
82.836780
21
294.460904
0
LINE
8
Layer 1
10
82.836780
20
294.460904
11
82.795600
21
294.498000
0
LINE
8
Layer 1
10
77.645000
20
345.944000
11
77.702257
21
345.975781
0
LINE
8
Layer 1
10
77.702257
20
345.975781
11
77.669548
21
345.949193
0
LINE
8
Layer 1
10
77.669548
20
345.949193
11
77.495677
21
345.833200
0
LINE
8
Layer 1
10
77.495677
20
345.833200
11
77.645000
21
345.944000
0
LINE
8
Layer 1
10
77.645000
20
345.944000
11
77.645000
21
345.944000
0
LINE
8
Layer 1
10
74.681250
20
344.134670
11
74.771959
21
344.192667
0
LINE
8
Layer 1
10
74.771959
20
344.192667
11
74.769176
21
344.180424
0
LINE
8
Layer 1
10
74.769176
20
344.180424
11
74.676737
21
344.122303
0
LINE
8
Layer 1
10
74.676737
20
344.122303
11
74.681200
21
344.135000
0
LINE
8
Layer 1
10
74.681200
20
344.135000
11
74.681250
21
344.134670
0
LINE
8
Layer 1
10
73.123630
20
343.181460
11
73.309188
21
343.336535
0
LINE
8
Layer 1
10
73.309188
20
343.336535
11
73.671843
21
343.499154
0
LINE
8
Layer 1
10
73.671843
20
343.499154
11
73.692248
21
343.495694
0
LINE
8
Layer 1
10
73.692248
20
343.495694
11
73.640494
21
343.439425
0
LINE
8
Layer 1
10
73.640494
20
343.439425
11
73.588864
21
343.405293
0
LINE
8
Layer 1
10
73.588864
20
343.405293
11
73.267831
21
343.208048
0
LINE
8
Layer 1
10
73.267831
20
343.208048
11
73.104904
21
343.133106
0
LINE
8
Layer 1
10
73.104904
20
343.133106
11
73.123600
21
343.181000
0
LINE
8
Layer 1
10
73.123600
20
343.181000
11
73.123630
21
343.181460
0
LINE
8
Layer 1
10
71.608300
20
342.360945
11
71.899220
21
342.553367
0
LINE
8
Layer 1
10
71.899220
20
342.553367
11
72.173201
21
342.699911
0
LINE
8
Layer 1
10
72.173201
20
342.699911
11
72.216793
21
342.689771
0
LINE
8
Layer 1
10
72.216793
20
342.689771
11
72.188534
21
342.657990
0
LINE
8
Layer 1
10
72.188534
20
342.657990
11
71.624067
21
342.315313
0
LINE
8
Layer 1
10
71.624067
20
342.315313
11
71.590739
21
342.311108
0
LINE
8
Layer 1
10
71.590739
20
342.311108
11
71.608300
21
342.361000
0
LINE
8
Layer 1
10
71.608300
20
342.361000
11
71.608300
21
342.360945
0
LINE
8
Layer 1
10
77.506990
20
369.603445
11
77.564247
21
369.635229
0
LINE
8
Layer 1
10
77.564247
20
369.635229
11
77.531538
21
369.608765
0
LINE
8
Layer 1
10
77.531538
20
369.608765
11
77.357667
21
369.492642
0
LINE
8
Layer 1
10
77.357667
20
369.492642
11
77.507000
21
369.603000
0
LINE
8
Layer 1
10
77.507000
20
369.603000
11
77.506990
21
369.603445
0
LINE
8
Layer 1
10
74.543240
20
367.794115
11
74.633946
21
367.852114
0
LINE
8
Layer 1
10
74.633946
20
367.852114
11
74.631166
21
367.839872
0
LINE
8
Layer 1
10
74.631166
20
367.839872
11
74.538725
21
367.781751
0
LINE
8
Layer 1
10
74.538725
20
367.781751
11
74.543200
21
367.794000
0
LINE
8
Layer 1
10
74.543200
20
367.794000
11
74.543240
21
367.794115
0
LINE
8
Layer 1
10
72.985620
20
366.840907
11
73.171178
21
366.995982
0
LINE
8
Layer 1
10
73.171178
20
366.995982
11
73.533833
21
367.158601
0
LINE
8
Layer 1
10
73.533833
20
367.158601
11
73.554238
21
367.155138
0
LINE
8
Layer 1
10
73.554238
20
367.155138
11
73.502484
21
367.098872
0
LINE
8
Layer 1
10
73.502484
20
367.098872
11
73.450854
21
367.064740
0
LINE
8
Layer 1
10
73.450854
20
367.064740
11
73.129821
21
366.867495
0
LINE
8
Layer 1
10
73.129821
20
366.867495
11
72.966891
21
366.792553
0
LINE
8
Layer 1
10
72.966891
20
366.792553
11
72.985600
21
366.841000
0
LINE
8
Layer 1
10
72.985600
20
366.841000
11
72.985620
21
366.840907
0
LINE
8
Layer 1
10
71.470290
20
366.020392
11
71.761210
21
366.212814
0
LINE
8
Layer 1
10
71.761210
20
366.212814
11
72.035191
21
366.359358
0
LINE
8
Layer 1
10
72.035191
20
366.359358
11
72.078783
21
366.349342
0
LINE
8
Layer 1
10
72.078783
20
366.349342
11
72.050524
21
366.317451
0
LINE
8
Layer 1
10
72.050524
20
366.317451
11
71.486057
21
365.974774
0
LINE
8
Layer 1
10
71.486057
20
365.974774
11
71.452729
21
365.970569
0
LINE
8
Layer 1
10
71.452729
20
365.970569
11
71.470300
21
366.020000
0
LINE
8
Layer 1
10
71.470300
20
366.020000
11
71.470290
21
366.020392
0
LINE
8
Layer 1
10
14.326800
20
180.972000
11
14.300336
21
181.113721
0
LINE
8
Layer 1
10
14.300336
20
181.113721
11
14.295081
21
181.820588
0
LINE
8
Layer 1
10
14.295081
20
181.820588
11
14.359710
21
181.192867
0
LINE
8
Layer 1
10
14.359710
20
181.192867
11
14.326800
21
180.972000
0
LINE
8
Layer 1
10
14.326800
20
180.972000
11
14.326800
21
180.972000
0
LINE
8
Layer 1
10
75.775800
20
51.043400
11
75.825392
21
50.998137
0
LINE
8
Layer 1
10
75.825392
20
50.998137
11
75.789095
21
51.021387
0
LINE
8
Layer 1
10
75.789095
20
51.021387
11
75.619982
21
51.152471
0
LINE
8
Layer 1
10
75.619982
20
51.152471
11
75.775800
21
51.043400
0
LINE
8
Layer 1
10
75.775800
20
51.043400
11
75.775800
21
51.043400
0
LINE
8
Layer 1
10
73.054930
20
53.330210
11
73.140630
21
53.260958
0
LINE
8
Layer 1
10
73.140630
20
53.260958
11
73.128017
21
53.259968
0
LINE
8
Layer 1
10
73.128017
20
53.259968
11
73.041575
21
53.330704
0
LINE
8
Layer 1
10
73.041575
20
53.330704
11
73.054900
21
53.330200
0
LINE
8
Layer 1
10
73.054900
20
53.330200
11
73.054930
21
53.330210
0
LINE
8
Layer 1
10
71.570020
20
54.534210
11
71.622640
21
54.531241
0
LINE
8
Layer 1
10
71.622640
20
54.531241
11
71.833056
21
54.400897
0
LINE
8
Layer 1
10
71.833056
20
54.400897
11
72.109693
21
54.102871
0
LINE
8
Layer 1
10
72.109693
20
54.102871
11
72.113094
21
54.082345
0
LINE
8
Layer 1
10
72.113094
20
54.082345
11
72.042050
21
54.114744
0
LINE
8
Layer 1
10
72.042050
20
54.114744
11
71.992027
21
54.153575
0
LINE
8
Layer 1
10
71.992027
20
54.153575
11
71.696160
21
54.400903
0
LINE
8
Layer 1
10
71.696160
20
54.400903
11
71.570000
21
54.534200
0
LINE
8
Layer 1
10
71.570000
20
54.534200
11
71.570020
21
54.534210
0
LINE
8
Layer 1
10
70.331700
20
55.732770
11
70.612977
21
55.512894
0
LINE
8
Layer 1
10
70.612977
20
55.512894
11
70.844662
21
55.295244
0
LINE
8
Layer 1
10
70.844662
20
55.295244
11
70.849485
21
55.250230
0
LINE
8
Layer 1
10
70.849485
20
55.250230
11
70.809604
21
55.267544
0
LINE
8
Layer 1
10
70.809604
20
55.267544
11
70.293180
21
55.703577
0
LINE
8
Layer 1
10
70.293180
20
55.703577
11
70.278093
21
55.734246
0
LINE
8
Layer 1
10
70.278093
20
55.734246
11
70.331700
21
55.732800
0
LINE
8
Layer 1
10
70.331700
20
55.732800
11
70.331700
21
55.732770
0
LINE
8
Layer 1
10
72.966810
20
79.381670
11
73.114466
21
79.245269
0
LINE
8
Layer 1
10
73.114466
20
79.245269
11
73.010399
21
79.321446
0
LINE
8
Layer 1
10
73.010399
20
79.321446
11
72.516228
21
79.731396
0
LINE
8
Layer 1
10
72.516228
20
79.731396
11
72.966800
21
79.381700
0
LINE
8
Layer 1
10
72.966800
20
79.381700
11
72.966810
21
79.381670
0
LINE
8
Layer 1
10
64.943000
20
86.400600
11
65.194722
21
86.186289
0
LINE
8
Layer 1
10
65.194722
20
86.186289
11
65.162382
21
86.190742
0
LINE
8
Layer 1
10
65.162382
20
86.190742
11
64.908190
21
86.409379
0
LINE
8
Layer 1
10
64.908190
20
86.409379
11
64.943000
21
86.400600
0
LINE
8
Layer 1
10
64.943000
20
86.400600
11
64.943000
21
86.400600
0
LINE
8
Layer 1
10
60.582460
20
90.125880
11
60.720467
21
90.089028
0
LINE
8
Layer 1
10
60.720467
20
90.089028
11
61.321541
21
89.657931
0
LINE
8
Layer 1
10
61.321541
20
89.657931
11
62.164564
21
88.787208
0
LINE
8
Layer 1
10
62.164564
20
88.787208
11
62.182062
21
88.735764
0
LINE
8
Layer 1
10
62.182062
20
88.735764
11
61.983889
21
88.853369
0
LINE
8
Layer 1
10
61.983889
20
88.853369
11
61.837780
21
88.975179
0
LINE
8
Layer 1
10
61.837780
20
88.975179
11
60.965756
21
89.735098
0
LINE
8
Layer 1
10
60.965756
20
89.735098
11
60.582400
21
90.125900
0
LINE
8
Layer 1
10
60.582400
20
90.125900
11
60.582460
21
90.125880
0
LINE
8
Layer 1
10
56.725050
20
93.732560
11
56.865100
21
93.698925
0
LINE
8
Layer 1
10
56.865100
20
93.698925
11
57.687656
21
93.012843
0
LINE
8
Layer 1
10
57.687656
20
93.012843
11
58.380551
21
92.359781
0
LINE
8
Layer 1
10
58.380551
20
92.359781
11
58.411776
21
92.249223
0
LINE
8
Layer 1
10
58.411776
20
92.249223
11
58.300863
21
92.313157
0
LINE
8
Layer 1
10
58.300863
20
92.313157
11
56.777123
21
93.650347
0
LINE
8
Layer 1
10
56.777123
20
93.650347
11
56.725000
21
93.732600
0
LINE
8
Layer 1
10
56.725000
20
93.732600
11
56.725050
21
93.732560
0
LINE
8
Layer 1
10
72.869850
20
237.641560
11
73.019298
21
237.505405
0
LINE
8
Layer 1
10
73.019298
20
237.505405
11
72.914184
21
237.581323
0
LINE
8
Layer 1
10
72.914184
20
237.581323
11
72.414332
21
237.990528
0
LINE
8
Layer 1
10
72.414332
20
237.990528
11
72.869800
21
237.642000
0
LINE
8
Layer 1
10
72.869800
20
237.642000
11
72.869850
21
237.641560
0
LINE
8
Layer 1
10
65.071200
20
155.950000
11
65.061864
21
155.752137
0
LINE
8
Layer 1
10
65.061864
20
155.752137
11
65.053206
21
155.878891
0
LINE
8
Layer 1
10
65.053206
20
155.878891
11
65.048941
21
156.511932
0
LINE
8
Layer 1
10
65.048941
20
156.511932
11
65.071200
21
155.950000
0
LINE
8
Layer 1
10
65.071200
20
155.950000
11
65.071200
21
155.950000
0
LINE
8
Layer 1
10
61.224900
20
247.574000
11
60.727890
21
247.978630
0
LINE
8
Layer 1
10
60.727890
20
247.978630
11
60.339521
21
248.369039
0
LINE
8
Layer 1
10
60.339521
20
248.369039
11
60.478335
21
248.332559
0
LINE
8
Layer 1
10
60.478335
20
248.332559
11
61.085651
21
247.902453
0
LINE
8
Layer 1
10
61.085651
20
247.902453
11
61.227990
21
247.746884
0
LINE
8
Layer 1
10
61.227990
20
247.746884
11
61.224900
21
247.574000
0
LINE
8
Layer 1
10
61.224900
20
247.574000
11
61.224900
21
247.574000
0
LINE
8
Layer 1
10
62.415230
20
275.497400
11
61.955321
21
266.933120
0
LINE
8
Layer 1
10
61.955321
20
266.933120
11
61.478532
21
257.161500
0
LINE
8
Layer 1
10
61.478532
20
257.161500
11
61.277327
21
250.471850
0
LINE
8
Layer 1
10
61.277327
20
250.471850
11
61.233797
21
248.067320
0
LINE
8
Layer 1
10
61.233797
20
248.067320
11
60.833186
21
248.455502
0
LINE
8
Layer 1
10
60.833186
20
248.455502
11
59.928763
21
249.202933
0
LINE
8
Layer 1
10
59.928763
20
249.202933
11
59.188879
21
249.729867
0
LINE
8
Layer 1
10
59.188879
20
249.729867
11
58.737502
21
250.202267
0
LINE
8
Layer 1
10
58.737502
20
250.202267
11
58.157886
21
250.775700
0
LINE
8
Layer 1
10
58.157886
20
250.775700
11
56.579986
21
252.299750
0
LINE
8
Layer 1
10
56.579986
20
252.299750
11
55.835400
21
252.985098
0
LINE
8
Layer 1
10
55.835400
20
252.985098
11
54.514780
21
254.090788
0
LINE
8
Layer 1
10
54.514780
20
254.090788
11
53.876832
21
254.659908
0
LINE
8
Layer 1
10
53.876832
20
254.659908
11
53.304970
21
255.263628
0
LINE
8
Layer 1
10
53.304970
20
255.263628
11
52.926863
21
255.619792
0
LINE
8
Layer 1
10
52.926863
20
255.619792
11
50.081713
21
258.176312
0
LINE
8
Layer 1
10
50.081713
20
258.176312
11
48.667304
21
259.477067
0
LINE
8
Layer 1
10
48.667304
20
259.477067
11
47.206193
21
260.733952
0
LINE
8
Layer 1
10
47.206193
20
260.733952
11
46.848742
21
261.097524
0
LINE
8
Layer 1
10
46.848742
20
261.097524
11
44.435672
21
263.344884
0
LINE
8
Layer 1
10
44.435672
20
263.344884
11
44.435302
21
264.446244
0
LINE
8
Layer 1
10
44.435302
20
264.446244
11
44.743102
21
264.671810
0
LINE
8
Layer 1
10
44.743102
20
264.671810
11
46.156962
21
265.705280
0
LINE
8
Layer 1
10
46.156962
20
265.705280
11
52.104512
21
270.064710
0
LINE
8
Layer 1
10
52.104512
20
270.064710
11
58.324232
21
274.664050
0
LINE
8
Layer 1
10
58.324232
20
274.664050
11
59.874242
21
275.822050
0
LINE
8
Layer 1
10
59.874242
20
275.822050
11
62.589422
21
277.768410
0
LINE
8
Layer 1
10
62.589422
20
277.768410
11
62.415200
21
275.497000
0
LINE
8
Layer 1
10
62.415200
20
275.497000
11
62.415230
21
275.497400
0
LINE
8
Layer 1
10
58.140940
20
250.490000
11
58.029084
21
250.553689
0
LINE
8
Layer 1
10
58.029084
20
250.553689
11
56.487174
21
251.888879
0
LINE
8
Layer 1
10
56.487174
20
251.888879
11
56.434184
21
251.971006
0
LINE
8
Layer 1
10
56.434184
20
251.971006
11
56.575100
21
251.937861
0
LINE
8
Layer 1
10
56.575100
20
251.937861
11
57.407054
21
251.253007
0
LINE
8
Layer 1
10
57.407054
20
251.253007
11
58.108542
21
250.600676
0
LINE
8
Layer 1
10
58.108542
20
250.600676
11
58.140900
21
250.490000
0
LINE
8
Layer 1
10
58.140900
20
250.490000
11
58.140940
21
250.490000
0
LINE
8
Layer 1
10
41.329940
20
78.520000
11
41.310340
21
79.031104
0
LINE
8
Layer 1
10
41.310340
20
79.031104
11
41.325937
21
80.218349
0
LINE
8
Layer 1
10
41.325937
20
80.218349
11
41.446063
21
80.628724
0
LINE
8
Layer 1
10
41.446063
20
80.628724
11
41.605518
21
80.249322
0
LINE
8
Layer 1
10
41.605518
20
80.249322
11
41.775495
21
79.071042
0
LINE
8
Layer 1
10
41.775495
20
79.071042
11
41.330000
21
78.520200
0
LINE
8
Layer 1
10
41.330000
20
78.520200
11
41.329940
21
78.520000
0
LINE
8
Layer 1
10
18.794000
20
277.068000
11
18.894417
21
277.207618
0
LINE
8
Layer 1
10
18.894417
20
277.207618
11
19.008311
21
276.857646
0
LINE
8
Layer 1
10
19.008311
20
276.857646
11
19.051409
21
276.759952
0
LINE
8
Layer 1
10
19.051409
20
276.759952
11
19.063158
21
276.735094
0
LINE
8
Layer 1
10
19.063158
20
276.735094
11
19.069217
21
276.722606
0
LINE
8
Layer 1
10
19.069217
20
276.722606
11
19.072246
21
276.716298
0
LINE
8
Layer 1
10
19.072246
20
276.716298
11
19.099948
21
276.697996
0
LINE
8
Layer 1
10
19.099948
20
276.697996
11
19.313268
21
276.561841
0
LINE
8
Layer 1
10
19.313268
20
276.561841
11
19.052893
21
276.543166
0
LINE
8
Layer 1
10
19.052893
20
276.543166
11
18.997615
21
276.584224
0
LINE
8
Layer 1
10
18.997615
20
276.584224
11
18.954765
21
276.647047
0
LINE
8
Layer 1
10
18.954765
20
276.647047
11
18.866407
21
276.794330
0
LINE
8
Layer 1
10
18.866407
20
276.794330
11
18.777789
21
276.969934
0
LINE
8
Layer 1
10
18.777789
20
276.969934
11
18.794000
21
277.068000
0
LINE
8
Layer 1
10
18.794000
20
277.068000
11
18.794000
21
277.068000
0
LINE
8
Layer 1
10
15.820230
20
204.939000
11
15.891768
21
205.040778
0
LINE
8
Layer 1
10
15.891768
20
205.040778
11
16.050679
21
204.898315
0
LINE
8
Layer 1
10
16.050679
20
204.898315
11
16.070835
21
203.719175
0
LINE
8
Layer 1
10
16.070835
20
203.719175
11
15.943152
21
202.673095
0
LINE
8
Layer 1
10
15.943152
20
202.673095
11
15.781275
21
202.568969
0
LINE
8
Layer 1
10
15.781275
20
202.568969
11
15.724328
21
202.707969
0
LINE
8
Layer 1
10
15.724328
20
202.707969
11
15.820230
21
204.939000
0
LINE
8
Layer 1
10
15.004103
20
197.365150
11
15.062596
21
198.638150
0
LINE
8
Layer 1
10
15.062596
20
198.638150
11
15.080304
21
199.083888
0
LINE
8
Layer 1
10
15.080304
20
199.083888
11
15.201472
21
199.237553
0
LINE
8
Layer 1
10
15.201472
20
199.237553
11
15.359638
21
199.094596
0
LINE
8
Layer 1
10
15.359638
20
199.094596
11
15.512620
21
198.702756
0
LINE
8
Layer 1
10
15.512620
20
198.702756
11
15.510325
21
198.282118
0
LINE
8
Layer 1
10
15.510325
20
198.282118
11
15.180944
21
196.956058
0
LINE
8
Layer 1
10
15.180944
20
196.956058
11
15.105571
21
196.905108
0
LINE
8
Layer 1
10
15.105571
20
196.905108
11
15.005589
21
197.155778
0
LINE
8
Layer 1
10
15.005589
20
197.155778
11
15.004100
21
197.365000
0
LINE
8
Layer 1
10
15.004100
20
197.365000
11
15.004103
21
197.365150
0
LINE
8
Layer 1
10
15.066553
20
192.924470
11
15.059565
21
192.560525
0
LINE
8
Layer 1
10
15.059565
20
192.560525
11
15.010780
21
192.591070
0
LINE
8
Layer 1
10
15.010780
20
192.591070
11
15.022351
21
192.960087
0
LINE
8
Layer 1
10
15.022351
20
192.960087
11
15.066500
21
192.925000
0
LINE
8
Layer 1
10
15.066500
20
192.925000
11
15.066553
21
192.924470
0
LINE
8
Layer 1
10
14.901100
20
173.617000
11
14.891146
21
175.714730
0
LINE
8
Layer 1
10
14.891146
20
175.714730
11
14.885025
21
177.404240
0
LINE
8
Layer 1
10
14.885025
20
177.404240
11
14.924303
21
179.080641
0
LINE
8
Layer 1
10
14.924303
20
179.080641
11
14.827705
21
180.741090
0
LINE
8
Layer 1
10
14.827705
20
180.741090
11
14.885087
21
181.581886
0
LINE
8
Layer 1
10
14.885087
20
181.581886
11
14.943456
21
182.233847
0
LINE
8
Layer 1
10
14.943456
20
182.233847
11
14.930039
21
183.338917
0
LINE
8
Layer 1
10
14.930039
20
183.338917
11
14.972271
21
185.226417
0
LINE
8
Layer 1
10
14.972271
20
185.226417
11
15.005164
21
185.772150
0
LINE
8
Layer 1
10
15.005164
20
185.772150
11
15.234239
21
185.342817
0
LINE
8
Layer 1
10
15.234239
20
185.342817
11
15.440587
21
184.878796
0
LINE
8
Layer 1
10
15.440587
20
184.878796
11
15.542983
21
186.107156
0
LINE
8
Layer 1
10
15.542983
20
186.107156
11
15.644758
21
187.537586
0
LINE
8
Layer 1
10
15.644758
20
187.537586
11
15.400026
21
187.507908
0
LINE
8
Layer 1
10
15.400026
20
187.507908
11
15.343079
21
188.001949
0
LINE
8
Layer 1
10
15.343079
20
188.001949
11
15.434344
21
189.314029
0
LINE
8
Layer 1
10
15.434344
20
189.314029
11
15.495047
21
190.438681
0
LINE
8
Layer 1
10
15.495047
20
190.438681
11
15.584596
21
191.558419
0
LINE
8
Layer 1
10
15.584596
20
191.558419
11
15.548362
21
192.300779
0
LINE
8
Layer 1
10
15.548362
20
192.300779
11
15.623258
21
193.962481
0
LINE
8
Layer 1
10
15.623258
20
193.962481
11
15.901117
21
195.602499
0
LINE
8
Layer 1
10
15.901117
20
195.602499
11
16.127225
21
196.579988
0
LINE
8
Layer 1
10
16.127225
20
196.579988
11
16.117220
21
197.583239
0
LINE
8
Layer 1
10
16.117220
20
197.583239
11
16.202611
21
198.878749
0
LINE
8
Layer 1
10
16.202611
20
198.878749
11
16.274398
21
199.521813
0
LINE
8
Layer 1
10
16.274398
20
199.521813
11
16.184803
21
200.162639
0
LINE
8
Layer 1
10
16.184803
20
200.162639
11
16.003633
21
201.154553
0
LINE
8
Layer 1
10
16.003633
20
201.154553
11
16.189253
21
201.864017
0
LINE
8
Layer 1
10
16.189253
20
201.864017
11
16.360280
21
202.752302
0
LINE
8
Layer 1
10
16.360280
20
202.752302
11
16.448886
21
203.964307
0
LINE
8
Layer 1
10
16.448886
20
203.964307
11
16.738260
21
205.144592
0
LINE
8
Layer 1
10
16.738260
20
205.144592
11
16.847762
21
206.250152
0
LINE
8
Layer 1
10
16.847762
20
206.250152
11
16.834075
21
207.190546
0
LINE
8
Layer 1
10
16.834075
20
207.190546
11
16.834901
21
208.134922
0
LINE
8
Layer 1
10
16.834901
20
208.134922
11
16.891726
21
209.069674
0
LINE
8
Layer 1
10
16.891726
20
209.069674
11
17.108634
21
209.972332
0
LINE
8
Layer 1
10
17.108634
20
209.972332
11
17.172879
21
210.539336
0
LINE
8
Layer 1
10
17.172879
20
210.539336
11
17.255070
21
212.634694
0
LINE
8
Layer 1
10
17.255070
20
212.634694
11
17.424164
21
214.720686
0
LINE
8
Layer 1
10
17.424164
20
214.720686
11
17.588592
21
216.820127
0
LINE
8
Layer 1
10
17.588592
20
216.820127
11
17.609908
21
218.928756
0
LINE
8
Layer 1
10
17.609908
20
218.928756
11
17.703956
21
219.483393
0
LINE
8
Layer 1
10
17.703956
20
219.483393
11
17.993457
21
223.113943
0
LINE
8
Layer 1
10
17.993457
20
223.113943
11
18.005824
21
223.881282
0
LINE
8
Layer 1
10
18.005824
20
223.881282
11
18.676705
21
231.521412
0
LINE
8
Layer 1
10
18.676705
20
231.521412
11
19.233247
21
239.569252
0
LINE
8
Layer 1
10
19.233247
20
239.569252
11
19.612960
21
248.014692
0
LINE
8
Layer 1
10
19.612960
20
248.014692
11
19.669102
21
250.127752
0
LINE
8
Layer 1
10
19.669102
20
250.127752
11
19.882252
21
255.213733
0
LINE
8
Layer 1
10
19.882252
20
255.213733
11
19.887000
21
260.307252
0
LINE
8
Layer 1
10
19.887000
20
260.307252
11
19.737922
21
268.765422
0
LINE
8
Layer 1
10
19.737922
20
268.765422
11
19.606528
21
272.994522
0
LINE
8
Layer 1
10
19.606528
20
272.994522
11
19.525220
21
275.108942
0
LINE
8
Layer 1
10
19.525220
20
275.108942
11
19.480020
21
276.166032
0
LINE
8
Layer 1
10
19.480020
20
276.166032
11
19.468581
21
276.430305
0
LINE
8
Layer 1
10
19.468581
20
276.430305
11
19.467170
21
276.463446
0
LINE
8
Layer 1
10
19.467170
20
276.463446
11
20.393000
21
275.873000
0
LINE
8
Layer 1
10
20.393000
20
275.873000
11
24.531440
21
273.231150
0
LINE
8
Layer 1
10
24.531440
20
273.231150
11
32.783530
21
267.898110
0
LINE
8
Layer 1
10
32.783530
20
267.898110
11
37.931820
21
264.509820
0
LINE
8
Layer 1
10
37.931820
20
264.509820
11
38.095368
21
264.401986
0
LINE
8
Layer 1
10
38.095368
20
264.401986
11
38.068100
21
259.019476
0
LINE
8
Layer 1
10
38.068100
20
259.019476
11
38.093759
21
207.820276
0
LINE
8
Layer 1
10
38.093759
20
207.820276
11
38.130180
21
204.244266
0
LINE
8
Layer 1
10
38.130180
20
204.244266
11
38.205739
21
196.065816
0
LINE
8
Layer 1
10
38.205739
20
196.065816
11
38.234551
21
184.380016
0
LINE
8
Layer 1
10
38.234551
20
184.380016
11
35.920471
21
182.979386
0
LINE
8
Layer 1
10
35.920471
20
182.979386
11
31.423211
21
180.333576
0
LINE
8
Layer 1
10
31.423211
20
180.333576
11
26.206471
21
177.421766
0
LINE
8
Layer 1
10
26.206471
20
177.421766
11
22.637571
21
175.425196
0
LINE
8
Layer 1
10
22.637571
20
175.425196
11
20.451861
21
174.181376
0
LINE
8
Layer 1
10
20.451861
20
174.181376
11
17.568001
21
172.483956
0
LINE
8
Layer 1
10
17.568001
20
172.483956
11
15.290901
21
171.012346
0
LINE
8
Layer 1
10
15.290901
20
171.012346
11
14.894927
21
170.762170
0
LINE
8
Layer 1
10
14.894927
20
170.762170
11
14.901100
21
173.617000
0
LINE
8
Layer 1
10
14.901100
20
173.617000
11
14.901100
21
173.617000
0
LINE
8
Layer 1
10
28.153900
20
144.617000
11
28.059545
21
144.621451
0
LINE
8
Layer 1
10
28.059545
20
144.621451
11
27.196488
21
145.466949
0
LINE
8
Layer 1
10
27.196488
20
145.466949
11
27.200382
21
145.556977
0
LINE
8
Layer 1
10
27.200382
20
145.556977
11
27.361827
21
145.629198
0
LINE
8
Layer 1
10
27.361827
20
145.629198
11
27.863657
21
145.236441
0
LINE
8
Layer 1
10
27.863657
20
145.236441
11
28.214990
21
144.776778
0
LINE
8
Layer 1
10
28.214990
20
144.776778
11
28.153900
21
144.617000
0
LINE
8
Layer 1
10
28.153900
20
144.617000
11
28.153900
21
144.617000
0
LINE
8
Layer 1
10
30.066440
20
142.139990
11
29.898134
21
142.150379
0
LINE
8
Layer 1
10
29.898134
20
142.150379
11
29.810332
21
142.221609
0
LINE
8
Layer 1
10
29.810332
20
142.221609
11
29.320310
21
142.706994
0
LINE
8
Layer 1
10
29.320310
20
142.706994
11
29.146961
21
142.874745
0
LINE
8
Layer 1
10
29.146961
20
142.874745
11
29.161337
21
143.020608
0
LINE
8
Layer 1
10
29.161337
20
143.020608
11
29.322534
21
143.092086
0
LINE
8
Layer 1
10
29.322534
20
143.092086
11
29.584356
21
143.073150
0
LINE
8
Layer 1
10
29.584356
20
143.073150
11
29.756352
21
142.926139
0
LINE
8
Layer 1
10
29.756352
20
142.926139
11
30.093890
21
142.215312
0
LINE
8
Layer 1
10
30.093890
20
142.215312
11
30.066400
21
142.140000
0
LINE
8
Layer 1
10
30.066400
20
142.140000
11
30.066440
21
142.139990
0
LINE
8
Layer 1
10
31.793730
20
140.574500
11
31.648239
21
140.711149
0
LINE
8
Layer 1
10
31.648239
20
140.711149
11
31.691521
21
140.732541
0
LINE
8
Layer 1
10
31.691521
20
140.732541
11
31.837879
21
140.601209
0
LINE
8
Layer 1
10
31.837879
20
140.601209
11
31.793700
21
140.575000
0
LINE
8
Layer 1
10
31.793700
20
140.575000
11
31.793730
21
140.574500
0
LINE
8
Layer 1
10
36.093990
20
136.059130
11
35.797567
21
136.299781
0
LINE
8
Layer 1
10
35.797567
20
136.299781
11
36.099432
21
136.131969
0
LINE
8
Layer 1
10
36.099432
20
136.131969
11
36.169798
21
136.030315
0
LINE
8
Layer 1
10
36.169798
20
136.030315
11
36.094000
21
136.059000
0
LINE
8
Layer 1
10
36.094000
20
136.059000
11
36.093990
21
136.059130
0
LINE
8
Layer 1
10
38.008380
20
135.222412
11
37.338781
21
135.832652
0
LINE
8
Layer 1
10
37.338781
20
135.832652
11
36.588210
21
136.333542
0
LINE
8
Layer 1
10
36.588210
20
136.333542
11
36.276637
21
136.668302
0
LINE
8
Layer 1
10
36.276637
20
136.668302
11
36.043962
21
136.938510
0
LINE
8
Layer 1
10
36.043962
20
136.938510
11
35.577249
21
137.310741
0
LINE
8
Layer 1
10
35.577249
20
137.310741
11
34.822023
21
137.996340
0
LINE
8
Layer 1
10
34.822023
20
137.996340
11
34.616927
21
138.210403
0
LINE
8
Layer 1
10
34.616927
20
138.210403
11
34.942520
21
138.236929
0
LINE
8
Layer 1
10
34.942520
20
138.236929
11
35.267835
21
138.234146
0
LINE
8
Layer 1
10
35.267835
20
138.234146
11
34.824622
21
138.737585
0
LINE
8
Layer 1
10
34.824622
20
138.737585
11
34.297191
21
139.310524
0
LINE
8
Layer 1
10
34.297191
20
139.310524
11
34.151759
21
139.113034
0
LINE
8
Layer 1
10
34.151759
20
139.113034
11
33.910304
21
139.240531
0
LINE
8
Layer 1
10
33.910304
20
139.240531
11
33.425164
21
139.764375
0
LINE
8
Layer 1
10
33.425164
20
139.764375
11
32.998057
21
140.199985
0
LINE
8
Layer 1
10
32.998057
20
140.199985
11
32.591539
21
140.655999
0
LINE
8
Layer 1
10
32.591539
20
140.655999
11
32.260493
21
140.885163
0
LINE
8
Layer 1
10
32.260493
20
140.885163
11
31.611400
21
141.528097
0
LINE
8
Layer 1
10
31.611400
20
141.528097
11
31.119003
21
142.297663
0
LINE
8
Layer 1
10
31.119003
20
142.297663
11
30.869489
21
142.796317
0
LINE
8
Layer 1
10
30.869489
20
142.796317
11
30.437177
21
143.148478
0
LINE
8
Layer 1
10
30.437177
20
143.148478
11
29.955142
21
143.662057
0
LINE
8
Layer 1
10
29.955142
20
143.662057
11
29.733352
21
143.940694
0
LINE
8
Layer 1
10
29.733352
20
143.940694
11
29.411388
21
144.092906
0
LINE
8
Layer 1
10
29.411388
20
144.092906
11
29.163354
21
144.128738
0
LINE
8
Layer 1
10
29.163354
20
144.128738
11
28.883464
21
144.297571
0
LINE
8
Layer 1
10
28.883464
20
144.297571
11
28.708972
21
144.685014
0
LINE
8
Layer 1
10
28.708972
20
144.685014
11
28.450945
21
145.123282
0
LINE
8
Layer 1
10
28.450945
20
145.123282
11
27.994739
21
145.626827
0
LINE
8
Layer 1
10
27.994739
20
145.626827
11
27.702712
21
146.240342
0
LINE
8
Layer 1
10
27.702712
20
146.240342
11
27.315024
21
146.706683
0
LINE
8
Layer 1
10
27.315024
20
146.706683
11
26.916374
21
147.021594
0
LINE
8
Layer 1
10
26.916374
20
147.021594
11
26.525423
21
147.349122
0
LINE
8
Layer 1
10
26.525423
20
147.349122
11
26.174513
21
147.716036
0
LINE
8
Layer 1
10
26.174513
20
147.716036
11
25.940055
21
148.194247
0
LINE
8
Layer 1
10
25.940055
20
148.194247
11
25.746397
21
148.439721
0
LINE
8
Layer 1
10
25.746397
20
148.439721
11
24.930751
21
149.227683
0
LINE
8
Layer 1
10
24.930751
20
149.227683
11
24.174927
21
150.078901
0
LINE
8
Layer 1
10
24.174927
20
150.078901
11
23.410563
21
150.931291
0
LINE
8
Layer 1
10
23.410563
20
150.931291
11
22.550157
21
151.677391
0
LINE
8
Layer 1
10
22.550157
20
151.677391
11
22.380798
21
151.941291
0
LINE
8
Layer 1
10
22.380798
20
151.941291
11
21.062288
21
153.419081
0
LINE
8
Layer 1
10
21.062288
20
153.419081
11
20.752197
21
153.694112
0
LINE
8
Layer 1
10
20.752197
20
153.694112
11
18.018597
21
156.853002
0
LINE
8
Layer 1
10
18.018597
20
156.853002
11
16.544837
21
158.474742
0
LINE
8
Layer 1
10
16.544837
20
158.474742
11
15.796974
21
159.273741
0
LINE
8
Layer 1
10
15.796974
20
159.273741
11
15.420168
21
159.670088
0
LINE
8
Layer 1
10
15.420168
20
159.670088
11
15.230588
21
159.866960
0
LINE
8
Layer 1
10
15.230588
20
159.866960
11
15.135677
21
159.965275
0
LINE
8
Layer 1
10
15.135677
20
159.965275
11
15.111747
21
159.966263
0
LINE
8
Layer 1
10
15.111747
20
159.966263
11
14.751386
21
159.897878
0
LINE
8
Layer 1
10
14.751386
20
159.897878
11
14.774266
21
160.055674
0
LINE
8
Layer 1
10
14.774266
20
160.055674
11
14.857803
21
160.103285
0
LINE
8
Layer 1
10
14.857803
20
160.103285
11
15.060921
21
160.116518
0
LINE
8
Layer 1
10
15.060921
20
160.116518
11
15.091283
21
160.115279
0
LINE
8
Layer 1
10
15.091283
20
160.115279
11
15.104082
21
160.114416
0
LINE
8
Layer 1
10
15.104082
20
160.114416
11
15.125723
21
160.101306
0
LINE
8
Layer 1
10
15.125723
20
160.101306
11
15.260765
21
159.977766
0
LINE
8
Layer 1
10
15.260765
20
159.977766
11
15.492325
21
159.729199
0
LINE
8
Layer 1
10
15.492325
20
159.729199
11
15.518914
21
159.698406
0
LINE
8
Layer 1
10
15.518914
20
159.698406
11
15.532147
21
159.683073
0
LINE
8
Layer 1
10
15.532147
20
159.683073
11
15.597380
21
159.736001
0
LINE
8
Layer 1
10
15.597380
20
159.736001
11
15.863075
21
159.954269
0
LINE
8
Layer 1
10
15.863075
20
159.954269
11
16.390813
21
160.395382
0
LINE
8
Layer 1
10
16.390813
20
160.395382
11
19.844030
21
163.389547
0
LINE
8
Layer 1
10
19.844030
20
163.389547
11
23.202823
21
166.501822
0
LINE
8
Layer 1
10
23.202823
20
166.501822
11
27.029503
21
170.512892
0
LINE
8
Layer 1
10
27.029503
20
170.512892
11
30.622583
21
174.477462
0
LINE
8
Layer 1
10
30.622583
20
174.477462
11
34.249483
21
178.408892
0
LINE
8
Layer 1
10
34.249483
20
178.408892
11
36.558243
21
180.836312
0
LINE
8
Layer 1
10
36.558243
20
180.836312
11
38.238843
21
182.652572
0
LINE
8
Layer 1
10
38.238843
20
182.652572
11
38.242306
21
181.245392
0
LINE
8
Layer 1
10
38.242306
20
181.245392
11
38.227529
21
170.505692
0
LINE
8
Layer 1
10
38.227529
20
170.505692
11
38.235628
21
160.287892
0
LINE
8
Layer 1
10
38.235628
20
160.287892
11
38.270562
21
158.776712
0
LINE
8
Layer 1
10
38.270562
20
158.776712
11
38.366960
21
153.200292
0
LINE
8
Layer 1
10
38.366960
20
153.200292
11
38.457359
21
147.117342
0
LINE
8
Layer 1
10
38.457359
20
147.117342
11
38.594850
21
142.391401
0
LINE
8
Layer 1
10
38.594850
20
142.391401
11
38.405543
21
137.667252
0
LINE
8
Layer 1
10
38.405543
20
137.667252
11
38.366032
21
135.700612
0
LINE
8
Layer 1
10
38.366032
20
135.700612
11
38.370979
21
134.907427
0
LINE
8
Layer 1
10
38.370979
20
134.907427
11
38.008400
21
135.223000
0
LINE
8
Layer 1
10
38.008400
20
135.223000
11
38.008380
21
135.222412
0
LINE
8
Layer 1
10
40.448160
20
31.971412
11
40.412360
21
32.348590
0
LINE
8
Layer 1
10
40.412360
20
32.348590
11
40.399002
21
34.231010
0
LINE
8
Layer 1
10
40.399002
20
34.231010
11
40.489031
21
32.560050
0
LINE
8
Layer 1
10
40.489031
20
32.560050
11
40.448200
21
31.972000
0
LINE
8
Layer 1
10
40.448200
20
31.972000
11
40.448160
21
31.971412
0
LINE
8
Layer 1
10
41.341452
20
62.843112
11
41.283393
21
62.924237
0
LINE
8
Layer 1
10
41.283393
20
62.924237
11
41.295139
21
63.907123
0
LINE
8
Layer 1
10
41.295139
20
63.907123
11
41.347204
21
63.812519
0
LINE
8
Layer 1
10
41.347204
20
63.812519
11
41.341452
21
62.843112
0
LINE
8
Layer 1
10
41.443106
20
74.551612
11
41.364208
21
74.415208
0
LINE
8
Layer 1
10
41.364208
20
74.415208
11
41.258042
21
75.082008
0
LINE
8
Layer 1
10
41.258042
20
75.082008
11
41.255691
21
75.639614
0
LINE
8
Layer 1
10
41.255691
20
75.639614
11
41.329582
21
77.200884
0
LINE
8
Layer 1
10
41.329582
20
77.200884
11
41.592048
21
76.803671
0
LINE
8
Layer 1
10
41.592048
20
76.803671
11
41.619935
21
76.774117
0
LINE
8
Layer 1
10
41.619935
20
76.774117
11
41.443100
21
74.552200
0
LINE
8
Layer 1
10
41.443100
20
74.552200
11
41.443106
21
74.551612
0
LINE
8
Layer 1
10
42.112316
20
89.785412
11
41.963486
21
89.506673
0
LINE
8
Layer 1
10
41.963486
20
89.506673
11
41.908148
21
89.876308
0
LINE
8
Layer 1
10
41.908148
20
89.876308
11
41.961818
21
95.819268
0
LINE
8
Layer 1
10
41.961818
20
95.819268
11
42.024144
21
96.091082
0
LINE
8
Layer 1
10
42.024144
20
96.091082
11
42.168585
21
95.713288
0
LINE
8
Layer 1
10
42.168585
20
95.713288
11
42.209208
21
92.572698
0
LINE
8
Layer 1
10
42.209208
20
92.572698
11
42.112300
21
89.785900
0
LINE
8
Layer 1
10
42.112300
20
89.785900
11
42.112316
21
89.785412
0
LINE
8
Layer 1
10
68.810816
20
137.009412
11
69.615874
21
136.343600
0
LINE
8
Layer 1
10
69.615874
20
136.343600
11
70.019144
21
136.011560
0
LINE
8
Layer 1
10
70.019144
20
136.011560
11
70.220967
21
135.845726
0
LINE
8
Layer 1
10
70.220967
20
135.845726
11
70.255345
21
135.807265
0
LINE
8
Layer 1
10
70.255345
20
135.807265
11
70.257077
21
135.790696
0
LINE
8
Layer 1
10
70.257077
20
135.790696
11
70.255841
21
135.627572
0
LINE
8
Layer 1
10
70.255841
20
135.627572
11
70.256643
21
135.506499
0
LINE
8
Layer 1
10
70.256643
20
135.506499
11
70.316931
21
135.448254
0
LINE
8
Layer 1
10
70.316931
20
135.448254
11
70.334993
21
135.427601
0
LINE
8
Layer 1
10
70.334993
20
135.427601
11
70.295544
21
135.390996
0
LINE
8
Layer 1
10
70.295544
20
135.390996
11
70.256900
21
135.341890
0
LINE
8
Layer 1
10
70.256900
20
135.341890
11
70.247377
21
135.320619
0
LINE
8
Layer 1
10
70.247377
20
135.320619
11
70.221100
21
135.307636
0
LINE
8
Layer 1
10
70.221100
20
135.307636
11
70.009693
21
135.315922
0
LINE
8
Layer 1
10
70.009693
20
135.315922
11
69.997698
21
135.318025
0
LINE
8
Layer 1
10
69.997698
20
135.318025
11
69.900312
21
135.232325
0
LINE
8
Layer 1
10
69.900312
20
135.232325
11
69.696141
21
135.051898
0
LINE
8
Layer 1
10
69.696141
20
135.051898
11
69.286750
21
134.692158
0
LINE
8
Layer 1
10
69.286750
20
134.692158
11
68.466977
21
133.973903
0
LINE
8
Layer 1
10
68.466977
20
133.973903
11
66.849257
21
132.512433
0
LINE
8
Layer 1
10
66.849257
20
132.512433
11
54.136157
21
120.515933
0
LINE
8
Layer 1
10
54.136157
20
120.515933
11
53.269823
21
119.652878
0
LINE
8
Layer 1
10
53.269823
20
119.652878
11
51.280803
21
117.688088
0
LINE
8
Layer 1
10
51.280803
20
117.688088
11
47.610313
21
114.204578
0
LINE
8
Layer 1
10
47.610313
20
114.204578
11
44.926473
21
111.708038
0
LINE
8
Layer 1
10
44.926473
20
111.708038
11
42.985373
21
109.850588
0
LINE
8
Layer 1
10
42.985373
20
109.850588
11
43.001200
21
110.748023
0
LINE
8
Layer 1
10
43.001200
20
110.748023
11
43.016055
21
116.329540
0
LINE
8
Layer 1
10
43.016055
20
116.329540
11
43.101493
21
121.887123
0
LINE
8
Layer 1
10
43.101493
20
121.887123
11
43.181558
21
127.480328
0
LINE
8
Layer 1
10
43.181558
20
127.480328
11
43.154731
21
133.096723
0
LINE
8
Layer 1
10
43.154731
20
133.096723
11
43.214337
21
134.574883
0
LINE
8
Layer 1
10
43.214337
20
134.574883
11
43.359086
21
144.247073
0
LINE
8
Layer 1
10
43.359086
20
144.247073
11
43.354511
21
146.291003
0
LINE
8
Layer 1
10
43.354511
20
146.291003
11
43.583675
21
159.397603
0
LINE
8
Layer 1
10
43.583675
20
159.397603
11
48.095645
21
155.094563
0
LINE
8
Layer 1
10
48.095645
20
155.094563
11
54.592005
21
149.308413
0
LINE
8
Layer 1
10
54.592005
20
149.308413
11
62.034025
21
142.744283
0
LINE
8
Layer 1
10
62.034025
20
142.744283
11
67.207175
21
138.348113
0
LINE
8
Layer 1
10
67.207175
20
138.348113
11
68.810816
21
137.009412
0
LINE
8
Layer 1
10
64.922856
20
150.688812
11
57.940926
21
156.200432
0
LINE
8
Layer 1
10
57.940926
20
156.200432
11
53.687596
21
159.821212
0
LINE
8
Layer 1
10
53.687596
20
159.821212
11
50.670881
21
162.458280
0
LINE
8
Layer 1
10
50.670881
20
162.458280
11
47.424716
21
164.807132
0
LINE
8
Layer 1
10
47.424716
20
164.807132
11
46.565234
21
165.287764
0
LINE
8
Layer 1
10
46.565234
20
165.287764
11
45.643511
21
165.614168
0
LINE
8
Layer 1
10
45.643511
20
165.614168
11
44.680036
21
165.780982
0
LINE
8
Layer 1
10
44.680036
20
165.780982
11
43.695296
21
165.782847
0
LINE
8
Layer 1
10
43.695296
20
165.782847
11
43.710384
21
166.646274
0
LINE
8
Layer 1
10
43.710384
20
166.646274
11
44.002357
21
188.086174
0
LINE
8
Layer 1
10
44.002357
20
188.086174
11
44.212214
21
210.583274
0
LINE
8
Layer 1
10
44.212214
20
210.583274
11
44.248634
21
216.211874
0
LINE
8
Layer 1
10
44.248634
20
216.211874
11
44.433512
21
243.326274
0
LINE
8
Layer 1
10
44.433512
20
243.326274
11
44.437037
21
259.036774
0
LINE
8
Layer 1
10
44.437037
20
259.036774
11
44.560021
21
258.943285
0
LINE
8
Layer 1
10
44.560021
20
258.943285
11
45.686791
21
258.102241
0
LINE
8
Layer 1
10
45.686791
20
258.102241
11
50.882571
21
254.209521
0
LINE
8
Layer 1
10
50.882571
20
254.209521
11
52.429551
21
253.060061
0
LINE
8
Layer 1
10
52.429551
20
253.060061
11
53.972461
21
251.924451
0
LINE
8
Layer 1
10
53.972461
20
251.924451
11
55.449511
21
250.752101
0
LINE
8
Layer 1
10
55.449511
20
250.752101
11
56.012544
21
250.342648
0
LINE
8
Layer 1
10
56.012544
20
250.342648
11
58.385734
21
248.593038
0
LINE
8
Layer 1
10
58.385734
20
248.593038
11
61.204054
21
246.425318
0
LINE
8
Layer 1
10
61.204054
20
246.425318
11
61.202756
21
246.352604
0
LINE
8
Layer 1
10
61.202756
20
246.352604
11
61.167512
21
240.859784
0
LINE
8
Layer 1
10
61.167512
20
240.859784
11
61.251913
21
236.386834
0
LINE
8
Layer 1
10
61.251913
20
236.386834
11
61.327831
21
232.089234
0
LINE
8
Layer 1
10
61.327831
20
232.089234
11
62.128870
21
214.875234
0
LINE
8
Layer 1
10
62.128870
20
214.875234
11
62.217970
21
213.672844
0
LINE
8
Layer 1
10
62.217970
20
213.672844
11
62.409960
21
210.923154
0
LINE
8
Layer 1
10
62.409960
20
210.923154
11
62.656238
21
205.940334
0
LINE
8
Layer 1
10
62.656238
20
205.940334
11
62.798083
21
202.329444
0
LINE
8
Layer 1
10
62.798083
20
202.329444
11
62.951301
21
198.894034
0
LINE
8
Layer 1
10
62.951301
20
198.894034
11
62.999409
21
198.386034
0
LINE
8
Layer 1
10
62.999409
20
198.386034
11
63.148795
21
196.511034
0
LINE
8
Layer 1
10
63.148795
20
196.511034
11
63.295522
21
194.465864
0
LINE
8
Layer 1
10
63.295522
20
194.465864
11
63.451377
21
192.880440
0
LINE
8
Layer 1
10
63.451377
20
192.880440
11
63.387284
21
191.288664
0
LINE
8
Layer 1
10
63.387284
20
191.288664
11
63.388396
21
190.627418
0
LINE
8
Layer 1
10
63.388396
20
190.627418
11
63.460616
21
189.251398
0
LINE
8
Layer 1
10
63.460616
20
189.251398
11
63.782578
21
182.897498
0
LINE
8
Layer 1
10
63.782578
20
182.897498
11
63.885713
21
181.011608
0
LINE
8
Layer 1
10
63.885713
20
181.011608
11
63.996889
21
179.137588
0
LINE
8
Layer 1
10
63.996889
20
179.137588
11
64.037882
21
177.290158
0
LINE
8
Layer 1
10
64.037882
20
177.290158
11
64.082278
21
176.609382
0
LINE
8
Layer 1
10
64.082278
20
176.609382
11
64.251143
21
173.725022
0
LINE
8
Layer 1
10
64.251143
20
173.725022
11
64.408693
21
169.603522
0
LINE
8
Layer 1
10
64.408693
20
169.603522
11
64.481159
21
167.892132
0
LINE
8
Layer 1
10
64.481159
20
167.892132
11
64.589117
21
165.542382
0
LINE
8
Layer 1
10
64.589117
20
165.542382
11
64.612305
21
165.031030
0
LINE
8
Layer 1
10
64.612305
20
165.031030
11
64.717173
21
162.988830
0
LINE
8
Layer 1
10
64.717173
20
162.988830
11
64.814621
21
160.960220
0
LINE
8
Layer 1
10
64.814621
20
160.960220
11
64.874043
21
158.916410
0
LINE
8
Layer 1
10
64.874043
20
158.916410
11
64.908855
21
158.069431
0
LINE
8
Layer 1
10
64.908855
20
158.069431
11
65.024109
21
155.025171
0
LINE
8
Layer 1
10
65.024109
20
155.025171
11
65.080068
21
153.146831
0
LINE
8
Layer 1
10
65.080068
20
153.146831
11
65.135779
21
151.107971
0
LINE
8
Layer 1
10
65.135779
20
151.107971
11
65.148950
21
150.513143
0
LINE
8
Layer 1
10
65.148950
20
150.513143
11
64.922800
21
150.689000
0
LINE
8
Layer 1
10
64.922800
20
150.689000
11
64.922856
21
150.688812
0
LINE
8
Layer 1
10
65.278456
20
166.131412
11
65.261082
21
166.158618
0
LINE
8
Layer 1
10
65.261082
20
166.158618
11
65.264791
21
166.489173
0
LINE
8
Layer 1
10
65.264791
20
166.489173
11
65.280558
21
166.457282
0
LINE
8
Layer 1
10
65.280558
20
166.457282
11
65.278456
21
166.131412
0
LINE
8
Layer 1
10
65.443426
20
171.256452
11
65.319389
21
170.067912
0
LINE
8
Layer 1
10
65.319389
20
170.067912
11
65.291316
21
170.022158
0
LINE
8
Layer 1
10
65.291316
20
170.022158
11
65.253781
21
170.246242
0
LINE
8
Layer 1
10
65.253781
20
170.246242
11
65.252914
21
170.433843
0
LINE
8
Layer 1
10
65.252914
20
170.433843
11
65.273517
21
171.573903
0
LINE
8
Layer 1
10
65.273517
20
171.573903
11
65.326010
21
172.111104
0
LINE
8
Layer 1
10
65.326010
20
172.111104
11
65.386544
21
171.983480
0
LINE
8
Layer 1
10
65.386544
20
171.983480
11
65.443400
21
171.257000
0
LINE
8
Layer 1
10
65.443400
20
171.257000
11
65.443426
21
171.256452
0
LINE
8
Layer 1
10
65.673011
20
176.126992
11
65.618968
21
175.189860
0
LINE
8
Layer 1
10
65.618968
20
175.189860
11
65.554416
21
175.096123
0
LINE
8
Layer 1
10
65.554416
20
175.096123
11
65.532033
21
175.220405
0
LINE
8
Layer 1
10
65.532033
20
175.220405
11
65.575007
21
177.218585
0
LINE
8
Layer 1
10
65.575007
20
177.218585
11
65.604437
21
177.309971
0
LINE
8
Layer 1
10
65.604437
20
177.309971
11
65.668806
21
177.182844
0
LINE
8
Layer 1
10
65.668806
20
177.182844
11
65.673000
21
176.128000
0
LINE
8
Layer 1
10
65.673000
20
176.128000
11
65.673011
21
176.126992
0
LINE
8
Layer 1
10
70.281441
20
293.711992
11
70.242734
21
293.676624
0
LINE
8
Layer 1
10
70.242734
20
293.676624
11
70.205015
21
293.628889
0
LINE
8
Layer 1
10
70.205015
20
293.628889
11
70.195866
21
293.608360
0
LINE
8
Layer 1
10
70.195866
20
293.608360
11
70.145348
21
293.603280
0
LINE
8
Layer 1
10
70.145348
20
293.603280
11
70.036831
21
293.603774
0
LINE
8
Layer 1
10
70.036831
20
293.603774
11
69.985263
21
293.607607
0
LINE
8
Layer 1
10
69.985263
20
293.607607
11
69.960036
21
293.610711
0
LINE
8
Layer 1
10
69.960036
20
293.610711
11
69.947547
21
293.612565
0
LINE
8
Layer 1
10
69.947547
20
293.612565
11
69.944443
21
293.613059
0
LINE
8
Layer 1
10
69.944443
20
293.613059
11
69.919401
21
293.591294
0
LINE
8
Layer 1
10
69.919401
20
293.591294
11
69.865731
21
293.544301
0
LINE
8
Layer 1
10
69.865731
20
293.544301
11
66.566041
21
290.654381
0
LINE
8
Layer 1
10
66.566041
20
290.654381
11
53.669600
21
278.699000
0
LINE
8
Layer 1
10
53.669600
20
278.699000
11
52.790219
21
277.838666
0
LINE
8
Layer 1
10
52.790219
20
277.838666
11
50.771519
21
275.880066
0
LINE
8
Layer 1
10
50.771519
20
275.880066
11
47.047849
21
272.408426
0
LINE
8
Layer 1
10
47.047849
20
272.408426
11
44.429499
21
270.015516
0
LINE
8
Layer 1
10
44.429499
20
270.015516
11
44.392215
21
288.376516
0
LINE
8
Layer 1
10
44.392215
20
288.376516
11
44.158611
21
315.472916
0
LINE
8
Layer 1
10
44.158611
20
315.472916
11
44.139566
21
317.134976
0
LINE
8
Layer 1
10
44.139566
20
317.134976
11
48.147916
21
313.325726
0
LINE
8
Layer 1
10
48.147916
20
313.325726
11
54.685396
21
307.506676
0
LINE
8
Layer 1
10
54.685396
20
307.506676
11
62.174406
21
300.904956
0
LINE
8
Layer 1
10
62.174406
20
300.904956
11
67.379706
21
296.483076
0
LINE
8
Layer 1
10
67.379706
20
296.483076
11
68.993286
21
295.136366
0
LINE
8
Layer 1
10
68.993286
20
295.136366
11
69.803229
21
294.466597
0
LINE
8
Layer 1
10
69.803229
20
294.466597
11
70.208477
21
294.132951
0
LINE
8
Layer 1
10
70.208477
20
294.132951
11
70.216021
21
294.065799
0
LINE
8
Layer 1
10
70.216021
20
294.065799
11
70.211012
21
293.905158
0
LINE
8
Layer 1
10
70.211012
20
293.905158
11
70.195989
21
293.835288
0
LINE
8
Layer 1
10
70.195989
20
293.835288
11
70.233891
21
293.796706
0
LINE
8
Layer 1
10
70.233891
20
293.796706
11
70.291273
21
293.740933
0
LINE
8
Layer 1
10
70.291273
20
293.740933
11
70.302463
21
293.731163
0
LINE
8
Layer 1
10
70.302463
20
293.731163
11
70.281400
21
293.713000
0
LINE
8
Layer 1
10
70.281400
20
293.713000
11
70.281441
21
293.711992
0
LINE
8
Layer 1
10
72.282700
20
238.558000
11
71.675815
21
238.953850
0
LINE
8
Layer 1
10
71.675815
20
238.953850
11
73.298175
21
237.621980
0
LINE
8
Layer 1
10
73.298175
20
237.621980
11
73.963736
21
237.065489
0
LINE
8
Layer 1
10
73.963736
20
237.065489
11
74.125167
21
236.948133
0
LINE
8
Layer 1
10
74.125167
20
236.948133
11
73.986032
21
237.089729
0
LINE
8
Layer 1
10
73.986032
20
237.089729
11
72.282700
21
238.558000
0
LINE
8
Layer 1
10
72.282700
20
238.558000
11
72.282700
21
238.558000
0
LINE
8
Layer 1
10
81.064600
20
231.073000
11
80.978469
21
231.143985
0
LINE
8
Layer 1
10
80.978469
20
231.143985
11
80.975438
21
231.146457
0
LINE
8
Layer 1
10
80.975438
20
231.146457
11
81.002333
21
231.124074
0
LINE
8
Layer 1
10
81.002333
20
231.124074
11
81.064600
21
231.073000
0
LINE
8
Layer 1
10
81.064600
20
231.073000
11
81.064600
21
231.073000
0
LINE
8
Layer 1
10
81.557200
20
230.668000
11
81.358346
21
230.831610
0
LINE
8
Layer 1
10
81.358346
20
230.831610
11
81.064519
21
231.072261
0
LINE
8
Layer 1
10
81.064519
20
231.072261
11
81.328481
21
230.854984
0
LINE
8
Layer 1
10
81.328481
20
230.854984
11
81.537085
21
230.684623
0
LINE
8
Layer 1
10
81.537085
20
230.684623
11
81.557200
21
230.668000
0
LINE
8
Layer 1
10
81.557200
20
230.668000
11
81.557200
21
230.668000
0
LINE
8
Layer 1
10
72.390500
20
80.297600
11
71.789553
21
80.694565
0
LINE
8
Layer 1
10
71.789553
20
80.694565
11
73.393543
21
79.360345
0
LINE
8
Layer 1
10
73.393543
20
79.360345
11
74.051442
21
78.802988
0
LINE
8
Layer 1
10
74.051442
20
78.802988
11
74.211216
21
78.685383
0
LINE
8
Layer 1
10
74.211216
20
78.685383
11
74.073946
21
78.827101
0
LINE
8
Layer 1
10
74.073946
20
78.827101
11
72.390500
21
80.297600
0
LINE
8
Layer 1
10
72.390500
20
80.297600
11
72.390500
21
80.297600
0
LINE
8
Layer 1
10
81.077400
20
72.794700
11
80.985269
21
72.871495
0
LINE
8
Layer 1
10
80.985269
20
72.871495
11
80.982302
21
72.873843
0
LINE
8
Layer 1
10
80.982302
20
72.873843
11
81.008831
21
72.851585
0
LINE
8
Layer 1
10
81.008831
20
72.851585
11
81.077400
21
72.794700
0
LINE
8
Layer 1
10
81.557500
20
72.395300
11
81.360873
21
72.559271
0
LINE
8
Layer 1
10
81.360873
20
72.559271
11
81.077373
21
72.794605
0
LINE
8
Layer 1
10
81.077373
20
72.794605
11
81.331373
21
72.582766
0
LINE
8
Layer 1
10
81.331373
20
72.582766
11
81.537634
21
72.411796
0
LINE
8
Layer 1
10
81.537634
20
72.411796
11
81.557500
21
72.395300
0
LINE
8
Layer 1
10
81.557500
20
72.395300
11
81.557500
21
72.395300
0
LINE
8
Layer 1
10
67.545400
20
84.497200
11
67.624606
21
84.442415
0
LINE
8
Layer 1
10
67.624606
20
84.442415
11
67.525365
21
84.537391
0
LINE
8
Layer 1
10
67.525365
20
84.537391
11
67.415922
21
84.625812
0
LINE
8
Layer 1
10
67.415922
20
84.625812
11
67.545400
21
84.497200
0
LINE
8
Layer 1
10
67.545400
20
84.497200
11
67.545400
21
84.497200
0
LINE
8
Layer 1
10
41.582100
20
31.563000
11
41.570600
21
29.034550
0
LINE
8
Layer 1
10
41.570600
20
29.034550
11
41.625633
21
28.454067
0
LINE
8
Layer 1
10
41.625633
20
28.454067
11
41.711332
21
29.029602
0
LINE
8
Layer 1
10
41.711332
20
29.029602
11
41.879638
21
35.582602
0
LINE
8
Layer 1
10
41.879638
20
35.582602
11
41.847642
21
36.867106
0
LINE
8
Layer 1
10
41.847642
20
36.867106
11
41.530718
21
37.680452
0
LINE
8
Layer 1
10
41.530718
20
37.680452
11
41.582100
21
31.563000
0
LINE
8
Layer 1
10
41.582100
20
31.563000
11
41.582100
21
31.563000
0
LINE
8
Layer 1
10
41.236100
20
1.960590
11
41.234060
21
2.280387
0
LINE
8
Layer 1
10
41.234060
20
2.280387
11
41.233873
21
2.284840
0
LINE
8
Layer 1
10
41.233873
20
2.284840
11
41.233752
21
2.189864
0
LINE
8
Layer 1
10
41.233752
20
2.189864
11
41.236100
21
1.960590
0
LINE
8
Layer 1
10
41.236100
20
1.960590
11
41.236100
21
1.960590
0
LINE
8
Layer 1
10
41.252400
20
0.097703
11
41.247393
21
0.848349
0
LINE
8
Layer 1
10
41.247393
20
0.848349
11
41.236138
21
1.960589
0
LINE
8
Layer 1
10
41.236138
20
1.960589
11
41.242384
21
0.958909
0
LINE
8
Layer 1
10
41.242384
20
0.958909
11
41.251223
21
0.173355
0
LINE
8
Layer 1
10
41.251223
20
0.173355
11
41.253284
21
0.005460
0
LINE
8
Layer 1
10
41.253284
20
0.005460
11
41.252400
21
0.097703
0
LINE
8
Layer 1
10
41.252400
20
0.097703
11
41.252400
21
0.097703
0
LINE
8
Layer 1
10
42.224900
20
54.380600
11
42.263669
21
54.099634
0
LINE
8
Layer 1
10
42.263669
20
54.099634
11
42.293968
21
54.501546
0
LINE
8
Layer 1
10
42.293968
20
54.501546
11
42.276964
21
54.913844
0
LINE
8
Layer 1
10
42.276964
20
54.913844
11
42.224900
21
54.380600
0
LINE
8
Layer 1
10
42.224900
20
54.380600
11
42.224900
21
54.380600
 0 
ENDSEC
 0 
EOF