999
"DXF R12 Output" (www.mydxf.blogspot.com)
 0 
SECTION
 2 
HEADER
 9 
$ACADVER
 1 
AC1009
 9 
$EXTMIN
 10 
 0 
 20 
 0 
 9 
$EXTMAX
 10 
 8.5 
 20 
 11 
 0 
ENDSEC
 0 
SECTION
 2 
ENTITIES
0
LINE
8
Layer 1
10
88.391000
20
265.723000
11
87.765878
21
266.406259
0
LINE
8
Layer 1
10
87.765878
20
266.406259
11
87.262623
21
266.956815
0
LINE
8
Layer 1
10
87.262623
20
266.956815
11
86.260733
21
268.036655
0
LINE
8
Layer 1
10
86.260733
20
268.036655
11
86.020390
21
268.319972
0
LINE
8
Layer 1
10
86.020390
20
268.319972
11
85.836593
21
268.541827
0
LINE
8
Layer 1
10
85.836593
20
268.541827
11
85.505727
21
268.900331
0
LINE
8
Layer 1
10
85.505727
20
268.900331
11
84.952112
21
269.523229
0
LINE
8
Layer 1
10
84.952112
20
269.523229
11
84.795832
21
269.706871
0
LINE
8
Layer 1
10
84.795832
20
269.706871
11
85.139093
21
269.486625
0
LINE
8
Layer 1
10
85.139093
20
269.486625
11
84.793885
21
269.905849
0
LINE
8
Layer 1
10
84.793885
20
269.905849
11
84.389314
21
270.391728
0
LINE
8
Layer 1
10
84.389314
20
270.391728
11
84.352865
21
270.340530
0
LINE
8
Layer 1
10
84.352865
20
270.340530
11
84.195902
21
270.492391
0
LINE
8
Layer 1
10
84.195902
20
270.492391
11
83.824106
21
270.937455
0
LINE
8
Layer 1
10
83.824106
20
270.937455
11
83.188260
21
271.698608
0
LINE
8
Layer 1
10
83.188260
20
271.698608
11
82.961520
21
271.935302
0
LINE
8
Layer 1
10
82.961520
20
271.935302
11
82.055647
21
273.082292
0
LINE
8
Layer 1
10
82.055647
20
273.082292
11
81.515601
21
273.773454
0
LINE
8
Layer 1
10
81.515601
20
273.773454
11
81.151817
21
274.215803
0
LINE
8
Layer 1
10
81.151817
20
274.215803
11
80.769688
21
274.634409
0
LINE
8
Layer 1
10
80.769688
20
274.634409
11
80.438450
21
274.924773
0
LINE
8
Layer 1
10
80.438450
20
274.924773
11
80.269585
21
275.194859
0
LINE
8
Layer 1
10
80.269585
20
275.194859
11
80.045501
21
275.521333
0
LINE
8
Layer 1
10
80.045501
20
275.521333
11
79.427237
21
276.387235
0
LINE
8
Layer 1
10
79.427237
20
276.387235
11
79.128031
21
276.775048
0
LINE
8
Layer 1
10
79.128031
20
276.775048
11
78.573239
21
277.395104
0
LINE
8
Layer 1
10
78.573239
20
277.395104
11
78.100162
21
278.061656
0
LINE
8
Layer 1
10
78.100162
20
278.061656
11
77.949969
21
278.263479
0
LINE
8
Layer 1
10
77.949969
20
278.263479
11
76.793059
21
279.706889
0
LINE
8
Layer 1
10
76.793059
20
279.706889
11
75.617989
21
281.149439
0
LINE
8
Layer 1
10
75.617989
20
281.149439
11
75.481958
21
281.356827
0
LINE
8
Layer 1
10
75.481958
20
281.356827
11
74.509954
21
282.639727
0
LINE
8
Layer 1
10
74.509954
20
282.639727
11
74.291901
21
282.899301
0
LINE
8
Layer 1
10
74.291901
20
282.899301
11
72.294441
21
285.642551
0
LINE
8
Layer 1
10
72.294441
20
285.642551
11
70.190761
21
288.532351
0
LINE
8
Layer 1
10
70.190761
20
288.532351
11
67.965231
21
291.548041
0
LINE
8
Layer 1
10
67.965231
20
291.548041
11
67.403113
21
292.297699
0
LINE
8
Layer 1
10
67.403113
20
292.297699
11
64.716553
21
295.928619
0
LINE
8
Layer 1
10
64.716553
20
295.928619
11
60.045953
21
301.773389
0
LINE
8
Layer 1
10
60.045953
20
301.773389
11
57.057933
21
305.126679
0
LINE
8
Layer 1
10
57.057933
20
305.126679
11
54.086763
21
308.261829
0
LINE
8
Layer 1
10
54.086763
20
308.261829
11
51.149783
21
311.434319
0
LINE
8
Layer 1
10
51.149783
20
311.434319
11
49.421013
21
313.529699
0
LINE
8
Layer 1
10
49.421013
20
313.529699
11
48.445919
21
314.787557
0
LINE
8
Layer 1
10
48.445919
20
314.787557
11
47.334693
21
315.926939
0
LINE
8
Layer 1
10
47.334693
20
315.926939
11
47.041360
21
341.526339
0
LINE
8
Layer 1
10
47.041360
20
341.526339
11
46.932690
21
354.567239
0
LINE
8
Layer 1
10
46.932690
20
354.567239
11
46.896455
21
361.088829
0
LINE
8
Layer 1
10
46.896455
20
361.088829
11
46.858118
21
367.607939
0
LINE
8
Layer 1
10
46.858118
20
367.607939
11
46.194256
21
383.978839
0
LINE
8
Layer 1
10
46.194256
20
383.978839
11
45.689944
21
395.733134
0
LINE
8
Layer 1
10
45.689944
20
395.733134
11
45.080406
21
407.451039
0
LINE
8
Layer 1
10
45.080406
20
407.451039
11
44.515135
21
417.966239
0
LINE
8
Layer 1
10
44.515135
20
417.966239
11
44.435796
21
420.471068
0
LINE
8
Layer 1
10
44.435796
20
420.471068
11
44.386089
21
417.060397
0
LINE
8
Layer 1
10
44.386089
20
417.060397
11
44.143336
21
408.985087
0
LINE
8
Layer 1
10
44.143336
20
408.985087
11
43.413228
21
388.124487
0
LINE
8
Layer 1
10
43.413228
20
388.124487
11
42.910066
21
375.385487
0
LINE
8
Layer 1
10
42.910066
20
375.385487
11
42.636680
21
369.016261
0
LINE
8
Layer 1
10
42.636680
20
369.016261
11
42.492792
21
362.651887
0
LINE
8
Layer 1
10
42.492792
20
362.651887
11
42.398776
21
355.390287
0
LINE
8
Layer 1
10
42.398776
20
355.390287
11
42.281355
21
348.124857
0
LINE
8
Layer 1
10
42.281355
20
348.124857
11
42.056379
21
333.588957
0
LINE
8
Layer 1
10
42.056379
20
333.588957
11
41.770714
21
313.692057
0
LINE
8
Layer 1
10
41.770714
20
313.692057
11
41.610443
21
301.441857
0
LINE
8
Layer 1
10
41.610443
20
301.441857
11
41.422627
21
285.104757
0
LINE
8
Layer 1
10
41.422627
20
285.104757
11
41.349605
21
273.277857
0
LINE
8
Layer 1
10
41.349605
20
273.277857
11
40.285005
21
272.057167
0
LINE
8
Layer 1
10
40.285005
20
272.057167
11
38.535735
21
270.037477
0
LINE
8
Layer 1
10
38.535735
20
270.037477
11
37.091735
21
268.345747
0
LINE
8
Layer 1
10
37.091735
20
268.345747
11
33.154985
21
263.691997
0
LINE
8
Layer 1
10
33.154985
20
263.691997
11
25.934015
21
255.335967
0
LINE
8
Layer 1
10
25.934015
20
255.335967
11
20.671645
21
249.306577
0
LINE
8
Layer 1
10
20.671645
20
249.306577
11
18.218042
21
246.396732
0
LINE
8
Layer 1
10
18.218042
20
246.396732
11
15.703225
21
243.536507
0
LINE
8
Layer 1
10
15.703225
20
243.536507
11
15.006560
21
242.649582
0
LINE
8
Layer 1
10
15.006560
20
242.649582
11
13.745071
21
241.005336
0
LINE
8
Layer 1
10
13.745071
20
241.005336
11
12.399270
21
239.408572
0
LINE
8
Layer 1
10
12.399270
20
239.408572
11
10.935489
21
237.678763
0
LINE
8
Layer 1
10
10.935489
20
237.678763
11
9.541490
21
235.885242
0
LINE
8
Layer 1
10
9.541490
20
235.885242
11
7.389550
21
233.083622
0
LINE
8
Layer 1
10
7.389550
20
233.083622
11
6.191670
21
231.789222
0
LINE
8
Layer 1
10
6.191670
20
231.789222
11
5.561536
21
231.173495
0
LINE
8
Layer 1
10
5.561536
20
231.173495
11
5.238462
21
230.874224
0
LINE
8
Layer 1
10
5.238462
20
230.874224
11
4.681070
21
230.322000
0
LINE
8
Layer 1
10
4.681070
20
230.322000
11
2.809090
21
228.241090
0
LINE
8
Layer 1
10
2.809090
20
228.241090
11
0.966420
21
226.059270
0
LINE
8
Layer 1
10
0.966420
20
226.059270
11
0.056933
21
224.973000
0
LINE
8
Layer 1
10
0.056933
20
224.973000
11
0.000169
21
224.905233
0
LINE
8
Layer 1
10
0.000169
20
224.905233
11
0.053470
21
224.845503
0
LINE
8
Layer 1
10
0.053470
20
224.845503
11
0.185172
21
224.727774
0
LINE
8
Layer 1
10
0.185172
20
224.727774
11
0.448268
21
224.492440
0
LINE
8
Layer 1
10
0.448268
20
224.492440
11
0.973596
21
224.022258
0
LINE
8
Layer 1
10
0.973596
20
224.022258
11
2.183406
21
222.938458
0
LINE
8
Layer 1
10
2.183406
20
222.938458
11
2.787262
21
222.397548
0
LINE
8
Layer 1
10
2.787262
20
222.397548
11
3.088957
21
222.127462
0
LINE
8
Layer 1
10
3.088957
20
222.127462
11
3.420379
21
221.862077
0
LINE
8
Layer 1
10
3.420379
20
221.862077
11
6.071069
21
219.745797
0
LINE
8
Layer 1
10
6.071069
20
219.745797
11
8.983809
21
217.481747
0
LINE
8
Layer 1
10
8.983809
20
217.481747
11
14.557900
21
213.174000
0
LINE
8
Layer 1
10
14.557900
20
213.174000
11
17.886950
21
210.641340
0
LINE
8
Layer 1
10
17.886950
20
210.641340
11
21.213900
21
208.147390
0
LINE
8
Layer 1
10
21.213900
20
208.147390
11
22.882411
21
206.864954
0
LINE
8
Layer 1
10
22.882411
20
206.864954
11
24.394120
21
205.568610
0
LINE
8
Layer 1
10
24.394120
20
205.568610
11
25.612070
21
204.673896
0
LINE
8
Layer 1
10
25.612070
20
204.673896
11
30.753650
21
200.860946
0
LINE
8
Layer 1
10
30.753650
20
200.860946
11
37.986590
21
195.274756
0
LINE
8
Layer 1
10
37.986590
20
195.274756
11
41.008060
21
192.977066
0
LINE
8
Layer 1
10
41.008060
20
192.977066
11
41.288284
21
192.782790
0
LINE
8
Layer 1
10
41.288284
20
192.782790
11
38.693764
21
190.457400
0
LINE
8
Layer 1
10
38.693764
20
190.457400
11
29.569004
21
182.348330
0
LINE
8
Layer 1
10
29.569004
20
182.348330
11
16.586604
21
170.599830
0
LINE
8
Layer 1
10
16.586604
20
170.599830
11
10.817584
21
165.279770
0
LINE
8
Layer 1
10
10.817584
20
165.279770
11
9.417470
21
164.043788
0
LINE
8
Layer 1
10
9.417470
20
164.043788
11
11.403759
21
165.629866
0
LINE
8
Layer 1
10
11.403759
20
165.629866
11
16.166209
21
169.312606
0
LINE
8
Layer 1
10
16.166209
20
169.312606
11
28.503009
21
178.784956
0
LINE
8
Layer 1
10
28.503009
20
178.784956
11
41.405400
21
188.611000
0
LINE
8
Layer 1
10
41.405400
20
188.611000
11
41.423578
21
181.245400
0
LINE
8
Layer 1
10
41.423578
20
181.245400
11
41.408801
21
170.505700
0
LINE
8
Layer 1
10
41.408801
20
170.505700
11
41.416901
21
160.287900
0
LINE
8
Layer 1
10
41.416901
20
160.287900
11
41.451834
21
158.776720
0
LINE
8
Layer 1
10
41.451834
20
158.776720
11
41.521241
21
156.946480
0
LINE
8
Layer 1
10
41.521241
20
156.946480
11
38.836141
21
155.315710
0
LINE
8
Layer 1
10
38.836141
20
155.315710
11
34.338951
21
152.669900
0
LINE
8
Layer 1
10
34.338951
20
152.669900
11
29.122181
21
149.758090
0
LINE
8
Layer 1
10
29.122181
20
149.758090
11
25.553300
21
147.762000
0
LINE
8
Layer 1
10
25.553300
20
147.762000
11
23.367590
21
146.518180
0
LINE
8
Layer 1
10
23.367590
20
146.518180
11
20.483660
21
144.820760
0
LINE
8
Layer 1
10
20.483660
20
144.820760
11
18.206620
21
143.349150
0
LINE
8
Layer 1
10
18.206620
20
143.349150
11
16.022500
21
141.930700
0
LINE
8
Layer 1
10
16.022500
20
141.930700
11
13.936210
21
140.384270
0
LINE
8
Layer 1
10
13.936210
20
140.384270
11
12.902060
21
139.599741
0
LINE
8
Layer 1
10
12.902060
20
139.599741
11
12.644654
21
139.402248
0
LINE
8
Layer 1
10
12.644654
20
139.402248
11
12.172192
21
139.031126
0
LINE
8
Layer 1
10
12.172192
20
139.031126
11
11.087152
21
138.175364
0
LINE
8
Layer 1
10
11.087152
20
138.175364
11
8.919872
21
136.465324
0
LINE
8
Layer 1
10
8.919872
20
136.465324
11
8.649167
21
136.251631
0
LINE
8
Layer 1
10
8.649167
20
136.251631
11
8.581214
21
136.198333
0
LINE
8
Layer 1
10
8.581214
20
136.198333
11
8.496629
21
136.144539
0
LINE
8
Layer 1
10
8.496629
20
136.144539
11
8.327454
21
136.036950
0
LINE
8
Layer 1
10
8.327454
20
136.036950
11
7.651007
21
135.606719
0
LINE
8
Layer 1
10
7.651007
20
135.606719
11
6.299227
21
134.746879
0
LINE
8
Layer 1
10
6.299227
20
134.746879
11
3.599437
21
133.029179
0
LINE
8
Layer 1
10
3.599437
20
133.029179
11
2.925279
21
132.600063
0
LINE
8
Layer 1
10
2.925279
20
132.600063
11
2.943767
21
132.572484
0
LINE
8
Layer 1
10
2.943767
20
132.572484
11
2.985629
21
132.544544
0
LINE
8
Layer 1
10
2.985629
20
132.544544
11
3.069288
21
132.488772
0
LINE
8
Layer 1
10
3.069288
20
132.488772
11
3.236544
21
132.377102
0
LINE
8
Layer 1
10
3.236544
20
132.377102
11
3.570994
21
132.153766
0
LINE
8
Layer 1
10
3.570994
20
132.153766
11
4.908124
21
131.260906
0
LINE
8
Layer 1
10
4.908124
20
131.260906
11
6.469704
21
130.276163
0
LINE
8
Layer 1
10
6.469704
20
130.276163
11
8.231744
21
129.166143
0
LINE
8
Layer 1
10
8.231744
20
129.166143
11
8.660055
21
128.890977
0
LINE
8
Layer 1
10
8.660055
20
128.890977
11
9.006937
21
128.619036
0
LINE
8
Layer 1
10
9.006937
20
128.619036
11
9.690369
21
128.073800
0
LINE
8
Layer 1
10
9.690369
20
128.073800
11
12.118219
21
126.094290
0
LINE
8
Layer 1
10
12.118219
20
126.094290
11
12.913075
21
125.452593
0
LINE
8
Layer 1
10
12.913075
20
125.452593
11
13.502276
21
124.985882
0
LINE
8
Layer 1
10
13.502276
20
124.985882
11
15.190246
21
123.609742
0
LINE
8
Layer 1
10
15.190246
20
123.609742
11
16.034124
21
123.004140
0
LINE
8
Layer 1
10
16.034124
20
123.004140
11
16.829176
21
122.339462
0
LINE
8
Layer 1
10
16.829176
20
122.339462
11
17.103834
21
122.189828
0
LINE
8
Layer 1
10
17.103834
20
122.189828
11
17.623559
21
121.933130
0
LINE
8
Layer 1
10
17.623559
20
121.933130
11
18.087773
21
121.602420
0
LINE
8
Layer 1
10
18.087773
20
121.602420
11
18.588748
21
121.240092
0
LINE
8
Layer 1
10
18.588748
20
121.240092
11
19.150243
21
120.948729
0
LINE
8
Layer 1
10
19.150243
20
120.948729
11
20.032317
21
120.513973
0
LINE
8
Layer 1
10
20.032317
20
120.513973
11
20.634093
21
119.736199
0
LINE
8
Layer 1
10
20.634093
20
119.736199
11
20.920193
21
119.456963
0
LINE
8
Layer 1
10
20.920193
20
119.456963
11
21.609252
21
118.986781
0
LINE
8
Layer 1
10
21.609252
20
118.986781
11
24.812852
21
116.841331
0
LINE
8
Layer 1
10
24.812852
20
116.841331
11
25.786651
21
116.231540
0
LINE
8
Layer 1
10
25.786651
20
116.231540
11
26.773372
21
115.648213
0
LINE
8
Layer 1
10
26.773372
20
115.648213
11
27.256650
21
115.333469
0
LINE
8
Layer 1
10
27.256650
20
115.333469
11
27.645303
21
114.954082
0
LINE
8
Layer 1
10
27.645303
20
114.954082
11
28.013205
21
114.753250
0
LINE
8
Layer 1
10
28.013205
20
114.753250
11
29.553265
21
113.880673
0
LINE
8
Layer 1
10
29.553265
20
113.880673
11
31.638325
21
112.497233
0
LINE
8
Layer 1
10
31.638325
20
112.497233
11
32.522498
21
111.944575
0
LINE
8
Layer 1
10
32.522498
20
111.944575
11
33.760568
21
111.214210
0
LINE
8
Layer 1
10
33.760568
20
111.214210
11
34.030959
21
111.056293
0
LINE
8
Layer 1
10
34.030959
20
111.056293
11
35.137639
21
110.457878
0
LINE
8
Layer 1
10
35.137639
20
110.457878
11
36.233589
21
109.859342
0
LINE
8
Layer 1
10
36.233589
20
109.859342
11
37.269249
21
109.175236
0
LINE
8
Layer 1
10
37.269249
20
109.175236
11
37.721182
21
108.918631
0
LINE
8
Layer 1
10
37.721182
20
108.918631
11
39.335042
21
107.984098
0
LINE
8
Layer 1
10
39.335042
20
107.984098
11
40.307698
21
107.379993
0
LINE
8
Layer 1
10
40.307698
20
107.379993
11
41.359258
21
106.719500
0
LINE
8
Layer 1
10
41.359258
20
106.719500
11
41.757120
21
106.459063
0
LINE
8
Layer 1
10
41.757120
20
106.459063
11
41.835553
21
101.527433
0
LINE
8
Layer 1
10
41.835553
20
101.527433
11
41.854510
21
98.705001
0
LINE
8
Layer 1
10
41.854510
20
98.705001
11
41.776568
21
96.033013
0
LINE
8
Layer 1
10
41.776568
20
96.033013
11
41.818521
21
94.008003
0
LINE
8
Layer 1
10
41.818521
20
94.008003
11
41.971403
21
85.429133
0
LINE
8
Layer 1
10
41.971403
20
85.429133
11
42.011563
21
73.170733
0
LINE
8
Layer 1
10
42.011563
20
73.170733
11
42.054040
21
68.080573
0
LINE
8
Layer 1
10
42.054040
20
68.080573
11
42.153252
21
61.091783
0
LINE
8
Layer 1
10
42.153252
20
61.091783
11
42.170502
21
59.570953
0
LINE
8
Layer 1
10
42.170502
20
59.570953
11
42.305483
21
53.496913
0
LINE
8
Layer 1
10
42.305483
20
53.496913
11
42.661729
21
47.463553
0
LINE
8
Layer 1
10
42.661729
20
47.463553
11
42.786266
21
44.436609
0
LINE
8
Layer 1
10
42.786266
20
44.436609
11
42.876844
21
41.384443
0
LINE
8
Layer 1
10
42.876844
20
41.384443
11
43.010465
21
38.865393
0
LINE
8
Layer 1
10
43.010465
20
38.865393
11
43.289246
21
34.386470
0
LINE
8
Layer 1
10
43.289246
20
34.386470
11
43.462644
21
29.810903
0
LINE
8
Layer 1
10
43.462644
20
29.810903
11
43.689198
21
24.224223
0
LINE
8
Layer 1
10
43.689198
20
24.224223
11
43.919833
21
18.160443
0
LINE
8
Layer 1
10
43.919833
20
18.160443
11
44.195143
21
9.555103
0
LINE
8
Layer 1
10
44.195143
20
9.555103
11
44.231253
21
8.730258
0
LINE
8
Layer 1
10
44.231253
20
8.730258
11
44.320477
21
7.513878
0
LINE
8
Layer 1
10
44.320477
20
7.513878
11
44.384657
21
3.518768
0
LINE
8
Layer 1
10
44.384657
20
3.518768
11
44.415137
21
2.285578
0
LINE
8
Layer 1
10
44.415137
20
2.285578
11
44.417209
21
4.359928
0
LINE
8
Layer 1
10
44.417209
20
4.359928
11
44.410811
21
12.387748
0
LINE
8
Layer 1
10
44.410811
20
12.387748
11
44.388736
21
17.975178
0
LINE
8
Layer 1
10
44.388736
20
17.975178
11
44.373185
21
22.475088
0
LINE
8
Layer 1
10
44.373185
20
22.475088
11
44.415777
21
26.940189
0
LINE
8
Layer 1
10
44.415777
20
26.940189
11
44.282631
21
31.361888
0
LINE
8
Layer 1
10
44.282631
20
31.361888
11
44.353029
21
33.601948
0
LINE
8
Layer 1
10
44.353029
20
33.601948
11
44.426237
21
35.338698
0
LINE
8
Layer 1
10
44.426237
20
35.338698
11
44.403575
21
38.281918
0
LINE
8
Layer 1
10
44.403575
20
38.281918
11
44.450847
21
43.309388
0
LINE
8
Layer 1
10
44.450847
20
43.309388
11
44.492334
21
44.763438
0
LINE
8
Layer 1
10
44.492334
20
44.763438
11
44.669435
21
44.385121
0
LINE
8
Layer 1
10
44.669435
20
44.385121
11
44.799384
21
43.621920
0
LINE
8
Layer 1
10
44.799384
20
43.621920
11
45.074840
21
42.387838
0
LINE
8
Layer 1
10
45.074840
20
42.387838
11
45.170266
21
43.990134
0
LINE
8
Layer 1
10
45.170266
20
43.990134
11
45.210532
21
45.660508
0
LINE
8
Layer 1
10
45.210532
20
45.660508
11
45.354320
21
47.563108
0
LINE
8
Layer 1
10
45.354320
20
47.563108
11
45.346684
21
49.471118
0
LINE
8
Layer 1
10
45.346684
20
49.471118
11
45.175289
21
49.347207
0
LINE
8
Layer 1
10
45.175289
20
49.347207
11
45.016902
21
49.390239
0
LINE
8
Layer 1
10
45.016902
20
49.390239
11
44.939209
21
50.705539
0
LINE
8
Layer 1
10
44.939209
20
50.705539
11
45.056074
21
54.201049
0
LINE
8
Layer 1
10
45.056074
20
54.201049
11
45.104507
21
57.196876
0
LINE
8
Layer 1
10
45.104507
20
57.196876
11
45.173461
21
60.179999
0
LINE
8
Layer 1
10
45.173461
20
60.179999
11
45.109309
21
62.156779
0
LINE
8
Layer 1
10
45.109309
20
62.156779
11
45.154332
21
66.559312
0
LINE
8
Layer 1
10
45.154332
20
66.559312
11
45.420233
21
70.954039
0
LINE
8
Layer 1
10
45.420233
20
70.954039
11
45.633124
21
73.588623
0
LINE
8
Layer 1
10
45.633124
20
73.588623
11
45.589067
21
76.231429
0
LINE
8
Layer 1
10
45.589067
20
76.231429
11
45.637019
21
79.682789
0
LINE
8
Layer 1
10
45.637019
20
79.682789
11
45.689020
21
81.393865
0
LINE
8
Layer 1
10
45.689020
20
81.393865
11
45.581771
21
83.102369
0
LINE
8
Layer 1
10
45.581771
20
83.102369
11
45.382330
21
85.742608
0
LINE
8
Layer 1
10
45.382330
20
85.742608
11
45.542384
21
87.633939
0
LINE
8
Layer 1
10
45.542384
20
87.633939
11
45.679744
21
90.001128
0
LINE
8
Layer 1
10
45.679744
20
90.001128
11
45.727660
21
93.192816
0
LINE
8
Layer 1
10
45.727660
20
93.192816
11
45.958052
21
96.376538
0
LINE
8
Layer 1
10
45.958052
20
96.376538
11
46.022884
21
99.322109
0
LINE
8
Layer 1
10
46.022884
20
99.322109
11
45.984988
21
101.826477
0
LINE
8
Layer 1
10
45.984988
20
101.826477
11
45.961978
21
104.341789
0
LINE
8
Layer 1
10
45.961978
20
104.341789
11
45.986468
21
106.831874
0
LINE
8
Layer 1
10
45.986468
20
106.831874
11
46.143890
21
109.237929
0
LINE
8
Layer 1
10
46.143890
20
109.237929
11
46.182473
21
110.748859
0
LINE
8
Layer 1
10
46.182473
20
110.748859
11
46.197344
21
116.330375
0
LINE
8
Layer 1
10
46.197344
20
116.330375
11
46.282797
21
121.887959
0
LINE
8
Layer 1
10
46.282797
20
121.887959
11
46.362849
21
127.481164
0
LINE
8
Layer 1
10
46.362849
20
127.481164
11
46.336035
21
133.097559
0
LINE
8
Layer 1
10
46.336035
20
133.097559
11
46.395609
21
134.575719
0
LINE
8
Layer 1
10
46.395609
20
134.575719
11
46.540358
21
144.247909
0
LINE
8
Layer 1
10
46.540358
20
144.247909
11
46.535784
21
146.291839
0
LINE
8
Layer 1
10
46.535784
20
146.291839
11
46.891691
21
166.647039
0
LINE
8
Layer 1
10
46.891691
20
166.647039
11
47.183664
21
188.086939
0
LINE
8
Layer 1
10
47.183664
20
188.086939
11
47.186322
21
188.372974
0
LINE
8
Layer 1
10
47.186322
20
188.372974
11
49.745622
21
186.492654
0
LINE
8
Layer 1
10
49.745622
20
186.492654
11
53.374282
21
183.826444
0
LINE
8
Layer 1
10
53.374282
20
183.826444
11
56.962812
21
181.058084
0
LINE
8
Layer 1
10
56.962812
20
181.058084
11
58.472232
21
179.938174
0
LINE
8
Layer 1
10
58.472232
20
179.938174
11
63.887572
21
175.900394
0
LINE
8
Layer 1
10
63.887572
20
175.900394
11
67.206832
21
173.382083
0
LINE
8
Layer 1
10
67.206832
20
173.382083
11
70.804422
21
170.642533
0
LINE
8
Layer 1
10
70.804422
20
170.642533
11
75.888122
21
166.728683
0
LINE
8
Layer 1
10
75.888122
20
166.728683
11
76.380678
21
166.359915
0
LINE
8
Layer 1
10
76.380678
20
166.359915
11
77.126004
21
165.838917
0
LINE
8
Layer 1
10
77.126004
20
165.838917
11
79.456094
21
163.985307
0
LINE
8
Layer 1
10
79.456094
20
163.985307
11
80.182161
21
163.419664
0
LINE
8
Layer 1
10
80.182161
20
163.419664
11
78.989661
21
164.404901
0
LINE
8
Layer 1
10
78.989661
20
164.404901
11
74.370601
21
168.206351
0
LINE
8
Layer 1
10
74.370601
20
168.206351
11
71.147061
21
170.841281
0
LINE
8
Layer 1
10
71.147061
20
170.841281
11
68.552081
21
172.964851
0
LINE
8
Layer 1
10
68.552081
20
172.964851
11
66.005974
21
175.107143
0
LINE
8
Layer 1
10
66.005974
20
175.107143
11
63.398441
21
177.123961
0
LINE
8
Layer 1
10
63.398441
20
177.123961
11
62.145191
21
178.227671
0
LINE
8
Layer 1
10
62.145191
20
178.227671
11
61.182182
21
179.094191
0
LINE
8
Layer 1
10
61.182182
20
179.094191
11
59.478952
21
180.475900
0
LINE
8
Layer 1
10
59.478952
20
180.475900
11
56.610912
21
182.886381
0
LINE
8
Layer 1
10
56.610912
20
182.886381
11
55.794571
21
183.599556
0
LINE
8
Layer 1
10
55.794571
20
183.599556
11
56.597590
21
183.236354
0
LINE
8
Layer 1
10
56.597590
20
183.236354
11
57.439471
21
182.811936
0
LINE
8
Layer 1
10
57.439471
20
182.811936
11
55.620201
21
184.438746
0
LINE
8
Layer 1
10
55.620201
20
184.438746
11
53.490631
21
186.319686
0
LINE
8
Layer 1
10
53.490631
20
186.319686
11
53.481159
21
186.162881
0
LINE
8
Layer 1
10
53.481159
20
186.162881
11
53.381651
21
186.092514
0
LINE
8
Layer 1
10
53.381651
20
186.092514
11
52.588043
21
186.670646
0
LINE
8
Layer 1
10
52.588043
20
186.670646
11
50.633373
21
188.394406
0
LINE
8
Layer 1
10
50.633373
20
188.394406
11
48.946922
21
189.858162
0
LINE
8
Layer 1
10
48.946922
20
189.858162
11
47.286143
21
191.338246
0
LINE
8
Layer 1
10
47.286143
20
191.338246
11
47.214634
21
191.405764
0
LINE
8
Layer 1
10
47.214634
20
191.405764
11
47.229414
21
192.993124
0
LINE
8
Layer 1
10
47.229414
20
192.993124
11
60.959814
21
203.300124
0
LINE
8
Layer 1
10
60.959814
20
203.300124
11
72.826814
21
212.213384
0
LINE
8
Layer 1
10
72.826814
20
212.213384
11
80.121304
21
217.715474
0
LINE
8
Layer 1
10
80.121304
20
217.715474
11
82.548254
21
219.554864
0
LINE
8
Layer 1
10
82.548254
20
219.554864
11
84.847234
21
221.369764
0
LINE
8
Layer 1
10
84.847234
20
221.369764
11
85.430099
21
221.830167
0
LINE
8
Layer 1
10
85.430099
20
221.830167
11
85.995277
21
222.294405
0
LINE
8
Layer 1
10
85.995277
20
222.294405
11
87.055307
21
223.236979
0
LINE
8
Layer 1
10
87.055307
20
223.236979
11
88.118887
21
224.183633
0
LINE
8
Layer 1
10
88.118887
20
224.183633
11
88.651976
21
224.658381
0
LINE
8
Layer 1
10
88.651976
20
224.658381
11
88.918845
21
224.896066
0
LINE
8
Layer 1
10
88.918845
20
224.896066
11
88.701441
21
225.169364
0
LINE
8
Layer 1
10
88.701441
20
225.169364
11
86.876641
21
227.370224
0
LINE
8
Layer 1
10
86.876641
20
227.370224
11
84.990601
21
229.603854
0
LINE
8
Layer 1
10
84.990601
20
229.603854
11
84.035136
21
230.728584
0
LINE
8
Layer 1
10
84.035136
20
230.728584
11
83.709587
21
231.118129
0
LINE
8
Layer 1
10
83.709587
20
231.118129
11
83.467759
21
231.412326
0
LINE
8
Layer 1
10
83.467759
20
231.412326
11
77.117949
21
239.030196
0
LINE
8
Layer 1
10
77.117949
20
239.030196
11
71.012469
21
246.345096
0
LINE
8
Layer 1
10
71.012469
20
246.345096
11
64.778129
21
253.564026
0
LINE
8
Layer 1
10
64.778129
20
253.564026
11
58.514800
21
260.757000
0
LINE
8
Layer 1
10
58.514800
20
260.757000
11
52.227070
21
267.928940
0
LINE
8
Layer 1
10
52.227070
20
267.928940
11
49.760140
21
270.727850
0
LINE
8
Layer 1
10
49.760140
20
270.727850
11
48.180390
21
272.520120
0
LINE
8
Layer 1
10
48.180390
20
272.520120
11
47.606616
21
273.180491
0
LINE
8
Layer 1
10
47.606616
20
273.180491
11
47.573444
21
288.376691
0
LINE
8
Layer 1
10
47.573444
20
288.376691
11
47.426375
21
307.223291
0
LINE
8
Layer 1
10
47.426375
20
307.223291
11
47.550505
21
307.059436
0
LINE
8
Layer 1
10
47.550505
20
307.059436
11
50.522695
21
303.251676
0
LINE
8
Layer 1
10
50.522695
20
303.251676
11
52.627065
21
300.707886
0
LINE
8
Layer 1
10
52.627065
20
300.707886
11
53.950065
21
299.166526
0
LINE
8
Layer 1
10
53.950065
20
299.166526
11
55.750095
21
297.143376
0
LINE
8
Layer 1
10
55.750095
20
297.143376
11
57.278745
21
295.552926
0
LINE
8
Layer 1
10
57.278745
20
295.552926
11
58.744575
21
294.022206
0
LINE
8
Layer 1
10
58.744575
20
294.022206
11
64.892045
21
288.141206
0
LINE
8
Layer 1
10
64.892045
20
288.141206
11
65.339804
21
287.747089
0
LINE
8
Layer 1
10
65.339804
20
287.747089
11
66.357354
21
286.840008
0
LINE
8
Layer 1
10
66.357354
20
286.840008
11
68.144804
21
285.144938
0
LINE
8
Layer 1
10
68.144804
20
285.144938
11
69.419754
21
283.898148
0
LINE
8
Layer 1
10
69.419754
20
283.898148
11
70.642924
21
282.721108
0
LINE
8
Layer 1
10
70.642924
20
282.721108
11
70.837939
21
282.559849
0
LINE
8
Layer 1
10
70.837939
20
282.559849
11
71.542024
21
281.950551
0
LINE
8
Layer 1
10
71.542024
20
281.950551
11
72.301049
21
281.277940
0
LINE
8
Layer 1
10
72.301049
20
281.277940
11
72.911382
21
280.779058
0
LINE
8
Layer 1
10
72.911382
20
280.779058
11
73.404539
21
280.164090
0
LINE
8
Layer 1
10
73.404539
20
280.164090
11
73.624229
21
279.923312
0
LINE
8
Layer 1
10
73.624229
20
279.923312
11
74.120158
21
279.457344
0
LINE
8
Layer 1
10
74.120158
20
279.457344
11
76.403818
21
277.299894
0
LINE
8
Layer 1
10
76.403818
20
277.299894
11
77.085827
21
276.663266
0
LINE
8
Layer 1
10
77.085827
20
276.663266
11
77.768457
21
276.035172
0
LINE
8
Layer 1
10
77.768457
20
276.035172
11
78.403174
21
275.381357
0
LINE
8
Layer 1
10
78.403174
20
275.381357
11
78.653350
21
275.155176
0
LINE
8
Layer 1
10
78.653350
20
275.155176
11
79.702680
21
274.187126
0
LINE
8
Layer 1
10
79.702680
20
274.187126
11
81.155520
21
272.761906
0
LINE
8
Layer 1
10
81.155520
20
272.761906
11
81.762684
21
272.173631
0
LINE
8
Layer 1
10
81.762684
20
272.173631
11
82.601070
21
271.370057
0
LINE
8
Layer 1
10
82.601070
20
271.370057
11
82.783352
21
271.195195
0
LINE
8
Layer 1
10
82.783352
20
271.195195
11
83.518106
21
270.502425
0
LINE
8
Layer 1
10
83.518106
20
270.502425
11
84.244235
21
269.810894
0
LINE
8
Layer 1
10
84.244235
20
269.810894
11
84.954320
21
269.094615
0
LINE
8
Layer 1
10
84.954320
20
269.094615
11
85.254237
21
268.803015
0
LINE
8
Layer 1
10
85.254237
20
268.803015
11
86.326717
21
267.749635
0
LINE
8
Layer 1
10
86.326717
20
267.749635
11
86.980038
21
267.091984
0
LINE
8
Layer 1
10
86.980038
20
267.091984
11
87.686380
21
266.375705
0
LINE
8
Layer 1
10
87.686380
20
266.375705
11
88.680397
21
265.351765
0
LINE
8
Layer 1
10
88.680397
20
265.351765
11
88.776761
21
265.254565
0
LINE
8
Layer 1
10
88.776761
20
265.254565
11
88.923119
21
265.115071
0
LINE
8
Layer 1
10
88.923119
20
265.115071
11
89.375919
21
264.631788
0
LINE
8
Layer 1
10
89.375919
20
264.631788
11
89.514422
21
264.486235
0
LINE
8
Layer 1
10
89.514422
20
264.486235
11
89.285983
21
264.738510
0
LINE
8
Layer 1
10
89.285983
20
264.738510
11
88.391000
21
265.723000
0
LINE
8
Layer 1
10
88.391000
20
265.723000
11
88.391000
21
265.723000
0
LINE
8
Layer 1
10
62.410400
20
177.329200
11
62.728433
21
177.025357
0
LINE
8
Layer 1
10
62.728433
20
177.025357
11
62.494398
21
177.183401
0
LINE
8
Layer 1
10
62.494398
20
177.183401
11
61.407078
21
178.069829
0
LINE
8
Layer 1
10
61.407078
20
178.069829
11
62.410400
21
177.330000
0
LINE
8
Layer 1
10
62.410400
20
177.330000
11
62.410400
21
177.329200
0
LINE
8
Layer 1
10
30.524100
20
205.361000
11
30.275039
21
205.491838
0
LINE
8
Layer 1
10
30.275039
20
205.491838
11
26.913979
21
208.376688
0
LINE
8
Layer 1
10
26.913979
20
208.376688
11
26.802990
21
208.560454
0
LINE
8
Layer 1
10
26.802990
20
208.560454
11
27.121619
21
208.504436
0
LINE
8
Layer 1
10
27.121619
20
208.504436
11
28.942829
21
207.034556
0
LINE
8
Layer 1
10
28.942829
20
207.034556
11
30.466559
21
205.617726
0
LINE
8
Layer 1
10
30.466559
20
205.617726
11
30.524100
21
205.361000
0
LINE
8
Layer 1
10
30.524100
20
205.361000
11
30.524100
21
205.361000
0
LINE
8
Layer 1
10
38.784100
20
197.702000
11
38.336648
21
197.940176
0
LINE
8
Layer 1
10
38.336648
20
197.940176
11
38.014565
21
198.202719
0
LINE
8
Layer 1
10
38.014565
20
198.202719
11
36.099155
21
199.851789
0
LINE
8
Layer 1
10
36.099155
20
199.851789
11
35.426804
21
200.427047
0
LINE
8
Layer 1
10
35.426804
20
200.427047
11
35.267540
21
200.714598
0
LINE
8
Layer 1
10
35.267540
20
200.714598
11
35.586626
21
200.657219
0
LINE
8
Layer 1
10
35.586626
20
200.657219
11
36.301913
21
200.270294
0
LINE
8
Layer 1
10
36.301913
20
200.270294
11
36.927556
21
199.750756
0
LINE
8
Layer 1
10
36.927556
20
199.750756
11
38.753536
21
197.824676
0
LINE
8
Layer 1
10
38.753536
20
197.824676
11
38.784100
21
197.702000
0
LINE
8
Layer 1
10
38.784100
20
197.702000
11
38.784100
21
197.702000
0
LINE
8
Layer 1
10
38.382343
20
199.341300
11
36.449273
21
201.039590
0
LINE
8
Layer 1
10
36.449273
20
201.039590
11
35.509899
21
201.904082
0
LINE
8
Layer 1
10
35.509899
20
201.904082
11
34.468963
21
202.643150
0
LINE
8
Layer 1
10
34.468963
20
202.643150
11
32.833463
21
203.752180
0
LINE
8
Layer 1
10
32.833463
20
203.752180
11
31.862447
21
204.789980
0
LINE
8
Layer 1
10
31.862447
20
204.789980
11
30.608147
21
206.041590
0
LINE
8
Layer 1
10
30.608147
20
206.041590
11
28.821720
21
207.620970
0
LINE
8
Layer 1
10
28.821720
20
207.620970
11
27.177600
21
209.348000
0
LINE
8
Layer 1
10
27.177600
20
209.348000
11
26.414824
21
210.142363
0
LINE
8
Layer 1
10
26.414824
20
210.142363
11
25.551150
21
210.825670
0
LINE
8
Layer 1
10
25.551150
20
210.825670
11
24.100379
21
211.999620
0
LINE
8
Layer 1
10
24.100379
20
211.999620
11
22.652600
21
213.189890
0
LINE
8
Layer 1
10
22.652600
20
213.189890
11
21.254900
21
214.411561
0
LINE
8
Layer 1
10
21.254900
20
214.411561
11
20.007410
21
215.716980
0
LINE
8
Layer 1
10
20.007410
20
215.716980
11
19.178301
21
216.481105
0
LINE
8
Layer 1
10
19.178301
20
216.481105
11
16.016665
21
219.184481
0
LINE
8
Layer 1
10
16.016665
20
219.184481
11
12.924081
21
221.943515
0
LINE
8
Layer 1
10
12.924081
20
221.943515
11
11.353801
21
223.316685
0
LINE
8
Layer 1
10
11.353801
20
223.316685
11
10.580834
21
224.016009
0
LINE
8
Layer 1
10
10.580834
20
224.016009
11
10.387853
21
224.191119
0
LINE
8
Layer 1
10
10.387853
20
224.191119
11
10.291333
21
224.278673
0
LINE
8
Layer 1
10
10.291333
20
224.278673
11
10.239703
21
224.321957
0
LINE
8
Layer 1
10
10.239703
20
224.321957
11
10.076579
21
224.451432
0
LINE
8
Layer 1
10
10.076579
20
224.451432
11
9.752024
21
224.698269
0
LINE
8
Layer 1
10
9.752024
20
224.698269
11
9.588538
21
224.817110
0
LINE
8
Layer 1
10
9.588538
20
224.817110
11
9.440450
21
224.948690
0
LINE
8
Layer 1
10
9.440450
20
224.948690
11
9.117436
21
225.207891
0
LINE
8
Layer 1
10
9.117436
20
225.207891
11
8.935279
21
225.338726
0
LINE
8
Layer 1
10
8.935279
20
225.338726
11
8.889771
21
225.372116
0
LINE
8
Layer 1
10
8.889771
20
225.372116
11
8.915369
21
225.410453
0
LINE
8
Layer 1
10
8.915369
20
225.410453
11
8.964834
21
225.488239
0
LINE
8
Layer 1
10
8.964834
20
225.488239
11
9.365632
21
225.802352
0
LINE
8
Layer 1
10
9.365632
20
225.802352
11
9.904563
21
226.265848
0
LINE
8
Layer 1
10
9.904563
20
226.265848
11
10.145581
21
226.481025
0
LINE
8
Layer 1
10
10.145581
20
226.481025
11
10.771202
21
227.126306
0
LINE
8
Layer 1
10
10.771202
20
227.126306
11
13.220262
21
229.792646
0
LINE
8
Layer 1
10
13.220262
20
229.792646
11
14.234502
21
230.928756
0
LINE
8
Layer 1
10
14.234502
20
230.928756
11
24.747000
21
241.882000
0
LINE
8
Layer 1
10
24.747000
20
241.882000
11
35.707200
21
253.517700
0
LINE
8
Layer 1
10
35.707200
20
253.517700
11
41.251000
21
259.521000
0
LINE
8
Layer 1
10
41.251000
20
259.521000
11
41.249363
21
259.019415
0
LINE
8
Layer 1
10
41.249363
20
259.019415
11
41.275045
21
207.820215
0
LINE
8
Layer 1
10
41.275045
20
207.820215
11
41.311435
21
204.244205
0
LINE
8
Layer 1
10
41.311435
20
204.244205
11
41.382355
21
196.570065
0
LINE
8
Layer 1
10
41.382355
20
196.570065
11
41.283577
21
196.678272
0
LINE
8
Layer 1
10
41.283577
20
196.678272
11
39.913605
21
198.097529
0
LINE
8
Layer 1
10
39.913605
20
198.097529
11
38.382300
21
199.341000
0
LINE
8
Layer 1
10
38.382300
20
199.341000
11
38.382343
21
199.341300
0
LINE
8
Layer 1
10
31.069553
20
116.954300
11
30.975229
21
116.958751
0
LINE
8
Layer 1
10
30.975229
20
116.958751
11
30.112172
21
117.804249
0
LINE
8
Layer 1
10
30.112172
20
117.804249
11
30.116066
21
117.894153
0
LINE
8
Layer 1
10
30.116066
20
117.894153
11
30.277480
21
117.966495
0
LINE
8
Layer 1
10
30.277480
20
117.966495
11
30.779313
21
117.573738
0
LINE
8
Layer 1
10
30.779313
20
117.573738
11
31.130705
21
117.114075
0
LINE
8
Layer 1
10
31.130705
20
117.114075
11
31.069500
21
116.954000
0
LINE
8
Layer 1
10
31.069500
20
116.954000
11
31.069553
21
116.954300
0
LINE
8
Layer 1
10
32.982093
20
114.477290
11
32.813815
21
114.487679
0
LINE
8
Layer 1
10
32.813815
20
114.487679
11
32.726013
21
114.558909
0
LINE
8
Layer 1
10
32.726013
20
114.558909
11
32.235991
21
115.044294
0
LINE
8
Layer 1
10
32.235991
20
115.044294
11
32.062652
21
115.212045
0
LINE
8
Layer 1
10
32.062652
20
115.212045
11
32.076990
21
115.357908
0
LINE
8
Layer 1
10
32.076990
20
115.357908
11
32.238218
21
115.429386
0
LINE
8
Layer 1
10
32.238218
20
115.429386
11
32.500033
21
115.410405
0
LINE
8
Layer 1
10
32.500033
20
115.410405
11
32.672033
21
115.263439
0
LINE
8
Layer 1
10
32.672033
20
115.263439
11
33.009571
21
114.552612
0
LINE
8
Layer 1
10
33.009571
20
114.552612
11
32.982100
21
114.477000
0
LINE
8
Layer 1
10
32.982100
20
114.477000
11
32.982093
21
114.477290
0
LINE
8
Layer 1
10
34.709413
20
112.911800
11
34.563922
21
113.048325
0
LINE
8
Layer 1
10
34.563922
20
113.048325
11
34.607172
21
113.069844
0
LINE
8
Layer 1
10
34.607172
20
113.069844
11
34.753592
21
112.938512
0
LINE
8
Layer 1
10
34.753592
20
112.938512
11
34.709400
21
112.912000
0
LINE
8
Layer 1
10
34.709400
20
112.912000
11
34.709413
21
112.911800
0
LINE
8
Layer 1
10
39.009633
20
108.396430
11
38.713272
21
108.636957
0
LINE
8
Layer 1
10
38.713272
20
108.636957
11
39.015075
21
108.469269
0
LINE
8
Layer 1
10
39.015075
20
108.469269
11
39.085441
21
108.367615
0
LINE
8
Layer 1
10
39.085441
20
108.367615
11
39.009600
21
108.396000
0
LINE
8
Layer 1
10
39.009600
20
108.396000
11
39.009633
21
108.396430
0
LINE
8
Layer 1
10
41.628373
20
106.979600
11
40.924102
21
107.559710
0
LINE
8
Layer 1
10
40.924102
20
107.559710
11
40.254487
21
108.169950
0
LINE
8
Layer 1
10
40.254487
20
108.169950
11
39.503902
21
108.670840
0
LINE
8
Layer 1
10
39.503902
20
108.670840
11
39.192329
21
109.005600
0
LINE
8
Layer 1
10
39.192329
20
109.005600
11
38.959654
21
109.275808
0
LINE
8
Layer 1
10
38.959654
20
109.275808
11
38.492912
21
109.648039
0
LINE
8
Layer 1
10
38.492912
20
109.648039
11
37.737686
21
110.333638
0
LINE
8
Layer 1
10
37.737686
20
110.333638
11
37.532618
21
110.547701
0
LINE
8
Layer 1
10
37.532618
20
110.547701
11
37.858200
21
110.574227
0
LINE
8
Layer 1
10
37.858200
20
110.574227
11
38.183526
21
110.571444
0
LINE
8
Layer 1
10
38.183526
20
110.571444
11
37.740313
21
111.074883
0
LINE
8
Layer 1
10
37.740313
20
111.074883
11
37.212882
21
111.647822
0
LINE
8
Layer 1
10
37.212882
20
111.647822
11
37.067453
21
111.450332
0
LINE
8
Layer 1
10
37.067453
20
111.450332
11
36.825967
21
111.577829
0
LINE
8
Layer 1
10
36.825967
20
111.577829
11
36.340827
21
112.101673
0
LINE
8
Layer 1
10
36.340827
20
112.101673
11
35.913726
21
112.537283
0
LINE
8
Layer 1
10
35.913726
20
112.537283
11
35.507265
21
112.993297
0
LINE
8
Layer 1
10
35.507265
20
112.993297
11
35.176151
21
113.222461
0
LINE
8
Layer 1
10
35.176151
20
113.222461
11
34.527072
21
113.865396
0
LINE
8
Layer 1
10
34.527072
20
113.865396
11
34.034691
21
114.634961
0
LINE
8
Layer 1
10
34.034691
20
114.634961
11
33.785194
21
115.133576
0
LINE
8
Layer 1
10
33.785194
20
115.133576
11
33.352865
21
115.485651
0
LINE
8
Layer 1
10
33.352865
20
115.485651
11
32.870830
21
115.999354
0
LINE
8
Layer 1
10
32.870830
20
115.999354
11
32.649055
21
116.277965
0
LINE
8
Layer 1
10
32.649055
20
116.277965
11
32.327076
21
116.430078
0
LINE
8
Layer 1
10
32.327076
20
116.430078
11
32.079055
21
116.466019
0
LINE
8
Layer 1
10
32.079055
20
116.466019
11
31.799152
21
116.634867
0
LINE
8
Layer 1
10
31.799152
20
116.634867
11
31.624629
21
117.022310
0
LINE
8
Layer 1
10
31.624629
20
117.022310
11
31.366636
21
117.460578
0
LINE
8
Layer 1
10
31.366636
20
117.460578
11
30.910450
21
117.964063
0
LINE
8
Layer 1
10
30.910450
20
117.964063
11
30.618432
21
118.577518
0
LINE
8
Layer 1
10
30.618432
20
118.577518
11
30.230682
21
119.043983
0
LINE
8
Layer 1
10
30.230682
20
119.043983
11
29.832033
21
119.358894
0
LINE
8
Layer 1
10
29.832033
20
119.358894
11
29.441081
21
119.686422
0
LINE
8
Layer 1
10
29.441081
20
119.686422
11
29.090218
21
120.053336
0
LINE
8
Layer 1
10
29.090218
20
120.053336
11
28.855778
21
120.531547
0
LINE
8
Layer 1
10
28.855778
20
120.531547
11
28.662117
21
120.777021
0
LINE
8
Layer 1
10
28.662117
20
120.777021
11
27.846434
21
121.564983
0
LINE
8
Layer 1
10
27.846434
20
121.564983
11
27.090617
21
122.416201
0
LINE
8
Layer 1
10
27.090617
20
122.416201
11
26.326226
21
123.268548
0
LINE
8
Layer 1
10
26.326226
20
123.268548
11
25.465817
21
124.014711
0
LINE
8
Layer 1
10
25.465817
20
124.014711
11
25.296484
21
124.278487
0
LINE
8
Layer 1
10
25.296484
20
124.278487
11
23.978004
21
125.756407
0
LINE
8
Layer 1
10
23.978004
20
125.756407
11
23.667842
21
126.031438
0
LINE
8
Layer 1
10
23.667842
20
126.031438
11
20.934292
21
129.190328
0
LINE
8
Layer 1
10
20.934292
20
129.190328
11
19.460452
21
130.812068
0
LINE
8
Layer 1
10
19.460452
20
130.812068
11
18.712589
21
131.611067
0
LINE
8
Layer 1
10
18.712589
20
131.611067
11
18.335783
21
132.007414
0
LINE
8
Layer 1
10
18.335783
20
132.007414
11
18.146203
21
132.204286
0
LINE
8
Layer 1
10
18.146203
20
132.204286
11
18.051292
21
132.302601
0
LINE
8
Layer 1
10
18.051292
20
132.302601
11
18.027424
21
132.303468
0
LINE
8
Layer 1
10
18.027424
20
132.303468
11
17.667004
21
132.235204
0
LINE
8
Layer 1
10
17.667004
20
132.235204
11
17.689943
21
132.393000
0
LINE
8
Layer 1
10
17.689943
20
132.393000
11
17.773481
21
132.440611
0
LINE
8
Layer 1
10
17.773481
20
132.440611
11
17.976540
21
132.453844
0
LINE
8
Layer 1
10
17.976540
20
132.453844
11
18.006898
21
132.452608
0
LINE
8
Layer 1
10
18.006898
20
132.452608
11
18.019697
21
132.451741
0
LINE
8
Layer 1
10
18.019697
20
132.451741
11
18.041400
21
132.438632
0
LINE
8
Layer 1
10
18.041400
20
132.438632
11
18.176381
21
132.315092
0
LINE
8
Layer 1
10
18.176381
20
132.315092
11
18.407944
21
132.066525
0
LINE
8
Layer 1
10
18.407944
20
132.066525
11
18.434594
21
132.035732
0
LINE
8
Layer 1
10
18.434594
20
132.035732
11
18.447763
21
132.020399
0
LINE
8
Layer 1
10
18.447763
20
132.020399
11
18.513058
21
132.073203
0
LINE
8
Layer 1
10
18.513058
20
132.073203
11
18.778691
21
132.291595
0
LINE
8
Layer 1
10
18.778691
20
132.291595
11
19.306491
21
132.732708
0
LINE
8
Layer 1
10
19.306491
20
132.732708
11
22.759693
21
135.726873
0
LINE
8
Layer 1
10
22.759693
20
135.726873
11
26.118441
21
138.839148
0
LINE
8
Layer 1
10
26.118441
20
138.839148
11
29.945191
21
142.850218
0
LINE
8
Layer 1
10
29.945191
20
142.850218
11
33.538211
21
146.814788
0
LINE
8
Layer 1
10
33.538211
20
146.814788
11
37.165171
21
150.746088
0
LINE
8
Layer 1
10
37.165171
20
150.746088
11
39.473871
21
153.173628
0
LINE
8
Layer 1
10
39.473871
20
153.173628
11
41.535481
21
155.429888
0
LINE
8
Layer 1
10
41.535481
20
155.429888
11
41.548251
21
153.200828
0
LINE
8
Layer 1
10
41.548251
20
153.200828
11
41.638619
21
147.117878
0
LINE
8
Layer 1
10
41.638619
20
147.117878
11
41.776126
21
142.391937
0
LINE
8
Layer 1
10
41.776126
20
142.391937
11
41.586834
21
137.667788
0
LINE
8
Layer 1
10
41.586834
20
137.667788
11
41.547323
21
135.701148
0
LINE
8
Layer 1
10
41.547323
20
135.701148
11
41.572889
21
131.608708
0
LINE
8
Layer 1
10
41.572889
20
131.608708
11
41.693556
21
112.710608
0
LINE
8
Layer 1
10
41.693556
20
112.710608
11
41.752484
21
107.101548
0
LINE
8
Layer 1
10
41.752484
20
107.101548
11
41.754059
21
106.881415
0
LINE
8
Layer 1
10
41.754059
20
106.881415
11
41.628300
21
106.979000
0
LINE
8
Layer 1
10
41.628300
20
106.979000
11
41.628373
21
106.979600
0
LINE
8
Layer 1
10
43.629453
20
31.972300
11
43.593684
21
32.349478
0
LINE
8
Layer 1
10
43.593684
20
32.349478
11
43.580327
21
34.231898
0
LINE
8
Layer 1
10
43.580327
20
34.231898
11
43.670324
21
32.560938
0
LINE
8
Layer 1
10
43.670324
20
32.560938
11
43.629400
21
31.972000
0
LINE
8
Layer 1
10
43.629400
20
31.972000
11
43.629453
21
31.972300
0
LINE
8
Layer 1
10
44.522776
20
62.844000
11
44.464686
21
62.925125
0
LINE
8
Layer 1
10
44.464686
20
62.925125
11
44.476463
21
63.908011
0
LINE
8
Layer 1
10
44.476463
20
63.908011
11
44.528497
21
63.813407
0
LINE
8
Layer 1
10
44.528497
20
63.813407
11
44.522776
21
62.844000
0
LINE
8
Layer 1
10
44.949699
20
78.087400
11
44.624430
21
74.552440
0
LINE
8
Layer 1
10
44.624430
20
74.552440
11
44.545501
21
74.416036
0
LINE
8
Layer 1
10
44.545501
20
74.416036
11
44.439335
21
75.082836
0
LINE
8
Layer 1
10
44.439335
20
75.082836
11
44.436984
21
75.640442
0
LINE
8
Layer 1
10
44.436984
20
75.640442
11
44.491676
21
79.031572
0
LINE
8
Layer 1
10
44.491676
20
79.031572
11
44.507261
21
80.218817
0
LINE
8
Layer 1
10
44.507261
20
80.218817
11
44.627399
21
80.629192
0
LINE
8
Layer 1
10
44.627399
20
80.629192
11
44.786832
21
80.249790
0
LINE
8
Layer 1
10
44.786832
20
80.249790
11
44.948333
21
79.174475
0
LINE
8
Layer 1
10
44.948333
20
79.174475
11
44.949700
21
78.087100
0
LINE
8
Layer 1
10
44.949700
20
78.087100
11
44.949699
21
78.087400
0
LINE
8
Layer 1
10
45.293640
20
89.786200
11
45.144779
21
89.507461
0
LINE
8
Layer 1
10
45.144779
20
89.507461
11
45.089464
21
89.877096
0
LINE
8
Layer 1
10
45.089464
20
89.877096
11
45.143137
21
95.820056
0
LINE
8
Layer 1
10
45.143137
20
95.820056
11
45.205462
21
96.091870
0
LINE
8
Layer 1
10
45.205462
20
96.091870
11
45.349903
21
95.714076
0
LINE
8
Layer 1
10
45.349903
20
95.714076
11
45.390495
21
92.573486
0
LINE
8
Layer 1
10
45.390495
20
92.573486
11
45.293600
21
89.785900
0
LINE
8
Layer 1
10
45.293600
20
89.785900
11
45.293640
21
89.786200
0
LINE
8
Layer 1
10
49.662200
20
256.589000
11
56.355030
21
249.012680
0
LINE
8
Layer 1
10
56.355030
20
249.012680
11
67.587330
21
236.537880
0
LINE
8
Layer 1
10
67.587330
20
236.537880
11
73.245980
21
230.338190
0
LINE
8
Layer 1
10
73.245980
20
230.338190
11
76.086750
21
227.248920
0
LINE
8
Layer 1
10
76.086750
20
227.248920
11
77.510470
21
225.707420
0
LINE
8
Layer 1
10
77.510470
20
225.707420
11
77.688487
21
225.514750
0
LINE
8
Layer 1
10
77.688487
20
225.514750
11
77.705087
21
225.497066
0
LINE
8
Layer 1
10
77.705087
20
225.497066
11
77.705900
21
225.498000
0
LINE
8
Layer 1
10
77.705900
20
225.498000
11
77.708621
21
225.497754
0
LINE
8
Layer 1
10
77.708621
20
225.497754
11
77.715733
21
225.495779
0
LINE
8
Layer 1
10
77.715733
20
225.495779
11
77.807737
21
225.478219
0
LINE
8
Layer 1
10
77.807737
20
225.478219
11
77.830368
21
225.448044
0
LINE
8
Layer 1
10
77.830368
20
225.448044
11
77.840139
21
225.430854
0
LINE
8
Layer 1
10
77.840139
20
225.430854
11
77.812529
21
225.438398
0
LINE
8
Layer 1
10
77.812529
20
225.438398
11
77.736047
21
225.460163
0
LINE
8
Layer 1
10
77.736047
20
225.460163
11
77.715950
21
225.464368
0
LINE
8
Layer 1
10
77.715950
20
225.464368
11
77.711776
21
225.463131
0
LINE
8
Layer 1
10
77.711776
20
225.463131
11
77.682191
21
225.437037
0
LINE
8
Layer 1
10
77.682191
20
225.437037
11
77.623079
21
225.384727
0
LINE
8
Layer 1
10
77.623079
20
225.384727
11
77.504828
21
225.280107
0
LINE
8
Layer 1
10
77.504828
20
225.280107
11
77.031996
21
224.861625
0
LINE
8
Layer 1
10
77.031996
20
224.861625
11
75.144406
21
223.183495
0
LINE
8
Layer 1
10
75.144406
20
223.183495
11
67.617886
21
216.446115
0
LINE
8
Layer 1
10
67.617886
20
216.446115
11
53.178886
21
203.440615
0
LINE
8
Layer 1
10
53.178886
20
203.440615
11
47.277446
21
198.151475
0
LINE
8
Layer 1
10
47.277446
20
198.151475
11
47.393439
21
210.584275
0
LINE
8
Layer 1
10
47.393439
20
210.584275
11
47.429860
21
216.212875
0
LINE
8
Layer 1
10
47.429860
20
216.212875
11
47.614738
21
243.327275
0
LINE
8
Layer 1
10
47.614738
20
243.327275
11
47.618294
21
258.964975
0
LINE
8
Layer 1
10
47.618294
20
258.964975
11
49.662200
21
256.589000
0
LINE
8
Layer 1
10
49.662200
20
256.589000
11
49.662200
21
256.589000
0
LINE
8
Layer 1
10
79.972300
20
275.344500
11
79.918678
21
275.378632
0
LINE
8
Layer 1
10
79.918678
20
275.378632
11
79.280631
21
276.129771
0
LINE
8
Layer 1
10
79.280631
20
276.129771
11
79.266686
21
276.177878
0
LINE
8
Layer 1
10
79.266686
20
276.177878
11
79.344534
21
276.164027
0
LINE
8
Layer 1
10
79.344534
20
276.164027
11
79.696637
21
275.780544
0
LINE
8
Layer 1
10
79.696637
20
275.780544
11
79.977078
21
275.411279
0
LINE
8
Layer 1
10
79.977078
20
275.411279
11
79.972300
21
275.345000
0
LINE
8
Layer 1
10
79.972300
20
275.345000
11
79.972300
21
275.344500
0
LINE
8
Layer 1
10
81.507040
20
273.359440
11
81.411911
21
273.422376
0
LINE
8
Layer 1
10
81.411911
20
273.422376
11
81.349337
21
273.490391
0
LINE
8
Layer 1
10
81.349337
20
273.490391
11
80.983072
21
273.917034
0
LINE
8
Layer 1
10
80.983072
20
273.917034
11
80.834301
21
274.139507
0
LINE
8
Layer 1
10
80.834301
20
274.139507
11
80.910171
21
274.123420
0
LINE
8
Layer 1
10
80.910171
20
274.123420
11
81.182606
21
273.886726
0
LINE
8
Layer 1
10
81.182606
20
273.886726
11
81.507444
21
273.390334
0
LINE
8
Layer 1
10
81.507444
20
273.390334
11
81.507100
21
273.360000
0
LINE
8
Layer 1
10
81.507100
20
273.360000
11
81.507040
21
273.359440
0
LINE
8
Layer 1
10
82.770090
20
271.933710
11
82.662685
21
272.056138
0
LINE
8
Layer 1
10
82.662685
20
272.056138
11
82.681978
21
272.052551
0
LINE
8
Layer 1
10
82.681978
20
272.052551
11
82.788762
21
271.932474
0
LINE
8
Layer 1
10
82.788762
20
271.932474
11
82.770100
21
271.934000
0
LINE
8
Layer 1
10
82.770100
20
271.934000
11
82.770090
21
271.933710
0
LINE
8
Layer 1
10
86.060160
20
268.075740
11
85.848135
21
268.304642
0
LINE
8
Layer 1
10
85.848135
20
268.304642
11
86.046616
21
268.110736
0
LINE
8
Layer 1
10
86.046616
20
268.110736
11
86.106997
21
268.033816
0
LINE
8
Layer 1
10
86.106997
20
268.033816
11
86.060200
21
268.076000
0
LINE
8
Layer 1
10
86.060200
20
268.076000
11
86.060160
21
268.075740
0
LINE
8
Layer 1
10
89.514500
20
264.487000
11
89.527516
21
264.472655
0
LINE
8
Layer 1
10
89.527516
20
264.472655
11
89.565263
21
264.431845
0
LINE
8
Layer 1
10
89.565263
20
264.431845
11
89.517469
21
264.483907
0
LINE
8
Layer 1
10
89.517469
20
264.483907
11
89.514500
21
264.487000
0
LINE
8
Layer 1
10
86.581000
20
267.807000
11
86.652758
21
267.742199
0
LINE
8
Layer 1
10
86.652758
20
267.742199
11
86.599858
21
267.822954
0
LINE
8
Layer 1
10
86.599858
20
267.822954
11
85.893485
21
268.648662
0
LINE
8
Layer 1
10
85.893485
20
268.648662
11
85.613817
21
268.864457
0
LINE
8
Layer 1
10
85.613817
20
268.864457
11
86.301239
21
268.119007
0
LINE
8
Layer 1
10
86.301239
20
268.119007
11
86.581000
21
267.807000
0
LINE
8
Layer 1
10
86.581000
20
267.807000
11
86.581000
21
267.807000
0
LINE
8
Layer 1
10
89.762600
20
264.217000
11
89.678447
21
264.308513
0
LINE
8
Layer 1
10
89.678447
20
264.308513
11
89.565169
21
264.430941
0
LINE
8
Layer 1
10
89.565169
20
264.430941
11
89.665555
21
264.321622
0
LINE
8
Layer 1
10
89.665555
20
264.321622
11
89.762600
21
264.217000
0
LINE
8
Layer 1
10
89.762600
20
264.217000
11
89.762600
21
264.217000
0
LINE
8
Layer 1
10
83.889800
20
270.975000
11
83.849981
21
271.028794
0
LINE
8
Layer 1
10
83.849981
20
271.028794
11
83.802492
21
271.078011
0
LINE
8
Layer 1
10
83.802492
20
271.078011
11
83.853503
21
271.004915
0
LINE
8
Layer 1
10
83.853503
20
271.004915
11
83.889800
21
270.975000
0
LINE
8
Layer 1
10
83.889800
20
270.975000
11
83.889800
21
270.975000
0
LINE
8
Layer 1
10
39.234600
20
109.677000
11
39.019110
21
109.825552
0
LINE
8
Layer 1
10
39.019110
20
109.825552
11
38.737283
21
109.747612
0
LINE
8
Layer 1
10
38.737283
20
109.747612
11
39.711606
21
108.978913
0
LINE
8
Layer 1
10
39.711606
20
108.978913
11
40.098182
21
108.642174
0
LINE
8
Layer 1
10
40.098182
20
108.642174
11
40.215818
21
108.599014
0
LINE
8
Layer 1
10
40.215818
20
108.599014
11
40.169251
21
108.724656
0
LINE
8
Layer 1
10
40.169251
20
108.724656
11
39.234600
21
109.677000
0
LINE
8
Layer 1
10
39.234600
20
109.677000
11
39.234600
21
109.677000
0
LINE
8
Layer 1
10
36.425700
20
112.426000
11
36.480979
21
112.323977
0
LINE
8
Layer 1
10
36.480979
20
112.323977
11
36.542193
21
112.308147
0
LINE
8
Layer 1
10
36.542193
20
112.308147
11
36.495818
21
112.379501
0
LINE
8
Layer 1
10
36.495818
20
112.379501
11
36.425700
21
112.426000
0
LINE
8
Layer 1
10
61.349900
20
179.583000
11
60.594877
21
180.171971
0
LINE
8
Layer 1
10
60.594877
20
180.171971
11
59.973670
21
180.371116
0
LINE
8
Layer 1
10
59.973670
20
180.371116
11
63.518030
21
177.504196
0
LINE
8
Layer 1
10
63.518030
20
177.504196
11
64.966880
21
176.299956
0
LINE
8
Layer 1
10
64.966880
20
176.299956
11
65.327952
21
176.057810
0
LINE
8
Layer 1
10
65.327952
20
176.057810
11
65.038917
21
176.381440
0
LINE
8
Layer 1
10
65.038917
20
176.381440
11
61.349900
21
179.583000
0
LINE
8
Layer 1
10
61.349900
20
179.583000
11
61.349900
21
179.583000
0
LINE
8
Layer 1
10
81.448800
20
162.395000
11
81.014491
21
162.747444
0
LINE
8
Layer 1
10
81.014491
20
162.747444
11
80.361294
21
163.273638
0
LINE
8
Layer 1
10
80.361294
20
163.273638
11
80.948299
21
162.796539
0
LINE
8
Layer 1
10
80.948299
20
162.796539
11
81.404687
21
162.430192
0
LINE
8
Layer 1
10
81.404687
20
162.430192
11
81.502348
21
162.352055
0
LINE
8
Layer 1
10
81.502348
20
162.352055
11
81.448800
21
162.395000
0
LINE
8
Layer 1
10
81.448800
20
162.395000
11
81.448800
21
162.395000
0
LINE
8
Layer 1
10
80.361300
20
163.274000
11
80.184065
21
163.418069
0
LINE
8
Layer 1
10
80.184065
20
163.418069
11
80.182118
21
163.419553
0
LINE
8
Layer 1
10
80.182118
20
163.419553
11
80.235943
21
163.375033
0
LINE
8
Layer 1
10
80.235943
20
163.375033
11
80.361300
21
163.274000
0
LINE
8
Layer 1
10
80.361300
20
163.274000
11
80.361300
21
163.274000
0
LINE
8
Layer 1
10
50.695400
20
188.680000
11
50.874467
21
188.567958
0
LINE
8
Layer 1
10
50.874467
20
188.567958
11
50.658948
21
188.777324
0
LINE
8
Layer 1
10
50.658948
20
188.777324
11
50.415639
21
188.965284
0
LINE
8
Layer 1
10
50.415639
20
188.965284
11
50.695400
21
188.680000
0
LINE
8
Layer 1
10
50.695400
20
188.680000
11
50.695400
21
188.680000
0
LINE
8
Layer 1
10
44.763400
20
31.563000
11
44.751931
21
29.034550
0
LINE
8
Layer 1
10
44.751931
20
29.034550
11
44.806964
21
28.454067
0
LINE
8
Layer 1
10
44.806964
20
28.454067
11
44.892663
21
29.029602
0
LINE
8
Layer 1
10
44.892663
20
29.029602
11
45.060938
21
35.582602
0
LINE
8
Layer 1
10
45.060938
20
35.582602
11
45.028956
21
36.867106
0
LINE
8
Layer 1
10
45.028956
20
36.867106
11
44.712050
21
37.680452
0
LINE
8
Layer 1
10
44.712050
20
37.680452
11
44.763400
21
31.563000
0
LINE
8
Layer 1
10
44.763400
20
31.563000
11
44.763400
21
31.563000
0
LINE
8
Layer 1
10
44.433600
20
0.097703
11
44.428593
21
0.848349
0
LINE
8
Layer 1
10
44.428593
20
0.848349
11
44.417369
21
1.954659
0
LINE
8
Layer 1
10
44.417369
20
1.954659
11
44.423615
21
0.958909
0
LINE
8
Layer 1
10
44.423615
20
0.958909
11
44.432464
21
0.173355
0
LINE
8
Layer 1
10
44.432464
20
0.173355
11
44.434527
21
0.005460
0
LINE
8
Layer 1
10
44.434527
20
0.005460
11
44.433600
21
0.097703
0
LINE
8
Layer 1
10
44.433600
20
0.097703
11
44.433600
21
0.097703
0
LINE
8
Layer 1
10
44.417400
20
1.954650
11
44.415360
21
2.280382
0
LINE
8
Layer 1
10
44.415360
20
2.280382
11
44.415111
21
2.285329
0
LINE
8
Layer 1
10
44.415111
20
2.285329
11
44.415021
21
2.189859
0
LINE
8
Layer 1
10
44.415021
20
2.189859
11
44.417400
21
1.954650
0
LINE
8
Layer 1
10
44.417400
20
1.954650
11
44.417400
21
1.954650
0
LINE
8
Layer 1
10
45.406100
20
54.380600
11
45.444900
21
54.099634
0
LINE
8
Layer 1
10
45.444900
20
54.099634
11
45.475168
21
54.501546
0
LINE
8
Layer 1
10
45.475168
20
54.501546
11
45.458195
21
54.913844
0
LINE
8
Layer 1
10
45.458195
20
54.913844
11
45.406100
21
54.380600
0
LINE
8
Layer 1
10
45.406100
20
54.380600
11
45.406100
21
54.380600
 0 
ENDSEC
 0 
EOF