999
"DXF R12 Output" (www.mydxf.blogspot.com)
 0 
SECTION
 2 
HEADER
 9 
$ACADVER
 1 
AC1009
 9 
$EXTMIN
 10 
 0 
 20 
 0 
 9 
$EXTMAX
 10 
 8.5 
 20 
 11 
 0 
ENDSEC
 0 
SECTION
 2 
ENTITIES
0
LINE
8
Layer 1
10
142.240000
20
87.845300
11
139.615150
21
90.582370
0
LINE
8
Layer 1
10
139.615150
20
90.582370
11
132.871090
21
97.691610
0
LINE
8
Layer 1
10
132.871090
20
97.691610
11
124.695550
21
106.435690
0
LINE
8
Layer 1
10
124.695550
20
106.435690
11
115.461810
21
116.511790
0
LINE
8
Layer 1
10
115.461810
20
116.511790
11
109.137410
21
123.407090
0
LINE
8
Layer 1
10
109.137410
20
123.407090
11
105.230840
21
127.639010
0
LINE
8
Layer 1
10
105.230840
20
127.639010
11
99.986960
21
133.246590
0
LINE
8
Layer 1
10
99.986960
20
133.246590
11
95.638100
21
137.729930
0
LINE
8
Layer 1
10
95.638100
20
137.729930
11
91.455510
21
142.032720
0
LINE
8
Layer 1
10
91.455510
20
142.032720
11
74.117110
21
158.648920
0
LINE
8
Layer 1
10
74.117110
20
158.648920
11
74.007170
21
158.747108
0
LINE
8
Layer 1
10
74.007170
20
158.747108
11
74.145304
21
166.646818
0
LINE
8
Layer 1
10
74.145304
20
166.646818
11
74.437339
21
188.086718
0
LINE
8
Layer 1
10
74.437339
20
188.086718
11
74.579491
21
203.329718
0
LINE
8
Layer 1
10
74.579491
20
203.329718
11
74.620978
21
203.300409
0
LINE
8
Layer 1
10
74.620978
20
203.300409
11
75.835798
21
202.488674
0
LINE
8
Layer 1
10
75.835798
20
202.488674
11
80.712088
21
199.280444
0
LINE
8
Layer 1
10
80.712088
20
199.280444
11
85.552698
21
196.089404
0
LINE
8
Layer 1
10
85.552698
20
196.089404
11
90.367768
21
192.788174
0
LINE
8
Layer 1
10
90.367768
20
192.788174
11
92.383628
21
191.448764
0
LINE
8
Layer 1
10
92.383628
20
191.448764
11
99.620248
21
186.621514
0
LINE
8
Layer 1
10
99.620248
20
186.621514
11
104.065008
21
183.614724
0
LINE
8
Layer 1
10
104.065008
20
183.614724
11
108.884598
21
180.344774
0
LINE
8
Layer 1
10
108.884598
20
180.344774
11
115.704088
21
175.676804
0
LINE
8
Layer 1
10
115.704088
20
175.676804
11
116.362664
21
175.236064
0
LINE
8
Layer 1
10
116.362664
20
175.236064
11
117.351240
21
174.610073
0
LINE
8
Layer 1
10
117.351240
20
174.610073
11
120.489610
21
172.404633
0
LINE
8
Layer 1
10
120.489610
20
172.404633
11
121.463101
21
171.731773
0
LINE
8
Layer 1
10
121.463101
20
171.731773
11
119.851131
21
172.899783
0
LINE
8
Layer 1
10
119.851131
20
172.899783
11
113.602901
21
177.412193
0
LINE
8
Layer 1
10
113.602901
20
177.412193
11
109.246191
21
180.541403
0
LINE
8
Layer 1
10
109.246191
20
180.541403
11
105.738501
21
183.063303
0
LINE
8
Layer 1
10
105.738501
20
183.063303
11
102.284427
21
185.602468
0
LINE
8
Layer 1
10
102.284427
20
185.602468
11
98.784581
21
188.007053
0
LINE
8
Layer 1
10
98.784581
20
188.007053
11
97.073991
21
189.311343
0
LINE
8
Layer 1
10
97.073991
20
189.311343
11
95.755661
21
190.333803
0
LINE
8
Layer 1
10
95.755661
20
190.333803
11
93.455931
21
191.975703
0
LINE
8
Layer 1
10
93.455931
20
191.975703
11
89.565681
21
194.832853
0
LINE
8
Layer 1
10
89.565681
20
194.832853
11
88.452701
21
195.676000
0
LINE
8
Layer 1
10
88.452701
20
195.676000
11
89.475843
21
195.220682
0
LINE
8
Layer 1
10
89.475843
20
195.220682
11
90.557791
21
194.694968
0
LINE
8
Layer 1
10
90.557791
20
194.694968
11
88.069411
21
196.615488
0
LINE
8
Layer 1
10
88.069411
20
196.615488
11
85.161561
21
198.837868
0
LINE
8
Layer 1
10
85.161561
20
198.837868
11
85.183588
21
198.665108
0
LINE
8
Layer 1
10
85.183588
20
198.665108
11
85.081240
21
198.594000
0
LINE
8
Layer 1
10
85.081240
20
198.594000
11
84.023660
21
199.286401
0
LINE
8
Layer 1
10
84.023660
20
199.286401
11
81.355160
21
201.323161
0
LINE
8
Layer 1
10
81.355160
20
201.323161
11
79.057815
21
203.054542
0
LINE
8
Layer 1
10
79.057815
20
203.054542
11
76.787230
21
204.802341
0
LINE
8
Layer 1
10
76.787230
20
204.802341
11
75.879714
21
205.445525
0
LINE
8
Layer 1
10
75.879714
20
205.445525
11
83.352104
21
211.048765
0
LINE
8
Layer 1
10
83.352104
20
211.048765
11
98.114600
21
222.345000
0
LINE
8
Layer 1
10
98.114600
20
222.345000
11
100.887100
21
220.203000
0
LINE
8
Layer 1
10
100.887100
20
220.203000
11
105.452860
21
216.665320
0
LINE
8
Layer 1
10
105.452860
20
216.665320
11
111.910510
21
211.618930
0
LINE
8
Layer 1
10
111.910510
20
211.618930
11
112.534768
21
211.141585
0
LINE
8
Layer 1
10
112.534768
20
211.141585
11
113.474313
21
210.460564
0
LINE
8
Layer 1
10
113.474313
20
210.460564
11
116.442333
21
208.081124
0
LINE
8
Layer 1
10
116.442333
20
208.081124
11
117.364005
21
207.354100
0
LINE
8
Layer 1
10
117.364005
20
207.354100
11
115.841565
21
208.611400
0
LINE
8
Layer 1
10
115.841565
20
208.611400
11
109.940715
21
213.469450
0
LINE
8
Layer 1
10
109.940715
20
213.469450
11
105.825085
21
216.839690
0
LINE
8
Layer 1
10
105.825085
20
216.839690
11
102.511605
21
219.555610
0
LINE
8
Layer 1
10
102.511605
20
219.555610
11
98.662785
21
222.767930
0
LINE
8
Layer 1
10
98.662785
20
222.767930
11
103.997625
21
226.893630
0
LINE
8
Layer 1
10
103.997625
20
226.893630
11
113.884185
21
234.563810
0
LINE
8
Layer 1
10
113.884185
20
234.563810
11
118.822865
21
238.403970
0
LINE
8
Layer 1
10
118.822865
20
238.403970
11
120.058895
21
239.362619
0
LINE
8
Layer 1
10
120.058895
20
239.362619
11
120.291135
21
239.535378
0
LINE
8
Layer 1
10
120.291135
20
239.535378
11
120.495430
21
239.688227
0
LINE
8
Layer 1
10
120.495430
20
239.688227
11
120.734661
21
239.927520
0
LINE
8
Layer 1
10
120.734661
20
239.927520
11
120.859005
21
240.049948
0
LINE
8
Layer 1
10
120.859005
20
240.049948
11
120.922259
21
240.111780
0
LINE
8
Layer 1
10
120.922259
20
240.111780
11
120.939943
21
240.068126
0
LINE
8
Layer 1
10
120.939943
20
240.068126
11
120.986318
21
239.829084
0
LINE
8
Layer 1
10
120.986318
20
239.829084
11
121.009071
21
239.703566
0
LINE
8
Layer 1
10
121.009071
20
239.703566
11
121.020388
21
239.639383
0
LINE
8
Layer 1
10
121.020388
20
239.639383
11
121.009999
21
239.559619
0
LINE
8
Layer 1
10
121.009999
20
239.559619
11
120.953422
21
239.221274
0
LINE
8
Layer 1
10
120.953422
20
239.221274
11
120.925166
21
239.047143
0
LINE
8
Layer 1
10
120.925166
20
239.047143
11
120.918178
21
239.003116
0
LINE
8
Layer 1
10
120.918178
20
239.003116
11
120.923371
21
238.817865
0
LINE
8
Layer 1
10
120.923371
20
238.817865
11
120.935552
21
238.426590
0
LINE
8
Layer 1
10
120.935552
20
238.426590
11
120.983905
21
236.861370
0
LINE
8
Layer 1
10
120.983905
20
236.861370
11
121.082714
21
233.730680
0
LINE
8
Layer 1
10
121.082714
20
233.730680
11
121.490006
21
221.211080
0
LINE
8
Layer 1
10
121.490006
20
221.211080
11
121.943297
21
205.494280
0
LINE
8
Layer 1
10
121.943297
20
205.494280
11
122.751200
21
182.959880
0
LINE
8
Layer 1
10
122.751200
20
182.959880
11
123.186872
21
172.864780
0
LINE
8
Layer 1
10
123.186872
20
172.864780
11
123.250064
21
170.460360
0
LINE
8
Layer 1
10
123.250064
20
170.460360
11
123.174937
21
170.513660
0
LINE
8
Layer 1
10
123.174937
20
170.513660
11
122.588519
21
170.932511
0
LINE
8
Layer 1
10
122.588519
20
170.932511
11
121.726145
21
171.544651
0
LINE
8
Layer 1
10
121.726145
20
171.544651
11
122.500099
21
170.991250
0
LINE
8
Layer 1
10
122.500099
20
170.991250
11
123.250064
21
170.460357
0
LINE
8
Layer 1
10
123.250064
20
170.460357
11
123.250000
21
170.460000
0
LINE
8
Layer 1
10
123.250000
20
170.460000
11
123.289511
21
173.734150
0
LINE
8
Layer 1
10
123.289511
20
173.734150
11
123.476985
21
181.486820
0
LINE
8
Layer 1
10
123.476985
20
181.486820
11
124.014742
21
201.514120
0
LINE
8
Layer 1
10
124.014742
20
201.514120
11
124.758092
21
225.968820
0
LINE
8
Layer 1
10
124.758092
20
225.968820
11
125.001957
21
232.940300
0
LINE
8
Layer 1
10
125.001957
20
232.940300
11
125.125251
21
236.427520
0
LINE
8
Layer 1
10
125.125251
20
236.427520
11
125.185847
21
238.171440
0
LINE
8
Layer 1
10
125.185847
20
238.171440
11
125.216392
21
239.074316
0
LINE
8
Layer 1
10
125.216392
20
239.074316
11
125.247061
21
240.569426
0
LINE
8
Layer 1
10
125.247061
20
240.569426
11
125.309017
21
243.584616
0
LINE
8
Layer 1
10
125.309017
20
243.584616
11
125.316809
21
243.963894
0
LINE
8
Layer 1
10
125.316809
20
243.963894
11
125.304008
21
244.309052
0
LINE
8
Layer 1
10
125.304008
20
244.309052
11
125.276121
21
244.996629
0
LINE
8
Layer 1
10
125.276121
20
244.996629
11
125.219485
21
246.376729
0
LINE
8
Layer 1
10
125.219485
20
246.376729
11
125.161979
21
247.763139
0
LINE
8
Layer 1
10
125.161979
20
247.763139
11
125.132911
21
248.458630
0
LINE
8
Layer 1
10
125.132911
20
248.458630
11
125.118255
21
248.806994
0
LINE
8
Layer 1
10
125.118255
20
248.806994
11
125.114608
21
248.894054
0
LINE
8
Layer 1
10
125.114608
20
248.894054
11
125.112751
21
248.937708
0
LINE
8
Layer 1
10
125.112751
20
248.937708
11
125.111826
21
248.959473
0
LINE
8
Layer 1
10
125.111826
20
248.959473
11
125.111021
21
248.969613
0
LINE
8
Layer 1
10
125.111021
20
248.969613
11
125.101990
21
248.963686
0
LINE
8
Layer 1
10
125.101990
20
248.963686
11
124.958232
21
248.867968
0
LINE
8
Layer 1
10
124.958232
20
248.867968
11
122.645452
21
247.328468
0
LINE
8
Layer 1
10
122.645452
20
247.328468
11
121.480472
21
246.553461
0
LINE
8
Layer 1
10
121.480472
20
246.553461
11
120.270472
21
245.721442
0
LINE
8
Layer 1
10
120.270472
20
245.721442
11
117.817272
21
244.025252
0
LINE
8
Layer 1
10
117.817272
20
244.025252
11
117.200052
21
243.598609
0
LINE
8
Layer 1
10
117.200052
20
243.598609
11
116.803211
21
243.330876
0
LINE
8
Layer 1
10
116.803211
20
243.330876
11
116.078411
21
242.844624
0
LINE
8
Layer 1
10
116.078411
20
242.844624
11
114.628501
21
241.872620
0
LINE
8
Layer 1
10
114.628501
20
241.872620
11
98.756801
21
231.222620
0
LINE
8
Layer 1
10
98.756801
20
231.222620
11
93.482131
21
227.671210
0
LINE
8
Layer 1
10
93.482131
20
227.671210
11
93.216498
21
227.899124
0
LINE
8
Layer 1
10
93.216498
20
227.899124
11
92.256366
21
228.657190
0
LINE
8
Layer 1
10
92.256366
20
228.657190
11
91.505288
21
228.963384
0
LINE
8
Layer 1
10
91.505288
20
228.963384
11
93.315058
21
227.558674
0
LINE
8
Layer 1
10
93.315058
20
227.558674
11
93.068159
21
227.392468
0
LINE
8
Layer 1
10
93.068159
20
227.392468
11
90.914599
21
229.146778
0
LINE
8
Layer 1
10
90.914599
20
229.146778
11
87.243799
21
232.218858
0
LINE
8
Layer 1
10
87.243799
20
232.218858
11
86.195309
21
233.123343
0
LINE
8
Layer 1
10
86.195309
20
233.123343
11
87.180607
21
232.609946
0
LINE
8
Layer 1
10
87.180607
20
232.609946
11
88.219519
21
232.023093
0
LINE
8
Layer 1
10
88.219519
20
232.023093
11
85.877739
21
234.080623
0
LINE
8
Layer 1
10
85.877739
20
234.080623
11
83.139739
21
236.463143
0
LINE
8
Layer 1
10
83.139739
20
236.463143
11
83.150036
21
236.289980
0
LINE
8
Layer 1
10
83.150036
20
236.289980
11
83.043654
21
236.225334
0
LINE
8
Layer 1
10
83.043654
20
236.225334
11
82.040054
21
236.976609
0
LINE
8
Layer 1
10
82.040054
20
236.976609
11
79.527314
21
239.160279
0
LINE
8
Layer 1
10
79.527314
20
239.160279
11
77.362511
21
241.018372
0
LINE
8
Layer 1
10
77.362511
20
241.018372
11
75.225384
21
242.891119
0
LINE
8
Layer 1
10
75.225384
20
242.891119
11
74.868551
21
243.198922
0
LINE
8
Layer 1
10
74.868551
20
243.198922
11
74.868734
21
243.326912
0
LINE
8
Layer 1
10
74.868734
20
243.326912
11
74.869663
21
245.434652
0
LINE
8
Layer 1
10
74.869663
20
245.434652
11
92.362263
21
258.837852
0
LINE
8
Layer 1
10
92.362263
20
258.837852
11
107.406063
21
270.369852
0
LINE
8
Layer 1
10
107.406063
20
270.369852
11
116.656503
21
277.484162
0
LINE
8
Layer 1
10
116.656503
20
277.484162
11
119.735443
21
279.861002
0
LINE
8
Layer 1
10
119.735443
20
279.861002
11
120.505062
21
280.455333
0
LINE
8
Layer 1
10
120.505062
20
280.455333
11
120.697422
21
280.603855
0
LINE
8
Layer 1
10
120.697422
20
280.603855
11
121.038428
21
280.874929
0
LINE
8
Layer 1
10
121.038428
20
280.874929
11
121.774234
21
281.461471
0
LINE
8
Layer 1
10
121.774234
20
281.461471
11
123.250414
21
282.638141
0
LINE
8
Layer 1
10
123.250414
20
282.638141
11
123.988631
21
283.228764
0
LINE
8
Layer 1
10
123.988631
20
283.228764
11
124.674292
21
283.829033
0
LINE
8
Layer 1
10
124.674292
20
283.829033
11
126.049132
21
285.033273
0
LINE
8
Layer 1
10
126.049132
20
285.033273
11
126.738318
21
285.637251
0
LINE
8
Layer 1
10
126.738318
20
285.637251
11
127.083343
21
285.939734
0
LINE
8
Layer 1
10
127.083343
20
285.939734
11
126.801685
21
286.288964
0
LINE
8
Layer 1
10
126.801685
20
286.288964
11
124.434685
21
289.103454
0
LINE
8
Layer 1
10
124.434685
20
289.103454
11
121.991135
21
291.959244
0
LINE
8
Layer 1
10
121.991135
20
291.959244
11
120.720285
21
293.481804
0
LINE
8
Layer 1
10
120.720285
20
293.481804
11
112.550305
21
303.165004
0
LINE
8
Layer 1
10
112.550305
20
303.165004
11
104.696045
21
312.463974
0
LINE
8
Layer 1
10
104.696045
20
312.463974
11
96.710515
21
321.669824
0
LINE
8
Layer 1
10
96.710515
20
321.669824
11
88.696300
21
330.850000
0
LINE
8
Layer 1
10
88.696300
20
330.850000
11
80.657350
21
340.008860
0
LINE
8
Layer 1
10
80.657350
20
340.008860
11
74.454300
21
347.058000
0
LINE
8
Layer 1
10
74.454300
20
347.058000
11
74.247347
21
347.295806
0
LINE
8
Layer 1
10
74.247347
20
347.295806
11
74.186751
21
354.567416
0
LINE
8
Layer 1
10
74.186751
20
354.567416
11
74.150517
21
361.089006
0
LINE
8
Layer 1
10
74.150517
20
361.089006
11
74.112182
21
367.608116
0
LINE
8
Layer 1
10
74.112182
20
367.608116
11
73.448286
21
383.979016
0
LINE
8
Layer 1
10
73.448286
20
383.979016
11
72.944028
21
395.733311
0
LINE
8
Layer 1
10
72.944028
20
395.733311
11
72.334496
21
407.451216
0
LINE
8
Layer 1
10
72.334496
20
407.451216
11
71.769225
21
417.966416
0
LINE
8
Layer 1
10
71.769225
20
417.966416
11
71.689862
21
420.471245
0
LINE
8
Layer 1
10
71.689862
20
420.471245
11
71.640179
21
417.060574
0
LINE
8
Layer 1
10
71.640179
20
417.060574
11
71.397426
21
408.985264
0
LINE
8
Layer 1
10
71.397426
20
408.985264
11
70.667318
21
388.124664
0
LINE
8
Layer 1
10
70.667318
20
388.124664
11
70.164116
21
375.385664
0
LINE
8
Layer 1
10
70.164116
20
375.385664
11
69.890718
21
369.016438
0
LINE
8
Layer 1
10
69.890718
20
369.016438
11
69.746808
21
362.652064
0
LINE
8
Layer 1
10
69.746808
20
362.652064
11
69.652829
21
355.390464
0
LINE
8
Layer 1
10
69.652829
20
355.390464
11
69.535411
21
348.125034
0
LINE
8
Layer 1
10
69.535411
20
348.125034
11
69.529721
21
347.758368
0
LINE
8
Layer 1
10
69.529721
20
347.758368
11
68.407651
21
346.466568
0
LINE
8
Layer 1
10
68.407651
20
346.466568
11
66.394631
21
344.173328
0
LINE
8
Layer 1
10
66.394631
20
344.173328
11
65.273981
21
342.890308
0
LINE
8
Layer 1
10
65.273981
20
342.890308
11
64.380689
21
341.853138
0
LINE
8
Layer 1
10
64.380689
20
341.853138
11
63.281559
21
340.552678
0
LINE
8
Layer 1
10
63.281559
20
340.552678
11
58.225899
21
334.629378
0
LINE
8
Layer 1
10
58.225899
20
334.629378
11
48.977319
21
323.972778
0
LINE
8
Layer 1
10
48.977319
20
323.972778
11
42.245600
21
316.276000
0
LINE
8
Layer 1
10
42.245600
20
316.276000
11
39.093294
21
312.573368
0
LINE
8
Layer 1
10
39.093294
20
312.573368
11
35.879210
21
308.919800
0
LINE
8
Layer 1
10
35.879210
20
308.919800
11
34.975840
21
307.798160
0
LINE
8
Layer 1
10
34.975840
20
307.798160
11
33.334715
21
305.723282
0
LINE
8
Layer 1
10
33.334715
20
305.723282
11
31.605660
21
303.691620
0
LINE
8
Layer 1
10
31.605660
20
303.691620
11
29.725890
21
301.489802
0
LINE
8
Layer 1
10
29.725890
20
301.489802
11
27.915630
21
299.223980
0
LINE
8
Layer 1
10
27.915630
20
299.223980
11
25.119977
21
295.692570
0
LINE
8
Layer 1
10
25.119977
20
295.692570
11
21.990970
21
292.452840
0
LINE
8
Layer 1
10
21.990970
20
292.452840
11
21.681130
21
292.145655
0
LINE
8
Layer 1
10
21.681130
20
292.145655
11
21.499280
21
291.949401
0
LINE
8
Layer 1
10
21.499280
20
291.949401
11
21.196487
21
291.609939
0
LINE
8
Layer 1
10
21.196487
20
291.609939
11
19.986177
21
290.221179
0
LINE
8
Layer 1
10
19.986177
20
290.221179
11
18.775497
21
288.818819
0
LINE
8
Layer 1
10
18.775497
20
288.818819
11
17.594997
21
287.427589
0
LINE
8
Layer 1
10
17.594997
20
287.427589
11
16.419437
21
286.039449
0
LINE
8
Layer 1
10
16.419437
20
286.039449
11
16.346042
21
285.952883
0
LINE
8
Layer 1
10
16.346042
20
285.952883
11
16.351122
21
285.932972
0
LINE
8
Layer 1
10
16.351122
20
285.932972
11
16.372453
21
285.914176
0
LINE
8
Layer 1
10
16.372453
20
285.914176
11
16.415068
21
285.876830
0
LINE
8
Layer 1
10
16.415068
20
285.876830
11
16.585414
21
285.727072
0
LINE
8
Layer 1
10
16.585414
20
285.727072
11
16.925864
21
285.427680
0
LINE
8
Layer 1
10
16.925864
20
285.427680
11
17.605773
21
284.829513
0
LINE
8
Layer 1
10
17.605773
20
284.829513
11
19.171803
21
283.450903
0
LINE
8
Layer 1
10
19.171803
20
283.450903
11
19.992197
21
282.768891
0
LINE
8
Layer 1
10
19.992197
20
282.768891
11
20.834664
21
282.091208
0
LINE
8
Layer 1
10
20.834664
20
282.091208
11
22.516384
21
280.738438
0
LINE
8
Layer 1
10
22.516384
20
280.738438
11
23.489071
21
279.971099
0
LINE
8
Layer 1
10
23.489071
20
279.971099
11
27.027241
21
277.191499
0
LINE
8
Layer 1
10
27.027241
20
277.191499
11
34.109951
21
271.640679
0
LINE
8
Layer 1
10
34.109951
20
271.640679
11
38.334591
21
268.369869
0
LINE
8
Layer 1
10
38.334591
20
268.369869
11
42.551551
21
265.142219
0
LINE
8
Layer 1
10
42.551551
20
265.142219
11
44.670707
21
263.488331
0
LINE
8
Layer 1
10
44.670707
20
263.488331
11
46.609061
21
261.840369
0
LINE
8
Layer 1
10
46.609061
20
261.840369
11
48.150361
21
260.679159
0
LINE
8
Layer 1
10
48.150361
20
260.679159
11
54.661621
21
255.737139
0
LINE
8
Layer 1
10
54.661621
20
255.737139
11
63.851831
21
248.537369
0
LINE
8
Layer 1
10
63.851831
20
248.537369
11
67.686061
21
245.569789
0
LINE
8
Layer 1
10
67.686061
20
245.569789
11
68.510536
21
244.975712
0
LINE
8
Layer 1
10
68.510536
20
244.975712
11
68.510500
21
244.903000
0
LINE
8
Layer 1
10
68.510500
20
244.903000
11
64.664710
21
241.517920
0
LINE
8
Layer 1
10
64.664710
20
241.517920
11
52.926110
21
231.254220
0
LINE
8
Layer 1
10
52.926110
20
231.254220
11
48.128160
21
227.054690
0
LINE
8
Layer 1
10
48.128160
20
227.054690
11
47.047520
21
227.804472
0
LINE
8
Layer 1
10
47.047520
20
227.804472
11
45.089327
21
229.199611
0
LINE
8
Layer 1
10
45.089327
20
229.199611
11
43.131180
21
230.612652
0
LINE
8
Layer 1
10
43.131180
20
230.612652
11
41.225366
21
232.056963
0
LINE
8
Layer 1
10
41.225366
20
232.056963
11
39.478800
21
233.583822
0
LINE
8
Layer 1
10
39.478800
20
233.583822
11
38.339970
21
234.484226
0
LINE
8
Layer 1
10
38.339970
20
234.484226
11
34.041679
21
237.685057
0
LINE
8
Layer 1
10
34.041679
20
237.685057
11
29.813040
21
240.942746
0
LINE
8
Layer 1
10
29.813040
20
240.942746
11
28.736540
21
241.747925
0
LINE
8
Layer 1
10
28.736540
20
241.747925
11
27.341660
21
242.804765
0
LINE
8
Layer 1
10
27.341660
20
242.804765
11
23.857910
21
245.442785
0
LINE
8
Layer 1
10
23.857910
20
245.442785
11
22.975376
21
246.107361
0
LINE
8
Layer 1
10
22.975376
20
246.107361
11
22.109412
21
246.719749
0
LINE
8
Layer 1
10
22.109412
20
246.719749
11
20.374762
21
247.928449
0
LINE
8
Layer 1
10
20.374762
20
247.928449
11
18.653352
21
249.096089
0
LINE
8
Layer 1
10
18.653352
20
249.096089
11
17.806003
21
249.655797
0
LINE
8
Layer 1
10
17.806003
20
249.655797
11
17.701016
21
249.724431
0
LINE
8
Layer 1
10
17.701016
20
249.724431
11
17.648582
21
249.758563
0
LINE
8
Layer 1
10
17.648582
20
249.758563
11
17.622426
21
249.775496
0
LINE
8
Layer 1
10
17.622426
20
249.775496
11
17.605918
21
249.773763
0
LINE
8
Layer 1
10
17.605918
20
249.773763
11
17.610434
21
249.494033
0
LINE
8
Layer 1
10
17.610434
20
249.494033
11
17.621565
21
248.932473
0
LINE
8
Layer 1
10
17.621565
20
248.932473
11
17.517933
21
246.825473
0
LINE
8
Layer 1
10
17.517933
20
246.825473
11
17.388828
21
243.247723
0
LINE
8
Layer 1
10
17.388828
20
243.247723
11
17.298181
21
239.484483
0
LINE
8
Layer 1
10
17.298181
20
239.484483
11
17.222684
21
233.810743
0
LINE
8
Layer 1
10
17.222684
20
233.810743
11
17.212975
21
231.848553
0
LINE
8
Layer 1
10
17.212975
20
231.848553
11
16.568309
21
212.306553
0
LINE
8
Layer 1
10
16.568309
20
212.306553
11
16.456580
21
208.311313
0
LINE
8
Layer 1
10
16.456580
20
208.311313
11
14.918190
21
209.660493
0
LINE
8
Layer 1
10
14.918190
20
209.660493
11
13.993365
21
210.401986
0
LINE
8
Layer 1
10
13.993365
20
210.401986
11
10.680325
21
213.079206
0
LINE
8
Layer 1
10
10.680325
20
213.079206
11
8.660695
21
214.757216
0
LINE
8
Layer 1
10
8.660695
20
214.757216
11
6.472195
21
216.582266
0
LINE
8
Layer 1
10
6.472195
20
216.582266
11
3.391335
21
219.198516
0
LINE
8
Layer 1
10
3.391335
20
219.198516
11
3.090337
21
219.443248
0
LINE
8
Layer 1
10
3.090337
20
219.443248
11
2.626037
21
219.782586
0
LINE
8
Layer 1
10
2.626037
20
219.782586
11
1.228137
21
221.031596
0
LINE
8
Layer 1
10
1.228137
20
221.031596
11
0.789869
21
221.410753
0
LINE
8
Layer 1
10
0.789869
20
221.410753
11
1.496364
21
220.740984
0
LINE
8
Layer 1
10
1.496364
20
220.740984
11
4.237144
21
218.158864
0
LINE
8
Layer 1
10
4.237144
20
218.158864
11
6.154134
21
216.372034
0
LINE
8
Layer 1
10
6.154134
20
216.372034
11
7.696724
21
214.931464
0
LINE
8
Layer 1
10
7.696724
20
214.931464
11
9.196308
21
213.469003
0
LINE
8
Layer 1
10
9.196308
20
213.469003
11
10.774304
21
212.119324
0
LINE
8
Layer 1
10
10.774304
20
212.119324
11
11.500650
21
211.358290
0
LINE
8
Layer 1
10
11.500650
20
211.358290
11
12.054420
21
210.758145
0
LINE
8
Layer 1
10
12.054420
20
210.758145
11
13.069770
21
209.822746
0
LINE
8
Layer 1
10
13.069770
20
209.822746
11
14.759590
21
208.177636
0
LINE
8
Layer 1
10
14.759590
20
208.177636
11
15.234090
21
207.686812
0
LINE
8
Layer 1
10
15.234090
20
207.686812
11
14.686546
21
207.886826
0
LINE
8
Layer 1
10
14.686546
20
207.886826
11
14.122960
21
208.133118
0
LINE
8
Layer 1
10
14.122960
20
208.133118
11
15.171450
21
207.007768
0
LINE
8
Layer 1
10
15.171450
20
207.007768
11
16.384290
21
205.727098
0
LINE
8
Layer 1
10
16.384290
20
205.727098
11
16.039327
21
191.723298
0
LINE
8
Layer 1
10
16.039327
20
191.723298
11
15.844876
21
180.926398
0
LINE
8
Layer 1
10
15.844876
20
180.926398
11
15.824839
21
179.473338
0
LINE
8
Layer 1
10
15.824839
20
179.473338
11
15.805052
21
176.883178
0
LINE
8
Layer 1
10
15.805052
20
176.883178
11
15.765800
21
171.672000
0
LINE
8
Layer 1
10
15.765800
20
171.672000
11
15.704400
21
166.370610
0
LINE
8
Layer 1
10
15.704400
20
166.370610
11
15.671321
21
163.699200
0
LINE
8
Layer 1
10
15.671321
20
163.699200
11
15.654624
21
162.359420
0
LINE
8
Layer 1
10
15.654624
20
162.359420
11
15.646276
21
161.688415
0
LINE
8
Layer 1
10
15.646276
20
161.688415
11
16.170184
21
162.059286
0
LINE
8
Layer 1
10
16.170184
20
162.059286
11
20.448424
21
165.173906
0
LINE
8
Layer 1
10
20.448424
20
165.173906
11
22.591664
21
166.732336
0
LINE
8
Layer 1
10
22.591664
20
166.732336
11
24.716344
21
168.242036
0
LINE
8
Layer 1
10
24.716344
20
168.242036
11
29.893514
21
171.890516
0
LINE
8
Layer 1
10
29.893514
20
171.890516
11
32.749794
21
173.884856
0
LINE
8
Layer 1
10
32.749794
20
173.884856
11
38.057914
21
177.649696
0
LINE
8
Layer 1
10
38.057914
20
177.649696
11
41.161594
21
179.879006
0
LINE
8
Layer 1
10
41.161594
20
179.879006
11
43.644844
21
177.427596
0
LINE
8
Layer 1
10
43.644844
20
177.427596
11
44.085647
21
176.884601
0
LINE
8
Layer 1
10
44.085647
20
176.884601
11
47.193527
21
173.568161
0
LINE
8
Layer 1
10
47.193527
20
173.568161
11
47.883825
21
172.902845
0
LINE
8
Layer 1
10
47.883825
20
172.902845
11
54.382095
21
165.878685
0
LINE
8
Layer 1
10
54.382095
20
165.878685
11
61.329705
21
158.589145
0
LINE
8
Layer 1
10
61.329705
20
158.589145
11
68.760225
21
151.088875
0
LINE
8
Layer 1
10
68.760225
20
151.088875
11
68.813523
21
151.036946
0
LINE
8
Layer 1
10
68.813523
20
151.036946
11
68.892669
21
147.117636
0
LINE
8
Layer 1
10
68.892669
20
147.117636
11
69.030216
21
142.391696
0
LINE
8
Layer 1
10
69.030216
20
142.391696
11
68.840915
21
137.667546
0
LINE
8
Layer 1
10
68.840915
20
137.667546
11
68.801404
21
135.700906
0
LINE
8
Layer 1
10
68.801404
20
135.700906
11
68.826942
21
131.608466
0
LINE
8
Layer 1
10
68.826942
20
131.608466
11
68.947637
21
112.710366
0
LINE
8
Layer 1
10
68.947637
20
112.710366
11
69.006565
21
107.101306
0
LINE
8
Layer 1
10
69.006565
20
107.101306
11
69.089606
21
101.527236
0
LINE
8
Layer 1
10
69.089606
20
101.527236
11
69.108545
21
98.704805
0
LINE
8
Layer 1
10
69.108545
20
98.704805
11
69.030622
21
96.032816
0
LINE
8
Layer 1
10
69.030622
20
96.032816
11
69.072546
21
94.007806
0
LINE
8
Layer 1
10
69.072546
20
94.007806
11
69.225457
21
85.428936
0
LINE
8
Layer 1
10
69.225457
20
85.428936
11
69.265586
21
73.170536
0
LINE
8
Layer 1
10
69.265586
20
73.170536
11
69.308066
21
68.080376
0
LINE
8
Layer 1
10
69.308066
20
68.080376
11
69.407307
21
61.091586
0
LINE
8
Layer 1
10
69.407307
20
61.091586
11
69.424559
21
59.570756
0
LINE
8
Layer 1
10
69.424559
20
59.570756
11
69.559537
21
53.496716
0
LINE
8
Layer 1
10
69.559537
20
53.496716
11
69.915755
21
47.463356
0
LINE
8
Layer 1
10
69.915755
20
47.463356
11
70.040308
21
44.436412
0
LINE
8
Layer 1
10
70.040308
20
44.436412
11
70.130870
21
41.384246
0
LINE
8
Layer 1
10
70.130870
20
41.384246
11
70.264488
21
38.865196
0
LINE
8
Layer 1
10
70.264488
20
38.865196
11
70.543315
21
34.386274
0
LINE
8
Layer 1
10
70.543315
20
34.386274
11
70.716732
21
29.810706
0
LINE
8
Layer 1
10
70.716732
20
29.810706
11
70.943224
21
24.224026
0
LINE
8
Layer 1
10
70.943224
20
24.224026
11
71.173921
21
18.160246
0
LINE
8
Layer 1
10
71.173921
20
18.160246
11
71.449198
21
9.554906
0
LINE
8
Layer 1
10
71.449198
20
9.554906
11
71.485308
21
8.730061
0
LINE
8
Layer 1
10
71.485308
20
8.730061
11
71.574533
21
7.513681
0
LINE
8
Layer 1
10
71.574533
20
7.513681
11
71.638716
21
3.518571
0
LINE
8
Layer 1
10
71.638716
20
3.518571
11
71.669196
21
2.284891
0
LINE
8
Layer 1
10
71.669196
20
2.284891
11
71.671236
21
4.359741
0
LINE
8
Layer 1
10
71.671236
20
4.359741
11
71.664866
21
12.387561
0
LINE
8
Layer 1
10
71.664866
20
12.387561
11
71.642794
21
17.974991
0
LINE
8
Layer 1
10
71.642794
20
17.974991
11
71.627209
21
22.474901
0
LINE
8
Layer 1
10
71.627209
20
22.474901
11
71.669806
21
26.940002
0
LINE
8
Layer 1
10
71.669806
20
26.940002
11
71.536687
21
31.361701
0
LINE
8
Layer 1
10
71.536687
20
31.361701
11
71.607115
21
33.601761
0
LINE
8
Layer 1
10
71.607115
20
33.601761
11
71.680324
21
35.338511
0
LINE
8
Layer 1
10
71.680324
20
35.338511
11
71.657633
21
38.281731
0
LINE
8
Layer 1
10
71.657633
20
38.281731
11
71.704933
21
43.309201
0
LINE
8
Layer 1
10
71.704933
20
43.309201
11
71.746361
21
44.763251
0
LINE
8
Layer 1
10
71.746361
20
44.763251
11
71.923478
21
44.384934
0
LINE
8
Layer 1
10
71.923478
20
44.384934
11
72.053435
21
43.621734
0
LINE
8
Layer 1
10
72.053435
20
43.621734
11
72.328884
21
42.387651
0
LINE
8
Layer 1
10
72.328884
20
42.387651
11
72.424285
21
43.989947
0
LINE
8
Layer 1
10
72.424285
20
43.989947
11
72.464545
21
45.660321
0
LINE
8
Layer 1
10
72.464545
20
45.660321
11
72.608346
21
47.562921
0
LINE
8
Layer 1
10
72.608346
20
47.562921
11
72.600700
21
49.470931
0
LINE
8
Layer 1
10
72.600700
20
49.470931
11
72.429331
21
49.347021
0
LINE
8
Layer 1
10
72.429331
20
49.347021
11
72.270946
21
49.390052
0
LINE
8
Layer 1
10
72.270946
20
49.390052
11
72.193225
21
50.705352
0
LINE
8
Layer 1
10
72.193225
20
50.705352
11
72.310087
21
54.200862
0
LINE
8
Layer 1
10
72.310087
20
54.200862
11
72.358543
21
57.196690
0
LINE
8
Layer 1
10
72.358543
20
57.196690
11
72.427491
21
60.179812
0
LINE
8
Layer 1
10
72.427491
20
60.179812
11
72.363311
21
62.156592
0
LINE
8
Layer 1
10
72.363311
20
62.156592
11
72.408337
21
66.559126
0
LINE
8
Layer 1
10
72.408337
20
66.559126
11
72.674266
21
70.953852
0
LINE
8
Layer 1
10
72.674266
20
70.953852
11
72.887148
21
73.588437
0
LINE
8
Layer 1
10
72.887148
20
73.588437
11
72.843131
21
76.231242
0
LINE
8
Layer 1
10
72.843131
20
76.231242
11
72.891049
21
79.682602
0
LINE
8
Layer 1
10
72.891049
20
79.682602
11
72.943036
21
81.393679
0
LINE
8
Layer 1
10
72.943036
20
81.393679
11
72.835770
21
83.102182
0
LINE
8
Layer 1
10
72.835770
20
83.102182
11
72.636360
21
85.742422
0
LINE
8
Layer 1
10
72.636360
20
85.742422
11
72.796445
21
87.633752
0
LINE
8
Layer 1
10
72.796445
20
87.633752
11
72.933774
21
90.000942
0
LINE
8
Layer 1
10
72.933774
20
90.000942
11
72.981680
21
93.192630
0
LINE
8
Layer 1
10
72.981680
20
93.192630
11
73.212082
21
96.376352
0
LINE
8
Layer 1
10
73.212082
20
96.376352
11
73.276883
21
99.321922
0
LINE
8
Layer 1
10
73.276883
20
99.321922
11
73.239012
21
101.826291
0
LINE
8
Layer 1
10
73.239012
20
101.826291
11
73.215980
21
104.341602
0
LINE
8
Layer 1
10
73.215980
20
104.341602
11
73.240487
21
106.831687
0
LINE
8
Layer 1
10
73.240487
20
106.831687
11
73.397951
21
109.237742
0
LINE
8
Layer 1
10
73.397951
20
109.237742
11
73.436474
21
110.748672
0
LINE
8
Layer 1
10
73.436474
20
110.748672
11
73.451382
21
116.330188
0
LINE
8
Layer 1
10
73.451382
20
116.330188
11
73.536826
21
121.887772
0
LINE
8
Layer 1
10
73.536826
20
121.887772
11
73.616869
21
127.480977
0
LINE
8
Layer 1
10
73.616869
20
127.480977
11
73.590065
21
133.097372
0
LINE
8
Layer 1
10
73.590065
20
133.097372
11
73.649613
21
134.575532
0
LINE
8
Layer 1
10
73.649613
20
134.575532
11
73.794365
21
144.247722
0
LINE
8
Layer 1
10
73.794365
20
144.247722
11
73.788800
21
146.044202
0
LINE
8
Layer 1
10
73.788800
20
146.044202
11
79.766080
21
140.375162
0
LINE
8
Layer 1
10
79.766080
20
140.375162
11
95.478880
21
126.238062
0
LINE
8
Layer 1
10
95.478880
20
126.238062
11
105.227670
21
118.050592
0
LINE
8
Layer 1
10
105.227670
20
118.050592
11
114.696190
21
110.278762
0
LINE
8
Layer 1
10
114.696190
20
110.278762
11
124.141880
21
102.463642
0
LINE
8
Layer 1
10
124.141880
20
102.463642
11
130.035430
21
97.520762
0
LINE
8
Layer 1
10
130.035430
20
97.520762
11
138.593960
21
90.548792
0
LINE
8
Layer 1
10
138.593960
20
90.548792
11
142.478760
21
87.478942
0
LINE
8
Layer 1
10
142.478760
20
87.478942
11
143.376095
21
86.718118
0
LINE
8
Layer 1
10
143.376095
20
86.718118
11
142.240000
21
87.845300
0
LINE
8
Layer 1
10
142.240000
20
87.845300
11
142.240000
21
87.845300
0
LINE
8
Layer 1
10
97.577100
20
188.301000
11
98.016237
21
187.943732
0
LINE
8
Layer 1
10
98.016237
20
187.943732
11
97.706950
21
188.134175
0
LINE
8
Layer 1
10
97.706950
20
188.134175
11
96.237940
21
189.187055
0
LINE
8
Layer 1
10
96.237940
20
189.187055
11
97.577100
21
188.301000
0
LINE
8
Layer 1
10
97.577100
20
188.301000
11
97.577100
21
188.301000
0
LINE
8
Layer 1
10
11.505500
20
212.075000
11
11.326853
21
212.287951
0
LINE
8
Layer 1
10
11.326853
20
212.287951
11
11.473953
21
212.186052
0
LINE
8
Layer 1
10
11.473953
20
212.186052
11
12.121153
21
211.585289
0
LINE
8
Layer 1
10
12.121153
20
211.585289
11
11.505500
21
212.075000
0
LINE
8
Layer 1
10
11.505500
20
212.075000
11
11.505500
21
212.075000
0
LINE
8
Layer 1
10
78.752100
20
237.166000
11
83.344080
21
233.705740
0
LINE
8
Layer 1
10
83.344080
20
233.705740
11
87.903230
21
230.137270
0
LINE
8
Layer 1
10
87.903230
20
230.137270
11
89.814840
21
228.685800
0
LINE
8
Layer 1
10
89.814840
20
228.685800
11
92.279790
21
226.861620
0
LINE
8
Layer 1
10
92.279790
20
226.861620
11
88.995870
21
224.650500
0
LINE
8
Layer 1
10
88.995870
20
224.650500
11
76.007470
21
215.845690
0
LINE
8
Layer 1
10
76.007470
20
215.845690
11
74.668060
21
214.926860
0
LINE
8
Layer 1
10
74.668060
20
214.926860
11
74.684011
21
216.212600
0
LINE
8
Layer 1
10
74.684011
20
216.212600
11
74.864563
21
240.092400
0
LINE
8
Layer 1
10
74.864563
20
240.092400
11
78.752100
21
237.166000
0
LINE
8
Layer 1
10
78.752100
20
237.166000
11
78.752100
21
237.166000
0
LINE
8
Layer 1
10
75.120700
20
332.131000
11
79.343050
21
327.250070
0
LINE
8
Layer 1
10
79.343050
20
327.250070
11
87.891940
21
317.567860
0
LINE
8
Layer 1
10
87.891940
20
317.567860
11
102.206140
21
301.596160
0
LINE
8
Layer 1
10
102.206140
20
301.596160
11
109.405720
21
293.648220
0
LINE
8
Layer 1
10
109.405720
20
293.648220
11
115.827000
21
286.617000
0
LINE
8
Layer 1
10
115.827000
20
286.617000
11
115.912578
21
286.591896
0
LINE
8
Layer 1
10
115.912578
20
286.591896
11
115.929334
21
286.556404
0
LINE
8
Layer 1
10
115.929334
20
286.556404
11
115.908991
21
286.555292
0
LINE
8
Layer 1
10
115.908991
20
286.555292
11
115.868676
21
286.565184
0
LINE
8
Layer 1
10
115.868676
20
286.565184
11
115.826568
21
286.572852
0
LINE
8
Layer 1
10
115.826568
20
286.572852
11
115.247197
21
286.071019
0
LINE
8
Layer 1
10
115.247197
20
286.071019
11
114.030897
21
285.011209
0
LINE
8
Layer 1
10
114.030897
20
285.011209
11
111.602497
21
282.887269
0
LINE
8
Layer 1
10
111.602497
20
282.887269
11
101.913297
21
274.367269
0
LINE
8
Layer 1
10
101.913297
20
274.367269
11
83.314497
21
257.932869
0
LINE
8
Layer 1
10
83.314497
20
257.932869
11
74.872277
21
250.502099
0
LINE
8
Layer 1
10
74.872277
20
250.502099
11
74.827819
21
288.376499
0
LINE
8
Layer 1
10
74.827819
20
288.376499
11
74.594156
21
315.472899
0
LINE
8
Layer 1
10
74.594156
20
315.472899
11
74.393496
21
332.986399
0
LINE
8
Layer 1
10
74.393496
20
332.986399
11
75.120700
21
332.131000
0
LINE
8
Layer 1
10
53.780900
20
260.774000
11
53.472852
21
260.953440
0
LINE
8
Layer 1
10
53.472852
20
260.953440
11
49.162892
21
264.620590
0
LINE
8
Layer 1
10
49.162892
20
264.620590
11
49.008559
21
264.840097
0
LINE
8
Layer 1
10
49.008559
20
264.840097
11
49.387467
21
264.734363
0
LINE
8
Layer 1
10
49.387467
20
264.734363
11
51.710157
21
262.851073
0
LINE
8
Layer 1
10
51.710157
20
262.851073
11
53.678897
21
261.067453
0
LINE
8
Layer 1
10
53.678897
20
261.067453
11
53.780900
21
260.774000
0
LINE
8
Layer 1
10
53.780900
20
260.774000
11
53.780900
21
260.774000
0
LINE
8
Layer 1
10
64.450500
20
251.128000
11
63.896605
21
251.453966
0
LINE
8
Layer 1
10
63.896605
20
251.453966
11
63.485484
21
251.789963
0
LINE
8
Layer 1
10
63.485484
20
251.789963
11
61.028634
21
253.885213
0
LINE
8
Layer 1
10
61.028634
20
253.885213
11
60.166716
21
254.616752
0
LINE
8
Layer 1
10
60.166716
20
254.616752
11
59.941934
21
254.958373
0
LINE
8
Layer 1
10
59.941934
20
254.958373
11
60.321585
21
254.851033
0
LINE
8
Layer 1
10
60.321585
20
254.851033
11
61.210964
21
254.320956
0
LINE
8
Layer 1
10
61.210964
20
254.320956
11
62.007815
21
253.659893
0
LINE
8
Layer 1
10
62.007815
20
253.659893
11
64.398195
21
251.268593
0
LINE
8
Layer 1
10
64.398195
20
251.268593
11
64.450500
21
251.128000
0
LINE
8
Layer 1
10
64.450500
20
251.128000
11
64.450500
21
251.128000
0
LINE
8
Layer 1
10
67.502800
20
249.648850
11
65.710546
21
251.416406
0
LINE
8
Layer 1
10
65.710546
20
251.416406
11
63.758910
21
253.006230
0
LINE
8
Layer 1
10
63.758910
20
253.006230
11
61.274790
21
255.158740
0
LINE
8
Layer 1
10
61.274790
20
255.158740
11
60.062558
21
256.248213
0
LINE
8
Layer 1
10
60.062558
20
256.248213
11
58.748510
21
257.212440
0
LINE
8
Layer 1
10
58.748510
20
257.212440
11
56.691470
21
258.668840
0
LINE
8
Layer 1
10
56.691470
20
258.668840
11
55.418470
21
259.955570
0
LINE
8
Layer 1
10
55.418470
20
259.955570
11
53.786220
21
261.518820
0
LINE
8
Layer 1
10
53.786220
20
261.518820
11
51.491923
21
263.516735
0
LINE
8
Layer 1
10
51.491923
20
263.516735
11
49.337690
21
265.664930
0
LINE
8
Layer 1
10
49.337690
20
265.664930
11
48.339204
21
266.653676
0
LINE
8
Layer 1
10
48.339204
20
266.653676
11
47.240960
21
267.530290
0
LINE
8
Layer 1
10
47.240960
20
267.530290
11
45.390361
21
269.033823
0
LINE
8
Layer 1
10
45.390361
20
269.033823
11
43.540970
21
270.555260
0
LINE
8
Layer 1
10
43.540970
20
270.555260
11
41.745641
21
272.104593
0
LINE
8
Layer 1
10
41.745641
20
272.104593
11
40.113970
21
273.726640
0
LINE
8
Layer 1
10
40.113970
20
273.726640
11
39.043650
21
274.689618
0
LINE
8
Layer 1
10
39.043650
20
274.689618
11
34.990849
21
278.127653
0
LINE
8
Layer 1
10
34.990849
20
278.127653
11
31.010940
21
281.618188
0
LINE
8
Layer 1
10
31.010940
20
281.618188
11
27.001730
21
285.126438
0
LINE
8
Layer 1
10
27.001730
20
285.126438
11
26.751930
21
285.346684
0
LINE
8
Layer 1
10
26.751930
20
285.346684
11
26.689415
21
285.401717
0
LINE
8
Layer 1
10
26.689415
20
285.401717
11
26.656646
21
285.428554
0
LINE
8
Layer 1
10
26.656646
20
285.428554
11
26.604717
21
285.468993
0
LINE
8
Layer 1
10
26.604717
20
285.468993
11
26.396959
21
285.627653
0
LINE
8
Layer 1
10
26.396959
20
285.627653
11
25.976561
21
285.934219
0
LINE
8
Layer 1
10
25.976561
20
285.934219
11
25.567477
21
286.264280
0
LINE
8
Layer 1
10
25.567477
20
286.264280
11
25.341479
21
286.431104
0
LINE
8
Layer 1
10
25.341479
20
286.431104
11
25.285599
21
286.473644
0
LINE
8
Layer 1
10
25.285599
20
286.473644
11
25.320781
21
286.522863
0
LINE
8
Layer 1
10
25.320781
20
286.522863
11
25.389785
21
286.622660
0
LINE
8
Layer 1
10
25.389785
20
286.622660
11
25.867381
21
287.024200
0
LINE
8
Layer 1
10
25.867381
20
287.024200
11
26.513105
21
287.616925
0
LINE
8
Layer 1
10
26.513105
20
287.616925
11
28.088225
21
289.265745
0
LINE
8
Layer 1
10
28.088225
20
289.265745
11
31.201855
21
292.686065
0
LINE
8
Layer 1
10
31.201855
20
292.686065
11
32.495755
21
294.139505
0
LINE
8
Layer 1
10
32.495755
20
294.139505
11
45.793155
21
308.252205
0
LINE
8
Layer 1
10
45.793155
20
308.252205
11
59.686555
21
323.216305
0
LINE
8
Layer 1
10
59.686555
20
323.216305
11
66.912035
21
331.120585
0
LINE
8
Layer 1
10
66.912035
20
331.120585
11
69.313175
21
333.765285
0
LINE
8
Layer 1
10
69.313175
20
333.765285
11
69.310454
21
333.589063
0
LINE
8
Layer 1
10
69.310454
20
333.589063
11
69.024845
21
313.692163
0
LINE
8
Layer 1
10
69.024845
20
313.692163
11
68.864515
21
301.441963
0
LINE
8
Layer 1
10
68.864515
20
301.441963
11
68.676730
21
285.104863
0
LINE
8
Layer 1
10
68.676730
20
285.104863
11
68.594552
21
271.800963
0
LINE
8
Layer 1
10
68.594552
20
271.800963
11
68.503536
21
259.018963
0
LINE
8
Layer 1
10
68.503536
20
259.018963
11
68.508729
21
248.653363
0
LINE
8
Layer 1
10
68.508729
20
248.653363
11
67.502800
21
249.649000
0
LINE
8
Layer 1
10
67.502800
20
249.649000
11
67.502800
21
249.648850
0
LINE
8
Layer 1
10
68.512770
20
240.556770
11
68.527488
21
211.159470
0
LINE
8
Layer 1
10
68.527488
20
211.159470
11
66.636013
21
212.794797
0
LINE
8
Layer 1
10
66.636013
20
212.794797
11
64.600388
21
214.246760
0
LINE
8
Layer 1
10
64.600388
20
214.246760
11
61.962738
21
216.253970
0
LINE
8
Layer 1
10
61.962738
20
216.253970
11
60.672990
21
217.272595
0
LINE
8
Layer 1
10
60.672990
20
217.272595
11
59.289528
21
218.159770
0
LINE
8
Layer 1
10
59.289528
20
218.159770
11
57.127378
21
219.495470
0
LINE
8
Layer 1
10
57.127378
20
219.495470
11
55.763358
21
220.707880
0
LINE
8
Layer 1
10
55.763358
20
220.707880
11
54.020178
21
222.175780
0
LINE
8
Layer 1
10
54.020178
20
222.175780
11
51.710570
21
223.936328
0
LINE
8
Layer 1
10
51.710570
20
223.936328
11
49.517728
21
225.840340
0
LINE
8
Layer 1
10
49.517728
20
225.840340
11
51.198148
21
227.145370
0
LINE
8
Layer 1
10
51.198148
20
227.145370
11
68.512700
21
240.557000
0
LINE
8
Layer 1
10
68.512700
20
240.557000
11
68.512770
21
240.556770
0
LINE
8
Layer 1
10
65.421150
20
212.407570
11
64.843388
21
212.700903
0
LINE
8
Layer 1
10
64.843388
20
212.700903
11
64.408272
21
213.012787
0
LINE
8
Layer 1
10
64.408272
20
213.012787
11
61.801912
21
214.964467
0
LINE
8
Layer 1
10
61.801912
20
214.964467
11
60.887747
21
215.645439
0
LINE
8
Layer 1
10
60.887747
20
215.645439
11
60.639162
21
215.974067
0
LINE
8
Layer 1
10
60.639162
20
215.974067
11
61.027282
21
215.889231
0
LINE
8
Layer 1
10
61.027282
20
215.889231
11
61.955431
21
215.411421
0
LINE
8
Layer 1
10
61.955431
20
215.411421
11
62.799402
21
214.797031
0
LINE
8
Layer 1
10
62.799402
20
214.797031
11
65.359142
21
212.545221
0
LINE
8
Layer 1
10
65.359142
20
212.545221
11
65.421100
21
212.408000
0
LINE
8
Layer 1
10
65.421100
20
212.408000
11
65.421150
21
212.407570
0
LINE
8
Layer 1
10
49.390050
20
225.132670
11
51.847460
21
223.385540
0
LINE
8
Layer 1
10
51.847460
20
223.385540
11
53.943140
21
221.716930
0
LINE
8
Layer 1
10
53.943140
20
221.716930
11
54.065322
21
221.429287
0
LINE
8
Layer 1
10
54.065322
20
221.429287
11
53.744103
21
221.590546
0
LINE
8
Layer 1
10
53.744103
20
221.590546
11
49.172463
21
225.005436
0
LINE
8
Layer 1
10
49.172463
20
225.005436
11
49.002735
21
225.216039
0
LINE
8
Layer 1
10
49.002735
20
225.216039
11
49.390000
21
225.133000
0
LINE
8
Layer 1
10
49.390000
20
225.133000
11
49.390050
21
225.132670
0
LINE
8
Layer 1
10
23.779600
20
236.734000
11
23.798026
21
236.981328
0
LINE
8
Layer 1
10
23.798026
20
236.981328
11
23.826220
21
237.057381
0
LINE
8
Layer 1
10
23.826220
20
237.057381
11
24.019824
21
237.226678
0
LINE
8
Layer 1
10
24.019824
20
237.226678
11
24.071268
21
237.263903
0
LINE
8
Layer 1
10
24.071268
20
237.263903
11
24.060825
21
237.364938
0
LINE
8
Layer 1
10
24.060825
20
237.364938
11
24.020696
21
237.596439
0
LINE
8
Layer 1
10
24.020696
20
237.596439
11
23.996829
21
237.724063
0
LINE
8
Layer 1
10
23.996829
20
237.724063
11
24.058477
21
237.712808
0
LINE
8
Layer 1
10
24.058477
20
237.712808
11
24.230742
21
237.647883
0
LINE
8
Layer 1
10
24.230742
20
237.647883
11
24.323244
21
237.605468
0
LINE
8
Layer 1
10
24.323244
20
237.605468
11
24.418465
21
237.511852
0
LINE
8
Layer 1
10
24.418465
20
237.511852
11
24.621831
21
237.315843
0
LINE
8
Layer 1
10
24.621831
20
237.315843
11
24.648481
21
237.290618
0
LINE
8
Layer 1
10
24.648481
20
237.290618
11
24.661898
21
237.277879
0
LINE
8
Layer 1
10
24.661898
20
237.277879
11
24.668638
21
237.271450
0
LINE
8
Layer 1
10
24.668638
20
237.271450
11
24.714270
21
237.239666
0
LINE
8
Layer 1
10
24.714270
20
237.239666
11
25.181415
21
236.918139
0
LINE
8
Layer 1
10
25.181415
20
236.918139
11
26.115702
21
236.274955
0
LINE
8
Layer 1
10
26.115702
20
236.274955
11
33.596432
21
231.139155
0
LINE
8
Layer 1
10
33.596432
20
231.139155
11
38.055722
21
228.116045
0
LINE
8
Layer 1
10
38.055722
20
228.116045
11
42.504442
21
225.135605
0
LINE
8
Layer 1
10
42.504442
20
225.135605
11
44.465582
21
223.812395
0
LINE
8
Layer 1
10
44.465582
20
223.812395
11
36.196052
21
216.416995
0
LINE
8
Layer 1
10
36.196052
20
216.416995
11
28.748092
21
209.712875
0
LINE
8
Layer 1
10
28.748092
20
209.712875
11
26.948024
21
208.147339
0
LINE
8
Layer 1
10
26.948024
20
208.147339
11
29.478889
21
210.182306
0
LINE
8
Layer 1
10
29.478889
20
210.182306
11
35.530729
21
214.927816
0
LINE
8
Layer 1
10
35.530729
20
214.927816
11
45.700429
21
222.874146
0
LINE
8
Layer 1
10
45.700429
20
222.874146
11
46.798199
21
222.071315
0
LINE
8
Layer 1
10
46.798199
20
222.071315
11
48.422909
21
221.000505
0
LINE
8
Layer 1
10
48.422909
20
221.000505
11
55.289209
21
216.440245
0
LINE
8
Layer 1
10
55.289209
20
216.440245
11
64.995669
21
209.779165
0
LINE
8
Layer 1
10
64.995669
20
209.779165
11
66.112739
21
209.008981
0
LINE
8
Layer 1
10
66.112739
20
209.008981
11
65.497495
21
208.582826
0
LINE
8
Layer 1
10
65.497495
20
208.582826
11
55.403495
21
201.599846
0
LINE
8
Layer 1
10
55.403495
20
201.599846
11
45.389500
21
194.477000
0
LINE
8
Layer 1
10
45.389500
20
194.477000
11
38.893080
21
189.825590
0
LINE
8
Layer 1
10
38.893080
20
189.825590
11
38.718650
21
189.969786
0
LINE
8
Layer 1
10
38.718650
20
189.969786
11
36.686280
21
191.625536
0
LINE
8
Layer 1
10
36.686280
20
191.625536
11
35.674629
21
192.482410
0
LINE
8
Layer 1
10
35.674629
20
192.482410
11
34.790130
21
193.371186
0
LINE
8
Layer 1
10
34.790130
20
193.371186
11
34.041773
21
193.961933
0
LINE
8
Layer 1
10
34.041773
20
193.961933
11
30.891043
21
196.486303
0
LINE
8
Layer 1
10
30.891043
20
196.486303
11
26.511883
21
200.223333
0
LINE
8
Layer 1
10
26.511883
20
200.223333
11
24.673973
21
201.754423
0
LINE
8
Layer 1
10
24.673973
20
201.754423
11
24.560325
21
201.836411
0
LINE
8
Layer 1
10
24.560325
20
201.836411
11
24.534973
21
208.602231
0
LINE
8
Layer 1
10
24.534973
20
208.602231
11
24.451732
21
213.504983
0
LINE
8
Layer 1
10
24.451732
20
213.504983
11
24.447233
21
218.411821
0
LINE
8
Layer 1
10
24.447233
20
218.411821
11
24.383423
21
219.862661
0
LINE
8
Layer 1
10
24.383423
20
219.862661
11
24.242661
21
222.526509
0
LINE
8
Layer 1
10
24.242661
20
222.526509
11
24.196505
21
225.216231
0
LINE
8
Layer 1
10
24.196505
20
225.216231
11
24.150927
21
228.135186
0
LINE
8
Layer 1
10
24.150927
20
228.135186
11
24.010885
21
231.056181
0
LINE
8
Layer 1
10
24.010885
20
231.056181
11
23.772890
21
235.597401
0
LINE
8
Layer 1
10
23.772890
20
235.597401
11
23.779600
21
236.734000
0
LINE
8
Layer 1
10
23.779600
20
236.734000
11
23.779600
21
236.734000
0
LINE
8
Layer 1
10
32.173280
20
190.560200
11
31.935039
21
190.566011
0
LINE
8
Layer 1
10
31.935039
20
190.566011
11
30.847529
21
191.559907
0
LINE
8
Layer 1
10
30.847529
20
191.559907
11
29.982236
21
192.547740
0
LINE
8
Layer 1
10
29.982236
20
192.547740
11
29.998128
21
192.754891
0
LINE
8
Layer 1
10
29.998128
20
192.754891
11
30.163592
21
192.677723
0
LINE
8
Layer 1
10
30.163592
20
192.677723
11
32.129492
21
190.699453
0
LINE
8
Layer 1
10
32.129492
20
190.699453
11
32.173200
21
190.560000
0
LINE
8
Layer 1
10
32.173200
20
190.560000
11
32.173280
21
190.560200
0
LINE
8
Layer 1
10
27.360900
20
196.027000
11
27.122538
21
196.033802
0
LINE
8
Layer 1
10
27.122538
20
196.033802
11
26.655921
21
196.261025
0
LINE
8
Layer 1
10
26.655921
20
196.261025
11
26.279885
21
196.618738
0
LINE
8
Layer 1
10
26.279885
20
196.618738
11
25.297493
21
197.993398
0
LINE
8
Layer 1
10
25.297493
20
197.993398
11
25.302624
21
198.091961
0
LINE
8
Layer 1
10
25.302624
20
198.091961
11
25.599174
21
197.950486
0
LINE
8
Layer 1
10
25.599174
20
197.950486
11
25.790916
21
197.772534
0
LINE
8
Layer 1
10
25.790916
20
197.772534
11
26.910016
21
196.641004
0
LINE
8
Layer 1
10
26.910016
20
196.641004
11
27.303789
21
196.247000
0
LINE
8
Layer 1
10
27.303789
20
196.247000
11
27.360900
21
196.027000
0
LINE
8
Layer 1
10
27.360900
20
196.027000
11
27.360900
21
196.027000
0
LINE
8
Layer 1
10
25.425800
20
180.142000
11
24.823677
21
179.706204
0
LINE
8
Layer 1
10
24.823677
20
179.706204
11
24.825161
21
179.695321
0
LINE
8
Layer 1
10
24.825161
20
179.695321
11
24.827512
21
179.673187
0
LINE
8
Layer 1
10
24.827512
20
179.673187
11
24.824913
21
179.636334
0
LINE
8
Layer 1
10
24.824913
20
179.636334
11
24.796409
21
179.630893
0
LINE
8
Layer 1
10
24.796409
20
179.630893
11
24.755354
21
179.618032
0
LINE
8
Layer 1
10
24.755354
20
179.618032
11
24.749295
21
179.647835
0
LINE
8
Layer 1
10
24.749295
20
179.647835
11
24.745459
21
179.672445
0
LINE
8
Layer 1
10
24.745459
20
179.672445
11
24.743667
21
179.687284
0
LINE
8
Layer 1
10
24.743667
20
179.687284
11
24.735692
21
180.136559
0
LINE
8
Layer 1
10
24.735692
20
180.136559
11
24.681338
21
184.063159
0
LINE
8
Layer 1
10
24.681338
20
184.063159
11
24.580923
21
197.333659
0
LINE
8
Layer 1
10
24.580923
20
197.333659
11
25.228622
21
196.773208
0
LINE
8
Layer 1
10
25.228622
20
196.773208
11
26.349952
21
195.602838
0
LINE
8
Layer 1
10
26.349952
20
195.602838
11
26.886015
21
195.000828
0
LINE
8
Layer 1
10
26.886015
20
195.000828
11
27.531262
21
194.517678
0
LINE
8
Layer 1
10
27.531262
20
194.517678
11
28.558302
21
193.801534
0
LINE
8
Layer 1
10
28.558302
20
193.801534
11
29.077447
21
193.059290
0
LINE
8
Layer 1
10
29.077447
20
193.059290
11
29.769289
21
192.174716
0
LINE
8
Layer 1
10
29.769289
20
192.174716
11
30.808005
21
191.078770
0
LINE
8
Layer 1
10
30.808005
20
191.078770
11
31.689309
21
189.852666
0
LINE
8
Layer 1
10
31.689309
20
189.852666
11
32.621183
21
188.827236
0
LINE
8
Layer 1
10
32.621183
20
188.827236
11
33.486759
21
188.032957
0
LINE
8
Layer 1
10
33.486759
20
188.032957
11
34.346123
21
187.224666
0
LINE
8
Layer 1
10
34.346123
20
187.224666
11
34.766521
21
186.867768
0
LINE
8
Layer 1
10
34.766521
20
186.867768
11
25.425800
21
180.142000
0
LINE
8
Layer 1
10
61.168200
20
170.428000
11
59.369694
21
172.012100
0
LINE
8
Layer 1
10
59.369694
20
172.012100
11
57.623770
21
173.654910
0
LINE
8
Layer 1
10
57.623770
20
173.654910
11
57.064688
21
174.095157
0
LINE
8
Layer 1
10
57.064688
20
174.095157
11
56.021844
21
174.886432
0
LINE
8
Layer 1
10
56.021844
20
174.886432
11
55.034788
21
175.755237
0
LINE
8
Layer 1
10
55.034788
20
175.755237
11
53.966765
21
176.701254
0
LINE
8
Layer 1
10
53.966765
20
176.701254
11
52.833118
21
177.579287
0
LINE
8
Layer 1
10
52.833118
20
177.579287
11
51.059947
21
178.927173
0
LINE
8
Layer 1
10
51.059947
20
178.927173
11
49.588588
21
180.599307
0
LINE
8
Layer 1
10
49.588588
20
180.599307
11
48.937502
21
181.253371
0
LINE
8
Layer 1
10
48.937502
20
181.253371
11
47.483022
21
182.508941
0
LINE
8
Layer 1
10
47.483022
20
182.508941
11
46.244892
21
183.569611
0
LINE
8
Layer 1
10
46.244892
20
183.569611
11
48.605102
21
185.291391
0
LINE
8
Layer 1
10
48.605102
20
185.291391
11
68.604402
21
200.026791
0
LINE
8
Layer 1
10
68.604402
20
200.026791
11
68.641006
21
196.065931
0
LINE
8
Layer 1
10
68.641006
20
196.065931
11
68.677548
21
181.245931
0
LINE
8
Layer 1
10
68.677548
20
181.245931
11
68.662771
21
170.506231
0
LINE
8
Layer 1
10
68.662771
20
170.506231
11
68.701972
21
163.476631
0
LINE
8
Layer 1
10
68.701972
20
163.476631
11
64.856862
21
166.997241
0
LINE
8
Layer 1
10
64.856862
20
166.997241
11
61.168200
21
170.428000
0
LINE
8
Layer 1
10
70.883430
20
31.972000
11
70.847692
21
32.349178
0
LINE
8
Layer 1
10
70.847692
20
32.349178
11
70.834338
21
34.231598
0
LINE
8
Layer 1
10
70.834338
20
34.231598
11
70.924366
21
32.560638
0
LINE
8
Layer 1
10
70.924366
20
32.560638
11
70.883500
21
31.972000
0
LINE
8
Layer 1
10
70.883500
20
31.972000
11
70.883430
21
31.972000
0
LINE
8
Layer 1
10
71.776787
20
62.843700
11
71.718726
21
62.924825
0
LINE
8
Layer 1
10
71.718726
20
62.924825
11
71.730474
21
63.907711
0
LINE
8
Layer 1
10
71.730474
20
63.907711
11
71.782474
21
63.813107
0
LINE
8
Layer 1
10
71.782474
20
63.813107
11
71.776787
21
62.843700
0
LINE
8
Layer 1
10
72.203738
20
78.087100
11
71.878438
21
74.552140
0
LINE
8
Layer 1
10
71.878438
20
74.552140
11
71.799478
21
74.415736
0
LINE
8
Layer 1
10
71.799478
20
74.415736
11
71.693312
21
75.082536
0
LINE
8
Layer 1
10
71.693312
20
75.082536
11
71.690964
21
75.640142
0
LINE
8
Layer 1
10
71.690964
20
75.640142
11
71.745684
21
79.031272
0
LINE
8
Layer 1
10
71.745684
20
79.031272
11
71.761259
21
80.218517
0
LINE
8
Layer 1
10
71.761259
20
80.218517
11
71.881407
21
80.628892
0
LINE
8
Layer 1
10
71.881407
20
80.628892
11
72.040862
21
80.249490
0
LINE
8
Layer 1
10
72.040862
20
80.249490
11
72.202377
21
79.174327
0
LINE
8
Layer 1
10
72.202377
20
79.174327
11
72.203800
21
78.087100
0
LINE
8
Layer 1
10
72.203800
20
78.087100
11
72.203738
21
78.087100
0
LINE
8
Layer 1
10
72.547651
20
89.785900
11
72.398818
21
89.507161
0
LINE
8
Layer 1
10
72.398818
20
89.507161
11
72.343480
21
89.876796
0
LINE
8
Layer 1
10
72.343480
20
89.876796
11
72.397150
21
95.819756
0
LINE
8
Layer 1
10
72.397150
20
95.819756
11
72.459476
21
96.091570
0
LINE
8
Layer 1
10
72.459476
20
96.091570
11
72.603917
21
95.713776
0
LINE
8
Layer 1
10
72.603917
20
95.713776
11
72.644478
21
92.573186
0
LINE
8
Layer 1
10
72.644478
20
92.573186
11
72.547700
21
89.785900
0
LINE
8
Layer 1
10
72.547700
20
89.785900
11
72.547651
21
89.785900
0
LINE
8
Layer 1
10
9.731910
20
212.606000
11
9.504439
21
212.761696
0
LINE
8
Layer 1
10
9.504439
20
212.761696
11
9.655496
21
212.528462
0
LINE
8
Layer 1
10
9.655496
20
212.528462
11
11.805096
21
210.328222
0
LINE
8
Layer 1
10
11.805096
20
210.328222
11
12.260802
21
209.933174
0
LINE
8
Layer 1
10
12.260802
20
209.933174
11
12.703894
21
209.846794
0
LINE
8
Layer 1
10
12.703894
20
209.846794
11
10.588924
21
211.786354
0
LINE
8
Layer 1
10
10.588924
20
211.786354
11
9.731910
21
212.606000
0
LINE
8
Layer 1
10
9.731910
20
212.606000
11
9.731910
21
212.606000
0
LINE
8
Layer 1
10
0.033751
20
222.104000
11
0.292642
21
221.865325
0
LINE
8
Layer 1
10
0.292642
20
221.865325
11
0.685278
21
221.507439
0
LINE
8
Layer 1
10
0.685278
20
221.507439
11
0.333206
21
221.832801
0
LINE
8
Layer 1
10
0.333206
20
221.832801
11
0.060215
21
222.080225
0
LINE
8
Layer 1
10
0.060215
20
222.080225
11
0.033751
21
222.104000
0
LINE
8
Layer 1
10
0.033751
20
222.104000
11
0.033751
21
222.104000
0
LINE
8
Layer 1
10
0.685277
20
221.507000
11
0.788536
21
221.411654
0
LINE
8
Layer 1
10
0.788536
20
221.411654
11
0.789837
21
221.410666
0
LINE
8
Layer 1
10
0.789837
20
221.410666
11
0.757808
21
221.440963
0
LINE
8
Layer 1
10
0.757808
20
221.440963
11
0.685277
21
221.507000
0
LINE
8
Layer 1
10
0.685277
20
221.507000
11
0.685277
21
221.507000
0
LINE
8
Layer 1
10
121.463000
20
171.732000
11
121.537755
21
171.677836
0
LINE
8
Layer 1
10
121.537755
20
171.677836
11
121.725715
21
171.544401
0
LINE
8
Layer 1
10
121.725715
20
171.544401
11
121.467502
21
171.729031
0
LINE
8
Layer 1
10
121.467502
20
171.729031
11
121.463000
21
171.732000
0
LINE
8
Layer 1
10
100.875000
20
187.077000
11
95.849760
21
190.863740
0
LINE
8
Layer 1
10
95.849760
20
190.863740
11
94.835292
21
191.565600
0
LINE
8
Layer 1
10
94.835292
20
191.565600
11
94.061140
21
191.827460
0
LINE
8
Layer 1
10
94.061140
20
191.827460
11
98.844990
21
188.420250
0
LINE
8
Layer 1
10
98.844990
20
188.420250
11
100.807360
21
186.991670
0
LINE
8
Layer 1
10
100.807360
20
186.991670
11
101.284149
21
186.699821
0
LINE
8
Layer 1
10
101.284149
20
186.699821
11
100.875000
21
187.077000
0
LINE
8
Layer 1
10
100.875000
20
187.077000
11
100.875000
21
187.077000
0
LINE
8
Layer 1
10
80.977900
20
201.969000
11
81.367999
21
201.634733
0
LINE
8
Layer 1
10
81.367999
20
201.634733
11
81.602715
21
201.498826
0
LINE
8
Layer 1
10
81.602715
20
201.498826
11
81.304437
21
201.744924
0
LINE
8
Layer 1
10
81.304437
20
201.744924
11
80.977900
21
201.969000
0
LINE
8
Layer 1
10
117.605000
20
207.157000
11
117.367626
21
207.350534
0
LINE
8
Layer 1
10
117.367626
20
207.350534
11
117.363607
21
207.353503
0
LINE
8
Layer 1
10
117.363607
20
207.353503
11
117.433911
21
207.295504
0
LINE
8
Layer 1
10
117.433911
20
207.295504
11
117.605000
21
207.157000
0
LINE
8
Layer 1
10
117.605000
20
207.157000
11
117.605000
21
207.157000
0
LINE
8
Layer 1
10
118.981000
20
206.041000
11
118.426857
21
206.492250
0
LINE
8
Layer 1
10
118.426857
20
206.492250
11
117.605165
21
207.157569
0
LINE
8
Layer 1
10
117.605165
20
207.157569
11
118.343012
21
206.555939
0
LINE
8
Layer 1
10
118.343012
20
206.555939
11
118.924876
21
206.085867
0
LINE
8
Layer 1
10
118.924876
20
206.085867
11
119.049360
21
205.985483
0
LINE
8
Layer 1
10
119.049360
20
205.985483
11
118.981000
21
206.041000
0
LINE
8
Layer 1
10
118.981000
20
206.041000
11
118.981000
21
206.041000
0
LINE
8
Layer 1
10
79.560700
20
239.470000
11
79.784657
21
239.320987
0
LINE
8
Layer 1
10
79.784657
20
239.320987
11
79.504989
21
239.583278
0
LINE
8
Layer 1
10
79.504989
20
239.583278
11
79.195829
21
239.825537
0
LINE
8
Layer 1
10
79.195829
20
239.825537
11
79.560700
21
239.470000
0
LINE
8
Layer 1
10
79.560700
20
239.470000
11
79.560700
21
239.470000
0
LINE
8
Layer 1
10
72.017400
20
31.563000
11
72.005961
21
29.034550
0
LINE
8
Layer 1
10
72.005961
20
29.034550
11
72.060995
21
28.454067
0
LINE
8
Layer 1
10
72.060995
20
28.454067
11
72.146694
21
29.029602
0
LINE
8
Layer 1
10
72.146694
20
29.029602
11
72.314941
21
35.582602
0
LINE
8
Layer 1
10
72.314941
20
35.582602
11
72.282973
21
36.867106
0
LINE
8
Layer 1
10
72.282973
20
36.867106
11
71.966081
21
37.680452
0
LINE
8
Layer 1
10
71.966081
20
37.680452
11
72.017400
21
31.563000
0
LINE
8
Layer 1
10
72.017400
20
31.563000
11
72.017400
21
31.563000
0
LINE
8
Layer 1
10
71.671400
20
1.963060
11
71.669424
21
2.280385
0
LINE
8
Layer 1
10
71.669424
20
2.280385
11
71.669179
21
2.284838
0
LINE
8
Layer 1
10
71.669179
20
2.284838
11
71.669117
21
2.189862
0
LINE
8
Layer 1
10
71.669117
20
2.189862
11
71.671400
21
1.963060
0
LINE
8
Layer 1
10
71.671400
20
1.963060
11
71.671400
21
1.963060
0
LINE
8
Layer 1
10
71.687700
20
0.097703
11
71.682620
21
0.848349
0
LINE
8
Layer 1
10
71.682620
20
0.848349
11
71.671365
21
1.963059
0
LINE
8
Layer 1
10
71.671365
20
1.963059
11
71.677673
21
0.958909
0
LINE
8
Layer 1
10
71.677673
20
0.958909
11
71.686522
21
0.173355
0
LINE
8
Layer 1
10
71.686522
20
0.173355
11
71.688584
21
0.005460
0
LINE
8
Layer 1
10
71.688584
20
0.005460
11
71.687700
21
0.097703
0
LINE
8
Layer 1
10
71.687700
20
0.097703
11
71.687700
21
0.097703
0
LINE
8
Layer 1
10
72.660200
20
54.380600
11
72.699031
21
54.099634
0
LINE
8
Layer 1
10
72.699031
20
54.099634
11
72.729268
21
54.501546
0
LINE
8
Layer 1
10
72.729268
20
54.501546
11
72.712335
21
54.913844
0
LINE
8
Layer 1
10
72.712335
20
54.913844
11
72.660200
21
54.380600
0
LINE
8
Layer 1
10
72.660200
20
54.380600
11
72.660200
21
54.380600
 0 
ENDSEC
 0 
EOF