999
"DXF R12 Output" (www.mydxf.blogspot.com)
 0 
SECTION
 2 
HEADER
 9 
$ACADVER
 1 
AC1009
 9 
$EXTMIN
 10 
 0 
 20 
 0 
 9 
$EXTMAX
 10 
 8.5 
 20 
 11 
 0 
ENDSEC
 0 
SECTION
 2 
ENTITIES
0
LINE
8
Layer 1
10
49.534400
20
273.426000
11
49.136571
21
273.102616
0
LINE
8
Layer 1
10
49.136571
20
273.102616
11
49.083764
21
272.982785
0
LINE
8
Layer 1
10
49.083764
20
272.982785
11
49.229566
21
272.991195
0
LINE
8
Layer 1
10
49.229566
20
272.991195
11
50.350406
21
273.723279
0
LINE
8
Layer 1
10
50.350406
20
273.723279
11
50.527161
21
273.917648
0
LINE
8
Layer 1
10
50.527161
20
273.917648
11
50.445196
21
274.269875
0
LINE
8
Layer 1
10
50.445196
20
274.269875
11
49.534400
21
273.426000
0
LINE
8
Layer 1
10
49.534400
20
273.426000
11
49.534400
21
273.426000
0
LINE
8
Layer 1
10
53.532900
20
275.900000
11
53.588362
21
275.963935
0
LINE
8
Layer 1
10
53.588362
20
275.963935
11
53.469397
21
275.937101
0
LINE
8
Layer 1
10
53.469397
20
275.937101
11
53.449549
21
275.872424
0
LINE
8
Layer 1
10
53.449549
20
275.872424
11
53.532900
21
275.900000
0
LINE
8
Layer 1
10
77.058800
20
103.373000
11
75.331950
21
104.879980
0
LINE
8
Layer 1
10
75.331950
20
104.879980
11
74.717087
21
105.288691
0
LINE
8
Layer 1
10
74.717087
20
105.288691
11
76.361647
21
103.920341
0
LINE
8
Layer 1
10
76.361647
20
103.920341
11
77.036237
21
103.348887
0
LINE
8
Layer 1
10
77.036237
20
103.348887
11
77.199847
21
103.228065
0
LINE
8
Layer 1
10
77.199847
20
103.228065
11
77.058800
21
103.373000
0
LINE
8
Layer 1
10
77.058800
20
103.373000
11
77.058800
21
103.373000
0
LINE
8
Layer 1
10
84.230000
20
97.199500
11
84.147332
21
97.268506
0
LINE
8
Layer 1
10
84.147332
20
97.268506
11
84.144981
21
97.270360
0
LINE
8
Layer 1
10
84.144981
20
97.270360
11
84.171509
21
97.248101
0
LINE
8
Layer 1
10
84.171509
20
97.248101
11
84.230000
21
97.199500
0
LINE
8
Layer 1
10
84.734000
20
96.780300
11
84.532429
21
96.948485
0
LINE
8
Layer 1
10
84.532429
20
96.948485
11
84.229943
21
97.199524
0
LINE
8
Layer 1
10
84.229943
20
97.199524
11
84.502191
21
96.972476
0
LINE
8
Layer 1
10
84.502191
20
96.972476
11
84.713649
21
96.797159
0
LINE
8
Layer 1
10
84.713649
20
96.797159
11
84.734000
21
96.780300
0
LINE
8
Layer 1
10
84.734000
20
96.780300
11
84.734000
21
96.780300
0
LINE
8
Layer 1
10
70.362500
20
109.184000
11
70.443563
21
109.127733
0
LINE
8
Layer 1
10
70.443563
20
109.127733
11
70.341664
21
109.224933
0
LINE
8
Layer 1
10
70.341664
20
109.224933
11
70.229498
21
109.315580
0
LINE
8
Layer 1
10
70.229498
20
109.315580
11
70.362500
21
109.184000
0
LINE
8
Layer 1
10
70.362500
20
109.184000
11
70.362500
21
109.184000
0
LINE
8
Layer 1
10
88.701300
20
221.486000
11
86.876500
21
223.686860
0
LINE
8
Layer 1
10
86.876500
20
223.686860
11
84.990490
21
225.920490
0
LINE
8
Layer 1
10
84.990490
20
225.920490
11
84.034994
21
227.045350
0
LINE
8
Layer 1
10
84.034994
20
227.045350
11
83.709445
21
227.434771
0
LINE
8
Layer 1
10
83.709445
20
227.434771
11
83.467620
21
227.728968
0
LINE
8
Layer 1
10
83.467620
20
227.728968
11
77.117800
21
235.346968
0
LINE
8
Layer 1
10
77.117800
20
235.346968
11
71.012350
21
242.661738
0
LINE
8
Layer 1
10
71.012350
20
242.661738
11
64.777980
21
249.880798
0
LINE
8
Layer 1
10
64.777980
20
249.880798
11
58.514790
21
257.074248
0
LINE
8
Layer 1
10
58.514790
20
257.074248
11
52.227100
21
264.246000
0
LINE
8
Layer 1
10
52.227100
20
264.246000
11
49.760170
21
267.044910
0
LINE
8
Layer 1
10
49.760170
20
267.044910
11
48.180420
21
268.837180
0
LINE
8
Layer 1
10
48.180420
20
268.837180
11
47.820000
21
269.251953
0
LINE
8
Layer 1
10
47.820000
20
269.251953
11
47.815795
21
272.500133
0
LINE
8
Layer 1
10
47.815795
20
272.500133
11
47.868229
21
272.542675
0
LINE
8
Layer 1
10
47.868229
20
272.542675
11
48.588399
21
273.093121
0
LINE
8
Layer 1
10
48.588399
20
273.093121
11
49.184889
21
273.776105
0
LINE
8
Layer 1
10
49.184889
20
273.776105
11
49.578575
21
274.013911
0
LINE
8
Layer 1
10
49.578575
20
274.013911
11
49.895714
21
274.184198
0
LINE
8
Layer 1
10
49.895714
20
274.184198
11
50.336579
21
274.586974
0
LINE
8
Layer 1
10
50.336579
20
274.586974
11
51.145709
21
275.208884
0
LINE
8
Layer 1
10
51.145709
20
275.208884
11
51.397491
21
275.367671
0
LINE
8
Layer 1
10
51.397491
20
275.367671
11
51.419279
21
274.983476
0
LINE
8
Layer 1
10
51.419279
20
274.983476
11
51.407261
21
274.610224
0
LINE
8
Layer 1
10
51.407261
20
274.610224
11
51.715557
21
274.748713
0
LINE
8
Layer 1
10
51.715557
20
274.748713
11
51.998440
21
274.938677
0
LINE
8
Layer 1
10
51.998440
20
274.938677
11
52.671793
21
275.338981
0
LINE
8
Layer 1
10
52.671793
20
275.338981
11
52.448640
21
275.577408
0
LINE
8
Layer 1
10
52.448640
20
275.577408
11
52.601737
21
275.809279
0
LINE
8
Layer 1
10
52.601737
20
275.809279
11
53.217588
21
276.178665
0
LINE
8
Layer 1
10
53.217588
20
276.178665
11
53.730349
21
276.513008
0
LINE
8
Layer 1
10
53.730349
20
276.513008
11
54.266018
21
276.816281
0
LINE
8
Layer 1
10
54.266018
20
276.816281
11
54.538577
21
277.114683
0
LINE
8
Layer 1
10
54.538577
20
277.114683
11
55.308651
21
277.635942
0
LINE
8
Layer 1
10
55.308651
20
277.635942
11
56.194507
21
277.918753
0
LINE
8
Layer 1
10
56.194507
20
277.918753
11
56.777426
21
278.027361
0
LINE
8
Layer 1
10
56.777426
20
278.027361
11
57.191679
21
278.396594
0
LINE
8
Layer 1
10
57.191679
20
278.396594
11
57.446199
21
278.658998
0
LINE
8
Layer 1
10
57.446199
20
278.658998
11
57.795719
21
278.766104
0
LINE
8
Layer 1
10
57.795719
20
278.766104
11
58.123741
21
278.922183
0
LINE
8
Layer 1
10
58.123741
20
278.922183
11
58.306022
21
279.236399
0
LINE
8
Layer 1
10
58.306022
20
279.236399
11
58.353990
21
279.508771
0
LINE
8
Layer 1
10
58.353990
20
279.508771
11
58.555825
21
279.770013
0
LINE
8
Layer 1
10
58.555825
20
279.770013
11
59.006336
21
279.831103
0
LINE
8
Layer 1
10
59.006336
20
279.831103
11
59.517505
21
279.969979
0
LINE
8
Layer 1
10
59.517505
20
279.969979
11
60.127675
21
280.320061
0
LINE
8
Layer 1
10
60.127675
20
280.320061
11
60.822785
21
280.428158
0
LINE
8
Layer 1
10
60.822785
20
280.428158
11
61.159792
21
280.490144
0
LINE
8
Layer 1
10
61.159792
20
280.490144
11
61.369878
21
280.706279
0
LINE
8
Layer 1
10
61.369878
20
280.706279
11
61.742985
21
281.051320
0
LINE
8
Layer 1
10
61.742985
20
281.051320
11
62.130291
21
281.383098
0
LINE
8
Layer 1
10
62.130291
20
281.383098
11
62.303757
21
281.579723
0
LINE
8
Layer 1
10
62.303757
20
281.579723
11
62.561980
21
281.654530
0
LINE
8
Layer 1
10
62.561980
20
281.654530
11
63.118559
21
281.751866
0
LINE
8
Layer 1
10
63.118559
20
281.751866
11
63.406078
21
281.886164
0
LINE
8
Layer 1
10
63.406078
20
281.886164
11
64.334756
21
282.540597
0
LINE
8
Layer 1
10
64.334756
20
282.540597
11
65.334568
21
283.103384
0
LINE
8
Layer 1
10
65.334568
20
283.103384
11
66.335820
21
283.675582
0
LINE
8
Layer 1
10
66.335820
20
283.675582
11
66.821844
21
283.980275
0
LINE
8
Layer 1
10
66.821844
20
283.980275
11
67.217428
21
284.396544
0
LINE
8
Layer 1
10
67.217428
20
284.396544
11
67.525600
21
284.496340
0
LINE
8
Layer 1
10
67.525600
20
284.496340
11
68.435150
21
284.915138
0
LINE
8
Layer 1
10
68.435150
20
284.915138
11
69.261550
21
285.480589
0
LINE
8
Layer 1
10
69.261550
20
285.480589
11
69.586294
21
285.738306
0
LINE
8
Layer 1
10
69.586294
20
285.738306
11
73.294504
21
287.744646
0
LINE
8
Layer 1
10
73.294504
20
287.744646
11
75.200174
21
288.855776
0
LINE
8
Layer 1
10
75.200174
20
288.855776
11
75.671203
21
289.140326
0
LINE
8
Layer 1
10
75.671203
20
289.140326
11
75.737243
21
289.182496
0
LINE
8
Layer 1
10
75.737243
20
289.182496
11
75.846502
21
289.261767
0
LINE
8
Layer 1
10
75.846502
20
289.261767
11
76.065388
21
289.420799
0
LINE
8
Layer 1
10
76.065388
20
289.420799
11
76.504830
21
289.740839
0
LINE
8
Layer 1
10
76.504830
20
289.740839
11
78.282700
21
291.047729
0
LINE
8
Layer 1
10
78.282700
20
291.047729
11
80.172790
21
292.459359
0
LINE
8
Layer 1
10
80.172790
20
292.459359
11
80.648961
21
292.818232
0
LINE
8
Layer 1
10
80.648961
20
292.818232
11
81.278909
21
293.185888
0
LINE
8
Layer 1
10
81.278909
20
293.185888
11
82.552159
21
293.927381
0
LINE
8
Layer 1
10
82.552159
20
293.927381
11
87.770009
21
296.964221
0
LINE
8
Layer 1
10
87.770009
20
296.964221
11
88.422340
21
297.351912
0
LINE
8
Layer 1
10
88.422340
20
297.351912
11
88.582425
21
297.449112
0
LINE
8
Layer 1
10
88.582425
20
297.449112
11
88.662252
21
297.497710
0
LINE
8
Layer 1
10
88.662252
20
297.497710
11
88.687169
21
297.521699
0
LINE
8
Layer 1
10
88.687169
20
297.521699
11
88.648463
21
297.545073
0
LINE
8
Layer 1
10
88.648463
20
297.545073
11
88.339052
21
297.731311
0
LINE
8
Layer 1
10
88.339052
20
297.731311
11
87.161272
21
298.478988
0
LINE
8
Layer 1
10
87.161272
20
298.478988
11
81.364672
21
302.199448
0
LINE
8
Layer 1
10
81.364672
20
302.199448
11
81.177135
21
302.316570
0
LINE
8
Layer 1
10
81.177135
20
302.316570
11
81.034921
21
302.432442
0
LINE
8
Layer 1
10
81.034921
20
302.432442
11
80.749501
21
302.664191
0
LINE
8
Layer 1
10
80.749501
20
302.664191
11
80.175140
21
303.127439
0
LINE
8
Layer 1
10
80.175140
20
303.127439
11
79.015040
21
304.052563
0
LINE
8
Layer 1
10
79.015040
20
304.052563
11
76.668560
21
305.896163
0
LINE
8
Layer 1
10
76.668560
20
305.896163
11
76.179526
21
306.278165
0
LINE
8
Layer 1
10
76.179526
20
306.278165
11
75.909629
21
306.482457
0
LINE
8
Layer 1
10
75.909629
20
306.482457
11
75.449400
21
306.821000
0
LINE
8
Layer 1
10
75.449400
20
306.821000
11
74.524697
21
307.492869
0
LINE
8
Layer 1
10
74.524697
20
307.492869
11
72.652347
21
308.808039
0
LINE
8
Layer 1
10
72.652347
20
308.808039
11
68.807297
21
311.312009
0
LINE
8
Layer 1
10
68.807297
20
311.312009
11
63.899667
21
313.971919
0
LINE
8
Layer 1
10
63.899667
20
313.971919
11
59.065797
21
316.385479
0
LINE
8
Layer 1
10
59.065797
20
316.385479
11
54.266677
21
318.851599
0
LINE
8
Layer 1
10
54.266677
20
318.851599
11
51.297297
21
320.453179
0
LINE
8
Layer 1
10
51.297297
20
320.453179
11
47.469437
21
322.334369
0
LINE
8
Layer 1
10
47.469437
20
322.334369
11
47.249499
21
341.526569
0
LINE
8
Layer 1
10
47.249499
20
341.526569
11
47.140860
21
354.567469
0
LINE
8
Layer 1
10
47.140860
20
354.567469
11
47.104626
21
361.089059
0
LINE
8
Layer 1
10
47.104626
20
361.089059
11
47.066289
21
367.608169
0
LINE
8
Layer 1
10
47.066289
20
367.608169
11
46.402396
21
383.979069
0
LINE
8
Layer 1
10
46.402396
20
383.979069
11
45.898083
21
395.733364
0
LINE
8
Layer 1
10
45.898083
20
395.733364
11
45.288546
21
407.451269
0
LINE
8
Layer 1
10
45.288546
20
407.451269
11
44.723300
21
417.967000
0
LINE
8
Layer 1
10
44.723300
20
417.967000
11
44.643984
21
420.471829
0
LINE
8
Layer 1
10
44.643984
20
420.471829
11
44.594254
21
417.061158
0
LINE
8
Layer 1
10
44.594254
20
417.061158
11
44.351563
21
408.985848
0
LINE
8
Layer 1
10
44.351563
20
408.985848
11
43.621384
21
388.125248
0
LINE
8
Layer 1
10
43.621384
20
388.125248
11
43.118253
21
375.386248
0
LINE
8
Layer 1
10
43.118253
20
375.386248
11
42.844839
21
369.017022
0
LINE
8
Layer 1
10
42.844839
20
369.017022
11
42.700948
21
362.652648
0
LINE
8
Layer 1
10
42.700948
20
362.652648
11
42.606968
21
355.391048
0
LINE
8
Layer 1
10
42.606968
20
355.391048
11
42.489547
21
348.125618
0
LINE
8
Layer 1
10
42.489547
20
348.125618
11
42.264540
21
333.589718
0
LINE
8
Layer 1
10
42.264540
20
333.589718
11
41.978875
21
313.692818
0
LINE
8
Layer 1
10
41.978875
20
313.692818
11
41.818604
21
301.442618
0
LINE
8
Layer 1
10
41.818604
20
301.442618
11
41.630819
21
285.105518
0
LINE
8
Layer 1
10
41.630819
20
285.105518
11
41.548644
21
271.801618
0
LINE
8
Layer 1
10
41.548644
20
271.801618
11
41.532321
21
269.806288
0
LINE
8
Layer 1
10
41.532321
20
269.806288
11
40.284971
21
268.374738
0
LINE
8
Layer 1
10
40.284971
20
268.374738
11
38.535671
21
266.354928
0
LINE
8
Layer 1
10
38.535671
20
266.354928
11
37.091701
21
264.663198
0
LINE
8
Layer 1
10
37.091701
20
264.663198
11
33.154951
21
260.009448
0
LINE
8
Layer 1
10
33.154951
20
260.009448
11
25.934000
21
251.653000
0
LINE
8
Layer 1
10
25.934000
20
251.653000
11
20.671630
21
245.623720
0
LINE
8
Layer 1
10
20.671630
20
245.623720
11
18.217954
21
242.713840
0
LINE
8
Layer 1
10
18.217954
20
242.713840
11
15.703100
21
239.854000
0
LINE
8
Layer 1
10
15.703100
20
239.854000
11
15.006497
21
238.967075
0
LINE
8
Layer 1
10
15.006497
20
238.967075
11
13.744985
21
237.322829
0
LINE
8
Layer 1
10
13.744985
20
237.322829
11
12.399207
21
235.726065
0
LINE
8
Layer 1
10
12.399207
20
235.726065
11
10.935426
21
233.996271
0
LINE
8
Layer 1
10
10.935426
20
233.996271
11
9.541427
21
232.202855
0
LINE
8
Layer 1
10
9.541427
20
232.202855
11
7.389417
21
229.401105
0
LINE
8
Layer 1
10
7.389417
20
229.401105
11
6.191597
21
228.106705
0
LINE
8
Layer 1
10
6.191597
20
228.106705
11
5.561463
21
227.490978
0
LINE
8
Layer 1
10
5.561463
20
227.490978
11
5.238319
21
227.191707
0
LINE
8
Layer 1
10
5.238319
20
227.191707
11
4.680962
21
226.639173
0
LINE
8
Layer 1
10
4.680962
20
226.639173
11
2.809052
21
224.558143
0
LINE
8
Layer 1
10
2.809052
20
224.558143
11
0.966382
21
222.376323
0
LINE
8
Layer 1
10
0.966382
20
222.376323
11
0.056933
21
221.290000
0
LINE
8
Layer 1
10
0.056933
20
221.290000
11
0.000169
21
221.222233
0
LINE
8
Layer 1
10
0.000169
20
221.222233
11
0.053470
21
221.162379
0
LINE
8
Layer 1
10
0.053470
20
221.162379
11
0.185172
21
221.044650
0
LINE
8
Layer 1
10
0.185172
20
221.044650
11
0.448268
21
220.809438
0
LINE
8
Layer 1
10
0.448268
20
220.809438
11
0.973596
21
220.339143
0
LINE
8
Layer 1
10
0.973596
20
220.339143
11
2.183406
21
219.255343
0
LINE
8
Layer 1
10
2.183406
20
219.255343
11
2.787262
21
218.714558
0
LINE
8
Layer 1
10
2.787262
20
218.714558
11
3.088957
21
218.444350
0
LINE
8
Layer 1
10
3.088957
20
218.444350
11
3.420379
21
218.178965
0
LINE
8
Layer 1
10
3.420379
20
218.178965
11
6.071069
21
216.062685
0
LINE
8
Layer 1
10
6.071069
20
216.062685
11
8.983809
21
213.798625
0
LINE
8
Layer 1
10
8.983809
20
213.798625
11
14.557900
21
209.491000
0
LINE
8
Layer 1
10
14.557900
20
209.491000
11
17.886950
21
206.958470
0
LINE
8
Layer 1
10
17.886950
20
206.958470
11
21.213900
21
204.464400
0
LINE
8
Layer 1
10
21.213900
20
204.464400
11
22.882385
21
203.182009
0
LINE
8
Layer 1
10
22.882385
20
203.182009
11
24.394120
21
201.885620
0
LINE
8
Layer 1
10
24.394120
20
201.885620
11
25.612030
21
200.990906
0
LINE
8
Layer 1
10
25.612030
20
200.990906
11
30.753640
21
197.178086
0
LINE
8
Layer 1
10
30.753640
20
197.178086
11
37.986550
21
191.591786
0
LINE
8
Layer 1
10
37.986550
20
191.591786
11
41.008050
21
189.294096
0
LINE
8
Layer 1
10
41.008050
20
189.294096
11
41.288212
21
189.099820
0
LINE
8
Layer 1
10
41.288212
20
189.099820
11
38.693722
21
186.774430
0
LINE
8
Layer 1
10
38.693722
20
186.774430
11
29.569000
21
178.666000
0
LINE
8
Layer 1
10
29.569000
20
178.666000
11
16.586600
21
166.917400
0
LINE
8
Layer 1
10
16.586600
20
166.917400
11
10.817580
21
161.597340
0
LINE
8
Layer 1
10
10.817580
20
161.597340
11
9.417447
21
160.361407
0
LINE
8
Layer 1
10
9.417447
20
160.361407
11
11.403755
21
161.947436
0
LINE
8
Layer 1
10
11.403755
20
161.947436
11
16.166205
21
165.630176
0
LINE
8
Layer 1
10
16.166205
20
165.630176
11
28.502905
21
175.102646
0
LINE
8
Layer 1
10
28.502905
20
175.102646
11
41.622205
21
185.092176
0
LINE
8
Layer 1
10
41.622205
20
185.092176
11
41.631727
21
181.245956
0
LINE
8
Layer 1
10
41.631727
20
181.245956
11
41.616950
21
170.506256
0
LINE
8
Layer 1
10
41.616950
20
170.506256
11
41.625050
21
160.288456
0
LINE
8
Layer 1
10
41.625050
20
160.288456
11
41.659983
21
158.777276
0
LINE
8
Layer 1
10
41.659983
20
158.777276
11
41.756444
21
153.200856
0
LINE
8
Layer 1
10
41.756444
20
153.200856
11
41.846780
21
147.117906
0
LINE
8
Layer 1
10
41.846780
20
147.117906
11
41.984303
21
142.391966
0
LINE
8
Layer 1
10
41.984303
20
142.391966
11
41.795026
21
137.667816
0
LINE
8
Layer 1
10
41.795026
20
137.667816
11
41.755515
21
135.701176
0
LINE
8
Layer 1
10
41.755515
20
135.701176
11
41.781051
21
131.608736
0
LINE
8
Layer 1
10
41.781051
20
131.608736
11
41.901749
21
112.710636
0
LINE
8
Layer 1
10
41.901749
20
112.710636
11
41.960674
21
107.101576
0
LINE
8
Layer 1
10
41.960674
20
107.101576
11
42.043715
21
101.527506
0
LINE
8
Layer 1
10
42.043715
20
101.527506
11
42.062655
21
98.705075
0
LINE
8
Layer 1
10
42.062655
20
98.705075
11
41.984730
21
96.033086
0
LINE
8
Layer 1
10
41.984730
20
96.033086
11
42.026655
21
94.008076
0
LINE
8
Layer 1
10
42.026655
20
94.008076
11
42.179566
21
85.429206
0
LINE
8
Layer 1
10
42.179566
20
85.429206
11
42.219695
21
73.170806
0
LINE
8
Layer 1
10
42.219695
20
73.170806
11
42.262172
21
68.080646
0
LINE
8
Layer 1
10
42.262172
20
68.080646
11
42.361415
21
61.091856
0
LINE
8
Layer 1
10
42.361415
20
61.091856
11
42.378665
21
59.571026
0
LINE
8
Layer 1
10
42.378665
20
59.571026
11
42.513646
21
53.496986
0
LINE
8
Layer 1
10
42.513646
20
53.496986
11
42.869861
21
47.463626
0
LINE
8
Layer 1
10
42.869861
20
47.463626
11
42.994415
21
44.436682
0
LINE
8
Layer 1
10
42.994415
20
44.436682
11
43.084976
21
41.384516
0
LINE
8
Layer 1
10
43.084976
20
41.384516
11
43.218597
21
38.865466
0
LINE
8
Layer 1
10
43.218597
20
38.865466
11
43.497421
21
34.386543
0
LINE
8
Layer 1
10
43.497421
20
34.386543
11
43.670838
21
29.810976
0
LINE
8
Layer 1
10
43.670838
20
29.810976
11
43.897330
21
24.224296
0
LINE
8
Layer 1
10
43.897330
20
24.224296
11
44.128027
21
18.160516
0
LINE
8
Layer 1
10
44.128027
20
18.160516
11
44.403306
21
9.555176
0
LINE
8
Layer 1
10
44.403306
20
9.555176
11
44.439416
21
8.730331
0
LINE
8
Layer 1
10
44.439416
20
8.730331
11
44.528640
21
7.513951
0
LINE
8
Layer 1
10
44.528640
20
7.513951
11
44.592821
21
3.518841
0
LINE
8
Layer 1
10
44.592821
20
3.518841
11
44.623301
21
2.285161
0
LINE
8
Layer 1
10
44.623301
20
2.285161
11
44.625341
21
4.360011
0
LINE
8
Layer 1
10
44.625341
20
4.360011
11
44.618974
21
12.387831
0
LINE
8
Layer 1
10
44.618974
20
12.387831
11
44.596899
21
17.975261
0
LINE
8
Layer 1
10
44.596899
20
17.975261
11
44.581317
21
22.475171
0
LINE
8
Layer 1
10
44.581317
20
22.475171
11
44.623912
21
26.940272
0
LINE
8
Layer 1
10
44.623912
20
26.940272
11
44.490794
21
31.361971
0
LINE
8
Layer 1
10
44.490794
20
31.361971
11
44.561161
21
33.602031
0
LINE
8
Layer 1
10
44.561161
20
33.602031
11
44.634369
21
35.338781
0
LINE
8
Layer 1
10
44.634369
20
35.338781
11
44.611738
21
38.282001
0
LINE
8
Layer 1
10
44.611738
20
38.282001
11
44.658979
21
43.309471
0
LINE
8
Layer 1
10
44.658979
20
43.309471
11
44.700466
21
44.763521
0
LINE
8
Layer 1
10
44.700466
20
44.763521
11
44.877583
21
44.385204
0
LINE
8
Layer 1
10
44.877583
20
44.385204
11
45.007540
21
43.622004
0
LINE
8
Layer 1
10
45.007540
20
43.622004
11
45.282989
21
42.387921
0
LINE
8
Layer 1
10
45.282989
20
42.387921
11
45.378388
21
43.990217
0
LINE
8
Layer 1
10
45.378388
20
43.990217
11
45.418650
21
45.660591
0
LINE
8
Layer 1
10
45.418650
20
45.660591
11
45.562449
21
47.563190
0
LINE
8
Layer 1
10
45.562449
20
47.563190
11
45.554805
21
49.471201
0
LINE
8
Layer 1
10
45.554805
20
49.471201
11
45.383434
21
49.347291
0
LINE
8
Layer 1
10
45.383434
20
49.347291
11
45.225051
21
49.390322
0
LINE
8
Layer 1
10
45.225051
20
49.390322
11
45.147327
21
50.705622
0
LINE
8
Layer 1
10
45.147327
20
50.705622
11
45.264192
21
54.201132
0
LINE
8
Layer 1
10
45.264192
20
54.201132
11
45.312650
21
57.196959
0
LINE
8
Layer 1
10
45.312650
20
57.196959
11
45.381610
21
60.180082
0
LINE
8
Layer 1
10
45.381610
20
60.180082
11
45.317427
21
62.156862
0
LINE
8
Layer 1
10
45.317427
20
62.156862
11
45.362453
21
66.559396
0
LINE
8
Layer 1
10
45.362453
20
66.559396
11
45.628382
21
70.954122
0
LINE
8
Layer 1
10
45.628382
20
70.954122
11
45.841266
21
73.588707
0
LINE
8
Layer 1
10
45.841266
20
73.588707
11
45.797247
21
76.231512
0
LINE
8
Layer 1
10
45.797247
20
76.231512
11
45.845168
21
79.682872
0
LINE
8
Layer 1
10
45.845168
20
79.682872
11
45.897154
21
81.393949
0
LINE
8
Layer 1
10
45.897154
20
81.393949
11
45.789889
21
83.102452
0
LINE
8
Layer 1
10
45.789889
20
83.102452
11
45.590479
21
85.742692
0
LINE
8
Layer 1
10
45.590479
20
85.742692
11
45.750499
21
87.634022
0
LINE
8
Layer 1
10
45.750499
20
87.634022
11
45.887890
21
90.001212
0
LINE
8
Layer 1
10
45.887890
20
90.001212
11
45.935795
21
93.192900
0
LINE
8
Layer 1
10
45.935795
20
93.192900
11
46.166198
21
96.376622
0
LINE
8
Layer 1
10
46.166198
20
96.376622
11
46.230999
21
99.322192
0
LINE
8
Layer 1
10
46.230999
20
99.322192
11
46.193126
21
101.826561
0
LINE
8
Layer 1
10
46.193126
20
101.826561
11
46.170093
21
104.341872
0
LINE
8
Layer 1
10
46.170093
20
104.341872
11
46.194602
21
106.831957
0
LINE
8
Layer 1
10
46.194602
20
106.831957
11
46.352067
21
109.238012
0
LINE
8
Layer 1
10
46.352067
20
109.238012
11
46.390587
21
110.748942
0
LINE
8
Layer 1
10
46.390587
20
110.748942
11
46.405474
21
116.330458
0
LINE
8
Layer 1
10
46.405474
20
116.330458
11
46.490942
21
121.888042
0
LINE
8
Layer 1
10
46.490942
20
121.888042
11
46.551600
21
126.466252
0
LINE
8
Layer 1
10
46.551600
20
126.466252
11
46.710322
21
126.311052
0
LINE
8
Layer 1
10
46.710322
20
126.311052
11
47.237513
21
125.869445
0
LINE
8
Layer 1
10
47.237513
20
125.869445
11
48.379433
21
125.003670
0
LINE
8
Layer 1
10
48.379433
20
125.003670
11
53.645083
21
120.997550
0
LINE
8
Layer 1
10
53.645083
20
120.997550
11
55.212843
21
119.814190
0
LINE
8
Layer 1
10
55.212843
20
119.814190
11
56.776463
21
118.644940
0
LINE
8
Layer 1
10
56.776463
20
118.644940
11
58.273553
21
117.439950
0
LINE
8
Layer 1
10
58.273553
20
117.439950
11
58.844141
21
117.018254
0
LINE
8
Layer 1
10
58.844141
20
117.018254
11
61.249171
21
115.216954
0
LINE
8
Layer 1
10
61.249171
20
115.216954
11
64.631831
21
112.579064
0
LINE
8
Layer 1
10
64.631831
20
112.579064
11
66.040931
21
111.489084
0
LINE
8
Layer 1
10
66.040931
20
111.489084
11
67.981111
21
109.998924
0
LINE
8
Layer 1
10
67.981111
20
109.998924
11
68.403115
21
109.674549
0
LINE
8
Layer 1
10
68.403115
20
109.674549
11
70.096445
21
108.387939
0
LINE
8
Layer 1
10
70.096445
20
108.387939
11
71.774145
21
107.104799
0
LINE
8
Layer 1
10
71.774145
20
107.104799
11
73.439605
21
105.782209
0
LINE
8
Layer 1
10
73.439605
20
105.782209
11
74.136270
21
105.242036
0
LINE
8
Layer 1
10
74.136270
20
105.242036
11
76.634110
21
103.292706
0
LINE
8
Layer 1
10
76.634110
20
103.292706
11
78.165510
21
102.078306
0
LINE
8
Layer 1
10
78.165510
20
102.078306
11
79.824530
21
100.756456
0
LINE
8
Layer 1
10
79.824530
20
100.756456
11
82.169090
21
98.868956
0
LINE
8
Layer 1
10
82.169090
20
98.868956
11
82.395088
21
98.689519
0
LINE
8
Layer 1
10
82.395088
20
98.689519
11
82.733311
21
98.430812
0
LINE
8
Layer 1
10
82.733311
20
98.430812
11
83.811731
21
97.542530
0
LINE
8
Layer 1
10
83.811731
20
97.542530
11
84.144945
21
97.270714
0
LINE
8
Layer 1
10
84.144945
20
97.270714
11
83.590988
21
97.737055
0
LINE
8
Layer 1
10
83.590988
20
97.737055
11
81.441078
21
99.542425
0
LINE
8
Layer 1
10
81.441078
20
99.542425
11
79.942258
21
100.795775
0
LINE
8
Layer 1
10
79.942258
20
100.795775
11
78.735348
21
101.805625
0
LINE
8
Layer 1
10
78.735348
20
101.805625
11
76.342498
21
103.788835
0
LINE
8
Layer 1
10
76.342498
20
103.788835
11
75.753543
21
104.305383
0
LINE
8
Layer 1
10
75.753543
20
104.305383
11
75.299818
21
104.709525
0
LINE
8
Layer 1
10
75.299818
20
104.709525
11
74.508487
21
105.367667
0
LINE
8
Layer 1
10
74.508487
20
105.367667
11
73.170127
21
106.507847
0
LINE
8
Layer 1
10
73.170127
20
106.507847
11
72.787434
21
106.842845
0
LINE
8
Layer 1
10
72.787434
20
106.842845
11
73.514523
21
106.416571
0
LINE
8
Layer 1
10
73.514523
20
106.416571
11
72.660801
21
107.179584
0
LINE
8
Layer 1
10
72.660801
20
107.179584
11
71.663815
21
108.064528
0
LINE
8
Layer 1
10
71.663815
20
108.064528
11
71.632839
21
107.983651
0
LINE
8
Layer 1
10
71.632839
20
107.983651
11
71.268646
21
108.265235
0
LINE
8
Layer 1
10
71.268646
20
108.265235
11
70.353279
21
109.075983
0
LINE
8
Layer 1
10
70.353279
20
109.075983
11
68.787679
21
110.462883
0
LINE
8
Layer 1
10
68.787679
20
110.462883
11
68.250975
21
110.898676
0
LINE
8
Layer 1
10
68.250975
20
110.898676
11
65.981855
21
112.980326
0
LINE
8
Layer 1
10
65.981855
20
112.980326
11
64.624575
21
114.233676
0
LINE
8
Layer 1
10
64.624575
20
114.233676
11
63.724606
21
115.038734
0
LINE
8
Layer 1
10
63.724606
20
115.038734
11
62.807816
21
115.806570
0
LINE
8
Layer 1
10
62.807816
20
115.806570
11
62.058037
21
116.349458
0
LINE
8
Layer 1
10
62.058037
20
116.349458
11
61.600168
21
116.832622
0
LINE
8
Layer 1
10
61.600168
20
116.832622
11
61.012390
21
117.419906
0
LINE
8
Layer 1
10
61.012390
20
117.419906
11
59.412290
21
118.981176
0
LINE
8
Layer 1
10
59.412290
20
118.981176
11
58.657256
21
119.683841
0
LINE
8
Layer 1
10
58.657256
20
119.683841
11
57.318586
21
120.819221
0
LINE
8
Layer 1
10
57.318586
20
120.819221
11
56.671781
21
121.403090
0
LINE
8
Layer 1
10
56.671781
20
121.403090
11
56.091706
21
122.020621
0
LINE
8
Layer 1
10
56.091706
20
122.020621
11
55.708285
21
122.385557
0
LINE
8
Layer 1
10
55.708285
20
122.385557
11
52.823695
21
125.007627
0
LINE
8
Layer 1
10
52.823695
20
125.007627
11
51.389553
21
126.341320
0
LINE
8
Layer 1
10
51.389553
20
126.341320
11
49.908295
21
127.631427
0
LINE
8
Layer 1
10
49.908295
20
127.631427
11
49.545707
21
128.003534
0
LINE
8
Layer 1
10
49.545707
20
128.003534
11
48.336387
21
129.181444
0
LINE
8
Layer 1
10
48.336387
20
129.181444
11
48.027966
21
129.471808
0
LINE
8
Layer 1
10
48.027966
20
129.471808
11
47.980911
21
129.513236
0
LINE
8
Layer 1
10
47.980911
20
129.513236
11
47.951294
21
129.536734
0
LINE
8
Layer 1
10
47.951294
20
129.536734
11
47.891686
21
129.582860
0
LINE
8
Layer 1
10
47.891686
20
129.582860
11
47.642202
21
129.758834
0
LINE
8
Layer 1
10
47.642202
20
129.758834
11
47.468514
21
129.919229
0
LINE
8
Layer 1
10
47.468514
20
129.919229
11
47.388318
21
130.021746
0
LINE
8
Layer 1
10
47.388318
20
130.021746
11
47.350292
21
130.071459
0
LINE
8
Layer 1
10
47.350292
20
130.071459
11
47.331741
21
130.095945
0
LINE
8
Layer 1
10
47.331741
20
130.095945
11
47.365069
21
130.118204
0
LINE
8
Layer 1
10
47.365069
20
130.118204
11
47.653827
21
130.285279
0
LINE
8
Layer 1
10
47.653827
20
130.285279
11
47.881987
21
130.451113
0
LINE
8
Layer 1
10
47.881987
20
130.451113
11
47.980239
21
130.530877
0
LINE
8
Layer 1
10
47.980239
20
130.530877
11
48.030943
21
130.571686
0
LINE
8
Layer 1
10
48.030943
20
130.571686
11
48.209590
21
130.705121
0
LINE
8
Layer 1
10
48.209590
20
130.705121
11
51.069770
21
132.838831
0
LINE
8
Layer 1
10
51.069770
20
132.838831
11
57.086680
21
137.341221
0
LINE
8
Layer 1
10
57.086680
20
137.341221
11
63.378930
21
142.090321
0
LINE
8
Layer 1
10
63.378930
20
142.090321
11
64.947000
21
143.285791
0
LINE
8
Layer 1
10
64.947000
20
143.285791
11
72.525790
21
149.015431
0
LINE
8
Layer 1
10
72.525790
20
149.015431
11
75.626250
21
151.450761
0
LINE
8
Layer 1
10
75.626250
20
151.450761
11
77.174240
21
152.671091
0
LINE
8
Layer 1
10
77.174240
20
152.671091
11
77.947528
21
153.282243
0
LINE
8
Layer 1
10
77.947528
20
153.282243
11
78.333918
21
153.587943
0
LINE
8
Layer 1
10
78.333918
20
153.587943
11
78.550269
21
153.760827
0
LINE
8
Layer 1
10
78.550269
20
153.760827
11
78.934938
21
154.078646
0
LINE
8
Layer 1
10
78.934938
20
154.078646
11
82.007600
21
156.620000
0
LINE
8
Layer 1
10
82.007600
20
156.620000
11
83.331060
21
157.899190
0
LINE
8
Layer 1
10
83.331060
20
157.899190
11
84.548230
21
159.181720
0
LINE
8
Layer 1
10
84.548230
20
159.181720
11
85.762310
21
160.462140
0
LINE
8
Layer 1
10
85.762310
20
160.462140
11
85.838056
21
160.542153
0
LINE
8
Layer 1
10
85.838056
20
160.542153
11
85.871939
21
160.581972
0
LINE
8
Layer 1
10
85.871939
20
160.581972
11
85.829956
21
160.620184
0
LINE
8
Layer 1
10
85.829956
20
160.620184
11
85.661896
21
160.772663
0
LINE
8
Layer 1
10
85.661896
20
160.772663
11
85.325770
21
161.077745
0
LINE
8
Layer 1
10
85.325770
20
161.077745
11
84.653774
21
161.687164
0
LINE
8
Layer 1
10
84.653774
20
161.687164
11
83.310524
21
162.903774
0
LINE
8
Layer 1
10
83.310524
20
162.903774
11
82.639400
21
163.510834
0
LINE
8
Layer 1
10
82.639400
20
163.510834
11
81.897103
21
164.127179
0
LINE
8
Layer 1
10
81.897103
20
164.127179
11
78.532243
21
166.884659
0
LINE
8
Layer 1
10
78.532243
20
166.884659
11
76.693283
21
168.378399
0
LINE
8
Layer 1
10
76.693283
20
168.378399
11
72.985263
21
171.325699
0
LINE
8
Layer 1
10
72.985263
20
171.325699
11
65.792853
21
176.919679
0
LINE
8
Layer 1
10
65.792853
20
176.919679
11
58.634763
21
182.572269
0
LINE
8
Layer 1
10
58.634763
20
182.572269
11
54.270813
21
186.281469
0
LINE
8
Layer 1
10
54.270813
20
186.281469
11
51.705262
21
188.549908
0
LINE
8
Layer 1
10
51.705262
20
188.549908
11
48.980253
21
190.624079
0
LINE
8
Layer 1
10
48.980253
20
190.624079
11
60.959753
21
199.616729
0
LINE
8
Layer 1
10
60.959753
20
199.616729
11
72.826653
21
208.530119
0
LINE
8
Layer 1
10
72.826653
20
208.530119
11
80.121143
21
214.032209
0
LINE
8
Layer 1
10
80.121143
20
214.032209
11
82.548063
21
215.871479
0
LINE
8
Layer 1
10
82.548063
20
215.871479
11
84.847043
21
217.686379
0
LINE
8
Layer 1
10
84.847043
20
217.686379
11
85.429939
21
218.146782
0
LINE
8
Layer 1
10
85.429939
20
218.146782
11
85.995086
21
218.611020
0
LINE
8
Layer 1
10
85.995086
20
218.611020
11
87.055136
21
219.553718
0
LINE
8
Layer 1
10
87.055136
20
219.553718
11
88.118716
21
220.500248
0
LINE
8
Layer 1
10
88.118716
20
220.500248
11
88.651774
21
220.974996
0
LINE
8
Layer 1
10
88.651774
20
220.974996
11
88.918643
21
221.212805
0
LINE
8
Layer 1
10
88.918643
20
221.212805
11
88.701300
21
221.486000
0
LINE
8
Layer 1
10
88.701300
20
221.486000
11
88.701300
21
221.486000
0
LINE
8
Layer 1
10
75.928400
20
103.947000
11
76.079953
21
103.807382
0
LINE
8
Layer 1
10
76.079953
20
103.807382
11
75.973414
21
103.885662
0
LINE
8
Layer 1
10
75.973414
20
103.885662
11
75.466761
21
104.305998
0
LINE
8
Layer 1
10
75.466761
20
104.305998
11
75.928400
21
103.947000
0
LINE
8
Layer 1
10
75.928400
20
103.947000
11
75.928400
21
103.947000
0
LINE
8
Layer 1
10
67.697580
20
111.139960
11
67.955669
21
110.920208
0
LINE
8
Layer 1
10
67.955669
20
110.920208
11
67.922773
21
110.925153
0
LINE
8
Layer 1
10
67.922773
20
110.925153
11
67.662090
21
111.149237
0
LINE
8
Layer 1
10
67.662090
20
111.149237
11
67.697500
21
111.140000
0
LINE
8
Layer 1
10
67.697500
20
111.140000
11
67.697580
21
111.139960
0
LINE
8
Layer 1
10
63.225600
20
114.959000
11
63.366084
21
114.920053
0
LINE
8
Layer 1
10
63.366084
20
114.920053
11
63.981500
21
114.476964
0
LINE
8
Layer 1
10
63.981500
20
114.476964
11
64.847896
21
113.586576
0
LINE
8
Layer 1
10
64.847896
20
113.586576
11
64.866384
21
113.534391
0
LINE
8
Layer 1
10
64.866384
20
113.534391
11
64.663749
21
113.655583
0
LINE
8
Layer 1
10
64.663749
20
113.655583
11
64.513929
21
113.780486
0
LINE
8
Layer 1
10
64.513929
20
113.780486
11
63.619463
21
114.559326
0
LINE
8
Layer 1
10
63.619463
20
114.559326
11
63.225600
21
114.959000
0
LINE
8
Layer 1
10
63.225600
20
114.959000
11
63.225600
21
114.959000
0
LINE
8
Layer 1
10
59.265790
20
118.651750
11
59.408312
21
118.616009
0
LINE
8
Layer 1
10
59.408312
20
118.616009
11
60.251707
21
117.912480
0
LINE
8
Layer 1
10
60.251707
20
117.912480
11
60.963025
21
117.243826
0
LINE
8
Layer 1
10
60.963025
20
117.243826
11
60.996107
21
117.131784
0
LINE
8
Layer 1
10
60.996107
20
117.131784
11
60.882767
21
117.197824
0
LINE
8
Layer 1
10
60.882767
20
117.197824
11
59.319647
21
118.568034
0
LINE
8
Layer 1
10
59.319647
20
118.568034
11
59.265800
21
118.652000
0
LINE
8
Layer 1
10
59.265800
20
118.652000
11
59.265790
21
118.651750
0
LINE
8
Layer 1
10
48.966200
20
274.411000
11
48.847359
21
274.366728
0
LINE
8
Layer 1
10
48.847359
20
274.366728
11
48.882603
21
274.443523
0
LINE
8
Layer 1
10
48.882603
20
274.443523
11
49.167464
21
274.697777
0
LINE
8
Layer 1
10
49.167464
20
274.697777
11
48.966200
21
274.411000
0
LINE
8
Layer 1
10
48.966200
20
274.411000
11
48.966200
21
274.411000
0
LINE
8
Layer 1
10
54.223370
20
277.702960
11
54.193816
21
277.763432
0
LINE
8
Layer 1
10
54.193816
20
277.763432
11
54.354889
21
277.881655
0
LINE
8
Layer 1
10
54.354889
20
277.881655
11
54.378384
21
277.824152
0
LINE
8
Layer 1
10
54.378384
20
277.824152
11
54.223300
21
277.703000
0
LINE
8
Layer 1
10
54.223300
20
277.703000
11
54.223370
21
277.702960
0
LINE
8
Layer 1
10
56.954380
20
279.259900
11
56.127495
21
279.127702
0
LINE
8
Layer 1
10
56.127495
20
279.127702
11
56.041609
21
279.186444
0
LINE
8
Layer 1
10
56.041609
20
279.186444
11
56.058057
21
279.376379
0
LINE
8
Layer 1
10
56.058057
20
279.376379
11
56.142458
21
279.451692
0
LINE
8
Layer 1
10
56.142458
20
279.451692
11
56.714037
21
279.840492
0
LINE
8
Layer 1
10
56.714037
20
279.840492
11
56.911808
21
279.979447
0
LINE
8
Layer 1
10
56.911808
20
279.979447
11
57.079156
21
279.910365
0
LINE
8
Layer 1
10
57.079156
20
279.910365
11
57.157067
21
279.699144
0
LINE
8
Layer 1
10
57.157067
20
279.699144
11
57.128196
21
279.404893
0
LINE
8
Layer 1
10
57.128196
20
279.404893
11
56.954400
21
279.260000
0
LINE
8
Layer 1
10
56.954400
20
279.260000
11
56.954380
21
279.259900
0
LINE
8
Layer 1
10
60.128980
20
281.040550
11
59.663568
21
280.604754
0
LINE
8
Layer 1
10
59.663568
20
280.604754
11
59.125255
21
280.366206
0
LINE
8
Layer 1
10
59.125255
20
280.366206
11
58.943036
21
280.494075
0
LINE
8
Layer 1
10
58.943036
20
280.494075
11
58.950766
21
280.601037
0
LINE
8
Layer 1
10
58.950766
20
280.601037
11
59.946823
21
281.289230
0
LINE
8
Layer 1
10
59.946823
20
281.289230
11
60.050207
21
281.252259
0
LINE
8
Layer 1
10
60.050207
20
281.252259
11
60.128900
21
281.041000
0
LINE
8
Layer 1
10
60.128900
20
281.041000
11
60.128980
21
281.040550
0
LINE
8
Layer 1
10
69.134440
20
297.188450
11
69.136170
21
297.180288
0
LINE
8
Layer 1
10
69.136170
20
297.180288
11
69.101544
21
297.212179
0
LINE
8
Layer 1
10
69.101544
20
297.212179
11
69.073844
21
297.236910
0
LINE
8
Layer 1
10
69.073844
20
297.236910
11
69.134400
21
297.189000
0
LINE
8
Layer 1
10
69.134400
20
297.189000
11
69.134440
21
297.188450
0
LINE
8
Layer 1
10
48.915540
20
318.821550
11
52.329240
21
314.821360
0
LINE
8
Layer 1
10
52.329240
20
314.821360
11
56.109980
21
310.114680
0
LINE
8
Layer 1
10
56.109980
20
310.114680
11
58.701750
21
306.896550
0
LINE
8
Layer 1
10
58.701750
20
306.896550
11
60.312980
21
304.934610
0
LINE
8
Layer 1
10
60.312980
20
304.934610
11
62.502960
21
302.369800
0
LINE
8
Layer 1
10
62.502960
20
302.369800
11
64.381620
21
300.400190
0
LINE
8
Layer 1
10
64.381620
20
300.400190
11
66.191390
21
298.513820
0
LINE
8
Layer 1
10
66.191390
20
298.513820
11
67.825810
21
297.069170
0
LINE
8
Layer 1
10
67.825810
20
297.069170
11
67.029780
21
296.364157
0
LINE
8
Layer 1
10
67.029780
20
296.364157
11
66.310274
21
295.611533
0
LINE
8
Layer 1
10
66.310274
20
295.611533
11
65.524040
21
294.936447
0
LINE
8
Layer 1
10
65.524040
20
294.936447
11
65.344417
21
294.674401
0
LINE
8
Layer 1
10
65.344417
20
294.674401
11
65.035085
21
294.168938
0
LINE
8
Layer 1
10
65.035085
20
294.168938
11
64.642000
21
293.754089
0
LINE
8
Layer 1
10
64.642000
20
293.754089
11
64.211647
21
293.308293
0
LINE
8
Layer 1
10
64.211647
20
293.308293
11
63.861241
21
292.767243
0
LINE
8
Layer 1
10
63.861241
20
292.767243
11
63.661998
21
292.295180
0
LINE
8
Layer 1
10
63.661998
20
292.295180
11
63.339347
21
291.911074
0
LINE
8
Layer 1
10
63.339347
20
291.911074
11
62.918845
21
291.637543
0
LINE
8
Layer 1
10
62.918845
20
291.637543
11
62.426051
21
291.497203
0
LINE
8
Layer 1
10
62.426051
20
291.497203
11
62.097104
21
291.268671
0
LINE
8
Layer 1
10
62.097104
20
291.268671
11
61.537520
21
290.645401
0
LINE
8
Layer 1
10
61.537520
20
290.645401
11
58.982480
21
287.732971
0
LINE
8
Layer 1
10
58.982480
20
287.732971
11
58.254652
21
286.832443
0
LINE
8
Layer 1
10
58.254652
20
286.832443
11
57.863778
21
286.399338
0
LINE
8
Layer 1
10
57.863778
20
286.399338
11
57.556748
21
285.907429
0
LINE
8
Layer 1
10
57.556748
20
285.907429
11
57.181547
21
285.464912
0
LINE
8
Layer 1
10
57.181547
20
285.464912
11
56.734565
21
285.154559
0
LINE
8
Layer 1
10
56.734565
20
285.154559
11
56.493666
21
284.803599
0
LINE
8
Layer 1
10
56.493666
20
284.803599
11
55.448076
21
283.346329
0
LINE
8
Layer 1
10
55.448076
20
283.346329
11
53.800056
21
281.446099
0
LINE
8
Layer 1
10
53.800056
20
281.446099
11
53.140244
21
280.628056
0
LINE
8
Layer 1
10
53.140244
20
280.628056
11
52.766074
21
280.000295
0
LINE
8
Layer 1
10
52.766074
20
280.000295
11
52.266428
21
279.466966
0
LINE
8
Layer 1
10
52.266428
20
279.466966
11
52.077531
21
279.212712
0
LINE
8
Layer 1
10
52.077531
20
279.212712
11
51.359039
21
278.155252
0
LINE
8
Layer 1
10
51.359039
20
278.155252
11
50.640784
21
277.110042
0
LINE
8
Layer 1
10
50.640784
20
277.110042
11
50.246418
21
276.625984
0
LINE
8
Layer 1
10
50.246418
20
276.625984
11
49.825710
21
276.165120
0
LINE
8
Layer 1
10
49.825710
20
276.165120
11
49.518342
21
275.737734
0
LINE
8
Layer 1
10
49.518342
20
275.737734
11
48.399422
21
274.217774
0
LINE
8
Layer 1
10
48.399422
20
274.217774
11
47.814489
21
273.486791
0
LINE
8
Layer 1
10
47.814489
20
273.486791
11
47.781717
21
288.376891
0
LINE
8
Layer 1
10
47.781717
20
288.376891
11
47.548037
21
315.473291
0
LINE
8
Layer 1
10
47.548037
20
315.473291
11
47.491029
21
320.448581
0
LINE
8
Layer 1
10
47.491029
20
320.448581
11
48.915500
21
318.822000
0
LINE
8
Layer 1
10
48.915500
20
318.822000
11
48.915540
21
318.821550
0
LINE
8
Layer 1
10
30.524100
20
201.678000
11
30.275039
21
201.808838
0
LINE
8
Layer 1
10
30.275039
20
201.808838
11
26.913949
21
204.693688
0
LINE
8
Layer 1
10
26.913949
20
204.693688
11
26.802960
21
204.877578
0
LINE
8
Layer 1
10
26.802960
20
204.877578
11
27.121589
21
204.821436
0
LINE
8
Layer 1
10
27.121589
20
204.821436
11
28.942799
21
203.351556
0
LINE
8
Layer 1
10
28.942799
20
203.351556
11
30.466529
21
201.934726
0
LINE
8
Layer 1
10
30.466529
20
201.934726
11
30.524100
21
201.678000
0
LINE
8
Layer 1
10
30.524100
20
201.678000
11
30.524100
21
201.678000
0
LINE
8
Layer 1
10
38.784040
20
194.018700
11
38.336619
21
194.256878
0
LINE
8
Layer 1
10
38.336619
20
194.256878
11
38.014536
21
194.519542
0
LINE
8
Layer 1
10
38.014536
20
194.519542
11
36.099096
21
196.168492
0
LINE
8
Layer 1
10
36.099096
20
196.168492
11
35.426762
21
196.743750
0
LINE
8
Layer 1
10
35.426762
20
196.743750
11
35.267512
21
197.031301
0
LINE
8
Layer 1
10
35.267512
20
197.031301
11
35.586567
21
196.974044
0
LINE
8
Layer 1
10
35.586567
20
196.974044
11
36.301876
21
196.587059
0
LINE
8
Layer 1
10
36.301876
20
196.587059
11
36.927527
21
196.067459
0
LINE
8
Layer 1
10
36.927527
20
196.067459
11
38.753507
21
194.141379
0
LINE
8
Layer 1
10
38.753507
20
194.141379
11
38.784000
21
194.018000
0
LINE
8
Layer 1
10
38.784000
20
194.018000
11
38.784040
21
194.018700
0
LINE
8
Layer 1
10
38.382314
20
195.658000
11
36.449244
21
197.356290
0
LINE
8
Layer 1
10
36.449244
20
197.356290
11
35.509891
21
198.220868
0
LINE
8
Layer 1
10
35.509891
20
198.220868
11
34.468934
21
198.959980
0
LINE
8
Layer 1
10
34.468934
20
198.959980
11
32.833404
21
200.068880
0
LINE
8
Layer 1
10
32.833404
20
200.068880
11
31.862388
21
201.106680
0
LINE
8
Layer 1
10
31.862388
20
201.106680
11
30.608118
21
202.358290
0
LINE
8
Layer 1
10
30.608118
20
202.358290
11
28.821656
21
203.937979
0
LINE
8
Layer 1
10
28.821656
20
203.937979
11
27.177538
21
205.665330
0
LINE
8
Layer 1
10
27.177538
20
205.665330
11
26.414776
21
206.459768
0
LINE
8
Layer 1
10
26.414776
20
206.459768
11
25.551088
21
207.143130
0
LINE
8
Layer 1
10
25.551088
20
207.143130
11
24.100343
21
208.316988
0
LINE
8
Layer 1
10
24.100343
20
208.316988
11
22.652568
21
209.507350
0
LINE
8
Layer 1
10
22.652568
20
209.507350
11
21.254846
21
210.728911
0
LINE
8
Layer 1
10
21.254846
20
210.728911
11
20.007378
21
212.034320
0
LINE
8
Layer 1
10
20.007378
20
212.034320
11
19.178269
21
212.798577
0
LINE
8
Layer 1
10
19.178269
20
212.798577
11
16.016610
21
215.501887
0
LINE
8
Layer 1
10
16.016610
20
215.501887
11
12.924049
21
218.260847
0
LINE
8
Layer 1
10
12.924049
20
218.260847
11
11.353689
21
219.634017
0
LINE
8
Layer 1
10
11.353689
20
219.634017
11
10.580785
21
220.333341
0
LINE
8
Layer 1
10
10.580785
20
220.333341
11
10.387804
21
220.508451
0
LINE
8
Layer 1
10
10.387804
20
220.508451
11
10.291284
21
220.596005
0
LINE
8
Layer 1
10
10.291284
20
220.596005
11
10.239654
21
220.639289
0
LINE
8
Layer 1
10
10.239654
20
220.639289
11
10.076479
21
220.768764
0
LINE
8
Layer 1
10
10.076479
20
220.768764
11
9.751983
21
221.015601
0
LINE
8
Layer 1
10
9.751983
20
221.015601
11
9.588435
21
221.134442
0
LINE
8
Layer 1
10
9.588435
20
221.134442
11
9.440410
21
221.266022
0
LINE
8
Layer 1
10
9.440410
20
221.266022
11
9.117396
21
221.525223
0
LINE
8
Layer 1
10
9.117396
20
221.525223
11
8.935239
21
221.656058
0
LINE
8
Layer 1
10
8.935239
20
221.656058
11
8.889731
21
221.689448
0
LINE
8
Layer 1
10
8.889731
20
221.689448
11
8.915329
21
221.727785
0
LINE
8
Layer 1
10
8.915329
20
221.727785
11
8.964794
21
221.805571
0
LINE
8
Layer 1
10
8.964794
20
221.805571
11
9.365592
21
222.119803
0
LINE
8
Layer 1
10
9.365592
20
222.119803
11
9.904523
21
222.583175
0
LINE
8
Layer 1
10
9.904523
20
222.583175
11
10.145541
21
222.798474
0
LINE
8
Layer 1
10
10.145541
20
222.798474
11
10.771162
21
223.443633
0
LINE
8
Layer 1
10
10.771162
20
223.443633
11
13.220222
21
226.109973
0
LINE
8
Layer 1
10
13.220222
20
226.109973
11
14.234462
21
227.246083
0
LINE
8
Layer 1
10
14.234462
20
227.246083
11
24.747062
21
238.199083
0
LINE
8
Layer 1
10
24.747062
20
238.199083
11
35.707262
21
249.834783
0
LINE
8
Layer 1
10
35.707262
20
249.834783
11
41.394112
21
255.993283
0
LINE
8
Layer 1
10
41.394112
20
255.993283
11
41.459099
21
256.064267
0
LINE
8
Layer 1
10
41.459099
20
256.064267
11
41.483336
21
207.820267
0
LINE
8
Layer 1
10
41.483336
20
207.820267
11
41.519695
21
204.244257
0
LINE
8
Layer 1
10
41.519695
20
204.244257
11
41.595254
21
196.065807
0
LINE
8
Layer 1
10
41.595254
20
196.065807
11
41.603661
21
192.650557
0
LINE
8
Layer 1
10
41.603661
20
192.650557
11
41.283621
21
192.995209
0
LINE
8
Layer 1
10
41.283621
20
192.995209
11
39.913611
21
194.414480
0
LINE
8
Layer 1
10
39.913611
20
194.414480
11
38.382300
21
195.658000
0
LINE
8
Layer 1
10
38.382300
20
195.658000
11
38.382314
21
195.658000
0
LINE
8
Layer 1
10
43.837604
20
31.972000
11
43.801866
21
32.349178
0
LINE
8
Layer 1
10
43.801866
20
32.349178
11
43.788509
21
34.231598
0
LINE
8
Layer 1
10
43.788509
20
34.231598
11
43.878475
21
32.560638
0
LINE
8
Layer 1
10
43.878475
20
32.560638
11
43.837600
21
31.972000
0
LINE
8
Layer 1
10
43.837600
20
31.972000
11
43.837604
21
31.972000
0
LINE
8
Layer 1
10
44.730958
20
62.843700
11
44.672837
21
62.924825
0
LINE
8
Layer 1
10
44.672837
20
62.924825
11
44.684645
21
63.907711
0
LINE
8
Layer 1
10
44.684645
20
63.907711
11
44.736648
21
63.813107
0
LINE
8
Layer 1
10
44.736648
20
63.813107
11
44.730958
21
62.843700
0
LINE
8
Layer 1
10
45.157850
20
78.087100
11
44.832612
21
74.552140
0
LINE
8
Layer 1
10
44.832612
20
74.552140
11
44.753652
21
74.415736
0
LINE
8
Layer 1
10
44.753652
20
74.415736
11
44.647486
21
75.082536
0
LINE
8
Layer 1
10
44.647486
20
75.082536
11
44.645135
21
75.640142
0
LINE
8
Layer 1
10
44.645135
20
75.640142
11
44.699858
21
79.031272
0
LINE
8
Layer 1
10
44.699858
20
79.031272
11
44.715431
21
80.218517
0
LINE
8
Layer 1
10
44.715431
20
80.218517
11
44.835581
21
80.628892
0
LINE
8
Layer 1
10
44.835581
20
80.628892
11
44.994983
21
80.249490
0
LINE
8
Layer 1
10
44.994983
20
80.249490
11
45.156482
21
79.174325
0
LINE
8
Layer 1
10
45.156482
20
79.174325
11
45.157800
21
78.087100
0
LINE
8
Layer 1
10
45.157800
20
78.087100
11
45.157850
21
78.087100
0
LINE
8
Layer 1
10
45.501822
20
89.785900
11
45.352992
21
89.507161
0
LINE
8
Layer 1
10
45.352992
20
89.507161
11
45.297651
21
89.876796
0
LINE
8
Layer 1
10
45.297651
20
89.876796
11
45.351324
21
95.819756
0
LINE
8
Layer 1
10
45.351324
20
95.819756
11
45.413650
21
96.091570
0
LINE
8
Layer 1
10
45.413650
20
96.091570
11
45.558091
21
95.713776
0
LINE
8
Layer 1
10
45.558091
20
95.713776
11
45.598652
21
92.573186
0
LINE
8
Layer 1
10
45.598652
20
92.573186
11
45.501800
21
89.785900
0
LINE
8
Layer 1
10
45.501800
20
89.785900
11
45.501822
21
89.785900
0
LINE
8
Layer 1
10
73.542300
20
159.800000
11
73.530799
21
159.757830
0
LINE
8
Layer 1
10
73.530799
20
159.757830
11
73.527955
21
159.740022
0
LINE
8
Layer 1
10
73.527955
20
159.740022
11
73.506190
21
159.730870
0
LINE
8
Layer 1
10
73.506190
20
159.730870
11
73.303069
21
159.773288
0
LINE
8
Layer 1
10
73.303069
20
159.773288
11
73.297568
21
159.775514
0
LINE
8
Layer 1
10
73.297568
20
159.775514
11
73.279636
21
159.764756
0
LINE
8
Layer 1
10
73.279636
20
159.764756
11
73.174830
21
159.672376
0
LINE
8
Layer 1
10
73.174830
20
159.672376
11
72.965588
21
159.487374
0
LINE
8
Layer 1
10
72.965588
20
159.487374
11
72.548777
21
159.115143
0
LINE
8
Layer 1
10
72.548777
20
159.115143
11
71.724861
21
158.359429
0
LINE
8
Layer 1
10
71.724861
20
158.359429
11
58.676000
21
146.074000
0
LINE
8
Layer 1
10
58.676000
20
146.074000
11
57.786230
21
145.190786
0
LINE
8
Layer 1
10
57.786230
20
145.190786
11
55.743600
21
143.179746
0
LINE
8
Layer 1
10
55.743600
20
143.179746
11
51.975910
21
139.612756
0
LINE
8
Layer 1
10
51.975910
20
139.612756
11
49.221710
21
137.055496
0
LINE
8
Layer 1
10
49.221710
20
137.055496
11
46.613190
21
134.608786
0
LINE
8
Layer 1
10
46.613190
20
134.608786
11
46.604410
21
134.600500
0
LINE
8
Layer 1
10
46.604410
20
134.600500
11
46.748479
21
144.248080
0
LINE
8
Layer 1
10
46.748479
20
144.248080
11
46.743904
21
146.292010
0
LINE
8
Layer 1
10
46.743904
20
146.292010
11
47.099811
21
166.647210
0
LINE
8
Layer 1
10
47.099811
20
166.647210
11
47.319812
21
182.804110
0
LINE
8
Layer 1
10
47.319812
20
182.804110
11
48.650812
21
181.577350
0
LINE
8
Layer 1
10
48.650812
20
181.577350
11
55.319252
21
175.653690
0
LINE
8
Layer 1
10
55.319252
20
175.653690
11
62.957592
21
168.932390
0
LINE
8
Layer 1
10
62.957592
20
168.932390
11
68.265162
21
164.428760
0
LINE
8
Layer 1
10
68.265162
20
164.428760
11
71.563732
21
161.694410
0
LINE
8
Layer 1
10
71.563732
20
161.694410
11
72.668612
21
160.789801
0
LINE
8
Layer 1
10
72.668612
20
160.789801
11
73.221640
21
160.338054
0
LINE
8
Layer 1
10
73.221640
20
160.338054
11
73.498401
21
160.112612
0
LINE
8
Layer 1
10
73.498401
20
160.112612
11
73.503287
21
160.069576
0
LINE
8
Layer 1
10
73.503287
20
160.069576
11
73.471937
21
159.936884
0
LINE
8
Layer 1
10
73.471937
20
159.936884
11
73.446091
21
159.881111
0
LINE
8
Layer 1
10
73.446091
20
159.881111
11
73.476142
21
159.856504
0
LINE
8
Layer 1
10
73.476142
20
159.856504
11
73.528071
21
159.832140
0
LINE
8
Layer 1
10
73.528071
20
159.832140
11
73.552864
21
159.824102
0
LINE
8
Layer 1
10
73.552864
20
159.824102
11
73.542300
21
159.800000
0
LINE
8
Layer 1
10
77.812600
20
221.755000
11
77.736118
21
221.776765
0
LINE
8
Layer 1
10
77.736118
20
221.776765
11
77.716021
21
221.780970
0
LINE
8
Layer 1
10
77.716021
20
221.780970
11
77.711816
21
221.779841
0
LINE
8
Layer 1
10
77.711816
20
221.779841
11
77.682261
21
221.753626
0
LINE
8
Layer 1
10
77.682261
20
221.753626
11
77.623150
21
221.701316
0
LINE
8
Layer 1
10
77.623150
20
221.701316
11
77.504865
21
221.596818
0
LINE
8
Layer 1
10
77.504865
20
221.596818
11
77.032092
21
221.178215
0
LINE
8
Layer 1
10
77.032092
20
221.178215
11
75.144472
21
219.500085
0
LINE
8
Layer 1
10
75.144472
20
219.500085
11
67.617922
21
212.762705
0
LINE
8
Layer 1
10
67.617922
20
212.762705
11
53.178922
21
199.757405
0
LINE
8
Layer 1
10
53.178922
20
199.757405
11
47.452800
21
194.625000
0
LINE
8
Layer 1
10
47.452800
20
194.625000
11
47.601692
21
210.583800
0
LINE
8
Layer 1
10
47.601692
20
210.583800
11
47.638113
21
216.212400
0
LINE
8
Layer 1
10
47.638113
20
216.212400
11
47.822991
21
243.326800
0
LINE
8
Layer 1
10
47.822991
20
243.326800
11
47.827814
21
255.037700
0
LINE
8
Layer 1
10
47.827814
20
255.037700
11
49.662194
21
252.906210
0
LINE
8
Layer 1
10
49.662194
20
252.906210
11
56.354994
21
245.330010
0
LINE
8
Layer 1
10
56.354994
20
245.330010
11
67.587294
21
232.855110
0
LINE
8
Layer 1
10
67.587294
20
232.855110
11
73.245944
21
226.655420
0
LINE
8
Layer 1
10
73.245944
20
226.655420
11
76.086714
21
223.566270
0
LINE
8
Layer 1
10
76.086714
20
223.566270
11
77.510404
21
222.024660
0
LINE
8
Layer 1
10
77.510404
20
222.024660
11
77.688421
21
221.832114
0
LINE
8
Layer 1
10
77.688421
20
221.832114
11
77.705052
21
221.814306
0
LINE
8
Layer 1
10
77.705052
20
221.814306
11
77.705900
21
221.814000
0
LINE
8
Layer 1
10
77.705900
20
221.814000
11
77.708621
21
221.813754
0
LINE
8
Layer 1
10
77.708621
20
221.813754
11
77.715733
21
221.811779
0
LINE
8
Layer 1
10
77.715733
20
221.811779
11
77.807737
21
221.794216
0
LINE
8
Layer 1
10
77.807737
20
221.794216
11
77.830368
21
221.764168
0
LINE
8
Layer 1
10
77.830368
20
221.764168
11
77.840139
21
221.746978
0
LINE
8
Layer 1
10
77.840139
20
221.746978
11
77.812600
21
221.755000
0
LINE
8
Layer 1
10
77.812600
20
221.755000
11
77.812600
21
221.755000
0
LINE
8
Layer 1
10
44.971500
20
31.563000
11
44.960062
21
29.034550
0
LINE
8
Layer 1
10
44.960062
20
29.034550
11
45.015095
21
28.454067
0
LINE
8
Layer 1
10
45.015095
20
28.454067
11
45.100794
21
29.029602
0
LINE
8
Layer 1
10
45.100794
20
29.029602
11
45.269038
21
35.582602
0
LINE
8
Layer 1
10
45.269038
20
35.582602
11
45.237073
21
36.867106
0
LINE
8
Layer 1
10
45.237073
20
36.867106
11
44.920181
21
37.680452
0
LINE
8
Layer 1
10
44.920181
20
37.680452
11
44.971500
21
31.563000
0
LINE
8
Layer 1
10
44.971500
20
31.563000
11
44.971500
21
31.563000
0
LINE
8
Layer 1
10
44.625500
20
1.961820
11
44.623524
21
2.280381
0
LINE
8
Layer 1
10
44.623524
20
2.280381
11
44.623276
21
2.284834
0
LINE
8
Layer 1
10
44.623276
20
2.284834
11
44.623217
21
2.189858
0
LINE
8
Layer 1
10
44.623217
20
2.189858
11
44.625500
21
1.961820
0
LINE
8
Layer 1
10
44.625500
20
1.961820
11
44.625500
21
1.961820
0
LINE
8
Layer 1
10
44.641800
20
0.097703
11
44.636793
21
0.848349
0
LINE
8
Layer 1
10
44.636793
20
0.848349
11
44.625538
21
1.961829
0
LINE
8
Layer 1
10
44.625538
20
1.961829
11
44.631846
21
0.958909
0
LINE
8
Layer 1
10
44.631846
20
0.958909
11
44.640668
21
0.173355
0
LINE
8
Layer 1
10
44.640668
20
0.173355
11
44.642699
21
0.005460
0
LINE
8
Layer 1
10
44.642699
20
0.005460
11
44.641800
21
0.097703
0
LINE
8
Layer 1
10
44.641800
20
0.097703
11
44.641800
21
0.097703
0
LINE
8
Layer 1
10
45.614300
20
54.380600
11
45.653131
21
54.099634
0
LINE
8
Layer 1
10
45.653131
20
54.099634
11
45.683368
21
54.501546
0
LINE
8
Layer 1
10
45.683368
20
54.501546
11
45.666435
21
54.913844
0
LINE
8
Layer 1
10
45.666435
20
54.913844
11
45.614300
21
54.380600
0
LINE
8
Layer 1
10
45.614300
20
54.380600
11
45.614300
21
54.380600
 0 
ENDSEC
 0 
EOF