999
"DXF R12 Output" (www.mydxf.blogspot.com)
 0 
SECTION
 2 
HEADER
 9 
$ACADVER
 1 
AC1009
 9 
$EXTMIN
 10 
 0 
 20 
 0 
 9 
$EXTMAX
 10 
 8.5 
 20 
 11 
 0 
ENDSEC
 0 
SECTION
 2 
ENTITIES
0
LINE
8
Layer 1
10
4.543000
20
252.418000
11
3.813967
21
251.957843
0
LINE
8
Layer 1
10
3.813967
20
251.957843
11
3.509627
21
251.772705
0
LINE
8
Layer 1
10
3.509627
20
251.772705
11
3.445043
21
251.721507
0
LINE
8
Layer 1
10
3.445043
20
251.721507
11
3.521994
21
251.751313
0
LINE
8
Layer 1
10
3.521994
20
251.751313
11
4.324176
21
252.209737
0
LINE
8
Layer 1
10
4.324176
20
252.209737
11
4.543000
21
252.418000
0
LINE
8
Layer 1
10
4.543000
20
252.418000
11
4.543000
21
252.418000
0
LINE
8
Layer 1
10
0.011588
20
249.677000
11
0.101151
21
249.733267
0
LINE
8
Layer 1
10
0.101151
20
249.733267
11
0.234617
21
249.817854
0
LINE
8
Layer 1
10
0.234617
20
249.817854
11
0.114012
21
249.742046
0
LINE
8
Layer 1
10
0.114012
20
249.742046
11
0.011588
21
249.677000
0
LINE
8
Layer 1
10
0.011588
20
249.677000
11
0.011588
21
249.677000
0
LINE
8
Layer 1
10
0.234617
20
249.818000
11
0.271718
21
249.841249
0
LINE
8
Layer 1
10
0.271718
20
249.841249
11
0.272150
21
249.841495
0
LINE
8
Layer 1
10
0.272150
20
249.841495
11
0.260861
21
249.834572
0
LINE
8
Layer 1
10
0.260861
20
249.834572
11
0.234617
21
249.818000
0
LINE
8
Layer 1
10
6.615630
20
253.540000
11
6.585517
21
253.513412
0
LINE
8
Layer 1
10
6.585517
20
253.513412
11
6.637209
21
253.537528
0
LINE
8
Layer 1
10
6.637209
20
253.537528
11
6.685531
21
253.569806
0
LINE
8
Layer 1
10
6.685531
20
253.569806
11
6.615630
21
253.540000
0
LINE
8
Layer 1
10
6.615630
20
253.540000
11
6.615630
21
253.540000
0
LINE
8
Layer 1
10
98.078700
20
250.584000
11
97.406952
21
250.994568
0
LINE
8
Layer 1
10
97.406952
20
250.994568
11
96.866074
21
251.325496
0
LINE
8
Layer 1
10
96.866074
20
251.325496
11
95.792204
21
251.969789
0
LINE
8
Layer 1
10
95.792204
20
251.969789
11
95.530220
21
252.146257
0
LINE
8
Layer 1
10
95.530220
20
252.146257
11
95.328863
21
252.285999
0
LINE
8
Layer 1
10
95.328863
20
252.285999
11
94.973884
21
252.500434
0
LINE
8
Layer 1
10
94.973884
20
252.500434
11
94.375748
21
252.880085
0
LINE
8
Layer 1
10
94.375748
20
252.880085
11
94.205461
21
252.994351
0
LINE
8
Layer 1
10
94.205461
20
252.994351
11
94.546063
21
252.908776
0
LINE
8
Layer 1
10
94.546063
20
252.908776
11
94.167465
21
253.173294
0
LINE
8
Layer 1
10
94.167465
20
253.173294
11
93.724774
21
253.478376
0
LINE
8
Layer 1
10
93.724774
20
253.478376
11
93.702196
21
253.420128
0
LINE
8
Layer 1
10
93.702196
20
253.420128
11
93.537096
21
253.505458
0
LINE
8
Layer 1
10
93.537096
20
253.505458
11
93.130550
21
253.784576
0
LINE
8
Layer 1
10
93.130550
20
253.784576
11
92.435180
21
254.261921
0
LINE
8
Layer 1
10
92.435180
20
254.261921
11
92.193573
21
254.400797
0
LINE
8
Layer 1
10
92.193573
20
254.400797
11
91.191513
21
255.137346
0
LINE
8
Layer 1
10
91.191513
20
255.137346
11
90.592821
21
255.583158
0
LINE
8
Layer 1
10
90.592821
20
255.583158
11
90.193725
21
255.862391
0
LINE
8
Layer 1
10
90.193725
20
255.862391
11
89.782909
21
256.114297
0
LINE
8
Layer 1
10
89.782909
20
256.114297
11
89.440049
21
256.267146
0
LINE
8
Layer 1
10
89.440049
20
256.267146
11
89.242990
21
256.455241
0
LINE
8
Layer 1
10
89.242990
20
256.455241
11
88.987342
21
256.675984
0
LINE
8
Layer 1
10
88.987342
20
256.675984
11
88.288298
21
257.253743
0
LINE
8
Layer 1
10
88.288298
20
257.253743
11
87.955702
21
257.505031
0
LINE
8
Layer 1
10
87.955702
20
257.505031
11
87.357008
21
257.881716
0
LINE
8
Layer 1
10
87.357008
20
257.881716
11
86.821387
21
258.327404
0
LINE
8
Layer 1
10
86.821387
20
258.327404
11
86.653140
21
258.460096
0
LINE
8
Layer 1
10
86.653140
20
258.460096
11
85.377320
21
259.381269
0
LINE
8
Layer 1
10
85.377320
20
259.381269
11
84.085760
21
260.296015
0
LINE
8
Layer 1
10
84.085760
20
260.296015
11
83.928859
21
260.438354
0
LINE
8
Layer 1
10
83.928859
20
260.438354
11
82.844169
21
261.275690
0
LINE
8
Layer 1
10
82.844169
20
261.275690
11
82.605993
21
261.438061
0
LINE
8
Layer 1
10
82.605993
20
261.438061
11
80.357393
21
263.255441
0
LINE
8
Layer 1
10
80.357393
20
263.255441
11
77.989153
21
265.170031
0
LINE
8
Layer 1
10
77.989153
20
265.170031
11
75.491283
21
267.158191
0
LINE
8
Layer 1
10
75.491283
20
267.158191
11
74.862571
21
267.649511
0
LINE
8
Layer 1
10
74.862571
20
267.649511
11
71.848981
21
270.040811
0
LINE
8
Layer 1
10
71.848981
20
270.040811
11
66.695131
21
273.776231
0
LINE
8
Layer 1
10
66.695131
20
273.776231
11
63.468341
21
275.817561
0
LINE
8
Layer 1
10
63.468341
20
275.817561
11
60.296061
21
277.667581
0
LINE
8
Layer 1
10
60.296061
20
277.667581
11
57.146911
21
279.562491
0
LINE
8
Layer 1
10
57.146911
20
279.562491
11
55.251661
21
280.883731
0
LINE
8
Layer 1
10
55.251661
20
280.883731
11
53.833411
21
281.911631
0
LINE
8
Layer 1
10
53.833411
20
281.911631
11
53.817274
21
288.377071
0
LINE
8
Layer 1
10
53.817274
20
288.377071
11
53.583608
21
315.473471
0
LINE
8
Layer 1
10
53.583608
20
315.473471
11
53.285113
21
341.526771
0
LINE
8
Layer 1
10
53.285113
20
341.526771
11
53.176441
21
354.567671
0
LINE
8
Layer 1
10
53.176441
20
354.567671
11
53.140209
21
361.089261
0
LINE
8
Layer 1
10
53.140209
20
361.089261
11
53.101872
21
367.608371
0
LINE
8
Layer 1
10
53.101872
20
367.608371
11
52.437979
21
383.979271
0
LINE
8
Layer 1
10
52.437979
20
383.979271
11
51.933692
21
395.733566
0
LINE
8
Layer 1
10
51.933692
20
395.733566
11
51.324159
21
407.451471
0
LINE
8
Layer 1
10
51.324159
20
407.451471
11
50.758885
21
417.966671
0
LINE
8
Layer 1
10
50.758885
20
417.966671
11
50.679536
21
420.471499
0
LINE
8
Layer 1
10
50.679536
20
420.471499
11
50.629842
21
417.060829
0
LINE
8
Layer 1
10
50.629842
20
417.060829
11
50.387089
21
408.985519
0
LINE
8
Layer 1
10
50.387089
20
408.985519
11
49.656981
21
388.124919
0
LINE
8
Layer 1
10
49.656981
20
388.124919
11
49.153819
21
375.385919
0
LINE
8
Layer 1
10
49.153819
20
375.385919
11
48.880427
21
369.016692
0
LINE
8
Layer 1
10
48.880427
20
369.016692
11
48.736511
21
362.652319
0
LINE
8
Layer 1
10
48.736511
20
362.652319
11
48.642531
21
355.390719
0
LINE
8
Layer 1
10
48.642531
20
355.390719
11
48.525079
21
348.125289
0
LINE
8
Layer 1
10
48.525079
20
348.125289
11
48.300134
21
333.589389
0
LINE
8
Layer 1
10
48.300134
20
333.589389
11
48.014469
21
313.692489
0
LINE
8
Layer 1
10
48.014469
20
313.692489
11
47.854167
21
301.442289
0
LINE
8
Layer 1
10
47.854167
20
301.442289
11
47.666351
21
285.105189
0
LINE
8
Layer 1
10
47.666351
20
285.105189
11
47.642021
21
281.166099
0
LINE
8
Layer 1
10
47.642021
20
281.166099
11
45.406441
21
280.226988
0
LINE
8
Layer 1
10
45.406441
20
280.226988
11
42.171711
21
278.633818
0
LINE
8
Layer 1
10
42.171711
20
278.633818
11
38.499921
21
276.785398
0
LINE
8
Layer 1
10
38.499921
20
276.785398
11
36.035561
21
275.440048
0
LINE
8
Layer 1
10
36.035561
20
275.440048
11
34.537701
21
274.580329
0
LINE
8
Layer 1
10
34.537701
20
274.580329
11
32.565461
21
273.392779
0
LINE
8
Layer 1
10
32.565461
20
273.392779
11
31.004011
21
272.353499
0
LINE
8
Layer 1
10
31.004011
20
272.353499
11
29.501761
21
271.358367
0
LINE
8
Layer 1
10
29.501761
20
271.358367
11
23.680300
21
267.055000
0
LINE
8
Layer 1
10
23.680300
20
267.055000
11
23.286770
21
266.733349
0
LINE
8
Layer 1
10
23.286770
20
266.733349
11
22.382068
21
266.005086
0
LINE
8
Layer 1
10
22.382068
20
266.005086
11
20.702698
21
264.750256
0
LINE
8
Layer 1
10
20.702698
20
264.750256
11
19.471248
21
263.864322
0
LINE
8
Layer 1
10
19.471248
20
263.864322
11
18.306818
21
263.009675
0
LINE
8
Layer 1
10
18.306818
20
263.009675
11
18.144631
21
262.867091
0
LINE
8
Layer 1
10
18.144631
20
262.867091
11
17.535088
21
262.358829
0
LINE
8
Layer 1
10
17.535088
20
262.358829
11
16.863775
21
261.814581
0
LINE
8
Layer 1
10
16.863775
20
261.814581
11
16.362351
21
261.367562
0
LINE
8
Layer 1
10
16.362351
20
261.367562
11
15.767145
21
261.056143
0
LINE
8
Layer 1
10
15.767145
20
261.056143
11
15.531873
21
260.909723
0
LINE
8
Layer 1
10
15.531873
20
260.909723
11
15.069768
21
260.560496
0
LINE
8
Layer 1
10
15.069768
20
260.560496
11
12.931368
21
258.955456
0
LINE
8
Layer 1
10
12.931368
20
258.955456
11
12.299656
21
258.474152
0
LINE
8
Layer 1
10
12.299656
20
258.474152
11
11.675336
21
257.990376
0
LINE
8
Layer 1
10
11.675336
20
257.990376
11
11.032866
21
257.557301
0
LINE
8
Layer 1
10
11.032866
20
257.557301
11
10.807653
21
257.378976
0
LINE
8
Layer 1
10
10.807653
20
257.378976
11
9.845840
21
256.635885
0
LINE
8
Layer 1
10
9.845840
20
256.635885
11
8.438540
21
255.627395
0
LINE
8
Layer 1
10
8.438540
20
255.627395
11
7.856943
21
255.204093
0
LINE
8
Layer 1
10
7.856943
20
255.204093
11
7.061749
21
254.617551
0
LINE
8
Layer 1
10
7.061749
20
254.617551
11
6.888617
21
254.490176
0
LINE
8
Layer 1
10
6.888617
20
254.490176
11
6.201847
21
253.973380
0
LINE
8
Layer 1
10
6.201847
20
253.973380
11
5.517021
21
253.464252
0
LINE
8
Layer 1
10
5.517021
20
253.464252
11
4.811748
21
252.976149
0
LINE
8
Layer 1
10
4.811748
20
252.976149
11
4.523515
21
252.767279
0
LINE
8
Layer 1
10
4.523515
20
252.767279
11
3.483585
21
252.023187
0
LINE
8
Layer 1
10
3.483585
20
252.023187
11
2.835922
21
251.573667
0
LINE
8
Layer 1
10
2.835922
20
251.573667
11
2.131033
21
251.089024
0
LINE
8
Layer 1
10
2.131033
20
251.089024
11
1.124730
21
250.411000
0
LINE
8
Layer 1
10
1.124730
20
250.411000
11
1.029057
21
250.344839
0
LINE
8
Layer 1
10
1.029057
20
250.344839
11
0.890923
21
250.242198
0
LINE
8
Layer 1
10
0.890923
20
250.242198
11
0.417594
21
249.937364
0
LINE
8
Layer 1
10
0.417594
20
249.937364
11
0.272165
21
249.841769
0
LINE
8
Layer 1
10
0.272165
20
249.841769
11
0.521102
21
249.995363
0
LINE
8
Layer 1
10
0.521102
20
249.995363
11
1.482813
21
250.590934
0
LINE
8
Layer 1
10
1.482813
20
250.590934
11
2.150550
21
251.008058
0
LINE
8
Layer 1
10
2.150550
20
251.008058
11
2.688493
21
251.343684
0
LINE
8
Layer 1
10
2.688493
20
251.343684
11
3.745213
21
252.015805
0
LINE
8
Layer 1
10
3.745213
20
252.015805
11
4.020213
21
252.171125
0
LINE
8
Layer 1
10
4.020213
20
252.171125
11
4.235235
21
252.288730
0
LINE
8
Layer 1
10
4.235235
20
252.288730
11
4.585887
21
252.510215
0
LINE
8
Layer 1
10
4.585887
20
252.510215
11
5.193048
21
252.875272
0
LINE
8
Layer 1
10
5.193048
20
252.875272
11
5.371342
21
252.976556
0
LINE
8
Layer 1
10
5.371342
20
252.976556
11
5.142440
21
252.710181
0
LINE
8
Layer 1
10
5.142440
20
252.710181
11
5.548399
21
252.930427
0
LINE
8
Layer 1
10
5.548399
20
252.930427
11
6.019315
21
253.189877
0
LINE
8
Layer 1
10
6.019315
20
253.189877
11
5.977331
21
253.236004
0
LINE
8
Layer 1
10
5.977331
20
253.236004
11
6.127552
21
253.345447
0
LINE
8
Layer 1
10
6.127552
20
253.345447
11
6.558988
21
253.584246
0
LINE
8
Layer 1
10
6.558988
20
253.584246
11
7.297080
21
253.992585
0
LINE
8
Layer 1
10
7.297080
20
253.992585
11
7.529349
21
254.146548
0
LINE
8
Layer 1
10
7.529349
20
254.146548
11
8.636399
21
254.713179
0
LINE
8
Layer 1
10
8.636399
20
254.713179
11
9.302889
21
255.049178
0
LINE
8
Layer 1
10
9.302889
20
255.049178
11
9.731265
21
255.281164
0
LINE
8
Layer 1
10
9.731265
20
255.281164
11
10.140200
21
255.535000
0
LINE
8
Layer 1
10
10.140200
20
255.535000
11
10.430285
21
255.773303
0
LINE
8
Layer 1
10
10.430285
20
255.773303
11
10.686675
21
255.865434
0
LINE
8
Layer 1
10
10.686675
20
255.865434
11
10.998556
21
255.995282
0
LINE
8
Layer 1
10
10.998556
20
255.995282
11
11.827944
21
256.361948
0
LINE
8
Layer 1
10
11.827944
20
256.361948
11
12.201504
21
256.546950
0
LINE
8
Layer 1
10
12.201504
20
256.546950
11
12.806258
21
256.913864
0
LINE
8
Layer 1
10
12.806258
20
256.913864
11
13.444461
21
257.193470
0
LINE
8
Layer 1
10
13.444461
20
257.193470
11
13.638429
21
257.284611
0
LINE
8
Layer 1
10
13.638429
20
257.284611
11
15.033119
21
258.013492
0
LINE
8
Layer 1
10
15.033119
20
258.013492
11
16.428959
21
258.759314
0
LINE
8
Layer 1
10
16.428959
20
258.759314
11
16.626452
21
258.835985
0
LINE
8
Layer 1
10
16.626452
20
258.835985
11
17.860612
21
259.431432
0
LINE
8
Layer 1
10
17.860612
20
259.431432
11
18.112425
21
259.571791
0
LINE
8
Layer 1
10
18.112425
20
259.571791
11
20.743865
21
260.769611
0
LINE
8
Layer 1
10
20.743865
20
260.769611
11
23.515655
21
262.031111
0
LINE
8
Layer 1
10
23.515655
20
262.031111
11
26.411235
21
263.375471
0
LINE
8
Layer 1
10
26.411235
20
263.375471
11
27.131954
21
263.718024
0
LINE
8
Layer 1
10
27.131954
20
263.718024
11
30.618834
21
265.343224
0
LINE
8
Layer 1
10
30.618834
20
265.343224
11
36.265364
21
268.281254
0
LINE
8
Layer 1
10
36.265364
20
268.281254
11
39.534684
21
270.253834
0
LINE
8
Layer 1
10
39.534684
20
270.253834
11
42.608494
21
272.263254
0
LINE
8
Layer 1
10
42.608494
20
272.263254
11
45.712174
21
274.231754
0
LINE
8
Layer 1
10
45.712174
20
274.231754
11
47.605634
21
275.274004
0
LINE
8
Layer 1
10
47.605634
20
275.274004
11
47.584210
21
271.800754
0
LINE
8
Layer 1
10
47.584210
20
271.800754
11
47.493132
21
259.018755
0
LINE
8
Layer 1
10
47.493132
20
259.018755
11
47.505465
21
234.364155
0
LINE
8
Layer 1
10
47.505465
20
234.364155
11
45.544425
21
233.534611
0
LINE
8
Layer 1
10
45.544425
20
233.534611
11
42.309695
21
231.941311
0
LINE
8
Layer 1
10
42.309695
20
231.941311
11
38.637905
21
230.093021
0
LINE
8
Layer 1
10
38.637905
20
230.093021
11
36.173545
21
228.747671
0
LINE
8
Layer 1
10
36.173545
20
228.747671
11
34.675685
21
227.887831
0
LINE
8
Layer 1
10
34.675685
20
227.887831
11
32.703445
21
226.700281
0
LINE
8
Layer 1
10
32.703445
20
226.700281
11
31.141985
21
225.661121
0
LINE
8
Layer 1
10
31.141985
20
225.661121
11
29.639735
21
224.665992
0
LINE
8
Layer 1
10
29.639735
20
224.665992
11
23.818300
21
220.363000
0
LINE
8
Layer 1
10
23.818300
20
220.363000
11
23.424770
21
220.041225
0
LINE
8
Layer 1
10
23.424770
20
220.041225
11
22.520068
21
219.312962
0
LINE
8
Layer 1
10
22.520068
20
219.312962
11
20.840698
21
218.058132
0
LINE
8
Layer 1
10
20.840698
20
218.058132
11
19.609248
21
217.172198
0
LINE
8
Layer 1
10
19.609248
20
217.172198
11
18.444818
21
216.317675
0
LINE
8
Layer 1
10
18.444818
20
216.317675
11
18.282633
21
216.175088
0
LINE
8
Layer 1
10
18.282633
20
216.175088
11
17.673087
21
215.666705
0
LINE
8
Layer 1
10
17.673087
20
215.666705
11
17.001774
21
215.122581
0
LINE
8
Layer 1
10
17.001774
20
215.122581
11
16.500354
21
214.675506
0
LINE
8
Layer 1
10
16.500354
20
214.675506
11
15.905144
21
214.364022
0
LINE
8
Layer 1
10
15.905144
20
214.364022
11
15.669870
21
214.217727
0
LINE
8
Layer 1
10
15.669870
20
214.217727
11
15.207768
21
213.868497
0
LINE
8
Layer 1
10
15.207768
20
213.868497
11
13.069358
21
212.263327
0
LINE
8
Layer 1
10
13.069358
20
212.263327
11
12.437649
21
211.782138
0
LINE
8
Layer 1
10
12.437649
20
211.782138
11
11.813326
21
211.298240
0
LINE
8
Layer 1
10
11.813326
20
211.298240
11
11.170856
21
210.865165
0
LINE
8
Layer 1
10
11.170856
20
210.865165
11
10.945601
21
210.686964
0
LINE
8
Layer 1
10
10.945601
20
210.686964
11
9.983831
21
209.943738
0
LINE
8
Layer 1
10
9.983831
20
209.943738
11
8.576521
21
208.935248
0
LINE
8
Layer 1
10
8.576521
20
208.935248
11
7.994926
21
208.512067
0
LINE
8
Layer 1
10
7.994926
20
208.512067
11
7.199729
21
207.925525
0
LINE
8
Layer 1
10
7.199729
20
207.925525
11
7.026600
21
207.798026
0
LINE
8
Layer 1
10
7.026600
20
207.798026
11
6.339827
21
207.281232
0
LINE
8
Layer 1
10
6.339827
20
207.281232
11
5.655001
21
206.772228
0
LINE
8
Layer 1
10
5.655001
20
206.772228
11
4.949742
21
206.283984
0
LINE
8
Layer 1
10
4.949742
20
206.283984
11
4.661509
21
206.075238
0
LINE
8
Layer 1
10
4.661509
20
206.075238
11
3.621579
21
205.331019
0
LINE
8
Layer 1
10
3.621579
20
205.331019
11
2.973913
21
204.881620
0
LINE
8
Layer 1
10
2.973913
20
204.881620
11
2.269024
21
204.396856
0
LINE
8
Layer 1
10
2.269024
20
204.396856
11
1.262764
21
203.718677
0
LINE
8
Layer 1
10
1.262764
20
203.718677
11
1.167091
21
203.652394
0
LINE
8
Layer 1
10
1.167091
20
203.652394
11
1.028957
21
203.549877
0
LINE
8
Layer 1
10
1.028957
20
203.549877
11
0.555628
21
203.244919
0
LINE
8
Layer 1
10
0.555628
20
203.244919
11
0.413044
21
203.151179
0
LINE
8
Layer 1
10
0.413044
20
203.151179
11
0.659142
21
203.302916
0
LINE
8
Layer 1
10
0.659142
20
203.302916
11
1.620800
21
203.899000
0
LINE
8
Layer 1
10
1.620800
20
203.899000
11
2.288537
21
204.316124
0
LINE
8
Layer 1
10
2.288537
20
204.316124
11
2.826478
21
204.651751
0
LINE
8
Layer 1
10
2.826478
20
204.651751
11
3.883198
21
205.323868
0
LINE
8
Layer 1
10
3.883198
20
205.323868
11
4.158198
21
205.479316
0
LINE
8
Layer 1
10
4.158198
20
205.479316
11
4.373220
21
205.596921
0
LINE
8
Layer 1
10
4.373220
20
205.596921
11
4.723872
21
205.818403
0
LINE
8
Layer 1
10
4.723872
20
205.818403
11
5.331033
21
206.183463
0
LINE
8
Layer 1
10
5.331033
20
206.183463
11
5.509327
21
206.284620
0
LINE
8
Layer 1
10
5.509327
20
206.284620
11
5.280425
21
206.018248
0
LINE
8
Layer 1
10
5.280425
20
206.018248
11
5.686384
21
206.238618
0
LINE
8
Layer 1
10
5.686384
20
206.238618
11
6.157300
21
206.497943
0
LINE
8
Layer 1
10
6.157300
20
206.497943
11
6.115317
21
206.544194
0
LINE
8
Layer 1
10
6.115317
20
206.544194
11
6.265538
21
206.653636
0
LINE
8
Layer 1
10
6.265538
20
206.653636
11
6.696974
21
206.892434
0
LINE
8
Layer 1
10
6.696974
20
206.892434
11
7.435066
21
207.300651
0
LINE
8
Layer 1
10
7.435066
20
207.300651
11
7.667335
21
207.454614
0
LINE
8
Layer 1
10
7.667335
20
207.454614
11
8.774385
21
208.021245
0
LINE
8
Layer 1
10
8.774385
20
208.021245
11
9.440878
21
208.357371
0
LINE
8
Layer 1
10
9.440878
20
208.357371
11
9.869251
21
208.589242
0
LINE
8
Layer 1
10
9.869251
20
208.589242
11
10.278241
21
208.843993
0
LINE
8
Layer 1
10
10.278241
20
208.843993
11
10.568329
21
209.082296
0
LINE
8
Layer 1
10
10.568329
20
209.082296
11
10.824716
21
209.174300
0
LINE
8
Layer 1
10
10.824716
20
209.174300
11
11.136597
21
209.304148
0
LINE
8
Layer 1
10
11.136597
20
209.304148
11
11.965988
21
209.670938
0
LINE
8
Layer 1
10
11.965988
20
209.670938
11
12.339548
21
209.855940
0
LINE
8
Layer 1
10
12.339548
20
209.855940
11
12.944299
21
210.222730
0
LINE
8
Layer 1
10
12.944299
20
210.222730
11
13.582502
21
210.502460
0
LINE
8
Layer 1
10
13.582502
20
210.502460
11
13.776470
21
210.593477
0
LINE
8
Layer 1
10
13.776470
20
210.593477
11
15.171160
21
211.322358
0
LINE
8
Layer 1
10
15.171160
20
211.322358
11
16.567000
21
212.068305
0
LINE
8
Layer 1
10
16.567000
20
212.068305
11
16.764493
21
212.144852
0
LINE
8
Layer 1
10
16.764493
20
212.144852
11
17.998653
21
212.740298
0
LINE
8
Layer 1
10
17.998653
20
212.740298
11
18.250466
21
212.880658
0
LINE
8
Layer 1
10
18.250466
20
212.880658
11
20.881906
21
214.078598
0
LINE
8
Layer 1
10
20.881906
20
214.078598
11
23.653696
21
215.339978
0
LINE
8
Layer 1
10
23.653696
20
215.339978
11
26.549276
21
216.684468
0
LINE
8
Layer 1
10
26.549276
20
216.684468
11
27.269995
21
217.026894
0
LINE
8
Layer 1
10
27.269995
20
217.026894
11
30.756875
21
218.652214
0
LINE
8
Layer 1
10
30.756875
20
218.652214
11
36.403405
21
221.590244
0
LINE
8
Layer 1
10
36.403405
20
221.590244
11
39.672735
21
223.562824
0
LINE
8
Layer 1
10
39.672735
20
223.562824
11
42.746545
21
225.572124
0
LINE
8
Layer 1
10
42.746545
20
225.572124
11
45.850225
21
227.540744
0
LINE
8
Layer 1
10
45.850225
20
227.540744
11
47.508475
21
228.476392
0
LINE
8
Layer 1
10
47.508475
20
228.476392
11
47.518832
21
207.820292
0
LINE
8
Layer 1
10
47.518832
20
207.820292
11
47.555219
21
204.244282
0
LINE
8
Layer 1
10
47.555219
20
204.244282
11
47.630809
21
196.065832
0
LINE
8
Layer 1
10
47.630809
20
196.065832
11
47.667323
21
181.245832
0
LINE
8
Layer 1
10
47.667323
20
181.245832
11
47.652543
21
170.506132
0
LINE
8
Layer 1
10
47.652543
20
170.506132
11
47.660646
21
160.288332
0
LINE
8
Layer 1
10
47.660646
20
160.288332
11
47.695579
21
158.777152
0
LINE
8
Layer 1
10
47.695579
20
158.777152
11
47.792006
21
153.200732
0
LINE
8
Layer 1
10
47.792006
20
153.200732
11
47.882376
21
147.117782
0
LINE
8
Layer 1
10
47.882376
20
147.117782
11
48.019895
21
142.391841
0
LINE
8
Layer 1
10
48.019895
20
142.391841
11
47.830591
21
137.667692
0
LINE
8
Layer 1
10
47.830591
20
137.667692
11
47.791080
21
135.701052
0
LINE
8
Layer 1
10
47.791080
20
135.701052
11
47.816647
21
131.608612
0
LINE
8
Layer 1
10
47.816647
20
131.608612
11
47.937345
21
112.710512
0
LINE
8
Layer 1
10
47.937345
20
112.710512
11
47.996239
21
107.101452
0
LINE
8
Layer 1
10
47.996239
20
107.101452
11
48.079311
21
101.527382
0
LINE
8
Layer 1
10
48.079311
20
101.527382
11
48.098268
21
98.704950
0
LINE
8
Layer 1
10
48.098268
20
98.704950
11
48.020327
21
96.032962
0
LINE
8
Layer 1
10
48.020327
20
96.032962
11
48.062248
21
94.007952
0
LINE
8
Layer 1
10
48.062248
20
94.007952
11
48.215162
21
85.429082
0
LINE
8
Layer 1
10
48.215162
20
85.429082
11
48.255291
21
73.170682
0
LINE
8
Layer 1
10
48.255291
20
73.170682
11
48.297768
21
68.080522
0
LINE
8
Layer 1
10
48.297768
20
68.080522
11
48.396978
21
61.091732
0
LINE
8
Layer 1
10
48.396978
20
61.091732
11
48.414261
21
59.570902
0
LINE
8
Layer 1
10
48.414261
20
59.570902
11
48.549211
21
53.496862
0
LINE
8
Layer 1
10
48.549211
20
53.496862
11
48.905488
21
47.463502
0
LINE
8
Layer 1
10
48.905488
20
47.463502
11
49.030003
21
44.436558
0
LINE
8
Layer 1
10
49.030003
20
44.436558
11
49.120572
21
41.384392
0
LINE
8
Layer 1
10
49.120572
20
41.384392
11
49.254224
21
38.865342
0
LINE
8
Layer 1
10
49.254224
20
38.865342
11
49.533006
21
34.386419
0
LINE
8
Layer 1
10
49.533006
20
34.386419
11
49.706403
21
29.810852
0
LINE
8
Layer 1
10
49.706403
20
29.810852
11
49.932926
21
24.224172
0
LINE
8
Layer 1
10
49.932926
20
24.224172
11
50.163592
21
18.160392
0
LINE
8
Layer 1
10
50.163592
20
18.160392
11
50.438871
21
9.555052
0
LINE
8
Layer 1
10
50.438871
20
9.555052
11
50.474981
21
8.730207
0
LINE
8
Layer 1
10
50.474981
20
8.730207
11
50.564203
21
7.513827
0
LINE
8
Layer 1
10
50.564203
20
7.513827
11
50.628417
21
3.518717
0
LINE
8
Layer 1
10
50.628417
20
3.518717
11
50.658897
21
2.285037
0
LINE
8
Layer 1
10
50.658897
20
2.285037
11
50.660937
21
4.359887
0
LINE
8
Layer 1
10
50.660937
20
4.359887
11
50.654571
21
12.387707
0
LINE
8
Layer 1
10
50.654571
20
12.387707
11
50.632495
21
17.975137
0
LINE
8
Layer 1
10
50.632495
20
17.975137
11
50.616914
21
22.475047
0
LINE
8
Layer 1
10
50.616914
20
22.475047
11
50.659517
21
26.940148
0
LINE
8
Layer 1
10
50.659517
20
26.940148
11
50.526360
21
31.361847
0
LINE
8
Layer 1
10
50.526360
20
31.361847
11
50.596788
21
33.601907
0
LINE
8
Layer 1
10
50.596788
20
33.601907
11
50.669997
21
35.338657
0
LINE
8
Layer 1
10
50.669997
20
35.338657
11
50.647303
21
38.281877
0
LINE
8
Layer 1
10
50.647303
20
38.281877
11
50.694606
21
43.309347
0
LINE
8
Layer 1
10
50.694606
20
43.309347
11
50.736093
21
44.763397
0
LINE
8
Layer 1
10
50.736093
20
44.763397
11
50.913180
21
44.385079
0
LINE
8
Layer 1
10
50.913180
20
44.385079
11
51.043126
21
43.621879
0
LINE
8
Layer 1
10
51.043126
20
43.621879
11
51.318554
21
42.387797
0
LINE
8
Layer 1
10
51.318554
20
42.387797
11
51.414003
21
43.990092
0
LINE
8
Layer 1
10
51.414003
20
43.990092
11
51.454244
21
45.660467
0
LINE
8
Layer 1
10
51.454244
20
45.660467
11
51.598050
21
47.563066
0
LINE
8
Layer 1
10
51.598050
20
47.563066
11
51.590430
21
49.471077
0
LINE
8
Layer 1
10
51.590430
20
49.471077
11
51.419024
21
49.347166
0
LINE
8
Layer 1
10
51.419024
20
49.347166
11
51.260648
21
49.390197
0
LINE
8
Layer 1
10
51.260648
20
49.390197
11
51.182924
21
50.705497
0
LINE
8
Layer 1
10
51.182924
20
50.705497
11
51.299786
21
54.201007
0
LINE
8
Layer 1
10
51.299786
20
54.201007
11
51.348235
21
57.196835
0
LINE
8
Layer 1
10
51.348235
20
57.196835
11
51.417190
21
60.179957
0
LINE
8
Layer 1
10
51.417190
20
60.179957
11
51.353069
21
62.156737
0
LINE
8
Layer 1
10
51.353069
20
62.156737
11
51.398077
21
66.559270
0
LINE
8
Layer 1
10
51.398077
20
66.559270
11
51.663962
21
70.953997
0
LINE
8
Layer 1
10
51.663962
20
70.953997
11
51.876858
21
73.588582
0
LINE
8
Layer 1
10
51.876858
20
73.588582
11
51.832827
21
76.231387
0
LINE
8
Layer 1
10
51.832827
20
76.231387
11
51.880780
21
79.682747
0
LINE
8
Layer 1
10
51.880780
20
79.682747
11
51.932765
21
81.393825
0
LINE
8
Layer 1
10
51.932765
20
81.393825
11
51.825501
21
83.102327
0
LINE
8
Layer 1
10
51.825501
20
83.102327
11
51.626060
21
85.742567
0
LINE
8
Layer 1
10
51.626060
20
85.742567
11
51.786145
21
87.633897
0
LINE
8
Layer 1
10
51.786145
20
87.633897
11
51.923505
21
90.001087
0
LINE
8
Layer 1
10
51.923505
20
90.001087
11
51.971403
21
93.192775
0
LINE
8
Layer 1
10
51.971403
20
93.192775
11
52.201776
21
96.376497
0
LINE
8
Layer 1
10
52.201776
20
96.376497
11
52.266608
21
99.322067
0
LINE
8
Layer 1
10
52.266608
20
99.322067
11
52.228723
21
101.826436
0
LINE
8
Layer 1
10
52.228723
20
101.826436
11
52.205702
21
104.341747
0
LINE
8
Layer 1
10
52.205702
20
104.341747
11
52.230195
21
106.831832
0
LINE
8
Layer 1
10
52.230195
20
106.831832
11
52.387645
21
109.237887
0
LINE
8
Layer 1
10
52.387645
20
109.237887
11
52.426196
21
110.748817
0
LINE
8
Layer 1
10
52.426196
20
110.748817
11
52.441079
21
116.330334
0
LINE
8
Layer 1
10
52.441079
20
116.330334
11
52.526520
21
121.887917
0
LINE
8
Layer 1
10
52.526520
20
121.887917
11
52.606576
21
127.481122
0
LINE
8
Layer 1
10
52.606576
20
127.481122
11
52.579787
21
133.097517
0
LINE
8
Layer 1
10
52.579787
20
133.097517
11
52.639335
21
134.575677
0
LINE
8
Layer 1
10
52.639335
20
134.575677
11
52.784115
21
144.247867
0
LINE
8
Layer 1
10
52.784115
20
144.247867
11
52.779510
21
146.291797
0
LINE
8
Layer 1
10
52.779510
20
146.291797
11
53.135417
21
166.646997
0
LINE
8
Layer 1
10
53.135417
20
166.646997
11
53.184170
21
170.227097
0
LINE
8
Layer 1
10
53.184170
20
170.227097
11
53.268696
21
170.157106
0
LINE
8
Layer 1
10
53.268696
20
170.157106
11
53.539274
21
169.926596
0
LINE
8
Layer 1
10
53.539274
20
169.926596
11
53.693517
21
169.788956
0
LINE
8
Layer 1
10
53.693517
20
169.788956
11
54.283798
21
169.212060
0
LINE
8
Layer 1
10
54.283798
20
169.212060
11
54.810918
21
168.770329
0
LINE
8
Layer 1
10
54.810918
20
168.770329
11
55.952868
21
167.904678
0
LINE
8
Layer 1
10
55.952868
20
167.904678
11
61.218500
21
163.898000
0
LINE
8
Layer 1
10
61.218500
20
163.898000
11
62.786290
21
162.714640
0
LINE
8
Layer 1
10
62.786290
20
162.714640
11
64.349910
21
161.545510
0
LINE
8
Layer 1
10
64.349910
20
161.545510
11
65.847000
21
160.340400
0
LINE
8
Layer 1
10
65.847000
20
160.340400
11
66.417557
21
159.918701
0
LINE
8
Layer 1
10
66.417557
20
159.918701
11
68.822587
21
158.117401
0
LINE
8
Layer 1
10
68.822587
20
158.117401
11
72.205247
21
155.479511
0
LINE
8
Layer 1
10
72.205247
20
155.479511
11
73.614347
21
154.389531
0
LINE
8
Layer 1
10
73.614347
20
154.389531
11
75.554517
21
152.899491
0
LINE
8
Layer 1
10
75.554517
20
152.899491
11
75.976555
21
152.574995
0
LINE
8
Layer 1
10
75.976555
20
152.574995
11
77.669865
21
151.288385
0
LINE
8
Layer 1
10
77.669865
20
151.288385
11
79.347595
21
150.005245
0
LINE
8
Layer 1
10
79.347595
20
150.005245
11
81.013025
21
148.682775
0
LINE
8
Layer 1
10
81.013025
20
148.682775
11
81.709721
21
148.142602
0
LINE
8
Layer 1
10
81.709721
20
148.142602
11
84.207531
21
146.193272
0
LINE
8
Layer 1
10
84.207531
20
146.193272
11
85.738931
21
144.978762
0
LINE
8
Layer 1
10
85.738931
20
144.978762
11
87.397961
21
143.656912
0
LINE
8
Layer 1
10
87.397961
20
143.656912
11
89.742551
21
141.769542
0
LINE
8
Layer 1
10
89.742551
20
141.769542
11
89.968546
21
141.590105
0
LINE
8
Layer 1
10
89.968546
20
141.590105
11
90.306769
21
141.331274
0
LINE
8
Layer 1
10
90.306769
20
141.331274
11
91.385189
21
140.442992
0
LINE
8
Layer 1
10
91.385189
20
140.442992
11
91.719422
21
140.170557
0
LINE
8
Layer 1
10
91.719422
20
140.170557
11
91.164416
21
140.637516
0
LINE
8
Layer 1
10
91.164416
20
140.637516
11
89.014506
21
142.442886
0
LINE
8
Layer 1
10
89.014506
20
142.442886
11
87.515656
21
143.696356
0
LINE
8
Layer 1
10
87.515656
20
143.696356
11
86.308746
21
144.706076
0
LINE
8
Layer 1
10
86.308746
20
144.706076
11
83.915956
21
146.689286
0
LINE
8
Layer 1
10
83.915956
20
146.689286
11
83.327004
21
147.205958
0
LINE
8
Layer 1
10
83.327004
20
147.205958
11
82.873279
21
147.610100
0
LINE
8
Layer 1
10
82.873279
20
147.610100
11
82.081929
21
148.268242
0
LINE
8
Layer 1
10
82.081929
20
148.268242
11
80.743569
21
149.408302
0
LINE
8
Layer 1
10
80.743569
20
149.408302
11
80.360876
21
149.743300
0
LINE
8
Layer 1
10
80.360876
20
149.743300
11
81.087962
21
149.317145
0
LINE
8
Layer 1
10
81.087962
20
149.317145
11
80.234274
21
150.080158
0
LINE
8
Layer 1
10
80.234274
20
150.080158
11
79.237257
21
150.965102
0
LINE
8
Layer 1
10
79.237257
20
150.965102
11
79.206280
21
150.884104
0
LINE
8
Layer 1
10
79.206280
20
150.884104
11
78.842087
21
151.165688
0
LINE
8
Layer 1
10
78.842087
20
151.165688
11
77.926751
21
151.976433
0
LINE
8
Layer 1
10
77.926751
20
151.976433
11
76.361151
21
153.363463
0
LINE
8
Layer 1
10
76.361151
20
153.363463
11
75.824416
21
153.799256
0
LINE
8
Layer 1
10
75.824416
20
153.799256
11
73.555296
21
155.880786
0
LINE
8
Layer 1
10
73.555296
20
155.880786
11
72.198046
21
157.134136
0
LINE
8
Layer 1
10
72.198046
20
157.134136
11
71.298077
21
157.939315
0
LINE
8
Layer 1
10
71.298077
20
157.939315
11
70.381287
21
158.707027
0
LINE
8
Layer 1
10
70.381287
20
158.707027
11
69.631477
21
159.249915
0
LINE
8
Layer 1
10
69.631477
20
159.249915
11
69.173640
21
159.733198
0
LINE
8
Layer 1
10
69.173640
20
159.733198
11
68.585862
21
160.320482
0
LINE
8
Layer 1
10
68.585862
20
160.320482
11
66.985732
21
161.881622
0
LINE
8
Layer 1
10
66.985732
20
161.881622
11
66.230729
21
162.584284
0
LINE
8
Layer 1
10
66.230729
20
162.584284
11
64.892059
21
163.719774
0
LINE
8
Layer 1
10
64.892059
20
163.719774
11
64.245231
21
164.303549
0
LINE
8
Layer 1
10
64.245231
20
164.303549
11
63.665179
21
164.921174
0
LINE
8
Layer 1
10
63.665179
20
164.921174
11
63.281758
21
165.286107
0
LINE
8
Layer 1
10
63.281758
20
165.286107
11
60.397118
21
167.908177
0
LINE
8
Layer 1
10
60.397118
20
167.908177
11
58.962988
21
169.241762
0
LINE
8
Layer 1
10
58.962988
20
169.241762
11
57.481718
21
170.531847
0
LINE
8
Layer 1
10
57.481718
20
170.531847
11
57.119164
21
170.903954
0
LINE
8
Layer 1
10
57.119164
20
170.903954
11
55.909814
21
172.081864
0
LINE
8
Layer 1
10
55.909814
20
172.081864
11
55.601396
21
172.372228
0
LINE
8
Layer 1
10
55.601396
20
172.372228
11
55.554341
21
172.413659
0
LINE
8
Layer 1
10
55.554341
20
172.413659
11
55.524708
21
172.437278
0
LINE
8
Layer 1
10
55.524708
20
172.437278
11
55.465103
21
172.483404
0
LINE
8
Layer 1
10
55.465103
20
172.483404
11
55.215619
21
172.659257
0
LINE
8
Layer 1
10
55.215619
20
172.659257
11
55.041962
21
172.819774
0
LINE
8
Layer 1
10
55.041962
20
172.819774
11
54.961766
21
172.922167
0
LINE
8
Layer 1
10
54.961766
20
172.922167
11
54.923666
21
172.971881
0
LINE
8
Layer 1
10
54.923666
20
172.971881
11
54.905146
21
172.996366
0
LINE
8
Layer 1
10
54.905146
20
172.996366
11
54.938505
21
173.018625
0
LINE
8
Layer 1
10
54.938505
20
173.018625
11
55.227218
21
173.185822
0
LINE
8
Layer 1
10
55.227218
20
173.185822
11
55.455409
21
173.351531
0
LINE
8
Layer 1
10
55.455409
20
173.351531
11
55.553622
21
173.431295
0
LINE
8
Layer 1
10
55.553622
20
173.431295
11
55.604323
21
173.472218
0
LINE
8
Layer 1
10
55.604323
20
173.472218
11
55.782927
21
173.605528
0
LINE
8
Layer 1
10
55.782927
20
173.605528
11
58.643137
21
175.739368
0
LINE
8
Layer 1
10
58.643137
20
175.739368
11
64.660047
21
180.241628
0
LINE
8
Layer 1
10
64.660047
20
180.241628
11
70.952327
21
184.990858
0
LINE
8
Layer 1
10
70.952327
20
184.990858
11
72.520397
21
186.186198
0
LINE
8
Layer 1
10
72.520397
20
186.186198
11
80.099167
21
191.915838
0
LINE
8
Layer 1
10
80.099167
20
191.915838
11
83.199657
21
194.351168
0
LINE
8
Layer 1
10
83.199657
20
194.351168
11
84.747597
21
195.571618
0
LINE
8
Layer 1
10
84.747597
20
195.571618
11
85.520885
21
196.182646
0
LINE
8
Layer 1
10
85.520885
20
196.182646
11
85.907275
21
196.488470
0
LINE
8
Layer 1
10
85.907275
20
196.488470
11
86.123657
21
196.661354
0
LINE
8
Layer 1
10
86.123657
20
196.661354
11
86.508326
21
196.979173
0
LINE
8
Layer 1
10
86.508326
20
196.979173
11
89.581026
21
199.520603
0
LINE
8
Layer 1
10
89.581026
20
199.520603
11
90.904456
21
200.799793
0
LINE
8
Layer 1
10
90.904456
20
200.799793
11
92.121626
21
202.082323
0
LINE
8
Layer 1
10
92.121626
20
202.082323
11
93.335706
21
203.362763
0
LINE
8
Layer 1
10
93.335706
20
203.362763
11
93.411483
21
203.442772
0
LINE
8
Layer 1
10
93.411483
20
203.442772
11
93.445366
21
203.482591
0
LINE
8
Layer 1
10
93.445366
20
203.482591
11
93.403352
21
203.520804
0
LINE
8
Layer 1
10
93.403352
20
203.520804
11
93.235292
21
203.673407
0
LINE
8
Layer 1
10
93.235292
20
203.673407
11
92.899202
21
203.978365
0
LINE
8
Layer 1
10
92.899202
20
203.978365
11
92.227206
21
204.587784
0
LINE
8
Layer 1
10
92.227206
20
204.587784
11
90.884000
21
205.805000
0
LINE
8
Layer 1
10
90.884000
20
205.805000
11
90.212876
21
206.411947
0
LINE
8
Layer 1
10
90.212876
20
206.411947
11
89.470547
21
207.028292
0
LINE
8
Layer 1
10
89.470547
20
207.028292
11
86.105657
21
209.785772
0
LINE
8
Layer 1
10
86.105657
20
209.785772
11
84.266737
21
211.279522
0
LINE
8
Layer 1
10
84.266737
20
211.279522
11
80.558707
21
214.226822
0
LINE
8
Layer 1
10
80.558707
20
214.226822
11
73.366297
21
219.820802
0
LINE
8
Layer 1
10
73.366297
20
219.820802
11
66.208207
21
225.473392
0
LINE
8
Layer 1
10
66.208207
20
225.473392
11
61.844227
21
229.182592
0
LINE
8
Layer 1
10
61.844227
20
229.182592
11
58.748252
21
231.883093
0
LINE
8
Layer 1
10
58.748252
20
231.883093
11
55.422807
21
234.295392
0
LINE
8
Layer 1
10
55.422807
20
234.295392
11
53.843947
21
235.056545
0
LINE
8
Layer 1
10
53.843947
20
235.056545
11
53.858603
21
243.326995
0
LINE
8
Layer 1
10
53.858603
20
243.326995
11
53.847907
21
275.152895
0
LINE
8
Layer 1
10
53.847907
20
275.152895
11
54.794590
21
274.427108
0
LINE
8
Layer 1
10
54.794590
20
274.427108
11
58.090440
21
271.970258
0
LINE
8
Layer 1
10
58.090440
20
271.970258
11
60.396190
21
270.368178
0
LINE
8
Layer 1
10
60.396190
20
270.368178
11
61.835210
21
269.413238
0
LINE
8
Layer 1
10
61.835210
20
269.413238
11
63.779650
21
268.180798
0
LINE
8
Layer 1
10
63.779650
20
268.180798
11
65.407700
21
267.249231
0
LINE
8
Layer 1
10
65.407700
20
267.249231
11
66.969800
21
266.350918
0
LINE
8
Layer 1
10
66.969800
20
266.350918
11
73.422900
21
263.070000
0
LINE
8
Layer 1
10
73.422900
20
263.070000
11
73.886675
21
262.862002
0
LINE
8
Layer 1
10
73.886675
20
262.862002
11
74.942745
21
262.378719
0
LINE
8
Layer 1
10
74.942745
20
262.378719
11
76.816325
21
261.438248
0
LINE
8
Layer 1
10
76.816325
20
261.438248
11
78.159605
21
260.733235
0
LINE
8
Layer 1
10
78.159605
20
260.733235
11
79.444825
21
260.074227
0
LINE
8
Layer 1
10
79.444825
20
260.074227
11
79.644946
21
259.992978
0
LINE
8
Layer 1
10
79.644946
20
259.992978
11
80.372280
21
259.675284
0
LINE
8
Layer 1
10
80.372280
20
259.675284
11
81.159284
21
259.318389
0
LINE
8
Layer 1
10
81.159284
20
259.318389
11
81.783413
21
259.069918
0
LINE
8
Layer 1
10
81.783413
20
259.069918
11
82.328244
21
258.676938
0
LINE
8
Layer 1
10
82.328244
20
258.676938
11
82.564444
21
258.532003
0
LINE
8
Layer 1
10
82.564444
20
258.532003
11
83.083450
21
258.275029
0
LINE
8
Layer 1
10
83.083450
20
258.275029
11
85.475680
21
257.080669
0
LINE
8
Layer 1
10
85.475680
20
257.080669
11
86.188731
21
256.731069
0
LINE
8
Layer 1
10
86.188731
20
256.731069
11
86.900732
21
256.389137
0
LINE
8
Layer 1
10
86.900732
20
256.389137
11
87.575508
21
256.008372
0
LINE
8
Layer 1
10
87.575508
20
256.008372
11
87.835731
21
255.886686
0
LINE
8
Layer 1
10
87.835731
20
255.886686
11
88.930661
21
255.359007
0
LINE
8
Layer 1
10
88.930661
20
255.359007
11
90.462221
21
254.551601
0
LINE
8
Layer 1
10
90.462221
20
254.551601
11
91.100949
21
254.220797
0
LINE
8
Layer 1
10
91.100949
20
254.220797
11
91.981259
21
253.772019
0
LINE
8
Layer 1
10
91.981259
20
253.772019
11
92.172721
21
253.674198
0
LINE
8
Layer 1
10
92.172721
20
253.674198
11
92.942132
21
253.291223
0
LINE
8
Layer 1
10
92.942132
20
253.291223
11
93.703784
21
252.906504
0
LINE
8
Layer 1
10
93.703784
20
252.906504
11
94.455906
21
252.494206
0
LINE
8
Layer 1
10
94.455906
20
252.494206
11
94.771591
21
252.329854
0
LINE
8
Layer 1
10
94.771591
20
252.329854
11
95.902381
21
251.732672
0
LINE
8
Layer 1
10
95.902381
20
251.732672
11
96.594130
21
251.354627
0
LINE
8
Layer 1
10
96.594130
20
251.354627
11
97.342983
21
250.940969
0
LINE
8
Layer 1
10
97.342983
20
250.940969
11
98.399763
21
250.344535
0
LINE
8
Layer 1
10
98.399763
20
250.344535
11
98.501817
21
250.288638
0
LINE
8
Layer 1
10
98.501817
20
250.288638
11
98.655346
21
250.210976
0
LINE
8
Layer 1
10
98.655346
20
250.210976
11
99.139803
21
249.924075
0
LINE
8
Layer 1
10
99.139803
20
249.924075
11
99.288139
21
249.837998
0
LINE
8
Layer 1
10
99.288139
20
249.837998
11
99.041646
21
249.990725
0
LINE
8
Layer 1
10
99.041646
20
249.990725
11
98.078700
21
250.584000
0
LINE
8
Layer 1
10
98.078700
20
250.584000
11
98.078700
21
250.584000
0
LINE
8
Layer 1
10
3.831750
20
252.197000
11
3.757489
21
252.159284
0
LINE
8
Layer 1
10
3.757489
20
252.159284
11
3.799286
21
252.192795
0
LINE
8
Layer 1
10
3.799286
20
252.192795
11
4.023274
21
252.335009
0
LINE
8
Layer 1
10
4.023274
20
252.335009
11
3.831750
21
252.197000
0
LINE
8
Layer 1
10
3.831750
20
252.197000
11
3.831750
21
252.197000
0
LINE
8
Layer 1
10
7.660530
20
254.378200
11
7.543450
21
254.307834
0
LINE
8
Layer 1
10
7.543450
20
254.307834
11
7.546357
21
254.324900
0
LINE
8
Layer 1
10
7.546357
20
254.324900
11
7.665630
21
254.395263
0
LINE
8
Layer 1
10
7.665630
20
254.395263
11
7.660530
21
254.378000
0
LINE
8
Layer 1
10
7.660530
20
254.378000
11
7.660530
21
254.378200
0
LINE
8
Layer 1
10
9.672520
20
255.528030
11
9.435736
21
255.331527
0
LINE
8
Layer 1
10
9.435736
20
255.331527
11
8.963121
21
255.148873
0
LINE
8
Layer 1
10
8.963121
20
255.148873
11
8.935697
21
255.156665
0
LINE
8
Layer 1
10
8.935697
20
255.156665
11
9.000806
21
255.229998
0
LINE
8
Layer 1
10
9.000806
20
255.229998
11
9.067337
21
255.271795
0
LINE
8
Layer 1
10
9.067337
20
255.271795
11
9.481955
21
255.509849
0
LINE
8
Layer 1
10
9.481955
20
255.509849
11
9.694132
21
255.594685
0
LINE
8
Layer 1
10
9.694132
20
255.594685
11
9.672530
21
255.528000
0
LINE
8
Layer 1
10
9.672530
20
255.528000
11
9.672520
21
255.528030
0
LINE
8
Layer 1
10
11.637520
20
256.493356
11
11.262692
21
256.258022
0
LINE
8
Layer 1
10
11.262692
20
256.258022
11
10.907279
21
256.086005
0
LINE
8
Layer 1
10
10.907279
20
256.086005
11
10.848447
21
256.106534
0
LINE
8
Layer 1
10
10.848447
20
256.106534
11
10.883908
21
256.148207
0
LINE
8
Layer 1
10
10.883908
20
256.148207
11
11.613251
21
256.561002
0
LINE
8
Layer 1
10
11.613251
20
256.561002
11
11.657430
21
256.562362
0
LINE
8
Layer 1
10
11.657430
20
256.562362
11
11.637500
21
256.493000
0
LINE
8
Layer 1
10
11.637500
20
256.493000
11
11.637520
21
256.493356
0
LINE
8
Layer 1
10
3.969760
20
205.505000
11
3.895499
21
205.467405
0
LINE
8
Layer 1
10
3.895499
20
205.467405
11
3.937299
21
205.500919
0
LINE
8
Layer 1
10
3.937299
20
205.500919
11
4.161284
21
205.643009
0
LINE
8
Layer 1
10
4.161284
20
205.643009
11
3.969760
21
205.505000
0
LINE
8
Layer 1
10
3.969760
20
205.505000
11
3.969760
21
205.505000
0
LINE
8
Layer 1
10
7.798510
20
207.686320
11
7.681461
21
207.615832
0
LINE
8
Layer 1
10
7.681461
20
207.615832
11
7.684368
21
207.632898
0
LINE
8
Layer 1
10
7.684368
20
207.632898
11
7.803643
21
207.703386
0
LINE
8
Layer 1
10
7.803643
20
207.703386
11
7.798510
21
207.686000
0
LINE
8
Layer 1
10
7.798510
20
207.686000
11
7.798510
21
207.686320
0
LINE
8
Layer 1
10
9.810540
20
208.836030
11
9.573756
21
208.639651
0
LINE
8
Layer 1
10
9.573756
20
208.639651
11
9.101141
21
208.456876
0
LINE
8
Layer 1
10
9.101141
20
208.456876
11
9.073718
21
208.464665
0
LINE
8
Layer 1
10
9.073718
20
208.464665
11
9.138826
21
208.538122
0
LINE
8
Layer 1
10
9.138826
20
208.538122
11
9.205360
21
208.579922
0
LINE
8
Layer 1
10
9.205360
20
208.579922
11
9.619975
21
208.817976
0
LINE
8
Layer 1
10
9.619975
20
208.817976
11
9.832155
21
208.902809
0
LINE
8
Layer 1
10
9.832155
20
208.902809
11
9.810540
21
208.836000
0
LINE
8
Layer 1
10
9.810540
20
208.836000
11
9.810540
21
208.836030
0
LINE
8
Layer 1
10
11.775540
20
209.801359
11
11.400712
21
209.566025
0
LINE
8
Layer 1
10
11.400712
20
209.566025
11
11.045301
21
209.394129
0
LINE
8
Layer 1
10
11.045301
20
209.394129
11
10.986466
21
209.414658
0
LINE
8
Layer 1
10
10.986466
20
209.414658
11
11.021927
21
209.456333
0
LINE
8
Layer 1
10
11.021927
20
209.456333
11
11.751270
21
209.869001
0
LINE
8
Layer 1
10
11.751270
20
209.869001
11
11.795449
21
209.870362
0
LINE
8
Layer 1
10
11.795449
20
209.870362
11
11.775500
21
209.801000
0
LINE
8
Layer 1
10
11.775500
20
209.801000
11
11.775540
21
209.801359
0
LINE
8
Layer 1
10
83.501700
20
146.848000
11
83.653281
21
146.708382
0
LINE
8
Layer 1
10
83.653281
20
146.708382
11
83.546714
21
146.786662
0
LINE
8
Layer 1
10
83.546714
20
146.786662
11
83.040092
21
147.206998
0
LINE
8
Layer 1
10
83.040092
20
147.206998
11
83.501700
21
146.848000
0
LINE
8
Layer 1
10
83.501700
20
146.848000
11
83.501700
21
146.848000
0
LINE
8
Layer 1
10
75.270910
20
154.041090
11
75.529030
21
153.821338
0
LINE
8
Layer 1
10
75.529030
20
153.821338
11
75.496134
21
153.826285
0
LINE
8
Layer 1
10
75.496134
20
153.826285
11
75.235448
21
154.050239
0
LINE
8
Layer 1
10
75.235448
20
154.050239
11
75.270900
21
154.041000
0
LINE
8
Layer 1
10
75.270900
20
154.041000
11
75.270910
21
154.041090
0
LINE
8
Layer 1
10
70.799010
20
157.859980
11
70.939526
21
157.820901
0
LINE
8
Layer 1
10
70.939526
20
157.820901
11
71.554911
21
157.377812
0
LINE
8
Layer 1
10
71.554911
20
157.377812
11
72.421333
21
156.487427
0
LINE
8
Layer 1
10
72.421333
20
156.487427
11
72.439790
21
156.435238
0
LINE
8
Layer 1
10
72.439790
20
156.435238
11
72.237155
21
156.556554
0
LINE
8
Layer 1
10
72.237155
20
156.556554
11
72.087335
21
156.681333
0
LINE
8
Layer 1
10
72.087335
20
156.681333
11
71.192866
21
157.460297
0
LINE
8
Layer 1
10
71.192866
20
157.460297
11
70.799000
21
157.860000
0
LINE
8
Layer 1
10
70.799000
20
157.860000
11
70.799010
21
157.859980
0
LINE
8
Layer 1
10
66.839200
20
161.552610
11
66.981756
21
161.516869
0
LINE
8
Layer 1
10
66.981756
20
161.516869
11
67.825120
21
160.813340
0
LINE
8
Layer 1
10
67.825120
20
160.813340
11
68.536438
21
160.144810
0
LINE
8
Layer 1
10
68.536438
20
160.144810
11
68.569520
21
160.032647
0
LINE
8
Layer 1
10
68.569520
20
160.032647
11
68.456180
21
160.098687
0
LINE
8
Layer 1
10
68.456180
20
160.098687
11
66.893030
21
161.469017
0
LINE
8
Layer 1
10
66.893030
20
161.469017
11
66.839200
21
161.553000
0
LINE
8
Layer 1
10
66.839200
20
161.553000
11
66.839200
21
161.552610
0
LINE
8
Layer 1
10
49.873200
20
31.971610
11
49.837428
21
32.348788
0
LINE
8
Layer 1
10
49.837428
20
32.348788
11
49.824043
21
34.231208
0
LINE
8
Layer 1
10
49.824043
20
34.231208
11
49.914071
21
32.560248
0
LINE
8
Layer 1
10
49.914071
20
32.560248
11
49.873200
21
31.972000
0
LINE
8
Layer 1
10
49.873200
20
31.972000
11
49.873200
21
31.971610
0
LINE
8
Layer 1
10
50.766523
20
62.843310
11
50.708430
21
62.924435
0
LINE
8
Layer 1
10
50.708430
20
62.924435
11
50.720179
21
63.907321
0
LINE
8
Layer 1
10
50.720179
20
63.907321
11
50.772244
21
63.812717
0
LINE
8
Layer 1
10
50.772244
20
63.812717
11
50.766523
21
62.843310
0
LINE
8
Layer 1
10
51.193446
20
78.086710
11
50.868177
21
74.551750
0
LINE
8
Layer 1
10
50.868177
20
74.551750
11
50.789248
21
74.415346
0
LINE
8
Layer 1
10
50.789248
20
74.415346
11
50.683082
21
75.082146
0
LINE
8
Layer 1
10
50.683082
20
75.082146
11
50.680700
21
75.639752
0
LINE
8
Layer 1
10
50.680700
20
75.639752
11
50.735392
21
79.030882
0
LINE
8
Layer 1
10
50.735392
20
79.030882
11
50.750989
21
80.218127
0
LINE
8
Layer 1
10
50.750989
20
80.218127
11
50.871113
21
80.628502
0
LINE
8
Layer 1
10
50.871113
20
80.628502
11
51.030568
21
80.249100
0
LINE
8
Layer 1
10
51.030568
20
80.249100
11
51.191999
21
79.174126
0
LINE
8
Layer 1
10
51.191999
20
79.174126
11
51.193400
21
78.087100
0
LINE
8
Layer 1
10
51.193400
20
78.087100
11
51.193446
21
78.086710
0
LINE
8
Layer 1
10
51.537387
20
89.785510
11
51.388526
21
89.506771
0
LINE
8
Layer 1
10
51.388526
20
89.506771
11
51.333185
21
89.876406
0
LINE
8
Layer 1
10
51.333185
20
89.876406
11
51.386855
21
95.819366
0
LINE
8
Layer 1
10
51.386855
20
95.819366
11
51.449226
21
96.091180
0
LINE
8
Layer 1
10
51.449226
20
96.091180
11
51.593664
21
95.713386
0
LINE
8
Layer 1
10
51.593664
20
95.713386
11
51.634228
21
92.572796
0
LINE
8
Layer 1
10
51.634228
20
92.572796
11
51.537400
21
89.785900
0
LINE
8
Layer 1
10
51.537400
20
89.785900
11
51.537387
21
89.785510
0
LINE
8
Layer 1
10
56.224247
20
224.477510
11
62.892687
21
218.553720
0
LINE
8
Layer 1
10
62.892687
20
218.553720
11
70.531027
21
211.832540
0
LINE
8
Layer 1
10
70.531027
20
211.832540
11
75.838597
21
207.328910
0
LINE
8
Layer 1
10
75.838597
20
207.328910
11
79.137137
21
204.594440
0
LINE
8
Layer 1
10
79.137137
20
204.594440
11
80.242057
21
203.689831
0
LINE
8
Layer 1
10
80.242057
20
203.689831
11
80.795054
21
203.238208
0
LINE
8
Layer 1
10
80.795054
20
203.238208
11
81.071815
21
203.012642
0
LINE
8
Layer 1
10
81.071815
20
203.012642
11
81.076700
21
202.969744
0
LINE
8
Layer 1
10
81.076700
20
202.969744
11
81.045351
21
202.836928
0
LINE
8
Layer 1
10
81.045351
20
202.836928
11
81.019505
21
202.781280
0
LINE
8
Layer 1
10
81.019505
20
202.781280
11
81.049556
21
202.756670
0
LINE
8
Layer 1
10
81.049556
20
202.756670
11
81.101465
21
202.732306
0
LINE
8
Layer 1
10
81.101465
20
202.732306
11
81.126321
21
202.724144
0
LINE
8
Layer 1
10
81.126321
20
202.724144
11
81.115717
21
202.700031
0
LINE
8
Layer 1
10
81.115717
20
202.700031
11
81.104245
21
202.657861
0
LINE
8
Layer 1
10
81.104245
20
202.657861
11
81.101403
21
202.639929
0
LINE
8
Layer 1
10
81.101403
20
202.639929
11
81.079607
21
202.630779
0
LINE
8
Layer 1
10
81.079607
20
202.630779
11
80.876486
21
202.673194
0
LINE
8
Layer 1
10
80.876486
20
202.673194
11
80.871014
21
202.675421
0
LINE
8
Layer 1
10
80.871014
20
202.675421
11
80.853053
21
202.664787
0
LINE
8
Layer 1
10
80.853053
20
202.664787
11
80.748278
21
202.572407
0
LINE
8
Layer 1
10
80.748278
20
202.572407
11
80.539005
21
202.387283
0
LINE
8
Layer 1
10
80.539005
20
202.387283
11
80.122194
21
202.015173
0
LINE
8
Layer 1
10
80.122194
20
202.015173
11
79.298278
21
201.259459
0
LINE
8
Layer 1
10
79.298278
20
201.259459
11
66.249478
21
188.973959
0
LINE
8
Layer 1
10
66.249478
20
188.973959
11
65.359711
21
188.090745
0
LINE
8
Layer 1
10
65.359711
20
188.090745
11
63.317051
21
186.079835
0
LINE
8
Layer 1
10
63.317051
20
186.079835
11
59.549391
21
182.512725
0
LINE
8
Layer 1
10
59.549391
20
182.512725
11
56.795131
21
179.955585
0
LINE
8
Layer 1
10
56.795131
20
179.955585
11
54.186671
21
177.508755
0
LINE
8
Layer 1
10
54.186671
20
177.508755
11
53.817437
21
177.127620
0
LINE
8
Layer 1
10
53.817437
20
177.127620
11
53.270192
21
176.541575
0
LINE
8
Layer 1
10
53.270192
20
176.541575
11
53.427432
21
188.086075
0
LINE
8
Layer 1
10
53.427432
20
188.086075
11
53.637289
21
210.583175
0
LINE
8
Layer 1
10
53.637289
20
210.583175
11
53.673710
21
216.211775
0
LINE
8
Layer 1
10
53.673710
20
216.211775
11
53.799815
21
226.744775
0
LINE
8
Layer 1
10
53.799815
20
226.744775
11
56.224200
21
224.478000
0
LINE
8
Layer 1
10
56.224200
20
224.478000
11
56.224247
21
224.477510
0
LINE
8
Layer 1
10
88.955547
20
256.491510
11
88.902433
21
256.504616
0
LINE
8
Layer 1
10
88.902433
20
256.504616
11
88.206973
21
256.972193
0
LINE
8
Layer 1
10
88.206973
20
256.972193
11
88.185981
21
257.011140
0
LINE
8
Layer 1
10
88.185981
20
257.011140
11
88.256655
21
257.024249
0
LINE
8
Layer 1
10
88.256655
20
257.024249
11
88.634762
21
256.794238
0
LINE
8
Layer 1
10
88.634762
20
256.794238
11
88.947571
21
256.553339
0
LINE
8
Layer 1
10
88.947571
20
256.553339
11
88.955600
21
256.492000
0
LINE
8
Layer 1
10
88.955600
20
256.492000
11
88.955547
21
256.491510
0
LINE
8
Layer 1
10
90.660857
20
255.205890
11
90.566129
21
255.231363
0
LINE
8
Layer 1
10
90.566129
20
255.231363
11
90.498960
21
255.272051
0
LINE
8
Layer 1
10
90.498960
20
255.272051
11
90.100604
21
255.536445
0
LINE
8
Layer 1
10
90.100604
20
255.536445
11
89.929761
21
255.688182
0
LINE
8
Layer 1
10
89.929761
20
255.688182
11
89.999109
21
255.698695
0
LINE
8
Layer 1
10
89.999109
20
255.698695
11
90.280724
21
255.574907
0
LINE
8
Layer 1
10
90.280724
20
255.574907
11
90.655583
21
255.233963
0
LINE
8
Layer 1
10
90.655583
20
255.233963
11
90.660900
21
255.207000
0
LINE
8
Layer 1
10
90.660900
20
255.207000
11
90.660857
21
255.205890
0
LINE
8
Layer 1
10
92.026367
20
254.335537
11
91.909998
21
254.410727
0
LINE
8
Layer 1
10
91.909998
20
254.410727
11
91.927558
21
254.413693
0
LINE
8
Layer 1
10
91.927558
20
254.413693
11
92.042939
21
254.340597
0
LINE
8
Layer 1
10
92.042939
20
254.340597
11
92.026400
21
254.336000
0
LINE
8
Layer 1
10
92.026400
20
254.336000
11
92.026367
21
254.335537
0
LINE
8
Layer 1
10
95.609557
20
251.938297
11
95.382230
21
252.074946
0
LINE
8
Layer 1
10
95.382230
20
252.074946
11
95.591317
21
251.965379
0
LINE
8
Layer 1
10
95.591317
20
251.965379
11
95.658220
21
251.915914
0
LINE
8
Layer 1
10
95.658220
20
251.915914
11
95.609600
21
251.939000
0
LINE
8
Layer 1
10
95.609600
20
251.939000
11
95.609557
21
251.938297
0
LINE
8
Layer 1
10
99.288100
20
249.838000
11
99.301520
21
249.829714
0
LINE
8
Layer 1
10
99.301520
20
249.829714
11
99.337080
21
249.808322
0
LINE
8
Layer 1
10
99.337080
20
249.808322
11
99.290708
21
249.836516
0
LINE
8
Layer 1
10
99.290708
20
249.836516
11
99.288100
21
249.838000
0
LINE
8
Layer 1
10
96.114500
20
251.868000
11
96.189134
21
251.833250
0
LINE
8
Layer 1
10
96.189134
20
251.833250
11
96.128072
21
251.888653
0
LINE
8
Layer 1
10
96.128072
20
251.888653
11
95.359248
21
252.400996
0
LINE
8
Layer 1
10
95.359248
20
252.400996
11
95.075129
21
252.503513
0
LINE
8
Layer 1
10
95.075129
20
252.503513
11
95.812727
21
252.057453
0
LINE
8
Layer 1
10
95.812727
20
252.057453
11
96.114500
21
251.868000
0
LINE
8
Layer 1
10
96.114500
20
251.868000
11
96.114500
21
251.868000
0
LINE
8
Layer 1
10
99.553900
20
249.677000
11
99.463532
21
249.731909
0
LINE
8
Layer 1
10
99.463532
20
249.731909
11
99.337114
21
249.808087
0
LINE
8
Layer 1
10
99.337114
20
249.808087
11
99.449866
21
249.739453
0
LINE
8
Layer 1
10
99.449866
20
249.739453
11
99.553900
21
249.677000
0
LINE
8
Layer 1
10
99.553900
20
249.677000
11
99.553900
21
249.677000
0
LINE
8
Layer 1
10
93.181300
20
253.840000
11
93.136627
21
253.875492
0
LINE
8
Layer 1
10
93.136627
20
253.875492
11
93.086078
21
253.904183
0
LINE
8
Layer 1
10
93.086078
20
253.904183
11
93.144047
21
253.855076
0
LINE
8
Layer 1
10
93.144047
20
253.855076
11
93.181300
21
253.840000
0
LINE
8
Layer 1
10
93.181300
20
253.840000
11
93.181300
21
253.840000
0
LINE
8
Layer 1
10
3.647640
20
205.081000
11
3.583056
21
205.029802
0
LINE
8
Layer 1
10
3.583056
20
205.029802
11
3.660007
21
205.059605
0
LINE
8
Layer 1
10
3.660007
20
205.059605
11
4.462189
21
205.517908
0
LINE
8
Layer 1
10
4.462189
20
205.517908
11
4.681015
21
205.726157
0
LINE
8
Layer 1
10
4.681015
20
205.726157
11
3.951979
21
205.266135
0
LINE
8
Layer 1
10
3.951979
20
205.266135
11
3.647640
21
205.081000
0
LINE
8
Layer 1
10
3.647640
20
205.081000
11
3.647640
21
205.081000
0
LINE
8
Layer 1
10
0.149597
20
202.985000
11
0.239160
21
203.041267
0
LINE
8
Layer 1
10
0.239160
20
203.041267
11
0.362579
21
203.119547
0
LINE
8
Layer 1
10
0.362579
20
203.119547
11
0.251993
21
203.050171
0
LINE
8
Layer 1
10
0.251993
20
203.050171
11
0.149597
21
202.985000
0
LINE
8
Layer 1
10
0.149597
20
202.985000
11
0.149597
21
202.985000
0
LINE
8
Layer 1
10
0.362579
20
203.120000
11
0.409727
21
203.149557
0
LINE
8
Layer 1
10
0.409727
20
203.149557
11
0.413004
21
203.151657
0
LINE
8
Layer 1
10
0.413004
20
203.151657
11
0.398876
21
203.143001
0
LINE
8
Layer 1
10
0.398876
20
203.143001
11
0.362579
21
203.120000
0
LINE
8
Layer 1
10
0.362579
20
203.120000
11
0.362579
21
203.120000
0
LINE
8
Layer 1
10
6.723520
20
206.822000
11
6.775212
21
206.846116
0
LINE
8
Layer 1
10
6.775212
20
206.846116
11
6.823534
21
206.878515
0
LINE
8
Layer 1
10
6.823534
20
206.878515
11
6.753633
21
206.848600
0
LINE
8
Layer 1
10
6.753633
20
206.848600
11
6.723520
21
206.822000
0
LINE
8
Layer 1
10
6.723520
20
206.822000
11
6.723520
21
206.822000
0
LINE
8
Layer 1
10
84.632200
20
146.274000
11
82.905370
21
147.780980
0
LINE
8
Layer 1
10
82.905370
20
147.780980
11
82.290510
21
148.189691
0
LINE
8
Layer 1
10
82.290510
20
148.189691
11
83.935000
21
146.821481
0
LINE
8
Layer 1
10
83.935000
20
146.821481
11
84.609655
21
146.250027
0
LINE
8
Layer 1
10
84.609655
20
146.250027
11
84.773262
21
146.129084
0
LINE
8
Layer 1
10
84.773262
20
146.129084
11
84.632200
21
146.274000
0
LINE
8
Layer 1
10
84.632200
20
146.274000
11
84.632200
21
146.274000
0
LINE
8
Layer 1
10
92.307400
20
139.681000
11
92.105826
21
139.849060
0
LINE
8
Layer 1
10
92.105826
20
139.849060
11
91.802974
21
140.100596
0
LINE
8
Layer 1
10
91.802974
20
140.100596
11
92.075600
21
139.873176
0
LINE
8
Layer 1
10
92.075600
20
139.873176
11
92.287013
21
139.698272
0
LINE
8
Layer 1
10
92.287013
20
139.698272
11
92.307400
21
139.681000
0
LINE
8
Layer 1
10
92.307400
20
139.681000
11
92.307400
21
139.681000
0
LINE
8
Layer 1
10
91.803000
20
140.101000
11
91.720698
21
140.169634
0
LINE
8
Layer 1
10
91.720698
20
140.169634
11
91.719400
21
140.170746
0
LINE
8
Layer 1
10
91.719400
20
140.170746
11
91.744907
21
140.149229
0
LINE
8
Layer 1
10
91.744907
20
140.149229
11
91.803000
21
140.101000
0
LINE
8
Layer 1
10
91.803000
20
140.101000
11
91.803000
21
140.101000
0
LINE
8
Layer 1
10
77.935900
20
152.085000
11
78.016963
21
152.028609
0
LINE
8
Layer 1
10
78.016963
20
152.028609
11
77.915081
21
152.125934
0
LINE
8
Layer 1
10
77.915081
20
152.125934
11
77.802855
21
152.216580
0
LINE
8
Layer 1
10
77.802855
20
152.216580
11
77.935900
21
152.085000
0
LINE
8
Layer 1
10
77.935900
20
152.085000
11
77.935900
21
152.085000
0
LINE
8
Layer 1
10
51.007100
20
31.563000
11
50.995631
21
29.034550
0
LINE
8
Layer 1
10
50.995631
20
29.034550
11
51.050692
21
28.454067
0
LINE
8
Layer 1
10
51.050692
20
28.454067
11
51.136363
21
29.029602
0
LINE
8
Layer 1
10
51.136363
20
29.029602
11
51.304638
21
35.582602
0
LINE
8
Layer 1
10
51.304638
20
35.582602
11
51.272672
21
36.867106
0
LINE
8
Layer 1
10
51.272672
20
36.867106
11
50.955781
21
37.680452
0
LINE
8
Layer 1
10
50.955781
20
37.680452
11
51.007100
21
31.563000
0
LINE
8
Layer 1
10
51.007100
20
31.563000
11
51.007100
21
31.563000
0
LINE
8
Layer 1
10
50.661100
20
1.961080
11
50.659091
21
2.280383
0
LINE
8
Layer 1
10
50.659091
20
2.280383
11
50.658873
21
2.284836
0
LINE
8
Layer 1
10
50.658873
20
2.284836
11
50.658780
21
2.189860
0
LINE
8
Layer 1
10
50.658780
20
2.189860
11
50.661100
21
1.961080
0
LINE
8
Layer 1
10
50.677400
20
0.097703
11
50.672360
21
0.848349
0
LINE
8
Layer 1
10
50.672360
20
0.848349
11
50.661107
21
1.961079
0
LINE
8
Layer 1
10
50.661107
20
1.961079
11
50.667384
21
0.958909
0
LINE
8
Layer 1
10
50.667384
20
0.958909
11
50.676223
21
0.173355
0
LINE
8
Layer 1
10
50.676223
20
0.173355
11
50.678284
21
0.005460
0
LINE
8
Layer 1
10
50.678284
20
0.005460
11
50.677400
21
0.097703
0
LINE
8
Layer 1
10
50.677400
20
0.097703
11
50.677400
21
0.097703
0
LINE
8
Layer 1
10
51.649900
20
54.380600
11
51.688700
21
54.099634
0
LINE
8
Layer 1
10
51.688700
20
54.099634
11
51.718965
21
54.501546
0
LINE
8
Layer 1
10
51.718965
20
54.501546
11
51.701993
21
54.913844
0
LINE
8
Layer 1
10
51.701993
20
54.913844
11
51.649900
21
54.380600
0
LINE
8
Layer 1
10
51.649900
20
54.380600
11
51.649900
21
54.380600
 0 
ENDSEC
 0 
EOF