999
"DXF R12 Output" (www.mydxf.blogspot.com)
 0 
SECTION
 2 
HEADER
 9 
$ACADVER
 1 
AC1009
 9 
$EXTMIN
 10 
 0 
 20 
 0 
 9 
$EXTMAX
 10 
 8.5 
 20 
 11 
 0 
ENDSEC
 0 
SECTION
 2 
ENTITIES
0
LINE
8
Layer 1
10
50.053300
20
14.174600
11
50.050641
21
13.039170
0
LINE
8
Layer 1
10
50.050641
20
13.039170
11
50.061171
21
12.778425
0
LINE
8
Layer 1
10
50.061171
20
12.778425
11
50.077769
21
13.036940
0
LINE
8
Layer 1
10
50.077769
20
13.036940
11
50.112663
21
15.979720
0
LINE
8
Layer 1
10
50.112663
20
15.979720
11
50.044365
21
16.921850
0
LINE
8
Layer 1
10
50.044365
20
16.921850
11
50.053300
21
14.174600
0
LINE
8
Layer 1
10
50.053300
20
14.174600
11
50.053300
21
14.174600
0
LINE
8
Layer 1
10
49.986400
20
0.865044
11
49.986081
21
1.024299
0
LINE
8
Layer 1
10
49.986081
20
1.024299
11
49.985974
21
1.033237
0
LINE
8
Layer 1
10
49.985974
20
1.033237
11
49.986000
21
0.983662
0
LINE
8
Layer 1
10
49.986000
20
0.983662
11
49.986400
21
0.865044
0
LINE
8
Layer 1
10
49.986400
20
0.865044
11
49.986400
21
0.865044
0
LINE
8
Layer 1
10
49.989200
20
0.044082
11
49.988353
21
0.381104
0
LINE
8
Layer 1
10
49.988353
20
0.381104
11
49.986440
21
0.865044
0
LINE
8
Layer 1
10
49.986440
20
0.865044
11
49.987504
21
0.430786
0
LINE
8
Layer 1
10
49.987504
20
0.430786
11
49.989025
21
0.078019
0
LINE
8
Layer 1
10
49.989025
20
0.078019
11
49.989200
21
0.044082
0
LINE
8
Layer 1
10
49.989200
20
0.044082
11
49.989200
21
0.044082
0
LINE
8
Layer 1
10
50.192500
20
24.421700
11
50.199948
21
24.295423
0
LINE
8
Layer 1
10
50.199948
20
24.295423
11
50.207286
21
24.475955
0
LINE
8
Layer 1
10
50.207286
20
24.475955
11
50.205050
21
24.661169
0
LINE
8
Layer 1
10
50.205050
20
24.661169
11
50.192500
21
24.421700
0
LINE
8
Layer 1
10
50.192500
20
24.421700
11
50.192500
21
24.421700
0
LINE
8
Layer 1
10
101.296000
20
133.062000
11
101.279298
21
133.081894
0
LINE
8
Layer 1
10
101.279298
20
133.081894
11
101.245891
21
133.121786
0
LINE
8
Layer 1
10
101.245891
20
133.121786
11
101.178977
21
133.201469
0
LINE
8
Layer 1
10
101.178977
20
133.201469
11
100.911210
21
133.520408
0
LINE
8
Layer 1
10
100.911210
20
133.520408
11
99.839290
21
134.797218
0
LINE
8
Layer 1
10
99.839290
20
134.797218
11
97.667680
21
137.363718
0
LINE
8
Layer 1
10
97.667680
20
137.363718
11
96.903316
21
138.271276
0
LINE
8
Layer 1
10
96.903316
20
138.271276
11
96.353313
21
138.930640
0
LINE
8
Layer 1
10
96.353313
20
138.930640
11
95.254373
21
140.250120
0
LINE
8
Layer 1
10
95.254373
20
140.250120
11
86.807843
21
150.390720
0
LINE
8
Layer 1
10
86.807843
20
150.390720
11
78.242000
21
160.454000
0
LINE
8
Layer 1
10
78.242000
20
160.454000
11
69.651000
21
170.494000
0
LINE
8
Layer 1
10
69.651000
20
170.494000
11
61.038200
21
180.516000
0
LINE
8
Layer 1
10
61.038200
20
180.516000
11
56.507100
21
185.770000
0
LINE
8
Layer 1
10
56.507100
20
185.770000
11
52.195800
21
190.788960
0
LINE
8
Layer 1
10
52.195800
20
190.788960
11
51.118140
21
192.051840
0
LINE
8
Layer 1
10
51.118140
20
192.051840
11
50.848700
21
192.367000
0
LINE
8
Layer 1
10
50.848700
20
192.367000
11
50.714018
21
192.524875
0
LINE
8
Layer 1
10
50.714018
20
192.524875
11
50.646677
21
192.603810
0
LINE
8
Layer 1
10
50.646677
20
192.603810
11
50.613000
21
192.641000
0
LINE
8
Layer 1
10
50.613000
20
192.641000
11
50.579277
21
192.601424
0
LINE
8
Layer 1
10
50.579277
20
192.601424
11
50.040445
21
191.969187
0
LINE
8
Layer 1
10
50.040445
20
191.969187
11
47.885755
21
189.440457
0
LINE
8
Layer 1
10
47.885755
20
189.440457
11
45.490200
21
186.626000
0
LINE
8
Layer 1
10
45.490200
20
186.626000
11
44.309800
21
185.233000
0
LINE
8
Layer 1
10
44.309800
20
185.233000
11
43.717980
21
184.524380
0
LINE
8
Layer 1
10
43.717980
20
184.524380
11
38.286040
21
178.059670
0
LINE
8
Layer 1
10
38.286040
20
178.059670
11
28.365400
21
166.412000
0
LINE
8
Layer 1
10
28.365400
20
166.412000
11
21.149940
21
157.993880
0
LINE
8
Layer 1
10
21.149940
20
157.993880
11
14.319050
21
149.955330
0
LINE
8
Layer 1
10
14.319050
20
149.955330
11
13.342600
21
148.737000
0
LINE
8
Layer 1
10
13.342600
20
148.737000
11
11.565635
21
146.486625
0
LINE
8
Layer 1
10
11.565635
20
146.486625
11
9.707280
21
144.270000
0
LINE
8
Layer 1
10
9.707280
20
144.270000
11
7.687724
21
141.866971
0
LINE
8
Layer 1
10
7.687724
20
141.866971
11
5.729600
21
139.407850
0
LINE
8
Layer 1
10
5.729600
20
139.407850
11
4.998532
21
138.430718
0
LINE
8
Layer 1
10
4.998532
20
138.430718
11
4.626403
21
137.946143
0
LINE
8
Layer 1
10
4.626403
20
137.946143
11
4.438638
21
137.704973
0
LINE
8
Layer 1
10
4.438638
20
137.704973
11
4.344376
21
137.584653
0
LINE
8
Layer 1
10
4.344376
20
137.584653
11
4.185544
21
137.390078
0
LINE
8
Layer 1
10
4.185544
20
137.390078
11
1.317764
21
133.959108
0
LINE
8
Layer 1
10
1.317764
20
133.959108
11
0.592553
21
133.110000
0
LINE
8
Layer 1
10
0.592553
20
133.110000
11
0.546915
21
133.056810
0
LINE
8
Layer 1
10
0.546915
20
133.056810
11
0.589364
21
133.003187
0
LINE
8
Layer 1
10
0.589364
20
133.003187
11
0.674790
21
132.895943
0
LINE
8
Layer 1
10
0.674790
20
132.895943
11
0.845215
21
132.681260
0
LINE
8
Layer 1
10
0.845215
20
132.681260
11
1.185110
21
132.251000
0
LINE
8
Layer 1
10
1.185110
20
132.251000
11
2.539800
21
130.520670
0
LINE
8
Layer 1
10
2.539800
20
130.520670
11
3.970550
21
128.763740
0
LINE
8
Layer 1
10
3.970550
20
128.763740
11
4.328743
21
128.317251
0
LINE
8
Layer 1
10
4.328743
20
128.317251
11
4.521501
21
128.060971
0
LINE
8
Layer 1
10
4.521501
20
128.060971
11
4.880547
21
127.570969
0
LINE
8
Layer 1
10
4.880547
20
127.570969
11
6.183217
21
126.013519
0
LINE
8
Layer 1
10
6.183217
20
126.013519
11
8.991207
21
122.855739
0
LINE
8
Layer 1
10
8.991207
20
122.855739
11
21.979807
21
108.293139
0
LINE
8
Layer 1
10
21.979807
20
108.293139
11
25.858667
21
103.991199
0
LINE
8
Layer 1
10
25.858667
20
103.991199
11
29.732937
21
99.732989
0
LINE
8
Layer 1
10
29.732937
20
99.732989
11
31.677747
21
97.562344
0
LINE
8
Layer 1
10
31.677747
20
97.562344
11
33.447747
21
95.446269
0
LINE
8
Layer 1
10
33.447747
20
95.446269
11
34.864987
21
93.907749
0
LINE
8
Layer 1
10
34.864987
20
93.907749
11
40.849907
21
87.373039
0
LINE
8
Layer 1
10
40.849907
20
87.373039
11
47.574627
21
79.834489
0
LINE
8
Layer 1
10
47.574627
20
79.834489
11
34.623627
21
64.111689
0
LINE
8
Layer 1
10
34.623627
20
64.111689
11
23.840527
21
51.091989
0
LINE
8
Layer 1
10
23.840527
20
51.091989
11
8.484727
21
32.333189
0
LINE
8
Layer 1
10
8.484727
20
32.333189
11
1.654477
21
23.886869
0
LINE
8
Layer 1
10
1.654477
20
23.886869
11
0.000468
21
21.898375
0
LINE
8
Layer 1
10
0.000468
20
21.898375
11
2.336077
21
24.533575
0
LINE
8
Layer 1
10
2.336077
20
24.533575
11
7.928337
21
30.718605
0
LINE
8
Layer 1
10
7.928337
20
30.718605
11
22.410137
21
46.665305
0
LINE
8
Layer 1
10
22.410137
20
46.665305
11
40.151037
21
66.087505
0
LINE
8
Layer 1
10
40.151037
20
66.087505
11
48.031817
21
74.645745
0
LINE
8
Layer 1
10
48.031817
20
74.645745
11
48.090861
21
71.982965
0
LINE
8
Layer 1
10
48.090861
20
71.982965
11
48.130541
21
71.304345
0
LINE
8
Layer 1
10
48.130541
20
71.304345
11
48.253734
21
68.800075
0
LINE
8
Layer 1
10
48.253734
20
68.800075
11
48.374906
21
66.068355
0
LINE
8
Layer 1
10
48.374906
20
66.068355
11
48.503586
21
63.947996
0
LINE
8
Layer 1
10
48.503586
20
63.947996
11
48.450649
21
61.824395
0
LINE
8
Layer 1
10
48.450649
20
61.824395
11
48.451608
21
60.941305
0
LINE
8
Layer 1
10
48.451608
20
60.941305
11
48.511183
21
59.103425
0
LINE
8
Layer 1
10
48.511183
20
59.103425
11
48.776822
21
50.616575
0
LINE
8
Layer 1
10
48.776822
20
50.616575
11
48.861928
21
48.097625
0
LINE
8
Layer 1
10
48.861928
20
48.097625
11
48.953738
21
45.594425
0
LINE
8
Layer 1
10
48.953738
20
45.594425
11
48.987568
21
43.126955
0
LINE
8
Layer 1
10
48.987568
20
43.126955
11
49.024164
21
42.217591
0
LINE
8
Layer 1
10
49.024164
20
42.217591
11
49.163525
21
38.364911
0
LINE
8
Layer 1
10
49.163525
20
38.364911
11
49.293528
21
32.859891
0
LINE
8
Layer 1
10
49.293528
20
32.859891
11
49.353314
21
30.574031
0
LINE
8
Layer 1
10
49.353314
20
30.574031
11
49.442358
21
27.435401
0
LINE
8
Layer 1
10
49.442358
20
27.435401
11
49.461614
21
26.752424
0
LINE
8
Layer 1
10
49.461614
20
26.752424
11
49.548103
21
24.024744
0
LINE
8
Layer 1
10
49.548103
20
24.024744
11
49.628537
21
21.315154
0
LINE
8
Layer 1
10
49.628537
20
21.315154
11
49.677581
21
18.585134
0
LINE
8
Layer 1
10
49.677581
20
18.585134
11
49.706303
21
17.453854
0
LINE
8
Layer 1
10
49.706303
20
17.453854
11
49.801412
21
13.387664
0
LINE
8
Layer 1
10
49.801412
20
13.387664
11
49.847580
21
10.878714
0
LINE
8
Layer 1
10
49.847580
20
10.878714
11
49.893537
21
8.155614
0
LINE
8
Layer 1
10
49.893537
20
8.155614
11
49.946412
21
4.291124
0
LINE
8
Layer 1
10
49.946412
20
4.291124
11
49.953114
21
3.920696
0
LINE
8
Layer 1
10
49.953114
20
3.920696
11
49.969176
21
3.374416
0
LINE
8
Layer 1
10
49.969176
20
3.374416
11
49.980772
21
1.580256
0
LINE
8
Layer 1
10
49.980772
20
1.580256
11
49.986092
21
1.033234
0
LINE
8
Layer 1
10
49.986092
20
1.033234
11
49.986411
21
1.958025
0
LINE
8
Layer 1
10
49.986411
20
1.958025
11
49.985135
21
5.563255
0
LINE
8
Layer 1
10
49.985135
20
5.563255
11
49.980987
21
8.072415
0
LINE
8
Layer 1
10
49.980987
20
8.072415
11
49.977899
21
10.093275
0
LINE
8
Layer 1
10
49.977899
20
10.093275
11
49.959922
21
14.084255
0
LINE
8
Layer 1
10
49.959922
20
14.084255
11
49.973539
21
15.090115
0
LINE
8
Layer 1
10
49.973539
20
15.090115
11
49.987794
21
15.870120
0
LINE
8
Layer 1
10
49.987794
20
15.870120
11
49.983326
21
17.191830
0
LINE
8
Layer 1
10
49.983326
20
17.191830
11
49.992795
21
19.449610
0
LINE
8
Layer 1
10
49.992795
20
19.449610
11
50.001199
21
20.102590
0
LINE
8
Layer 1
10
50.001199
20
20.102590
11
50.118008
21
19.035790
0
LINE
8
Layer 1
10
50.118008
20
19.035790
11
50.146626
21
20.505480
0
LINE
8
Layer 1
10
50.146626
20
20.505480
11
50.176200
21
22.216870
0
LINE
8
Layer 1
10
50.176200
20
22.216870
11
50.108647
21
22.180381
0
LINE
8
Layer 1
10
50.108647
20
22.180381
11
50.093125
21
22.771128
0
LINE
8
Layer 1
10
50.093125
20
22.771128
11
50.119188
21
24.340818
0
LINE
8
Layer 1
10
50.119188
20
24.340818
11
50.163869
21
27.025938
0
LINE
8
Layer 1
10
50.163869
20
27.025938
11
50.154082
21
27.913707
0
LINE
8
Layer 1
10
50.154082
20
27.913707
11
50.263976
21
31.864467
0
LINE
8
Layer 1
10
50.263976
20
31.864467
11
50.334935
21
34.234377
0
LINE
8
Layer 1
10
50.334935
20
34.234377
11
50.365573
21
35.784387
0
LINE
8
Layer 1
10
50.365573
20
35.784387
11
50.363657
21
37.320037
0
LINE
8
Layer 1
10
50.363657
20
37.320037
11
50.308446
21
38.505687
0
LINE
8
Layer 1
10
50.308446
20
38.505687
11
50.370574
21
39.355051
0
LINE
8
Layer 1
10
50.370574
20
39.355051
11
50.429403
21
40.418142
0
LINE
8
Layer 1
10
50.429403
20
40.418142
11
50.565787
21
43.281241
0
LINE
8
Layer 1
10
50.565787
20
43.281241
11
50.608660
21
44.604011
0
LINE
8
Layer 1
10
50.608660
20
44.604011
11
50.615043
21
46.858281
0
LINE
8
Layer 1
10
50.615043
20
46.858281
11
50.722383
21
49.057121
0
LINE
8
Layer 1
10
50.722383
20
49.057121
11
50.749299
21
49.735636
0
LINE
8
Layer 1
10
50.749299
20
49.735636
11
50.873759
21
54.738006
0
LINE
8
Layer 1
10
50.873759
20
54.738006
11
50.982908
21
59.772076
0
LINE
8
Layer 1
10
50.982908
20
59.772076
11
51.025354
21
60.435910
0
LINE
8
Layer 1
10
51.025354
20
60.435910
11
51.181739
21
64.779550
0
LINE
8
Layer 1
10
51.181739
20
64.779550
11
51.195994
21
65.697429
0
LINE
8
Layer 1
10
51.195994
20
65.697429
11
51.596749
21
74.838649
0
LINE
8
Layer 1
10
51.596749
20
74.838649
11
51.617281
21
75.305884
0
LINE
8
Layer 1
10
51.617281
20
75.305884
11
52.802931
21
74.029704
0
LINE
8
Layer 1
10
52.802931
20
74.029704
11
57.661461
21
68.691594
0
LINE
8
Layer 1
10
57.661461
20
68.691594
11
58.719761
21
67.530734
0
LINE
8
Layer 1
10
58.719761
20
67.530734
11
62.974141
21
62.918584
0
LINE
8
Layer 1
10
62.974141
20
62.918584
11
67.196611
21
58.334094
0
LINE
8
Layer 1
10
67.196611
20
58.334094
11
71.380041
21
53.654174
0
LINE
8
Layer 1
10
71.380041
20
53.654174
11
73.137181
21
51.735224
0
LINE
8
Layer 1
10
73.137181
20
51.735224
11
79.442101
21
44.828174
0
LINE
8
Layer 1
10
79.442101
20
44.828174
11
83.309141
21
40.546444
0
LINE
8
Layer 1
10
83.309141
20
40.546444
11
87.501081
21
35.894504
0
LINE
8
Layer 1
10
87.501081
20
35.894504
11
93.427181
21
29.273414
0
LINE
8
Layer 1
10
93.427181
20
29.273414
11
94.000696
21
28.643517
0
LINE
8
Layer 1
10
94.000696
20
28.643517
11
94.866446
21
27.731596
0
LINE
8
Layer 1
10
94.866446
20
27.731596
11
97.586036
21
24.630516
0
LINE
8
Layer 1
10
97.586036
20
24.630516
11
98.432104
21
23.678172
0
LINE
8
Layer 1
10
98.432104
20
23.678172
11
97.038904
21
25.305202
0
LINE
8
Layer 1
10
97.038904
20
25.305202
11
91.640264
21
31.593642
0
LINE
8
Layer 1
10
91.640264
20
31.593642
11
87.873654
21
35.962172
0
LINE
8
Layer 1
10
87.873654
20
35.962172
11
84.841404
21
39.481662
0
LINE
8
Layer 1
10
84.841404
20
39.481662
11
81.862840
21
42.999991
0
LINE
8
Layer 1
10
81.862840
20
42.999991
11
78.822754
21
46.406382
0
LINE
8
Layer 1
10
78.822754
20
46.406382
11
77.353704
21
48.192882
0
LINE
8
Layer 1
10
77.353704
20
48.192882
11
76.223914
21
49.586082
0
LINE
8
Layer 1
10
76.223914
20
49.586082
11
74.234434
21
51.882692
0
LINE
8
Layer 1
10
74.234434
20
51.882692
11
70.879414
21
55.842922
0
LINE
8
Layer 1
10
70.879414
20
55.842922
11
69.922921
21
57.000162
0
LINE
8
Layer 1
10
69.922921
20
57.000162
11
70.844092
21
56.237671
0
LINE
8
Layer 1
10
70.844092
20
56.237671
11
71.812501
21
55.389732
0
LINE
8
Layer 1
10
71.812501
20
55.389732
11
69.678661
21
58.010602
0
LINE
8
Layer 1
10
69.678661
20
58.010602
11
67.182161
21
61.052422
0
LINE
8
Layer 1
10
67.182161
20
61.052422
11
67.180676
21
60.882382
0
LINE
8
Layer 1
10
67.180676
20
60.882382
11
67.073223
21
60.848697
0
LINE
8
Layer 1
10
67.073223
20
60.848697
11
66.150027
21
61.845830
0
LINE
8
Layer 1
10
66.150027
20
61.845830
11
63.858737
21
64.634670
0
LINE
8
Layer 1
10
63.858737
20
64.634670
11
59.935627
21
69.401820
0
LINE
8
Layer 1
10
59.935627
20
69.401820
11
58.581157
21
70.928640
0
LINE
8
Layer 1
10
58.581157
20
70.928640
11
55.608391
21
74.492038
0
LINE
8
Layer 1
10
55.608391
20
74.492038
11
52.896767
21
78.018250
0
LINE
8
Layer 1
10
52.896767
20
78.018250
11
52.127828
21
79.093890
0
LINE
8
Layer 1
10
52.127828
20
79.093890
11
60.483718
21
88.168190
0
LINE
8
Layer 1
10
60.483718
20
88.168190
11
74.401118
21
103.287190
0
LINE
8
Layer 1
10
74.401118
20
103.287190
11
82.957438
21
112.606600
0
LINE
8
Layer 1
10
82.957438
20
112.606600
11
94.335200
21
125.063000
0
LINE
8
Layer 1
10
94.335200
20
125.063000
11
96.638510
21
127.608230
0
LINE
8
Layer 1
10
96.638510
20
127.608230
11
97.362875
21
128.417487
0
LINE
8
Layer 1
10
97.362875
20
128.417487
11
98.486605
21
129.687487
0
LINE
8
Layer 1
10
98.486605
20
129.687487
11
100.638845
21
132.241117
0
LINE
8
Layer 1
10
100.638845
20
132.241117
11
101.165446
21
132.881654
0
LINE
8
Layer 1
10
101.165446
20
132.881654
11
101.297148
21
133.041866
0
LINE
8
Layer 1
10
101.297148
20
133.041866
11
101.296000
21
133.062000
0
LINE
8
Layer 1
10
101.296000
20
133.062000
11
101.296000
21
133.062000
0
LINE
8
Layer 1
10
77.703100
20
47.076800
11
78.077250
21
46.597119
0
LINE
8
Layer 1
10
78.077250
20
46.597119
11
77.805752
21
46.877224
0
LINE
8
Layer 1
10
77.805752
20
46.877224
11
76.535432
21
48.348084
0
LINE
8
Layer 1
10
76.535432
20
48.348084
11
77.703100
21
47.076800
0
LINE
8
Layer 1
10
77.703100
20
47.076800
11
77.703100
21
47.076800
0
LINE
8
Layer 1
10
57.144300
20
71.949500
11
57.792067
21
71.186516
0
LINE
8
Layer 1
10
57.792067
20
71.186516
11
57.704835
21
71.222155
0
LINE
8
Layer 1
10
57.704835
20
71.222155
11
57.051107
21
71.998330
0
LINE
8
Layer 1
10
57.051107
20
71.998330
11
57.144200
21
71.949400
0
LINE
8
Layer 1
10
57.144200
20
71.949400
11
57.144300
21
71.949500
0
LINE
8
Layer 1
10
40.331300
20
92.475000
11
40.044492
21
92.731703
0
LINE
8
Layer 1
10
40.044492
20
92.731703
11
36.109262
21
97.439493
0
LINE
8
Layer 1
10
36.109262
20
97.439493
11
35.974154
21
97.693323
0
LINE
8
Layer 1
10
35.974154
20
97.693323
11
36.334583
21
97.488534
0
LINE
8
Layer 1
10
36.334583
20
97.488534
11
38.461503
21
95.041284
0
LINE
8
Layer 1
10
38.461503
20
95.041284
11
40.251833
21
92.785954
0
LINE
8
Layer 1
10
40.251833
20
92.785954
11
40.331300
21
92.475000
0
LINE
8
Layer 1
10
40.331300
20
92.475000
11
40.331300
21
92.475000
0
LINE
8
Layer 1
10
43.013440
20
89.654880
11
41.864710
21
91.242010
0
LINE
8
Layer 1
10
41.864710
20
91.242010
11
40.385980
21
93.193400
0
LINE
8
Layer 1
10
40.385980
20
93.193400
11
38.295641
21
95.741861
0
LINE
8
Layer 1
10
38.295641
20
95.741861
11
36.348300
21
98.401190
0
LINE
8
Layer 1
10
36.348300
20
98.401190
11
34.439250
21
100.770140
0
LINE
8
Layer 1
10
34.439250
20
100.770140
11
32.744799
21
102.722915
0
LINE
8
Layer 1
10
32.744799
20
102.722915
11
31.052740
21
104.692610
0
LINE
8
Layer 1
10
31.052740
20
104.692610
11
29.414940
21
106.674711
0
LINE
8
Layer 1
10
29.414940
20
106.674711
11
27.940700
21
108.682740
0
LINE
8
Layer 1
10
27.940700
20
108.682740
11
26.966972
21
109.902430
0
LINE
8
Layer 1
10
26.966972
20
109.902430
11
23.265734
21
114.319179
0
LINE
8
Layer 1
10
23.265734
20
114.319179
11
19.638800
21
118.767000
0
LINE
8
Layer 1
10
19.638800
20
118.767000
11
15.984771
21
123.240146
0
LINE
8
Layer 1
10
15.984771
20
123.240146
11
12.219510
21
127.649370
0
LINE
8
Layer 1
10
12.219510
20
127.649370
11
11.287590
21
128.860550
0
LINE
8
Layer 1
10
11.287590
20
128.860550
11
9.746200
21
130.807900
0
LINE
8
Layer 1
10
9.746200
20
130.807900
11
8.969494
21
131.779715
0
LINE
8
Layer 1
10
8.969494
20
131.779715
11
8.774493
21
132.022482
0
LINE
8
Layer 1
10
8.774493
20
132.022482
11
8.719917
21
132.087695
0
LINE
8
Layer 1
10
8.719917
20
132.087695
11
8.683640
21
132.128970
0
LINE
8
Layer 1
10
8.683640
20
132.128970
11
8.539385
21
132.291530
0
LINE
8
Layer 1
10
8.539385
20
132.291530
11
8.266936
21
132.614299
0
LINE
8
Layer 1
10
8.266936
20
132.614299
11
8.141404
21
132.778448
0
LINE
8
Layer 1
10
8.141404
20
132.778448
11
8.078107
21
132.859937
0
LINE
8
Layer 1
10
8.078107
20
132.859937
11
8.046298
21
132.900469
0
LINE
8
Layer 1
10
8.046298
20
132.900469
11
8.038960
21
132.940791
0
LINE
8
Layer 1
10
8.038960
20
132.940791
11
8.600864
21
133.580794
0
LINE
8
Layer 1
10
8.600864
20
133.580794
11
8.712342
21
133.718880
0
LINE
8
Layer 1
10
8.712342
20
133.718880
11
8.834897
21
133.863773
0
LINE
8
Layer 1
10
8.834897
20
133.863773
11
9.007450
21
134.064413
0
LINE
8
Layer 1
10
9.007450
20
134.064413
11
9.704047
21
134.853565
0
LINE
8
Layer 1
10
9.704047
20
134.853565
11
23.858400
21
150.396000
0
LINE
8
Layer 1
10
23.858400
20
150.396000
11
38.666900
21
166.853000
0
LINE
8
Layer 1
10
38.666900
20
166.853000
11
46.379390
21
175.533260
0
LINE
8
Layer 1
10
46.379390
20
175.533260
11
47.780140
21
177.118590
0
LINE
8
Layer 1
10
47.780140
20
177.118590
11
47.648342
21
174.300490
0
LINE
8
Layer 1
10
47.648342
20
174.300490
11
47.268872
21
162.861190
0
LINE
8
Layer 1
10
47.268872
20
162.861190
11
46.875359
21
149.809390
0
LINE
8
Layer 1
10
46.875359
20
149.809390
11
46.709412
21
140.874030
0
LINE
8
Layer 1
10
46.709412
20
140.874030
11
46.647814
21
135.372620
0
LINE
8
Layer 1
10
46.647814
20
135.372620
11
46.618666
21
128.035980
0
LINE
8
Layer 1
10
46.618666
20
128.035980
11
46.688347
21
122.061370
0
LINE
8
Layer 1
10
46.688347
20
122.061370
11
46.751000
21
116.321230
0
LINE
8
Layer 1
10
46.751000
20
116.321230
11
47.412066
21
93.328430
0
LINE
8
Layer 1
10
47.412066
20
93.328430
11
47.485577
21
91.722570
0
LINE
8
Layer 1
10
47.485577
20
91.722570
11
47.643983
21
88.049680
0
LINE
8
Layer 1
10
47.643983
20
88.049680
11
47.758345
21
84.305510
0
LINE
8
Layer 1
10
47.758345
20
84.305510
11
47.224195
21
85.024344
0
LINE
8
Layer 1
10
47.224195
20
85.024344
11
44.911205
21
87.691274
0
LINE
8
Layer 1
10
44.911205
20
87.691274
11
43.013400
21
89.654800
0
LINE
8
Layer 1
10
43.013400
20
89.654800
11
43.013440
21
89.654880
0
LINE
8
Layer 1
10
45.918350
20
85.191880
11
46.279416
21
84.985601
0
LINE
8
Layer 1
10
46.279416
20
84.985601
11
47.784526
21
83.448901
0
LINE
8
Layer 1
10
47.784526
20
83.448901
11
47.802930
21
82.845812
0
LINE
8
Layer 1
10
47.802930
20
82.845812
11
46.900799
21
83.861562
0
LINE
8
Layer 1
10
46.900799
20
83.861562
11
46.113562
21
84.801158
0
LINE
8
Layer 1
10
46.113562
20
84.801158
11
45.918300
21
85.191800
0
LINE
8
Layer 1
10
45.918300
20
85.191800
11
45.918350
21
85.191880
0
LINE
8
Layer 1
10
49.832520
20
14.358380
11
49.825394
21
14.527741
0
LINE
8
Layer 1
10
49.825394
20
14.527741
11
49.821883
21
15.373171
0
LINE
8
Layer 1
10
49.821883
20
15.373171
11
49.840180
21
14.622743
0
LINE
8
Layer 1
10
49.840180
20
14.622743
11
49.832500
21
14.358300
0
LINE
8
Layer 1
10
49.832500
20
14.358300
11
49.832520
21
14.358380
0
LINE
8
Layer 1
10
50.011138
20
28.222380
11
49.996883
21
28.258764
0
LINE
8
Layer 1
10
49.996883
20
28.258764
11
49.999968
21
28.700255
0
LINE
8
Layer 1
10
49.999968
20
28.700255
11
50.012950
21
28.657702
0
LINE
8
Layer 1
10
50.012950
20
28.657702
11
50.011138
21
28.222380
0
LINE
8
Layer 1
10
50.147310
20
35.067960
11
50.044968
21
33.480400
0
LINE
8
Layer 1
10
50.044968
20
33.480400
11
50.021775
21
33.419231
0
LINE
8
Layer 1
10
50.021775
20
33.419231
11
49.990818
21
33.718592
0
LINE
8
Layer 1
10
49.990818
20
33.718592
11
49.990180
21
33.969019
0
LINE
8
Layer 1
10
49.990180
20
33.969019
11
50.007097
21
35.491889
0
LINE
8
Layer 1
10
50.007097
20
35.491889
11
50.050392
21
36.209447
0
LINE
8
Layer 1
10
50.050392
20
36.209447
11
50.100394
21
36.039019
0
LINE
8
Layer 1
10
50.100394
20
36.039019
11
50.147300
21
35.067900
0
LINE
8
Layer 1
10
50.147300
20
35.067900
11
50.147310
21
35.067960
0
LINE
8
Layer 1
10
50.336777
20
41.573420
11
50.292203
21
40.321710
0
LINE
8
Layer 1
10
50.292203
20
40.321710
11
50.238905
21
40.196497
0
LINE
8
Layer 1
10
50.238905
20
40.196497
11
50.220502
21
40.362444
0
LINE
8
Layer 1
10
50.220502
20
40.362444
11
50.255926
21
43.031394
0
LINE
8
Layer 1
10
50.255926
20
43.031394
11
50.280183
21
43.153418
0
LINE
8
Layer 1
10
50.280183
20
43.153418
11
50.333266
21
42.983842
0
LINE
8
Layer 1
10
50.333266
20
42.983842
11
50.336700
21
41.573300
0
LINE
8
Layer 1
10
50.336700
20
41.573300
11
50.336777
21
41.573420
0
LINE
8
Layer 1
10
91.470077
20
132.926620
11
91.361032
21
132.798209
0
LINE
8
Layer 1
10
91.361032
20
132.798209
11
90.423900
21
131.687249
0
LINE
8
Layer 1
10
90.423900
20
131.687249
11
86.677100
21
127.242000
0
LINE
8
Layer 1
10
86.677100
20
127.242000
11
68.823300
21
105.697100
0
LINE
8
Layer 1
10
68.823300
20
105.697100
11
52.052200
21
85.271300
0
LINE
8
Layer 1
10
52.052200
20
85.271300
11
52.435285
21
94.569750
0
LINE
8
Layer 1
10
52.435285
20
94.569750
11
52.531562
21
97.097420
0
LINE
8
Layer 1
10
52.531562
20
97.097420
11
53.026991
21
109.274120
0
LINE
8
Layer 1
10
53.026991
20
109.274120
11
53.542630
21
129.505520
0
LINE
8
Layer 1
10
53.542630
20
129.505520
11
53.587100
21
141.674120
0
LINE
8
Layer 1
10
53.587100
20
141.674120
11
53.484013
21
153.374320
0
LINE
8
Layer 1
10
53.484013
20
153.374320
11
53.436461
21
165.087120
0
LINE
8
Layer 1
10
53.436461
20
165.087120
11
53.577008
21
172.438970
0
LINE
8
Layer 1
10
53.577008
20
172.438970
11
53.712966
21
176.488570
0
LINE
8
Layer 1
10
53.712966
20
176.488570
11
61.837460
21
166.880878
0
LINE
8
Layer 1
10
61.837460
20
166.880878
11
70.073666
21
157.352970
0
LINE
8
Layer 1
10
70.073666
20
157.352970
11
85.379166
21
139.843770
0
LINE
8
Layer 1
10
85.379166
20
139.843770
11
89.220900
21
135.480000
0
LINE
8
Layer 1
10
89.220900
20
135.480000
11
91.144950
21
133.300840
0
LINE
8
Layer 1
10
91.144950
20
133.300840
11
91.385482
21
133.028496
0
LINE
8
Layer 1
10
91.385482
20
133.028496
11
91.478463
21
132.923284
0
LINE
8
Layer 1
10
91.478463
20
132.923284
11
91.476866
21
132.924029
0
LINE
8
Layer 1
10
91.476866
20
132.924029
11
91.470077
21
132.926620
0
LINE
8
Layer 1
10
91.516672
20
132.906300
11
91.496352
21
132.915331
0
LINE
8
Layer 1
10
91.496352
20
132.915331
11
91.501246
21
132.915227
0
LINE
8
Layer 1
10
91.501246
20
132.915227
11
91.521035
21
132.909481
0
LINE
8
Layer 1
10
91.521035
20
132.909481
11
91.527204
21
132.903204
0
LINE
8
Layer 1
10
91.527204
20
132.903204
11
91.529759
21
132.900119
0
LINE
8
Layer 1
10
91.529759
20
132.900119
11
91.516672
21
132.906300
0
LINE
8
Layer 1
10
74.794800
20
51.545700
11
78.934500
21
46.775890
0
LINE
8
Layer 1
10
78.934500
20
46.775890
11
80.628550
21
44.790240
0
LINE
8
Layer 1
10
80.628550
20
44.790240
11
81.047367
21
44.359812
0
LINE
8
Layer 1
10
81.047367
20
44.359812
11
80.704597
21
44.848646
0
LINE
8
Layer 1
10
80.704597
20
44.848646
11
76.383297
21
50.054736
0
LINE
8
Layer 1
10
76.383297
20
50.054736
11
75.502762
21
51.046692
0
LINE
8
Layer 1
10
75.502762
20
51.046692
11
74.794800
21
51.545700
0
LINE
8
Layer 1
10
74.794800
20
51.545700
11
74.794800
21
51.545700
0
LINE
8
Layer 1
10
98.646300
20
23.430700
11
98.434916
21
23.674957
0
LINE
8
Layer 1
10
98.434916
20
23.674957
11
98.431936
21
23.678149
0
LINE
8
Layer 1
10
98.431936
20
23.678149
11
98.495554
21
23.603891
0
LINE
8
Layer 1
10
98.495554
20
23.603891
11
98.646300
21
23.430700
0
LINE
8
Layer 1
10
98.646300
20
23.430700
11
98.646300
21
23.430700
0
LINE
8
Layer 1
10
99.912200
20
21.973200
11
99.404858
21
22.558946
0
LINE
8
Layer 1
10
99.404858
20
22.558946
11
98.646344
21
23.430654
0
LINE
8
Layer 1
10
98.646344
20
23.430654
11
99.327730
21
22.643097
0
LINE
8
Layer 1
10
99.327730
20
22.643097
11
99.860591
21
22.031887
0
LINE
8
Layer 1
10
99.860591
20
22.031887
11
99.974618
21
21.901317
0
LINE
8
Layer 1
10
99.974618
20
21.901317
11
99.912200
21
21.973200
0
LINE
8
Layer 1
10
99.912200
20
21.973200
11
99.912200
21
21.973200
0
LINE
8
Layer 1
10
63.911600
20
64.924700
11
64.118836
21
64.720126
0
LINE
8
Layer 1
10
64.118836
20
64.720126
11
63.865118
21
65.049276
0
LINE
8
Layer 1
10
63.865118
20
65.049276
11
63.581395
21
65.366829
0
LINE
8
Layer 1
10
63.581395
20
65.366829
11
63.911600
21
64.924700
0
LINE
8
Layer 1
10
63.911600
20
64.924700
11
63.911600
21
64.924700
 0 
ENDSEC
 0 
EOF