999
"DXF R12 Output" (www.mydxf.blogspot.com)
 0 
SECTION
 2 
HEADER
 9 
$ACADVER
 1 
AC1009
 9 
$EXTMIN
 10 
 0 
 20 
 0 
 9 
$EXTMAX
 10 
 8.5 
 20 
 11 
 0 
ENDSEC
 0 
SECTION
 2 
ENTITIES
0
LINE
8
Layer 1
10
103.073000
20
152.861000
11
103.022378
21
155.431480
0
LINE
8
Layer 1
10
103.022378
20
155.431480
11
102.962169
21
158.370500
0
LINE
8
Layer 1
10
102.962169
20
158.370500
11
102.935309
21
159.880700
0
LINE
8
Layer 1
10
102.935309
20
159.880700
11
102.913643
21
162.845190
0
LINE
8
Layer 1
10
102.913643
20
162.845190
11
102.886886
21
168.195440
0
LINE
8
Layer 1
10
102.886886
20
168.195440
11
102.898567
21
173.591620
0
LINE
8
Layer 1
10
102.898567
20
173.591620
11
102.908052
21
176.289810
0
LINE
8
Layer 1
10
102.908052
20
176.289810
11
102.913132
21
177.638360
0
LINE
8
Layer 1
10
102.913132
20
177.638360
11
102.915729
21
178.312532
0
LINE
8
Layer 1
10
102.915729
20
178.312532
11
102.895360
21
178.347888
0
LINE
8
Layer 1
10
102.895360
20
178.347888
11
102.834254
21
178.286872
0
LINE
8
Layer 1
10
102.834254
20
178.286872
11
102.712000
21
178.166000
0
LINE
8
Layer 1
10
102.712000
20
178.166000
11
102.468073
21
177.922770
0
LINE
8
Layer 1
10
102.468073
20
177.922770
11
98.569800
21
174.038000
0
LINE
8
Layer 1
10
98.569800
20
174.038000
11
97.159250
21
172.634840
0
LINE
8
Layer 1
10
97.159250
20
172.634840
11
96.454226
21
171.934407
0
LINE
8
Layer 1
10
96.454226
20
171.934407
11
96.101663
21
171.584452
0
LINE
8
Layer 1
10
96.101663
20
171.584452
11
95.758885
21
171.254055
0
LINE
8
Layer 1
10
95.758885
20
171.254055
11
93.016255
21
168.616775
0
LINE
8
Layer 1
10
93.016255
20
168.616775
11
88.598800
21
164.361000
0
LINE
8
Layer 1
10
88.598800
20
164.361000
11
83.348700
21
159.224020
0
LINE
8
Layer 1
10
83.348700
20
159.224020
11
82.602736
21
158.432427
0
LINE
8
Layer 1
10
82.602736
20
158.432427
11
81.247227
21
156.964127
0
LINE
8
Layer 1
10
81.247227
20
156.964127
11
79.820876
21
155.541727
0
LINE
8
Layer 1
10
79.820876
20
155.541727
11
78.270362
21
154.000961
0
LINE
8
Layer 1
10
78.270362
20
154.000961
11
76.775416
21
152.399917
0
LINE
8
Layer 1
10
76.775416
20
152.399917
11
74.466440
21
149.901756
0
LINE
8
Layer 1
10
74.466440
20
149.901756
11
71.890400
21
147.680000
0
LINE
8
Layer 1
10
71.890400
20
147.680000
11
70.852670
21
146.719663
0
LINE
8
Layer 1
10
70.852670
20
146.719663
11
68.780310
21
144.630343
0
LINE
8
Layer 1
10
68.780310
20
144.630343
11
59.231050
21
134.961273
0
LINE
8
Layer 1
10
59.231050
20
134.961273
11
56.418030
21
132.069173
0
LINE
8
Layer 1
10
56.418030
20
132.069173
11
53.640260
21
129.176683
0
LINE
8
Layer 1
10
53.640260
20
129.176683
11
52.218520
21
127.727993
0
LINE
8
Layer 1
10
52.218520
20
127.727993
11
51.848784
21
127.393602
0
LINE
8
Layer 1
10
51.848784
20
127.393602
11
51.279751
21
126.866205
0
LINE
8
Layer 1
10
51.279751
20
126.866205
11
51.023141
21
127.155965
0
LINE
8
Layer 1
10
51.023141
20
127.155965
11
45.526711
21
132.756635
0
LINE
8
Layer 1
10
45.526711
20
132.756635
11
44.335921
21
133.909475
0
LINE
8
Layer 1
10
44.335921
20
133.909475
11
32.805621
21
145.734575
0
LINE
8
Layer 1
10
32.805621
20
145.734575
11
20.570800
21
158.096000
0
LINE
8
Layer 1
10
20.570800
20
158.096000
11
14.103100
21
164.528000
0
LINE
8
Layer 1
10
14.103100
20
164.528000
11
13.204271
21
165.413649
0
LINE
8
Layer 1
10
13.204271
20
165.413649
11
11.633961
21
166.942219
0
LINE
8
Layer 1
10
11.633961
20
166.942219
11
8.474110
21
170.017000
0
LINE
8
Layer 1
10
8.474110
20
170.017000
11
6.883540
21
171.566140
0
LINE
8
Layer 1
10
6.883540
20
171.566140
11
5.271390
21
173.155420
0
LINE
8
Layer 1
10
5.271390
20
173.155420
11
2.027130
21
176.355000
0
LINE
8
Layer 1
10
2.027130
20
176.355000
11
0.398108
21
177.953000
0
LINE
8
Layer 1
10
0.398108
20
177.953000
11
0.347187
21
178.002826
0
LINE
8
Layer 1
10
0.347187
20
178.002826
11
0.321733
21
178.028000
0
LINE
8
Layer 1
10
0.321733
20
178.028000
11
0.309033
21
178.040000
0
LINE
8
Layer 1
10
0.309033
20
178.040000
11
0.302641
21
178.046291
0
LINE
8
Layer 1
10
0.302641
20
178.046291
11
0.302443
21
178.038005
0
LINE
8
Layer 1
10
0.302443
20
178.038005
11
0.300849
21
177.900000
0
LINE
8
Layer 1
10
0.300849
20
177.900000
11
0.297654
21
177.623705
0
LINE
8
Layer 1
10
0.297654
20
177.623705
11
0.291470
21
177.071000
0
LINE
8
Layer 1
10
0.291470
20
177.071000
11
0.279089
21
175.965000
0
LINE
8
Layer 1
10
0.279089
20
175.965000
11
0.207899
21
171.582000
0
LINE
8
Layer 1
10
0.207899
20
171.582000
11
0.146691
21
168.949000
0
LINE
8
Layer 1
10
0.146691
20
168.949000
11
0.114041
21
166.231540
0
LINE
8
Layer 1
10
0.114041
20
166.231540
11
0.064217
21
160.713000
0
LINE
8
Layer 1
10
0.064217
20
160.713000
11
0.011597
21
154.653330
0
LINE
8
Layer 1
10
0.011597
20
154.653330
11
0.021582
21
143.652030
0
LINE
8
Layer 1
10
0.021582
20
143.652030
11
0.465207
21
107.119630
0
LINE
8
Layer 1
10
0.465207
20
107.119630
11
1.108625
21
85.146330
0
LINE
8
Layer 1
10
1.108625
20
85.146330
11
1.847200
21
64.018930
0
LINE
8
Layer 1
10
1.847200
20
64.018930
11
2.544937
21
42.868630
0
LINE
8
Layer 1
10
2.544937
20
42.868630
11
2.938239
21
29.593030
0
LINE
8
Layer 1
10
2.938239
20
29.593030
11
3.639278
21
10.558730
0
LINE
8
Layer 1
10
3.639278
20
10.558730
11
4.017303
21
2.031620
0
LINE
8
Layer 1
10
4.017303
20
2.031620
11
4.072094
21
0.000388
0
LINE
8
Layer 1
10
4.072094
20
0.000388
11
4.106366
21
2.766202
0
LINE
8
Layer 1
10
4.106366
20
2.766202
11
4.269019
21
9.314722
0
LINE
8
Layer 1
10
4.269019
20
9.314722
11
4.735608
21
26.231222
0
LINE
8
Layer 1
10
4.735608
20
26.231222
11
5.380626
21
46.887522
0
LINE
8
Layer 1
10
5.380626
20
46.887522
11
6.235423
21
70.455522
0
LINE
8
Layer 1
10
6.235423
20
70.455522
11
6.817037
21
86.590522
0
LINE
8
Layer 1
10
6.817037
20
86.590522
11
7.159017
21
96.524592
0
LINE
8
Layer 1
10
7.159017
20
96.524592
11
7.572088
21
109.772692
0
LINE
8
Layer 1
10
7.572088
20
109.772692
11
7.809225
21
120.561292
0
LINE
8
Layer 1
10
7.809225
20
120.561292
11
8.031588
21
130.926592
0
LINE
8
Layer 1
10
8.031588
20
130.926592
11
8.114959
21
141.306292
0
LINE
8
Layer 1
10
8.114959
20
141.306292
11
8.165085
21
151.685992
0
LINE
8
Layer 1
10
8.165085
20
151.685992
11
8.177663
21
156.875882
0
LINE
8
Layer 1
10
8.177663
20
156.875882
11
8.183756
21
159.470832
0
LINE
8
Layer 1
10
8.183756
20
159.470832
11
8.183855
21
159.512070
0
LINE
8
Layer 1
10
8.183855
20
159.512070
11
8.284001
21
159.419612
0
LINE
8
Layer 1
10
8.284001
20
159.419612
11
10.711201
21
157.158752
0
LINE
8
Layer 1
10
10.711201
20
157.158752
11
19.452481
21
148.910612
0
LINE
8
Layer 1
10
19.452481
20
148.910612
11
25.763400
21
142.909000
0
LINE
8
Layer 1
10
25.763400
20
142.909000
11
31.798310
21
137.230750
0
LINE
8
Layer 1
10
31.798310
20
137.230750
11
32.721405
21
136.422881
0
LINE
8
Layer 1
10
32.721405
20
136.422881
11
34.430415
21
134.954155
0
LINE
8
Layer 1
10
34.430415
20
134.954155
11
36.098475
21
133.411071
0
LINE
8
Layer 1
10
36.098475
20
133.411071
11
37.905891
21
131.733651
0
LINE
8
Layer 1
10
37.905891
20
131.733651
11
39.771275
21
130.114191
0
LINE
8
Layer 1
10
39.771275
20
130.114191
11
42.679761
21
127.612351
0
LINE
8
Layer 1
10
42.679761
20
127.612351
11
45.323315
21
124.832041
0
LINE
8
Layer 1
10
45.323315
20
124.832041
11
46.457685
21
123.710751
0
LINE
8
Layer 1
10
46.457685
20
123.710751
11
47.679525
21
122.587361
0
LINE
8
Layer 1
10
47.679525
20
122.587361
11
47.986058
21
122.307679
0
LINE
8
Layer 1
10
47.986058
20
122.307679
11
48.139324
21
122.167892
0
LINE
8
Layer 1
10
48.139324
20
122.167892
11
48.161289
21
122.148221
0
LINE
8
Layer 1
10
48.161289
20
122.148221
11
48.165283
21
122.145117
0
LINE
8
Layer 1
10
48.165283
20
122.145117
11
48.173371
21
122.139026
0
LINE
8
Layer 1
10
48.173371
20
122.139026
11
48.242468
21
122.089903
0
LINE
8
Layer 1
10
48.242468
20
122.089903
11
48.286212
21
122.061345
0
LINE
8
Layer 1
10
48.286212
20
122.061345
11
48.296694
21
122.014815
0
LINE
8
Layer 1
10
48.296694
20
122.014815
11
48.279221
21
121.914770
0
LINE
8
Layer 1
10
48.279221
20
121.914770
11
48.274528
21
121.901689
0
LINE
8
Layer 1
10
48.274528
20
121.901689
11
48.272431
21
121.893002
0
LINE
8
Layer 1
10
48.272431
20
121.893002
11
48.273842
21
121.833092
0
LINE
8
Layer 1
10
48.273842
20
121.833092
11
48.279633
21
121.593658
0
LINE
8
Layer 1
10
48.279633
20
121.593658
11
48.291204
21
121.114787
0
LINE
8
Layer 1
10
48.291204
20
121.114787
11
48.314369
21
120.156948
0
LINE
8
Layer 1
10
48.314369
20
120.156948
11
48.406029
21
116.325588
0
LINE
8
Layer 1
10
48.406029
20
116.325588
11
48.598535
21
108.663358
0
LINE
8
Layer 1
10
48.598535
20
108.663358
11
48.740210
21
104.114688
0
LINE
8
Layer 1
10
48.740210
20
104.114688
11
48.906557
21
99.594568
0
LINE
8
Layer 1
10
48.906557
20
99.594568
11
48.968761
21
97.305773
0
LINE
8
Layer 1
10
48.968761
20
97.305773
11
48.935113
21
95.138958
0
LINE
8
Layer 1
10
48.935113
20
95.138958
11
49.008301
21
93.496858
0
LINE
8
Layer 1
10
49.008301
20
93.496858
11
49.293063
21
86.539958
0
LINE
8
Layer 1
10
49.293063
20
86.539958
11
49.544678
21
76.599298
0
LINE
8
Layer 1
10
49.544678
20
76.599298
11
49.673882
21
72.471588
0
LINE
8
Layer 1
10
49.673882
20
72.471588
11
49.883663
21
66.804218
0
LINE
8
Layer 1
10
49.883663
20
66.804218
11
49.930591
21
65.570908
0
LINE
8
Layer 1
10
49.930591
20
65.570908
11
50.154150
21
60.645308
0
LINE
8
Layer 1
10
50.154150
20
60.645308
11
50.371619
21
55.752558
0
LINE
8
Layer 1
10
50.371619
20
55.752558
11
50.498723
21
50.822868
0
LINE
8
Layer 1
10
50.498723
20
50.822868
11
50.581897
21
48.780178
0
LINE
8
Layer 1
10
50.581897
20
48.780178
11
50.867164
21
41.437658
0
LINE
8
Layer 1
10
50.867164
20
41.437658
11
51.013042
21
36.907148
0
LINE
8
Layer 1
10
51.013042
20
36.907148
11
51.164313
21
31.989738
0
LINE
8
Layer 1
10
51.164313
20
31.989738
11
51.349532
21
25.011568
0
LINE
8
Layer 1
10
51.349532
20
25.011568
11
51.374491
21
24.342702
0
LINE
8
Layer 1
10
51.374491
20
24.342702
11
51.436998
21
23.356203
0
LINE
8
Layer 1
10
51.436998
20
23.356203
11
51.482029
21
20.116533
0
LINE
8
Layer 1
10
51.482029
20
20.116533
11
51.503896
21
19.117467
0
LINE
8
Layer 1
10
51.503896
20
19.117467
11
51.505493
21
20.798607
0
LINE
8
Layer 1
10
51.505493
20
20.798607
11
51.501398
21
27.308787
0
LINE
8
Layer 1
10
51.501398
20
27.308787
11
51.486423
21
31.839577
0
LINE
8
Layer 1
10
51.486423
20
31.839577
11
51.476136
21
35.488707
0
LINE
8
Layer 1
10
51.476136
20
35.488707
11
51.505268
21
39.109666
0
LINE
8
Layer 1
10
51.505268
20
39.109666
11
51.416528
21
42.695427
0
LINE
8
Layer 1
10
51.416528
20
42.695427
11
51.463755
21
44.511757
0
LINE
8
Layer 1
10
51.463755
20
44.511757
11
51.512382
21
45.920207
0
LINE
8
Layer 1
10
51.512382
20
45.920207
11
51.497506
21
48.306977
0
LINE
8
Layer 1
10
51.497506
20
48.306977
11
51.528551
21
52.383867
0
LINE
8
Layer 1
10
51.528551
20
52.383867
11
51.555509
21
53.563077
0
LINE
8
Layer 1
10
51.555509
20
53.563077
11
51.755490
21
52.637359
0
LINE
8
Layer 1
10
51.755490
20
52.637359
11
51.935930
21
51.636607
0
LINE
8
Layer 1
10
51.935930
20
51.636607
11
52.021099
21
54.290467
0
LINE
8
Layer 1
10
52.021099
20
54.290467
11
52.105170
21
57.380657
0
LINE
8
Layer 1
10
52.105170
20
57.380657
11
51.994951
21
57.280110
0
LINE
8
Layer 1
10
51.994951
20
57.280110
11
51.892894
21
57.314958
0
LINE
8
Layer 1
10
51.892894
20
57.314958
11
51.841972
21
58.381528
0
LINE
8
Layer 1
10
51.841972
20
58.381528
11
51.917258
21
61.216108
0
LINE
8
Layer 1
10
51.917258
20
61.216108
11
52.040970
21
66.064828
0
LINE
8
Layer 1
10
52.040970
20
66.064828
11
52.007321
21
67.667788
0
LINE
8
Layer 1
10
52.007321
20
67.667788
11
52.069659
21
71.312600
0
LINE
8
Layer 1
10
52.069659
20
71.312600
11
52.303569
21
74.801718
0
LINE
8
Layer 1
10
52.303569
20
74.801718
11
52.497871
21
76.937116
0
LINE
8
Layer 1
10
52.497871
20
76.937116
11
52.485193
21
79.081298
0
LINE
8
Layer 1
10
52.485193
20
79.081298
11
52.555384
21
81.880138
0
LINE
8
Layer 1
10
52.555384
20
81.880138
11
52.536114
21
84.653118
0
LINE
8
Layer 1
10
52.536114
20
84.653118
11
52.375959
21
86.794158
0
LINE
8
Layer 1
10
52.375959
20
86.794158
11
52.534918
21
88.327918
0
LINE
8
Layer 1
10
52.534918
20
88.327918
11
52.680694
21
90.247588
0
LINE
8
Layer 1
10
52.680694
20
90.247588
11
52.752180
21
92.838071
0
LINE
8
Layer 1
10
52.752180
20
92.838071
11
53.001507
21
95.417518
0
LINE
8
Layer 1
10
53.001507
20
95.417518
11
53.093266
21
97.806178
0
LINE
8
Layer 1
10
53.093266
20
97.806178
11
53.078550
21
99.837061
0
LINE
8
Layer 1
10
53.078550
20
99.837061
11
53.076490
21
101.876778
0
LINE
8
Layer 1
10
53.076490
20
101.876778
11
53.122982
21
103.896076
0
LINE
8
Layer 1
10
53.122982
20
103.896076
11
53.308539
21
105.847228
0
LINE
8
Layer 1
10
53.308539
20
105.847228
11
53.362557
21
107.072458
0
LINE
8
Layer 1
10
53.362557
20
107.072458
11
53.427607
21
111.598676
0
LINE
8
Layer 1
10
53.427607
20
111.598676
11
53.568144
21
116.105498
0
LINE
8
Layer 1
10
53.568144
20
116.105498
11
53.615469
21
118.195118
0
LINE
8
Layer 1
10
53.615469
20
118.195118
11
54.240419
21
117.599912
0
LINE
8
Layer 1
10
54.240419
20
117.599912
11
60.609719
21
111.505392
0
LINE
8
Layer 1
10
60.609719
20
111.505392
11
63.271969
21
108.992122
0
LINE
8
Layer 1
10
63.271969
20
108.992122
11
66.950469
21
105.564142
0
LINE
8
Layer 1
10
66.950469
20
105.564142
11
67.751850
21
104.819076
0
LINE
8
Layer 1
10
67.751850
20
104.819076
11
70.978140
21
101.868666
0
LINE
8
Layer 1
10
70.978140
20
101.868666
11
74.179670
21
98.934836
0
LINE
8
Layer 1
10
74.179670
20
98.934836
11
77.339850
21
95.914036
0
LINE
8
Layer 1
10
77.339850
20
95.914036
11
78.671120
21
94.683806
0
LINE
8
Layer 1
10
78.671120
20
94.683806
11
83.446350
21
90.252056
0
LINE
8
Layer 1
10
83.446350
20
90.252056
11
86.371300
21
87.496356
0
LINE
8
Layer 1
10
86.371300
20
87.496356
11
89.541070
21
84.500416
0
LINE
8
Layer 1
10
89.541070
20
84.500416
11
94.018350
21
80.228136
0
LINE
8
Layer 1
10
94.018350
20
80.228136
11
94.452591
21
79.823751
0
LINE
8
Layer 1
10
94.452591
20
79.823751
11
95.111387
21
79.245331
0
LINE
8
Layer 1
10
95.111387
20
79.245331
11
95.886106
21
78.484590
0
LINE
8
Layer 1
10
95.886106
20
78.484590
11
95.998535
21
75.476470
0
LINE
8
Layer 1
10
95.998535
20
75.476470
11
96.737209
21
56.748470
0
LINE
8
Layer 1
10
96.737209
20
56.748470
11
97.434946
21
38.000170
0
LINE
8
Layer 1
10
97.434946
20
38.000170
11
97.828146
21
26.232270
0
LINE
8
Layer 1
10
97.828146
20
26.232270
11
98.529185
21
9.359670
0
LINE
8
Layer 1
10
98.529185
20
9.359670
11
98.907207
21
1.800880
0
LINE
8
Layer 1
10
98.907207
20
1.800880
11
98.962013
21
0.000359
0
LINE
8
Layer 1
10
98.962013
20
0.000359
11
98.996373
21
2.452088
0
LINE
8
Layer 1
10
98.996373
20
2.452088
11
99.159026
21
8.256828
0
LINE
8
Layer 1
10
99.159026
20
8.256828
11
99.625615
21
23.252228
0
LINE
8
Layer 1
10
99.625615
20
23.252228
11
100.270532
21
41.562728
0
LINE
8
Layer 1
10
100.270532
20
41.562728
11
101.125329
21
62.454228
0
LINE
8
Layer 1
10
101.125329
20
62.454228
11
101.706943
21
76.756828
0
LINE
8
Layer 1
10
101.706943
20
76.756828
11
102.048923
21
85.562718
0
LINE
8
Layer 1
10
102.048923
20
85.562718
11
102.461994
21
97.306318
0
LINE
8
Layer 1
10
102.461994
20
97.306318
11
102.699134
21
106.869548
0
LINE
8
Layer 1
10
102.699134
20
106.869548
11
102.921494
21
116.057648
0
LINE
8
Layer 1
10
102.921494
20
116.057648
11
103.073000
21
152.861000
0
LINE
8
Layer 1
10
103.073000
20
152.861000
11
103.073000
21
152.861000
0
LINE
8
Layer 1
10
8.061930
20
159.618000
11
7.997629
21
159.627878
0
LINE
8
Layer 1
10
7.997629
20
159.627878
11
7.957988
21
159.637363
0
LINE
8
Layer 1
10
7.957988
20
159.637363
11
7.957990
21
159.655000
0
LINE
8
Layer 1
10
7.957990
20
159.655000
11
7.974359
21
159.659394
0
LINE
8
Layer 1
10
7.974359
20
159.659394
11
7.983844
21
159.684255
0
LINE
8
Layer 1
10
7.983844
20
159.684255
11
8.004715
21
159.671674
0
LINE
8
Layer 1
10
8.004715
20
159.671674
11
8.021687
21
159.660102
0
LINE
8
Layer 1
10
8.021687
20
159.660102
11
8.031672
21
159.652816
0
LINE
8
Layer 1
10
8.031672
20
159.652816
11
8.070814
21
159.616669
0
LINE
8
Layer 1
10
8.070814
20
159.616669
11
8.061930
21
159.618000
0
LINE
8
Layer 1
10
50.981100
20
43.190300
11
50.957735
21
43.496136
0
LINE
8
Layer 1
10
50.957735
20
43.496136
11
50.951046
21
45.022806
0
LINE
8
Layer 1
10
50.951046
20
45.022806
11
51.008958
21
43.667666
0
LINE
8
Layer 1
10
51.008958
20
43.667666
11
50.981100
21
43.190300
0
LINE
8
Layer 1
10
50.981100
20
43.190300
11
50.981100
21
43.190300
0
LINE
8
Layer 1
10
51.582382
20
68.225100
11
51.539947
21
68.290900
0
LINE
8
Layer 1
10
51.539947
20
68.290900
11
51.548834
21
69.087985
0
LINE
8
Layer 1
10
51.548834
20
69.087985
11
51.587276
21
69.011204
0
LINE
8
Layer 1
10
51.587276
20
69.011204
11
51.582382
21
68.225100
0
LINE
8
Layer 1
10
51.956414
20
80.586500
11
51.674542
21
77.719870
0
LINE
8
Layer 1
10
51.674542
20
77.719870
11
51.609241
21
77.609239
0
LINE
8
Layer 1
10
51.609241
20
77.609239
11
51.521775
21
78.149917
0
LINE
8
Layer 1
10
51.521775
20
78.149917
11
51.519879
21
78.602127
0
LINE
8
Layer 1
10
51.519879
20
78.602127
11
51.566807
21
81.352037
0
LINE
8
Layer 1
10
51.566807
20
81.352037
11
51.580867
21
82.314856
0
LINE
8
Layer 1
10
51.580867
20
82.314856
11
51.685527
21
82.647657
0
LINE
8
Layer 1
10
51.685527
20
82.647657
11
51.823217
21
82.340035
0
LINE
8
Layer 1
10
51.823217
20
82.340035
11
51.956500
21
80.586500
0
LINE
8
Layer 1
10
51.956500
20
80.586500
11
51.956414
21
80.586500
0
LINE
8
Layer 1
10
52.318860
20
90.073350
11
52.178773
21
89.847290
0
LINE
8
Layer 1
10
52.178773
20
89.847290
11
52.128851
21
90.147035
0
LINE
8
Layer 1
10
52.128851
20
90.147035
11
52.205435
21
94.966395
0
LINE
8
Layer 1
10
52.205435
20
94.966395
11
52.267241
21
95.186760
0
LINE
8
Layer 1
10
52.267241
20
95.186760
11
52.405530
21
94.880425
0
LINE
8
Layer 1
10
52.405530
20
94.880425
11
52.426499
21
92.333605
0
LINE
8
Layer 1
10
52.426499
20
92.333605
11
52.318900
21
90.073300
0
LINE
8
Layer 1
10
52.318900
20
90.073300
11
52.318860
21
90.073350
0
LINE
8
Layer 1
10
54.234640
20
121.713750
11
54.040037
21
121.834259
0
LINE
8
Layer 1
10
54.040037
20
121.834259
11
53.743887
21
122.132305
0
LINE
8
Layer 1
10
53.743887
20
122.132305
11
53.748182
21
122.444530
0
LINE
8
Layer 1
10
53.748182
20
122.444530
11
54.218663
21
121.924223
0
LINE
8
Layer 1
10
54.218663
20
121.924223
11
54.250117
21
121.819883
0
LINE
8
Layer 1
10
54.250117
20
121.819883
11
54.234700
21
121.714000
0
LINE
8
Layer 1
10
54.234700
20
121.714000
11
54.234640
21
121.713750
0
LINE
8
Layer 1
10
61.450150
20
113.593120
11
61.051257
21
113.872695
0
LINE
8
Layer 1
10
61.051257
20
113.872695
11
60.768188
21
114.156661
0
LINE
8
Layer 1
10
60.768188
20
114.156661
11
59.089248
21
115.924471
0
LINE
8
Layer 1
10
59.089248
20
115.924471
11
58.499735
21
116.541718
0
LINE
8
Layer 1
10
58.499735
20
116.541718
11
58.366949
21
116.825199
0
LINE
8
Layer 1
10
58.366949
20
116.825199
11
58.656509
21
116.727847
0
LINE
8
Layer 1
10
58.656509
20
116.727847
11
59.843199
21
115.715086
0
LINE
8
Layer 1
10
59.843199
20
115.715086
11
61.427689
21
113.708647
0
LINE
8
Layer 1
10
61.427689
20
113.708647
11
61.450200
21
113.593000
0
LINE
8
Layer 1
10
61.450200
20
113.593000
11
61.450150
21
113.593120
0
LINE
8
Layer 1
10
67.203390
20
107.665650
11
66.713436
21
108.174778
0
LINE
8
Layer 1
10
66.713436
20
108.174778
11
66.788524
21
108.153411
0
LINE
8
Layer 1
10
66.788524
20
108.153411
11
67.274584
21
107.653971
0
LINE
8
Layer 1
10
67.274584
20
107.653971
11
67.203400
21
107.666000
0
LINE
8
Layer 1
10
67.203400
20
107.666000
11
67.203390
21
107.665650
0
LINE
8
Layer 1
10
82.228890
20
91.614450
11
81.273543
21
92.572890
0
LINE
8
Layer 1
10
81.273543
20
92.572890
11
82.158591
21
91.758730
0
LINE
8
Layer 1
10
82.158591
20
91.758730
11
82.435967
21
91.437917
0
LINE
8
Layer 1
10
82.435967
20
91.437917
11
82.229000
21
91.614400
0
LINE
8
Layer 1
10
82.229000
20
91.614400
11
82.228890
21
91.614450
0
LINE
8
Layer 1
10
92.695800
20
81.784100
11
89.863810
21
84.631960
0
LINE
8
Layer 1
10
89.863810
20
84.631960
11
87.584180
21
86.926860
0
LINE
8
Layer 1
10
87.584180
20
86.926860
11
85.350081
21
89.231665
0
LINE
8
Layer 1
10
85.350081
20
89.231665
11
83.053980
21
91.431410
0
LINE
8
Layer 1
10
83.053980
20
91.431410
11
81.956550
21
92.610610
0
LINE
8
Layer 1
10
81.956550
20
92.610610
11
81.114134
21
93.533307
0
LINE
8
Layer 1
10
81.114134
20
93.533307
11
79.617314
21
95.028517
0
LINE
8
Layer 1
10
79.617314
20
95.028517
11
77.100644
21
97.622367
0
LINE
8
Layer 1
10
77.100644
20
97.622367
11
76.385533
21
98.385106
0
LINE
8
Layer 1
10
76.385533
20
98.385106
11
77.104362
21
97.941631
0
LINE
8
Layer 1
10
77.104362
20
97.941631
11
77.855993
21
97.437049
0
LINE
8
Layer 1
10
77.855993
20
97.437049
11
76.264023
21
99.171109
0
LINE
8
Layer 1
10
76.264023
20
99.171109
11
74.399463
21
101.179749
0
LINE
8
Layer 1
10
74.399463
20
101.179749
11
74.383673
21
101.038840
0
LINE
8
Layer 1
10
74.383673
20
101.038840
11
74.289329
21
100.989142
0
LINE
8
Layer 1
10
74.289329
20
100.989142
11
73.588998
21
101.626269
0
LINE
8
Layer 1
10
73.588998
20
101.626269
11
71.877408
21
103.467469
0
LINE
8
Layer 1
10
71.877408
20
103.467469
11
68.946178
21
106.613179
0
LINE
8
Layer 1
10
68.946178
20
106.613179
11
67.924038
21
107.600773
0
LINE
8
Layer 1
10
67.924038
20
107.600773
11
65.742118
21
109.895696
0
LINE
8
Layer 1
10
65.742118
20
109.895696
11
63.692488
21
112.309503
0
LINE
8
Layer 1
10
63.692488
20
112.309503
11
62.501778
21
113.792351
0
LINE
8
Layer 1
10
62.501778
20
113.792351
11
61.156848
21
115.136893
0
LINE
8
Layer 1
10
61.156848
20
115.136893
11
59.463928
21
116.952033
0
LINE
8
Layer 1
10
59.463928
20
116.952033
11
57.723478
21
118.687883
0
LINE
8
Layer 1
10
57.723478
20
118.687883
11
56.276178
21
119.926103
0
LINE
8
Layer 1
10
56.276178
20
119.926103
11
55.434262
21
121.005253
0
LINE
8
Layer 1
10
55.434262
20
121.005253
11
54.941313
21
121.657361
0
LINE
8
Layer 1
10
54.941313
20
121.657361
11
54.660940
21
121.984363
0
LINE
8
Layer 1
10
54.660940
20
121.984363
11
54.416711
21
122.228392
0
LINE
8
Layer 1
10
54.416711
20
122.228392
11
53.874038
21
122.737916
0
LINE
8
Layer 1
10
53.874038
20
122.737916
11
53.752824
21
122.878700
0
LINE
8
Layer 1
10
53.752824
20
122.878700
11
53.745435
21
123.539593
0
LINE
8
Layer 1
10
53.745435
20
123.539593
11
53.738346
21
123.740290
0
LINE
8
Layer 1
10
53.738346
20
123.740290
11
54.239781
21
124.053113
0
LINE
8
Layer 1
10
54.239781
20
124.053113
11
54.701380
21
124.364139
0
LINE
8
Layer 1
10
54.701380
20
124.364139
11
54.751404
21
124.406173
0
LINE
8
Layer 1
10
54.751404
20
124.406173
11
54.839968
21
124.485760
0
LINE
8
Layer 1
10
54.839968
20
124.485760
11
55.034371
21
124.670277
0
LINE
8
Layer 1
10
55.034371
20
124.670277
11
55.392725
21
125.056788
0
LINE
8
Layer 1
10
55.392725
20
125.056788
11
56.682224
21
126.313050
0
LINE
8
Layer 1
10
56.682224
20
126.313050
11
57.986175
21
127.565568
0
LINE
8
Layer 1
10
57.986175
20
127.565568
11
59.310684
21
128.770509
0
LINE
8
Layer 1
10
59.310684
20
128.770509
11
60.687755
21
129.833318
0
LINE
8
Layer 1
10
60.687755
20
129.833318
11
61.509303
21
130.545731
0
LINE
8
Layer 1
10
61.509303
20
130.545731
11
64.451010
21
133.274923
0
LINE
8
Layer 1
10
64.451010
20
133.274923
11
67.432483
21
135.937621
0
LINE
8
Layer 1
10
67.432483
20
135.937621
11
70.429629
21
138.621106
0
LINE
8
Layer 1
10
70.429629
20
138.621106
11
73.352863
21
141.405691
0
LINE
8
Layer 1
10
73.352863
20
141.405691
11
74.175309
21
142.083258
0
LINE
8
Layer 1
10
74.175309
20
142.083258
11
79.361309
21
146.720398
0
LINE
8
Layer 1
10
79.361309
20
146.720398
11
80.427879
21
147.730858
0
LINE
8
Layer 1
10
80.427879
20
147.730858
11
91.378879
21
157.451248
0
LINE
8
Layer 1
10
91.378879
20
157.451248
11
94.248799
21
160.021448
0
LINE
8
Layer 1
10
94.248799
20
160.021448
11
94.799262
21
160.518492
0
LINE
8
Layer 1
10
94.799262
20
160.518492
11
95.048980
21
160.748540
0
LINE
8
Layer 1
10
95.048980
20
160.748540
11
95.161409
21
160.853182
0
LINE
8
Layer 1
10
95.161409
20
160.853182
11
95.273937
21
160.928665
0
LINE
8
Layer 1
10
95.273937
20
160.928665
11
95.479225
21
161.052778
0
LINE
8
Layer 1
10
95.479225
20
161.052778
11
95.654059
21
161.147040
0
LINE
8
Layer 1
10
95.654059
20
161.147040
11
95.609826
21
160.785889
0
LINE
8
Layer 1
10
95.609826
20
160.785889
11
95.468740
21
160.167332
0
LINE
8
Layer 1
10
95.468740
20
160.167332
11
95.338839
21
159.926199
0
LINE
8
Layer 1
10
95.338839
20
159.926199
11
95.273838
21
159.818464
0
LINE
8
Layer 1
10
95.273838
20
159.818464
11
95.256964
21
159.467600
0
LINE
8
Layer 1
10
95.256964
20
159.467600
11
95.248175
21
158.962169
0
LINE
8
Layer 1
10
95.248175
20
158.962169
11
95.112600
21
150.875000
0
LINE
8
Layer 1
10
95.112600
20
150.875000
11
95.070162
21
146.828960
0
LINE
8
Layer 1
10
95.070162
20
146.828960
11
94.900359
21
137.090115
0
LINE
8
Layer 1
10
94.900359
20
137.090115
11
94.911404
21
127.338160
0
LINE
8
Layer 1
10
94.911404
20
127.338160
11
95.355029
21
94.954560
0
LINE
8
Layer 1
10
95.355029
20
94.954560
11
95.883425
21
78.555060
0
LINE
8
Layer 1
10
95.883425
20
78.555060
11
92.695800
21
81.784100
0
LINE
8
Layer 1
10
92.695800
20
81.784100
11
92.695800
21
81.784100
0
LINE
8
Layer 1
10
97.799430
20
76.617270
11
97.801626
21
76.615275
0
LINE
8
Layer 1
10
97.801626
20
76.615275
11
97.847157
21
76.568843
0
LINE
8
Layer 1
10
97.847157
20
76.568843
11
97.799400
21
76.617300
0
LINE
8
Layer 1
10
97.799400
20
76.617300
11
97.799430
21
76.617270
0
LINE
8
Layer 1
10
81.290000
20
93.953300
11
80.625414
21
94.594859
0
LINE
8
Layer 1
10
80.625414
20
94.594859
11
80.065670
21
94.863711
0
LINE
8
Layer 1
10
80.065670
20
94.863711
11
83.180920
21
91.759831
0
LINE
8
Layer 1
10
83.180920
20
91.759831
11
84.452890
21
90.461711
0
LINE
8
Layer 1
10
84.452890
20
90.461711
11
84.772501
21
90.190823
0
LINE
8
Layer 1
10
84.772501
20
90.190823
11
84.522483
21
90.525414
0
LINE
8
Layer 1
10
84.522483
20
90.525414
11
81.290000
21
93.953300
0
LINE
8
Layer 1
10
81.290000
20
93.953300
11
81.290000
21
93.953300
0
LINE
8
Layer 1
10
71.704100
20
104.017000
11
71.947229
21
103.718457
0
LINE
8
Layer 1
10
71.947229
20
103.718457
11
72.106089
21
103.591350
0
LINE
8
Layer 1
10
72.106089
20
103.591350
11
71.918273
21
103.812014
0
LINE
8
Layer 1
10
71.918273
20
103.812014
11
71.704100
21
104.017000
0
LINE
8
Layer 1
10
51.737400
20
42.858500
11
51.730709
21
40.808320
0
LINE
8
Layer 1
10
51.730709
20
40.808320
11
51.767852
21
40.337438
0
LINE
8
Layer 1
10
51.767852
20
40.337438
11
51.825067
21
40.804233
0
LINE
8
Layer 1
10
51.825067
20
40.804233
11
51.932594
21
46.118133
0
LINE
8
Layer 1
10
51.932594
20
46.118133
11
51.910241
21
47.159858
0
LINE
8
Layer 1
10
51.910241
20
47.159858
11
51.700749
21
47.819443
0
LINE
8
Layer 1
10
51.700749
20
47.819443
11
51.737400
21
42.858500
0
LINE
8
Layer 1
10
51.737400
20
42.858500
11
51.737400
21
42.858500
0
LINE
8
Layer 1
10
51.517200
20
17.342600
11
51.513506
21
17.951274
0
LINE
8
Layer 1
10
51.513506
20
17.951274
11
51.505516
21
18.844413
0
LINE
8
Layer 1
10
51.505516
20
18.844413
11
51.509910
21
18.040837
0
LINE
8
Layer 1
10
51.509910
20
18.040837
11
51.516364
21
17.403892
0
LINE
8
Layer 1
10
51.516364
20
17.403892
11
51.517874
21
17.267743
0
LINE
8
Layer 1
10
51.517874
20
17.267743
11
51.517200
21
17.342600
0
LINE
8
Layer 1
10
51.517200
20
17.342600
11
51.517200
21
17.342600
0
LINE
8
Layer 1
10
51.505600
20
18.844400
11
51.504104
21
19.112590
0
LINE
8
Layer 1
10
51.504104
20
19.112590
11
51.503904
21
19.117484
0
LINE
8
Layer 1
10
51.503904
20
19.117484
11
51.503805
21
19.039204
0
LINE
8
Layer 1
10
51.503805
20
19.039204
11
51.505600
21
18.844400
0
LINE
8
Layer 1
10
52.143000
20
61.362200
11
52.166865
21
61.134246
0
LINE
8
Layer 1
10
52.166865
20
61.134246
11
52.188133
21
61.460150
0
LINE
8
Layer 1
10
52.188133
20
61.460150
11
52.179745
21
61.794640
0
LINE
8
Layer 1
10
52.179745
20
61.794640
11
52.143000
21
61.362200
0
LINE
8
Layer 1
10
52.143000
20
61.362200
11
52.143000
21
61.362200
 0 
ENDSEC
 0 
EOF