999
"DXF R12 Output" (www.mydxf.blogspot.com)
 0 
SECTION
 2 
HEADER
 9 
$ACADVER
 1 
AC1009
 9 
$EXTMIN
 10 
 0 
 20 
 0 
 9 
$EXTMAX
 10 
 8.5 
 20 
 11 
 0 
ENDSEC
 0 
SECTION
 2 
ENTITIES
0
LINE
8
Layer 1
10
5.922540
20
120.177000
11
4.968810
21
119.545932
0
LINE
8
Layer 1
10
4.968810
20
119.545932
11
4.571786
21
119.289443
0
LINE
8
Layer 1
10
4.571786
20
119.289443
11
4.485511
21
119.223059
0
LINE
8
Layer 1
10
4.485511
20
119.223059
11
4.582956
21
119.270718
0
LINE
8
Layer 1
10
4.582956
20
119.270718
11
5.624026
21
119.916786
0
LINE
8
Layer 1
10
5.624026
20
119.916786
11
5.922540
21
120.177000
0
LINE
8
Layer 1
10
5.922540
20
120.177000
11
5.922540
21
120.177000
0
LINE
8
Layer 1
10
0.015167
20
116.375000
11
0.132289
21
116.452236
0
LINE
8
Layer 1
10
0.132289
20
116.452236
11
0.317610
21
116.575214
0
LINE
8
Layer 1
10
0.317610
20
116.575214
11
0.149205
21
116.464044
0
LINE
8
Layer 1
10
0.149205
20
116.464044
11
0.015167
21
116.375000
0
LINE
8
Layer 1
10
0.015167
20
116.375000
11
0.015167
21
116.375000
0
LINE
8
Layer 1
10
8.601590
20
121.784000
11
8.560846
21
121.750382
0
LINE
8
Layer 1
10
8.560846
20
121.750382
11
8.626908
21
121.786447
0
LINE
8
Layer 1
10
8.626908
20
121.786447
11
8.690527
21
121.830169
0
LINE
8
Layer 1
10
8.690527
20
121.830169
11
8.601590
21
121.784000
0
LINE
8
Layer 1
10
8.601590
20
121.784000
11
8.601590
21
121.784000
0
LINE
8
Layer 1
10
4.804130
20
79.466300
11
4.717855
21
79.399919
0
LINE
8
Layer 1
10
4.717855
20
79.399919
11
4.815196
21
79.447577
0
LINE
8
Layer 1
10
4.815196
20
79.447577
11
5.856266
21
80.093645
0
LINE
8
Layer 1
10
5.856266
20
80.093645
11
6.154778
21
80.353752
0
LINE
8
Layer 1
10
6.154778
20
80.353752
11
5.201048
21
79.722791
0
LINE
8
Layer 1
10
5.201048
20
79.722791
11
4.804130
21
79.466300
0
LINE
8
Layer 1
10
4.804130
20
79.466300
11
4.804130
21
79.466300
0
LINE
8
Layer 1
10
0.247828
20
76.551500
11
0.247402
21
76.551181
0
LINE
8
Layer 1
10
0.247402
20
76.551181
11
0.247828
21
76.551500
0
LINE
8
Layer 1
10
0.247828
20
76.551500
11
0.247828
21
76.551500
0
LINE
8
Layer 1
10
0.247828
20
76.551500
11
0.364532
21
76.628414
0
LINE
8
Layer 1
10
0.364532
20
76.628414
11
0.551340
21
76.752245
0
LINE
8
Layer 1
10
0.551340
20
76.752245
11
0.381442
21
76.640223
0
LINE
8
Layer 1
10
0.381442
20
76.640223
11
0.247828
21
76.551500
0
LINE
8
Layer 1
10
0.247828
20
76.551500
11
0.247828
21
76.551500
0
LINE
8
Layer 1
10
8.793080
20
81.926900
11
8.859250
21
81.963070
0
LINE
8
Layer 1
10
8.859250
20
81.963070
11
8.922750
21
82.006794
0
LINE
8
Layer 1
10
8.922750
20
82.006794
11
8.833813
21
81.960623
0
LINE
8
Layer 1
10
8.833813
20
81.960623
11
8.793080
21
81.926900
0
LINE
8
Layer 1
10
8.793080
20
81.926900
11
8.793080
21
81.926900
0
LINE
8
Layer 1
10
117.643000
20
129.825000
11
117.626631
21
129.843192
0
LINE
8
Layer 1
10
117.626631
20
129.843192
11
117.561204
21
129.916064
0
LINE
8
Layer 1
10
117.561204
20
129.916064
11
117.043756
21
130.501598
0
LINE
8
Layer 1
10
117.043756
20
130.501598
11
116.013646
21
131.700328
0
LINE
8
Layer 1
10
116.013646
20
131.700328
11
114.912366
21
132.911508
0
LINE
8
Layer 1
10
114.912366
20
132.911508
11
114.689492
21
133.140232
0
LINE
8
Layer 1
10
114.689492
20
133.140232
11
114.487139
21
133.335979
0
LINE
8
Layer 1
10
114.487139
20
133.335979
11
114.066179
21
133.695555
0
LINE
8
Layer 1
10
114.066179
20
133.695555
11
112.690798
21
134.993090
0
LINE
8
Layer 1
10
112.690798
20
134.993090
11
111.318289
21
136.305465
0
LINE
8
Layer 1
10
111.318289
20
136.305465
11
109.993615
21
137.640421
0
LINE
8
Layer 1
10
109.993615
20
137.640421
11
108.812319
21
139.033245
0
LINE
8
Layer 1
10
108.812319
20
139.033245
11
108.026785
21
139.862077
0
LINE
8
Layer 1
10
108.026785
20
139.862077
11
105.030015
21
142.825523
0
LINE
8
Layer 1
10
105.030015
20
142.825523
11
102.099305
21
145.831577
0
LINE
8
Layer 1
10
102.099305
20
145.831577
11
99.146325
21
148.853389
0
LINE
8
Layer 1
10
99.146325
20
148.853389
11
96.093535
21
151.796287
0
LINE
8
Layer 1
10
96.093535
20
151.796287
11
95.343852
21
152.627036
0
LINE
8
Layer 1
10
95.343852
20
152.627036
11
90.240432
21
157.855896
0
LINE
8
Layer 1
10
90.240432
20
157.855896
11
89.132232
21
158.929726
0
LINE
8
Layer 1
10
89.132232
20
158.929726
11
78.429400
21
169.973000
0
LINE
8
Layer 1
10
78.429400
20
169.973000
11
75.600970
21
172.866520
0
LINE
8
Layer 1
10
75.600970
20
172.866520
11
75.247140
21
173.228013
0
LINE
8
Layer 1
10
75.247140
20
173.228013
11
75.070116
21
173.408756
0
LINE
8
Layer 1
10
75.070116
20
173.408756
11
74.759051
21
173.717270
0
LINE
8
Layer 1
10
74.759051
20
173.717270
11
73.440961
21
175.021960
0
LINE
8
Layer 1
10
73.440961
20
175.021960
11
70.777111
21
177.656340
0
LINE
8
Layer 1
10
70.777111
20
177.656340
11
65.248781
21
183.213710
0
LINE
8
Layer 1
10
65.248781
20
183.213710
11
63.834100
21
184.646000
0
LINE
8
Layer 1
10
63.834100
20
184.646000
11
63.123883
21
185.364819
0
LINE
8
Layer 1
10
63.123883
20
185.364819
11
62.768029
21
185.724934
0
LINE
8
Layer 1
10
62.768029
20
185.724934
11
62.589800
21
185.905000
0
LINE
8
Layer 1
10
62.589800
20
185.905000
11
62.500759
21
185.995108
0
LINE
8
Layer 1
10
62.500759
20
185.995108
11
62.442339
21
186.012555
0
LINE
8
Layer 1
10
62.442339
20
186.012555
11
62.420532
21
182.186575
0
LINE
8
Layer 1
10
62.420532
20
182.186575
11
62.364999
21
174.054935
0
LINE
8
Layer 1
10
62.364999
20
174.054935
11
62.323083
21
169.955875
0
LINE
8
Layer 1
10
62.323083
20
169.955875
11
62.303082
21
168.019485
0
LINE
8
Layer 1
10
62.303082
20
168.019485
11
62.285105
21
166.957765
0
LINE
8
Layer 1
10
62.285105
20
166.957765
11
62.153508
21
158.834005
0
LINE
8
Layer 1
10
62.153508
20
158.834005
11
59.734018
21
157.585175
0
LINE
8
Layer 1
10
59.734018
20
157.585175
11
55.580598
21
155.237085
0
LINE
8
Layer 1
10
55.580598
20
155.237085
11
50.858978
21
152.531425
0
LINE
8
Layer 1
10
50.858978
20
152.531425
11
47.671728
21
150.609925
0
LINE
8
Layer 1
10
47.671728
20
150.609925
11
45.727138
21
149.399595
0
LINE
8
Layer 1
10
45.727138
20
149.399595
11
43.156918
21
147.750005
0
LINE
8
Layer 1
10
43.156918
20
147.750005
11
41.104778
21
146.344145
0
LINE
8
Layer 1
10
41.104778
20
146.344145
11
39.131258
21
144.996375
0
LINE
8
Layer 1
10
39.131258
20
144.996375
11
31.405478
21
139.322735
0
LINE
8
Layer 1
10
31.405478
20
139.322735
11
30.877816
21
138.908151
0
LINE
8
Layer 1
10
30.877816
20
138.908151
11
29.666856
21
137.966444
0
LINE
8
Layer 1
10
29.666856
20
137.966444
11
27.435786
21
136.316224
0
LINE
8
Layer 1
10
27.435786
20
136.316224
11
25.805776
21
135.140584
0
LINE
8
Layer 1
10
25.805776
20
135.140584
11
24.261506
21
134.011964
0
LINE
8
Layer 1
10
24.261506
20
134.011964
11
24.042251
21
133.831006
0
LINE
8
Layer 1
10
24.042251
20
133.831006
11
23.223203
21
133.178768
0
LINE
8
Layer 1
10
23.223203
20
133.178768
11
22.324000
21
132.476000
0
LINE
8
Layer 1
10
22.324000
20
132.476000
11
20.877820
21
131.459830
0
LINE
8
Layer 1
10
20.877820
20
131.459830
11
20.570373
21
131.258323
0
LINE
8
Layer 1
10
20.570373
20
131.258323
11
19.955795
21
130.800237
0
LINE
8
Layer 1
10
19.955795
20
130.800237
11
17.113535
21
128.691607
0
LINE
8
Layer 1
10
17.113535
20
128.691607
11
16.272680
21
128.061496
0
LINE
8
Layer 1
10
16.272680
20
128.061496
11
15.440230
21
127.430535
0
LINE
8
Layer 1
10
15.440230
20
127.430535
11
14.594907
21
126.846598
0
LINE
8
Layer 1
10
14.594907
20
126.846598
11
14.293948
21
126.615105
0
LINE
8
Layer 1
10
14.293948
20
126.615105
11
13.011918
21
125.645314
0
LINE
8
Layer 1
10
13.011918
20
125.645314
11
11.149888
21
124.305844
0
LINE
8
Layer 1
10
11.149888
20
124.305844
11
10.379140
21
123.745735
0
LINE
8
Layer 1
10
10.379140
20
123.745735
11
9.324030
21
122.972114
0
LINE
8
Layer 1
10
9.324030
20
122.972114
11
9.094346
21
122.803814
0
LINE
8
Layer 1
10
9.094346
20
122.803814
11
8.181358
21
122.125406
0
LINE
8
Layer 1
10
8.181358
20
122.125406
11
7.271991
21
121.455084
0
LINE
8
Layer 1
10
7.271991
20
121.455084
11
6.341880
21
120.801145
0
LINE
8
Layer 1
10
6.341880
20
120.801145
11
5.960070
21
120.524548
0
LINE
8
Layer 1
10
5.960070
20
120.524548
11
4.584320
21
119.535820
0
LINE
8
Layer 1
10
4.584320
20
119.535820
11
3.729848
21
118.934123
0
LINE
8
Layer 1
10
3.729848
20
118.934123
11
2.800697
21
118.283799
0
LINE
8
Layer 1
10
2.800697
20
118.283799
11
1.476770
21
117.370000
0
LINE
8
Layer 1
10
1.476770
20
117.370000
11
1.350597
21
117.281275
0
LINE
8
Layer 1
10
1.350597
20
117.281275
11
1.167192
21
117.146167
0
LINE
8
Layer 1
10
1.167192
20
117.146167
11
0.546868
21
116.730208
0
LINE
8
Layer 1
10
0.546868
20
116.730208
11
0.355378
21
116.600208
0
LINE
8
Layer 1
10
0.355378
20
116.600208
11
0.341227
21
116.590951
0
LINE
8
Layer 1
10
0.341227
20
116.590951
11
0.317611
21
116.575313
0
LINE
8
Layer 1
10
0.317611
20
116.575313
11
0.351655
21
116.597761
0
LINE
8
Layer 1
10
0.351655
20
116.597761
11
0.681008
21
116.812442
0
LINE
8
Layer 1
10
0.681008
20
116.812442
11
1.937178
21
117.633510
0
LINE
8
Layer 1
10
1.937178
20
117.633510
11
2.809950
21
118.207129
0
LINE
8
Layer 1
10
2.809950
20
118.207129
11
3.513038
21
118.668940
0
LINE
8
Layer 1
10
3.513038
20
118.668940
11
4.896349
21
119.588840
0
LINE
8
Layer 1
10
4.896349
20
119.588840
11
5.252945
21
119.808522
0
LINE
8
Layer 1
10
5.252945
20
119.808522
11
5.531139
21
119.976393
0
LINE
8
Layer 1
10
5.531139
20
119.976393
11
5.989864
21
120.280120
0
LINE
8
Layer 1
10
5.989864
20
120.280120
11
6.781040
21
120.787462
0
LINE
8
Layer 1
10
6.781040
20
120.787462
11
7.012317
21
120.930334
0
LINE
8
Layer 1
10
7.012317
20
120.930334
11
6.691569
21
120.609374
0
LINE
8
Layer 1
10
6.691569
20
120.609374
11
7.216361
21
120.924483
0
LINE
8
Layer 1
10
7.216361
20
120.924483
11
7.825831
21
121.294058
0
LINE
8
Layer 1
10
7.825831
20
121.294058
11
7.783597
21
121.330973
0
LINE
8
Layer 1
10
7.783597
20
121.330973
11
7.982643
21
121.475869
0
LINE
8
Layer 1
10
7.982643
20
121.475869
11
8.541262
21
121.815444
0
LINE
8
Layer 1
10
8.541262
20
121.815444
11
9.496798
21
122.396406
0
LINE
8
Layer 1
10
9.496798
20
122.396406
11
9.801905
21
122.604917
0
LINE
8
Layer 1
10
9.801905
20
122.604917
11
11.227125
21
123.430027
0
LINE
8
Layer 1
10
11.227125
20
123.430027
11
12.084256
21
123.921624
0
LINE
8
Layer 1
10
12.084256
20
123.921624
11
12.637976
21
124.253754
0
LINE
8
Layer 1
10
12.637976
20
124.253754
11
13.172445
21
124.604395
0
LINE
8
Layer 1
10
13.172445
20
124.604395
11
13.561598
21
124.911097
0
LINE
8
Layer 1
10
13.561598
20
124.911097
11
13.884790
21
125.062695
0
LINE
8
Layer 1
10
13.884790
20
125.062695
11
14.281174
21
125.265141
0
LINE
8
Layer 1
10
14.281174
20
125.265141
11
15.338800
21
125.825000
0
LINE
8
Layer 1
10
15.338800
20
125.825000
11
15.818696
21
126.097234
0
LINE
8
Layer 1
10
15.818696
20
126.097234
11
16.607317
21
126.605854
0
LINE
8
Layer 1
10
16.607317
20
126.605854
11
17.420726
21
127.034154
0
LINE
8
Layer 1
10
17.420726
20
127.034154
11
17.668918
21
127.170431
0
LINE
8
Layer 1
10
17.668918
20
127.170431
11
19.467118
21
128.225121
0
LINE
8
Layer 1
10
19.467118
20
128.225121
11
21.269578
21
129.297251
0
LINE
8
Layer 1
10
21.269578
20
129.297251
11
21.519579
21
129.419699
0
LINE
8
Layer 1
10
21.519579
20
129.419699
11
23.102039
21
130.303107
0
LINE
8
Layer 1
10
23.102039
20
130.303107
11
23.428211
21
130.502356
0
LINE
8
Layer 1
10
23.428211
20
130.502356
11
26.789931
21
132.313536
0
LINE
8
Layer 1
10
26.789931
20
132.313536
11
30.330801
21
134.220886
0
LINE
8
Layer 1
10
30.330801
20
134.220886
11
34.034541
21
136.240466
0
LINE
8
Layer 1
10
34.034541
20
136.240466
11
34.957737
21
136.751006
0
LINE
8
Layer 1
10
34.957737
20
136.751006
11
39.418927
21
139.189206
0
LINE
8
Layer 1
10
39.418927
20
139.189206
11
46.696627
21
143.446246
0
LINE
8
Layer 1
10
46.696627
20
143.446246
11
50.957817
21
146.184766
0
LINE
8
Layer 1
10
50.957817
20
146.184766
11
54.991137
21
148.915526
0
LINE
8
Layer 1
10
54.991137
20
148.915526
11
59.053177
21
151.612026
0
LINE
8
Layer 1
10
59.053177
20
151.612026
11
61.677447
21
153.190326
0
LINE
8
Layer 1
10
61.677447
20
153.190326
11
62.083088
21
153.405221
0
LINE
8
Layer 1
10
62.083088
20
153.405221
11
61.931333
21
143.580242
0
LINE
8
Layer 1
10
61.931333
20
143.580242
11
61.943620
21
133.743421
0
LINE
8
Layer 1
10
61.943620
20
133.743421
11
62.076919
21
118.856921
0
LINE
8
Layer 1
10
62.076919
20
118.856921
11
59.966479
21
117.762131
0
LINE
8
Layer 1
10
59.966479
20
117.762131
11
55.813059
21
115.414041
0
LINE
8
Layer 1
10
55.813059
20
115.414041
11
51.091439
21
112.708381
0
LINE
8
Layer 1
10
51.091439
20
112.708381
11
47.904079
21
110.786881
0
LINE
8
Layer 1
10
47.904079
20
110.786881
11
45.959489
21
109.576551
0
LINE
8
Layer 1
10
45.959489
20
109.576551
11
43.389369
21
107.926961
0
LINE
8
Layer 1
10
43.389369
20
107.926961
11
41.337229
21
106.521101
0
LINE
8
Layer 1
10
41.337229
20
106.521101
11
39.363709
21
105.173331
0
LINE
8
Layer 1
10
39.363709
20
105.173331
11
31.637929
21
99.499681
0
LINE
8
Layer 1
10
31.637929
20
99.499681
11
31.110267
21
99.085097
0
LINE
8
Layer 1
10
31.110267
20
99.085097
11
29.899307
21
98.143390
0
LINE
8
Layer 1
10
29.899307
20
98.143390
11
27.668127
21
96.493170
0
LINE
8
Layer 1
10
27.668127
20
96.493170
11
26.038117
21
95.317530
0
LINE
8
Layer 1
10
26.038117
20
95.317530
11
24.493957
21
94.188910
0
LINE
8
Layer 1
10
24.493957
20
94.188910
11
24.274702
21
94.007952
0
LINE
8
Layer 1
10
24.274702
20
94.007952
11
23.455654
21
93.355714
0
LINE
8
Layer 1
10
23.455654
20
93.355714
11
22.556396
21
92.653049
0
LINE
8
Layer 1
10
22.556396
20
92.653049
11
21.110106
21
91.636879
0
LINE
8
Layer 1
10
21.110106
20
91.636879
11
20.802659
21
91.435389
0
LINE
8
Layer 1
10
20.802659
20
91.435389
11
20.188081
21
90.977300
0
LINE
8
Layer 1
10
20.188081
20
90.977300
11
17.345941
21
88.868670
0
LINE
8
Layer 1
10
17.345941
20
88.868670
11
16.505086
21
88.238561
0
LINE
8
Layer 1
10
16.505086
20
88.238561
11
15.672636
21
87.607600
0
LINE
8
Layer 1
10
15.672636
20
87.607600
11
14.827313
21
87.023553
0
LINE
8
Layer 1
10
14.827313
20
87.023553
11
14.526354
21
86.792170
0
LINE
8
Layer 1
10
14.526354
20
86.792170
11
13.244324
21
85.822376
0
LINE
8
Layer 1
10
13.244324
20
85.822376
11
11.382194
21
84.482906
0
LINE
8
Layer 1
10
11.382194
20
84.482906
11
10.611550
21
83.922797
0
LINE
8
Layer 1
10
10.611550
20
83.922797
11
9.556440
21
83.149176
0
LINE
8
Layer 1
10
9.556440
20
83.149176
11
9.326759
21
82.980879
0
LINE
8
Layer 1
10
9.326759
20
82.980879
11
8.413771
21
82.302364
0
LINE
8
Layer 1
10
8.413771
20
82.302364
11
7.504404
21
81.632149
0
LINE
8
Layer 1
10
7.504404
20
81.632149
11
6.574186
21
80.978210
0
LINE
8
Layer 1
10
6.574186
20
80.978210
11
6.192484
21
80.701613
0
LINE
8
Layer 1
10
6.192484
20
80.701613
11
4.816624
21
79.712885
0
LINE
8
Layer 1
10
4.816624
20
79.712885
11
3.962256
21
79.111188
0
LINE
8
Layer 1
10
3.962256
20
79.111188
11
3.033102
21
78.460867
0
LINE
8
Layer 1
10
3.033102
20
78.460867
11
1.709162
21
77.546287
0
LINE
8
Layer 1
10
1.709162
20
77.546287
11
1.582885
21
77.457562
0
LINE
8
Layer 1
10
1.582885
20
77.457562
11
1.399587
21
77.322457
0
LINE
8
Layer 1
10
1.399587
20
77.322457
11
0.779263
21
76.906496
0
LINE
8
Layer 1
10
0.779263
20
76.906496
11
0.587773
21
76.776496
0
LINE
8
Layer 1
10
0.587773
20
76.776496
11
0.573622
21
76.767242
0
LINE
8
Layer 1
10
0.573622
20
76.767242
11
0.551389
21
76.752454
0
LINE
8
Layer 1
10
0.551389
20
76.752454
11
0.583943
21
76.773942
0
LINE
8
Layer 1
10
0.583943
20
76.773942
11
0.913412
21
76.988733
0
LINE
8
Layer 1
10
0.913412
20
76.988733
11
2.169440
21
77.809500
0
LINE
8
Layer 1
10
2.169440
20
77.809500
11
3.042316
21
78.383226
0
LINE
8
Layer 1
10
3.042316
20
78.383226
11
3.745404
21
78.844941
0
LINE
8
Layer 1
10
3.745404
20
78.844941
11
5.128714
21
79.764945
0
LINE
8
Layer 1
10
5.128714
20
79.764945
11
5.485310
21
79.984627
0
LINE
8
Layer 1
10
5.485310
20
79.984627
11
5.763397
21
80.152501
0
LINE
8
Layer 1
10
5.763397
20
80.152501
11
6.222228
21
80.456225
0
LINE
8
Layer 1
10
6.222228
20
80.456225
11
7.013296
21
80.963567
0
LINE
8
Layer 1
10
7.013296
20
80.963567
11
7.244681
21
81.106442
0
LINE
8
Layer 1
10
7.244681
20
81.106442
11
6.923828
21
80.785482
0
LINE
8
Layer 1
10
6.923828
20
80.785482
11
7.448617
21
81.100589
0
LINE
8
Layer 1
10
7.448617
20
81.100589
11
8.058087
21
81.470167
0
LINE
8
Layer 1
10
8.058087
20
81.470167
11
8.015855
21
81.507082
0
LINE
8
Layer 1
10
8.015855
20
81.507082
11
8.215005
21
81.651862
0
LINE
8
Layer 1
10
8.215005
20
81.651862
11
8.773624
21
81.991544
0
LINE
8
Layer 1
10
8.773624
20
81.991544
11
9.729053
21
82.572504
0
LINE
8
Layer 1
10
9.729053
20
82.572504
11
10.034268
21
82.780911
0
LINE
8
Layer 1
10
10.034268
20
82.780911
11
11.459488
21
83.606128
0
LINE
8
Layer 1
10
11.459488
20
83.606128
11
12.316619
21
84.097728
0
LINE
8
Layer 1
10
12.316619
20
84.097728
11
12.870339
21
84.429858
0
LINE
8
Layer 1
10
12.870339
20
84.429858
11
13.404808
21
84.780392
0
LINE
8
Layer 1
10
13.404808
20
84.780392
11
13.793958
21
85.087201
0
LINE
8
Layer 1
10
13.793958
20
85.087201
11
14.117153
21
85.238797
0
LINE
8
Layer 1
10
14.117153
20
85.238797
11
14.513429
21
85.441246
0
LINE
8
Layer 1
10
14.513429
20
85.441246
11
15.571099
21
86.001141
0
LINE
8
Layer 1
10
15.571099
20
86.001141
11
16.050995
21
86.273378
0
LINE
8
Layer 1
10
16.050995
20
86.273378
11
16.839509
21
86.781891
0
LINE
8
Layer 1
10
16.839509
20
86.781891
11
17.652918
21
87.210191
0
LINE
8
Layer 1
10
17.652918
20
87.210191
11
17.901217
21
87.346575
0
LINE
8
Layer 1
10
17.901217
20
87.346575
11
19.699307
21
88.401265
0
LINE
8
Layer 1
10
19.699307
20
88.401265
11
21.501857
21
89.473295
0
LINE
8
Layer 1
10
21.501857
20
89.473295
11
21.751750
21
89.595850
0
LINE
8
Layer 1
10
21.751750
20
89.595850
11
23.334310
21
90.479258
0
LINE
8
Layer 1
10
23.334310
20
90.479258
11
23.660482
21
90.678507
0
LINE
8
Layer 1
10
23.660482
20
90.678507
11
27.022092
21
92.489587
0
LINE
8
Layer 1
10
27.022092
20
92.489587
11
30.563062
21
94.397037
0
LINE
8
Layer 1
10
30.563062
20
94.397037
11
34.266802
21
96.416617
0
LINE
8
Layer 1
10
34.266802
20
96.416617
11
35.189998
21
96.927157
0
LINE
8
Layer 1
10
35.189998
20
96.927157
11
39.651078
21
99.365357
0
LINE
8
Layer 1
10
39.651078
20
99.365357
11
46.928778
21
103.622397
0
LINE
8
Layer 1
10
46.928778
20
103.622397
11
51.189968
21
106.360917
0
LINE
8
Layer 1
10
51.189968
20
106.360917
11
55.223398
21
109.091677
0
LINE
8
Layer 1
10
55.223398
20
109.091677
11
59.285438
21
111.788177
0
LINE
8
Layer 1
10
59.285438
20
111.788177
11
61.909598
21
113.366487
0
LINE
8
Layer 1
10
61.909598
20
113.366487
11
62.149278
21
113.493402
0
LINE
8
Layer 1
10
62.149278
20
113.493402
11
62.393535
21
99.730802
0
LINE
8
Layer 1
10
62.393535
20
99.730802
11
63.046314
21
79.273302
0
LINE
8
Layer 1
10
63.046314
20
79.273302
11
63.795681
21
59.603302
0
LINE
8
Layer 1
10
63.795681
20
59.603302
11
64.503556
21
39.911902
0
LINE
8
Layer 1
10
64.503556
20
39.911902
11
64.902494
21
27.552102
0
LINE
8
Layer 1
10
64.902494
20
27.552102
11
65.613668
21
9.830802
0
LINE
8
Layer 1
10
65.613668
20
9.830802
11
65.997182
21
1.891822
0
LINE
8
Layer 1
10
65.997182
20
1.891822
11
66.052767
21
0.000697
0
LINE
8
Layer 1
10
66.052767
20
0.000697
11
66.087606
21
2.575762
0
LINE
8
Layer 1
10
66.087606
20
2.575762
11
66.252607
21
8.672602
0
LINE
8
Layer 1
10
66.252607
20
8.672602
11
66.725907
21
24.422102
0
LINE
8
Layer 1
10
66.725907
20
24.422102
11
67.380273
21
43.653602
0
LINE
8
Layer 1
10
67.380273
20
43.653602
11
68.247406
21
65.595902
0
LINE
8
Layer 1
10
68.247406
20
65.595902
11
68.578365
21
74.020622
0
LINE
8
Layer 1
10
68.578365
20
74.020622
11
70.575505
21
71.691142
0
LINE
8
Layer 1
10
70.575505
20
71.691142
11
73.397755
21
68.442082
0
LINE
8
Layer 1
10
73.397755
20
68.442082
11
75.388085
21
66.276432
0
LINE
8
Layer 1
10
75.388085
20
66.276432
11
76.636495
21
64.966212
0
LINE
8
Layer 1
10
76.636495
20
64.966212
11
78.331295
21
63.248862
0
LINE
8
Layer 1
10
78.331295
20
63.248862
11
79.764065
21
61.903322
0
LINE
8
Layer 1
10
79.764065
20
61.903322
11
81.138225
21
60.608102
0
LINE
8
Layer 1
10
81.138225
20
60.608102
11
86.873675
21
55.652862
0
LINE
8
Layer 1
10
86.873675
20
55.652862
11
87.289741
21
55.322329
0
LINE
8
Layer 1
10
87.289741
20
55.322329
11
88.235704
21
54.560728
0
LINE
8
Layer 1
10
88.235704
20
54.560728
11
89.902624
21
53.133168
0
LINE
8
Layer 1
10
89.902624
20
53.133168
11
91.093484
21
52.081458
0
LINE
8
Layer 1
10
91.093484
20
52.081458
11
92.235074
21
51.089431
0
LINE
8
Layer 1
10
92.235074
20
51.089431
11
92.415716
21
50.954645
0
LINE
8
Layer 1
10
92.415716
20
50.954645
11
93.069342
21
50.444004
0
LINE
8
Layer 1
10
93.069342
20
50.444004
11
93.774773
21
49.879427
0
LINE
8
Layer 1
10
93.774773
20
49.879427
11
94.807333
21
48.938569
0
LINE
8
Layer 1
10
94.807333
20
48.938569
11
95.013824
21
48.734314
0
LINE
8
Layer 1
10
95.013824
20
48.734314
11
95.476061
21
48.342079
0
LINE
8
Layer 1
10
95.476061
20
48.342079
11
97.605331
21
46.525369
0
LINE
8
Layer 1
10
97.605331
20
46.525369
11
98.240867
21
45.989624
0
LINE
8
Layer 1
10
98.240867
20
45.989624
11
98.876400
21
45.461429
0
LINE
8
Layer 1
10
98.876400
20
45.461429
11
99.470980
21
44.908556
0
LINE
8
Layer 1
10
99.470980
20
44.908556
11
99.703745
21
44.718556
0
LINE
8
Layer 1
10
99.703745
20
44.718556
11
100.680877
21
43.904509
0
LINE
8
Layer 1
10
100.680877
20
43.904509
11
102.038227
21
42.702059
0
LINE
8
Layer 1
10
102.038227
20
42.702059
11
102.605036
21
42.205992
0
LINE
8
Layer 1
10
102.605036
20
42.205992
11
103.387381
21
41.528967
0
LINE
8
Layer 1
10
103.387381
20
41.528967
11
103.557490
21
41.381520
0
LINE
8
Layer 1
10
103.557490
20
41.381520
11
104.242386
21
40.798221
0
LINE
8
Layer 1
10
104.242386
20
40.798221
11
104.919719
21
40.215771
0
LINE
8
Layer 1
10
104.919719
20
40.215771
11
105.584084
21
39.610662
0
LINE
8
Layer 1
10
105.584084
20
39.610662
11
105.864192
21
39.364703
0
LINE
8
Layer 1
10
105.864192
20
39.364703
11
106.866222
21
38.476082
0
LINE
8
Layer 1
10
106.866222
20
38.476082
11
107.477393
21
37.920545
0
LINE
8
Layer 1
10
107.477393
20
37.920545
11
108.138461
21
37.315331
0
LINE
8
Layer 1
10
108.138461
20
37.315331
11
109.069636
21
36.449474
0
LINE
8
Layer 1
10
109.069636
20
36.449474
11
109.159744
21
36.367454
0
LINE
8
Layer 1
10
109.159744
20
36.367454
11
109.296339
21
36.249900
0
LINE
8
Layer 1
10
109.296339
20
36.249900
11
109.721340
21
35.840534
0
LINE
8
Layer 1
10
109.721340
20
35.840534
11
109.853363
21
35.715321
0
LINE
8
Layer 1
10
109.853363
20
35.715321
11
109.636334
21
35.931280
0
LINE
8
Layer 1
10
109.636334
20
35.931280
11
108.794734
21
36.766392
0
LINE
8
Layer 1
10
108.794734
20
36.766392
11
108.207179
21
37.345650
0
LINE
8
Layer 1
10
108.207179
20
37.345650
11
107.734090
21
37.812445
0
LINE
8
Layer 1
10
107.734090
20
37.812445
11
106.793128
21
38.727451
0
LINE
8
Layer 1
10
106.793128
20
38.727451
11
106.566222
21
38.968302
0
LINE
8
Layer 1
10
106.566222
20
38.968302
11
106.392390
21
39.157346
0
LINE
8
Layer 1
10
106.392390
20
39.157346
11
106.081539
21
39.461178
0
LINE
8
Layer 1
10
106.081539
20
39.461178
11
105.560258
21
39.989904
0
LINE
8
Layer 1
10
105.560258
20
39.989904
11
105.412704
21
40.146074
0
LINE
8
Layer 1
10
105.412704
20
40.146074
11
105.727494
21
39.965116
0
LINE
8
Layer 1
10
105.727494
20
39.965116
11
105.400788
21
40.322034
0
LINE
8
Layer 1
10
105.400788
20
40.322034
11
105.018341
21
40.735546
0
LINE
8
Layer 1
10
105.018341
20
40.735546
11
104.988767
21
40.688737
0
LINE
8
Layer 1
10
104.988767
20
40.688737
11
104.842170
21
40.816823
0
LINE
8
Layer 1
10
104.842170
20
40.816823
11
104.490787
21
41.195548
0
LINE
8
Layer 1
10
104.490787
20
41.195548
11
103.889719
21
41.843425
0
LINE
8
Layer 1
10
103.889719
20
41.843425
11
103.677164
21
42.043639
0
LINE
8
Layer 1
10
103.677164
20
42.043639
11
102.818000
21
43.021900
0
LINE
8
Layer 1
10
102.818000
20
43.021900
11
102.305231
21
43.611476
0
LINE
8
Layer 1
10
102.305231
20
43.611476
11
101.960974
21
43.988180
0
LINE
8
Layer 1
10
101.960974
20
43.988180
11
101.601824
21
44.343181
0
LINE
8
Layer 1
10
101.601824
20
44.343181
11
101.294055
21
44.586693
0
LINE
8
Layer 1
10
101.294055
20
44.586693
11
101.130970
21
44.818821
0
LINE
8
Layer 1
10
101.130970
20
44.818821
11
100.916182
21
45.098717
0
LINE
8
Layer 1
10
100.916182
20
45.098717
11
100.325432
21
45.839784
0
LINE
8
Layer 1
10
100.325432
20
45.839784
11
100.041071
21
46.170850
0
LINE
8
Layer 1
10
100.041071
20
46.170850
11
99.518941
21
46.697022
0
LINE
8
Layer 1
10
99.518941
20
46.697022
11
99.066598
21
47.267675
0
LINE
8
Layer 1
10
99.066598
20
47.267675
11
98.923511
21
47.440228
0
LINE
8
Layer 1
10
98.923511
20
47.440228
11
97.827021
21
48.670558
0
LINE
8
Layer 1
10
97.827021
20
48.670558
11
96.714461
21
49.899498
0
LINE
8
Layer 1
10
96.714461
20
49.899498
11
96.583510
21
50.077478
0
LINE
8
Layer 1
10
96.583510
20
50.077478
11
95.658719
21
51.173228
0
LINE
8
Layer 1
10
95.658719
20
51.173228
11
95.452655
21
51.394081
0
LINE
8
Layer 1
10
95.452655
20
51.394081
11
93.546585
21
53.740581
0
LINE
8
Layer 1
10
93.546585
20
53.740581
11
91.539135
21
56.212401
0
LINE
8
Layer 1
10
91.539135
20
56.212401
11
89.417525
21
58.790711
0
LINE
8
Layer 1
10
89.417525
20
58.790711
11
88.882203
21
59.431355
0
LINE
8
Layer 1
10
88.882203
20
59.431355
11
86.321663
21
62.535305
0
LINE
8
Layer 1
10
86.321663
20
62.535305
11
81.893763
21
67.517995
0
LINE
8
Layer 1
10
81.893763
20
67.517995
11
79.080773
21
70.364285
0
LINE
8
Layer 1
10
79.080773
20
70.364285
11
76.293733
21
73.018235
0
LINE
8
Layer 1
10
76.293733
20
73.018235
11
73.535103
21
75.706545
0
LINE
8
Layer 1
10
73.535103
20
75.706545
11
71.899673
21
77.490595
0
LINE
8
Layer 1
10
71.899673
20
77.490595
11
70.751346
21
78.794549
0
LINE
8
Layer 1
10
70.751346
20
78.794549
11
69.432203
21
79.925395
0
LINE
8
Layer 1
10
69.432203
20
79.925395
11
68.822623
21
80.229650
0
LINE
8
Layer 1
10
68.822623
20
80.229650
11
68.837838
21
80.617844
0
LINE
8
Layer 1
10
68.837838
20
80.617844
11
68.895496
21
82.154454
0
LINE
8
Layer 1
10
68.895496
20
82.154454
11
72.611896
21
85.922024
0
LINE
8
Layer 1
10
72.611896
20
85.922024
11
75.564356
21
88.934804
0
LINE
8
Layer 1
10
75.564356
20
88.934804
11
77.943626
21
91.360024
0
LINE
8
Layer 1
10
77.943626
20
91.360024
11
80.332798
21
93.738545
0
LINE
8
Layer 1
10
80.332798
20
93.738545
11
82.613866
21
96.177704
0
LINE
8
Layer 1
10
82.613866
20
96.177704
11
83.835996
21
97.347604
0
LINE
8
Layer 1
10
83.835996
20
97.347604
11
84.792277
21
98.246120
0
LINE
8
Layer 1
10
84.792277
20
98.246120
11
86.342597
21
99.838150
0
LINE
8
Layer 1
10
86.342597
20
99.838150
11
89.031437
21
102.517530
0
LINE
8
Layer 1
10
89.031437
20
102.517530
11
89.822079
21
103.279662
0
LINE
8
Layer 1
10
89.822079
20
103.279662
11
89.360973
21
102.523701
0
LINE
8
Layer 1
10
89.360973
20
102.523701
11
88.836755
21
101.731992
0
LINE
8
Layer 1
10
88.836755
20
101.731992
11
90.633995
21
103.429662
0
LINE
8
Layer 1
10
90.633995
20
103.429662
11
92.715815
21
105.417432
0
LINE
8
Layer 1
10
92.715815
20
105.417432
11
92.570403
21
105.429334
0
LINE
8
Layer 1
10
92.570403
20
105.429334
11
92.519538
21
105.525094
0
LINE
8
Layer 1
10
92.519538
20
105.525094
11
93.180392
21
106.268185
0
LINE
8
Layer 1
10
93.180392
20
106.268185
11
95.088592
21
108.092665
0
LINE
8
Layer 1
10
95.088592
20
108.092665
11
98.349142
21
111.217255
0
LINE
8
Layer 1
10
98.349142
20
111.217255
11
99.373192
21
112.303425
0
LINE
8
Layer 1
10
99.373192
20
112.303425
11
101.751813
21
114.627438
0
LINE
8
Layer 1
10
101.751813
20
114.627438
11
104.253000
21
116.819000
0
LINE
8
Layer 1
10
104.253000
20
116.819000
11
105.789357
21
118.094893
0
LINE
8
Layer 1
10
105.789357
20
118.094893
11
107.183120
21
119.525180
0
LINE
8
Layer 1
10
107.183120
20
119.525180
11
109.064300
21
121.329660
0
LINE
8
Layer 1
10
109.064300
20
121.329660
11
110.864100
21
123.180730
0
LINE
8
Layer 1
10
110.864100
20
123.180730
11
112.148680
21
124.713500
0
LINE
8
Layer 1
10
112.148680
20
124.713500
11
113.266560
21
125.616483
0
LINE
8
Layer 1
10
113.266560
20
125.616483
11
113.941881
21
126.145847
0
LINE
8
Layer 1
10
113.941881
20
126.145847
11
114.280714
21
126.445530
0
LINE
8
Layer 1
10
114.280714
20
126.445530
11
114.452737
21
126.609360
0
LINE
8
Layer 1
10
114.452737
20
126.609360
11
114.685076
21
126.842978
0
LINE
8
Layer 1
10
114.685076
20
126.842978
11
115.950616
21
128.103408
0
LINE
8
Layer 1
10
115.950616
20
128.103408
11
117.146676
21
129.317038
0
LINE
8
Layer 1
10
117.146676
20
129.317038
11
117.450189
21
129.618101
0
LINE
8
Layer 1
10
117.450189
20
129.618101
11
117.603170
21
129.768635
0
LINE
8
Layer 1
10
117.603170
20
129.768635
11
117.641467
21
129.806295
0
LINE
8
Layer 1
10
117.641467
20
129.806295
11
117.651148
21
129.815763
0
LINE
8
Layer 1
10
117.651148
20
129.815763
11
117.643000
21
129.825000
0
LINE
8
Layer 1
10
5.031790
20
119.791000
11
4.936258
21
119.735998
0
LINE
8
Layer 1
10
4.936258
20
119.735998
11
4.992217
21
119.779296
0
LINE
8
Layer 1
10
4.992217
20
119.779296
11
5.285305
21
119.973978
0
LINE
8
Layer 1
10
5.285305
20
119.973978
11
5.031790
21
119.791000
0
LINE
8
Layer 1
10
5.031790
20
119.791000
11
5.031790
21
119.791000
0
LINE
8
Layer 1
10
9.999580
20
122.868000
11
9.847132
21
122.770125
0
LINE
8
Layer 1
10
9.847132
20
122.770125
11
9.853513
21
122.787999
0
LINE
8
Layer 1
10
9.853513
20
122.787999
11
10.008735
21
122.886404
0
LINE
8
Layer 1
10
10.008735
20
122.886404
11
9.999580
21
122.868000
0
LINE
8
Layer 1
10
9.999580
20
122.868000
11
9.999580
21
122.868000
0
LINE
8
Layer 1
10
12.610870
20
124.488650
11
12.292888
21
124.236307
0
LINE
8
Layer 1
10
12.292888
20
124.236307
11
11.694693
21
123.943643
0
LINE
8
Layer 1
10
11.694693
20
123.943643
11
11.663310
21
123.945238
0
LINE
8
Layer 1
10
11.663310
20
123.945238
11
11.754056
21
124.034174
0
LINE
8
Layer 1
10
11.754056
20
124.034174
11
11.841079
21
124.091620
0
LINE
8
Layer 1
10
11.841079
20
124.091620
11
12.379378
21
124.426618
0
LINE
8
Layer 1
10
12.379378
20
124.426618
11
12.648423
21
124.560874
0
LINE
8
Layer 1
10
12.648423
20
124.560874
11
12.610900
21
124.489000
0
LINE
8
Layer 1
10
12.610900
20
124.489000
11
12.610870
21
124.488650
0
LINE
8
Layer 1
10
15.133440
20
125.912490
11
14.643330
21
125.589298
0
LINE
8
Layer 1
10
14.643330
20
125.589298
11
14.187584
21
125.334404
0
LINE
8
Layer 1
10
14.187584
20
125.334404
11
14.120669
21
125.341637
0
LINE
8
Layer 1
10
14.120669
20
125.341637
11
14.170456
21
125.391743
0
LINE
8
Layer 1
10
14.170456
20
125.391743
11
15.116204
21
125.975152
0
LINE
8
Layer 1
10
15.116204
20
125.975152
11
15.169397
21
125.986641
0
LINE
8
Layer 1
10
15.169397
20
125.986641
11
15.133400
21
125.913000
0
LINE
8
Layer 1
10
15.133400
20
125.913000
11
15.133440
21
125.912490
0
LINE
8
Layer 1
10
5.264020
20
79.967600
11
5.168488
21
79.912601
0
LINE
8
Layer 1
10
5.168488
20
79.912601
11
5.224444
21
79.955899
0
LINE
8
Layer 1
10
5.224444
20
79.955899
11
5.517636
21
80.150579
0
LINE
8
Layer 1
10
5.517636
20
80.150579
11
5.264020
21
79.967600
0
LINE
8
Layer 1
10
5.264020
20
79.967600
11
5.264020
21
79.967600
0
LINE
8
Layer 1
10
10.231900
20
83.044700
11
10.079345
21
82.946828
0
LINE
8
Layer 1
10
10.079345
20
82.946828
11
10.085836
21
82.964699
0
LINE
8
Layer 1
10
10.085836
20
82.964699
11
10.241058
21
83.063104
0
LINE
8
Layer 1
10
10.241058
20
83.063104
11
10.231900
21
83.044700
0
LINE
8
Layer 1
10
10.231900
20
83.044700
11
10.231900
21
83.044700
0
LINE
8
Layer 1
10
12.843080
20
84.665350
11
12.525098
21
84.413010
0
LINE
8
Layer 1
10
12.525098
20
84.413010
11
11.927010
21
84.120346
0
LINE
8
Layer 1
10
11.927010
20
84.120346
11
11.895522
21
84.121941
0
LINE
8
Layer 1
10
11.895522
20
84.121941
11
11.986373
21
84.210877
0
LINE
8
Layer 1
10
11.986373
20
84.210877
11
12.073297
21
84.268219
0
LINE
8
Layer 1
10
12.073297
20
84.268219
11
12.611596
21
84.603327
0
LINE
8
Layer 1
10
12.611596
20
84.603327
11
12.880641
21
84.737583
0
LINE
8
Layer 1
10
12.880641
20
84.737583
11
12.843100
21
84.665300
0
LINE
8
Layer 1
10
12.843100
20
84.665300
11
12.843080
21
84.665350
0
LINE
8
Layer 1
10
15.365750
20
86.089190
11
14.875640
21
85.765998
0
LINE
8
Layer 1
10
14.875640
20
85.765998
11
14.419787
21
85.511101
0
LINE
8
Layer 1
10
14.419787
20
85.511101
11
14.352872
21
85.518337
0
LINE
8
Layer 1
10
14.352872
20
85.518337
11
14.402659
21
85.568443
0
LINE
8
Layer 1
10
14.402659
20
85.568443
11
15.348515
21
86.151849
0
LINE
8
Layer 1
10
15.348515
20
86.151849
11
15.401705
21
86.163338
0
LINE
8
Layer 1
10
15.401705
20
86.163338
11
15.365800
21
86.089200
0
LINE
8
Layer 1
10
15.365800
20
86.089200
11
15.365750
21
86.089190
0
LINE
8
Layer 1
10
106.600000
20
38.784400
11
106.657232
21
38.718761
0
LINE
8
Layer 1
10
106.657232
20
38.718761
11
106.613722
21
38.753974
0
LINE
8
Layer 1
10
106.613722
20
38.753974
11
106.414572
21
38.948019
0
LINE
8
Layer 1
10
106.414572
20
38.948019
11
106.600000
21
38.784400
0
LINE
8
Layer 1
10
106.600000
20
38.784400
11
106.600000
21
38.784400
0
LINE
8
Layer 1
10
103.423920
20
42.136120
11
103.524453
21
42.034204
0
LINE
8
Layer 1
10
103.524453
20
42.034204
11
103.507855
21
42.034523
0
LINE
8
Layer 1
10
103.507855
20
42.034523
11
103.406684
21
42.138564
0
LINE
8
Layer 1
10
103.406684
20
42.138564
11
103.424000
21
42.136100
0
LINE
8
Layer 1
10
103.424000
20
42.136100
11
103.423920
21
42.136120
0
LINE
8
Layer 1
10
101.683700
20
43.908040
11
101.751679
21
43.896870
0
LINE
8
Layer 1
10
101.751679
20
43.896870
11
102.004657
21
43.698358
0
LINE
8
Layer 1
10
102.004657
20
43.698358
11
102.317108
21
43.272293
0
LINE
8
Layer 1
10
102.317108
20
43.272293
11
102.318383
21
43.244951
0
LINE
8
Layer 1
10
102.318383
20
43.244951
11
102.231041
21
43.296761
0
LINE
8
Layer 1
10
102.231041
20
43.296761
11
102.172212
21
43.354419
0
LINE
8
Layer 1
10
102.172212
20
43.354419
11
101.826679
21
43.717187
0
LINE
8
Layer 1
10
101.826679
20
43.717187
11
101.684000
21
43.908000
0
LINE
8
Layer 1
10
101.684000
20
43.908000
11
101.683700
21
43.908040
0
LINE
8
Layer 1
10
100.263280
20
45.639010
11
100.594134
21
45.314009
0
LINE
8
Layer 1
10
100.594134
20
45.314009
11
100.860944
21
44.998581
0
LINE
8
Layer 1
10
100.860944
20
44.998581
11
100.860097
21
44.939314
0
LINE
8
Layer 1
10
100.860097
20
44.939314
11
100.811056
21
44.967294
0
LINE
8
Layer 1
10
100.811056
20
44.967294
11
100.208512
21
45.606126
0
LINE
8
Layer 1
10
100.208512
20
45.606126
11
100.193726
21
45.648253
0
LINE
8
Layer 1
10
100.193726
20
45.648253
11
100.263000
21
45.639000
0
LINE
8
Layer 1
10
100.263000
20
45.639000
11
100.263280
21
45.639010
0
LINE
8
Layer 1
10
67.255900
20
80.492600
11
67.252920
21
80.489301
0
LINE
8
Layer 1
10
67.252920
20
80.489301
11
67.204728
21
80.440897
0
LINE
8
Layer 1
10
67.204728
20
80.440897
11
67.255900
21
80.492600
0
LINE
8
Layer 1
10
67.255900
20
80.492600
11
67.255900
21
80.492600
0
LINE
8
Layer 1
10
82.955200
20
97.112400
11
82.622858
21
96.816016
0
LINE
8
Layer 1
10
82.622858
20
96.816016
11
82.806051
21
97.035379
0
LINE
8
Layer 1
10
82.806051
20
97.035379
11
83.799673
21
98.051549
0
LINE
8
Layer 1
10
83.799673
20
98.051549
11
82.955300
21
97.112300
0
LINE
8
Layer 1
10
82.955300
20
97.112300
11
82.955200
21
97.112400
0
LINE
8
Layer 1
10
99.948300
20
113.492900
11
99.430530
21
112.975559
0
LINE
8
Layer 1
10
99.430530
20
112.975559
11
99.442979
21
113.049388
0
LINE
8
Layer 1
10
99.442979
20
113.049388
11
99.970748
21
113.571200
0
LINE
8
Layer 1
10
99.970748
20
113.571200
11
99.948300
21
113.493000
0
LINE
8
Layer 1
10
99.948300
20
113.493000
11
99.948300
21
113.492900
0
LINE
8
Layer 1
10
108.836110
20
122.156460
11
107.785260
21
120.899640
0
LINE
8
Layer 1
10
107.785260
20
120.899640
11
105.706950
21
119.201120
0
LINE
8
Layer 1
10
105.706950
20
119.201120
11
105.587587
21
119.174309
0
LINE
8
Layer 1
10
105.587587
20
119.174309
11
105.878013
21
119.594845
0
LINE
8
Layer 1
10
105.878013
20
119.594845
11
106.172371
21
119.895908
0
LINE
8
Layer 1
10
106.172371
20
119.895908
11
108.004841
21
121.684538
0
LINE
8
Layer 1
10
108.004841
20
121.684538
11
108.644632
21
122.312458
0
LINE
8
Layer 1
10
108.644632
20
122.312458
11
108.937825
21
122.458371
0
LINE
8
Layer 1
10
108.937825
20
122.458371
11
108.836000
21
122.156000
0
LINE
8
Layer 1
10
108.836000
20
122.156000
11
108.836110
21
122.156460
0
LINE
8
Layer 1
10
112.199530
20
129.356390
11
112.079848
21
129.251282
0
LINE
8
Layer 1
10
112.079848
20
129.251282
11
112.015061
21
129.195966
0
LINE
8
Layer 1
10
112.015061
20
129.195966
11
111.981759
21
129.167462
0
LINE
8
Layer 1
10
111.981759
20
129.167462
11
111.964845
21
129.152993
0
LINE
8
Layer 1
10
111.964845
20
129.152993
11
111.956333
21
129.145759
0
LINE
8
Layer 1
10
111.956333
20
129.145759
11
111.939098
21
129.127886
0
LINE
8
Layer 1
10
111.939098
20
129.127886
11
109.756108
21
126.742666
0
LINE
8
Layer 1
10
109.756108
20
126.742666
11
103.436288
21
119.976676
0
LINE
8
Layer 1
10
103.436288
20
119.976676
11
100.829888
21
117.149536
0
LINE
8
Layer 1
10
100.829888
20
117.149536
11
97.274758
21
113.244726
0
LINE
8
Layer 1
10
97.274758
20
113.244726
11
96.501989
21
112.394191
0
LINE
8
Layer 1
10
96.501989
20
112.394191
11
93.441859
21
108.971091
0
LINE
8
Layer 1
10
93.441859
20
108.971091
11
90.398969
21
105.574161
0
LINE
8
Layer 1
10
90.398969
20
105.574161
11
87.266509
21
102.217231
0
LINE
8
Layer 1
10
87.266509
20
102.217231
11
85.990549
21
100.804351
0
LINE
8
Layer 1
10
85.990549
20
100.804351
11
81.394359
21
95.735931
0
LINE
8
Layer 1
10
81.394359
20
95.735931
11
78.536579
21
92.630081
0
LINE
8
Layer 1
10
78.536579
20
92.630081
11
75.429649
21
89.264001
0
LINE
8
Layer 1
10
75.429649
20
89.264001
11
70.999419
21
84.508231
0
LINE
8
Layer 1
10
70.999419
20
84.508231
11
70.579950
21
84.047272
0
LINE
8
Layer 1
10
70.579950
20
84.047272
11
69.979946
21
83.349077
0
LINE
8
Layer 1
10
69.979946
20
83.349077
11
68.897496
21
82.218757
0
LINE
8
Layer 1
10
68.897496
20
82.218757
11
69.184411
21
89.866777
0
LINE
8
Layer 1
10
69.184411
20
89.866777
11
69.603561
21
102.201077
0
LINE
8
Layer 1
10
69.603561
20
102.201077
11
69.844096
21
112.245477
0
LINE
8
Layer 1
10
69.844096
20
112.245477
11
70.069628
21
121.895737
0
LINE
8
Layer 1
10
70.069628
20
121.895737
11
70.223670
21
160.550537
0
LINE
8
Layer 1
10
70.223670
20
160.550537
11
70.172289
21
163.250447
0
LINE
8
Layer 1
10
70.172289
20
163.250447
11
70.111224
21
166.337167
0
LINE
8
Layer 1
10
70.111224
20
166.337167
11
70.083990
21
167.880897
0
LINE
8
Layer 1
10
70.083990
20
167.880897
11
70.081117
21
168.073875
0
LINE
8
Layer 1
10
70.081117
20
168.073875
11
70.080372
21
168.122067
0
LINE
8
Layer 1
10
70.080372
20
168.122067
11
70.078989
21
168.155045
0
LINE
8
Layer 1
10
70.078989
20
168.155045
11
70.072924
21
168.158556
0
LINE
8
Layer 1
10
70.072924
20
168.158556
11
70.049096
21
168.173133
0
LINE
8
Layer 1
10
70.049096
20
168.173133
11
70.003562
21
168.204197
0
LINE
8
Layer 1
10
70.003562
20
168.204197
11
69.847392
21
168.331217
0
LINE
8
Layer 1
10
69.847392
20
168.331217
11
69.813670
21
168.409198
0
LINE
8
Layer 1
10
69.813670
20
168.409198
11
69.802818
21
168.494197
0
LINE
8
Layer 1
10
69.802818
20
168.494197
11
69.793031
21
168.581432
0
LINE
8
Layer 1
10
69.793031
20
168.581432
11
69.788456
21
168.625687
0
LINE
8
Layer 1
10
69.788456
20
168.625687
11
69.786221
21
168.647816
0
LINE
8
Layer 1
10
69.786221
20
168.647816
11
69.797287
21
168.642604
0
LINE
8
Layer 1
10
69.797287
20
168.642604
11
69.900264
21
168.573880
0
LINE
8
Layer 1
10
69.900264
20
168.573880
11
69.974522
21
168.501112
0
LINE
8
Layer 1
10
69.974522
20
168.501112
11
70.029310
21
168.374835
0
LINE
8
Layer 1
10
70.029310
20
168.374835
11
70.078882
21
168.251323
0
LINE
8
Layer 1
10
70.078882
20
168.251323
11
70.080372
21
168.247493
0
LINE
8
Layer 1
10
70.080372
20
168.247493
11
70.093778
21
168.233026
0
LINE
8
Layer 1
10
70.093778
20
168.233026
11
70.185585
21
168.145684
0
LINE
8
Layer 1
10
70.185585
20
168.145684
11
70.369523
21
167.971322
0
LINE
8
Layer 1
10
70.369523
20
167.971322
11
70.737292
21
167.622704
0
LINE
8
Layer 1
10
70.737292
20
167.622704
11
71.473570
21
166.926104
0
LINE
8
Layer 1
10
71.473570
20
166.926104
11
77.096580
21
161.644164
0
LINE
8
Layer 1
10
77.096580
20
161.644164
11
77.959138
21
160.895223
0
LINE
8
Layer 1
10
77.959138
20
160.895223
11
79.557364
21
159.535190
0
LINE
8
Layer 1
10
79.557364
20
159.535190
11
81.112668
21
158.100943
0
LINE
8
Layer 1
10
81.112668
20
158.100943
11
82.797679
21
156.541652
0
LINE
8
Layer 1
10
82.797679
20
156.541652
11
84.541408
21
155.041243
0
LINE
8
Layer 1
10
84.541408
20
155.041243
11
87.261124
21
152.724436
0
LINE
8
Layer 1
10
87.261124
20
152.724436
11
89.712178
21
150.125053
0
LINE
8
Layer 1
10
89.712178
20
150.125053
11
90.766758
21
149.079733
0
LINE
8
Layer 1
10
90.766758
20
149.079733
11
93.049858
21
146.996423
0
LINE
8
Layer 1
10
93.049858
20
146.996423
11
103.612958
21
137.397773
0
LINE
8
Layer 1
10
103.612958
20
137.397773
11
106.769898
21
134.571373
0
LINE
8
Layer 1
10
106.769898
20
134.571373
11
109.924918
21
131.781353
0
LINE
8
Layer 1
10
109.924918
20
131.781353
11
111.507058
21
130.352513
0
LINE
8
Layer 1
10
111.507058
20
130.352513
11
111.860039
21
129.993894
0
LINE
8
Layer 1
10
111.860039
20
129.993894
11
111.903868
21
129.949108
0
LINE
8
Layer 1
10
111.903868
20
129.949108
11
111.917381
21
129.931873
0
LINE
8
Layer 1
10
111.917381
20
129.931873
11
111.927591
21
129.912298
0
LINE
8
Layer 1
10
111.927591
20
129.912298
11
111.947485
21
129.874853
0
LINE
8
Layer 1
10
111.947485
20
129.874853
11
112.036848
21
129.746233
0
LINE
8
Layer 1
10
112.036848
20
129.746233
11
112.309085
21
129.586871
0
LINE
8
Layer 1
10
112.309085
20
129.586871
11
112.200000
21
129.356000
0
LINE
8
Layer 1
10
112.200000
20
129.356000
11
112.199530
21
129.356390
0
LINE
8
Layer 1
10
117.103380
20
129.760114
11
117.035082
21
129.685966
0
LINE
8
Layer 1
10
117.035082
20
129.685966
11
116.893167
21
129.531709
0
LINE
8
Layer 1
10
116.893167
20
129.531709
11
116.242645
21
128.823408
0
LINE
8
Layer 1
10
116.242645
20
128.823408
11
115.427641
21
128.022767
0
LINE
8
Layer 1
10
115.427641
20
128.022767
11
114.259761
21
126.935417
0
LINE
8
Layer 1
10
114.259761
20
126.935417
11
114.002739
21
126.877440
0
LINE
8
Layer 1
10
114.002739
20
126.877440
11
114.179128
21
127.128079
0
LINE
8
Layer 1
10
114.179128
20
127.128079
11
116.097758
21
129.053939
0
LINE
8
Layer 1
10
116.097758
20
129.053939
11
116.567658
21
129.540007
0
LINE
8
Layer 1
10
116.567658
20
129.540007
11
116.793831
21
129.783624
0
LINE
8
Layer 1
10
116.793831
20
129.783624
11
116.557129
21
130.020126
0
LINE
8
Layer 1
10
116.557129
20
130.020126
11
115.606910
21
130.970875
0
LINE
8
Layer 1
10
115.606910
20
130.970875
11
115.489994
21
131.170556
0
LINE
8
Layer 1
10
115.489994
20
131.170556
11
115.894785
21
130.974917
0
LINE
8
Layer 1
10
115.894785
20
130.974917
11
116.822341
21
130.094593
0
LINE
8
Layer 1
10
116.822341
20
130.094593
11
117.095427
21
129.831082
0
LINE
8
Layer 1
10
117.095427
20
129.831082
11
117.131385
21
129.796400
0
LINE
8
Layer 1
10
117.131385
20
129.796400
11
117.103000
21
129.760000
0
LINE
8
Layer 1
10
117.103000
20
129.760000
11
117.103380
21
129.760114
0
LINE
8
Layer 1
10
82.952000
20
96.057100
11
81.606250
21
94.703370
0
LINE
8
Layer 1
10
81.606250
20
94.703370
11
81.325185
21
94.364963
0
LINE
8
Layer 1
10
81.325185
20
94.364963
11
81.671782
21
94.633475
0
LINE
8
Layer 1
10
81.671782
20
94.633475
11
85.224882
21
98.077855
0
LINE
8
Layer 1
10
85.224882
20
98.077855
11
85.890059
21
98.784001
0
LINE
8
Layer 1
10
85.890059
20
98.784001
11
86.170100
21
99.370305
0
LINE
8
Layer 1
10
86.170100
20
99.370305
11
82.952000
21
96.057100
0
LINE
8
Layer 1
10
82.952000
20
96.057100
11
82.952000
21
96.057100
0
LINE
8
Layer 1
10
95.443400
20
108.061000
11
95.656060
21
108.288660
0
LINE
8
Layer 1
10
95.656060
20
108.288660
11
95.346697
21
108.028234
0
LINE
8
Layer 1
10
95.346697
20
108.028234
11
95.214899
21
107.860253
0
LINE
8
Layer 1
10
95.214899
20
107.860253
11
95.443400
21
108.061000
0
LINE
8
Layer 1
10
106.179000
20
39.433300
11
106.824854
21
38.801490
0
LINE
8
Layer 1
10
106.824854
20
38.801490
11
107.088167
21
38.536701
0
LINE
8
Layer 1
10
107.088167
20
38.536701
11
107.154870
21
38.482232
0
LINE
8
Layer 1
10
107.154870
20
38.482232
11
107.104019
21
38.551594
0
LINE
8
Layer 1
10
107.104019
20
38.551594
11
106.437315
21
39.253618
0
LINE
8
Layer 1
10
106.437315
20
39.253618
11
106.179000
21
39.433300
0
LINE
8
Layer 1
10
106.179000
20
39.433300
11
106.179000
21
39.433300
0
LINE
8
Layer 1
10
109.891000
20
35.678800
11
109.854512
21
35.714642
0
LINE
8
Layer 1
10
109.854512
20
35.714642
11
109.853874
21
35.715280
0
LINE
8
Layer 1
10
109.853874
20
35.715280
11
109.863980
21
35.705174
0
LINE
8
Layer 1
10
109.863980
20
35.705174
11
109.891000
21
35.678800
0
LINE
8
Layer 1
10
109.891000
20
35.678800
11
109.891000
21
35.678800
0
LINE
8
Layer 1
10
110.084000
20
35.489300
11
110.004851
21
35.566959
0
LINE
8
Layer 1
10
110.004851
20
35.566959
11
109.890063
21
35.678874
0
LINE
8
Layer 1
10
109.890063
20
35.678874
11
109.992831
21
35.578022
0
LINE
8
Layer 1
10
109.992831
20
35.578022
11
110.084000
21
35.489300
0
LINE
8
Layer 1
10
110.084000
20
35.489300
11
110.084000
21
35.489300
0
LINE
8
Layer 1
10
104.513000
20
41.256000
11
104.546618
21
41.231001
0
LINE
8
Layer 1
10
104.546618
20
41.231001
11
104.508744
21
41.276958
0
LINE
8
Layer 1
10
104.508744
20
41.276958
11
104.464170
21
41.318554
0
LINE
8
Layer 1
10
104.464170
20
41.318554
11
104.513000
21
41.256000
0
LINE
8
Layer 1
10
104.513000
20
41.256000
11
104.513000
21
41.256000
 0 
ENDSEC
 0 
EOF