999
"DXF R12 Output" (www.mydxf.blogspot.com)
 0 
SECTION
 2 
HEADER
 9 
$ACADVER
 1 
AC1009
 9 
$EXTMIN
 10 
 0 
 20 
 0 
 9 
$EXTMAX
 10 
 8.5 
 20 
 11 
 0 
ENDSEC
 0 
SECTION
 2 
ENTITIES
0
LINE
8
Layer 1
10
6.349990
20
149.998000
11
6.212861
21
150.214490
0
LINE
8
Layer 1
10
6.212861
20
150.214490
11
6.325310
21
149.986404
0
LINE
8
Layer 1
10
6.325310
20
149.986404
11
7.740310
21
147.465864
0
LINE
8
Layer 1
10
7.740310
20
147.465864
11
8.262122
21
146.698734
0
LINE
8
Layer 1
10
8.262122
20
146.698734
11
6.905202
21
149.030984
0
LINE
8
Layer 1
10
6.905202
20
149.030984
11
6.349990
21
149.998000
0
LINE
8
Layer 1
10
6.349990
20
149.998000
11
6.349990
21
149.998000
0
LINE
8
Layer 1
10
0.436775
20
160.369000
11
0.505713
21
160.250278
0
LINE
8
Layer 1
10
0.505713
20
160.250278
11
0.507841
21
160.246767
0
LINE
8
Layer 1
10
0.507841
20
160.246767
11
0.485828
21
160.284867
0
LINE
8
Layer 1
10
0.485828
20
160.284867
11
0.436775
21
160.369000
0
LINE
8
Layer 1
10
0.436775
20
160.369000
11
0.436775
21
160.369000
0
LINE
8
Layer 1
10
0.021562
20
161.082000
11
0.187839
21
160.795722
0
LINE
8
Layer 1
10
0.187839
20
160.795722
11
0.436776
21
160.368590
0
LINE
8
Layer 1
10
0.436776
20
160.368590
11
0.212946
21
160.753913
0
LINE
8
Layer 1
10
0.212946
20
160.753913
11
0.038460
21
161.053364
0
LINE
8
Layer 1
10
0.038460
20
161.053364
11
0.021562
21
161.082000
0
LINE
8
Layer 1
10
0.021562
20
161.082000
11
0.021562
21
161.082000
0
LINE
8
Layer 1
10
11.748400
20
140.349000
11
11.830634
21
140.191766
0
LINE
8
Layer 1
10
11.830634
20
140.191766
11
11.923615
21
140.035381
0
LINE
8
Layer 1
10
11.923615
20
140.035381
11
11.816805
21
140.245382
0
LINE
8
Layer 1
10
11.816805
20
140.245382
11
11.748400
21
140.349000
0
LINE
8
Layer 1
10
11.748400
20
140.349000
11
11.748400
21
140.349000
0
LINE
8
Layer 1
10
133.228000
20
110.463000
11
131.370330
21
113.416210
0
LINE
8
Layer 1
10
131.370330
20
113.416210
11
129.891170
21
115.805260
0
LINE
8
Layer 1
10
129.891170
20
115.805260
11
128.543784
21
118.249449
0
LINE
8
Layer 1
10
128.543784
20
118.249449
11
127.771238
21
119.410186
0
LINE
8
Layer 1
10
127.771238
20
119.410186
11
126.871580
21
120.463050
0
LINE
8
Layer 1
10
126.871580
20
120.463050
11
126.467429
21
121.050864
0
LINE
8
Layer 1
10
126.467429
20
121.050864
11
126.275301
21
121.737850
0
LINE
8
Layer 1
10
126.275301
20
121.737850
11
126.141670
21
122.276938
0
LINE
8
Layer 1
10
126.141670
20
122.276938
11
125.832105
21
122.738070
0
LINE
8
Layer 1
10
125.832105
20
122.738070
11
124.839654
21
124.285420
0
LINE
8
Layer 1
10
124.839654
20
124.285420
11
123.268364
21
127.004260
0
LINE
8
Layer 1
10
123.268364
20
127.004260
11
122.847404
21
127.811071
0
LINE
8
Layer 1
10
122.847404
20
127.811071
11
123.202315
21
127.751308
0
LINE
8
Layer 1
10
123.202315
20
127.751308
11
123.628486
21
127.453450
0
LINE
8
Layer 1
10
123.628486
20
127.453450
11
124.056591
21
127.139854
0
LINE
8
Layer 1
10
124.056591
20
127.139854
11
124.417304
21
127.032878
0
LINE
8
Layer 1
10
124.417304
20
127.032878
11
123.992868
21
127.946166
0
LINE
8
Layer 1
10
123.992868
20
127.946166
11
123.467830
21
128.847568
0
LINE
8
Layer 1
10
123.467830
20
128.847568
11
122.991172
21
129.944722
0
LINE
8
Layer 1
10
122.991172
20
129.944722
11
122.320480
21
130.935238
0
LINE
8
Layer 1
10
122.320480
20
130.935238
11
122.159362
21
130.745730
0
LINE
8
Layer 1
10
122.159362
20
130.745730
11
121.956436
21
130.653016
0
LINE
8
Layer 1
10
121.956436
20
130.653016
11
121.421645
21
131.288552
0
LINE
8
Layer 1
10
121.421645
20
131.288552
11
120.381955
21
133.211222
0
LINE
8
Layer 1
10
120.381955
20
133.211222
11
119.460169
21
134.840228
0
LINE
8
Layer 1
10
119.460169
20
134.840228
11
118.577475
21
136.484002
0
LINE
8
Layer 1
10
118.577475
20
136.484002
11
117.861514
21
137.492842
0
LINE
8
Layer 1
10
117.861514
20
137.492842
11
116.450509
21
139.919742
0
LINE
8
Layer 1
10
116.450509
20
139.919742
11
115.343414
21
142.392122
0
LINE
8
Layer 1
10
115.343414
20
142.392122
11
114.728213
21
143.933927
0
LINE
8
Layer 1
10
114.728213
20
143.933927
11
113.812984
21
145.318842
0
LINE
8
Layer 1
10
113.812984
20
145.318842
11
113.197061
21
146.208358
0
LINE
8
Layer 1
10
113.197061
20
146.208358
11
112.741704
21
147.189812
0
LINE
8
Layer 1
10
112.741704
20
147.189812
11
112.240841
21
148.139216
0
LINE
8
Layer 1
10
112.240841
20
148.139216
11
111.564554
21
148.972802
0
LINE
8
Layer 1
10
111.564554
20
148.972802
11
111.067437
21
149.435982
0
LINE
8
Layer 1
10
111.067437
20
149.435982
11
110.479124
21
150.241212
0
LINE
8
Layer 1
10
110.479124
20
150.241212
11
110.042738
21
151.358772
0
LINE
8
Layer 1
10
110.042738
20
151.358772
11
109.425609
21
152.714202
0
LINE
8
Layer 1
10
109.425609
20
152.714202
11
108.435254
21
154.454570
0
LINE
8
Layer 1
10
108.435254
20
154.454570
11
107.660489
21
156.301032
0
LINE
8
Layer 1
10
107.660489
20
156.301032
11
107.293720
21
157.150020
0
LINE
8
Layer 1
10
107.293720
20
157.150020
11
106.773036
21
157.914342
0
LINE
8
Layer 1
10
106.773036
20
157.914342
11
105.913897
21
159.221917
0
LINE
8
Layer 1
10
105.913897
20
159.221917
11
105.067926
21
160.545522
0
LINE
8
Layer 1
10
105.067926
20
160.545522
11
104.611830
21
161.203026
0
LINE
8
Layer 1
10
104.611830
20
161.203026
11
104.283613
21
161.888455
0
LINE
8
Layer 1
10
104.283613
20
161.888455
11
103.676426
21
163.278302
0
LINE
8
Layer 1
10
103.676426
20
163.278302
11
103.341742
21
163.898093
0
LINE
8
Layer 1
10
103.341742
20
163.898093
11
102.974825
21
164.521818
0
LINE
8
Layer 1
10
102.974825
20
164.521818
11
100.202795
21
169.083008
0
LINE
8
Layer 1
10
100.202795
20
169.083008
11
97.418000
21
173.852000
0
LINE
8
Layer 1
10
97.418000
20
173.852000
11
97.348957
21
173.707531
0
LINE
8
Layer 1
10
97.348957
20
173.707531
11
94.914797
21
168.869531
0
LINE
8
Layer 1
10
94.914797
20
168.869531
11
92.512657
21
163.771841
0
LINE
8
Layer 1
10
92.512657
20
163.771841
11
92.182548
21
163.136094
0
LINE
8
Layer 1
10
92.182548
20
163.136094
11
92.086593
21
162.972369
0
LINE
8
Layer 1
10
92.086593
20
162.972369
11
92.038189
21
162.889709
0
LINE
8
Layer 1
10
92.038189
20
162.889709
11
92.003295
21
162.834921
0
LINE
8
Layer 1
10
92.003295
20
162.834921
11
91.879357
21
162.631622
0
LINE
8
Layer 1
10
91.879357
20
162.631622
11
89.098387
21
157.267132
0
LINE
8
Layer 1
10
89.098387
20
157.267132
11
88.552640
21
156.113512
0
LINE
8
Layer 1
10
88.552640
20
156.113512
11
82.638900
21
144.853000
0
LINE
8
Layer 1
10
82.638900
20
144.853000
11
76.508760
21
132.945500
0
LINE
8
Layer 1
10
76.508760
20
132.945500
11
70.191280
21
120.395900
0
LINE
8
Layer 1
10
70.191280
20
120.395900
11
68.629890
21
117.246840
0
LINE
8
Layer 1
10
68.629890
20
117.246840
11
64.796877
21
109.702818
0
LINE
8
Layer 1
10
64.796877
20
109.702818
11
61.096870
21
102.082640
0
LINE
8
Layer 1
10
61.096870
20
102.082640
11
50.287170
21
79.421840
0
LINE
8
Layer 1
10
50.287170
20
79.421840
11
48.063650
21
83.025260
0
LINE
8
Layer 1
10
48.063650
20
83.025260
11
47.211306
21
84.354420
0
LINE
8
Layer 1
10
47.211306
20
84.354420
11
45.270556
21
87.399220
0
LINE
8
Layer 1
10
45.270556
20
87.399220
11
41.826176
21
92.958510
0
LINE
8
Layer 1
10
41.826176
20
92.958510
11
39.356266
21
97.002250
0
LINE
8
Layer 1
10
39.356266
20
97.002250
11
36.993386
21
100.842060
0
LINE
8
Layer 1
10
36.993386
20
100.842060
11
36.625724
21
101.399508
0
LINE
8
Layer 1
10
36.625724
20
101.399508
11
35.289224
21
103.467918
0
LINE
8
Layer 1
10
35.289224
20
103.467918
11
33.842834
21
105.730908
0
LINE
8
Layer 1
10
33.842834
20
105.730908
11
32.690180
21
107.469991
0
LINE
8
Layer 1
10
32.690180
20
107.469991
11
31.693154
21
109.302738
0
LINE
8
Layer 1
10
31.693154
20
109.302738
11
31.258685
21
110.053485
0
LINE
8
Layer 1
10
31.258685
20
110.053485
11
30.304532
21
111.586895
0
LINE
8
Layer 1
10
30.304532
20
111.586895
11
25.906700
21
118.673000
0
LINE
8
Layer 1
10
25.906700
20
118.673000
11
24.596060
21
120.773010
0
LINE
8
Layer 1
10
24.596060
20
120.773010
11
23.287220
21
122.856210
0
LINE
8
Layer 1
10
23.287220
20
122.856210
11
22.046260
21
124.938030
0
LINE
8
Layer 1
10
22.046260
20
124.938030
11
21.567959
21
125.693256
0
LINE
8
Layer 1
10
21.567959
20
125.693256
11
19.555289
21
128.900506
0
LINE
8
Layer 1
10
19.555289
20
128.900506
11
16.739319
21
133.517976
0
LINE
8
Layer 1
10
16.739319
20
133.517976
11
15.564949
21
135.432456
0
LINE
8
Layer 1
10
15.564949
20
135.432456
11
13.946539
21
138.057466
0
LINE
8
Layer 1
10
13.946539
20
138.057466
11
13.594515
21
138.628745
0
LINE
8
Layer 1
10
13.594515
20
138.628745
11
12.180145
21
140.905675
0
LINE
8
Layer 1
10
12.180145
20
140.905675
11
10.779825
21
143.170045
0
LINE
8
Layer 1
10
10.779825
20
143.170045
11
9.396735
21
145.467615
0
LINE
8
Layer 1
10
9.396735
20
145.467615
11
8.816306
21
146.415491
0
LINE
8
Layer 1
10
8.816306
20
146.415491
11
6.737146
21
149.826571
0
LINE
8
Layer 1
10
6.737146
20
149.826571
11
5.465116
21
151.937541
0
LINE
8
Layer 1
10
5.465116
20
151.937541
11
4.087986
21
154.230741
0
LINE
8
Layer 1
10
4.087986
20
154.230741
11
2.144466
21
157.491291
0
LINE
8
Layer 1
10
2.144466
20
157.491291
11
1.956698
21
157.803101
0
LINE
8
Layer 1
10
1.956698
20
157.803101
11
1.674476
21
158.259700
0
LINE
8
Layer 1
10
1.674476
20
158.259700
11
0.783375
21
159.780000
0
LINE
8
Layer 1
10
0.783375
20
159.780000
11
0.507842
21
160.246705
0
LINE
8
Layer 1
10
0.507842
20
160.246705
11
0.964014
21
159.455848
0
LINE
8
Layer 1
10
0.964014
20
159.455848
11
2.735614
21
156.389978
0
LINE
8
Layer 1
10
2.735614
20
156.389978
11
3.971364
21
154.257838
0
LINE
8
Layer 1
10
3.971364
20
154.257838
11
4.966479
21
152.540598
0
LINE
8
Layer 1
10
4.966479
20
152.540598
11
6.941919
21
149.154938
0
LINE
8
Layer 1
10
6.941919
20
149.154938
11
7.424047
21
148.292487
0
LINE
8
Layer 1
10
7.424047
20
148.292487
11
7.794689
21
147.621953
0
LINE
8
Layer 1
10
7.794689
20
147.621953
11
8.447669
21
146.499923
0
LINE
8
Layer 1
10
8.447669
20
146.499923
11
9.548319
21
144.574803
0
LINE
8
Layer 1
10
9.548319
20
144.574803
11
9.861724
21
144.015225
0
LINE
8
Layer 1
10
9.861724
20
144.015225
11
9.236509
21
144.864166
0
LINE
8
Layer 1
10
9.236509
20
144.864166
11
9.933425
21
143.599796
0
LINE
8
Layer 1
10
9.933425
20
143.599796
11
10.748324
21
142.129366
0
LINE
8
Layer 1
10
10.748324
20
142.129366
11
10.788964
21
142.194156
0
LINE
8
Layer 1
10
10.788964
20
142.194156
11
11.092477
21
141.699472
0
LINE
8
Layer 1
10
11.092477
20
141.699472
11
11.840780
21
140.351272
0
LINE
8
Layer 1
10
11.840780
20
140.351272
11
13.120680
21
138.045092
0
LINE
8
Layer 1
10
13.120680
20
138.045092
11
13.565044
21
137.294875
0
LINE
8
Layer 1
10
13.565044
20
137.294875
11
15.410054
21
133.879535
0
LINE
8
Layer 1
10
15.410054
20
133.879535
11
16.512414
21
131.828245
0
LINE
8
Layer 1
10
16.512414
20
131.828245
11
17.247097
21
130.494515
0
LINE
8
Layer 1
10
17.247097
20
130.494515
11
18.002845
21
129.189295
0
LINE
8
Layer 1
10
18.002845
20
129.189295
11
18.632956
21
128.208441
0
LINE
8
Layer 1
10
18.632956
20
128.208441
11
18.996255
21
127.454925
0
LINE
8
Layer 1
10
18.996255
20
127.454925
11
19.467320
21
126.521304
0
LINE
8
Layer 1
10
19.467320
20
126.521304
11
20.755200
21
124.017784
0
LINE
8
Layer 1
10
20.755200
20
124.017784
11
21.367650
21
122.871184
0
LINE
8
Layer 1
10
21.367650
20
122.871184
11
22.469150
21
120.950644
0
LINE
8
Layer 1
10
22.469150
20
120.950644
11
23.455962
21
119.026694
0
LINE
8
Layer 1
10
23.455962
20
119.026694
11
23.765859
21
118.436159
0
LINE
8
Layer 1
10
23.765859
20
118.436159
11
26.114699
21
114.119009
0
LINE
8
Layer 1
10
26.114699
20
114.119009
11
28.492269
21
109.782609
0
LINE
8
Layer 1
10
28.492269
20
109.782609
11
28.781527
21
109.196756
0
LINE
8
Layer 1
10
28.781527
20
109.196756
11
30.779097
21
105.423966
0
LINE
8
Layer 1
10
30.779097
20
105.423966
11
31.217503
21
104.636090
0
LINE
8
Layer 1
10
31.217503
20
104.636090
11
35.359543
21
96.660520
0
LINE
8
Layer 1
10
35.359543
20
96.660520
11
39.722013
21
88.259730
0
LINE
8
Layer 1
10
39.722013
20
88.259730
11
44.322883
21
79.458200
0
LINE
8
Layer 1
10
44.322883
20
79.458200
11
45.480873
21
77.260100
0
LINE
8
Layer 1
10
45.480873
20
77.260100
11
47.459283
21
73.387000
0
LINE
8
Layer 1
10
47.459283
20
73.387000
11
41.966063
21
61.296100
0
LINE
8
Layer 1
10
41.966063
20
61.296100
11
35.294863
21
46.453700
0
LINE
8
Layer 1
10
35.294863
20
46.453700
11
28.520153
21
31.641400
0
LINE
8
Layer 1
10
28.520153
20
31.641400
11
24.115133
21
22.417210
0
LINE
8
Layer 1
10
24.115133
20
22.417210
11
20.919293
21
15.810025
0
LINE
8
Layer 1
10
20.919293
20
15.810025
11
17.959573
21
9.114810
0
LINE
8
Layer 1
10
17.959573
20
9.114810
11
16.772931
21
5.775221
0
LINE
8
Layer 1
10
16.772931
20
5.775221
11
16.164033
21
2.694780
0
LINE
8
Layer 1
10
16.164033
20
2.694780
11
16.201068
21
1.395458
0
LINE
8
Layer 1
10
16.201068
20
1.395458
11
16.368954
21
0.972953
0
LINE
8
Layer 1
10
16.368954
20
0.972953
11
16.637850
21
0.733680
0
LINE
8
Layer 1
10
16.637850
20
0.733680
11
17.008830
21
0.701486
0
LINE
8
Layer 1
10
17.008830
20
0.701486
11
17.482966
21
0.900217
0
LINE
8
Layer 1
10
17.482966
20
0.900217
11
18.745003
21
2.085841
0
LINE
8
Layer 1
10
18.745003
20
2.085841
11
20.263482
21
4.133349
0
LINE
8
Layer 1
10
20.263482
20
4.133349
11
21.557033
21
6.329891
0
LINE
8
Layer 1
10
21.557033
20
6.329891
11
27.661423
21
17.848691
0
LINE
8
Layer 1
10
27.661423
20
17.848691
11
34.977523
21
31.980191
0
LINE
8
Layer 1
10
34.977523
20
31.980191
11
43.372033
21
48.080891
0
LINE
8
Layer 1
10
43.372033
20
48.080891
11
49.078443
21
59.123091
0
LINE
8
Layer 1
10
49.078443
20
59.123091
11
52.011753
21
64.836631
0
LINE
8
Layer 1
10
52.011753
20
64.836631
11
60.520093
21
49.189331
0
LINE
8
Layer 1
10
60.520093
20
49.189331
11
66.457253
21
38.816831
0
LINE
8
Layer 1
10
66.457253
20
38.816831
11
72.292173
21
28.916571
0
LINE
8
Layer 1
10
72.292173
20
28.916571
11
78.085393
21
18.977691
0
LINE
8
Layer 1
10
78.085393
20
18.977691
11
81.573923
21
12.654151
0
LINE
8
Layer 1
10
81.573923
20
12.654151
11
84.037465
21
8.098943
0
LINE
8
Layer 1
10
84.037465
20
8.098943
11
86.764053
21
3.696141
0
LINE
8
Layer 1
10
86.764053
20
3.696141
11
87.472975
21
2.702063
0
LINE
8
Layer 1
10
87.472975
20
2.702063
11
88.296113
21
1.806562
0
LINE
8
Layer 1
10
88.296113
20
1.806562
11
89.223359
21
1.019355
0
LINE
8
Layer 1
10
89.223359
20
1.019355
11
90.244603
21
0.350161
0
LINE
8
Layer 1
10
90.244603
20
0.350161
11
91.286837
21
0.009135
0
LINE
8
Layer 1
10
91.286837
20
0.009135
11
92.165155
21
0.183298
0
LINE
8
Layer 1
10
92.165155
20
0.183298
11
92.496037
21
0.481352
0
LINE
8
Layer 1
10
92.496037
20
0.481352
11
92.729767
21
0.929537
0
LINE
8
Layer 1
10
92.729767
20
0.929537
11
92.847624
21
1.534963
0
LINE
8
Layer 1
10
92.847624
20
1.534963
11
92.830883
21
2.304741
0
LINE
8
Layer 1
10
92.830883
20
2.304741
11
92.462020
21
4.104199
0
LINE
8
Layer 1
10
92.462020
20
4.104199
11
91.773643
21
5.807211
0
LINE
8
Layer 1
10
91.773643
20
5.807211
11
87.622563
21
14.034911
0
LINE
8
Layer 1
10
87.622563
20
14.034911
11
82.333703
21
23.954641
0
LINE
8
Layer 1
10
82.333703
20
23.954641
11
76.264953
21
35.252841
0
LINE
8
Layer 1
10
76.264953
20
35.252841
11
72.020783
21
42.935961
0
LINE
8
Layer 1
10
72.020783
20
42.935961
11
69.372473
21
47.646091
0
LINE
8
Layer 1
10
69.372473
20
47.646091
11
65.794793
21
53.901021
0
LINE
8
Layer 1
10
65.794793
20
53.901021
11
62.800523
21
58.948071
0
LINE
8
Layer 1
10
62.800523
20
58.948071
11
59.927313
21
63.799161
0
LINE
8
Layer 1
10
59.927313
20
63.799161
11
55.307403
21
71.286231
0
LINE
8
Layer 1
10
55.307403
20
71.286231
11
57.203153
21
75.023701
0
LINE
8
Layer 1
10
57.203153
20
75.023701
11
60.889023
21
82.469061
0
LINE
8
Layer 1
10
60.889023
20
82.469061
11
64.444783
21
89.615371
0
LINE
8
Layer 1
10
64.444783
20
89.615371
11
78.222783
21
118.463171
0
LINE
8
Layer 1
10
78.222783
20
118.463171
11
79.143956
21
120.497861
0
LINE
8
Layer 1
10
79.143956
20
120.497861
11
81.259706
21
125.146711
0
LINE
8
Layer 1
10
81.259706
20
125.146711
11
82.552796
21
127.895661
0
LINE
8
Layer 1
10
82.552796
20
127.895661
11
84.609086
21
123.980751
0
LINE
8
Layer 1
10
84.609086
20
123.980751
11
87.083776
21
119.335831
0
LINE
8
Layer 1
10
87.083776
20
119.335831
11
88.848576
21
116.199111
0
LINE
8
Layer 1
10
88.848576
20
116.199111
11
89.962736
21
114.284841
0
LINE
8
Layer 1
10
89.962736
20
114.284841
11
91.484866
21
111.754081
0
LINE
8
Layer 1
10
91.484866
20
111.754081
11
92.788166
21
109.732151
0
LINE
8
Layer 1
10
92.788166
20
109.732151
11
94.037316
21
107.787781
0
LINE
8
Layer 1
10
94.037316
20
107.787781
11
99.320856
21
100.170721
0
LINE
8
Layer 1
10
99.320856
20
100.170721
11
99.708516
21
99.650185
0
LINE
8
Layer 1
10
99.708516
20
99.650185
11
100.588521
21
98.455495
0
LINE
8
Layer 1
10
100.588521
20
98.455495
11
102.126081
21
96.255585
0
LINE
8
Layer 1
10
102.126081
20
96.255585
11
103.219591
21
94.648875
0
LINE
8
Layer 1
10
103.219591
20
94.648875
11
104.270231
21
93.126415
0
LINE
8
Layer 1
10
104.270231
20
93.126415
11
104.439911
21
92.910033
0
LINE
8
Layer 1
10
104.439911
20
92.910033
11
105.050447
21
92.101837
0
LINE
8
Layer 1
10
105.050447
20
92.101837
11
105.707152
21
91.214599
0
LINE
8
Layer 1
10
105.707152
20
91.214599
11
106.650773
21
89.789379
0
LINE
8
Layer 1
10
106.650773
20
89.789379
11
106.837040
21
89.486611
0
LINE
8
Layer 1
10
106.837040
20
89.486611
11
107.263957
21
88.880545
0
LINE
8
Layer 1
10
107.263957
20
88.880545
11
109.228967
21
86.078085
0
LINE
8
Layer 1
10
109.228967
20
86.078085
11
109.816418
21
85.248934
0
LINE
8
Layer 1
10
109.816418
20
85.248934
11
110.405133
21
84.427973
0
LINE
8
Layer 1
10
110.405133
20
84.427973
11
110.946836
21
83.594989
0
LINE
8
Layer 1
10
110.946836
20
83.594989
11
111.162902
21
83.298072
0
LINE
8
Layer 1
10
111.162902
20
83.298072
11
112.067706
21
82.033722
0
LINE
8
Layer 1
10
112.067706
20
82.033722
11
113.313456
21
80.198282
0
LINE
8
Layer 1
10
113.313456
20
80.198282
11
113.834720
21
79.438492
0
LINE
8
Layer 1
10
113.834720
20
79.438492
11
114.555148
21
78.398272
0
LINE
8
Layer 1
10
114.555148
20
78.398272
11
114.711745
21
78.171783
0
LINE
8
Layer 1
10
114.711745
20
78.171783
11
115.344089
21
77.271565
0
LINE
8
Layer 1
10
115.344089
20
77.271565
11
115.968454
21
76.374965
0
LINE
8
Layer 1
10
115.968454
20
76.374965
11
116.575691
21
75.458257
0
LINE
8
Layer 1
10
116.575691
20
75.458257
11
116.833032
21
75.081979
0
LINE
8
Layer 1
10
116.833032
20
75.081979
11
117.752511
21
73.725799
0
LINE
8
Layer 1
10
117.752511
20
73.725799
11
118.311344
21
72.883776
0
LINE
8
Layer 1
10
118.311344
20
72.883776
11
118.915070
21
71.968132
0
LINE
8
Layer 1
10
118.915070
20
71.968132
11
119.763370
21
70.663552
0
LINE
8
Layer 1
10
119.763370
20
70.663552
11
119.845711
21
70.539188
0
LINE
8
Layer 1
10
119.845711
20
70.539188
11
119.971562
21
70.358442
0
LINE
8
Layer 1
10
119.971562
20
70.358442
11
120.356564
21
69.747375
0
LINE
8
Layer 1
10
120.356564
20
69.747375
11
120.476672
21
69.559395
0
LINE
8
Layer 1
10
120.476672
20
69.559395
11
120.281033
21
69.879398
0
LINE
8
Layer 1
10
120.281033
20
69.879398
11
119.522420
21
71.116528
0
LINE
8
Layer 1
10
119.522420
20
71.116528
11
118.992204
21
71.976106
0
LINE
8
Layer 1
10
118.992204
20
71.976106
11
118.565394
21
72.668557
0
LINE
8
Layer 1
10
118.565394
20
72.668557
11
117.714325
21
74.031127
0
LINE
8
Layer 1
10
117.714325
20
74.031127
11
117.512198
21
74.382087
0
LINE
8
Layer 1
10
117.512198
20
74.382087
11
117.358048
21
74.655811
0
LINE
8
Layer 1
10
117.358048
20
74.655811
11
117.077090
21
75.107727
0
LINE
8
Layer 1
10
117.077090
20
75.107727
11
116.609002
21
75.886773
0
LINE
8
Layer 1
10
116.609002
20
75.886773
11
116.477512
21
76.114436
0
LINE
8
Layer 1
10
116.477512
20
76.114436
11
116.781555
21
75.796987
0
LINE
8
Layer 1
10
116.781555
20
75.796987
11
116.492193
21
76.313479
0
LINE
8
Layer 1
10
116.492193
20
76.313479
11
116.152615
21
76.913268
0
LINE
8
Layer 1
10
116.152615
20
76.913268
11
116.114210
21
76.872628
0
LINE
8
Layer 1
10
116.114210
20
76.872628
11
115.979424
21
77.068905
0
LINE
8
Layer 1
10
115.979424
20
77.068905
11
115.667286
21
77.618589
0
LINE
8
Layer 1
10
115.667286
20
77.618589
11
115.133452
21
78.559125
0
LINE
8
Layer 1
10
115.133452
20
78.559125
11
114.940155
21
78.859765
0
LINE
8
Layer 1
10
114.940155
20
78.859765
11
114.184830
21
80.261905
0
LINE
8
Layer 1
10
114.184830
20
80.261905
11
113.735149
21
81.105100
0
LINE
8
Layer 1
10
113.735149
20
81.105100
11
113.430253
21
81.649997
0
LINE
8
Layer 1
10
113.430253
20
81.649997
11
113.106209
21
82.176383
0
LINE
8
Layer 1
10
113.106209
20
82.176383
11
112.819294
21
82.560321
0
LINE
8
Layer 1
10
112.819294
20
82.560321
11
112.683229
21
82.877874
0
LINE
8
Layer 1
10
112.683229
20
82.877874
11
112.499929
21
83.267340
0
LINE
8
Layer 1
10
112.499929
20
83.267340
11
111.991204
21
84.307240
0
LINE
8
Layer 1
10
111.991204
20
84.307240
11
111.742479
21
84.779265
0
LINE
8
Layer 1
10
111.742479
20
84.779265
11
111.273008
21
85.555756
0
LINE
8
Layer 1
10
111.273008
20
85.555756
11
110.884177
21
86.355441
0
LINE
8
Layer 1
10
110.884177
20
86.355441
11
110.759920
21
86.599591
0
LINE
8
Layer 1
10
110.759920
20
86.599591
11
109.793425
21
88.368841
0
LINE
8
Layer 1
10
109.793425
20
88.368841
11
108.809805
21
90.142571
0
LINE
8
Layer 1
10
108.809805
20
90.142571
11
108.699273
21
90.388209
0
LINE
8
Layer 1
10
108.699273
20
90.388209
11
107.893097
21
91.944709
0
LINE
8
Layer 1
10
107.893097
20
91.944709
11
107.709904
21
92.265776
0
LINE
8
Layer 1
10
107.709904
20
92.265776
11
106.062014
21
95.571216
0
LINE
8
Layer 1
10
106.062014
20
95.571216
11
104.326584
21
99.052936
0
LINE
8
Layer 1
10
104.326584
20
99.052936
11
102.487214
21
102.695086
0
LINE
8
Layer 1
10
102.487214
20
102.695086
11
102.021573
21
103.603068
0
LINE
8
Layer 1
10
102.021573
20
103.603068
11
99.800393
21
107.990118
0
LINE
8
Layer 1
10
99.800393
20
107.990118
11
95.900053
21
115.150688
0
LINE
8
Layer 1
10
95.900053
20
115.150688
11
93.372913
21
119.346668
0
LINE
8
Layer 1
10
93.372913
20
119.346668
11
90.843533
21
123.320088
0
LINE
8
Layer 1
10
90.843533
20
123.320088
11
88.349373
21
127.321168
0
LINE
8
Layer 1
10
88.349373
20
127.321168
11
86.900113
21
129.903628
0
LINE
8
Layer 1
10
86.900113
20
129.903628
11
86.032050
21
131.538656
0
LINE
8
Layer 1
10
86.032050
20
131.538656
11
85.007653
21
133.080558
0
LINE
8
Layer 1
10
85.007653
20
133.080558
11
85.213187
21
133.513537
0
LINE
8
Layer 1
10
85.213187
20
133.513537
11
88.127247
21
139.553247
0
LINE
8
Layer 1
10
88.127247
20
139.553247
11
89.466149
21
142.447557
0
LINE
8
Layer 1
10
89.466149
20
142.447557
11
90.873427
21
145.312107
0
LINE
8
Layer 1
10
90.873427
20
145.312107
11
91.239387
21
146.183069
0
LINE
8
Layer 1
10
91.239387
20
146.183069
11
91.890884
21
147.792025
0
LINE
8
Layer 1
10
91.890884
20
147.792025
11
92.628547
21
149.378399
0
LINE
8
Layer 1
10
92.628547
20
149.378399
11
93.433338
21
151.097956
0
LINE
8
Layer 1
10
93.433338
20
151.097956
11
94.161537
21
152.855659
0
LINE
8
Layer 1
10
94.161537
20
152.855659
11
95.273187
21
155.597286
0
LINE
8
Layer 1
10
95.273187
20
155.597286
11
96.771900
21
158.148000
0
LINE
8
Layer 1
10
96.771900
20
158.148000
11
97.349352
21
159.233010
0
LINE
8
Layer 1
10
97.349352
20
159.233010
11
97.621160
21
159.811311
0
LINE
8
Layer 1
10
97.621160
20
159.811311
11
97.755416
21
160.101099
0
LINE
8
Layer 1
10
97.755416
20
160.101099
11
97.769352
21
160.131418
0
LINE
8
Layer 1
10
97.769352
20
160.131418
11
97.770416
21
160.135033
0
LINE
8
Layer 1
10
97.770416
20
160.135033
11
97.772759
21
160.142481
0
LINE
8
Layer 1
10
97.772759
20
160.142481
11
97.777226
21
160.157589
0
LINE
8
Layer 1
10
97.777226
20
160.157589
11
97.815631
21
160.284716
0
LINE
8
Layer 1
10
97.815631
20
160.284716
11
98.077440
21
161.024400
0
LINE
8
Layer 1
10
98.077440
20
161.024400
11
98.479251
21
160.513654
0
LINE
8
Layer 1
10
98.479251
20
160.513654
11
98.635102
21
160.325993
0
LINE
8
Layer 1
10
98.635102
20
160.325993
11
98.656379
21
160.301312
0
LINE
8
Layer 1
10
98.656379
20
160.301312
11
98.667123
21
160.288759
0
LINE
8
Layer 1
10
98.667123
20
160.288759
11
98.670422
21
160.284715
0
LINE
8
Layer 1
10
98.670422
20
160.284715
11
98.685315
21
160.261736
0
LINE
8
Layer 1
10
98.685315
20
160.261736
11
98.714996
21
160.215779
0
LINE
8
Layer 1
10
98.714996
20
160.215779
11
98.952870
21
159.848117
0
LINE
8
Layer 1
10
98.952870
20
159.848117
11
99.428191
21
159.112689
0
LINE
8
Layer 1
10
99.428191
20
159.112689
11
100.367147
21
157.600060
0
LINE
8
Layer 1
10
100.367147
20
157.600060
11
101.339051
21
156.201609
0
LINE
8
Layer 1
10
101.339051
20
156.201609
11
102.280570
21
154.711721
0
LINE
8
Layer 1
10
102.280570
20
154.711721
11
103.063951
21
153.234999
0
LINE
8
Layer 1
10
103.063951
20
153.234999
11
103.771403
21
152.185629
0
LINE
8
Layer 1
10
103.771403
20
152.185629
11
106.740563
21
147.722519
0
LINE
8
Layer 1
10
106.740563
20
147.722519
11
110.782393
21
141.222169
0
LINE
8
Layer 1
10
110.782393
20
141.222169
11
112.489833
21
138.540879
0
LINE
8
Layer 1
10
112.489833
20
138.540879
11
113.760791
21
136.763759
0
LINE
8
Layer 1
10
113.760791
20
136.763759
11
114.880163
21
134.887459
0
LINE
8
Layer 1
10
114.880163
20
134.887459
11
115.402717
21
134.093944
0
LINE
8
Layer 1
10
115.402717
20
134.093944
11
117.558257
21
130.966694
0
LINE
8
Layer 1
10
117.558257
20
130.966694
11
118.600101
21
129.374536
0
LINE
8
Layer 1
10
118.600101
20
129.374536
11
119.710717
21
127.867104
0
LINE
8
Layer 1
10
119.710717
20
127.867104
11
120.729486
21
126.274732
0
LINE
8
Layer 1
10
120.729486
20
126.274732
11
121.712107
21
124.641664
0
LINE
8
Layer 1
10
121.712107
20
124.641664
11
122.605410
21
123.344314
0
LINE
8
Layer 1
10
122.605410
20
123.344314
11
124.279914
21
121.090314
0
LINE
8
Layer 1
10
124.279914
20
121.090314
11
125.837770
21
118.694294
0
LINE
8
Layer 1
10
125.837770
20
118.694294
11
127.788420
21
115.798114
0
LINE
8
Layer 1
10
127.788420
20
115.798114
11
129.930660
21
112.670114
0
LINE
8
Layer 1
10
129.930660
20
112.670114
11
132.958650
21
108.223704
0
LINE
8
Layer 1
10
132.958650
20
108.223704
11
133.324610
21
107.843808
0
LINE
8
Layer 1
10
133.324610
20
107.843808
11
133.774609
21
107.950219
0
LINE
8
Layer 1
10
133.774609
20
107.950219
11
134.143869
21
107.454872
0
LINE
8
Layer 1
10
134.143869
20
107.454872
11
134.821405
21
106.390358
0
LINE
8
Layer 1
10
134.821405
20
106.390358
11
135.515049
21
105.369332
0
LINE
8
Layer 1
10
135.515049
20
105.369332
11
135.786951
21
105.031493
0
LINE
8
Layer 1
10
135.786951
20
105.031493
11
136.195797
21
104.886885
0
LINE
8
Layer 1
10
136.195797
20
104.886885
11
135.746006
21
106.126575
0
LINE
8
Layer 1
10
135.746006
20
106.126575
11
133.228000
21
110.463000
0
LINE
8
Layer 1
10
133.228000
20
110.463000
11
133.228000
21
110.463000
0
LINE
8
Layer 1
10
7.309900
20
148.757000
11
7.186707
21
148.985724
0
LINE
8
Layer 1
10
7.186707
20
148.985724
11
7.276171
21
148.845177
0
LINE
8
Layer 1
10
7.276171
20
148.845177
11
7.694365
21
148.127834
0
LINE
8
Layer 1
10
7.694365
20
148.127834
11
7.309900
21
148.757000
0
LINE
8
Layer 1
10
7.309900
20
148.757000
11
7.309900
21
148.757000
0
LINE
8
Layer 1
10
14.052590
20
136.732900
11
13.840359
21
137.104073
0
LINE
8
Layer 1
10
13.840359
20
137.104073
11
13.870678
21
137.080242
0
LINE
8
Layer 1
10
13.870678
20
137.080242
11
14.084724
21
136.703219
0
LINE
8
Layer 1
10
14.084724
20
136.703219
11
14.052600
21
136.733000
0
LINE
8
Layer 1
10
14.052600
20
136.733000
11
14.052590
21
136.732900
0
LINE
8
Layer 1
10
17.728600
20
130.291000
11
17.601685
21
130.411001
0
LINE
8
Layer 1
10
17.601685
20
130.411001
11
17.084234
21
131.213451
0
LINE
8
Layer 1
10
17.084234
20
131.213451
11
16.393276
21
132.614951
0
LINE
8
Layer 1
10
16.393276
20
132.614951
11
16.383167
21
132.678567
0
LINE
8
Layer 1
10
16.383167
20
132.678567
11
16.557106
21
132.439418
0
LINE
8
Layer 1
10
16.557106
20
132.439418
11
16.680618
21
132.226758
0
LINE
8
Layer 1
10
16.680618
20
132.226758
11
17.413811
21
130.922918
0
LINE
8
Layer 1
10
17.413811
20
130.922918
11
17.728600
21
130.291000
0
LINE
8
Layer 1
10
17.728600
20
130.291000
11
17.728600
21
130.291000
0
LINE
8
Layer 1
10
20.939700
20
124.269000
11
20.810338
21
124.386768
0
LINE
8
Layer 1
10
20.810338
20
124.386768
11
20.114695
21
125.584648
0
LINE
8
Layer 1
10
20.114695
20
125.584648
11
19.538629
21
126.671678
0
LINE
8
Layer 1
10
19.538629
20
126.671678
11
19.523310
21
126.804765
0
LINE
8
Layer 1
10
19.523310
20
126.804765
11
19.620756
21
126.672849
0
LINE
8
Layer 1
10
19.620756
20
126.672849
11
20.900766
21
124.384969
0
LINE
8
Layer 1
10
20.900766
20
124.384969
11
20.939700
21
124.269000
0
LINE
8
Layer 1
10
20.939700
20
124.269000
11
20.939700
21
124.269000
0
LINE
8
Layer 1
10
117.520000
20
74.165900
11
117.570320
21
74.071858
0
LINE
8
Layer 1
10
117.570320
20
74.071858
11
117.529787
21
74.127069
0
LINE
8
Layer 1
10
117.529787
20
74.127069
11
117.349679
21
74.415796
0
LINE
8
Layer 1
10
117.349679
20
74.415796
11
117.520000
21
74.165900
0
LINE
8
Layer 1
10
117.520000
20
74.165900
11
117.520000
21
74.165900
0
LINE
8
Layer 1
10
114.688070
20
79.056140
11
114.778282
21
78.905925
0
LINE
8
Layer 1
10
114.778282
20
78.905925
11
114.760943
21
78.912416
0
LINE
8
Layer 1
10
114.760943
20
78.912416
11
114.670197
21
79.065287
0
LINE
8
Layer 1
10
114.670197
20
79.065287
11
114.688000
21
79.056100
0
LINE
8
Layer 1
10
114.688000
20
79.056100
11
114.688070
21
79.056140
0
LINE
8
Layer 1
10
113.126470
20
81.664130
11
113.196365
21
81.626577
0
LINE
8
Layer 1
10
113.196365
20
81.626577
11
113.432430
21
81.312747
0
LINE
8
Layer 1
10
113.432430
20
81.312747
11
113.696260
21
80.725085
0
LINE
8
Layer 1
10
113.696260
20
80.725085
11
113.693390
21
80.694342
0
LINE
8
Layer 1
10
113.693390
20
80.694342
11
113.609240
21
80.784236
0
LINE
8
Layer 1
10
113.609240
20
80.784236
11
113.556154
21
80.869873
0
LINE
8
Layer 1
10
113.556154
20
80.869873
11
113.247000
21
81.399700
0
LINE
8
Layer 1
10
113.247000
20
81.399700
11
113.126000
21
81.664100
0
LINE
8
Layer 1
10
113.126000
20
81.664100
11
113.126470
21
81.664130
0
LINE
8
Layer 1
10
111.823700
20
84.143930
11
111.895613
21
84.107865
0
LINE
8
Layer 1
10
111.895613
20
84.107865
11
112.194447
21
83.625203
0
LINE
8
Layer 1
10
112.194447
20
83.625203
11
112.427105
21
83.176797
0
LINE
8
Layer 1
10
112.427105
20
83.176797
11
112.417106
21
83.111691
0
LINE
8
Layer 1
10
112.417106
20
83.111691
11
112.369551
21
83.160840
0
LINE
8
Layer 1
10
112.369551
20
83.160840
11
111.832000
21
84.091900
0
LINE
8
Layer 1
10
111.832000
20
84.091900
11
111.823000
21
84.143900
0
LINE
8
Layer 1
10
111.823000
20
84.143900
11
111.823700
21
84.143930
0
LINE
8
Layer 1
10
108.984000
20
152.082000
11
108.801233
21
152.240609
0
LINE
8
Layer 1
10
108.801233
20
152.240609
11
106.923993
21
155.442419
0
LINE
8
Layer 1
10
106.923993
20
155.442419
11
106.905586
21
155.630187
0
LINE
8
Layer 1
10
106.905586
20
155.630187
11
107.191440
21
155.528485
0
LINE
8
Layer 1
10
107.191440
20
155.528485
11
108.261021
21
153.884005
0
LINE
8
Layer 1
10
108.261021
20
153.884005
11
109.060812
21
152.332935
0
LINE
8
Layer 1
10
109.060812
20
152.332935
11
108.984000
21
152.082000
0
LINE
8
Layer 1
10
108.984000
20
152.082000
11
108.984000
21
152.082000
0
LINE
8
Layer 1
10
113.229450
20
143.632170
11
112.892536
21
143.913980
0
LINE
8
Layer 1
10
112.892536
20
143.913980
11
112.708064
21
144.209300
0
LINE
8
Layer 1
10
112.708064
20
144.209300
11
111.664014
21
146.052930
0
LINE
8
Layer 1
10
111.664014
20
146.052930
11
111.294557
21
146.695899
0
LINE
8
Layer 1
10
111.294557
20
146.695899
11
111.296033
21
146.997298
0
LINE
8
Layer 1
10
111.296033
20
146.997298
11
111.599227
21
146.905169
0
LINE
8
Layer 1
10
111.599227
20
146.905169
11
112.119710
21
146.457746
0
LINE
8
Layer 1
10
112.119710
20
146.457746
11
112.487634
21
145.865909
0
LINE
8
Layer 1
10
112.487634
20
145.865909
11
113.273904
21
143.759199
0
LINE
8
Layer 1
10
113.273904
20
143.759199
11
113.230000
21
143.632000
0
LINE
8
Layer 1
10
113.230000
20
143.632000
11
113.229450
21
143.632170
0
LINE
8
Layer 1
10
116.884890
20
137.457150
11
116.577655
21
137.988749
0
LINE
8
Layer 1
10
116.577655
20
137.988749
11
116.667119
21
137.974175
0
LINE
8
Layer 1
10
116.667119
20
137.974175
11
116.976801
21
137.453961
0
LINE
8
Layer 1
10
116.976801
20
137.453961
11
116.885000
21
137.457000
0
LINE
8
Layer 1
10
116.885000
20
137.457000
11
116.884890
21
137.457150
0
LINE
8
Layer 1
10
125.365000
20
120.263000
11
124.801803
21
121.296410
0
LINE
8
Layer 1
10
124.801803
20
121.296410
11
125.436382
21
120.461513
0
LINE
8
Layer 1
10
125.436382
20
120.461513
11
125.535106
21
120.090874
0
LINE
8
Layer 1
10
125.535106
20
120.090874
11
125.365000
21
120.263000
0
LINE
8
Layer 1
10
125.365000
20
120.263000
11
125.365000
21
120.263000
0
LINE
8
Layer 1
10
136.196000
20
104.887000
11
136.213447
21
104.824347
0
LINE
8
Layer 1
10
136.213447
20
104.824347
11
136.243552
21
104.789772
0
LINE
8
Layer 1
10
136.243552
20
104.789772
11
136.208020
21
104.887220
0
LINE
8
Layer 1
10
136.208020
20
104.887220
11
136.196000
21
104.887000
0
LINE
8
Layer 1
10
136.196000
20
104.887000
11
136.196000
21
104.887000
0
LINE
8
Layer 1
10
128.506000
20
119.760000
11
128.813769
21
119.523405
0
LINE
8
Layer 1
10
128.813769
20
119.523405
11
128.776321
21
119.921809
0
LINE
8
Layer 1
10
128.776321
20
119.921809
11
126.760031
21
123.485019
0
LINE
8
Layer 1
10
126.760031
20
123.485019
11
126.261027
21
124.120008
0
LINE
8
Layer 1
10
126.261027
20
124.120008
11
125.500241
21
124.249702
0
LINE
8
Layer 1
10
125.500241
20
124.249702
11
126.576223
21
122.886730
0
LINE
8
Layer 1
10
126.576223
20
122.886730
11
127.657801
21
121.091712
0
LINE
8
Layer 1
10
127.657801
20
121.091712
11
128.506000
21
119.760000
0
LINE
8
Layer 1
10
128.506000
20
119.760000
11
128.506000
21
119.760000
0
LINE
8
Layer 1
10
136.753000
20
104.172000
11
136.243634
21
104.789448
0
LINE
8
Layer 1
10
136.243634
20
104.789448
11
136.502465
21
104.099551
0
LINE
8
Layer 1
10
136.502465
20
104.099551
11
136.762546
21
103.683713
0
LINE
8
Layer 1
10
136.762546
20
103.683713
11
136.863545
21
103.622641
0
LINE
8
Layer 1
10
136.863545
20
103.622641
11
136.893213
21
103.708391
0
LINE
8
Layer 1
10
136.893213
20
103.708391
11
136.753000
21
104.172000
0
LINE
8
Layer 1
10
136.753000
20
104.172000
11
136.753000
21
104.172000
0
LINE
8
Layer 1
10
120.846000
20
133.420000
11
120.745360
21
133.652661
0
LINE
8
Layer 1
10
120.745360
20
133.652661
11
120.590138
21
133.859470
0
LINE
8
Layer 1
10
120.590138
20
133.859470
11
120.709289
21
133.542021
0
LINE
8
Layer 1
10
120.709289
20
133.542021
11
120.846000
21
133.420000
0
LINE
8
Layer 1
10
120.846000
20
133.420000
11
120.846000
21
133.420000
0
LINE
8
Layer 1
10
117.176000
20
75.040400
11
117.759514
21
74.101033
0
LINE
8
Layer 1
10
117.759514
20
74.101033
11
117.996324
21
73.710074
0
LINE
8
Layer 1
10
117.996324
20
73.710074
11
118.058345
21
73.624967
0
LINE
8
Layer 1
10
118.058345
20
73.624967
11
118.015366
21
73.720711
0
LINE
8
Layer 1
10
118.015366
20
73.720711
11
117.420685
21
74.745501
0
LINE
8
Layer 1
10
117.420685
20
74.745501
11
117.176000
21
75.040400
0
LINE
8
Layer 1
10
117.176000
20
75.040400
11
117.176000
21
75.040400
0
LINE
8
Layer 1
10
120.685000
20
69.223400
11
120.613510
21
69.338829
0
LINE
8
Layer 1
10
120.613510
20
69.338829
11
120.503508
21
69.515427
0
LINE
8
Layer 1
10
120.503508
20
69.515427
11
120.602551
21
69.355427
0
LINE
8
Layer 1
10
120.602551
20
69.355427
11
120.685000
21
69.223400
0
LINE
8
Layer 1
10
120.685000
20
69.223400
11
120.685000
21
69.223400
0
LINE
8
Layer 1
10
120.504000
20
69.515400
11
120.477299
21
69.558580
0
LINE
8
Layer 1
10
120.477299
20
69.558580
11
120.476873
21
69.559218
0
LINE
8
Layer 1
10
120.476873
20
69.559218
11
120.485808
21
69.544644
0
LINE
8
Layer 1
10
120.485808
20
69.544644
11
120.504000
21
69.515400
0
LINE
8
Layer 1
10
120.504000
20
69.515400
11
120.504000
21
69.515400
0
LINE
8
Layer 1
10
115.700000
20
77.677000
11
115.731702
21
77.636786
0
LINE
8
Layer 1
10
115.731702
20
77.636786
11
115.698724
21
77.701788
0
LINE
8
Layer 1
10
115.698724
20
77.701788
11
115.658192
21
77.764342
0
LINE
8
Layer 1
10
115.658192
20
77.764342
11
115.700000
21
77.677000
0
LINE
8
Layer 1
10
115.700000
20
77.677000
11
115.700000
21
77.677000
 0 
ENDSEC
 0 
EOF