999
"DXF R12 Output" (www.mydxf.blogspot.com)
 0 
SECTION
 2 
HEADER
 9 
$ACADVER
 1 
AC1009
 9 
$EXTMIN
 10 
 0 
 20 
 0 
 9 
$EXTMAX
 10 
 8.5 
 20 
 11 
 0 
ENDSEC
 0 
SECTION
 2 
ENTITIES
0
LINE
8
Layer 1
10
5.922540
20
101.817000
11
4.968810
21
101.185988
0
LINE
8
Layer 1
10
4.968810
20
101.185988
11
4.571786
21
100.929496
0
LINE
8
Layer 1
10
4.571786
20
100.929496
11
4.485511
21
100.863115
0
LINE
8
Layer 1
10
4.485511
20
100.863115
11
4.582956
21
100.910773
0
LINE
8
Layer 1
10
4.582956
20
100.910773
11
5.623916
21
101.556892
0
LINE
8
Layer 1
10
5.623916
20
101.556892
11
5.922540
21
101.817000
0
LINE
8
Layer 1
10
5.922540
20
101.817000
11
5.922540
21
101.817000
0
LINE
8
Layer 1
10
0.309106
20
98.209400
11
0.355390
21
98.239880
0
LINE
8
Layer 1
10
0.355390
20
98.239880
11
0.356135
21
98.240360
0
LINE
8
Layer 1
10
0.356135
20
98.240360
11
0.341240
21
98.230680
0
LINE
8
Layer 1
10
0.341240
20
98.230680
11
0.309106
21
98.209400
0
LINE
8
Layer 1
10
0.015167
20
98.014800
11
0.132289
21
98.092086
0
LINE
8
Layer 1
10
0.132289
20
98.092086
11
0.309101
21
98.209428
0
LINE
8
Layer 1
10
0.309101
20
98.209428
11
0.149205
21
98.103948
0
LINE
8
Layer 1
10
0.149205
20
98.103948
11
0.015167
21
98.014800
0
LINE
8
Layer 1
10
0.015167
20
98.014800
11
0.015167
21
98.014800
0
LINE
8
Layer 1
10
8.601590
20
103.424000
11
8.560846
21
103.390277
0
LINE
8
Layer 1
10
8.560846
20
103.390277
11
8.626908
21
103.426447
0
LINE
8
Layer 1
10
8.626908
20
103.426447
11
8.690527
21
103.470118
0
LINE
8
Layer 1
10
8.690527
20
103.470118
11
8.601590
21
103.424000
0
LINE
8
Layer 1
10
4.804130
20
61.106300
11
4.717855
21
61.039978
0
LINE
8
Layer 1
10
4.717855
20
61.039978
11
4.815196
21
61.087583
0
LINE
8
Layer 1
10
4.815196
20
61.087583
11
5.856266
21
61.733705
0
LINE
8
Layer 1
10
5.856266
20
61.733705
11
6.154778
21
61.993866
0
LINE
8
Layer 1
10
6.154778
20
61.993866
11
5.201048
21
61.362798
0
LINE
8
Layer 1
10
5.201048
20
61.362798
11
4.804130
21
61.106300
0
LINE
8
Layer 1
10
4.804130
20
61.106300
11
4.804130
21
61.106300
0
LINE
8
Layer 1
10
0.247401
20
58.191200
11
0.364523
21
58.268436
0
LINE
8
Layer 1
10
0.364523
20
58.268436
11
0.541758
21
58.385990
0
LINE
8
Layer 1
10
0.541758
20
58.385990
11
0.381439
21
58.280298
0
LINE
8
Layer 1
10
0.381439
20
58.280298
11
0.247401
21
58.191200
0
LINE
8
Layer 1
10
0.247401
20
58.191200
11
0.247401
21
58.191200
0
LINE
8
Layer 1
10
0.541765
20
58.386000
11
0.587725
21
58.416319
0
LINE
8
Layer 1
10
0.587725
20
58.416319
11
0.588470
21
58.416796
0
LINE
8
Layer 1
10
0.588470
20
58.416796
11
0.573574
21
58.407116
0
LINE
8
Layer 1
10
0.573574
20
58.407116
11
0.541765
21
58.386000
0
LINE
8
Layer 1
10
8.793080
20
63.567100
11
8.859250
21
63.603224
0
LINE
8
Layer 1
10
8.859250
20
63.603224
11
8.922750
21
63.646893
0
LINE
8
Layer 1
10
8.922750
20
63.646893
11
8.833813
21
63.600777
0
LINE
8
Layer 1
10
8.833813
20
63.600777
11
8.793080
21
63.567100
0
LINE
8
Layer 1
10
8.793080
20
63.567100
11
8.793080
21
63.567100
0
LINE
8
Layer 1
10
111.765000
20
98.286100
11
111.689364
21
98.361047
0
LINE
8
Layer 1
10
111.689364
20
98.361047
11
111.538406
21
98.510941
0
LINE
8
Layer 1
10
111.538406
20
98.510941
11
111.239042
21
98.810782
0
LINE
8
Layer 1
10
111.239042
20
98.810782
11
110.655102
21
99.411633
0
LINE
8
Layer 1
10
110.655102
20
99.411633
11
109.246162
21
100.881053
0
LINE
8
Layer 1
10
109.246162
20
100.881053
11
107.965412
21
102.367123
0
LINE
8
Layer 1
10
107.965412
20
102.367123
11
106.180302
21
104.431123
0
LINE
8
Layer 1
10
106.180302
20
104.431123
11
103.556562
21
107.329703
0
LINE
8
Layer 1
10
103.556562
20
107.329703
11
94.534492
21
116.676503
0
LINE
8
Layer 1
10
94.534492
20
116.676503
11
88.824043
21
122.042703
0
LINE
8
Layer 1
10
88.824043
20
122.042703
11
83.242953
21
127.120863
0
LINE
8
Layer 1
10
83.242953
20
127.120863
11
77.687292
21
132.232853
0
LINE
8
Layer 1
10
77.687292
20
132.232853
11
74.233873
21
135.471863
0
LINE
8
Layer 1
10
74.233873
20
135.471863
11
69.947253
21
139.351613
0
LINE
8
Layer 1
10
69.947253
20
139.351613
11
69.938741
21
142.118863
0
LINE
8
Layer 1
10
69.938741
20
142.118863
11
69.835657
21
153.855763
0
LINE
8
Layer 1
10
69.835657
20
153.855763
11
69.788102
21
165.605363
0
LINE
8
Layer 1
10
69.788102
20
165.605363
11
69.928649
21
172.980293
0
LINE
8
Layer 1
10
69.928649
20
172.980293
11
70.072785
21
178.267569
0
LINE
8
Layer 1
10
70.072785
20
178.267569
11
69.912907
21
183.554393
0
LINE
8
Layer 1
10
69.912907
20
183.554393
11
69.505245
21
186.097252
0
LINE
8
Layer 1
10
69.505245
20
186.097252
11
69.108046
21
187.239700
0
LINE
8
Layer 1
10
69.108046
20
187.239700
11
68.571617
21
188.291443
0
LINE
8
Layer 1
10
68.571617
20
188.291443
11
67.839556
21
189.125367
0
LINE
8
Layer 1
10
67.839556
20
189.125367
11
67.423816
21
189.347965
0
LINE
8
Layer 1
10
67.423816
20
189.347965
11
66.991821
21
189.419855
0
LINE
8
Layer 1
10
66.991821
20
189.419855
11
66.556235
21
189.325188
0
LINE
8
Layer 1
10
66.556235
20
189.325188
11
66.129722
21
189.048114
0
LINE
8
Layer 1
10
66.129722
20
189.048114
11
65.724944
21
188.572784
0
LINE
8
Layer 1
10
65.724944
20
188.572784
11
65.354567
21
187.883350
0
LINE
8
Layer 1
10
65.354567
20
187.883350
11
64.773932
21
186.101830
0
LINE
8
Layer 1
10
64.773932
20
186.101830
11
64.518925
21
184.245510
0
LINE
8
Layer 1
10
64.518925
20
184.245510
11
63.999986
21
174.847910
0
LINE
8
Layer 1
10
63.999986
20
174.847910
11
63.620412
21
163.372710
0
LINE
8
Layer 1
10
63.620412
20
163.372710
11
63.226995
21
150.280010
0
LINE
8
Layer 1
10
63.226995
20
150.280010
11
63.060930
21
141.316560
0
LINE
8
Layer 1
10
63.060930
20
141.316560
11
63.056567
21
140.924590
0
LINE
8
Layer 1
10
63.056567
20
140.924590
11
59.733787
21
139.225590
0
LINE
8
Layer 1
10
59.733787
20
139.225590
11
55.580367
21
136.877500
0
LINE
8
Layer 1
10
55.580367
20
136.877500
11
50.858747
21
134.171900
0
LINE
8
Layer 1
10
50.858747
20
134.171900
11
47.671497
21
132.250350
0
LINE
8
Layer 1
10
47.671497
20
132.250350
11
45.726907
21
131.040080
0
LINE
8
Layer 1
10
45.726907
20
131.040080
11
43.156687
21
129.390490
0
LINE
8
Layer 1
10
43.156687
20
129.390490
11
41.104547
21
127.984630
0
LINE
8
Layer 1
10
41.104547
20
127.984630
11
39.131027
21
126.636810
0
LINE
8
Layer 1
10
39.131027
20
126.636810
11
31.405247
21
120.963220
0
LINE
8
Layer 1
10
31.405247
20
120.963220
11
30.877585
21
120.548636
0
LINE
8
Layer 1
10
30.877585
20
120.548636
11
29.666625
21
119.606929
0
LINE
8
Layer 1
10
29.666625
20
119.606929
11
27.435555
21
117.956709
0
LINE
8
Layer 1
10
27.435555
20
117.956709
11
25.805545
21
116.781069
0
LINE
8
Layer 1
10
25.805545
20
116.781069
11
24.261275
21
115.652449
0
LINE
8
Layer 1
10
24.261275
20
115.652449
11
24.042020
21
115.471488
0
LINE
8
Layer 1
10
24.042020
20
115.471488
11
23.222972
21
114.819200
0
LINE
8
Layer 1
10
23.222972
20
114.819200
11
22.323714
21
114.116589
0
LINE
8
Layer 1
10
22.323714
20
114.116589
11
20.877534
21
113.100419
0
LINE
8
Layer 1
10
20.877534
20
113.100419
11
20.570087
21
112.898876
0
LINE
8
Layer 1
10
20.570087
20
112.898876
11
19.955509
21
112.440830
0
LINE
8
Layer 1
10
19.955509
20
112.440830
11
17.113249
21
110.332150
0
LINE
8
Layer 1
10
17.113249
20
110.332150
11
16.272394
21
109.702095
0
LINE
8
Layer 1
10
16.272394
20
109.702095
11
15.439944
21
109.071134
0
LINE
8
Layer 1
10
15.439944
20
109.071134
11
14.594621
21
108.487140
0
LINE
8
Layer 1
10
14.594621
20
108.487140
11
14.293662
21
108.255757
0
LINE
8
Layer 1
10
14.293662
20
108.255757
11
13.011632
21
107.285910
0
LINE
8
Layer 1
10
13.011632
20
107.285910
11
11.149602
21
105.946440
0
LINE
8
Layer 1
10
11.149602
20
105.946440
11
10.378854
21
105.386331
0
LINE
8
Layer 1
10
10.378854
20
105.386331
11
9.323744
21
104.612656
0
LINE
8
Layer 1
10
9.323744
20
104.612656
11
9.094060
21
104.444452
0
LINE
8
Layer 1
10
9.094060
20
104.444452
11
8.181072
21
103.765940
0
LINE
8
Layer 1
10
8.181072
20
103.765940
11
7.271705
21
103.095663
0
LINE
8
Layer 1
10
7.271705
20
103.095663
11
6.341594
21
102.441724
0
LINE
8
Layer 1
10
6.341594
20
102.441724
11
5.959784
21
102.165127
0
LINE
8
Layer 1
10
5.959784
20
102.165127
11
4.583924
21
101.176345
0
LINE
8
Layer 1
10
4.583924
20
101.176345
11
3.729556
21
100.574693
0
LINE
8
Layer 1
10
3.729556
20
100.574693
11
2.800710
21
99.924300
0
LINE
8
Layer 1
10
2.800710
20
99.924300
11
1.476770
21
99.009720
0
LINE
8
Layer 1
10
1.476770
20
99.009720
11
1.350597
21
98.920995
0
LINE
8
Layer 1
10
1.350597
20
98.920995
11
1.167192
21
98.785890
0
LINE
8
Layer 1
10
1.167192
20
98.785890
11
0.546868
21
98.369929
0
LINE
8
Layer 1
10
0.546868
20
98.369929
11
0.356123
21
98.240355
0
LINE
8
Layer 1
10
0.356123
20
98.240355
11
0.681017
21
98.452112
0
LINE
8
Layer 1
10
0.681017
20
98.452112
11
1.937187
21
99.273178
0
LINE
8
Layer 1
10
1.937187
20
99.273178
11
2.809959
21
99.846800
0
LINE
8
Layer 1
10
2.809959
20
99.846800
11
3.513047
21
100.308611
0
LINE
8
Layer 1
10
3.513047
20
100.308611
11
4.896357
21
101.228562
0
LINE
8
Layer 1
10
4.896357
20
101.228562
11
5.252953
21
101.448297
0
LINE
8
Layer 1
10
5.252953
20
101.448297
11
5.531148
21
101.616117
0
LINE
8
Layer 1
10
5.531148
20
101.616117
11
5.989872
21
101.919841
0
LINE
8
Layer 1
10
5.989872
20
101.919841
11
6.781048
21
102.427129
0
LINE
8
Layer 1
10
6.781048
20
102.427129
11
7.012326
21
102.570058
0
LINE
8
Layer 1
10
7.012326
20
102.570058
11
6.691578
21
102.249045
0
LINE
8
Layer 1
10
6.691578
20
102.249045
11
7.216370
21
102.564205
0
LINE
8
Layer 1
10
7.216370
20
102.564205
11
7.825840
21
102.933783
0
LINE
8
Layer 1
10
7.825840
20
102.933783
11
7.783605
21
102.970754
0
LINE
8
Layer 1
10
7.783605
20
102.970754
11
7.982651
21
103.115534
0
LINE
8
Layer 1
10
7.982651
20
103.115534
11
8.541270
21
103.455216
0
LINE
8
Layer 1
10
8.541270
20
103.455216
11
9.496806
21
104.036068
0
LINE
8
Layer 1
10
9.496806
20
104.036068
11
9.801913
21
104.244579
0
LINE
8
Layer 1
10
9.801913
20
104.244579
11
11.227133
21
105.069743
0
LINE
8
Layer 1
10
11.227133
20
105.069743
11
12.084265
21
105.561343
0
LINE
8
Layer 1
10
12.084265
20
105.561343
11
12.637984
21
105.893420
0
LINE
8
Layer 1
10
12.637984
20
105.893420
11
13.172454
21
106.244058
0
LINE
8
Layer 1
10
13.172454
20
106.244058
11
13.561606
21
106.550816
0
LINE
8
Layer 1
10
13.561606
20
106.550816
11
13.884799
21
106.702412
0
LINE
8
Layer 1
10
13.884799
20
106.702412
11
14.281078
21
106.904861
0
LINE
8
Layer 1
10
14.281078
20
106.904861
11
15.338800
21
107.465000
0
LINE
8
Layer 1
10
15.338800
20
107.465000
11
15.818696
21
107.737183
0
LINE
8
Layer 1
10
15.818696
20
107.737183
11
16.607317
21
108.245747
0
LINE
8
Layer 1
10
16.607317
20
108.245747
11
17.420726
21
108.674047
0
LINE
8
Layer 1
10
17.420726
20
108.674047
11
17.668918
21
108.810377
0
LINE
8
Layer 1
10
17.668918
20
108.810377
11
19.467118
21
109.865007
0
LINE
8
Layer 1
10
19.467118
20
109.865007
11
21.269578
21
110.937137
0
LINE
8
Layer 1
10
21.269578
20
110.937137
11
21.519579
21
111.059689
0
LINE
8
Layer 1
10
21.519579
20
111.059689
11
23.102039
21
111.943044
0
LINE
8
Layer 1
10
23.102039
20
111.943044
11
23.428211
21
112.142293
0
LINE
8
Layer 1
10
23.428211
20
112.142293
11
26.789900
21
113.953000
0
LINE
8
Layer 1
10
26.789900
20
113.953000
11
30.330770
21
115.860460
0
LINE
8
Layer 1
10
30.330770
20
115.860460
11
34.034510
21
117.879990
0
LINE
8
Layer 1
10
34.034510
20
117.879990
11
34.957706
21
118.390530
0
LINE
8
Layer 1
10
34.957706
20
118.390530
11
39.418896
21
120.828730
0
LINE
8
Layer 1
10
39.418896
20
120.828730
11
46.696596
21
125.085830
0
LINE
8
Layer 1
10
46.696596
20
125.085830
11
50.957786
21
127.824250
0
LINE
8
Layer 1
10
50.957786
20
127.824250
11
54.991106
21
130.555010
0
LINE
8
Layer 1
10
54.991106
20
130.555010
11
59.053146
21
133.251510
0
LINE
8
Layer 1
10
59.053146
20
133.251510
11
61.677306
21
134.829870
0
LINE
8
Layer 1
10
61.677306
20
134.829870
11
62.998166
21
135.569074
0
LINE
8
Layer 1
10
62.998166
20
135.569074
11
62.970613
21
128.437814
0
LINE
8
Layer 1
10
62.970613
20
128.437814
11
63.040293
21
122.444484
0
LINE
8
Layer 1
10
63.040293
20
122.444484
11
63.102947
21
116.686304
0
LINE
8
Layer 1
10
63.102947
20
116.686304
11
63.546036
21
101.225204
0
LINE
8
Layer 1
10
63.546036
20
101.225204
11
63.458908
21
101.185256
0
LINE
8
Layer 1
10
63.458908
20
101.185256
11
59.966438
21
99.401686
0
LINE
8
Layer 1
10
59.966438
20
99.401686
11
55.813018
21
97.053596
0
LINE
8
Layer 1
10
55.813018
20
97.053596
11
51.091398
21
94.347996
0
LINE
8
Layer 1
10
51.091398
20
94.347996
11
47.904038
21
92.426446
0
LINE
8
Layer 1
10
47.904038
20
92.426446
11
45.959448
21
91.216176
0
LINE
8
Layer 1
10
45.959448
20
91.216176
11
43.389328
21
89.566586
0
LINE
8
Layer 1
10
43.389328
20
89.566586
11
41.337188
21
88.160726
0
LINE
8
Layer 1
10
41.337188
20
88.160726
11
39.363668
21
86.812896
0
LINE
8
Layer 1
10
39.363668
20
86.812896
11
31.637888
21
81.139306
0
LINE
8
Layer 1
10
31.637888
20
81.139306
11
31.110226
21
80.724677
0
LINE
8
Layer 1
10
31.110226
20
80.724677
11
29.899156
21
79.783023
0
LINE
8
Layer 1
10
29.899156
20
79.783023
11
27.668086
21
78.132744
0
LINE
8
Layer 1
10
27.668086
20
78.132744
11
26.038076
21
76.957154
0
LINE
8
Layer 1
10
26.038076
20
76.957154
11
24.493806
21
75.828534
0
LINE
8
Layer 1
10
24.493806
20
75.828534
11
24.274658
21
75.647576
0
LINE
8
Layer 1
10
24.274658
20
75.647576
11
23.455610
21
74.995284
0
LINE
8
Layer 1
10
23.455610
20
74.995284
11
22.556352
21
74.292676
0
LINE
8
Layer 1
10
22.556352
20
74.292676
11
21.110062
21
73.276495
0
LINE
8
Layer 1
10
21.110062
20
73.276495
11
20.802615
21
73.074952
0
LINE
8
Layer 1
10
20.802615
20
73.074952
11
20.188037
21
72.616906
0
LINE
8
Layer 1
10
20.188037
20
72.616906
11
17.345897
21
70.508226
0
LINE
8
Layer 1
10
17.345897
20
70.508226
11
16.505000
21
69.878400
0
LINE
8
Layer 1
10
16.505000
20
69.878400
11
15.672550
21
69.247493
0
LINE
8
Layer 1
10
15.672550
20
69.247493
11
14.827227
21
68.663502
0
LINE
8
Layer 1
10
14.827227
20
68.663502
11
14.526268
21
68.432063
0
LINE
8
Layer 1
10
14.526268
20
68.432063
11
13.244238
21
67.462272
0
LINE
8
Layer 1
10
13.244238
20
67.462272
11
11.382108
21
66.122742
0
LINE
8
Layer 1
10
11.382108
20
66.122742
11
10.611464
21
65.562684
0
LINE
8
Layer 1
10
10.611464
20
65.562684
11
9.556354
21
64.789012
0
LINE
8
Layer 1
10
9.556354
20
64.789012
11
9.326673
21
64.620765
0
LINE
8
Layer 1
10
9.326673
20
64.620765
11
8.413685
21
63.942303
0
LINE
8
Layer 1
10
8.413685
20
63.942303
11
7.504318
21
63.271981
0
LINE
8
Layer 1
10
7.504318
20
63.271981
11
6.574100
21
62.618095
0
LINE
8
Layer 1
10
6.574100
20
62.618095
11
6.192398
21
62.341444
0
LINE
8
Layer 1
10
6.192398
20
62.341444
11
4.816538
21
61.352716
0
LINE
8
Layer 1
10
4.816538
20
61.352716
11
3.962170
21
60.751019
0
LINE
8
Layer 1
10
3.962170
20
60.751019
11
3.033016
21
60.100695
0
LINE
8
Layer 1
10
3.033016
20
60.100695
11
1.709076
21
59.186169
0
LINE
8
Layer 1
10
1.709076
20
59.186169
11
1.582799
21
59.097393
0
LINE
8
Layer 1
10
1.582799
20
59.097393
11
1.399501
21
58.962338
0
LINE
8
Layer 1
10
1.399501
20
58.962338
11
0.779177
21
58.546379
0
LINE
8
Layer 1
10
0.779177
20
58.546379
11
0.588432
21
58.416802
0
LINE
8
Layer 1
10
0.588432
20
58.416802
11
0.913326
21
58.628559
0
LINE
8
Layer 1
10
0.913326
20
58.628559
11
2.169396
21
59.449574
0
LINE
8
Layer 1
10
2.169396
20
59.449574
11
3.042272
21
60.023247
0
LINE
8
Layer 1
10
3.042272
20
60.023247
11
3.745360
21
60.485005
0
LINE
8
Layer 1
10
3.745360
20
60.485005
11
5.128670
21
61.404958
0
LINE
8
Layer 1
10
5.128670
20
61.404958
11
5.485266
21
61.624693
0
LINE
8
Layer 1
10
5.485266
20
61.624693
11
5.763353
21
61.792564
0
LINE
8
Layer 1
10
5.763353
20
61.792564
11
6.222184
21
62.096288
0
LINE
8
Layer 1
10
6.222184
20
62.096288
11
7.013252
21
62.603579
0
LINE
8
Layer 1
10
7.013252
20
62.603579
11
7.244530
21
62.746505
0
LINE
8
Layer 1
10
7.244530
20
62.746505
11
6.923785
21
62.425492
0
LINE
8
Layer 1
10
6.923785
20
62.425492
11
7.448574
21
62.740655
0
LINE
8
Layer 1
10
7.448574
20
62.740655
11
8.058044
21
63.110177
0
LINE
8
Layer 1
10
8.058044
20
63.110177
11
8.015812
21
63.147148
0
LINE
8
Layer 1
10
8.015812
20
63.147148
11
8.214962
21
63.291928
0
LINE
8
Layer 1
10
8.214962
20
63.291928
11
8.773479
21
63.631610
0
LINE
8
Layer 1
10
8.773479
20
63.631610
11
9.729015
21
64.212519
0
LINE
8
Layer 1
10
9.729015
20
64.212519
11
10.034230
21
64.421030
0
LINE
8
Layer 1
10
10.034230
20
64.421030
11
11.459450
21
65.246140
0
LINE
8
Layer 1
10
11.459450
20
65.246140
11
12.316581
21
65.737790
0
LINE
8
Layer 1
10
12.316581
20
65.737790
11
12.870301
21
66.069867
0
LINE
8
Layer 1
10
12.870301
20
66.069867
11
13.404770
21
66.420454
0
LINE
8
Layer 1
10
13.404770
20
66.420454
11
13.793920
21
66.727210
0
LINE
8
Layer 1
10
13.793920
20
66.727210
11
14.117115
21
66.878862
0
LINE
8
Layer 1
10
14.117115
20
66.878862
11
14.513391
21
67.081308
0
LINE
8
Layer 1
10
14.513391
20
67.081308
11
15.571061
21
67.641205
0
LINE
8
Layer 1
10
15.571061
20
67.641205
11
16.050957
21
67.913386
0
LINE
8
Layer 1
10
16.050957
20
67.913386
11
16.839471
21
68.422006
0
LINE
8
Layer 1
10
16.839471
20
68.422006
11
17.652880
21
68.850252
0
LINE
8
Layer 1
10
17.652880
20
68.850252
11
17.901179
21
68.986582
0
LINE
8
Layer 1
10
17.901179
20
68.986582
11
19.699269
21
70.041272
0
LINE
8
Layer 1
10
19.699269
20
70.041272
11
21.501819
21
71.113352
0
LINE
8
Layer 1
10
21.501819
20
71.113352
11
21.751712
21
71.235907
0
LINE
8
Layer 1
10
21.751712
20
71.235907
11
23.334272
21
72.119262
0
LINE
8
Layer 1
10
23.334272
20
72.119262
11
23.660444
21
72.318511
0
LINE
8
Layer 1
10
23.660444
20
72.318511
11
27.022054
21
74.129691
0
LINE
8
Layer 1
10
27.022054
20
74.129691
11
30.563024
21
76.037091
0
LINE
8
Layer 1
10
30.563024
20
76.037091
11
34.266764
21
78.056621
0
LINE
8
Layer 1
10
34.266764
20
78.056621
11
35.189960
21
78.567161
0
LINE
8
Layer 1
10
35.189960
20
78.567161
11
39.651040
21
81.005411
0
LINE
8
Layer 1
10
39.651040
20
81.005411
11
46.928740
21
85.262451
0
LINE
8
Layer 1
10
46.928740
20
85.262451
11
51.189930
21
88.000921
0
LINE
8
Layer 1
10
51.189930
20
88.000921
11
55.223360
21
90.731681
0
LINE
8
Layer 1
10
55.223360
20
90.731681
11
59.285400
21
93.428181
0
LINE
8
Layer 1
10
59.285400
20
93.428181
11
61.909560
21
95.006541
0
LINE
8
Layer 1
10
61.909560
20
95.006541
11
63.694670
21
96.036011
0
LINE
8
Layer 1
10
63.694670
20
96.036011
11
63.763928
21
93.621691
0
LINE
8
Layer 1
10
63.763928
20
93.621691
11
63.837438
21
92.010721
0
LINE
8
Layer 1
10
63.837438
20
92.010721
11
63.995844
21
88.326391
0
LINE
8
Layer 1
10
63.995844
20
88.326391
11
64.199143
21
81.650031
0
LINE
8
Layer 1
10
64.199143
20
81.650031
11
64.316164
21
76.811921
0
LINE
8
Layer 1
10
64.316164
20
76.811921
11
64.442549
21
72.208881
0
LINE
8
Layer 1
10
64.442549
20
72.208881
11
64.482229
21
71.528080
0
LINE
8
Layer 1
10
64.482229
20
71.528080
11
64.605529
21
69.015940
0
LINE
8
Layer 1
10
64.605529
20
69.015940
11
64.726602
21
66.275610
0
LINE
8
Layer 1
10
64.726602
20
66.275610
11
64.855282
21
64.148651
0
LINE
8
Layer 1
10
64.855282
20
64.148651
11
64.802345
21
62.018460
0
LINE
8
Layer 1
10
64.802345
20
62.018460
11
64.803305
21
61.132500
0
LINE
8
Layer 1
10
64.803305
20
61.132500
11
64.862879
21
59.288870
0
LINE
8
Layer 1
10
64.862879
20
59.288870
11
65.128518
21
50.775420
0
LINE
8
Layer 1
10
65.128518
20
50.775420
11
65.213625
21
48.248550
0
LINE
8
Layer 1
10
65.213625
20
48.248550
11
65.305434
21
45.737470
0
LINE
8
Layer 1
10
65.305434
20
45.737470
11
65.339264
21
43.262240
0
LINE
8
Layer 1
10
65.339264
20
43.262240
11
65.375860
21
42.350053
0
LINE
8
Layer 1
10
65.375860
20
42.350053
11
65.515221
21
38.485303
0
LINE
8
Layer 1
10
65.515221
20
38.485303
11
65.645325
21
32.962993
0
LINE
8
Layer 1
10
65.645325
20
32.962993
11
65.705007
21
30.669893
0
LINE
8
Layer 1
10
65.705007
20
30.669893
11
65.794158
21
27.521523
0
LINE
8
Layer 1
10
65.794158
20
27.521523
11
65.813306
21
26.836361
0
LINE
8
Layer 1
10
65.813306
20
26.836361
11
65.899796
21
24.100071
0
LINE
8
Layer 1
10
65.899796
20
24.100071
11
65.980230
21
21.382021
0
LINE
8
Layer 1
10
65.980230
20
21.382021
11
66.029271
21
18.643441
0
LINE
8
Layer 1
10
66.029271
20
18.643441
11
66.057996
21
17.508651
0
LINE
8
Layer 1
10
66.057996
20
17.508651
11
66.153105
21
13.429701
0
LINE
8
Layer 1
10
66.153105
20
13.429701
11
66.199276
21
10.912881
0
LINE
8
Layer 1
10
66.199276
20
10.912881
11
66.245233
21
8.181161
0
LINE
8
Layer 1
10
66.245233
20
8.181161
11
66.298107
21
4.304561
0
LINE
8
Layer 1
10
66.298107
20
4.304561
11
66.304807
21
3.932962
0
LINE
8
Layer 1
10
66.304807
20
3.932962
11
66.320979
21
3.384980
0
LINE
8
Layer 1
10
66.320979
20
3.384980
11
66.332575
21
1.585190
0
LINE
8
Layer 1
10
66.332575
20
1.585190
11
66.337895
21
1.027474
0
LINE
8
Layer 1
10
66.337895
20
1.027474
11
66.337900
21
0.986726
0
LINE
8
Layer 1
10
66.337900
20
0.986726
11
66.338219
21
0.904489
0
LINE
8
Layer 1
10
66.338219
20
0.904489
11
66.337900
21
1.022415
0
LINE
8
Layer 1
10
66.337900
20
1.022415
11
66.338219
21
1.964122
0
LINE
8
Layer 1
10
66.338219
20
1.964122
11
66.336940
21
5.580682
0
LINE
8
Layer 1
10
66.336940
20
5.580682
11
66.332687
21
8.097712
0
LINE
8
Layer 1
10
66.332687
20
8.097712
11
66.329600
21
10.124912
0
LINE
8
Layer 1
10
66.329600
20
10.124912
11
66.311622
21
14.128442
0
LINE
8
Layer 1
10
66.311622
20
14.128442
11
66.325240
21
15.137492
0
LINE
8
Layer 1
10
66.325240
20
15.137492
11
66.339602
21
15.919890
0
LINE
8
Layer 1
10
66.339602
20
15.919890
11
66.335027
21
17.245800
0
LINE
8
Layer 1
10
66.335027
20
17.245800
11
66.344496
21
19.510650
0
LINE
8
Layer 1
10
66.344496
20
19.510650
11
66.352900
21
20.165707
0
LINE
8
Layer 1
10
66.352900
20
20.165707
11
66.469813
21
19.095487
0
LINE
8
Layer 1
10
66.469813
20
19.095487
11
66.498430
21
20.569797
0
LINE
8
Layer 1
10
66.498430
20
20.569797
11
66.527900
21
22.286507
0
LINE
8
Layer 1
10
66.527900
20
22.286507
11
66.460449
21
22.250019
0
LINE
8
Layer 1
10
66.460449
20
22.250019
11
66.444811
21
22.842522
0
LINE
8
Layer 1
10
66.444811
20
22.842522
11
66.470874
21
24.417212
0
LINE
8
Layer 1
10
66.470874
20
24.417212
11
66.515556
21
27.110742
0
LINE
8
Layer 1
10
66.515556
20
27.110742
11
66.505875
21
28.001279
0
LINE
8
Layer 1
10
66.505875
20
28.001279
11
66.615769
21
31.964379
0
LINE
8
Layer 1
10
66.615769
20
31.964379
11
66.686607
21
34.341789
0
LINE
8
Layer 1
10
66.686607
20
34.341789
11
66.717245
21
35.896639
0
LINE
8
Layer 1
10
66.717245
20
35.896639
11
66.715436
21
37.437129
0
LINE
8
Layer 1
10
66.715436
20
37.437129
11
66.660222
21
38.626499
0
LINE
8
Layer 1
10
66.660222
20
38.626499
11
66.722246
21
39.478578
0
LINE
8
Layer 1
10
66.722246
20
39.478578
11
66.781075
21
40.545018
0
LINE
8
Layer 1
10
66.781075
20
40.545018
11
66.917566
21
43.417058
0
LINE
8
Layer 1
10
66.917566
20
43.417058
11
66.960439
21
44.744028
0
LINE
8
Layer 1
10
66.960439
20
44.744028
11
66.966820
21
47.005318
0
LINE
8
Layer 1
10
66.966820
20
47.005318
11
67.074163
21
49.211068
0
LINE
8
Layer 1
10
67.074163
20
49.211068
11
67.101075
21
49.891658
0
LINE
8
Layer 1
10
67.101075
20
49.891658
11
67.143205
21
52.313478
0
LINE
8
Layer 1
10
67.143205
20
52.313478
11
67.146183
21
52.316989
0
LINE
8
Layer 1
10
67.146183
20
52.316989
11
68.643313
21
54.080929
0
LINE
8
Layer 1
10
68.643313
20
54.080929
11
69.675873
21
55.316519
0
LINE
8
Layer 1
10
69.675873
20
55.316519
11
70.508854
21
56.310505
0
LINE
8
Layer 1
10
70.508854
20
56.310505
11
72.123544
21
58.299455
0
LINE
8
Layer 1
10
72.123544
20
58.299455
11
72.578652
21
58.759722
0
LINE
8
Layer 1
10
72.578652
20
58.759722
11
72.940782
21
59.108766
0
LINE
8
Layer 1
10
72.940782
20
59.108766
11
73.479295
21
59.764249
0
LINE
8
Layer 1
10
73.479295
20
59.764249
11
74.442801
21
60.846809
0
LINE
8
Layer 1
10
74.442801
20
60.846809
11
74.735248
21
61.148140
0
LINE
8
Layer 1
10
74.735248
20
61.148140
11
74.676434
21
60.766084
0
LINE
8
Layer 1
10
74.676434
20
60.766084
11
74.585143
21
60.376647
0
LINE
8
Layer 1
10
74.585143
20
60.376647
11
75.262476
21
61.038565
0
LINE
8
Layer 1
10
75.262476
20
61.038565
11
76.039605
21
61.819312
0
LINE
8
Layer 1
10
76.039605
20
61.819312
11
75.860456
21
61.941175
0
LINE
8
Layer 1
10
75.860456
20
61.941175
11
76.066947
21
62.263190
0
LINE
8
Layer 1
10
76.066947
20
62.263190
11
76.778333
21
62.980533
0
LINE
8
Layer 1
10
76.778333
20
62.980533
11
77.991213
21
64.210913
0
LINE
8
Layer 1
10
77.991213
20
64.210913
11
78.334618
21
64.666702
0
LINE
8
Layer 1
10
78.334618
20
64.666702
11
79.210098
21
65.600053
0
LINE
8
Layer 1
10
79.210098
20
65.600053
11
80.207500
21
66.401800
0
LINE
8
Layer 1
10
80.207500
20
66.401800
11
80.841480
21
66.844206
0
LINE
8
Layer 1
10
80.841480
20
66.844206
11
81.334000
21
67.440090
0
LINE
8
Layer 1
10
81.334000
20
67.440090
11
82.033259
21
68.151106
0
LINE
8
Layer 1
10
82.033259
20
68.151106
11
82.657410
21
68.913980
0
LINE
8
Layer 1
10
82.657410
20
68.913980
11
83.027093
21
69.598557
0
LINE
8
Layer 1
10
83.027093
20
69.598557
11
83.503266
21
69.908933
0
LINE
8
Layer 1
10
83.503266
20
69.908933
11
84.058267
21
70.332390
0
LINE
8
Layer 1
10
84.058267
20
70.332390
11
84.721134
21
70.994920
0
LINE
8
Layer 1
10
84.721134
20
70.994920
11
85.497427
21
71.520000
0
LINE
8
Layer 1
10
85.497427
20
71.520000
11
86.118708
21
72.105853
0
LINE
8
Layer 1
10
86.118708
20
72.105853
11
86.575401
21
72.664952
0
LINE
8
Layer 1
10
86.575401
20
72.664952
11
87.043832
21
73.218143
0
LINE
8
Layer 1
10
87.043832
20
73.218143
11
87.545112
21
73.733824
0
LINE
8
Layer 1
10
87.545112
20
73.733824
11
88.137982
21
74.139637
0
LINE
8
Layer 1
10
88.137982
20
74.139637
11
88.462134
21
74.435544
0
LINE
8
Layer 1
10
88.462134
20
74.435544
11
89.555412
21
75.617260
0
LINE
8
Layer 1
10
89.555412
20
75.617260
11
90.702464
21
76.744124
0
LINE
8
Layer 1
10
90.702464
20
76.744124
11
91.853097
21
77.881444
0
LINE
8
Layer 1
10
91.853097
20
77.881444
11
92.912054
21
79.105574
0
LINE
8
Layer 1
10
92.912054
20
79.105574
11
93.250035
21
79.377278
0
LINE
8
Layer 1
10
93.250035
20
79.377278
11
95.243235
21
81.341068
0
LINE
8
Layer 1
10
95.243235
20
81.341068
11
95.631747
21
81.783942
0
LINE
8
Layer 1
10
95.631747
20
81.783942
11
99.867617
21
85.881622
0
LINE
8
Layer 1
10
99.867617
20
85.881622
11
104.228707
21
90.283342
0
LINE
8
Layer 1
10
104.228707
20
90.283342
11
106.460637
21
92.639632
0
LINE
8
Layer 1
10
106.460637
20
92.639632
11
106.736808
21
92.936710
0
LINE
8
Layer 1
10
106.736808
20
92.936710
11
106.874894
21
93.085325
0
LINE
8
Layer 1
10
106.874894
20
93.085325
11
107.125747
21
93.366339
0
LINE
8
Layer 1
10
107.125747
20
93.366339
11
108.187667
21
94.559749
0
LINE
8
Layer 1
10
108.187667
20
94.559749
11
108.721817
21
95.160176
0
LINE
8
Layer 1
10
108.721817
20
95.160176
11
109.279694
21
95.763637
0
LINE
8
Layer 1
10
109.279694
20
95.763637
11
110.506184
21
96.980297
0
LINE
8
Layer 1
10
110.506184
20
96.980297
11
111.722574
21
98.209507
0
LINE
8
Layer 1
10
111.722574
20
98.209507
11
111.760445
21
98.248019
0
LINE
8
Layer 1
10
111.760445
20
98.248019
11
111.779487
21
98.267275
0
LINE
8
Layer 1
10
111.779487
20
98.267275
11
111.765000
21
98.286100
0
LINE
8
Layer 1
10
111.765000
20
98.286100
11
111.765000
21
98.286100
0
LINE
8
Layer 1
10
5.031790
20
101.431000
11
4.936258
21
101.376054
0
LINE
8
Layer 1
10
4.936258
20
101.376054
11
4.992217
21
101.419350
0
LINE
8
Layer 1
10
4.992217
20
101.419350
11
5.285305
21
101.614032
0
LINE
8
Layer 1
10
5.285305
20
101.614032
11
5.031790
21
101.431000
0
LINE
8
Layer 1
10
5.031790
20
101.431000
11
5.031790
21
101.431000
0
LINE
8
Layer 1
10
9.999580
20
104.508200
11
9.847025
21
104.410328
0
LINE
8
Layer 1
10
9.847025
20
104.410328
11
9.853516
21
104.428199
0
LINE
8
Layer 1
10
9.853516
20
104.428199
11
10.008738
21
104.526604
0
LINE
8
Layer 1
10
10.008738
20
104.526604
11
9.999580
21
104.508000
0
LINE
8
Layer 1
10
9.999580
20
104.508000
11
9.999580
21
104.508200
0
LINE
8
Layer 1
10
12.610870
20
106.128850
11
12.292888
21
105.876456
0
LINE
8
Layer 1
10
12.292888
20
105.876456
11
11.694693
21
105.583902
0
LINE
8
Layer 1
10
11.694693
20
105.583902
11
11.663205
21
105.585443
0
LINE
8
Layer 1
10
11.663205
20
105.585443
11
11.754056
21
105.674326
0
LINE
8
Layer 1
10
11.754056
20
105.674326
11
11.841079
21
105.731775
0
LINE
8
Layer 1
10
11.841079
20
105.731775
11
12.379378
21
106.066829
0
LINE
8
Layer 1
10
12.379378
20
106.066829
11
12.648423
21
106.201031
0
LINE
8
Layer 1
10
12.648423
20
106.201031
11
12.610900
21
106.129000
0
LINE
8
Layer 1
10
12.610900
20
106.129000
11
12.610870
21
106.128850
0
LINE
8
Layer 1
10
15.133440
20
107.552690
11
14.643330
21
107.229495
0
LINE
8
Layer 1
10
14.643330
20
107.229495
11
14.187584
21
106.974601
0
LINE
8
Layer 1
10
14.187584
20
106.974601
11
14.120669
21
106.981784
0
LINE
8
Layer 1
10
14.120669
20
106.981784
11
14.170340
21
107.031943
0
LINE
8
Layer 1
10
14.170340
20
107.031943
11
15.116196
21
107.615349
0
LINE
8
Layer 1
10
15.116196
20
107.615349
11
15.169390
21
107.626838
0
LINE
8
Layer 1
10
15.169390
20
107.626838
11
15.133400
21
107.553000
0
LINE
8
Layer 1
10
15.133400
20
107.553000
11
15.133440
21
107.552690
0
LINE
8
Layer 1
10
5.264020
20
61.607600
11
5.168488
21
61.552601
0
LINE
8
Layer 1
10
5.168488
20
61.552601
11
5.224444
21
61.595953
0
LINE
8
Layer 1
10
5.224444
20
61.595953
11
5.517636
21
61.790635
0
LINE
8
Layer 1
10
5.517636
20
61.790635
11
5.264020
21
61.607600
0
LINE
8
Layer 1
10
5.264020
20
61.607600
11
5.264020
21
61.607600
0
LINE
8
Layer 1
10
10.231920
20
64.684750
11
10.079365
21
64.586929
0
LINE
8
Layer 1
10
10.079365
20
64.586929
11
10.085856
21
64.604802
0
LINE
8
Layer 1
10
10.085856
20
64.604802
11
10.241078
21
64.703154
0
LINE
8
Layer 1
10
10.241078
20
64.703154
11
10.231900
21
64.684700
0
LINE
8
Layer 1
10
10.231900
20
64.684700
11
10.231920
21
64.684750
0
LINE
8
Layer 1
10
12.843100
20
66.305400
11
12.525118
21
66.053057
0
LINE
8
Layer 1
10
12.525118
20
66.053057
11
11.927030
21
65.760449
0
LINE
8
Layer 1
10
11.927030
20
65.760449
11
11.895542
21
65.762046
0
LINE
8
Layer 1
10
11.895542
20
65.762046
11
11.986393
21
65.850929
0
LINE
8
Layer 1
10
11.986393
20
65.850929
11
12.073317
21
65.908376
0
LINE
8
Layer 1
10
12.073317
20
65.908376
11
12.611616
21
66.243433
0
LINE
8
Layer 1
10
12.611616
20
66.243433
11
12.880661
21
66.377635
0
LINE
8
Layer 1
10
12.880661
20
66.377635
11
12.843100
21
66.305400
0
LINE
8
Layer 1
10
12.843100
20
66.305400
11
12.843100
21
66.305400
0
LINE
8
Layer 1
10
15.365770
20
67.729240
11
14.875660
21
67.406096
0
LINE
8
Layer 1
10
14.875660
20
67.406096
11
14.419807
21
67.151202
0
LINE
8
Layer 1
10
14.419807
20
67.151202
11
14.352892
21
67.158382
0
LINE
8
Layer 1
10
14.352892
20
67.158382
11
14.402679
21
67.208541
0
LINE
8
Layer 1
10
14.402679
20
67.208541
11
15.348535
21
67.791950
0
LINE
8
Layer 1
10
15.348535
20
67.791950
11
15.401725
21
67.803439
0
LINE
8
Layer 1
10
15.401725
20
67.803439
11
15.365800
21
67.729200
0
LINE
8
Layer 1
10
15.365800
20
67.729200
11
15.365770
21
67.729240
0
LINE
8
Layer 1
10
66.184270
20
14.403340
11
66.177141
21
14.573288
0
LINE
8
Layer 1
10
66.177141
20
14.573288
11
66.173633
21
15.421323
0
LINE
8
Layer 1
10
66.173633
20
15.421323
11
66.192037
21
14.668501
0
LINE
8
Layer 1
10
66.192037
20
14.668501
11
66.184300
21
14.403300
0
LINE
8
Layer 1
10
66.184300
20
14.403300
11
66.184270
21
14.403340
0
LINE
8
Layer 1
10
66.362996
20
28.310840
11
66.348634
21
28.347382
0
LINE
8
Layer 1
10
66.348634
20
28.347382
11
66.351718
21
28.790205
0
LINE
8
Layer 1
10
66.351718
20
28.790205
11
66.364701
21
28.747544
0
LINE
8
Layer 1
10
66.364701
20
28.747544
11
66.362996
21
28.310840
0
LINE
8
Layer 1
10
66.499058
20
35.177900
11
66.396826
21
33.585440
0
LINE
8
Layer 1
10
66.396826
20
33.585440
11
66.373633
21
33.524006
0
LINE
8
Layer 1
10
66.373633
20
33.524006
11
66.342569
21
33.824327
0
LINE
8
Layer 1
10
66.342569
20
33.824327
11
66.341931
21
34.075550
0
LINE
8
Layer 1
10
66.341931
20
34.075550
11
66.358952
21
35.603220
0
LINE
8
Layer 1
10
66.358952
20
35.603220
11
66.402250
21
36.322957
0
LINE
8
Layer 1
10
66.402250
20
36.322957
11
66.452144
21
36.152052
0
LINE
8
Layer 1
10
66.452144
20
36.152052
11
66.499100
21
35.177900
0
LINE
8
Layer 1
10
66.499100
20
35.177900
11
66.499058
21
35.177900
0
LINE
8
Layer 1
10
66.688528
20
41.703780
11
66.643954
21
40.448140
0
LINE
8
Layer 1
10
66.643954
20
40.448140
11
66.590763
21
40.322605
0
LINE
8
Layer 1
10
66.590763
20
40.322605
11
66.572253
21
40.489043
0
LINE
8
Layer 1
10
66.572253
20
40.489043
11
66.607677
21
43.166343
0
LINE
8
Layer 1
10
66.607677
20
43.166343
11
66.632038
21
43.288791
0
LINE
8
Layer 1
10
66.632038
20
43.288791
11
66.685124
21
43.118631
0
LINE
8
Layer 1
10
66.685124
20
43.118631
11
66.688600
21
41.703800
0
LINE
8
Layer 1
10
66.688600
20
41.703800
11
66.688528
21
41.703780
0
LINE
8
Layer 1
10
72.032918
20
58.830480
11
71.901428
21
58.719682
0
LINE
8
Layer 1
10
71.901428
20
58.719682
11
71.953769
21
58.817819
0
LINE
8
Layer 1
10
71.953769
20
58.817819
11
72.300470
21
59.235225
0
LINE
8
Layer 1
10
72.300470
20
59.235225
11
72.033000
21
58.830400
0
LINE
8
Layer 1
10
72.033000
20
58.830400
11
72.032918
21
58.830480
0
LINE
8
Layer 1
10
78.135000
20
65.097000
11
78.117339
21
65.142742
0
LINE
8
Layer 1
10
78.117339
20
65.142742
11
78.307980
21
65.352479
0
LINE
8
Layer 1
10
78.307980
20
65.352479
11
78.319999
21
65.306414
0
LINE
8
Layer 1
10
78.319999
20
65.306414
11
78.135000
21
65.097000
0
LINE
8
Layer 1
10
78.135000
20
65.097000
11
78.135000
21
65.097000
0
LINE
8
Layer 1
10
81.573740
20
68.757140
11
81.481826
21
68.439354
0
LINE
8
Layer 1
10
81.481826
20
68.439354
11
81.272462
21
68.195171
0
LINE
8
Layer 1
10
81.272462
20
68.195171
11
80.394159
21
67.605059
0
LINE
8
Layer 1
10
80.394159
20
67.605059
11
80.318309
21
67.618092
0
LINE
8
Layer 1
10
80.318309
20
67.618092
11
80.375318
21
67.821856
0
LINE
8
Layer 1
10
80.375318
20
67.821856
11
80.478083
21
67.945469
0
LINE
8
Layer 1
10
80.478083
20
67.945469
11
81.148078
21
68.658506
0
LINE
8
Layer 1
10
81.148078
20
68.658506
11
81.380807
21
68.909739
0
LINE
8
Layer 1
10
81.380807
20
68.909739
11
81.538295
21
68.930955
0
LINE
8
Layer 1
10
81.538295
20
68.930955
11
81.573800
21
68.757100
0
LINE
8
Layer 1
10
81.573800
20
68.757100
11
81.573740
21
68.757140
0
LINE
8
Layer 1
10
84.913330
20
71.766730
11
84.342677
21
71.063907
0
LINE
8
Layer 1
10
84.342677
20
71.063907
11
83.738632
21
70.523266
0
LINE
8
Layer 1
10
83.738632
20
70.523266
11
83.578310
21
70.554277
0
LINE
8
Layer 1
10
83.578310
20
70.554277
11
83.608844
21
70.668162
0
LINE
8
Layer 1
10
83.608844
20
70.668162
11
84.778634
21
71.921622
0
LINE
8
Layer 1
10
84.778634
20
71.921622
11
84.877143
21
71.940610
0
LINE
8
Layer 1
10
84.877143
20
71.940610
11
84.913400
21
71.766700
0
LINE
8
Layer 1
10
84.913400
20
71.766700
11
84.913330
21
71.766730
0
LINE
8
Layer 1
10
97.231230
20
93.653930
11
95.250200
21
91.275700
0
LINE
8
Layer 1
10
95.250200
20
91.275700
11
93.399550
21
88.983990
0
LINE
8
Layer 1
10
93.399550
20
88.983990
11
93.159975
21
88.616009
0
LINE
8
Layer 1
10
93.159975
20
88.616009
11
92.735743
21
87.926944
0
LINE
8
Layer 1
10
92.735743
20
87.926944
11
92.243055
21
87.285949
0
LINE
8
Layer 1
10
92.243055
20
87.285949
11
91.705444
21
86.592893
0
LINE
8
Layer 1
10
91.705444
20
86.592893
11
91.230705
21
85.845459
0
LINE
8
Layer 1
10
91.230705
20
85.845459
11
90.508261
21
84.674750
0
LINE
8
Layer 1
10
90.508261
20
84.674750
11
89.486335
21
83.753799
0
LINE
8
Layer 1
10
89.486335
20
83.753799
11
89.099736
21
83.338586
0
LINE
8
Layer 1
10
89.099736
20
83.338586
11
88.392488
21
82.391731
0
LINE
8
Layer 1
10
88.392488
20
82.391731
11
85.149388
21
78.000061
0
LINE
8
Layer 1
10
85.149388
20
78.000061
11
84.210554
21
76.676331
0
LINE
8
Layer 1
10
84.210554
20
76.676331
11
83.297357
21
75.344041
0
LINE
8
Layer 1
10
83.297357
20
75.344041
11
82.817953
21
74.683898
0
LINE
8
Layer 1
10
82.817953
20
74.683898
11
82.292677
21
74.119781
0
LINE
8
Layer 1
10
82.292677
20
74.119781
11
81.970760
21
73.627439
0
LINE
8
Layer 1
10
81.970760
20
73.627439
11
80.587450
21
71.558009
0
LINE
8
Layer 1
10
80.587450
20
71.558009
11
78.491060
21
68.703099
0
LINE
8
Layer 1
10
78.491060
20
68.703099
11
77.639565
21
67.501449
0
LINE
8
Layer 1
10
77.639565
20
67.501449
11
76.495625
21
65.830169
0
LINE
8
Layer 1
10
76.495625
20
65.830169
11
76.247645
21
65.465645
0
LINE
8
Layer 1
10
76.247645
20
65.465645
11
75.285195
21
63.986005
0
LINE
8
Layer 1
10
75.285195
20
63.986005
11
74.325615
21
62.519245
0
LINE
8
Layer 1
10
74.325615
20
62.519245
11
73.287735
21
61.102055
0
LINE
8
Layer 1
10
73.287735
20
61.102055
11
72.881242
21
60.494660
0
LINE
8
Layer 1
10
72.881242
20
60.494660
11
71.409322
21
58.320700
0
LINE
8
Layer 1
10
71.409322
20
58.320700
11
70.477083
21
56.999790
0
LINE
8
Layer 1
10
70.477083
20
56.999790
11
69.461763
21
55.569090
0
LINE
8
Layer 1
10
69.461763
20
55.569090
11
67.996653
21
53.559350
0
LINE
8
Layer 1
10
67.996653
20
53.559350
11
67.861751
21
53.362009
0
LINE
8
Layer 1
10
67.861751
20
53.362009
11
67.682822
21
53.053975
0
LINE
8
Layer 1
10
67.682822
20
53.053975
11
67.145054
21
52.367162
0
LINE
8
Layer 1
10
67.145054
20
52.367162
11
67.225487
21
54.909782
0
LINE
8
Layer 1
10
67.225487
20
54.909782
11
67.334636
21
59.959592
0
LINE
8
Layer 1
10
67.334636
20
59.959592
11
67.377190
21
60.625551
0
LINE
8
Layer 1
10
67.377190
20
60.625551
11
67.533572
21
64.982811
0
LINE
8
Layer 1
10
67.533572
20
64.982811
11
67.547830
21
65.903560
0
LINE
8
Layer 1
10
67.547830
20
65.903560
11
67.948470
21
75.073500
0
LINE
8
Layer 1
10
67.948470
20
75.073500
11
68.370920
21
84.732010
0
LINE
8
Layer 1
10
68.370920
20
84.732010
11
68.787090
21
94.866810
0
LINE
8
Layer 1
10
68.787090
20
94.866810
11
68.883367
21
97.402460
0
LINE
8
Layer 1
10
68.883367
20
97.402460
11
69.378796
21
109.617360
0
LINE
8
Layer 1
10
69.378796
20
109.617360
11
69.894435
21
129.912160
0
LINE
8
Layer 1
10
69.894435
20
129.912160
11
69.949437
21
137.937040
0
LINE
8
Layer 1
10
69.949437
20
137.937040
11
72.079557
21
135.139580
0
LINE
8
Layer 1
10
72.079557
20
135.139580
11
76.505537
21
129.246500
0
LINE
8
Layer 1
10
76.505537
20
129.246500
11
81.465777
21
122.442050
0
LINE
8
Layer 1
10
81.465777
20
122.442050
11
84.864197
21
117.786070
0
LINE
8
Layer 1
10
84.864197
20
117.786070
11
86.968777
21
114.930420
0
LINE
8
Layer 1
10
86.968777
20
114.930420
11
89.807837
21
111.151250
0
LINE
8
Layer 1
10
89.807837
20
111.151250
11
92.194657
21
108.141070
0
LINE
8
Layer 1
10
92.194657
20
108.141070
11
94.491907
21
105.252760
0
LINE
8
Layer 1
10
94.491907
20
105.252760
11
96.897347
21
102.454870
0
LINE
8
Layer 1
10
96.897347
20
102.454870
11
99.327997
21
99.679700
0
LINE
8
Layer 1
10
99.327997
20
99.679700
11
100.552687
21
98.300480
0
LINE
8
Layer 1
10
100.552687
20
98.300480
11
100.705773
21
98.128138
0
LINE
8
Layer 1
10
100.705773
20
98.128138
11
100.778008
21
98.046858
0
LINE
8
Layer 1
10
100.778008
20
98.046858
11
99.928748
21
96.966688
0
LINE
8
Layer 1
10
99.928748
20
96.966688
11
97.231300
21
93.653900
0
LINE
8
Layer 1
10
97.231300
20
93.653900
11
97.231230
21
93.653930
0
LINE
8
Layer 1
10
101.014650
20
98.123480
11
101.005077
21
98.132257
0
LINE
8
Layer 1
10
101.005077
20
98.132257
11
101.000502
21
98.136725
0
LINE
8
Layer 1
10
101.000502
20
98.136725
11
101.006564
21
98.141618
0
LINE
8
Layer 1
10
101.006564
20
98.141618
11
101.009652
21
98.142575
0
LINE
8
Layer 1
10
101.009652
20
98.142575
11
101.011565
21
98.140501
0
LINE
8
Layer 1
10
101.011565
20
98.140501
11
101.016033
21
98.135607
0
LINE
8
Layer 1
10
101.016033
20
98.135607
11
101.013801
21
98.124809
0
LINE
8
Layer 1
10
101.013801
20
98.124809
11
101.014650
21
98.123480
0
LINE
8
Layer 1
10
72.409000
20
58.132400
11
71.931551
21
57.582025
0
LINE
8
Layer 1
10
71.931551
20
57.582025
11
71.851871
21
57.430108
0
LINE
8
Layer 1
10
71.851871
20
57.430108
11
72.003574
21
57.518779
0
LINE
8
Layer 1
10
72.003574
20
57.518779
11
73.310924
21
58.885859
0
LINE
8
Layer 1
10
73.310924
20
58.885859
11
73.533746
21
59.182351
0
LINE
8
Layer 1
10
73.533746
20
59.182351
11
73.523906
21
59.498628
0
LINE
8
Layer 1
10
73.523906
20
59.498628
11
72.409000
21
58.132400
0
LINE
8
Layer 1
10
72.409000
20
58.132400
11
72.409000
21
58.132400
0
LINE
8
Layer 1
10
76.952300
20
62.794100
11
77.043895
21
62.868305
0
LINE
8
Layer 1
10
77.043895
20
62.868305
11
77.114428
21
62.964314
0
LINE
8
Layer 1
10
77.114428
20
62.964314
11
76.986449
21
62.871443
0
LINE
8
Layer 1
10
76.986449
20
62.871443
11
76.952300
21
62.794100
0
LINE
8
Layer 1
10
76.952300
20
62.794100
11
76.952300
21
62.794100
0
LINE
8
Layer 1
10
66.405300
20
14.219000
11
66.402531
21
13.080060
0
LINE
8
Layer 1
10
66.402531
20
13.080060
11
66.413064
21
12.818516
0
LINE
8
Layer 1
10
66.413064
20
12.818516
11
66.429766
21
13.077774
0
LINE
8
Layer 1
10
66.429766
20
13.077774
11
66.464660
21
16.029814
0
LINE
8
Layer 1
10
66.464660
20
16.029814
11
66.396255
21
16.974925
0
LINE
8
Layer 1
10
66.396255
20
16.974925
11
66.405300
21
14.219000
0
LINE
8
Layer 1
10
66.405300
20
14.219000
11
66.405300
21
14.219000
0
LINE
8
Layer 1
10
66.341100
20
0.044144
11
66.340253
21
0.382285
0
LINE
8
Layer 1
10
66.340253
20
0.382285
11
66.338233
21
0.904466
0
LINE
8
Layer 1
10
66.338233
20
0.904466
11
66.339401
21
0.432072
0
LINE
8
Layer 1
10
66.339401
20
0.432072
11
66.340888
21
0.078234
0
LINE
8
Layer 1
10
66.340888
20
0.078234
11
66.341100
21
0.044144
0
LINE
8
Layer 1
10
66.341100
20
0.044144
11
66.341100
21
0.044144
0
LINE
8
Layer 1
10
66.544400
20
24.498300
11
66.551845
21
24.371650
0
LINE
8
Layer 1
10
66.551845
20
24.371650
11
66.559183
21
24.552766
0
LINE
8
Layer 1
10
66.559183
20
24.552766
11
66.556843
21
24.738513
0
LINE
8
Layer 1
10
66.556843
20
24.738513
11
66.544400
21
24.498300
0
LINE
8
Layer 1
10
66.544400
20
24.498300
11
66.544400
21
24.498300
 0 
ENDSEC
 0 
EOF