999
"DXF R12 Output" (www.mydxf.blogspot.com)
 0 
SECTION
 2 
HEADER
 9 
$ACADVER
 1 
AC1009
 9 
$EXTMIN
 10 
 0 
 20 
 0 
 9 
$EXTMAX
 10 
 8.5 
 20 
 11 
 0 
ENDSEC
 0 
SECTION
 2 
ENTITIES
0
LINE
8
Layer 1
10
51.864100
20
61.747500
11
51.386651
21
61.197071
0
LINE
8
Layer 1
10
51.386651
20
61.197071
11
51.306968
21
61.045154
0
LINE
8
Layer 1
10
51.306968
20
61.045154
11
51.458564
21
61.133825
0
LINE
8
Layer 1
10
51.458564
20
61.133825
11
52.766024
21
62.500905
0
LINE
8
Layer 1
10
52.766024
20
62.500905
11
52.988843
21
62.797416
0
LINE
8
Layer 1
10
52.988843
20
62.797416
11
52.979003
21
63.113674
0
LINE
8
Layer 1
10
52.979003
20
63.113674
11
51.864100
21
61.747500
0
LINE
8
Layer 1
10
51.864100
20
61.747500
11
51.864100
21
61.747500
0
LINE
8
Layer 1
10
56.407300
20
66.409200
11
56.498898
21
66.483351
0
LINE
8
Layer 1
10
56.498898
20
66.483351
11
56.569428
21
66.579360
0
LINE
8
Layer 1
10
56.569428
20
66.579360
11
56.441449
21
66.486489
0
LINE
8
Layer 1
10
56.441449
20
66.486489
11
56.407300
21
66.409200
0
LINE
8
Layer 1
10
56.407300
20
66.409200
11
56.407300
21
66.409200
0
LINE
8
Layer 1
10
39.467100
20
63.046500
11
39.209810
21
63.313662
0
LINE
8
Layer 1
10
39.209810
20
63.313662
11
38.896032
21
63.354269
0
LINE
8
Layer 1
10
38.896032
20
63.354269
11
40.067532
21
62.036229
0
LINE
8
Layer 1
10
40.067532
20
62.036229
11
40.534982
21
61.477288
0
LINE
8
Layer 1
10
40.534982
20
61.477288
11
40.672323
21
61.374469
0
LINE
8
Layer 1
10
40.672323
20
61.374469
11
40.608823
21
61.538299
0
LINE
8
Layer 1
10
40.608823
20
61.538299
11
39.467100
21
63.046500
0
LINE
8
Layer 1
10
39.467100
20
63.046500
11
39.467100
21
63.046500
0
LINE
8
Layer 1
10
36.045400
20
67.450000
11
36.116675
21
67.308889
0
LINE
8
Layer 1
10
36.116675
20
67.308889
11
36.187634
21
67.262887
0
LINE
8
Layer 1
10
36.187634
20
67.262887
11
36.129017
21
67.365122
0
LINE
8
Layer 1
10
36.129017
20
67.365122
11
36.045400
21
67.450000
0
LINE
8
Layer 1
10
93.486300
20
140.685000
11
93.530770
21
140.639562
0
LINE
8
Layer 1
10
93.530770
20
140.639562
11
93.637684
21
140.530943
0
LINE
8
Layer 1
10
93.637684
20
140.530943
11
93.491832
21
140.679454
0
LINE
8
Layer 1
10
93.491832
20
140.679454
11
93.486300
21
140.685000
0
LINE
8
Layer 1
10
89.136200
20
145.129000
11
86.725870
21
147.585930
0
LINE
8
Layer 1
10
86.725870
20
147.585930
11
84.784800
21
149.564930
0
LINE
8
Layer 1
10
84.784800
20
149.564930
11
80.942870
21
153.465000
0
LINE
8
Layer 1
10
80.942870
20
153.465000
11
79.987549
21
154.460645
0
LINE
8
Layer 1
10
79.987549
20
154.460645
11
79.249462
21
155.235327
0
LINE
8
Layer 1
10
79.249462
20
155.235327
11
77.978072
21
156.527997
0
LINE
8
Layer 1
10
77.978072
20
156.527997
11
75.818592
21
158.748067
0
LINE
8
Layer 1
10
75.818592
20
158.748067
11
75.198164
21
159.394073
0
LINE
8
Layer 1
10
75.198164
20
159.394073
11
76.305294
21
158.429921
0
LINE
8
Layer 1
10
76.305294
20
158.429921
11
74.915714
21
159.890781
0
LINE
8
Layer 1
10
74.915714
20
159.890781
11
73.294854
21
161.589191
0
LINE
8
Layer 1
10
73.294854
20
161.589191
11
73.323178
21
161.510009
0
LINE
8
Layer 1
10
73.323178
20
161.510009
11
73.281449
21
161.506266
0
LINE
8
Layer 1
10
73.281449
20
161.506266
11
72.703681
21
162.074461
0
LINE
8
Layer 1
10
72.703681
20
162.074461
11
71.216231
21
163.631591
0
LINE
8
Layer 1
10
71.216231
20
163.631591
11
68.671961
21
166.295271
0
LINE
8
Layer 1
10
68.671961
20
166.295271
11
67.813233
21
167.158732
0
LINE
8
Layer 1
10
67.813233
20
167.158732
11
64.101303
21
171.108812
0
LINE
8
Layer 1
10
64.101303
20
171.108812
11
61.878203
21
173.481852
0
LINE
8
Layer 1
10
61.878203
20
173.481852
11
60.412983
21
175.022822
0
LINE
8
Layer 1
10
60.412983
20
175.022822
11
58.938293
21
176.526982
0
LINE
8
Layer 1
10
58.938293
20
176.526982
11
57.761263
21
177.650762
0
LINE
8
Layer 1
10
57.761263
20
177.650762
11
56.990726
21
178.526884
0
LINE
8
Layer 1
10
56.990726
20
178.526884
11
56.012745
21
179.610294
0
LINE
8
Layer 1
10
56.012745
20
179.610294
11
53.363365
21
182.512544
0
LINE
8
Layer 1
10
53.363365
20
182.512544
11
52.124845
21
183.839414
0
LINE
8
Layer 1
10
52.124845
20
183.839414
11
49.966645
21
186.053844
0
LINE
8
Layer 1
10
49.966645
20
186.053844
11
48.911744
21
187.167774
0
LINE
8
Layer 1
10
48.911744
20
187.167774
11
48.647701
21
187.470274
0
LINE
8
Layer 1
10
48.647701
20
187.470274
11
48.271527
21
187.888202
0
LINE
8
Layer 1
10
48.271527
20
187.888202
11
47.478119
21
188.750068
0
LINE
8
Layer 1
10
47.478119
20
188.750068
11
46.969501
21
189.294912
0
LINE
8
Layer 1
10
46.969501
20
189.294912
11
46.488115
21
189.765447
0
LINE
8
Layer 1
10
46.488115
20
189.765447
11
45.595983
21
190.604547
0
LINE
8
Layer 1
10
45.595983
20
190.604547
11
45.151100
21
191.028000
0
LINE
8
Layer 1
10
45.151100
20
191.028000
11
45.095463
21
191.081244
0
LINE
8
Layer 1
10
45.095463
20
191.081244
11
45.067700
21
191.108000
0
LINE
8
Layer 1
10
45.067700
20
191.108000
11
45.066740
21
191.069116
0
LINE
8
Layer 1
10
45.066740
20
191.069116
11
45.063230
21
190.913047
0
LINE
8
Layer 1
10
45.063230
20
190.913047
11
45.055892
21
190.601875
0
LINE
8
Layer 1
10
45.055892
20
190.601875
11
45.022169
21
189.364265
0
LINE
8
Layer 1
10
45.022169
20
189.364265
11
45.003232
21
188.746481
0
LINE
8
Layer 1
10
45.003232
20
188.746481
11
44.991424
21
188.098553
0
LINE
8
Layer 1
10
44.991424
20
188.098553
11
44.912063
21
183.934593
0
LINE
8
Layer 1
10
44.912063
20
183.934593
11
44.802914
21
177.029243
0
LINE
8
Layer 1
10
44.802914
20
177.029243
11
44.760465
21
176.118654
0
LINE
8
Layer 1
10
44.760465
20
176.118654
11
44.603976
21
170.160324
0
LINE
8
Layer 1
10
44.603976
20
170.160324
11
44.589721
21
168.901274
0
LINE
8
Layer 1
10
44.589721
20
168.901274
11
44.189081
21
156.361974
0
LINE
8
Layer 1
10
44.189081
20
156.361974
11
43.798768
21
144.157374
0
LINE
8
Layer 1
10
43.798768
20
144.157374
11
43.433446
21
143.804980
0
LINE
8
Layer 1
10
43.433446
20
143.804980
11
39.058846
21
139.654210
0
LINE
8
Layer 1
10
39.058846
20
139.654210
11
33.660416
21
134.636840
0
LINE
8
Layer 1
10
33.660416
20
134.636840
11
27.411336
21
128.992980
0
LINE
8
Layer 1
10
27.411336
20
128.992980
11
23.135886
21
125.126690
0
LINE
8
Layer 1
10
23.135886
20
125.126690
11
20.515656
21
122.735290
0
LINE
8
Layer 1
10
20.515656
20
122.735290
11
17.053726
21
119.516980
0
LINE
8
Layer 1
10
17.053726
20
119.516980
11
14.309356
21
116.828780
0
LINE
8
Layer 1
10
14.309356
20
116.828780
11
11.676896
21
114.242330
0
LINE
8
Layer 1
10
11.676896
20
114.242330
11
9.145606
21
111.557740
0
LINE
8
Layer 1
10
9.145606
20
111.557740
11
6.639536
21
108.850550
0
LINE
8
Layer 1
10
6.639536
20
108.850550
11
5.395806
21
107.488470
0
LINE
8
Layer 1
10
5.395806
20
107.488470
11
3.143566
21
104.999470
0
LINE
8
Layer 1
10
3.143566
20
104.999470
11
2.826117
21
104.648245
0
LINE
8
Layer 1
10
2.826117
20
104.648245
11
2.468988
21
104.296596
0
LINE
8
Layer 1
10
2.468988
20
104.296596
11
1.747064
21
103.593403
0
LINE
8
Layer 1
10
1.747064
20
103.593403
11
0.304294
21
102.187863
0
LINE
8
Layer 1
10
0.304294
20
102.187863
11
0.124078
21
102.012222
0
LINE
8
Layer 1
10
0.124078
20
102.012222
11
0.033973
21
101.924403
0
LINE
8
Layer 1
10
0.033973
20
101.924403
11
0.011418
21
101.902488
0
LINE
8
Layer 1
10
0.011418
20
101.902488
11
0.006620
21
101.880252
0
LINE
8
Layer 1
10
0.006620
20
101.880252
11
0.050768
21
101.835147
0
LINE
8
Layer 1
10
0.050768
20
101.835147
11
0.403856
21
101.474346
0
LINE
8
Layer 1
10
0.403856
20
101.474346
11
1.109910
21
100.753000
0
LINE
8
Layer 1
10
1.109910
20
100.753000
11
2.520870
21
99.310800
0
LINE
8
Layer 1
10
2.520870
20
99.310800
11
2.719382
21
99.109895
0
LINE
8
Layer 1
10
2.719382
20
99.109895
11
2.896191
21
98.910426
0
LINE
8
Layer 1
10
2.896191
20
98.910426
11
3.251830
21
98.514040
0
LINE
8
Layer 1
10
3.251830
20
98.514040
11
3.963111
21
97.726855
0
LINE
8
Layer 1
10
3.963111
20
97.726855
11
6.103971
21
95.381365
0
LINE
8
Layer 1
10
6.103971
20
95.381365
11
8.945581
21
92.191505
0
LINE
8
Layer 1
10
8.945581
20
92.191505
11
10.978461
21
89.857455
0
LINE
8
Layer 1
10
10.978461
20
89.857455
11
12.946771
21
87.665845
0
LINE
8
Layer 1
10
12.946771
20
87.665845
11
13.271877
21
87.370790
0
LINE
8
Layer 1
10
13.271877
20
87.370790
11
13.884754
21
86.842375
0
LINE
8
Layer 1
10
13.884754
20
86.842375
11
14.439227
21
86.254080
0
LINE
8
Layer 1
10
14.439227
20
86.254080
11
15.037941
21
85.613047
0
LINE
8
Layer 1
10
15.037941
20
85.613047
11
15.700407
21
85.025510
0
LINE
8
Layer 1
10
15.700407
20
85.025510
11
16.741271
21
84.126065
0
LINE
8
Layer 1
10
16.741271
20
84.126065
11
17.487967
21
82.970710
0
LINE
8
Layer 1
10
17.487967
20
82.970710
11
17.836480
21
82.523047
0
LINE
8
Layer 1
10
17.836480
20
82.523047
11
18.658824
21
81.674214
0
LINE
8
Layer 1
10
18.658824
20
81.674214
11
22.478844
21
77.773924
0
LINE
8
Layer 1
10
22.478844
20
77.773924
11
23.636514
21
76.636574
0
LINE
8
Layer 1
10
23.636514
20
76.636574
11
24.806624
21
75.523114
0
LINE
8
Layer 1
10
24.806624
20
75.523114
11
25.382105
21
74.944833
0
LINE
8
Layer 1
10
25.382105
20
74.944833
11
25.855454
21
74.336514
0
LINE
8
Layer 1
10
25.855454
20
74.336514
11
26.290358
21
73.940396
0
LINE
8
Layer 1
10
26.290358
20
73.940396
11
28.113448
21
72.245596
0
LINE
8
Layer 1
10
28.113448
20
72.245596
11
30.598678
21
69.721856
0
LINE
8
Layer 1
10
30.598678
20
69.721856
11
31.649638
21
68.690146
0
LINE
8
Layer 1
10
31.649638
20
68.690146
11
33.117728
21
67.294876
0
LINE
8
Layer 1
10
33.117728
20
67.294876
11
33.438154
21
66.992108
0
LINE
8
Layer 1
10
33.438154
20
66.992108
11
34.745924
21
65.806628
0
LINE
8
Layer 1
10
34.745924
20
65.806628
11
36.041354
21
64.626038
0
LINE
8
Layer 1
10
36.041354
20
64.626038
11
37.275514
21
63.375928
0
LINE
8
Layer 1
10
37.275514
20
63.375928
11
37.810519
21
62.878055
0
LINE
8
Layer 1
10
37.810519
20
62.878055
11
39.722759
21
61.079175
0
LINE
8
Layer 1
10
39.722759
20
61.079175
11
40.878619
21
59.948745
0
LINE
8
Layer 1
10
40.878619
20
59.948745
11
42.129579
21
58.718795
0
LINE
8
Layer 1
10
42.129579
20
58.718795
11
42.230005
21
58.617477
0
LINE
8
Layer 1
10
42.230005
20
58.617477
11
42.301602
21
48.632477
0
LINE
8
Layer 1
10
42.301602
20
48.632477
11
42.349261
21
32.565677
0
LINE
8
Layer 1
10
42.349261
20
32.565677
11
42.208714
21
22.480877
0
LINE
8
Layer 1
10
42.208714
20
22.480877
11
42.064537
21
15.240007
0
LINE
8
Layer 1
10
42.064537
20
15.240007
11
42.224352
21
8.021577
0
LINE
8
Layer 1
10
42.224352
20
8.021577
11
42.632053
21
4.544373
0
LINE
8
Layer 1
10
42.632053
20
4.544373
11
43.029223
21
2.982144
0
LINE
8
Layer 1
10
43.029223
20
2.982144
11
43.565632
21
1.543937
0
LINE
8
Layer 1
10
43.565632
20
1.543937
11
44.297738
21
0.403598
0
LINE
8
Layer 1
10
44.297738
20
0.403598
11
44.713480
21
0.099214
0
LINE
8
Layer 1
10
44.713480
20
0.099214
11
45.145468
21
0.000917
0
LINE
8
Layer 1
10
45.145468
20
0.000917
11
45.581042
21
0.130378
0
LINE
8
Layer 1
10
45.581042
20
0.130378
11
46.007542
21
0.509268
0
LINE
8
Layer 1
10
46.007542
20
0.509268
11
46.412309
21
1.159260
0
LINE
8
Layer 1
10
46.412309
20
1.159260
11
46.782682
21
2.102025
0
LINE
8
Layer 1
10
46.782682
20
2.102025
11
47.367307
21
4.561255
0
LINE
8
Layer 1
10
47.367307
20
4.561255
11
47.618432
21
7.076515
0
LINE
8
Layer 1
10
47.618432
20
7.076515
11
48.137371
21
19.927115
0
LINE
8
Layer 1
10
48.137371
20
19.927115
11
48.516841
21
35.618715
0
LINE
8
Layer 1
10
48.516841
20
35.618715
11
48.910354
21
53.522115
0
LINE
8
Layer 1
10
48.910354
20
53.522115
11
48.989940
21
58.757615
0
LINE
8
Layer 1
10
48.989940
20
58.757615
11
49.131003
21
58.931500
0
LINE
8
Layer 1
10
49.131003
20
58.931500
11
49.963987
21
59.925545
0
LINE
8
Layer 1
10
49.963987
20
59.925545
11
51.578677
21
61.914435
0
LINE
8
Layer 1
10
51.578677
20
61.914435
11
52.033785
21
62.374702
0
LINE
8
Layer 1
10
52.033785
20
62.374702
11
52.395915
21
62.723746
0
LINE
8
Layer 1
10
52.395915
20
62.723746
11
52.934428
21
63.379229
0
LINE
8
Layer 1
10
52.934428
20
63.379229
11
53.897934
21
64.461789
0
LINE
8
Layer 1
10
53.897934
20
64.461789
11
54.190384
21
64.763120
0
LINE
8
Layer 1
10
54.190384
20
64.763120
11
54.131570
21
64.381064
0
LINE
8
Layer 1
10
54.131570
20
64.381064
11
54.040276
21
63.991627
0
LINE
8
Layer 1
10
54.040276
20
63.991627
11
54.717609
21
64.653545
0
LINE
8
Layer 1
10
54.717609
20
64.653545
11
55.494741
21
65.434295
0
LINE
8
Layer 1
10
55.494741
20
65.434295
11
55.315589
21
65.556156
0
LINE
8
Layer 1
10
55.315589
20
65.556156
11
55.522080
21
65.878171
0
LINE
8
Layer 1
10
55.522080
20
65.878171
11
56.233469
21
66.595514
0
LINE
8
Layer 1
10
56.233469
20
66.595514
11
57.446349
21
67.825894
0
LINE
8
Layer 1
10
57.446349
20
67.825894
11
57.789754
21
68.281683
0
LINE
8
Layer 1
10
57.789754
20
68.281683
11
58.665184
21
69.215035
0
LINE
8
Layer 1
10
58.665184
20
69.215035
11
59.662534
21
70.016793
0
LINE
8
Layer 1
10
59.662534
20
70.016793
11
60.296499
21
70.459211
0
LINE
8
Layer 1
10
60.296499
20
70.459211
11
60.789024
21
71.055083
0
LINE
8
Layer 1
10
60.789024
20
71.055083
11
61.488283
21
71.766099
0
LINE
8
Layer 1
10
61.488283
20
71.766099
11
62.112434
21
72.528973
0
LINE
8
Layer 1
10
62.112434
20
72.528973
11
62.482117
21
73.213550
0
LINE
8
Layer 1
10
62.482117
20
73.213550
11
62.958290
21
73.523926
0
LINE
8
Layer 1
10
62.958290
20
73.523926
11
63.513294
21
73.947383
0
LINE
8
Layer 1
10
63.513294
20
73.947383
11
64.176156
21
74.609913
0
LINE
8
Layer 1
10
64.176156
20
74.609913
11
64.952444
21
75.134993
0
LINE
8
Layer 1
10
64.952444
20
75.134993
11
65.573725
21
75.720846
0
LINE
8
Layer 1
10
65.573725
20
75.720846
11
66.030416
21
76.279945
0
LINE
8
Layer 1
10
66.030416
20
76.279945
11
66.498835
21
76.833136
0
LINE
8
Layer 1
10
66.498835
20
76.833136
11
67.000115
21
77.348824
0
LINE
8
Layer 1
10
67.000115
20
77.348824
11
67.592985
21
77.754684
0
LINE
8
Layer 1
10
67.592985
20
77.754684
11
67.917137
21
78.050537
0
LINE
8
Layer 1
10
67.917137
20
78.050537
11
69.010415
21
79.232253
0
LINE
8
Layer 1
10
69.010415
20
79.232253
11
70.157467
21
80.359117
0
LINE
8
Layer 1
10
70.157467
20
80.359117
11
71.308100
21
81.496436
0
LINE
8
Layer 1
10
71.308100
20
81.496436
11
72.367057
21
82.720567
0
LINE
8
Layer 1
10
72.367057
20
82.720567
11
72.705038
21
82.992271
0
LINE
8
Layer 1
10
72.705038
20
82.992271
11
74.698238
21
84.956061
0
LINE
8
Layer 1
10
74.698238
20
84.956061
11
75.086643
21
85.398935
0
LINE
8
Layer 1
10
75.086643
20
85.398935
11
79.322623
21
89.496615
0
LINE
8
Layer 1
10
79.322623
20
89.496615
11
83.683603
21
93.898335
0
LINE
8
Layer 1
10
83.683603
20
93.898335
11
85.915633
21
96.254625
0
LINE
8
Layer 1
10
85.915633
20
96.254625
11
86.191804
21
96.551703
0
LINE
8
Layer 1
10
86.191804
20
96.551703
11
86.329890
21
96.700321
0
LINE
8
Layer 1
10
86.329890
20
96.700321
11
86.580636
21
96.981332
0
LINE
8
Layer 1
10
86.580636
20
96.981332
11
87.642666
21
98.174742
0
LINE
8
Layer 1
10
87.642666
20
98.174742
11
88.176712
21
98.775223
0
LINE
8
Layer 1
10
88.176712
20
98.775223
11
88.734693
21
99.378631
0
LINE
8
Layer 1
10
88.734693
20
99.378631
11
89.961083
21
100.595341
0
LINE
8
Layer 1
10
89.961083
20
100.595341
11
91.177583
21
101.824491
0
LINE
8
Layer 1
10
91.177583
20
101.824491
11
91.215455
21
101.863003
0
LINE
8
Layer 1
10
91.215455
20
101.863003
11
91.234392
21
101.882259
0
LINE
8
Layer 1
10
91.234392
20
101.882259
11
91.220348
21
101.901035
0
LINE
8
Layer 1
10
91.220348
20
101.901035
11
91.144713
21
101.975982
0
LINE
8
Layer 1
10
91.144713
20
101.975982
11
90.993755
21
102.125876
0
LINE
8
Layer 1
10
90.993755
20
102.125876
11
90.694391
21
102.425717
0
LINE
8
Layer 1
10
90.694391
20
102.425717
11
90.110454
21
103.026568
0
LINE
8
Layer 1
10
90.110454
20
103.026568
11
88.701504
21
104.495988
0
LINE
8
Layer 1
10
88.701504
20
104.495988
11
87.420754
21
105.982108
0
LINE
8
Layer 1
10
87.420754
20
105.982108
11
85.635644
21
108.046058
0
LINE
8
Layer 1
10
85.635644
20
108.046058
11
83.011904
21
110.944638
0
LINE
8
Layer 1
10
83.011904
20
110.944638
11
73.989834
21
120.291438
0
LINE
8
Layer 1
10
73.989834
20
120.291438
11
68.279384
21
125.657638
0
LINE
8
Layer 1
10
68.279384
20
125.657638
11
62.698294
21
130.735798
0
LINE
8
Layer 1
10
62.698294
20
130.735798
11
57.142634
21
135.847788
0
LINE
8
Layer 1
10
57.142634
20
135.847788
11
53.689214
21
139.086798
0
LINE
8
Layer 1
10
53.689214
20
139.086798
11
48.634194
21
143.637778
0
LINE
8
Layer 1
10
48.634194
20
143.637778
11
48.009614
21
144.174590
0
LINE
8
Layer 1
10
48.009614
20
144.174590
11
47.938443
21
147.368910
0
LINE
8
Layer 1
10
47.938443
20
147.368910
11
47.821422
21
153.984740
0
LINE
8
Layer 1
10
47.821422
20
153.984740
11
47.694933
21
160.279140
0
LINE
8
Layer 1
10
47.694933
20
160.279140
11
47.655250
21
161.210049
0
LINE
8
Layer 1
10
47.655250
20
161.210049
11
47.531953
21
164.645229
0
LINE
8
Layer 1
10
47.531953
20
164.645229
11
47.410880
21
168.392429
0
LINE
8
Layer 1
10
47.410880
20
168.392429
11
47.282186
21
171.301977
0
LINE
8
Layer 1
10
47.282186
20
171.301977
11
47.335134
21
174.213889
0
LINE
8
Layer 1
10
47.335134
20
174.213889
11
47.334178
21
175.425329
0
LINE
8
Layer 1
10
47.334178
20
175.425329
11
47.274603
21
177.946419
0
LINE
8
Layer 1
10
47.274603
20
177.946419
11
47.140028
21
183.767349
0
LINE
8
Layer 1
10
47.140028
20
183.767349
11
47.107048
21
185.222569
0
LINE
8
Layer 1
10
47.107048
20
185.222569
11
47.090558
21
185.950180
0
LINE
8
Layer 1
10
47.090558
20
185.950180
11
47.089815
21
185.988105
0
LINE
8
Layer 1
10
47.089815
20
185.988105
11
47.090453
21
185.992945
0
LINE
8
Layer 1
10
47.090453
20
185.992945
11
47.091622
21
186.002679
0
LINE
8
Layer 1
10
47.091622
20
186.002679
11
47.093964
21
186.022308
0
LINE
8
Layer 1
10
47.093964
20
186.022308
11
47.098643
21
186.062307
0
LINE
8
Layer 1
10
47.098643
20
186.062307
11
47.107793
21
186.144913
0
LINE
8
Layer 1
10
47.107793
20
186.144913
11
47.111515
21
186.188584
0
LINE
8
Layer 1
10
47.111515
20
186.188584
11
47.102899
21
186.247732
0
LINE
8
Layer 1
10
47.102899
20
186.247732
11
47.085878
21
186.368639
0
LINE
8
Layer 1
10
47.085878
20
186.368639
11
47.077262
21
186.430395
0
LINE
8
Layer 1
10
47.077262
20
186.430395
11
47.073006
21
186.461671
0
LINE
8
Layer 1
10
47.073006
20
186.461671
11
47.087682
21
186.453800
0
LINE
8
Layer 1
10
47.087682
20
186.453800
11
47.250767
21
186.338586
0
LINE
8
Layer 1
10
47.250767
20
186.338586
11
47.344916
21
186.230712
0
LINE
8
Layer 1
10
47.344916
20
186.230712
11
47.394280
21
186.174595
0
LINE
8
Layer 1
10
47.394280
20
186.174595
11
47.419598
21
186.145924
0
LINE
8
Layer 1
10
47.419598
20
186.145924
11
47.425982
21
186.138691
0
LINE
8
Layer 1
10
47.425982
20
186.138691
11
47.429173
21
186.135072
0
LINE
8
Layer 1
10
47.429173
20
186.135072
11
47.447151
21
186.117467
0
LINE
8
Layer 1
10
47.447151
20
186.117467
11
47.524598
21
186.042202
0
LINE
8
Layer 1
10
47.524598
20
186.042202
11
49.991848
21
183.652292
0
LINE
8
Layer 1
10
49.991848
20
183.652292
11
52.383348
21
181.256962
0
LINE
8
Layer 1
10
52.383348
20
181.256962
11
53.282075
21
180.391054
0
LINE
8
Layer 1
10
53.282075
20
180.391054
11
57.078055
21
176.711464
0
LINE
8
Layer 1
10
57.078055
20
176.711464
11
62.452655
21
171.405484
0
LINE
8
Layer 1
10
62.452655
20
171.405484
11
64.688515
21
169.206274
0
LINE
8
Layer 1
10
64.688515
20
169.206274
11
67.763425
21
166.191684
0
LINE
8
Layer 1
10
67.763425
20
166.191684
11
68.432469
21
165.535518
0
LINE
8
Layer 1
10
68.432469
20
165.535518
11
71.111319
21
162.921838
0
LINE
8
Layer 1
10
71.111319
20
162.921838
11
73.768459
21
160.321728
0
LINE
8
Layer 1
10
73.768459
20
160.321728
11
76.422729
21
157.679638
0
LINE
8
Layer 1
10
76.422729
20
157.679638
11
77.528689
21
156.590698
0
LINE
8
Layer 1
10
77.528689
20
156.590698
11
81.497859
21
152.670838
0
LINE
8
Layer 1
10
81.497859
20
152.670838
11
83.938079
21
150.243448
0
LINE
8
Layer 1
10
83.938079
20
150.243448
11
86.583629
21
147.605888
0
LINE
8
Layer 1
10
86.583629
20
147.605888
11
90.329069
21
143.854268
0
LINE
8
Layer 1
10
90.329069
20
143.854268
11
90.689283
21
143.495809
0
LINE
8
Layer 1
10
90.689283
20
143.495809
11
90.797476
21
143.402512
0
LINE
8
Layer 1
10
90.797476
20
143.402512
11
91.224924
21
142.971497
0
LINE
8
Layer 1
10
91.224924
20
142.971497
11
92.954614
21
141.220747
0
LINE
8
Layer 1
10
92.954614
20
141.220747
11
93.486320
21
140.684949
0
LINE
8
Layer 1
10
93.486320
20
140.684949
11
92.596209
21
141.595005
0
LINE
8
Layer 1
10
92.596209
20
141.595005
11
89.136200
21
145.129000
0
LINE
8
Layer 1
10
89.136200
20
145.129000
11
89.136200
21
145.129000
0
LINE
8
Layer 1
10
29.580100
20
75.038800
11
29.472548
21
75.087060
0
LINE
8
Layer 1
10
29.472548
20
75.087060
11
28.421048
21
76.441270
0
LINE
8
Layer 1
10
28.421048
20
76.441270
11
28.417963
21
76.541589
0
LINE
8
Layer 1
10
28.417963
20
76.541589
11
28.595410
21
76.549675
0
LINE
8
Layer 1
10
28.595410
20
76.549675
11
29.198499
21
75.874459
0
LINE
8
Layer 1
10
29.198499
20
75.874459
11
29.636160
21
75.192117
0
LINE
8
Layer 1
10
29.636160
20
75.192117
11
29.580100
21
75.038800
0
LINE
8
Layer 1
10
29.580100
20
75.038800
11
29.580100
21
75.038800
0
LINE
8
Layer 1
10
31.960540
20
71.353300
11
31.768412
21
71.442025
0
LINE
8
Layer 1
10
31.768412
20
71.442025
11
31.662666
21
71.563098
0
LINE
8
Layer 1
10
31.662666
20
71.563098
11
31.065202
21
72.337995
0
LINE
8
Layer 1
10
31.065202
20
72.337995
11
30.854191
21
72.607692
0
LINE
8
Layer 1
10
30.854191
20
72.607692
11
30.858285
21
72.766560
0
LINE
8
Layer 1
10
30.858285
20
72.766560
11
31.035520
21
72.773954
0
LINE
8
Layer 1
10
31.035520
20
72.773954
11
31.334658
21
72.632604
0
LINE
8
Layer 1
10
31.334658
20
72.632604
11
31.542439
21
72.387090
0
LINE
8
Layer 1
10
31.542439
20
72.387090
11
31.985420
21
71.426181
0
LINE
8
Layer 1
10
31.985420
20
71.426181
11
31.960500
21
71.353300
0
LINE
8
Layer 1
10
31.960500
20
71.353300
11
31.960540
21
71.353300
0
LINE
8
Layer 1
10
34.054270
20
68.786740
11
33.877565
21
69.008231
0
LINE
8
Layer 1
10
33.877565
20
69.008231
11
33.924908
21
69.012747
0
LINE
8
Layer 1
10
33.924908
20
69.012747
11
34.102248
21
68.796847
0
LINE
8
Layer 1
10
34.102248
20
68.796847
11
34.054200
21
68.786800
0
LINE
8
Layer 1
10
34.054200
20
68.786800
11
34.054270
21
68.786740
0
LINE
8
Layer 1
10
39.318560
20
61.695800
11
38.961642
21
62.104418
0
LINE
8
Layer 1
10
38.961642
20
62.104418
11
39.318653
21
61.775960
0
LINE
8
Layer 1
10
39.318653
20
61.775960
11
39.407059
21
61.628406
0
LINE
8
Layer 1
10
39.407059
20
61.628406
11
39.318500
21
61.695800
0
LINE
8
Layer 1
10
39.318500
20
61.695800
11
39.318560
21
61.695800
0
LINE
8
Layer 1
10
41.564100
20
59.870470
11
39.857390
21
61.780960
0
LINE
8
Layer 1
10
39.857390
20
61.780960
11
39.475261
21
62.303463
0
LINE
8
Layer 1
10
39.475261
20
62.303463
11
39.188241
21
62.716498
0
LINE
8
Layer 1
10
39.188241
20
62.716498
11
38.626749
21
63.352406
0
LINE
8
Layer 1
10
38.626749
20
63.352406
11
37.711221
21
64.475766
0
LINE
8
Layer 1
10
37.711221
20
64.475766
11
37.460264
21
64.812457
0
LINE
8
Layer 1
10
37.460264
20
64.812457
11
37.828072
21
64.693620
0
LINE
8
Layer 1
10
37.828072
20
64.693620
11
38.198035
21
64.541552
0
LINE
8
Layer 1
10
38.198035
20
64.541552
11
37.652285
21
65.315599
0
LINE
8
Layer 1
10
37.652285
20
65.315599
11
37.005048
21
66.206932
0
LINE
8
Layer 1
10
37.005048
20
66.206932
11
36.856218
21
66.049486
0
LINE
8
Layer 1
10
36.856218
20
66.049486
11
36.571109
21
66.304538
0
LINE
8
Layer 1
10
36.571109
20
66.304538
11
35.976106
21
67.120924
0
LINE
8
Layer 1
10
35.976106
20
67.120924
11
34.954296
21
68.514074
0
LINE
8
Layer 1
10
34.954296
20
68.514074
11
34.558869
21
68.925554
0
LINE
8
Layer 1
10
34.558869
20
68.925554
11
33.776617
21
69.938297
0
LINE
8
Layer 1
10
33.776617
20
69.938297
11
33.143649
21
71.050464
0
LINE
8
Layer 1
10
33.143649
20
71.050464
11
32.807648
21
71.746694
0
LINE
8
Layer 1
10
32.807648
20
71.746694
11
32.297686
21
72.327704
0
LINE
8
Layer 1
10
32.297686
20
72.327704
11
31.706939
21
73.131114
0
LINE
8
Layer 1
10
31.706939
20
73.131114
11
31.053000
21
73.868617
0
LINE
8
Layer 1
10
31.053000
20
73.868617
11
30.435975
21
74.342504
0
LINE
8
Layer 1
10
30.435975
20
74.342504
11
30.205230
21
74.861973
0
LINE
8
Layer 1
10
30.205230
20
74.861973
11
29.875439
21
75.477242
0
LINE
8
Layer 1
10
29.875439
20
75.477242
11
29.326740
21
76.237040
0
LINE
8
Layer 1
10
29.326740
20
76.237040
11
28.931818
21
77.086982
0
LINE
8
Layer 1
10
28.931818
20
77.086982
11
28.452241
21
77.793530
0
LINE
8
Layer 1
10
28.452241
20
77.793530
11
27.972837
21
78.333293
0
LINE
8
Layer 1
10
27.972837
20
78.333293
11
27.501173
21
78.883750
0
LINE
8
Layer 1
10
27.501173
20
78.883750
11
27.071782
21
79.460674
0
LINE
8
Layer 1
10
27.071782
20
79.460674
11
26.765420
21
80.110570
0
LINE
8
Layer 1
10
26.765420
20
80.110570
11
26.524781
21
80.477594
0
LINE
8
Layer 1
10
26.524781
20
80.477594
11
25.531982
21
81.744913
0
LINE
8
Layer 1
10
25.531982
20
81.744913
11
24.601901
21
83.056594
0
LINE
8
Layer 1
10
24.601901
20
83.056594
11
23.662044
21
84.373403
0
LINE
8
Layer 1
10
23.662044
20
84.373403
11
22.621891
21
85.613574
0
LINE
8
Layer 1
10
22.621891
20
85.613574
11
22.407422
21
85.990490
0
LINE
8
Layer 1
10
22.407422
20
85.990490
11
20.785492
21
88.270610
0
LINE
8
Layer 1
10
20.785492
20
88.270610
11
20.410066
21
88.724496
0
LINE
8
Layer 1
10
20.410066
20
88.724496
11
17.038136
21
93.558196
0
LINE
8
Layer 1
10
17.038136
20
93.558196
11
13.385986
21
98.563696
0
LINE
8
Layer 1
10
13.385986
20
98.563696
11
11.414706
21
101.142006
0
LINE
8
Layer 1
10
11.414706
20
101.142006
11
11.165236
21
101.461955
0
LINE
8
Layer 1
10
11.165236
20
101.461955
11
11.040553
21
101.621901
0
LINE
8
Layer 1
10
11.040553
20
101.621901
11
11.023639
21
101.639399
0
LINE
8
Layer 1
10
11.023639
20
101.639399
11
11.017256
21
101.640302
0
LINE
8
Layer 1
10
11.017256
20
101.640302
11
11.004595
21
101.641899
0
LINE
8
Layer 1
10
11.004595
20
101.641899
11
10.907042
21
101.648706
0
LINE
8
Layer 1
10
10.907042
20
101.648706
11
10.860758
21
101.648122
0
LINE
8
Layer 1
10
10.860758
20
101.648122
11
10.827673
21
101.654771
0
LINE
8
Layer 1
10
10.827673
20
101.654771
11
10.822246
21
101.707750
0
LINE
8
Layer 1
10
10.822246
20
101.707750
11
10.803842
21
101.751314
0
LINE
8
Layer 1
10
10.803842
20
101.751314
11
10.870864
21
101.787752
0
LINE
8
Layer 1
10
10.870864
20
101.787752
11
10.976076
21
101.808918
0
LINE
8
Layer 1
10
10.976076
20
101.808918
11
11.142674
21
101.729876
0
LINE
8
Layer 1
10
11.142674
20
101.729876
11
11.218736
21
101.683544
0
LINE
8
Layer 1
10
11.218736
20
101.683544
11
11.254801
21
101.659555
0
LINE
8
Layer 1
10
11.254801
20
101.659555
11
11.285758
21
101.686736
0
LINE
8
Layer 1
10
11.285758
20
101.686736
11
11.327885
21
101.730940
0
LINE
8
Layer 1
10
11.327885
20
101.730940
11
11.412035
21
101.819451
0
LINE
8
Layer 1
10
11.412035
20
101.819451
11
12.080870
21
102.531779
0
LINE
8
Layer 1
10
12.080870
20
102.531779
11
14.689500
21
105.443979
0
LINE
8
Layer 1
10
14.689500
20
105.443979
11
23.042600
21
115.393000
0
LINE
8
Layer 1
10
23.042600
20
115.393000
11
27.782940
21
121.632760
0
LINE
8
Layer 1
10
27.782940
20
121.632760
11
32.250300
21
127.713800
0
LINE
8
Layer 1
10
32.250300
20
127.713800
11
36.753940
21
133.773090
0
LINE
8
Layer 1
10
36.753940
20
133.773090
11
39.614380
21
137.546090
0
LINE
8
Layer 1
10
39.614380
20
137.546090
11
43.612380
21
143.048780
0
LINE
8
Layer 1
10
43.612380
20
143.048780
11
43.770678
21
143.276547
0
LINE
8
Layer 1
10
43.770678
20
143.276547
11
43.766744
21
143.154472
0
LINE
8
Layer 1
10
43.766744
20
143.154472
11
43.350467
21
129.295872
0
LINE
8
Layer 1
10
43.350467
20
129.295872
11
43.254190
21
125.828512
0
LINE
8
Layer 1
10
43.254190
20
125.828512
11
42.758763
21
109.125512
0
LINE
8
Layer 1
10
42.758763
20
109.125512
11
42.243121
21
81.373712
0
LINE
8
Layer 1
10
42.243121
20
81.373712
11
42.198654
21
64.681812
0
LINE
8
Layer 1
10
42.198654
20
64.681812
11
42.226633
21
59.093532
0
LINE
8
Layer 1
10
42.226633
20
59.093532
11
41.564000
21
59.870500
0
LINE
8
Layer 1
10
41.564000
20
59.870500
11
41.564100
21
59.870470
0
LINE
8
Layer 1
10
51.488090
20
62.445430
11
51.356493
21
62.334686
0
LINE
8
Layer 1
10
51.356493
20
62.334686
11
51.408941
21
62.432823
0
LINE
8
Layer 1
10
51.408941
20
62.432823
11
51.755645
21
62.850167
0
LINE
8
Layer 1
10
51.755645
20
62.850167
11
51.488000
21
62.445400
0
LINE
8
Layer 1
10
51.488000
20
62.445400
11
51.488090
21
62.445430
0
LINE
8
Layer 1
10
57.590140
20
68.711950
11
57.572481
21
68.757695
0
LINE
8
Layer 1
10
57.572481
20
68.757695
11
57.763119
21
68.967428
0
LINE
8
Layer 1
10
57.763119
20
68.967428
11
57.775035
21
68.921364
0
LINE
8
Layer 1
10
57.775035
20
68.921364
11
57.590100
21
68.712000
0
LINE
8
Layer 1
10
57.590100
20
68.712000
11
57.590140
21
68.711950
0
LINE
8
Layer 1
10
61.028880
20
72.372090
11
60.936966
21
72.054304
0
LINE
8
Layer 1
10
60.936966
20
72.054304
11
60.727602
21
71.810121
0
LINE
8
Layer 1
10
60.727602
20
71.810121
11
59.849299
21
71.220012
0
LINE
8
Layer 1
10
59.849299
20
71.220012
11
59.773449
21
71.233042
0
LINE
8
Layer 1
10
59.773449
20
71.233042
11
59.830458
21
71.436806
0
LINE
8
Layer 1
10
59.830458
20
71.436806
11
59.933226
21
71.560419
0
LINE
8
Layer 1
10
59.933226
20
71.560419
11
60.603221
21
72.273456
0
LINE
8
Layer 1
10
60.603221
20
72.273456
11
60.835907
21
72.524714
0
LINE
8
Layer 1
10
60.835907
20
72.524714
11
60.993435
21
72.545905
0
LINE
8
Layer 1
10
60.993435
20
72.545905
11
61.028800
21
72.372100
0
LINE
8
Layer 1
10
61.028800
20
72.372100
11
61.028880
21
72.372090
0
LINE
8
Layer 1
10
64.368470
20
75.381680
11
63.797817
21
74.678911
0
LINE
8
Layer 1
10
63.797817
20
74.678911
11
63.193772
21
74.138216
0
LINE
8
Layer 1
10
63.193772
20
74.138216
11
63.033453
21
74.169280
0
LINE
8
Layer 1
10
63.033453
20
74.169280
11
63.063984
21
74.283165
0
LINE
8
Layer 1
10
63.063984
20
74.283165
11
64.233700
21
75.536600
0
LINE
8
Layer 1
10
64.233700
20
75.536600
11
64.332212
21
75.555588
0
LINE
8
Layer 1
10
64.332212
20
75.555588
11
64.368400
21
75.381700
0
LINE
8
Layer 1
10
64.368400
20
75.381700
11
64.368470
21
75.381680
0
LINE
8
Layer 1
10
80.464870
20
101.757480
11
80.466783
21
101.755406
0
LINE
8
Layer 1
10
80.466783
20
101.755406
11
80.471254
21
101.750512
0
LINE
8
Layer 1
10
80.471254
20
101.750512
11
80.468911
21
101.739714
0
LINE
8
Layer 1
10
80.468911
20
101.739714
11
80.469871
21
101.738438
0
LINE
8
Layer 1
10
80.469871
20
101.738438
11
80.460295
21
101.747162
0
LINE
8
Layer 1
10
80.460295
20
101.747162
11
80.455720
21
101.751630
0
LINE
8
Layer 1
10
80.455720
20
101.751630
11
80.461785
21
101.756523
0
LINE
8
Layer 1
10
80.461785
20
101.756523
11
80.464800
21
101.757000
0
LINE
8
Layer 1
10
80.464800
20
101.757000
11
80.464870
21
101.757480
0
LINE
8
Layer 1
10
51.534600
20
138.754000
11
55.960580
21
132.860940
0
LINE
8
Layer 1
10
55.960580
20
132.860940
11
60.920710
21
126.056550
0
LINE
8
Layer 1
10
60.920710
20
126.056550
11
64.319230
21
121.400520
0
LINE
8
Layer 1
10
64.319230
20
121.400520
11
66.423810
21
118.544870
0
LINE
8
Layer 1
10
66.423810
20
118.544870
11
69.262870
21
114.765700
0
LINE
8
Layer 1
10
69.262870
20
114.765700
11
71.649580
21
111.755520
0
LINE
8
Layer 1
10
71.649580
20
111.755520
11
73.946930
21
108.867210
0
LINE
8
Layer 1
10
73.946930
20
108.867210
11
76.352370
21
106.069380
0
LINE
8
Layer 1
10
76.352370
20
106.069380
11
78.783020
21
103.294150
0
LINE
8
Layer 1
10
78.783020
20
103.294150
11
80.007600
21
101.915000
0
LINE
8
Layer 1
10
80.007600
20
101.915000
11
80.160790
21
101.742605
0
LINE
8
Layer 1
10
80.160790
20
101.742605
11
80.233039
21
101.661274
0
LINE
8
Layer 1
10
80.233039
20
101.661274
11
79.383779
21
100.581164
0
LINE
8
Layer 1
10
79.383779
20
100.581164
11
76.686319
21
97.268384
0
LINE
8
Layer 1
10
76.686319
20
97.268384
11
74.705249
21
94.890184
0
LINE
8
Layer 1
10
74.705249
20
94.890184
11
72.854599
21
92.598474
0
LINE
8
Layer 1
10
72.854599
20
92.598474
11
72.614916
21
92.230493
0
LINE
8
Layer 1
10
72.614916
20
92.230493
11
72.190738
21
91.541428
0
LINE
8
Layer 1
10
72.190738
20
91.541428
11
71.698104
21
90.900433
0
LINE
8
Layer 1
10
71.698104
20
90.900433
11
71.160455
21
90.207377
0
LINE
8
Layer 1
10
71.160455
20
90.207377
11
70.685764
21
89.459943
0
LINE
8
Layer 1
10
70.685764
20
89.459943
11
69.963296
21
88.289254
0
LINE
8
Layer 1
10
69.963296
20
88.289254
11
68.941394
21
87.368283
0
LINE
8
Layer 1
10
68.941394
20
87.368283
11
68.554798
21
86.953134
0
LINE
8
Layer 1
10
68.554798
20
86.953134
11
67.847550
21
86.006214
0
LINE
8
Layer 1
10
67.847550
20
86.006214
11
64.604450
21
81.614544
0
LINE
8
Layer 1
10
64.604450
20
81.614544
11
63.665616
21
80.290814
0
LINE
8
Layer 1
10
63.665616
20
80.290814
11
62.752419
21
78.958524
0
LINE
8
Layer 1
10
62.752419
20
78.958524
11
62.273016
21
78.298381
0
LINE
8
Layer 1
10
62.273016
20
78.298381
11
61.747739
21
77.734264
0
LINE
8
Layer 1
10
61.747739
20
77.734264
11
61.425822
21
77.241922
0
LINE
8
Layer 1
10
61.425822
20
77.241922
11
60.042512
21
75.172502
0
LINE
8
Layer 1
10
60.042512
20
75.172502
11
57.946122
21
72.317592
0
LINE
8
Layer 1
10
57.946122
20
72.317592
11
57.094627
21
71.115942
0
LINE
8
Layer 1
10
57.094627
20
71.115942
11
55.950687
21
69.444662
0
LINE
8
Layer 1
10
55.950687
20
69.444662
11
55.702707
21
69.080138
0
LINE
8
Layer 1
10
55.702707
20
69.080138
11
54.740257
21
67.600498
0
LINE
8
Layer 1
10
54.740257
20
67.600498
11
53.780677
21
66.133788
0
LINE
8
Layer 1
10
53.780677
20
66.133788
11
52.742797
21
64.716548
0
LINE
8
Layer 1
10
52.742797
20
64.716548
11
52.336307
21
64.109153
0
LINE
8
Layer 1
10
52.336307
20
64.109153
11
50.864387
21
61.935193
0
LINE
8
Layer 1
10
50.864387
20
61.935193
11
49.932148
21
60.614283
0
LINE
8
Layer 1
10
49.932148
20
60.614283
11
48.998208
21
59.298213
0
LINE
8
Layer 1
10
48.998208
20
59.298213
11
49.076293
21
65.778563
0
LINE
8
Layer 1
10
49.076293
20
65.778563
11
49.137888
21
73.324933
0
LINE
8
Layer 1
10
49.137888
20
73.324933
11
49.166931
21
83.388833
0
LINE
8
Layer 1
10
49.166931
20
83.388833
11
49.097355
21
91.584353
0
LINE
8
Layer 1
10
49.097355
20
91.584353
11
49.034702
21
99.458273
0
LINE
8
Layer 1
10
49.034702
20
99.458273
11
48.373636
21
130.997973
0
LINE
8
Layer 1
10
48.373636
20
130.997973
11
48.300123
21
133.200853
0
LINE
8
Layer 1
10
48.300123
20
133.200853
11
48.141720
21
138.238963
0
LINE
8
Layer 1
10
48.141720
20
138.238963
11
48.028419
21
143.326973
0
LINE
8
Layer 1
10
48.028419
20
143.326973
11
51.534600
21
138.754000
0
LINE
8
Layer 1
10
51.534600
20
138.754000
11
51.534600
21
138.754000
0
LINE
8
Layer 1
10
55.916960
20
179.408600
11
53.381630
21
182.049940
0
LINE
8
Layer 1
10
53.381630
20
182.049940
11
53.281845
21
182.186589
0
LINE
8
Layer 1
10
53.281845
20
182.186589
11
53.482590
21
182.057388
0
LINE
8
Layer 1
10
53.482590
20
182.057388
11
54.838230
21
180.677118
0
LINE
8
Layer 1
10
54.838230
20
180.677118
11
56.007390
21
179.418758
0
LINE
8
Layer 1
10
56.007390
20
179.418758
11
56.089412
21
179.258812
0
LINE
8
Layer 1
10
56.089412
20
179.258812
11
55.917000
21
179.409000
0
LINE
8
Layer 1
10
55.917000
20
179.409000
11
55.916960
21
179.408600
0
LINE
8
Layer 1
10
62.436570
20
172.462720
11
62.127207
21
172.734531
0
LINE
8
Layer 1
10
62.127207
20
172.734531
11
61.886472
21
172.979584
0
LINE
8
Layer 1
10
61.886472
20
172.979584
11
60.437532
21
174.484484
0
LINE
8
Layer 1
10
60.437532
20
174.484484
11
59.780082
21
175.218157
0
LINE
8
Layer 1
10
59.780082
20
175.218157
11
59.979232
21
175.086077
0
LINE
8
Layer 1
10
59.979232
20
175.086077
11
60.944448
21
174.166818
0
LINE
8
Layer 1
10
60.944448
20
174.166818
11
62.394458
21
172.538938
0
LINE
8
Layer 1
10
62.394458
20
172.538938
11
62.436600
21
172.463000
0
LINE
8
Layer 1
10
62.436600
20
172.463000
11
62.436570
21
172.462720
0
LINE
8
Layer 1
10
67.369790
20
167.386150
11
66.948512
21
167.821054
0
LINE
8
Layer 1
10
66.948512
20
167.821054
11
66.998618
21
167.788500
0
LINE
8
Layer 1
10
66.998618
20
167.788500
11
67.415006
21
167.360465
0
LINE
8
Layer 1
10
67.415006
20
167.360465
11
67.369800
21
167.387000
0
LINE
8
Layer 1
10
67.369800
20
167.387000
11
67.369790
21
167.386150
0
LINE
8
Layer 1
10
80.421390
20
153.804750
11
79.607665
21
154.631096
0
LINE
8
Layer 1
10
79.607665
20
154.631096
11
80.340858
21
153.908221
0
LINE
8
Layer 1
10
80.340858
20
153.908221
11
80.589052
21
153.643697
0
LINE
8
Layer 1
10
80.589052
20
153.643697
11
80.421400
21
153.805000
0
LINE
8
Layer 1
10
80.421400
20
153.805000
11
80.421390
21
153.804750
0
LINE
8
Layer 1
10
80.923100
20
153.619000
11
82.010550
21
152.503990
0
LINE
8
Layer 1
10
82.010550
20
152.503990
11
82.268219
21
152.255745
0
LINE
8
Layer 1
10
82.268219
20
152.255745
11
82.032154
21
152.520799
0
LINE
8
Layer 1
10
82.032154
20
152.520799
11
79.233644
21
155.430229
0
LINE
8
Layer 1
10
79.233644
20
155.430229
11
78.280863
21
156.306032
0
LINE
8
Layer 1
10
78.280863
20
156.306032
11
80.923100
21
153.619000
0
LINE
8
Layer 1
10
80.923100
20
153.619000
11
80.923100
21
153.619000
0
LINE
8
Layer 1
10
94.434500
20
139.721000
11
94.110458
21
140.050898
0
LINE
8
Layer 1
10
94.110458
20
140.050898
11
93.637688
21
140.531271
0
LINE
8
Layer 1
10
93.637688
20
140.531271
11
94.062266
21
140.098929
0
LINE
8
Layer 1
10
94.062266
20
140.098929
11
94.401808
21
139.753616
0
LINE
8
Layer 1
10
94.401808
20
139.753616
11
94.474401
21
139.680077
0
LINE
8
Layer 1
10
94.474401
20
139.680077
11
94.434500
21
139.721000
0
LINE
8
Layer 1
10
94.434500
20
139.721000
11
94.434500
21
139.721000
0
LINE
8
Layer 1
10
71.317600
20
163.643000
11
71.149621
21
163.825129
0
LINE
8
Layer 1
10
71.149621
20
163.825129
11
70.970258
21
164.005077
0
LINE
8
Layer 1
10
70.970258
20
164.005077
11
71.191215
21
163.761565
0
LINE
8
Layer 1
10
71.191215
20
163.761565
11
71.317600
21
163.643000
0
LINE
8
Layer 1
10
71.317600
20
163.643000
11
71.317600
21
163.643000
 0 
ENDSEC
 0 
EOF