999
"DXF R12 Output" (www.mydxf.blogspot.com)
 0 
SECTION
 2 
HEADER
 9 
$ACADVER
 1 
AC1009
 9 
$EXTMIN
 10 
 0 
 20 
 0 
 9 
$EXTMAX
 10 
 8.5 
 20 
 11 
 0 
ENDSEC
 0 
SECTION
 2 
ENTITIES
0
LINE
8
Layer 1
10
70.935400
20
113.384000
11
70.761769
21
113.594701
0
LINE
8
Layer 1
10
70.761769
20
113.594701
11
70.066574
21
114.438288
0
LINE
8
Layer 1
10
70.066574
20
114.438288
11
68.668914
21
116.130418
0
LINE
8
Layer 1
10
68.668914
20
116.130418
11
67.238334
21
117.836968
0
LINE
8
Layer 1
10
67.238334
20
117.836968
11
66.576264
21
118.629399
0
LINE
8
Layer 1
10
66.576264
20
118.629399
11
66.218689
21
119.069502
0
LINE
8
Layer 1
10
66.218689
20
119.069502
11
60.718309
21
125.832392
0
LINE
8
Layer 1
10
60.718309
20
125.832392
11
55.091279
21
132.501982
0
LINE
8
Layer 1
10
55.091279
20
132.501982
11
49.435700
21
139.147000
0
LINE
8
Layer 1
10
49.435700
20
139.147000
11
43.755880
21
145.771070
0
LINE
8
Layer 1
10
43.755880
20
145.771070
11
39.343280
21
150.888040
0
LINE
8
Layer 1
10
39.343280
20
150.888040
11
38.963598
21
151.335128
0
LINE
8
Layer 1
10
38.963598
20
151.335128
11
38.918584
21
155.670018
0
LINE
8
Layer 1
10
38.918584
20
155.670018
11
38.865656
21
167.558218
0
LINE
8
Layer 1
10
38.865656
20
167.558218
11
39.021990
21
175.020138
0
LINE
8
Layer 1
10
39.021990
20
175.020138
11
39.175479
21
179.437498
0
LINE
8
Layer 1
10
39.175479
20
179.437498
11
44.892679
21
173.065248
0
LINE
8
Layer 1
10
44.892679
20
173.065248
11
49.971179
21
167.967668
0
LINE
8
Layer 1
10
49.971179
20
167.967668
11
54.959269
21
163.151668
0
LINE
8
Layer 1
10
54.959269
20
163.151668
11
59.916259
21
158.300838
0
LINE
8
Layer 1
10
59.916259
20
158.300838
11
62.988499
21
155.224288
0
LINE
8
Layer 1
10
62.988499
20
155.224288
11
67.513519
21
150.910698
0
LINE
8
Layer 1
10
67.513519
20
150.910698
11
69.596709
21
149.023868
0
LINE
8
Layer 1
10
69.596709
20
149.023868
11
70.062068
21
148.549329
0
LINE
8
Layer 1
10
70.062068
20
148.549329
11
69.523780
21
149.272988
0
LINE
8
Layer 1
10
69.523780
20
149.272988
11
68.320670
21
151.044438
0
LINE
8
Layer 1
10
68.320670
20
151.044438
11
65.253250
21
155.653578
0
LINE
8
Layer 1
10
65.253250
20
155.653578
11
61.573590
21
161.335138
0
LINE
8
Layer 1
10
61.573590
20
161.335138
11
57.479400
21
167.902208
0
LINE
8
Layer 1
10
57.479400
20
167.902208
11
54.673350
21
172.395518
0
LINE
8
Layer 1
10
54.673350
20
172.395518
11
52.931590
21
175.150608
0
LINE
8
Layer 1
10
52.931590
20
175.150608
11
50.571090
21
178.794138
0
LINE
8
Layer 1
10
50.571090
20
178.794138
11
48.561950
21
181.690528
0
LINE
8
Layer 1
10
48.561950
20
181.690528
11
46.626780
21
184.469398
0
LINE
8
Layer 1
10
46.626780
20
184.469398
11
44.664800
21
187.026858
0
LINE
8
Layer 1
10
44.664800
20
187.026858
11
42.677000
21
189.564000
0
LINE
8
Layer 1
10
42.677000
20
189.564000
11
39.286500
21
193.774000
0
LINE
8
Layer 1
10
39.286500
20
193.774000
11
38.756769
21
194.429983
0
LINE
8
Layer 1
10
38.756769
20
194.429983
11
38.624235
21
194.599333
0
LINE
8
Layer 1
10
38.624235
20
194.599333
11
38.491001
21
194.794597
0
LINE
8
Layer 1
10
38.491001
20
194.794597
11
38.224612
21
195.185122
0
LINE
8
Layer 1
10
38.224612
20
195.185122
11
37.159482
21
196.746322
0
LINE
8
Layer 1
10
37.159482
20
196.746322
11
35.031600
21
199.865000
0
LINE
8
Layer 1
10
35.031600
20
199.865000
11
34.189083
21
198.621990
0
LINE
8
Layer 1
10
34.189083
20
198.621990
11
32.954833
21
196.715670
0
LINE
8
Layer 1
10
32.954833
20
196.715670
11
31.563113
21
194.564400
0
LINE
8
Layer 1
10
31.563113
20
194.564400
11
31.476753
21
194.431219
0
LINE
8
Layer 1
10
31.476753
20
194.431219
11
31.390895
21
194.317201
0
LINE
8
Layer 1
10
31.390895
20
194.317201
11
31.219349
21
194.092530
0
LINE
8
Layer 1
10
31.219349
20
194.092530
11
30.876430
21
193.645665
0
LINE
8
Layer 1
10
30.876430
20
193.645665
11
30.189375
21
192.762310
0
LINE
8
Layer 1
10
30.189375
20
192.762310
11
28.942900
21
191.182000
0
LINE
8
Layer 1
10
28.942900
20
191.182000
11
28.320318
21
190.395766
0
LINE
8
Layer 1
10
28.320318
20
190.395766
11
28.019600
21
190.006000
0
LINE
8
Layer 1
10
28.019600
20
190.006000
11
26.821400
21
188.457000
0
LINE
8
Layer 1
10
26.821400
20
188.457000
11
25.061200
21
186.231000
0
LINE
8
Layer 1
10
25.061200
20
186.231000
11
24.273534
21
185.132616
0
LINE
8
Layer 1
10
24.273534
20
185.132616
11
23.425290
21
184.081980
0
LINE
8
Layer 1
10
23.425290
20
184.081980
11
23.221972
21
183.732694
0
LINE
8
Layer 1
10
23.221972
20
183.732694
11
22.866574
21
183.076848
0
LINE
8
Layer 1
10
22.866574
20
183.076848
11
22.434807
21
182.473904
0
LINE
8
Layer 1
10
22.434807
20
182.473904
11
21.962819
21
181.822426
0
LINE
8
Layer 1
10
21.962819
20
181.822426
11
21.562233
21
181.112134
0
LINE
8
Layer 1
10
21.562233
20
181.112134
11
20.957161
21
179.998772
0
LINE
8
Layer 1
10
20.957161
20
179.998772
11
20.012103
21
179.154644
0
LINE
8
Layer 1
10
20.012103
20
179.154644
11
19.662814
21
178.769075
0
LINE
8
Layer 1
10
19.662814
20
178.769075
11
19.046159
21
177.876926
0
LINE
8
Layer 1
10
19.046159
20
177.876926
11
16.224219
21
173.736516
0
LINE
8
Layer 1
10
16.224219
20
173.736516
11
15.413646
21
172.485726
0
LINE
8
Layer 1
10
15.413646
20
172.485726
11
14.630508
21
171.224456
0
LINE
8
Layer 1
10
14.630508
20
171.224456
11
14.214683
21
170.601543
0
LINE
8
Layer 1
10
14.214683
20
170.601543
11
13.740021
21
170.077666
0
LINE
8
Layer 1
10
13.740021
20
170.077666
11
13.466647
21
169.610408
0
LINE
8
Layer 1
10
13.466647
20
169.610408
11
12.286507
21
167.648878
0
LINE
8
Layer 1
10
12.286507
20
167.648878
11
10.464267
21
164.956428
0
LINE
8
Layer 1
10
10.464267
20
164.956428
11
9.729240
21
163.820908
0
LINE
8
Layer 1
10
9.729240
20
163.820908
11
8.748417
21
162.238638
0
LINE
8
Layer 1
10
8.748417
20
162.238638
11
8.536084
21
161.893520
0
LINE
8
Layer 1
10
8.536084
20
161.893520
11
7.719737
21
160.489050
0
LINE
8
Layer 1
10
7.719737
20
160.489050
11
6.904840
21
159.097000
0
LINE
8
Layer 1
10
6.904840
20
159.097000
11
6.003141
21
157.760240
0
LINE
8
Layer 1
10
6.003141
20
157.760240
11
5.656276
21
157.184589
0
LINE
8
Layer 1
10
5.656276
20
157.184589
11
4.397146
21
155.125259
0
LINE
8
Layer 1
10
4.397146
20
155.125259
11
3.592994
21
153.876839
0
LINE
8
Layer 1
10
3.592994
20
153.876839
11
2.715298
21
152.525659
0
LINE
8
Layer 1
10
2.715298
20
152.525659
11
1.444508
21
150.628909
0
LINE
8
Layer 1
10
1.444508
20
150.628909
11
1.328904
21
150.441982
0
LINE
8
Layer 1
10
1.328904
20
150.441982
11
1.180991
21
150.148017
0
LINE
8
Layer 1
10
1.180991
20
150.148017
11
0.554639
21
149.296993
0
LINE
8
Layer 1
10
0.554639
20
149.296993
11
0.368138
21
149.028267
0
LINE
8
Layer 1
10
0.368138
20
149.028267
11
0.715398
21
149.452709
0
LINE
8
Layer 1
10
0.715398
20
149.452709
11
2.049478
21
151.101579
0
LINE
8
Layer 1
10
2.049478
20
151.101579
11
2.967346
21
152.257839
0
LINE
8
Layer 1
10
2.967346
20
152.257839
11
3.708201
21
153.187732
0
LINE
8
Layer 1
10
3.708201
20
153.187732
11
4.477723
21
154.082458
0
LINE
8
Layer 1
10
4.477723
20
154.082458
11
5.136811
21
155.052142
0
LINE
8
Layer 1
10
5.136811
20
155.052142
11
5.551452
21
155.477823
0
LINE
8
Layer 1
10
5.551452
20
155.477823
11
5.883472
21
155.799274
0
LINE
8
Layer 1
10
5.883472
20
155.799274
11
6.360870
21
156.413234
0
LINE
8
Layer 1
10
6.360870
20
156.413234
11
7.225751
21
157.422004
0
LINE
8
Layer 1
10
7.225751
20
157.422004
11
7.491604
21
157.700983
0
LINE
8
Layer 1
10
7.491604
20
157.700983
11
7.476555
21
157.324512
0
LINE
8
Layer 1
10
7.476555
20
157.324512
11
7.428928
21
156.943141
0
LINE
8
Layer 1
10
7.428928
20
156.943141
11
8.048860
21
157.553381
0
LINE
8
Layer 1
10
8.048860
20
157.553381
11
8.757435
21
158.274941
0
LINE
8
Layer 1
10
8.757435
20
158.274941
11
8.558059
21
158.409361
0
LINE
8
Layer 1
10
8.558059
20
158.409361
11
8.732647
21
158.715270
0
LINE
8
Layer 1
10
8.732647
20
158.715270
11
9.381060
21
159.378000
0
LINE
8
Layer 1
10
9.381060
20
159.378000
11
9.923442
21
159.957115
0
LINE
8
Layer 1
10
9.923442
20
159.957115
11
10.485680
21
160.515780
0
LINE
8
Layer 1
10
10.485680
20
160.515780
11
10.785561
21
160.945065
0
LINE
8
Layer 1
10
10.785561
20
160.945065
11
11.580776
21
161.814560
0
LINE
8
Layer 1
10
11.580776
20
161.814560
11
12.510901
21
162.537925
0
LINE
8
Layer 1
10
12.510901
20
162.537925
11
13.108273
21
162.929105
0
LINE
8
Layer 1
10
13.108273
20
162.929105
11
13.549271
21
163.490706
0
LINE
8
Layer 1
10
13.549271
20
163.490706
11
14.185900
21
164.149000
0
LINE
8
Layer 1
10
14.185900
20
164.149000
11
14.524854
21
164.458167
0
LINE
8
Layer 1
10
14.524854
20
164.458167
11
14.738800
21
164.864000
0
LINE
8
Layer 1
10
14.738800
20
164.864000
11
14.812623
21
165.160981
0
LINE
8
Layer 1
10
14.812623
20
165.160981
11
15.038520
21
165.519319
0
LINE
8
Layer 1
10
15.038520
20
165.519319
11
15.492847
21
165.794017
0
LINE
8
Layer 1
10
15.492847
20
165.794017
11
16.014977
21
166.175643
0
LINE
8
Layer 1
10
16.014977
20
166.175643
11
16.624990
21
166.791725
0
LINE
8
Layer 1
10
16.624990
20
166.791725
11
17.358217
21
167.254383
0
LINE
8
Layer 1
10
17.358217
20
167.254383
11
17.929389
21
167.793074
0
LINE
8
Layer 1
10
17.929389
20
167.793074
11
18.333820
21
168.316966
0
LINE
8
Layer 1
10
18.333820
20
168.316966
11
18.751115
21
168.834194
0
LINE
8
Layer 1
10
18.751115
20
168.834194
11
19.206799
21
169.311564
0
LINE
8
Layer 1
10
19.206799
20
169.311564
11
19.770165
21
169.672822
0
LINE
8
Layer 1
10
19.770165
20
169.672822
11
20.069284
21
169.944142
0
LINE
8
Layer 1
10
20.069284
20
169.944142
11
21.056295
21
171.042186
0
LINE
8
Layer 1
10
21.056295
20
171.042186
11
22.105384
21
172.081672
0
LINE
8
Layer 1
10
22.105384
20
172.081672
11
23.156848
21
173.131325
0
LINE
8
Layer 1
10
23.156848
20
173.131325
11
24.103394
21
174.274182
0
LINE
8
Layer 1
10
24.103394
20
174.274182
11
24.419725
21
174.520263
0
LINE
8
Layer 1
10
24.419725
20
174.520263
11
26.241905
21
176.332273
0
LINE
8
Layer 1
10
26.241905
20
176.332273
11
26.589842
21
176.745333
0
LINE
8
Layer 1
10
26.589842
20
176.745333
11
30.471472
21
180.520573
0
LINE
8
Layer 1
10
30.471472
20
180.520573
11
32.767332
21
182.843343
0
LINE
8
Layer 1
10
32.767332
20
182.843343
11
32.427483
21
176.910513
0
LINE
8
Layer 1
10
32.427483
20
176.910513
11
32.005293
21
165.300113
0
LINE
8
Layer 1
10
32.005293
20
165.300113
11
31.567643
21
152.053013
0
LINE
8
Layer 1
10
31.567643
20
152.053013
11
31.539703
21
150.831523
0
LINE
8
Layer 1
10
31.539703
20
150.831523
11
30.482883
21
149.565073
0
LINE
8
Layer 1
10
30.482883
20
149.565073
11
28.696600
21
147.442000
0
LINE
8
Layer 1
10
28.696600
20
147.442000
11
27.711645
21
146.247320
0
LINE
8
Layer 1
10
27.711645
20
146.247320
11
25.930925
21
144.101230
0
LINE
8
Layer 1
10
25.930925
20
144.101230
11
19.412365
21
136.381850
0
LINE
8
Layer 1
10
19.412365
20
136.381850
11
14.659375
21
130.812960
0
LINE
8
Layer 1
10
14.659375
20
130.812960
11
12.447414
21
128.123414
0
LINE
8
Layer 1
10
12.447414
20
128.123414
11
10.175145
21
125.482040
0
LINE
8
Layer 1
10
10.175145
20
125.482040
11
9.549639
21
124.661101
0
LINE
8
Layer 1
10
9.549639
20
124.661101
11
8.418618
21
123.138742
0
LINE
8
Layer 1
10
8.418618
20
123.138742
11
7.205439
21
121.662861
0
LINE
8
Layer 1
10
7.205439
20
121.662861
11
5.885536
21
120.064189
0
LINE
8
Layer 1
10
5.885536
20
120.064189
11
4.634739
21
118.404001
0
LINE
8
Layer 1
10
4.634739
20
118.404001
11
4.578995
21
118.319495
0
LINE
8
Layer 1
10
4.578995
20
118.319495
11
4.551024
21
118.277357
0
LINE
8
Layer 1
10
4.551024
20
118.277357
11
4.494997
21
118.202765
0
LINE
8
Layer 1
10
4.494997
20
118.202765
11
4.268466
21
117.903045
0
LINE
8
Layer 1
10
4.268466
20
117.903045
11
3.815124
21
117.309594
0
LINE
8
Layer 1
10
3.815124
20
117.309594
11
2.903849
21
116.143984
0
LINE
8
Layer 1
10
2.903849
20
116.143984
11
1.064959
21
113.879024
0
LINE
8
Layer 1
10
1.064959
20
113.879024
11
0.589308
21
113.318023
0
LINE
8
Layer 1
10
0.589308
20
113.318023
11
0.559251
21
113.282983
0
LINE
8
Layer 1
10
0.559251
20
113.282983
11
0.586040
21
113.247491
0
LINE
8
Layer 1
10
0.586040
20
113.247491
11
0.639899
21
113.176280
0
LINE
8
Layer 1
10
0.639899
20
113.176280
11
0.747248
21
113.033972
0
LINE
8
Layer 1
10
0.747248
20
113.033972
11
0.960484
21
112.749021
0
LINE
8
Layer 1
10
0.960484
20
112.749021
11
1.795057
21
111.602001
0
LINE
8
Layer 1
10
1.795057
20
111.602001
11
2.616323
21
110.434701
0
LINE
8
Layer 1
10
2.616323
20
110.434701
11
3.516047
21
109.239351
0
LINE
8
Layer 1
10
3.516047
20
109.239351
11
4.297071
21
108.270359
0
LINE
8
Layer 1
10
4.297071
20
108.270359
11
4.703259
21
107.801075
0
LINE
8
Layer 1
10
4.703259
20
107.801075
11
4.932632
21
107.544744
0
LINE
8
Layer 1
10
4.932632
20
107.544744
11
6.812732
21
105.481804
0
LINE
8
Layer 1
10
6.812732
20
105.481804
11
15.519562
21
95.977134
0
LINE
8
Layer 1
10
15.519562
20
95.977134
11
18.130232
21
93.178664
0
LINE
8
Layer 1
10
18.130232
20
93.178664
11
20.746452
21
90.416474
0
LINE
8
Layer 1
10
20.746452
20
90.416474
11
22.052332
21
89.001690
0
LINE
8
Layer 1
10
22.052332
20
89.001690
11
23.209382
21
87.594344
0
LINE
8
Layer 1
10
23.209382
20
87.594344
11
24.170712
21
86.600225
0
LINE
8
Layer 1
10
24.170712
20
86.600225
11
28.221922
21
82.370125
0
LINE
8
Layer 1
10
28.221922
20
82.370125
11
32.203792
21
78.017655
0
LINE
8
Layer 1
10
32.203792
20
78.017655
11
24.355972
21
68.133485
0
LINE
8
Layer 1
10
24.355972
20
68.133485
11
17.371600
21
59.417900
0
LINE
8
Layer 1
10
17.371600
20
59.417900
11
7.474250
21
46.820000
0
LINE
8
Layer 1
10
7.474250
20
46.820000
11
3.094880
21
41.129000
0
LINE
8
Layer 1
10
3.094880
20
41.129000
11
2.021608
21
39.799394
0
LINE
8
Layer 1
10
2.021608
20
39.799394
11
3.575786
21
41.529216
0
LINE
8
Layer 1
10
3.575786
20
41.529216
11
7.324826
21
45.564396
0
LINE
8
Layer 1
10
7.324826
20
45.564396
11
17.049146
21
55.954296
0
LINE
8
Layer 1
10
17.049146
20
55.954296
11
28.987346
21
68.585596
0
LINE
8
Layer 1
10
28.987346
20
68.585596
11
32.931736
21
72.702796
0
LINE
8
Layer 1
10
32.931736
20
72.702796
11
32.963653
21
72.371874
0
LINE
8
Layer 1
10
32.963653
20
72.371874
11
33.100776
21
69.830074
0
LINE
8
Layer 1
10
33.100776
20
69.830074
11
33.235475
21
67.057404
0
LINE
8
Layer 1
10
33.235475
20
67.057404
11
33.378571
21
64.905679
0
LINE
8
Layer 1
10
33.378571
20
64.905679
11
33.319698
21
62.750004
0
LINE
8
Layer 1
10
33.319698
20
62.750004
11
33.320742
21
61.853687
0
LINE
8
Layer 1
10
33.320742
20
61.853687
11
33.387022
21
59.988257
0
LINE
8
Layer 1
10
33.387022
20
59.988257
11
33.682537
21
51.374367
0
LINE
8
Layer 1
10
33.682537
20
51.374367
11
33.777211
21
48.817697
0
LINE
8
Layer 1
10
33.777211
20
48.817697
11
33.879294
21
46.277017
0
LINE
8
Layer 1
10
33.879294
20
46.277017
11
33.916926
21
43.772617
0
LINE
8
Layer 1
10
33.916926
20
43.772617
11
33.957631
21
42.849596
0
LINE
8
Layer 1
10
33.957631
20
42.849596
11
34.112641
21
38.939266
0
LINE
8
Layer 1
10
34.112641
20
38.939266
11
34.257314
21
33.351896
0
LINE
8
Layer 1
10
34.257314
20
33.351896
11
34.323791
21
31.031726
0
LINE
8
Layer 1
10
34.323791
20
31.031726
11
34.422888
21
27.846226
0
LINE
8
Layer 1
10
34.422888
20
27.846226
11
34.444210
21
27.153058
0
LINE
8
Layer 1
10
34.444210
20
27.153058
11
34.540405
21
24.384448
0
LINE
8
Layer 1
10
34.540405
20
24.384448
11
34.629895
21
21.634318
0
LINE
8
Layer 1
10
34.629895
20
21.634318
11
34.684431
21
18.863458
0
LINE
8
Layer 1
10
34.684431
20
18.863458
11
34.716401
21
17.715318
0
LINE
8
Layer 1
10
34.716401
20
17.715318
11
34.822172
21
13.588198
0
LINE
8
Layer 1
10
34.822172
20
13.588198
11
34.873537
21
11.041668
0
LINE
8
Layer 1
10
34.873537
20
11.041668
11
34.924690
21
8.277788
0
LINE
8
Layer 1
10
34.924690
20
8.277788
11
34.983476
21
4.355508
0
LINE
8
Layer 1
10
34.983476
20
4.355508
11
34.990913
21
3.979515
0
LINE
8
Layer 1
10
34.990913
20
3.979515
11
35.008857
21
3.425050
0
LINE
8
Layer 1
10
35.008857
20
3.425050
11
35.021785
21
1.604020
0
LINE
8
Layer 1
10
35.021785
20
1.604020
11
35.027644
21
1.045949
0
LINE
8
Layer 1
10
35.027644
20
1.045949
11
35.028011
21
1.987442
0
LINE
8
Layer 1
10
35.028011
20
1.987442
11
35.026574
21
5.646632
0
LINE
8
Layer 1
10
35.026574
20
5.646632
11
35.021898
21
8.193402
0
LINE
8
Layer 1
10
35.021898
20
8.193402
11
35.018489
21
10.244512
0
LINE
8
Layer 1
10
35.018489
20
10.244512
11
34.998519
21
14.295242
0
LINE
8
Layer 1
10
34.998519
20
14.295242
11
35.013646
21
15.316172
0
LINE
8
Layer 1
10
35.013646
20
15.316172
11
35.029560
21
16.107805
0
LINE
8
Layer 1
10
35.029560
20
16.107805
11
35.024545
21
17.449295
0
LINE
8
Layer 1
10
35.024545
20
17.449295
11
35.035052
21
19.740855
0
LINE
8
Layer 1
10
35.035052
20
19.740855
11
35.044366
21
20.403713
0
LINE
8
Layer 1
10
35.044366
20
20.403713
11
35.174420
21
19.320803
0
LINE
8
Layer 1
10
35.174420
20
19.320803
11
35.206249
21
20.812483
0
LINE
8
Layer 1
10
35.206249
20
20.812483
11
35.239094
21
22.549453
0
LINE
8
Layer 1
10
35.239094
20
22.549453
11
35.163969
21
22.512496
0
LINE
8
Layer 1
10
35.163969
20
22.512496
11
35.146674
21
23.112034
0
LINE
8
Layer 1
10
35.146674
20
23.112034
11
35.175630
21
24.705354
0
LINE
8
Layer 1
10
35.175630
20
24.705354
11
35.225347
21
27.430584
0
LINE
8
Layer 1
10
35.225347
20
27.430584
11
35.214504
21
28.331634
0
LINE
8
Layer 1
10
35.214504
20
28.331634
11
35.336726
21
32.341574
0
LINE
8
Layer 1
10
35.336726
20
32.341574
11
35.415655
21
34.746934
0
LINE
8
Layer 1
10
35.415655
20
34.746934
11
35.449708
21
36.320194
0
LINE
8
Layer 1
10
35.449708
20
36.320194
11
35.447625
21
37.878804
0
LINE
8
Layer 1
10
35.447625
20
37.878804
11
35.386188
21
39.082164
0
LINE
8
Layer 1
10
35.386188
20
39.082164
11
35.455259
21
39.944352
0
LINE
8
Layer 1
10
35.455259
20
39.944352
11
35.520692
21
41.023312
0
LINE
8
Layer 1
10
35.520692
20
41.023312
11
35.672437
21
43.929272
0
LINE
8
Layer 1
10
35.672437
20
43.929272
11
35.720152
21
45.271892
0
LINE
8
Layer 1
10
35.720152
20
45.271892
11
35.727225
21
47.559842
0
LINE
8
Layer 1
10
35.727225
20
47.559842
11
35.846630
21
49.791572
0
LINE
8
Layer 1
10
35.846630
20
49.791572
11
35.876571
21
50.480230
0
LINE
8
Layer 1
10
35.876571
20
50.480230
11
36.014964
21
55.557530
0
LINE
8
Layer 1
10
36.014964
20
55.557530
11
36.136370
21
60.666940
0
LINE
8
Layer 1
10
36.136370
20
60.666940
11
36.183636
21
61.340728
0
LINE
8
Layer 1
10
36.183636
20
61.340728
11
36.357603
21
65.749418
0
LINE
8
Layer 1
10
36.357603
20
65.749418
11
36.373461
21
66.681002
0
LINE
8
Layer 1
10
36.373461
20
66.681002
11
36.688666
21
73.242322
0
LINE
8
Layer 1
10
36.688666
20
73.242322
11
39.528666
21
70.210502
0
LINE
8
Layer 1
10
39.528666
20
70.210502
11
40.243817
21
69.458067
0
LINE
8
Layer 1
10
40.243817
20
69.458067
11
43.130947
21
66.479217
0
LINE
8
Layer 1
10
43.130947
20
66.479217
11
45.994907
21
63.516807
0
LINE
8
Layer 1
10
45.994907
20
63.516807
11
48.801577
21
60.464477
0
LINE
8
Layer 1
10
48.801577
20
60.464477
11
49.990817
21
59.222137
0
LINE
8
Layer 1
10
49.990817
20
59.222137
11
54.253497
21
54.746297
0
LINE
8
Layer 1
10
54.253497
20
54.746297
11
56.857837
21
51.962457
0
LINE
8
Layer 1
10
56.857837
20
51.962457
11
59.678567
21
48.935817
0
LINE
8
Layer 1
10
59.678567
20
48.935817
11
63.656207
21
44.618947
0
LINE
8
Layer 1
10
63.656207
20
44.618947
11
64.043633
21
44.210394
0
LINE
8
Layer 1
10
64.043633
20
44.210394
11
64.637087
21
43.626858
0
LINE
8
Layer 1
10
64.637087
20
43.626858
11
66.448597
21
41.592648
0
LINE
8
Layer 1
10
66.448597
20
41.592648
11
67.014782
21
40.970464
0
LINE
8
Layer 1
10
67.014782
20
40.970464
11
66.095449
21
42.045144
0
LINE
8
Layer 1
10
66.095449
20
42.045144
11
62.529079
21
46.196374
0
LINE
8
Layer 1
10
62.529079
20
46.196374
11
60.036679
21
49.076534
0
LINE
8
Layer 1
10
60.036679
20
49.076534
11
58.030809
21
51.397604
0
LINE
8
Layer 1
10
58.030809
20
51.397604
11
56.074098
21
53.729525
0
LINE
8
Layer 1
10
56.074098
20
53.729525
11
54.035689
21
55.952434
0
LINE
8
Layer 1
10
54.035689
20
55.952434
11
53.082131
21
57.146204
0
LINE
8
Layer 1
10
53.082131
20
57.146204
11
52.353022
21
58.080720
0
LINE
8
Layer 1
10
52.353022
20
58.080720
11
51.034062
21
59.592800
0
LINE
8
Layer 1
10
51.034062
20
59.592800
11
48.829432
21
62.217080
0
LINE
8
Layer 1
10
48.829432
20
62.217080
11
48.207195
21
62.989344
0
LINE
8
Layer 1
10
48.207195
20
62.989344
11
48.885144
21
62.545564
0
LINE
8
Layer 1
10
48.885144
20
62.545564
11
49.587385
21
62.039506
0
LINE
8
Layer 1
10
49.587385
20
62.039506
11
48.207975
21
63.795526
0
LINE
8
Layer 1
10
48.207975
20
63.795526
11
46.588745
21
65.829286
0
LINE
8
Layer 1
10
46.588745
20
65.829286
11
46.549380
21
65.684093
0
LINE
8
Layer 1
10
46.549380
20
65.684093
11
46.442918
21
65.631431
0
LINE
8
Layer 1
10
46.442918
20
65.631431
11
45.815581
21
66.274573
0
LINE
8
Layer 1
10
45.815581
20
66.274573
11
44.328791
21
68.138653
0
LINE
8
Layer 1
10
44.328791
20
68.138653
11
43.041451
21
69.725164
0
LINE
8
Layer 1
10
43.041451
20
69.725164
11
41.781211
21
71.323593
0
LINE
8
Layer 1
10
41.781211
20
71.323593
11
40.875089
21
72.321657
0
LINE
8
Layer 1
10
40.875089
20
72.321657
11
38.970205
21
74.645709
0
LINE
8
Layer 1
10
38.970205
20
74.645709
11
37.224639
21
77.091687
0
LINE
8
Layer 1
10
37.224639
20
77.091687
11
37.190160
21
77.147798
0
LINE
8
Layer 1
10
37.190160
20
77.147798
11
42.709640
21
82.909138
0
LINE
8
Layer 1
10
42.709640
20
82.909138
11
52.101070
21
92.717928
0
LINE
8
Layer 1
10
52.101070
20
92.717928
11
57.869530
21
98.768948
0
LINE
8
Layer 1
10
57.869530
20
98.768948
11
65.525720
21
106.870398
0
LINE
8
Layer 1
10
65.525720
20
106.870398
11
66.299008
21
107.699451
0
LINE
8
Layer 1
10
66.299008
20
107.699451
11
67.796528
21
109.366121
0
LINE
8
Layer 1
10
67.796528
20
109.366121
11
68.549440
21
110.205537
0
LINE
8
Layer 1
10
68.549440
20
110.205537
11
68.737829
21
110.415674
0
LINE
8
Layer 1
10
68.737829
20
110.415674
11
68.906756
21
110.627163
0
LINE
8
Layer 1
10
68.906756
20
110.627163
11
69.243255
21
111.050589
0
LINE
8
Layer 1
10
69.243255
20
111.050589
11
70.590805
21
112.747679
0
LINE
8
Layer 1
10
70.590805
20
112.747679
11
70.928094
21
113.172798
0
LINE
8
Layer 1
10
70.928094
20
113.172798
11
71.012431
21
113.279049
0
LINE
8
Layer 1
10
71.012431
20
113.279049
11
70.935400
21
113.384000
0
LINE
8
Layer 1
10
70.935400
20
113.384000
11
70.935400
21
113.384000
0
LINE
8
Layer 1
10
4.979830
20
155.588000
11
4.857298
21
155.487272
0
LINE
8
Layer 1
10
4.857298
20
155.487272
11
4.899691
21
155.581252
0
LINE
8
Layer 1
10
4.899691
20
155.581252
11
5.207542
21
155.971892
0
LINE
8
Layer 1
10
5.207542
20
155.971892
11
4.979830
21
155.588000
0
LINE
8
Layer 1
10
4.979830
20
155.588000
11
4.979830
21
155.588000
0
LINE
8
Layer 1
10
10.528000
20
161.389000
11
10.504339
21
161.435874
0
LINE
8
Layer 1
10
10.504339
20
161.435874
11
10.675969
21
161.631022
0
LINE
8
Layer 1
10
10.675969
20
161.631022
11
10.693856
21
161.584264
0
LINE
8
Layer 1
10
10.693856
20
161.584264
11
10.528000
21
161.389000
0
LINE
8
Layer 1
10
10.528000
20
161.389000
11
10.528000
21
161.389000
0
LINE
8
Layer 1
10
13.395540
20
164.248210
11
12.559700
21
163.723940
0
LINE
8
Layer 1
10
12.559700
20
163.723940
11
12.479831
21
163.742417
0
LINE
8
Layer 1
10
12.479831
20
163.742417
11
12.514339
21
163.941384
0
LINE
8
Layer 1
10
12.514339
20
163.941384
11
12.605547
21
164.057095
0
LINE
8
Layer 1
10
12.605547
20
164.057095
11
13.211732
21
164.718939
0
LINE
8
Layer 1
10
13.211732
20
164.718939
11
13.421867
21
164.952384
0
LINE
8
Layer 1
10
13.421867
20
164.952384
11
13.581892
21
164.961974
0
LINE
8
Layer 1
10
13.581892
20
164.961974
11
13.639271
21
164.786203
0
LINE
8
Layer 1
10
13.639271
20
164.786203
11
13.582396
21
164.476150
0
LINE
8
Layer 1
10
13.582396
20
164.476150
11
13.395600
21
164.248000
0
LINE
8
Layer 1
10
13.395600
20
164.248000
11
13.395540
21
164.248210
0
LINE
8
Layer 1
10
16.726000
20
167.542440
11
16.221082
21
166.883528
0
LINE
8
Layer 1
10
16.221082
20
166.883528
11
15.662333
21
166.388776
0
LINE
8
Layer 1
10
15.662333
20
166.388776
11
15.493211
21
166.431256
0
LINE
8
Layer 1
10
15.493211
20
166.431256
11
15.511098
21
166.542576
0
LINE
8
Layer 1
10
15.511098
20
166.542576
11
16.568458
21
167.706496
0
LINE
8
Layer 1
10
16.568458
20
167.706496
11
16.667865
21
167.718327
0
LINE
8
Layer 1
10
16.667865
20
167.718327
11
16.726000
21
167.542000
0
LINE
8
Layer 1
10
16.726000
20
167.542000
11
16.726000
21
167.542440
0
LINE
8
Layer 1
10
53.154700
20
56.273440
11
53.392049
21
55.948264
0
LINE
8
Layer 1
10
53.392049
20
55.948264
11
53.204614
21
56.126290
0
LINE
8
Layer 1
10
53.204614
20
56.126290
11
52.363451
21
57.095621
0
LINE
8
Layer 1
10
52.363451
20
57.095621
11
53.154700
21
56.273400
0
LINE
8
Layer 1
10
53.154700
20
56.273400
11
53.154700
21
56.273440
0
LINE
8
Layer 1
10
39.780300
20
72.870340
11
40.206289
21
72.364999
0
LINE
8
Layer 1
10
40.206289
20
72.364999
11
40.133924
21
72.375817
0
LINE
8
Layer 1
10
40.133924
20
72.375817
11
39.705371
21
72.891073
0
LINE
8
Layer 1
10
39.705371
20
72.891073
11
39.780200
21
72.870300
0
LINE
8
Layer 1
10
39.780200
20
72.870300
11
39.780300
21
72.870340
0
LINE
8
Layer 1
10
32.676940
20
81.555330
11
32.689358
21
81.087970
0
LINE
8
Layer 1
10
32.689358
20
81.087970
11
32.401647
21
81.644125
0
LINE
8
Layer 1
10
32.401647
20
81.644125
11
32.676900
21
81.555300
0
LINE
8
Layer 1
10
32.676900
20
81.555300
11
32.676940
21
81.555330
0
LINE
8
Layer 1
10
28.883930
20
86.600610
11
28.677202
21
86.755197
0
LINE
8
Layer 1
10
28.677202
20
86.755197
11
26.105292
21
89.886737
0
LINE
8
Layer 1
10
26.105292
20
89.886737
11
26.037604
21
90.072761
0
LINE
8
Layer 1
10
26.037604
20
90.072761
11
26.323709
21
89.978905
0
LINE
8
Layer 1
10
26.323709
20
89.978905
11
27.735509
21
88.369135
0
LINE
8
Layer 1
10
27.735509
20
88.369135
11
28.880269
21
86.847705
0
LINE
8
Layer 1
10
28.880269
20
86.847705
11
28.883900
21
86.600600
0
LINE
8
Layer 1
10
28.883900
20
86.600600
11
28.883930
21
86.600610
0
LINE
8
Layer 1
10
30.723690
20
84.797160
11
30.020438
21
85.892680
0
LINE
8
Layer 1
10
30.020438
20
85.892680
11
29.094713
21
87.224710
0
LINE
8
Layer 1
10
29.094713
20
87.224710
11
27.736039
21
88.933249
0
LINE
8
Layer 1
10
27.736039
20
88.933249
11
26.540100
21
90.759400
0
LINE
8
Layer 1
10
26.540100
20
90.759400
11
25.311450
21
92.351130
0
LINE
8
Layer 1
10
25.311450
20
92.351130
11
24.187424
21
93.636186
0
LINE
8
Layer 1
10
24.187424
20
93.636186
11
23.069360
21
94.936200
0
LINE
8
Layer 1
10
23.069360
20
94.936200
11
22.004093
21
96.259000
0
LINE
8
Layer 1
10
22.004093
20
96.259000
11
21.095180
21
97.640360
0
LINE
8
Layer 1
10
21.095180
20
97.640360
11
20.470970
21
98.461863
0
LINE
8
Layer 1
10
20.470970
20
98.461863
11
18.049611
21
101.397926
0
LINE
8
Layer 1
10
18.049611
20
101.397926
11
15.703530
21
104.376993
0
LINE
8
Layer 1
10
15.703530
20
104.376993
11
13.338137
21
107.371492
0
LINE
8
Layer 1
10
13.338137
20
107.371492
11
10.856060
21
110.286723
0
LINE
8
Layer 1
10
10.856060
20
110.286723
11
10.268525
21
111.110368
0
LINE
8
Layer 1
10
10.268525
20
111.110368
11
9.777944
21
111.768380
0
LINE
8
Layer 1
10
9.777944
20
111.768380
11
9.554006
21
112.065388
0
LINE
8
Layer 1
10
9.554006
20
112.065388
11
9.457726
21
112.181443
0
LINE
8
Layer 1
10
9.457726
20
112.181443
11
9.268293
21
112.402507
0
LINE
8
Layer 1
10
9.268293
20
112.402507
11
9.094608
21
112.619177
0
LINE
8
Layer 1
10
9.094608
20
112.619177
11
8.945739
21
112.841709
0
LINE
8
Layer 1
10
8.945739
20
112.841709
11
8.869344
21
112.950438
0
LINE
8
Layer 1
10
8.869344
20
112.950438
11
8.830361
21
113.004520
0
LINE
8
Layer 1
10
8.830361
20
113.004520
11
8.810642
21
113.031450
0
LINE
8
Layer 1
10
8.810642
20
113.031450
11
8.806973
21
113.058041
0
LINE
8
Layer 1
10
8.806973
20
113.058041
11
9.190005
21
113.477750
0
LINE
8
Layer 1
10
9.190005
20
113.477750
11
9.489443
21
113.834363
0
LINE
8
Layer 1
10
9.489443
20
113.834363
11
9.605637
21
113.945908
0
LINE
8
Layer 1
10
9.605637
20
113.945908
11
9.904053
21
114.261170
0
LINE
8
Layer 1
10
9.904053
20
114.261170
11
10.501167
21
114.891465
0
LINE
8
Layer 1
10
10.501167
20
114.891465
11
11.695277
21
116.151605
0
LINE
8
Layer 1
10
11.695277
20
116.151605
11
14.082577
21
118.672445
0
LINE
8
Layer 1
10
14.082577
20
118.672445
11
18.848137
21
123.726305
0
LINE
8
Layer 1
10
18.848137
20
123.726305
11
28.786087
21
134.456005
0
LINE
8
Layer 1
10
28.786087
20
134.456005
11
31.313327
21
137.232735
0
LINE
8
Layer 1
10
31.313327
20
137.232735
11
31.282201
21
129.953015
0
LINE
8
Layer 1
10
31.282201
20
129.953015
11
31.359691
21
123.889045
0
LINE
8
Layer 1
10
31.359691
20
123.889045
11
31.429380
21
118.062925
0
LINE
8
Layer 1
10
31.429380
20
118.062925
11
32.164687
21
94.726025
0
LINE
8
Layer 1
10
32.164687
20
94.726025
11
32.246461
21
93.096085
0
LINE
8
Layer 1
10
32.246461
20
93.096085
11
32.422683
21
89.368285
0
LINE
8
Layer 1
10
32.422683
20
89.368285
11
32.637242
21
82.957275
0
LINE
8
Layer 1
10
32.637242
20
82.957275
11
32.032550
21
83.548699
0
LINE
8
Layer 1
10
32.032550
20
83.548699
11
30.723600
21
84.797200
0
LINE
8
Layer 1
10
30.723600
20
84.797200
11
30.723690
21
84.797160
0
LINE
8
Layer 1
10
34.856900
20
14.573200
11
34.848927
21
14.745141
0
LINE
8
Layer 1
10
34.848927
20
14.745141
11
34.845013
21
15.603262
0
LINE
8
Layer 1
10
34.845013
20
15.603262
11
34.865463
21
14.841590
0
LINE
8
Layer 1
10
34.865463
20
14.841590
11
34.856900
21
14.573200
0
LINE
8
Layer 1
10
34.856900
20
14.573200
11
34.856900
21
14.573200
0
LINE
8
Layer 1
10
35.055598
20
28.644800
11
35.039684
21
28.681757
0
LINE
8
Layer 1
10
35.039684
20
28.681757
11
35.043093
21
29.129858
0
LINE
8
Layer 1
10
35.043093
20
29.129858
11
35.057571
21
29.086706
0
LINE
8
Layer 1
10
35.057571
20
29.086706
11
35.055598
21
28.644800
0
LINE
8
Layer 1
10
35.207033
20
35.592820
11
35.093204
21
33.981590
0
LINE
8
Layer 1
10
35.093204
20
33.981590
11
35.067457
21
33.919501
0
LINE
8
Layer 1
10
35.067457
20
33.919501
11
35.032981
21
34.223381
0
LINE
8
Layer 1
10
35.032981
20
34.223381
11
35.032219
21
34.477573
0
LINE
8
Layer 1
10
35.032219
20
34.477573
11
35.051128
21
36.023233
0
LINE
8
Layer 1
10
35.051128
20
36.023233
11
35.099297
21
36.751442
0
LINE
8
Layer 1
10
35.099297
20
36.751442
11
35.154844
21
36.578488
0
LINE
8
Layer 1
10
35.154844
20
36.578488
11
35.207100
21
35.592800
0
LINE
8
Layer 1
10
35.207100
20
35.592800
11
35.207033
21
35.592820
0
LINE
8
Layer 1
10
35.417788
20
42.195710
11
35.368185
21
40.925200
0
LINE
8
Layer 1
10
35.368185
20
40.925200
11
35.308974
21
40.798217
0
LINE
8
Layer 1
10
35.308974
20
40.798217
11
35.288412
21
40.966664
0
LINE
8
Layer 1
10
35.288412
20
40.966664
11
35.327847
21
43.675564
0
LINE
8
Layer 1
10
35.327847
20
43.675564
11
35.354833
21
43.799392
0
LINE
8
Layer 1
10
35.354833
20
43.799392
11
35.413930
21
43.627237
0
LINE
8
Layer 1
10
35.413930
20
43.627237
11
35.417800
21
42.195600
0
LINE
8
Layer 1
10
35.417800
20
42.195600
11
35.417788
21
42.195710
0
LINE
8
Layer 1
10
59.841788
20
112.667410
11
59.230591
21
111.927257
0
LINE
8
Layer 1
10
59.230591
20
111.927257
11
58.008851
21
110.446497
0
LINE
8
Layer 1
10
58.008851
20
110.446497
11
46.442051
21
96.026097
0
LINE
8
Layer 1
10
46.442051
20
96.026097
11
37.222621
21
84.351297
0
LINE
8
Layer 1
10
37.222621
20
84.351297
11
37.288957
21
85.731437
0
LINE
8
Layer 1
10
37.288957
20
85.731437
11
37.751962
21
95.985737
0
LINE
8
Layer 1
10
37.751962
20
95.985737
11
37.859057
21
98.551317
0
LINE
8
Layer 1
10
37.859057
20
98.551317
11
38.410087
21
110.910217
0
LINE
8
Layer 1
10
38.410087
20
110.910217
11
38.983652
21
131.444417
0
LINE
8
Layer 1
10
38.983652
20
131.444417
11
39.044440
21
137.162597
0
LINE
8
Layer 1
10
39.044440
20
137.162597
11
40.838680
21
135.027887
0
LINE
8
Layer 1
10
40.838680
20
135.027887
11
46.886860
21
128.031427
0
LINE
8
Layer 1
10
46.886860
20
128.031427
11
57.047260
21
116.515727
0
LINE
8
Layer 1
10
57.047260
20
116.515727
11
59.604390
21
113.651567
0
LINE
8
Layer 1
10
59.604390
20
113.651567
11
60.153250
21
113.040088
0
LINE
8
Layer 1
10
60.153250
20
113.040088
11
60.147448
21
113.037384
0
LINE
8
Layer 1
10
60.147448
20
113.037384
11
59.841788
21
112.667410
0
LINE
8
Layer 1
10
60.239809
20
113.005882
11
60.227470
21
113.012190
0
LINE
8
Layer 1
10
60.227470
20
113.012190
11
60.254202
21
112.999797
0
LINE
8
Layer 1
10
60.254202
20
112.999797
11
60.262511
21
112.993938
0
LINE
8
Layer 1
10
60.262511
20
112.993938
11
60.239809
21
113.005882
0
LINE
8
Layer 1
10
51.475000
20
59.430900
11
54.221300
21
56.292150
0
LINE
8
Layer 1
10
54.221300
20
56.292150
11
55.337640
21
54.978940
0
LINE
8
Layer 1
10
55.337640
20
54.978940
11
55.627126
21
54.705820
0
LINE
8
Layer 1
10
55.627126
20
54.705820
11
55.420681
21
55.045641
0
LINE
8
Layer 1
10
55.420681
20
55.045641
11
52.604631
21
58.515531
0
LINE
8
Layer 1
10
52.604631
20
58.515531
11
52.015391
21
59.163854
0
LINE
8
Layer 1
10
52.015391
20
59.163854
11
51.475000
21
59.430900
0
LINE
8
Layer 1
10
51.475000
20
59.430900
11
51.475000
21
59.430900
0
LINE
8
Layer 1
10
67.997000
20
39.848300
11
67.660727
21
40.233982
0
LINE
8
Layer 1
10
67.660727
20
40.233982
11
67.158259
21
40.805800
0
LINE
8
Layer 1
10
67.158259
20
40.805800
11
67.608558
21
40.288515
0
LINE
8
Layer 1
10
67.608558
20
40.288515
11
67.962695
21
39.886789
0
LINE
8
Layer 1
10
67.962695
20
39.886789
11
68.038518
21
39.801024
0
LINE
8
Layer 1
10
68.038518
20
39.801024
11
67.997000
21
39.848300
0
LINE
8
Layer 1
10
67.997000
20
39.848300
11
67.997000
21
39.848300
0
LINE
8
Layer 1
10
67.158200
20
40.805800
11
67.016937
21
40.968049
0
LINE
8
Layer 1
10
67.016937
20
40.968049
11
67.014767
21
40.970307
0
LINE
8
Layer 1
10
67.014767
20
40.970307
11
67.056877
21
40.921070
0
LINE
8
Layer 1
10
67.056877
20
40.921070
11
67.158200
21
40.805800
0
LINE
8
Layer 1
10
67.158200
20
40.805800
11
67.158200
21
40.805800
0
LINE
8
Layer 1
10
44.442300
20
68.397500
11
44.587424
21
68.269504
0
LINE
8
Layer 1
10
44.587424
20
68.269504
11
44.427288
21
68.493162
0
LINE
8
Layer 1
10
44.427288
20
68.493162
11
44.237037
21
68.700367
0
LINE
8
Layer 1
10
44.237037
20
68.700367
11
44.442300
21
68.397500
0
LINE
8
Layer 1
10
44.442300
20
68.397500
11
44.442300
21
68.397500
0
LINE
8
Layer 1
10
35.102600
20
14.386700
11
35.099614
21
13.234270
0
LINE
8
Layer 1
10
35.099614
20
13.234270
11
35.111307
21
12.969712
0
LINE
8
Layer 1
10
35.111307
20
12.969712
11
35.129840
21
13.232015
0
LINE
8
Layer 1
10
35.129840
20
13.232015
11
35.168629
21
16.218875
0
LINE
8
Layer 1
10
35.168629
20
16.218875
11
35.092601
21
17.175136
0
LINE
8
Layer 1
10
35.092601
20
17.175136
11
35.102600
21
14.386700
0
LINE
8
Layer 1
10
35.102600
20
14.386700
11
35.102600
21
14.386700
0
LINE
8
Layer 1
10
35.031300
20
0.044706
11
35.030369
21
0.386782
0
LINE
8
Layer 1
10
35.030369
20
0.386782
11
35.028229
21
0.883210
0
LINE
8
Layer 1
10
35.028229
20
0.883210
11
35.029412
21
0.437136
0
LINE
8
Layer 1
10
35.029412
20
0.437136
11
35.031026
21
0.079184
0
LINE
8
Layer 1
10
35.031026
20
0.079184
11
35.031300
21
0.044706
0
LINE
8
Layer 1
10
35.031300
20
0.044706
11
35.031300
21
0.044706
0
LINE
8
Layer 1
10
35.028200
20
0.883222
11
35.027777
21
1.039612
0
LINE
8
Layer 1
10
35.027777
20
1.039612
11
35.027692
21
1.045821
0
LINE
8
Layer 1
10
35.027692
20
1.045821
11
35.027700
21
0.998385
0
LINE
8
Layer 1
10
35.027700
20
0.998385
11
35.028200
21
0.883222
0
LINE
8
Layer 1
10
35.257400
20
24.787200
11
35.265680
21
24.659091
0
LINE
8
Layer 1
10
35.265680
20
24.659091
11
35.273865
21
24.842298
0
LINE
8
Layer 1
10
35.273865
20
24.842298
11
35.271271
21
25.030238
0
LINE
8
Layer 1
10
35.271271
20
25.030238
11
35.257400
21
24.787200
0
LINE
8
Layer 1
10
35.257400
20
24.787200
11
35.257400
21
24.787200
0
LINE
8
Layer 1
10
6.292110
20
155.550000
11
6.486624
21
155.829217
0
LINE
8
Layer 1
10
6.486624
20
155.829217
11
6.438671
21
156.145028
0
LINE
8
Layer 1
10
6.438671
20
156.145028
11
5.451368
21
154.864718
0
LINE
8
Layer 1
10
5.451368
20
154.864718
11
5.024420
21
154.351040
0
LINE
8
Layer 1
10
5.024420
20
154.351040
11
4.960339
21
154.205464
0
LINE
8
Layer 1
10
4.960339
20
154.205464
11
5.106307
21
154.282759
0
LINE
8
Layer 1
10
5.106307
20
154.282759
11
6.292110
21
155.550000
0
LINE
8
Layer 1
10
6.292110
20
155.550000
11
6.292110
21
155.550000
0
LINE
8
Layer 1
10
0.015570
20
148.571000
11
0.137428
21
148.727503
0
LINE
8
Layer 1
10
0.137428
20
148.727503
11
0.318775
21
148.965357
0
LINE
8
Layer 1
10
0.318775
20
148.965357
11
0.152668
21
148.752742
0
LINE
8
Layer 1
10
0.152668
20
148.752742
11
0.015570
21
148.571000
0
LINE
8
Layer 1
10
0.015570
20
148.571000
11
0.015570
21
148.571000
0
LINE
8
Layer 1
10
0.318775
20
148.965000
11
0.367704
21
149.027653
0
LINE
8
Layer 1
10
0.367704
20
149.027653
11
0.368155
21
149.028441
0
LINE
8
Layer 1
10
0.368155
20
149.028441
11
0.352436
21
149.009173
0
LINE
8
Layer 1
10
0.352436
20
149.009173
11
0.318775
21
148.965000
0
LINE
8
Layer 1
10
0.318775
20
148.965000
11
0.318775
21
148.965000
0
LINE
8
Layer 1
10
9.608710
20
159.255000
11
9.582746
21
159.180524
0
LINE
8
Layer 1
10
9.582746
20
159.180524
11
9.668377
21
159.247676
0
LINE
8
Layer 1
10
9.668377
20
159.247676
11
9.729701
21
159.338270
0
LINE
8
Layer 1
10
9.729701
20
159.338270
11
9.608710
21
159.255000
0
LINE
8
Layer 1
10
9.608710
20
159.255000
11
9.608710
21
159.255000
 0 
ENDSEC
 0 
EOF