999
"DXF R12 Output" (www.mydxf.blogspot.com)
 0 
SECTION
 2 
HEADER
 9 
$ACADVER
 1 
AC1009
 9 
$EXTMIN
 10 
 0 
 20 
 0 
 9 
$EXTMAX
 10 
 8.5 
 20 
 11 
 0 
ENDSEC
 0 
SECTION
 2 
ENTITIES
0
LINE
8
Layer 1
10
106.752000
20
135.852000
11
103.170920
21
138.335520
0
LINE
8
Layer 1
10
103.170920
20
138.335520
11
100.607610
21
139.955320
0
LINE
8
Layer 1
10
100.607610
20
139.955320
11
98.554730
21
141.277450
0
LINE
8
Layer 1
10
98.554730
20
141.277450
11
96.598605
21
142.713536
0
LINE
8
Layer 1
10
96.598605
20
142.713536
11
95.554287
21
143.328863
0
LINE
8
Layer 1
10
95.554287
20
143.328863
11
94.434070
21
143.787140
0
LINE
8
Layer 1
10
94.434070
20
143.787140
11
93.890135
21
144.095713
0
LINE
8
Layer 1
10
93.890135
20
144.095713
11
93.506514
21
144.589593
0
LINE
8
Layer 1
10
93.506514
20
144.589593
11
93.220810
21
144.984890
0
LINE
8
Layer 1
10
93.220810
20
144.984890
11
92.800019
21
145.231510
0
LINE
8
Layer 1
10
92.800019
20
145.231510
11
92.079237
21
145.584609
0
LINE
8
Layer 1
10
92.079237
20
145.584609
11
91.440439
21
146.070556
0
LINE
8
Layer 1
10
91.440439
20
146.070556
11
89.201489
21
147.631526
0
LINE
8
Layer 1
10
89.201489
20
147.631526
11
88.576486
21
148.117591
0
LINE
8
Layer 1
10
88.576486
20
148.117591
11
88.904274
21
148.244135
0
LINE
8
Layer 1
10
88.904274
20
148.244135
11
89.370454
21
148.200661
0
LINE
8
Layer 1
10
89.370454
20
148.200661
11
89.843375
21
148.144561
0
LINE
8
Layer 1
10
89.843375
20
148.144561
11
90.191386
21
148.233229
0
LINE
8
Layer 1
10
90.191386
20
148.233229
11
89.529150
21
148.809442
0
LINE
8
Layer 1
10
89.529150
20
148.809442
11
88.783296
21
149.324939
0
LINE
8
Layer 1
10
88.783296
20
149.324939
11
88.018366
21
150.032642
0
LINE
8
Layer 1
10
88.018366
20
150.032642
11
87.115626
21
150.553239
0
LINE
8
Layer 1
10
87.115626
20
150.553239
11
87.036303
21
150.308557
0
LINE
8
Layer 1
10
87.036303
20
150.308557
11
86.889566
21
150.126429
0
LINE
8
Layer 1
10
86.889566
20
150.126429
11
86.220626
21
150.407282
0
LINE
8
Layer 1
10
86.220626
20
150.407282
11
84.699446
21
151.546972
0
LINE
8
Layer 1
10
84.699446
20
151.546972
11
83.375104
21
152.492164
0
LINE
8
Layer 1
10
83.375104
20
152.492164
11
82.079966
21
153.469752
0
LINE
8
Layer 1
10
82.079966
20
153.469752
11
81.133580
21
153.982202
0
LINE
8
Layer 1
10
81.133580
20
153.982202
11
79.127771
21
155.371317
0
LINE
8
Layer 1
10
79.127771
20
155.371317
11
77.371540
21
156.952322
0
LINE
8
Layer 1
10
77.371540
20
156.952322
11
76.345361
21
157.973257
0
LINE
8
Layer 1
10
76.345361
20
157.973257
11
75.101420
21
158.713502
0
LINE
8
Layer 1
10
75.101420
20
158.713502
11
74.279464
21
159.173722
0
LINE
8
Layer 1
10
74.279464
20
159.173722
11
73.569390
21
159.792762
0
LINE
8
Layer 1
10
73.569390
20
159.792762
11
72.827899
21
160.362530
0
LINE
8
Layer 1
10
72.827899
20
160.362530
11
71.973530
21
160.742659
0
LINE
8
Layer 1
10
71.973530
20
160.742659
11
71.392649
21
160.893405
0
LINE
8
Layer 1
10
71.392649
20
160.893405
11
70.622670
21
161.294045
0
LINE
8
Layer 1
10
70.622670
20
161.294045
11
69.884473
21
162.040858
0
LINE
8
Layer 1
10
69.884473
20
162.040858
11
68.912873
21
162.902456
0
LINE
8
Layer 1
10
68.912873
20
162.902456
11
67.489656
21
163.912219
0
LINE
8
Layer 1
10
67.489656
20
163.912219
11
66.226683
21
165.116406
0
LINE
8
Layer 1
10
66.226683
20
165.116406
11
65.636639
21
165.665073
0
LINE
8
Layer 1
10
65.636639
20
165.665073
11
64.937313
21
166.065236
0
LINE
8
Layer 1
10
64.937313
20
166.065236
11
63.770530
21
166.763922
0
LINE
8
Layer 1
10
63.770530
20
166.763922
11
62.610073
21
167.483116
0
LINE
8
Layer 1
10
62.610073
20
167.483116
11
62.002467
21
167.822418
0
LINE
8
Layer 1
10
62.002467
20
167.822418
11
61.497099
21
168.250074
0
LINE
8
Layer 1
10
61.497099
20
168.250074
11
60.523043
21
169.146536
0
LINE
8
Layer 1
10
60.523043
20
169.146536
11
59.865697
21
169.639296
0
LINE
8
Layer 1
10
59.865697
20
169.639296
11
58.573457
21
170.440152
0
LINE
8
Layer 1
10
58.573457
20
170.440152
11
57.952286
21
170.870473
0
LINE
8
Layer 1
10
57.952286
20
170.870473
11
57.052173
21
171.500158
0
LINE
8
Layer 1
10
57.052173
20
171.500158
11
53.112153
21
174.213038
0
LINE
8
Layer 1
10
53.112153
20
174.213038
11
50.106073
21
176.261028
0
LINE
8
Layer 1
10
50.106073
20
176.261028
11
47.033100
21
178.357000
0
LINE
8
Layer 1
10
47.033100
20
178.357000
11
47.097249
21
175.664650
0
LINE
8
Layer 1
10
47.097249
20
175.664650
11
47.010229
21
174.490920
0
LINE
8
Layer 1
10
47.010229
20
174.490920
11
46.830506
21
170.384794
0
LINE
8
Layer 1
10
46.830506
20
170.384794
11
46.777568
21
166.033320
0
LINE
8
Layer 1
10
46.777568
20
166.033320
11
46.786503
21
165.167040
0
LINE
8
Layer 1
10
46.786503
20
165.167040
11
46.778632
21
164.613845
0
LINE
8
Layer 1
10
46.778632
20
164.613845
11
46.243310
21
153.570345
0
LINE
8
Layer 1
10
46.243310
20
153.570345
11
45.794577
21
141.937845
0
LINE
8
Layer 1
10
45.794577
20
141.937845
11
45.505745
21
131.585045
0
LINE
8
Layer 1
10
45.505745
20
131.585045
11
42.650735
21
132.911965
0
LINE
8
Layer 1
10
42.650735
20
132.911965
11
28.385335
21
139.433065
0
LINE
8
Layer 1
10
28.385335
20
139.433065
11
13.343335
21
146.101605
0
LINE
8
Layer 1
10
13.343335
20
146.101605
11
12.397694
21
146.509478
0
LINE
8
Layer 1
10
12.397694
20
146.509478
11
11.099704
21
147.059055
0
LINE
8
Layer 1
10
11.099704
20
147.059055
11
7.396924
21
148.647895
0
LINE
8
Layer 1
10
7.396924
20
148.647895
11
6.274254
21
149.140556
0
LINE
8
Layer 1
10
6.274254
20
149.140556
11
5.134364
21
149.653537
0
LINE
8
Layer 1
10
5.134364
20
149.653537
11
2.836694
21
150.688757
0
LINE
8
Layer 1
10
2.836694
20
150.688757
11
0.522964
21
151.726737
0
LINE
8
Layer 1
10
0.522964
20
151.726737
11
0.232768
21
151.857000
0
LINE
8
Layer 1
10
0.232768
20
151.857000
11
0.160214
21
151.889455
0
LINE
8
Layer 1
10
0.160214
20
151.889455
11
0.123938
21
151.905731
0
LINE
8
Layer 1
10
0.123938
20
151.905731
11
0.117342
21
151.876795
0
LINE
8
Layer 1
10
0.117342
20
151.876795
11
0.115107
21
151.724773
0
LINE
8
Layer 1
10
0.115107
20
151.724773
11
0.106398
21
151.116000
0
LINE
8
Layer 1
10
0.106398
20
151.116000
11
0.089589
21
149.894290
0
LINE
8
Layer 1
10
0.089589
20
149.894290
11
0.032766
21
144.959000
0
LINE
8
Layer 1
10
0.032766
20
144.959000
11
0.011382
21
139.948000
0
LINE
8
Layer 1
10
0.011382
20
139.948000
11
0.000000
21
136.975000
0
LINE
8
Layer 1
10
0.000000
20
136.975000
11
0.000638
21
134.494880
0
LINE
8
Layer 1
10
0.000638
20
134.494880
11
0.022022
21
129.534550
0
LINE
8
Layer 1
10
0.022022
20
129.534550
11
0.494685
21
96.592250
0
LINE
8
Layer 1
10
0.494685
20
96.592250
11
1.180219
21
76.778450
0
LINE
8
Layer 1
10
1.180219
20
76.778450
11
1.967243
21
57.727250
0
LINE
8
Layer 1
10
1.967243
20
57.727250
11
2.710652
21
38.655450
0
LINE
8
Layer 1
10
2.710652
20
38.655450
11
3.129591
21
26.684550
0
LINE
8
Layer 1
10
3.129591
20
26.684550
11
3.876508
21
9.520850
0
LINE
8
Layer 1
10
3.876508
20
9.520850
11
4.279275
21
1.831660
0
LINE
8
Layer 1
10
4.279275
20
1.831660
11
4.337669
21
0.000038
0
LINE
8
Layer 1
10
4.337669
20
0.000038
11
4.374276
21
2.494108
0
LINE
8
Layer 1
10
4.374276
20
2.494108
11
4.547560
21
8.399038
0
LINE
8
Layer 1
10
4.547560
20
8.399038
11
5.044691
21
23.653138
0
LINE
8
Layer 1
10
5.044691
20
23.653138
11
5.731823
21
42.279538
0
LINE
8
Layer 1
10
5.731823
20
42.279538
11
6.642570
21
63.531438
0
LINE
8
Layer 1
10
6.642570
20
63.531438
11
7.262253
21
78.080738
0
LINE
8
Layer 1
10
7.262253
20
78.080738
11
7.626619
21
87.038548
0
LINE
8
Layer 1
10
7.626619
20
87.038548
11
8.066727
21
98.984748
0
LINE
8
Layer 1
10
8.066727
20
98.984748
11
8.319386
21
108.713098
0
LINE
8
Layer 1
10
8.319386
20
108.713098
11
8.556303
21
118.059638
0
LINE
8
Layer 1
10
8.556303
20
118.059638
11
8.645240
21
127.419368
0
LINE
8
Layer 1
10
8.645240
20
127.419368
11
8.698538
21
136.778978
0
LINE
8
Layer 1
10
8.698538
20
136.778978
11
8.701941
21
137.948988
0
LINE
8
Layer 1
10
8.701941
20
137.948988
11
8.703635
21
138.533989
0
LINE
8
Layer 1
10
8.703635
20
138.533989
11
8.704481
21
138.826439
0
LINE
8
Layer 1
10
8.704481
20
138.826439
11
8.704480
21
138.847000
0
LINE
8
Layer 1
10
8.704480
20
138.847000
11
9.763940
21
138.402102
0
LINE
8
Layer 1
10
9.763940
20
138.402102
11
11.922680
21
137.499333
0
LINE
8
Layer 1
10
11.922680
20
137.499333
11
14.354500
21
136.536561
0
LINE
8
Layer 1
10
14.354500
20
136.536561
11
19.912610
21
134.326441
0
LINE
8
Layer 1
10
19.912610
20
134.326441
11
29.942910
21
130.222161
0
LINE
8
Layer 1
10
29.942910
20
130.222161
11
37.197310
21
127.214381
0
LINE
8
Layer 1
10
37.197310
20
127.214381
11
40.670118
21
125.839467
0
LINE
8
Layer 1
10
40.670118
20
125.839467
11
44.117560
21
124.396181
0
LINE
8
Layer 1
10
44.117560
20
124.396181
11
45.159270
21
124.022773
0
LINE
8
Layer 1
10
45.159270
20
124.022773
11
45.283419
21
123.985647
0
LINE
8
Layer 1
10
45.283419
20
123.985647
11
45.083524
21
111.965447
0
LINE
8
Layer 1
10
45.083524
20
111.965447
11
45.048418
21
87.519547
0
LINE
8
Layer 1
10
45.048418
20
87.519547
11
45.316930
21
72.815047
0
LINE
8
Layer 1
10
45.316930
20
72.815047
11
45.677570
21
58.676147
0
LINE
8
Layer 1
10
45.677570
20
58.676147
11
45.926295
21
44.522347
0
LINE
8
Layer 1
10
45.926295
20
44.522347
11
45.904700
21
35.639007
0
LINE
8
Layer 1
10
45.904700
20
35.639007
11
45.850737
21
29.260972
0
LINE
8
Layer 1
10
45.850737
20
29.260972
11
46.060337
21
22.901507
0
LINE
8
Layer 1
10
46.060337
20
22.901507
11
46.406165
21
19.994355
0
LINE
8
Layer 1
10
46.406165
20
19.994355
11
47.250347
21
17.191057
0
LINE
8
Layer 1
10
47.250347
20
17.191057
11
47.871068
21
16.184232
0
LINE
8
Layer 1
10
47.871068
20
16.184232
11
48.220740
21
15.914780
0
LINE
8
Layer 1
10
48.220740
20
15.914780
11
48.583650
21
15.826809
0
LINE
8
Layer 1
10
48.583650
20
15.826809
11
48.950071
21
15.939450
0
LINE
8
Layer 1
10
48.950071
20
15.939450
11
49.310276
21
16.271831
0
LINE
8
Layer 1
10
49.310276
20
16.271831
11
49.973127
21
17.672339
0
LINE
8
Layer 1
10
49.973127
20
17.672339
11
50.489543
21
19.837968
0
LINE
8
Layer 1
10
50.489543
20
19.837968
11
50.728023
21
22.051509
0
LINE
8
Layer 1
10
50.728023
20
22.051509
11
51.327601
21
33.369009
0
LINE
8
Layer 1
10
51.327601
20
33.369009
11
51.899199
21
47.189209
0
LINE
8
Layer 1
10
51.899199
20
47.189209
11
52.606332
21
62.957309
0
LINE
8
Layer 1
10
52.606332
20
62.957309
11
53.043141
21
73.752509
0
LINE
8
Layer 1
10
53.043141
20
73.752509
11
53.290590
21
80.399029
0
LINE
8
Layer 1
10
53.290590
20
80.399029
11
53.584420
21
89.263009
0
LINE
8
Layer 1
10
53.584420
20
89.263009
11
53.725590
21
96.481659
0
LINE
8
Layer 1
10
53.725590
20
96.481659
11
53.878038
21
103.417009
0
LINE
8
Layer 1
10
53.878038
20
103.417009
11
53.921444
21
120.806209
0
LINE
8
Layer 1
10
53.921444
20
120.806209
11
56.793444
21
119.748939
0
LINE
8
Layer 1
10
56.793444
20
119.748939
11
59.536154
21
118.391089
0
LINE
8
Layer 1
10
59.536154
20
118.391089
11
60.851804
21
117.810129
0
LINE
8
Layer 1
10
60.851804
20
117.810129
11
63.641714
21
116.724589
0
LINE
8
Layer 1
10
63.641714
20
116.724589
11
76.536814
21
111.740829
0
LINE
8
Layer 1
10
76.536814
20
111.740829
11
80.376944
21
110.291889
0
LINE
8
Layer 1
10
80.376944
20
110.291889
11
84.203554
21
108.877109
0
LINE
8
Layer 1
10
84.203554
20
108.877109
11
86.132100
21
108.139154
0
LINE
8
Layer 1
10
86.132100
20
108.139154
11
87.919744
21
107.349649
0
LINE
8
Layer 1
10
87.919744
20
107.349649
11
89.315074
21
106.848157
0
LINE
8
Layer 1
10
89.315074
20
106.848157
11
90.055077
21
106.582092
0
LINE
8
Layer 1
10
90.055077
20
106.582092
11
90.077739
21
106.574006
0
LINE
8
Layer 1
10
90.077739
20
106.574006
11
90.082099
21
106.573159
0
LINE
8
Layer 1
10
90.082099
20
106.573159
11
90.090930
21
106.571243
0
LINE
8
Layer 1
10
90.090930
20
106.571243
11
90.108589
21
106.567521
0
LINE
8
Layer 1
10
90.108589
20
106.567521
11
90.144546
21
106.559861
0
LINE
8
Layer 1
10
90.144546
20
106.559861
11
90.218802
21
106.544009
0
LINE
8
Layer 1
10
90.218802
20
106.544009
11
90.389227
21
106.516881
0
LINE
8
Layer 1
10
90.389227
20
106.516881
11
90.481355
21
106.502838
0
LINE
8
Layer 1
10
90.481355
20
106.502838
11
90.510506
21
106.438158
0
LINE
8
Layer 1
10
90.510506
20
106.438158
11
90.548377
21
106.286667
0
LINE
8
Layer 1
10
90.548377
20
106.286667
11
90.525080
21
106.111452
0
LINE
8
Layer 1
10
90.525080
20
106.111452
11
90.534868
21
105.531345
0
LINE
8
Layer 1
10
90.534868
20
105.531345
11
90.555930
21
104.752412
0
LINE
8
Layer 1
10
90.555930
20
104.752412
11
90.824018
21
95.788642
0
LINE
8
Layer 1
10
90.824018
20
95.788642
11
90.961677
21
92.066602
0
LINE
8
Layer 1
10
90.961677
20
92.066602
11
91.185197
21
86.956152
0
LINE
8
Layer 1
10
91.185197
20
86.956152
11
91.235198
21
85.844022
0
LINE
8
Layer 1
10
91.235198
20
85.844022
11
91.473393
21
81.402512
0
LINE
8
Layer 1
10
91.473393
20
81.402512
11
91.705097
21
76.990572
0
LINE
8
Layer 1
10
91.705097
20
76.990572
11
91.840417
21
72.545332
0
LINE
8
Layer 1
10
91.840417
20
72.545332
11
91.929139
21
70.703412
0
LINE
8
Layer 1
10
91.929139
20
70.703412
11
92.233092
21
64.082422
0
LINE
8
Layer 1
10
92.233092
20
64.082422
11
92.388410
21
59.997192
0
LINE
8
Layer 1
10
92.388410
20
59.997192
11
92.549689
21
55.563122
0
LINE
8
Layer 1
10
92.549689
20
55.563122
11
92.747030
21
49.270642
0
LINE
8
Layer 1
10
92.747030
20
49.270642
11
92.773627
21
48.667449
0
LINE
8
Layer 1
10
92.773627
20
48.667449
11
92.840231
21
47.777976
0
LINE
8
Layer 1
10
92.840231
20
47.777976
11
92.888104
21
44.856576
0
LINE
8
Layer 1
10
92.888104
20
44.856576
11
92.911509
21
43.955935
0
LINE
8
Layer 1
10
92.911509
20
43.955935
11
92.913202
21
45.471685
0
LINE
8
Layer 1
10
92.913202
20
45.471685
11
92.908732
21
51.342035
0
LINE
8
Layer 1
10
92.908732
20
51.342035
11
92.892882
21
55.427695
0
LINE
8
Layer 1
10
92.892882
20
55.427695
11
92.881924
21
58.718135
0
LINE
8
Layer 1
10
92.881924
20
58.718135
11
92.912948
21
61.983274
0
LINE
8
Layer 1
10
92.912948
20
61.983274
11
92.818308
21
65.216575
0
LINE
8
Layer 1
10
92.818308
20
65.216575
11
92.868733
21
66.854455
0
LINE
8
Layer 1
10
92.868733
20
66.854455
11
92.920543
21
68.124565
0
LINE
8
Layer 1
10
92.920543
20
68.124565
11
92.904691
21
70.276705
0
LINE
8
Layer 1
10
92.904691
20
70.276705
11
92.937775
21
73.952995
0
LINE
8
Layer 1
10
92.937775
20
73.952995
11
92.966393
21
75.016295
0
LINE
8
Layer 1
10
92.966393
20
75.016295
11
93.179559
21
74.181504
0
LINE
8
Layer 1
10
93.179559
20
74.181504
11
93.371822
21
73.279055
0
LINE
8
Layer 1
10
93.371822
20
73.279055
11
93.462565
21
75.672155
0
LINE
8
Layer 1
10
93.462565
20
75.672155
11
93.552142
21
78.458765
0
LINE
8
Layer 1
10
93.552142
20
78.458765
11
93.434667
21
78.368019
0
LINE
8
Layer 1
10
93.434667
20
78.368019
11
93.325969
21
78.399499
0
LINE
8
Layer 1
10
93.325969
20
78.399499
11
93.271714
21
79.361204
0
LINE
8
Layer 1
10
93.271714
20
79.361204
11
93.351928
21
81.917284
0
LINE
8
Layer 1
10
93.351928
20
81.917284
11
93.483726
21
86.289434
0
LINE
8
Layer 1
10
93.483726
20
86.289434
11
93.447883
21
87.734864
0
LINE
8
Layer 1
10
93.447883
20
87.734864
11
93.511051
21
90.955963
0
LINE
8
Layer 1
10
93.511051
20
90.955963
11
93.763523
21
94.167774
0
LINE
8
Layer 1
10
93.763523
20
94.167774
11
93.970459
21
96.091724
0
LINE
8
Layer 1
10
93.970459
20
96.091724
11
93.957034
21
98.026724
0
LINE
8
Layer 1
10
93.957034
20
98.026724
11
94.031823
21
100.550464
0
LINE
8
Layer 1
10
94.031823
20
100.550464
11
94.011291
21
103.051004
0
LINE
8
Layer 1
10
94.011291
20
103.051004
11
93.840651
21
104.981654
0
LINE
8
Layer 1
10
93.840651
20
104.981654
11
93.904801
21
105.582934
0
LINE
8
Layer 1
10
93.904801
20
105.582934
11
94.010016
21
106.476234
0
LINE
8
Layer 1
10
94.010016
20
106.476234
11
94.120760
21
107.631024
0
LINE
8
Layer 1
10
94.120760
20
107.631024
11
94.112674
21
108.884434
0
LINE
8
Layer 1
10
94.112674
20
108.884434
11
94.107995
21
108.991029
0
LINE
8
Layer 1
10
94.107995
20
108.991029
11
94.105655
21
109.044219
0
LINE
8
Layer 1
10
94.105655
20
109.044219
11
94.102889
21
109.069752
0
LINE
8
Layer 1
10
94.102889
20
109.069752
11
94.077887
21
109.080392
0
LINE
8
Layer 1
10
94.077887
20
109.080392
11
93.879375
21
109.165391
0
LINE
8
Layer 1
10
93.879375
20
109.165391
11
93.487992
21
109.335605
0
LINE
8
Layer 1
10
93.487992
20
109.335605
11
92.722987
21
109.678160
0
LINE
8
Layer 1
10
92.722987
20
109.678160
11
91.968833
21
110.024119
0
LINE
8
Layer 1
10
91.968833
20
110.024119
11
91.597449
21
110.199661
0
LINE
8
Layer 1
10
91.597449
20
110.199661
11
91.336811
21
110.331792
0
LINE
8
Layer 1
10
91.336811
20
110.331792
11
89.365631
21
111.441492
0
LINE
8
Layer 1
10
89.365631
20
111.441492
11
87.417641
21
112.365645
0
LINE
8
Layer 1
10
87.417641
20
112.365645
11
85.723127
21
113.060249
0
LINE
8
Layer 1
10
85.723127
20
113.060249
11
84.026461
21
113.770335
0
LINE
8
Layer 1
10
84.026461
20
113.770335
11
82.366825
21
114.521081
0
LINE
8
Layer 1
10
82.366825
20
114.521081
11
80.821121
21
115.384485
0
LINE
8
Layer 1
10
80.821121
20
115.384485
11
79.824841
21
115.865445
0
LINE
8
Layer 1
10
79.824841
20
115.865445
11
76.088616
21
117.509603
0
LINE
8
Layer 1
10
76.088616
20
117.509603
11
72.399701
21
119.221105
0
LINE
8
Layer 1
10
72.399701
20
119.221105
11
68.684990
21
120.938774
0
LINE
8
Layer 1
10
68.684990
20
120.938774
11
64.903491
21
122.540905
0
LINE
8
Layer 1
10
64.903491
20
122.540905
11
63.939869
21
123.038036
0
LINE
8
Layer 1
10
63.939869
20
123.038036
11
57.518029
21
126.012626
0
LINE
8
Layer 1
10
57.518029
20
126.012626
11
56.143559
21
126.599543
0
LINE
8
Layer 1
10
56.143559
20
126.599543
11
53.938559
21
127.633273
0
LINE
8
Layer 1
10
53.938559
20
127.633273
11
53.947494
21
131.199353
0
LINE
8
Layer 1
10
53.947494
20
131.199353
11
53.904314
21
133.140003
0
LINE
8
Layer 1
10
53.904314
20
133.140003
11
53.816230
21
137.578323
0
LINE
8
Layer 1
10
53.816230
20
137.578323
11
53.796017
21
145.620273
0
LINE
8
Layer 1
10
53.796017
20
145.620273
11
53.838464
21
151.447853
0
LINE
8
Layer 1
10
53.838464
20
151.447853
11
53.804168
21
154.219065
0
LINE
8
Layer 1
10
53.804168
20
154.219065
11
53.848144
21
156.992353
0
LINE
8
Layer 1
10
53.848144
20
156.992353
11
53.802825
21
157.812569
0
LINE
8
Layer 1
10
53.802825
20
157.812569
11
53.695790
21
159.318628
0
LINE
8
Layer 1
10
53.695790
20
159.318628
11
53.680592
21
160.838969
0
LINE
8
Layer 1
10
53.680592
20
160.838969
11
53.669075
21
162.488857
0
LINE
8
Layer 1
10
53.669075
20
162.488857
11
53.567717
21
164.140259
0
LINE
8
Layer 1
10
53.567717
20
164.140259
11
53.486228
21
164.780477
0
LINE
8
Layer 1
10
53.486228
20
164.780477
11
53.453992
21
165.101222
0
LINE
8
Layer 1
10
53.453992
20
165.101222
11
53.446866
21
165.181435
0
LINE
8
Layer 1
10
53.446866
20
165.181435
11
53.443463
21
165.221542
0
LINE
8
Layer 1
10
53.443463
20
165.221542
11
53.440056
21
165.233565
0
LINE
8
Layer 1
10
53.440056
20
165.233565
11
53.427074
21
165.258564
0
LINE
8
Layer 1
10
53.427074
20
165.258564
11
53.382074
21
165.473352
0
LINE
8
Layer 1
10
53.382074
20
165.473352
11
53.450105
21
165.643374
0
LINE
8
Layer 1
10
53.450105
20
165.643374
11
53.645159
21
165.655907
0
LINE
8
Layer 1
10
53.645159
20
165.655907
11
53.700161
21
165.705482
0
LINE
8
Layer 1
10
53.700161
20
165.705482
11
53.665798
21
165.972182
0
LINE
8
Layer 1
10
53.665798
20
165.972182
11
53.653244
21
166.076545
0
LINE
8
Layer 1
10
53.653244
20
166.076545
11
54.059948
21
165.903244
0
LINE
8
Layer 1
10
54.059948
20
165.903244
11
54.315269
21
165.782713
0
LINE
8
Layer 1
10
54.315269
20
165.782713
11
54.384524
21
165.749095
0
LINE
8
Layer 1
10
54.384524
20
165.749095
11
54.419951
21
165.731648
0
LINE
8
Layer 1
10
54.419951
20
165.731648
11
54.446014
21
165.717500
0
LINE
8
Layer 1
10
54.446014
20
165.717500
11
54.571227
21
165.638777
0
LINE
8
Layer 1
10
54.571227
20
165.638777
11
55.572297
21
165.008454
0
LINE
8
Layer 1
10
55.572297
20
165.008454
11
58.165817
21
163.413334
0
LINE
8
Layer 1
10
58.165817
20
163.413334
11
59.467780
21
162.577425
0
LINE
8
Layer 1
10
59.467780
20
162.577425
11
60.761697
21
161.856734
0
LINE
8
Layer 1
10
60.761697
20
161.856734
11
62.058657
21
161.041690
0
LINE
8
Layer 1
10
62.058657
20
161.041690
11
63.213837
21
160.158744
0
LINE
8
Layer 1
10
63.213837
20
160.158744
11
64.165755
21
159.606932
0
LINE
8
Layer 1
10
64.165755
20
159.606932
11
68.180135
21
157.240222
0
LINE
8
Layer 1
10
68.180135
20
157.240222
11
73.781015
21
153.651372
0
LINE
8
Layer 1
10
73.781015
20
153.651372
11
74.955703
21
152.874028
0
LINE
8
Layer 1
10
74.955703
20
152.874028
11
76.126245
21
152.191152
0
LINE
8
Layer 1
10
76.126245
20
152.191152
11
77.800802
21
151.293920
0
LINE
8
Layer 1
10
77.800802
20
151.293920
11
79.377215
21
150.233692
0
LINE
8
Layer 1
10
79.377215
20
150.233692
11
80.086366
21
149.810178
0
LINE
8
Layer 1
10
80.086366
20
149.810178
11
82.964466
21
148.189528
0
LINE
8
Layer 1
10
82.964466
20
148.189528
11
84.381388
21
147.336518
0
LINE
8
Layer 1
10
84.381388
20
147.336518
11
85.830866
21
146.591218
0
LINE
8
Layer 1
10
85.830866
20
146.591218
11
87.227859
21
145.726480
0
LINE
8
Layer 1
10
87.227859
20
145.726480
11
88.606416
21
144.808448
0
LINE
8
Layer 1
10
88.606416
20
144.808448
11
89.799616
21
144.135679
0
LINE
8
Layer 1
10
89.799616
20
144.135679
11
91.979148
21
143.028225
0
LINE
8
Layer 1
10
91.979148
20
143.028225
11
94.102826
21
141.739499
0
LINE
8
Layer 1
10
94.102826
20
141.739499
11
96.728376
21
140.215769
0
LINE
8
Layer 1
10
96.728376
20
140.215769
11
99.595186
21
138.587889
0
LINE
8
Layer 1
10
99.595186
20
138.587889
11
103.655206
21
136.265109
0
LINE
8
Layer 1
10
103.655206
20
136.265109
11
104.095314
21
136.120532
0
LINE
8
Layer 1
10
104.095314
20
136.120532
11
104.452551
21
136.438380
0
LINE
8
Layer 1
10
104.452551
20
136.438380
11
104.932667
21
136.195640
0
LINE
8
Layer 1
10
104.932667
20
136.195640
11
105.863391
21
135.615756
0
LINE
8
Layer 1
10
105.863391
20
135.615756
11
106.794277
21
135.081590
0
LINE
8
Layer 1
10
106.794277
20
135.081590
11
107.155816
21
134.926162
0
LINE
8
Layer 1
10
107.155816
20
134.926162
11
107.541087
21
135.006377
0
LINE
8
Layer 1
10
107.541087
20
135.006377
11
106.752000
21
135.852000
0
LINE
8
Layer 1
10
106.752000
20
135.852000
11
106.752000
21
135.852000
0
LINE
8
Layer 1
10
8.520790
20
139.000000
11
8.523449
21
139.003404
0
LINE
8
Layer 1
10
8.523449
20
139.003404
11
8.529832
21
139.008512
0
LINE
8
Layer 1
10
8.529832
20
139.008512
11
8.540895
21
139.003937
0
LINE
8
Layer 1
10
8.540895
20
139.003937
11
8.539408
21
138.996277
0
LINE
8
Layer 1
10
8.539408
20
138.996277
11
8.524831
21
138.998087
0
LINE
8
Layer 1
10
8.524831
20
138.998087
11
8.520790
21
139.000000
0
LINE
8
Layer 1
10
8.520790
20
139.000000
11
8.520790
21
139.000000
0
LINE
8
Layer 1
10
92.354400
20
65.662600
11
92.329505
21
65.938452
0
LINE
8
Layer 1
10
92.329505
20
65.938452
11
92.322484
21
67.314952
0
LINE
8
Layer 1
10
92.322484
20
67.314952
11
92.384186
21
66.093032
0
LINE
8
Layer 1
10
92.384186
20
66.093032
11
92.354400
21
65.662600
0
LINE
8
Layer 1
10
92.354400
20
65.662600
11
92.354400
21
65.662600
0
LINE
8
Layer 1
10
92.995044
20
88.237100
11
92.949829
21
88.296460
0
LINE
8
Layer 1
10
92.949829
20
88.296460
11
92.959405
21
89.015189
0
LINE
8
Layer 1
10
92.959405
20
89.015189
11
93.000364
21
88.946044
0
LINE
8
Layer 1
10
93.000364
20
88.946044
11
92.995044
21
88.237100
0
LINE
8
Layer 1
10
93.393541
20
99.383600
11
93.093327
21
96.798690
0
LINE
8
Layer 1
10
93.093327
20
96.798690
11
93.023751
21
96.699009
0
LINE
8
Layer 1
10
93.023751
20
96.699009
11
92.930561
21
97.186564
0
LINE
8
Layer 1
10
92.930561
20
97.186564
11
92.928538
21
97.594332
0
LINE
8
Layer 1
10
92.928538
20
97.594332
11
92.978539
21
100.074022
0
LINE
8
Layer 1
10
92.978539
20
100.074022
11
92.993512
21
100.942164
0
LINE
8
Layer 1
10
92.993512
20
100.942164
11
93.105028
21
101.242222
0
LINE
8
Layer 1
10
93.105028
20
101.242222
11
93.251733
21
100.964880
0
LINE
8
Layer 1
10
93.251733
20
100.964880
11
93.393600
21
99.383600
0
LINE
8
Layer 1
10
93.393600
20
99.383600
11
93.393541
21
99.383600
0
LINE
8
Layer 1
10
89.254581
20
110.639400
11
89.566391
21
110.668336
0
LINE
8
Layer 1
10
89.566391
20
110.668336
11
90.457566
21
110.311099
0
LINE
8
Layer 1
10
90.457566
20
110.311099
11
91.758846
21
109.771736
0
LINE
8
Layer 1
10
91.758846
20
109.771736
11
92.747574
21
109.308116
0
LINE
8
Layer 1
10
92.747574
20
109.308116
11
93.398429
21
108.995349
0
LINE
8
Layer 1
10
93.398429
20
108.995349
11
93.738964
21
108.830133
0
LINE
8
Layer 1
10
93.738964
20
108.830133
11
93.756092
21
108.792262
0
LINE
8
Layer 1
10
93.756092
20
108.792262
11
93.755245
21
108.742156
0
LINE
8
Layer 1
10
93.755245
20
108.742156
11
93.753332
21
108.642153
0
LINE
8
Layer 1
10
93.753332
20
108.642153
11
93.749395
21
108.442261
0
LINE
8
Layer 1
10
93.749395
20
108.442261
11
93.611628
21
108.108110
0
LINE
8
Layer 1
10
93.611628
20
108.108110
11
93.552265
21
108.401835
0
LINE
8
Layer 1
10
93.552265
20
108.401835
11
93.550572
21
108.565027
0
LINE
8
Layer 1
10
93.550572
20
108.565027
11
93.500359
21
108.695876
0
LINE
8
Layer 1
10
93.500359
20
108.695876
11
93.203442
21
108.827047
0
LINE
8
Layer 1
10
93.203442
20
108.827047
11
92.608653
21
109.090027
0
LINE
8
Layer 1
10
92.608653
20
109.090027
11
91.405773
21
109.617158
0
LINE
8
Layer 1
10
91.405773
20
109.617158
11
89.412353
21
110.501738
0
LINE
8
Layer 1
10
89.412353
20
110.501738
11
89.254600
21
110.639000
0
LINE
8
Layer 1
10
89.254600
20
110.639000
11
89.254581
21
110.639400
0
LINE
8
Layer 1
10
68.731700
20
162.135000
11
68.521806
21
162.180438
0
LINE
8
Layer 1
10
68.521806
20
162.180438
11
65.861796
21
164.005238
0
LINE
8
Layer 1
10
65.861796
20
164.005238
11
65.785624
21
164.158202
0
LINE
8
Layer 1
10
65.785624
20
164.158202
11
66.066689
21
164.213949
0
LINE
8
Layer 1
10
66.066689
20
164.213949
11
67.524679
21
163.329688
0
LINE
8
Layer 1
10
67.524679
20
163.329688
11
68.717879
21
162.390535
0
LINE
8
Layer 1
10
68.717879
20
162.390535
11
68.731700
21
162.135000
0
LINE
8
Layer 1
10
68.731700
20
162.135000
11
68.731700
21
162.135000
0
LINE
8
Layer 1
10
75.135350
20
156.963490
11
74.751943
21
157.037960
0
LINE
8
Layer 1
10
74.751943
20
157.037960
11
74.496730
21
157.200520
0
LINE
8
Layer 1
10
74.496730
20
157.200520
11
72.997150
21
158.269780
0
LINE
8
Layer 1
10
72.997150
20
158.269780
11
72.469502
21
158.640008
0
LINE
8
Layer 1
10
72.469502
20
158.640008
11
72.374063
21
158.901167
0
LINE
8
Layer 1
10
72.374063
20
158.901167
11
72.667255
21
158.973825
0
LINE
8
Layer 1
10
72.667255
20
158.973825
11
73.263456
21
158.848454
0
LINE
8
Layer 1
10
73.263456
20
158.848454
11
73.773325
21
158.521705
0
LINE
8
Layer 1
10
73.773325
20
158.521705
11
75.133225
21
157.095635
0
LINE
8
Layer 1
10
75.133225
20
157.095635
11
75.135400
21
156.963000
0
LINE
8
Layer 1
10
75.135400
20
156.963000
11
75.135350
21
156.963490
0
LINE
8
Layer 1
10
80.295800
20
153.461000
11
79.858139
21
153.766107
0
LINE
8
Layer 1
10
79.858139
20
153.766107
11
79.940587
21
153.798563
0
LINE
8
Layer 1
10
79.940587
20
153.798563
11
80.376758
21
153.504411
0
LINE
8
Layer 1
10
80.376758
20
153.504411
11
80.295800
21
153.461000
0
LINE
8
Layer 1
10
80.295800
20
153.461000
11
80.295800
21
153.461000
0
LINE
8
Layer 1
10
93.188100
20
142.857900
11
92.366608
21
143.468329
0
LINE
8
Layer 1
10
92.366608
20
143.468329
11
93.186398
21
143.065347
0
LINE
8
Layer 1
10
93.186398
20
143.065347
11
93.391187
21
142.794603
0
LINE
8
Layer 1
10
93.391187
20
142.794603
11
93.188100
21
142.858000
0
LINE
8
Layer 1
10
93.188100
20
142.858000
11
93.188100
21
142.857900
0
LINE
8
Layer 1
10
107.541000
20
135.006000
11
107.576320
21
134.960562
0
LINE
8
Layer 1
10
107.576320
20
134.960562
11
107.613661
21
134.945669
0
LINE
8
Layer 1
10
107.613661
20
134.945669
11
107.551425
21
135.012274
0
LINE
8
Layer 1
10
107.551425
20
135.012274
11
107.541000
21
135.006000
0
LINE
8
Layer 1
10
107.541000
20
135.006000
11
107.541000
21
135.006000
0
LINE
8
Layer 1
10
96.081100
20
144.000000
11
96.424612
21
143.949999
0
LINE
8
Layer 1
10
96.424612
20
143.949999
11
96.264186
21
144.275641
0
LINE
8
Layer 1
10
96.264186
20
144.275641
11
93.367256
21
146.342881
0
LINE
8
Layer 1
10
93.367256
20
146.342881
11
92.729537
21
146.641168
0
LINE
8
Layer 1
10
92.729537
20
146.641168
11
92.026396
21
146.371286
0
LINE
8
Layer 1
10
92.026396
20
146.371286
11
93.399461
21
145.733544
0
LINE
8
Layer 1
10
93.399461
20
145.733544
11
94.915986
21
144.725106
0
LINE
8
Layer 1
10
94.915986
20
144.725106
11
96.081100
21
144.000000
0
LINE
8
Layer 1
10
96.081100
20
144.000000
11
96.081100
21
144.000000
0
LINE
8
Layer 1
10
108.525000
20
134.338000
11
108.254253
21
134.668321
0
LINE
8
Layer 1
10
108.254253
20
134.668321
11
107.613293
21
134.946090
0
LINE
8
Layer 1
10
107.613293
20
134.946090
11
108.059678
21
134.479916
0
LINE
8
Layer 1
10
108.059678
20
134.479916
11
108.419585
21
134.250739
0
LINE
8
Layer 1
10
108.419585
20
134.250739
11
108.527011
21
134.248811
0
LINE
8
Layer 1
10
108.527011
20
134.248811
11
108.525000
21
134.338000
0
LINE
8
Layer 1
10
108.525000
20
134.338000
11
108.525000
21
134.338000
0
LINE
8
Layer 1
10
84.877000
20
151.998000
11
85.034979
21
151.961085
0
LINE
8
Layer 1
10
85.034979
20
151.961085
11
84.872851
21
152.111619
0
LINE
8
Layer 1
10
84.872851
20
152.111619
11
84.671466
21
152.212575
0
LINE
8
Layer 1
10
84.671466
20
152.212575
11
84.877000
21
151.998000
0
LINE
8
Layer 1
10
84.877000
20
151.998000
11
84.877000
21
151.998000
0
LINE
8
Layer 1
10
93.160100
20
65.363500
11
93.153081
21
63.514770
0
LINE
8
Layer 1
10
93.153081
20
63.514770
11
93.192654
21
63.090195
0
LINE
8
Layer 1
10
93.192654
20
63.090195
11
93.253614
21
63.511047
0
LINE
8
Layer 1
10
93.253614
20
63.511047
11
93.368196
21
68.302777
0
LINE
8
Layer 1
10
93.368196
20
68.302777
11
93.344379
21
69.242143
0
LINE
8
Layer 1
10
93.344379
20
69.242143
11
93.121173
21
69.836827
0
LINE
8
Layer 1
10
93.121173
20
69.836827
11
93.160100
21
65.363500
0
LINE
8
Layer 1
10
93.160100
20
65.363500
11
93.160100
21
65.363500
0
LINE
8
Layer 1
10
92.913100
20
43.710700
11
92.911610
21
43.951128
0
LINE
8
Layer 1
10
92.911610
20
43.951128
11
92.911398
21
43.955703
0
LINE
8
Layer 1
10
92.911398
20
43.955703
11
92.911291
21
43.884955
0
LINE
8
Layer 1
10
92.911291
20
43.884955
11
92.913100
21
43.710700
0
LINE
8
Layer 1
10
92.913100
20
43.710700
11
92.913100
21
43.710700
0
LINE
8
Layer 1
10
92.925700
20
42.355000
11
92.921749
21
42.903831
0
LINE
8
Layer 1
10
92.921749
20
42.903831
11
92.913133
21
43.710644
0
LINE
8
Layer 1
10
92.913133
20
43.710644
11
92.917930
21
42.984684
0
LINE
8
Layer 1
10
92.917930
20
42.984684
11
92.924766
21
42.410311
0
LINE
8
Layer 1
10
92.924766
20
42.410311
11
92.926380
21
42.287523
0
LINE
8
Layer 1
10
92.926380
20
42.287523
11
92.925700
21
42.355000
0
LINE
8
Layer 1
10
92.925700
20
42.355000
11
92.925700
21
42.355000
0
LINE
8
Layer 1
10
93.592400
20
82.048500
11
93.617718
21
81.843073
0
LINE
8
Layer 1
10
93.617718
20
81.843073
11
93.640485
21
82.136903
0
LINE
8
Layer 1
10
93.640485
20
82.136903
11
93.631454
21
82.438500
0
LINE
8
Layer 1
10
93.631454
20
82.438500
11
93.592400
21
82.048500
0
LINE
8
Layer 1
10
93.592400
20
82.048500
11
93.592400
21
82.048500
 0 
ENDSEC
 0 
EOF