999
"DXF R12 Output" (www.mydxf.blogspot.com)
 0 
SECTION
 2 
HEADER
 9 
$ACADVER
 1 
AC1009
 9 
$EXTMIN
 10 
 0 
 20 
 0 
 9 
$EXTMAX
 10 
 8.5 
 20 
 11 
 0 
ENDSEC
 0 
SECTION
 2 
ENTITIES
0
LINE
8
Layer 1
10
12.319500
20
126.247000
11
10.760560
21
127.668230
0
LINE
8
Layer 1
10
10.760560
20
127.668230
11
10.131408
21
128.271584
0
LINE
8
Layer 1
10
10.131408
20
128.271584
11
9.959919
21
128.381478
0
LINE
8
Layer 1
10
9.959919
20
128.381478
11
10.064386
21
128.203074
0
LINE
8
Layer 1
10
10.064386
20
128.203074
11
11.632156
21
126.572634
0
LINE
8
Layer 1
10
11.632156
20
126.572634
11
11.969694
21
126.285079
0
LINE
8
Layer 1
10
11.969694
20
126.285079
11
12.319500
21
126.247000
0
LINE
8
Layer 1
10
12.319500
20
126.247000
11
12.319500
21
126.247000
0
LINE
8
Layer 1
10
3.501690
20
134.848000
11
3.583286
21
134.772892
0
LINE
8
Layer 1
10
3.583286
20
134.772892
11
3.584776
21
134.771670
0
LINE
8
Layer 1
10
3.584776
20
134.771670
11
3.560731
21
134.794530
0
LINE
8
Layer 1
10
3.560731
20
134.794530
11
3.501690
21
134.848000
0
LINE
8
Layer 1
10
3.501690
20
134.848000
11
3.501690
21
134.848000
0
LINE
8
Layer 1
10
3.026900
20
135.280000
11
3.217645
21
135.105000
0
LINE
8
Layer 1
10
3.217645
20
135.105000
11
3.501690
21
134.848085
0
LINE
8
Layer 1
10
3.501690
20
134.848085
11
3.247860
21
135.081542
0
LINE
8
Layer 1
10
3.247860
20
135.081542
11
3.046502
21
135.262318
0
LINE
8
Layer 1
10
3.046502
20
135.262318
11
3.026900
21
135.280000
0
LINE
8
Layer 1
10
3.026900
20
135.280000
11
3.026900
21
135.280000
0
LINE
8
Layer 1
10
16.197500
20
121.967000
11
16.110477
21
122.015991
0
LINE
8
Layer 1
10
16.110477
20
122.015991
11
16.196329
21
121.905078
0
LINE
8
Layer 1
10
16.196329
20
121.905078
11
16.305586
21
121.813694
0
LINE
8
Layer 1
10
16.305586
20
121.813694
11
16.197500
21
121.967000
0
LINE
8
Layer 1
10
16.197500
20
121.967000
11
16.197500
21
121.967000
0
LINE
8
Layer 1
10
109.483000
20
135.253000
11
109.393849
21
135.347787
0
LINE
8
Layer 1
10
109.393849
20
135.347787
11
109.036838
21
135.727311
0
LINE
8
Layer 1
10
109.036838
20
135.727311
11
107.600768
21
137.253381
0
LINE
8
Layer 1
10
107.600768
20
137.253381
11
104.848098
21
140.170251
0
LINE
8
Layer 1
10
104.848098
20
140.170251
11
101.499248
21
143.781121
0
LINE
8
Layer 1
10
101.499248
20
143.781121
11
87.331848
21
158.923421
0
LINE
8
Layer 1
10
87.331848
20
158.923421
11
72.337700
21
174.687000
0
LINE
8
Layer 1
10
72.337700
20
174.687000
11
68.561720
21
178.606860
0
LINE
8
Layer 1
10
68.561720
20
178.606860
11
67.443500
21
179.801000
0
LINE
8
Layer 1
10
67.443500
20
179.801000
11
66.883176
21
180.397121
0
LINE
8
Layer 1
10
66.883176
20
180.397121
11
65.969700
21
181.352000
0
LINE
8
Layer 1
10
65.969700
20
181.352000
11
61.465850
21
186.025310
0
LINE
8
Layer 1
10
61.465850
20
186.025310
11
56.902420
21
190.752200
0
LINE
8
Layer 1
10
56.902420
20
190.752200
11
54.605200
21
193.128000
0
LINE
8
Layer 1
10
54.605200
20
193.128000
11
53.454020
21
194.317310
0
LINE
8
Layer 1
10
53.454020
20
194.317310
11
53.166100
21
194.615000
0
LINE
8
Layer 1
10
53.166100
20
194.615000
11
53.021952
21
194.763731
0
LINE
8
Layer 1
10
53.021952
20
194.763731
11
52.985994
21
194.800914
0
LINE
8
Layer 1
10
52.985994
20
194.800914
11
52.968014
21
194.819540
0
LINE
8
Layer 1
10
52.968014
20
194.819540
11
52.956632
21
194.821668
0
LINE
8
Layer 1
10
52.956632
20
194.821668
11
52.954611
21
194.722146
0
LINE
8
Layer 1
10
52.954611
20
194.722146
11
52.938973
21
193.925600
0
LINE
8
Layer 1
10
52.938973
20
193.925600
11
52.817900
21
187.522550
0
LINE
8
Layer 1
10
52.817900
20
187.522550
11
52.788645
21
185.914990
0
LINE
8
Layer 1
10
52.788645
20
185.914990
11
52.769389
21
184.284660
0
LINE
8
Layer 1
10
52.769389
20
184.284660
11
52.771729
21
180.932040
0
LINE
8
Layer 1
10
52.771729
20
180.932040
11
52.792156
21
171.290550
0
LINE
8
Layer 1
10
52.792156
20
171.290550
11
53.242263
21
127.729350
0
LINE
8
Layer 1
10
53.242263
20
127.729350
11
53.894927
21
101.528450
0
LINE
8
Layer 1
10
53.894927
20
101.528450
11
54.164395
21
92.468250
0
LINE
8
Layer 1
10
54.164395
20
92.468250
11
51.120765
21
95.240290
0
LINE
8
Layer 1
10
51.120765
20
95.240290
11
48.405435
21
97.758070
0
LINE
8
Layer 1
10
48.405435
20
97.758070
11
45.791165
21
100.120850
0
LINE
8
Layer 1
10
45.791165
20
100.120850
11
45.373824
21
100.437768
0
LINE
8
Layer 1
10
45.373824
20
100.437768
11
44.593274
21
101.004590
0
LINE
8
Layer 1
10
44.593274
20
101.004590
11
43.863074
21
101.638358
0
LINE
8
Layer 1
10
43.863074
20
101.638358
11
43.073459
21
102.328965
0
LINE
8
Layer 1
10
43.073459
20
102.328965
11
42.226154
21
102.959638
0
LINE
8
Layer 1
10
42.226154
20
102.959638
11
40.899409
21
103.924995
0
LINE
8
Layer 1
10
40.899409
20
103.924995
11
39.837954
21
105.176188
0
LINE
8
Layer 1
10
39.837954
20
105.176188
11
39.362207
21
105.659917
0
LINE
8
Layer 1
10
39.362207
20
105.659917
11
38.284437
21
106.573805
0
LINE
8
Layer 1
10
38.284437
20
106.573805
11
33.287387
21
110.772285
0
LINE
8
Layer 1
10
33.287387
20
110.772285
11
31.782697
21
111.995695
0
LINE
8
Layer 1
10
31.782697
20
111.995695
11
30.269607
21
113.192615
0
LINE
8
Layer 1
10
30.269607
20
113.192615
11
29.518819
21
113.814917
0
LINE
8
Layer 1
10
29.518819
20
113.814917
11
28.872477
21
114.472245
0
LINE
8
Layer 1
10
28.872477
20
114.472245
11
28.313960
21
114.897726
0
LINE
8
Layer 1
10
28.313960
20
114.897726
11
25.965230
21
116.718686
0
LINE
8
Layer 1
10
25.965230
20
116.718686
11
22.717340
21
119.435076
0
LINE
8
Layer 1
10
22.717340
20
119.435076
11
21.351390
21
120.544866
0
LINE
8
Layer 1
10
21.351390
20
120.544866
11
19.453510
21
122.044606
0
LINE
8
Layer 1
10
19.453510
20
122.044606
11
19.039572
21
122.370087
0
LINE
8
Layer 1
10
19.039572
20
122.370087
11
17.361372
21
123.643177
0
LINE
8
Layer 1
10
17.361372
20
123.643177
11
15.697532
21
124.911107
0
LINE
8
Layer 1
10
15.697532
20
124.911107
11
14.085292
21
126.256537
0
LINE
8
Layer 1
10
14.085292
20
126.256537
11
13.395928
21
126.791486
0
LINE
8
Layer 1
10
13.395928
20
126.791486
11
10.927828
21
128.724846
0
LINE
8
Layer 1
10
10.927828
20
128.724846
11
9.426548
21
129.940706
0
LINE
8
Layer 1
10
9.426548
20
129.940706
11
7.800368
21
131.263686
0
LINE
8
Layer 1
10
7.800368
20
131.263686
11
5.514288
21
133.164286
0
LINE
8
Layer 1
10
5.514288
20
133.164286
11
5.290246
21
133.341149
0
LINE
8
Layer 1
10
5.290246
20
133.341149
11
4.941733
21
133.583013
0
LINE
8
Layer 1
10
4.941733
20
133.583013
11
3.908963
21
134.495679
0
LINE
8
Layer 1
10
3.908963
20
134.495679
11
3.584814
21
134.771212
0
LINE
8
Layer 1
10
3.584814
20
134.771212
11
4.103434
21
134.279186
0
LINE
8
Layer 1
10
4.103434
20
134.279186
11
6.118654
21
132.381676
0
LINE
8
Layer 1
10
6.118654
20
132.381676
11
7.529514
21
131.069966
0
LINE
8
Layer 1
10
7.529514
20
131.069966
11
8.664624
21
130.012246
0
LINE
8
Layer 1
10
8.664624
20
130.012246
11
10.933784
21
127.952346
0
LINE
8
Layer 1
10
10.933784
20
127.952346
11
11.462298
21
127.387182
0
LINE
8
Layer 1
10
11.462298
20
127.387182
11
11.863683
21
126.940159
0
LINE
8
Layer 1
10
11.863683
20
126.940159
11
12.611879
21
126.254360
0
LINE
8
Layer 1
10
12.611879
20
126.254360
11
13.850399
21
125.041270
0
LINE
8
Layer 1
10
13.850399
20
125.041270
11
14.196144
21
124.677173
0
LINE
8
Layer 1
10
14.196144
20
124.677173
11
13.770665
21
124.799905
0
LINE
8
Layer 1
10
13.770665
20
124.799905
11
13.335610
21
124.958983
0
LINE
8
Layer 1
10
13.335610
20
124.958983
11
14.096571
21
124.121371
0
LINE
8
Layer 1
10
14.096571
20
124.121371
11
14.993278
21
123.157219
0
LINE
8
Layer 1
10
14.993278
20
123.157219
11
15.120842
21
123.332964
0
LINE
8
Layer 1
10
15.120842
20
123.332964
11
15.485950
21
123.059132
0
LINE
8
Layer 1
10
15.485950
20
123.059132
11
16.309677
21
122.176096
0
LINE
8
Layer 1
10
16.309677
20
122.176096
11
17.722237
21
120.669336
0
LINE
8
Layer 1
10
17.722237
20
120.669336
11
18.241176
21
120.226247
0
LINE
8
Layer 1
10
18.241176
20
120.226247
11
19.308382
21
119.134577
0
LINE
8
Layer 1
10
19.308382
20
119.134577
11
20.239916
21
117.925067
0
LINE
8
Layer 1
10
20.239916
20
117.925067
11
20.758949
21
117.165005
0
LINE
8
Layer 1
10
20.758949
20
117.165005
11
21.436196
21
116.541767
0
LINE
8
Layer 1
10
21.436196
20
116.541767
11
22.252382
21
115.672879
0
LINE
8
Layer 1
10
22.252382
20
115.672879
11
23.122918
21
114.877555
0
LINE
8
Layer 1
10
23.122918
20
114.877555
11
23.896328
21
114.370639
0
LINE
8
Layer 1
10
23.896328
20
114.370639
11
24.259627
21
113.805631
0
LINE
8
Layer 1
10
24.259627
20
113.805631
11
24.751540
21
113.137702
0
LINE
8
Layer 1
10
24.751540
20
113.137702
11
25.509127
21
112.320132
0
LINE
8
Layer 1
10
25.509127
20
112.320132
11
26.126010
21
111.391792
0
LINE
8
Layer 1
10
26.126010
20
111.391792
11
26.800481
21
110.626787
0
LINE
8
Layer 1
10
26.800481
20
110.626787
11
27.438423
21
110.044728
0
LINE
8
Layer 1
10
27.438423
20
110.044728
11
28.070381
21
109.450827
0
LINE
8
Layer 1
10
28.070381
20
109.450827
11
28.662125
21
108.826980
0
LINE
8
Layer 1
10
28.662125
20
108.826980
11
29.136021
21
108.120557
0
LINE
8
Layer 1
10
29.136021
20
108.120557
11
29.477086
21
107.723002
0
LINE
8
Layer 1
10
29.477086
20
107.723002
11
30.830751
21
106.353635
0
LINE
8
Layer 1
10
30.830751
20
106.353635
11
32.125936
21
104.934322
0
LINE
8
Layer 1
10
32.125936
20
104.934322
11
33.432921
21
103.509573
0
LINE
8
Layer 1
10
33.432921
20
103.509573
11
34.832226
21
102.170952
0
LINE
8
Layer 1
10
34.832226
20
102.170952
11
35.147016
21
101.762012
0
LINE
8
Layer 1
10
35.147016
20
101.762012
11
37.403946
21
99.294922
0
LINE
8
Layer 1
10
37.403946
20
99.294922
11
37.910439
21
98.804815
0
LINE
8
Layer 1
10
37.910439
20
98.804815
11
42.623019
21
93.573405
0
LINE
8
Layer 1
10
42.623019
20
93.573405
11
47.677409
21
88.159225
0
LINE
8
Layer 1
10
47.677409
20
88.159225
11
52.504249
21
83.216595
0
LINE
8
Layer 1
10
52.504249
20
83.216595
11
47.672099
21
77.964655
0
LINE
8
Layer 1
10
47.672099
20
77.964655
11
44.349849
21
74.330805
0
LINE
8
Layer 1
10
44.349849
20
74.330805
11
39.812059
21
69.318705
0
LINE
8
Layer 1
10
39.812059
20
69.318705
11
38.825563
21
68.227055
0
LINE
8
Layer 1
10
38.825563
20
68.227055
11
34.911823
21
63.841975
0
LINE
8
Layer 1
10
34.911823
20
63.841975
11
31.020843
21
59.489295
0
LINE
8
Layer 1
10
31.020843
20
59.489295
11
27.033273
21
55.168635
0
LINE
8
Layer 1
10
27.033273
20
55.168635
11
25.403263
21
53.356715
0
LINE
8
Layer 1
10
25.403263
20
53.356715
11
19.534000
21
46.853700
0
LINE
8
Layer 1
10
19.534000
20
46.853700
11
15.890470
21
42.862450
0
LINE
8
Layer 1
10
15.890470
20
42.862450
11
11.930770
21
38.535250
0
LINE
8
Layer 1
10
11.930770
20
38.535250
11
6.290110
21
32.415300
0
LINE
8
Layer 1
10
6.290110
20
32.415300
11
5.754681
21
31.823593
0
LINE
8
Layer 1
10
5.754681
20
31.823593
11
4.983825
21
30.932844
0
LINE
8
Layer 1
10
4.983825
20
30.932844
11
2.335085
21
28.120504
0
LINE
8
Layer 1
10
2.335085
20
28.120504
11
1.522526
21
27.245926
0
LINE
8
Layer 1
10
1.522526
20
27.245926
11
2.916786
21
28.689446
0
LINE
8
Layer 1
10
2.916786
20
28.689446
11
8.302346
21
34.280056
0
LINE
8
Layer 1
10
8.302346
20
34.280056
11
12.041726
21
38.179486
0
LINE
8
Layer 1
10
12.041726
20
38.179486
11
15.054616
21
41.318806
0
LINE
8
Layer 1
10
15.054616
20
41.318806
11
18.072983
21
44.406211
0
LINE
8
Layer 1
10
18.072983
20
44.406211
11
20.976136
21
47.546386
0
LINE
8
Layer 1
10
20.976136
20
47.546386
11
22.514126
21
49.072136
0
LINE
8
Layer 1
10
22.514126
20
49.072136
11
23.715406
21
50.246716
0
LINE
8
Layer 1
10
23.715406
20
50.246716
11
25.680096
21
52.305766
0
LINE
8
Layer 1
10
25.680096
20
52.305766
11
29.077346
21
55.783226
0
LINE
8
Layer 1
10
29.077346
20
55.783226
11
30.072991
21
56.776365
0
LINE
8
Layer 1
10
30.072991
20
56.776365
11
29.452799
21
55.840927
0
LINE
8
Layer 1
10
29.452799
20
55.840927
11
28.756171
21
54.854865
0
LINE
8
Layer 1
10
28.756171
20
54.854865
11
31.015121
21
57.072745
0
LINE
8
Layer 1
10
31.015121
20
57.072745
11
33.634281
21
59.665955
0
LINE
8
Layer 1
10
33.634281
20
59.665955
11
33.470596
21
59.657264
0
LINE
8
Layer 1
10
33.470596
20
59.657264
11
33.424917
21
59.759040
0
LINE
8
Layer 1
10
33.424917
20
59.759040
11
34.270559
21
60.710374
0
LINE
8
Layer 1
10
34.270559
20
60.710374
11
36.671739
21
63.090274
0
LINE
8
Layer 1
10
36.671739
20
63.090274
11
40.775369
21
67.164814
0
LINE
8
Layer 1
10
40.775369
20
67.164814
11
42.077609
21
68.564394
0
LINE
8
Layer 1
10
42.077609
20
68.564394
11
45.140055
21
71.648888
0
LINE
8
Layer 1
10
45.140055
20
71.648888
11
48.198909
21
74.478944
0
LINE
8
Layer 1
10
48.198909
20
74.478944
11
50.109287
21
76.175939
0
LINE
8
Layer 1
10
50.109287
20
76.175939
11
51.873719
21
78.024214
0
LINE
8
Layer 1
10
51.873719
20
78.024214
11
54.241709
21
80.377044
0
LINE
8
Layer 1
10
54.241709
20
80.377044
11
54.516593
21
80.628749
0
LINE
8
Layer 1
10
54.516593
20
80.628749
11
54.644253
21
76.336119
0
LINE
8
Layer 1
10
54.644253
20
76.336119
11
55.352131
21
51.116519
0
LINE
8
Layer 1
10
55.352131
20
51.116519
11
55.751069
21
35.286719
0
LINE
8
Layer 1
10
55.751069
20
35.286719
11
56.462243
21
12.590319
0
LINE
8
Layer 1
10
56.462243
20
12.590319
11
56.845754
21
2.422619
0
LINE
8
Layer 1
10
56.845754
20
2.422619
11
56.901339
21
0.000549
0
LINE
8
Layer 1
10
56.901339
20
0.000549
11
56.936181
21
3.298580
0
LINE
8
Layer 1
10
56.936181
20
3.298580
11
57.101182
21
11.106920
0
LINE
8
Layer 1
10
57.101182
20
11.106920
11
57.574587
21
31.278220
0
LINE
8
Layer 1
10
57.574587
20
31.278220
11
58.228845
21
55.908820
0
LINE
8
Layer 1
10
58.228845
20
55.908820
11
58.875133
21
76.850320
0
LINE
8
Layer 1
10
58.875133
20
76.850320
11
61.171533
21
74.708820
0
LINE
8
Layer 1
10
61.171533
20
74.708820
11
72.772633
21
64.370820
0
LINE
8
Layer 1
10
72.772633
20
64.370820
11
80.012773
21
58.430580
0
LINE
8
Layer 1
10
80.012773
20
58.430580
11
87.057803
21
52.807460
0
LINE
8
Layer 1
10
87.057803
20
52.807460
11
94.081353
21
47.147500
0
LINE
8
Layer 1
10
94.081353
20
47.147500
11
98.458823
21
43.561950
0
LINE
8
Layer 1
10
98.458823
20
43.561950
11
104.830553
21
38.522140
0
LINE
8
Layer 1
10
104.830553
20
38.522140
11
107.729613
21
36.311600
0
LINE
8
Layer 1
10
107.729613
20
36.311600
11
108.395640
21
35.759005
0
LINE
8
Layer 1
10
108.395640
20
35.759005
11
107.564612
21
36.591762
0
LINE
8
Layer 1
10
107.564612
20
36.591762
11
105.653862
21
38.623482
0
LINE
8
Layer 1
10
105.653862
20
38.623482
11
100.750002
21
43.906172
0
LINE
8
Layer 1
10
100.750002
20
43.906172
11
94.814332
21
50.412212
0
LINE
8
Layer 1
10
94.814332
20
50.412212
11
88.125000
21
57.923100
0
LINE
8
Layer 1
10
88.125000
20
57.923100
11
83.542840
21
63.062490
0
LINE
8
Layer 1
10
83.542840
20
63.062490
11
80.710490
21
66.214850
0
LINE
8
Layer 1
10
80.710490
20
66.214850
11
76.903240
21
70.387160
0
LINE
8
Layer 1
10
76.903240
20
70.387160
11
73.733650
21
73.711640
0
LINE
8
Layer 1
10
73.733650
20
73.711640
11
70.684700
21
76.901600
0
LINE
8
Layer 1
10
70.684700
20
76.901600
11
60.504600
21
86.731860
0
LINE
8
Layer 1
10
60.504600
20
86.731860
11
61.259073
21
87.470745
0
LINE
8
Layer 1
10
61.259073
20
87.470745
11
63.454087
21
89.642625
0
LINE
8
Layer 1
10
63.454087
20
89.642625
11
65.772503
21
91.682255
0
LINE
8
Layer 1
10
65.772503
20
91.682255
11
67.816663
21
93.667855
0
LINE
8
Layer 1
10
67.816663
20
93.667855
11
69.486924
21
95.421317
0
LINE
8
Layer 1
10
69.486924
20
95.421317
11
71.173693
21
97.173505
0
LINE
8
Layer 1
10
71.173693
20
97.173505
11
72.879083
21
98.873944
0
LINE
8
Layer 1
10
72.879083
20
98.873944
11
74.629563
21
100.418045
0
LINE
8
Layer 1
10
74.629563
20
100.418045
11
75.683183
21
101.431565
0
LINE
8
Layer 1
10
75.683183
20
101.431565
11
79.477134
21
105.270665
0
LINE
8
Layer 1
10
79.477134
20
105.270665
11
83.310033
21
109.039955
0
LINE
8
Layer 1
10
83.310033
20
109.039955
11
87.163948
21
112.836922
0
LINE
8
Layer 1
10
87.163948
20
112.836922
11
90.942623
21
116.737495
0
LINE
8
Layer 1
10
90.942623
20
116.737495
11
91.993263
21
117.710052
0
LINE
8
Layer 1
10
91.993263
20
117.710052
11
98.660953
21
124.272962
0
LINE
8
Layer 1
10
98.660953
20
124.272962
11
100.038943
21
125.689562
0
LINE
8
Layer 1
10
100.038943
20
125.689562
11
103.558963
21
129.130272
0
LINE
8
Layer 1
10
103.558963
20
129.130272
11
104.438649
21
129.990485
0
LINE
8
Layer 1
10
104.438649
20
129.990485
11
104.882584
21
130.424850
0
LINE
8
Layer 1
10
104.882584
20
130.424850
11
105.628866
21
131.172566
0
LINE
8
Layer 1
10
105.628866
20
131.172566
11
107.131006
21
132.677736
0
LINE
8
Layer 1
10
107.131006
20
132.677736
11
108.578136
21
134.199926
0
LINE
8
Layer 1
10
108.578136
20
134.199926
11
109.303991
21
134.966046
0
LINE
8
Layer 1
10
109.303991
20
134.966046
11
109.485801
21
135.158070
0
LINE
8
Layer 1
10
109.485801
20
135.158070
11
109.527928
21
135.206101
0
LINE
8
Layer 1
10
109.527928
20
135.206101
11
109.483000
21
135.253000
0
LINE
8
Layer 1
10
11.518000
20
127.969000
11
11.389914
21
128.128949
0
LINE
8
Layer 1
10
11.389914
20
128.128949
11
11.500768
21
128.056926
0
LINE
8
Layer 1
10
11.500768
20
128.056926
11
11.977258
21
127.616126
0
LINE
8
Layer 1
10
11.977258
20
127.616126
11
11.518000
21
127.969000
0
LINE
8
Layer 1
10
11.518000
20
127.969000
11
11.518000
21
127.969000
0
LINE
8
Layer 1
10
18.948890
20
120.143750
11
18.709315
21
120.376942
0
LINE
8
Layer 1
10
18.709315
20
120.376942
11
18.759209
21
120.389018
0
LINE
8
Layer 1
10
18.759209
20
120.389018
11
18.999315
21
120.149694
0
LINE
8
Layer 1
10
18.999315
20
120.149694
11
18.948900
21
120.144000
0
LINE
8
Layer 1
10
18.948900
20
120.144000
11
18.948890
21
120.143750
0
LINE
8
Layer 1
10
23.095400
20
116.090330
11
22.904443
21
116.078575
0
LINE
8
Layer 1
10
22.904443
20
116.078575
11
22.269652
21
116.492352
0
LINE
8
Layer 1
10
22.269652
20
116.492352
11
21.579859
21
117.537093
0
LINE
8
Layer 1
10
21.579859
20
117.537093
11
21.591148
21
117.617464
0
LINE
8
Layer 1
10
21.591148
20
117.617464
11
21.960404
21
117.393580
0
LINE
8
Layer 1
10
21.960404
20
117.393580
11
22.777643
21
116.556131
0
LINE
8
Layer 1
10
22.777643
20
116.556131
11
23.065393
21
116.264891
0
LINE
8
Layer 1
10
23.065393
20
116.264891
11
23.095400
21
116.090000
0
LINE
8
Layer 1
10
23.095400
20
116.090000
11
23.095400
21
116.090330
0
LINE
8
Layer 1
10
26.566060
20
112.000680
11
26.374996
21
111.988127
0
LINE
8
Layer 1
10
26.374996
20
111.988127
11
25.573184
21
112.716110
0
LINE
8
Layer 1
10
25.573184
20
112.716110
11
24.949564
21
113.455422
0
LINE
8
Layer 1
10
24.949564
20
113.455422
11
24.977329
21
113.624730
0
LINE
8
Layer 1
10
24.977329
20
113.624730
11
25.104670
21
113.574040
0
LINE
8
Layer 1
10
25.104670
20
113.574040
11
26.540950
21
112.110570
0
LINE
8
Layer 1
10
26.540950
20
112.110570
11
26.566100
21
112.001000
0
LINE
8
Layer 1
10
26.566100
20
112.001000
11
26.566060
21
112.000680
0
LINE
8
Layer 1
10
21.483400
20
48.667800
11
21.067868
21
48.277693
0
LINE
8
Layer 1
10
21.067868
20
48.277693
11
21.304037
21
48.556737
0
LINE
8
Layer 1
10
21.304037
20
48.556737
11
22.562767
21
49.871737
0
LINE
8
Layer 1
10
22.562767
20
49.871737
11
21.483400
21
48.667800
0
LINE
8
Layer 1
10
21.483400
20
48.667800
11
21.483400
21
48.667800
0
LINE
8
Layer 1
10
42.883000
20
70.013200
11
42.228634
21
69.341921
0
LINE
8
Layer 1
10
42.228634
20
69.341921
11
42.252143
21
69.428303
0
LINE
8
Layer 1
10
42.252143
20
69.428303
11
42.918424
21
70.106124
0
LINE
8
Layer 1
10
42.918424
20
70.106124
11
42.883000
21
70.013200
0
LINE
8
Layer 1
10
42.883000
20
70.013200
11
42.883000
21
70.013200
0
LINE
8
Layer 1
10
60.830000
20
174.939000
11
60.839031
21
174.937245
0
LINE
8
Layer 1
10
60.839031
20
174.937245
11
60.830000
21
174.939000
0
LINE
8
Layer 1
10
60.830000
20
174.939000
11
60.830000
21
174.939000
0
LINE
8
Layer 1
10
52.733400
20
79.688400
11
50.154880
21
77.426420
0
LINE
8
Layer 1
10
50.154880
20
77.426420
11
50.015730
21
77.377486
0
LINE
8
Layer 1
10
50.015730
20
77.377486
11
50.399349
21
77.903126
0
LINE
8
Layer 1
10
50.399349
20
77.903126
11
50.772224
21
78.292649
0
LINE
8
Layer 1
10
50.772224
20
78.292649
11
53.082664
21
80.619849
0
LINE
8
Layer 1
10
53.082664
20
80.619849
11
54.122134
21
81.619003
0
LINE
8
Layer 1
10
54.122134
20
81.619003
11
54.213292
21
81.526397
0
LINE
8
Layer 1
10
54.213292
20
81.526397
11
54.087652
21
81.287248
0
LINE
8
Layer 1
10
54.087652
20
81.287248
11
52.733400
21
79.688400
0
LINE
8
Layer 1
10
52.733400
20
79.688400
11
52.733400
21
79.688400
0
LINE
8
Layer 1
10
64.892700
20
91.640800
11
62.800020
21
89.440030
0
LINE
8
Layer 1
10
62.800020
20
89.440030
11
60.850540
21
87.575820
0
LINE
8
Layer 1
10
60.850540
20
87.575820
11
60.561178
21
87.480553
0
LINE
8
Layer 1
10
60.561178
20
87.480553
11
60.772774
21
87.772895
0
LINE
8
Layer 1
10
60.772774
20
87.772895
11
64.817794
21
91.855465
0
LINE
8
Layer 1
10
64.817794
20
91.855465
11
65.045350
21
92.001156
0
LINE
8
Layer 1
10
65.045350
20
92.001156
11
64.892700
21
91.640800
0
LINE
8
Layer 1
10
64.892700
20
91.640800
11
64.892700
21
91.640800
0
LINE
8
Layer 1
10
100.508000
20
134.957000
11
100.475446
21
134.910617
0
LINE
8
Layer 1
10
100.475446
20
134.910617
11
100.414807
21
134.881681
0
LINE
8
Layer 1
10
100.414807
20
134.881681
11
100.354062
21
134.852160
0
LINE
8
Layer 1
10
100.354062
20
134.852160
11
100.324807
21
134.835884
0
LINE
8
Layer 1
10
100.324807
20
134.835884
11
100.310552
21
134.827107
0
LINE
8
Layer 1
10
100.310552
20
134.827107
11
100.303423
21
134.822533
0
LINE
8
Layer 1
10
100.303423
20
134.822533
11
100.251508
21
134.766043
0
LINE
8
Layer 1
10
100.251508
20
134.766043
11
98.239678
21
132.621982
0
LINE
8
Layer 1
10
98.239678
20
132.621982
11
96.286168
21
130.418693
0
LINE
8
Layer 1
10
96.286168
20
130.418693
11
93.265642
21
126.985175
0
LINE
8
Layer 1
10
93.265642
20
126.985175
11
89.963578
21
123.821473
0
LINE
8
Layer 1
10
89.963578
20
123.821473
11
88.625488
21
122.470033
0
LINE
8
Layer 1
10
88.625488
20
122.470033
11
85.933000
21
119.569000
0
LINE
8
Layer 1
10
85.933000
20
119.569000
11
73.521000
21
106.152400
0
LINE
8
Layer 1
10
73.521000
20
106.152400
11
69.859490
21
102.148550
0
LINE
8
Layer 1
10
69.859490
20
102.148550
11
66.239580
21
98.151670
0
LINE
8
Layer 1
10
66.239580
20
98.151670
11
64.390542
21
96.143362
0
LINE
8
Layer 1
10
64.390542
20
96.143362
11
62.572540
21
94.307240
0
LINE
8
Layer 1
10
62.572540
20
94.307240
11
61.266680
21
92.846330
0
LINE
8
Layer 1
10
61.266680
20
92.846330
11
59.299330
21
90.637280
0
LINE
8
Layer 1
10
59.299330
20
90.637280
11
59.686141
21
103.251080
0
LINE
8
Layer 1
10
59.686141
20
103.251080
11
60.033164
21
115.096480
0
LINE
8
Layer 1
10
60.033164
20
115.096480
11
60.452210
21
130.893580
0
LINE
8
Layer 1
10
60.452210
20
130.893580
11
60.692742
21
143.757880
0
LINE
8
Layer 1
10
60.692742
20
143.757880
11
60.918381
21
156.117380
0
LINE
8
Layer 1
10
60.918381
20
156.117380
11
61.002954
21
168.494080
0
LINE
8
Layer 1
10
61.002954
20
168.494080
11
61.029977
21
174.682460
0
LINE
8
Layer 1
10
61.029977
20
174.682460
11
61.030000
21
174.690000
0
LINE
8
Layer 1
10
61.030000
20
174.690000
11
61.940005
21
173.760208
0
LINE
8
Layer 1
10
61.940005
20
173.760208
11
64.104165
21
171.548868
0
LINE
8
Layer 1
10
64.104165
20
171.548868
11
68.434900
21
167.128000
0
LINE
8
Layer 1
10
68.434900
20
167.128000
11
70.890130
21
164.692670
0
LINE
8
Layer 1
10
70.890130
20
164.692670
11
76.499200
21
159.116840
0
LINE
8
Layer 1
10
76.499200
20
159.116840
11
86.590000
21
148.941340
0
LINE
8
Layer 1
10
86.590000
20
148.941340
11
93.877820
21
141.543220
0
LINE
8
Layer 1
10
93.877820
20
141.543220
11
97.384110
21
138.065490
0
LINE
8
Layer 1
10
97.384110
20
138.065490
11
99.129550
21
136.317720
0
LINE
8
Layer 1
10
99.129550
20
136.317720
11
99.991256
21
135.431918
0
LINE
8
Layer 1
10
99.991256
20
135.431918
11
100.205299
21
135.208991
0
LINE
8
Layer 1
10
100.205299
20
135.208991
11
100.232003
21
135.181119
0
LINE
8
Layer 1
10
100.232003
20
135.181119
11
100.235937
21
135.176276
0
LINE
8
Layer 1
10
100.235937
20
135.176276
11
100.237853
21
135.172395
0
LINE
8
Layer 1
10
100.237853
20
135.172395
11
100.241576
21
135.164736
0
LINE
8
Layer 1
10
100.241576
20
135.164736
11
100.251789
21
135.134202
0
LINE
8
Layer 1
10
100.251789
20
135.134202
11
100.358810
21
135.098191
0
LINE
8
Layer 1
10
100.358810
20
135.098191
11
100.532642
21
135.044786
0
LINE
8
Layer 1
10
100.532642
20
135.044786
11
100.508000
21
134.957000
0
LINE
8
Layer 1
10
100.508000
20
134.957000
11
100.508000
21
134.957000
0
LINE
8
Layer 1
10
19.643600
20
45.705300
11
19.281151
21
45.275086
0
LINE
8
Layer 1
10
19.281151
20
45.275086
11
19.709239
21
45.635407
0
LINE
8
Layer 1
10
19.709239
20
45.635407
11
24.186069
21
50.120697
0
LINE
8
Layer 1
10
24.186069
20
50.120697
11
25.032098
21
51.030549
0
LINE
8
Layer 1
10
25.032098
20
51.030549
11
25.425019
21
51.744167
0
LINE
8
Layer 1
10
25.425019
20
51.744167
11
21.345529
21
47.460367
0
LINE
8
Layer 1
10
21.345529
20
47.460367
11
19.643600
21
45.705300
0
LINE
8
Layer 1
10
19.643600
20
45.705300
11
19.643600
21
45.705300
0
LINE
8
Layer 1
10
1.317210
20
27.030800
11
1.520190
21
27.243313
0
LINE
8
Layer 1
10
1.520190
20
27.243313
11
1.522530
21
27.245974
0
LINE
8
Layer 1
10
1.522530
20
27.245974
11
1.459340
21
27.180499
0
LINE
8
Layer 1
10
1.459340
20
27.180499
11
1.317210
21
27.030800
0
LINE
8
Layer 1
10
1.317210
20
27.030800
11
1.317210
21
27.030800
0
LINE
8
Layer 1
10
0.064759
20
25.714800
11
0.565932
21
26.239801
0
LINE
8
Layer 1
10
0.565932
20
26.239801
11
1.317207
21
27.030816
0
LINE
8
Layer 1
10
1.317207
20
27.030816
11
0.637416
21
26.319272
0
LINE
8
Layer 1
10
0.637416
20
26.319272
11
0.114918
21
25.768009
0
LINE
8
Layer 1
10
0.114918
20
25.768009
11
0.003319
21
25.650079
0
LINE
8
Layer 1
10
0.003319
20
25.650079
11
0.064759
21
25.714800
0
LINE
8
Layer 1
10
0.064759
20
25.714800
11
0.064759
21
25.714800
0
LINE
8
Layer 1
10
36.786100
20
62.844200
11
37.071525
21
63.108924
0
LINE
8
Layer 1
10
37.071525
20
63.108924
11
37.342176
21
63.401904
0
LINE
8
Layer 1
10
37.342176
20
63.401904
11
36.957389
21
63.056583
0
LINE
8
Layer 1
10
36.957389
20
63.056583
11
36.786100
21
62.844200
0
LINE
8
Layer 1
10
36.786100
20
62.844200
11
36.786100
21
62.844200
 0 
ENDSEC
 0 
EOF