999
"DXF R12 Output" (www.mydxf.blogspot.com)
 0 
SECTION
 2 
HEADER
 9 
$ACADVER
 1 
AC1009
 9 
$EXTMIN
 10 
 0 
 20 
 0 
 9 
$EXTMAX
 10 
 8.5 
 20 
 11 
 0 
ENDSEC
 0 
SECTION
 2 
ENTITIES
0
LINE
8
Layer 1
10
48.209200
20
39.199000
11
48.202497
21
38.075910
0
LINE
8
Layer 1
10
48.202497
20
38.075910
11
48.212657
21
37.817928
0
LINE
8
Layer 1
10
48.212657
20
37.817928
11
48.231002
21
38.073568
0
LINE
8
Layer 1
10
48.231002
20
38.073568
11
48.277650
21
40.984538
0
LINE
8
Layer 1
10
48.277650
20
40.984538
11
48.209034
21
41.916777
0
LINE
8
Layer 1
10
48.209034
20
41.916777
11
48.209200
21
39.199000
0
LINE
8
Layer 1
10
48.209200
20
39.199000
11
48.209200
21
39.199000
0
LINE
8
Layer 1
10
48.093800
20
26.033800
11
48.093907
21
26.190611
0
LINE
8
Layer 1
10
48.093907
20
26.190611
11
48.093854
21
26.196143
0
LINE
8
Layer 1
10
48.093854
20
26.196143
11
48.093693
21
26.150397
0
LINE
8
Layer 1
10
48.093693
20
26.150397
11
48.093800
21
26.033800
0
LINE
8
Layer 1
10
48.093800
20
26.033800
11
48.093800
21
26.033800
0
LINE
8
Layer 1
10
48.093800
20
25.220900
11
48.094065
21
25.554306
0
LINE
8
Layer 1
10
48.094065
20
25.554306
11
48.093746
21
26.033776
0
LINE
8
Layer 1
10
48.093746
20
26.033776
11
48.093374
21
25.603455
0
LINE
8
Layer 1
10
48.093374
20
25.603455
11
48.093747
21
25.254469
0
LINE
8
Layer 1
10
48.093747
20
25.254469
11
48.093800
21
25.220900
0
LINE
8
Layer 1
10
48.093800
20
25.220900
11
48.093800
21
25.220900
0
LINE
8
Layer 1
10
48.390100
20
49.335200
11
48.397494
21
49.210413
0
LINE
8
Layer 1
10
48.397494
20
49.210413
11
48.405794
21
49.388924
0
LINE
8
Layer 1
10
48.405794
20
49.388924
11
48.403985
21
49.572114
0
LINE
8
Layer 1
10
48.403985
20
49.572114
11
48.390100
21
49.335200
0
LINE
8
Layer 1
10
48.390100
20
49.335200
11
48.390100
21
49.335200
0
LINE
8
Layer 1
10
86.657700
20
163.604000
11
88.030100
21
164.508685
0
LINE
8
Layer 1
10
88.030100
20
164.508685
11
88.600211
21
164.878049
0
LINE
8
Layer 1
10
88.600211
20
164.878049
11
88.726009
21
164.970708
0
LINE
8
Layer 1
10
88.726009
20
164.970708
11
88.588880
21
164.897943
0
LINE
8
Layer 1
10
88.588880
20
164.897943
11
87.098400
21
163.960173
0
LINE
8
Layer 1
10
87.098400
20
163.960173
11
86.657700
21
163.604000
0
LINE
8
Layer 1
10
86.657700
20
163.604000
11
86.657700
21
163.604000
0
LINE
8
Layer 1
10
94.737000
20
168.819000
11
94.649872
21
168.761658
0
LINE
8
Layer 1
10
94.649872
20
168.761658
11
94.645509
21
168.758681
0
LINE
8
Layer 1
10
94.645509
20
168.758681
11
94.670246
21
168.774852
0
LINE
8
Layer 1
10
94.670246
20
168.774852
11
94.737000
21
168.819000
0
LINE
8
Layer 1
10
95.139600
20
169.084000
11
94.971088
21
168.973149
0
LINE
8
Layer 1
10
94.971088
20
168.973149
11
94.737044
21
168.818573
0
LINE
8
Layer 1
10
94.737044
20
168.818573
11
94.946619
21
168.956340
0
LINE
8
Layer 1
10
94.946619
20
168.956340
11
95.139600
21
169.084000
0
LINE
8
Layer 1
10
95.139600
20
169.084000
11
95.139600
21
169.084000
0
LINE
8
Layer 1
10
82.832000
20
161.256000
11
82.891831
21
161.302595
0
LINE
8
Layer 1
10
82.891831
20
161.302595
11
82.798001
21
161.248660
0
LINE
8
Layer 1
10
82.798001
20
161.248660
11
82.706245
21
161.186531
0
LINE
8
Layer 1
10
82.706245
20
161.186531
11
82.832000
21
161.256000
0
LINE
8
Layer 1
10
82.832000
20
161.256000
11
82.832000
21
161.256000
0
LINE
8
Layer 1
10
91.917300
20
196.232000
11
91.978153
21
196.279659
0
LINE
8
Layer 1
10
91.978153
20
196.279659
11
91.908523
21
196.246681
0
LINE
8
Layer 1
10
91.908523
20
196.246681
11
91.169101
21
195.790401
0
LINE
8
Layer 1
10
91.169101
20
195.790401
11
90.959740
21
195.602314
0
LINE
8
Layer 1
10
90.959740
20
195.602314
11
91.635752
21
196.050296
0
LINE
8
Layer 1
10
91.635752
20
196.050296
11
91.917300
21
196.232000
0
LINE
8
Layer 1
10
91.917300
20
196.232000
11
91.917300
21
196.232000
0
LINE
8
Layer 1
10
95.150600
20
198.296000
11
95.067567
21
198.241212
0
LINE
8
Layer 1
10
95.067567
20
198.241212
11
94.932515
21
198.151530
0
LINE
8
Layer 1
10
94.932515
20
198.151530
11
95.055600
21
198.232810
0
LINE
8
Layer 1
10
95.055600
20
198.232810
11
95.150600
21
198.296000
0
LINE
8
Layer 1
10
95.150600
20
198.296000
11
95.150600
21
198.296000
0
LINE
8
Layer 1
10
89.083500
20
194.495000
11
89.036369
21
194.469682
0
LINE
8
Layer 1
10
89.036369
20
194.469682
11
88.991369
21
194.438618
0
LINE
8
Layer 1
10
88.991369
20
194.438618
11
89.054869
21
194.470639
0
LINE
8
Layer 1
10
89.054869
20
194.470639
11
89.083500
21
194.495000
0
LINE
8
Layer 1
10
89.083500
20
194.495000
11
89.083500
21
194.495000
0
LINE
8
Layer 1
10
99.347200
20
109.181000
11
99.301508
21
109.208872
0
LINE
8
Layer 1
10
99.301508
20
109.208872
11
99.210229
21
109.264831
0
LINE
8
Layer 1
10
99.210229
20
109.264831
11
98.845017
21
109.488235
0
LINE
8
Layer 1
10
98.845017
20
109.488235
11
98.114626
21
109.935046
0
LINE
8
Layer 1
10
98.114626
20
109.935046
11
96.694206
21
110.850475
0
LINE
8
Layer 1
10
96.694206
20
110.850475
11
95.825693
21
111.417287
0
LINE
8
Layer 1
10
95.825693
20
111.417287
11
94.420103
21
112.331548
0
LINE
8
Layer 1
10
94.420103
20
112.331548
11
92.828763
21
113.321763
0
LINE
8
Layer 1
10
92.828763
20
113.321763
11
89.193003
21
115.592203
0
LINE
8
Layer 1
10
89.193003
20
115.592203
11
82.648873
21
119.774033
0
LINE
8
Layer 1
10
82.648873
20
119.774033
11
77.921403
21
122.827243
0
LINE
8
Layer 1
10
77.921403
20
122.827243
11
73.404363
21
125.702573
0
LINE
8
Layer 1
10
73.404363
20
125.702573
11
72.717071
21
126.098319
0
LINE
8
Layer 1
10
72.717071
20
126.098319
11
70.199191
21
127.586839
0
LINE
8
Layer 1
10
70.199191
20
127.586839
11
67.459491
21
129.221099
0
LINE
8
Layer 1
10
67.459491
20
129.221099
11
65.296583
21
130.435947
0
LINE
8
Layer 1
10
65.296583
20
130.435947
11
63.300381
21
131.908769
0
LINE
8
Layer 1
10
63.300381
20
131.908769
11
62.448198
21
132.488453
0
LINE
8
Layer 1
10
62.448198
20
132.488453
11
60.619728
21
133.610693
0
LINE
8
Layer 1
10
60.619728
20
133.610693
11
52.229208
21
138.732953
0
LINE
8
Layer 1
10
52.229208
20
138.732953
11
55.362788
21
140.975203
0
LINE
8
Layer 1
10
55.362788
20
140.975203
11
57.725618
21
142.634573
0
LINE
8
Layer 1
10
57.725618
20
142.634573
11
59.966638
21
144.224043
0
LINE
8
Layer 1
10
59.966638
20
144.224043
11
60.288447
21
144.473936
0
LINE
8
Layer 1
10
60.288447
20
144.473936
11
61.486647
21
145.379474
0
LINE
8
Layer 1
10
61.486647
20
145.379474
11
62.799737
21
146.357988
0
LINE
8
Layer 1
10
62.799737
20
146.357988
11
63.802256
21
147.141350
0
LINE
8
Layer 1
10
63.802256
20
147.141350
11
64.891347
21
147.799058
0
LINE
8
Layer 1
10
64.891347
20
147.799058
11
65.333422
21
148.088527
0
LINE
8
Layer 1
10
65.333422
20
148.088527
11
66.226937
21
148.731403
0
LINE
8
Layer 1
10
66.226937
20
148.731403
11
70.357227
21
151.693443
0
LINE
8
Layer 1
10
70.357227
20
151.693443
11
71.580267
21
152.577063
0
LINE
8
Layer 1
10
71.580267
20
152.577063
11
72.792347
21
153.460153
0
LINE
8
Layer 1
10
72.792347
20
153.460153
11
74.013097
21
154.290797
0
LINE
8
Layer 1
10
74.013097
20
154.290797
11
74.451930
21
154.613989
0
LINE
8
Layer 1
10
74.451930
20
154.613989
11
76.318320
21
155.971869
0
LINE
8
Layer 1
10
76.318320
20
155.971869
11
79.016840
21
157.863469
0
LINE
8
Layer 1
10
79.016840
20
157.863469
11
80.134770
21
158.652943
0
LINE
8
Layer 1
10
80.134770
20
158.652943
11
81.666370
21
159.741993
0
LINE
8
Layer 1
10
81.666370
20
159.741993
11
81.999829
21
159.978803
0
LINE
8
Layer 1
10
81.999829
20
159.978803
11
83.326799
21
160.931680
0
LINE
8
Layer 1
10
83.326799
20
160.931680
11
84.647439
21
161.874237
0
LINE
8
Layer 1
10
84.647439
20
161.874237
11
85.992819
21
162.801477
0
LINE
8
Layer 1
10
85.992819
20
162.801477
11
86.546437
21
163.191584
0
LINE
8
Layer 1
10
86.546437
20
163.191584
11
88.540117
21
164.588184
0
LINE
8
Layer 1
10
88.540117
20
164.588184
11
89.776027
21
165.441059
0
LINE
8
Layer 1
10
89.776027
20
165.441059
11
91.119337
21
166.363832
0
LINE
8
Layer 1
10
91.119337
20
166.363832
11
93.031317
21
167.664692
0
LINE
8
Layer 1
10
93.031317
20
167.664692
11
93.213869
21
167.790543
0
LINE
8
Layer 1
10
93.213869
20
167.790543
11
93.480202
21
167.980543
0
LINE
8
Layer 1
10
93.480202
20
167.980543
11
94.373770
21
168.575439
0
LINE
8
Layer 1
10
94.373770
20
168.575439
11
94.645524
21
168.757994
0
LINE
8
Layer 1
10
94.645524
20
168.757994
11
94.181960
21
168.455864
0
LINE
8
Layer 1
10
94.181960
20
168.455864
11
92.376150
21
167.275964
0
LINE
8
Layer 1
10
92.376150
20
167.275964
11
91.120880
21
166.452556
0
LINE
8
Layer 1
10
91.120880
20
166.452556
11
90.109760
21
165.789574
0
LINE
8
Layer 1
10
90.109760
20
165.789574
11
88.118310
21
164.471904
0
LINE
8
Layer 1
10
88.118310
20
164.471904
11
87.608095
21
164.152542
0
LINE
8
Layer 1
10
87.608095
20
164.152542
11
87.210701
21
163.907539
0
LINE
8
Layer 1
10
87.210701
20
163.907539
11
86.550485
21
163.472220
0
LINE
8
Layer 1
10
86.550485
20
163.472220
11
85.414945
21
162.740511
0
LINE
8
Layer 1
10
85.414945
20
162.740511
11
85.083879
21
162.532959
0
LINE
8
Layer 1
10
85.083879
20
162.532959
11
85.564785
21
162.964025
0
LINE
8
Layer 1
10
85.564785
20
162.964025
11
84.815260
21
162.503597
0
LINE
8
Layer 1
10
84.815260
20
162.503597
11
83.944193
21
161.964765
0
LINE
8
Layer 1
10
83.944193
20
161.964765
11
83.993447
21
161.929126
0
LINE
8
Layer 1
10
83.993447
20
161.929126
11
83.704669
21
161.725079
0
LINE
8
Layer 1
10
83.704669
20
161.725079
11
82.906156
21
161.230062
0
LINE
8
Layer 1
10
82.906156
20
161.230062
11
81.540296
21
160.383464
0
LINE
8
Layer 1
10
81.540296
20
160.383464
11
81.099976
21
160.086335
0
LINE
8
Layer 1
10
81.099976
20
160.086335
11
79.070016
21
158.871755
0
LINE
8
Layer 1
10
79.070016
20
158.871755
11
77.849966
21
158.146645
0
LINE
8
Layer 1
10
77.849966
20
158.146645
11
77.059324
21
157.661429
0
LINE
8
Layer 1
10
77.059324
20
157.661429
11
76.290757
21
157.157917
0
LINE
8
Layer 1
10
76.290757
20
157.157917
11
75.722032
21
156.731319
0
LINE
8
Layer 1
10
75.722032
20
156.731319
11
75.267937
21
156.497275
0
LINE
8
Layer 1
10
75.267937
20
156.497275
11
74.708251
21
156.190996
0
LINE
8
Layer 1
10
74.708251
20
156.190996
11
73.211061
21
155.350782
0
LINE
8
Layer 1
10
73.211061
20
155.350782
11
72.528612
21
154.948438
0
LINE
8
Layer 1
10
72.528612
20
154.948438
11
71.396212
21
154.215776
0
LINE
8
Layer 1
10
71.396212
20
154.215776
11
70.245192
21
153.572262
0
LINE
8
Layer 1
10
70.245192
20
153.572262
11
69.892903
21
153.369390
0
LINE
8
Layer 1
10
69.892903
20
153.369390
11
67.329323
21
151.821190
0
LINE
8
Layer 1
10
67.329323
20
151.821190
11
64.756913
21
150.251820
0
LINE
8
Layer 1
10
64.756913
20
150.251820
11
64.404785
21
150.064585
0
LINE
8
Layer 1
10
64.404785
20
150.064585
11
62.156585
21
148.754365
0
LINE
8
Layer 1
10
62.156585
20
148.754365
11
61.690145
21
148.464258
0
LINE
8
Layer 1
10
61.690145
20
148.464258
11
56.925975
21
145.757008
0
LINE
8
Layer 1
10
56.925975
20
145.757008
11
51.975515
21
142.944228
0
LINE
8
Layer 1
10
51.975515
20
142.944228
11
52.265038
21
153.275228
0
LINE
8
Layer 1
10
52.265038
20
153.275228
11
52.353071
21
165.312628
0
LINE
8
Layer 1
10
52.353071
20
165.312628
11
52.342166
21
168.665728
0
LINE
8
Layer 1
10
52.342166
20
168.665728
11
52.882903
21
168.948921
0
LINE
8
Layer 1
10
52.882903
20
168.948921
11
55.841273
21
170.594041
0
LINE
8
Layer 1
10
55.841273
20
170.594041
11
59.202993
21
172.492031
0
LINE
8
Layer 1
10
59.202993
20
172.492031
11
61.468853
21
173.845871
0
LINE
8
Layer 1
10
61.468853
20
173.845871
11
62.849923
21
174.700874
0
LINE
8
Layer 1
10
62.849923
20
174.700874
11
64.673493
21
175.869074
0
LINE
8
Layer 1
10
64.673493
20
175.869074
11
66.126323
21
176.869714
0
LINE
8
Layer 1
10
66.126323
20
176.869714
11
67.523673
21
177.828761
0
LINE
8
Layer 1
10
67.523673
20
177.828761
11
72.979443
21
181.886761
0
LINE
8
Layer 1
10
72.979443
20
181.886761
11
73.351093
21
182.184635
0
LINE
8
Layer 1
10
73.351093
20
182.184635
11
74.204450
21
182.860808
0
LINE
8
Layer 1
10
74.204450
20
182.860808
11
75.779560
21
184.041668
0
LINE
8
Layer 1
10
75.779560
20
184.041668
11
76.931430
21
184.881561
0
LINE
8
Layer 1
10
76.931430
20
184.881561
11
78.022130
21
185.688479
0
LINE
8
Layer 1
10
78.022130
20
185.688479
11
78.176223
21
185.818905
0
LINE
8
Layer 1
10
78.176223
20
185.818905
11
78.752769
21
186.287958
0
LINE
8
Layer 1
10
78.752769
20
186.287958
11
79.386335
21
186.792534
0
LINE
8
Layer 1
10
79.386335
20
186.792534
11
80.409265
21
187.517111
0
LINE
8
Layer 1
10
80.409265
20
187.517111
11
80.627245
21
187.660090
0
LINE
8
Layer 1
10
80.627245
20
187.660090
11
81.061020
21
187.988071
0
LINE
8
Layer 1
10
81.061020
20
187.988071
11
83.067360
21
189.497331
0
LINE
8
Layer 1
10
83.067360
20
189.497331
11
83.660712
21
189.948604
0
LINE
8
Layer 1
10
83.660712
20
189.948604
11
84.247844
21
190.400839
0
LINE
8
Layer 1
10
84.247844
20
190.400839
11
84.846155
21
190.816798
0
LINE
8
Layer 1
10
84.846155
20
190.816798
11
85.058338
21
190.982745
0
LINE
8
Layer 1
10
85.058338
20
190.982745
11
85.962651
21
191.677858
0
LINE
8
Layer 1
10
85.962651
20
191.677858
11
87.278671
21
192.634565
0
LINE
8
Layer 1
10
87.278671
20
192.634565
11
87.823077
21
193.034886
0
LINE
8
Layer 1
10
87.823077
20
193.034886
11
88.568239
21
193.588188
0
LINE
8
Layer 1
10
88.568239
20
193.588188
11
88.730421
21
193.708508
0
LINE
8
Layer 1
10
88.730421
20
193.708508
11
89.374895
21
194.194150
0
LINE
8
Layer 1
10
89.374895
20
194.194150
11
90.016973
21
194.673727
0
LINE
8
Layer 1
10
90.016973
20
194.673727
11
90.674900
21
195.140006
0
LINE
8
Layer 1
10
90.674900
20
195.140006
11
90.944636
21
195.337666
0
LINE
8
Layer 1
10
90.944636
20
195.337666
11
91.916981
21
196.043839
0
LINE
8
Layer 1
10
91.916981
20
196.043839
11
92.521292
21
196.472884
0
LINE
8
Layer 1
10
92.521292
20
196.472884
11
93.178587
21
196.936504
0
LINE
8
Layer 1
10
93.178587
20
196.936504
11
94.115615
21
197.587782
0
LINE
8
Layer 1
10
94.115615
20
197.587782
11
94.204870
21
197.651082
0
LINE
8
Layer 1
10
94.204870
20
197.651082
11
94.334339
21
197.747782
0
LINE
8
Layer 1
10
94.334339
20
197.747782
11
94.773860
21
198.043316
0
LINE
8
Layer 1
10
94.773860
20
198.043316
11
94.909448
21
198.135764
0
LINE
8
Layer 1
10
94.909448
20
198.135764
11
94.919501
21
198.142359
0
LINE
8
Layer 1
10
94.919501
20
198.142359
11
94.932534
21
198.151083
0
LINE
8
Layer 1
10
94.932534
20
198.151083
11
94.914288
21
198.138947
0
LINE
8
Layer 1
10
94.914288
20
198.138947
11
94.678542
21
197.985328
0
LINE
8
Layer 1
10
94.678542
20
197.985328
11
93.787793
21
197.402985
0
LINE
8
Layer 1
10
93.787793
20
197.402985
11
93.169013
21
196.996069
0
LINE
8
Layer 1
10
93.169013
20
196.996069
11
92.670553
21
196.668409
0
LINE
8
Layer 1
10
92.670553
20
196.668409
11
91.690229
21
196.015107
0
LINE
8
Layer 1
10
91.690229
20
196.015107
11
91.436929
21
195.860001
0
LINE
8
Layer 1
10
91.436929
20
195.860001
11
91.239162
21
195.741702
0
LINE
8
Layer 1
10
91.239162
20
195.741702
11
90.914003
21
195.526065
0
LINE
8
Layer 1
10
90.914003
20
195.526065
11
90.352663
21
195.166912
0
LINE
8
Layer 1
10
90.352663
20
195.166912
11
90.188353
21
195.065956
0
LINE
8
Layer 1
10
90.188353
20
195.065956
11
90.411811
21
195.299785
0
LINE
8
Layer 1
10
90.411811
20
195.299785
11
90.038671
21
195.077764
0
LINE
8
Layer 1
10
90.038671
20
195.077764
11
89.605477
21
194.817231
0
LINE
8
Layer 1
10
89.605477
20
194.817231
11
89.637713
21
194.787550
0
LINE
8
Layer 1
10
89.637713
20
194.787550
11
89.497073
21
194.684039
0
LINE
8
Layer 1
10
89.497073
20
194.684039
11
89.100102
21
194.444464
0
LINE
8
Layer 1
10
89.100102
20
194.444464
11
88.420952
21
194.034887
0
LINE
8
Layer 1
10
88.420952
20
194.034887
11
88.204886
21
193.886588
0
LINE
8
Layer 1
10
88.204886
20
193.886588
11
87.190500
21
193.308000
0
LINE
8
Layer 1
10
87.190500
20
193.308000
11
86.580282
21
192.963102
0
LINE
8
Layer 1
10
86.580282
20
192.963102
11
86.186557
21
192.729273
0
LINE
8
Layer 1
10
86.186557
20
192.729273
11
85.807620
21
192.480548
0
LINE
8
Layer 1
10
85.807620
20
192.480548
11
85.533582
21
192.260133
0
LINE
8
Layer 1
10
85.533582
20
192.260133
11
85.302250
21
192.155877
0
LINE
8
Layer 1
10
85.302250
20
192.155877
11
85.019215
21
192.015330
0
LINE
8
Layer 1
10
85.019215
20
192.015330
11
84.264477
21
191.625435
0
LINE
8
Layer 1
10
84.264477
20
191.625435
11
83.922774
21
191.434690
0
LINE
8
Layer 1
10
83.922774
20
191.434690
11
83.363356
21
191.074369
0
LINE
8
Layer 1
10
83.363356
20
191.074369
11
82.782873
21
190.776388
0
LINE
8
Layer 1
10
82.782873
20
190.776388
11
82.605852
21
190.681070
0
LINE
8
Layer 1
10
82.605852
20
190.681070
11
81.326482
21
189.939789
0
LINE
8
Layer 1
10
81.326482
20
189.939789
11
80.044562
21
189.185212
0
LINE
8
Layer 1
10
80.044562
20
189.185212
11
79.865836
21
189.100529
0
LINE
8
Layer 1
10
79.865836
20
189.100529
11
78.738276
21
188.482443
0
LINE
8
Layer 1
10
78.738276
20
188.482443
11
78.506467
21
188.341803
0
LINE
8
Layer 1
10
78.506467
20
188.341803
11
76.108897
21
187.078603
0
LINE
8
Layer 1
10
76.108897
20
187.078603
11
73.583457
21
185.748273
0
LINE
8
Layer 1
10
73.583457
20
185.748273
11
70.942757
21
184.338053
0
LINE
8
Layer 1
10
70.942757
20
184.338053
11
70.284773
21
183.981042
0
LINE
8
Layer 1
10
70.284773
20
183.981042
11
67.104283
21
182.278162
0
LINE
8
Layer 1
10
67.104283
20
182.278162
11
61.925793
21
179.286442
0
LINE
8
Layer 1
10
61.925793
20
179.286442
11
58.902533
21
177.346962
0
LINE
8
Layer 1
10
58.902533
20
177.346962
11
56.045923
21
175.405032
0
LINE
8
Layer 1
10
56.045923
20
175.405032
11
53.167083
21
173.490442
0
LINE
8
Layer 1
10
53.167083
20
173.490442
11
52.310376
21
172.937462
0
LINE
8
Layer 1
10
52.310376
20
172.937462
11
52.284578
21
176.887902
0
LINE
8
Layer 1
10
52.284578
20
176.887902
11
52.274365
21
188.474802
0
LINE
8
Layer 1
10
52.274365
20
188.474802
11
52.446921
21
195.747072
0
LINE
8
Layer 1
10
52.446921
20
195.747072
11
52.616188
21
200.960527
0
LINE
8
Layer 1
10
52.616188
20
200.960527
11
52.466174
21
206.174572
0
LINE
8
Layer 1
10
52.466174
20
206.174572
11
52.346214
21
207.403643
0
LINE
8
Layer 1
10
52.346214
20
207.403643
11
52.071243
21
208.602408
0
LINE
8
Layer 1
10
52.071243
20
208.602408
11
51.645597
21
209.756303
0
LINE
8
Layer 1
10
51.645597
20
209.756303
11
51.073614
21
210.850762
0
LINE
8
Layer 1
10
51.073614
20
210.850762
11
50.307574
21
211.675765
0
LINE
8
Layer 1
10
50.307574
20
211.675765
11
49.871710
21
211.896781
0
LINE
8
Layer 1
10
49.871710
20
211.896781
11
49.418272
21
211.969235
0
LINE
8
Layer 1
10
49.418272
20
211.969235
11
48.960500
21
211.877453
0
LINE
8
Layer 1
10
48.960500
20
211.877453
11
48.511635
21
211.605755
0
LINE
8
Layer 1
10
48.511635
20
211.605755
11
48.084920
21
211.138467
0
LINE
8
Layer 1
10
48.084920
20
211.138467
11
47.693594
21
210.459910
0
LINE
8
Layer 1
10
47.693594
20
210.459910
11
47.078945
21
208.709847
0
LINE
8
Layer 1
10
47.078945
20
208.709847
11
46.803644
21
206.875530
0
LINE
8
Layer 1
10
46.803644
20
206.875530
11
46.226887
21
197.610060
0
LINE
8
Layer 1
10
46.226887
20
197.610060
11
45.789443
21
186.295360
0
LINE
8
Layer 1
10
45.789443
20
186.295360
11
45.331941
21
173.385660
0
LINE
8
Layer 1
10
45.331941
20
173.385660
11
45.127259
21
164.547100
0
LINE
8
Layer 1
10
45.127259
20
164.547100
11
45.043961
21
159.105160
0
LINE
8
Layer 1
10
45.043961
20
159.105160
11
44.988482
21
151.847570
0
LINE
8
Layer 1
10
44.988482
20
151.847570
11
45.041353
21
145.937010
0
LINE
8
Layer 1
10
45.041353
20
145.937010
11
45.051886
21
143.095930
0
LINE
8
Layer 1
10
45.051886
20
143.095930
11
44.698262
21
143.324761
0
LINE
8
Layer 1
10
44.698262
20
143.324761
11
43.777724
21
143.855722
0
LINE
8
Layer 1
10
43.777724
20
143.855722
11
39.888774
21
146.122122
0
LINE
8
Layer 1
10
39.888774
20
146.122122
11
34.399654
21
149.464372
0
LINE
8
Layer 1
10
34.399654
20
149.464372
11
32.109534
21
150.835652
0
LINE
8
Layer 1
10
32.109534
20
150.835652
11
28.951114
21
152.696722
0
LINE
8
Layer 1
10
28.951114
20
152.696722
11
28.263237
21
153.100864
0
LINE
8
Layer 1
10
28.263237
20
153.100864
11
25.500187
21
154.690874
0
LINE
8
Layer 1
10
25.500187
20
154.690874
11
22.757557
21
156.273224
0
LINE
8
Layer 1
10
22.757557
20
156.273224
11
20.034457
21
157.929194
0
LINE
8
Layer 1
10
20.034457
20
157.929194
11
18.892697
21
158.594834
0
LINE
8
Layer 1
10
18.892697
20
158.594834
11
14.794857
21
160.997084
0
LINE
8
Layer 1
10
14.794857
20
160.997084
11
12.279577
21
162.499534
0
LINE
8
Layer 1
10
12.279577
20
162.499534
11
9.552547
21
164.134864
0
LINE
8
Layer 1
10
9.552547
20
164.134864
11
5.695507
21
166.475304
0
LINE
8
Layer 1
10
5.695507
20
166.475304
11
5.322632
21
166.694873
0
LINE
8
Layer 1
10
5.322632
20
166.694873
11
4.761513
21
167.001366
0
LINE
8
Layer 1
10
4.761513
20
167.001366
11
2.988743
21
168.115516
0
LINE
8
Layer 1
10
2.988743
20
168.115516
11
2.437623
21
168.454242
0
LINE
8
Layer 1
10
2.437623
20
168.454242
11
3.347628
21
167.858816
0
LINE
8
Layer 1
10
3.347628
20
167.858816
11
6.872278
21
165.562416
0
LINE
8
Layer 1
10
6.872278
20
165.562416
11
9.330588
21
163.972306
0
LINE
8
Layer 1
10
9.330588
20
163.972306
11
11.309748
21
162.690486
0
LINE
8
Layer 1
10
11.309748
20
162.690486
11
15.235568
21
160.185256
0
LINE
8
Layer 1
10
15.235568
20
160.185256
11
16.197860
21
159.512157
0
LINE
8
Layer 1
10
16.197860
20
159.512157
11
16.938769
21
158.982144
0
LINE
8
Layer 1
10
16.938769
20
158.982144
11
18.236809
21
158.149267
0
LINE
8
Layer 1
10
18.236809
20
158.149267
11
20.429429
21
156.688617
0
LINE
8
Layer 1
10
20.429429
20
156.688617
11
21.055761
21
156.254252
0
LINE
8
Layer 1
10
21.055761
20
156.254252
11
20.467467
21
156.447299
0
LINE
8
Layer 1
10
20.467467
20
156.447299
11
19.847141
21
156.680001
0
LINE
8
Layer 1
10
19.847141
20
156.680001
11
21.245981
21
155.685733
0
LINE
8
Layer 1
10
21.245981
20
155.685733
11
22.881571
21
154.538073
0
LINE
8
Layer 1
10
22.881571
20
154.538073
11
22.875271
21
154.647376
0
LINE
8
Layer 1
10
22.875271
20
154.647376
11
22.938701
21
154.703393
0
LINE
8
Layer 1
10
22.938701
20
154.703393
11
23.538064
21
154.360733
0
LINE
8
Layer 1
10
23.538064
20
154.360733
11
25.039084
21
153.309343
0
LINE
8
Layer 1
10
25.039084
20
153.309343
11
27.608834
21
151.514223
0
LINE
8
Layer 1
10
27.608834
20
151.514223
11
28.490967
21
150.970604
0
LINE
8
Layer 1
10
28.490967
20
150.970604
11
32.222047
21
148.252934
0
LINE
8
Layer 1
10
32.222047
20
148.252934
11
33.291510
21
147.369671
0
LINE
8
Layer 1
10
33.291510
20
147.369671
11
34.458547
21
146.620054
0
LINE
8
Layer 1
10
34.458547
20
146.620054
11
35.942387
21
145.584514
0
LINE
8
Layer 1
10
35.942387
20
145.584514
11
37.451387
21
144.618127
0
LINE
8
Layer 1
10
37.451387
20
144.618127
11
38.679897
21
143.969186
0
LINE
8
Layer 1
10
38.679897
20
143.969186
11
39.440485
21
143.321204
0
LINE
8
Layer 1
10
39.440485
20
143.321204
11
40.415596
21
142.545658
0
LINE
8
Layer 1
10
40.415596
20
142.545658
11
43.073116
21
140.505118
0
LINE
8
Layer 1
10
43.073116
20
140.505118
11
44.325676
21
139.600114
0
LINE
8
Layer 1
10
44.325676
20
139.600114
11
45.118661
21
139.115217
0
LINE
8
Layer 1
10
45.118661
20
139.115217
11
45.121427
21
139.014577
0
LINE
8
Layer 1
10
45.121427
20
139.014577
11
39.015387
21
135.503707
0
LINE
8
Layer 1
10
39.015387
20
135.503707
11
28.641787
21
129.250907
0
LINE
8
Layer 1
10
28.641787
20
129.250907
11
22.524367
21
125.303117
0
LINE
8
Layer 1
10
22.524367
20
125.303117
11
16.709337
21
121.404697
0
LINE
8
Layer 1
10
16.709337
20
121.404697
11
10.862547
21
117.541057
0
LINE
8
Layer 1
10
10.862547
20
117.541057
11
7.114387
21
115.235937
0
LINE
8
Layer 1
10
7.114387
20
115.235937
11
4.407177
21
113.613780
0
LINE
8
Layer 1
10
4.407177
20
113.613780
11
1.840020
21
111.778000
0
LINE
8
Layer 1
10
1.840020
20
111.778000
11
0.765554
21
110.674371
0
LINE
8
Layer 1
10
0.765554
20
110.674371
11
0.089850
21
109.290210
0
LINE
8
Layer 1
10
0.089850
20
109.290210
11
0.009498
21
108.503241
0
LINE
8
Layer 1
10
0.009498
20
108.503241
11
0.251675
21
107.810760
0
LINE
8
Layer 1
10
0.251675
20
107.810760
11
0.833207
21
107.325369
0
LINE
8
Layer 1
10
0.833207
20
107.325369
11
1.770920
21
107.159670
0
LINE
8
Layer 1
10
1.770920
20
107.159670
11
2.907218
21
107.326483
0
LINE
8
Layer 1
10
2.907218
20
107.326483
11
3.971730
21
107.757546
0
LINE
8
Layer 1
10
3.971730
20
107.757546
11
8.903880
21
110.455866
0
LINE
8
Layer 1
10
8.903880
20
110.455866
11
14.809760
21
113.929496
0
LINE
8
Layer 1
10
14.809760
20
113.929496
11
21.529950
21
117.920476
0
LINE
8
Layer 1
10
21.529950
20
117.920476
11
26.083220
21
120.725596
0
LINE
8
Layer 1
10
26.083220
20
120.725596
11
28.867970
21
122.481136
0
LINE
8
Layer 1
10
28.867970
20
122.481136
11
32.557300
21
124.859766
0
LINE
8
Layer 1
10
32.557300
20
124.859766
11
35.518860
21
126.862536
0
LINE
8
Layer 1
10
35.518860
20
126.862536
11
38.366210
21
128.783626
0
LINE
8
Layer 1
10
38.366210
20
128.783626
11
45.265500
21
133.694186
0
LINE
8
Layer 1
10
45.265500
20
133.694186
11
45.703906
21
117.510886
0
LINE
8
Layer 1
10
45.703906
20
117.510886
11
45.775664
21
115.922046
0
LINE
8
Layer 1
10
45.775664
20
115.922046
11
45.929546
21
112.288196
0
LINE
8
Layer 1
10
45.929546
20
112.288196
11
46.120452
21
105.703696
0
LINE
8
Layer 1
10
46.120452
20
105.703696
11
46.226996
21
100.932186
0
LINE
8
Layer 1
10
46.226996
20
100.932186
11
46.344228
21
96.392486
0
LINE
8
Layer 1
10
46.344228
20
96.392486
11
46.383592
21
95.720992
0
LINE
8
Layer 1
10
46.383592
20
95.720992
11
46.504550
21
93.243212
0
LINE
8
Layer 1
10
46.504550
20
93.243212
11
46.622476
21
90.540432
0
LINE
8
Layer 1
10
46.622476
20
90.540432
11
46.750371
21
88.442700
0
LINE
8
Layer 1
10
46.750371
20
88.442700
11
46.687582
21
86.342012
0
LINE
8
Layer 1
10
46.687582
20
86.342012
11
46.685561
21
85.468391
0
LINE
8
Layer 1
10
46.685561
20
85.468391
11
46.741890
21
83.650081
0
LINE
8
Layer 1
10
46.741890
20
83.650081
11
46.992105
21
75.253661
0
LINE
8
Layer 1
10
46.992105
20
75.253661
11
47.072956
21
72.761521
0
LINE
8
Layer 1
10
47.072956
20
72.761521
11
47.160828
21
70.284911
0
LINE
8
Layer 1
10
47.160828
20
70.284911
11
47.187956
21
67.843941
0
LINE
8
Layer 1
10
47.187956
20
67.843941
11
47.223329
21
66.944257
0
LINE
8
Layer 1
10
47.223329
20
66.944257
11
47.356628
21
63.132537
0
LINE
8
Layer 1
10
47.356628
20
63.132537
11
47.474501
21
57.686337
0
LINE
8
Layer 1
10
47.474501
20
57.686337
11
47.529501
21
55.424837
0
LINE
8
Layer 1
10
47.529501
20
55.424837
11
47.612426
21
52.319717
0
LINE
8
Layer 1
10
47.612426
20
52.319717
11
47.630246
21
51.644078
0
LINE
8
Layer 1
10
47.630246
20
51.644078
11
47.711842
21
48.945338
0
LINE
8
Layer 1
10
47.711842
20
48.945338
11
47.787107
21
46.264688
0
LINE
8
Layer 1
10
47.787107
20
46.264688
11
47.829342
21
43.563928
0
LINE
8
Layer 1
10
47.829342
20
43.563928
11
47.855673
21
42.444768
0
LINE
8
Layer 1
10
47.855673
20
42.444768
11
47.941790
21
38.421978
0
LINE
8
Layer 1
10
47.941790
20
38.421978
11
47.981736
21
35.939838
0
LINE
8
Layer 1
10
47.981736
20
35.939838
11
48.020779
21
33.245888
0
LINE
8
Layer 1
10
48.020779
20
33.245888
11
48.063174
21
29.422778
0
LINE
8
Layer 1
10
48.063174
20
29.422778
11
48.068917
21
29.056395
0
LINE
8
Layer 1
10
48.068917
20
29.056395
11
48.084025
21
28.515861
0
LINE
8
Layer 1
10
48.084025
20
28.515861
11
48.090143
21
26.741061
0
LINE
8
Layer 1
10
48.090143
20
26.741061
11
48.093812
21
26.196590
0
LINE
8
Layer 1
10
48.093812
20
26.196590
11
48.097323
21
27.114678
0
LINE
8
Layer 1
10
48.097323
20
27.114678
11
48.108174
21
30.681078
0
LINE
8
Layer 1
10
48.108174
20
30.681078
11
48.112269
21
33.163218
0
LINE
8
Layer 1
10
48.112269
20
33.163218
11
48.115887
21
35.162378
0
LINE
8
Layer 1
10
48.115887
20
35.162378
11
48.110621
21
39.110488
0
LINE
8
Layer 1
10
48.110621
20
39.110488
11
48.128280
21
40.105493
0
LINE
8
Layer 1
10
48.128280
20
40.105493
11
48.145992
21
40.876986
0
LINE
8
Layer 1
10
48.145992
20
40.876986
11
48.145727
21
42.184546
0
LINE
8
Layer 1
10
48.145727
20
42.184546
11
48.163281
21
44.417956
0
LINE
8
Layer 1
10
48.163281
20
44.417956
11
48.174344
21
45.063917
0
LINE
8
Layer 1
10
48.174344
20
45.063917
11
48.293492
21
44.008057
0
LINE
8
Layer 1
10
48.293492
20
44.008057
11
48.328547
21
45.461787
0
LINE
8
Layer 1
10
48.328547
20
45.461787
11
48.365354
21
47.154667
0
LINE
8
Layer 1
10
48.365354
20
47.154667
11
48.294291
21
47.118924
0
LINE
8
Layer 1
10
48.294291
20
47.118924
11
48.279982
21
47.703287
0
LINE
8
Layer 1
10
48.279982
20
47.703287
11
48.312644
21
49.256077
0
LINE
8
Layer 1
10
48.312644
20
49.256077
11
48.368707
21
51.912047
0
LINE
8
Layer 1
10
48.368707
20
51.912047
11
48.361474
21
52.790243
0
LINE
8
Layer 1
10
48.361474
20
52.790243
11
48.490303
21
56.698023
0
LINE
8
Layer 1
10
48.490303
20
56.698023
11
48.572856
21
59.042293
0
LINE
8
Layer 1
10
48.572856
20
59.042293
11
48.610304
21
60.575383
0
LINE
8
Layer 1
10
48.610304
20
60.575383
11
48.613495
21
62.094543
0
LINE
8
Layer 1
10
48.613495
20
62.094543
11
48.559506
21
63.267633
0
LINE
8
Layer 1
10
48.559506
20
63.267633
11
48.627643
21
64.107636
0
LINE
8
Layer 1
10
48.627643
20
64.107636
11
48.693017
21
65.159126
0
LINE
8
Layer 1
10
48.693017
20
65.159126
11
48.845995
21
67.990846
0
LINE
8
Layer 1
10
48.845995
20
67.990846
11
48.895570
21
69.299256
0
LINE
8
Layer 1
10
48.895570
20
69.299256
11
48.909879
21
71.529166
0
LINE
8
Layer 1
10
48.909879
20
71.529166
11
49.030106
21
73.703966
0
LINE
8
Layer 1
10
49.030106
20
73.703966
11
49.060640
21
74.375033
0
LINE
8
Layer 1
10
49.060640
20
74.375033
11
49.208301
21
79.323143
0
LINE
8
Layer 1
10
49.208301
20
79.323143
11
49.340003
21
84.302633
0
LINE
8
Layer 1
10
49.340003
20
84.302633
11
49.386916
21
84.959127
0
LINE
8
Layer 1
10
49.386916
20
84.959127
11
49.565907
21
89.255427
0
LINE
8
Layer 1
10
49.565907
20
89.255427
11
49.583992
21
90.163409
0
LINE
8
Layer 1
10
49.583992
20
90.163409
11
50.035858
21
99.204729
0
LINE
8
Layer 1
10
50.035858
20
99.204729
11
50.512082
21
108.727859
0
LINE
8
Layer 1
10
50.512082
20
108.727859
11
50.983523
21
118.720569
0
LINE
8
Layer 1
10
50.983523
20
118.720569
11
51.093257
21
121.220789
0
LINE
8
Layer 1
10
51.093257
20
121.220789
11
51.654856
21
133.264489
0
LINE
8
Layer 1
10
51.654856
20
133.264489
11
51.695708
21
134.467369
0
LINE
8
Layer 1
10
51.695708
20
134.467369
11
54.020618
21
132.819809
0
LINE
8
Layer 1
10
54.020618
20
132.819809
11
56.415480
21
131.126701
0
LINE
8
Layer 1
10
56.415480
20
131.126701
11
58.874738
21
129.510109
0
LINE
8
Layer 1
10
58.874738
20
129.510109
11
59.488464
21
129.033193
0
LINE
8
Layer 1
10
59.488464
20
129.033193
11
63.627894
21
126.102313
0
LINE
8
Layer 1
10
63.627894
20
126.102313
11
64.521090
21
125.511340
0
LINE
8
Layer 1
10
64.521090
20
125.511340
11
73.209110
21
119.307480
0
LINE
8
Layer 1
10
73.209110
20
119.307480
11
82.416980
21
112.860210
0
LINE
8
Layer 1
10
82.416980
20
112.860210
11
92.156280
21
106.213690
0
LINE
8
Layer 1
10
92.156280
20
106.213690
11
92.770217
21
105.804220
0
LINE
8
Layer 1
10
92.770217
20
105.804220
11
92.847292
21
105.753369
0
LINE
8
Layer 1
10
92.847292
20
105.753369
11
92.881017
21
105.731454
0
LINE
8
Layer 1
10
92.881017
20
105.731454
11
92.884900
21
105.731773
0
LINE
8
Layer 1
10
92.884900
20
105.731773
11
92.900485
21
105.732837
0
LINE
8
Layer 1
10
92.900485
20
105.732837
11
92.931388
21
105.735177
0
LINE
8
Layer 1
10
92.931388
20
105.735177
11
92.975166
21
105.716773
0
LINE
8
Layer 1
10
92.975166
20
105.716773
11
92.988569
21
105.700071
0
LINE
8
Layer 1
10
92.988569
20
105.700071
11
92.980859
21
105.673794
0
LINE
8
Layer 1
10
92.980859
20
105.673794
11
92.934315
21
105.616028
0
LINE
8
Layer 1
10
92.934315
20
105.616028
11
92.895218
21
105.592943
0
LINE
8
Layer 1
10
92.895218
20
105.592943
11
92.885538
21
105.587730
0
LINE
8
Layer 1
10
92.885538
20
105.587730
11
92.882135
21
105.482199
0
LINE
8
Layer 1
10
92.882135
20
105.482199
11
92.876177
21
105.260389
0
LINE
8
Layer 1
10
92.876177
20
105.260389
11
92.836175
21
103.486019
0
LINE
8
Layer 1
10
92.836175
20
103.486019
11
92.794846
21
99.934189
0
LINE
8
Layer 1
10
92.794846
20
99.934189
11
92.802878
21
92.825329
0
LINE
8
Layer 1
10
92.802878
20
92.825329
11
93.157349
21
69.218729
0
LINE
8
Layer 1
10
93.157349
20
69.218729
11
93.671501
21
55.020029
0
LINE
8
Layer 1
10
93.671501
20
55.020029
11
94.261718
21
41.367929
0
LINE
8
Layer 1
10
94.261718
20
41.367929
11
94.819273
21
27.700929
0
LINE
8
Layer 1
10
94.819273
20
27.700929
11
95.133530
21
19.122589
0
LINE
8
Layer 1
10
95.133530
20
19.122589
11
95.693693
21
6.822989
0
LINE
8
Layer 1
10
95.693693
20
6.822989
11
95.995823
21
1.312959
0
LINE
8
Layer 1
10
95.995823
20
1.312959
11
96.039567
21
0.000430
0
LINE
8
Layer 1
10
96.039567
20
0.000430
11
96.066994
21
1.787656
0
LINE
8
Layer 1
10
96.066994
20
1.787656
11
96.196994
21
6.019166
0
LINE
8
Layer 1
10
96.196994
20
6.019166
11
96.569809
21
16.950266
0
LINE
8
Layer 1
10
96.569809
20
16.950266
11
97.085183
21
30.297966
0
LINE
8
Layer 1
10
97.085183
20
30.297966
11
97.768273
21
45.527166
0
LINE
8
Layer 1
10
97.768273
20
45.527166
11
98.233062
21
55.953266
0
LINE
8
Layer 1
10
98.233062
20
55.953266
11
98.506309
21
62.372446
0
LINE
8
Layer 1
10
98.506309
20
62.372446
11
98.836416
21
70.933126
0
LINE
8
Layer 1
10
98.836416
20
70.933126
11
99.025886
21
77.904546
0
LINE
8
Layer 1
10
99.025886
20
77.904546
11
99.203548
21
84.602346
0
LINE
8
Layer 1
10
99.203548
20
84.602346
11
99.270248
21
91.309506
0
LINE
8
Layer 1
10
99.270248
20
91.309506
11
99.310250
21
98.016666
0
LINE
8
Layer 1
10
99.310250
20
98.016666
11
99.327536
21
104.723826
0
LINE
8
Layer 1
10
99.327536
20
104.723826
11
99.327500
21
107.222000
0
LINE
8
Layer 1
10
99.327500
20
107.222000
11
99.371010
21
108.931050
0
LINE
8
Layer 1
10
99.371010
20
108.931050
11
99.376863
21
109.144881
0
LINE
8
Layer 1
10
99.376863
20
109.144881
11
99.347200
21
109.181000
0
LINE
8
Layer 1
10
99.347200
20
109.181000
11
99.347200
21
109.181000
0
LINE
8
Layer 1
10
87.903500
20
164.212000
11
88.039514
21
164.293065
0
LINE
8
Layer 1
10
88.039514
20
164.293065
11
87.957915
21
164.232532
0
LINE
8
Layer 1
10
87.957915
20
164.232532
11
87.535945
21
163.953697
0
LINE
8
Layer 1
10
87.535945
20
163.953697
11
87.903500
21
164.212000
0
LINE
8
Layer 1
10
87.903500
20
164.212000
11
87.903500
21
164.212000
0
LINE
8
Layer 1
10
80.792030
20
159.744110
11
81.010967
21
159.885173
0
LINE
8
Layer 1
10
81.010967
20
159.885173
11
80.999266
21
159.863258
0
LINE
8
Layer 1
10
80.999266
20
159.863258
11
80.776711
21
159.721018
0
LINE
8
Layer 1
10
80.776711
20
159.721018
11
80.792000
21
159.744000
0
LINE
8
Layer 1
10
80.792000
20
159.744000
11
80.792030
21
159.744110
0
LINE
8
Layer 1
10
77.053500
20
157.391970
11
77.518503
21
157.742504
0
LINE
8
Layer 1
10
77.518503
20
157.742504
11
78.360899
21
158.189634
0
LINE
8
Layer 1
10
78.360899
20
158.189634
11
78.402230
21
158.193357
0
LINE
8
Layer 1
10
78.402230
20
158.193357
11
78.266430
21
158.073675
0
LINE
8
Layer 1
10
78.266430
20
158.073675
11
78.141270
21
157.991229
0
LINE
8
Layer 1
10
78.141270
20
157.991229
11
77.370468
21
157.505268
0
LINE
8
Layer 1
10
77.370468
20
157.505268
11
76.991052
21
157.301117
0
LINE
8
Layer 1
10
76.991052
20
157.301117
11
77.053500
21
157.392000
0
LINE
8
Layer 1
10
77.053500
20
157.392000
11
77.053500
21
157.391970
0
LINE
8
Layer 1
10
73.466900
20
155.285000
11
74.172009
21
155.748620
0
LINE
8
Layer 1
10
74.172009
20
155.748620
11
74.819618
21
156.126493
0
LINE
8
Layer 1
10
74.819618
20
156.126493
11
74.906799
21
156.130004
0
LINE
8
Layer 1
10
74.906799
20
156.130004
11
74.832118
21
156.062770
0
LINE
8
Layer 1
10
74.832118
20
156.062770
11
73.478598
21
155.214893
0
LINE
8
Layer 1
10
73.478598
20
155.214893
11
73.406309
21
155.192129
0
LINE
8
Layer 1
10
73.406309
20
155.192129
11
73.466900
21
155.285000
0
LINE
8
Layer 1
10
73.466900
20
155.285000
11
73.466900
21
155.285000
0
LINE
8
Layer 1
10
91.598400
20
195.866000
11
91.666379
21
195.904616
0
LINE
8
Layer 1
10
91.666379
20
195.904616
11
91.626964
21
195.873445
0
LINE
8
Layer 1
10
91.626964
20
195.873445
11
91.419198
21
195.735252
0
LINE
8
Layer 1
10
91.419198
20
195.735252
11
91.598400
21
195.866000
0
LINE
8
Layer 1
10
91.598400
20
195.866000
11
91.598400
21
195.866000
0
LINE
8
Layer 1
10
88.069660
20
193.693010
11
88.177853
21
193.762265
0
LINE
8
Layer 1
10
88.177853
20
193.762265
11
88.173758
21
193.748862
0
LINE
8
Layer 1
10
88.173758
20
193.748862
11
88.063595
21
193.679286
0
LINE
8
Layer 1
10
88.063595
20
193.679286
11
88.069700
21
193.693000
0
LINE
8
Layer 1
10
88.069700
20
193.693000
11
88.069660
21
193.693010
0
LINE
8
Layer 1
10
86.214970
20
192.548320
11
86.438854
21
192.729811
0
LINE
8
Layer 1
10
86.438854
20
192.729811
11
86.866516
21
192.931831
0
LINE
8
Layer 1
10
86.866516
20
192.931831
11
86.889602
21
192.929491
0
LINE
8
Layer 1
10
86.889602
20
192.929491
11
86.826249
21
192.864916
0
LINE
8
Layer 1
10
86.826249
20
192.864916
11
86.764600
21
192.824065
0
LINE
8
Layer 1
10
86.764600
20
192.824065
11
86.382311
21
192.587363
0
LINE
8
Layer 1
10
86.382311
20
192.587363
11
86.190022
21
192.494489
0
LINE
8
Layer 1
10
86.190022
20
192.494489
11
86.215000
21
192.548000
0
LINE
8
Layer 1
10
86.215000
20
192.548000
11
86.214970
21
192.548320
0
LINE
8
Layer 1
10
84.418100
20
191.550976
11
84.765549
21
191.780338
0
LINE
8
Layer 1
10
84.765549
20
191.780338
11
85.090285
21
191.958745
0
LINE
8
Layer 1
10
85.090285
20
191.958745
11
85.139538
21
191.950764
0
LINE
8
Layer 1
10
85.139538
20
191.950764
11
85.104913
21
191.914275
0
LINE
8
Layer 1
10
85.104913
20
191.914275
11
84.433000
21
191.502000
0
LINE
8
Layer 1
10
84.433000
20
191.502000
11
84.394437
21
191.495086
0
LINE
8
Layer 1
10
84.394437
20
191.495086
11
84.418100
21
191.550000
0
LINE
8
Layer 1
10
84.418100
20
191.550000
11
84.418100
21
191.550976
0
LINE
8
Layer 1
10
15.939600
20
160.114000
11
15.693480
21
160.301235
0
LINE
8
Layer 1
10
15.693480
20
160.301235
11
15.869225
21
160.208787
0
LINE
8
Layer 1
10
15.869225
20
160.208787
11
16.698218
21
159.674104
0
LINE
8
Layer 1
10
16.698218
20
159.674104
11
15.939600
21
160.114000
0
LINE
8
Layer 1
10
15.939600
20
160.114000
11
15.939600
21
160.114000
0
LINE
8
Layer 1
10
29.401300
20
150.777000
11
28.978052
21
151.057960
0
LINE
8
Layer 1
10
28.978052
20
151.057960
11
29.032202
21
151.063065
0
LINE
8
Layer 1
10
29.032202
20
151.063065
11
29.459599
21
150.775616
0
LINE
8
Layer 1
10
29.459599
20
150.775616
11
29.401300
21
150.777000
0
LINE
8
Layer 1
10
29.401300
20
150.777000
11
29.401300
21
150.777000
0
LINE
8
Layer 1
10
36.737510
20
145.895380
11
36.510914
21
145.911870
0
LINE
8
Layer 1
10
36.510914
20
145.911870
11
35.503834
21
146.442086
0
LINE
8
Layer 1
10
35.503834
20
146.442086
11
34.075694
21
147.643046
0
LINE
8
Layer 1
10
34.075694
20
147.643046
11
34.044367
21
147.725813
0
LINE
8
Layer 1
10
34.044367
20
147.725813
11
34.375165
21
147.593366
0
LINE
8
Layer 1
10
34.375165
20
147.593366
11
34.620698
21
147.434960
0
LINE
8
Layer 1
10
34.620698
20
147.434960
11
36.088248
21
146.432400
0
LINE
8
Layer 1
10
36.088248
20
146.432400
11
36.737500
21
145.895000
0
LINE
8
Layer 1
10
36.737500
20
145.895000
11
36.737510
21
145.895380
0
LINE
8
Layer 1
10
43.042650
20
141.093440
11
41.655300
21
141.978770
0
LINE
8
Layer 1
10
41.655300
20
141.978770
11
40.479230
21
142.849092
0
LINE
8
Layer 1
10
40.479230
20
142.849092
11
40.418112
21
143.022712
0
LINE
8
Layer 1
10
40.418112
20
143.022712
11
40.602050
21
142.950263
0
LINE
8
Layer 1
10
40.602050
20
142.950263
11
43.176530
21
141.196963
0
LINE
8
Layer 1
10
43.176530
20
141.196963
11
43.268817
21
141.077812
0
LINE
8
Layer 1
10
43.268817
20
141.077812
11
43.042700
21
141.093000
0
LINE
8
Layer 1
10
43.042700
20
141.093000
11
43.042650
21
141.093440
0
LINE
8
Layer 1
10
47.977780
20
39.381440
11
47.970863
21
39.549100
0
LINE
8
Layer 1
10
47.970863
20
39.549100
11
47.970016
21
40.385383
0
LINE
8
Layer 1
10
47.970016
20
40.385383
11
47.986772
21
39.642930
0
LINE
8
Layer 1
10
47.986772
20
39.642930
11
47.977800
21
39.381500
0
LINE
8
Layer 1
10
47.977800
20
39.381500
11
47.977780
21
39.381440
0
LINE
8
Layer 1
10
48.212462
20
53.095540
11
48.197566
21
53.131602
0
LINE
8
Layer 1
10
48.197566
20
53.131602
11
48.202248
21
53.568307
0
LINE
8
Layer 1
10
48.202248
20
53.568307
11
48.215812
21
53.526180
0
LINE
8
Layer 1
10
48.215812
20
53.526180
11
48.212462
21
53.095540
0
LINE
8
Layer 1
10
48.378691
20
59.866850
11
48.265819
21
58.296850
0
LINE
8
Layer 1
10
48.265819
20
58.296850
11
48.241297
21
58.236426
0
LINE
8
Layer 1
10
48.241297
20
58.236426
11
48.209756
21
58.532703
0
LINE
8
Layer 1
10
48.209756
20
58.532703
11
48.209860
21
58.780471
0
LINE
8
Layer 1
10
48.209860
20
58.780471
11
48.232892
21
60.286861
0
LINE
8
Layer 1
10
48.232892
20
60.286861
11
48.280819
21
60.996438
0
LINE
8
Layer 1
10
48.280819
20
60.996438
11
48.332680
21
60.827714
0
LINE
8
Layer 1
10
48.332680
20
60.827714
11
48.378700
21
59.867000
0
LINE
8
Layer 1
10
48.378700
20
59.867000
11
48.378691
21
59.866850
0
LINE
8
Layer 1
10
48.599755
20
66.301670
11
48.548639
21
65.063580
0
LINE
8
Layer 1
10
48.548639
20
65.063580
11
48.492307
21
64.939967
0
LINE
8
Layer 1
10
48.492307
20
64.939967
11
48.473478
21
65.104220
0
LINE
8
Layer 1
10
48.473478
20
65.104220
11
48.519762
21
67.744230
0
LINE
8
Layer 1
10
48.519762
20
67.744230
11
48.545664
21
67.864871
0
LINE
8
Layer 1
10
48.545664
20
67.864871
11
48.600878
21
67.696890
0
LINE
8
Layer 1
10
48.600878
20
67.696890
11
48.599800
21
66.301800
0
LINE
8
Layer 1
10
48.599800
20
66.301800
11
48.599755
21
66.301670
0
LINE
8
Layer 1
10
16.862300
20
158.631000
11
17.435770
21
158.278089
0
LINE
8
Layer 1
10
17.435770
20
158.278089
11
17.884170
21
158.185371
0
LINE
8
Layer 1
10
17.884170
20
158.185371
11
15.183680
21
159.912831
0
LINE
8
Layer 1
10
15.183680
20
159.912831
11
14.077130
21
160.641345
0
LINE
8
Layer 1
10
14.077130
20
160.641345
11
13.806118
21
160.782738
0
LINE
8
Layer 1
10
13.806118
20
160.782738
11
14.033724
21
160.579651
0
LINE
8
Layer 1
10
14.033724
20
160.579651
11
16.862300
21
158.631000
0
LINE
8
Layer 1
10
16.862300
20
158.631000
11
16.862300
21
158.631000
0
LINE
8
Layer 1
10
2.297100
20
168.544000
11
2.435877
21
168.454745
0
LINE
8
Layer 1
10
2.435877
20
168.454745
11
2.437632
21
168.453785
0
LINE
8
Layer 1
10
2.437632
20
168.453785
11
2.396247
21
168.480808
0
LINE
8
Layer 1
10
2.396247
20
168.480808
11
2.297100
21
168.544000
0
LINE
8
Layer 1
10
2.297100
20
168.544000
11
2.297100
21
168.544000
0
LINE
8
Layer 1
10
1.472250
20
169.071000
11
1.803263
21
168.858552
0
LINE
8
Layer 1
10
1.803263
20
168.858552
11
2.297095
21
168.543976
0
LINE
8
Layer 1
10
2.297095
20
168.543976
11
1.853315
21
168.829302
0
LINE
8
Layer 1
10
1.853315
20
168.829302
11
1.505821
21
169.050163
0
LINE
8
Layer 1
10
1.505821
20
169.050163
11
1.472250
21
169.071000
0
LINE
8
Layer 1
10
1.472250
20
169.071000
11
1.472250
21
169.071000
0
LINE
8
Layer 1
10
25.019400
20
153.106000
11
24.885675
21
153.170575
0
LINE
8
Layer 1
10
24.885675
20
153.170575
11
25.052750
21
153.041213
0
LINE
8
Layer 1
10
25.052750
20
153.041213
11
25.237380
21
152.928764
0
LINE
8
Layer 1
10
25.237380
20
152.928764
11
25.019400
21
153.106000
0
LINE
8
Layer 1
10
25.019400
20
153.106000
11
25.019400
21
153.106000
 0 
ENDSEC
 0 
EOF