999
"DXF R12 Output" (www.mydxf.blogspot.com)
 0 
SECTION
 2 
HEADER
 9 
$ACADVER
 1 
AC1009
 9 
$EXTMIN
 10 
 0 
 20 
 0 
 9 
$EXTMAX
 10 
 8.5 
 20 
 11 
 0 
ENDSEC
 0 
SECTION
 2 
ENTITIES
0
LINE
8
Layer 1
10
115.461000
20
51.625300
11
115.543553
21
51.565469
0
LINE
8
Layer 1
10
115.543553
20
51.565469
11
115.753554
21
51.415891
0
LINE
8
Layer 1
10
115.753554
20
51.415891
11
115.466534
21
51.621631
0
LINE
8
Layer 1
10
115.466534
20
51.621631
11
115.461000
21
51.625300
0
LINE
8
Layer 1
10
119.343000
20
131.428000
11
119.289378
21
132.957340
0
LINE
8
Layer 1
10
119.289378
20
132.957340
11
119.234695
21
134.493780
0
LINE
8
Layer 1
10
119.234695
20
134.493780
11
119.207037
21
135.264686
0
LINE
8
Layer 1
10
119.207037
20
135.264686
11
119.193208
21
135.650780
0
LINE
8
Layer 1
10
119.193208
20
135.650780
11
119.189593
21
135.747376
0
LINE
8
Layer 1
10
119.189593
20
135.747376
11
119.187899
21
135.795701
0
LINE
8
Layer 1
10
119.187899
20
135.795701
11
119.187053
21
135.819851
0
LINE
8
Layer 1
10
119.187053
20
135.819851
11
119.186206
21
135.831100
0
LINE
8
Layer 1
10
119.186206
20
135.831100
11
119.176207
21
135.824397
0
LINE
8
Layer 1
10
119.176207
20
135.824397
11
119.017271
21
135.717082
0
LINE
8
Layer 1
10
119.017271
20
135.717082
11
116.460231
21
133.991412
0
LINE
8
Layer 1
10
116.460231
20
133.991412
11
113.818731
21
132.170152
0
LINE
8
Layer 1
10
113.818731
20
132.170152
11
112.473411
21
131.233175
0
LINE
8
Layer 1
10
112.473411
20
131.233175
11
111.798088
21
130.762906
0
LINE
8
Layer 1
10
111.798088
20
130.762906
11
111.379000
21
130.478000
0
LINE
8
Layer 1
10
111.379000
20
130.478000
11
108.206000
21
128.325110
0
LINE
8
Layer 1
10
108.206000
20
128.325110
11
90.838400
21
116.530000
0
LINE
8
Layer 1
10
90.838400
20
116.530000
11
88.432640
21
114.891640
0
LINE
8
Layer 1
10
88.432640
20
114.891640
11
74.840040
21
132.406240
0
LINE
8
Layer 1
10
74.840040
20
132.406240
11
65.185100
21
144.222140
0
LINE
8
Layer 1
10
65.185100
20
144.222140
11
64.497012
21
145.049564
0
LINE
8
Layer 1
10
64.497012
20
145.049564
11
69.563422
21
152.673964
0
LINE
8
Layer 1
10
69.563422
20
152.673964
11
77.731332
21
164.885564
0
LINE
8
Layer 1
10
77.731332
20
164.885564
11
82.896200
21
172.522000
0
LINE
8
Layer 1
10
82.896200
20
172.522000
11
90.184540
21
183.558300
0
LINE
8
Layer 1
10
90.184540
20
183.558300
11
93.394980
21
188.543190
0
LINE
8
Layer 1
10
93.394980
20
188.543190
11
94.189716
21
189.708179
0
LINE
8
Layer 1
10
94.189716
20
189.708179
11
93.014339
21
188.191166
0
LINE
8
Layer 1
10
93.014339
20
188.191166
11
90.161769
21
184.651276
0
LINE
8
Layer 1
10
90.161769
20
184.651276
11
82.753439
21
175.536256
0
LINE
8
Layer 1
10
82.753439
20
175.536256
11
73.642749
21
164.453956
0
LINE
8
Layer 1
10
73.642749
20
164.453956
11
63.146549
21
151.885256
0
LINE
8
Layer 1
10
63.146549
20
151.885256
11
60.975259
21
149.283596
0
LINE
8
Layer 1
10
60.975259
20
149.283596
11
55.799269
21
155.506766
0
LINE
8
Layer 1
10
55.799269
20
155.506766
11
46.439009
21
166.830266
0
LINE
8
Layer 1
10
46.439009
20
166.830266
11
40.601959
21
173.966176
0
LINE
8
Layer 1
10
40.601959
20
173.966176
11
32.115539
21
184.110276
0
LINE
8
Layer 1
10
32.115539
20
184.110276
11
28.259139
21
188.613976
0
LINE
8
Layer 1
10
28.259139
20
188.613976
11
27.370678
21
189.709256
0
LINE
8
Layer 1
10
27.370678
20
189.709256
11
28.487440
21
188.148547
0
LINE
8
Layer 1
10
28.487440
20
188.148547
11
31.061920
21
184.401617
0
LINE
8
Layer 1
10
31.061920
20
184.401617
11
37.673020
21
174.692737
0
LINE
8
Layer 1
10
37.673020
20
174.692737
11
45.681350
21
162.789537
0
LINE
8
Layer 1
10
45.681350
20
162.789537
11
54.716930
21
149.132837
0
LINE
8
Layer 1
10
54.716930
20
149.132837
11
57.429930
21
145.035257
0
LINE
8
Layer 1
10
57.429930
20
145.035257
11
55.963540
21
143.278227
0
LINE
8
Layer 1
10
55.963540
20
143.278227
11
51.555010
21
137.968817
0
LINE
8
Layer 1
10
51.555010
20
137.968817
11
45.712210
21
130.860727
0
LINE
8
Layer 1
10
45.712210
20
130.860727
11
41.039210
21
125.009157
0
LINE
8
Layer 1
10
41.039210
20
125.009157
11
36.554080
21
119.383677
0
LINE
8
Layer 1
10
36.554080
20
119.383677
11
32.387680
21
113.932217
0
LINE
8
Layer 1
10
32.387680
20
113.932217
11
32.291510
21
113.805355
0
LINE
8
Layer 1
10
32.291510
20
113.805355
11
29.224260
21
116.053215
0
LINE
8
Layer 1
10
29.224260
20
116.053215
11
27.125152
21
117.632319
0
LINE
8
Layer 1
10
27.125152
20
117.632319
11
25.184670
21
119.279455
0
LINE
8
Layer 1
10
25.184670
20
119.279455
11
23.927220
21
120.259858
0
LINE
8
Layer 1
10
23.927220
20
120.259858
11
19.197590
21
123.766232
0
LINE
8
Layer 1
10
19.197590
20
123.766232
11
14.535700
21
127.322000
0
LINE
8
Layer 1
10
14.535700
20
127.322000
11
12.177170
21
129.096820
0
LINE
8
Layer 1
10
12.177170
20
129.096820
11
11.567593
21
129.564295
0
LINE
8
Layer 1
10
11.567593
20
129.564295
11
10.618015
21
130.279005
0
LINE
8
Layer 1
10
10.618015
20
130.279005
11
8.702475
21
131.719335
0
LINE
8
Layer 1
10
8.702475
20
131.719335
11
6.766295
21
133.164895
0
LINE
8
Layer 1
10
6.766295
20
133.164895
11
4.857565
21
134.502185
0
LINE
8
Layer 1
10
4.857565
20
134.502185
11
2.958835
21
135.802855
0
LINE
8
Layer 1
10
2.958835
20
135.802855
11
2.022022
21
136.430624
0
LINE
8
Layer 1
10
2.022022
20
136.430624
11
1.905639
21
136.507752
0
LINE
8
Layer 1
10
1.905639
20
136.507752
11
1.847767
21
136.546183
0
LINE
8
Layer 1
10
1.847767
20
136.546183
11
1.818830
21
136.565360
0
LINE
8
Layer 1
10
1.818830
20
136.565360
11
1.800531
21
136.563762
0
LINE
8
Layer 1
10
1.800531
20
136.563762
11
1.804575
21
136.257938
0
LINE
8
Layer 1
10
1.804575
20
136.257938
11
1.815001
21
135.644531
0
LINE
8
Layer 1
10
1.815001
20
135.644531
11
1.719045
21
133.297121
0
LINE
8
Layer 1
10
1.719045
20
133.297121
11
1.519683
21
125.150141
0
LINE
8
Layer 1
10
1.519683
20
125.150141
11
1.465852
21
122.389441
0
LINE
8
Layer 1
10
1.465852
20
122.389441
11
1.450959
21
119.820491
0
LINE
8
Layer 1
10
1.450959
20
119.820491
11
1.442021
21
117.664951
0
LINE
8
Layer 1
10
1.442021
20
117.664951
11
0.846061
21
96.196951
0
LINE
8
Layer 1
10
0.846061
20
96.196951
11
0.357123
21
73.584951
0
LINE
8
Layer 1
10
0.357123
20
73.584951
11
0.177348
21
61.723851
0
LINE
8
Layer 1
10
0.177348
20
61.723851
11
0.140541
21
58.741611
0
LINE
8
Layer 1
10
0.140541
20
58.741611
11
0.104092
21
53.034200
0
LINE
8
Layer 1
10
0.104092
20
53.034200
11
0.054094
21
47.251100
0
LINE
8
Layer 1
10
0.054094
20
47.251100
11
0.023667
21
44.330800
0
LINE
8
Layer 1
10
0.023667
20
44.330800
11
0.008145
21
42.866110
0
LINE
8
Layer 1
10
0.008145
20
42.866110
11
0.000485
21
42.132649
0
LINE
8
Layer 1
10
0.000485
20
42.132649
11
0.011975
21
42.132649
0
LINE
8
Layer 1
10
0.011975
20
42.132649
11
0.030274
21
42.145786
0
LINE
8
Layer 1
10
0.030274
20
42.145786
11
0.066444
21
42.172064
0
LINE
8
Layer 1
10
0.066444
20
42.172064
11
0.139212
21
42.224557
0
LINE
8
Layer 1
10
0.139212
20
42.224557
11
0.284743
21
42.329611
0
LINE
8
Layer 1
10
0.284743
20
42.329611
11
0.575595
21
42.539824
0
LINE
8
Layer 1
10
0.575595
20
42.539824
11
5.268595
21
45.952714
0
LINE
8
Layer 1
10
5.268595
20
45.952714
11
9.946705
21
49.308954
0
LINE
8
Layer 1
10
9.946705
20
49.308954
11
12.783315
21
51.313384
0
LINE
8
Layer 1
10
12.783315
20
51.313384
11
13.873535
21
52.080407
0
LINE
8
Layer 1
10
13.873535
20
52.080407
11
14.606093
21
52.590252
0
LINE
8
Layer 1
10
14.606093
20
52.590252
11
17.531423
21
54.639732
0
LINE
8
Layer 1
10
17.531423
20
54.639732
11
23.356563
21
58.784112
0
LINE
8
Layer 1
10
23.356563
20
58.784112
11
34.944463
21
67.176862
0
LINE
8
Layer 1
10
34.944463
20
67.176862
11
37.741923
21
69.223442
0
LINE
8
Layer 1
10
37.741923
20
69.223442
11
39.692143
21
66.873692
0
LINE
8
Layer 1
10
39.692143
20
66.873692
11
40.747654
21
65.527082
0
LINE
8
Layer 1
10
40.747654
20
65.527082
11
41.873853
21
64.231652
0
LINE
8
Layer 1
10
41.873853
20
64.231652
11
43.637068
21
62.231939
0
LINE
8
Layer 1
10
43.637068
20
62.231939
11
45.073233
21
59.985782
0
LINE
8
Layer 1
10
45.073233
20
59.985782
11
45.713030
21
59.082799
0
LINE
8
Layer 1
10
45.713030
20
59.082799
11
47.151760
21
57.283749
0
LINE
8
Layer 1
10
47.151760
20
57.283749
11
53.821150
21
48.995009
0
LINE
8
Layer 1
10
53.821150
20
48.995009
11
55.827120
21
46.554409
0
LINE
8
Layer 1
10
55.827120
20
46.554409
11
57.285850
21
44.749109
0
LINE
8
Layer 1
10
57.285850
20
44.749109
11
56.813932
21
44.011793
0
LINE
8
Layer 1
10
56.813932
20
44.011793
11
54.174562
21
39.959913
0
LINE
8
Layer 1
10
54.174562
20
39.959913
11
50.270502
21
34.268983
0
LINE
8
Layer 1
10
50.270502
20
34.268983
11
48.670492
21
31.890193
0
LINE
8
Layer 1
10
48.670492
20
31.890193
11
46.501332
21
28.603473
0
LINE
8
Layer 1
10
46.501332
20
28.603473
11
46.030478
21
27.887405
0
LINE
8
Layer 1
10
46.030478
20
27.887405
11
44.180468
21
25.004675
0
LINE
8
Layer 1
10
44.180468
20
25.004675
11
42.338968
21
22.144075
0
LINE
8
Layer 1
10
42.338968
20
22.144075
11
40.404708
21
19.320445
0
LINE
8
Layer 1
10
40.404708
20
19.320445
11
39.629385
21
18.130915
0
LINE
8
Layer 1
10
39.629385
20
18.130915
11
36.830645
21
13.864195
0
LINE
8
Layer 1
10
36.830645
20
13.864195
11
35.077865
21
11.250725
0
LINE
8
Layer 1
10
35.077865
20
11.250725
11
33.169555
21
8.418535
0
LINE
8
Layer 1
10
33.169555
20
8.418535
11
30.436355
21
4.418145
0
LINE
8
Layer 1
10
30.436355
20
4.418145
11
30.180397
21
4.030112
0
LINE
8
Layer 1
10
30.180397
20
4.030112
11
29.825080
21
3.441436
0
LINE
8
Layer 1
10
29.825080
20
3.441436
11
28.521030
21
1.610316
0
LINE
8
Layer 1
10
28.521030
20
1.610316
11
28.124858
21
1.039099
0
LINE
8
Layer 1
10
28.124858
20
1.039099
11
28.823798
21
1.974899
0
LINE
8
Layer 1
10
28.823798
20
1.974899
11
31.518068
21
5.599599
0
LINE
8
Layer 1
10
31.518068
20
5.599599
11
33.382758
21
8.129979
0
LINE
8
Layer 1
10
33.382758
20
8.129979
11
34.885958
21
10.166799
0
LINE
8
Layer 1
10
34.885958
20
10.166799
11
37.821288
21
14.214429
0
LINE
8
Layer 1
10
37.821288
20
14.214429
11
38.614273
21
15.194913
0
LINE
8
Layer 1
10
38.614273
20
15.194913
11
39.239381
21
15.947576
0
LINE
8
Layer 1
10
39.239381
20
15.947576
11
40.215770
21
17.284976
0
LINE
8
Layer 1
10
40.215770
20
17.284976
11
41.931520
21
19.533556
0
LINE
8
Layer 1
10
41.931520
20
19.533556
11
42.443225
21
20.172507
0
LINE
8
Layer 1
10
42.443225
20
20.172507
11
42.230485
21
19.530149
0
LINE
8
Layer 1
10
42.230485
20
19.530149
11
41.970032
21
18.858507
0
LINE
8
Layer 1
10
41.970032
20
18.858507
11
43.142592
21
20.280857
0
LINE
8
Layer 1
10
43.142592
20
20.280857
11
44.494942
21
21.946717
0
LINE
8
Layer 1
10
44.494942
20
21.946717
11
44.358985
21
21.960904
0
LINE
8
Layer 1
10
44.358985
20
21.960904
11
44.286219
21
22.045213
0
LINE
8
Layer 1
10
44.286219
20
22.045213
11
44.684731
21
22.671069
0
LINE
8
Layer 1
10
44.684731
20
22.671069
11
45.923681
21
24.200219
0
LINE
8
Layer 1
10
45.923681
20
24.200219
11
48.038371
21
26.819169
0
LINE
8
Layer 1
10
48.038371
20
26.819169
11
48.673904
21
27.732473
0
LINE
8
Layer 1
10
48.673904
20
27.732473
11
50.206326
21
29.684052
0
LINE
8
Layer 1
10
50.206326
20
29.684052
11
51.883074
21
31.513123
0
LINE
8
Layer 1
10
51.883074
20
31.513123
11
52.931278
21
32.574409
0
LINE
8
Layer 1
10
52.931278
20
32.574409
11
53.811594
21
33.778613
0
LINE
8
Layer 1
10
53.811594
20
33.778613
11
55.031384
21
35.291123
0
LINE
8
Layer 1
10
55.031384
20
35.291123
11
56.163944
21
36.846183
0
LINE
8
Layer 1
10
56.163944
20
36.846183
11
56.914372
21
38.139323
0
LINE
8
Layer 1
10
56.914372
20
38.139323
11
57.685654
21
38.891560
0
LINE
8
Layer 1
10
57.685654
20
38.891560
11
58.605658
21
39.866829
0
LINE
8
Layer 1
10
58.605658
20
39.866829
11
59.912468
21
41.447839
0
LINE
8
Layer 1
10
59.912468
20
41.447839
11
60.455875
21
40.817465
0
LINE
8
Layer 1
10
60.455875
20
40.817465
11
63.581845
21
37.128035
0
LINE
8
Layer 1
10
63.581845
20
37.128035
11
67.916125
21
31.757425
0
LINE
8
Layer 1
10
67.916125
20
31.757425
11
69.736775
21
29.543055
0
LINE
8
Layer 1
10
69.736775
20
29.543055
11
72.264445
21
26.523355
0
LINE
8
Layer 1
10
72.264445
20
26.523355
11
72.815723
21
25.867076
0
LINE
8
Layer 1
10
72.815723
20
25.867076
11
75.047653
21
23.268816
0
LINE
8
Layer 1
10
75.047653
20
23.268816
11
77.261063
21
20.685076
0
LINE
8
Layer 1
10
77.261063
20
20.685076
11
79.412353
21
18.023156
0
LINE
8
Layer 1
10
79.412353
20
18.023156
11
80.329806
21
16.939586
0
LINE
8
Layer 1
10
80.329806
20
16.939586
11
83.616206
21
13.035896
0
LINE
8
Layer 1
10
83.616206
20
13.035896
11
85.617916
21
10.608066
0
LINE
8
Layer 1
10
85.617916
20
10.608066
11
87.784946
21
7.968426
0
LINE
8
Layer 1
10
87.784946
20
7.968426
11
90.834746
21
4.203776
0
LINE
8
Layer 1
10
90.834746
20
4.203776
11
91.133258
21
3.847496
0
LINE
8
Layer 1
10
91.133258
20
3.847496
11
91.595388
21
3.338452
0
LINE
8
Layer 1
10
91.595388
20
3.338452
11
92.976248
21
1.564562
0
LINE
8
Layer 1
10
92.976248
20
1.564562
11
93.409656
21
1.021821
0
LINE
8
Layer 1
10
93.409656
20
1.021821
11
92.713697
21
1.959032
0
LINE
8
Layer 1
10
92.713697
20
1.959032
11
90.012617
21
5.578532
0
LINE
8
Layer 1
10
90.012617
20
5.578532
11
88.122397
21
8.089922
0
LINE
8
Layer 1
10
88.122397
20
8.089922
11
86.601537
21
10.113652
0
LINE
8
Layer 1
10
86.601537
20
10.113652
11
83.564300
21
14.085300
0
LINE
8
Layer 1
10
83.564300
20
14.085300
11
82.852166
21
15.126000
0
LINE
8
Layer 1
10
82.852166
20
15.126000
11
82.310037
21
15.940580
0
LINE
8
Layer 1
10
82.310037
20
15.940580
11
81.308327
21
17.259040
0
LINE
8
Layer 1
10
81.308327
20
17.259040
11
79.645337
21
19.547140
0
LINE
8
Layer 1
10
79.645337
20
19.547140
11
79.179803
21
20.220282
0
LINE
8
Layer 1
10
79.179803
20
20.220282
11
79.734327
21
19.832541
0
LINE
8
Layer 1
10
79.734327
20
19.832541
11
80.303213
21
19.390549
0
LINE
8
Layer 1
10
80.303213
20
19.390549
11
79.276403
21
20.921359
0
LINE
8
Layer 1
10
79.276403
20
20.921359
11
78.067673
21
22.694189
0
LINE
8
Layer 1
10
78.067673
20
22.694189
11
78.015119
21
22.568070
0
LINE
8
Layer 1
10
78.015119
20
22.568070
11
77.913416
21
22.522539
0
LINE
8
Layer 1
10
77.913416
20
22.522539
11
77.428096
21
23.083596
0
LINE
8
Layer 1
10
77.428096
20
23.083596
11
76.317876
21
24.708556
0
LINE
8
Layer 1
10
76.317876
20
24.708556
11
74.414456
21
27.484956
0
LINE
8
Layer 1
10
74.414456
20
27.484956
11
73.721262
21
28.355388
0
LINE
8
Layer 1
10
73.721262
20
28.355388
11
72.290480
21
30.382669
0
LINE
8
Layer 1
10
72.290480
20
30.382669
11
71.018482
21
32.513168
0
LINE
8
Layer 1
10
71.018482
20
32.513168
11
70.301771
21
33.821372
0
LINE
8
Layer 1
10
70.301771
20
33.821372
11
69.400172
21
35.009728
0
LINE
8
Layer 1
10
69.400172
20
35.009728
11
68.300592
21
36.611648
0
LINE
8
Layer 1
10
68.300592
20
36.611648
11
67.135052
21
38.142238
0
LINE
8
Layer 1
10
67.135052
20
38.142238
11
66.111002
21
39.231548
0
LINE
8
Layer 1
10
66.111002
20
39.231548
11
65.611212
21
40.186023
0
LINE
8
Layer 1
10
65.611212
20
40.186023
11
64.940370
21
41.346883
0
LINE
8
Layer 1
10
64.940370
20
41.346883
11
63.925389
21
42.838106
0
LINE
8
Layer 1
10
63.925389
20
42.838106
11
63.072270
21
44.427483
0
LINE
8
Layer 1
10
63.072270
20
44.427483
11
62.848014
21
44.863603
0
LINE
8
Layer 1
10
62.848014
20
44.863603
11
63.762696
21
46.085203
0
LINE
8
Layer 1
10
63.762696
20
46.085203
11
64.639193
21
47.179118
0
LINE
8
Layer 1
10
64.639193
20
47.179118
11
65.606326
21
48.146653
0
LINE
8
Layer 1
10
65.606326
20
48.146653
11
66.160158
21
48.793892
0
LINE
8
Layer 1
10
66.160158
20
48.793892
11
68.091261
21
51.270818
0
LINE
8
Layer 1
10
68.091261
20
51.270818
11
70.078688
21
53.688862
0
LINE
8
Layer 1
10
70.078688
20
53.688862
11
72.074843
21
56.125611
0
LINE
8
Layer 1
10
72.074843
20
56.125611
11
73.972538
21
58.651842
0
LINE
8
Layer 1
10
73.972538
20
58.651842
11
74.537436
21
59.267910
0
LINE
8
Layer 1
10
74.537436
20
59.267910
11
77.992986
21
63.478860
0
LINE
8
Layer 1
10
77.992986
20
63.478860
11
78.687032
21
64.395647
0
LINE
8
Layer 1
10
78.687032
20
64.395647
11
85.285152
21
72.352787
0
LINE
8
Layer 1
10
85.285152
20
72.352787
11
91.540932
21
68.085687
0
LINE
8
Layer 1
10
91.540932
20
68.085687
11
96.406702
21
64.758887
0
LINE
8
Layer 1
10
96.406702
20
64.758887
11
101.683322
21
61.141977
0
LINE
8
Layer 1
10
101.683322
20
61.141977
11
109.153362
21
55.983807
0
LINE
8
Layer 1
10
109.153362
20
55.983807
11
109.873790
21
55.495588
0
LINE
8
Layer 1
10
109.873790
20
55.495588
11
110.952520
21
54.797791
0
LINE
8
Layer 1
10
110.952520
20
54.797791
11
114.394880
21
52.367621
0
LINE
8
Layer 1
10
114.394880
20
52.367621
11
115.461270
21
51.625276
0
LINE
8
Layer 1
10
115.461270
20
51.625276
11
113.690610
21
52.907786
0
LINE
8
Layer 1
10
113.690610
20
52.907786
11
106.827170
21
57.865576
0
LINE
8
Layer 1
10
106.827170
20
57.865576
11
102.042890
21
61.305676
0
LINE
8
Layer 1
10
102.042890
20
61.305676
11
98.190530
21
64.077766
0
LINE
8
Layer 1
10
98.190530
20
64.077766
11
94.392719
21
66.862424
0
LINE
8
Layer 1
10
94.392719
20
66.862424
11
90.558360
21
69.518456
0
LINE
8
Layer 1
10
90.558360
20
69.518456
11
88.673680
21
70.943566
0
LINE
8
Layer 1
10
88.673680
20
70.943566
11
87.219630
21
72.058906
0
LINE
8
Layer 1
10
87.219630
20
72.058906
11
85.834090
21
73.016942
0
LINE
8
Layer 1
10
85.834090
20
73.016942
11
86.000037
21
73.217822
0
LINE
8
Layer 1
10
86.000037
20
73.217822
11
90.586867
21
69.919802
0
LINE
8
Layer 1
10
90.586867
20
69.919802
11
92.743257
21
68.351572
0
LINE
8
Layer 1
10
92.743257
20
68.351572
11
93.262622
21
68.024869
0
LINE
8
Layer 1
10
93.262622
20
68.024869
11
92.806450
21
68.429951
0
LINE
8
Layer 1
10
92.806450
20
68.429951
11
87.273450
21
72.572501
0
LINE
8
Layer 1
10
87.273450
20
72.572501
11
86.122810
21
73.368116
0
LINE
8
Layer 1
10
86.122810
20
73.368116
11
93.601360
21
82.604806
0
LINE
8
Layer 1
10
93.601360
20
82.604806
11
97.464360
21
87.494646
0
LINE
8
Layer 1
10
97.464360
20
87.494646
11
99.430540
21
90.013936
0
LINE
8
Layer 1
10
99.430540
20
90.013936
11
101.275870
21
92.424216
0
LINE
8
Layer 1
10
101.275870
20
92.424216
11
103.271000
21
94.855200
0
LINE
8
Layer 1
10
103.271000
20
94.855200
11
103.030575
21
95.161213
0
LINE
8
Layer 1
10
103.030575
20
95.161213
11
102.045251
21
96.404993
0
LINE
8
Layer 1
10
102.045251
20
96.404993
11
101.548013
21
97.028108
0
LINE
8
Layer 1
10
101.548013
20
97.028108
11
101.064606
21
97.651381
0
LINE
8
Layer 1
10
101.064606
20
97.651381
11
100.145880
21
98.899081
0
LINE
8
Layer 1
10
100.145880
20
98.899081
11
99.690983
21
99.524987
0
LINE
8
Layer 1
10
99.690983
20
99.524987
11
99.464810
21
99.838925
0
LINE
8
Layer 1
10
99.464810
20
99.838925
11
99.333108
21
100.028578
0
LINE
8
Layer 1
10
99.333108
20
100.028578
11
95.841737
21
104.991207
0
LINE
8
Layer 1
10
95.841737
20
104.991207
11
92.231798
21
109.876428
0
LINE
8
Layer 1
10
92.231798
20
109.876428
11
95.924798
21
112.702668
0
LINE
8
Layer 1
10
95.924798
20
112.702668
11
106.828898
21
121.069328
0
LINE
8
Layer 1
10
106.828898
20
121.069328
11
112.276588
21
125.257248
0
LINE
8
Layer 1
10
112.276588
20
125.257248
11
114.558938
21
127.006328
0
LINE
8
Layer 1
10
114.558938
20
127.006328
11
114.781919
21
127.168961
0
LINE
8
Layer 1
10
114.781919
20
127.168961
11
114.905323
21
127.275291
0
LINE
8
Layer 1
10
114.905323
20
127.275291
11
115.036813
21
127.400665
0
LINE
8
Layer 1
10
115.036813
20
127.400665
11
115.171921
21
127.528164
0
LINE
8
Layer 1
10
115.171921
20
127.528164
11
115.240645
21
127.592660
0
LINE
8
Layer 1
10
115.240645
20
127.592660
11
115.248516
21
127.599388
0
LINE
8
Layer 1
10
115.248516
20
127.599388
11
115.250006
21
127.591249
0
LINE
8
Layer 1
10
115.250006
20
127.591249
11
115.252772
21
127.574880
0
LINE
8
Layer 1
10
115.252772
20
127.574880
11
115.258089
21
127.541956
0
LINE
8
Layer 1
10
115.258089
20
127.541956
11
115.301283
21
127.268576
0
LINE
8
Layer 1
10
115.301283
20
127.268576
11
115.318730
21
127.122949
0
LINE
8
Layer 1
10
115.318730
20
127.122949
11
115.292766
21
126.943851
0
LINE
8
Layer 1
10
115.292766
20
126.943851
11
115.241063
21
126.574648
0
LINE
8
Layer 1
10
115.241063
20
126.574648
11
115.419789
21
119.731658
0
LINE
8
Layer 1
10
115.419789
20
119.731658
11
115.796386
21
105.978058
0
LINE
8
Layer 1
10
115.796386
20
105.978058
11
116.215325
21
88.712358
0
LINE
8
Layer 1
10
116.215325
20
88.712358
11
116.962350
21
63.956958
0
LINE
8
Layer 1
10
116.962350
20
63.956958
11
117.365117
21
52.866858
0
LINE
8
Layer 1
10
117.365117
20
52.866858
11
117.423415
21
50.225298
0
LINE
8
Layer 1
10
117.423415
20
50.225298
11
117.340862
21
50.284074
0
LINE
8
Layer 1
10
117.340862
20
50.284074
11
116.697029
21
50.744768
0
LINE
8
Layer 1
10
116.697029
20
50.744768
11
115.754258
21
51.415892
0
LINE
8
Layer 1
10
115.754258
20
51.415892
11
116.600218
21
50.809930
0
LINE
8
Layer 1
10
116.600218
20
50.809930
11
117.423414
21
50.225273
0
LINE
8
Layer 1
10
117.423414
20
50.225273
11
117.423000
21
50.225300
0
LINE
8
Layer 1
10
117.423000
20
50.225300
11
117.459596
21
53.822260
0
LINE
8
Layer 1
10
117.459596
20
53.822260
11
117.633002
21
62.339010
0
LINE
8
Layer 1
10
117.633002
20
62.339010
11
118.130026
21
84.340110
0
LINE
8
Layer 1
10
118.130026
20
84.340110
11
118.817262
21
111.205110
0
LINE
8
Layer 1
10
118.817262
20
111.205110
11
119.269181
21
126.526310
0
LINE
8
Layer 1
10
119.269181
20
126.526310
11
119.326413
21
129.789440
0
LINE
8
Layer 1
10
119.326413
20
129.789440
11
119.340882
21
130.617688
0
LINE
8
Layer 1
10
119.340882
20
130.617688
11
119.343000
21
131.428000
0
LINE
8
Layer 1
10
119.343000
20
131.428000
11
119.343000
21
131.428000
0
LINE
8
Layer 1
10
37.876000
20
15.014700
11
37.654295
21
14.766827
0
LINE
8
Layer 1
10
37.654295
20
14.766827
11
37.761105
21
14.951934
0
LINE
8
Layer 1
10
37.761105
20
14.951934
11
38.387920
21
15.805503
0
LINE
8
Layer 1
10
38.387920
20
15.805503
11
37.876000
21
15.014700
0
LINE
8
Layer 1
10
37.876000
20
15.014700
11
37.876000
21
15.014700
0
LINE
8
Layer 1
10
48.871800
20
28.747200
11
48.541798
21
28.312942
0
LINE
8
Layer 1
10
48.541798
20
28.312942
11
48.532863
21
28.376614
0
LINE
8
Layer 1
10
48.532863
20
28.376614
11
48.870736
21
28.814383
0
LINE
8
Layer 1
10
48.870736
20
28.814383
11
48.871800
21
28.747200
0
LINE
8
Layer 1
10
48.871800
20
28.747200
11
48.871800
21
28.747200
0
LINE
8
Layer 1
10
54.596510
20
36.012880
11
53.983524
21
34.952500
0
LINE
8
Layer 1
10
53.983524
20
34.952500
11
52.554794
21
33.536960
0
LINE
8
Layer 1
10
52.554794
20
33.536960
11
52.453304
21
33.516959
0
LINE
8
Layer 1
10
52.453304
20
33.516959
11
52.602667
21
33.873451
0
LINE
8
Layer 1
10
52.602667
20
33.873451
11
52.788411
21
34.126271
0
LINE
8
Layer 1
10
52.788411
20
34.126271
11
53.967991
21
35.626381
0
LINE
8
Layer 1
10
53.967991
20
35.626381
11
54.378897
21
36.153093
0
LINE
8
Layer 1
10
54.378897
20
36.153093
11
54.606292
21
36.271651
0
LINE
8
Layer 1
10
54.606292
20
36.271651
11
54.596500
21
36.012900
0
LINE
8
Layer 1
10
54.596500
20
36.012900
11
54.596510
21
36.012880
0
LINE
8
Layer 1
10
82.813210
20
14.366980
11
82.987253
21
14.083629
0
LINE
8
Layer 1
10
82.987253
20
14.083629
11
82.840444
21
14.238950
0
LINE
8
Layer 1
10
82.840444
20
14.238950
11
82.202357
21
15.084112
0
LINE
8
Layer 1
10
82.202357
20
15.084112
11
82.813200
21
14.367000
0
LINE
8
Layer 1
10
82.813200
20
14.367000
11
82.813210
21
14.366980
0
LINE
8
Layer 1
10
72.805900
20
28.835600
11
73.127393
21
28.395066
0
LINE
8
Layer 1
10
73.127393
20
28.395066
11
73.063774
21
28.404693
0
LINE
8
Layer 1
10
73.063774
20
28.404693
11
72.741220
21
28.853844
0
LINE
8
Layer 1
10
72.741220
20
28.853844
11
72.805900
21
28.835600
0
LINE
8
Layer 1
10
72.805900
20
28.835600
11
72.805900
21
28.835600
0
LINE
8
Layer 1
10
67.239280
20
36.485110
11
67.484387
21
36.401598
0
LINE
8
Layer 1
10
67.484387
20
36.401598
11
68.324819
21
35.510691
0
LINE
8
Layer 1
10
68.324819
20
35.510691
11
69.271843
21
33.736361
0
LINE
8
Layer 1
10
69.271843
20
33.736361
11
69.261844
21
33.633327
0
LINE
8
Layer 1
10
69.261844
20
33.633327
11
68.963118
21
33.878490
0
LINE
8
Layer 1
10
68.963118
20
33.878490
11
68.773970
21
34.128863
0
LINE
8
Layer 1
10
68.773970
20
34.128863
11
67.674600
21
35.688763
0
LINE
8
Layer 1
10
67.674600
20
35.688763
11
67.287750
21
36.233345
0
LINE
8
Layer 1
10
67.287750
20
36.233345
11
67.239300
21
36.485100
0
LINE
8
Layer 1
10
67.239300
20
36.485100
11
67.239280
21
36.485110
0
LINE
8
Layer 1
10
89.279400
20
69.907600
11
89.764935
21
69.519700
0
LINE
8
Layer 1
10
89.764935
20
69.519700
11
89.428126
21
69.732653
0
LINE
8
Layer 1
10
89.428126
20
69.732653
11
87.814926
21
70.890343
0
LINE
8
Layer 1
10
87.814926
20
70.890343
11
89.279400
21
69.907600
0
LINE
8
Layer 1
10
89.279400
20
69.907600
11
89.279400
21
69.907600
0
LINE
8
Layer 1
10
52.884600
20
127.815000
11
60.951020
21
139.718600
0
LINE
8
Layer 1
10
60.951020
20
139.718600
11
64.729970
21
134.041790
0
LINE
8
Layer 1
10
64.729970
20
134.041790
11
69.866590
21
126.407920
0
LINE
8
Layer 1
10
69.866590
20
126.407920
11
74.134480
21
120.254510
0
LINE
8
Layer 1
10
74.134480
20
120.254510
11
78.239610
21
114.346050
0
LINE
8
Layer 1
10
78.239610
20
114.346050
11
81.345370
21
110.065740
0
LINE
8
Layer 1
10
81.345370
20
110.065740
11
80.155360
21
109.255337
0
LINE
8
Layer 1
10
80.155360
20
109.255337
11
65.935460
21
99.515557
0
LINE
8
Layer 1
10
65.935460
20
99.515557
11
58.086910
21
94.058377
0
LINE
8
Layer 1
10
58.086910
20
94.058377
11
57.275629
21
94.753035
0
LINE
8
Layer 1
10
57.275629
20
94.753035
11
55.145004
21
96.549338
0
LINE
8
Layer 1
10
55.145004
20
96.549338
11
52.878799
21
98.171245
0
LINE
8
Layer 1
10
52.878799
20
98.171245
11
49.973039
21
100.364875
0
LINE
8
Layer 1
10
49.973039
20
100.364875
11
47.038559
21
102.461555
0
LINE
8
Layer 1
10
47.038559
20
102.461555
11
44.682169
21
103.954945
0
LINE
8
Layer 1
10
44.682169
20
103.954945
11
43.164929
21
105.261045
0
LINE
8
Layer 1
10
43.164929
20
105.261045
11
41.232999
21
106.849905
0
LINE
8
Layer 1
10
41.232999
20
106.849905
11
39.055119
21
108.482555
0
LINE
8
Layer 1
10
39.055119
20
108.482555
11
52.884600
21
127.815000
0
LINE
8
Layer 1
10
52.884600
20
127.815000
11
52.884600
21
127.815000
0
LINE
8
Layer 1
10
38.618100
20
80.412600
11
34.017440
21
87.118060
0
LINE
8
Layer 1
10
34.017440
20
87.118060
11
30.439120
21
92.219890
0
LINE
8
Layer 1
10
30.439120
20
92.219890
11
28.676980
21
94.696710
0
LINE
8
Layer 1
10
28.676980
20
94.696710
11
28.548044
21
94.755195
0
LINE
8
Layer 1
10
28.548044
20
94.755195
11
28.516127
21
94.855116
0
LINE
8
Layer 1
10
28.516127
20
94.855116
11
28.529321
21
94.866340
0
LINE
8
Layer 1
10
28.529321
20
94.866340
11
28.619319
21
94.945542
0
LINE
8
Layer 1
10
28.619319
20
94.945542
11
28.703788
21
94.951418
0
LINE
8
Layer 1
10
28.703788
20
94.951418
11
28.749107
21
94.950594
0
LINE
8
Layer 1
10
28.749107
20
94.950594
11
28.772938
21
94.948619
0
LINE
8
Layer 1
10
28.772938
20
94.948619
11
28.816767
21
94.997395
0
LINE
8
Layer 1
10
28.816767
20
94.997395
11
28.878684
21
95.073936
0
LINE
8
Layer 1
10
28.878684
20
95.073936
11
32.872746
21
100.153256
0
LINE
8
Layer 1
10
32.872746
20
100.153256
11
36.748084
21
105.332536
0
LINE
8
Layer 1
10
36.748084
20
105.332536
11
43.025354
21
101.099036
0
LINE
8
Layer 1
10
43.025354
20
101.099036
11
53.658854
21
93.740516
0
LINE
8
Layer 1
10
53.658854
20
93.740516
11
55.646524
21
92.355086
0
LINE
8
Layer 1
10
55.646524
20
92.355086
11
54.417374
21
91.497899
0
LINE
8
Layer 1
10
54.417374
20
91.497899
11
43.354774
21
83.790499
0
LINE
8
Layer 1
10
43.354774
20
83.790499
11
38.618100
21
80.412600
0
LINE
8
Layer 1
10
38.875972
20
108.219800
11
41.190882
21
106.404270
0
LINE
8
Layer 1
10
41.190882
20
106.404270
11
41.341521
21
106.111078
0
LINE
8
Layer 1
10
41.341521
20
106.111078
11
40.994498
21
106.296396
0
LINE
8
Layer 1
10
40.994498
20
106.296396
11
38.703208
21
107.999146
0
LINE
8
Layer 1
10
38.703208
20
107.999146
11
38.868102
21
108.225370
0
LINE
8
Layer 1
10
38.868102
20
108.225370
11
38.875972
21
108.219800
0
LINE
8
Layer 1
10
48.621342
20
100.198380
11
49.031346
21
100.082821
0
LINE
8
Layer 1
10
49.031346
20
100.082821
11
50.962626
21
98.861351
0
LINE
8
Layer 1
10
50.962626
20
98.861351
11
53.807746
21
96.433391
0
LINE
8
Layer 1
10
53.807746
20
96.433391
11
53.883492
21
96.292805
0
LINE
8
Layer 1
10
53.883492
20
96.292805
11
53.259234
21
96.629298
0
LINE
8
Layer 1
10
53.259234
20
96.629298
11
52.781359
21
96.972277
0
LINE
8
Layer 1
10
52.781359
20
96.972277
11
49.912619
21
99.108537
0
LINE
8
Layer 1
10
49.912619
20
99.108537
11
48.906665
21
99.854292
0
LINE
8
Layer 1
10
48.906665
20
99.854292
11
48.621400
21
100.198000
0
LINE
8
Layer 1
10
48.621400
20
100.198000
11
48.621342
21
100.198380
0
LINE
8
Layer 1
10
21.393300
20
68.085000
11
10.440700
21
60.193400
0
LINE
8
Layer 1
10
10.440700
20
60.193400
11
9.073250
21
59.204565
0
LINE
8
Layer 1
10
9.073250
20
59.204565
11
8.492430
21
58.782700
0
LINE
8
Layer 1
10
8.492430
20
58.782700
11
8.492856
21
58.772063
0
LINE
8
Layer 1
10
8.492856
20
58.772063
11
8.492009
21
58.728657
0
LINE
8
Layer 1
10
8.492009
20
58.728657
11
8.462224
21
58.724424
0
LINE
8
Layer 1
10
8.462224
20
58.724424
11
8.443287
21
58.720433
0
LINE
8
Layer 1
10
8.443287
20
58.720433
11
8.433711
21
58.729690
0
LINE
8
Layer 1
10
8.433711
20
58.729690
11
8.427968
21
58.772616
0
LINE
8
Layer 1
10
8.427968
20
58.772616
11
8.396266
21
60.856216
0
LINE
8
Layer 1
10
8.396266
20
60.856216
11
8.346053
21
65.169806
0
LINE
8
Layer 1
10
8.346053
20
65.169806
11
8.246691
21
80.800006
0
LINE
8
Layer 1
10
8.246691
20
80.800006
11
8.210945
21
92.126806
0
LINE
8
Layer 1
10
8.210945
20
92.126806
11
8.133843
21
97.512753
0
LINE
8
Layer 1
10
8.133843
20
97.512753
11
8.129665
21
102.903206
0
LINE
8
Layer 1
10
8.129665
20
102.903206
11
8.070728
21
104.496986
0
LINE
8
Layer 1
10
8.070728
20
104.496986
11
7.940622
21
107.423380
0
LINE
8
Layer 1
10
7.940622
20
107.423380
11
7.897960
21
110.378236
0
LINE
8
Layer 1
10
7.897960
20
110.378236
11
7.855861
21
113.584850
0
LINE
8
Layer 1
10
7.855861
20
113.584850
11
7.726471
21
116.793706
0
LINE
8
Layer 1
10
7.726471
20
116.793706
11
7.506259
21
121.782506
0
LINE
8
Layer 1
10
7.506259
20
121.782506
11
7.545833
21
124.277916
0
LINE
8
Layer 1
10
7.545833
20
124.277916
11
7.558597
21
124.589139
0
LINE
8
Layer 1
10
7.558597
20
124.589139
11
7.560291
21
124.627039
0
LINE
8
Layer 1
10
7.560291
20
124.627039
11
7.562419
21
124.632277
0
LINE
8
Layer 1
10
7.562419
20
124.632277
11
7.566672
21
124.642677
0
LINE
8
Layer 1
10
7.566672
20
124.642677
11
7.575610
21
124.662918
0
LINE
8
Layer 1
10
7.575610
20
124.662918
11
7.616035
21
124.735731
0
LINE
8
Layer 1
10
7.616035
20
124.735731
11
7.719864
21
124.830625
0
LINE
8
Layer 1
10
7.719864
20
124.830625
11
7.764757
21
124.985000
0
LINE
8
Layer 1
10
7.764757
20
124.985000
11
7.727738
21
125.230587
0
LINE
8
Layer 1
10
7.727738
20
125.230587
11
7.705609
21
125.365190
0
LINE
8
Layer 1
10
7.705609
20
125.365190
11
7.717525
21
125.369737
0
LINE
8
Layer 1
10
7.717525
20
125.369737
11
7.736674
21
125.362343
0
LINE
8
Layer 1
10
7.736674
20
125.362343
11
7.775823
21
125.346332
0
LINE
8
Layer 1
10
7.775823
20
125.346332
11
7.969865
21
125.260853
0
LINE
8
Layer 1
10
7.969865
20
125.260853
11
8.072845
21
125.179232
0
LINE
8
Layer 1
10
8.072845
20
125.179232
11
8.179655
21
125.079204
0
LINE
8
Layer 1
10
8.179655
20
125.079204
11
8.291570
21
124.975933
0
LINE
8
Layer 1
10
8.291570
20
124.975933
11
8.320075
21
124.949629
0
LINE
8
Layer 1
10
8.320075
20
124.949629
11
8.329436
21
124.941544
0
LINE
8
Layer 1
10
8.329436
20
124.941544
11
8.393481
21
124.897156
0
LINE
8
Layer 1
10
8.393481
20
124.897156
11
8.521565
21
124.808403
0
LINE
8
Layer 1
10
8.521565
20
124.808403
11
9.033485
21
124.453297
0
LINE
8
Layer 1
10
9.033485
20
124.453297
11
11.080725
21
123.032877
0
LINE
8
Layer 1
10
11.080725
20
123.032877
11
19.276085
21
117.359647
0
LINE
8
Layer 1
10
19.276085
20
117.359647
11
24.158445
21
114.015457
0
LINE
8
Layer 1
10
24.158445
20
114.015457
11
29.025925
21
110.714247
0
LINE
8
Layer 1
10
29.025925
20
110.714247
11
29.651247
21
110.318606
0
LINE
8
Layer 1
10
29.651247
20
110.318606
11
28.246137
21
108.462556
0
LINE
8
Layer 1
10
28.246137
20
108.462556
11
24.127600
21
102.975000
0
LINE
8
Layer 1
10
24.127600
20
102.975000
11
22.078440
21
100.223980
0
LINE
8
Layer 1
10
22.078440
20
100.223980
11
20.149070
21
97.633490
0
LINE
8
Layer 1
10
20.149070
20
97.633490
11
17.923310
21
94.854780
0
LINE
8
Layer 1
10
17.923310
20
94.854780
11
19.698640
21
92.653230
0
LINE
8
Layer 1
10
19.698640
20
92.653230
11
20.028216
21
92.246526
0
LINE
8
Layer 1
10
20.028216
20
92.246526
11
20.337153
21
91.841125
0
LINE
8
Layer 1
10
20.337153
20
91.841125
11
20.956306
21
91.033832
0
LINE
8
Layer 1
10
20.956306
20
91.033832
11
22.089076
21
89.567362
0
LINE
8
Layer 1
10
22.089076
20
89.567362
11
24.929076
21
85.945642
0
LINE
8
Layer 1
10
24.929076
20
85.945642
11
29.988676
21
79.318532
0
LINE
8
Layer 1
10
29.988676
20
79.318532
11
32.469976
21
76.027662
0
LINE
8
Layer 1
10
32.469976
20
76.027662
11
32.363578
21
75.951744
0
LINE
8
Layer 1
10
32.363578
20
75.951744
11
21.393300
21
68.085000
0
LINE
8
Layer 1
10
58.224400
20
40.000100
11
58.010995
21
39.963504
0
LINE
8
Layer 1
10
58.010995
20
39.963504
11
58.092484
21
40.161963
0
LINE
8
Layer 1
10
58.092484
20
40.161963
11
59.502274
21
41.961443
0
LINE
8
Layer 1
10
59.502274
20
41.961443
11
59.664190
21
41.748729
0
LINE
8
Layer 1
10
59.664190
20
41.748729
11
59.252911
21
41.189151
0
LINE
8
Layer 1
10
59.252911
20
41.189151
11
58.224400
21
40.000100
0
LINE
8
Layer 1
10
58.224400
20
40.000100
11
58.224400
21
40.000100
0
LINE
8
Layer 1
10
63.858900
20
42.345700
11
64.703590
21
41.019630
0
LINE
8
Layer 1
10
64.703590
20
41.019630
11
64.677420
21
40.804735
0
LINE
8
Layer 1
10
64.677420
20
40.804735
11
64.510610
21
40.939736
0
LINE
8
Layer 1
10
64.510610
20
40.939736
11
62.579110
21
43.669856
0
LINE
8
Layer 1
10
62.579110
20
43.669856
11
62.540598
21
43.831826
0
LINE
8
Layer 1
10
62.540598
20
43.831826
11
62.785708
21
43.749327
0
LINE
8
Layer 1
10
62.785708
20
43.749327
11
63.858900
21
42.345700
0
LINE
8
Layer 1
10
63.858900
20
42.345700
11
63.858900
21
42.345700
0
LINE
8
Layer 1
10
78.026600
20
74.705300
11
77.565960
21
73.988250
0
LINE
8
Layer 1
10
77.565960
20
73.988250
11
76.738056
21
72.658624
0
LINE
8
Layer 1
10
76.738056
20
72.658624
11
75.830850
21
71.369060
0
LINE
8
Layer 1
10
75.830850
20
71.369060
11
74.842948
21
69.972112
0
LINE
8
Layer 1
10
74.842948
20
69.972112
11
73.924460
21
68.522050
0
LINE
8
Layer 1
10
73.924460
20
68.522050
11
72.513587
21
66.259916
0
LINE
8
Layer 1
10
72.513587
20
66.259916
11
70.772950
21
64.240510
0
LINE
8
Layer 1
10
70.772950
20
64.240510
11
70.091034
21
63.368910
0
LINE
8
Layer 1
10
70.091034
20
63.368910
11
68.779544
21
61.474990
0
LINE
8
Layer 1
10
68.779544
20
61.474990
11
62.748464
21
52.710850
0
LINE
8
Layer 1
10
62.748464
20
52.710850
11
60.984624
21
50.089980
0
LINE
8
Layer 1
10
60.984624
20
50.089980
11
59.992278
21
48.656600
0
LINE
8
Layer 1
10
59.992278
20
48.656600
11
59.012700
21
50.425680
0
LINE
8
Layer 1
10
59.012700
20
50.425680
11
58.551419
21
51.141748
0
LINE
8
Layer 1
10
58.551419
20
51.141748
11
56.731385
21
53.701462
0
LINE
8
Layer 1
10
56.731385
20
53.701462
11
54.983959
21
56.298338
0
LINE
8
Layer 1
10
54.983959
20
56.298338
11
53.221134
21
58.908733
0
LINE
8
Layer 1
10
53.221134
20
58.908733
11
51.344369
21
61.450488
0
LINE
8
Layer 1
10
51.344369
20
61.450488
11
50.915854
21
62.168311
0
LINE
8
Layer 1
10
50.915854
20
62.168311
11
47.871154
21
66.685271
0
LINE
8
Layer 1
10
47.871154
20
66.685271
11
47.191578
21
67.612748
0
LINE
8
Layer 1
10
47.191578
20
67.612748
11
43.378158
21
73.346818
0
LINE
8
Layer 1
10
43.378158
20
73.346818
11
62.718458
21
87.614518
0
LINE
8
Layer 1
10
62.718458
20
87.614518
11
64.193348
21
86.568318
0
LINE
8
Layer 1
10
64.193348
20
86.568318
11
65.522508
21
85.668924
0
LINE
8
Layer 1
10
65.522508
20
85.668924
11
70.852958
21
82.108164
0
LINE
8
Layer 1
10
70.852958
20
82.108164
11
76.145328
21
78.567214
0
LINE
8
Layer 1
10
76.145328
20
78.567214
11
79.298308
21
76.389464
0
LINE
8
Layer 1
10
79.298308
20
76.389464
11
78.026600
21
74.705300
0
LINE
8
Layer 1
10
78.026600
20
74.705300
11
78.026600
21
74.705300
0
LINE
8
Layer 1
10
79.963210
20
77.332840
11
79.191717
21
77.920689
0
LINE
8
Layer 1
10
79.191717
20
77.920689
11
80.085977
21
77.508586
0
LINE
8
Layer 1
10
80.085977
20
77.508586
11
79.963200
21
77.332900
0
LINE
8
Layer 1
10
79.963200
20
77.332900
11
79.963210
21
77.332840
0
LINE
8
Layer 1
10
92.697310
20
94.855140
11
92.694970
21
94.845937
0
LINE
8
Layer 1
10
92.694970
20
94.845937
11
92.695817
21
94.843679
0
LINE
8
Layer 1
10
92.695817
20
94.843679
11
92.684542
21
94.850966
0
LINE
8
Layer 1
10
92.684542
20
94.850966
11
92.675393
21
94.856365
0
LINE
8
Layer 1
10
92.675393
20
94.856365
11
92.683904
21
94.861419
0
LINE
8
Layer 1
10
92.683904
20
94.861419
11
92.697300
21
94.855200
0
LINE
8
Layer 1
10
92.697300
20
94.855200
11
92.697310
21
94.855140
0
LINE
8
Layer 1
10
86.323870
20
103.257450
11
90.401400
21
97.739800
0
LINE
8
Layer 1
10
90.401400
20
97.739800
11
92.450130
21
94.988420
0
LINE
8
Layer 1
10
92.450130
20
94.988420
11
92.578216
21
94.816451
0
LINE
8
Layer 1
10
92.578216
20
94.816451
11
92.583536
21
94.809483
0
LINE
8
Layer 1
10
92.583536
20
94.809483
11
92.531607
21
94.735041
0
LINE
8
Layer 1
10
92.531607
20
94.735041
11
89.875217
21
90.976781
0
LINE
8
Layer 1
10
89.875217
20
90.976781
11
84.974977
21
84.230791
0
LINE
8
Layer 1
10
84.974977
20
84.230791
11
81.394900
21
79.363900
0
LINE
8
Layer 1
10
81.394900
20
79.363900
11
80.245750
21
77.737740
0
LINE
8
Layer 1
10
80.245750
20
77.737740
11
78.715950
21
78.877110
0
LINE
8
Layer 1
10
78.715950
20
78.877110
11
75.511680
21
81.304760
0
LINE
8
Layer 1
10
75.511680
20
81.304760
11
75.548755
21
81.132931
0
LINE
8
Layer 1
10
75.548755
20
81.132931
11
75.448276
21
81.071408
0
LINE
8
Layer 1
10
75.448276
20
81.071408
11
74.292526
21
81.840322
0
LINE
8
Layer 1
10
74.292526
20
81.840322
11
71.352296
21
84.065542
0
LINE
8
Layer 1
10
71.352296
20
84.065542
11
66.319506
21
87.867502
0
LINE
8
Layer 1
10
66.319506
20
87.867502
11
64.637156
21
89.040562
0
LINE
8
Layer 1
10
64.637156
20
89.040562
11
73.168686
21
95.401342
0
LINE
8
Layer 1
10
73.168686
20
95.401342
11
85.335086
21
104.607052
0
LINE
8
Layer 1
10
85.335086
20
104.607052
11
86.323870
21
103.257450
0
LINE
8
Layer 1
10
70.906600
20
84.732800
11
71.339368
21
84.371556
0
LINE
8
Layer 1
10
71.339368
20
84.371556
11
71.594477
21
84.218417
0
LINE
8
Layer 1
10
71.594477
20
84.218417
11
71.264263
21
84.485227
0
LINE
8
Layer 1
10
71.264263
20
84.485227
11
70.906600
21
84.732800
0
LINE
8
Layer 1
10
81.684100
20
17.117100
11
83.770920
21
14.380280
0
LINE
8
Layer 1
10
83.770920
20
14.380280
11
84.614764
21
13.235330
0
LINE
8
Layer 1
10
84.614764
20
13.235330
11
84.841786
21
12.997030
0
LINE
8
Layer 1
10
84.841786
20
12.997030
11
84.697105
21
13.293098
0
LINE
8
Layer 1
10
84.697105
20
13.293098
11
82.587095
21
16.318108
0
LINE
8
Layer 1
10
82.587095
20
16.318108
11
82.136349
21
16.883501
0
LINE
8
Layer 1
10
82.136349
20
16.883501
11
81.684100
21
17.117100
0
LINE
8
Layer 1
10
81.684100
20
17.117100
11
81.684100
21
17.117100
0
LINE
8
Layer 1
10
94.155800
20
0.043698
11
93.900479
21
0.380028
0
LINE
8
Layer 1
10
93.900479
20
0.380028
11
93.517286
21
0.880032
0
LINE
8
Layer 1
10
93.517286
20
0.880032
11
93.860268
21
0.427582
0
LINE
8
Layer 1
10
93.860268
20
0.427582
11
94.129808
21
0.077282
0
LINE
8
Layer 1
10
94.129808
20
0.077282
11
94.155800
21
0.043698
0
LINE
8
Layer 1
10
94.155800
20
0.043698
11
94.155800
21
0.043698
0
LINE
8
Layer 1
10
93.517300
20
0.880032
11
93.411128
21
1.020085
0
LINE
8
Layer 1
10
93.411128
20
1.020085
11
93.409641
21
1.021869
0
LINE
8
Layer 1
10
93.409641
20
1.021869
11
93.441343
21
0.979129
0
LINE
8
Layer 1
10
93.441343
20
0.979129
11
93.517300
21
0.880032
0
LINE
8
Layer 1
10
93.517300
20
0.880032
11
93.517300
21
0.880032
0
LINE
8
Layer 1
10
76.450200
20
24.933400
11
76.565095
21
24.821697
0
LINE
8
Layer 1
10
76.565095
20
24.821697
11
76.448072
21
25.016645
0
LINE
8
Layer 1
10
76.448072
20
25.016645
11
76.302327
21
25.197338
0
LINE
8
Layer 1
10
76.302327
20
25.197338
11
76.450200
21
24.933400
0
LINE
8
Layer 1
10
76.450200
20
24.933400
11
76.450200
21
24.933400
0
LINE
8
Layer 1
10
37.307700
20
12.964500
11
37.144508
21
12.678914
0
LINE
8
Layer 1
10
37.144508
20
12.678914
11
37.386638
21
12.902211
0
LINE
8
Layer 1
10
37.386638
20
12.902211
11
39.680478
21
15.790311
0
LINE
8
Layer 1
10
39.680478
20
15.790311
11
40.093166
21
16.384129
0
LINE
8
Layer 1
10
40.093166
20
16.384129
11
40.187501
21
16.884361
0
LINE
8
Layer 1
10
40.187501
20
16.884361
11
38.163021
21
14.100991
0
LINE
8
Layer 1
10
38.163021
20
14.100991
11
37.307700
21
12.964500
0
LINE
8
Layer 1
10
37.307700
20
12.964500
11
37.307700
21
12.964500
0
LINE
8
Layer 1
10
28.024000
20
0.901255
11
28.124003
21
1.037746
0
LINE
8
Layer 1
10
28.124003
20
1.037746
11
28.124850
21
1.039129
0
LINE
8
Layer 1
10
28.124850
20
1.039129
11
28.093362
21
0.997052
0
LINE
8
Layer 1
10
28.093362
20
0.997052
11
28.024000
21
0.901255
0
LINE
8
Layer 1
10
28.024000
20
0.901255
11
28.024000
21
0.901255
0
LINE
8
Layer 1
10
27.401900
20
0.044548
11
27.651051
21
0.385562
0
LINE
8
Layer 1
10
27.651051
20
0.385562
11
28.024030
21
0.901255
0
LINE
8
Layer 1
10
28.024030
20
0.901255
11
27.684881
21
0.437688
0
LINE
8
Layer 1
10
27.684881
20
0.437688
11
27.426510
21
0.079189
0
LINE
8
Layer 1
10
27.426510
20
0.079189
11
27.401900
21
0.044548
0
LINE
8
Layer 1
10
27.401900
20
0.044548
11
27.401900
21
0.044548
0
LINE
8
Layer 1
10
46.176900
20
24.137800
11
46.102856
21
23.995882
0
LINE
8
Layer 1
10
46.102856
20
23.995882
11
46.256261
21
24.163649
0
LINE
8
Layer 1
10
46.256261
20
24.163649
11
46.387539
21
24.355086
0
LINE
8
Layer 1
10
46.387539
20
24.355086
11
46.176900
21
24.137800
0
LINE
8
Layer 1
10
46.176900
20
24.137800
11
46.176900
21
24.137800
 0 
ENDSEC
 0 
EOF