999
"DXF R12 Output" (www.mydxf.blogspot.com)
 0 
SECTION
 2 
HEADER
 9 
$ACADVER
 1 
AC1009
 9 
$EXTMIN
 10 
 0 
 20 
 0 
 9 
$EXTMAX
 10 
 8.5 
 20 
 11 
 0 
ENDSEC
 0 
SECTION
 2 
ENTITIES
0
LINE
8
Layer 1
10
86.448900
20
151.598000
11
85.865014
21
151.212679
0
LINE
8
Layer 1
10
85.865014
20
151.212679
11
85.394640
21
150.902571
0
LINE
8
Layer 1
10
85.394640
20
150.902571
11
84.471071
21
150.281824
0
LINE
8
Layer 1
10
84.471071
20
150.281824
11
84.229952
21
150.138100
0
LINE
8
Layer 1
10
84.229952
20
150.138100
11
84.041281
21
150.029374
0
LINE
8
Layer 1
10
84.041281
20
150.029374
11
83.734737
21
149.824800
0
LINE
8
Layer 1
10
83.734737
20
149.824800
11
83.203299
21
149.487350
0
LINE
8
Layer 1
10
83.203299
20
149.487350
11
83.046968
21
149.393841
0
LINE
8
Layer 1
10
83.046968
20
149.393841
11
83.242395
21
149.638629
0
LINE
8
Layer 1
10
83.242395
20
149.638629
11
82.886115
21
149.434797
0
LINE
8
Layer 1
10
82.886115
20
149.434797
11
82.472976
21
149.194795
0
LINE
8
Layer 1
10
82.472976
20
149.194795
11
82.512487
21
149.152880
0
LINE
8
Layer 1
10
82.512487
20
149.152880
11
82.381688
21
149.051924
0
LINE
8
Layer 1
10
82.381688
20
149.051924
11
82.003228
21
148.831071
0
LINE
8
Layer 1
10
82.003228
20
148.831071
11
81.355777
21
148.453303
0
LINE
8
Layer 1
10
81.355777
20
148.453303
11
81.153009
21
148.311176
0
LINE
8
Layer 1
10
81.153009
20
148.311176
11
80.180133
21
147.786491
0
LINE
8
Layer 1
10
80.180133
20
147.786491
11
79.594240
21
147.475319
0
LINE
8
Layer 1
10
79.594240
20
147.475319
11
79.218281
21
147.260746
0
LINE
8
Layer 1
10
79.218281
20
147.260746
11
78.860618
21
147.025424
0
LINE
8
Layer 1
10
78.860618
20
147.025424
11
78.609127
21
146.805855
0
LINE
8
Layer 1
10
78.609127
20
146.805855
11
78.382319
21
146.720110
0
LINE
8
Layer 1
10
78.382319
20
146.720110
11
78.107105
21
146.599471
0
LINE
8
Layer 1
10
78.107105
20
146.599471
11
77.375984
21
146.259255
0
LINE
8
Layer 1
10
77.375984
20
146.259255
11
77.047418
21
146.087873
0
LINE
8
Layer 1
10
77.047418
20
146.087873
11
76.518215
21
145.748828
0
LINE
8
Layer 1
10
76.518215
20
145.748828
11
75.955552
21
145.489359
0
LINE
8
Layer 1
10
75.955552
20
145.489359
11
75.784754
21
145.404890
0
LINE
8
Layer 1
10
75.784754
20
145.404890
11
74.559694
21
144.730204
0
LINE
8
Layer 1
10
74.559694
20
144.730204
11
73.334214
21
144.039889
0
LINE
8
Layer 1
10
73.334214
20
144.039889
11
73.159744
21
143.968611
0
LINE
8
Layer 1
10
73.159744
20
143.968611
11
72.073724
21
143.416799
0
LINE
8
Layer 1
10
72.073724
20
143.416799
11
71.852871
21
143.287011
0
LINE
8
Layer 1
10
71.852871
20
143.287011
11
69.534611
21
142.176051
0
LINE
8
Layer 1
10
69.534611
20
142.176051
11
67.092681
21
141.006151
0
LINE
8
Layer 1
10
67.092681
20
141.006151
11
64.542671
21
139.759551
0
LINE
8
Layer 1
10
64.542671
20
139.759551
11
63.908306
21
139.442105
0
LINE
8
Layer 1
10
63.908306
20
139.442105
11
60.837866
21
137.935185
0
LINE
8
Layer 1
10
60.837866
20
137.935185
11
55.877536
21
135.215275
0
LINE
8
Layer 1
10
55.877536
20
135.215275
11
53.015976
21
133.392405
0
LINE
8
Layer 1
10
53.015976
20
133.392405
11
50.331546
21
131.537075
0
LINE
8
Layer 1
10
50.331546
20
131.537075
11
47.834406
21
129.866645
0
LINE
8
Layer 1
10
47.834406
20
129.866645
11
47.757224
21
136.516575
0
LINE
8
Layer 1
10
47.757224
20
136.516575
11
47.707223
21
146.942075
0
LINE
8
Layer 1
10
47.707223
20
146.942075
11
47.736574
21
150.805495
0
LINE
8
Layer 1
10
47.736574
20
150.805495
11
47.969768
21
150.916242
0
LINE
8
Layer 1
10
47.969768
20
150.916242
11
50.814848
21
152.392312
0
LINE
8
Layer 1
10
50.814848
20
152.392312
11
54.042848
21
154.104232
0
LINE
8
Layer 1
10
54.042848
20
154.104232
11
56.205308
21
155.348922
0
LINE
8
Layer 1
10
56.205308
20
155.348922
11
57.518028
21
156.143941
0
LINE
8
Layer 1
10
57.518028
20
156.143941
11
59.244368
21
157.241391
0
LINE
8
Layer 1
10
59.244368
20
157.241391
11
60.607298
21
158.200757
0
LINE
8
Layer 1
10
60.607298
20
158.200757
11
61.918738
21
159.119486
0
LINE
8
Layer 1
10
61.918738
20
159.119486
11
66.983498
21
163.088126
0
LINE
8
Layer 1
10
66.983498
20
163.088126
11
67.324671
21
163.384617
0
LINE
8
Layer 1
10
67.324671
20
163.384617
11
68.109460
21
164.055684
0
LINE
8
Layer 1
10
68.109460
20
164.055684
11
69.570000
21
165.212814
0
LINE
8
Layer 1
10
69.570000
20
165.212814
11
70.642340
21
166.030160
0
LINE
8
Layer 1
10
70.642340
20
166.030160
11
71.655640
21
166.818248
0
LINE
8
Layer 1
10
71.655640
20
166.818248
11
71.795854
21
166.949631
0
LINE
8
Layer 1
10
71.795854
20
166.949631
11
72.323942
21
167.417933
0
LINE
8
Layer 1
10
72.323942
20
167.417933
11
72.906124
21
167.919425
0
LINE
8
Layer 1
10
72.906124
20
167.919425
11
73.339157
21
168.330852
0
LINE
8
Layer 1
10
73.339157
20
168.330852
11
73.862193
21
168.619336
0
LINE
8
Layer 1
10
73.862193
20
168.619336
11
74.067992
21
168.754549
0
LINE
8
Layer 1
10
74.067992
20
168.754549
11
74.469749
21
169.076564
0
LINE
8
Layer 1
10
74.469749
20
169.076564
11
76.329229
21
170.556674
0
LINE
8
Layer 1
10
76.329229
20
170.556674
11
76.878275
21
171.000400
0
LINE
8
Layer 1
10
76.878275
20
171.000400
11
77.420565
21
171.446359
0
LINE
8
Layer 1
10
77.420565
20
171.446359
11
77.981154
21
171.846149
0
LINE
8
Layer 1
10
77.981154
20
171.846149
11
78.176635
21
172.010402
0
LINE
8
Layer 1
10
78.176635
20
172.010402
11
79.012170
21
172.695510
0
LINE
8
Layer 1
10
79.012170
20
172.695510
11
80.237760
21
173.625942
0
LINE
8
Layer 1
10
80.237760
20
173.625942
11
80.744038
21
174.016255
0
LINE
8
Layer 1
10
80.744038
20
174.016255
11
81.435902
21
174.557215
0
LINE
8
Layer 1
10
81.435902
20
174.557215
11
81.586544
21
174.674766
0
LINE
8
Layer 1
10
81.586544
20
174.674766
11
82.183726
21
175.151258
0
LINE
8
Layer 1
10
82.183726
20
175.151258
11
82.779367
21
175.620729
0
LINE
8
Layer 1
10
82.779367
20
175.620729
11
83.394264
21
176.071155
0
LINE
8
Layer 1
10
83.394264
20
176.071155
11
83.645159
21
176.263814
0
LINE
8
Layer 1
10
83.645159
20
176.263814
11
84.550855
21
176.950308
0
LINE
8
Layer 1
10
84.550855
20
176.950308
11
85.115485
21
177.365098
0
LINE
8
Layer 1
10
85.115485
20
177.365098
11
85.730165
21
177.812332
0
LINE
8
Layer 1
10
85.730165
20
177.812332
11
86.608158
21
178.438399
0
LINE
8
Layer 1
10
86.608158
20
178.438399
11
86.691563
21
178.499571
0
LINE
8
Layer 1
10
86.691563
20
178.499571
11
86.811671
21
178.594146
0
LINE
8
Layer 1
10
86.811671
20
178.594146
11
87.225290
21
178.875637
0
LINE
8
Layer 1
10
87.225290
20
178.875637
11
87.352631
21
178.964148
0
LINE
8
Layer 1
10
87.352631
20
178.964148
11
87.362099
21
178.970317
0
LINE
8
Layer 1
10
87.362099
20
178.970317
11
87.381248
21
178.983189
0
LINE
8
Layer 1
10
87.381248
20
178.983189
11
87.352950
21
178.964359
0
LINE
8
Layer 1
10
87.352950
20
178.964359
11
87.134544
21
178.822018
0
LINE
8
Layer 1
10
87.134544
20
178.822018
11
86.293370
21
178.271804
0
LINE
8
Layer 1
10
86.293370
20
178.271804
11
85.709430
21
177.886483
0
LINE
8
Layer 1
10
85.709430
20
177.886483
11
85.239056
21
177.576375
0
LINE
8
Layer 1
10
85.239056
20
177.576375
11
84.315487
21
176.955628
0
LINE
8
Layer 1
10
84.315487
20
176.955628
11
84.074368
21
176.812011
0
LINE
8
Layer 1
10
84.074368
20
176.812011
11
83.885697
21
176.703181
0
LINE
8
Layer 1
10
83.885697
20
176.703181
11
83.579153
21
176.498604
0
LINE
8
Layer 1
10
83.579153
20
176.498604
11
83.047715
21
176.161261
0
LINE
8
Layer 1
10
83.047715
20
176.161261
11
82.891384
21
176.067645
0
LINE
8
Layer 1
10
82.891384
20
176.067645
11
83.086758
21
176.312433
0
LINE
8
Layer 1
10
83.086758
20
176.312433
11
82.730481
21
176.108601
0
LINE
8
Layer 1
10
82.730481
20
176.108601
11
82.317393
21
175.868599
0
LINE
8
Layer 1
10
82.317393
20
175.868599
11
82.356904
21
175.826686
0
LINE
8
Layer 1
10
82.356904
20
175.826686
11
82.226105
21
175.725727
0
LINE
8
Layer 1
10
82.226105
20
175.725727
11
81.847645
21
175.504874
0
LINE
8
Layer 1
10
81.847645
20
175.504874
11
81.200194
21
175.127213
0
LINE
8
Layer 1
10
81.200194
20
175.127213
11
80.997429
21
174.984973
0
LINE
8
Layer 1
10
80.997429
20
174.984973
11
80.024550
21
174.460396
0
LINE
8
Layer 1
10
80.024550
20
174.460396
11
79.438643
21
174.149119
0
LINE
8
Layer 1
10
79.438643
20
174.149119
11
79.062684
21
173.934543
0
LINE
8
Layer 1
10
79.062684
20
173.934543
11
78.705021
21
173.699223
0
LINE
8
Layer 1
10
78.705021
20
173.699223
11
78.453533
21
173.479654
0
LINE
8
Layer 1
10
78.453533
20
173.479654
11
78.226722
21
173.393910
0
LINE
8
Layer 1
10
78.226722
20
173.393910
11
77.951508
21
173.273379
0
LINE
8
Layer 1
10
77.951508
20
173.273379
11
77.220387
21
172.933056
0
LINE
8
Layer 1
10
77.220387
20
172.933056
11
76.891821
21
172.761674
0
LINE
8
Layer 1
10
76.891821
20
172.761674
11
76.362618
21
172.422629
0
LINE
8
Layer 1
10
76.362618
20
172.422629
11
75.799955
21
172.163160
0
LINE
8
Layer 1
10
75.799955
20
172.163160
11
75.629157
21
172.078691
0
LINE
8
Layer 1
10
75.629157
20
172.078691
11
74.404097
21
171.404008
0
LINE
8
Layer 1
10
74.404097
20
171.404008
11
73.178617
21
170.713693
0
LINE
8
Layer 1
10
73.178617
20
170.713693
11
73.004094
21
170.642522
0
LINE
8
Layer 1
10
73.004094
20
170.642522
11
71.918134
21
170.090710
0
LINE
8
Layer 1
10
71.918134
20
170.090710
11
71.697281
21
169.960815
0
LINE
8
Layer 1
10
71.697281
20
169.960815
11
69.379021
21
168.849855
0
LINE
8
Layer 1
10
69.379021
20
168.849855
11
66.937091
21
167.679955
0
LINE
8
Layer 1
10
66.937091
20
167.679955
11
64.387081
21
166.433355
0
LINE
8
Layer 1
10
64.387081
20
166.433355
11
63.752716
21
166.115906
0
LINE
8
Layer 1
10
63.752716
20
166.115906
11
60.682226
21
164.609086
0
LINE
8
Layer 1
10
60.682226
20
164.609086
11
55.721896
21
161.889076
0
LINE
8
Layer 1
10
55.721896
20
161.889076
11
52.860396
21
160.066206
0
LINE
8
Layer 1
10
52.860396
20
160.066206
11
50.175966
21
158.210876
0
LINE
8
Layer 1
10
50.175966
20
158.210876
11
47.990796
21
156.754166
0
LINE
8
Layer 1
10
47.990796
20
156.754166
11
47.838348
21
162.868346
0
LINE
8
Layer 1
10
47.838348
20
162.868346
11
47.710194
21
163.985666
0
LINE
8
Layer 1
10
47.710194
20
163.985666
11
47.429246
21
165.069078
0
LINE
8
Layer 1
10
47.429246
20
165.069078
11
47.000712
21
166.103038
0
LINE
8
Layer 1
10
47.000712
20
166.103038
11
46.429800
21
167.072000
0
LINE
8
Layer 1
10
46.429800
20
167.072000
11
45.660932
21
167.811974
0
LINE
8
Layer 1
10
45.660932
20
167.811974
11
44.770617
21
168.073282
0
LINE
8
Layer 1
10
44.770617
20
168.073282
11
44.313156
21
167.989286
0
LINE
8
Layer 1
10
44.313156
20
167.989286
11
43.865221
21
167.743444
0
LINE
8
Layer 1
10
43.865221
20
167.743444
11
43.440107
21
167.321694
0
LINE
8
Layer 1
10
43.440107
20
167.321694
11
43.051110
21
166.709977
0
LINE
8
Layer 1
10
43.051110
20
166.709977
11
42.444729
21
165.141589
0
LINE
8
Layer 1
10
42.444729
20
165.141589
11
42.173445
21
163.482087
0
LINE
8
Layer 1
10
42.173445
20
163.482087
11
41.646793
21
155.487477
0
LINE
8
Layer 1
10
41.646793
20
155.487477
11
39.429443
21
157.270677
0
LINE
8
Layer 1
10
39.429443
20
157.270677
11
36.562833
21
159.536217
0
LINE
8
Layer 1
10
36.562833
20
159.536217
11
34.552823
21
161.014517
0
LINE
8
Layer 1
10
34.552823
20
161.014517
11
33.296653
21
161.896116
0
LINE
8
Layer 1
10
33.296653
20
161.896116
11
31.597073
21
163.034526
0
LINE
8
Layer 1
10
31.597073
20
163.034526
11
30.170163
21
163.895916
0
LINE
8
Layer 1
10
30.170163
20
163.895916
11
28.801173
21
164.726450
0
LINE
8
Layer 1
10
28.801173
20
164.726450
11
23.129300
21
167.764000
0
LINE
8
Layer 1
10
23.129300
20
167.764000
11
22.720575
21
167.956981
0
LINE
8
Layer 1
10
22.720575
20
167.956981
11
21.790304
21
168.405175
0
LINE
8
Layer 1
10
21.790304
20
168.405175
11
20.143064
21
169.276349
0
LINE
8
Layer 1
10
20.143064
20
169.276349
11
18.963200
21
169.929000
0
LINE
8
Layer 1
10
18.963200
20
169.929000
11
17.833780
21
170.539215
0
LINE
8
Layer 1
10
17.833780
20
170.539215
11
17.657132
21
170.614642
0
LINE
8
Layer 1
10
17.657132
20
170.614642
11
17.015799
21
170.909539
0
LINE
8
Layer 1
10
17.015799
20
170.909539
11
16.322380
21
171.240602
0
LINE
8
Layer 1
10
16.322380
20
171.240602
11
15.771421
21
171.471320
0
LINE
8
Layer 1
10
15.771421
20
171.471320
11
15.296740
21
171.833903
0
LINE
8
Layer 1
10
15.296740
20
171.833903
11
15.090153
21
171.967840
0
LINE
8
Layer 1
10
15.090153
20
171.967840
11
14.633662
21
172.206035
0
LINE
8
Layer 1
10
14.633662
20
172.206035
11
12.530192
21
173.312215
0
LINE
8
Layer 1
10
12.530192
20
173.312215
11
11.903007
21
173.636152
0
LINE
8
Layer 1
10
11.903007
20
173.636152
11
11.276409
21
173.953068
0
LINE
8
Layer 1
10
11.276409
20
173.953068
11
10.684756
21
174.305199
0
LINE
8
Layer 1
10
10.684756
20
174.305199
11
10.455659
21
174.418071
0
LINE
8
Layer 1
10
10.455659
20
174.418071
11
9.492153
21
174.907009
0
LINE
8
Layer 1
10
9.492153
20
174.907009
11
8.147083
21
175.654353
0
LINE
8
Layer 1
10
8.147083
20
175.654353
11
7.585964
21
175.960632
0
LINE
8
Layer 1
10
7.585964
20
175.960632
11
6.812270
21
176.376000
0
LINE
8
Layer 1
10
6.812270
20
176.376000
11
6.644023
21
176.466638
0
LINE
8
Layer 1
10
6.644023
20
176.466638
11
5.967424
21
176.821425
0
LINE
8
Layer 1
10
5.967424
20
176.821425
11
5.297900
21
177.177705
0
LINE
8
Layer 1
10
5.297900
20
177.177705
11
4.637950
21
177.560000
0
LINE
8
Layer 1
10
4.637950
20
177.560000
11
4.360661
21
177.712118
0
LINE
8
Layer 1
10
4.360661
20
177.712118
11
3.367623
21
178.264779
0
LINE
8
Layer 1
10
3.367623
20
178.264779
11
2.760660
21
178.614000
0
LINE
8
Layer 1
10
2.760660
20
178.614000
11
2.103740
21
178.997000
0
LINE
8
Layer 1
10
2.103740
20
178.997000
11
1.177205
21
179.548600
0
LINE
8
Layer 1
10
1.177205
20
179.548600
11
1.087628
21
179.600408
0
LINE
8
Layer 1
10
1.087628
20
179.600408
11
0.952681
21
179.672216
0
LINE
8
Layer 1
10
0.952681
20
179.672216
11
0.528466
21
179.937000
0
LINE
8
Layer 1
10
0.528466
20
179.937000
11
0.398040
21
180.016787
0
LINE
8
Layer 1
10
0.398040
20
180.016787
11
0.614050
21
179.875509
0
LINE
8
Layer 1
10
0.614050
20
179.875509
11
1.456400
21
179.327000
0
LINE
8
Layer 1
10
1.456400
20
179.327000
11
2.044170
21
178.947637
0
LINE
8
Layer 1
10
2.044170
20
178.947637
11
2.517417
21
178.641785
0
LINE
8
Layer 1
10
2.517417
20
178.641785
11
3.457476
21
178.046356
0
LINE
8
Layer 1
10
3.457476
20
178.046356
11
3.686093
21
177.883483
0
LINE
8
Layer 1
10
3.686093
20
177.883483
11
3.861635
21
177.754547
0
LINE
8
Layer 1
10
3.861635
20
177.754547
11
4.172274
21
177.556354
0
LINE
8
Layer 1
10
4.172274
20
177.556354
11
4.695096
21
177.205716
0
LINE
8
Layer 1
10
4.695096
20
177.205716
11
4.843714
21
177.100289
0
LINE
8
Layer 1
10
4.843714
20
177.100289
11
4.540946
21
177.180609
0
LINE
8
Layer 1
10
4.540946
20
177.180609
11
4.870895
21
176.936459
0
LINE
8
Layer 1
10
4.870895
20
176.936459
11
5.256907
21
176.654968
0
LINE
8
Layer 1
10
5.256907
20
176.654968
11
5.279462
21
176.708054
0
LINE
8
Layer 1
10
5.279462
20
176.708054
11
5.424524
21
176.629010
0
LINE
8
Layer 1
10
5.424524
20
176.629010
11
5.779046
21
176.371457
0
LINE
8
Layer 1
10
5.779046
20
176.371457
11
6.385431
21
175.930815
0
LINE
8
Layer 1
10
6.385431
20
175.930815
11
6.597188
21
175.802404
0
LINE
8
Layer 1
10
6.597188
20
175.802404
11
7.469161
21
175.123146
0
LINE
8
Layer 1
10
7.469161
20
175.123146
11
7.989909
21
174.712081
0
LINE
8
Layer 1
10
7.989909
20
174.712081
11
8.337731
21
174.454314
0
LINE
8
Layer 1
10
8.337731
20
174.454314
11
8.697146
21
174.221653
0
LINE
8
Layer 1
10
8.697146
20
174.221653
11
8.999330
21
174.079842
0
LINE
8
Layer 1
10
8.999330
20
174.079842
11
9.169118
21
173.906758
0
LINE
8
Layer 1
10
9.169118
20
173.906758
11
9.390290
21
173.703352
0
LINE
8
Layer 1
10
9.390290
20
173.703352
11
9.996144
21
173.171115
0
LINE
8
Layer 1
10
9.996144
20
173.171115
11
10.285295
21
172.939411
0
LINE
8
Layer 1
10
10.285295
20
172.939411
11
10.808701
21
172.591431
0
LINE
8
Layer 1
10
10.808701
20
172.591431
11
11.272745
21
172.180798
0
LINE
8
Layer 1
10
11.272745
20
172.180798
11
11.418812
21
172.058565
0
LINE
8
Layer 1
10
11.418812
20
172.058565
11
12.529612
21
171.208772
0
LINE
8
Layer 1
10
12.529612
20
171.208772
11
13.654882
21
170.364928
0
LINE
8
Layer 1
10
13.654882
20
170.364928
11
13.790309
21
170.233864
0
LINE
8
Layer 1
10
13.790309
20
170.233864
11
14.732648
21
169.461944
0
LINE
8
Layer 1
10
14.732648
20
169.461944
11
14.940414
21
169.312050
0
LINE
8
Layer 1
10
14.940414
20
169.312050
11
16.890694
21
167.637150
0
LINE
8
Layer 1
10
16.890694
20
167.637150
11
18.944744
21
165.872890
0
LINE
8
Layer 1
10
18.944744
20
165.872890
11
21.112500
21
164.041000
0
LINE
8
Layer 1
10
21.112500
20
164.041000
11
21.658458
21
163.588127
0
LINE
8
Layer 1
10
21.658458
20
163.588127
11
24.273948
21
161.384177
0
LINE
8
Layer 1
10
24.273948
20
161.384177
11
28.760718
21
157.938627
0
LINE
8
Layer 1
10
28.760718
20
157.938627
11
31.581428
21
156.053087
0
LINE
8
Layer 1
10
31.581428
20
156.053087
11
34.360488
21
154.342757
0
LINE
8
Layer 1
10
34.360488
20
154.342757
11
37.116988
21
152.591477
0
LINE
8
Layer 1
10
37.116988
20
152.591477
11
38.768968
21
151.372427
0
LINE
8
Layer 1
10
38.768968
20
151.372427
11
39.933787
21
150.467576
0
LINE
8
Layer 1
10
39.933787
20
150.467576
11
41.237278
21
149.777307
0
LINE
8
Layer 1
10
41.237278
20
149.777307
11
41.419461
21
149.715179
0
LINE
8
Layer 1
10
41.419461
20
149.715179
11
41.229884
21
144.961109
0
LINE
8
Layer 1
10
41.229884
20
144.961109
11
40.816691
21
133.343909
0
LINE
8
Layer 1
10
40.816691
20
133.343909
11
40.720360
21
129.431339
0
LINE
8
Layer 1
10
40.720360
20
129.431339
11
39.273870
21
130.596349
0
LINE
8
Layer 1
10
39.273870
20
130.596349
11
36.407260
21
132.861999
0
LINE
8
Layer 1
10
36.407260
20
132.861999
11
34.397250
21
134.340299
0
LINE
8
Layer 1
10
34.397250
20
134.340299
11
33.141080
21
135.221898
0
LINE
8
Layer 1
10
33.141080
20
135.221898
11
31.441500
21
136.360308
0
LINE
8
Layer 1
10
31.441500
20
136.360308
11
30.014530
21
137.221695
0
LINE
8
Layer 1
10
30.014530
20
137.221695
11
28.645590
21
138.052232
0
LINE
8
Layer 1
10
28.645590
20
138.052232
11
22.973700
21
141.091000
0
LINE
8
Layer 1
10
22.973700
20
141.091000
11
22.564975
21
141.283981
0
LINE
8
Layer 1
10
22.564975
20
141.283981
11
21.634704
21
141.732175
0
LINE
8
Layer 1
10
21.634704
20
141.732175
11
19.987464
21
142.603242
0
LINE
8
Layer 1
10
19.987464
20
142.603242
11
18.807674
21
143.255799
0
LINE
8
Layer 1
10
18.807674
20
143.255799
11
17.678254
21
143.866121
0
LINE
8
Layer 1
10
17.678254
20
143.866121
11
17.501552
21
143.941548
0
LINE
8
Layer 1
10
17.501552
20
143.941548
11
16.860273
21
144.236442
0
LINE
8
Layer 1
10
16.860273
20
144.236442
11
16.166854
21
144.567508
0
LINE
8
Layer 1
10
16.166854
20
144.567508
11
15.615930
21
144.797805
0
LINE
8
Layer 1
10
15.615930
20
144.797805
11
15.141200
21
145.160000
0
LINE
8
Layer 1
10
15.141200
20
145.160000
11
14.934613
21
145.293937
0
LINE
8
Layer 1
10
14.934613
20
145.293937
11
14.478122
21
145.532022
0
LINE
8
Layer 1
10
14.478122
20
145.532022
11
12.374652
21
146.638302
0
LINE
8
Layer 1
10
12.374652
20
146.638302
11
11.747414
21
146.962242
0
LINE
8
Layer 1
10
11.747414
20
146.962242
11
11.120881
21
147.279158
0
LINE
8
Layer 1
10
11.120881
20
147.279158
11
10.529228
21
147.631286
0
LINE
8
Layer 1
10
10.529228
20
147.631286
11
10.300078
21
147.744175
0
LINE
8
Layer 1
10
10.300078
20
147.744175
11
9.336617
21
148.233113
0
LINE
8
Layer 1
10
9.336617
20
148.233113
11
7.991547
21
148.980457
0
LINE
8
Layer 1
10
7.991547
20
148.980457
11
7.430428
21
149.286736
0
LINE
8
Layer 1
10
7.430428
20
149.286736
11
6.656702
21
149.702268
0
LINE
8
Layer 1
10
6.656702
20
149.702268
11
6.488455
21
149.792909
0
LINE
8
Layer 1
10
6.488455
20
149.792909
11
5.811856
21
150.147591
0
LINE
8
Layer 1
10
5.811856
20
150.147591
11
5.142332
21
150.503868
0
LINE
8
Layer 1
10
5.142332
20
150.503868
11
4.482381
21
150.885359
0
LINE
8
Layer 1
10
4.482381
20
150.885359
11
4.205092
21
151.037595
0
LINE
8
Layer 1
10
4.205092
20
151.037595
11
3.212054
21
151.590256
0
LINE
8
Layer 1
10
3.212054
20
151.590256
11
2.605070
21
151.940000
0
LINE
8
Layer 1
10
2.605070
20
151.940000
11
1.948100
21
152.323000
0
LINE
8
Layer 1
10
1.948100
20
152.323000
11
1.021610
21
152.875000
0
LINE
8
Layer 1
10
1.021610
20
152.875000
11
0.932036
21
152.926703
0
LINE
8
Layer 1
10
0.932036
20
152.926703
11
0.797086
21
152.998619
0
LINE
8
Layer 1
10
0.797086
20
152.998619
11
0.372830
21
153.263834
0
LINE
8
Layer 1
10
0.372830
20
153.263834
11
0.242511
21
153.343621
0
LINE
8
Layer 1
10
0.242511
20
153.343621
11
0.458467
21
153.202343
0
LINE
8
Layer 1
10
0.458467
20
153.202343
11
1.300812
21
152.653830
0
LINE
8
Layer 1
10
1.300812
20
152.653830
11
1.888582
21
152.274464
0
LINE
8
Layer 1
10
1.888582
20
152.274464
11
2.361829
21
151.968719
0
LINE
8
Layer 1
10
2.361829
20
151.968719
11
3.301888
21
151.373290
0
LINE
8
Layer 1
10
3.301888
20
151.373290
11
3.530451
21
151.210417
0
LINE
8
Layer 1
10
3.530451
20
151.210417
11
3.705993
21
151.081481
0
LINE
8
Layer 1
10
3.705993
20
151.081481
11
4.016686
21
150.883288
0
LINE
8
Layer 1
10
4.016686
20
150.883288
11
4.539508
21
150.532542
0
LINE
8
Layer 1
10
4.539508
20
150.532542
11
4.688126
21
150.427222
0
LINE
8
Layer 1
10
4.688126
20
150.427222
11
4.385358
21
150.507540
0
LINE
8
Layer 1
10
4.385358
20
150.507540
11
4.715307
21
150.263393
0
LINE
8
Layer 1
10
4.715307
20
150.263393
11
5.101319
21
149.981902
0
LINE
8
Layer 1
10
5.101319
20
149.981902
11
5.123874
21
150.034985
0
LINE
8
Layer 1
10
5.123874
20
150.034985
11
5.268936
21
149.955835
0
LINE
8
Layer 1
10
5.268936
20
149.955835
11
5.623458
21
149.698389
0
LINE
8
Layer 1
10
5.623458
20
149.698389
11
6.229846
21
149.257747
0
LINE
8
Layer 1
10
6.229846
20
149.257747
11
6.441600
21
149.129336
0
LINE
8
Layer 1
10
6.441600
20
149.129336
11
7.313519
21
148.450078
0
LINE
8
Layer 1
10
7.313519
20
148.450078
11
7.834320
21
148.039010
0
LINE
8
Layer 1
10
7.834320
20
148.039010
11
8.182142
21
147.781243
0
LINE
8
Layer 1
10
8.182142
20
147.781243
11
8.541507
21
147.548582
0
LINE
8
Layer 1
10
8.541507
20
147.548582
11
8.843741
21
147.406774
0
LINE
8
Layer 1
10
8.843741
20
147.406774
11
9.013529
21
147.233687
0
LINE
8
Layer 1
10
9.013529
20
147.233687
11
9.234701
21
147.030284
0
LINE
8
Layer 1
10
9.234701
20
147.030284
11
9.840555
21
146.498047
0
LINE
8
Layer 1
10
9.840555
20
146.498047
11
10.129706
21
146.266343
0
LINE
8
Layer 1
10
10.129706
20
146.266343
11
10.653058
21
145.918363
0
LINE
8
Layer 1
10
10.653058
20
145.918363
11
11.117158
21
145.507730
0
LINE
8
Layer 1
10
11.117158
20
145.507730
11
11.263222
21
145.385497
0
LINE
8
Layer 1
10
11.263222
20
145.385497
11
12.374022
21
144.535704
0
LINE
8
Layer 1
10
12.374022
20
144.535704
11
13.499242
21
143.691764
0
LINE
8
Layer 1
10
13.499242
20
143.691764
11
13.634709
21
143.560813
0
LINE
8
Layer 1
10
13.634709
20
143.560813
11
14.577048
21
142.788896
0
LINE
8
Layer 1
10
14.577048
20
142.788896
11
14.784814
21
142.638999
0
LINE
8
Layer 1
10
14.784814
20
142.638999
11
16.735094
21
140.964099
0
LINE
8
Layer 1
10
16.735094
20
140.964099
11
18.789144
21
139.199829
0
LINE
8
Layer 1
10
18.789144
20
139.199829
11
20.956864
21
137.367479
0
LINE
8
Layer 1
10
20.956864
20
137.367479
11
21.502822
21
136.914606
0
LINE
8
Layer 1
10
21.502822
20
136.914606
11
24.118312
21
134.710656
0
LINE
8
Layer 1
10
24.118312
20
134.710656
11
28.605082
21
131.265106
0
LINE
8
Layer 1
10
28.605082
20
131.265106
11
31.425732
21
129.379566
0
LINE
8
Layer 1
10
31.425732
20
129.379566
11
34.204792
21
127.669236
0
LINE
8
Layer 1
10
34.204792
20
127.669236
11
36.961352
21
125.917956
0
LINE
8
Layer 1
10
36.961352
20
125.917956
11
38.613332
21
124.698906
0
LINE
8
Layer 1
10
38.613332
20
124.698906
11
38.713385
21
124.611034
0
LINE
8
Layer 1
10
38.713385
20
124.611034
11
37.800772
21
123.526564
0
LINE
8
Layer 1
10
37.800772
20
123.526564
11
36.902152
21
122.434964
0
LINE
8
Layer 1
10
36.902152
20
122.434964
11
35.093112
21
120.260484
0
LINE
8
Layer 1
10
35.093112
20
120.260484
11
28.475522
21
112.435334
0
LINE
8
Layer 1
10
28.475522
20
112.435334
11
23.652400
21
106.788000
0
LINE
8
Layer 1
10
23.652400
20
106.788000
11
21.404412
21
104.063679
0
LINE
8
Layer 1
10
21.404412
20
104.063679
11
19.099350
21
101.384680
0
LINE
8
Layer 1
10
19.099350
20
101.384680
11
18.461579
21
100.554781
0
LINE
8
Layer 1
10
18.461579
20
100.554781
11
17.306992
21
99.016892
0
LINE
8
Layer 1
10
17.306992
20
99.016892
11
16.074019
21
97.522001
0
LINE
8
Layer 1
10
16.074019
20
97.522001
11
14.732870
21
95.902457
0
LINE
8
Layer 1
10
14.732870
20
95.902457
11
13.456829
21
94.224751
0
LINE
8
Layer 1
10
13.456829
20
94.224751
11
13.342148
21
94.054752
0
LINE
8
Layer 1
10
13.342148
20
94.054752
11
13.284383
21
93.970068
0
LINE
8
Layer 1
10
13.284383
20
93.970068
11
13.255393
21
93.927735
0
LINE
8
Layer 1
10
13.255393
20
93.927735
11
13.215445
21
93.872840
0
LINE
8
Layer 1
10
13.215445
20
93.872840
11
12.751900
21
93.271500
0
LINE
8
Layer 1
10
12.751900
20
93.271500
11
11.821629
21
92.090000
0
LINE
8
Layer 1
10
11.821629
20
92.090000
11
9.946039
21
89.792220
0
LINE
8
Layer 1
10
9.946039
20
89.792220
11
9.463005
21
89.223280
0
LINE
8
Layer 1
10
9.463005
20
89.223280
11
9.432525
21
89.187641
0
LINE
8
Layer 1
10
9.432525
20
89.187641
11
9.459864
21
89.151683
0
LINE
8
Layer 1
10
9.459864
20
89.151683
11
9.514917
21
89.079556
0
LINE
8
Layer 1
10
9.514917
20
89.079556
11
9.624701
21
88.935301
0
LINE
8
Layer 1
10
9.624701
20
88.935301
11
9.842839
21
88.646362
0
LINE
8
Layer 1
10
9.842839
20
88.646362
11
10.698641
21
87.483482
0
LINE
8
Layer 1
10
10.698641
20
87.483482
11
11.117845
21
86.894863
0
LINE
8
Layer 1
10
11.117845
20
86.894863
11
11.328273
21
86.598265
0
LINE
8
Layer 1
10
11.328273
20
86.598265
11
11.559763
21
86.301032
0
LINE
8
Layer 1
10
11.559763
20
86.301032
11
12.481099
21
85.088682
0
LINE
8
Layer 1
10
12.481099
20
85.088682
11
13.276581
21
84.106123
0
LINE
8
Layer 1
10
13.276581
20
84.106123
11
13.527008
21
83.818144
0
LINE
8
Layer 1
10
13.527008
20
83.818144
11
13.759296
21
83.557935
0
LINE
8
Layer 1
10
13.759296
20
83.557935
11
15.661856
21
81.461545
0
LINE
8
Layer 1
10
15.661856
20
81.461545
11
24.470996
21
71.801395
0
LINE
8
Layer 1
10
24.470996
20
71.801395
11
27.110526
21
68.955525
0
LINE
8
Layer 1
10
27.110526
20
68.955525
11
29.754256
21
66.145195
0
LINE
8
Layer 1
10
29.754256
20
66.145195
11
31.075113
21
64.706904
0
LINE
8
Layer 1
10
31.075113
20
64.706904
11
32.250756
21
63.281135
0
LINE
8
Layer 1
10
32.250756
20
63.281135
11
33.221453
21
62.269005
0
LINE
8
Layer 1
10
33.221453
20
62.269005
11
37.313603
21
57.963555
0
LINE
8
Layer 1
10
37.313603
20
57.963555
11
41.431393
21
53.443745
0
LINE
8
Layer 1
10
41.431393
20
53.443745
11
33.349923
21
43.329045
0
LINE
8
Layer 1
10
33.349923
20
43.329045
11
26.241903
21
34.508895
0
LINE
8
Layer 1
10
26.241903
20
34.508895
11
16.160900
21
21.766800
0
LINE
8
Layer 1
10
16.160900
20
21.766800
11
11.696200
21
16.013790
0
LINE
8
Layer 1
10
11.696200
20
16.013790
11
10.604281
21
14.667997
0
LINE
8
Layer 1
10
10.604281
20
14.667997
11
12.178704
21
16.424423
0
LINE
8
Layer 1
10
12.178704
20
16.424423
11
15.971754
21
20.525933
0
LINE
8
Layer 1
10
15.971754
20
20.525933
11
25.807494
21
31.088833
0
LINE
8
Layer 1
10
25.807494
20
31.088833
11
37.878294
21
43.934533
0
LINE
8
Layer 1
10
37.878294
20
43.934533
11
42.668954
21
48.968813
0
LINE
8
Layer 1
10
42.668954
20
48.968813
11
42.813584
21
45.053363
0
LINE
8
Layer 1
10
42.813584
20
45.053363
11
42.902944
21
42.811223
0
LINE
8
Layer 1
10
42.902944
20
42.811223
11
42.999328
21
40.583123
0
LINE
8
Layer 1
10
42.999328
20
40.583123
11
43.034860
21
38.386943
0
LINE
8
Layer 1
10
43.034860
20
38.386943
11
43.073319
21
37.577471
0
LINE
8
Layer 1
10
43.073319
20
37.577471
11
43.219648
21
34.148311
0
LINE
8
Layer 1
10
43.219648
20
34.148311
11
43.356243
21
29.248281
0
LINE
8
Layer 1
10
43.356243
20
29.248281
11
43.419009
21
27.213701
0
LINE
8
Layer 1
10
43.419009
20
27.213701
11
43.512574
21
24.420071
0
LINE
8
Layer 1
10
43.512574
20
24.420071
11
43.532733
21
23.812196
0
LINE
8
Layer 1
10
43.532733
20
23.812196
11
43.623530
21
21.384306
0
LINE
8
Layer 1
10
43.623530
20
21.384306
11
43.708052
21
18.972596
0
LINE
8
Layer 1
10
43.708052
20
18.972596
11
43.759541
21
16.542586
0
LINE
8
Layer 1
10
43.759541
20
16.542586
11
43.789702
21
15.535666
0
LINE
8
Layer 1
10
43.789702
20
15.535666
11
43.889609
21
11.916396
0
LINE
8
Layer 1
10
43.889609
20
11.916396
11
43.938066
21
9.683196
0
LINE
8
Layer 1
10
43.938066
20
9.683196
11
43.986363
21
7.259356
0
LINE
8
Layer 1
10
43.986363
20
7.259356
11
44.041896
21
3.819656
0
LINE
8
Layer 1
10
44.041896
20
3.819656
11
44.048917
21
3.489973
0
LINE
8
Layer 1
10
44.048917
20
3.489973
11
44.065831
21
3.003704
0
LINE
8
Layer 1
10
44.065831
20
3.003704
11
44.078065
21
1.406784
0
LINE
8
Layer 1
10
44.078065
20
1.406784
11
44.083597
21
0.915292
0
LINE
8
Layer 1
10
44.083597
20
0.915292
11
44.083916
21
1.743063
0
LINE
8
Layer 1
10
44.083916
20
1.743063
11
44.082586
21
4.952013
0
LINE
8
Layer 1
10
44.082586
20
4.952013
11
44.078172
21
7.185323
0
LINE
8
Layer 1
10
44.078172
20
7.185323
11
44.074927
21
8.984053
0
LINE
8
Layer 1
10
44.074927
20
8.984053
11
44.056097
21
12.536413
0
LINE
8
Layer 1
10
44.056097
20
12.536413
11
44.070352
21
13.431737
0
LINE
8
Layer 1
10
44.070352
20
13.431737
11
44.085406
21
14.126003
0
LINE
8
Layer 1
10
44.085406
20
14.126003
11
44.080673
21
15.302503
0
LINE
8
Layer 1
10
44.080673
20
15.302503
11
44.090565
21
17.312083
0
LINE
8
Layer 1
10
44.090565
20
17.312083
11
44.099395
21
17.893362
0
LINE
8
Layer 1
10
44.099395
20
17.893362
11
44.222162
21
16.943685
0
LINE
8
Layer 1
10
44.222162
20
16.943685
11
44.252216
21
18.251885
0
LINE
8
Layer 1
10
44.252216
20
18.251885
11
44.283227
21
19.775085
0
LINE
8
Layer 1
10
44.283227
20
19.775085
11
44.212321
21
19.742745
0
LINE
8
Layer 1
10
44.212321
20
19.742745
11
44.195992
21
20.268491
0
LINE
8
Layer 1
10
44.195992
20
20.268491
11
44.223334
21
21.665731
0
LINE
8
Layer 1
10
44.223334
20
21.665731
11
44.270247
21
24.055741
0
LINE
8
Layer 1
10
44.270247
20
24.055741
11
44.260034
21
24.845853
0
LINE
8
Layer 1
10
44.260034
20
24.845853
11
44.375409
21
28.362363
0
LINE
8
Layer 1
10
44.375409
20
28.362363
11
44.449915
21
30.471843
0
LINE
8
Layer 1
10
44.449915
20
30.471843
11
44.482089
21
31.851423
0
LINE
8
Layer 1
10
44.482089
20
31.851423
11
44.480113
21
33.218223
0
LINE
8
Layer 1
10
44.480113
20
33.218223
11
44.422083
21
34.273653
0
LINE
8
Layer 1
10
44.422083
20
34.273653
11
44.487296
21
35.029616
0
LINE
8
Layer 1
10
44.487296
20
35.029616
11
44.549102
21
35.975906
0
LINE
8
Layer 1
10
44.549102
20
35.975906
11
44.692349
21
38.524326
0
LINE
8
Layer 1
10
44.692349
20
38.524326
11
44.737403
21
39.701676
0
LINE
8
Layer 1
10
44.737403
20
39.701676
11
44.744103
21
41.708176
0
LINE
8
Layer 1
10
44.744103
20
41.708176
11
44.856817
21
43.665316
0
LINE
8
Layer 1
10
44.856817
20
43.665316
11
44.885115
21
44.269257
0
LINE
8
Layer 1
10
44.885115
20
44.269257
11
45.015753
21
48.721827
0
LINE
8
Layer 1
10
45.015753
20
48.721827
11
45.038309
21
49.514916
0
LINE
8
Layer 1
10
45.038309
20
49.514916
11
45.431289
21
49.121829
0
LINE
8
Layer 1
10
45.431289
20
49.121829
11
48.746999
21
45.599149
0
LINE
8
Layer 1
10
48.746999
20
45.599149
11
49.469609
21
44.833402
0
LINE
8
Layer 1
10
49.469609
20
44.833402
11
52.384679
21
41.800302
0
LINE
8
Layer 1
10
52.384679
20
41.800302
11
55.276559
21
38.784332
0
LINE
8
Layer 1
10
55.276559
20
38.784332
11
58.115829
21
35.681652
0
LINE
8
Layer 1
10
58.115829
20
35.681652
11
59.317109
21
34.417282
0
LINE
8
Layer 1
10
59.317109
20
34.417282
11
63.623779
21
29.862582
0
LINE
8
Layer 1
10
63.623779
20
29.862582
11
66.256609
21
27.031392
0
LINE
8
Layer 1
10
66.256609
20
27.031392
11
69.108699
21
23.953502
0
LINE
8
Layer 1
10
69.108699
20
23.953502
11
73.132179
21
19.565292
0
LINE
8
Layer 1
10
73.132179
20
19.565292
11
73.523672
21
19.149650
0
LINE
8
Layer 1
10
73.523672
20
19.149650
11
74.121867
21
18.554543
0
LINE
8
Layer 1
10
74.121867
20
18.554543
11
75.956667
21
16.488673
0
LINE
8
Layer 1
10
75.956667
20
16.488673
11
76.529648
21
15.856541
0
LINE
8
Layer 1
10
76.529648
20
15.856541
11
75.597037
21
16.946551
0
LINE
8
Layer 1
10
75.597037
20
16.946551
11
71.979797
21
21.157421
0
LINE
8
Layer 1
10
71.979797
20
21.157421
11
69.452607
21
24.079671
0
LINE
8
Layer 1
10
69.452607
20
24.079671
11
67.418607
21
26.434471
0
LINE
8
Layer 1
10
67.418607
20
26.434471
11
65.432108
21
28.798385
0
LINE
8
Layer 1
10
65.432108
20
28.798385
11
63.369807
21
31.057681
0
LINE
8
Layer 1
10
63.369807
20
31.057681
11
62.399751
21
32.266201
0
LINE
8
Layer 1
10
62.399751
20
32.266201
11
61.657298
21
33.211526
0
LINE
8
Layer 1
10
61.657298
20
33.211526
11
60.320328
21
34.745996
0
LINE
8
Layer 1
10
60.320328
20
34.745996
11
58.082228
21
37.406436
0
LINE
8
Layer 1
10
58.082228
20
37.406436
11
57.449458
21
38.188247
0
LINE
8
Layer 1
10
57.449458
20
38.188247
11
58.125095
21
37.727834
0
LINE
8
Layer 1
10
58.125095
20
37.727834
11
58.826538
21
37.205268
0
LINE
8
Layer 1
10
58.826538
20
37.205268
11
57.422278
21
38.982088
0
LINE
8
Layer 1
10
57.422278
20
38.982088
11
55.774768
21
41.040618
0
LINE
8
Layer 1
10
55.774768
20
41.040618
11
55.741476
21
40.899008
0
LINE
8
Layer 1
10
55.741476
20
40.899008
11
55.639609
21
40.850829
0
LINE
8
Layer 1
10
55.639609
20
40.850829
11
55.006359
21
41.505832
0
LINE
8
Layer 1
10
55.006359
20
41.505832
11
53.493749
21
43.392772
0
LINE
8
Layer 1
10
53.493749
20
43.392772
11
50.902249
21
46.616932
0
LINE
8
Layer 1
10
50.902249
20
46.616932
11
49.985169
21
47.631082
0
LINE
8
Layer 1
10
49.985169
20
47.631082
11
48.049860
21
49.984718
0
LINE
8
Layer 1
10
48.049860
20
49.984718
11
46.264569
21
52.454082
0
LINE
8
Layer 1
10
46.264569
20
52.454082
11
46.153503
21
52.630572
0
LINE
8
Layer 1
10
46.153503
20
52.630572
11
51.746193
21
58.507732
0
LINE
8
Layer 1
10
51.746193
20
58.507732
11
61.237413
21
68.487252
0
LINE
8
Layer 1
10
61.237413
20
68.487252
11
67.068083
21
74.642712
0
LINE
8
Layer 1
10
67.068083
20
74.642712
11
74.809343
21
82.881792
0
LINE
8
Layer 1
10
74.809343
20
82.881792
11
75.591527
21
83.724453
0
LINE
8
Layer 1
10
75.591527
20
83.724453
11
75.794614
21
83.944456
0
LINE
8
Layer 1
10
75.794614
20
83.944456
11
76.174561
21
84.368181
0
LINE
8
Layer 1
10
76.174561
20
84.368181
11
76.935100
21
85.217300
0
LINE
8
Layer 1
10
76.935100
20
85.217300
11
77.696817
21
86.068261
0
LINE
8
Layer 1
10
77.696817
20
86.068261
11
78.077989
21
86.494433
0
LINE
8
Layer 1
10
78.077989
20
86.494433
11
78.421024
21
86.923585
0
LINE
8
Layer 1
10
78.421024
20
86.923585
11
79.794804
21
88.643595
0
LINE
8
Layer 1
10
79.794804
20
88.643595
11
80.138689
21
89.074342
0
LINE
8
Layer 1
10
80.138689
20
89.074342
11
80.224645
21
89.182108
0
LINE
8
Layer 1
10
80.224645
20
89.182108
11
80.146241
21
89.289022
0
LINE
8
Layer 1
10
80.146241
20
89.289022
11
79.969539
21
89.502749
0
LINE
8
Layer 1
10
79.969539
20
89.502749
11
79.262248
21
90.358285
0
LINE
8
Layer 1
10
79.262248
20
90.358285
11
77.837188
21
92.075415
0
LINE
8
Layer 1
10
77.837188
20
92.075415
11
76.383988
21
93.805635
0
LINE
8
Layer 1
10
76.383988
20
93.805635
11
76.042657
21
94.212977
0
LINE
8
Layer 1
10
76.042657
20
94.212977
11
75.860742
21
94.435746
0
LINE
8
Layer 1
10
75.860742
20
94.435746
11
75.497175
21
94.881375
0
LINE
8
Layer 1
10
75.497175
20
94.881375
11
69.904595
21
101.729595
0
LINE
8
Layer 1
10
69.904595
20
101.729595
11
64.192000
21
108.490000
0
LINE
8
Layer 1
10
64.192000
20
108.490000
11
58.452390
21
115.227590
0
LINE
8
Layer 1
10
58.452390
20
115.227590
11
52.689920
21
121.945500
0
LINE
8
Layer 1
10
52.689920
20
121.945500
11
49.907720
21
125.171790
0
LINE
8
Layer 1
10
49.907720
20
125.171790
11
50.970490
21
125.718172
0
LINE
8
Layer 1
10
50.970490
20
125.718172
11
54.198430
21
127.430092
0
LINE
8
Layer 1
10
54.198430
20
127.430092
11
56.360890
21
128.674782
0
LINE
8
Layer 1
10
56.360890
20
128.674782
11
57.673610
21
129.469784
0
LINE
8
Layer 1
10
57.673610
20
129.469784
11
59.399960
21
130.567234
0
LINE
8
Layer 1
10
59.399960
20
130.567234
11
60.762890
21
131.526600
0
LINE
8
Layer 1
10
60.762890
20
131.526600
11
62.074330
21
132.445329
0
LINE
8
Layer 1
10
62.074330
20
132.445329
11
67.139090
21
136.413969
0
LINE
8
Layer 1
10
67.139090
20
136.413969
11
67.480263
21
136.710460
0
LINE
8
Layer 1
10
67.480263
20
136.710460
11
68.265052
21
137.381527
0
LINE
8
Layer 1
10
68.265052
20
137.381527
11
69.725592
21
138.538657
0
LINE
8
Layer 1
10
69.725592
20
138.538657
11
70.797932
21
139.355896
0
LINE
8
Layer 1
10
70.797932
20
139.355896
11
71.811232
21
140.144091
0
LINE
8
Layer 1
10
71.811232
20
140.144091
11
71.951446
21
140.275474
0
LINE
8
Layer 1
10
71.951446
20
140.275474
11
72.479531
21
140.743773
0
LINE
8
Layer 1
10
72.479531
20
140.743773
11
73.061715
21
141.245160
0
LINE
8
Layer 1
10
73.061715
20
141.245160
11
73.494748
21
141.656666
0
LINE
8
Layer 1
10
73.494748
20
141.656666
11
74.017838
21
141.945164
0
LINE
8
Layer 1
10
74.017838
20
141.945164
11
74.223578
21
142.080377
0
LINE
8
Layer 1
10
74.223578
20
142.080377
11
74.625335
21
142.402392
0
LINE
8
Layer 1
10
74.625335
20
142.402392
11
76.484815
21
143.882502
0
LINE
8
Layer 1
10
76.484815
20
143.882502
11
77.033861
21
144.326121
0
LINE
8
Layer 1
10
77.033861
20
144.326121
11
77.576151
21
144.772187
0
LINE
8
Layer 1
10
77.576151
20
144.772187
11
78.136740
21
145.171977
0
LINE
8
Layer 1
10
78.136740
20
145.171977
11
78.332218
21
145.336230
0
LINE
8
Layer 1
10
78.332218
20
145.336230
11
79.167756
21
146.021338
0
LINE
8
Layer 1
10
79.167756
20
146.021338
11
80.393346
21
146.951663
0
LINE
8
Layer 1
10
80.393346
20
146.951663
11
80.899624
21
147.342089
0
LINE
8
Layer 1
10
80.899624
20
147.342089
11
81.591488
21
147.882945
0
LINE
8
Layer 1
10
81.591488
20
147.882945
11
81.742127
21
148.000499
0
LINE
8
Layer 1
10
81.742127
20
148.000499
11
82.339309
21
148.477096
0
LINE
8
Layer 1
10
82.339309
20
148.477096
11
82.934950
21
148.946459
0
LINE
8
Layer 1
10
82.934950
20
148.946459
11
83.549847
21
149.396995
0
LINE
8
Layer 1
10
83.549847
20
149.396995
11
83.800807
21
149.589547
0
LINE
8
Layer 1
10
83.800807
20
149.589547
11
84.706503
21
150.276148
0
LINE
8
Layer 1
10
84.706503
20
150.276148
11
85.271080
21
150.690831
0
LINE
8
Layer 1
10
85.271080
20
150.690831
11
85.885760
21
151.138173
0
LINE
8
Layer 1
10
85.885760
20
151.138173
11
86.763795
21
151.764240
0
LINE
8
Layer 1
10
86.763795
20
151.764240
11
86.847200
21
151.825304
0
LINE
8
Layer 1
10
86.847200
20
151.825304
11
86.967308
21
151.919987
0
LINE
8
Layer 1
10
86.967308
20
151.919987
11
87.380820
21
152.201475
0
LINE
8
Layer 1
10
87.380820
20
152.201475
11
87.508269
21
152.289988
0
LINE
8
Layer 1
10
87.508269
20
152.289988
11
87.290075
21
152.147858
0
LINE
8
Layer 1
10
87.290075
20
152.147858
11
86.448900
21
151.598000
0
LINE
8
Layer 1
10
86.448900
20
151.598000
11
86.448900
21
151.598000
0
LINE
8
Layer 1
10
84.244700
20
176.790000
11
84.309967
21
176.824894
0
LINE
8
Layer 1
10
84.309967
20
176.824894
11
84.273690
21
176.794044
0
LINE
8
Layer 1
10
84.273690
20
176.794044
11
84.077944
21
176.662766
0
LINE
8
Layer 1
10
84.077944
20
176.662766
11
84.244700
21
176.790000
0
LINE
8
Layer 1
10
84.244700
20
176.790000
11
84.244700
21
176.790000
0
LINE
8
Layer 1
10
80.888520
20
174.772960
11
80.991020
21
174.838069
0
LINE
8
Layer 1
10
80.991020
20
174.838069
11
80.989044
21
174.822431
0
LINE
8
Layer 1
10
80.989044
20
174.822431
11
80.884574
21
174.757322
0
LINE
8
Layer 1
10
80.884574
20
174.757322
11
80.888500
21
174.773000
0
LINE
8
Layer 1
10
80.888500
20
174.773000
11
80.888520
21
174.772960
0
LINE
8
Layer 1
10
79.125000
20
173.709760
11
79.330161
21
173.890718
0
LINE
8
Layer 1
10
79.330161
20
173.890718
11
79.747824
21
174.060616
0
LINE
8
Layer 1
10
79.747824
20
174.060616
11
79.772770
21
174.053594
0
LINE
8
Layer 1
10
79.772770
20
174.053594
11
79.717079
21
173.986253
0
LINE
8
Layer 1
10
79.717079
20
173.986253
11
79.658941
21
173.947530
0
LINE
8
Layer 1
10
79.658941
20
173.947530
11
79.295589
21
173.727422
0
LINE
8
Layer 1
10
79.295589
20
173.727422
11
79.108143
21
173.648591
0
LINE
8
Layer 1
10
79.108143
20
173.648591
11
79.125000
21
173.709000
0
LINE
8
Layer 1
10
79.125000
20
173.709000
11
79.125000
21
173.709760
0
LINE
8
Layer 1
10
77.396590
20
172.815398
11
77.724303
21
173.032740
0
LINE
8
Layer 1
10
77.724303
20
173.032740
11
78.037005
21
173.192102
0
LINE
8
Layer 1
10
78.037005
20
173.192102
11
78.090675
21
173.173698
0
LINE
8
Layer 1
10
78.090675
20
173.173698
11
78.060410
21
173.135401
0
LINE
8
Layer 1
10
78.060410
20
173.135401
11
77.420991
21
172.753696
0
LINE
8
Layer 1
10
77.420991
20
172.753696
11
77.381364
21
172.752206
0
LINE
8
Layer 1
10
77.381364
20
172.752206
11
77.396600
21
172.815000
0
LINE
8
Layer 1
10
77.396600
20
172.815000
11
77.396590
21
172.815398
0
LINE
8
Layer 1
10
3.638120
20
178.049000
11
3.579926
21
178.094638
0
LINE
8
Layer 1
10
3.579926
20
178.094638
11
3.622747
21
178.073895
0
LINE
8
Layer 1
10
3.622747
20
178.073895
11
3.821736
21
177.947510
0
LINE
8
Layer 1
10
3.821736
20
177.947510
11
3.638120
21
178.049000
0
LINE
8
Layer 1
10
3.638120
20
178.049000
11
3.638120
21
178.049000
0
LINE
8
Layer 1
10
6.835630
20
175.789000
11
6.734832
21
175.856553
0
LINE
8
Layer 1
10
6.734832
20
175.856553
11
6.749883
21
175.861128
0
LINE
8
Layer 1
10
6.749883
20
175.861128
11
6.851534
21
175.791659
0
LINE
8
Layer 1
10
6.851534
20
175.791659
11
6.835630
21
175.789000
0
LINE
8
Layer 1
10
6.835630
20
175.789000
11
6.835630
21
175.789000
0
LINE
8
Layer 1
10
8.581600
20
174.611870
11
8.518885
21
174.602720
0
LINE
8
Layer 1
10
8.518885
20
174.602720
11
8.270586
21
174.717720
0
LINE
8
Layer 1
10
8.270586
20
174.717720
11
7.946968
21
175.031551
0
LINE
8
Layer 1
10
7.946968
20
175.031551
11
7.943299
21
175.057191
0
LINE
8
Layer 1
10
7.943299
20
175.057191
11
8.027446
21
175.033360
0
LINE
8
Layer 1
10
8.027446
20
175.033360
11
8.086224
21
174.995701
0
LINE
8
Layer 1
10
8.086224
20
174.995701
11
8.433992
21
174.751765
0
LINE
8
Layer 1
10
8.433992
20
174.751765
11
8.581590
21
174.612000
0
LINE
8
Layer 1
10
8.581590
20
174.612000
11
8.581600
21
174.611870
0
LINE
8
Layer 1
10
10.033350
20
173.380590
11
9.702498
21
173.593145
0
LINE
8
Layer 1
10
9.702498
20
173.593145
11
9.430687
21
173.815166
0
LINE
8
Layer 1
10
9.430687
20
173.815166
11
9.425954
21
173.871763
0
LINE
8
Layer 1
10
9.425954
20
173.871763
11
9.473187
21
173.859421
0
LINE
8
Layer 1
10
9.473187
20
173.859421
11
10.079998
21
173.427825
0
LINE
8
Layer 1
10
10.079998
20
173.427825
11
10.097391
21
173.392186
0
LINE
8
Layer 1
10
10.097391
20
173.392186
11
10.033400
21
173.380000
0
LINE
8
Layer 1
10
10.033400
20
173.380000
11
10.033350
21
173.380590
0
LINE
8
Layer 1
10
3.482520
20
151.375390
11
3.424329
21
151.421028
0
LINE
8
Layer 1
10
3.424329
20
151.421028
11
3.467147
21
151.400285
0
LINE
8
Layer 1
10
3.467147
20
151.400285
11
3.666136
21
151.273900
0
LINE
8
Layer 1
10
3.666136
20
151.273900
11
3.482520
21
151.375000
0
LINE
8
Layer 1
10
3.482520
20
151.375000
11
3.482520
21
151.375390
0
LINE
8
Layer 1
10
6.680040
20
149.115270
11
6.579242
21
149.182825
0
LINE
8
Layer 1
10
6.579242
20
149.182825
11
6.594296
21
149.187293
0
LINE
8
Layer 1
10
6.594296
20
149.187293
11
6.695944
21
149.117931
0
LINE
8
Layer 1
10
6.695944
20
149.117931
11
6.680040
21
149.115000
0
LINE
8
Layer 1
10
6.680040
20
149.115000
11
6.680040
21
149.115270
0
LINE
8
Layer 1
10
8.426010
20
147.938140
11
8.363295
21
147.928993
0
LINE
8
Layer 1
10
8.363295
20
147.928993
11
8.114996
21
148.043993
0
LINE
8
Layer 1
10
8.114996
20
148.043993
11
7.791378
21
148.357824
0
LINE
8
Layer 1
10
7.791378
20
148.357824
11
7.787709
21
148.383464
0
LINE
8
Layer 1
10
7.787709
20
148.383464
11
7.871811
21
148.359633
0
LINE
8
Layer 1
10
7.871811
20
148.359633
11
7.930640
21
148.321974
0
LINE
8
Layer 1
10
7.930640
20
148.321974
11
8.278354
21
148.077931
0
LINE
8
Layer 1
10
8.278354
20
148.077931
11
8.426020
21
147.938000
0
LINE
8
Layer 1
10
8.426020
20
147.938000
11
8.426010
21
147.938140
0
LINE
8
Layer 1
10
9.877770
20
146.707000
11
9.546918
21
146.919553
0
LINE
8
Layer 1
10
9.546918
20
146.919553
11
9.275107
21
147.141577
0
LINE
8
Layer 1
10
9.275107
20
147.141577
11
9.270309
21
147.198174
0
LINE
8
Layer 1
10
9.270309
20
147.198174
11
9.317596
21
147.185832
0
LINE
8
Layer 1
10
9.317596
20
147.185832
11
9.924407
21
146.754233
0
LINE
8
Layer 1
10
9.924407
20
146.754233
11
9.941800
21
146.718597
0
LINE
8
Layer 1
10
9.941800
20
146.718597
11
9.877770
21
146.707000
0
LINE
8
Layer 1
10
9.877770
20
146.707000
11
9.877770
21
146.707000
0
LINE
8
Layer 1
10
62.500570
20
31.405000
11
62.742965
21
31.076595
0
LINE
8
Layer 1
10
62.742965
20
31.076595
11
62.554240
21
31.258402
0
LINE
8
Layer 1
10
62.554240
20
31.258402
11
61.701472
21
32.241917
0
LINE
8
Layer 1
10
61.701472
20
32.241917
11
62.500600
21
31.404400
0
LINE
8
Layer 1
10
62.500600
20
31.404400
11
62.500570
21
31.405000
0
LINE
8
Layer 1
10
48.899700
20
48.209300
11
49.332100
21
47.697000
0
LINE
8
Layer 1
10
49.332100
20
47.697000
11
49.261262
21
47.710194
0
LINE
8
Layer 1
10
49.261262
20
47.710194
11
48.826045
21
48.232322
0
LINE
8
Layer 1
10
48.826045
20
48.232322
11
48.899700
21
48.209300
0
LINE
8
Layer 1
10
48.899700
20
48.209300
11
48.899700
21
48.209300
0
LINE
8
Layer 1
10
37.811600
20
62.105900
11
37.604951
21
62.265262
0
LINE
8
Layer 1
10
37.604951
20
62.265262
11
34.991571
21
65.437722
0
LINE
8
Layer 1
10
34.991571
20
65.437722
11
34.919175
21
65.623255
0
LINE
8
Layer 1
10
34.919175
20
65.623255
11
35.201092
21
65.520913
0
LINE
8
Layer 1
10
35.201092
20
65.520913
11
36.631842
21
63.886973
0
LINE
8
Layer 1
10
36.631842
20
63.886973
11
37.799452
21
62.349303
0
LINE
8
Layer 1
10
37.799452
20
62.349303
11
37.811600
21
62.105900
0
LINE
8
Layer 1
10
37.811600
20
62.105900
11
37.811600
21
62.105900
0
LINE
8
Layer 1
10
39.665920
20
60.266530
11
38.943045
21
61.369410
0
LINE
8
Layer 1
10
38.943045
20
61.369410
11
37.995276
21
62.713140
0
LINE
8
Layer 1
10
37.995276
20
62.713140
11
36.613506
21
64.441516
0
LINE
8
Layer 1
10
36.613506
20
64.441516
11
35.384836
21
66.281880
0
LINE
8
Layer 1
10
35.384836
20
66.281880
11
34.133076
21
67.891670
0
LINE
8
Layer 1
10
34.133076
20
67.891670
11
32.993822
21
69.195943
0
LINE
8
Layer 1
10
32.993822
20
69.195943
11
31.859876
21
70.514660
0
LINE
8
Layer 1
10
31.859876
20
70.514660
11
30.776533
21
71.854000
0
LINE
8
Layer 1
10
30.776533
20
71.854000
11
29.843426
21
73.245520
0
LINE
8
Layer 1
10
29.843426
20
73.245520
11
29.207041
21
74.076054
0
LINE
8
Layer 1
10
29.207041
20
74.076054
11
26.747080
21
77.050831
0
LINE
8
Layer 1
10
26.747080
20
77.050831
11
24.358931
21
80.065344
0
LINE
8
Layer 1
10
24.358931
20
80.065344
11
21.951425
21
83.095784
0
LINE
8
Layer 1
10
21.951425
20
83.095784
11
19.433061
21
86.052184
0
LINE
8
Layer 1
10
19.433061
20
86.052184
11
18.832312
21
86.883466
0
LINE
8
Layer 1
10
18.832312
20
86.883466
11
18.331726
21
87.548469
0
LINE
8
Layer 1
10
18.331726
20
87.548469
11
18.080340
21
87.880385
0
LINE
8
Layer 1
10
18.080340
20
87.880385
11
17.956244
21
88.043684
0
LINE
8
Layer 1
10
17.956244
20
88.043684
11
17.907202
21
88.102409
0
LINE
8
Layer 1
10
17.907202
20
88.102409
11
17.529914
21
88.545390
0
LINE
8
Layer 1
10
17.529914
20
88.545390
11
17.376030
21
88.771029
0
LINE
8
Layer 1
10
17.376030
20
88.771029
11
17.297412
21
88.881347
0
LINE
8
Layer 1
10
17.297412
20
88.881347
11
17.257359
21
88.936027
0
LINE
8
Layer 1
10
17.257359
20
88.936027
11
17.237146
21
88.963369
0
LINE
8
Layer 1
10
17.237146
20
88.963369
11
17.233195
21
88.990285
0
LINE
8
Layer 1
10
17.233195
20
88.990285
11
17.619687
21
89.416563
0
LINE
8
Layer 1
10
17.619687
20
89.416563
11
17.923572
21
89.778587
0
LINE
8
Layer 1
10
17.923572
20
89.778587
11
22.669232
21
94.816906
0
LINE
8
Layer 1
10
22.669232
20
94.816906
11
27.486702
21
99.957246
0
LINE
8
Layer 1
10
27.486702
20
99.957246
11
37.539602
21
110.864446
0
LINE
8
Layer 1
10
37.539602
20
110.864446
11
40.547382
21
114.184566
0
LINE
8
Layer 1
10
40.547382
20
114.184566
11
40.547063
21
113.963609
0
LINE
8
Layer 1
10
40.547063
20
113.963609
11
40.620255
21
108.645699
0
LINE
8
Layer 1
10
40.620255
20
108.645699
11
40.686055
21
103.536529
0
LINE
8
Layer 1
10
40.686055
20
103.536529
11
41.380321
21
83.071029
0
LINE
8
Layer 1
10
41.380321
20
83.071029
11
41.457503
21
81.641559
0
LINE
8
Layer 1
10
41.457503
20
81.641559
11
41.623887
21
78.372499
0
LINE
8
Layer 1
10
41.623887
20
78.372499
11
41.837346
21
72.448529
0
LINE
8
Layer 1
10
41.837346
20
72.448529
11
41.960271
21
68.155639
0
LINE
8
Layer 1
10
41.960271
20
68.155639
11
42.093090
21
64.071359
0
LINE
8
Layer 1
10
42.093090
20
64.071359
11
42.134740
21
63.467315
0
LINE
8
Layer 1
10
42.134740
20
63.467315
11
42.264209
21
61.238264
0
LINE
8
Layer 1
10
42.264209
20
61.238264
11
42.391390
21
58.806764
0
LINE
8
Layer 1
10
42.391390
20
58.806764
11
42.514741
21
57.244315
0
LINE
8
Layer 1
10
42.514741
20
57.244315
11
40.983991
21
58.991774
0
LINE
8
Layer 1
10
40.983991
20
58.991774
11
39.665900
21
60.266500
0
LINE
8
Layer 1
10
39.665900
20
60.266500
11
39.665920
21
60.266530
0
LINE
8
Layer 1
10
41.409390
20
57.103750
11
41.691570
21
57.000132
0
LINE
8
Layer 1
10
41.691570
20
57.000132
11
42.529290
21
56.284809
0
LINE
8
Layer 1
10
42.529290
20
56.284809
11
42.511363
21
55.662464
0
LINE
8
Layer 1
10
42.511363
20
55.662464
11
42.032585
21
56.182788
0
LINE
8
Layer 1
10
42.032585
20
56.182788
11
41.509536
21
56.815748
0
LINE
8
Layer 1
10
41.509536
20
56.815748
11
41.409400
21
57.103700
0
LINE
8
Layer 1
10
41.409400
20
57.103700
11
41.409390
21
57.103750
0
LINE
8
Layer 1
10
43.922270
20
12.780350
11
43.914715
21
12.931096
0
LINE
8
Layer 1
10
43.914715
20
12.931096
11
43.911046
21
13.683652
0
LINE
8
Layer 1
10
43.911046
20
13.683652
11
43.930353
21
13.015672
0
LINE
8
Layer 1
10
43.930353
20
13.015672
11
43.922300
21
12.780300
0
LINE
8
Layer 1
10
43.922300
20
12.780300
11
43.922270
21
12.780350
0
LINE
8
Layer 1
10
44.109877
20
25.120550
11
44.094823
21
25.153005
0
LINE
8
Layer 1
10
44.094823
20
25.153005
11
44.098069
21
25.545882
0
LINE
8
Layer 1
10
44.098069
20
25.545882
11
44.111737
21
25.508007
0
LINE
8
Layer 1
10
44.111737
20
25.508007
11
44.109877
21
25.120550
0
LINE
8
Layer 1
10
44.252856
20
31.213670
11
44.145355
21
29.800680
0
LINE
8
Layer 1
10
44.145355
20
29.800680
11
44.121047
21
29.746211
0
LINE
8
Layer 1
10
44.121047
20
29.746211
11
44.088493
21
30.012699
0
LINE
8
Layer 1
10
44.088493
20
30.012699
11
44.087801
21
30.235573
0
LINE
8
Layer 1
10
44.087801
20
30.235573
11
44.105621
21
31.591113
0
LINE
8
Layer 1
10
44.105621
20
31.591113
11
44.151098
21
32.229733
0
LINE
8
Layer 1
10
44.151098
20
32.229733
11
44.203546
21
32.078030
0
LINE
8
Layer 1
10
44.203546
20
32.078030
11
44.252900
21
31.213600
0
LINE
8
Layer 1
10
44.252900
20
31.213600
11
44.252856
21
31.213670
0
LINE
8
Layer 1
10
44.451845
20
37.004120
11
44.404996
21
35.889970
0
LINE
8
Layer 1
10
44.404996
20
35.889970
11
44.349094
21
35.778585
0
LINE
8
Layer 1
10
44.349094
20
35.778585
11
44.329677
21
35.926354
0
LINE
8
Layer 1
10
44.329677
20
35.926354
11
44.366913
21
38.301894
0
LINE
8
Layer 1
10
44.366913
20
38.301894
11
44.392392
21
38.410513
0
LINE
8
Layer 1
10
44.392392
20
38.410513
11
44.448190
21
38.259555
0
LINE
8
Layer 1
10
44.448190
20
38.259555
11
44.451900
21
37.004100
0
LINE
8
Layer 1
10
44.451900
20
37.004100
11
44.451845
21
37.004120
0
LINE
8
Layer 1
10
70.053300
20
88.934400
11
70.026915
21
88.948229
0
LINE
8
Layer 1
10
70.026915
20
88.948229
11
70.023726
21
88.949826
0
LINE
8
Layer 1
10
70.023726
20
88.949826
11
70.050588
21
88.937273
0
LINE
8
Layer 1
10
70.050588
20
88.937273
11
70.053300
21
88.934400
0
LINE
8
Layer 1
10
70.053300
20
88.934400
11
70.053300
21
88.934400
0
LINE
8
Layer 1
10
56.355300
20
104.373800
11
66.652100
21
92.685000
0
LINE
8
Layer 1
10
66.652100
20
92.685000
11
69.242330
21
89.776800
0
LINE
8
Layer 1
10
69.242330
20
89.776800
11
69.891537
21
89.051156
0
LINE
8
Layer 1
10
69.891537
20
89.051156
11
69.959036
21
88.975729
0
LINE
8
Layer 1
10
69.959036
20
88.975729
11
69.938504
21
88.951475
0
LINE
8
Layer 1
10
69.938504
20
88.951475
11
69.783183
21
88.764133
0
LINE
8
Layer 1
10
69.783183
20
88.764133
11
69.472437
21
88.389342
0
LINE
8
Layer 1
10
69.472437
20
88.389342
11
68.851213
21
87.639760
0
LINE
8
Layer 1
10
68.851213
20
87.639760
11
67.609400
21
86.140100
0
LINE
8
Layer 1
10
67.609400
20
86.140100
11
55.838400
21
71.546500
0
LINE
8
Layer 1
10
55.838400
20
71.546500
11
45.350800
21
58.353900
0
LINE
8
Layer 1
10
45.350800
20
58.353900
11
45.354204
21
58.476667
0
LINE
8
Layer 1
10
45.354204
20
58.476667
11
45.774997
21
66.613087
0
LINE
8
Layer 1
10
45.774997
20
66.613087
11
46.218565
21
75.183127
0
LINE
8
Layer 1
10
46.218565
20
75.183127
11
46.655747
21
84.175727
0
LINE
8
Layer 1
10
46.655747
20
84.175727
11
46.756864
21
86.425637
0
LINE
8
Layer 1
10
46.756864
20
86.425637
11
47.277132
21
97.263837
0
LINE
8
Layer 1
10
47.277132
20
97.263837
11
47.795433
21
114.351837
0
LINE
8
Layer 1
10
47.795433
20
114.351837
11
50.221083
21
111.471197
0
LINE
8
Layer 1
10
50.221083
20
111.471197
11
56.355300
21
104.374000
0
LINE
8
Layer 1
10
56.355300
20
104.374000
11
56.355300
21
104.373800
0
LINE
8
Layer 1
10
78.216000
20
146.461100
11
77.576581
21
146.079395
0
LINE
8
Layer 1
10
77.576581
20
146.079395
11
77.536954
21
146.077905
0
LINE
8
Layer 1
10
77.536954
20
146.077905
11
77.552166
21
146.141097
0
LINE
8
Layer 1
10
77.552166
20
146.141097
11
77.879879
21
146.358439
0
LINE
8
Layer 1
10
77.879879
20
146.358439
11
78.192595
21
146.517801
0
LINE
8
Layer 1
10
78.192595
20
146.517801
11
78.246265
21
146.499397
0
LINE
8
Layer 1
10
78.246265
20
146.499397
11
78.216000
21
146.461000
0
LINE
8
Layer 1
10
78.216000
20
146.461000
11
78.216000
21
146.461100
0
LINE
8
Layer 1
10
79.872640
20
147.311847
11
79.814502
21
147.273231
0
LINE
8
Layer 1
10
79.814502
20
147.273231
11
79.451100
21
147.053000
0
LINE
8
Layer 1
10
79.451100
20
147.053000
11
79.263705
21
146.974170
0
LINE
8
Layer 1
10
79.263705
20
146.974170
11
79.280514
21
147.035234
0
LINE
8
Layer 1
10
79.280514
20
147.035234
11
79.485729
21
147.216299
0
LINE
8
Layer 1
10
79.485729
20
147.216299
11
79.903336
21
147.386197
0
LINE
8
Layer 1
10
79.903336
20
147.386197
11
79.928285
21
147.379176
0
LINE
8
Layer 1
10
79.928285
20
147.379176
11
79.872600
21
147.312000
0
LINE
8
Layer 1
10
79.872600
20
147.312000
11
79.872640
21
147.311847
0
LINE
8
Layer 1
10
81.144610
20
148.148127
11
81.040140
21
148.083021
0
LINE
8
Layer 1
10
81.040140
20
148.083021
11
81.044077
21
148.098659
0
LINE
8
Layer 1
10
81.044077
20
148.098659
11
81.146577
21
148.163660
0
LINE
8
Layer 1
10
81.146577
20
148.163660
11
81.144600
21
148.148000
0
LINE
8
Layer 1
10
81.144600
20
148.148000
11
81.144610
21
148.148127
0
LINE
8
Layer 1
10
84.429250
20
150.119727
11
84.233504
21
149.988344
0
LINE
8
Layer 1
10
84.233504
20
149.988344
11
84.400261
21
150.115685
0
LINE
8
Layer 1
10
84.400261
20
150.115685
11
84.465528
21
150.150579
0
LINE
8
Layer 1
10
84.465528
20
150.150579
11
84.429300
21
150.120000
0
LINE
8
Layer 1
10
84.429300
20
150.120000
11
84.429250
21
150.119727
0
LINE
8
Layer 1
10
87.508300
20
152.290000
11
87.517766
21
152.296169
0
LINE
8
Layer 1
10
87.517766
20
152.296169
11
87.537767
21
152.309575
0
LINE
8
Layer 1
10
87.537767
20
152.309575
11
87.508300
21
152.290000
0
LINE
8
Layer 1
10
87.508300
20
152.290000
11
87.508300
21
152.290000
0
LINE
8
Layer 1
10
83.769700
20
149.909000
11
84.406991
21
150.334001
0
LINE
8
Layer 1
10
84.406991
20
150.334001
11
84.673321
21
150.505067
0
LINE
8
Layer 1
10
84.673321
20
150.505067
11
84.729331
21
150.552198
0
LINE
8
Layer 1
10
84.729331
20
150.552198
11
84.661352
21
150.524540
0
LINE
8
Layer 1
10
84.661352
20
150.524540
11
83.958264
21
150.100707
0
LINE
8
Layer 1
10
83.958264
20
150.100707
11
83.769700
21
149.909000
0
LINE
8
Layer 1
10
83.769700
20
149.909000
11
83.769700
21
149.909000
0
LINE
8
Layer 1
10
87.735600
20
152.442000
11
87.657300
21
152.389978
0
LINE
8
Layer 1
10
87.657300
20
152.389978
11
87.537725
21
152.309979
0
LINE
8
Layer 1
10
87.537725
20
152.309979
11
87.646129
21
152.381892
0
LINE
8
Layer 1
10
87.646129
20
152.381892
11
87.735600
21
152.442000
0
LINE
8
Layer 1
10
87.735600
20
152.442000
11
87.735600
21
152.442000
0
LINE
8
Layer 1
10
81.950600
20
148.871000
11
81.976663
21
148.895469
0
LINE
8
Layer 1
10
81.976663
20
148.895469
11
81.931129
21
148.873128
0
LINE
8
Layer 1
10
81.931129
20
148.873128
11
81.888949
21
148.843235
0
LINE
8
Layer 1
10
81.888949
20
148.843235
11
81.950600
21
148.871000
0
LINE
8
Layer 1
10
81.950600
20
148.871000
11
81.950600
21
148.871000
0
LINE
8
Layer 1
10
84.517800
20
177.179000
11
84.573810
21
177.226131
0
LINE
8
Layer 1
10
84.573810
20
177.226131
11
84.505831
21
177.198473
0
LINE
8
Layer 1
10
84.505831
20
177.198473
11
83.802743
21
176.774640
0
LINE
8
Layer 1
10
83.802743
20
176.774640
11
83.614126
21
176.582938
0
LINE
8
Layer 1
10
83.614126
20
176.582938
11
84.251471
21
177.007939
0
LINE
8
Layer 1
10
84.251471
20
177.007939
11
84.517800
21
177.179000
0
LINE
8
Layer 1
10
84.517800
20
177.179000
11
84.517800
21
177.179000
0
LINE
8
Layer 1
10
87.580100
20
179.116000
11
87.501800
21
179.064085
0
LINE
8
Layer 1
10
87.501800
20
179.064085
11
87.381269
21
178.983446
0
LINE
8
Layer 1
10
87.381269
20
178.983446
11
87.490523
21
179.055895
0
LINE
8
Layer 1
10
87.490523
20
179.055895
11
87.580100
21
179.116000
0
LINE
8
Layer 1
10
87.580100
20
179.116000
11
87.580100
21
179.116000
0
LINE
8
Layer 1
10
81.821100
20
175.569000
11
81.775566
21
175.546659
0
LINE
8
Layer 1
10
81.775566
20
175.546659
11
81.733385
21
175.516766
0
LINE
8
Layer 1
10
81.733385
20
175.516766
11
81.795037
21
175.544534
0
LINE
8
Layer 1
10
81.795037
20
175.544534
11
81.821100
21
175.569000
0
LINE
8
Layer 1
10
81.821100
20
175.569000
11
81.821100
21
175.569000
0
LINE
8
Layer 1
10
3.016140
20
151.468000
11
2.950447
21
151.500233
0
LINE
8
Layer 1
10
2.950447
20
151.500233
11
3.003161
21
151.449170
0
LINE
8
Layer 1
10
3.003161
20
151.449170
11
3.674175
21
150.976189
0
LINE
8
Layer 1
10
3.674175
20
150.976189
11
3.925559
21
150.880764
0
LINE
8
Layer 1
10
3.925559
20
150.880764
11
3.279971
21
151.293000
0
LINE
8
Layer 1
10
3.279971
20
151.293000
11
3.016140
21
151.468000
0
LINE
8
Layer 1
10
3.016140
20
151.468000
11
3.016140
21
151.468000
0
LINE
8
Layer 1
10
0.198038
20
153.372000
11
0.240591
21
153.344658
0
LINE
8
Layer 1
10
0.240591
20
153.344658
11
0.242508
21
153.343490
0
LINE
8
Layer 1
10
0.242508
20
153.343490
11
0.231123
21
153.350935
0
LINE
8
Layer 1
10
0.231123
20
153.350935
11
0.198038
21
153.372000
0
LINE
8
Layer 1
10
0.010270
20
153.492000
11
0.089369
21
153.441254
0
LINE
8
Layer 1
10
0.089369
20
153.441254
11
0.198024
21
153.372211
0
LINE
8
Layer 1
10
0.198024
20
153.372211
11
0.101320
21
153.434232
0
LINE
8
Layer 1
10
0.101320
20
153.434232
11
0.010270
21
153.492000
0
LINE
8
Layer 1
10
0.010270
20
153.492000
11
0.010270
21
153.492000
0
LINE
8
Layer 1
10
5.575670
20
149.648000
11
5.614447
21
149.615234
0
LINE
8
Layer 1
10
5.614447
20
149.615234
11
5.658756
21
149.588745
0
LINE
8
Layer 1
10
5.658756
20
149.588745
11
5.608543
21
149.633957
0
LINE
8
Layer 1
10
5.608543
20
149.633957
11
5.575670
21
149.648000
0
LINE
8
Layer 1
10
5.575670
20
149.648000
11
5.575670
21
149.648000
0
LINE
8
Layer 1
10
3.829810
20
177.650000
11
4.081140
21
177.554468
0
LINE
8
Layer 1
10
4.081140
20
177.554468
11
3.435605
21
177.966811
0
LINE
8
Layer 1
10
3.435605
20
177.966811
11
3.171727
21
178.141704
0
LINE
8
Layer 1
10
3.171727
20
178.141704
11
3.106034
21
178.174044
0
LINE
8
Layer 1
10
3.106034
20
178.174044
11
3.158748
21
178.122874
0
LINE
8
Layer 1
10
3.158748
20
178.122874
11
3.829810
21
177.650000
0
LINE
8
Layer 1
10
3.829810
20
177.650000
11
3.829810
21
177.650000
0
LINE
8
Layer 1
10
0.165856
20
180.165000
11
0.244969
21
180.115000
0
LINE
8
Layer 1
10
0.244969
20
180.115000
11
0.358371
21
180.042873
0
LINE
8
Layer 1
10
0.358371
20
180.042873
11
0.256921
21
180.108000
0
LINE
8
Layer 1
10
0.256921
20
180.108000
11
0.165856
21
180.165000
0
LINE
8
Layer 1
10
0.165856
20
180.165000
11
0.165856
21
180.165000
0
LINE
8
Layer 1
10
0.358357
20
180.043000
11
0.396175
21
180.018746
0
LINE
8
Layer 1
10
0.396175
20
180.018746
11
0.398037
21
180.017575
0
LINE
8
Layer 1
10
0.398037
20
180.017575
11
0.386709
21
180.025000
0
LINE
8
Layer 1
10
0.386709
20
180.025000
11
0.358357
21
180.043000
0
LINE
8
Layer 1
10
5.764130
20
176.308000
11
5.731257
21
176.322043
0
LINE
8
Layer 1
10
5.731257
20
176.322043
11
5.770034
21
176.289385
0
LINE
8
Layer 1
10
5.770034
20
176.289385
11
5.814343
21
176.262788
0
LINE
8
Layer 1
10
5.814343
20
176.262788
11
5.764130
21
176.308000
0
LINE
8
Layer 1
10
5.764130
20
176.308000
11
5.764130
21
176.308000
0
LINE
8
Layer 1
10
44.154300
20
12.616800
11
44.151478
21
11.606160
0
LINE
8
Layer 1
10
44.151478
20
11.606160
11
44.162484
21
11.374137
0
LINE
8
Layer 1
10
44.162484
20
11.374137
11
44.179982
21
11.604148
0
LINE
8
Layer 1
10
44.179982
20
11.604148
11
44.216632
21
14.223518
0
LINE
8
Layer 1
10
44.216632
20
14.223518
11
44.144823
21
15.062141
0
LINE
8
Layer 1
10
44.144823
20
15.062141
11
44.154300
21
12.616800
0
LINE
8
Layer 1
10
44.154300
20
12.616800
11
44.154300
21
12.616800
0
LINE
8
Layer 1
10
44.086900
20
0.039420
11
44.086053
21
0.339422
0
LINE
8
Layer 1
10
44.086053
20
0.339422
11
44.083979
21
0.782084
0
LINE
8
Layer 1
10
44.083979
20
0.782084
11
44.085150
21
0.383680
0
LINE
8
Layer 1
10
44.085150
20
0.383680
11
44.086681
21
0.069685
0
LINE
8
Layer 1
10
44.086681
20
0.069685
11
44.086900
21
0.039420
0
LINE
8
Layer 1
10
44.086900
20
0.039420
11
44.086900
21
0.039420
0
LINE
8
Layer 1
10
44.083900
20
0.782081
11
44.083527
21
0.911869
0
LINE
8
Layer 1
10
44.083527
20
0.911869
11
44.083474
21
0.915273
0
LINE
8
Layer 1
10
44.083474
20
0.915273
11
44.083500
21
0.875700
0
LINE
8
Layer 1
10
44.083500
20
0.875700
11
44.083900
21
0.782081
0
LINE
8
Layer 1
10
44.083900
20
0.782081
11
44.083900
21
0.782081
0
LINE
8
Layer 1
10
44.300400
20
21.737600
11
44.308220
21
21.625259
0
LINE
8
Layer 1
10
44.308220
20
21.625259
11
44.315933
21
21.785897
0
LINE
8
Layer 1
10
44.315933
20
21.785897
11
44.313487
21
21.950686
0
LINE
8
Layer 1
10
44.313487
20
21.950686
11
44.300400
21
21.737600
0
LINE
8
Layer 1
10
44.300400
20
21.737600
11
44.300400
21
21.737600
0
LINE
8
Layer 1
10
60.755300
20
34.571400
11
63.538720
21
31.385850
0
LINE
8
Layer 1
10
63.538720
20
31.385850
11
64.671490
21
30.054140
0
LINE
8
Layer 1
10
64.671490
20
30.054140
11
64.962873
21
29.775203
0
LINE
8
Layer 1
10
64.962873
20
29.775203
11
64.750055
21
30.117013
0
LINE
8
Layer 1
10
64.750055
20
30.117013
11
61.887165
21
33.631073
0
LINE
8
Layer 1
10
61.887165
20
33.631073
11
61.290833
21
34.289834
0
LINE
8
Layer 1
10
61.290833
20
34.289834
11
60.755300
21
34.571400
0
LINE
8
Layer 1
10
60.755300
20
34.571400
11
60.755300
21
34.571400
0
LINE
8
Layer 1
10
76.676900
20
15.687400
11
76.531793
21
15.854210
0
LINE
8
Layer 1
10
76.531793
20
15.854210
11
76.529611
21
15.856550
0
LINE
8
Layer 1
10
76.529611
20
15.856550
11
76.572323
21
15.806551
0
LINE
8
Layer 1
10
76.572323
20
15.806551
11
76.676900
21
15.687400
0
LINE
8
Layer 1
10
76.676900
20
15.687400
11
76.676900
21
15.687400
0
LINE
8
Layer 1
10
77.525000
20
14.717700
11
77.184146
21
15.109190
0
LINE
8
Layer 1
10
77.184146
20
15.109190
11
76.676858
21
15.687384
0
LINE
8
Layer 1
10
76.676858
20
15.687384
11
77.131433
21
15.164616
0
LINE
8
Layer 1
10
77.131433
20
15.164616
11
77.490279
21
14.756802
0
LINE
8
Layer 1
10
77.490279
20
14.756802
11
77.567085
21
14.669713
0
LINE
8
Layer 1
10
77.567085
20
14.669713
11
77.525000
21
14.717700
0
LINE
8
Layer 1
10
77.525000
20
14.717700
11
77.525000
21
14.717700
0
LINE
8
Layer 1
10
53.595200
20
43.643800
11
53.740999
21
43.512736
0
LINE
8
Layer 1
10
53.740999
20
43.512736
11
53.577274
21
43.738480
0
LINE
8
Layer 1
10
53.577274
20
43.738480
11
53.384827
21
43.949119
0
LINE
8
Layer 1
10
53.384827
20
43.949119
11
53.595200
21
43.643800
0
LINE
8
Layer 1
10
53.595200
20
43.643800
11
53.595200
21
43.643800
 0 
ENDSEC
 0 
EOF