999
"DXF R12 Output" (www.mydxf.blogspot.com)
 0 
SECTION
 2 
HEADER
 9 
$ACADVER
 1 
AC1009
 9 
$EXTMIN
 10 
 0 
 20 
 0 
 9 
$EXTMAX
 10 
 8.5 
 20 
 11 
 0 
ENDSEC
 0 
SECTION
 2 
ENTITIES
0
LINE
8
Layer 1
10
40.925300
20
14.174200
11
40.922639
21
13.038800
0
LINE
8
Layer 1
10
40.922639
20
13.038800
11
40.933064
21
12.778080
0
LINE
8
Layer 1
10
40.933064
20
12.778080
11
40.949769
21
13.036539
0
LINE
8
Layer 1
10
40.949769
20
13.036539
11
40.984660
21
15.979319
0
LINE
8
Layer 1
10
40.984660
20
15.979319
11
40.916258
21
16.921478
0
LINE
8
Layer 1
10
40.916258
20
16.921478
11
40.925300
21
14.174200
0
LINE
8
Layer 1
10
40.925300
20
14.174200
11
40.925300
21
14.174200
0
LINE
8
Layer 1
10
40.861200
20
0.043675
11
40.860353
21
0.380750
0
LINE
8
Layer 1
10
40.860353
20
0.380750
11
40.858333
21
0.901232
0
LINE
8
Layer 1
10
40.858333
20
0.901232
11
40.859504
21
0.430378
0
LINE
8
Layer 1
10
40.859504
20
0.430378
11
40.860988
21
0.077631
0
LINE
8
Layer 1
10
40.860988
20
0.077631
11
40.861200
21
0.043675
0
LINE
8
Layer 1
10
40.861200
20
0.043675
11
40.861200
21
0.043675
0
LINE
8
Layer 1
10
41.064500
20
24.421200
11
41.071945
21
24.294976
0
LINE
8
Layer 1
10
41.071945
20
24.294976
11
41.079283
21
24.475482
0
LINE
8
Layer 1
10
41.079283
20
24.475482
11
41.076943
21
24.660668
0
LINE
8
Layer 1
10
41.076943
20
24.660668
11
41.064500
21
24.421200
0
LINE
8
Layer 1
10
41.064500
20
24.421200
11
41.064500
21
24.421200
0
LINE
8
Layer 1
10
60.796800
20
20.278600
11
62.786910
21
17.668590
0
LINE
8
Layer 1
10
62.786910
20
17.668590
11
63.591703
21
16.576700
0
LINE
8
Layer 1
10
63.591703
20
16.576700
11
63.807981
21
16.349438
0
LINE
8
Layer 1
10
63.807981
20
16.349438
11
63.670000
21
16.631725
0
LINE
8
Layer 1
10
63.670000
20
16.631725
11
61.657650
21
19.516395
0
LINE
8
Layer 1
10
61.657650
20
19.516395
11
61.227881
21
20.055637
0
LINE
8
Layer 1
10
61.227881
20
20.055637
11
60.796800
21
20.278600
0
LINE
8
Layer 1
10
60.796800
20
20.278600
11
60.796800
21
20.278600
0
LINE
8
Layer 1
10
72.088500
20
4.785590
11
71.980629
21
4.927852
0
LINE
8
Layer 1
10
71.980629
20
4.927852
11
71.978501
21
4.930299
0
LINE
8
Layer 1
10
71.978501
20
4.930299
11
72.009351
21
4.888781
0
LINE
8
Layer 1
10
72.009351
20
4.888781
11
72.088500
21
4.785590
0
LINE
8
Layer 1
10
72.088500
20
4.785590
11
72.088500
21
4.785590
0
LINE
8
Layer 1
10
72.690900
20
3.996710
11
72.447283
21
4.317430
0
LINE
8
Layer 1
10
72.447283
20
4.317430
11
72.088556
21
4.785597
0
LINE
8
Layer 1
10
72.088556
20
4.785597
11
72.408985
21
4.362775
0
LINE
8
Layer 1
10
72.408985
20
4.362775
11
72.665936
21
4.028728
0
LINE
8
Layer 1
10
72.665936
20
4.028728
11
72.690900
21
3.996710
0
LINE
8
Layer 1
10
72.690900
20
3.996710
11
72.690900
21
3.996710
0
LINE
8
Layer 1
10
55.805000
20
27.732200
11
55.914468
21
27.625684
0
LINE
8
Layer 1
10
55.914468
20
27.625684
11
55.802990
21
27.811561
0
LINE
8
Layer 1
10
55.802990
20
27.811561
11
55.663948
21
27.983877
0
LINE
8
Layer 1
10
55.663948
20
27.983877
11
55.805000
21
27.732200
0
LINE
8
Layer 1
10
55.805000
20
27.732200
11
55.805000
21
27.732200
0
LINE
8
Layer 1
10
81.145700
20
94.705600
11
80.206121
21
95.891720
0
LINE
8
Layer 1
10
80.206121
20
95.891720
11
79.731971
21
96.485924
0
LINE
8
Layer 1
10
79.731971
20
96.485924
11
79.271435
21
97.080343
0
LINE
8
Layer 1
10
79.271435
20
97.080343
11
78.395263
21
98.270133
0
LINE
8
Layer 1
10
78.395263
20
98.270133
11
77.961324
21
98.867049
0
LINE
8
Layer 1
10
77.961324
20
98.867049
11
77.745791
21
99.166413
0
LINE
8
Layer 1
10
77.745791
20
99.166413
11
77.622706
21
99.343753
0
LINE
8
Layer 1
10
77.622706
20
99.343753
11
73.419319
21
105.276007
0
LINE
8
Layer 1
10
73.419319
20
105.276007
11
69.062976
21
111.106553
0
LINE
8
Layer 1
10
69.062976
20
111.106553
11
54.265576
21
130.221453
0
LINE
8
Layer 1
10
54.265576
20
130.221453
11
45.059036
21
141.490353
0
LINE
8
Layer 1
10
45.059036
20
141.490353
11
44.455947
21
142.215621
0
LINE
8
Layer 1
10
44.455947
20
142.215621
11
44.455100
21
142.362856
0
LINE
8
Layer 1
10
44.455100
20
142.362856
11
49.235340
21
149.555286
0
LINE
8
Layer 1
10
49.235340
20
149.555286
11
57.025490
21
161.200186
0
LINE
8
Layer 1
10
57.025490
20
161.200186
11
61.951580
21
168.482406
0
LINE
8
Layer 1
10
61.951580
20
168.482406
11
68.902990
21
179.006506
0
LINE
8
Layer 1
10
68.902990
20
179.006506
11
71.965030
21
183.759986
0
LINE
8
Layer 1
10
71.965030
20
183.759986
11
72.723132
21
184.870941
0
LINE
8
Layer 1
10
72.723132
20
184.870941
11
71.602155
21
183.424184
0
LINE
8
Layer 1
10
71.602155
20
183.424184
11
68.882145
21
180.048264
0
LINE
8
Layer 1
10
68.882145
20
180.048264
11
61.817700
21
171.355000
0
LINE
8
Layer 1
10
61.817700
20
171.355000
11
53.130210
21
160.785800
0
LINE
8
Layer 1
10
53.130210
20
160.785800
11
44.383360
21
150.310200
0
LINE
8
Layer 1
10
44.383360
20
150.310200
11
44.356018
21
153.373720
0
LINE
8
Layer 1
10
44.356018
20
153.373720
11
44.308467
21
165.086520
0
LINE
8
Layer 1
10
44.308467
20
165.086520
11
44.449014
21
172.438420
0
LINE
8
Layer 1
10
44.449014
20
172.438420
11
44.593133
21
177.709438
0
LINE
8
Layer 1
10
44.593133
20
177.709438
11
44.433200
21
182.980000
0
LINE
8
Layer 1
10
44.433200
20
182.980000
11
44.025539
21
185.514905
0
LINE
8
Layer 1
10
44.025539
20
185.514905
11
43.628344
21
186.653786
0
LINE
8
Layer 1
10
43.628344
20
186.653786
11
43.091920
21
187.702260
0
LINE
8
Layer 1
10
43.091920
20
187.702260
11
42.359858
21
188.533575
0
LINE
8
Layer 1
10
42.359858
20
188.533575
11
41.944118
21
188.755473
0
LINE
8
Layer 1
10
41.944118
20
188.755473
11
41.512123
21
188.827132
0
LINE
8
Layer 1
10
41.512123
20
188.827132
11
41.076537
21
188.732753
0
LINE
8
Layer 1
10
41.076537
20
188.732753
11
40.650024
21
188.456537
0
LINE
8
Layer 1
10
40.650024
20
188.456537
11
40.245247
21
187.982685
0
LINE
8
Layer 1
10
40.245247
20
187.982685
11
39.874870
21
187.295397
0
LINE
8
Layer 1
10
39.874870
20
187.295397
11
39.294278
21
185.519679
0
LINE
8
Layer 1
10
39.294278
20
185.519679
11
39.039228
21
183.668947
0
LINE
8
Layer 1
10
39.039228
20
183.668947
11
38.520287
21
174.300767
0
LINE
8
Layer 1
10
38.520287
20
174.300767
11
38.140698
21
162.861467
0
LINE
8
Layer 1
10
38.140698
20
162.861467
11
37.758781
21
150.269367
0
LINE
8
Layer 1
10
37.758781
20
150.269367
11
36.109091
21
152.253157
0
LINE
8
Layer 1
10
36.109091
20
152.253157
11
27.183511
21
163.052457
0
LINE
8
Layer 1
10
27.183511
20
163.052457
11
21.617531
21
169.858027
0
LINE
8
Layer 1
10
21.617531
20
169.858027
11
13.525361
21
179.532597
0
LINE
8
Layer 1
10
13.525361
20
179.532597
11
9.848211
21
183.827937
0
LINE
8
Layer 1
10
9.848211
20
183.827937
11
9.000920
21
184.872497
0
LINE
8
Layer 1
10
9.000920
20
184.872497
11
10.065976
21
183.384160
0
LINE
8
Layer 1
10
10.065976
20
183.384160
11
12.521306
21
179.811000
0
LINE
8
Layer 1
10
12.521306
20
179.811000
11
18.826556
21
170.552550
0
LINE
8
Layer 1
10
18.826556
20
170.552550
11
26.464576
21
159.201650
0
LINE
8
Layer 1
10
26.464576
20
159.201650
11
35.082386
21
146.178750
0
LINE
8
Layer 1
10
35.082386
20
146.178750
11
37.605586
21
142.368630
0
LINE
8
Layer 1
10
37.605586
20
142.368630
11
37.602609
21
142.185490
0
LINE
8
Layer 1
10
37.602609
20
142.185490
11
36.272069
21
140.590910
0
LINE
8
Layer 1
10
36.272069
20
140.590910
11
32.068219
21
135.527270
0
LINE
8
Layer 1
10
32.068219
20
135.527270
11
26.496809
21
128.748250
0
LINE
8
Layer 1
10
26.496809
20
128.748250
11
22.040619
21
123.167690
0
LINE
8
Layer 1
10
22.040619
20
123.167690
11
17.763700
21
117.802000
0
LINE
8
Layer 1
10
17.763700
20
117.802000
11
13.790400
21
112.603000
0
LINE
8
Layer 1
10
13.790400
20
112.603000
11
9.841010
21
107.387000
0
LINE
8
Layer 1
10
9.841010
20
107.387000
11
5.913440
21
102.154150
0
LINE
8
Layer 1
10
5.913440
20
102.154150
11
3.959170
21
99.530610
0
LINE
8
Layer 1
10
3.959170
20
99.530610
11
2.122140
21
97.063990
0
LINE
8
Layer 1
10
2.122140
20
97.063990
11
0.000000
21
94.413800
0
LINE
8
Layer 1
10
0.000000
20
94.413800
11
1.692770
21
92.314320
0
LINE
8
Layer 1
10
1.692770
20
92.314320
11
2.007134
21
91.926499
0
LINE
8
Layer 1
10
2.007134
20
91.926499
11
2.301390
21
91.539903
0
LINE
8
Layer 1
10
2.301390
20
91.539903
11
2.891925
21
90.770001
0
LINE
8
Layer 1
10
2.891925
20
90.770001
11
3.969375
21
89.375261
0
LINE
8
Layer 1
10
3.969375
20
89.375261
11
6.677475
21
85.921311
0
LINE
8
Layer 1
10
6.677475
20
85.921311
11
11.502505
21
79.601231
0
LINE
8
Layer 1
10
11.502505
20
79.601231
11
14.971355
21
75.000621
0
LINE
8
Layer 1
10
14.971355
20
75.000621
11
18.307645
21
70.650331
0
LINE
8
Layer 1
10
18.307645
20
70.650331
11
18.836902
21
70.033676
0
LINE
8
Layer 1
10
18.836902
20
70.033676
11
19.825417
21
68.913770
0
LINE
8
Layer 1
10
19.825417
20
68.913770
11
20.755852
21
67.732546
0
LINE
8
Layer 1
10
20.755852
20
67.732546
11
21.762310
21
66.448323
0
LINE
8
Layer 1
10
21.762310
20
66.448323
11
22.836182
21
65.212856
0
LINE
8
Layer 1
10
22.836182
20
65.212856
11
24.517459
21
63.305668
0
LINE
8
Layer 1
10
24.517459
20
63.305668
11
25.887300
21
61.163800
0
LINE
8
Layer 1
10
25.887300
20
61.163800
11
26.497410
21
60.302679
0
LINE
8
Layer 1
10
26.497410
20
60.302679
11
27.869550
21
58.586929
0
LINE
8
Layer 1
10
27.869550
20
58.586929
11
34.229260
21
50.681999
0
LINE
8
Layer 1
10
34.229260
20
50.681999
11
36.141930
21
48.354379
0
LINE
8
Layer 1
10
36.141930
20
48.354379
11
37.534920
21
46.630649
0
LINE
8
Layer 1
10
37.534920
20
46.630649
11
37.082896
21
45.924688
0
LINE
8
Layer 1
10
37.082896
20
45.924688
11
34.565436
21
42.060898
0
LINE
8
Layer 1
10
34.565436
20
42.060898
11
30.842016
21
36.633958
0
LINE
8
Layer 1
10
30.842016
20
36.633958
11
29.315946
21
34.365538
0
LINE
8
Layer 1
10
29.315946
20
34.365538
11
27.247106
21
31.231318
0
LINE
8
Layer 1
10
27.247106
20
31.231318
11
26.797955
21
30.548496
0
LINE
8
Layer 1
10
26.797955
20
30.548496
11
25.033375
21
27.799596
0
LINE
8
Layer 1
10
25.033375
20
27.799596
11
23.276985
21
25.071766
0
LINE
8
Layer 1
10
23.276985
20
25.071766
11
21.432295
21
22.379146
0
LINE
8
Layer 1
10
21.432295
20
22.379146
11
20.692823
21
21.244826
0
LINE
8
Layer 1
10
20.692823
20
21.244826
11
18.023343
21
17.176106
0
LINE
8
Layer 1
10
18.023343
20
17.176106
11
16.351743
21
14.683906
0
LINE
8
Layer 1
10
16.351743
20
14.683906
11
14.531633
21
11.983096
0
LINE
8
Layer 1
10
14.531633
20
11.983096
11
11.924813
21
8.168306
0
LINE
8
Layer 1
10
11.924813
20
8.168306
11
11.680770
21
7.798279
0
LINE
8
Layer 1
10
11.680770
20
7.798279
11
11.341821
21
7.236973
0
LINE
8
Layer 1
10
11.341821
20
7.236973
11
10.098191
21
5.490763
0
LINE
8
Layer 1
10
10.098191
20
5.490763
11
9.720530
21
4.946424
0
LINE
8
Layer 1
10
9.720530
20
4.946424
11
10.386915
21
5.838423
0
LINE
8
Layer 1
10
10.386915
20
5.838423
11
12.956075
21
9.295173
0
LINE
8
Layer 1
10
12.956075
20
9.295173
11
14.734385
21
11.708243
0
LINE
8
Layer 1
10
14.734385
20
11.708243
11
16.168015
21
13.650643
0
LINE
8
Layer 1
10
16.168015
20
13.650643
11
18.967285
21
17.510603
0
LINE
8
Layer 1
10
18.967285
20
17.510603
11
19.723564
21
18.445715
0
LINE
8
Layer 1
10
19.723564
20
18.445715
11
20.319738
21
19.163510
0
LINE
8
Layer 1
10
20.319738
20
19.163510
11
21.250805
21
20.438920
0
LINE
8
Layer 1
10
21.250805
20
20.438920
11
22.887095
21
22.583320
0
LINE
8
Layer 1
10
22.887095
20
22.583320
11
23.374969
21
23.192657
0
LINE
8
Layer 1
10
23.374969
20
23.192657
11
23.171895
21
22.580259
0
LINE
8
Layer 1
10
23.171895
20
22.580259
11
22.923264
21
21.939937
0
LINE
8
Layer 1
10
22.923264
20
21.939937
11
24.041244
21
23.296407
0
LINE
8
Layer 1
10
24.041244
20
23.296407
11
25.330824
21
24.885167
0
LINE
8
Layer 1
10
25.330824
20
24.885167
11
25.201342
21
24.898580
0
LINE
8
Layer 1
10
25.201342
20
24.898580
11
25.132100
21
24.978915
0
LINE
8
Layer 1
10
25.132100
20
24.978915
11
25.512208
21
25.575673
0
LINE
8
Layer 1
10
25.512208
20
25.575673
11
26.693588
21
27.034063
0
LINE
8
Layer 1
10
26.693588
20
27.034063
11
28.710198
21
29.531723
0
LINE
8
Layer 1
10
28.710198
20
29.531723
11
29.316267
21
30.402686
0
LINE
8
Layer 1
10
29.316267
20
30.402686
11
30.777587
21
32.263884
0
LINE
8
Layer 1
10
30.777587
20
32.263884
11
32.376397
21
34.008396
0
LINE
8
Layer 1
10
32.376397
20
34.008396
11
33.375805
21
35.020666
0
LINE
8
Layer 1
10
33.375805
20
35.020666
11
34.215357
21
36.168996
0
LINE
8
Layer 1
10
34.215357
20
36.168996
11
35.378447
21
37.611505
0
LINE
8
Layer 1
10
35.378447
20
37.611505
11
36.458557
21
39.094496
0
LINE
8
Layer 1
10
36.458557
20
39.094496
11
37.174306
21
40.327526
0
LINE
8
Layer 1
10
37.174306
20
40.327526
11
37.909734
21
41.045029
0
LINE
8
Layer 1
10
37.909734
20
41.045029
11
38.786973
21
41.975234
0
LINE
8
Layer 1
10
38.786973
20
41.975234
11
39.857083
21
43.292364
0
LINE
8
Layer 1
10
39.857083
20
43.292364
11
39.859423
21
43.126564
0
LINE
8
Layer 1
10
39.859423
20
43.126564
11
39.896018
21
42.217200
0
LINE
8
Layer 1
10
39.896018
20
42.217200
11
40.035382
21
38.364520
0
LINE
8
Layer 1
10
40.035382
20
38.364520
11
40.165486
21
32.859500
0
LINE
8
Layer 1
10
40.165486
20
32.859500
11
40.225275
21
30.573590
0
LINE
8
Layer 1
10
40.225275
20
30.573590
11
40.314319
21
27.435060
0
LINE
8
Layer 1
10
40.314319
20
27.435060
11
40.333468
21
26.752052
0
LINE
8
Layer 1
10
40.333468
20
26.752052
11
40.419958
21
24.024322
0
LINE
8
Layer 1
10
40.419958
20
24.024322
11
40.500391
21
21.314792
0
LINE
8
Layer 1
10
40.500391
20
21.314792
11
40.549435
21
18.584782
0
LINE
8
Layer 1
10
40.549435
20
18.584782
11
40.578157
21
17.453522
0
LINE
8
Layer 1
10
40.578157
20
17.453522
11
40.673266
21
13.387332
0
LINE
8
Layer 1
10
40.673266
20
13.387332
11
40.719435
21
10.878382
0
LINE
8
Layer 1
10
40.719435
20
10.878382
11
40.765499
21
8.155202
0
LINE
8
Layer 1
10
40.765499
20
8.155202
11
40.818274
21
4.290732
0
LINE
8
Layer 1
10
40.818274
20
4.290732
11
40.824977
21
3.920304
0
LINE
8
Layer 1
10
40.824977
20
3.920304
11
40.841146
21
3.373998
0
LINE
8
Layer 1
10
40.841146
20
3.373998
11
40.852742
21
1.579868
0
LINE
8
Layer 1
10
40.852742
20
1.579868
11
40.858062
21
1.023908
0
LINE
8
Layer 1
10
40.858062
20
1.023908
11
40.858000
21
0.983223
0
LINE
8
Layer 1
10
40.858000
20
0.983223
11
40.858319
21
0.901201
0
LINE
8
Layer 1
10
40.858319
20
0.901201
11
40.858000
21
1.018862
0
LINE
8
Layer 1
10
40.858000
20
1.018862
11
40.858319
21
1.957589
0
LINE
8
Layer 1
10
40.858319
20
1.957589
11
40.857043
21
5.562849
0
LINE
8
Layer 1
10
40.857043
20
5.562849
11
40.852787
21
8.071989
0
LINE
8
Layer 1
10
40.852787
20
8.071989
11
40.849703
21
10.092819
0
LINE
8
Layer 1
10
40.849703
20
10.092819
11
40.831830
21
14.083799
0
LINE
8
Layer 1
10
40.831830
20
14.083799
11
40.845340
21
15.089709
0
LINE
8
Layer 1
10
40.845340
20
15.089709
11
40.859702
21
15.869686
0
LINE
8
Layer 1
10
40.859702
20
15.869686
11
40.855127
21
17.191446
0
LINE
8
Layer 1
10
40.855127
20
17.191446
11
40.864596
21
19.449196
0
LINE
8
Layer 1
10
40.864596
20
19.449196
11
40.873000
21
20.102204
0
LINE
8
Layer 1
10
40.873000
20
20.102204
11
40.989916
21
19.035334
0
LINE
8
Layer 1
10
40.989916
20
19.035334
11
41.018531
21
20.505024
0
LINE
8
Layer 1
10
41.018531
20
20.505024
11
41.048108
21
22.216364
0
LINE
8
Layer 1
10
41.048108
20
22.216364
11
40.980552
21
22.179983
0
LINE
8
Layer 1
10
40.980552
20
22.179983
11
40.965030
21
22.770651
0
LINE
8
Layer 1
10
40.965030
20
22.770651
11
40.990994
21
24.340391
0
LINE
8
Layer 1
10
40.990994
20
24.340391
11
41.035783
21
27.025531
0
LINE
8
Layer 1
10
41.035783
20
27.025531
11
41.025995
21
27.913249
0
LINE
8
Layer 1
10
41.025995
20
27.913249
11
41.135889
21
31.863959
0
LINE
8
Layer 1
10
41.135889
20
31.863959
11
41.206849
21
34.233919
0
LINE
8
Layer 1
10
41.206849
20
34.233919
11
41.237487
21
35.783929
0
LINE
8
Layer 1
10
41.237487
20
35.783929
11
41.235570
21
37.319579
0
LINE
8
Layer 1
10
41.235570
20
37.319579
11
41.180359
21
38.505229
0
LINE
8
Layer 1
10
41.180359
20
38.505229
11
41.242380
21
39.354647
0
LINE
8
Layer 1
10
41.242380
20
39.354647
11
41.301209
21
40.417737
0
LINE
8
Layer 1
10
41.301209
20
40.417737
11
41.341104
21
41.970567
0
LINE
8
Layer 1
10
41.341104
20
41.970567
11
43.536754
21
39.364387
0
LINE
8
Layer 1
10
43.536754
20
39.364387
11
47.669644
21
34.242447
0
LINE
8
Layer 1
10
47.669644
20
34.242447
11
49.405934
21
32.130577
0
LINE
8
Layer 1
10
49.405934
20
32.130577
11
51.816154
21
29.250647
0
LINE
8
Layer 1
10
51.816154
20
29.250647
11
52.341688
21
28.624712
0
LINE
8
Layer 1
10
52.341688
20
28.624712
11
54.469998
21
26.146692
0
LINE
8
Layer 1
10
54.469998
20
26.146692
11
56.580438
21
23.682472
0
LINE
8
Layer 1
10
56.580438
20
23.682472
11
58.631828
21
21.143792
0
LINE
8
Layer 1
10
58.631828
20
21.143792
11
59.506832
21
20.110382
0
LINE
8
Layer 1
10
59.506832
20
20.110382
11
62.640362
21
16.387382
0
LINE
8
Layer 1
10
62.640362
20
16.387382
11
64.549312
21
14.071922
0
LINE
8
Layer 1
10
64.549312
20
14.071922
11
66.615602
21
11.554492
0
LINE
8
Layer 1
10
66.615602
20
11.554492
11
69.523902
21
7.964152
0
LINE
8
Layer 1
10
69.523902
20
7.964152
11
69.808478
21
7.624357
0
LINE
8
Layer 1
10
69.808478
20
7.624357
11
70.249224
21
7.138848
0
LINE
8
Layer 1
10
70.249224
20
7.138848
11
71.566044
21
5.447108
0
LINE
8
Layer 1
10
71.566044
20
5.447108
11
71.978599
21
4.930272
0
LINE
8
Layer 1
10
71.978599
20
4.930272
11
71.315617
21
5.823307
0
LINE
8
Layer 1
10
71.315617
20
5.823307
11
68.739647
21
9.275027
0
LINE
8
Layer 1
10
68.739647
20
9.275027
11
66.937097
21
11.670017
0
LINE
8
Layer 1
10
66.937097
20
11.670017
11
65.486667
21
13.599977
0
LINE
8
Layer 1
10
65.486667
20
13.599977
11
62.590267
21
17.387607
0
LINE
8
Layer 1
10
62.590267
20
17.387607
11
61.911009
21
18.380032
0
LINE
8
Layer 1
10
61.911009
20
18.380032
11
61.394091
21
19.156817
0
LINE
8
Layer 1
10
61.394091
20
19.156817
11
60.438770
21
20.414167
0
LINE
8
Layer 1
10
60.438770
20
20.414167
11
58.852910
21
22.596147
0
LINE
8
Layer 1
10
58.852910
20
22.596147
11
58.408865
21
23.238117
0
LINE
8
Layer 1
10
58.408865
20
23.238117
11
58.937473
21
22.868133
0
LINE
8
Layer 1
10
58.937473
20
22.868133
11
59.479725
21
22.446465
0
LINE
8
Layer 1
10
59.479725
20
22.446465
11
58.500358
21
23.906235
0
LINE
8
Layer 1
10
58.500358
20
23.906235
11
57.347588
21
25.596825
0
LINE
8
Layer 1
10
57.347588
20
25.596825
11
57.297602
21
25.476641
0
LINE
8
Layer 1
10
57.297602
20
25.476641
11
57.200779
21
25.433314
0
LINE
8
Layer 1
10
57.200779
20
25.433314
11
56.737907
21
25.968407
0
LINE
8
Layer 1
10
56.737907
20
25.968407
11
55.679067
21
27.518017
0
LINE
8
Layer 1
10
55.679067
20
27.518017
11
53.863637
21
30.165637
0
LINE
8
Layer 1
10
53.863637
20
30.165637
11
53.202783
21
30.995748
0
LINE
8
Layer 1
10
53.202783
20
30.995748
11
51.838224
21
32.928989
0
LINE
8
Layer 1
10
51.838224
20
32.928989
11
50.624793
21
34.960498
0
LINE
8
Layer 1
10
50.624793
20
34.960498
11
49.941152
21
36.207939
0
LINE
8
Layer 1
10
49.941152
20
36.207939
11
49.081383
21
37.341198
0
LINE
8
Layer 1
10
49.081383
20
37.341198
11
48.032543
21
38.868808
0
LINE
8
Layer 1
10
48.032543
20
38.868808
11
46.921053
21
40.328448
0
LINE
8
Layer 1
10
46.921053
20
40.328448
11
45.944771
21
41.367438
0
LINE
8
Layer 1
10
45.944771
20
41.367438
11
45.467960
21
42.277550
0
LINE
8
Layer 1
10
45.467960
20
42.277550
11
44.827957
21
43.384470
0
LINE
8
Layer 1
10
44.827957
20
43.384470
11
43.859899
21
44.806456
0
LINE
8
Layer 1
10
43.859899
20
44.806456
11
43.046037
21
46.321980
0
LINE
8
Layer 1
10
43.046037
20
46.321980
11
42.830292
21
46.738418
0
LINE
8
Layer 1
10
42.830292
20
46.738418
11
43.704444
21
47.905708
0
LINE
8
Layer 1
10
43.704444
20
47.905708
11
44.540250
21
48.948970
0
LINE
8
Layer 1
10
44.540250
20
48.948970
11
45.462224
21
49.871838
0
LINE
8
Layer 1
10
45.462224
20
49.871838
11
45.990309
21
50.489128
0
LINE
8
Layer 1
10
45.990309
20
50.489128
11
47.831916
21
52.851286
0
LINE
8
Layer 1
10
47.831916
20
52.851286
11
49.727139
21
55.157398
0
LINE
8
Layer 1
10
49.727139
20
55.157398
11
51.630477
21
57.481345
0
LINE
8
Layer 1
10
51.630477
20
57.481345
11
53.440139
21
59.890508
0
LINE
8
Layer 1
10
53.440139
20
59.890508
11
53.978971
21
60.478063
0
LINE
8
Layer 1
10
53.978971
20
60.478063
11
57.273991
21
64.494093
0
LINE
8
Layer 1
10
57.273991
20
64.494093
11
57.935802
21
65.368417
0
LINE
8
Layer 1
10
57.935802
20
65.368417
11
64.913812
21
73.787717
0
LINE
8
Layer 1
10
64.913812
20
73.787717
11
72.157682
21
82.734627
0
LINE
8
Layer 1
10
72.157682
20
82.734627
11
75.841422
21
87.397947
0
LINE
8
Layer 1
10
75.841422
20
87.397947
11
77.713772
21
89.797117
0
LINE
8
Layer 1
10
77.713772
20
89.797117
11
79.473252
21
92.095637
0
LINE
8
Layer 1
10
79.473252
20
92.095637
11
81.375072
21
94.413837
0
LINE
8
Layer 1
10
81.375072
20
94.413837
11
81.145700
21
94.705600
0
LINE
8
Layer 1
10
19.020000
20
18.273300
11
18.808616
21
18.036914
0
LINE
8
Layer 1
10
18.808616
20
18.036914
11
18.910532
21
18.213379
0
LINE
8
Layer 1
10
18.910532
20
18.213379
11
19.508301
21
19.027426
0
LINE
8
Layer 1
10
19.508301
20
19.027426
11
19.020000
21
18.273300
0
LINE
8
Layer 1
10
19.020000
20
18.273300
11
19.020000
21
18.273300
0
LINE
8
Layer 1
10
29.505400
20
31.369900
11
29.190722
21
30.955804
0
LINE
8
Layer 1
10
29.190722
20
30.955804
11
29.182210
21
31.016442
0
LINE
8
Layer 1
10
29.182210
20
31.016442
11
29.504445
21
31.433944
0
LINE
8
Layer 1
10
29.504445
20
31.433944
11
29.505400
21
31.369900
0
LINE
8
Layer 1
10
29.505400
20
31.369900
11
29.505400
21
31.369900
0
LINE
8
Layer 1
10
34.964470
20
38.299030
11
34.379892
21
37.287960
0
LINE
8
Layer 1
10
34.379892
20
37.287960
11
33.017700
21
35.937700
0
LINE
8
Layer 1
10
33.017700
20
35.937700
11
32.920898
21
35.918605
0
LINE
8
Layer 1
10
32.920898
20
35.918605
11
33.063347
21
36.258448
0
LINE
8
Layer 1
10
33.063347
20
36.258448
11
33.240475
21
36.499564
0
LINE
8
Layer 1
10
33.240475
20
36.499564
11
34.365375
21
37.930144
0
LINE
8
Layer 1
10
34.365375
20
37.930144
11
34.757290
21
38.432474
0
LINE
8
Layer 1
10
34.757290
20
38.432474
11
34.973992
21
38.545670
0
LINE
8
Layer 1
10
34.973992
20
38.545670
11
34.964400
21
38.299000
0
LINE
8
Layer 1
10
34.964400
20
38.299000
11
34.964470
21
38.299030
0
LINE
8
Layer 1
10
61.874570
20
17.656630
11
62.040531
21
17.386414
0
LINE
8
Layer 1
10
62.040531
20
17.386414
11
61.900636
21
17.534581
0
LINE
8
Layer 1
10
61.900636
20
17.534581
11
61.291909
21
18.340542
0
LINE
8
Layer 1
10
61.291909
20
18.340542
11
61.874600
21
17.656600
0
LINE
8
Layer 1
10
61.874600
20
17.656600
11
61.874570
21
17.656630
0
LINE
8
Layer 1
10
52.330300
20
31.454100
11
52.636898
21
31.033939
0
LINE
8
Layer 1
10
52.636898
20
31.033939
11
52.576367
21
31.043193
0
LINE
8
Layer 1
10
52.576367
20
31.043193
11
52.268706
21
31.471493
0
LINE
8
Layer 1
10
52.268706
20
31.471493
11
52.330300
21
31.454100
0
LINE
8
Layer 1
10
52.330300
20
31.454100
11
52.330300
21
31.454100
0
LINE
8
Layer 1
10
47.021550
20
38.748970
11
47.255171
21
38.669183
0
LINE
8
Layer 1
10
47.255171
20
38.669183
11
48.056450
21
37.819390
0
LINE
8
Layer 1
10
48.056450
20
37.819390
11
48.959967
21
36.127630
0
LINE
8
Layer 1
10
48.959967
20
36.127630
11
48.950498
21
36.029436
0
LINE
8
Layer 1
10
48.950498
20
36.029436
11
48.665708
21
36.263268
0
LINE
8
Layer 1
10
48.665708
20
36.263268
11
48.485388
21
36.502045
0
LINE
8
Layer 1
10
48.485388
20
36.502045
11
47.436978
21
37.989605
0
LINE
8
Layer 1
10
47.436978
20
37.989605
11
47.067922
21
38.508951
0
LINE
8
Layer 1
10
47.067922
20
38.508951
11
47.021500
21
38.749000
0
LINE
8
Layer 1
10
47.021500
20
38.749000
11
47.021550
21
38.748970
0
LINE
8
Layer 1
10
35.331850
20
57.642170
11
33.650548
21
60.131451
0
LINE
8
Layer 1
10
33.650548
20
60.131451
11
31.860660
21
62.555370
0
LINE
8
Layer 1
10
31.860660
20
62.555370
11
31.452042
21
63.239843
0
LINE
8
Layer 1
10
31.452042
20
63.239843
11
28.548202
21
67.547203
0
LINE
8
Layer 1
10
28.548202
20
67.547203
11
27.900113
21
68.431726
0
LINE
8
Layer 1
10
27.900113
20
68.431726
11
21.832313
21
77.528956
0
LINE
8
Layer 1
10
21.832313
20
77.528956
11
15.335300
21
87.032000
0
LINE
8
Layer 1
10
15.335300
20
87.032000
11
11.922520
21
91.897180
0
LINE
8
Layer 1
10
11.922520
20
91.897180
11
10.239750
21
94.262730
0
LINE
8
Layer 1
10
10.239750
20
94.262730
11
10.116772
21
94.318474
0
LINE
8
Layer 1
10
10.116772
20
94.318474
11
10.086346
21
94.413795
0
LINE
8
Layer 1
10
10.086346
20
94.413795
11
10.098899
21
94.424486
0
LINE
8
Layer 1
10
10.098899
20
94.424486
11
10.184751
21
94.499912
0
LINE
8
Layer 1
10
10.184751
20
94.499912
11
10.265184
21
94.505557
0
LINE
8
Layer 1
10
10.265184
20
94.505557
11
10.308483
21
94.504812
0
LINE
8
Layer 1
10
10.308483
20
94.504812
11
10.331038
21
94.502949
0
LINE
8
Layer 1
10
10.331038
20
94.502949
11
10.375186
21
94.553108
0
LINE
8
Layer 1
10
10.375186
20
94.553108
11
10.434334
21
94.626088
0
LINE
8
Layer 1
10
10.434334
20
94.626088
11
14.913991
21
100.352543
0
LINE
8
Layer 1
10
14.913991
20
100.352543
11
19.252364
21
106.196388
0
LINE
8
Layer 1
10
19.252364
20
106.196388
11
33.327864
21
125.848888
0
LINE
8
Layer 1
10
33.327864
20
125.848888
11
37.496934
21
131.942218
0
LINE
8
Layer 1
10
37.496934
20
131.942218
11
37.490657
21
128.035818
0
LINE
8
Layer 1
10
37.490657
20
128.035818
11
37.560338
21
122.061208
0
LINE
8
Layer 1
10
37.560338
20
122.061208
11
37.622991
21
116.321018
0
LINE
8
Layer 1
10
37.622991
20
116.321018
11
38.284059
21
93.328318
0
LINE
8
Layer 1
10
38.284059
20
93.328318
11
38.357569
21
91.722348
0
LINE
8
Layer 1
10
38.357569
20
91.722348
11
38.515975
21
88.049568
0
LINE
8
Layer 1
10
38.515975
20
88.049568
11
38.719274
21
81.394108
0
LINE
8
Layer 1
10
38.719274
20
81.394108
11
38.836295
21
76.571108
0
LINE
8
Layer 1
10
38.836295
20
76.571108
11
38.962680
21
71.982458
0
LINE
8
Layer 1
10
38.962680
20
71.982458
11
39.002361
21
71.303785
0
LINE
8
Layer 1
10
39.002361
20
71.303785
11
39.125661
21
68.799515
0
LINE
8
Layer 1
10
39.125661
20
68.799515
11
39.246734
21
66.067745
0
LINE
8
Layer 1
10
39.246734
20
66.067745
11
39.375413
21
63.947441
0
LINE
8
Layer 1
10
39.375413
20
63.947441
11
39.322479
21
61.823895
0
LINE
8
Layer 1
10
39.322479
20
61.823895
11
39.323436
21
60.940701
0
LINE
8
Layer 1
10
39.323436
20
60.940701
11
39.383010
21
59.102821
0
LINE
8
Layer 1
10
39.383010
20
59.102821
11
39.630033
21
51.214271
0
LINE
8
Layer 1
10
39.630033
20
51.214271
11
39.174284
21
52.041777
0
LINE
8
Layer 1
10
39.174284
20
52.041777
11
38.734176
21
52.724599
0
LINE
8
Layer 1
10
38.734176
20
52.724599
11
36.998422
21
55.165737
0
LINE
8
Layer 1
10
36.998422
20
55.165737
11
35.331800
21
57.642200
0
LINE
8
Layer 1
10
35.331800
20
57.642200
11
35.331850
21
57.642170
0
LINE
8
Layer 1
10
38.423670
20
42.101970
11
38.220371
21
42.066975
0
LINE
8
Layer 1
10
38.220371
20
42.066975
11
38.298242
21
42.256233
0
LINE
8
Layer 1
10
38.298242
20
42.256233
11
39.645272
21
43.975873
0
LINE
8
Layer 1
10
39.645272
20
43.975873
11
39.799422
21
43.773426
0
LINE
8
Layer 1
10
39.799422
20
43.773426
11
39.404526
21
43.236030
0
LINE
8
Layer 1
10
39.404526
20
43.236030
11
38.423600
21
42.101900
0
LINE
8
Layer 1
10
38.423600
20
42.101900
11
38.423670
21
42.101970
0
LINE
8
Layer 1
10
40.704530
20
14.357970
11
40.697297
21
14.527385
0
LINE
8
Layer 1
10
40.697297
20
14.527385
11
40.693786
21
15.372789
0
LINE
8
Layer 1
10
40.693786
20
15.372789
11
40.712190
21
14.622332
0
LINE
8
Layer 1
10
40.712190
20
14.622332
11
40.704500
21
14.357900
0
LINE
8
Layer 1
10
40.704500
20
14.357900
11
40.704530
21
14.357970
0
LINE
8
Layer 1
10
40.883148
20
28.221970
11
40.868786
21
28.258433
0
LINE
8
Layer 1
10
40.868786
20
28.258433
11
40.871870
21
28.699828
0
LINE
8
Layer 1
10
40.871870
20
28.699828
11
40.884957
21
28.657357
0
LINE
8
Layer 1
10
40.884957
20
28.657357
11
40.883148
21
28.221970
0
LINE
8
Layer 1
10
41.019317
20
35.067550
11
40.916978
21
33.480050
0
LINE
8
Layer 1
10
40.916978
20
33.480050
11
40.893785
21
33.418828
0
LINE
8
Layer 1
10
40.893785
20
33.418828
11
40.862828
21
33.718243
0
LINE
8
Layer 1
10
40.862828
20
33.718243
11
40.862083
21
33.968670
0
LINE
8
Layer 1
10
40.862083
20
33.968670
11
40.879104
21
35.491540
0
LINE
8
Layer 1
10
40.879104
20
35.491540
11
40.922402
21
36.209044
0
LINE
8
Layer 1
10
40.922402
20
36.209044
11
40.972296
21
36.038669
0
LINE
8
Layer 1
10
40.972296
20
36.038669
11
41.019200
21
35.067500
0
LINE
8
Layer 1
10
41.019200
20
35.067500
11
41.019317
21
35.067550
0
LINE
8
Layer 1
10
41.208787
20
41.573010
11
41.164106
21
40.321300
0
LINE
8
Layer 1
10
41.164106
20
40.321300
11
41.110915
21
40.196140
0
LINE
8
Layer 1
10
41.110915
20
40.196140
11
41.092404
21
40.362087
0
LINE
8
Layer 1
10
41.092404
20
40.362087
11
41.117296
21
42.230607
0
LINE
8
Layer 1
10
41.117296
20
42.230607
11
41.208999
21
42.123958
0
LINE
8
Layer 1
10
41.208999
20
42.123958
11
41.208700
21
41.572900
0
LINE
8
Layer 1
10
41.208700
20
41.572900
11
41.208787
21
41.573010
0
LINE
8
Layer 1
10
43.796887
20
44.337330
11
44.602529
21
43.072800
0
LINE
8
Layer 1
10
44.602529
20
43.072800
11
44.577849
21
42.868011
0
LINE
8
Layer 1
10
44.577849
20
42.868011
11
44.418806
21
42.996789
0
LINE
8
Layer 1
10
44.418806
20
42.996789
11
42.576666
21
45.600309
0
LINE
8
Layer 1
10
42.576666
20
45.600309
11
42.539858
21
45.754684
0
LINE
8
Layer 1
10
42.539858
20
45.754684
11
42.773476
21
45.675961
0
LINE
8
Layer 1
10
42.773476
20
45.675961
11
43.796800
21
44.337200
0
LINE
8
Layer 1
10
43.796800
20
44.337200
11
43.796887
21
44.337330
0
LINE
8
Layer 1
10
68.613487
20
90.711530
11
63.940377
21
84.278310
0
LINE
8
Layer 1
10
63.940377
20
84.278310
11
60.526000
21
79.636900
0
LINE
8
Layer 1
10
60.526000
20
79.636900
11
57.313640
21
75.194320
0
LINE
8
Layer 1
10
57.313640
20
75.194320
11
56.874503
21
74.510541
0
LINE
8
Layer 1
10
56.874503
20
74.510541
11
56.084696
21
73.242662
0
LINE
8
Layer 1
10
56.084696
20
73.242662
11
55.219493
21
72.012921
0
LINE
8
Layer 1
10
55.219493
20
72.012921
11
54.277345
21
70.680760
0
LINE
8
Layer 1
10
54.277345
20
70.680760
11
53.401183
21
69.298011
0
LINE
8
Layer 1
10
53.401183
20
69.298011
11
52.055466
21
67.140896
0
LINE
8
Layer 1
10
52.055466
20
67.140896
11
50.395743
21
65.214911
0
LINE
8
Layer 1
10
50.395743
20
65.214911
11
49.745419
21
64.383736
0
LINE
8
Layer 1
10
49.745419
20
64.383736
11
48.494669
21
62.577666
0
LINE
8
Layer 1
10
48.494669
20
62.577666
11
42.742619
21
54.220066
0
LINE
8
Layer 1
10
42.742619
20
54.220066
11
41.681659
21
52.649846
0
LINE
8
Layer 1
10
41.681659
20
52.649846
11
41.745489
21
54.737516
0
LINE
8
Layer 1
10
41.745489
20
54.737516
11
41.854638
21
59.771586
0
LINE
8
Layer 1
10
41.854638
20
59.771586
11
41.897192
21
60.435420
0
LINE
8
Layer 1
10
41.897192
20
60.435420
11
42.053577
21
64.779060
0
LINE
8
Layer 1
10
42.053577
20
64.779060
11
42.067832
21
65.696939
0
LINE
8
Layer 1
10
42.067832
20
65.696939
11
42.468587
21
74.838159
0
LINE
8
Layer 1
10
42.468587
20
74.838159
11
42.890929
21
84.466449
0
LINE
8
Layer 1
10
42.890929
20
84.466449
11
43.307099
21
94.569549
0
LINE
8
Layer 1
10
43.307099
20
94.569549
11
43.403483
21
97.097279
0
LINE
8
Layer 1
10
43.403483
20
97.097279
11
43.898805
21
109.273979
0
LINE
8
Layer 1
10
43.898805
20
109.273979
11
44.414444
21
129.505279
0
LINE
8
Layer 1
10
44.414444
20
129.505279
11
44.449979
21
132.060879
0
LINE
8
Layer 1
10
44.449979
20
132.060879
11
44.632531
21
131.786729
0
LINE
8
Layer 1
10
44.632531
20
131.786729
11
49.531601
21
124.507119
0
LINE
8
Layer 1
10
49.531601
20
124.507119
11
53.601941
21
118.639109
0
LINE
8
Layer 1
10
53.601941
20
118.639109
11
57.517061
21
113.004669
0
LINE
8
Layer 1
10
57.517061
20
113.004669
11
61.359951
21
107.708739
0
LINE
8
Layer 1
10
61.359951
20
107.708739
11
65.226881
21
102.430579
0
LINE
8
Layer 1
10
65.226881
20
102.430579
11
69.115411
21
97.168639
0
LINE
8
Layer 1
10
69.115411
20
97.168639
11
71.069251
21
94.544799
0
LINE
8
Layer 1
10
71.069251
20
94.544799
11
71.191380
21
94.380811
0
LINE
8
Layer 1
10
71.191380
20
94.380811
11
71.199564
21
94.370386
0
LINE
8
Layer 1
10
71.199564
20
94.370386
11
71.146904
21
94.295490
0
LINE
8
Layer 1
10
71.146904
20
94.295490
11
68.613400
21
90.711500
0
LINE
8
Layer 1
10
68.613400
20
90.711500
11
68.613487
21
90.711530
0
LINE
8
Layer 1
10
71.306057
20
94.402930
11
71.295101
21
94.410005
0
LINE
8
Layer 1
10
71.295101
20
94.410005
11
71.286697
21
94.415006
0
LINE
8
Layer 1
10
71.286697
20
94.415006
11
71.294675
21
94.419739
0
LINE
8
Layer 1
10
71.294675
20
94.419739
11
71.307547
21
94.413889
0
LINE
8
Layer 1
10
71.307547
20
94.413889
11
71.305207
21
94.405112
0
LINE
8
Layer 1
10
71.305207
20
94.405112
11
71.306057
21
94.402930
0
LINE
8
Layer 1
10
18.477200
20
16.318800
11
18.321453
21
16.046484
0
LINE
8
Layer 1
10
18.321453
20
16.046484
11
18.552400
21
16.259500
0
LINE
8
Layer 1
10
18.552400
20
16.259500
11
20.739750
21
19.013850
0
LINE
8
Layer 1
10
20.739750
20
19.013850
11
21.133197
21
19.580122
0
LINE
8
Layer 1
10
21.133197
20
19.580122
11
21.223371
21
20.056990
0
LINE
8
Layer 1
10
21.223371
20
20.056990
11
19.292831
21
17.402620
0
LINE
8
Layer 1
10
19.292831
20
17.402620
11
18.477200
21
16.318800
0
LINE
8
Layer 1
10
18.477200
20
16.318800
11
18.477200
21
16.318800
0
LINE
8
Layer 1
10
9.621540
20
4.810960
11
9.719412
21
4.944660
0
LINE
8
Layer 1
10
9.719412
20
4.944660
11
9.720476
21
4.946387
0
LINE
8
Layer 1
10
9.720476
20
4.946387
11
9.690264
21
4.905855
0
LINE
8
Layer 1
10
9.690264
20
4.905855
11
9.621540
21
4.810960
0
LINE
8
Layer 1
10
9.621540
20
4.810960
11
9.621540
21
4.810960
0
LINE
8
Layer 1
10
9.030680
20
3.997500
11
9.268235
21
4.322687
0
LINE
8
Layer 1
10
9.268235
20
4.322687
11
9.621535
21
4.810959
0
LINE
8
Layer 1
10
9.621535
20
4.810959
11
9.300682
21
4.372448
0
LINE
8
Layer 1
10
9.300682
20
4.372448
11
9.054264
21
4.030542
0
LINE
8
Layer 1
10
9.054264
20
4.030542
11
9.030680
21
3.997500
0
LINE
8
Layer 1
10
9.030680
20
3.997500
11
9.030680
21
3.997500
0
LINE
8
Layer 1
10
26.934800
20
26.974600
11
26.864160
21
26.839255
0
LINE
8
Layer 1
10
26.864160
20
26.839255
11
27.010224
21
26.999275
0
LINE
8
Layer 1
10
27.010224
20
26.999275
11
27.135531
21
27.181830
0
LINE
8
Layer 1
10
27.135531
20
27.181830
11
26.934800
21
26.974600
0
LINE
8
Layer 1
10
26.934800
20
26.974600
11
26.934800
21
26.974600
 0 
ENDSEC
 0 
EOF