999
"DXF R12 Output" (www.mydxf.blogspot.com)
 0 
SECTION
 2 
HEADER
 9 
$ACADVER
 1 
AC1009
 9 
$EXTMIN
 10 
 0 
 20 
 0 
 9 
$EXTMAX
 10 
 8.5 
 20 
 11 
 0 
ENDSEC
 0 
SECTION
 2 
ENTITIES
0
LINE
8
Layer 1
10
70.163200
20
72.974200
11
70.117737
21
73.012060
0
LINE
8
Layer 1
10
70.117737
20
73.012060
11
70.026861
21
73.087887
0
LINE
8
Layer 1
10
70.026861
20
73.087887
11
69.845110
21
73.239660
0
LINE
8
Layer 1
10
69.845110
20
73.239660
11
69.117858
21
73.847420
0
LINE
8
Layer 1
10
69.117858
20
73.847420
11
67.661268
21
75.067340
0
LINE
8
Layer 1
10
67.661268
20
75.067340
11
64.709228
21
77.538049
0
LINE
8
Layer 1
10
64.709228
20
77.538049
11
63.218498
21
78.782079
0
LINE
8
Layer 1
10
63.218498
20
78.782079
11
62.479979
21
79.416094
0
LINE
8
Layer 1
10
62.479979
20
79.416094
11
60.992689
21
80.671615
0
LINE
8
Layer 1
10
60.992689
20
80.671615
11
37.936689
21
99.463014
0
LINE
8
Layer 1
10
37.936689
20
99.463014
11
38.433916
21
110.910115
0
LINE
8
Layer 1
10
38.433916
20
110.910115
11
39.007481
21
131.444315
0
LINE
8
Layer 1
10
39.007481
20
131.444315
11
39.057000
21
143.795015
0
LINE
8
Layer 1
10
39.057000
20
143.795015
11
39.014071
21
149.021595
0
LINE
8
Layer 1
10
39.014071
20
149.021595
11
40.260691
21
150.387655
0
LINE
8
Layer 1
10
40.260691
20
150.387655
11
42.343631
21
152.687765
0
LINE
8
Layer 1
10
42.343631
20
152.687765
11
45.177541
21
155.871585
0
LINE
8
Layer 1
10
45.177541
20
155.871585
11
45.793245
21
156.565540
0
LINE
8
Layer 1
10
45.793245
20
156.565540
11
48.223275
21
159.365460
0
LINE
8
Layer 1
10
48.223275
20
159.365460
11
50.640745
21
162.143090
0
LINE
8
Layer 1
10
50.640745
20
162.143090
11
53.150155
21
164.868440
0
LINE
8
Layer 1
10
53.150155
20
164.868440
11
54.165515
21
166.022100
0
LINE
8
Layer 1
10
54.165515
20
166.022100
11
57.826275
21
170.157670
0
LINE
8
Layer 1
10
57.826275
20
170.157670
11
60.109265
21
172.685500
0
LINE
8
Layer 1
10
60.109265
20
172.685500
11
62.592705
21
175.423580
0
LINE
8
Layer 1
10
62.592705
20
175.423580
11
66.140565
21
179.285690
0
LINE
8
Layer 1
10
66.140565
20
179.285690
11
66.474922
21
179.661567
0
LINE
8
Layer 1
10
66.474922
20
179.661567
11
66.947362
21
180.236541
0
LINE
8
Layer 1
10
66.947362
20
180.236541
11
68.627322
21
181.996951
0
LINE
8
Layer 1
10
68.627322
20
181.996951
11
69.139535
21
182.546798
0
LINE
8
Layer 1
10
69.139535
20
182.546798
11
68.247217
21
181.652507
0
LINE
8
Layer 1
10
68.247217
20
181.652507
11
64.802397
21
178.183737
0
LINE
8
Layer 1
10
64.802397
20
178.183737
11
62.414557
21
175.759907
0
LINE
8
Layer 1
10
62.414557
20
175.759907
11
60.490037
21
173.809187
0
LINE
8
Layer 1
10
60.490037
20
173.809187
11
58.548884
21
171.904826
0
LINE
8
Layer 1
10
58.548884
20
171.904826
11
56.720717
21
169.925337
0
LINE
8
Layer 1
10
56.720717
20
169.925337
11
55.720804
21
168.996118
0
LINE
8
Layer 1
10
55.720804
20
168.996118
11
54.935919
21
168.285034
0
LINE
8
Layer 1
10
54.935919
20
168.285034
11
53.683669
21
167.002694
0
LINE
8
Layer 1
10
53.683669
20
167.002694
11
51.499489
21
164.857164
0
LINE
8
Layer 1
10
51.499489
20
164.857164
11
50.853418
21
164.250866
0
LINE
8
Layer 1
10
50.853418
20
164.250866
11
51.183721
21
164.902852
0
LINE
8
Layer 1
10
51.183721
20
164.902852
11
51.569458
21
165.579176
0
LINE
8
Layer 1
10
51.569458
20
165.579176
11
50.095698
21
164.234306
0
LINE
8
Layer 1
10
50.095698
20
164.234306
11
48.391678
21
162.656086
0
LINE
8
Layer 1
10
48.391678
20
162.656086
11
48.533131
21
162.621946
0
LINE
8
Layer 1
10
48.533131
20
162.621946
11
48.596289
21
162.522231
0
LINE
8
Layer 1
10
48.596289
20
162.522231
11
48.072076
21
161.913904
0
LINE
8
Layer 1
10
48.072076
20
161.913904
11
46.510546
21
160.464924
0
LINE
8
Layer 1
10
46.510546
20
160.464924
11
45.184286
21
159.210840
0
LINE
8
Layer 1
10
45.184286
20
159.210840
11
43.843456
21
157.982274
0
LINE
8
Layer 1
10
43.843456
20
157.982274
11
43.021388
21
157.102182
0
LINE
8
Layer 1
10
43.021388
20
157.102182
11
41.080158
21
155.246230
0
LINE
8
Layer 1
10
41.080158
20
155.246230
11
39.005818
21
153.540342
0
LINE
8
Layer 1
10
39.005818
20
153.540342
11
38.963285
21
153.510596
0
LINE
8
Layer 1
10
38.963285
20
153.510596
11
38.942383
21
155.670326
0
LINE
8
Layer 1
10
38.942383
20
155.670326
11
38.889483
21
167.558526
0
LINE
8
Layer 1
10
38.889483
20
167.558526
11
39.045817
21
175.020446
0
LINE
8
Layer 1
10
39.045817
20
175.020446
11
39.206144
21
180.370123
0
LINE
8
Layer 1
10
39.206144
20
180.370123
11
39.028297
21
185.719246
0
LINE
8
Layer 1
10
39.028297
20
185.719246
11
38.870386
21
187.047961
0
LINE
8
Layer 1
10
38.870386
20
187.047961
11
38.574864
21
188.292064
0
LINE
8
Layer 1
10
38.574864
20
188.292064
11
38.133096
21
189.447986
0
LINE
8
Layer 1
10
38.133096
20
189.447986
11
37.536447
21
190.512156
0
LINE
8
Layer 1
10
37.536447
20
190.512156
11
36.722114
21
191.355917
0
LINE
8
Layer 1
10
36.722114
20
191.355917
11
36.259674
21
191.581141
0
LINE
8
Layer 1
10
36.259674
20
191.581141
11
35.779160
21
191.653878
0
LINE
8
Layer 1
10
35.779160
20
191.653878
11
35.294655
21
191.558090
0
LINE
8
Layer 1
10
35.294655
20
191.558090
11
34.820242
21
191.277741
0
LINE
8
Layer 1
10
34.820242
20
191.277741
11
34.370002
21
190.796793
0
LINE
8
Layer 1
10
34.370002
20
190.796793
11
33.958017
21
190.099209
0
LINE
8
Layer 1
10
33.958017
20
190.099209
11
33.314054
21
188.304107
0
LINE
8
Layer 1
10
33.314054
20
188.304107
11
33.028460
21
186.418499
0
LINE
8
Layer 1
10
33.028460
20
186.418499
11
32.451291
21
176.910089
0
LINE
8
Layer 1
10
32.451291
20
176.910089
11
32.029104
21
165.299489
0
LINE
8
Layer 1
10
32.029104
20
165.299489
11
31.628690
21
153.408789
0
LINE
8
Layer 1
10
31.628690
20
153.408789
11
31.092928
21
154.011254
0
LINE
8
Layer 1
10
31.092928
20
154.011254
11
28.794048
21
156.569844
0
LINE
8
Layer 1
10
28.794048
20
156.569844
11
27.187638
21
158.289144
0
LINE
8
Layer 1
10
27.187638
20
158.289144
11
26.185748
21
159.334984
0
LINE
8
Layer 1
10
26.185748
20
159.334984
11
24.832938
21
160.712984
0
LINE
8
Layer 1
10
24.832938
20
160.712984
11
23.701808
21
161.805804
0
LINE
8
Layer 1
10
23.701808
20
161.805804
11
22.616418
21
162.857164
0
LINE
8
Layer 1
10
22.616418
20
162.857164
11
18.139400
21
166.940000
0
LINE
8
Layer 1
10
18.139400
20
166.940000
11
17.818085
21
167.216614
0
LINE
8
Layer 1
10
17.818085
20
167.216614
11
17.086269
21
167.852203
0
LINE
8
Layer 1
10
17.086269
20
167.852203
11
15.786639
21
169.030193
0
LINE
8
Layer 1
10
15.786639
20
169.030193
11
14.854300
21
169.893000
0
LINE
8
Layer 1
10
14.854300
20
169.893000
11
13.962574
21
170.709432
0
LINE
8
Layer 1
10
13.962574
20
170.709432
11
13.824071
21
170.823681
0
LINE
8
Layer 1
10
13.824071
20
170.823681
11
13.320305
21
171.252179
0
LINE
8
Layer 1
10
13.320305
20
171.252179
11
12.774965
21
171.723944
0
LINE
8
Layer 1
10
12.774965
20
171.723944
11
11.963238
21
172.491927
0
LINE
8
Layer 1
10
11.963238
20
172.491927
11
11.798985
21
172.656431
0
LINE
8
Layer 1
10
11.798985
20
172.656431
11
11.438991
21
172.980704
0
LINE
8
Layer 1
10
11.438991
20
172.980704
11
9.779711
21
174.480714
0
LINE
8
Layer 1
10
9.779711
20
174.480714
11
9.285260
21
174.924000
0
LINE
8
Layer 1
10
9.285260
20
174.924000
11
8.791609
21
175.362291
0
LINE
8
Layer 1
10
8.791609
20
175.362291
11
8.322886
21
175.812082
0
LINE
8
Layer 1
10
8.322886
20
175.812082
11
8.142524
21
175.970276
0
LINE
8
Layer 1
10
8.142524
20
175.970276
11
7.383347
21
176.645303
0
LINE
8
Layer 1
10
7.383347
20
176.645303
11
6.320357
21
177.631649
0
LINE
8
Layer 1
10
6.320357
20
177.631649
11
5.877127
21
178.039412
0
LINE
8
Layer 1
10
5.877127
20
178.039412
11
5.266379
21
178.597035
0
LINE
8
Layer 1
10
5.266379
20
178.597035
11
5.133537
21
178.718498
0
LINE
8
Layer 1
10
5.133537
20
178.718498
11
4.599889
21
179.200290
0
LINE
8
Layer 1
10
4.599889
20
179.200290
11
4.071505
21
179.680502
0
LINE
8
Layer 1
10
4.071505
20
179.680502
11
3.549236
21
180.174577
0
LINE
8
Layer 1
10
3.549236
20
180.174577
11
3.330170
21
180.376600
0
LINE
8
Layer 1
10
3.330170
20
180.376600
11
2.545311
21
181.105373
0
LINE
8
Layer 1
10
2.545311
20
181.105373
11
2.065000
21
181.559000
0
LINE
8
Layer 1
10
2.065000
20
181.559000
11
1.544950
21
182.053000
0
LINE
8
Layer 1
10
1.544950
20
182.053000
11
0.810854
21
182.757426
0
LINE
8
Layer 1
10
0.810854
20
182.757426
11
0.739982
21
182.824465
0
LINE
8
Layer 1
10
0.739982
20
182.824465
11
0.633477
21
182.921267
0
LINE
8
Layer 1
10
0.633477
20
182.921267
11
0.296752
21
183.252412
0
LINE
8
Layer 1
10
0.296752
20
183.252412
11
0.191855
21
183.354000
0
LINE
8
Layer 1
10
0.191855
20
183.354000
11
0.184334
21
183.361549
0
LINE
8
Layer 1
10
0.184334
20
183.361549
11
0.170276
21
183.375522
0
LINE
8
Layer 1
10
0.170276
20
183.375522
11
0.190080
21
183.355803
0
LINE
8
Layer 1
10
0.190080
20
183.355803
11
0.365117
21
183.179696
0
LINE
8
Layer 1
10
0.365117
20
183.179696
11
1.034790
21
182.507000
0
LINE
8
Layer 1
10
1.034790
20
182.507000
11
1.501935
21
182.040205
0
LINE
8
Layer 1
10
1.501935
20
182.040205
11
1.878066
21
181.664099
0
LINE
8
Layer 1
10
1.878066
20
181.664099
11
2.624614
21
180.925072
0
LINE
8
Layer 1
10
2.624614
20
180.925072
11
2.807059
21
180.733189
0
LINE
8
Layer 1
10
2.807059
20
180.733189
11
2.947323
21
180.583109
0
LINE
8
Layer 1
10
2.947323
20
180.583109
11
3.194135
21
180.337931
0
LINE
8
Layer 1
10
3.194135
20
180.337931
11
3.610294
21
179.913715
0
LINE
8
Layer 1
10
3.610294
20
179.913715
11
3.728884
21
179.789210
0
LINE
8
Layer 1
10
3.728884
20
179.789210
11
3.493931
21
179.951575
0
LINE
8
Layer 1
10
3.493931
20
179.951575
11
3.757758
21
179.668424
0
LINE
8
Layer 1
10
3.757758
20
179.668424
11
4.066145
21
179.339870
0
LINE
8
Layer 1
10
4.066145
20
179.339870
11
4.080679
21
179.367810
0
LINE
8
Layer 1
10
4.080679
20
179.367810
11
4.195239
21
179.262459
0
LINE
8
Layer 1
10
4.195239
20
179.262459
11
4.478446
21
178.961509
0
LINE
8
Layer 1
10
4.478446
20
178.961509
11
4.962829
21
178.446476
0
LINE
8
Layer 1
10
4.962829
20
178.446476
11
5.130683
21
178.283891
0
LINE
8
Layer 1
10
5.130683
20
178.283891
11
5.829465
21
177.512296
0
LINE
8
Layer 1
10
5.829465
20
177.512296
11
6.247060
21
177.047855
0
LINE
8
Layer 1
10
6.247060
20
177.047855
11
6.525139
21
176.749047
0
LINE
8
Layer 1
10
6.525139
20
176.749047
11
6.810824
21
176.463080
0
LINE
8
Layer 1
10
6.810824
20
176.463080
11
7.048367
21
176.259141
0
LINE
8
Layer 1
10
7.048367
20
176.259141
11
7.186447
21
176.081231
0
LINE
8
Layer 1
10
7.186447
20
176.081231
11
7.365260
21
175.864445
0
LINE
8
Layer 1
10
7.365260
20
175.864445
11
7.853740
21
175.288000
0
LINE
8
Layer 1
10
7.853740
20
175.288000
11
8.085791
21
175.027724
0
LINE
8
Layer 1
10
8.085791
20
175.027724
11
8.502260
21
174.605085
0
LINE
8
Layer 1
10
8.502260
20
174.605085
11
8.876588
21
174.161150
0
LINE
8
Layer 1
10
8.876588
20
174.161150
11
8.994080
21
174.026053
0
LINE
8
Layer 1
10
8.994080
20
174.026053
11
9.883497
21
173.053682
0
LINE
8
Layer 1
10
9.883497
20
173.053682
11
10.783588
21
172.080183
0
LINE
8
Layer 1
10
10.783588
20
172.080183
11
10.893418
21
171.943060
0
LINE
8
Layer 1
10
10.893418
20
171.943060
11
11.650470
21
171.083474
0
LINE
8
Layer 1
10
11.650470
20
171.083474
11
11.816354
21
170.907703
0
LINE
8
Layer 1
10
11.816354
20
170.907703
11
13.386964
21
169.076423
0
LINE
8
Layer 1
10
13.386964
20
169.076423
11
15.041184
21
167.147453
0
LINE
8
Layer 1
10
15.041184
20
167.147453
11
16.785484
21
165.131823
0
LINE
8
Layer 1
10
16.785484
20
165.131823
11
17.224339
21
164.629976
0
LINE
8
Layer 1
10
17.224339
20
164.629976
11
19.328589
21
162.202536
0
LINE
8
Layer 1
10
19.328589
20
162.202536
11
22.921779
21
158.265946
0
LINE
8
Layer 1
10
22.921779
20
158.265946
11
25.166739
21
155.981606
0
LINE
8
Layer 1
10
25.166739
20
155.981606
11
27.371279
21
153.830896
0
LINE
8
Layer 1
10
27.371279
20
153.830896
11
29.560699
21
151.660466
0
LINE
8
Layer 1
10
29.560699
20
151.660466
11
30.881219
21
150.244606
0
LINE
8
Layer 1
10
30.881219
20
150.244606
11
31.533262
21
149.511780
0
LINE
8
Layer 1
10
31.533262
20
149.511780
11
31.467657
21
146.397140
0
LINE
8
Layer 1
10
31.467657
20
146.397140
11
30.523088
21
145.618230
0
LINE
8
Layer 1
10
30.523088
20
145.618230
11
29.089886
21
144.292748
0
LINE
8
Layer 1
10
29.089886
20
144.292748
11
27.528198
21
143.121380
0
LINE
8
Layer 1
10
27.528198
20
143.121380
11
26.189600
21
141.923000
0
LINE
8
Layer 1
10
26.189600
20
141.923000
11
25.125712
21
140.830223
0
LINE
8
Layer 1
10
25.125712
20
140.830223
11
24.047030
21
139.742770
0
LINE
8
Layer 1
10
24.047030
20
139.742770
11
22.940262
21
138.704902
0
LINE
8
Layer 1
10
22.940262
20
138.704902
11
21.758430
21
137.813910
0
LINE
8
Layer 1
10
21.758430
20
137.813910
11
21.066250
21
137.204686
0
LINE
8
Layer 1
10
21.066250
20
137.204686
11
18.616856
21
134.847048
0
LINE
8
Layer 1
10
18.616856
20
134.847048
11
16.117460
21
132.559716
0
LINE
8
Layer 1
10
16.117460
20
132.559716
11
13.605963
21
130.253851
0
LINE
8
Layer 1
10
13.605963
20
130.253851
11
11.183910
21
127.839146
0
LINE
8
Layer 1
10
11.183910
20
127.839146
11
10.485052
21
127.264624
0
LINE
8
Layer 1
10
10.485052
20
127.264624
11
8.276342
21
125.326184
0
LINE
8
Layer 1
10
8.276342
20
125.326184
11
7.733480
21
124.827498
0
LINE
8
Layer 1
10
7.733480
20
124.827498
11
7.463487
21
124.574771
0
LINE
8
Layer 1
10
7.463487
20
124.574771
11
7.015214
21
124.139514
0
LINE
8
Layer 1
10
7.015214
20
124.139514
11
5.235564
21
122.373244
0
LINE
8
Layer 1
10
5.235564
20
122.373244
11
4.511018
21
121.627684
0
LINE
8
Layer 1
10
4.511018
20
121.627684
11
3.811257
21
120.889561
0
LINE
8
Layer 1
10
3.811257
20
120.889561
11
1.993840
21
119.038000
0
LINE
8
Layer 1
10
1.993840
20
119.038000
11
1.879306
21
118.921270
0
LINE
8
Layer 1
10
1.879306
20
118.921270
11
1.821984
21
118.862794
0
LINE
8
Layer 1
10
1.821984
20
118.862794
11
1.800690
21
118.834061
0
LINE
8
Layer 1
10
1.800690
20
118.834061
11
1.830606
21
118.808378
0
LINE
8
Layer 1
10
1.830606
20
118.808378
11
2.070094
21
118.602638
0
LINE
8
Layer 1
10
2.070094
20
118.602638
11
2.550619
21
118.190029
0
LINE
8
Layer 1
10
2.550619
20
118.190029
11
3.517723
21
117.359515
0
LINE
8
Layer 1
10
3.517723
20
117.359515
11
7.492280
21
113.950000
0
LINE
8
Layer 1
10
7.492280
20
113.950000
11
12.197700
21
109.764400
0
LINE
8
Layer 1
10
12.197700
20
109.764400
11
22.040720
21
101.171240
0
LINE
8
Layer 1
10
22.040720
20
101.171240
11
32.301420
21
92.472950
0
LINE
8
Layer 1
10
32.301420
20
92.472950
11
32.446347
21
89.367660
0
LINE
8
Layer 1
10
32.446347
20
89.367660
11
32.672424
21
82.612540
0
LINE
8
Layer 1
10
32.672424
20
82.612540
11
32.802619
21
77.717330
0
LINE
8
Layer 1
10
32.802619
20
77.717330
11
32.943264
21
73.059970
0
LINE
8
Layer 1
10
32.943264
20
73.059970
11
32.987403
21
72.371196
0
LINE
8
Layer 1
10
32.987403
20
72.371196
11
33.124527
21
69.829396
0
LINE
8
Layer 1
10
33.124527
20
69.829396
11
33.259228
21
67.056726
0
LINE
8
Layer 1
10
33.259228
20
67.056726
11
33.402325
21
64.905001
0
LINE
8
Layer 1
10
33.402325
20
64.905001
11
33.343452
21
62.749326
0
LINE
8
Layer 1
10
33.343452
20
62.749326
11
33.344493
21
61.853009
0
LINE
8
Layer 1
10
33.344493
20
61.853009
11
33.410776
21
59.987589
0
LINE
8
Layer 1
10
33.410776
20
59.987589
11
33.706291
21
51.373699
0
LINE
8
Layer 1
10
33.706291
20
51.373699
11
33.800963
21
48.817019
0
LINE
8
Layer 1
10
33.800963
20
48.817019
11
33.903046
21
46.276339
0
LINE
8
Layer 1
10
33.903046
20
46.276339
11
33.924709
21
45.966149
0
LINE
8
Layer 1
10
33.924709
20
45.966149
11
32.128189
21
43.960229
0
LINE
8
Layer 1
10
32.128189
20
43.960229
11
21.483989
21
32.146029
0
LINE
8
Layer 1
10
21.483989
20
32.146029
11
14.767149
21
24.766029
0
LINE
8
Layer 1
10
14.767149
20
24.766029
11
5.246289
21
14.075529
0
LINE
8
Layer 1
10
5.246289
20
14.075529
11
1.032299
21
9.235419
0
LINE
8
Layer 1
10
1.032299
20
9.235419
11
0.000247
21
8.110584
0
LINE
8
Layer 1
10
0.000247
20
8.110584
11
1.492654
21
9.555637
0
LINE
8
Layer 1
10
1.492654
20
9.555637
11
5.091224
21
12.912067
0
LINE
8
Layer 1
10
5.091224
20
12.912067
11
14.424364
21
21.545787
0
LINE
8
Layer 1
10
14.424364
20
21.545787
11
25.880964
21
32.028487
0
LINE
8
Layer 1
10
25.880964
20
32.028487
11
34.121484
21
39.454687
0
LINE
8
Layer 1
10
34.121484
20
39.454687
11
34.136357
21
38.938528
0
LINE
8
Layer 1
10
34.136357
20
38.938528
11
34.281030
21
33.351158
0
LINE
8
Layer 1
10
34.281030
20
33.351158
11
34.347507
21
31.030988
0
LINE
8
Layer 1
10
34.347507
20
31.030988
11
34.446604
21
27.845478
0
LINE
8
Layer 1
10
34.446604
20
27.845478
11
34.467929
21
27.152310
0
LINE
8
Layer 1
10
34.467929
20
27.152310
11
34.564124
21
24.383710
0
LINE
8
Layer 1
10
34.564124
20
24.383710
11
34.653614
21
21.633580
0
LINE
8
Layer 1
10
34.653614
20
21.633580
11
34.708148
21
18.862720
0
LINE
8
Layer 1
10
34.708148
20
18.862720
11
34.740121
21
17.714580
0
LINE
8
Layer 1
10
34.740121
20
17.714580
11
34.845892
21
13.587460
0
LINE
8
Layer 1
10
34.845892
20
13.587460
11
34.897256
21
11.041040
0
LINE
8
Layer 1
10
34.897256
20
11.041040
11
34.948412
21
8.277050
0
LINE
8
Layer 1
10
34.948412
20
8.277050
11
35.007198
21
4.354770
0
LINE
8
Layer 1
10
35.007198
20
4.354770
11
35.014635
21
3.978780
0
LINE
8
Layer 1
10
35.014635
20
3.978780
11
35.032579
21
3.424313
0
LINE
8
Layer 1
10
35.032579
20
3.424313
11
35.045507
21
1.603283
0
LINE
8
Layer 1
10
35.045507
20
1.603283
11
35.051366
21
1.045212
0
LINE
8
Layer 1
10
35.051366
20
1.045212
11
35.051733
21
1.986705
0
LINE
8
Layer 1
10
35.051733
20
1.986705
11
35.050297
21
5.645895
0
LINE
8
Layer 1
10
35.050297
20
5.645895
11
35.045620
21
8.192665
0
LINE
8
Layer 1
10
35.045620
20
8.192665
11
35.042211
21
10.243775
0
LINE
8
Layer 1
10
35.042211
20
10.243775
11
35.022241
21
14.294505
0
LINE
8
Layer 1
10
35.022241
20
14.294505
11
35.037365
21
15.315445
0
LINE
8
Layer 1
10
35.037365
20
15.315445
11
35.053282
21
16.107078
0
LINE
8
Layer 1
10
35.053282
20
16.107078
11
35.048267
21
17.448568
0
LINE
8
Layer 1
10
35.048267
20
17.448568
11
35.058775
21
19.740238
0
LINE
8
Layer 1
10
35.058775
20
19.740238
11
35.068088
21
20.402986
0
LINE
8
Layer 1
10
35.068088
20
20.402986
11
35.198142
21
19.320076
0
LINE
8
Layer 1
10
35.198142
20
19.320076
11
35.229971
21
20.811756
0
LINE
8
Layer 1
10
35.229971
20
20.811756
11
35.262816
21
22.548726
0
LINE
8
Layer 1
10
35.262816
20
22.548726
11
35.187691
21
22.511769
0
LINE
8
Layer 1
10
35.187691
20
22.511769
11
35.170394
21
23.111304
0
LINE
8
Layer 1
10
35.170394
20
23.111304
11
35.199353
21
24.704624
0
LINE
8
Layer 1
10
35.199353
20
24.704624
11
35.249069
21
27.429974
0
LINE
8
Layer 1
10
35.249069
20
27.429974
11
35.238223
21
28.330914
0
LINE
8
Layer 1
10
35.238223
20
28.330914
11
35.360448
21
32.340854
0
LINE
8
Layer 1
10
35.360448
20
32.340854
11
35.439374
21
34.746204
0
LINE
8
Layer 1
10
35.439374
20
34.746204
11
35.473430
21
36.319464
0
LINE
8
Layer 1
10
35.473430
20
36.319464
11
35.471347
21
37.878074
0
LINE
8
Layer 1
10
35.471347
20
37.878074
11
35.409910
21
39.081544
0
LINE
8
Layer 1
10
35.409910
20
39.081544
11
35.470588
21
39.861809
0
LINE
8
Layer 1
10
35.470588
20
39.861809
11
35.734104
21
39.528635
0
LINE
8
Layer 1
10
35.734104
20
39.528635
11
37.678174
21
37.215675
0
LINE
8
Layer 1
10
37.678174
20
37.215675
11
39.914964
21
34.595225
0
LINE
8
Layer 1
10
39.914964
20
34.595225
11
41.495214
21
32.850025
0
LINE
8
Layer 1
10
41.495214
20
32.850025
11
42.487363
21
31.794515
0
LINE
8
Layer 1
10
42.487363
20
31.794515
11
43.835613
21
30.412015
0
LINE
8
Layer 1
10
43.835613
20
30.412015
11
44.977733
21
29.330005
0
LINE
8
Layer 1
10
44.977733
20
29.330005
11
46.072973
21
28.288565
0
LINE
8
Layer 1
10
46.072973
20
28.288565
11
50.654163
21
24.309725
0
LINE
8
Layer 1
10
50.654163
20
24.309725
11
50.987055
21
24.044719
0
LINE
8
Layer 1
10
50.987055
20
24.044719
11
51.743884
21
23.434030
0
LINE
8
Layer 1
10
51.743884
20
23.434030
11
53.075574
21
22.287930
0
LINE
8
Layer 1
10
53.075574
20
22.287930
11
54.026312
21
21.443104
0
LINE
8
Layer 1
10
54.026312
20
21.443104
11
54.937954
21
20.646501
0
LINE
8
Layer 1
10
54.937954
20
20.646501
11
55.082734
21
20.538560
0
LINE
8
Layer 1
10
55.082734
20
20.538560
11
55.605931
21
20.129338
0
LINE
8
Layer 1
10
55.605931
20
20.129338
11
56.170375
21
19.676614
0
LINE
8
Layer 1
10
56.170375
20
19.676614
11
56.994020
21
18.920462
0
LINE
8
Layer 1
10
56.994020
20
18.920462
11
57.158409
21
18.756186
0
LINE
8
Layer 1
10
57.158409
20
18.756186
11
57.527809
21
18.441263
0
LINE
8
Layer 1
10
57.527809
20
18.441263
11
59.229009
21
16.982933
0
LINE
8
Layer 1
10
59.229009
20
16.982933
11
59.736884
21
16.552971
0
LINE
8
Layer 1
10
59.736884
20
16.552971
11
60.245042
21
16.129093
0
LINE
8
Layer 1
10
60.245042
20
16.129093
11
60.719116
21
15.684593
0
LINE
8
Layer 1
10
60.719116
20
15.684593
11
60.905253
21
15.532258
0
LINE
8
Layer 1
10
60.905253
20
15.532258
11
61.686362
21
14.878976
0
LINE
8
Layer 1
10
61.686362
20
14.878976
11
62.769882
21
13.913026
0
LINE
8
Layer 1
10
62.769882
20
13.913026
11
63.222493
21
13.514726
0
LINE
8
Layer 1
10
63.222493
20
13.514726
11
63.847333
21
12.971076
0
LINE
8
Layer 1
10
63.847333
20
12.971076
11
63.983217
21
12.852656
0
LINE
8
Layer 1
10
63.983217
20
12.852656
11
64.530474
21
12.384385
0
LINE
8
Layer 1
10
64.530474
20
12.384385
11
65.071587
21
11.916678
0
LINE
8
Layer 1
10
65.071587
20
11.916678
11
65.601546
21
11.430491
0
LINE
8
Layer 1
10
65.601546
20
11.430491
11
65.825148
21
11.232862
0
LINE
8
Layer 1
10
65.825148
20
11.232862
11
66.625019
21
10.518962
0
LINE
8
Layer 1
10
66.625019
20
10.518962
11
67.112611
21
10.072549
0
LINE
8
Layer 1
10
67.112611
20
10.072549
11
67.639923
21
9.586139
0
LINE
8
Layer 1
10
67.639923
20
9.586139
11
68.382331
21
8.890041
0
LINE
8
Layer 1
10
68.382331
20
8.890041
11
68.454272
21
8.824015
0
LINE
8
Layer 1
10
68.454272
20
8.824015
11
68.563340
21
8.729708
0
LINE
8
Layer 1
10
68.563340
20
8.729708
11
68.901868
21
8.400473
0
LINE
8
Layer 1
10
68.901868
20
8.400473
11
69.007614
21
8.299181
0
LINE
8
Layer 1
10
69.007614
20
8.299181
11
69.015161
21
8.291631
0
LINE
8
Layer 1
10
69.015161
20
8.291631
11
69.024852
21
8.282056
0
LINE
8
Layer 1
10
69.024852
20
8.282056
11
69.010879
21
8.295913
0
LINE
8
Layer 1
10
69.010879
20
8.295913
11
68.834434
21
8.473600
0
LINE
8
Layer 1
10
68.834434
20
8.473600
11
68.164532
21
9.145571
0
LINE
8
Layer 1
10
68.164532
20
9.145571
11
67.696712
21
9.611802
0
LINE
8
Layer 1
10
67.696712
20
9.611802
11
67.320101
21
9.987344
0
LINE
8
Layer 1
10
67.320101
20
9.987344
11
66.570708
21
10.723554
0
LINE
8
Layer 1
10
66.570708
20
10.723554
11
66.390430
21
10.917576
0
LINE
8
Layer 1
10
66.390430
20
10.917576
11
66.252407
21
11.069911
0
LINE
8
Layer 1
10
66.252407
20
11.069911
11
66.004862
21
11.314414
0
LINE
8
Layer 1
10
66.004862
20
11.314414
11
65.590224
21
11.740092
0
LINE
8
Layer 1
10
65.590224
20
11.740092
11
65.472933
21
11.865836
0
LINE
8
Layer 1
10
65.472933
20
11.865836
11
65.726334
21
11.721841
0
LINE
8
Layer 1
10
65.726334
20
11.721841
11
65.467017
21
12.009496
0
LINE
8
Layer 1
10
65.467017
20
12.009496
11
65.163304
21
12.342783
0
LINE
8
Layer 1
10
65.163304
20
12.342783
11
65.138065
21
12.304138
0
LINE
8
Layer 1
10
65.138065
20
12.304138
11
65.021053
21
12.407008
0
LINE
8
Layer 1
10
65.021053
20
12.407008
11
64.741961
21
12.712127
0
LINE
8
Layer 1
10
64.741961
20
12.712127
11
64.264678
21
13.234257
0
LINE
8
Layer 1
10
64.264678
20
13.234257
11
64.095271
21
13.395267
0
LINE
8
Layer 1
10
64.095271
20
13.395267
11
63.413823
21
14.184094
0
LINE
8
Layer 1
10
63.413823
20
14.184094
11
63.007423
21
14.659689
0
LINE
8
Layer 1
10
63.007423
20
14.659689
11
62.734190
21
14.963343
0
LINE
8
Layer 1
10
62.734190
20
14.963343
11
62.448223
21
15.248971
0
LINE
8
Layer 1
10
62.448223
20
15.248971
11
62.201976
21
15.444122
0
LINE
8
Layer 1
10
62.201976
20
15.444122
11
62.073641
21
15.631836
0
LINE
8
Layer 1
10
62.073641
20
15.631836
11
61.904124
21
15.857972
0
LINE
8
Layer 1
10
61.904124
20
15.857972
11
61.437148
21
16.456381
0
LINE
8
Layer 1
10
61.437148
20
16.456381
11
61.211856
21
16.723304
0
LINE
8
Layer 1
10
61.211856
20
16.723304
11
60.796425
21
17.146956
0
LINE
8
Layer 1
10
60.796425
20
17.146956
11
60.439022
21
17.607678
0
LINE
8
Layer 1
10
60.439022
20
17.607678
11
60.325786
21
17.746943
0
LINE
8
Layer 1
10
60.325786
20
17.746943
11
59.455947
21
18.738919
0
LINE
8
Layer 1
10
59.455947
20
18.738919
11
58.573094
21
19.729546
0
LINE
8
Layer 1
10
58.573094
20
19.729546
11
58.469942
21
19.873428
0
LINE
8
Layer 1
10
58.469942
20
19.873428
11
57.737576
21
20.757466
0
LINE
8
Layer 1
10
57.737576
20
20.757466
11
57.573918
21
20.935376
0
LINE
8
Layer 1
10
57.573918
20
20.935376
11
56.066518
21
22.829646
0
LINE
8
Layer 1
10
56.066518
20
22.829646
11
54.478888
21
24.824866
0
LINE
8
Layer 1
10
54.478888
20
24.824866
11
52.800278
21
26.905836
0
LINE
8
Layer 1
10
52.800278
20
26.905836
11
52.376570
21
27.422782
0
LINE
8
Layer 1
10
52.376570
20
27.422782
11
50.350420
21
29.927852
0
LINE
8
Layer 1
10
50.350420
20
29.927852
11
46.838560
21
33.945342
0
LINE
8
Layer 1
10
46.838560
20
33.945342
11
44.600640
21
36.236782
0
LINE
8
Layer 1
10
44.600640
20
36.236782
11
42.379840
21
38.371272
0
LINE
8
Layer 1
10
42.379840
20
38.371272
11
40.182930
21
40.534262
0
LINE
8
Layer 1
10
40.182930
20
40.534262
11
38.884590
21
41.972092
0
LINE
8
Layer 1
10
38.884590
20
41.972092
11
38.023088
21
42.970718
0
LINE
8
Layer 1
10
38.023088
20
42.970718
11
39.047688
21
43.894078
0
LINE
8
Layer 1
10
39.047688
20
43.894078
11
48.058928
21
52.020318
0
LINE
8
Layer 1
10
48.058928
20
52.020318
11
53.594128
21
57.036208
0
LINE
8
Layer 1
10
53.594128
20
57.036208
11
60.941508
21
63.759888
0
LINE
8
Layer 1
10
60.941508
20
63.759888
11
62.424238
21
65.140368
0
LINE
8
Layer 1
10
62.424238
20
65.140368
11
63.163487
21
65.833421
0
LINE
8
Layer 1
10
63.163487
20
65.833421
11
63.531874
21
66.181246
0
LINE
8
Layer 1
10
63.531874
20
66.181246
11
64.242842
21
66.874188
0
LINE
8
Layer 1
10
64.242842
20
66.874188
11
65.697792
21
68.293988
0
LINE
8
Layer 1
10
65.697792
20
68.293988
11
66.426791
21
69.005408
0
LINE
8
Layer 1
10
66.426791
20
69.005408
11
67.135394
21
69.718405
0
LINE
8
Layer 1
10
67.135394
20
69.718405
11
69.818324
21
72.586065
0
LINE
8
Layer 1
10
69.818324
20
72.586065
11
70.142428
21
72.931747
0
LINE
8
Layer 1
10
70.142428
20
72.931747
11
70.162712
21
72.953379
0
LINE
8
Layer 1
10
70.162712
20
72.953379
11
70.172852
21
72.964197
0
LINE
8
Layer 1
10
70.172852
20
72.964197
11
70.163200
21
72.974200
0
LINE
8
Layer 1
10
70.163200
20
72.974200
11
70.163200
21
72.974200
0
LINE
8
Layer 1
10
56.531600
20
169.083000
11
56.806806
21
169.314882
0
LINE
8
Layer 1
10
56.806806
20
169.314882
11
56.663485
21
169.133475
0
LINE
8
Layer 1
10
56.663485
20
169.133475
11
55.860233
21
168.315579
0
LINE
8
Layer 1
10
55.860233
20
168.315579
11
56.531600
21
169.083000
0
LINE
8
Layer 1
10
56.531600
20
169.083000
11
56.531600
21
169.083000
0
LINE
8
Layer 1
10
42.645700
20
156.052200
11
43.066084
21
156.466841
0
LINE
8
Layer 1
10
43.066084
20
156.466841
11
43.065127
21
156.397996
0
LINE
8
Layer 1
10
43.065127
20
156.397996
11
42.635839
21
155.980767
0
LINE
8
Layer 1
10
42.635839
20
155.980767
11
42.645600
21
156.053000
0
LINE
8
Layer 1
10
42.645600
20
156.053000
11
42.645700
21
156.052200
0
LINE
8
Layer 1
10
2.762300
20
180.863000
11
2.715652
21
180.914717
0
LINE
8
Layer 1
10
2.715652
20
180.914717
11
2.749369
21
180.885423
0
LINE
8
Layer 1
10
2.749369
20
180.885423
11
2.907413
21
180.728694
0
LINE
8
Layer 1
10
2.907413
20
180.728694
11
2.762300
21
180.863000
0
LINE
8
Layer 1
10
2.762300
20
180.863000
11
2.762300
21
180.863000
0
LINE
8
Layer 1
10
5.313300
20
178.190160
11
5.233047
21
178.271959
0
LINE
8
Layer 1
10
5.233047
20
178.271959
11
5.244336
21
178.269594
0
LINE
8
Layer 1
10
5.244336
20
178.269594
11
5.325292
21
178.186339
0
LINE
8
Layer 1
10
5.325292
20
178.186339
11
5.313320
21
178.190000
0
LINE
8
Layer 1
10
5.313320
20
178.190000
11
5.313300
21
178.190160
0
LINE
8
Layer 1
10
6.703410
20
176.769340
11
6.656031
21
176.785455
0
LINE
8
Layer 1
10
6.656031
20
176.785455
11
6.460939
21
176.951986
0
LINE
8
Layer 1
10
6.460939
20
176.951986
11
6.198521
21
177.280317
0
LINE
8
Layer 1
10
6.198521
20
177.280317
11
6.194465
21
177.298907
0
LINE
8
Layer 1
10
6.194465
20
177.298907
11
6.259816
21
177.252823
0
LINE
8
Layer 1
10
6.259816
20
177.252823
11
6.306518
21
177.206290
0
LINE
8
Layer 1
10
6.306518
20
177.206290
11
6.583863
21
176.916832
0
LINE
8
Layer 1
10
6.583863
20
176.916832
11
6.703420
21
176.769000
0
LINE
8
Layer 1
10
6.703420
20
176.769000
11
6.703410
21
176.769340
0
LINE
8
Layer 1
10
7.871810
20
175.416580
11
7.608886
21
175.678660
0
LINE
8
Layer 1
10
7.608886
20
175.678660
11
7.390582
21
175.926203
0
LINE
8
Layer 1
10
7.390582
20
175.926203
11
7.384133
21
175.966315
0
LINE
8
Layer 1
10
7.384133
20
175.966315
11
7.420780
21
175.941197
0
LINE
8
Layer 1
10
7.420780
20
175.941197
11
7.905050
21
175.432026
0
LINE
8
Layer 1
10
7.905050
20
175.432026
11
7.920064
21
175.401603
0
LINE
8
Layer 1
10
7.920064
20
175.401603
11
7.871820
21
175.416000
0
LINE
8
Layer 1
10
7.871820
20
175.416000
11
7.871810
21
175.416580
0
LINE
8
Layer 1
10
66.414200
20
10.768100
11
66.459666
21
10.715144
0
LINE
8
Layer 1
10
66.459666
20
10.715144
11
66.424792
21
10.743313
0
LINE
8
Layer 1
10
66.424792
20
10.743313
11
66.266206
21
10.899478
0
LINE
8
Layer 1
10
66.266206
20
10.899478
11
66.414200
21
10.768100
0
LINE
8
Layer 1
10
66.414200
20
10.768100
11
66.414200
21
10.768100
0
LINE
8
Layer 1
10
63.890430
20
13.467980
11
63.970429
21
13.385952
0
LINE
8
Layer 1
10
63.970429
20
13.385952
11
63.956907
21
13.386065
0
LINE
8
Layer 1
10
63.956907
20
13.386065
11
63.876401
21
13.469783
0
LINE
8
Layer 1
10
63.876401
20
13.469783
11
63.890400
21
13.468000
0
LINE
8
Layer 1
10
63.890400
20
13.468000
11
63.890430
21
13.467980
0
LINE
8
Layer 1
10
62.506240
20
14.894650
11
62.561507
21
14.886426
0
LINE
8
Layer 1
10
62.561507
20
14.886426
11
62.763982
21
14.727329
0
LINE
8
Layer 1
10
62.763982
20
14.727329
11
63.010287
21
14.382888
0
LINE
8
Layer 1
10
63.010287
20
14.382888
11
63.010682
21
14.360593
0
LINE
8
Layer 1
10
63.010682
20
14.360593
11
62.940485
21
14.401944
0
LINE
8
Layer 1
10
62.940485
20
14.401944
11
62.893613
21
14.448251
0
LINE
8
Layer 1
10
62.893613
20
14.448251
11
62.618971
21
14.740416
0
LINE
8
Layer 1
10
62.618971
20
14.740416
11
62.506200
21
14.894700
0
LINE
8
Layer 1
10
62.506200
20
14.894700
11
62.506240
21
14.894650
0
LINE
8
Layer 1
10
61.382490
20
16.291800
11
61.645919
21
16.030285
0
LINE
8
Layer 1
10
61.645919
20
16.030285
11
61.857238
21
15.775757
0
LINE
8
Layer 1
10
61.857238
20
15.775757
11
61.855262
21
15.727305
0
LINE
8
Layer 1
10
61.855262
20
15.727305
11
61.815715
21
15.749615
0
LINE
8
Layer 1
10
61.815715
20
15.749615
11
61.337021
21
16.264196
0
LINE
8
Layer 1
10
61.337021
20
16.264196
11
61.325808
21
16.298449
0
LINE
8
Layer 1
10
61.325808
20
16.298449
11
61.382400
21
16.291900
0
LINE
8
Layer 1
10
61.382400
20
16.291900
11
61.382490
21
16.291800
0
LINE
8
Layer 1
10
28.289390
20
142.932800
11
29.621530
21
144.305280
0
LINE
8
Layer 1
10
29.621530
20
144.305280
11
30.904820
21
145.422780
0
LINE
8
Layer 1
10
30.904820
20
145.422780
11
31.136617
21
145.431568
0
LINE
8
Layer 1
10
31.136617
20
145.431568
11
31.017776
21
145.232362
0
LINE
8
Layer 1
10
31.017776
20
145.232362
11
28.403886
21
142.727852
0
LINE
8
Layer 1
10
28.403886
20
142.727852
11
28.237722
21
142.659684
0
LINE
8
Layer 1
10
28.237722
20
142.659684
11
28.289400
21
142.933000
0
LINE
8
Layer 1
10
28.289400
20
142.933000
11
28.289390
21
142.932800
0
LINE
8
Layer 1
10
24.037900
20
110.293000
11
18.920860
21
114.366030
0
LINE
8
Layer 1
10
18.920860
20
114.366030
11
16.447829
21
116.253226
0
LINE
8
Layer 1
10
16.447829
20
116.253226
11
14.021170
21
118.202110
0
LINE
8
Layer 1
10
14.021170
20
118.202110
11
13.265300
21
118.730664
0
LINE
8
Layer 1
10
13.265300
20
118.730664
11
12.550641
21
119.182484
0
LINE
8
Layer 1
10
12.550641
20
119.182484
11
12.204394
21
119.428562
0
LINE
8
Layer 1
10
12.204394
20
119.428562
11
12.187743
21
119.438815
0
LINE
8
Layer 1
10
12.187743
20
119.438815
11
12.183010
21
119.439718
0
LINE
8
Layer 1
10
12.183010
20
119.439718
11
12.173697
21
119.441857
0
LINE
8
Layer 1
10
12.173697
20
119.441857
11
12.155725
21
119.447378
0
LINE
8
Layer 1
10
12.155725
20
119.447378
11
12.011532
21
119.504841
0
LINE
8
Layer 1
10
12.011532
20
119.504841
11
11.825929
21
119.595770
0
LINE
8
Layer 1
10
11.825929
20
119.595770
11
11.696299
21
119.729399
0
LINE
8
Layer 1
10
11.696299
20
119.729399
11
11.652131
21
119.811314
0
LINE
8
Layer 1
10
11.652131
20
119.811314
11
11.646487
21
119.857511
0
LINE
8
Layer 1
10
11.646487
20
119.857511
11
11.647443
21
119.881398
0
LINE
8
Layer 1
10
11.647443
20
119.881398
11
11.663333
21
119.897623
0
LINE
8
Layer 1
10
11.663333
20
119.897623
11
11.861947
21
120.023590
0
LINE
8
Layer 1
10
11.861947
20
120.023590
11
11.997016
21
120.066970
0
LINE
8
Layer 1
10
11.997016
20
120.066970
11
12.529851
21
120.552254
0
LINE
8
Layer 1
10
12.529851
20
120.552254
11
13.653911
21
121.455898
0
LINE
8
Layer 1
10
13.653911
20
121.455898
11
14.518315
21
122.285173
0
LINE
8
Layer 1
10
14.518315
20
122.285173
11
16.216475
21
124.111153
0
LINE
8
Layer 1
10
16.216475
20
124.111153
11
24.034600
21
132.566000
0
LINE
8
Layer 1
10
24.034600
20
132.566000
11
26.330480
21
135.100140
0
LINE
8
Layer 1
10
26.330480
20
135.100140
11
28.591560
21
137.638680
0
LINE
8
Layer 1
10
28.591560
20
137.638680
11
29.754037
21
138.906606
0
LINE
8
Layer 1
10
29.754037
20
138.906606
11
30.928580
21
140.033330
0
LINE
8
Layer 1
10
30.928580
20
140.033330
11
31.376749
21
140.541488
0
LINE
8
Layer 1
10
31.376749
20
140.541488
11
31.338186
21
137.399478
0
LINE
8
Layer 1
10
31.338186
20
137.399478
11
31.305849
21
129.952998
0
LINE
8
Layer 1
10
31.305849
20
129.952998
11
31.383339
21
123.889018
0
LINE
8
Layer 1
10
31.383339
20
123.889018
11
31.453028
21
118.062898
0
LINE
8
Layer 1
10
31.453028
20
118.062898
11
31.892089
21
104.128198
0
LINE
8
Layer 1
10
31.892089
20
104.128198
11
31.132415
21
104.713763
0
LINE
8
Layer 1
10
31.132415
20
104.713763
11
24.037900
21
110.293000
0
LINE
8
Layer 1
10
24.037900
20
110.293000
11
24.037900
21
110.293000
0
LINE
8
Layer 1
10
34.880600
20
14.573500
11
34.872630
21
14.745438
0
LINE
8
Layer 1
10
34.872630
20
14.745438
11
34.868716
21
15.603562
0
LINE
8
Layer 1
10
34.868716
20
15.603562
11
34.889165
21
14.841887
0
LINE
8
Layer 1
10
34.889165
20
14.841887
11
34.880600
21
14.573000
0
LINE
8
Layer 1
10
34.880600
20
14.573000
11
34.880600
21
14.573500
0
LINE
8
Layer 1
10
35.079301
20
28.645100
11
35.063387
21
28.682057
0
LINE
8
Layer 1
10
35.063387
20
28.682057
11
35.066793
21
29.130161
0
LINE
8
Layer 1
10
35.066793
20
29.130161
11
35.081274
21
29.087006
0
LINE
8
Layer 1
10
35.081274
20
29.087006
11
35.079301
21
28.645100
0
LINE
8
Layer 1
10
35.230733
20
35.593230
11
35.116907
21
33.981880
0
LINE
8
Layer 1
10
35.116907
20
33.981880
11
35.091160
21
33.919791
0
LINE
8
Layer 1
10
35.091160
20
33.919791
11
35.056681
21
34.223674
0
LINE
8
Layer 1
10
35.056681
20
34.223674
11
35.055922
21
34.477866
0
LINE
8
Layer 1
10
35.055922
20
34.477866
11
35.074831
21
36.023516
0
LINE
8
Layer 1
10
35.074831
20
36.023516
11
35.122997
21
36.751725
0
LINE
8
Layer 1
10
35.122997
20
36.751725
11
35.178547
21
36.578771
0
LINE
8
Layer 1
10
35.178547
20
36.578771
11
35.230800
21
35.592700
0
LINE
8
Layer 1
10
35.230800
20
35.592700
11
35.230733
21
35.593230
0
LINE
8
Layer 1
10
56.200900
20
70.503200
11
53.851150
21
68.004440
0
LINE
8
Layer 1
10
53.851150
20
68.004440
11
42.727550
21
55.795340
0
LINE
8
Layer 1
10
42.727550
20
55.795340
11
35.741740
21
47.995400
0
LINE
8
Layer 1
10
35.741740
20
47.995400
11
35.870411
21
49.791300
0
LINE
8
Layer 1
10
35.870411
20
49.791300
11
35.900326
21
50.479961
0
LINE
8
Layer 1
10
35.900326
20
50.479961
11
36.038688
21
55.557261
0
LINE
8
Layer 1
10
36.038688
20
55.557261
11
36.160094
21
60.666671
0
LINE
8
Layer 1
10
36.160094
20
60.666671
11
36.207361
21
61.340456
0
LINE
8
Layer 1
10
36.207361
20
61.340456
11
36.381385
21
65.749146
0
LINE
8
Layer 1
10
36.381385
20
65.749146
11
36.397218
21
66.680730
0
LINE
8
Layer 1
10
36.397218
20
66.680730
11
36.843000
21
75.958800
0
LINE
8
Layer 1
10
36.843000
20
75.958800
11
37.312792
21
85.731200
0
LINE
8
Layer 1
10
37.312792
20
85.731200
11
37.421972
21
88.150070
0
LINE
8
Layer 1
10
37.421972
20
88.150070
11
47.880672
21
79.626430
0
LINE
8
Layer 1
10
47.880672
20
79.626430
11
53.265792
21
75.378420
0
LINE
8
Layer 1
10
53.265792
20
75.378420
11
55.966182
21
73.263870
0
LINE
8
Layer 1
10
55.966182
20
73.263870
11
57.319300
21
72.210400
0
LINE
8
Layer 1
10
57.319300
20
72.210400
11
57.603800
21
71.989110
0
LINE
8
Layer 1
10
57.603800
20
71.989110
11
57.377043
21
71.751479
0
LINE
8
Layer 1
10
57.377043
20
71.751479
11
56.200900
21
70.503200
0
LINE
8
Layer 1
10
56.377500
20
170.094000
11
57.468740
21
171.180060
0
LINE
8
Layer 1
10
57.468740
20
171.180060
11
57.688343
21
171.460281
0
LINE
8
Layer 1
10
57.688343
20
171.460281
11
57.395397
21
171.257363
0
LINE
8
Layer 1
10
57.395397
20
171.257363
11
54.494847
21
168.514213
0
LINE
8
Layer 1
10
54.494847
20
168.514213
11
53.960935
21
167.941846
0
LINE
8
Layer 1
10
53.960935
20
167.941846
11
53.779200
21
167.423993
0
LINE
8
Layer 1
10
53.779200
20
167.423993
11
56.377500
21
170.094000
0
LINE
8
Layer 1
10
56.377500
20
170.094000
11
56.377500
21
170.094000
0
LINE
8
Layer 1
10
69.275800
20
182.686000
11
69.141268
21
182.548541
0
LINE
8
Layer 1
10
69.141268
20
182.548541
11
69.139408
21
182.546399
0
LINE
8
Layer 1
10
69.139408
20
182.546399
11
69.180311
21
182.587411
0
LINE
8
Layer 1
10
69.180311
20
182.587411
11
69.275800
21
182.686000
0
LINE
8
Layer 1
10
69.275800
20
182.686000
11
69.275800
21
182.686000
0
LINE
8
Layer 1
10
70.068200
20
183.502000
11
69.748770
21
183.175023
0
LINE
8
Layer 1
10
69.748770
20
183.175023
11
69.275822
21
182.686694
0
LINE
8
Layer 1
10
69.275822
20
182.686694
11
69.704207
21
183.124420
0
LINE
8
Layer 1
10
69.704207
20
183.124420
11
70.036426
21
183.468678
0
LINE
8
Layer 1
10
70.036426
20
183.468678
11
70.107316
21
183.542366
0
LINE
8
Layer 1
10
70.107316
20
183.542366
11
70.068200
21
183.502000
0
LINE
8
Layer 1
10
70.068200
20
183.502000
11
70.068200
21
183.502000
0
LINE
8
Layer 1
10
46.354200
20
160.707000
11
46.164513
21
160.550384
0
LINE
8
Layer 1
10
46.164513
20
160.550384
11
45.994153
21
160.365712
0
LINE
8
Layer 1
10
45.994153
20
160.365712
11
46.252513
21
160.566722
0
LINE
8
Layer 1
10
46.252513
20
160.566722
11
46.354200
21
160.707000
0
LINE
8
Layer 1
10
46.354200
20
160.707000
11
46.354200
21
160.707000
0
LINE
8
Layer 1
10
3.124750
20
180.370000
11
2.611888
21
180.879735
0
LINE
8
Layer 1
10
2.611888
20
180.879735
11
2.401952
21
181.092463
0
LINE
8
Layer 1
10
2.401952
20
181.092463
11
2.350235
21
181.137757
0
LINE
8
Layer 1
10
2.350235
20
181.137757
11
2.392966
21
181.084349
0
LINE
8
Layer 1
10
2.392966
20
181.084349
11
2.928276
21
180.524361
0
LINE
8
Layer 1
10
2.928276
20
180.524361
11
3.124750
21
180.370000
0
LINE
8
Layer 1
10
3.124750
20
180.370000
11
3.124750
21
180.370000
0
LINE
8
Layer 1
10
0.009014
20
183.536000
11
0.071744
21
183.473468
0
LINE
8
Layer 1
10
0.071744
20
183.473468
11
0.170276
21
183.375780
0
LINE
8
Layer 1
10
0.170276
20
183.375780
11
0.081209
21
183.464454
0
LINE
8
Layer 1
10
0.081209
20
183.464454
11
0.009014
21
183.536000
0
LINE
8
Layer 1
10
0.009014
20
183.536000
11
0.009014
21
183.536000
0
LINE
8
Layer 1
10
0.009014
20
183.536000
11
0.008901
21
183.536113
0
LINE
8
Layer 1
10
0.008901
20
183.536113
11
0.009014
21
183.536000
0
LINE
8
Layer 1
10
0.009014
20
183.536000
11
0.009014
21
183.536000
0
LINE
8
Layer 1
10
4.470290
20
178.924000
11
4.444517
21
178.945167
0
LINE
8
Layer 1
10
4.444517
20
178.945167
11
4.475700
21
178.909226
0
LINE
8
Layer 1
10
4.475700
20
178.909226
11
4.510826
21
178.875424
0
LINE
8
Layer 1
10
4.510826
20
178.875424
11
4.470290
21
178.924000
0
LINE
8
Layer 1
10
66.084000
20
11.293200
11
66.598242
21
10.784817
0
LINE
8
Layer 1
10
66.598242
20
10.784817
11
66.807758
21
10.571739
0
LINE
8
Layer 1
10
66.807758
20
10.571739
11
66.861098
21
10.528020
0
LINE
8
Layer 1
10
66.861098
20
10.528020
11
66.821042
21
10.584131
0
LINE
8
Layer 1
10
66.821042
20
10.584131
11
66.291196
21
11.149639
0
LINE
8
Layer 1
10
66.291196
20
11.149639
11
66.084000
21
11.293200
0
LINE
8
Layer 1
10
66.084000
20
11.293200
11
66.084000
21
11.293200
0
LINE
8
Layer 1
10
69.191100
20
8.118180
11
69.128117
21
8.180712
0
LINE
8
Layer 1
10
69.128117
20
8.180712
11
69.024852
21
8.282459
0
LINE
8
Layer 1
10
69.024852
20
8.282459
11
69.118484
21
8.189608
0
LINE
8
Layer 1
10
69.118484
20
8.189608
11
69.191100
21
8.118180
0
LINE
8
Layer 1
10
69.191100
20
8.118180
11
69.191100
21
8.118180
0
LINE
8
Layer 1
10
64.761800
20
12.762200
11
64.788786
21
12.742142
0
LINE
8
Layer 1
10
64.788786
20
12.742142
11
64.758701
21
12.779325
0
LINE
8
Layer 1
10
64.758701
20
12.779325
11
64.723265
21
12.812791
0
LINE
8
Layer 1
10
64.723265
20
12.812791
11
64.761800
21
12.762200
0
LINE
8
Layer 1
10
64.761800
20
12.762200
11
64.761800
21
12.762200
0
LINE
8
Layer 1
10
35.126300
20
14.386500
11
35.123314
21
13.234190
0
LINE
8
Layer 1
10
35.123314
20
13.234190
11
35.135004
21
12.969519
0
LINE
8
Layer 1
10
35.135004
20
12.969519
11
35.153540
21
13.231825
0
LINE
8
Layer 1
10
35.153540
20
13.231825
11
35.192326
21
16.218685
0
LINE
8
Layer 1
10
35.192326
20
16.218685
11
35.116301
21
17.174943
0
LINE
8
Layer 1
10
35.116301
20
17.174943
11
35.126300
21
14.386500
0
LINE
8
Layer 1
10
35.126300
20
14.386500
11
35.126300
21
14.386500
0
LINE
8
Layer 1
10
35.051900
20
0.883073
11
35.051477
21
1.039463
0
LINE
8
Layer 1
10
35.051477
20
1.039463
11
35.051392
21
1.045672
0
LINE
8
Layer 1
10
35.051392
20
1.045672
11
35.051400
21
0.998236
0
LINE
8
Layer 1
10
35.051400
20
0.998236
11
35.051900
21
0.883073
0
LINE
8
Layer 1
10
35.055000
20
0.044557
11
35.054071
21
0.386633
0
LINE
8
Layer 1
10
35.054071
20
0.386633
11
35.051932
21
0.883061
0
LINE
8
Layer 1
10
35.051932
20
0.883061
11
35.053115
21
0.437099
0
LINE
8
Layer 1
10
35.053115
20
0.437099
11
35.054727
21
0.079047
0
LINE
8
Layer 1
10
35.054727
20
0.079047
11
35.055000
21
0.044557
0
LINE
8
Layer 1
10
35.055000
20
0.044557
11
35.055000
21
0.044557
0
LINE
8
Layer 1
10
35.281100
20
24.787100
11
35.289383
21
24.658991
0
LINE
8
Layer 1
10
35.289383
20
24.658991
11
35.297551
21
24.842198
0
LINE
8
Layer 1
10
35.297551
20
24.842198
11
35.295000
21
25.030100
0
LINE
8
Layer 1
10
35.295000
20
25.030100
11
35.281100
21
24.787100
0
LINE
8
Layer 1
10
35.281100
20
24.787100
11
35.281100
21
24.787100
 0 
ENDSEC
 0 
EOF