999
"DXF R12 Output" (www.mydxf.blogspot.com)
 0 
SECTION
 2 
HEADER
 9 
$ACADVER
 1 
AC1009
 9 
$EXTMIN
 10 
 0 
 20 
 0 
 9 
$EXTMAX
 10 
 8.5 
 20 
 11 
 0 
ENDSEC
 0 
SECTION
 2 
ENTITIES
0
LINE
8
Layer 1
10
69.109600
20
85.717700
11
68.263586
21
84.744291
0
LINE
8
Layer 1
10
68.263586
20
84.744291
11
67.581932
21
83.960561
0
LINE
8
Layer 1
10
67.581932
20
83.960561
11
66.243352
21
82.406081
0
LINE
8
Layer 1
10
66.243352
20
82.406081
11
65.894526
21
82.024379
0
LINE
8
Layer 1
10
65.894526
20
82.024379
11
65.621598
21
81.730442
0
LINE
8
Layer 1
10
65.621598
20
81.730442
11
65.177395
21
81.216394
0
LINE
8
Layer 1
10
65.177395
20
81.216394
11
64.407776
21
80.347881
0
LINE
8
Layer 1
10
64.407776
20
80.347881
11
64.181550
21
80.099794
0
LINE
8
Layer 1
10
64.181550
20
80.099794
11
64.468465
21
80.577350
0
LINE
8
Layer 1
10
64.468465
20
80.577350
11
63.953252
21
80.024367
0
LINE
8
Layer 1
10
63.953252
20
80.024367
11
63.355695
21
79.378406
0
LINE
8
Layer 1
10
63.355695
20
79.378406
11
63.410748
21
79.355109
0
LINE
8
Layer 1
10
63.410748
20
79.355109
11
63.220813
21
79.117980
0
LINE
8
Layer 1
10
63.220813
20
79.117980
11
62.673362
21
78.524893
0
LINE
8
Layer 1
10
62.673362
20
78.524893
11
61.736817
21
77.510413
0
LINE
8
Layer 1
10
61.736817
20
77.510413
11
61.442719
21
77.161477
0
LINE
8
Layer 1
10
61.442719
20
77.161477
11
60.036859
21
75.693277
0
LINE
8
Layer 1
10
60.036859
20
75.693277
11
59.190365
21
74.815284
0
LINE
8
Layer 1
10
59.190365
20
74.815284
11
58.646693
21
74.232408
0
LINE
8
Layer 1
10
58.646693
20
74.232408
11
58.128446
21
73.637086
0
LINE
8
Layer 1
10
58.128446
20
73.637086
11
57.762379
21
73.147713
0
LINE
8
Layer 1
10
57.762379
20
73.147713
11
57.435783
21
72.853355
0
LINE
8
Layer 1
10
57.435783
20
72.853355
11
57.038979
21
72.474418
0
LINE
8
Layer 1
10
57.038979
20
72.474418
11
55.984239
21
71.441858
0
LINE
8
Layer 1
10
55.984239
20
71.441858
11
55.509660
21
70.953665
0
LINE
8
Layer 1
10
55.509660
20
70.953665
11
54.743168
21
70.084723
0
LINE
8
Layer 1
10
54.743168
20
70.084723
11
53.931464
21
69.293124
0
LINE
8
Layer 1
10
53.931464
20
69.293124
11
53.684971
21
69.045463
0
LINE
8
Layer 1
10
53.684971
20
69.045463
11
51.914221
21
67.178323
0
LINE
8
Layer 1
10
51.914221
20
67.178323
11
50.142401
21
65.290543
0
LINE
8
Layer 1
10
50.142401
20
65.290543
11
49.890964
21
65.057145
0
LINE
8
Layer 1
10
49.890964
20
65.057145
11
48.322764
21
63.462565
0
LINE
8
Layer 1
10
48.322764
20
63.462565
11
48.003289
21
63.115223
0
LINE
8
Layer 1
10
48.003289
20
63.115223
11
44.657789
21
59.799143
0
LINE
8
Layer 1
10
44.657789
20
59.799143
11
41.133839
21
56.306573
0
LINE
8
Layer 1
10
41.133839
20
56.306573
11
37.453129
21
52.626763
0
LINE
8
Layer 1
10
37.453129
20
52.626763
11
36.537220
21
51.701761
0
LINE
8
Layer 1
10
36.537220
20
51.701761
11
33.888430
21
49.098131
0
LINE
8
Layer 1
10
33.888430
20
49.098131
11
34.004440
21
52.455381
0
LINE
8
Layer 1
10
34.004440
20
52.455381
11
34.119067
21
57.279551
0
LINE
8
Layer 1
10
34.119067
20
57.279551
11
34.163695
21
57.915725
0
LINE
8
Layer 1
10
34.163695
20
57.915725
11
34.327948
21
62.078295
0
LINE
8
Layer 1
10
34.327948
20
62.078295
11
34.342948
21
62.957874
0
LINE
8
Layer 1
10
34.342948
20
62.957874
11
34.763741
21
71.717914
0
LINE
8
Layer 1
10
34.763741
20
71.717914
11
34.796933
21
72.408875
0
LINE
8
Layer 1
10
34.796933
20
72.408875
11
35.538426
21
73.304411
0
LINE
8
Layer 1
10
35.538426
20
73.304411
11
36.153055
21
74.042704
0
LINE
8
Layer 1
10
36.153055
20
74.042704
11
37.334925
21
75.528244
0
LINE
8
Layer 1
10
37.334925
20
75.528244
11
37.683382
21
75.859626
0
LINE
8
Layer 1
10
37.683382
20
75.859626
11
37.963278
21
76.108247
0
LINE
8
Layer 1
10
37.963278
20
76.108247
11
38.358651
21
76.596866
0
LINE
8
Layer 1
10
38.358651
20
76.596866
11
39.079773
21
77.392506
0
LINE
8
Layer 1
10
39.079773
20
77.392506
11
39.302912
21
77.610167
0
LINE
8
Layer 1
10
39.302912
20
77.610167
11
39.307113
21
77.286415
0
LINE
8
Layer 1
10
39.307113
20
77.286415
11
39.282592
21
76.961229
0
LINE
8
Layer 1
10
39.282592
20
76.961229
11
39.804722
21
77.434210
0
LINE
8
Layer 1
10
39.804722
20
77.434210
11
40.400470
21
77.995487
0
LINE
8
Layer 1
10
40.400470
20
77.995487
11
40.217065
21
78.128893
0
LINE
8
Layer 1
10
40.217065
20
78.128893
11
40.357863
21
78.377830
0
LINE
8
Layer 1
10
40.357863
20
78.377830
11
40.902814
21
78.893896
0
LINE
8
Layer 1
10
40.902814
20
78.893896
11
41.830850
21
79.780178
0
LINE
8
Layer 1
10
41.830850
20
79.780178
11
42.077179
21
80.124650
0
LINE
8
Layer 1
10
42.077179
20
80.124650
11
42.746063
21
80.808844
0
LINE
8
Layer 1
10
42.746063
20
80.808844
11
43.535300
21
81.349800
0
LINE
8
Layer 1
10
43.535300
20
81.349800
11
44.043874
21
81.632341
0
LINE
8
Layer 1
10
44.043874
20
81.632341
11
44.413123
21
82.081932
0
LINE
8
Layer 1
10
44.413123
20
82.081932
11
44.947911
21
82.594379
0
LINE
8
Layer 1
10
44.947911
20
82.594379
11
45.405627
21
83.163319
0
LINE
8
Layer 1
10
45.405627
20
83.163319
11
45.457343
21
83.413307
0
LINE
8
Layer 1
10
45.457343
20
83.413307
11
45.641265
21
83.703108
0
LINE
8
Layer 1
10
45.641265
20
83.703108
11
46.031959
21
83.900663
0
LINE
8
Layer 1
10
46.031959
20
83.900663
11
46.477918
21
84.184708
0
LINE
8
Layer 1
10
46.477918
20
84.184708
11
46.995820
21
84.666941
0
LINE
8
Layer 1
10
46.995820
20
84.666941
11
47.620688
21
84.999074
0
LINE
8
Layer 1
10
47.620688
20
84.999074
11
48.102870
21
85.414395
0
LINE
8
Layer 1
10
48.102870
20
85.414395
11
48.437647
21
85.831591
0
LINE
8
Layer 1
10
48.437647
20
85.831591
11
48.784154
21
86.241845
0
LINE
8
Layer 1
10
48.784154
20
86.241845
11
49.166617
21
86.614375
0
LINE
8
Layer 1
10
49.166617
20
86.614375
11
49.650169
21
86.877273
0
LINE
8
Layer 1
10
49.650169
20
86.877273
11
49.903150
21
87.085361
0
LINE
8
Layer 1
10
49.903150
20
87.085361
11
50.728613
21
87.947556
0
LINE
8
Layer 1
10
50.728613
20
87.947556
11
51.611880
21
88.753661
0
LINE
8
Layer 1
10
51.611880
20
88.753661
11
52.496845
21
89.568387
0
LINE
8
Layer 1
10
52.496845
20
89.568387
11
53.284230
21
90.472711
0
LINE
8
Layer 1
10
53.284230
20
90.472711
11
53.553701
21
90.657713
0
LINE
8
Layer 1
10
53.553701
20
90.657713
11
55.087701
21
92.063573
0
LINE
8
Layer 1
10
55.087701
20
92.063573
11
55.377436
21
92.389853
0
LINE
8
Layer 1
10
55.377436
20
92.389853
11
58.648996
21
95.311463
0
LINE
8
Layer 1
10
58.648996
20
95.311463
11
61.989226
21
98.478713
0
LINE
8
Layer 1
10
61.989226
20
98.478713
11
62.840825
21
99.329895
0
LINE
8
Layer 1
10
62.840825
20
99.329895
11
63.264127
21
99.757981
0
LINE
8
Layer 1
10
63.264127
20
99.757981
11
63.316903
21
99.811603
0
LINE
8
Layer 1
10
63.316903
20
99.811603
11
63.412116
21
99.915743
0
LINE
8
Layer 1
10
63.412116
20
99.915743
11
63.611162
21
100.134787
0
LINE
8
Layer 1
10
63.611162
20
100.134787
11
64.010311
21
100.574365
0
LINE
8
Layer 1
10
64.010311
20
100.574365
11
65.625961
21
102.353415
0
LINE
8
Layer 1
10
65.625961
20
102.353415
11
67.586501
21
104.170235
0
LINE
8
Layer 1
10
67.586501
20
104.170235
11
68.557412
21
105.091727
0
LINE
8
Layer 1
10
68.557412
20
105.091727
11
68.587609
21
105.120559
0
LINE
8
Layer 1
10
68.587609
20
105.120559
11
68.602717
21
105.135026
0
LINE
8
Layer 1
10
68.602717
20
105.135026
11
68.591710
21
105.149069
0
LINE
8
Layer 1
10
68.591710
20
105.149069
11
68.532190
21
105.205231
0
LINE
8
Layer 1
10
68.532190
20
105.205231
11
68.413730
21
105.317572
0
LINE
8
Layer 1
10
68.413730
20
105.317572
11
68.179421
21
105.542147
0
LINE
8
Layer 1
10
68.179421
20
105.542147
11
67.727018
21
105.992469
0
LINE
8
Layer 1
10
67.727018
20
105.992469
11
66.640899
21
107.093749
0
LINE
8
Layer 1
10
66.640899
20
107.093749
11
66.081428
21
107.650136
0
LINE
8
Layer 1
10
66.081428
20
107.650136
11
65.798181
21
107.929392
0
LINE
8
Layer 1
10
65.798181
20
107.929392
11
65.555307
21
108.208329
0
LINE
8
Layer 1
10
65.555307
20
108.208329
11
63.609026
21
110.452169
0
LINE
8
Layer 1
10
63.609026
20
110.452169
11
63.059235
21
111.079619
0
LINE
8
Layer 1
10
63.059235
20
111.079619
11
62.574339
21
111.617387
0
LINE
8
Layer 1
10
62.574339
20
111.617387
11
61.589336
21
112.679197
0
LINE
8
Layer 1
10
61.589336
20
112.679197
11
54.802500
21
119.510000
0
LINE
8
Layer 1
10
54.802500
20
119.510000
11
50.422260
21
123.350020
0
LINE
8
Layer 1
10
50.422260
20
123.350020
11
46.115590
21
126.956630
0
LINE
8
Layer 1
10
46.115590
20
126.956630
11
41.837320
21
130.596860
0
LINE
8
Layer 1
10
41.837320
20
130.596860
11
39.187310
21
132.913680
0
LINE
8
Layer 1
10
39.187310
20
132.913680
11
36.857140
21
134.884110
0
LINE
8
Layer 1
10
36.857140
20
134.884110
11
36.854163
21
135.767307
0
LINE
8
Layer 1
10
36.854163
20
135.767307
11
36.745917
21
146.979707
0
LINE
8
Layer 1
10
36.745917
20
146.979707
11
36.695918
21
158.204107
0
LINE
8
Layer 1
10
36.695918
20
158.204107
11
36.843520
21
165.249467
0
LINE
8
Layer 1
10
36.843520
20
165.249467
11
36.988466
21
169.420337
0
LINE
8
Layer 1
10
36.988466
20
169.420337
11
42.386476
21
163.403707
0
LINE
8
Layer 1
10
42.386476
20
163.403707
11
47.181496
21
158.590697
0
LINE
8
Layer 1
10
47.181496
20
158.590697
11
51.891096
21
154.043647
0
LINE
8
Layer 1
10
51.891096
20
154.043647
11
56.571326
21
149.463627
0
LINE
8
Layer 1
10
56.571326
20
149.463627
11
59.472086
21
146.558827
0
LINE
8
Layer 1
10
59.472086
20
146.558827
11
63.744496
21
142.486037
0
LINE
8
Layer 1
10
63.744496
20
142.486037
11
65.711426
21
140.704537
0
LINE
8
Layer 1
10
65.711426
20
140.704537
11
66.150803
21
140.256451
0
LINE
8
Layer 1
10
66.150803
20
140.256451
11
65.642541
21
140.939752
0
LINE
8
Layer 1
10
65.642541
20
140.939752
11
64.506631
21
142.612312
0
LINE
8
Layer 1
10
64.506631
20
142.612312
11
61.610451
21
146.964032
0
LINE
8
Layer 1
10
61.610451
20
146.964032
11
58.136181
21
152.328422
0
LINE
8
Layer 1
10
58.136181
20
152.328422
11
54.270591
21
158.528882
0
LINE
8
Layer 1
10
54.270591
20
158.528882
11
51.621161
21
162.771462
0
LINE
8
Layer 1
10
51.621161
20
162.771462
11
49.976631
21
165.372642
0
LINE
8
Layer 1
10
49.976631
20
165.372642
11
47.747891
21
168.812772
0
LINE
8
Layer 1
10
47.747891
20
168.812772
11
45.850911
21
171.547572
0
LINE
8
Layer 1
10
45.850911
20
171.547572
11
44.023771
21
174.171312
0
LINE
8
Layer 1
10
44.023771
20
174.171312
11
42.171321
21
176.586002
0
LINE
8
Layer 1
10
42.171321
20
176.586002
11
40.294541
21
178.980902
0
LINE
8
Layer 1
10
40.294541
20
178.980902
11
37.093300
21
182.956000
0
LINE
8
Layer 1
10
37.093300
20
182.956000
11
36.593141
21
183.575364
0
LINE
8
Layer 1
10
36.593141
20
183.575364
11
36.468032
21
183.735260
0
LINE
8
Layer 1
10
36.468032
20
183.735260
11
36.342234
21
183.919622
0
LINE
8
Layer 1
10
36.342234
20
183.919622
11
36.090690
21
184.288348
0
LINE
8
Layer 1
10
36.090690
20
184.288348
11
35.085050
21
185.762398
0
LINE
8
Layer 1
10
35.085050
20
185.762398
11
33.075900
21
188.707000
0
LINE
8
Layer 1
10
33.075900
20
188.707000
11
32.280418
21
187.533380
0
LINE
8
Layer 1
10
32.280418
20
187.533380
11
31.115038
21
185.733480
0
LINE
8
Layer 1
10
31.115038
20
185.733480
11
29.801048
21
183.702300
0
LINE
8
Layer 1
10
29.801048
20
183.702300
11
29.719506
21
183.576553
0
LINE
8
Layer 1
10
29.719506
20
183.576553
11
29.638440
21
183.468787
0
LINE
8
Layer 1
10
29.638440
20
183.468787
11
29.476473
21
183.256765
0
LINE
8
Layer 1
10
29.476473
20
183.256765
11
29.152694
21
182.834843
0
LINE
8
Layer 1
10
29.152694
20
182.834843
11
28.503967
21
182.000795
0
LINE
8
Layer 1
10
28.503967
20
182.000795
11
27.327097
21
180.508765
0
LINE
8
Layer 1
10
27.327097
20
180.508765
11
26.739277
21
179.766521
0
LINE
8
Layer 1
10
26.739277
20
179.766521
11
26.455339
21
179.398221
0
LINE
8
Layer 1
10
26.455339
20
179.398221
11
25.324059
21
177.935551
0
LINE
8
Layer 1
10
25.324059
20
177.935551
11
23.662200
21
175.834000
0
LINE
8
Layer 1
10
23.662200
20
175.834000
11
22.918489
21
174.796841
0
LINE
8
Layer 1
10
22.918489
20
174.796841
11
22.117620
21
173.804840
0
LINE
8
Layer 1
10
22.117620
20
173.804840
11
21.925653
21
173.475157
0
LINE
8
Layer 1
10
21.925653
20
173.475157
11
21.590093
21
172.855925
0
LINE
8
Layer 1
10
21.590093
20
172.855925
11
21.182404
21
172.286637
0
LINE
8
Layer 1
10
21.182404
20
172.286637
11
20.736776
21
171.671487
0
LINE
8
Layer 1
10
20.736776
20
171.671487
11
20.358570
21
171.000887
0
LINE
8
Layer 1
10
20.358570
20
171.000887
11
19.787276
21
169.949667
0
LINE
8
Layer 1
10
19.787276
20
169.949667
11
18.894940
21
169.152687
0
LINE
8
Layer 1
10
18.894940
20
169.152687
11
18.565100
21
168.789000
0
LINE
8
Layer 1
10
18.565100
20
168.789000
11
17.982876
21
167.946658
0
LINE
8
Layer 1
10
17.982876
20
167.946658
11
15.318506
21
164.037378
0
LINE
8
Layer 1
10
15.318506
20
164.037378
11
14.553120
21
162.856308
0
LINE
8
Layer 1
10
14.553120
20
162.856308
11
13.813698
21
161.665558
0
LINE
8
Layer 1
10
13.813698
20
161.665558
11
13.421112
21
161.077363
0
LINE
8
Layer 1
10
13.421112
20
161.077363
11
12.972959
21
160.582668
0
LINE
8
Layer 1
10
12.972959
20
160.582668
11
12.714873
21
160.141600
0
LINE
8
Layer 1
10
12.714873
20
160.141600
11
11.600613
21
158.289460
0
LINE
8
Layer 1
10
11.600613
20
158.289460
11
9.880073
21
155.747420
0
LINE
8
Layer 1
10
9.880073
20
155.747420
11
9.186089
21
154.675180
0
LINE
8
Layer 1
10
9.186089
20
154.675180
11
8.260020
21
153.181340
0
LINE
8
Layer 1
10
8.260020
20
153.181340
11
8.059541
21
152.855374
0
LINE
8
Layer 1
10
8.059541
20
152.855374
11
7.288793
21
151.529404
0
LINE
8
Layer 1
10
7.288793
20
151.529404
11
6.519374
21
150.215244
0
LINE
8
Layer 1
10
6.519374
20
150.215244
11
5.667986
21
148.953114
0
LINE
8
Layer 1
10
5.667986
20
148.953114
11
5.340538
21
148.409495
0
LINE
8
Layer 1
10
5.340538
20
148.409495
11
4.151708
21
146.465235
0
LINE
8
Layer 1
10
4.151708
20
146.465235
11
3.392449
21
145.286395
0
LINE
8
Layer 1
10
3.392449
20
145.286395
11
2.563721
21
144.010755
0
LINE
8
Layer 1
10
2.563721
20
144.010755
11
1.363871
21
142.219775
0
LINE
8
Layer 1
10
1.363871
20
142.219775
11
1.254722
21
142.043386
0
LINE
8
Layer 1
10
1.254722
20
142.043386
11
1.115093
21
141.765832
0
LINE
8
Layer 1
10
1.115093
20
141.765832
11
0.523708
21
140.962210
0
LINE
8
Layer 1
10
0.523708
20
140.962210
11
0.347855
21
140.708806
0
LINE
8
Layer 1
10
0.347855
20
140.708806
11
0.675464
21
141.109231
0
LINE
8
Layer 1
10
0.675464
20
141.109231
11
1.935094
21
142.666151
0
LINE
8
Layer 1
10
1.935094
20
142.666151
11
2.801693
21
143.757751
0
LINE
8
Layer 1
10
2.801693
20
143.757751
11
3.501220
21
144.635744
0
LINE
8
Layer 1
10
3.501220
20
144.635744
11
4.850050
21
146.396184
0
LINE
8
Layer 1
10
4.850050
20
146.396184
11
5.241543
21
146.797992
0
LINE
8
Layer 1
10
5.241543
20
146.797992
11
5.555055
21
147.101505
0
LINE
8
Layer 1
10
5.555055
20
147.101505
11
6.005749
21
147.681296
0
LINE
8
Layer 1
10
6.005749
20
147.681296
11
6.822401
21
148.633640
0
LINE
8
Layer 1
10
6.822401
20
148.633640
11
7.073412
21
148.897046
0
LINE
8
Layer 1
10
7.073412
20
148.897046
11
7.059191
21
148.541673
0
LINE
8
Layer 1
10
7.059191
20
148.541673
11
7.014210
21
148.181512
0
LINE
8
Layer 1
10
7.014210
20
148.181512
11
7.599538
21
148.757790
0
LINE
8
Layer 1
10
7.599538
20
148.757790
11
8.268585
21
149.438964
0
LINE
8
Layer 1
10
8.268585
20
149.438964
11
8.080343
21
149.565986
0
LINE
8
Layer 1
10
8.080343
20
149.565986
11
8.245186
21
149.854818
0
LINE
8
Layer 1
10
8.245186
20
149.854818
11
8.857368
21
150.480885
0
LINE
8
Layer 1
10
8.857368
20
150.480885
11
9.900298
21
151.555145
0
LINE
8
Layer 1
10
9.900298
20
151.555145
11
10.183437
21
151.960464
0
LINE
8
Layer 1
10
10.183437
20
151.960464
11
10.934281
21
152.781367
0
LINE
8
Layer 1
10
10.934281
20
152.781367
11
11.812487
21
153.464304
0
LINE
8
Layer 1
10
11.812487
20
153.464304
11
12.376478
21
153.833662
0
LINE
8
Layer 1
10
12.376478
20
153.833662
11
12.792864
21
154.363881
0
LINE
8
Layer 1
10
12.792864
20
154.363881
11
13.393997
21
154.984843
0
LINE
8
Layer 1
10
13.393997
20
154.984843
11
13.916020
21
155.659740
0
LINE
8
Layer 1
10
13.916020
20
155.659740
11
13.985741
21
155.940101
0
LINE
8
Layer 1
10
13.985741
20
155.940101
11
14.199001
21
156.278467
0
LINE
8
Layer 1
10
14.199001
20
156.278467
11
14.627939
21
156.537829
0
LINE
8
Layer 1
10
14.627939
20
156.537829
11
15.120919
21
156.898043
0
LINE
8
Layer 1
10
15.120919
20
156.898043
11
15.696893
21
157.479796
0
LINE
8
Layer 1
10
15.696893
20
157.479796
11
16.389229
21
157.916663
0
LINE
8
Layer 1
10
16.389229
20
157.916663
11
16.928488
21
158.425176
0
LINE
8
Layer 1
10
16.928488
20
158.425176
11
17.310351
21
158.919857
0
LINE
8
Layer 1
10
17.310351
20
158.919857
11
17.704342
21
159.408155
0
LINE
8
Layer 1
10
17.704342
20
159.408155
11
18.134585
21
159.858968
0
LINE
8
Layer 1
10
18.134585
20
159.858968
11
18.666527
21
160.200070
0
LINE
8
Layer 1
10
18.666527
20
160.200070
11
18.948924
21
160.456240
0
LINE
8
Layer 1
10
18.948924
20
160.456240
11
19.880851
21
161.492988
0
LINE
8
Layer 1
10
19.880851
20
161.492988
11
20.871384
21
162.474440
0
LINE
8
Layer 1
10
20.871384
20
162.474440
11
21.864139
21
163.465482
0
LINE
8
Layer 1
10
21.864139
20
163.465482
11
22.757834
21
164.544450
0
LINE
8
Layer 1
10
22.757834
20
164.544450
11
23.056504
21
164.776899
0
LINE
8
Layer 1
10
23.056504
20
164.776899
11
24.776994
21
166.487759
0
LINE
8
Layer 1
10
24.776994
20
166.487759
11
25.105500
21
166.877762
0
LINE
8
Layer 1
10
25.105500
20
166.877762
11
28.770410
21
170.442252
0
LINE
8
Layer 1
10
28.770410
20
170.442252
11
30.938130
21
172.635352
0
LINE
8
Layer 1
10
30.938130
20
172.635352
11
30.617224
21
167.033732
0
LINE
8
Layer 1
10
30.617224
20
167.033732
11
30.218605
21
156.071332
0
LINE
8
Layer 1
10
30.218605
20
156.071332
11
29.805412
21
143.563732
0
LINE
8
Layer 1
10
29.805412
20
143.563732
11
29.631050
21
135.000922
0
LINE
8
Layer 1
10
29.631050
20
135.000922
11
29.566368
21
129.728872
0
LINE
8
Layer 1
10
29.566368
20
129.728872
11
29.535837
21
122.698092
0
LINE
8
Layer 1
10
29.535837
20
122.698092
11
29.609029
21
116.972532
0
LINE
8
Layer 1
10
29.609029
20
116.972532
11
29.674826
21
111.471652
0
LINE
8
Layer 1
10
29.674826
20
111.471652
11
30.369033
21
89.437652
0
LINE
8
Layer 1
10
30.369033
20
89.437652
11
30.446266
21
87.898602
0
LINE
8
Layer 1
10
30.446266
20
87.898602
11
30.612650
21
84.378902
0
LINE
8
Layer 1
10
30.612650
20
84.378902
11
30.826109
21
78.000992
0
LINE
8
Layer 1
10
30.826109
20
78.000992
11
30.949036
21
73.379052
0
LINE
8
Layer 1
10
30.949036
20
73.379052
11
31.081855
21
68.981692
0
LINE
8
Layer 1
10
31.081855
20
68.981692
11
31.123502
21
68.331263
0
LINE
8
Layer 1
10
31.123502
20
68.331263
11
31.252971
21
65.931463
0
LINE
8
Layer 1
10
31.252971
20
65.931463
11
31.380152
21
63.313573
0
LINE
8
Layer 1
10
31.380152
20
63.313573
11
31.515280
21
61.281973
0
LINE
8
Layer 1
10
31.515280
20
61.281973
11
31.459674
21
59.246643
0
LINE
8
Layer 1
10
31.459674
20
59.246643
11
31.460687
21
58.400259
0
LINE
8
Layer 1
10
31.460687
20
58.400259
11
31.523239
21
56.638969
0
LINE
8
Layer 1
10
31.523239
20
56.638969
11
31.802283
21
48.506059
0
LINE
8
Layer 1
10
31.802283
20
48.506059
11
31.857815
21
47.006049
0
LINE
8
Layer 1
10
31.857815
20
47.006049
11
24.935705
21
39.719199
0
LINE
8
Layer 1
10
24.935705
20
39.719199
11
20.791535
21
35.034499
0
LINE
8
Layer 1
10
20.791535
20
35.034499
11
16.899175
21
30.449579
0
LINE
8
Layer 1
10
16.899175
20
30.449579
11
12.967395
21
25.890409
0
LINE
8
Layer 1
10
12.967395
20
25.890409
11
10.391745
21
23.122939
0
LINE
8
Layer 1
10
10.391745
20
23.122939
11
8.517563
21
21.162607
0
LINE
8
Layer 1
10
8.517563
20
21.162607
11
6.836180
21
19.034600
0
LINE
8
Layer 1
10
6.836180
20
19.034600
11
6.233236
21
17.816676
0
LINE
8
Layer 1
10
6.233236
20
17.816676
11
6.087346
21
16.465530
0
LINE
8
Layer 1
10
6.087346
20
16.465530
11
6.269281
21
15.739016
0
LINE
8
Layer 1
10
6.269281
20
15.739016
11
6.706251
21
15.156695
0
LINE
8
Layer 1
10
6.706251
20
15.156695
11
7.376949
21
14.823472
0
LINE
8
Layer 1
10
7.376949
20
14.823472
11
8.260066
21
14.844250
0
LINE
8
Layer 1
10
8.260066
20
14.844250
11
9.201401
21
15.196224
0
LINE
8
Layer 1
10
9.201401
20
15.196224
11
10.015396
21
15.785638
0
LINE
8
Layer 1
10
10.015396
20
15.785638
11
13.512436
21
19.124168
0
LINE
8
Layer 1
10
13.512436
20
19.124168
11
17.621866
21
23.341318
0
LINE
8
Layer 1
10
17.621866
20
23.341318
11
22.285506
21
28.174848
0
LINE
8
Layer 1
10
22.285506
20
28.174848
11
25.412916
21
31.541038
0
LINE
8
Layer 1
10
25.412916
20
31.541038
11
27.312716
21
33.636048
0
LINE
8
Layer 1
10
27.312716
20
33.636048
11
29.812776
21
36.459258
0
LINE
8
Layer 1
10
29.812776
20
36.459258
11
31.789596
21
38.809908
0
LINE
8
Layer 1
10
31.789596
20
38.809908
11
32.118534
21
39.196078
0
LINE
8
Layer 1
10
32.118534
20
39.196078
11
32.208323
21
36.764898
0
LINE
8
Layer 1
10
32.208323
20
36.764898
11
32.344918
21
31.489338
0
LINE
8
Layer 1
10
32.344918
20
31.489338
11
32.407684
21
29.298798
0
LINE
8
Layer 1
10
32.407684
20
29.298798
11
32.501249
21
26.291128
0
LINE
8
Layer 1
10
32.501249
20
26.291128
11
32.521408
21
25.636551
0
LINE
8
Layer 1
10
32.521408
20
25.636551
11
32.612208
21
23.022611
0
LINE
8
Layer 1
10
32.612208
20
23.022611
11
32.696727
21
20.426001
0
LINE
8
Layer 1
10
32.696727
20
20.426001
11
32.748219
21
17.809821
0
LINE
8
Layer 1
10
32.748219
20
17.809821
11
32.778377
21
16.725661
0
LINE
8
Layer 1
10
32.778377
20
16.725661
11
32.878284
21
12.829051
0
LINE
8
Layer 1
10
32.878284
20
12.829051
11
32.926741
21
10.424681
0
LINE
8
Layer 1
10
32.926741
20
10.424681
11
32.975038
21
7.814971
0
LINE
8
Layer 1
10
32.975038
20
7.814971
11
33.030571
21
4.111651
0
LINE
8
Layer 1
10
33.030571
20
4.111651
11
33.037592
21
3.756647
0
LINE
8
Layer 1
10
33.037592
20
3.756647
11
33.054509
21
3.233125
0
LINE
8
Layer 1
10
33.054509
20
3.233125
11
33.066743
21
1.513865
0
LINE
8
Layer 1
10
33.066743
20
1.513865
11
33.072275
21
0.984606
0
LINE
8
Layer 1
10
33.072275
20
0.984606
11
33.072593
21
1.875781
0
LINE
8
Layer 1
10
33.072593
20
1.875781
11
33.071264
21
5.330801
0
LINE
8
Layer 1
10
33.071264
20
5.330801
11
33.066847
21
7.735281
0
LINE
8
Layer 1
10
33.066847
20
7.735281
11
33.063605
21
9.671891
0
LINE
8
Layer 1
10
33.063605
20
9.671891
11
33.044775
21
13.496481
0
LINE
8
Layer 1
10
33.044775
20
13.496481
11
33.059030
21
14.460422
0
LINE
8
Layer 1
10
33.059030
20
14.460422
11
33.074083
21
15.207873
0
LINE
8
Layer 1
10
33.074083
20
15.207873
11
33.069348
21
16.474583
0
LINE
8
Layer 1
10
33.069348
20
16.474583
11
33.079242
21
18.638213
0
LINE
8
Layer 1
10
33.079242
20
18.638213
11
33.088070
21
19.263958
0
LINE
8
Layer 1
10
33.088070
20
19.263958
11
33.210837
21
18.241618
0
LINE
8
Layer 1
10
33.210837
20
18.241618
11
33.240891
21
19.650028
0
LINE
8
Layer 1
10
33.240891
20
19.650028
11
33.271902
21
21.290038
0
LINE
8
Layer 1
10
33.271902
20
21.290038
11
33.200999
21
21.255144
0
LINE
8
Layer 1
10
33.200999
20
21.255144
11
33.184667
21
21.821211
0
LINE
8
Layer 1
10
33.184667
20
21.821211
11
33.212009
21
23.325471
0
LINE
8
Layer 1
10
33.212009
20
23.325471
11
33.258925
21
25.898671
0
LINE
8
Layer 1
10
33.258925
20
25.898671
11
33.248712
21
26.749421
0
LINE
8
Layer 1
10
33.248712
20
26.749421
11
33.364084
21
30.535401
0
LINE
8
Layer 1
10
33.364084
20
30.535401
11
33.438590
21
32.806581
0
LINE
8
Layer 1
10
33.438590
20
32.806581
11
33.470764
21
34.291911
0
LINE
8
Layer 1
10
33.470764
20
34.291911
11
33.468788
21
35.763511
0
LINE
8
Layer 1
10
33.468788
20
35.763511
11
33.410755
21
36.899791
0
LINE
8
Layer 1
10
33.410755
20
36.899791
11
33.475968
21
37.713733
0
LINE
8
Layer 1
10
33.475968
20
37.713733
11
33.537774
21
38.732553
0
LINE
8
Layer 1
10
33.537774
20
38.732553
11
33.636606
21
40.998843
0
LINE
8
Layer 1
10
33.636606
20
40.998843
11
33.691551
21
41.066080
0
LINE
8
Layer 1
10
33.691551
20
41.066080
11
41.050631
21
50.329730
0
LINE
8
Layer 1
10
41.050631
20
50.329730
11
41.547342
21
50.991860
0
LINE
8
Layer 1
10
41.547342
20
50.991860
11
42.689422
21
52.500810
0
LINE
8
Layer 1
10
42.689422
20
52.500810
11
44.812042
21
55.188910
0
LINE
8
Layer 1
10
44.812042
20
55.188910
11
46.369392
21
57.120090
0
LINE
8
Layer 1
10
46.369392
20
57.120090
11
47.841522
21
58.965840
0
LINE
8
Layer 1
10
47.841522
20
58.965840
11
48.045992
21
59.250416
0
LINE
8
Layer 1
10
48.045992
20
59.250416
11
48.815047
21
60.287766
0
LINE
8
Layer 1
10
48.815047
20
60.287766
11
49.662500
21
61.411916
0
LINE
8
Layer 1
10
49.662500
20
61.411916
11
50.297400
21
62.302506
0
LINE
8
Layer 1
10
50.297400
20
62.302506
11
51.050060
21
63.096076
0
LINE
8
Layer 1
10
51.050060
20
63.096076
11
51.348199
21
63.438411
0
LINE
8
Layer 1
10
51.348199
20
63.438411
11
51.932139
21
64.182670
0
LINE
8
Layer 1
10
51.932139
20
64.182670
11
54.634759
21
67.613860
0
LINE
8
Layer 1
10
54.634759
20
67.613860
11
55.432953
21
68.635790
0
LINE
8
Layer 1
10
55.432953
20
68.635790
11
56.221628
21
69.655260
0
LINE
8
Layer 1
10
56.221628
20
69.655260
11
57.034822
21
70.628881
0
LINE
8
Layer 1
10
57.034822
20
70.628881
11
57.319240
21
71.001132
0
LINE
8
Layer 1
10
57.319240
20
71.001132
11
58.534250
21
72.569122
0
LINE
8
Layer 1
10
58.534250
20
72.569122
11
60.314100
21
74.771472
0
LINE
8
Layer 1
10
60.314100
20
74.771472
11
61.049477
21
75.689134
0
LINE
8
Layer 1
10
61.049477
20
75.689134
11
62.054747
21
76.953074
0
LINE
8
Layer 1
10
62.054747
20
76.953074
11
62.273633
21
77.227958
0
LINE
8
Layer 1
10
62.273633
20
77.227958
11
63.141562
21
78.331478
0
LINE
8
Layer 1
10
63.141562
20
78.331478
11
64.007137
21
79.424458
0
LINE
8
Layer 1
10
64.007137
20
79.424458
11
64.899588
21
80.508078
0
LINE
8
Layer 1
10
64.899588
20
80.508078
11
65.264004
21
80.961803
0
LINE
8
Layer 1
10
65.264004
20
80.961803
11
66.579224
21
82.587983
0
LINE
8
Layer 1
10
66.579224
20
82.587983
11
67.398698
21
83.584478
0
LINE
8
Layer 1
10
67.398698
20
83.584478
11
68.290723
21
84.663738
0
LINE
8
Layer 1
10
68.290723
20
84.663738
11
69.564453
21
86.188528
0
LINE
8
Layer 1
10
69.564453
20
86.188528
11
69.685526
21
86.335552
0
LINE
8
Layer 1
10
69.685526
20
86.335552
11
69.860100
21
86.555967
0
LINE
8
Layer 1
10
69.860100
20
86.555967
11
70.459624
21
87.256724
0
LINE
8
Layer 1
10
70.459624
20
87.256724
11
70.644146
21
87.474599
0
LINE
8
Layer 1
10
70.644146
20
87.474599
11
70.328294
21
87.113637
0
LINE
8
Layer 1
10
70.328294
20
87.113637
11
69.109600
21
85.717700
0
LINE
8
Layer 1
10
69.109600
20
85.717700
11
69.109600
21
85.717700
0
LINE
8
Layer 1
10
4.701800
20
146.902000
11
4.586109
21
146.806787
0
LINE
8
Layer 1
10
4.586109
20
146.806787
11
4.626162
21
146.895512
0
LINE
8
Layer 1
10
4.626162
20
146.895512
11
4.916803
21
147.264450
0
LINE
8
Layer 1
10
4.916803
20
147.264450
11
4.701800
21
146.902000
0
LINE
8
Layer 1
10
4.701800
20
146.902000
11
4.701800
21
146.902000
0
LINE
8
Layer 1
10
9.940230
20
152.379000
11
9.917934
21
152.423255
0
LINE
8
Layer 1
10
9.917934
20
152.423255
11
10.079959
21
152.607509
0
LINE
8
Layer 1
10
10.079959
20
152.607509
11
10.096872
21
152.563361
0
LINE
8
Layer 1
10
10.096872
20
152.563361
11
9.940230
21
152.379000
0
LINE
8
Layer 1
10
9.940230
20
152.379000
11
9.940230
21
152.379000
0
LINE
8
Layer 1
10
12.647740
20
155.078480
11
11.858534
21
154.583584
0
LINE
8
Layer 1
10
11.858534
20
154.583584
11
11.783161
21
154.601031
0
LINE
8
Layer 1
10
11.783161
20
154.601031
11
11.815715
21
154.788906
0
LINE
8
Layer 1
10
11.815715
20
154.788906
11
11.901832
21
154.898163
0
LINE
8
Layer 1
10
11.901832
20
154.898163
11
12.474179
21
155.522952
0
LINE
8
Layer 1
10
12.474179
20
155.522952
11
12.672597
21
155.743380
0
LINE
8
Layer 1
10
12.672597
20
155.743380
11
12.823701
21
155.752528
0
LINE
8
Layer 1
10
12.823701
20
155.752528
11
12.877851
21
155.586581
0
LINE
8
Layer 1
10
12.877851
20
155.586581
11
12.824144
21
155.293448
0
LINE
8
Layer 1
10
12.824144
20
155.293448
11
12.647700
21
155.078000
0
LINE
8
Layer 1
10
12.647700
20
155.078000
11
12.647740
21
155.078480
0
LINE
8
Layer 1
10
15.792300
20
158.189000
11
15.315542
21
157.566983
0
LINE
8
Layer 1
10
15.315542
20
157.566983
11
14.787987
21
157.099748
0
LINE
8
Layer 1
10
14.787987
20
157.099748
11
14.628306
21
157.139959
0
LINE
8
Layer 1
10
14.628306
20
157.139959
11
14.645220
21
157.245067
0
LINE
8
Layer 1
10
14.645220
20
157.245067
11
15.643524
21
158.344007
0
LINE
8
Layer 1
10
15.643524
20
158.344007
11
15.737408
21
158.355070
0
LINE
8
Layer 1
10
15.737408
20
158.355070
11
15.792300
21
158.189000
0
LINE
8
Layer 1
10
15.792300
20
158.189000
11
15.792300
21
158.189000
0
LINE
8
Layer 1
10
37.170500
20
76.004500
11
37.066360
21
75.928117
0
LINE
8
Layer 1
10
37.066360
20
75.928117
11
37.099662
21
76.005564
0
LINE
8
Layer 1
10
37.099662
20
76.005564
11
37.354878
21
76.316099
0
LINE
8
Layer 1
10
37.354878
20
76.316099
11
37.170500
21
76.004500
0
LINE
8
Layer 1
10
37.170500
20
76.004500
11
37.170500
21
76.004500
0
LINE
8
Layer 1
10
41.827760
20
80.529840
11
41.804567
21
80.572393
0
LINE
8
Layer 1
10
41.804567
20
80.572393
11
41.947865
21
80.725905
0
LINE
8
Layer 1
10
41.947865
20
80.725905
11
41.965953
21
80.683990
0
LINE
8
Layer 1
10
41.965953
20
80.683990
11
41.827700
21
80.529900
0
LINE
8
Layer 1
10
41.827700
20
80.529900
11
41.827760
21
80.529840
0
LINE
8
Layer 1
10
44.241320
20
82.748790
11
43.523347
21
82.369001
0
LINE
8
Layer 1
10
43.523347
20
82.369001
11
43.451538
21
82.391979
0
LINE
8
Layer 1
10
43.451538
20
82.391979
11
43.472922
21
82.560704
0
LINE
8
Layer 1
10
43.472922
20
82.560704
11
43.548558
21
82.652725
0
LINE
8
Layer 1
10
43.548558
20
82.652725
11
44.056061
21
83.171345
0
LINE
8
Layer 1
10
44.056061
20
83.171345
11
44.231819
21
83.354604
0
LINE
8
Layer 1
10
44.231819
20
83.354604
11
44.373507
21
83.349007
0
LINE
8
Layer 1
10
44.373507
20
83.349007
11
44.432711
21
83.192196
0
LINE
8
Layer 1
10
44.432711
20
83.192196
11
44.396626
21
82.929512
0
LINE
8
Layer 1
10
44.396626
20
82.929512
11
44.241300
21
82.748800
0
LINE
8
Layer 1
10
44.241300
20
82.748800
11
44.241320
21
82.748790
0
LINE
8
Layer 1
10
47.045760
20
85.303060
11
46.627990
21
84.778164
0
LINE
8
Layer 1
10
46.627990
20
84.778164
11
46.154850
21
84.399651
0
LINE
8
Layer 1
10
46.154850
20
84.399651
11
46.002614
21
84.451142
0
LINE
8
Layer 1
10
46.002614
20
84.451142
11
46.013307
21
84.545611
0
LINE
8
Layer 1
10
46.013307
20
84.545611
11
46.898152
21
85.458599
0
LINE
8
Layer 1
10
46.898152
20
85.458599
11
46.985864
21
85.460089
0
LINE
8
Layer 1
10
46.985864
20
85.460089
11
47.045700
21
85.303100
0
LINE
8
Layer 1
10
47.045700
20
85.303100
11
47.045760
21
85.303060
0
LINE
8
Layer 1
10
57.265600
20
105.009000
11
57.270866
21
104.999213
0
LINE
8
Layer 1
10
57.270866
20
104.999213
11
57.259642
21
105.006341
0
LINE
8
Layer 1
10
57.259642
20
105.006341
11
57.264440
21
105.010278
0
LINE
8
Layer 1
10
57.264440
20
105.010278
11
57.265600
21
105.009000
0
LINE
8
Layer 1
10
37.172000
20
132.290000
11
40.300210
21
127.789120
0
LINE
8
Layer 1
10
40.300210
20
127.789120
11
43.775180
21
122.568990
0
LINE
8
Layer 1
10
43.775180
20
122.568990
11
46.157000
21
118.997700
0
LINE
8
Layer 1
10
46.157000
20
118.997700
11
47.636210
21
116.810450
0
LINE
8
Layer 1
10
47.636210
20
116.810450
11
49.642920
21
113.924170
0
LINE
8
Layer 1
10
49.642920
20
113.924170
11
51.355690
21
111.644480
0
LINE
8
Layer 1
10
51.355690
20
111.644480
11
53.005590
21
109.458190
0
LINE
8
Layer 1
10
53.005590
20
109.458190
11
54.768050
21
107.368070
0
LINE
8
Layer 1
10
54.768050
20
107.368070
11
56.556940
21
105.301780
0
LINE
8
Layer 1
10
56.556940
20
105.301780
11
56.941408
21
104.867311
0
LINE
8
Layer 1
10
56.941408
20
104.867311
11
55.036188
21
102.483251
0
LINE
8
Layer 1
10
55.036188
20
102.483251
11
53.576658
21
100.714731
0
LINE
8
Layer 1
10
53.576658
20
100.714731
11
52.928301
21
99.834835
0
LINE
8
Layer 1
10
52.928301
20
99.834835
11
52.223888
21
99.001531
0
LINE
8
Layer 1
10
52.223888
20
99.001531
11
52.059635
21
98.717700
0
LINE
8
Layer 1
10
52.059635
20
98.717700
11
51.774570
21
98.182338
0
LINE
8
Layer 1
10
51.774570
20
98.182338
11
51.419208
21
97.699400
0
LINE
8
Layer 1
10
51.419208
20
97.699400
11
51.030396
21
97.177929
0
LINE
8
Layer 1
10
51.030396
20
97.177929
11
50.707769
21
96.599500
0
LINE
8
Layer 1
10
50.707769
20
96.599500
11
50.222815
21
95.691511
0
LINE
8
Layer 1
10
50.222815
20
95.691511
11
49.422279
21
95.044390
0
LINE
8
Layer 1
10
49.422279
20
95.044390
11
49.129990
21
94.741848
0
LINE
8
Layer 1
10
49.129990
20
94.741848
11
48.623924
21
94.025247
0
LINE
8
Layer 1
10
48.623924
20
94.025247
11
46.310724
21
90.695977
0
LINE
8
Layer 1
10
46.310724
20
90.695977
11
45.649125
21
89.686507
0
LINE
8
Layer 1
10
45.649125
20
89.686507
11
45.012418
21
88.665757
0
LINE
8
Layer 1
10
45.012418
20
88.665757
11
44.672164
21
88.164014
0
LINE
8
Layer 1
10
44.672164
20
88.164014
11
44.275023
21
87.752986
0
LINE
8
Layer 1
10
44.275023
20
87.752986
11
44.054009
21
87.373412
0
LINE
8
Layer 1
10
44.054009
20
87.373412
11
43.097355
21
85.782442
0
LINE
8
Layer 1
10
43.097355
20
85.782442
11
41.604475
21
83.616372
0
LINE
8
Layer 1
10
41.604475
20
83.616372
11
41.004632
21
82.699879
0
LINE
8
Layer 1
10
41.004632
20
82.699879
11
40.207341
21
81.419129
0
LINE
8
Layer 1
10
40.207341
20
81.419129
11
40.034838
21
81.139554
0
LINE
8
Layer 1
10
40.034838
20
81.139554
11
39.375313
21
79.997954
0
LINE
8
Layer 1
10
39.375313
20
79.997954
11
38.716480
21
78.867204
0
LINE
8
Layer 1
10
38.716480
20
78.867204
11
37.977967
21
77.791454
0
LINE
8
Layer 1
10
37.977967
20
77.791454
11
37.696795
21
77.324537
0
LINE
8
Layer 1
10
37.696795
20
77.324537
11
36.674505
21
75.656127
0
LINE
8
Layer 1
10
36.674505
20
75.656127
11
36.018545
21
74.648147
0
LINE
8
Layer 1
10
36.018545
20
74.648147
11
35.301997
21
73.558037
0
LINE
8
Layer 1
10
35.301997
20
73.558037
11
34.818006
21
72.847501
0
LINE
8
Layer 1
10
34.818006
20
72.847501
11
35.207317
21
80.945201
0
LINE
8
Layer 1
10
35.207317
20
80.945201
11
35.644499
21
90.627061
0
LINE
8
Layer 1
10
35.644499
20
90.627061
11
35.745619
21
93.049411
0
LINE
8
Layer 1
10
35.745619
20
93.049411
11
36.265887
21
104.718411
0
LINE
8
Layer 1
10
36.265887
20
104.718411
11
36.807432
21
124.106311
0
LINE
8
Layer 1
10
36.807432
20
124.106311
11
36.864240
21
132.725091
0
LINE
8
Layer 1
10
36.864240
20
132.725091
11
37.172000
21
132.290000
0
LINE
8
Layer 1
10
37.172000
20
132.290000
11
37.172000
21
132.290000
0
LINE
8
Layer 1
10
32.911000
20
13.759100
11
32.903448
21
13.921443
0
LINE
8
Layer 1
10
32.903448
20
13.921443
11
32.899779
21
14.731553
0
LINE
8
Layer 1
10
32.899779
20
14.731553
11
32.919088
21
14.012401
0
LINE
8
Layer 1
10
32.919088
20
14.012401
11
32.911000
21
13.759100
0
LINE
8
Layer 1
10
32.911000
20
13.759100
11
32.911000
21
13.759100
0
LINE
8
Layer 1
10
33.098607
20
27.045100
11
33.083553
21
27.079994
0
LINE
8
Layer 1
10
33.083553
20
27.079994
11
33.086799
21
27.502974
0
LINE
8
Layer 1
10
33.086799
20
27.502974
11
33.100470
21
27.462229
0
LINE
8
Layer 1
10
33.100470
20
27.462229
11
33.098607
21
27.045100
0
LINE
8
Layer 1
10
33.241586
20
33.605240
11
33.134085
21
32.083960
0
LINE
8
Layer 1
10
33.134085
20
32.083960
11
33.109777
21
32.025238
0
LINE
8
Layer 1
10
33.109777
20
32.025238
11
33.077223
21
32.312153
0
LINE
8
Layer 1
10
33.077223
20
32.312153
11
33.076478
21
32.552155
0
LINE
8
Layer 1
10
33.076478
20
32.552155
11
33.094351
21
34.011525
0
LINE
8
Layer 1
10
33.094351
20
34.011525
11
33.139831
21
34.699187
0
LINE
8
Layer 1
10
33.139831
20
34.699187
11
33.192276
21
34.535888
0
LINE
8
Layer 1
10
33.192276
20
34.535888
11
33.241600
21
33.605300
0
LINE
8
Layer 1
10
33.241600
20
33.605300
11
33.241586
21
33.605240
0
LINE
8
Layer 1
10
33.440578
20
39.839520
11
33.393729
21
38.639940
0
LINE
8
Layer 1
10
33.393729
20
38.639940
11
33.337824
21
38.520046
0
LINE
8
Layer 1
10
33.337824
20
38.520046
11
33.318410
21
38.679089
0
LINE
8
Layer 1
10
33.318410
20
38.679089
11
33.347027
21
40.644199
0
LINE
8
Layer 1
10
33.347027
20
40.644199
11
33.440750
21
40.758987
0
LINE
8
Layer 1
10
33.440750
20
40.758987
11
33.440600
21
39.839600
0
LINE
8
Layer 1
10
33.440600
20
39.839600
11
33.440578
21
39.839520
0
LINE
8
Layer 1
10
57.189900
20
72.380500
11
56.264734
21
71.367300
0
LINE
8
Layer 1
10
56.264734
20
71.367300
11
56.208086
21
71.333470
0
LINE
8
Layer 1
10
56.208086
20
71.333470
11
56.231864
21
71.428472
0
LINE
8
Layer 1
10
56.231864
20
71.428472
11
56.706759
21
71.976240
0
LINE
8
Layer 1
10
56.706759
20
71.976240
11
57.158357
21
72.436030
0
LINE
8
Layer 1
10
57.158357
20
72.436030
11
57.234367
21
72.454967
0
LINE
8
Layer 1
10
57.234367
20
72.454967
11
57.189900
21
72.380500
0
LINE
8
Layer 1
10
57.189900
20
72.380500
11
57.189900
21
72.380500
0
LINE
8
Layer 1
10
59.582470
20
74.824770
11
59.498213
21
74.727429
0
LINE
8
Layer 1
10
59.498213
20
74.727429
11
58.972306
21
74.147533
0
LINE
8
Layer 1
10
58.972306
20
74.147533
11
58.702253
21
73.893815
0
LINE
8
Layer 1
10
58.702253
20
73.893815
11
58.728262
21
73.987326
0
LINE
8
Layer 1
10
58.728262
20
73.987326
11
59.027039
21
74.389137
0
LINE
8
Layer 1
10
59.027039
20
74.389137
11
59.628736
21
74.946906
0
LINE
8
Layer 1
10
59.628736
20
74.946906
11
59.664110
21
74.957755
0
LINE
8
Layer 1
10
59.664110
20
74.957755
11
59.582500
21
74.824700
0
LINE
8
Layer 1
10
59.582500
20
74.824700
11
59.582470
21
74.824770
0
LINE
8
Layer 1
10
61.425410
20
76.941060
11
61.274184
21
76.771910
0
LINE
8
Layer 1
10
61.274184
20
76.771910
11
61.280303
21
76.795526
0
LINE
8
Layer 1
10
61.280303
20
76.795526
11
61.428707
21
76.963081
0
LINE
8
Layer 1
10
61.428707
20
76.963081
11
61.425400
21
76.941000
0
LINE
8
Layer 1
10
61.425400
20
76.941000
11
61.425410
21
76.941060
0
LINE
8
Layer 1
10
66.178460
20
82.160130
11
65.894683
21
81.830977
0
LINE
8
Layer 1
10
65.894683
20
81.830977
11
66.136920
21
82.131617
0
LINE
8
Layer 1
10
66.136920
20
82.131617
11
66.231227
21
82.229703
0
LINE
8
Layer 1
10
66.231227
20
82.229703
11
66.178500
21
82.160100
0
LINE
8
Layer 1
10
66.178500
20
82.160100
11
66.178460
21
82.160130
0
LINE
8
Layer 1
10
70.644200
20
87.474600
11
70.658136
21
87.490557
0
LINE
8
Layer 1
10
70.658136
20
87.490557
11
70.684947
21
87.521621
0
LINE
8
Layer 1
10
70.684947
20
87.521621
11
70.644361
21
87.474812
0
LINE
8
Layer 1
10
70.644361
20
87.474812
11
70.644200
21
87.474600
0
LINE
8
Layer 1
10
65.505500
20
81.757100
11
65.230074
21
81.354651
0
LINE
8
Layer 1
10
65.230074
20
81.354651
11
66.153643
21
82.422851
0
LINE
8
Layer 1
10
66.153643
20
82.422851
11
66.539390
21
82.860727
0
LINE
8
Layer 1
10
66.539390
20
82.860727
11
66.620932
21
82.967429
0
LINE
8
Layer 1
10
66.620932
20
82.967429
11
66.522953
21
82.876683
0
LINE
8
Layer 1
10
66.522953
20
82.876683
11
65.505500
21
81.757100
0
LINE
8
Layer 1
10
65.505500
20
81.757100
11
65.505500
21
81.757100
0
LINE
8
Layer 1
10
70.973900
20
87.855900
11
70.860387
21
87.725051
0
LINE
8
Layer 1
10
70.860387
20
87.725051
11
70.684910
21
87.521645
0
LINE
8
Layer 1
10
70.684910
20
87.521645
11
70.844165
21
87.705372
0
LINE
8
Layer 1
10
70.844165
20
87.705372
11
70.973900
21
87.855900
0
LINE
8
Layer 1
10
70.973900
20
87.855900
11
70.973900
21
87.855900
0
LINE
8
Layer 1
10
62.599500
20
78.534100
11
62.637479
21
78.587079
0
LINE
8
Layer 1
10
62.637479
20
78.587079
11
62.571789
21
78.521321
0
LINE
8
Layer 1
10
62.571789
20
78.521321
11
62.510617
21
78.448341
0
LINE
8
Layer 1
10
62.510617
20
78.448341
11
62.599500
21
78.534100
0
LINE
8
Layer 1
10
62.599500
20
78.534100
11
62.599500
21
78.534100
0
LINE
8
Layer 1
10
37.267800
20
74.932800
11
37.217694
21
74.812692
0
LINE
8
Layer 1
10
37.217694
20
74.812692
11
37.343757
21
74.866735
0
LINE
8
Layer 1
10
37.343757
20
74.866735
11
38.337859
21
75.857591
0
LINE
8
Layer 1
10
38.337859
20
75.857591
11
38.497586
21
76.081794
0
LINE
8
Layer 1
10
38.497586
20
76.081794
11
38.440252
21
76.358659
0
LINE
8
Layer 1
10
38.440252
20
76.358659
11
37.623067
21
75.339189
0
LINE
8
Layer 1
10
37.623067
20
75.339189
11
37.267800
21
74.932800
0
LINE
8
Layer 1
10
37.267800
20
74.932800
11
37.267800
21
74.932800
0
LINE
8
Layer 1
10
41.091200
20
78.705100
11
41.164126
21
78.755739
0
LINE
8
Layer 1
10
41.164126
20
78.755739
11
41.214393
21
78.828612
0
LINE
8
Layer 1
10
41.214393
20
78.828612
11
41.110818
21
78.767228
0
LINE
8
Layer 1
10
41.110818
20
78.767228
11
41.091200
21
78.705100
0
LINE
8
Layer 1
10
41.091200
20
78.705100
11
41.091200
21
78.705100
0
LINE
8
Layer 1
10
33.143000
20
13.583000
11
33.140178
21
12.494910
0
LINE
8
Layer 1
10
33.140178
20
12.494910
11
33.151184
21
12.245121
0
LINE
8
Layer 1
10
33.151184
20
12.245121
11
33.168682
21
12.492782
0
LINE
8
Layer 1
10
33.168682
20
12.492782
11
33.205332
21
15.312902
0
LINE
8
Layer 1
10
33.205332
20
15.312902
11
33.133523
21
16.215778
0
LINE
8
Layer 1
10
33.133523
20
16.215778
11
33.143000
21
13.583000
0
LINE
8
Layer 1
10
33.143000
20
13.583000
11
33.143000
21
13.583000
0
LINE
8
Layer 1
10
33.072700
20
0.841382
11
33.072330
21
0.980958
0
LINE
8
Layer 1
10
33.072330
20
0.980958
11
33.072277
21
0.984573
0
LINE
8
Layer 1
10
33.072277
20
0.984573
11
33.072300
21
0.942022
0
LINE
8
Layer 1
10
33.072300
20
0.942022
11
33.072700
21
0.841382
0
LINE
8
Layer 1
10
33.072700
20
0.841382
11
33.072700
21
0.841382
0
LINE
8
Layer 1
10
33.075600
20
0.041697
11
33.074753
21
0.364678
0
LINE
8
Layer 1
10
33.074753
20
0.364678
11
33.072676
21
0.841382
0
LINE
8
Layer 1
10
33.072676
20
0.841382
11
33.073847
21
0.412232
0
LINE
8
Layer 1
10
33.073847
20
0.412232
11
33.075418
21
0.074170
0
LINE
8
Layer 1
10
33.075418
20
0.074170
11
33.075600
21
0.041697
0
LINE
8
Layer 1
10
33.075600
20
0.041697
11
33.075600
21
0.041697
0
LINE
8
Layer 1
10
33.289100
20
23.402900
11
33.296918
21
23.281942
0
LINE
8
Layer 1
10
33.296918
20
23.281942
11
33.304631
21
23.454922
0
LINE
8
Layer 1
10
33.304631
20
23.454922
11
33.302184
21
23.632476
0
LINE
8
Layer 1
10
33.302184
20
23.632476
11
33.289100
21
23.402900
0
LINE
8
Layer 1
10
33.289100
20
23.402900
11
33.289100
21
23.402900
0
LINE
8
Layer 1
10
6.079200
20
147.428000
11
5.147021
21
146.219160
0
LINE
8
Layer 1
10
5.147021
20
146.219160
11
4.743935
21
145.734051
0
LINE
8
Layer 1
10
4.743935
20
145.734051
11
4.683401
21
145.596609
0
LINE
8
Layer 1
10
4.683401
20
145.596609
11
4.821221
21
145.669704
0
LINE
8
Layer 1
10
4.821221
20
145.669704
11
5.940851
21
146.866095
0
LINE
8
Layer 1
10
5.940851
20
146.866095
11
6.124479
21
147.129762
0
LINE
8
Layer 1
10
6.124479
20
147.129762
11
6.079200
21
147.428000
0
LINE
8
Layer 1
10
6.079200
20
147.428000
11
6.079200
21
147.428000
0
LINE
8
Layer 1
10
0.298591
20
140.645000
11
0.347156
21
140.707128
0
LINE
8
Layer 1
10
0.347156
20
140.707128
11
0.347847
21
140.708192
0
LINE
8
Layer 1
10
0.347847
20
140.708192
11
0.332740
21
140.689786
0
LINE
8
Layer 1
10
0.332740
20
140.689786
11
0.298591
21
140.645000
0
LINE
8
Layer 1
10
0.014704
20
140.276000
11
0.129757
21
140.423766
0
LINE
8
Layer 1
10
0.129757
20
140.423766
11
0.298588
21
140.645257
0
LINE
8
Layer 1
10
0.298588
20
140.645257
11
0.144119
21
140.447594
0
LINE
8
Layer 1
10
0.144119
20
140.447594
11
0.014704
21
140.276000
0
LINE
8
Layer 1
10
0.014704
20
140.276000
11
0.014704
21
140.276000
0
LINE
8
Layer 1
10
9.072310
20
150.364000
11
9.047788
21
150.293574
0
LINE
8
Layer 1
10
9.047788
20
150.293574
11
9.128642
21
150.357074
0
LINE
8
Layer 1
10
9.128642
20
150.357074
11
9.186514
21
150.442607
0
LINE
8
Layer 1
10
9.186514
20
150.442607
11
9.072310
21
150.364000
0
LINE
8
Layer 1
10
9.072310
20
150.364000
11
9.072310
21
150.364000
 0 
ENDSEC
 0 
EOF