999
"DXF R12 Output" (www.mydxf.blogspot.com)
 0 
SECTION
 2 
HEADER
 9 
$ACADVER
 1 
AC1009
 9 
$EXTMIN
 10 
 0 
 20 
 0 
 9 
$EXTMAX
 10 
 8.5 
 20 
 11 
 0 
ENDSEC
 0 
SECTION
 2 
ENTITIES
0
LINE
8
Layer 1
10
41.751900
20
8.853200
11
41.749007
21
8.144027
0
LINE
8
Layer 1
10
41.749007
20
8.144027
11
41.760296
21
7.981205
0
LINE
8
Layer 1
10
41.760296
20
7.981205
11
41.778175
21
8.142656
0
LINE
8
Layer 1
10
41.778175
20
8.142656
11
41.815615
21
9.980636
0
LINE
8
Layer 1
10
41.815615
20
9.980636
11
41.742237
21
10.569069
0
LINE
8
Layer 1
10
41.742237
20
10.569069
11
41.751900
21
8.853200
0
LINE
8
Layer 1
10
41.751900
20
8.853200
11
41.751900
21
8.853200
0
LINE
8
Layer 1
10
41.680000
20
0.546630
11
41.679613
21
0.639743
0
LINE
8
Layer 1
10
41.679613
20
0.639743
11
41.680000
21
0.546630
0
LINE
8
Layer 1
10
41.680000
20
0.546630
11
41.680000
21
0.546630
0
LINE
8
Layer 1
10
41.683000
20
0.027553
11
41.682083
21
0.238175
0
LINE
8
Layer 1
10
41.682083
20
0.238175
11
41.679997
21
0.546644
0
LINE
8
Layer 1
10
41.679997
20
0.546644
11
41.681180
21
0.269175
0
LINE
8
Layer 1
10
41.681180
20
0.269175
11
41.683000
21
0.027553
0
LINE
8
Layer 1
10
41.683000
20
0.027553
11
41.683000
21
0.027553
0
LINE
8
Layer 1
10
41.901200
20
15.253300
11
41.909198
21
15.174504
0
LINE
8
Layer 1
10
41.909198
20
15.174504
11
41.917072
21
15.287283
0
LINE
8
Layer 1
10
41.917072
20
15.287283
11
41.914583
21
15.402929
0
LINE
8
Layer 1
10
41.914583
20
15.402929
11
41.901200
21
15.253300
0
LINE
8
Layer 1
10
41.901200
20
15.253300
11
41.901200
21
15.253300
0
LINE
8
Layer 1
10
80.924100
20
103.595000
11
79.828210
21
102.409060
0
LINE
8
Layer 1
10
79.828210
20
102.409060
11
78.944107
21
101.455404
0
LINE
8
Layer 1
10
78.944107
20
101.455404
11
77.229327
21
99.542364
0
LINE
8
Layer 1
10
77.229327
20
99.542364
11
76.747700
21
99.106700
0
LINE
8
Layer 1
10
76.747700
20
99.106700
11
76.364778
21
98.777942
0
LINE
8
Layer 1
10
76.364778
20
98.777942
11
75.793016
21
98.148062
0
LINE
8
Layer 1
10
75.793016
20
98.148062
11
74.771626
21
97.114242
0
LINE
8
Layer 1
10
74.771626
20
97.114242
11
74.461992
21
96.828557
0
LINE
8
Layer 1
10
74.461992
20
96.828557
11
74.529841
21
97.218060
0
LINE
8
Layer 1
10
74.529841
20
97.218060
11
74.631551
21
97.612417
0
LINE
8
Layer 1
10
74.631551
20
97.612417
11
73.915173
21
96.988018
0
LINE
8
Layer 1
10
73.915173
20
96.988018
11
73.093001
21
96.249590
0
LINE
8
Layer 1
10
73.093001
20
96.249590
11
73.277267
21
96.108056
0
LINE
8
Layer 1
10
73.277267
20
96.108056
11
73.056809
21
95.793489
0
LINE
8
Layer 1
10
73.056809
20
95.793489
11
72.304123
21
95.114813
0
LINE
8
Layer 1
10
72.304123
20
95.114813
11
71.020603
21
93.950163
0
LINE
8
Layer 1
10
71.020603
20
93.950163
11
70.655374
21
93.509496
0
LINE
8
Layer 1
10
70.655374
20
93.509496
11
69.726983
21
92.621092
0
LINE
8
Layer 1
10
69.726983
20
92.621092
11
68.676344
21
91.881276
0
LINE
8
Layer 1
10
68.676344
20
91.881276
11
68.010378
21
91.480960
0
LINE
8
Layer 1
10
68.010378
20
91.480960
11
67.486114
21
90.907452
0
LINE
8
Layer 1
10
67.486114
20
90.907452
11
66.746128
21
90.234378
0
LINE
8
Layer 1
10
66.746128
20
90.234378
11
66.358206
21
89.918830
0
LINE
8
Layer 1
10
66.358206
20
89.918830
11
66.083400
21
89.501055
0
LINE
8
Layer 1
10
66.083400
20
89.501055
11
65.686816
21
88.826240
0
LINE
8
Layer 1
10
65.686816
20
88.826240
11
65.185886
21
88.547405
0
LINE
8
Layer 1
10
65.185886
20
88.547405
11
64.600992
21
88.158650
0
LINE
8
Layer 1
10
64.600992
20
88.158650
11
63.897917
21
87.530994
0
LINE
8
Layer 1
10
63.897917
20
87.530994
11
63.082732
21
87.057980
0
LINE
8
Layer 1
10
63.082732
20
87.057980
11
62.426001
21
86.507272
0
LINE
8
Layer 1
10
62.426001
20
86.507272
11
61.941098
21
85.969759
0
LINE
8
Layer 1
10
61.941098
20
85.969759
11
61.444058
21
85.439342
0
LINE
8
Layer 1
10
61.444058
20
85.439342
11
60.913448
21
84.950642
0
LINE
8
Layer 1
10
60.913448
20
84.950642
11
60.289398
21
84.583405
0
LINE
8
Layer 1
10
60.289398
20
84.583405
11
59.946995
21
84.306184
0
LINE
8
Layer 1
10
59.946995
20
84.306184
11
58.788775
21
83.181269
0
LINE
8
Layer 1
10
58.788775
20
83.181269
11
57.575555
21
82.117794
0
LINE
8
Layer 1
10
57.575555
20
82.117794
11
56.358467
21
81.043843
0
LINE
8
Layer 1
10
56.358467
20
81.043843
11
55.235235
21
79.872154
0
LINE
8
Layer 1
10
55.235235
20
79.872154
11
54.878789
21
79.621197
0
LINE
8
Layer 1
10
54.878789
20
79.621197
11
52.770549
21
77.767277
0
LINE
8
Layer 1
10
52.770549
20
77.767277
11
52.358654
21
77.343913
0
LINE
8
Layer 1
10
52.358654
20
77.343913
11
47.879524
21
73.482353
0
LINE
8
Layer 1
10
47.879524
20
73.482353
11
45.079114
21
70.978403
0
LINE
8
Layer 1
10
45.079114
20
70.978403
11
45.497841
21
80.886793
0
LINE
8
Layer 1
10
45.497841
20
80.886793
11
45.545641
21
88.487033
0
LINE
8
Layer 1
10
45.545641
20
88.487033
11
45.434993
21
95.794743
0
LINE
8
Layer 1
10
45.434993
20
95.794743
11
45.383911
21
103.110303
0
LINE
8
Layer 1
10
45.383911
20
103.110303
11
45.534800
21
107.702000
0
LINE
8
Layer 1
10
45.534800
20
107.702000
11
45.689554
21
110.994219
0
LINE
8
Layer 1
10
45.689554
20
110.994219
11
45.517915
21
114.285600
0
LINE
8
Layer 1
10
45.517915
20
114.285600
11
45.365609
21
115.112789
0
LINE
8
Layer 1
10
45.365609
20
115.112789
11
45.068784
21
115.892519
0
LINE
8
Layer 1
10
45.068784
20
115.892519
11
44.636546
21
116.606140
0
LINE
8
Layer 1
10
44.636546
20
116.606140
11
44.078000
21
117.235000
0
LINE
8
Layer 1
10
44.078000
20
117.235000
11
43.292015
21
117.754210
0
LINE
8
Layer 1
10
43.292015
20
117.754210
11
42.381884
21
117.937575
0
LINE
8
Layer 1
10
42.381884
20
117.937575
11
41.456347
21
117.706136
0
LINE
8
Layer 1
10
41.456347
20
117.706136
11
40.624140
21
116.980932
0
LINE
8
Layer 1
10
40.624140
20
116.980932
11
40.016526
21
115.911383
0
LINE
8
Layer 1
10
40.016526
20
115.911383
11
39.726937
21
114.715862
0
LINE
8
Layer 1
10
39.726937
20
114.715862
11
39.169817
21
108.864712
0
LINE
8
Layer 1
10
39.169817
20
108.864712
11
38.762342
21
101.719942
0
LINE
8
Layer 1
10
38.762342
20
101.719942
11
38.339912
21
93.567992
0
LINE
8
Layer 1
10
38.339912
20
93.567992
11
38.161700
21
87.987212
0
LINE
8
Layer 1
10
38.161700
20
87.987212
11
38.095584
21
84.551132
0
LINE
8
Layer 1
10
38.095584
20
84.551132
11
38.064370
21
79.968692
0
LINE
8
Layer 1
10
38.064370
20
79.968692
11
38.139159
21
76.237092
0
LINE
8
Layer 1
10
38.139159
20
76.237092
11
38.206427
21
72.651892
0
LINE
8
Layer 1
10
38.206427
20
72.651892
11
38.233921
21
72.095582
0
LINE
8
Layer 1
10
38.233921
20
72.095582
11
29.048771
21
81.135212
0
LINE
8
Layer 1
10
29.048771
20
81.135212
11
23.166471
21
86.351252
0
LINE
8
Layer 1
10
23.166471
20
86.351252
11
17.415531
21
91.276872
0
LINE
8
Layer 1
10
17.415531
20
91.276872
11
11.691400
21
96.239300
0
LINE
8
Layer 1
10
11.691400
20
96.239300
11
8.133920
21
99.387200
0
LINE
8
Layer 1
10
8.133920
20
99.387200
11
2.924570
21
103.798220
0
LINE
8
Layer 1
10
2.924570
20
103.798220
11
0.540145
21
105.726000
0
LINE
8
Layer 1
10
0.540145
20
105.726000
11
0.000090
21
106.211713
0
LINE
8
Layer 1
10
0.000090
20
106.211713
11
0.649159
21
105.469068
0
LINE
8
Layer 1
10
0.649159
20
105.469068
11
2.121349
21
103.649638
0
LINE
8
Layer 1
10
2.121349
20
103.649638
11
5.887709
21
98.915218
0
LINE
8
Layer 1
10
5.887709
20
98.915218
11
10.427129
21
93.077888
0
LINE
8
Layer 1
10
10.427129
20
93.077888
11
15.512100
21
86.329100
0
LINE
8
Layer 1
10
15.512100
20
86.329100
11
18.996220
21
81.711320
0
LINE
8
Layer 1
10
18.996220
20
81.711320
11
21.154090
21
78.880230
0
LINE
8
Layer 1
10
21.154090
20
78.880230
11
24.065940
21
75.136810
0
LINE
8
Layer 1
10
24.065940
20
75.136810
11
26.515840
21
72.162560
0
LINE
8
Layer 1
10
26.515840
20
72.162560
11
28.873970
21
69.309060
0
LINE
8
Layer 1
10
28.873970
20
69.309060
11
31.228510
21
66.685100
0
LINE
8
Layer 1
10
31.228510
20
66.685100
11
33.606390
21
64.083180
0
LINE
8
Layer 1
10
33.606390
20
64.083180
11
34.805620
21
62.791930
0
LINE
8
Layer 1
10
34.805620
20
62.791930
11
36.679430
21
60.791630
0
LINE
8
Layer 1
10
36.679430
20
60.791630
11
37.928860
21
59.462780
0
LINE
8
Layer 1
10
37.928860
20
59.462780
11
38.241060
21
59.130661
0
LINE
8
Layer 1
10
38.241060
20
59.130661
11
38.397160
21
58.964729
0
LINE
8
Layer 1
10
38.397160
20
58.964729
11
38.553711
21
58.774271
0
LINE
8
Layer 1
10
38.553711
20
58.774271
11
38.914108
21
58.330618
0
LINE
8
Layer 1
10
38.914108
20
58.330618
11
38.916055
21
58.291406
0
LINE
8
Layer 1
10
38.916055
20
58.291406
11
38.994990
21
57.288336
0
LINE
8
Layer 1
10
38.994990
20
57.288336
11
39.165080
21
54.994386
0
LINE
8
Layer 1
10
39.165080
20
54.994386
11
39.383314
21
50.837556
0
LINE
8
Layer 1
10
39.383314
20
50.837556
11
39.508962
21
47.825216
0
LINE
8
Layer 1
10
39.508962
20
47.825216
11
39.644711
21
44.959146
0
LINE
8
Layer 1
10
39.644711
20
44.959146
11
39.687301
21
44.535285
0
LINE
8
Layer 1
10
39.687301
20
44.535285
11
39.819641
21
42.971175
0
LINE
8
Layer 1
10
39.819641
20
42.971175
11
39.949661
21
41.265025
0
LINE
8
Layer 1
10
39.949661
20
41.265025
11
40.087729
21
39.942653
0
LINE
8
Layer 1
10
40.087729
20
39.942653
11
40.030964
21
38.614305
0
LINE
8
Layer 1
10
40.030964
20
38.614305
11
40.031977
21
38.062725
0
LINE
8
Layer 1
10
40.031977
20
38.062725
11
40.095942
21
36.914875
0
LINE
8
Layer 1
10
40.095942
20
36.914875
11
40.381164
21
31.614185
0
LINE
8
Layer 1
10
40.381164
20
31.614185
11
40.472548
21
30.040855
0
LINE
8
Layer 1
10
40.472548
20
30.040855
11
40.571091
21
28.477355
0
LINE
8
Layer 1
10
40.571091
20
28.477355
11
40.607394
21
26.936275
0
LINE
8
Layer 1
10
40.607394
20
26.936275
11
40.646699
21
26.368264
0
LINE
8
Layer 1
10
40.646699
20
26.368264
11
40.796311
21
23.962044
0
LINE
8
Layer 1
10
40.796311
20
23.962044
11
40.935932
21
20.523604
0
LINE
8
Layer 1
10
40.935932
20
20.523604
11
41.000103
21
19.095924
0
LINE
8
Layer 1
10
41.000103
20
19.095924
11
41.095751
21
17.135704
0
LINE
8
Layer 1
10
41.095751
20
17.135704
11
41.116322
21
16.709106
0
LINE
8
Layer 1
10
41.116322
20
16.709106
11
41.209202
21
15.005446
0
LINE
8
Layer 1
10
41.209202
20
15.005446
11
41.295562
21
13.313116
0
LINE
8
Layer 1
10
41.295562
20
13.313116
11
41.348202
21
11.607966
0
LINE
8
Layer 1
10
41.348202
20
11.607966
11
41.379057
21
10.901406
0
LINE
8
Layer 1
10
41.379057
20
10.901406
11
41.481165
21
8.361726
0
LINE
8
Layer 1
10
41.481165
20
8.361726
11
41.530709
21
6.794746
0
LINE
8
Layer 1
10
41.530709
20
6.794746
11
41.580081
21
5.093826
0
LINE
8
Layer 1
10
41.580081
20
5.093826
11
41.636830
21
2.680246
0
LINE
8
Layer 1
10
41.636830
20
2.680246
11
41.644001
21
2.448824
0
LINE
8
Layer 1
10
41.644001
20
2.448824
11
41.661321
21
2.107618
0
LINE
8
Layer 1
10
41.661321
20
2.107618
11
41.673801
21
0.987028
0
LINE
8
Layer 1
10
41.673801
20
0.987028
11
41.679480
21
0.642587
0
LINE
8
Layer 1
10
41.679480
20
0.642587
11
41.679821
21
1.222920
0
LINE
8
Layer 1
10
41.679821
20
1.222920
11
41.678438
21
3.474670
0
LINE
8
Layer 1
10
41.678438
20
3.474670
11
41.673923
21
5.041900
0
LINE
8
Layer 1
10
41.673923
20
5.041900
11
41.670623
21
6.304020
0
LINE
8
Layer 1
10
41.670623
20
6.304020
11
41.651362
21
8.796770
0
LINE
8
Layer 1
10
41.651362
20
8.796770
11
41.665955
21
9.425030
0
LINE
8
Layer 1
10
41.665955
20
9.425030
11
41.681331
21
9.912128
0
LINE
8
Layer 1
10
41.681331
20
9.912128
11
41.676474
21
10.737692
0
LINE
8
Layer 1
10
41.676474
20
10.737692
11
41.686606
21
12.147822
0
LINE
8
Layer 1
10
41.686606
20
12.147822
11
41.695637
21
12.555751
0
LINE
8
Layer 1
10
41.695637
20
12.555751
11
41.821147
21
11.889397
0
LINE
8
Layer 1
10
41.821147
20
11.889397
11
41.851878
21
12.807327
0
LINE
8
Layer 1
10
41.851878
20
12.807327
11
41.883574
21
13.876257
0
LINE
8
Layer 1
10
41.883574
20
13.876257
11
41.811063
21
13.853479
0
LINE
8
Layer 1
10
41.811063
20
13.853479
11
41.794367
21
14.222442
0
LINE
8
Layer 1
10
41.794367
20
14.222442
11
41.822307
21
15.202861
0
LINE
8
Layer 1
10
41.822307
20
15.202861
11
41.870310
21
16.879881
0
LINE
8
Layer 1
10
41.870310
20
16.879881
11
41.859837
21
17.434323
0
LINE
8
Layer 1
10
41.859837
20
17.434323
11
41.977806
21
19.901933
0
LINE
8
Layer 1
10
41.977806
20
19.901933
11
42.053975
21
21.382143
0
LINE
8
Layer 1
10
42.053975
20
21.382143
11
42.086868
21
22.350241
0
LINE
8
Layer 1
10
42.086868
20
22.350241
11
42.084830
21
23.309372
0
LINE
8
Layer 1
10
42.084830
20
23.309372
11
42.025529
21
24.049923
0
LINE
8
Layer 1
10
42.025529
20
24.049923
11
42.092204
21
24.580464
0
LINE
8
Layer 1
10
42.092204
20
24.580464
11
42.155349
21
25.244451
0
LINE
8
Layer 1
10
42.155349
20
25.244451
11
42.301822
21
27.032631
0
LINE
8
Layer 1
10
42.301822
20
27.032631
11
42.347863
21
27.858819
0
LINE
8
Layer 1
10
42.347863
20
27.858819
11
42.354696
21
29.266829
0
LINE
8
Layer 1
10
42.354696
20
29.266829
11
42.469950
21
30.640119
0
LINE
8
Layer 1
10
42.469950
20
30.640119
11
42.498847
21
31.063856
0
LINE
8
Layer 1
10
42.498847
20
31.063856
11
42.632414
21
34.188356
0
LINE
8
Layer 1
10
42.632414
20
34.188356
11
42.749598
21
37.332516
0
LINE
8
Layer 1
10
42.749598
20
37.332516
11
42.795222
21
37.747041
0
LINE
8
Layer 1
10
42.795222
20
37.747041
11
42.963144
21
40.460001
0
LINE
8
Layer 1
10
42.963144
20
40.460001
11
42.978457
21
41.033363
0
LINE
8
Layer 1
10
42.978457
20
41.033363
11
43.408651
21
46.742733
0
LINE
8
Layer 1
10
43.408651
20
46.742733
11
43.862091
21
52.756453
0
LINE
8
Layer 1
10
43.862091
20
52.756453
11
44.245775
21
58.174153
0
LINE
8
Layer 1
10
44.245775
20
58.174153
11
44.947684
21
59.075288
0
LINE
8
Layer 1
10
44.947684
20
59.075288
11
45.760924
21
59.987743
0
LINE
8
Layer 1
10
45.760924
20
59.987743
11
47.381274
21
61.781403
0
LINE
8
Layer 1
10
47.381274
20
61.781403
11
50.488924
21
65.222453
0
LINE
8
Layer 1
10
50.488924
20
65.222453
11
52.591800
21
67.505500
0
LINE
8
Layer 1
10
52.591800
20
67.505500
11
53.547094
21
68.633104
0
LINE
8
Layer 1
10
53.547094
20
68.633104
11
54.557390
21
69.710570
0
LINE
8
Layer 1
10
54.557390
20
69.710570
11
54.813123
21
70.069700
0
LINE
8
Layer 1
10
54.813123
20
70.069700
11
55.266495
21
70.744283
0
LINE
8
Layer 1
10
55.266495
20
70.744283
11
55.790260
21
71.363320
0
LINE
8
Layer 1
10
55.790260
20
71.363320
11
56.361758
21
72.032007
0
LINE
8
Layer 1
10
56.361758
20
72.032007
11
56.868720
21
72.762500
0
LINE
8
Layer 1
10
56.868720
20
72.762500
11
57.640601
21
73.908278
0
LINE
8
Layer 1
10
57.640601
20
73.908278
11
58.720220
21
74.770270
0
LINE
8
Layer 1
10
58.720220
20
74.770270
11
59.129690
21
75.165251
0
LINE
8
Layer 1
10
59.129690
20
75.165251
11
59.882057
21
76.081437
0
LINE
8
Layer 1
10
59.882057
20
76.081437
11
63.333067
21
80.333617
0
LINE
8
Layer 1
10
63.333067
20
80.333617
11
64.332954
21
81.618767
0
LINE
8
Layer 1
10
64.332954
20
81.618767
11
65.306324
21
82.915017
0
LINE
8
Layer 1
10
65.306324
20
82.915017
11
65.816635
21
83.554885
0
LINE
8
Layer 1
10
65.816635
20
83.554885
11
66.373044
21
84.091497
0
LINE
8
Layer 1
10
66.373044
20
84.091497
11
66.716584
21
84.571873
0
LINE
8
Layer 1
10
66.716584
20
84.571873
11
68.191914
21
86.588353
0
LINE
8
Layer 1
10
68.191914
20
86.588353
11
70.423004
21
89.353593
0
LINE
8
Layer 1
10
70.423004
20
89.353593
11
71.329854
21
90.520363
0
LINE
8
Layer 1
10
71.329854
20
90.520363
11
72.549294
21
92.146473
0
LINE
8
Layer 1
10
72.549294
20
92.146473
11
72.813663
21
92.501249
0
LINE
8
Layer 1
10
72.813663
20
92.501249
11
73.840843
21
93.945359
0
LINE
8
Layer 1
10
73.840843
20
93.945359
11
74.864743
21
95.376409
0
LINE
8
Layer 1
10
74.864743
20
95.376409
11
75.969393
21
96.749319
0
LINE
8
Layer 1
10
75.969393
20
96.749319
11
76.402886
21
97.341232
0
LINE
8
Layer 1
10
76.402886
20
97.341232
11
77.972276
21
99.457802
0
LINE
8
Layer 1
10
77.972276
20
99.457802
11
78.965268
21
100.740592
0
LINE
8
Layer 1
10
78.965268
20
100.740592
11
80.047468
21
102.128692
0
LINE
8
Layer 1
10
80.047468
20
102.128692
11
81.606058
21
104.077082
0
LINE
8
Layer 1
10
81.606058
20
104.077082
11
81.749836
21
104.269159
0
LINE
8
Layer 1
10
81.749836
20
104.269159
11
81.941465
21
104.571650
0
LINE
8
Layer 1
10
81.941465
20
104.571650
11
82.697972
21
105.445127
0
LINE
8
Layer 1
10
82.697972
20
105.445127
11
82.924878
21
105.720483
0
LINE
8
Layer 1
10
82.924878
20
105.720483
11
82.512552
21
105.285915
0
LINE
8
Layer 1
10
82.512552
20
105.285915
11
80.924100
21
103.595000
0
LINE
8
Layer 1
10
80.924100
20
103.595000
11
80.924100
21
103.595000
0
LINE
8
Layer 1
10
41.514700
20
8.967970
11
41.507015
21
9.073781
0
LINE
8
Layer 1
10
41.507015
20
9.073781
11
41.503247
21
9.601832
0
LINE
8
Layer 1
10
41.503247
20
9.601832
11
41.522963
21
9.133033
0
LINE
8
Layer 1
10
41.522963
20
9.133033
11
41.514700
21
8.967970
0
LINE
8
Layer 1
10
41.514700
20
8.967970
11
41.514700
21
8.967970
0
LINE
8
Layer 1
10
41.706512
20
17.627180
11
41.694422
21
17.925562
0
LINE
8
Layer 1
10
41.694422
20
17.925562
11
41.706500
21
17.627200
0
LINE
8
Layer 1
10
41.706500
20
17.627200
11
41.706512
21
17.627180
0
LINE
8
Layer 1
10
41.852669
20
21.902760
11
41.742797
21
20.911260
0
LINE
8
Layer 1
10
41.742797
20
20.911260
11
41.717933
21
20.873044
0
LINE
8
Layer 1
10
41.717933
20
20.873044
11
41.684665
21
21.060016
0
LINE
8
Layer 1
10
41.684665
20
21.060016
11
41.683917
21
21.216367
0
LINE
8
Layer 1
10
41.683917
20
21.216367
11
41.702171
21
22.167531
0
LINE
8
Layer 1
10
41.702171
20
22.167531
11
41.748664
21
22.615668
0
LINE
8
Layer 1
10
41.748664
20
22.615668
11
41.802287
21
22.509234
0
LINE
8
Layer 1
10
41.802287
20
22.509234
11
41.852700
21
21.902800
0
LINE
8
Layer 1
10
41.852700
20
21.902800
11
41.852669
21
21.902760
0
LINE
8
Layer 1
10
42.056072
20
25.965980
11
42.008210
21
25.184109
0
LINE
8
Layer 1
10
42.008210
20
25.184109
11
41.951040
21
25.105934
0
LINE
8
Layer 1
10
41.951040
20
25.105934
11
41.931200
21
25.209628
0
LINE
8
Layer 1
10
41.931200
20
25.209628
11
41.969261
21
26.876568
0
LINE
8
Layer 1
10
41.969261
20
26.876568
11
41.995324
21
26.952875
0
LINE
8
Layer 1
10
41.995324
20
26.952875
11
42.052352
21
26.846816
0
LINE
8
Layer 1
10
42.052352
20
26.846816
11
42.056100
21
25.966000
0
LINE
8
Layer 1
10
42.056100
20
25.966000
11
42.056072
21
25.965980
0
LINE
8
Layer 1
10
65.062872
20
87.772380
11
63.823842
21
86.580220
0
LINE
8
Layer 1
10
63.823842
20
86.580220
11
63.721006
21
86.569143
0
LINE
8
Layer 1
10
63.721006
20
86.569143
11
63.686338
21
86.752006
0
LINE
8
Layer 1
10
63.686338
20
86.752006
11
64.292393
21
87.427945
0
LINE
8
Layer 1
10
64.292393
20
87.427945
11
64.930347
21
87.933464
0
LINE
8
Layer 1
10
64.930347
20
87.933464
11
65.096624
21
87.887408
0
LINE
8
Layer 1
10
65.096624
20
87.887408
11
65.062800
21
87.772400
0
LINE
8
Layer 1
10
65.062800
20
87.772400
11
65.062872
21
87.772380
0
LINE
8
Layer 1
10
68.477192
20
90.429200
11
68.368164
21
90.310444
0
LINE
8
Layer 1
10
68.368164
20
90.310444
11
67.658585
21
89.632640
0
LINE
8
Layer 1
10
67.658585
20
89.632640
11
67.412053
21
89.393494
0
LINE
8
Layer 1
10
67.412053
20
89.393494
11
67.247749
21
89.385414
0
LINE
8
Layer 1
10
67.247749
20
89.385414
11
67.213857
21
89.568029
0
LINE
8
Layer 1
10
67.213857
20
89.568029
11
67.315038
21
89.888259
0
LINE
8
Layer 1
10
67.315038
20
89.888259
11
67.537123
21
90.122223
0
LINE
8
Layer 1
10
67.537123
20
90.122223
11
68.461338
21
90.654756
0
LINE
8
Layer 1
10
68.461338
20
90.654756
11
68.540078
21
90.634718
0
LINE
8
Layer 1
10
68.540078
20
90.634718
11
68.477100
21
90.429200
0
LINE
8
Layer 1
10
68.477100
20
90.429200
11
68.477192
21
90.429200
0
LINE
8
Layer 1
10
70.671402
20
92.798710
11
70.659715
21
92.847382
0
LINE
8
Layer 1
10
70.659715
20
92.847382
11
70.855859
21
93.047427
0
LINE
8
Layer 1
10
70.855859
20
93.047427
11
70.873394
21
92.998755
0
LINE
8
Layer 1
10
70.873394
20
92.998755
11
70.671400
21
92.798700
0
LINE
8
Layer 1
10
70.671400
20
92.798700
11
70.671402
21
92.798710
0
LINE
8
Layer 1
10
77.397032
20
98.991940
11
77.029031
21
98.591233
0
LINE
8
Layer 1
10
77.029031
20
98.591233
11
77.314453
21
98.985841
0
LINE
8
Layer 1
10
77.314453
20
98.985841
11
77.453306
21
99.088663
0
LINE
8
Layer 1
10
77.453306
20
99.088663
11
77.397000
21
98.992000
0
LINE
8
Layer 1
10
77.397000
20
98.992000
11
77.397032
21
98.991940
0
LINE
8
Layer 1
10
82.924900
20
105.720000
11
82.989958
21
105.791701
0
LINE
8
Layer 1
10
82.989958
20
105.791701
11
82.925958
21
105.721493
0
LINE
8
Layer 1
10
82.925958
20
105.721493
11
82.924900
21
105.720000
0
LINE
8
Layer 1
10
76.935200
20
99.739800
11
77.441611
21
100.266483
0
LINE
8
Layer 1
10
77.441611
20
100.266483
11
77.527161
21
100.416484
0
LINE
8
Layer 1
10
77.527161
20
100.416484
11
77.367762
21
100.338184
0
LINE
8
Layer 1
10
77.367762
20
100.338184
11
75.983522
21
99.040584
0
LINE
8
Layer 1
10
75.983522
20
99.040584
11
75.746508
21
98.753826
0
LINE
8
Layer 1
10
75.746508
20
98.753826
11
75.751253
21
98.426266
0
LINE
8
Layer 1
10
75.751253
20
98.426266
11
76.935200
21
99.739800
0
LINE
8
Layer 1
10
76.935200
20
99.739800
11
76.935200
21
99.739800
0
LINE
8
Layer 1
10
83.348200
20
106.191000
11
83.202291
21
106.030416
0
LINE
8
Layer 1
10
83.202291
20
106.030416
11
82.989894
21
105.792531
0
LINE
8
Layer 1
10
82.989894
20
105.792531
11
83.183261
21
106.004525
0
LINE
8
Layer 1
10
83.183261
20
106.004525
11
83.348200
21
106.191000
0
LINE
8
Layer 1
10
83.348200
20
106.191000
11
83.348200
21
106.191000
0
LINE
8
Layer 1
10
72.126400
20
95.322600
11
72.029818
21
95.254020
0
LINE
8
Layer 1
10
72.029818
20
95.254020
11
71.954747
21
95.161031
0
LINE
8
Layer 1
10
71.954747
20
95.161031
11
72.089545
21
95.245805
0
LINE
8
Layer 1
10
72.089545
20
95.245805
11
72.126400
21
95.322600
0
LINE
8
Layer 1
10
72.126400
20
95.322600
11
72.126400
21
95.322600
 0 
ENDSEC
 0 
EOF