999
"DXF R12 Output" (www.mydxf.blogspot.com)
 0 
SECTION
 2 
HEADER
 9 
$ACADVER
 1 
AC1009
 9 
$EXTMIN
 10 
 0 
 20 
 0 
 9 
$EXTMAX
 10 
 8.5 
 20 
 11 
 0 
ENDSEC
 0 
SECTION
 2 
ENTITIES
0
LINE
8
Layer 1
10
35.653700
20
99.067300
11
35.869676
21
98.974810
0
LINE
8
Layer 1
10
35.869676
20
98.974810
11
35.711584
21
99.152328
0
LINE
8
Layer 1
10
35.711584
20
99.152328
11
33.588424
21
100.677478
0
LINE
8
Layer 1
10
33.588424
20
100.677478
11
33.146325
21
100.936958
0
LINE
8
Layer 1
10
33.146325
20
100.936958
11
32.750163
21
100.923082
0
LINE
8
Layer 1
10
32.750163
20
100.923082
11
34.813703
21
99.623862
0
LINE
8
Layer 1
10
34.813703
20
99.623862
11
35.653700
21
99.067300
0
LINE
8
Layer 1
10
35.653700
20
99.067300
11
35.653700
21
99.067300
0
LINE
8
Layer 1
10
44.550300
20
92.967800
11
44.447975
21
93.032782
0
LINE
8
Layer 1
10
44.447975
20
93.032782
11
44.478099
21
93.012862
0
LINE
8
Layer 1
10
44.478099
20
93.012862
11
44.550300
21
92.967800
0
LINE
8
Layer 1
10
44.550300
20
92.967800
11
44.550300
21
92.967800
0
LINE
8
Layer 1
10
45.184400
20
92.569500
11
44.931701
21
92.729585
0
LINE
8
Layer 1
10
44.931701
20
92.729585
11
44.550289
21
92.967842
0
LINE
8
Layer 1
10
44.550289
20
92.967842
11
44.892624
21
92.750373
0
LINE
8
Layer 1
10
44.892624
20
92.750373
11
45.158615
21
92.585172
0
LINE
8
Layer 1
10
45.158615
20
92.585172
11
45.184400
21
92.569500
0
LINE
8
Layer 1
10
45.184400
20
92.569500
11
45.184400
21
92.569500
0
LINE
8
Layer 1
10
27.439600
20
104.964000
11
27.547652
21
104.924540
0
LINE
8
Layer 1
10
27.547652
20
104.924540
11
27.426155
21
105.031471
0
LINE
8
Layer 1
10
27.426155
20
105.031471
11
27.283500
21
105.113628
0
LINE
8
Layer 1
10
27.283500
20
105.113628
11
27.439600
21
104.964000
0
LINE
8
Layer 1
10
27.439600
20
104.964000
11
27.439600
21
104.964000
0
LINE
8
Layer 1
10
44.850200
20
61.007800
11
44.852068
21
61.006671
0
LINE
8
Layer 1
10
44.852068
20
61.006671
11
44.850200
21
61.007800
0
LINE
8
Layer 1
10
43.875000
20
61.643300
11
43.333134
21
61.992598
0
LINE
8
Layer 1
10
43.333134
20
61.992598
11
42.896951
21
62.274177
0
LINE
8
Layer 1
10
42.896951
20
62.274177
11
42.029810
21
62.821648
0
LINE
8
Layer 1
10
42.029810
20
62.821648
11
41.819809
21
62.972637
0
LINE
8
Layer 1
10
41.819809
20
62.972637
11
41.658728
21
63.092511
0
LINE
8
Layer 1
10
41.658728
20
63.092511
11
41.372171
21
63.274753
0
LINE
8
Layer 1
10
41.372171
20
63.274753
11
40.890923
21
63.598656
0
LINE
8
Layer 1
10
40.890923
20
63.598656
11
40.754367
21
63.696373
0
LINE
8
Layer 1
10
40.754367
20
63.696373
11
41.038683
21
63.630646
0
LINE
8
Layer 1
10
41.038683
20
63.630646
11
40.735943
21
63.857578
0
LINE
8
Layer 1
10
40.735943
20
63.857578
11
40.381667
21
64.119116
0
LINE
8
Layer 1
10
40.381667
20
64.119116
11
40.357766
21
64.065463
0
LINE
8
Layer 1
10
40.357766
20
64.065463
11
40.223327
21
64.137164
0
LINE
8
Layer 1
10
40.223327
20
64.137164
11
39.897807
21
64.376294
0
LINE
8
Layer 1
10
39.897807
20
64.376294
11
39.341124
21
64.785468
0
LINE
8
Layer 1
10
39.341124
20
64.785468
11
39.145564
21
64.903104
0
LINE
8
Layer 1
10
39.145564
20
64.903104
11
38.347135
21
65.536975
0
LINE
8
Layer 1
10
38.347135
20
65.536975
11
37.870493
21
65.920752
0
LINE
8
Layer 1
10
37.870493
20
65.920752
11
37.551447
21
66.160378
0
LINE
8
Layer 1
10
37.551447
20
66.160378
11
37.220200
21
66.374737
0
LINE
8
Layer 1
10
37.220200
20
66.374737
11
36.939121
21
66.501455
0
LINE
8
Layer 1
10
36.939121
20
66.501455
11
36.785510
21
66.665398
0
LINE
8
Layer 1
10
36.785510
20
66.665398
11
36.584469
21
66.856976
0
LINE
8
Layer 1
10
36.584469
20
66.856976
11
36.032516
21
67.357144
0
LINE
8
Layer 1
10
36.032516
20
67.357144
11
35.767992
21
67.573744
0
LINE
8
Layer 1
10
35.767992
20
67.573744
11
35.285999
21
67.894783
0
LINE
8
Layer 1
10
35.285999
20
67.894783
11
34.863259
21
68.280801
0
LINE
8
Layer 1
10
34.863259
20
68.280801
11
34.729937
21
68.395448
0
LINE
8
Layer 1
10
34.729937
20
68.395448
11
33.712047
21
69.187278
0
LINE
8
Layer 1
10
33.712047
20
69.187278
11
32.680217
21
69.972634
0
LINE
8
Layer 1
10
32.680217
20
69.972634
11
32.557354
21
70.096369
0
LINE
8
Layer 1
10
32.557354
20
70.096369
11
31.696187
21
70.818857
0
LINE
8
Layer 1
10
31.696187
20
70.818857
11
31.505478
21
70.958029
0
LINE
8
Layer 1
10
31.505478
20
70.958029
11
29.726758
21
72.529739
0
LINE
8
Layer 1
10
29.726758
20
72.529739
11
27.853428
21
74.185469
0
LINE
8
Layer 1
10
27.853428
20
74.185469
11
25.875158
21
75.903449
0
LINE
8
Layer 1
10
25.875158
20
75.903449
11
25.376472
21
76.327682
0
LINE
8
Layer 1
10
25.376472
20
76.327682
11
22.989282
21
78.393832
0
LINE
8
Layer 1
10
22.989282
20
78.393832
11
18.878512
21
81.605472
0
LINE
8
Layer 1
10
18.878512
20
81.605472
11
16.281322
21
83.346102
0
LINE
8
Layer 1
10
16.281322
20
83.346102
11
13.715622
21
84.914822
0
LINE
8
Layer 1
10
13.715622
20
84.914822
11
11.173202
21
86.525242
0
LINE
8
Layer 1
10
11.173202
20
86.525242
11
9.657392
21
87.658642
0
LINE
8
Layer 1
10
9.657392
20
87.658642
11
8.824357
21
88.342672
0
LINE
8
Layer 1
10
8.824357
20
88.342672
11
8.793984
21
89.420562
0
LINE
8
Layer 1
10
8.793984
20
89.420562
11
8.712571
21
95.327352
0
LINE
8
Layer 1
10
8.712571
20
95.327352
11
8.690662
21
99.607662
0
LINE
8
Layer 1
10
8.690662
20
99.607662
11
8.619024
21
101.643239
0
LINE
8
Layer 1
10
8.619024
20
101.643239
11
8.621702
21
103.680212
0
LINE
8
Layer 1
10
8.621702
20
103.680212
11
8.563442
21
104.282702
0
LINE
8
Layer 1
10
8.563442
20
104.282702
11
8.434310
21
105.388974
0
LINE
8
Layer 1
10
8.434310
20
105.388974
11
8.394521
21
106.505702
0
LINE
8
Layer 1
10
8.394521
20
106.505702
11
8.355557
21
107.717596
0
LINE
8
Layer 1
10
8.355557
20
107.717596
11
8.227341
21
108.930612
0
LINE
8
Layer 1
10
8.227341
20
108.930612
11
8.009265
21
110.812802
0
LINE
8
Layer 1
10
8.009265
20
110.812802
11
8.209790
21
112.696942
0
LINE
8
Layer 1
10
8.209790
20
112.696942
11
8.222736
21
112.727439
0
LINE
8
Layer 1
10
8.222736
20
112.727439
11
8.189874
21
112.771880
0
LINE
8
Layer 1
10
8.189874
20
112.771880
11
8.009125
21
112.897483
0
LINE
8
Layer 1
10
8.009125
20
112.897483
11
7.873689
21
113.142452
0
LINE
8
Layer 1
10
7.873689
20
113.142452
11
7.780824
21
113.459757
0
LINE
8
Layer 1
10
7.780824
20
113.459757
11
7.795513
21
113.492619
0
LINE
8
Layer 1
10
7.795513
20
113.492619
11
7.833729
21
113.494984
0
LINE
8
Layer 1
10
7.833729
20
113.494984
11
7.915514
21
113.495856
0
LINE
8
Layer 1
10
7.915514
20
113.495856
11
8.004767
21
113.491871
0
LINE
8
Layer 1
10
8.004767
20
113.491871
11
8.052197
21
113.488013
0
LINE
8
Layer 1
10
8.052197
20
113.488013
11
8.322566
21
113.126518
0
LINE
8
Layer 1
10
8.322566
20
113.126518
11
8.385552
21
113.026558
0
LINE
8
Layer 1
10
8.385552
20
113.026558
11
8.431859
21
112.986353
0
LINE
8
Layer 1
10
8.431859
20
112.986353
11
8.554600
21
112.913280
0
LINE
8
Layer 1
10
8.554600
20
112.913280
11
8.800201
21
112.769129
0
LINE
8
Layer 1
10
8.800201
20
112.769129
11
9.777635
21
112.281410
0
LINE
8
Layer 1
10
9.777635
20
112.281410
11
10.756669
21
111.723342
0
LINE
8
Layer 1
10
10.756669
20
111.723342
11
11.628435
21
111.110660
0
LINE
8
Layer 1
10
11.628435
20
111.110660
11
12.347819
21
110.736343
0
LINE
8
Layer 1
10
12.347819
20
110.736343
11
15.380579
21
109.127413
0
LINE
8
Layer 1
10
15.380579
20
109.127413
11
19.621679
21
106.686823
0
LINE
8
Layer 1
10
19.621679
20
106.686823
11
21.397539
21
105.695942
0
LINE
8
Layer 1
10
21.397539
20
105.695942
11
23.854939
21
104.364982
0
LINE
8
Layer 1
10
23.854939
20
104.364982
11
24.390461
21
104.076551
0
LINE
8
Layer 1
10
24.390461
20
104.076551
11
26.550721
21
102.957331
0
LINE
8
Layer 1
10
26.550721
20
102.957331
11
28.693911
21
101.841601
0
LINE
8
Layer 1
10
28.693911
20
101.841601
11
30.798401
21
100.633261
0
LINE
8
Layer 1
10
30.798401
20
100.633261
11
31.688696
21
100.160601
0
LINE
8
Layer 1
10
31.688696
20
100.160601
11
34.880416
21
98.448361
0
LINE
8
Layer 1
10
34.880416
20
98.448361
11
36.831176
21
97.363371
0
LINE
8
Layer 1
10
36.831176
20
97.363371
11
38.945866
21
96.181791
0
LINE
8
Layer 1
10
38.945866
20
96.181791
11
41.928076
21
94.476391
0
LINE
8
Layer 1
10
41.928076
20
94.476391
11
42.218243
21
94.319419
0
LINE
8
Layer 1
10
42.218243
20
94.319419
11
42.661523
21
94.111534
0
LINE
8
Layer 1
10
42.661523
20
94.111534
11
44.021613
21
93.282366
0
LINE
8
Layer 1
10
44.021613
20
93.282366
11
44.446594
21
93.033525
0
LINE
8
Layer 1
10
44.446594
20
93.033525
11
43.754972
21
93.487013
0
LINE
8
Layer 1
10
43.754972
20
93.487013
11
41.073012
21
95.231873
0
LINE
8
Layer 1
10
41.073012
20
95.231873
11
39.199432
21
96.435243
0
LINE
8
Layer 1
10
39.199432
20
96.435243
11
37.691332
21
97.406087
0
LINE
8
Layer 1
10
37.691332
20
97.406087
11
34.689822
21
99.287377
0
LINE
8
Layer 1
10
34.689822
20
99.287377
11
33.970438
21
99.818417
0
LINE
8
Layer 1
10
33.970438
20
99.818417
11
33.419730
21
100.241157
0
LINE
8
Layer 1
10
33.419730
20
100.241157
11
32.428482
21
100.868669
0
LINE
8
Layer 1
10
32.428482
20
100.868669
11
30.769012
21
101.991999
0
LINE
8
Layer 1
10
30.769012
20
101.991999
11
30.299714
21
102.333330
0
LINE
8
Layer 1
10
30.299714
20
102.333330
11
30.799837
21
102.267106
0
LINE
8
Layer 1
10
30.799837
20
102.267106
11
31.319104
21
102.162789
0
LINE
8
Layer 1
10
31.319104
20
102.162789
11
30.277564
21
102.953375
0
LINE
8
Layer 1
10
30.277564
20
102.953375
11
29.055774
21
103.860101
0
LINE
8
Layer 1
10
29.055774
20
103.860101
11
28.956432
21
103.648855
0
LINE
8
Layer 1
10
28.956432
20
103.648855
11
28.487134
21
103.888857
0
LINE
8
Layer 1
10
28.487134
20
103.888857
11
27.365304
21
104.718903
0
LINE
8
Layer 1
10
27.365304
20
104.718903
11
25.443424
21
106.134143
0
LINE
8
Layer 1
10
25.443424
20
106.134143
11
24.763627
21
106.533978
0
LINE
8
Layer 1
10
24.763627
20
106.533978
11
23.323744
21
107.551510
0
LINE
8
Layer 1
10
23.323744
20
107.551510
11
22.003867
21
108.720508
0
LINE
8
Layer 1
10
22.003867
20
108.720508
11
21.247178
21
109.465953
0
LINE
8
Layer 1
10
21.247178
20
109.465953
11
20.350607
21
110.035538
0
LINE
8
Layer 1
10
20.350607
20
110.035538
11
19.240477
21
110.851391
0
LINE
8
Layer 1
10
19.240477
20
110.851391
11
18.704781
21
111.279604
0
LINE
8
Layer 1
10
18.704781
20
111.279604
11
18.087647
21
111.578739
0
LINE
8
Layer 1
10
18.087647
20
111.578739
11
17.111213
21
112.007716
0
LINE
8
Layer 1
10
17.111213
20
112.007716
11
16.574571
21
112.564647
0
LINE
8
Layer 1
10
16.574571
20
112.564647
11
15.871248
21
113.213323
0
LINE
8
Layer 1
10
15.871248
20
113.213323
11
14.839701
21
113.981213
0
LINE
8
Layer 1
10
14.839701
20
113.981213
11
13.934428
21
114.894573
0
LINE
8
Layer 1
10
13.934428
20
114.894573
11
13.005918
21
115.619805
0
LINE
8
Layer 1
10
13.005918
20
115.619805
11
12.161325
21
116.151966
0
LINE
8
Layer 1
10
12.161325
20
116.151966
11
11.320558
21
116.697945
0
LINE
8
Layer 1
10
11.320558
20
116.697945
11
11.086534
21
116.814220
0
LINE
8
Layer 1
10
11.086534
20
116.814220
11
10.844788
21
116.976170
0
LINE
8
Layer 1
10
10.844788
20
116.976170
11
10.262711
21
117.447958
0
LINE
8
Layer 1
10
10.262711
20
117.447958
11
9.065191
21
118.469578
0
LINE
8
Layer 1
10
9.065191
20
118.469578
11
8.268761
21
119.060119
0
LINE
8
Layer 1
10
8.268761
20
119.060119
11
5.267131
21
121.073489
0
LINE
8
Layer 1
10
5.267131
20
121.073489
11
3.710510
21
122.176000
0
LINE
8
Layer 1
10
3.710510
20
122.176000
11
2.926390
21
122.720000
0
LINE
8
Layer 1
10
2.926390
20
122.720000
11
2.537010
21
122.983000
0
LINE
8
Layer 1
10
2.537010
20
122.983000
11
2.343570
21
123.112000
0
LINE
8
Layer 1
10
2.343570
20
123.112000
11
2.247330
21
123.175000
0
LINE
8
Layer 1
10
2.247330
20
123.175000
11
2.241355
21
123.071806
0
LINE
8
Layer 1
10
2.241355
20
123.071806
11
2.170518
21
119.471916
0
LINE
8
Layer 1
10
2.170518
20
119.471916
11
2.146368
21
117.613276
0
LINE
8
Layer 1
10
2.146368
20
117.613276
11
2.184335
21
115.707456
0
LINE
8
Layer 1
10
2.184335
20
115.707456
11
2.093962
21
114.759901
0
LINE
8
Layer 1
10
2.093962
20
114.759901
11
1.983545
21
113.165041
0
LINE
8
Layer 1
10
1.983545
20
113.165041
11
1.958420
21
112.759000
0
LINE
8
Layer 1
10
1.958420
20
112.759000
11
1.935142
21
112.513148
0
LINE
8
Layer 1
10
1.935142
20
112.513148
11
1.893066
21
112.032400
0
LINE
8
Layer 1
10
1.893066
20
112.032400
11
1.816135
21
110.096710
0
LINE
8
Layer 1
10
1.816135
20
110.096710
11
1.804186
21
109.282217
0
LINE
8
Layer 1
10
1.804186
20
109.282217
11
1.167090
21
101.172000
0
LINE
8
Layer 1
10
1.167090
20
101.172000
11
0.637924
21
92.629050
0
LINE
8
Layer 1
10
0.637924
20
92.629050
11
0.275681
21
83.664110
0
LINE
8
Layer 1
10
0.275681
20
83.664110
11
0.221777
21
81.421070
0
LINE
8
Layer 1
10
0.221777
20
81.421070
11
0.018325
21
76.022202
0
LINE
8
Layer 1
10
0.018325
20
76.022202
11
0.011776
21
70.615370
0
LINE
8
Layer 1
10
0.011776
20
70.615370
11
0.433396
21
52.659370
0
LINE
8
Layer 1
10
0.433396
20
52.659370
11
1.097134
21
41.857870
0
LINE
8
Layer 1
10
1.097134
20
41.857870
11
1.866050
21
31.471300
0
LINE
8
Layer 1
10
1.866050
20
31.471300
11
2.590285
21
21.074100
0
LINE
8
Layer 1
10
2.590285
20
21.074100
11
2.996222
21
14.548260
0
LINE
8
Layer 1
10
2.996222
20
14.548260
11
3.727677
21
5.190950
0
LINE
8
Layer 1
10
3.727677
20
5.190950
11
4.125023
21
0.998770
0
LINE
8
Layer 1
10
4.125023
20
0.998770
11
4.181273
21
0.000253
0
LINE
8
Layer 1
10
4.181273
20
0.000253
11
4.223236
21
1.359393
0
LINE
8
Layer 1
10
4.223236
20
1.359393
11
4.411453
21
4.577123
0
LINE
8
Layer 1
10
4.411453
20
4.577123
11
4.948219
21
12.889283
0
LINE
8
Layer 1
10
4.948219
20
12.889283
11
5.685527
21
23.038783
0
LINE
8
Layer 1
10
5.685527
20
23.038783
11
6.656235
21
34.618383
0
LINE
8
Layer 1
10
6.656235
20
34.618383
11
7.316987
21
42.546013
0
LINE
8
Layer 1
10
7.316987
20
42.546013
11
7.706242
21
47.426953
0
LINE
8
Layer 1
10
7.706242
20
47.426953
11
8.178526
21
53.936363
0
LINE
8
Layer 1
10
8.178526
20
53.936363
11
8.454999
21
59.237673
0
LINE
8
Layer 1
10
8.454999
20
59.237673
11
8.714669
21
64.330973
0
LINE
8
Layer 1
10
8.714669
20
64.330973
11
8.941477
21
81.621273
0
LINE
8
Layer 1
10
8.941477
20
81.621273
11
11.380327
21
79.661053
0
LINE
8
Layer 1
10
11.380327
20
79.661053
11
13.224897
21
78.287023
0
LINE
8
Layer 1
10
13.224897
20
78.287023
11
14.379587
21
77.470298
0
LINE
8
Layer 1
10
14.379587
20
77.470298
11
15.944447
21
76.419178
0
LINE
8
Layer 1
10
15.944447
20
76.419178
11
17.262587
21
75.630334
0
LINE
8
Layer 1
10
17.262587
20
75.630334
11
18.526937
21
74.869376
0
LINE
8
Layer 1
10
18.526937
20
74.869376
11
23.784200
21
72.116200
0
LINE
8
Layer 1
10
23.784200
20
72.116200
11
24.164243
21
71.943666
0
LINE
8
Layer 1
10
24.164243
20
71.943666
11
25.028895
21
71.541838
0
LINE
8
Layer 1
10
25.028895
20
71.541838
11
26.556165
21
70.753496
0
LINE
8
Layer 1
10
26.556165
20
70.753496
11
27.648865
21
70.160463
0
LINE
8
Layer 1
10
27.648865
20
70.160463
11
28.695385
21
69.607141
0
LINE
8
Layer 1
10
28.695385
20
69.607141
11
28.860073
21
69.540294
0
LINE
8
Layer 1
10
28.860073
20
69.540294
11
29.456716
21
69.277387
0
LINE
8
Layer 1
10
29.456716
20
69.277387
11
30.101283
21
68.980870
0
LINE
8
Layer 1
10
30.101283
20
68.980870
11
30.614234
21
68.777846
0
LINE
8
Layer 1
10
30.614234
20
68.777846
11
31.049961
21
68.439498
0
LINE
8
Layer 1
10
31.049961
20
68.439498
11
31.240419
21
68.316139
0
LINE
8
Layer 1
10
31.240419
20
68.316139
11
31.663783
21
68.100908
0
LINE
8
Layer 1
10
31.663783
20
68.100908
11
33.614413
21
67.100328
0
LINE
8
Layer 1
10
33.614413
20
67.100328
11
34.196355
21
66.807918
0
LINE
8
Layer 1
10
34.196355
20
66.807918
11
34.777936
21
66.522357
0
LINE
8
Layer 1
10
34.777936
20
66.522357
11
35.324783
21
66.200198
0
LINE
8
Layer 1
10
35.324783
20
66.200198
11
35.537525
21
66.098880
0
LINE
8
Layer 1
10
35.537525
20
66.098880
11
36.431926
21
65.658216
0
LINE
8
Layer 1
10
36.431926
20
65.658216
11
37.677376
21
64.978668
0
LINE
8
Layer 1
10
37.677376
20
64.978668
11
38.197212
21
64.700699
0
LINE
8
Layer 1
10
38.197212
20
64.700699
11
38.914352
21
64.324141
0
LINE
8
Layer 1
10
38.914352
20
64.324141
11
39.070328
21
64.241983
0
LINE
8
Layer 1
10
39.070328
20
64.241983
11
39.697708
21
63.921193
0
LINE
8
Layer 1
10
39.697708
20
63.921193
11
40.318500
21
63.598537
0
LINE
8
Layer 1
10
40.318500
20
63.598537
11
40.928833
21
63.250484
0
LINE
8
Layer 1
10
40.928833
20
63.250484
11
41.185765
21
63.112311
0
LINE
8
Layer 1
10
41.185765
20
63.112311
11
42.105188
21
62.609775
0
LINE
8
Layer 1
10
42.105188
20
62.609775
11
42.666725
21
62.290729
0
LINE
8
Layer 1
10
42.666725
20
62.290729
11
43.274197
21
61.941431
0
LINE
8
Layer 1
10
43.274197
20
61.941431
11
44.130385
21
61.436781
0
LINE
8
Layer 1
10
44.130385
20
61.436781
11
44.213291
21
61.389602
0
LINE
8
Layer 1
10
44.213291
20
61.389602
11
44.338394
21
61.324499
0
LINE
8
Layer 1
10
44.338394
20
61.324499
11
44.729890
21
61.080888
0
LINE
8
Layer 1
10
44.729890
20
61.080888
11
44.850139
21
61.007818
0
LINE
8
Layer 1
10
44.850139
20
61.007818
11
44.651218
21
61.138027
0
LINE
8
Layer 1
10
44.651218
20
61.138027
11
43.875000
21
61.643300
0
LINE
8
Layer 1
10
43.875000
20
61.643300
11
43.875000
21
61.643300
0
LINE
8
Layer 1
10
34.047100
20
99.177000
11
34.226977
21
99.023265
0
LINE
8
Layer 1
10
34.226977
20
99.023265
11
34.087184
21
99.084138
0
LINE
8
Layer 1
10
34.087184
20
99.084138
11
33.454939
21
99.488082
0
LINE
8
Layer 1
10
33.454939
20
99.488082
11
34.047100
21
99.177000
0
LINE
8
Layer 1
10
34.047100
20
99.177000
11
34.047100
21
99.177000
0
LINE
8
Layer 1
10
23.960700
20
106.512000
11
24.281366
21
106.296272
0
LINE
8
Layer 1
10
24.281366
20
106.296272
11
24.228957
21
106.275235
0
LINE
8
Layer 1
10
24.228957
20
106.275235
11
23.906301
21
106.497558
0
LINE
8
Layer 1
10
23.906301
20
106.497558
11
23.960700
21
106.512000
0
LINE
8
Layer 1
10
23.960700
20
106.512000
11
23.960700
21
106.512000
0
LINE
8
Layer 1
10
18.406800
20
110.264000
11
18.615430
21
110.306946
0
LINE
8
Layer 1
10
18.615430
20
110.306946
11
19.416348
21
109.957400
0
LINE
8
Layer 1
10
19.416348
20
109.957400
11
20.428398
21
108.930300
0
LINE
8
Layer 1
10
20.428398
20
108.930300
11
20.435118
21
108.841171
0
LINE
8
Layer 1
10
20.435118
20
108.841171
11
20.160516
21
108.906523
0
LINE
8
Layer 1
10
20.160516
20
108.906523
11
19.973293
21
109.026274
0
LINE
8
Layer 1
10
19.973293
20
109.026274
11
18.869383
21
109.807772
0
LINE
8
Layer 1
10
18.869383
20
109.807772
11
18.481573
21
110.079472
0
LINE
8
Layer 1
10
18.481573
20
110.079472
11
18.406800
21
110.264000
0
LINE
8
Layer 1
10
18.406800
20
110.264000
11
18.406800
21
110.264000
0
LINE
8
Layer 1
10
13.592400
20
114.163000
11
13.800781
21
114.206818
0
LINE
8
Layer 1
10
13.800781
20
114.206818
11
14.861491
21
113.541959
0
LINE
8
Layer 1
10
14.861491
20
113.541959
11
15.727630
21
112.836644
0
LINE
8
Layer 1
10
15.727630
20
112.836644
11
15.737341
21
112.648052
0
LINE
8
Layer 1
10
15.737341
20
112.648052
11
15.584227
21
112.683157
0
LINE
8
Layer 1
10
15.584227
20
112.683157
11
13.646300
21
114.047000
0
LINE
8
Layer 1
10
13.646300
20
114.047000
11
13.592400
21
114.163000
0
LINE
8
Layer 1
10
13.592400
20
114.163000
11
13.592400
21
114.163000
0
LINE
8
Layer 1
10
36.542800
20
66.689100
11
36.498361
21
66.699060
0
LINE
8
Layer 1
10
36.498361
20
66.699060
11
35.940806
21
67.099395
0
LINE
8
Layer 1
10
35.940806
20
67.099395
11
35.925992
21
67.134001
0
LINE
8
Layer 1
10
35.925992
20
67.134001
11
35.987362
21
67.148315
0
LINE
8
Layer 1
10
35.987362
20
67.148315
11
36.292467
21
66.952755
0
LINE
8
Layer 1
10
36.292467
20
66.952755
11
36.540822
21
66.744994
0
LINE
8
Layer 1
10
36.540822
20
66.744994
11
36.542700
21
66.688900
0
LINE
8
Layer 1
10
36.542700
20
66.688900
11
36.542800
21
66.689100
0
LINE
8
Layer 1
10
37.899030
20
65.581340
11
37.820109
21
65.601008
0
LINE
8
Layer 1
10
37.820109
20
65.601008
11
37.765835
21
65.635738
0
LINE
8
Layer 1
10
37.765835
20
65.635738
11
37.446165
21
65.861798
0
LINE
8
Layer 1
10
37.446165
20
65.861798
11
37.312110
21
65.993624
0
LINE
8
Layer 1
10
37.312110
20
65.993624
11
37.372224
21
66.005698
0
LINE
8
Layer 1
10
37.372224
20
66.005698
11
37.603138
21
65.903000
0
LINE
8
Layer 1
10
37.603138
20
65.903000
11
37.896666
21
65.606486
0
LINE
8
Layer 1
10
37.896666
20
65.606486
11
37.899000
21
65.581200
0
LINE
8
Layer 1
10
37.899000
20
65.581200
11
37.899030
21
65.581340
0
LINE
8
Layer 1
10
38.997580
20
64.838681
11
38.904094
21
64.902912
0
LINE
8
Layer 1
10
38.904094
20
64.902912
11
39.012146
21
64.843908
0
LINE
8
Layer 1
10
39.012146
20
64.843908
11
38.997500
21
64.838500
0
LINE
8
Layer 1
10
38.997500
20
64.838500
11
38.997580
21
64.838681
0
LINE
8
Layer 1
10
41.871370
20
62.787341
11
41.687759
21
62.903481
0
LINE
8
Layer 1
10
41.687759
20
62.903481
11
41.857803
21
62.811367
0
LINE
8
Layer 1
10
41.857803
20
62.811367
11
41.911081
21
62.768669
0
LINE
8
Layer 1
10
41.911081
20
62.768669
11
41.871300
21
62.787200
0
LINE
8
Layer 1
10
41.871300
20
62.787200
11
41.871370
21
62.787341
0
LINE
8
Layer 1
10
41.693800
20
63.197700
11
41.459025
21
63.280854
0
LINE
8
Layer 1
10
41.459025
20
63.280854
11
42.054299
21
62.901548
0
LINE
8
Layer 1
10
42.054299
20
62.901548
11
42.297292
21
62.740219
0
LINE
8
Layer 1
10
42.297292
20
62.740219
11
42.358289
21
62.711215
0
LINE
8
Layer 1
10
42.358289
20
62.711215
11
42.310489
21
62.759390
0
LINE
8
Layer 1
10
42.310489
20
62.759390
11
41.693800
21
63.197700
0
LINE
8
Layer 1
10
44.991500
20
60.918100
11
44.887806
21
60.983827
0
LINE
8
Layer 1
10
44.887806
20
60.983827
11
44.980420
21
60.924450
0
LINE
8
Layer 1
10
44.980420
20
60.924450
11
45.064446
21
60.871420
0
LINE
8
Layer 1
10
45.064446
20
60.871420
11
44.991500
21
60.918100
0
LINE
8
Layer 1
10
44.991500
20
60.918100
11
44.991500
21
60.918100
0
LINE
8
Layer 1
10
39.915000
20
64.440600
11
39.945621
21
64.428275
0
LINE
8
Layer 1
10
39.945621
20
64.428275
11
39.910270
21
64.458899
0
LINE
8
Layer 1
10
39.910270
20
64.458899
11
39.869314
21
64.483170
0
LINE
8
Layer 1
10
39.869314
20
64.483170
11
39.915000
21
64.440600
0
LINE
8
Layer 1
10
39.915000
20
64.440600
11
39.915000
21
64.440600
 0 
ENDSEC
 0 
EOF