999
"DXF R12 Output" (www.mydxf.blogspot.com)
 0 
SECTION
 2 
HEADER
 9 
$ACADVER
 1 
AC1009
 9 
$EXTMIN
 10 
 0 
 20 
 0 
 9 
$EXTMAX
 10 
 8.5 
 20 
 11 
 0 
ENDSEC
 0 
SECTION
 2 
ENTITIES
0
LINE
8
Layer 1
10
42.249500
20
31.013600
11
42.101678
21
31.120280
0
LINE
8
Layer 1
10
42.101678
20
31.120280
11
41.604375
21
31.503312
0
LINE
8
Layer 1
10
41.604375
20
31.503312
11
39.927855
21
32.725232
0
LINE
8
Layer 1
10
39.927855
20
32.725232
11
37.647285
21
33.924492
0
LINE
8
Layer 1
10
37.647285
20
33.924492
11
37.269607
21
34.096774
0
LINE
8
Layer 1
10
37.269607
20
34.096774
11
36.985353
21
34.232833
0
LINE
8
Layer 1
10
36.985353
20
34.232833
11
36.468192
21
34.515532
0
LINE
8
Layer 1
10
36.468192
20
34.515532
11
35.506134
21
35.183004
0
LINE
8
Layer 1
10
35.506134
20
35.183004
11
34.517920
21
35.810369
0
LINE
8
Layer 1
10
34.517920
20
35.810369
11
33.436884
21
36.259274
0
LINE
8
Layer 1
10
33.436884
20
36.259274
11
32.729049
21
36.449749
0
LINE
8
Layer 1
10
32.729049
20
36.449749
11
31.741314
21
36.904340
0
LINE
8
Layer 1
10
31.741314
20
36.904340
11
30.712054
21
37.718328
0
LINE
8
Layer 1
10
30.712054
20
37.718328
11
29.388994
21
38.671236
0
LINE
8
Layer 1
10
29.388994
20
38.671236
11
27.512935
21
39.801064
0
LINE
8
Layer 1
10
27.512935
20
39.801064
11
25.762714
21
41.117436
0
LINE
8
Layer 1
10
25.762714
20
41.117436
11
24.937955
21
41.700052
0
LINE
8
Layer 1
10
24.937955
20
41.700052
11
24.017604
21
42.115531
0
LINE
8
Layer 1
10
24.017604
20
42.115531
11
22.477715
21
42.857244
0
LINE
8
Layer 1
10
22.477715
20
42.857244
11
20.944644
21
43.627991
0
LINE
8
Layer 1
10
20.944644
20
43.627991
11
20.149645
21
43.991292
0
LINE
8
Layer 1
10
20.149645
20
43.991292
11
19.458039
21
44.450194
0
LINE
8
Layer 1
10
19.458039
20
44.450194
11
18.109944
21
45.412441
0
LINE
8
Layer 1
10
18.109944
20
45.412441
11
17.223694
21
45.940992
0
LINE
8
Layer 1
10
17.223694
20
45.940992
11
13.865114
21
47.733782
0
LINE
8
Layer 1
10
13.865114
20
47.733782
11
13.047641
21
48.212168
0
LINE
8
Layer 1
10
13.047641
20
48.212168
11
12.651664
21
48.435239
0
LINE
8
Layer 1
10
12.651664
20
48.435239
11
11.942612
21
48.782793
0
LINE
8
Layer 1
10
11.942612
20
48.782793
11
11.284103
21
49.167814
0
LINE
8
Layer 1
10
11.284103
20
49.167814
11
10.995867
21
49.360888
0
LINE
8
Layer 1
10
10.995867
20
49.360888
11
10.879973
21
49.482133
0
LINE
8
Layer 1
10
10.879973
20
49.482133
11
10.895213
21
49.667609
0
LINE
8
Layer 1
10
10.895213
20
49.667609
11
11.042601
21
49.807777
0
LINE
8
Layer 1
10
11.042601
20
49.807777
11
11.202872
21
49.928647
0
LINE
8
Layer 1
10
11.202872
20
49.928647
11
11.497458
21
50.168400
0
LINE
8
Layer 1
10
11.497458
20
50.168400
11
11.984680
21
50.685250
0
LINE
8
Layer 1
10
11.984680
20
50.685250
11
12.364164
21
50.898861
0
LINE
8
Layer 1
10
12.364164
20
50.898861
11
12.637962
21
51.068155
0
LINE
8
Layer 1
10
12.637962
20
51.068155
11
12.703937
21
51.109235
0
LINE
8
Layer 1
10
12.703937
20
51.109235
11
12.742037
21
51.134133
0
LINE
8
Layer 1
10
12.742037
20
51.134133
11
12.823698
21
51.196504
0
LINE
8
Layer 1
10
12.823698
20
51.196504
11
13.149715
21
51.446462
0
LINE
8
Layer 1
10
13.149715
20
51.446462
11
14.446565
21
52.460242
0
LINE
8
Layer 1
10
14.446565
20
52.460242
11
16.987925
21
54.586272
0
LINE
8
Layer 1
10
16.987925
20
54.586272
11
18.042785
21
55.497731
0
LINE
8
Layer 1
10
18.042785
20
55.497731
11
28.918585
21
64.142381
0
LINE
8
Layer 1
10
28.918585
20
64.142381
11
34.616185
21
68.725431
0
LINE
8
Layer 1
10
34.616185
20
68.725431
11
37.459285
21
71.027351
0
LINE
8
Layer 1
10
37.459285
20
71.027351
11
38.878995
21
72.181171
0
LINE
8
Layer 1
10
38.878995
20
72.181171
11
39.268001
21
72.499235
0
LINE
8
Layer 1
10
39.268001
20
72.499235
11
39.920910
21
73.043469
0
LINE
8
Layer 1
10
39.920910
20
73.043469
11
41.231580
21
74.136549
0
LINE
8
Layer 1
10
41.231580
20
74.136549
11
47.075760
21
79.022839
0
LINE
8
Layer 1
10
47.075760
20
79.022839
11
38.966390
21
85.647649
0
LINE
8
Layer 1
10
38.966390
20
85.647649
11
34.612500
21
89.261800
0
LINE
8
Layer 1
10
34.612500
20
89.261800
11
31.646910
21
91.700280
0
LINE
8
Layer 1
10
31.646910
20
91.700280
11
24.564101
21
97.639372
0
LINE
8
Layer 1
10
24.564101
20
97.639372
11
17.369100
21
103.458000
0
LINE
8
Layer 1
10
17.369100
20
103.458000
11
0.000000
21
117.360000
0
LINE
8
Layer 1
10
0.000000
20
117.360000
11
0.019233
21
99.489600
0
LINE
8
Layer 1
10
0.019233
20
99.489600
11
0.063610
21
90.098700
0
LINE
8
Layer 1
10
0.063610
20
90.098700
11
0.394857
21
71.617000
0
LINE
8
Layer 1
10
0.394857
20
71.617000
11
0.817970
21
53.846600
0
LINE
8
Layer 1
10
0.817970
20
53.846600
11
1.126935
21
36.057000
0
LINE
8
Layer 1
10
1.126935
20
36.057000
11
1.139136
21
24.891000
0
LINE
8
Layer 1
10
1.139136
20
24.891000
11
1.108574
21
16.873795
0
LINE
8
Layer 1
10
1.108574
20
16.873795
11
1.347392
21
8.881100
0
LINE
8
Layer 1
10
1.347392
20
8.881100
11
1.747035
21
5.031089
0
LINE
8
Layer 1
10
1.747035
20
5.031089
11
2.585992
21
1.708950
0
LINE
8
Layer 1
10
2.585992
20
1.708950
11
3.224368
21
0.446376
0
LINE
8
Layer 1
10
3.224368
20
0.446376
11
3.582845
21
0.109358
0
LINE
8
Layer 1
10
3.582845
20
0.109358
11
3.954157
21
0.000516
0
LINE
8
Layer 1
10
3.954157
20
0.000516
11
4.328287
21
0.143849
0
LINE
8
Layer 1
10
4.328287
20
0.143849
11
4.695218
21
0.563355
0
LINE
8
Layer 1
10
4.695218
20
0.563355
11
5.367412
21
2.326878
0
LINE
8
Layer 1
10
5.367412
20
2.326878
11
5.888401
21
5.061178
0
LINE
8
Layer 1
10
5.888401
20
5.061178
11
6.122272
21
7.834828
0
LINE
8
Layer 1
10
6.122272
20
7.834828
11
6.691513
21
22.063328
0
LINE
8
Layer 1
10
6.691513
20
22.063328
11
7.222488
21
39.437428
0
LINE
8
Layer 1
10
7.222488
20
39.437428
11
7.375602
21
43.859148
0
LINE
8
Layer 1
10
7.375602
20
43.859148
11
7.697948
21
43.691844
0
LINE
8
Layer 1
10
7.697948
20
43.691844
11
10.202778
21
42.396854
0
LINE
8
Layer 1
10
10.202778
20
42.396854
11
13.074448
21
40.934444
0
LINE
8
Layer 1
10
13.074448
20
40.934444
11
16.498388
21
39.225554
0
LINE
8
Layer 1
10
16.498388
20
39.225554
11
18.224618
21
38.329689
0
LINE
8
Layer 1
10
18.224618
20
38.329689
11
19.917098
21
37.557994
0
LINE
8
Layer 1
10
19.917098
20
37.557994
11
21.623583
21
36.666859
0
LINE
8
Layer 1
10
21.623583
20
36.666859
11
23.168698
21
35.689644
0
LINE
8
Layer 1
10
23.168698
20
35.689644
11
24.427588
21
35.116031
0
LINE
8
Layer 1
10
24.427588
20
35.116031
11
29.843359
21
32.842001
0
LINE
8
Layer 1
10
29.843359
20
32.842001
11
33.646909
21
31.086431
0
LINE
8
Layer 1
10
33.646909
20
31.086431
11
35.300469
21
30.339291
0
LINE
8
Layer 1
10
35.300469
20
30.339291
11
35.700803
21
30.177713
0
LINE
8
Layer 1
10
35.700803
20
30.177713
11
36.164450
21
30.032287
0
LINE
8
Layer 1
10
36.164450
20
30.032287
11
36.297431
21
29.937996
0
LINE
8
Layer 1
10
36.297431
20
29.937996
11
36.258474
21
29.803396
0
LINE
8
Layer 1
10
36.258474
20
29.803396
11
35.991958
21
29.395342
0
LINE
8
Layer 1
10
35.991958
20
29.395342
11
35.716854
21
29.237749
0
LINE
8
Layer 1
10
35.716854
20
29.237749
11
35.644281
21
29.201399
0
LINE
8
Layer 1
10
35.644281
20
29.201399
11
35.602453
21
29.177873
0
LINE
8
Layer 1
10
35.602453
20
29.177873
11
35.494404
21
29.080029
0
LINE
8
Layer 1
10
35.494404
20
29.080029
11
35.057284
21
28.689530
0
LINE
8
Layer 1
10
35.057284
20
28.689530
11
34.333049
21
27.977744
0
LINE
8
Layer 1
10
34.333049
20
27.977744
11
31.448619
21
25.085654
0
LINE
8
Layer 1
10
31.448619
20
25.085654
11
28.548189
21
22.201784
0
LINE
8
Layer 1
10
28.548189
20
22.201784
11
25.542699
21
19.390984
0
LINE
8
Layer 1
10
25.542699
20
19.390984
11
24.305219
21
18.190104
0
LINE
8
Layer 1
10
24.305219
20
18.190104
11
19.806689
21
13.875064
0
LINE
8
Layer 1
10
19.806689
20
13.875064
11
16.985799
21
11.246004
0
LINE
8
Layer 1
10
16.985799
20
11.246004
11
13.898529
21
8.395494
0
LINE
8
Layer 1
10
13.898529
20
8.395494
11
9.472199
21
4.391154
0
LINE
8
Layer 1
10
9.472199
20
4.391154
11
9.046532
21
4.000158
0
LINE
8
Layer 1
10
9.046532
20
4.000158
11
8.419827
21
3.396045
0
LINE
8
Layer 1
10
8.419827
20
3.396045
11
6.344217
21
1.587075
0
LINE
8
Layer 1
10
6.344217
20
1.587075
11
5.702388
21
1.020432
0
LINE
8
Layer 1
10
5.702388
20
1.020432
11
6.783018
21
1.933256
0
LINE
8
Layer 1
10
6.783018
20
1.933256
11
10.962378
21
5.474146
0
LINE
8
Layer 1
10
10.962378
20
5.474146
11
13.868158
21
7.952086
0
LINE
8
Layer 1
10
13.868158
20
7.952086
11
16.207238
21
9.946166
0
LINE
8
Layer 1
10
16.207238
20
9.946166
11
18.539775
21
11.879885
0
LINE
8
Layer 1
10
18.539775
20
11.879885
11
20.808218
21
13.929096
0
LINE
8
Layer 1
10
20.808218
20
13.929096
11
21.990978
21
14.861591
0
LINE
8
Layer 1
10
21.990978
20
14.861591
11
22.915196
21
15.570640
0
LINE
8
Layer 1
10
22.915196
20
15.570640
11
24.440786
21
16.884050
0
LINE
8
Layer 1
10
24.440786
20
16.884050
11
27.074516
21
19.062860
0
LINE
8
Layer 1
10
27.074516
20
19.062860
11
27.847113
21
19.672699
0
LINE
8
Layer 1
10
27.847113
20
19.672699
11
27.360842
21
18.941972
0
LINE
8
Layer 1
10
27.360842
20
18.941972
11
26.809313
21
18.192109
0
LINE
8
Layer 1
10
26.809313
20
18.192109
11
27.686263
21
18.829666
0
LINE
8
Layer 1
10
27.686263
20
18.829666
11
28.581183
21
19.539009
0
LINE
8
Layer 1
10
28.581183
20
19.539009
11
30.644653
21
21.126399
0
LINE
8
Layer 1
10
30.644653
20
21.126399
11
30.510392
21
21.196015
0
LINE
8
Layer 1
10
30.510392
20
21.196015
11
30.469447
21
21.330050
0
LINE
8
Layer 1
10
30.469447
20
21.330050
11
31.128579
21
21.967770
0
LINE
8
Layer 1
10
31.128579
20
21.967770
11
33.015969
21
23.426700
0
LINE
8
Layer 1
10
33.015969
20
23.426700
11
34.627888
21
24.695421
0
LINE
8
Layer 1
10
34.627888
20
24.695421
11
36.256239
21
25.933140
0
LINE
8
Layer 1
10
36.256239
20
25.933140
11
37.272569
21
26.844099
0
LINE
8
Layer 1
10
37.272569
20
26.844099
11
38.584549
21
27.936429
0
LINE
8
Layer 1
10
38.584549
20
27.936429
11
40.222799
21
29.252079
0
LINE
8
Layer 1
10
40.222799
20
29.252079
11
41.861419
21
30.578189
0
LINE
8
Layer 1
10
41.861419
20
30.578189
11
42.252480
21
30.886779
0
LINE
8
Layer 1
10
42.252480
20
30.886779
11
42.300280
21
30.924126
0
LINE
8
Layer 1
10
42.300280
20
30.924126
11
42.249500
21
31.013600
0
LINE
8
Layer 1
10
42.249500
20
31.013600
11
42.249500
21
31.013600
0
LINE
8
Layer 1
10
9.012120
20
57.002400
11
8.484255
21
56.620613
0
LINE
8
Layer 1
10
8.484255
20
56.620613
11
8.214815
21
56.395053
0
LINE
8
Layer 1
10
8.214815
20
56.395053
11
7.780312
21
56.021981
0
LINE
8
Layer 1
10
7.780312
20
56.021981
11
7.884503
21
59.260501
0
LINE
8
Layer 1
10
7.884503
20
59.260501
11
8.289444
21
72.831601
0
LINE
8
Layer 1
10
8.289444
20
72.831601
11
8.516684
21
81.187201
0
LINE
8
Layer 1
10
8.516684
20
81.187201
11
8.782952
21
92.330301
0
LINE
8
Layer 1
10
8.782952
20
92.330301
11
8.847186
21
96.866551
0
LINE
8
Layer 1
10
8.847186
20
96.866551
11
8.859383
21
98.001081
0
LINE
8
Layer 1
10
8.859383
20
98.001081
11
8.865420
21
98.568471
0
LINE
8
Layer 1
10
8.865420
20
98.568471
11
8.899343
21
98.655607
0
LINE
8
Layer 1
10
8.899343
20
98.655607
11
9.013990
21
98.605067
0
LINE
8
Layer 1
10
9.013990
20
98.605067
11
9.028494
21
98.574942
0
LINE
8
Layer 1
10
9.028494
20
98.574942
11
30.666394
21
81.311442
0
LINE
8
Layer 1
10
30.666394
20
81.311442
11
32.603214
21
79.827992
0
LINE
8
Layer 1
10
32.603214
20
79.827992
11
33.710974
21
78.980646
0
LINE
8
Layer 1
10
33.710974
20
78.980646
11
33.780186
21
78.927741
0
LINE
8
Layer 1
10
33.780186
20
78.927741
11
33.814854
21
78.901350
0
LINE
8
Layer 1
10
33.814854
20
78.901350
11
34.003756
21
78.844711
0
LINE
8
Layer 1
10
34.003756
20
78.844711
11
34.069669
21
78.806992
0
LINE
8
Layer 1
10
34.069669
20
78.806992
11
33.940146
21
78.661597
0
LINE
8
Layer 1
10
33.940146
20
78.661597
11
33.900434
21
78.621640
0
LINE
8
Layer 1
10
33.900434
20
78.621640
11
33.091490
21
77.924292
0
LINE
8
Layer 1
10
33.091490
20
77.924292
11
31.443030
21
76.505942
0
LINE
8
Layer 1
10
31.443030
20
76.505942
11
25.864300
21
71.758700
0
LINE
8
Layer 1
10
25.864300
20
71.758700
11
23.247808
21
69.459004
0
LINE
8
Layer 1
10
23.247808
20
69.459004
11
20.577120
21
67.218220
0
LINE
8
Layer 1
10
20.577120
20
67.218220
11
19.826246
21
66.510292
0
LINE
8
Layer 1
10
19.826246
20
66.510292
11
18.463373
21
65.192090
0
LINE
8
Layer 1
10
18.463373
20
65.192090
11
17.025526
21
63.933262
0
LINE
8
Layer 1
10
17.025526
20
63.933262
11
15.461787
21
62.571027
0
LINE
8
Layer 1
10
15.461787
20
62.571027
11
13.956676
21
61.138022
0
LINE
8
Layer 1
10
13.956676
20
61.138022
11
11.633025
21
58.892513
0
LINE
8
Layer 1
10
11.633025
20
58.892513
11
9.012120
21
57.002400
0
LINE
8
Layer 1
10
9.012120
20
57.002400
11
9.012120
21
57.002400
0
LINE
8
Layer 1
10
29.341320
20
37.858100
11
29.084636
21
37.911502
0
LINE
8
Layer 1
10
29.084636
20
37.911502
11
25.553206
21
39.905202
0
LINE
8
Layer 1
10
25.553206
20
39.905202
11
25.430840
21
40.070765
0
LINE
8
Layer 1
10
25.430840
20
40.070765
11
25.755737
21
40.134623
0
LINE
8
Layer 1
10
25.755737
20
40.134623
11
27.667407
21
39.167397
0
LINE
8
Layer 1
10
27.667407
20
39.167397
11
29.269737
21
38.130087
0
LINE
8
Layer 1
10
29.269737
20
38.130087
11
29.341300
21
37.858100
0
LINE
8
Layer 1
10
29.341300
20
37.858100
11
29.341320
21
37.858100
0
LINE
8
Layer 1
10
21.270500
20
14.924500
11
20.957234
21
14.697071
0
LINE
8
Layer 1
10
20.957234
20
14.697071
11
21.141841
21
14.890145
0
LINE
8
Layer 1
10
21.141841
20
14.890145
11
22.105082
21
15.727159
0
LINE
8
Layer 1
10
22.105082
20
15.727159
11
21.270500
21
14.924500
0
LINE
8
Layer 1
10
21.270500
20
14.924500
11
21.270500
21
14.924500
0
LINE
8
Layer 1
10
37.831300
20
28.053700
11
37.304400
21
27.617400
0
LINE
8
Layer 1
10
37.304400
20
27.617400
11
37.306392
21
27.693831
0
LINE
8
Layer 1
10
37.306392
20
27.693831
11
37.834943
21
28.124784
0
LINE
8
Layer 1
10
37.834943
20
28.124784
11
37.831300
21
28.053800
0
LINE
8
Layer 1
10
37.831300
20
28.053800
11
37.831300
21
28.053700
0
LINE
8
Layer 1
10
38.104288
20
32.287830
11
37.597135
21
32.416419
0
LINE
8
Layer 1
10
37.597135
20
32.416419
11
37.258296
21
32.591814
0
LINE
8
Layer 1
10
37.258296
20
32.591814
11
35.242500
21
33.729200
0
LINE
8
Layer 1
10
35.242500
20
33.729200
11
34.535519
21
34.124570
0
LINE
8
Layer 1
10
34.535519
20
34.124570
11
34.357618
21
34.387460
0
LINE
8
Layer 1
10
34.357618
20
34.387460
11
34.678098
21
34.440614
0
LINE
8
Layer 1
10
34.678098
20
34.440614
11
35.397829
21
34.275627
0
LINE
8
Layer 1
10
35.397829
20
34.275627
11
36.069618
21
33.917657
0
LINE
8
Layer 1
10
36.069618
20
33.917657
11
36.517939
21
33.535373
0
LINE
8
Layer 1
10
36.517939
20
33.535373
11
36.753459
21
33.349149
0
LINE
8
Layer 1
10
36.753459
20
33.349149
11
37.018731
21
33.152965
0
LINE
8
Layer 1
10
37.018731
20
33.152965
11
38.094811
21
32.396365
0
LINE
8
Layer 1
10
38.094811
20
32.396365
11
38.104300
21
32.287900
0
LINE
8
Layer 1
10
38.104300
20
32.287900
11
38.104288
21
32.287830
0
LINE
8
Layer 1
10
19.708200
20
12.544100
11
19.416789
21
12.245839
0
LINE
8
Layer 1
10
19.416789
20
12.245839
11
19.738200
21
12.433799
0
LINE
8
Layer 1
10
19.738200
20
12.433799
11
23.224880
21
15.196189
0
LINE
8
Layer 1
10
23.224880
20
15.196189
11
23.891303
21
15.787368
0
LINE
8
Layer 1
10
23.891303
20
15.787368
11
24.222044
21
16.386109
0
LINE
8
Layer 1
10
24.222044
20
16.386109
11
21.034624
21
13.649869
0
LINE
8
Layer 1
10
21.034624
20
13.649869
11
19.708200
21
12.544100
0
LINE
8
Layer 1
10
19.708200
20
12.544100
11
19.708200
21
12.544100
0
LINE
8
Layer 1
10
4.564010
20
0.043600
11
4.954887
21
0.377833
0
LINE
8
Layer 1
10
4.954887
20
0.377833
11
5.535658
21
0.877753
0
LINE
8
Layer 1
10
5.535658
20
0.877753
11
5.012399
21
0.430242
0
LINE
8
Layer 1
10
5.012399
20
0.430242
11
4.603371
21
0.077786
0
LINE
8
Layer 1
10
4.603371
20
0.077786
11
4.515936
21
0.002324
0
LINE
8
Layer 1
10
4.515936
20
0.002324
11
4.564010
21
0.043600
0
LINE
8
Layer 1
10
4.564010
20
0.043600
11
4.564010
21
0.043600
0
LINE
8
Layer 1
10
5.535650
20
0.877752
11
5.700403
21
1.018665
0
LINE
8
Layer 1
10
5.700403
20
1.018665
11
5.653348
21
0.978956
0
LINE
8
Layer 1
10
5.653348
20
0.978956
11
5.535650
21
0.877752
0
LINE
8
Layer 1
10
5.535650
20
0.877752
11
5.535650
21
0.877752
0
LINE
8
Layer 1
10
33.134200
20
23.103600
11
33.361815
21
23.257586
0
LINE
8
Layer 1
10
33.361815
20
23.257586
11
33.574368
21
23.449412
0
LINE
8
Layer 1
10
33.574368
20
23.449412
11
33.266585
21
23.254473
0
LINE
8
Layer 1
10
33.266585
20
23.254473
11
33.134200
21
23.103600
0
LINE
8
Layer 1
10
33.134200
20
23.103600
11
33.134200
21
23.103600
 0 
ENDSEC
 0 
EOF