999
"DXF R12 Output" (www.mydxf.blogspot.com)
 0 
SECTION
 2 
HEADER
 9 
$ACADVER
 1 
AC1009
 9 
$EXTMIN
 10 
 0 
 20 
 0 
 9 
$EXTMAX
 10 
 8.5 
 20 
 11 
 0 
ENDSEC
 0 
SECTION
 2 
ENTITIES
0
LINE
8
Layer 1
10
90.011200
20
68.309000
11
89.907881
21
70.529140
0
LINE
8
Layer 1
10
89.907881
20
70.529140
11
89.855106
21
71.646610
0
LINE
8
Layer 1
10
89.855106
20
71.646610
11
89.828200
21
72.207300
0
LINE
8
Layer 1
10
89.828200
20
72.207300
11
89.814755
21
72.488006
0
LINE
8
Layer 1
10
89.814755
20
72.488006
11
89.811394
21
72.558214
0
LINE
8
Layer 1
10
89.811394
20
72.558214
11
89.809777
21
72.593317
0
LINE
8
Layer 1
10
89.809777
20
72.593317
11
89.800937
21
72.614357
0
LINE
8
Layer 1
10
89.800937
20
72.614357
11
89.684662
21
72.538050
0
LINE
8
Layer 1
10
89.684662
20
72.538050
11
87.816072
21
71.311900
0
LINE
8
Layer 1
10
87.816072
20
71.311900
11
86.874862
21
70.694593
0
LINE
8
Layer 1
10
86.874862
20
70.694593
11
85.914111
21
70.054133
0
LINE
8
Layer 1
10
85.914111
20
70.054133
11
83.921531
21
68.686073
0
LINE
8
Layer 1
10
83.921531
20
68.686073
11
82.917581
21
67.996940
0
LINE
8
Layer 1
10
82.917581
20
67.996940
11
82.413679
21
67.651006
0
LINE
8
Layer 1
10
82.413679
20
67.651006
11
82.073841
21
67.423329
0
LINE
8
Layer 1
10
82.073841
20
67.423329
11
80.890141
21
66.639599
0
LINE
8
Layer 1
10
80.890141
20
66.639599
11
67.932700
21
58.051400
0
LINE
8
Layer 1
10
67.932700
20
58.051400
11
59.965360
21
52.749580
0
LINE
8
Layer 1
10
59.965360
20
52.749580
11
49.367300
21
45.641200
0
LINE
8
Layer 1
10
49.367300
20
45.641200
11
43.521010
21
41.636860
0
LINE
8
Layer 1
10
43.521010
20
41.636860
11
42.068358
21
42.912841
0
LINE
8
Layer 1
10
42.068358
20
42.912841
11
40.489870
21
44.029400
0
LINE
8
Layer 1
10
40.489870
20
44.029400
11
38.351520
21
45.670200
0
LINE
8
Layer 1
10
38.351520
20
45.670200
11
37.308026
21
46.505987
0
LINE
8
Layer 1
10
37.308026
20
46.505987
11
36.176070
21
47.217390
0
LINE
8
Layer 1
10
36.176070
20
47.217390
11
34.403700
21
48.283830
0
LINE
8
Layer 1
10
34.403700
20
48.283830
11
33.308760
21
49.289270
0
LINE
8
Layer 1
10
33.308760
20
49.289270
11
31.904350
21
50.500730
0
LINE
8
Layer 1
10
31.904350
20
50.500730
11
29.928112
21
52.026030
0
LINE
8
Layer 1
10
29.928112
20
52.026030
11
28.076300
21
53.700200
0
LINE
8
Layer 1
10
28.076300
20
53.700200
11
26.271560
21
55.128630
0
LINE
8
Layer 1
10
26.271560
20
55.128630
11
24.678001
21
56.261182
0
LINE
8
Layer 1
10
24.678001
20
56.261182
11
23.085560
21
57.409890
0
LINE
8
Layer 1
10
23.085560
20
57.409890
11
21.540056
21
58.590117
0
LINE
8
Layer 1
10
21.540056
20
58.590117
11
20.136460
21
59.854470
0
LINE
8
Layer 1
10
20.136460
20
59.854470
11
19.215169
21
60.593271
0
LINE
8
Layer 1
10
19.215169
20
60.593271
11
15.725973
21
63.203890
0
LINE
8
Layer 1
10
15.725973
20
63.203890
11
12.300069
21
65.870061
0
LINE
8
Layer 1
10
12.300069
20
65.870061
11
11.167279
21
66.714548
0
LINE
8
Layer 1
10
11.167279
20
66.714548
11
9.762620
21
67.775700
0
LINE
8
Layer 1
10
9.762620
20
67.775700
11
6.917820
21
69.943800
0
LINE
8
Layer 1
10
6.917820
20
69.943800
11
4.103900
21
71.914600
0
LINE
8
Layer 1
10
4.103900
20
71.914600
11
2.709970
21
72.850700
0
LINE
8
Layer 1
10
2.709970
20
72.850700
11
2.025570
21
73.296300
0
LINE
8
Layer 1
10
2.025570
20
73.296300
11
1.940800
21
73.350600
0
LINE
8
Layer 1
10
1.940800
20
73.350600
11
1.898600
21
73.377700
0
LINE
8
Layer 1
10
1.898600
20
73.377700
11
1.868476
21
73.161100
0
LINE
8
Layer 1
10
1.868476
20
73.161100
11
1.878918
21
72.701885
0
LINE
8
Layer 1
10
1.878918
20
72.701885
11
1.781077
21
71.012915
0
LINE
8
Layer 1
10
1.781077
20
71.012915
11
1.657340
21
68.140745
0
LINE
8
Layer 1
10
1.657340
20
68.140745
11
1.568722
21
65.110975
0
LINE
8
Layer 1
10
1.568722
20
65.110975
11
1.512460
21
61.990000
0
LINE
8
Layer 1
10
1.512460
20
61.990000
11
1.499015
21
60.770580
0
LINE
8
Layer 1
10
1.499015
20
60.770580
11
1.497025
21
59.818292
0
LINE
8
Layer 1
10
1.497025
20
59.818292
11
1.487813
21
58.222802
0
LINE
8
Layer 1
10
1.487813
20
58.222802
11
0.878597
21
42.332802
0
LINE
8
Layer 1
10
0.878597
20
42.332802
11
0.378674
21
25.596100
0
LINE
8
Layer 1
10
0.378674
20
25.596100
11
0.280086
21
21.207400
0
LINE
8
Layer 1
10
0.280086
20
21.207400
11
0.194940
21
16.640660
0
LINE
8
Layer 1
10
0.194940
20
16.640660
11
0.117137
21
8.165820
0
LINE
8
Layer 1
10
0.117137
20
8.165820
11
0.055033
21
3.826350
0
LINE
8
Layer 1
10
0.055033
20
3.826350
11
0.023650
21
1.643310
0
LINE
8
Layer 1
10
0.023650
20
1.643310
11
0.007967
21
0.548370
0
LINE
8
Layer 1
10
0.007967
20
0.548370
11
0.000000
21
0.000024
0
LINE
8
Layer 1
10
0.000000
20
0.000024
11
0.426226
21
0.301643
0
LINE
8
Layer 1
10
0.426226
20
0.301643
11
7.391116
21
5.351503
0
LINE
8
Layer 1
10
7.391116
20
5.351503
11
14.862666
21
10.596923
0
LINE
8
Layer 1
10
14.862666
20
10.596923
11
19.183436
21
13.651833
0
LINE
8
Layer 1
10
19.183436
20
13.651833
11
27.758626
21
19.866473
0
LINE
8
Layer 1
10
27.758626
20
19.866473
11
48.162400
21
34.979800
0
LINE
8
Layer 1
10
48.162400
20
34.979800
11
48.406384
21
34.808014
0
LINE
8
Layer 1
10
48.406384
20
34.808014
11
49.398380
21
34.153739
0
LINE
8
Layer 1
10
49.398380
20
34.153739
11
53.383300
21
31.572609
0
LINE
8
Layer 1
10
53.383300
20
31.572609
11
57.338710
21
29.004669
0
LINE
8
Layer 1
10
57.338710
20
29.004669
11
61.265240
21
26.336029
0
LINE
8
Layer 1
10
61.265240
20
26.336029
11
62.911760
21
25.257269
0
LINE
8
Layer 1
10
62.911760
20
25.257269
11
68.821420
21
21.367329
0
LINE
8
Layer 1
10
68.821420
20
21.367329
11
72.448570
21
18.940429
0
LINE
8
Layer 1
10
72.448570
20
18.940429
11
76.380960
21
16.300169
0
LINE
8
Layer 1
10
76.380960
20
16.300169
11
81.942570
21
12.527369
0
LINE
8
Layer 1
10
81.942570
20
12.527369
11
82.480203
21
12.171972
0
LINE
8
Layer 1
10
82.480203
20
12.171972
11
83.289585
21
11.670808
0
LINE
8
Layer 1
10
83.289585
20
11.670808
11
85.845445
21
9.882998
0
LINE
8
Layer 1
10
85.845445
20
9.882998
11
86.638644
21
9.338888
0
LINE
8
Layer 1
10
86.638644
20
9.338888
11
85.328344
21
10.288565
0
LINE
8
Layer 1
10
85.328344
20
10.288565
11
80.247504
21
13.957165
0
LINE
8
Layer 1
10
80.247504
20
13.957165
11
76.703624
21
16.499705
0
LINE
8
Layer 1
10
76.703624
20
16.499705
11
73.850624
21
18.549055
0
LINE
8
Layer 1
10
73.850624
20
18.549055
11
71.044579
21
20.617276
0
LINE
8
Layer 1
10
71.044579
20
20.617276
11
68.190924
21
22.561605
0
LINE
8
Layer 1
10
68.190924
20
22.561605
11
66.804194
21
23.627915
0
LINE
8
Layer 1
10
66.804194
20
23.627915
11
65.736514
21
24.465307
0
LINE
8
Layer 1
10
65.736514
20
24.465307
11
63.865304
21
25.798507
0
LINE
8
Layer 1
10
63.865304
20
25.798507
11
60.704834
21
28.125577
0
LINE
8
Layer 1
10
60.704834
20
28.125577
11
59.802215
21
28.814458
0
LINE
8
Layer 1
10
59.802215
20
28.814458
11
60.651959
21
28.468850
0
LINE
8
Layer 1
10
60.651959
20
28.468850
11
61.547825
21
28.063584
0
LINE
8
Layer 1
10
61.547825
20
28.063584
11
59.531965
21
29.635794
0
LINE
8
Layer 1
10
59.531965
20
29.635794
11
57.175025
21
31.453104
0
LINE
8
Layer 1
10
57.175025
20
31.453104
11
57.183131
21
31.299056
0
LINE
8
Layer 1
10
57.183131
20
31.299056
11
57.090875
21
31.228661
0
LINE
8
Layer 1
10
57.090875
20
31.228661
11
56.226347
21
31.785471
0
LINE
8
Layer 1
10
56.226347
20
31.785471
11
54.063227
21
33.450791
0
LINE
8
Layer 1
10
54.063227
20
33.450791
11
50.360017
21
36.295081
0
LINE
8
Layer 1
10
50.360017
20
36.295081
11
50.140928
21
36.466618
0
LINE
8
Layer 1
10
50.140928
20
36.466618
11
55.972788
21
40.865318
0
LINE
8
Layer 1
10
55.972788
20
40.865318
11
72.702588
21
53.827918
0
LINE
8
Layer 1
10
72.702588
20
53.827918
11
80.709018
21
60.109898
0
LINE
8
Layer 1
10
80.709018
20
60.109898
11
84.707878
21
63.255808
0
LINE
8
Layer 1
10
84.707878
20
63.255808
11
85.175802
21
63.622657
0
LINE
8
Layer 1
10
85.175802
20
63.622657
11
85.248127
21
63.675811
0
LINE
8
Layer 1
10
85.248127
20
63.675811
11
85.401738
21
63.788341
0
LINE
8
Layer 1
10
85.401738
20
63.788341
11
85.770825
21
64.140128
0
LINE
8
Layer 1
10
85.770825
20
64.140128
11
85.873026
21
64.244942
0
LINE
8
Layer 1
10
85.873026
20
64.244942
11
85.925059
21
64.297847
0
LINE
8
Layer 1
10
85.925059
20
64.297847
11
85.940745
21
64.264486
0
LINE
8
Layer 1
10
85.940745
20
64.264486
11
85.984187
21
64.078135
0
LINE
8
Layer 1
10
85.984187
20
64.078135
11
86.026636
21
63.878841
0
LINE
8
Layer 1
10
86.026636
20
63.878841
11
85.984687
21
63.610084
0
LINE
8
Layer 1
10
85.984687
20
63.610084
11
85.930910
21
63.322531
0
LINE
8
Layer 1
10
85.930910
20
63.322531
11
85.917464
21
63.249085
0
LINE
8
Layer 1
10
85.917464
20
63.249085
11
85.928545
21
62.934520
0
LINE
8
Layer 1
10
85.928545
20
62.934520
11
85.951325
21
62.298169
0
LINE
8
Layer 1
10
85.951325
20
62.298169
11
86.044687
21
59.752639
0
LINE
8
Layer 1
10
86.044687
20
59.752639
11
86.429708
21
49.572639
0
LINE
8
Layer 1
10
86.429708
20
49.572639
11
86.858050
21
36.793039
0
LINE
8
Layer 1
10
86.858050
20
36.793039
11
87.621497
21
18.469839
0
LINE
8
Layer 1
10
87.621497
20
18.469839
11
88.033284
21
10.261249
0
LINE
8
Layer 1
10
88.033284
20
10.261249
11
88.092927
21
8.305923
0
LINE
8
Layer 1
10
88.092927
20
8.305923
11
88.130256
21
10.968432
0
LINE
8
Layer 1
10
88.130256
20
10.968432
11
88.307517
21
17.272322
0
LINE
8
Layer 1
10
88.307517
20
17.272322
11
88.815655
21
33.556822
0
LINE
8
Layer 1
10
88.815655
20
33.556822
11
89.518106
21
53.441522
0
LINE
8
Layer 1
10
89.518106
20
53.441522
11
89.748648
21
59.110182
0
LINE
8
Layer 1
10
89.748648
20
59.110182
11
89.865163
21
61.945632
0
LINE
8
Layer 1
10
89.865163
20
61.945632
11
89.922423
21
63.446012
0
LINE
8
Layer 1
10
89.922423
20
63.446012
11
89.980307
21
65.887232
0
LINE
8
Layer 1
10
89.980307
20
65.887232
11
90.009435
21
67.118232
0
LINE
8
Layer 1
10
90.009435
20
67.118232
11
90.011200
21
68.309000
0
LINE
8
Layer 1
10
90.011200
20
68.309000
11
90.011200
21
68.309000
0
LINE
8
Layer 1
10
28.115000
20
52.871200
11
30.115050
21
51.453100
0
LINE
8
Layer 1
10
30.115050
20
51.453100
11
31.809500
21
50.083050
0
LINE
8
Layer 1
10
31.809500
20
50.083050
11
31.896390
21
49.831971
0
LINE
8
Layer 1
10
31.896390
20
49.831971
11
31.630743
21
49.956950
0
LINE
8
Layer 1
10
31.630743
20
49.956950
11
27.920200
21
52.743200
0
LINE
8
Layer 1
10
27.920200
20
52.743200
11
27.787750
21
52.922081
0
LINE
8
Layer 1
10
27.787750
20
52.922081
11
28.115000
21
52.871200
0
LINE
8
Layer 1
10
28.115000
20
52.871200
11
28.115000
21
52.871200
0
LINE
8
Layer 1
10
40.800300
20
39.764700
11
32.572920
21
34.114090
0
LINE
8
Layer 1
10
32.572920
20
34.114090
11
24.422900
21
28.332700
0
LINE
8
Layer 1
10
24.422900
20
28.332700
11
16.294200
21
22.521900
0
LINE
8
Layer 1
10
16.294200
20
22.521900
11
12.237820
21
19.605540
0
LINE
8
Layer 1
10
12.237820
20
19.605540
11
10.209770
21
18.147110
0
LINE
8
Layer 1
10
10.209770
20
18.147110
11
9.195750
21
17.417896
0
LINE
8
Layer 1
10
9.195750
20
17.417896
11
8.689607
21
17.051919
0
LINE
8
Layer 1
10
8.689607
20
17.051919
11
8.665085
21
17.033371
0
LINE
8
Layer 1
10
8.665085
20
17.033371
11
8.673424
21
16.984448
0
LINE
8
Layer 1
10
8.673424
20
16.984448
11
8.644296
21
16.953079
0
LINE
8
Layer 1
10
8.644296
20
16.953079
11
8.595754
21
16.927679
0
LINE
8
Layer 1
10
8.595754
20
16.927679
11
8.583305
21
16.981705
0
LINE
8
Layer 1
10
8.583305
20
16.981705
11
8.567871
21
17.770798
0
LINE
8
Layer 1
10
8.567871
20
17.770798
11
8.545680
21
19.367500
0
LINE
8
Layer 1
10
8.545680
20
19.367500
11
8.443978
21
30.936500
0
LINE
8
Layer 1
10
8.443978
20
30.936500
11
8.407507
21
39.320240
0
LINE
8
Layer 1
10
8.407507
20
39.320240
11
8.328741
21
43.306776
0
LINE
8
Layer 1
10
8.328741
20
43.306776
11
8.324477
21
47.296680
0
LINE
8
Layer 1
10
8.324477
20
47.296680
11
8.264104
21
48.476270
0
LINE
8
Layer 1
10
8.264104
20
48.476270
11
8.131172
21
50.642351
0
LINE
8
Layer 1
10
8.131172
20
50.642351
11
8.087588
21
52.829530
0
LINE
8
Layer 1
10
8.087588
20
52.829530
11
8.044455
21
55.202886
0
LINE
8
Layer 1
10
8.044455
20
55.202886
11
7.912068
21
57.578020
0
LINE
8
Layer 1
10
7.912068
20
57.578020
11
7.687253
21
61.270530
0
LINE
8
Layer 1
10
7.687253
20
61.270530
11
7.687501
21
61.322812
0
LINE
8
Layer 1
10
7.687501
20
61.322812
11
7.692480
21
61.374969
0
LINE
8
Layer 1
10
7.692480
20
61.374969
11
7.705180
21
61.441940
0
LINE
8
Layer 1
10
7.705180
20
61.441940
11
7.751862
21
61.557959
0
LINE
8
Layer 1
10
7.751862
20
61.557959
11
7.936593
21
61.645344
0
LINE
8
Layer 1
10
7.936593
20
61.645344
11
7.967355
21
61.759743
0
LINE
8
Layer 1
10
7.967355
20
61.759743
11
7.929255
21
61.954682
0
LINE
8
Layer 1
10
7.929255
20
61.954682
11
7.906598
21
62.062609
0
LINE
8
Layer 1
10
7.906598
20
62.062609
11
7.954898
21
62.058251
0
LINE
8
Layer 1
10
7.954898
20
62.058251
11
8.091330
21
62.016050
0
LINE
8
Layer 1
10
8.091330
20
62.016050
11
8.164775
21
61.991031
0
LINE
8
Layer 1
10
8.164775
20
61.991031
11
8.202875
21
61.977462
0
LINE
8
Layer 1
10
8.202875
20
61.977462
11
8.241215
21
61.938874
0
LINE
8
Layer 1
10
8.241215
20
61.938874
11
8.403041
21
61.775185
0
LINE
8
Layer 1
10
8.403041
20
61.775185
11
8.489184
21
61.689914
0
LINE
8
Layer 1
10
8.489184
20
61.689914
11
8.533493
21
61.646345
0
LINE
8
Layer 1
10
8.533493
20
61.646345
11
8.643410
21
61.568170
0
LINE
8
Layer 1
10
8.643410
20
61.568170
11
8.833743
21
61.438085
0
LINE
8
Layer 1
10
8.833743
20
61.438085
11
14.933603
21
57.285865
0
LINE
8
Layer 1
10
14.933603
20
57.285865
11
18.572213
21
54.845145
0
LINE
8
Layer 1
10
18.572213
20
54.845145
11
22.204473
21
52.442145
0
LINE
8
Layer 1
10
22.204473
20
52.442145
11
24.029534
21
51.205979
0
LINE
8
Layer 1
10
24.029534
20
51.205979
11
25.698303
21
49.954125
0
LINE
8
Layer 1
10
25.698303
20
49.954125
11
27.025903
21
49.092335
0
LINE
8
Layer 1
10
27.025903
20
49.092335
11
32.634443
21
45.419375
0
LINE
8
Layer 1
10
32.634443
20
45.419375
11
40.549253
21
40.034165
0
LINE
8
Layer 1
10
40.549253
20
40.034165
11
40.873029
21
39.814828
0
LINE
8
Layer 1
10
40.873029
20
39.814828
11
40.800300
21
39.764800
0
LINE
8
Layer 1
10
40.800300
20
39.764800
11
40.800300
21
39.764700
0
LINE
8
Layer 1
10
41.079265
20
42.426000
11
40.601745
21
42.653804
0
LINE
8
Layer 1
10
40.601745
20
42.653804
11
40.247720
21
42.907124
0
LINE
8
Layer 1
10
40.247720
20
42.907124
11
38.132520
21
44.499874
0
LINE
8
Layer 1
10
38.132520
20
44.499874
11
37.390463
21
45.055348
0
LINE
8
Layer 1
10
37.390463
20
45.055348
11
37.197660
21
45.335395
0
LINE
8
Layer 1
10
37.197660
20
45.335395
11
37.525546
21
45.283362
0
LINE
8
Layer 1
10
37.525546
20
45.283362
11
38.290910
21
44.912471
0
LINE
8
Layer 1
10
38.290910
20
44.912471
11
38.978376
21
44.411739
0
LINE
8
Layer 1
10
38.978376
20
44.411739
11
41.034696
21
42.545999
0
LINE
8
Layer 1
10
41.034696
20
42.545999
11
41.079300
21
42.426100
0
LINE
8
Layer 1
10
41.079300
20
42.426100
11
41.079265
21
42.426000
0
LINE
8
Layer 1
10
67.172465
20
22.750400
11
67.527114
21
22.456375
0
LINE
8
Layer 1
10
67.527114
20
22.456375
11
67.273546
21
22.608366
0
LINE
8
Layer 1
10
67.273546
20
22.608366
11
66.078396
21
23.463558
0
LINE
8
Layer 1
10
66.078396
20
23.463558
11
67.172500
21
22.750500
0
LINE
8
Layer 1
10
67.172500
20
22.750500
11
67.172465
21
22.750400
0
LINE
8
Layer 1
10
65.850500
20
24.947800
11
65.023552
21
25.515704
0
LINE
8
Layer 1
10
65.023552
20
25.515704
11
64.375390
21
25.702783
0
LINE
8
Layer 1
10
64.375390
20
25.702783
11
68.268560
21
22.936793
0
LINE
8
Layer 1
10
68.268560
20
22.936793
11
69.863550
21
21.774383
0
LINE
8
Layer 1
10
69.863550
20
21.774383
11
70.254549
21
21.541601
0
LINE
8
Layer 1
10
70.254549
20
21.541601
11
69.926912
21
21.855432
0
LINE
8
Layer 1
10
69.926912
20
21.855432
11
65.850500
21
24.947800
0
LINE
8
Layer 1
10
65.850500
20
24.947800
11
65.850500
21
24.947800
0
LINE
8
Layer 1
10
88.031900
20
8.349400
11
87.554759
21
8.689478
0
LINE
8
Layer 1
10
87.554759
20
8.689478
11
86.857538
21
9.182923
0
LINE
8
Layer 1
10
86.857538
20
9.182923
11
87.482561
21
8.736781
0
LINE
8
Layer 1
10
87.482561
20
8.736781
11
87.983595
21
8.383216
0
LINE
8
Layer 1
10
87.983595
20
8.383216
11
88.090746
21
8.307754
0
LINE
8
Layer 1
10
88.090746
20
8.307754
11
88.031900
21
8.349400
0
LINE
8
Layer 1
10
88.031900
20
8.349400
11
88.031900
21
8.349400
0
LINE
8
Layer 1
10
86.857500
20
9.182930
11
86.642769
21
9.336177
0
LINE
8
Layer 1
10
86.642769
20
9.336177
11
86.699778
21
9.294600
0
LINE
8
Layer 1
10
86.699778
20
9.294600
11
86.857500
21
9.182930
0
LINE
8
Layer 1
10
86.857500
20
9.182930
11
86.857500
21
9.182930
0
LINE
8
Layer 1
10
54.093500
20
33.732400
11
54.286571
21
33.624848
0
LINE
8
Layer 1
10
54.286571
20
33.624848
11
54.045822
21
33.827503
0
LINE
8
Layer 1
10
54.045822
20
33.827503
11
53.779687
21
34.008749
0
LINE
8
Layer 1
10
53.779687
20
34.008749
11
54.093500
21
33.732400
0
LINE
8
Layer 1
10
54.093500
20
33.732400
11
54.093500
21
33.732400
 0 
ENDSEC
 0 
EOF