999
"DXF R12 Output" (www.mydxf.blogspot.com)
 0 
SECTION
 2 
HEADER
 9 
$ACADVER
 1 
AC1009
 9 
$EXTMIN
 10 
 0 
 20 
 0 
 9 
$EXTMAX
 10 
 8.5 
 20 
 11 
 0 
ENDSEC
 0 
SECTION
 2 
ENTITIES
0
LINE
8
Layer 1
10
91.367300
20
109.889000
11
91.324540
21
111.076060
0
LINE
8
Layer 1
10
91.324540
20
111.076060
11
91.147464
21
115.838370
0
LINE
8
Layer 1
10
91.147464
20
115.838370
11
91.124872
21
116.435137
0
LINE
8
Layer 1
10
91.124872
20
116.435137
11
91.113543
21
116.733643
0
LINE
8
Layer 1
10
91.113543
20
116.733643
11
91.107879
21
116.883023
0
LINE
8
Layer 1
10
91.107879
20
116.883023
11
91.106500
21
116.920000
0
LINE
8
Layer 1
10
91.106500
20
116.920000
11
91.094985
21
116.937303
0
LINE
8
Layer 1
10
91.094985
20
116.937303
11
91.033000
21
116.894000
0
LINE
8
Layer 1
10
91.033000
20
116.894000
11
90.040070
21
116.204992
0
LINE
8
Layer 1
10
90.040070
20
116.204992
11
88.050230
21
114.824242
0
LINE
8
Layer 1
10
88.050230
20
114.824242
11
86.055340
21
113.441242
0
LINE
8
Layer 1
10
86.055340
20
113.441242
11
85.055000
21
112.747755
0
LINE
8
Layer 1
10
85.055000
20
112.747755
11
84.032510
21
112.027502
0
LINE
8
Layer 1
10
84.032510
20
112.027502
11
80.083130
21
109.254912
0
LINE
8
Layer 1
10
80.083130
20
109.254912
11
79.090013
21
108.559184
0
LINE
8
Layer 1
10
79.090013
20
108.559184
11
78.702804
21
108.290178
0
LINE
8
Layer 1
10
78.702804
20
108.290178
11
78.449482
21
108.117644
0
LINE
8
Layer 1
10
78.449482
20
108.117644
11
77.436200
21
107.428000
0
LINE
8
Layer 1
10
77.436200
20
107.428000
11
73.401930
21
104.640600
0
LINE
8
Layer 1
10
73.401930
20
104.640600
11
65.392070
21
98.960600
0
LINE
8
Layer 1
10
65.392070
20
98.960600
11
57.403490
21
93.251110
0
LINE
8
Layer 1
10
57.403490
20
93.251110
11
49.433200
21
87.516200
0
LINE
8
Layer 1
10
49.433200
20
87.516200
11
45.610860
21
84.748340
0
LINE
8
Layer 1
10
45.610860
20
84.748340
11
45.593927
21
84.724811
0
LINE
8
Layer 1
10
45.593927
20
84.724811
11
44.470227
21
85.494484
0
LINE
8
Layer 1
10
44.470227
20
85.494484
11
39.317917
21
89.076074
0
LINE
8
Layer 1
10
39.317917
20
89.076074
11
30.045877
21
95.655444
0
LINE
8
Layer 1
10
30.045877
20
95.655444
11
23.348500
21
100.454000
0
LINE
8
Layer 1
10
23.348500
20
100.454000
11
20.127887
21
102.685375
0
LINE
8
Layer 1
10
20.127887
20
102.685375
11
16.948300
21
104.979000
0
LINE
8
Layer 1
10
16.948300
20
104.979000
11
15.973545
21
105.609377
0
LINE
8
Layer 1
10
15.973545
20
105.609377
11
14.170814
21
106.748902
0
LINE
8
Layer 1
10
14.170814
20
106.748902
11
12.403655
21
107.972917
0
LINE
8
Layer 1
10
12.403655
20
107.972917
11
12.113424
21
108.170842
0
LINE
8
Layer 1
10
12.113424
20
108.170842
11
11.659700
21
108.490000
0
LINE
8
Layer 1
10
11.659700
20
108.490000
11
10.754964
21
109.131208
0
LINE
8
Layer 1
10
10.754964
20
109.131208
11
8.946890
21
110.418000
0
LINE
8
Layer 1
10
8.946890
20
110.418000
11
7.140410
21
111.677270
0
LINE
8
Layer 1
10
7.140410
20
111.677270
11
6.244575
21
112.279139
0
LINE
8
Layer 1
10
6.244575
20
112.279139
11
5.377248
21
112.829723
0
LINE
8
Layer 1
10
5.377248
20
112.829723
11
2.746758
21
114.508243
0
LINE
8
Layer 1
10
2.746758
20
114.508243
11
1.436028
21
115.387082
0
LINE
8
Layer 1
10
1.436028
20
115.387082
11
0.776644
21
115.840000
0
LINE
8
Layer 1
10
0.776644
20
115.840000
11
0.611143
21
115.955147
0
LINE
8
Layer 1
10
0.611143
20
115.955147
11
0.569690
21
115.984027
0
LINE
8
Layer 1
10
0.569690
20
115.984027
11
0.561850
21
115.946308
0
LINE
8
Layer 1
10
0.561850
20
115.946308
11
0.558181
21
115.846847
0
LINE
8
Layer 1
10
0.558181
20
115.846847
11
0.542493
21
115.451000
0
LINE
8
Layer 1
10
0.542493
20
115.451000
11
0.053778
21
109.388230
0
LINE
8
Layer 1
10
0.053778
20
109.388230
11
0.021909
21
109.100677
0
LINE
8
Layer 1
10
0.021909
20
109.100677
11
0.008902
21
108.765696
0
LINE
8
Layer 1
10
0.008902
20
108.765696
11
0.000000
21
108.036000
0
LINE
8
Layer 1
10
0.000000
20
108.036000
11
0.009708
21
106.510850
0
LINE
8
Layer 1
10
0.009708
20
106.510850
11
0.047179
21
103.428000
0
LINE
8
Layer 1
10
0.047179
20
103.428000
11
0.069460
21
101.890000
0
LINE
8
Layer 1
10
0.069460
20
101.890000
11
0.080416
21
101.351489
0
LINE
8
Layer 1
10
0.080416
20
101.351489
11
0.090935
21
100.959121
0
LINE
8
Layer 1
10
0.090935
20
100.959121
11
0.497679
21
86.462121
0
LINE
8
Layer 1
10
0.497679
20
86.462121
11
0.652038
21
82.159281
0
LINE
8
Layer 1
10
0.652038
20
82.159281
11
0.833160
21
77.883201
0
LINE
8
Layer 1
10
0.833160
20
77.883201
11
0.900965
21
75.718133
0
LINE
8
Layer 1
10
0.900965
20
75.718133
11
0.864343
21
73.668371
0
LINE
8
Layer 1
10
0.864343
20
73.668371
11
0.944011
21
72.114961
0
LINE
8
Layer 1
10
0.944011
20
72.114961
11
1.254156
21
65.533971
0
LINE
8
Layer 1
10
1.254156
20
65.533971
11
1.528267
21
56.130361
0
LINE
8
Layer 1
10
1.528267
20
56.130361
11
1.668929
21
52.225611
0
LINE
8
Layer 1
10
1.668929
20
52.225611
11
1.897478
21
46.864421
0
LINE
8
Layer 1
10
1.897478
20
46.864421
11
1.948580
21
45.697651
0
LINE
8
Layer 1
10
1.948580
20
45.697651
11
2.192067
21
41.038161
0
LINE
8
Layer 1
10
2.192067
20
41.038161
11
2.429018
21
36.409801
0
LINE
8
Layer 1
10
2.429018
20
36.409801
11
2.567307
21
31.746461
0
LINE
8
Layer 1
10
2.567307
20
31.746461
11
2.657990
21
29.814131
0
LINE
8
Layer 1
10
2.657990
20
29.814131
11
2.968697
21
22.868291
0
LINE
8
Layer 1
10
2.968697
20
22.868291
11
3.127475
21
18.582501
0
LINE
8
Layer 1
10
3.127475
20
18.582501
11
3.292293
21
13.930861
0
LINE
8
Layer 1
10
3.292293
20
13.930861
11
3.494082
21
7.329581
0
LINE
8
Layer 1
10
3.494082
20
7.329581
11
3.521221
21
6.696839
0
LINE
8
Layer 1
10
3.521221
20
6.696839
11
3.589313
21
5.763599
0
LINE
8
Layer 1
10
3.589313
20
5.763599
11
3.638357
21
2.698979
0
LINE
8
Layer 1
10
3.638357
20
2.698979
11
3.662196
21
1.753166
0
LINE
8
Layer 1
10
3.662196
20
1.753166
11
3.663938
21
3.344166
0
LINE
8
Layer 1
10
3.663938
20
3.344166
11
3.659394
21
9.502666
0
LINE
8
Layer 1
10
3.659394
20
9.502666
11
3.643211
21
13.788706
0
LINE
8
Layer 1
10
3.643211
20
13.788706
11
3.632010
21
17.240716
0
LINE
8
Layer 1
10
3.632010
20
17.240716
11
3.663705
21
20.666067
0
LINE
8
Layer 1
10
3.663705
20
20.666067
11
3.567028
21
24.058096
0
LINE
8
Layer 1
10
3.567028
20
24.058096
11
3.618441
21
25.776316
0
LINE
8
Layer 1
10
3.618441
20
25.776316
11
3.671470
21
27.108646
0
LINE
8
Layer 1
10
3.671470
20
27.108646
11
3.655288
21
29.366506
0
LINE
8
Layer 1
10
3.655288
20
29.366506
11
3.689022
21
33.223206
0
LINE
8
Layer 1
10
3.689022
20
33.223206
11
3.718401
21
34.338566
0
LINE
8
Layer 1
10
3.718401
20
34.338566
11
3.936233
21
33.462882
0
LINE
8
Layer 1
10
3.936233
20
33.462882
11
4.132737
21
32.516156
0
LINE
8
Layer 1
10
4.132737
20
32.516156
11
4.225540
21
35.026706
0
LINE
8
Layer 1
10
4.225540
20
35.026706
11
4.317096
21
37.950036
0
LINE
8
Layer 1
10
4.317096
20
37.950036
11
4.197025
21
37.854869
0
LINE
8
Layer 1
10
4.197025
20
37.854869
11
4.085872
21
37.887795
0
LINE
8
Layer 1
10
4.085872
20
37.887795
11
4.030477
21
38.896845
0
LINE
8
Layer 1
10
4.030477
20
38.896845
11
4.112449
21
41.578185
0
LINE
8
Layer 1
10
4.112449
20
41.578185
11
4.247202
21
46.164975
0
LINE
8
Layer 1
10
4.247202
20
46.164975
11
4.210479
21
47.681285
0
LINE
8
Layer 1
10
4.210479
20
47.681285
11
4.275083
21
51.060239
0
LINE
8
Layer 1
10
4.275083
20
51.060239
11
4.533135
21
54.429945
0
LINE
8
Layer 1
10
4.533135
20
54.429945
11
4.744693
21
56.448580
0
LINE
8
Layer 1
10
4.744693
20
56.448580
11
4.730936
21
58.478225
0
LINE
8
Layer 1
10
4.730936
20
58.478225
11
4.807494
21
61.125835
0
LINE
8
Layer 1
10
4.807494
20
61.125835
11
4.873247
21
62.438051
0
LINE
8
Layer 1
10
4.873247
20
62.438051
11
4.786457
21
63.749045
0
LINE
8
Layer 1
10
4.786457
20
63.749045
11
4.612044
21
65.774365
0
LINE
8
Layer 1
10
4.612044
20
65.774365
11
4.785134
21
67.225325
0
LINE
8
Layer 1
10
4.785134
20
67.225325
11
4.943912
21
69.041265
0
LINE
8
Layer 1
10
4.943912
20
69.041265
11
5.021881
21
71.493645
0
LINE
8
Layer 1
10
5.021881
20
71.493645
11
5.293360
21
73.932200
0
LINE
8
Layer 1
10
5.293360
20
73.932200
11
5.393317
21
76.191800
0
LINE
8
Layer 1
10
5.393317
20
76.191800
11
5.377310
21
78.112960
0
LINE
8
Layer 1
10
5.377310
20
78.112960
11
5.375018
21
80.042520
0
LINE
8
Layer 1
10
5.375018
20
80.042520
11
5.425699
21
81.952727
0
LINE
8
Layer 1
10
5.425699
20
81.952727
11
5.627717
21
83.798510
0
LINE
8
Layer 1
10
5.627717
20
83.798510
11
5.686597
21
84.957440
0
LINE
8
Layer 1
10
5.686597
20
84.957440
11
5.757489
21
89.239169
0
LINE
8
Layer 1
10
5.757489
20
89.239169
11
5.910540
21
93.502500
0
LINE
8
Layer 1
10
5.910540
20
93.502500
11
6.058924
21
97.793140
0
LINE
8
Layer 1
10
6.058924
20
97.793140
11
6.116808
21
99.941700
0
LINE
8
Layer 1
10
6.116808
20
99.941700
11
6.111446
21
101.019710
0
LINE
8
Layer 1
10
6.111446
20
101.019710
11
6.096694
21
101.560086
0
LINE
8
Layer 1
10
6.096694
20
101.560086
11
6.074723
21
101.689172
0
LINE
8
Layer 1
10
6.074723
20
101.689172
11
6.048894
21
101.801829
0
LINE
8
Layer 1
10
6.048894
20
101.801829
11
6.081321
21
102.239259
0
LINE
8
Layer 1
10
6.081321
20
102.239259
11
6.092892
21
102.893785
0
LINE
8
Layer 1
10
6.092892
20
102.893785
11
6.119097
21
103.188806
0
LINE
8
Layer 1
10
6.119097
20
103.188806
11
6.155692
21
103.469264
0
LINE
8
Layer 1
10
6.155692
20
103.469264
11
6.207663
21
104.032173
0
LINE
8
Layer 1
10
6.207663
20
104.032173
11
6.215320
21
104.178928
0
LINE
8
Layer 1
10
6.215320
20
104.178928
11
6.218247
21
104.253999
0
LINE
8
Layer 1
10
6.218247
20
104.253999
11
6.269160
21
104.231704
0
LINE
8
Layer 1
10
6.269160
20
104.231704
11
6.521421
21
104.046724
0
LINE
8
Layer 1
10
6.521421
20
104.046724
11
6.952191
21
103.723820
0
LINE
8
Layer 1
10
6.952191
20
103.723820
11
7.969081
21
102.829292
0
LINE
8
Layer 1
10
7.969081
20
102.829292
11
8.192152
21
102.631491
0
LINE
8
Layer 1
10
8.192152
20
102.631491
11
8.219166
21
102.607341
0
LINE
8
Layer 1
10
8.219166
20
102.607341
11
8.273070
21
102.563272
0
LINE
8
Layer 1
10
8.273070
20
102.563272
11
8.465023
21
102.412402
0
LINE
8
Layer 1
10
8.465023
20
102.412402
11
8.848924
21
102.110783
0
LINE
8
Layer 1
10
8.848924
20
102.110783
11
10.384284
21
100.904053
0
LINE
8
Layer 1
10
10.384284
20
100.904053
11
16.537854
21
96.087223
0
LINE
8
Layer 1
10
16.537854
20
96.087223
11
29.572354
21
86.044623
0
LINE
8
Layer 1
10
29.572354
20
86.044623
11
36.455584
21
80.840403
0
LINE
8
Layer 1
10
36.455584
20
80.840403
11
39.908654
21
78.251053
0
LINE
8
Layer 1
10
39.908654
20
78.251053
11
42.652614
21
76.221123
0
LINE
8
Layer 1
10
42.652614
20
76.221123
11
44.333494
21
74.969473
0
LINE
8
Layer 1
10
44.333494
20
74.969473
11
45.176550
21
74.339472
0
LINE
8
Layer 1
10
45.176550
20
74.339472
11
45.598729
21
74.023908
0
LINE
8
Layer 1
10
45.598729
20
74.023908
11
46.021283
21
74.321793
0
LINE
8
Layer 1
10
46.021283
20
74.321793
11
49.415533
21
76.781183
0
LINE
8
Layer 1
10
49.415533
20
76.781183
11
50.917903
21
77.856953
0
LINE
8
Layer 1
10
50.917903
20
77.856953
11
51.803281
21
78.468528
0
LINE
8
Layer 1
10
51.803281
20
78.468528
11
60.333435
21
84.408649
0
LINE
8
Layer 1
10
60.333435
20
84.408649
11
68.759481
21
90.516628
0
LINE
8
Layer 1
10
68.759481
20
90.516628
11
82.663481
21
100.778828
0
LINE
8
Layer 1
10
82.663481
20
100.778828
11
83.530185
21
101.423395
0
LINE
8
Layer 1
10
83.530185
20
101.423395
11
83.597904
21
101.473811
0
LINE
8
Layer 1
10
83.597904
20
101.473811
11
83.601009
21
101.333022
0
LINE
8
Layer 1
10
83.601009
20
101.333022
11
84.301842
21
80.546922
0
LINE
8
Layer 1
10
84.301842
20
80.546922
11
85.106307
21
60.560822
0
LINE
8
Layer 1
10
85.106307
20
60.560822
11
85.866269
21
40.553222
0
LINE
8
Layer 1
10
85.866269
20
40.553222
11
86.294611
21
27.994822
0
LINE
8
Layer 1
10
86.294611
20
27.994822
11
87.058120
21
9.988722
0
LINE
8
Layer 1
10
87.058120
20
9.988722
11
87.469845
21
1.922292
0
LINE
8
Layer 1
10
87.469845
20
1.922292
11
87.529525
21
0.000822
0
LINE
8
Layer 1
10
87.529525
20
0.000822
11
87.566929
21
2.617275
0
LINE
8
Layer 1
10
87.566929
20
2.617275
11
87.744068
21
8.811995
0
LINE
8
Layer 1
10
87.744068
20
8.811995
11
88.252265
21
24.814495
0
LINE
8
Layer 1
10
88.252265
20
24.814495
11
88.954716
21
44.354895
0
LINE
8
Layer 1
10
88.954716
20
44.354895
11
89.885766
21
66.649695
0
LINE
8
Layer 1
10
89.885766
20
66.649695
11
90.519256
21
81.912895
0
LINE
8
Layer 1
10
90.519256
20
81.912895
11
90.891769
21
91.310415
0
LINE
8
Layer 1
10
90.891769
20
91.310415
11
91.126168
21
97.575215
0
LINE
8
Layer 1
10
91.126168
20
97.575215
11
91.239136
21
100.708425
0
LINE
8
Layer 1
10
91.239136
20
100.708425
11
91.265500
21
101.492000
0
LINE
8
Layer 1
10
91.265500
20
101.492000
11
91.291332
21
102.939970
0
LINE
8
Layer 1
10
91.291332
20
102.939970
11
91.341745
21
106.083760
0
LINE
8
Layer 1
10
91.341745
20
106.083760
11
91.380460
21
108.653940
0
LINE
8
Layer 1
10
91.380460
20
108.653940
11
91.388427
21
109.295893
0
LINE
8
Layer 1
10
91.388427
20
109.295893
11
91.367300
21
109.889000
0
LINE
8
Layer 1
10
3.092820
20
24.526500
11
3.067364
21
24.815921
0
LINE
8
Layer 1
10
3.067364
20
24.815921
11
3.060142
21
26.260051
0
LINE
8
Layer 1
10
3.060142
20
26.260051
11
3.123255
21
24.978141
0
LINE
8
Layer 1
10
3.123255
20
24.978141
11
3.092820
21
24.526500
0
LINE
8
Layer 1
10
3.092820
20
24.526500
11
3.092820
21
24.526500
0
LINE
8
Layer 1
10
3.747719
20
48.208800
11
3.701474
21
48.271041
0
LINE
8
Layer 1
10
3.701474
20
48.271041
11
3.711245
21
49.025028
0
LINE
8
Layer 1
10
3.711245
20
49.025028
11
3.753135
21
48.952455
0
LINE
8
Layer 1
10
3.753135
20
48.952455
11
3.747719
21
48.208800
0
LINE
8
Layer 1
10
4.155087
20
59.902400
11
3.848114
21
57.190560
0
LINE
8
Layer 1
10
3.848114
20
57.190560
11
3.777034
21
57.085994
0
LINE
8
Layer 1
10
3.777034
20
57.085994
11
3.681806
21
57.597490
0
LINE
8
Layer 1
10
3.681806
20
57.597490
11
3.679690
21
58.025212
0
LINE
8
Layer 1
10
3.679690
20
58.025212
11
3.730851
21
60.626632
0
LINE
8
Layer 1
10
3.730851
20
60.626632
11
3.746174
21
61.537359
0
LINE
8
Layer 1
10
3.746174
20
61.537359
11
3.860126
21
61.852152
0
LINE
8
Layer 1
10
3.860126
20
61.852152
11
4.010127
21
61.561113
0
LINE
8
Layer 1
10
4.010127
20
61.561113
11
4.158020
21
60.738347
0
LINE
8
Layer 1
10
4.158020
20
60.738347
11
4.155080
21
59.902400
0
LINE
8
Layer 1
10
4.155080
20
59.902400
11
4.155087
21
59.902400
0
LINE
8
Layer 1
10
4.549944
20
68.876680
11
4.397330
21
68.662945
0
LINE
8
Layer 1
10
4.397330
20
68.662945
11
4.342991
21
68.946392
0
LINE
8
Layer 1
10
4.342991
20
68.946392
11
4.426458
21
73.505402
0
LINE
8
Layer 1
10
4.426458
20
73.505402
11
4.493678
21
73.713910
0
LINE
8
Layer 1
10
4.493678
20
73.713910
11
4.644300
21
73.424116
0
LINE
8
Layer 1
10
4.644300
20
73.424116
11
4.667205
21
71.014896
0
LINE
8
Layer 1
10
4.667205
20
71.014896
11
4.549940
21
68.876700
0
LINE
8
Layer 1
10
4.549940
20
68.876700
11
4.549944
21
68.876680
0
LINE
8
Layer 1
10
3.916510
20
24.212700
11
3.909229
21
22.273270
0
LINE
8
Layer 1
10
3.909229
20
22.273270
11
3.949747
21
21.827873
0
LINE
8
Layer 1
10
3.949747
20
21.827873
11
4.012070
21
22.269400
0
LINE
8
Layer 1
10
4.012070
20
22.269400
11
4.129144
21
27.296230
0
LINE
8
Layer 1
10
4.129144
20
27.296230
11
4.104816
21
28.281678
0
LINE
8
Layer 1
10
4.104816
20
28.281678
11
3.876634
21
28.905530
0
LINE
8
Layer 1
10
3.876634
20
28.905530
11
3.916510
21
24.212700
0
LINE
8
Layer 1
10
3.916510
20
24.212700
11
3.916510
21
24.212700
0
LINE
8
Layer 1
10
3.676760
20
0.075237
11
3.672716
21
0.650970
0
LINE
8
Layer 1
10
3.672716
20
0.650970
11
3.663939
21
1.502925
0
LINE
8
Layer 1
10
3.663939
20
1.502925
11
3.668796
21
0.735741
0
LINE
8
Layer 1
10
3.668796
20
0.735741
11
3.675858
21
0.133200
0
LINE
8
Layer 1
10
3.675858
20
0.133200
11
3.677495
21
0.004421
0
LINE
8
Layer 1
10
3.677495
20
0.004421
11
3.676760
21
0.075237
0
LINE
8
Layer 1
10
3.676760
20
0.075237
11
3.676760
21
0.075237
0
LINE
8
Layer 1
10
3.663940
20
1.502910
11
3.662385
21
1.749631
0
LINE
8
Layer 1
10
3.662385
20
1.749631
11
3.662137
21
1.680171
0
LINE
8
Layer 1
10
3.662137
20
1.680171
11
3.663940
21
1.502910
0
LINE
8
Layer 1
10
3.663940
20
1.502910
11
3.663940
21
1.502910
0
LINE
8
Layer 1
10
4.358350
20
41.716600
11
4.384241
21
41.500997
0
LINE
8
Layer 1
10
4.384241
20
41.500997
11
4.407460
21
41.809300
0
LINE
8
Layer 1
10
4.407460
20
41.809300
11
4.398310
21
42.125733
0
LINE
8
Layer 1
10
4.398310
20
42.125733
11
4.358350
21
41.716600
0
LINE
8
Layer 1
10
4.358350
20
41.716600
11
4.358350
21
41.716600
 0 
ENDSEC
 0 
EOF