999
"DXF R12 Output" (www.mydxf.blogspot.com)
 0 
SECTION
 2 
HEADER
 9 
$ACADVER
 1 
AC1009
 9 
$EXTMIN
 10 
 0 
 20 
 0 
 9 
$EXTMAX
 10 
 8.5 
 20 
 11 
 0 
ENDSEC
 0 
SECTION
 2 
ENTITIES
0
LINE
8
Layer 1
10
83.198700
20
82.342700
11
83.232620
21
82.312948
0
LINE
8
Layer 1
10
83.232620
20
82.312948
11
83.313068
21
82.244981
0
LINE
8
Layer 1
10
83.313068
20
82.244981
11
83.200461
21
82.341455
0
LINE
8
Layer 1
10
83.200461
20
82.341455
11
83.198700
21
82.342700
0
LINE
8
Layer 1
10
79.588500
20
85.497800
11
77.582180
21
87.231580
0
LINE
8
Layer 1
10
77.582180
20
87.231580
11
75.967490
21
88.629390
0
LINE
8
Layer 1
10
75.967490
20
88.629390
11
72.750560
21
91.357790
0
LINE
8
Layer 1
10
72.750560
20
91.357790
11
71.984437
21
92.096591
0
LINE
8
Layer 1
10
71.984437
20
92.096591
11
71.398999
21
92.679165
0
LINE
8
Layer 1
10
71.398999
20
92.679165
11
70.337069
21
93.586766
0
LINE
8
Layer 1
10
70.337069
20
93.586766
11
68.563639
21
95.183366
0
LINE
8
Layer 1
10
68.563639
20
95.183366
11
68.063595
21
95.659757
0
LINE
8
Layer 1
10
68.063595
20
95.659757
11
68.614777
21
95.467028
0
LINE
8
Layer 1
10
68.614777
20
95.467028
11
69.184955
21
95.229298
0
LINE
8
Layer 1
10
69.184955
20
95.229298
11
68.077195
21
96.321878
0
LINE
8
Layer 1
10
68.077195
20
96.321878
11
66.776355
21
97.581638
0
LINE
8
Layer 1
10
66.776355
20
97.581638
11
66.653055
21
97.382344
0
LINE
8
Layer 1
10
66.653055
20
97.382344
11
66.146788
21
97.751558
0
LINE
8
Layer 1
10
66.146788
20
97.751558
11
64.952288
21
98.905628
0
LINE
8
Layer 1
10
64.952288
20
98.905628
11
62.905438
21
100.875558
0
LINE
8
Layer 1
10
62.905438
20
100.875558
11
62.175225
21
101.465729
0
LINE
8
Layer 1
10
62.175225
20
101.465729
11
60.641335
21
102.894233
0
LINE
8
Layer 1
10
60.641335
20
102.894233
11
59.245600
21
104.458000
0
LINE
8
Layer 1
10
59.245600
20
104.458000
11
58.448839
21
105.435696
0
LINE
8
Layer 1
10
58.448839
20
105.435696
11
57.490930
21
106.256140
0
LINE
8
Layer 1
10
57.490930
20
106.256140
11
56.308570
21
107.392290
0
LINE
8
Layer 1
10
56.308570
20
107.392290
11
55.740433
21
107.976754
0
LINE
8
Layer 1
10
55.740433
20
107.976754
11
55.073370
21
108.445160
0
LINE
8
Layer 1
10
55.073370
20
108.445160
11
54.850697
21
108.561924
0
LINE
8
Layer 1
10
54.850697
20
108.561924
11
54.736485
21
108.616574
0
LINE
8
Layer 1
10
54.736485
20
108.616574
11
54.584432
21
108.706199
0
LINE
8
Layer 1
10
54.584432
20
108.706199
11
53.799511
21
109.327988
0
LINE
8
Layer 1
10
53.799511
20
109.327988
11
52.943074
21
110.307298
0
LINE
8
Layer 1
10
52.943074
20
110.307298
11
51.777600
21
111.528000
0
LINE
8
Layer 1
10
51.777600
20
111.528000
11
50.034268
21
113.051268
0
LINE
8
Layer 1
10
50.034268
20
113.051268
11
48.395000
21
114.686000
0
LINE
8
Layer 1
10
48.395000
20
114.686000
11
48.368300
21
114.713000
0
LINE
8
Layer 1
10
48.368300
20
114.713000
11
48.335904
21
114.667065
0
LINE
8
Layer 1
10
48.335904
20
114.667065
11
48.303818
21
114.573331
0
LINE
8
Layer 1
10
48.303818
20
114.573331
11
48.241447
21
114.373289
0
LINE
8
Layer 1
10
48.241447
20
114.373289
11
48.128979
21
113.922662
0
LINE
8
Layer 1
10
48.128979
20
113.922662
11
47.996840
21
112.836812
0
LINE
8
Layer 1
10
47.996840
20
112.836812
11
47.760637
21
111.053732
0
LINE
8
Layer 1
10
47.760637
20
111.053732
11
47.510024
21
109.271022
0
LINE
8
Layer 1
10
47.510024
20
109.271022
11
47.212900
21
107.532000
0
LINE
8
Layer 1
10
47.212900
20
107.532000
11
46.980120
21
106.713274
0
LINE
8
Layer 1
10
46.980120
20
106.713274
11
46.922829
21
106.501404
0
LINE
8
Layer 1
10
46.922829
20
106.501404
11
46.894976
21
106.393976
0
LINE
8
Layer 1
10
46.894976
20
106.393976
11
46.872943
21
106.321163
0
LINE
8
Layer 1
10
46.872943
20
106.321163
11
46.797195
21
106.037344
0
LINE
8
Layer 1
10
46.797195
20
106.037344
11
46.638420
21
105.335641
0
LINE
8
Layer 1
10
46.638420
20
105.335641
11
46.197096
21
102.722763
0
LINE
8
Layer 1
10
46.197096
20
102.722763
11
45.676018
21
100.132671
0
LINE
8
Layer 1
10
45.676018
20
100.132671
11
45.156952
21
97.525207
0
LINE
8
Layer 1
10
45.156952
20
97.525207
11
44.770320
21
94.887871
0
LINE
8
Layer 1
10
44.770320
20
94.887871
11
44.585806
21
94.205458
0
LINE
8
Layer 1
10
44.585806
20
94.205458
11
43.683373
21
89.697098
0
LINE
8
Layer 1
10
43.683373
20
89.697098
11
43.538384
21
88.737964
0
LINE
8
Layer 1
10
43.538384
20
88.737964
11
41.581554
21
79.258294
0
LINE
8
Layer 1
10
41.581554
20
79.258294
11
39.660894
21
69.253594
0
LINE
8
Layer 1
10
39.660894
20
69.253594
11
37.836734
21
58.728494
0
LINE
8
Layer 1
10
37.836734
20
58.728494
11
37.416703
21
56.090104
0
LINE
8
Layer 1
10
37.416703
20
56.090104
11
36.332643
21
49.749629
0
LINE
8
Layer 1
10
36.332643
20
49.749629
11
35.442423
21
43.373004
0
LINE
8
Layer 1
10
35.442423
20
43.373004
11
32.925123
21
22.136004
0
LINE
8
Layer 1
10
32.925123
20
22.136004
11
32.332900
21
15.724314
0
LINE
8
Layer 1
10
32.332900
20
15.724314
11
32.071393
21
12.514794
0
LINE
8
Layer 1
10
32.071393
20
12.514794
11
31.947907
21
10.936234
0
LINE
8
Layer 1
10
31.947907
20
10.936234
11
32.033395
21
10.835777
0
LINE
8
Layer 1
10
32.033395
20
10.835777
11
32.072172
21
10.774408
0
LINE
8
Layer 1
10
32.072172
20
10.774408
11
32.108085
21
10.681794
0
LINE
8
Layer 1
10
32.108085
20
10.681794
11
32.171302
21
10.410421
0
LINE
8
Layer 1
10
32.171302
20
10.410421
11
32.200989
21
10.260671
0
LINE
8
Layer 1
10
32.200989
20
10.260671
11
32.208211
21
10.221831
0
LINE
8
Layer 1
10
32.208211
20
10.221831
11
32.039600
21
10.204776
0
LINE
8
Layer 1
10
32.039600
20
10.204776
11
31.896305
21
10.293796
0
LINE
8
Layer 1
10
31.896305
20
10.293796
11
31.753102
21
10.549840
0
LINE
8
Layer 1
10
31.753102
20
10.549840
11
31.712897
21
10.617435
0
LINE
8
Layer 1
10
31.712897
20
10.617435
11
31.692140
21
10.651793
0
LINE
8
Layer 1
10
31.692140
20
10.651793
11
31.636745
21
10.707809
0
LINE
8
Layer 1
10
31.636745
20
10.707809
11
31.021430
21
11.178225
0
LINE
8
Layer 1
10
31.021430
20
11.178225
11
29.792730
21
12.121925
0
LINE
8
Layer 1
10
29.792730
20
12.121925
11
19.976700
21
19.701200
0
LINE
8
Layer 1
10
19.976700
20
19.701200
11
13.847430
21
24.494740
0
LINE
8
Layer 1
10
13.847430
20
24.494740
11
4.961040
21
31.255480
0
LINE
8
Layer 1
10
4.961040
20
31.255480
11
0.934140
21
34.231720
0
LINE
8
Layer 1
10
0.934140
20
34.231720
11
0.000201
21
34.969572
0
LINE
8
Layer 1
10
0.000201
20
34.969572
11
1.193810
21
33.875576
0
LINE
8
Layer 1
10
1.193810
20
33.875576
11
3.961420
21
31.218636
0
LINE
8
Layer 1
10
3.961420
20
31.218636
11
11.077650
21
24.316986
0
LINE
8
Layer 1
10
11.077650
20
24.316986
11
19.713180
21
15.827936
0
LINE
8
Layer 1
10
19.713180
20
15.827936
11
24.597540
21
10.940276
0
LINE
8
Layer 1
10
24.597540
20
10.940276
11
27.039840
21
8.493586
0
LINE
8
Layer 1
10
27.039840
20
8.493586
11
28.259890
21
7.268806
0
LINE
8
Layer 1
10
28.259890
20
7.268806
11
28.412256
21
7.115559
0
LINE
8
Layer 1
10
28.412256
20
7.115559
11
28.488408
21
7.038879
0
LINE
8
Layer 1
10
28.488408
20
7.038879
11
28.628294
21
6.906929
0
LINE
8
Layer 1
10
28.628294
20
6.906929
11
29.197239
21
6.370535
0
LINE
8
Layer 1
10
29.197239
20
6.370535
11
30.344119
21
5.289285
0
LINE
8
Layer 1
10
30.344119
20
5.289285
11
31.932849
21
3.791765
0
LINE
8
Layer 1
10
31.932849
20
3.791765
11
32.720790
21
3.106366
0
LINE
8
Layer 1
10
32.720790
20
3.106366
11
33.507298
21
2.449353
0
LINE
8
Layer 1
10
33.507298
20
2.449353
11
35.095408
21
1.125363
0
LINE
8
Layer 1
10
35.095408
20
1.125363
11
35.896885
21
0.458391
0
LINE
8
Layer 1
10
35.896885
20
0.458391
11
36.299430
21
0.123659
0
LINE
8
Layer 1
10
36.299430
20
0.123659
11
36.400259
21
0.039882
0
LINE
8
Layer 1
10
36.400259
20
0.039882
11
36.449865
21
0.000173
0
LINE
8
Layer 1
10
36.449865
20
0.000173
11
36.461101
21
0.062163
0
LINE
8
Layer 1
10
36.461101
20
0.062163
11
36.506163
21
0.310631
0
LINE
8
Layer 1
10
36.506163
20
0.310631
11
37.995873
21
8.593541
0
LINE
8
Layer 1
10
37.995873
20
8.593541
11
38.233820
21
9.929231
0
LINE
8
Layer 1
10
38.233820
20
9.929231
11
38.278975
21
10.161889
0
LINE
8
Layer 1
10
38.278975
20
10.161889
11
38.316415
21
10.340022
0
LINE
8
Layer 1
10
38.316415
20
10.340022
11
38.391322
21
10.696291
0
LINE
8
Layer 1
10
38.391322
20
10.696291
11
38.686904
21
12.122361
0
LINE
8
Layer 1
10
38.686904
20
12.122361
11
39.275204
21
14.975361
0
LINE
8
Layer 1
10
39.275204
20
14.975361
11
40.807044
21
22.589301
0
LINE
8
Layer 1
10
40.807044
20
22.589301
11
41.947454
21
28.804681
0
LINE
8
Layer 1
10
41.947454
20
28.804681
11
43.037204
21
34.777081
0
LINE
8
Layer 1
10
43.037204
20
34.777081
11
46.605504
21
58.812681
0
LINE
8
Layer 1
10
46.605504
20
58.812681
11
46.788666
21
60.500911
0
LINE
8
Layer 1
10
46.788666
20
60.500911
11
47.216822
21
64.360351
0
LINE
8
Layer 1
10
47.216822
20
64.360351
11
48.101608
21
71.338681
0
LINE
8
Layer 1
10
48.101608
20
71.338681
11
48.779600
21
76.390400
0
LINE
8
Layer 1
10
48.779600
20
76.390400
11
49.041284
21
78.801134
0
LINE
8
Layer 1
10
49.041284
20
78.801134
11
49.376957
21
81.203370
0
LINE
8
Layer 1
10
49.376957
20
81.203370
11
49.417727
21
81.922006
0
LINE
8
Layer 1
10
49.417727
20
81.922006
11
49.470509
21
83.244517
0
LINE
8
Layer 1
10
49.470509
20
83.244517
11
49.613629
21
84.567126
0
LINE
8
Layer 1
10
49.613629
20
84.567126
11
49.773177
21
86.001858
0
LINE
8
Layer 1
10
49.773177
20
86.001858
11
49.844450
21
87.450126
0
LINE
8
Layer 1
10
49.844450
20
87.450126
11
49.936103
21
89.700484
0
LINE
8
Layer 1
10
49.936103
20
89.700484
11
50.442648
21
91.895006
0
LINE
8
Layer 1
10
50.442648
20
91.895006
11
50.600057
21
92.815425
0
LINE
8
Layer 1
10
50.600057
20
92.815425
11
50.791790
21
94.749875
0
LINE
8
Layer 1
10
50.791790
20
94.749875
11
51.645703
21
103.687175
0
LINE
8
Layer 1
10
51.645703
20
103.687175
11
51.761098
21
105.015395
0
LINE
8
Layer 1
10
51.761098
20
105.015395
11
51.813444
21
105.680002
0
LINE
8
Layer 1
10
51.813444
20
105.680002
11
51.785530
21
105.777225
0
LINE
8
Layer 1
10
51.785530
20
105.777225
11
51.755216
21
105.960712
0
LINE
8
Layer 1
10
51.755216
20
105.960712
11
51.667987
21
106.250379
0
LINE
8
Layer 1
10
51.667987
20
106.250379
11
51.644927
21
106.571294
0
LINE
8
Layer 1
10
51.644927
20
106.571294
11
51.684294
21
106.620465
0
LINE
8
Layer 1
10
51.684294
20
106.620465
11
51.822687
21
106.657436
0
LINE
8
Layer 1
10
51.822687
20
106.657436
11
52.089234
21
106.628432
0
LINE
8
Layer 1
10
52.089234
20
106.628432
11
52.378187
21
106.223243
0
LINE
8
Layer 1
10
52.378187
20
106.223243
11
52.481164
21
106.052950
0
LINE
8
Layer 1
10
52.481164
20
106.052950
11
53.047962
21
105.595231
0
LINE
8
Layer 1
10
53.047962
20
105.595231
11
54.185412
21
104.686637
0
LINE
8
Layer 1
10
54.185412
20
104.686637
11
56.475162
21
102.889117
0
LINE
8
Layer 1
10
56.475162
20
102.889117
11
58.385872
21
101.404297
0
LINE
8
Layer 1
10
58.385872
20
101.404297
11
61.032552
21
99.392297
0
LINE
8
Layer 1
10
61.032552
20
99.392297
11
61.609434
21
98.955364
0
LINE
8
Layer 1
10
61.609434
20
98.955364
11
63.939234
21
97.240504
0
LINE
8
Layer 1
10
63.939234
20
97.240504
11
66.250204
21
95.533234
0
LINE
8
Layer 1
10
66.250204
20
95.533234
11
68.512604
21
93.737584
0
LINE
8
Layer 1
10
68.512604
20
93.737584
11
69.472018
21
93.018700
0
LINE
8
Layer 1
10
69.472018
20
93.018700
11
72.910428
21
90.422750
0
LINE
8
Layer 1
10
72.910428
20
90.422750
11
75.009718
21
88.795400
0
LINE
8
Layer 1
10
75.009718
20
88.795400
11
77.284988
21
87.025520
0
LINE
8
Layer 1
10
77.284988
20
87.025520
11
80.491358
21
84.488080
0
LINE
8
Layer 1
10
80.491358
20
84.488080
11
80.803868
21
84.250819
0
LINE
8
Layer 1
10
80.803868
20
84.250819
11
81.283250
21
83.921937
0
LINE
8
Layer 1
10
81.283250
20
83.921937
11
82.742390
21
82.710227
0
LINE
8
Layer 1
10
82.742390
20
82.710227
11
83.198650
21
82.342757
0
LINE
8
Layer 1
10
83.198650
20
82.342757
11
82.458822
21
82.992432
0
LINE
8
Layer 1
10
82.458822
20
82.992432
11
79.588500
21
85.497800
0
LINE
8
Layer 1
10
79.588500
20
85.497800
11
79.588500
21
85.497800
0
LINE
8
Layer 1
10
51.879100
20
110.647800
11
49.283310
21
112.914870
0
LINE
8
Layer 1
10
49.283310
20
112.914870
11
49.117347
21
113.133459
0
LINE
8
Layer 1
10
49.117347
20
113.133459
11
49.180988
21
113.262172
0
LINE
8
Layer 1
10
49.180988
20
113.262172
11
50.608298
21
112.118182
0
LINE
8
Layer 1
10
50.608298
20
112.118182
11
51.906458
21
110.900112
0
LINE
8
Layer 1
10
51.906458
20
110.900112
11
52.037756
21
110.583803
0
LINE
8
Layer 1
10
52.037756
20
110.583803
11
51.879100
21
110.648000
0
LINE
8
Layer 1
10
51.879100
20
110.648000
11
51.879100
21
110.647800
0
LINE
8
Layer 1
10
57.511200
20
104.971000
11
57.210351
21
105.107683
0
LINE
8
Layer 1
10
57.210351
20
105.107683
11
57.009748
21
105.280338
0
LINE
8
Layer 1
10
57.009748
20
105.280338
11
55.832268
21
106.378638
0
LINE
8
Layer 1
10
55.832268
20
106.378638
11
55.418272
21
106.761157
0
LINE
8
Layer 1
10
55.418272
20
106.761157
11
55.346728
21
106.975157
0
LINE
8
Layer 1
10
55.346728
20
106.975157
11
55.581003
21
106.969555
0
LINE
8
Layer 1
10
55.581003
20
106.969555
11
56.056017
21
106.749176
0
LINE
8
Layer 1
10
56.056017
20
106.749176
11
56.448836
21
106.402912
0
LINE
8
Layer 1
10
56.448836
20
106.402912
11
57.509296
21
105.067092
0
LINE
8
Layer 1
10
57.509296
20
105.067092
11
57.511200
21
104.971000
0
LINE
8
Layer 1
10
57.511200
20
104.971000
11
57.511200
21
104.971000
0
LINE
8
Layer 1
10
61.565700
20
101.323180
11
61.221073
21
101.637620
0
LINE
8
Layer 1
10
61.221073
20
101.637620
11
61.282411
21
101.639612
0
LINE
8
Layer 1
10
61.282411
20
101.639612
11
61.625141
21
101.332639
0
LINE
8
Layer 1
10
61.625141
20
101.332639
11
61.565700
21
101.323000
0
LINE
8
Layer 1
10
61.565700
20
101.323000
11
61.565700
21
101.323180
0
LINE
8
Layer 1
10
72.068900
20
91.290400
11
71.391751
21
91.873346
0
LINE
8
Layer 1
10
71.391751
20
91.873346
11
72.030188
21
91.398572
0
LINE
8
Layer 1
10
72.030188
20
91.398572
11
72.220425
21
91.191684
0
LINE
8
Layer 1
10
72.220425
20
91.191684
11
72.068900
21
91.290400
0
LINE
8
Layer 1
10
72.068900
20
91.290400
11
72.068900
21
91.290400
0
LINE
8
Layer 1
10
73.807300
20
90.888300
11
74.041417
21
90.737554
0
LINE
8
Layer 1
10
74.041417
20
90.737554
11
73.876822
21
90.964235
0
LINE
8
Layer 1
10
73.876822
20
90.964235
11
71.613242
21
93.099975
0
LINE
8
Layer 1
10
71.613242
20
93.099975
11
71.138379
21
93.483114
0
LINE
8
Layer 1
10
71.138379
20
93.483114
11
70.697646
21
93.565537
0
LINE
8
Layer 1
10
70.697646
20
93.565537
11
72.908916
21
91.683747
0
LINE
8
Layer 1
10
72.908916
20
91.683747
11
73.807300
21
90.888300
0
LINE
8
Layer 1
10
73.807300
20
90.888300
11
73.807300
21
90.888300
0
LINE
8
Layer 1
10
83.989500
20
81.670100
11
83.718750
21
81.901638
0
LINE
8
Layer 1
10
83.718750
20
81.901638
11
83.313002
21
82.244958
0
LINE
8
Layer 1
10
83.313002
20
82.244958
11
83.676676
21
81.933255
0
LINE
8
Layer 1
10
83.676676
20
81.933255
11
83.961910
21
81.693094
0
LINE
8
Layer 1
10
83.961910
20
81.693094
11
83.989500
21
81.670100
0
LINE
8
Layer 1
10
83.989500
20
81.670100
11
83.989500
21
81.670100
0
LINE
8
Layer 1
10
65.167400
20
99.078700
11
65.039122
21
99.221730
0
LINE
8
Layer 1
10
65.039122
20
99.221730
11
64.885760
21
99.343723
0
LINE
8
Layer 1
10
64.885760
20
99.343723
11
65.049920
21
99.147040
0
LINE
8
Layer 1
10
65.049920
20
99.147040
11
65.167400
21
99.078700
0
LINE
8
Layer 1
10
65.167400
20
99.078700
11
65.167400
21
99.078700
 0 
ENDSEC
 0 
EOF