999
"DXF R12 Output" (www.mydxf.blogspot.com)
 0 
SECTION
 2 
HEADER
 9 
$ACADVER
 1 
AC1009
 9 
$EXTMIN
 10 
 0 
 20 
 0 
 9 
$EXTMAX
 10 
 8.5 
 20 
 11 
 0 
ENDSEC
 0 
SECTION
 2 
ENTITIES
0
LINE
8
Layer 1
10
3.449840
20
8.632600
11
3.444565
21
7.941102
0
LINE
8
Layer 1
10
3.444565
20
7.941102
11
3.455318
21
7.782265
0
LINE
8
Layer 1
10
3.455318
20
7.782265
11
3.473741
21
7.939609
0
LINE
8
Layer 1
10
3.473741
20
7.939609
11
3.517325
21
9.731779
0
LINE
8
Layer 1
10
3.517325
20
9.731779
11
3.445923
21
10.305889
0
LINE
8
Layer 1
10
3.445923
20
10.305889
11
3.449840
21
8.632600
0
LINE
8
Layer 1
10
3.449840
20
8.632600
11
3.449840
21
8.632600
0
LINE
8
Layer 1
10
3.350180
20
0.535797
11
3.350104
21
0.623684
0
LINE
8
Layer 1
10
3.350104
20
0.623684
11
3.350180
21
0.535797
0
LINE
8
Layer 1
10
3.350180
20
0.535797
11
3.350180
21
0.535797
0
LINE
8
Layer 1
10
3.351440
20
0.026666
11
3.351237
21
0.231937
0
LINE
8
Layer 1
10
3.351237
20
0.231937
11
3.350178
21
0.535797
0
LINE
8
Layer 1
10
3.350178
20
0.535797
11
3.350430
21
0.262186
0
LINE
8
Layer 1
10
3.350430
20
0.262186
11
3.351440
21
0.026666
0
LINE
8
Layer 1
10
3.351440
20
0.026666
11
3.351440
21
0.026666
0
LINE
8
Layer 1
10
3.620650
20
14.873100
11
3.628383
21
14.796169
0
LINE
8
Layer 1
10
3.628383
20
14.796169
11
3.636644
21
14.906089
0
LINE
8
Layer 1
10
3.636644
20
14.906089
11
3.634544
21
15.018868
0
LINE
8
Layer 1
10
3.634544
20
15.018868
11
3.620650
21
14.873100
0
LINE
8
Layer 1
10
3.620650
20
14.873100
11
3.620650
21
14.873100
0
LINE
8
Layer 1
10
43.167900
20
86.778600
11
42.630030
21
86.423203
0
LINE
8
Layer 1
10
42.630030
20
86.423203
11
42.196692
21
86.137267
0
LINE
8
Layer 1
10
42.196692
20
86.137267
11
41.346433
21
85.563905
0
LINE
8
Layer 1
10
41.346433
20
85.563905
11
41.123641
21
85.432452
0
LINE
8
Layer 1
10
41.123641
20
85.432452
11
40.949101
21
85.333240
0
LINE
8
Layer 1
10
40.949101
20
85.333240
11
40.666839
21
85.144400
0
LINE
8
Layer 1
10
40.666839
20
85.144400
11
40.176645
21
84.834193
0
LINE
8
Layer 1
10
40.176645
20
84.834193
11
40.032215
21
84.748547
0
LINE
8
Layer 1
10
40.032215
20
84.748547
11
40.206879
21
84.982450
0
LINE
8
Layer 1
10
40.206879
20
84.982450
11
39.877244
21
84.796598
0
LINE
8
Layer 1
10
39.877244
20
84.796598
11
39.495178
21
84.577633
0
LINE
8
Layer 1
10
39.495178
20
84.577633
11
39.534714
21
84.534190
0
LINE
8
Layer 1
10
39.534714
20
84.534190
11
39.414933
21
84.439956
0
LINE
8
Layer 1
10
39.414933
20
84.439956
11
39.064978
21
84.238297
0
LINE
8
Layer 1
10
39.064978
20
84.238297
11
38.466281
21
83.893481
0
LINE
8
Layer 1
10
38.466281
20
83.893481
11
38.279871
21
83.761779
0
LINE
8
Layer 1
10
38.279871
20
83.761779
11
37.378279
21
83.286009
0
LINE
8
Layer 1
10
37.378279
20
83.286009
11
36.835069
21
83.004306
0
LINE
8
Layer 1
10
36.835069
20
83.004306
11
36.487205
21
82.808743
0
LINE
8
Layer 1
10
36.487205
20
82.808743
11
36.157702
21
82.591771
0
LINE
8
Layer 1
10
36.157702
20
82.591771
11
35.928538
21
82.385506
0
LINE
8
Layer 1
10
35.928538
20
82.385506
11
35.716640
21
82.310941
0
LINE
8
Layer 1
10
35.716640
20
82.310941
11
35.460301
21
82.203889
0
LINE
8
Layer 1
10
35.460301
20
82.203889
11
34.780256
21
81.900026
0
LINE
8
Layer 1
10
34.780256
20
81.900026
11
34.475524
21
81.745171
0
LINE
8
Layer 1
10
34.475524
20
81.745171
11
33.987537
21
81.433220
0
LINE
8
Layer 1
10
33.987537
20
81.433220
11
33.464060
21
81.201682
0
LINE
8
Layer 1
10
33.464060
20
81.201682
11
33.305451
21
81.125750
0
LINE
8
Layer 1
10
33.305451
20
81.125750
11
32.170771
21
80.512801
0
LINE
8
Layer 1
10
32.170771
20
80.512801
11
31.036461
21
79.884541
0
LINE
8
Layer 1
10
31.036461
20
79.884541
11
30.873687
21
79.821800
0
LINE
8
Layer 1
10
30.873687
20
79.821800
11
29.865707
21
79.324497
0
LINE
8
Layer 1
10
29.865707
20
79.324497
11
29.661542
21
79.205865
0
LINE
8
Layer 1
10
29.661542
20
79.205865
11
27.506692
21
78.210508
0
LINE
8
Layer 1
10
27.506692
20
78.210508
11
25.236892
21
77.162248
0
LINE
8
Layer 1
10
25.236892
20
77.162248
11
22.867812
21
76.043028
0
LINE
8
Layer 1
10
22.867812
20
76.043028
11
22.278761
21
75.757340
0
LINE
8
Layer 1
10
22.278761
20
75.757340
11
19.426401
21
74.403850
0
LINE
8
Layer 1
10
19.426401
20
74.403850
11
14.831541
21
71.934000
0
LINE
8
Layer 1
10
14.831541
20
71.934000
11
12.192541
21
70.257350
0
LINE
8
Layer 1
10
12.192541
20
70.257350
11
9.723611
21
68.540370
0
LINE
8
Layer 1
10
9.723611
20
68.540370
11
7.225911
21
66.861480
0
LINE
8
Layer 1
10
7.225911
20
66.861480
11
6.844310
21
66.604302
0
LINE
8
Layer 1
10
6.844310
20
66.604302
11
7.436829
21
78.862302
0
LINE
8
Layer 1
10
7.436829
20
78.862302
11
7.510927
21
85.844622
0
LINE
8
Layer 1
10
7.510927
20
85.844622
11
7.817214
21
85.984663
0
LINE
8
Layer 1
10
7.817214
20
85.984663
11
10.456554
21
87.317993
0
LINE
8
Layer 1
10
10.456554
20
87.317993
11
13.449344
21
88.867543
0
LINE
8
Layer 1
10
13.449344
20
88.867543
11
15.449734
21
90.002813
0
LINE
8
Layer 1
10
15.449734
20
90.002813
11
16.662264
21
90.731033
0
LINE
8
Layer 1
10
16.662264
20
90.731033
11
18.254424
21
91.740333
0
LINE
8
Layer 1
10
18.254424
20
91.740333
11
19.507164
21
92.629383
0
LINE
8
Layer 1
10
19.507164
20
92.629383
11
20.712774
21
93.480342
0
LINE
8
Layer 1
10
20.712774
20
93.480342
11
25.349400
21
97.184500
0
LINE
8
Layer 1
10
25.349400
20
97.184500
11
25.660409
21
97.462841
0
LINE
8
Layer 1
10
25.660409
20
97.462841
11
26.376274
21
98.092478
0
LINE
8
Layer 1
10
26.376274
20
98.092478
11
27.712800
21
99.173200
0
LINE
8
Layer 1
10
27.712800
20
99.173200
11
28.695539
21
99.934655
0
LINE
8
Layer 1
10
28.695539
20
99.934655
11
29.623443
21
100.669843
0
LINE
8
Layer 1
10
29.623443
20
100.669843
11
29.750835
21
100.793702
0
LINE
8
Layer 1
10
29.750835
20
100.793702
11
30.231770
21
101.233997
0
LINE
8
Layer 1
10
30.231770
20
101.233997
11
30.762655
21
101.704661
0
LINE
8
Layer 1
10
30.762655
20
101.704661
11
31.155052
21
102.092433
0
LINE
8
Layer 1
10
31.155052
20
102.092433
11
31.640190
21
102.355078
0
LINE
8
Layer 1
10
31.640190
20
102.355078
11
31.829761
21
102.479685
0
LINE
8
Layer 1
10
31.829761
20
102.479685
11
32.197214
21
102.780683
0
LINE
8
Layer 1
10
32.197214
20
102.780683
11
33.898444
21
104.163433
0
LINE
8
Layer 1
10
33.898444
20
104.163433
11
34.400463
21
104.578330
0
LINE
8
Layer 1
10
34.400463
20
104.578330
11
34.895949
21
104.995844
0
LINE
8
Layer 1
10
34.895949
20
104.995844
11
35.410945
21
105.366684
0
LINE
8
Layer 1
10
35.410945
20
105.366684
11
35.589422
21
105.520667
0
LINE
8
Layer 1
10
35.589422
20
105.520667
11
36.352900
21
106.161875
0
LINE
8
Layer 1
10
36.352900
20
106.161875
11
37.476270
21
107.028392
0
LINE
8
Layer 1
10
37.476270
20
107.028392
11
37.940043
21
107.392377
0
LINE
8
Layer 1
10
37.940043
20
107.392377
11
38.573485
21
107.897151
0
LINE
8
Layer 1
10
38.573485
20
107.897151
11
38.711427
21
108.006820
0
LINE
8
Layer 1
10
38.711427
20
108.006820
11
39.257699
21
108.452093
0
LINE
8
Layer 1
10
39.257699
20
108.452093
11
39.802901
21
108.890384
0
LINE
8
Layer 1
10
39.802901
20
108.890384
11
40.367255
21
109.309015
0
LINE
8
Layer 1
10
40.367255
20
109.309015
11
40.597159
21
109.488508
0
LINE
8
Layer 1
10
40.597159
20
109.488508
11
41.427360
21
110.127848
0
LINE
8
Layer 1
10
41.427360
20
110.127848
11
41.945500
21
110.513363
0
LINE
8
Layer 1
10
41.945500
20
110.513363
11
42.509809
21
110.928760
0
LINE
8
Layer 1
10
42.509809
20
110.928760
11
43.316436
21
111.509468
0
LINE
8
Layer 1
10
43.316436
20
111.509468
11
43.393009
21
111.566231
0
LINE
8
Layer 1
10
43.393009
20
111.566231
11
43.502971
21
111.654491
0
LINE
8
Layer 1
10
43.502971
20
111.654491
11
43.883528
21
111.914782
0
LINE
8
Layer 1
10
43.883528
20
111.914782
11
43.999623
21
111.996061
0
LINE
8
Layer 1
10
43.999623
20
111.996061
11
43.799612
21
111.865853
0
LINE
8
Layer 1
10
43.799612
20
111.865853
11
43.024540
21
111.358700
0
LINE
8
Layer 1
10
43.024540
20
111.358700
11
42.486670
21
111.003303
0
LINE
8
Layer 1
10
42.486670
20
111.003303
11
42.053332
21
110.717366
0
LINE
8
Layer 1
10
42.053332
20
110.717366
11
41.203090
21
110.144004
0
LINE
8
Layer 1
10
41.203090
20
110.144004
11
40.980281
21
110.012551
0
LINE
8
Layer 1
10
40.980281
20
110.012551
11
40.805744
21
109.913339
0
LINE
8
Layer 1
10
40.805744
20
109.913339
11
40.523497
21
109.724499
0
LINE
8
Layer 1
10
40.523497
20
109.724499
11
40.033303
21
109.414292
0
LINE
8
Layer 1
10
40.033303
20
109.414292
11
39.888873
21
109.328646
0
LINE
8
Layer 1
10
39.888873
20
109.328646
11
40.063535
21
109.562549
0
LINE
8
Layer 1
10
40.063535
20
109.562549
11
39.733900
21
109.376697
0
LINE
8
Layer 1
10
39.733900
20
109.376697
11
39.351834
21
109.157608
0
LINE
8
Layer 1
10
39.351834
20
109.157608
11
39.391373
21
109.114166
0
LINE
8
Layer 1
10
39.391373
20
109.114166
11
39.271590
21
109.020056
0
LINE
8
Layer 1
10
39.271590
20
109.020056
11
38.921635
21
108.818394
0
LINE
8
Layer 1
10
38.921635
20
108.818394
11
38.322938
21
108.473457
0
LINE
8
Layer 1
10
38.322938
20
108.473457
11
38.136528
21
108.341879
0
LINE
8
Layer 1
10
38.136528
20
108.341879
11
37.234936
21
107.866109
0
LINE
8
Layer 1
10
37.234936
20
107.866109
11
36.691743
21
107.584406
0
LINE
8
Layer 1
10
36.691743
20
107.584406
11
36.343879
21
107.388719
0
LINE
8
Layer 1
10
36.343879
20
107.388719
11
36.014359
21
107.171747
0
LINE
8
Layer 1
10
36.014359
20
107.171747
11
35.785195
21
106.965606
0
LINE
8
Layer 1
10
35.785195
20
106.965606
11
35.573297
21
106.890916
0
LINE
8
Layer 1
10
35.573297
20
106.890916
11
35.316958
21
106.783985
0
LINE
8
Layer 1
10
35.316958
20
106.783985
11
34.636927
21
106.480125
0
LINE
8
Layer 1
10
34.636927
20
106.480125
11
34.332181
21
106.325270
0
LINE
8
Layer 1
10
34.332181
20
106.325270
11
33.844197
21
106.013319
0
LINE
8
Layer 1
10
33.844197
20
106.013319
11
33.320718
21
105.781781
0
LINE
8
Layer 1
10
33.320718
20
105.781781
11
33.162109
21
105.705849
0
LINE
8
Layer 1
10
33.162109
20
105.705849
11
32.027439
21
105.092900
0
LINE
8
Layer 1
10
32.027439
20
105.092900
11
30.893109
21
104.464513
0
LINE
8
Layer 1
10
30.893109
20
104.464513
11
30.730335
21
104.401899
0
LINE
8
Layer 1
10
30.730335
20
104.401899
11
29.722375
21
103.904469
0
LINE
8
Layer 1
10
29.722375
20
103.904469
11
29.518210
21
103.785840
0
LINE
8
Layer 1
10
29.518210
20
103.785840
11
27.363360
21
102.790483
0
LINE
8
Layer 1
10
27.363360
20
102.790483
11
25.093560
21
101.742343
0
LINE
8
Layer 1
10
25.093560
20
101.742343
11
22.724470
21
100.623123
0
LINE
8
Layer 1
10
22.724470
20
100.623123
11
22.135436
21
100.337438
0
LINE
8
Layer 1
10
22.135436
20
100.337438
11
19.283056
21
98.983949
0
LINE
8
Layer 1
10
19.283056
20
98.983949
11
14.688196
21
96.514099
0
LINE
8
Layer 1
10
14.688196
20
96.514099
11
12.049216
21
94.837449
0
LINE
8
Layer 1
10
12.049216
20
94.837449
11
9.580286
21
93.120469
0
LINE
8
Layer 1
10
9.580286
20
93.120469
11
7.444676
21
91.690918
0
LINE
8
Layer 1
10
7.444676
20
91.690918
11
7.423918
21
93.399808
0
LINE
8
Layer 1
10
7.423918
20
93.399808
11
7.397296
21
100.533748
0
LINE
8
Layer 1
10
7.397296
20
100.533748
11
7.563550
21
105.011000
0
LINE
8
Layer 1
10
7.563550
20
105.011000
11
7.729330
21
108.220949
0
LINE
8
Layer 1
10
7.729330
20
108.220949
11
7.568701
21
111.431160
0
LINE
8
Layer 1
10
7.568701
20
111.431160
11
7.417300
21
112.241985
0
LINE
8
Layer 1
10
7.417300
20
112.241985
11
7.122268
21
113.004923
0
LINE
8
Layer 1
10
7.122268
20
113.004923
11
6.692930
21
113.701190
0
LINE
8
Layer 1
10
6.692930
20
113.701190
11
6.138610
21
114.312000
0
LINE
8
Layer 1
10
6.138610
20
114.312000
11
5.354367
21
114.820972
0
LINE
8
Layer 1
10
5.354367
20
114.820972
11
4.444852
21
115.002876
0
LINE
8
Layer 1
10
4.444852
20
115.002876
11
3.518541
21
114.780337
0
LINE
8
Layer 1
10
3.518541
20
114.780337
11
2.683910
21
114.075983
0
LINE
8
Layer 1
10
2.683910
20
114.075983
11
2.073812
21
113.037899
0
LINE
8
Layer 1
10
2.073812
20
113.037899
11
1.779129
21
111.870423
0
LINE
8
Layer 1
10
1.779129
20
111.870423
11
1.202451
21
106.166663
0
LINE
8
Layer 1
10
1.202451
20
106.166663
11
0.771075
21
99.200903
0
LINE
8
Layer 1
10
0.771075
20
99.200903
11
0.321363
21
91.253100
0
LINE
8
Layer 1
10
0.321363
20
91.253100
11
0.124460
21
85.811600
0
LINE
8
Layer 1
10
0.124460
20
85.811600
11
0.046849
21
82.461170
0
LINE
8
Layer 1
10
0.046849
20
82.461170
11
0.000282
21
77.992890
0
LINE
8
Layer 1
10
0.000282
20
77.992890
11
0.062586
21
74.353790
0
LINE
8
Layer 1
10
0.062586
20
74.353790
11
0.117856
21
70.857460
0
LINE
8
Layer 1
10
0.117856
20
70.857460
11
0.779534
21
56.851400
0
LINE
8
Layer 1
10
0.779534
20
56.851400
11
0.855110
21
55.872970
0
LINE
8
Layer 1
10
0.855110
20
55.872970
11
1.017512
21
53.635530
0
LINE
8
Layer 1
10
1.017512
20
53.635530
11
1.221841
21
49.581150
0
LINE
8
Layer 1
10
1.221841
20
49.581150
11
1.337425
21
46.643370
0
LINE
8
Layer 1
10
1.337425
20
46.643370
11
1.463578
21
43.848130
0
LINE
8
Layer 1
10
1.463578
20
43.848130
11
1.504749
21
43.434601
0
LINE
8
Layer 1
10
1.504749
20
43.434601
11
1.631879
21
41.908951
0
LINE
8
Layer 1
10
1.631879
20
41.908951
11
1.756172
21
40.244751
0
LINE
8
Layer 1
10
1.756172
20
40.244751
11
1.889816
21
38.954986
0
LINE
8
Layer 1
10
1.889816
20
38.954986
11
1.828621
21
37.659761
0
LINE
8
Layer 1
10
1.828621
20
37.659761
11
1.827774
21
37.121874
0
LINE
8
Layer 1
10
1.827774
20
37.121874
11
1.887888
21
36.002284
0
LINE
8
Layer 1
10
1.887888
20
36.002284
11
2.155370
21
30.832424
0
LINE
8
Layer 1
10
2.155370
20
30.832424
11
2.241481
21
29.297814
0
LINE
8
Layer 1
10
2.241481
20
29.297814
11
2.334795
21
27.772914
0
LINE
8
Layer 1
10
2.334795
20
27.772914
11
2.365947
21
26.270044
0
LINE
8
Layer 1
10
2.365947
20
26.270044
11
2.403338
21
25.715974
0
LINE
8
Layer 1
10
2.403338
20
25.715974
11
2.544903
21
23.368994
0
LINE
8
Layer 1
10
2.544903
20
23.368994
11
2.673032
21
20.015704
0
LINE
8
Layer 1
10
2.673032
20
20.015704
11
2.732426
21
18.623244
0
LINE
8
Layer 1
10
2.732426
20
18.623244
11
2.821509
21
16.711454
0
LINE
8
Layer 1
10
2.821509
20
16.711454
11
2.840664
21
16.295312
0
LINE
8
Layer 1
10
2.840664
20
16.295312
11
2.927834
21
14.633732
0
LINE
8
Layer 1
10
2.927834
20
14.633732
11
3.008527
21
12.983102
0
LINE
8
Layer 1
10
3.008527
20
12.983102
11
3.055457
21
11.320272
0
LINE
8
Layer 1
10
3.055457
20
11.320272
11
3.083948
21
10.631139
0
LINE
8
Layer 1
10
3.083948
20
10.631139
11
3.177558
21
8.154319
0
LINE
8
Layer 1
10
3.177558
20
8.154319
11
3.221867
21
6.626049
0
LINE
8
Layer 1
10
3.221867
20
6.626049
11
3.265560
21
4.967329
0
LINE
8
Layer 1
10
3.265560
20
4.967329
11
3.314232
21
2.613499
0
LINE
8
Layer 1
10
3.314232
20
2.613499
11
3.320627
21
2.387815
0
LINE
8
Layer 1
10
3.320627
20
2.387815
11
3.336810
21
2.055075
0
LINE
8
Layer 1
10
3.336810
20
2.055075
11
3.345525
21
0.962245
0
LINE
8
Layer 1
10
3.345525
20
0.962245
11
3.350069
21
0.626020
0
LINE
8
Layer 1
10
3.350069
20
0.626020
11
3.352327
21
1.192287
0
LINE
8
Layer 1
10
3.352327
20
1.192287
11
3.358473
21
3.388147
0
LINE
8
Layer 1
10
3.358473
20
3.388147
11
3.359204
21
4.916287
0
LINE
8
Layer 1
10
3.359204
20
4.916287
11
3.360122
21
6.147167
0
LINE
8
Layer 1
10
3.360122
20
6.147167
11
3.349197
21
8.577927
0
LINE
8
Layer 1
10
3.349197
20
8.577927
11
3.365893
21
9.190501
0
LINE
8
Layer 1
10
3.365893
20
9.190501
11
3.382903
21
9.665526
0
LINE
8
Layer 1
10
3.382903
20
9.665526
11
3.380817
21
10.470550
0
LINE
8
Layer 1
10
3.380817
20
10.470550
11
3.395662
21
11.845580
0
LINE
8
Layer 1
10
3.395662
20
11.845580
11
3.406039
21
12.243299
0
LINE
8
Layer 1
10
3.406039
20
12.243299
11
3.529325
21
11.593130
0
LINE
8
Layer 1
10
3.529325
20
11.593130
11
3.563121
21
12.488031
0
LINE
8
Layer 1
10
3.563121
20
12.488031
11
3.598399
21
13.530321
0
LINE
8
Layer 1
10
3.598399
20
13.530321
11
3.525809
21
13.508412
0
LINE
8
Layer 1
10
3.525809
20
13.508412
11
3.510360
21
13.868166
0
LINE
8
Layer 1
10
3.510360
20
13.868166
11
3.541588
21
14.824187
0
LINE
8
Layer 1
10
3.541588
20
14.824187
11
3.595193
21
16.459377
0
LINE
8
Layer 1
10
3.595193
20
16.459377
11
3.586574
21
17.000001
0
LINE
8
Layer 1
10
3.586574
20
17.000001
11
3.712812
21
19.405861
0
LINE
8
Layer 1
10
3.712812
20
19.405861
11
3.793928
21
20.848981
0
LINE
8
Layer 1
10
3.793928
20
20.848981
11
3.830053
21
21.792926
0
LINE
8
Layer 1
10
3.830053
20
21.792926
11
3.831235
21
22.728159
0
LINE
8
Layer 1
10
3.831235
20
22.728159
11
3.774410
21
23.450529
0
LINE
8
Layer 1
10
3.774410
20
23.450529
11
3.842860
21
23.967627
0
LINE
8
Layer 1
10
3.842860
20
23.967627
11
3.908228
21
24.614931
0
LINE
8
Layer 1
10
3.908228
20
24.614931
11
4.060687
21
26.358181
0
LINE
8
Layer 1
10
4.060687
20
26.358181
11
4.109511
21
27.163705
0
LINE
8
Layer 1
10
4.109511
20
27.163705
11
4.121040
21
28.536615
0
LINE
8
Layer 1
10
4.121040
20
28.536615
11
4.240903
21
29.875415
0
LINE
8
Layer 1
10
4.240903
20
29.875415
11
4.271200
21
30.288568
0
LINE
8
Layer 1
10
4.271200
20
30.288568
11
4.415240
21
33.334768
0
LINE
8
Layer 1
10
4.415240
20
33.334768
11
4.542926
21
36.400388
0
LINE
8
Layer 1
10
4.542926
20
36.400388
11
4.589935
21
36.804581
0
LINE
8
Layer 1
10
4.589935
20
36.804581
11
4.766947
21
39.449451
0
LINE
8
Layer 1
10
4.766947
20
39.449451
11
4.784163
21
40.008499
0
LINE
8
Layer 1
10
4.784163
20
40.008499
11
5.233460
21
45.574459
0
LINE
8
Layer 1
10
5.233460
20
45.574459
11
5.707029
21
51.437059
0
LINE
8
Layer 1
10
5.707029
20
51.437059
11
6.175018
21
57.588829
0
LINE
8
Layer 1
10
6.175018
20
57.588829
11
6.283673
21
59.127919
0
LINE
8
Layer 1
10
6.283673
20
59.127919
11
6.443927
21
60.757749
0
LINE
8
Layer 1
10
6.443927
20
60.757749
11
7.960617
21
61.404681
0
LINE
8
Layer 1
10
7.960617
20
61.404681
11
10.599957
21
62.737901
0
LINE
8
Layer 1
10
10.599957
20
62.737901
11
13.592747
21
64.287581
0
LINE
8
Layer 1
10
13.592747
20
64.287581
11
15.593137
21
65.422851
0
LINE
8
Layer 1
10
15.593137
20
65.422851
11
16.805667
21
66.150947
0
LINE
8
Layer 1
10
16.805667
20
66.150947
11
18.397827
21
67.160247
0
LINE
8
Layer 1
10
18.397827
20
67.160247
11
19.650567
21
68.049297
0
LINE
8
Layer 1
10
19.650567
20
68.049297
11
20.856177
21
68.900380
0
LINE
8
Layer 1
10
20.856177
20
68.900380
11
25.492807
21
72.604340
0
LINE
8
Layer 1
10
25.492807
20
72.604340
11
25.803816
21
72.882681
0
LINE
8
Layer 1
10
25.803816
20
72.882681
11
26.519666
21
73.512437
0
LINE
8
Layer 1
10
26.519666
20
73.512437
11
27.856186
21
74.593067
0
LINE
8
Layer 1
10
27.856186
20
74.593067
11
28.838923
21
75.354522
0
LINE
8
Layer 1
10
28.838923
20
75.354522
11
29.766812
21
76.089837
0
LINE
8
Layer 1
10
29.766812
20
76.089837
11
29.894204
21
76.213572
0
LINE
8
Layer 1
10
29.894204
20
76.213572
11
30.375139
21
76.653867
0
LINE
8
Layer 1
10
30.375139
20
76.653867
11
30.906041
21
77.124656
0
LINE
8
Layer 1
10
30.906041
20
77.124656
11
31.298435
21
77.512371
0
LINE
8
Layer 1
10
31.298435
20
77.512371
11
31.783560
21
77.774952
0
LINE
8
Layer 1
10
31.783560
20
77.774952
11
31.973131
21
77.899694
0
LINE
8
Layer 1
10
31.973131
20
77.899694
11
32.340584
21
78.200565
0
LINE
8
Layer 1
10
32.340584
20
78.200565
11
34.041814
21
79.583315
0
LINE
8
Layer 1
10
34.041814
20
79.583315
11
34.543819
21
79.998212
0
LINE
8
Layer 1
10
34.543819
20
79.998212
11
35.039305
21
80.415726
0
LINE
8
Layer 1
10
35.039305
20
80.415726
11
35.554318
21
80.786566
0
LINE
8
Layer 1
10
35.554318
20
80.786566
11
35.732778
21
80.940549
0
LINE
8
Layer 1
10
35.732778
20
80.940549
11
36.496273
21
81.581757
0
LINE
8
Layer 1
10
36.496273
20
81.581757
11
37.619643
21
82.448274
0
LINE
8
Layer 1
10
37.619643
20
82.448274
11
38.083401
21
82.812259
0
LINE
8
Layer 1
10
38.083401
20
82.812259
11
38.716843
21
83.317036
0
LINE
8
Layer 1
10
38.716843
20
83.317036
11
38.854802
21
83.426705
0
LINE
8
Layer 1
10
38.854802
20
83.426705
11
39.401060
21
83.871975
0
LINE
8
Layer 1
10
39.401060
20
83.871975
11
39.946273
21
84.310266
0
LINE
8
Layer 1
10
39.946273
20
84.310266
11
40.510613
21
84.728897
0
LINE
8
Layer 1
10
40.510613
20
84.728897
11
40.740517
21
84.908390
0
LINE
8
Layer 1
10
40.740517
20
84.908390
11
41.570718
21
85.547730
0
LINE
8
Layer 1
10
41.570718
20
85.547730
11
42.088878
21
85.933245
0
LINE
8
Layer 1
10
42.088878
20
85.933245
11
42.653184
21
86.348639
0
LINE
8
Layer 1
10
42.653184
20
86.348639
11
43.459811
21
86.929347
0
LINE
8
Layer 1
10
43.459811
20
86.929347
11
43.536369
21
86.986110
0
LINE
8
Layer 1
10
43.536369
20
86.986110
11
43.646331
21
87.074494
0
LINE
8
Layer 1
10
43.646331
20
87.074494
11
44.026890
21
87.334785
0
LINE
8
Layer 1
10
44.026890
20
87.334785
11
44.142954
21
87.415949
0
LINE
8
Layer 1
10
44.142954
20
87.415949
11
43.942988
21
87.285740
0
LINE
8
Layer 1
10
43.942988
20
87.285740
11
43.167900
21
86.778600
0
LINE
8
Layer 1
10
43.167900
20
86.778600
11
43.167900
21
86.778600
0
LINE
8
Layer 1
10
41.143390
20
109.982400
11
41.203873
21
110.013893
0
LINE
8
Layer 1
10
41.203873
20
110.013893
11
41.170791
21
109.985013
0
LINE
8
Layer 1
10
41.170791
20
109.985013
11
40.990541
21
109.863768
0
LINE
8
Layer 1
10
40.990541
20
109.863768
11
41.143400
21
109.982000
0
LINE
8
Layer 1
10
41.143400
20
109.982000
11
41.143390
21
109.982400
0
LINE
8
Layer 1
10
38.042650
20
108.135820
11
38.137146
21
108.195696
0
LINE
8
Layer 1
10
38.137146
20
108.195696
11
38.039616
21
108.120509
0
LINE
8
Layer 1
10
38.039616
20
108.120509
11
38.042700
21
108.136000
0
LINE
8
Layer 1
10
38.042700
20
108.136000
11
38.042650
21
108.135820
0
LINE
8
Layer 1
10
36.413500
20
107.162000
11
36.600407
21
107.332166
0
LINE
8
Layer 1
10
36.600407
20
107.332166
11
36.989989
21
107.481422
0
LINE
8
Layer 1
10
36.989989
20
107.481422
11
36.964177
21
107.409097
0
LINE
8
Layer 1
10
36.964177
20
107.409097
11
36.910617
21
107.373370
0
LINE
8
Layer 1
10
36.910617
20
107.373370
11
36.574982
21
107.171836
0
LINE
8
Layer 1
10
36.574982
20
107.171836
11
36.400287
21
107.102248
0
LINE
8
Layer 1
10
36.400287
20
107.102248
11
36.413500
21
107.162000
0
LINE
8
Layer 1
10
36.413500
20
107.162000
11
36.413500
21
107.162000
0
LINE
8
Layer 1
10
34.809990
20
106.354487
11
35.111812
21
106.554901
0
LINE
8
Layer 1
10
35.111812
20
106.554901
11
35.402058
21
106.698679
0
LINE
8
Layer 1
10
35.402058
20
106.698679
11
35.453987
21
106.677891
0
LINE
8
Layer 1
10
35.453987
20
106.677891
11
35.426958
21
106.641292
0
LINE
8
Layer 1
10
35.426958
20
106.641292
11
34.836090
21
106.292121
0
LINE
8
Layer 1
10
34.836090
20
106.292121
11
34.798434
21
106.292369
0
LINE
8
Layer 1
10
34.798434
20
106.292369
11
34.810000
21
106.355000
0
LINE
8
Layer 1
10
34.810000
20
106.355000
11
34.809990
21
106.354487
0
LINE
8
Layer 1
10
3.213080
20
8.745380
11
3.205742
21
8.848574
0
LINE
8
Layer 1
10
3.205742
20
8.848574
11
3.203736
21
9.363432
0
LINE
8
Layer 1
10
3.203736
20
9.363432
11
3.221894
21
8.906334
0
LINE
8
Layer 1
10
3.221894
20
8.906334
11
3.213080
21
8.745380
0
LINE
8
Layer 1
10
3.213080
20
8.745380
11
3.213080
21
8.745380
0
LINE
8
Layer 1
10
3.433848
20
17.188620
11
3.422771
21
17.479659
0
LINE
8
Layer 1
10
3.422771
20
17.479659
11
3.433850
21
17.188600
0
LINE
8
Layer 1
10
3.433850
20
17.188600
11
3.433848
21
17.188620
0
LINE
8
Layer 1
10
3.594322
20
21.357390
11
3.481151
21
20.390912
0
LINE
8
Layer 1
10
3.481151
20
20.390912
11
3.456160
21
20.353693
0
LINE
8
Layer 1
10
3.456160
20
20.353693
11
3.423499
21
20.536183
0
LINE
8
Layer 1
10
3.423499
20
20.536183
11
3.423281
21
20.688673
0
LINE
8
Layer 1
10
3.423281
20
20.688673
11
3.444730
21
21.616054
0
LINE
8
Layer 1
10
3.444730
20
21.616054
11
3.492708
21
22.052987
0
LINE
8
Layer 1
10
3.492708
20
22.052987
11
3.545972
21
21.949045
0
LINE
8
Layer 1
10
3.545972
20
21.949045
11
3.594320
21
21.357400
0
LINE
8
Layer 1
10
3.594320
20
21.357400
11
3.594322
21
21.357390
0
LINE
8
Layer 1
10
3.811320
20
25.318800
11
3.760825
21
24.556597
0
LINE
8
Layer 1
10
3.760825
20
24.556597
11
3.703410
21
24.480662
0
LINE
8
Layer 1
10
3.703410
20
24.480662
11
3.683911
21
24.581743
0
LINE
8
Layer 1
10
3.683911
20
24.581743
11
3.727559
21
26.207103
0
LINE
8
Layer 1
10
3.727559
20
26.207103
11
3.753871
21
26.281421
0
LINE
8
Layer 1
10
3.753871
20
26.281421
11
3.810541
21
26.177846
0
LINE
8
Layer 1
10
3.810541
20
26.177846
11
3.811320
21
25.318800
0
LINE
8
Layer 1
10
3.811320
20
25.318800
11
3.811320
21
25.318800
0
LINE
8
Layer 1
10
35.570320
20
82.061700
11
34.979452
21
81.712405
0
LINE
8
Layer 1
10
34.979452
20
81.712405
11
34.941795
21
81.712778
0
LINE
8
Layer 1
10
34.941795
20
81.712778
11
34.953366
21
81.774770
0
LINE
8
Layer 1
10
34.953366
20
81.774770
11
35.255202
21
81.975308
0
LINE
8
Layer 1
10
35.255202
20
81.975308
11
35.545433
21
82.118959
0
LINE
8
Layer 1
10
35.545433
20
82.118959
11
35.597362
21
82.098295
0
LINE
8
Layer 1
10
35.597362
20
82.098295
11
35.570300
21
82.061600
0
LINE
8
Layer 1
10
35.570300
20
82.061600
11
35.570320
21
82.061700
0
LINE
8
Layer 1
10
37.107550
20
82.829381
11
37.053990
21
82.793779
0
LINE
8
Layer 1
10
37.053990
20
82.793779
11
36.718372
21
82.592120
0
LINE
8
Layer 1
10
36.718372
20
82.592120
11
36.543677
21
82.522532
0
LINE
8
Layer 1
10
36.543677
20
82.522532
11
36.556902
21
82.582408
0
LINE
8
Layer 1
10
36.556902
20
82.582408
11
36.743798
21
82.752452
0
LINE
8
Layer 1
10
36.743798
20
82.752452
11
37.133394
21
82.901829
0
LINE
8
Layer 1
10
37.133394
20
82.901829
11
37.107600
21
82.829300
0
LINE
8
Layer 1
10
37.107600
20
82.829300
11
37.107550
21
82.829381
0
LINE
8
Layer 1
10
38.279410
20
83.600412
11
38.183000
21
83.540536
0
LINE
8
Layer 1
10
38.183000
20
83.540536
11
38.280530
21
83.615723
0
LINE
8
Layer 1
10
38.280530
20
83.615723
11
38.279400
21
83.600400
0
LINE
8
Layer 1
10
38.279400
20
83.600400
11
38.279410
21
83.600412
0
LINE
8
Layer 1
10
41.314200
20
85.405000
11
41.133965
21
85.283755
0
LINE
8
Layer 1
10
41.133965
20
85.283755
11
41.286800
21
85.402387
0
LINE
8
Layer 1
10
41.286800
20
85.402387
11
41.347297
21
85.433996
0
LINE
8
Layer 1
10
41.347297
20
85.433996
11
41.314200
21
85.405000
0
LINE
8
Layer 1
10
41.314200
20
85.405000
11
41.314200
21
85.405000
0
LINE
8
Layer 1
10
44.143000
20
87.416000
11
44.144041
21
87.416745
0
LINE
8
Layer 1
10
44.144041
20
87.416745
11
44.143000
21
87.416000
0
LINE
8
Layer 1
10
40.696300
20
85.226300
11
41.283155
21
85.618543
0
LINE
8
Layer 1
10
41.283155
20
85.618543
11
41.528711
21
85.776023
0
LINE
8
Layer 1
10
41.528711
20
85.776023
11
41.579858
21
85.820216
0
LINE
8
Layer 1
10
41.579858
20
85.820216
11
41.516434
21
85.795945
0
LINE
8
Layer 1
10
41.516434
20
85.795945
11
40.866917
21
85.407808
0
LINE
8
Layer 1
10
40.866917
20
85.407808
11
40.696300
21
85.226300
0
LINE
8
Layer 1
10
40.696300
20
85.226300
11
40.696300
21
85.226300
0
LINE
8
Layer 1
10
44.353400
20
87.556700
11
44.281278
21
87.508649
0
LINE
8
Layer 1
10
44.281278
20
87.508649
11
44.177632
21
87.439064
0
LINE
8
Layer 1
10
44.177632
20
87.439064
11
44.270994
21
87.501178
0
LINE
8
Layer 1
10
44.270994
20
87.501178
11
44.353400
21
87.556700
0
LINE
8
Layer 1
10
44.353400
20
87.556700
11
44.353400
21
87.556700
0
LINE
8
Layer 1
10
39.013100
20
84.279900
11
39.036750
21
84.302926
0
LINE
8
Layer 1
10
39.036750
20
84.302926
11
38.994473
21
84.282889
0
LINE
8
Layer 1
10
38.994473
20
84.282889
11
38.955713
21
84.255129
0
LINE
8
Layer 1
10
38.955713
20
84.255129
11
39.013100
21
84.279900
0
LINE
8
Layer 1
10
39.013100
20
84.279900
11
39.013100
21
84.279900
0
LINE
8
Layer 1
10
41.385300
20
110.356000
11
41.436461
21
110.400193
0
LINE
8
Layer 1
10
41.436461
20
110.400193
11
41.373040
21
110.375792
0
LINE
8
Layer 1
10
41.373040
20
110.375792
11
40.723500
21
109.988000
0
LINE
8
Layer 1
10
40.723500
20
109.988000
11
40.552883
21
109.806506
0
LINE
8
Layer 1
10
40.552883
20
109.806506
11
41.139738
21
110.198749
0
LINE
8
Layer 1
10
41.139738
20
110.198749
11
41.385300
21
110.356000
0
LINE
8
Layer 1
10
41.385300
20
110.356000
11
41.385300
21
110.356000
0
LINE
8
Layer 1
10
44.210100
20
112.137000
11
44.137961
21
112.089076
0
LINE
8
Layer 1
10
44.137961
20
112.089076
11
44.032410
21
112.018238
0
LINE
8
Layer 1
10
44.032410
20
112.018238
11
44.127700
21
112.081476
0
LINE
8
Layer 1
10
44.127700
20
112.081476
11
44.210100
21
112.137000
0
LINE
8
Layer 1
10
44.210100
20
112.137000
11
44.210100
21
112.137000
0
LINE
8
Layer 1
10
44.032400
20
112.018000
11
44.002507
21
111.998084
0
LINE
8
Layer 1
10
44.002507
20
111.998084
11
44.032400
21
112.018000
0
LINE
8
Layer 1
10
44.032400
20
112.018000
11
44.032400
21
112.018000
0
LINE
8
Layer 1
10
38.893400
20
108.883000
11
38.851123
21
108.862835
0
LINE
8
Layer 1
10
38.851123
20
108.862835
11
38.812363
21
108.835200
0
LINE
8
Layer 1
10
38.812363
20
108.835200
11
38.869733
21
108.859846
0
LINE
8
Layer 1
10
38.869733
20
108.859846
11
38.893400
21
108.883000
0
LINE
8
Layer 1
10
38.893400
20
108.883000
11
38.893400
21
108.883000
 0 
ENDSEC
 0 
EOF