999
"DXF R12 Output" (www.mydxf.blogspot.com)
 0 
SECTION
 2 
HEADER
 9 
$ACADVER
 1 
AC1009
 9 
$EXTMIN
 10 
 0 
 20 
 0 
 9 
$EXTMAX
 10 
 8.5 
 20 
 11 
 0 
ENDSEC
 0 
SECTION
 2 
ENTITIES
0
LINE
8
Layer 1
10
49.354300
20
0.658325
11
49.393636
21
0.566084
0
LINE
8
Layer 1
10
49.393636
20
0.566084
11
49.355048
21
0.656959
0
LINE
8
Layer 1
10
49.355048
20
0.656959
11
49.354300
21
0.658325
0
LINE
8
Layer 1
10
48.159200
20
3.594860
11
47.484382
21
5.213370
0
LINE
8
Layer 1
10
47.484382
20
5.213370
11
46.942885
21
6.517570
0
LINE
8
Layer 1
10
46.942885
20
6.517570
11
45.833505
21
9.077290
0
LINE
8
Layer 1
10
45.833505
20
9.077290
11
45.616784
21
9.747999
0
LINE
8
Layer 1
10
45.616784
20
9.747999
11
45.460808
21
10.272932
0
LINE
8
Layer 1
10
45.460808
20
10.272932
11
45.098316
21
11.122646
0
LINE
8
Layer 1
10
45.098316
20
11.122646
11
44.536155
21
12.597256
0
LINE
8
Layer 1
10
44.536155
20
12.597256
11
44.391632
21
13.031074
0
LINE
8
Layer 1
10
44.391632
20
13.031074
11
44.728291
21
12.781129
0
LINE
8
Layer 1
10
44.728291
20
12.781129
11
45.055983
21
12.496176
0
LINE
8
Layer 1
10
45.055983
20
12.496176
11
44.755608
21
13.482697
0
LINE
8
Layer 1
10
44.755608
20
13.482697
11
44.390627
21
14.625187
0
LINE
8
Layer 1
10
44.390627
20
14.625187
11
44.185979
21
14.514646
0
LINE
8
Layer 1
10
44.185979
20
14.514646
11
43.979339
21
14.876268
0
LINE
8
Layer 1
10
43.979339
20
14.876268
11
43.642614
21
15.923538
0
LINE
8
Layer 1
10
43.642614
20
15.923538
11
43.061519
21
17.712838
0
LINE
8
Layer 1
10
43.061519
20
17.712838
11
42.794255
21
18.273878
0
LINE
8
Layer 1
10
42.794255
20
18.273878
11
42.331588
21
19.587926
0
LINE
8
Layer 1
10
42.331588
20
19.587926
11
42.054585
21
20.953228
0
LINE
8
Layer 1
10
42.054585
20
20.953228
11
41.942849
21
21.787233
0
LINE
8
Layer 1
10
41.942849
20
21.787233
11
41.614914
21
22.562158
0
LINE
8
Layer 1
10
41.614914
20
22.562158
11
41.278313
21
23.594618
0
LINE
8
Layer 1
10
41.278313
20
23.594618
11
41.136802
21
24.117861
0
LINE
8
Layer 1
10
41.136802
20
24.117861
11
40.855200
21
24.581012
0
LINE
8
Layer 1
10
40.855200
20
24.581012
11
40.381795
21
25.283090
0
LINE
8
Layer 1
10
40.381795
20
25.283090
11
40.318930
21
25.898156
0
LINE
8
Layer 1
10
40.318930
20
25.898156
11
40.186607
21
26.646293
0
LINE
8
Layer 1
10
40.186607
20
26.646293
11
39.878595
21
27.618696
0
LINE
8
Layer 1
10
39.878595
20
27.618696
11
39.757765
21
28.631533
0
LINE
8
Layer 1
10
39.757765
20
28.631533
11
39.502577
21
29.525686
0
LINE
8
Layer 1
10
39.502577
20
29.525686
11
39.192040
21
30.247886
0
LINE
8
Layer 1
10
39.192040
20
30.247886
11
38.892977
21
30.978396
0
LINE
8
Layer 1
10
38.892977
20
30.978396
11
38.646006
21
31.721505
0
LINE
8
Layer 1
10
38.646006
20
31.721505
11
38.549157
21
32.497196
0
LINE
8
Layer 1
10
38.549157
20
32.497196
11
38.425298
21
32.958652
0
LINE
8
Layer 1
10
38.425298
20
32.958652
11
37.832095
21
34.608285
0
LINE
8
Layer 1
10
37.832095
20
34.608285
11
37.317778
21
36.281812
0
LINE
8
Layer 1
10
37.317778
20
36.281812
11
36.795095
21
37.964156
0
LINE
8
Layer 1
10
36.795095
20
37.964156
11
36.144408
21
39.602242
0
LINE
8
Layer 1
10
36.144408
20
39.602242
11
36.050547
21
40.064804
0
LINE
8
Layer 1
10
36.050547
20
40.064804
11
35.151292
21
42.975814
0
LINE
8
Layer 1
10
35.151292
20
42.975814
11
34.918510
21
43.573574
0
LINE
8
Layer 1
10
34.918510
20
43.573574
11
33.079910
21
49.721614
0
LINE
8
Layer 1
10
33.079910
20
49.721614
11
31.011890
21
56.143884
0
LINE
8
Layer 1
10
31.011890
20
56.143884
11
29.446030
21
60.626234
0
LINE
8
Layer 1
10
29.446030
20
60.626234
11
29.738065
21
61.347481
0
LINE
8
Layer 1
10
29.738065
20
61.347481
11
30.100805
21
62.387401
0
LINE
8
Layer 1
10
30.100805
20
62.387401
11
30.938942
21
64.762391
0
LINE
8
Layer 1
10
30.938942
20
64.762391
11
32.559572
21
69.024651
0
LINE
8
Layer 1
10
32.559572
20
69.024651
11
33.768542
21
72.099351
0
LINE
8
Layer 1
10
33.768542
20
72.099351
11
34.286526
21
73.584388
0
LINE
8
Layer 1
10
34.286526
20
73.584388
11
34.874062
21
75.042731
0
LINE
8
Layer 1
10
34.874062
20
75.042731
11
34.993069
21
75.496095
0
LINE
8
Layer 1
10
34.993069
20
75.496095
11
35.190870
21
76.337048
0
LINE
8
Layer 1
10
35.190870
20
76.337048
11
35.474565
21
77.151955
0
LINE
8
Layer 1
10
35.474565
20
77.151955
11
35.786515
21
78.034749
0
LINE
8
Layer 1
10
35.786515
20
78.034749
11
36.015935
21
78.951715
0
LINE
8
Layer 1
10
36.015935
20
78.951715
11
36.353847
21
80.380852
0
LINE
8
Layer 1
10
36.353847
20
80.380852
11
37.081255
21
81.656585
0
LINE
8
Layer 1
10
37.081255
20
81.656585
11
37.333705
21
82.207045
0
LINE
8
Layer 1
10
37.333705
20
82.207045
11
37.732047
21
83.403945
0
LINE
8
Layer 1
10
37.732047
20
83.403945
11
39.542017
21
88.943265
0
LINE
8
Layer 1
10
39.542017
20
88.943265
11
40.048162
21
90.599995
0
LINE
8
Layer 1
10
40.048162
20
90.599995
11
40.525301
21
92.256845
0
LINE
8
Layer 1
10
40.525301
20
92.256845
11
40.789047
21
93.086768
0
LINE
8
Layer 1
10
40.789047
20
93.086768
11
41.132152
21
93.834535
0
LINE
8
Layer 1
10
41.132152
20
93.834535
11
41.292736
21
94.441631
0
LINE
8
Layer 1
10
41.292736
20
94.441631
11
41.998051
21
97.003471
0
LINE
8
Layer 1
10
41.998051
20
97.003471
11
43.162581
21
100.600501
0
LINE
8
Layer 1
10
43.162581
20
100.600501
11
43.621172
21
102.104121
0
LINE
8
Layer 1
10
43.621172
20
102.104121
11
44.218187
21
104.182101
0
LINE
8
Layer 1
10
44.218187
20
104.182101
11
44.346903
21
104.634717
0
LINE
8
Layer 1
10
44.346903
20
104.634717
11
44.824166
21
106.457507
0
LINE
8
Layer 1
10
44.824166
20
106.457507
11
45.302800
21
108.266227
0
LINE
8
Layer 1
10
45.302800
20
108.266227
11
45.878031
21
110.050927
0
LINE
8
Layer 1
10
45.878031
20
110.050927
11
46.085543
21
110.803049
0
LINE
8
Layer 1
10
46.085543
20
110.803049
11
46.845629
21
113.500449
0
LINE
8
Layer 1
10
46.845629
20
113.500449
11
47.346045
21
115.152079
0
LINE
8
Layer 1
10
47.346045
20
115.152079
11
47.894764
21
116.942499
0
LINE
8
Layer 1
10
47.894764
20
116.942499
11
48.702526
21
119.471479
0
LINE
8
Layer 1
10
48.702526
20
119.471479
11
48.772858
21
119.716832
0
LINE
8
Layer 1
10
48.772858
20
119.716832
11
48.850537
21
120.089159
0
LINE
8
Layer 1
10
48.850537
20
120.089159
11
49.267427
21
121.246219
0
LINE
8
Layer 1
10
49.267427
20
121.246219
11
49.388049
21
121.606594
0
LINE
8
Layer 1
10
49.388049
20
121.606594
11
49.146306
21
121.016053
0
LINE
8
Layer 1
10
49.146306
20
121.016053
11
48.221529
21
118.726333
0
LINE
8
Layer 1
10
48.221529
20
118.726333
11
47.590156
21
117.127733
0
LINE
8
Layer 1
10
47.590156
20
117.127733
11
47.079780
21
115.840963
0
LINE
8
Layer 1
10
47.079780
20
115.840963
11
46.111558
21
113.283603
0
LINE
8
Layer 1
10
46.111558
20
113.283603
11
45.804712
21
112.664555
0
LINE
8
Layer 1
10
45.804712
20
112.664555
11
45.554627
21
112.189409
0
LINE
8
Layer 1
10
45.554627
20
112.189409
11
45.228982
21
111.344549
0
LINE
8
Layer 1
10
45.228982
20
111.344549
11
44.615908
21
109.924339
0
LINE
8
Layer 1
10
44.615908
20
109.924339
11
44.420610
21
109.520894
0
LINE
8
Layer 1
10
44.420610
20
109.520894
11
44.350822
21
109.928155
0
LINE
8
Layer 1
10
44.350822
20
109.928155
11
44.311562
21
110.353802
0
LINE
8
Layer 1
10
44.311562
20
110.353802
11
43.846872
21
109.456037
0
LINE
8
Layer 1
10
43.846872
20
109.456037
11
43.321059
21
108.404287
0
LINE
8
Layer 1
10
43.321059
20
108.404287
11
43.544630
21
108.340429
0
LINE
8
Layer 1
10
43.544630
20
108.340429
11
43.443801
21
107.944700
0
LINE
8
Layer 1
10
43.443801
20
107.944700
11
42.963301
21
106.979343
0
LINE
8
Layer 1
10
42.963301
20
106.979343
11
42.146573
21
105.325853
0
LINE
8
Layer 1
10
42.146573
20
105.325853
11
41.951885
21
104.748630
0
LINE
8
Layer 1
10
41.951885
20
104.748630
11
41.377673
21
103.509128
0
LINE
8
Layer 1
10
41.377673
20
103.509128
11
40.634865
21
102.362690
0
LINE
8
Layer 1
10
40.634865
20
102.362690
11
40.140002
21
101.702146
0
LINE
8
Layer 1
10
40.140002
20
101.702146
11
39.840918
21
100.932890
0
LINE
8
Layer 1
10
39.840918
20
100.932890
11
39.370736
21
99.977989
0
LINE
8
Layer 1
10
39.370736
20
99.977989
11
39.111351
21
99.514002
0
LINE
8
Layer 1
10
39.111351
20
99.514002
11
38.994427
21
98.995453
0
LINE
8
Layer 1
10
38.994427
20
98.995453
11
38.850525
21
98.177359
0
LINE
8
Layer 1
10
38.850525
20
98.177359
11
38.471219
21
97.703455
0
LINE
8
Layer 1
10
38.471219
20
97.703455
11
38.050200
21
97.088400
0
LINE
8
Layer 1
10
38.050200
20
97.088400
11
37.600403
21
96.194630
0
LINE
8
Layer 1
10
37.600403
20
96.194630
11
36.988740
21
95.402790
0
LINE
8
Layer 1
10
36.988740
20
95.402790
11
36.555300
21
94.600900
0
LINE
8
Layer 1
10
36.555300
20
94.600900
11
36.280350
21
93.881053
0
LINE
8
Layer 1
10
36.280350
20
93.881053
11
35.991395
21
93.163260
0
LINE
8
Layer 1
10
35.991395
20
93.163260
11
35.656210
21
92.472618
0
LINE
8
Layer 1
10
35.656210
20
92.472618
11
35.190604
21
91.862920
0
LINE
8
Layer 1
10
35.190604
20
91.862920
11
34.961183
21
91.454370
0
LINE
8
Layer 1
10
34.961183
20
91.454370
11
34.249676
21
89.890207
0
LINE
8
Layer 1
10
34.249676
20
89.890207
11
33.464783
21
88.363860
0
LINE
8
Layer 1
10
33.464783
20
88.363860
11
32.679900
21
86.825526
0
LINE
8
Layer 1
10
32.679900
20
86.825526
11
32.017683
21
85.229780
0
LINE
8
Layer 1
10
32.017683
20
85.229780
11
31.765980
21
84.841270
0
LINE
8
Layer 1
10
31.765980
20
84.841270
11
30.404020
21
82.182960
0
LINE
8
Layer 1
10
30.404020
20
82.182960
11
30.159051
21
81.603872
0
LINE
8
Layer 1
10
30.159051
20
81.603872
11
27.239201
21
76.031432
0
LINE
8
Layer 1
10
27.239201
20
76.031432
11
25.195331
21
71.950542
0
LINE
8
Layer 1
10
25.195331
20
71.950542
11
25.000640
21
72.413739
0
LINE
8
Layer 1
10
25.000640
20
72.413739
11
19.234600
21
85.331400
0
LINE
8
Layer 1
10
19.234600
20
85.331400
11
15.386360
21
92.946830
0
LINE
8
Layer 1
10
15.386360
20
92.946830
11
11.565200
21
100.220000
0
LINE
8
Layer 1
10
11.565200
20
100.220000
11
7.781940
21
107.518130
0
LINE
8
Layer 1
10
7.781940
20
107.518130
11
5.452380
21
112.117240
0
LINE
8
Layer 1
10
5.452380
20
112.117240
11
1.973880
21
118.655000
0
LINE
8
Layer 1
10
1.973880
20
118.655000
11
0.351008
21
121.558000
0
LINE
8
Layer 1
10
0.351008
20
121.558000
11
0.000052
21
122.263750
0
LINE
8
Layer 1
10
0.000052
20
122.263750
11
0.368063
21
121.258000
0
LINE
8
Layer 1
10
0.368063
20
121.258000
11
1.157277
21
118.843180
0
LINE
8
Layer 1
10
1.157277
20
118.843180
11
3.149117
21
112.586220
0
LINE
8
Layer 1
10
3.149117
20
112.586220
11
5.505437
21
104.915140
0
LINE
8
Layer 1
10
5.505437
20
104.915140
11
8.073877
21
96.114020
0
LINE
8
Layer 1
10
8.073877
20
96.114020
11
9.835787
21
90.090090
0
LINE
8
Layer 1
10
9.835787
20
90.090090
11
10.936827
21
86.387870
0
LINE
8
Layer 1
10
10.936827
20
86.387870
11
12.448667
21
81.468220
0
LINE
8
Layer 1
10
12.448667
20
81.468220
11
13.779997
21
77.502470
0
LINE
8
Layer 1
10
13.779997
20
77.502470
11
15.064647
21
73.694690
0
LINE
8
Layer 1
10
15.064647
20
73.694690
11
20.063217
21
60.937790
0
LINE
8
Layer 1
10
20.063217
20
60.937790
11
17.392707
21
54.571410
0
LINE
8
Layer 1
10
17.392707
20
54.571410
11
12.627417
21
41.549610
0
LINE
8
Layer 1
10
12.627417
20
41.549610
11
10.141137
21
33.563100
0
LINE
8
Layer 1
10
10.141137
20
33.563100
11
7.871837
21
25.834760
0
LINE
8
Layer 1
10
7.871837
20
25.834760
11
5.557847
21
18.115260
0
LINE
8
Layer 1
10
5.557847
20
18.115260
11
4.060327
21
13.288220
0
LINE
8
Layer 1
10
4.060327
20
13.288220
11
2.051687
21
6.311010
0
LINE
8
Layer 1
10
2.051687
20
6.311010
11
1.216411
21
3.159000
0
LINE
8
Layer 1
10
1.216411
20
3.159000
11
0.981810
21
2.422691
0
LINE
8
Layer 1
10
0.981810
20
2.422691
11
1.411102
21
3.380702
0
LINE
8
Layer 1
10
1.411102
20
3.380702
11
2.509652
21
5.615652
0
LINE
8
Layer 1
10
2.509652
20
5.615652
11
5.394522
21
11.370202
0
LINE
8
Layer 1
10
5.394522
20
11.370202
11
8.992922
21
18.365962
0
LINE
8
Layer 1
10
8.992922
20
18.365962
11
13.218700
21
26.299200
0
LINE
8
Layer 1
10
13.218700
20
26.299200
11
16.108050
21
31.731840
0
LINE
8
Layer 1
10
16.108050
20
31.731840
11
17.870720
21
35.083270
0
LINE
8
Layer 1
10
17.870720
20
35.083270
11
20.178120
21
39.570350
0
LINE
8
Layer 1
10
20.178120
20
39.570350
11
21.956840
21
43.264970
0
LINE
8
Layer 1
10
21.956840
20
43.264970
11
23.660370
21
46.816940
0
LINE
8
Layer 1
10
23.660370
20
46.816940
11
24.925480
21
49.738160
0
LINE
8
Layer 1
10
24.925480
20
49.738160
11
25.648471
21
48.011470
0
LINE
8
Layer 1
10
25.648471
20
48.011470
11
26.324247
21
46.556136
0
LINE
8
Layer 1
10
26.324247
20
46.556136
11
26.931501
21
45.071580
0
LINE
8
Layer 1
10
26.931501
20
45.071580
11
27.165776
21
44.654814
0
LINE
8
Layer 1
10
27.165776
20
44.654814
11
27.616635
21
43.898071
0
LINE
8
Layer 1
10
27.616635
20
43.898071
11
27.987855
21
43.099774
0
LINE
8
Layer 1
10
27.987855
20
43.099774
11
28.386697
21
42.231901
0
LINE
8
Layer 1
10
28.386697
20
42.231901
11
28.868441
21
41.396984
0
LINE
8
Layer 1
10
28.868441
20
41.396984
11
29.633548
21
40.109538
0
LINE
8
Layer 1
10
29.633548
20
40.109538
11
30.012431
21
38.660624
0
LINE
8
Layer 1
10
30.012431
20
38.660624
11
30.219692
21
38.078682
0
LINE
8
Layer 1
10
30.219692
20
38.078682
11
30.777995
21
36.919132
0
LINE
8
Layer 1
10
30.777995
20
36.919132
11
33.386005
21
31.577112
0
LINE
8
Layer 1
10
33.386005
20
31.577112
11
34.191153
21
30.004162
0
LINE
8
Layer 1
10
34.191153
20
30.004162
11
35.016966
21
28.451502
0
LINE
8
Layer 1
10
35.016966
20
28.451502
11
35.413022
21
27.656242
0
LINE
8
Layer 1
10
35.413022
20
27.656242
11
35.694522
21
26.865472
0
LINE
8
Layer 1
10
35.694522
20
26.865472
11
36.007470
21
26.306672
0
LINE
8
Layer 1
10
36.007470
20
26.306672
11
37.307560
21
23.928822
0
LINE
8
Layer 1
10
37.307560
20
23.928822
11
39.008730
21
20.467472
0
LINE
8
Layer 1
10
39.008730
20
20.467472
11
39.740060
21
19.040272
0
LINE
8
Layer 1
10
39.740060
20
19.040272
11
40.776750
21
17.093992
0
LINE
8
Layer 1
10
40.776750
20
17.093992
11
41.003679
21
16.671003
0
LINE
8
Layer 1
10
41.003679
20
16.671003
11
41.946382
21
14.996353
0
LINE
8
Layer 1
10
41.946382
20
14.996353
11
42.878129
21
13.331153
0
LINE
8
Layer 1
10
42.878129
20
13.331153
11
43.723982
21
11.615543
0
LINE
8
Layer 1
10
43.723982
20
11.615543
11
44.105397
21
10.917202
0
LINE
8
Layer 1
10
44.105397
20
10.917202
11
45.461997
21
8.401042
0
LINE
8
Layer 1
10
45.461997
20
8.401042
11
46.267645
21
6.835932
0
LINE
8
Layer 1
10
46.267645
20
6.835932
11
47.136403
21
5.134762
0
LINE
8
Layer 1
10
47.136403
20
5.134762
11
48.340273
21
2.708862
0
LINE
8
Layer 1
10
48.340273
20
2.708862
11
48.462887
21
2.479193
0
LINE
8
Layer 1
10
48.462887
20
2.479193
11
48.669651
21
2.151183
0
LINE
8
Layer 1
10
48.669651
20
2.151183
11
49.186625
21
1.007813
0
LINE
8
Layer 1
10
49.186625
20
1.007813
11
49.354302
21
0.658267
0
LINE
8
Layer 1
10
49.354302
20
0.658267
11
49.111063
21
1.262129
0
LINE
8
Layer 1
10
49.111063
20
1.262129
11
48.159200
21
3.594860
0
LINE
8
Layer 1
10
48.159200
20
3.594860
11
48.159200
21
3.594860
0
LINE
8
Layer 1
10
46.384100
20
112.775000
11
46.480338
21
112.931351
0
LINE
8
Layer 1
10
46.480338
20
112.931351
11
46.460300
21
112.814229
0
LINE
8
Layer 1
10
46.460300
20
112.814229
11
46.249178
21
112.274973
0
LINE
8
Layer 1
10
46.249178
20
112.274973
11
46.384100
21
112.775000
0
LINE
8
Layer 1
10
46.384100
20
112.775000
11
46.384100
21
112.775000
0
LINE
8
Layer 1
10
42.301200
20
104.379000
11
42.334561
21
104.338544
0
LINE
8
Layer 1
10
42.334561
20
104.338544
11
42.211824
21
104.062067
0
LINE
8
Layer 1
10
42.211824
20
104.062067
11
42.183940
21
104.104765
0
LINE
8
Layer 1
10
42.183940
20
104.104765
11
42.301200
21
104.379000
0
LINE
8
Layer 1
10
40.159740
20
100.187570
11
40.853230
21
101.079730
0
LINE
8
Layer 1
10
40.853230
20
101.079730
11
40.934891
21
101.091806
0
LINE
8
Layer 1
10
40.934891
20
101.091806
11
40.945968
21
100.865995
0
LINE
8
Layer 1
10
40.945968
20
100.865995
11
40.883479
21
100.706161
0
LINE
8
Layer 1
10
40.883479
20
100.706161
11
40.443500
21
99.758700
0
LINE
8
Layer 1
10
40.443500
20
99.758700
11
40.291990
21
99.426040
0
LINE
8
Layer 1
10
40.291990
20
99.426040
11
40.138892
21
99.351894
0
LINE
8
Layer 1
10
40.138892
20
99.351894
11
40.043783
21
99.516460
0
LINE
8
Layer 1
10
40.043783
20
99.516460
11
40.159700
21
100.187000
0
LINE
8
Layer 1
10
40.159700
20
100.187000
11
40.159740
21
100.187570
0
LINE
8
Layer 1
10
38.009070
20
96.251450
11
38.440274
21
97.001825
0
LINE
8
Layer 1
10
38.440274
20
97.001825
11
38.613928
21
97.023861
0
LINE
8
Layer 1
10
38.613928
20
97.023861
11
38.621396
21
96.898010
0
LINE
8
Layer 1
10
38.621396
20
96.898010
11
37.856453
21
95.235550
0
LINE
8
Layer 1
10
37.856453
20
95.235550
11
37.762594
21
95.183393
0
LINE
8
Layer 1
10
37.762594
20
95.183393
11
37.666743
21
95.347708
0
LINE
8
Layer 1
10
37.666743
20
95.347708
11
38.009000
21
96.251100
0
LINE
8
Layer 1
10
38.009000
20
96.251100
11
38.009070
21
96.251450
0
LINE
8
Layer 1
10
39.738370
20
26.297450
11
39.644511
21
26.384465
0
LINE
8
Layer 1
10
39.644511
20
26.384465
11
39.020109
21
28.143895
0
LINE
8
Layer 1
10
39.020109
20
28.143895
11
39.050361
21
28.248337
0
LINE
8
Layer 1
10
39.050361
20
28.248337
11
39.234593
21
28.195059
0
LINE
8
Layer 1
10
39.234593
20
28.195059
11
39.626464
21
27.290447
0
LINE
8
Layer 1
10
39.626464
20
27.290447
11
39.846919
21
26.435879
0
LINE
8
Layer 1
10
39.846919
20
26.435879
11
39.738300
21
26.297100
0
LINE
8
Layer 1
10
39.738300
20
26.297100
11
39.738370
21
26.297450
0
LINE
8
Layer 1
10
40.945350
20
21.675810
11
40.778419
21
21.833902
0
LINE
8
Layer 1
10
40.778419
20
21.833902
11
40.710576
21
21.995231
0
LINE
8
Layer 1
10
40.710576
20
21.995231
11
40.357672
21
23.000551
0
LINE
8
Layer 1
10
40.357672
20
23.000551
11
40.231664
21
23.351512
0
LINE
8
Layer 1
10
40.231664
20
23.351512
11
40.288832
21
23.513789
0
LINE
8
Layer 1
10
40.288832
20
23.513789
11
40.472559
21
23.459885
0
LINE
8
Layer 1
10
40.472559
20
23.459885
11
40.731466
21
23.210530
0
LINE
8
Layer 1
10
40.731466
20
23.210530
11
40.862189
21
22.885648
0
LINE
8
Layer 1
10
40.862189
20
22.885648
11
40.995135
21
21.742278
0
LINE
8
Layer 1
10
40.995135
20
21.742278
11
40.945300
21
21.675500
0
LINE
8
Layer 1
10
40.945300
20
21.675500
11
40.945350
21
21.675810
0
LINE
8
Layer 1
10
42.231870
20
18.306080
11
42.124939
21
18.595640
0
LINE
8
Layer 1
10
42.124939
20
18.595640
11
42.174858
21
18.583812
0
LINE
8
Layer 1
10
42.174858
20
18.583812
11
42.284402
21
18.299868
0
LINE
8
Layer 1
10
42.284402
20
18.299868
11
42.231800
21
18.305800
0
LINE
8
Layer 1
10
42.231800
20
18.305800
11
42.231870
21
18.306080
0
LINE
8
Layer 1
10
45.254040
20
9.176820
11
45.025116
21
9.721554
0
LINE
8
Layer 1
10
45.025116
20
9.721554
11
45.280809
21
9.259351
0
LINE
8
Layer 1
10
45.280809
20
9.259351
11
45.322138
21
9.076736
0
LINE
8
Layer 1
10
45.322138
20
9.076736
11
45.254000
21
9.176500
0
LINE
8
Layer 1
10
45.254000
20
9.176500
11
45.254040
21
9.176820
0
LINE
8
Layer 1
10
45.374400
20
11.031200
11
46.133614
21
9.267290
0
LINE
8
Layer 1
10
46.133614
20
9.267290
11
46.425525
21
8.529485
0
LINE
8
Layer 1
10
46.425525
20
8.529485
11
46.531708
21
8.375999
0
LINE
8
Layer 1
10
46.531708
20
8.375999
11
46.521376
21
8.566705
0
LINE
8
Layer 1
10
46.521376
20
8.566705
11
45.856021
21
10.516095
0
LINE
8
Layer 1
10
45.856021
20
10.516095
11
45.681878
21
10.880449
0
LINE
8
Layer 1
10
45.681878
20
10.880449
11
45.374400
21
11.031200
0
LINE
8
Layer 1
10
45.374400
20
11.031200
11
45.374400
21
11.031200
0
LINE
8
Layer 1
10
49.533700
20
0.244424
11
49.393659
21
0.566084
0
LINE
8
Layer 1
10
49.393659
20
0.566084
11
49.517021
21
0.275170
0
LINE
8
Layer 1
10
49.517021
20
0.275170
11
49.616311
21
0.049346
0
LINE
8
Layer 1
10
49.616311
20
0.049346
11
49.626066
21
0.027701
0
LINE
8
Layer 1
10
49.626066
20
0.027701
11
49.533700
21
0.244424
0
LINE
8
Layer 1
10
49.533700
20
0.244424
11
49.533700
21
0.244424
0
LINE
8
Layer 1
10
43.849200
20
16.068300
11
43.906336
21
15.996350
0
LINE
8
Layer 1
10
43.906336
20
15.996350
11
43.880445
21
16.121939
0
LINE
8
Layer 1
10
43.880445
20
16.121939
11
43.823182
21
16.238454
0
LINE
8
Layer 1
10
43.823182
20
16.238454
11
43.849200
21
16.068300
0
LINE
8
Layer 1
10
43.849200
20
16.068300
11
43.849200
21
16.068300
0
LINE
8
Layer 1
10
45.764500
20
113.358000
11
46.063506
21
114.075888
0
LINE
8
Layer 1
10
46.063506
20
114.075888
11
46.093139
21
114.256634
0
LINE
8
Layer 1
10
46.093139
20
114.256634
11
45.968784
21
114.115969
0
LINE
8
Layer 1
10
45.968784
20
114.115969
11
45.102264
21
112.292309
0
LINE
8
Layer 1
10
45.102264
20
112.292309
11
44.976165
21
111.917009
0
LINE
8
Layer 1
10
44.976165
20
111.917009
11
45.093552
21
111.599319
0
LINE
8
Layer 1
10
45.093552
20
111.599319
11
45.764500
21
113.358000
0
LINE
8
Layer 1
10
45.764500
20
113.358000
11
45.764500
21
113.358000
0
LINE
8
Layer 1
10
49.627700
20
122.236000
11
49.544546
21
122.020645
0
LINE
8
Layer 1
10
49.544546
20
122.020645
11
49.424294
21
121.700975
0
LINE
8
Layer 1
10
49.424294
20
121.700975
11
49.535334
21
121.987659
0
LINE
8
Layer 1
10
49.535334
20
121.987659
11
49.619717
21
122.213957
0
LINE
8
Layer 1
10
49.619717
20
122.213957
11
49.627700
21
122.236000
0
LINE
8
Layer 1
10
49.627700
20
122.236000
11
49.627700
21
122.236000
0
LINE
8
Layer 1
10
49.424300
20
121.701000
11
49.388458
21
121.608510
0
LINE
8
Layer 1
10
49.388458
20
121.608510
11
49.424300
21
121.701000
0
LINE
8
Layer 1
10
49.424300
20
121.701000
11
49.424300
21
121.701000
0
LINE
8
Layer 1
10
42.723200
20
107.110000
11
42.655232
21
107.004065
0
LINE
8
Layer 1
10
42.655232
20
107.004065
11
42.616021
21
106.883068
0
LINE
8
Layer 1
10
42.616021
20
106.883068
11
42.714733
21
107.020123
0
LINE
8
Layer 1
10
42.714733
20
107.020123
11
42.723200
21
107.110000
0
LINE
8
Layer 1
10
42.723200
20
107.110000
11
42.723200
21
107.110000
 0 
ENDSEC
 0 
EOF