999
"DXF R12 Output" (www.mydxf.blogspot.com)
 0 
SECTION
 2 
HEADER
 9 
$ACADVER
 1 
AC1009
 9 
$EXTMIN
 10 
 0 
 20 
 0 
 9 
$EXTMAX
 10 
 8.5 
 20 
 11 
 0 
ENDSEC
 0 
SECTION
 2 
ENTITIES
0
LINE
8
Layer 1
10
7.072930
20
101.910000
11
6.906498
21
101.971617
0
LINE
8
Layer 1
10
6.906498
20
101.971617
11
7.014922
21
101.825101
0
LINE
8
Layer 1
10
7.014922
20
101.825101
11
8.575612
21
100.651111
0
LINE
8
Layer 1
10
8.575612
20
100.651111
11
8.907636
21
100.460310
0
LINE
8
Layer 1
10
8.907636
20
100.460310
11
9.235365
21
100.516917
0
LINE
8
Layer 1
10
9.235365
20
100.516917
11
7.696085
21
101.488748
0
LINE
8
Layer 1
10
7.696085
20
101.488748
11
7.072930
21
101.910000
0
LINE
8
Layer 1
10
7.072930
20
101.910000
11
7.072930
21
101.910000
0
LINE
8
Layer 1
10
0.497292
20
106.561000
11
0.573910
21
106.511953
0
LINE
8
Layer 1
10
0.573910
20
106.511953
11
0.497292
21
106.561000
0
LINE
8
Layer 1
10
0.497292
20
106.561000
11
0.497292
21
106.561000
0
LINE
8
Layer 1
10
0.024573
20
106.859000
11
0.212976
21
106.738999
0
LINE
8
Layer 1
10
0.212976
20
106.738999
11
0.497292
21
106.561363
0
LINE
8
Layer 1
10
0.497292
20
106.561363
11
0.242539
21
106.724185
0
LINE
8
Layer 1
10
0.242539
20
106.724185
11
0.024573
21
106.859000
0
LINE
8
Layer 1
10
0.024573
20
106.859000
11
0.024573
21
106.859000
0
LINE
8
Layer 1
10
29.707800
20
11.603100
11
29.704876
21
10.892682
0
LINE
8
Layer 1
10
29.704876
20
10.892682
11
29.716205
21
10.729611
0
LINE
8
Layer 1
10
29.716205
20
10.729611
11
29.734066
21
10.891324
0
LINE
8
Layer 1
10
29.734066
20
10.891324
11
29.771537
21
12.732544
0
LINE
8
Layer 1
10
29.771537
20
12.732544
11
29.698159
21
13.322089
0
LINE
8
Layer 1
10
29.698159
20
13.322089
11
29.707800
21
11.603100
0
LINE
8
Layer 1
10
29.707800
20
11.603100
11
29.707800
21
11.603100
0
LINE
8
Layer 1
10
29.638900
20
2.761800
11
29.638028
21
2.972671
0
LINE
8
Layer 1
10
29.638028
20
2.972671
11
29.635911
21
3.284244
0
LINE
8
Layer 1
10
29.635911
20
3.284244
11
29.637094
21
3.003786
0
LINE
8
Layer 1
10
29.637094
20
3.003786
11
29.638900
21
2.761800
0
LINE
8
Layer 1
10
29.638900
20
2.761800
11
29.638900
21
2.761800
0
LINE
8
Layer 1
10
29.635900
20
3.284250
11
29.635527
21
3.375126
0
LINE
8
Layer 1
10
29.635527
20
3.375126
11
29.635900
21
3.284250
0
LINE
8
Layer 1
10
29.635900
20
3.284250
11
29.635900
21
3.284250
0
LINE
8
Layer 1
10
29.857200
20
18.014600
11
29.865229
21
17.935679
0
LINE
8
Layer 1
10
29.865229
20
17.935679
11
29.873072
21
18.048585
0
LINE
8
Layer 1
10
29.873072
20
18.048585
11
29.870580
21
18.164477
0
LINE
8
Layer 1
10
29.870580
20
18.164477
11
29.857200
21
18.014600
0
LINE
8
Layer 1
10
29.857200
20
18.014600
11
29.857200
21
18.014600
0
LINE
8
Layer 1
10
74.612300
20
8.868390
11
74.609438
21
8.157969
0
LINE
8
Layer 1
10
74.609438
20
8.157969
11
74.620705
21
7.994898
0
LINE
8
Layer 1
10
74.620705
20
7.994898
11
74.638628
21
8.156611
0
LINE
8
Layer 1
10
74.638628
20
8.156611
11
74.676037
21
9.997831
0
LINE
8
Layer 1
10
74.676037
20
9.997831
11
74.602659
21
10.587393
0
LINE
8
Layer 1
10
74.602659
20
10.587393
11
74.612300
21
8.868390
0
LINE
8
Layer 1
10
74.612300
20
8.868390
11
74.612300
21
8.868390
0
LINE
8
Layer 1
10
74.543500
20
0.027055
11
74.542566
21
0.237928
0
LINE
8
Layer 1
10
74.542566
20
0.237928
11
74.540387
21
0.565689
0
LINE
8
Layer 1
10
74.540387
20
0.565689
11
74.541694
21
0.269048
0
LINE
8
Layer 1
10
74.541694
20
0.269048
11
74.543500
21
0.027055
0
LINE
8
Layer 1
10
74.543500
20
0.027055
11
74.543500
21
0.027055
0
LINE
8
Layer 1
10
74.761700
20
15.280000
11
74.769667
21
15.200952
0
LINE
8
Layer 1
10
74.769667
20
15.200952
11
74.777569
21
15.313858
0
LINE
8
Layer 1
10
74.777569
20
15.313858
11
74.775077
21
15.429752
0
LINE
8
Layer 1
10
74.775077
20
15.429752
11
74.761700
21
15.280000
0
LINE
8
Layer 1
10
74.761700
20
15.280000
11
74.761700
21
15.280000
0
LINE
8
Layer 1
10
103.459000
20
38.383200
11
101.554050
21
39.857690
0
LINE
8
Layer 1
10
101.554050
20
39.857690
11
96.660850
21
43.708660
0
LINE
8
Layer 1
10
96.660850
20
43.708660
11
90.731150
21
48.479310
0
LINE
8
Layer 1
10
90.731150
20
48.479310
11
84.037190
21
54.030460
0
LINE
8
Layer 1
10
84.037190
20
54.030460
11
79.452270
21
57.827530
0
LINE
8
Layer 1
10
79.452270
20
57.827530
11
77.200390
21
59.674470
0
LINE
8
Layer 1
10
77.200390
20
59.674470
11
77.273274
21
60.752730
0
LINE
8
Layer 1
10
77.273274
20
60.752730
11
77.805121
21
68.371520
0
LINE
8
Layer 1
10
77.805121
20
68.371520
11
78.358694
21
81.030120
0
LINE
8
Layer 1
10
78.358694
20
81.030120
11
78.406494
21
88.643940
0
LINE
8
Layer 1
10
78.406494
20
88.643940
11
78.295829
21
95.964600
0
LINE
8
Layer 1
10
78.295829
20
95.964600
11
78.244792
21
103.293230
0
LINE
8
Layer 1
10
78.244792
20
103.293230
11
78.395665
21
107.893210
0
LINE
8
Layer 1
10
78.395665
20
107.893210
11
78.550416
21
111.191342
0
LINE
8
Layer 1
10
78.550416
20
111.191342
11
78.378796
21
114.488640
0
LINE
8
Layer 1
10
78.378796
20
114.488640
11
78.226606
21
115.317047
0
LINE
8
Layer 1
10
78.226606
20
115.317047
11
77.929829
21
116.098060
0
LINE
8
Layer 1
10
77.929829
20
116.098060
11
77.497551
21
116.813039
0
LINE
8
Layer 1
10
77.497551
20
116.813039
11
76.938856
21
117.443340
0
LINE
8
Layer 1
10
76.938856
20
117.443340
11
76.152843
21
117.963487
0
LINE
8
Layer 1
10
76.152843
20
117.963487
11
75.242700
21
118.147161
0
LINE
8
Layer 1
10
75.242700
20
118.147161
11
74.317166
21
117.915283
0
LINE
8
Layer 1
10
74.317166
20
117.915283
11
73.484976
21
117.188776
0
LINE
8
Layer 1
10
73.484976
20
117.188776
11
72.877267
21
116.117158
0
LINE
8
Layer 1
10
72.877267
20
116.117158
11
72.587773
21
114.919716
0
LINE
8
Layer 1
10
72.587773
20
114.919716
11
72.030653
21
109.058106
0
LINE
8
Layer 1
10
72.030653
20
109.058106
11
71.623161
21
101.900646
0
LINE
8
Layer 1
10
71.623161
20
101.900646
11
71.200731
21
93.734266
0
LINE
8
Layer 1
10
71.200731
20
93.734266
11
71.022536
21
88.143536
0
LINE
8
Layer 1
10
71.022536
20
88.143536
11
70.956437
21
84.701366
0
LINE
8
Layer 1
10
70.956437
20
84.701366
11
70.925192
21
80.110846
0
LINE
8
Layer 1
10
70.925192
20
80.110846
11
71.000004
21
76.372536
0
LINE
8
Layer 1
10
71.000004
20
76.372536
11
71.067226
21
72.780976
0
LINE
8
Layer 1
10
71.067226
20
72.780976
11
71.489032
21
64.231426
0
LINE
8
Layer 1
10
71.489032
20
64.231426
11
69.659272
21
65.611056
0
LINE
8
Layer 1
10
69.659272
20
65.611056
11
66.622842
21
67.912976
0
LINE
8
Layer 1
10
66.622842
20
67.912976
11
54.015842
21
76.462526
0
LINE
8
Layer 1
10
54.015842
20
76.462526
11
53.098474
21
77.004147
0
LINE
8
Layer 1
10
53.098474
20
77.004147
11
51.005554
21
78.250337
0
LINE
8
Layer 1
10
51.005554
20
78.250337
11
47.273714
21
80.600427
0
LINE
8
Layer 1
10
47.273714
20
80.600427
11
44.589944
21
82.334457
0
LINE
8
Layer 1
10
44.589944
20
82.334457
11
43.279912
21
83.107879
0
LINE
8
Layer 1
10
43.279912
20
83.107879
11
42.009934
21
83.944137
0
LINE
8
Layer 1
10
42.009934
20
83.944137
11
41.601821
21
84.142065
0
LINE
8
Layer 1
10
41.601821
20
84.142065
11
40.840193
21
84.487034
0
LINE
8
Layer 1
10
40.840193
20
84.487034
11
40.121231
21
84.910987
0
LINE
8
Layer 1
10
40.121231
20
84.910987
11
39.343355
21
85.374605
0
LINE
8
Layer 1
10
39.343355
20
85.374605
11
38.515671
21
85.764186
0
LINE
8
Layer 1
10
38.515671
20
85.764186
11
37.221683
21
86.352035
0
LINE
8
Layer 1
10
37.221683
20
86.352035
11
36.155061
21
87.291336
0
LINE
8
Layer 1
10
36.155061
20
87.291336
11
35.682156
21
87.636897
0
LINE
8
Layer 1
10
35.682156
20
87.636897
11
34.622316
21
88.241507
0
LINE
8
Layer 1
10
34.622316
20
88.241507
11
33.513116
21
88.869519
0
LINE
8
Layer 1
10
33.513116
20
88.869519
11
33.502036
21
91.378699
0
LINE
8
Layer 1
10
33.502036
20
91.378699
11
33.391371
21
98.699359
0
LINE
8
Layer 1
10
33.391371
20
98.699359
11
33.340272
21
106.027989
0
LINE
8
Layer 1
10
33.340272
20
106.027989
11
33.491145
21
110.627969
0
LINE
8
Layer 1
10
33.491145
20
110.627969
11
33.645919
21
113.926101
0
LINE
8
Layer 1
10
33.645919
20
113.926101
11
33.474277
21
117.223399
0
LINE
8
Layer 1
10
33.474277
20
117.223399
11
33.322101
21
118.051811
0
LINE
8
Layer 1
10
33.322101
20
118.051811
11
33.025329
21
118.832829
0
LINE
8
Layer 1
10
33.025329
20
118.832829
11
32.593045
21
119.547806
0
LINE
8
Layer 1
10
32.593045
20
119.547806
11
32.034337
21
120.178099
0
LINE
8
Layer 1
10
32.034337
20
120.178099
11
31.248361
21
120.698248
0
LINE
8
Layer 1
10
31.248361
20
120.698248
11
30.338232
21
120.881921
0
LINE
8
Layer 1
10
30.338232
20
120.881921
11
29.412686
21
120.650042
0
LINE
8
Layer 1
10
29.412686
20
120.650042
11
28.580457
21
119.923535
0
LINE
8
Layer 1
10
28.580457
20
119.923535
11
27.972769
21
118.851909
0
LINE
8
Layer 1
10
27.972769
20
118.851909
11
27.683254
21
117.654475
0
LINE
8
Layer 1
10
27.683254
20
117.654475
11
27.126148
21
111.792865
0
LINE
8
Layer 1
10
27.126148
20
111.792865
11
26.718656
21
104.635405
0
LINE
8
Layer 1
10
26.718656
20
104.635405
11
26.296226
21
96.469025
0
LINE
8
Layer 1
10
26.296226
20
96.469025
11
26.173363
21
92.855935
0
LINE
8
Layer 1
10
26.173363
20
92.855935
11
25.371762
21
93.441746
0
LINE
8
Layer 1
10
25.371762
20
93.441746
11
24.825535
21
93.708014
0
LINE
8
Layer 1
10
24.825535
20
93.708014
11
22.526535
21
94.858844
0
LINE
8
Layer 1
10
22.526535
20
94.858844
11
19.334885
21
96.644414
0
LINE
8
Layer 1
10
19.334885
20
96.644414
11
17.994715
21
97.363296
0
LINE
8
Layer 1
10
17.994715
20
97.363296
11
16.135205
21
98.321062
0
LINE
8
Layer 1
10
16.135205
20
98.321062
11
15.729768
21
98.528326
0
LINE
8
Layer 1
10
15.729768
20
98.528326
11
14.088848
21
99.323266
0
LINE
8
Layer 1
10
14.088848
20
99.323266
11
12.461618
21
100.117089
0
LINE
8
Layer 1
10
12.461618
20
100.117089
11
10.877458
21
101.000537
0
LINE
8
Layer 1
10
10.877458
20
101.000537
11
10.202643
21
101.338755
0
LINE
8
Layer 1
10
10.202643
20
101.338755
11
7.785573
21
102.567515
0
LINE
8
Layer 1
10
7.785573
20
102.567515
11
6.312833
21
103.353992
0
LINE
8
Layer 1
10
6.312833
20
103.353992
11
4.717713
21
104.212669
0
LINE
8
Layer 1
10
4.717713
20
104.212669
11
2.471433
21
105.457359
0
LINE
8
Layer 1
10
2.471433
20
105.457359
11
2.251845
21
105.570138
0
LINE
8
Layer 1
10
2.251845
20
105.570138
11
1.912507
21
105.713168
0
LINE
8
Layer 1
10
1.912507
20
105.713168
11
0.894617
21
106.328731
0
LINE
8
Layer 1
10
0.894617
20
106.328731
11
0.575444
21
106.511611
0
LINE
8
Layer 1
10
0.575444
20
106.511611
11
1.089119
21
106.169276
0
LINE
8
Layer 1
10
1.089119
20
106.169276
11
3.082699
21
104.853996
0
LINE
8
Layer 1
10
3.082699
20
104.853996
11
4.477459
21
103.949635
0
LINE
8
Layer 1
10
4.477459
20
103.949635
11
5.599659
21
103.219673
0
LINE
8
Layer 1
10
5.599659
20
103.219673
11
7.839659
21
101.813773
0
LINE
8
Layer 1
10
7.839659
20
101.813773
11
8.366360
21
101.403000
0
LINE
8
Layer 1
10
8.366360
20
101.403000
11
8.767812
21
101.073497
0
LINE
8
Layer 1
10
8.767812
20
101.073497
11
9.506737
21
100.603453
0
LINE
8
Layer 1
10
9.506737
20
100.603453
11
10.734997
21
99.749381
0
LINE
8
Layer 1
10
10.734997
20
99.749381
11
11.079438
21
99.485978
0
LINE
8
Layer 1
10
11.079438
20
99.485978
11
10.675999
21
99.491907
0
LINE
8
Layer 1
10
10.675999
20
99.491907
11
10.261406
21
99.530792
0
LINE
8
Layer 1
10
10.261406
20
99.530792
11
11.021802
21
98.915850
0
LINE
8
Layer 1
10
11.021802
20
98.915850
11
11.916392
21
98.213399
0
LINE
8
Layer 1
10
11.916392
20
98.213399
11
12.024006
21
98.419421
0
LINE
8
Layer 1
10
12.024006
20
98.419421
11
12.380836
21
98.249504
0
LINE
8
Layer 1
10
12.380836
20
98.249504
11
13.202500
21
97.606600
0
LINE
8
Layer 1
10
13.202500
20
97.606600
11
14.611010
21
96.511910
0
LINE
8
Layer 1
10
14.611010
20
96.511910
11
15.121510
21
96.217758
0
LINE
8
Layer 1
10
15.121510
20
96.217758
11
16.185906
21
95.433686
0
LINE
8
Layer 1
10
16.185906
20
95.433686
11
17.125200
21
94.503400
0
LINE
8
Layer 1
10
17.125200
20
94.503400
11
17.652011
21
93.902554
0
LINE
8
Layer 1
10
17.652011
20
93.902554
11
18.324830
21
93.471440
0
LINE
8
Layer 1
10
18.324830
20
93.471440
11
19.138600
21
92.840600
0
LINE
8
Layer 1
10
19.138600
20
92.840600
11
19.527676
21
92.504043
0
LINE
8
Layer 1
10
19.527676
20
92.504043
11
19.998336
21
92.296366
0
LINE
8
Layer 1
10
19.998336
20
92.296366
11
20.749461
21
92.007935
0
LINE
8
Layer 1
10
20.749461
20
92.007935
11
21.122968
21
91.552954
0
LINE
8
Layer 1
10
21.122968
20
91.552954
11
21.622391
21
91.031625
0
LINE
8
Layer 1
10
21.622391
20
91.031625
11
22.382846
21
90.431019
0
LINE
8
Layer 1
10
22.382846
20
90.431019
11
23.010611
21
89.692825
0
LINE
8
Layer 1
10
23.010611
20
89.692825
11
23.685988
21
89.125559
0
LINE
8
Layer 1
10
23.685988
20
89.125559
11
24.315959
21
88.727496
0
LINE
8
Layer 1
10
24.315959
20
88.727496
11
24.941078
21
88.316177
0
LINE
8
Layer 1
10
24.941078
20
88.316177
11
25.530680
21
87.864758
0
LINE
8
Layer 1
10
25.530680
20
87.864758
11
26.015858
21
87.301027
0
LINE
8
Layer 1
10
26.015858
20
87.301027
11
26.049592
21
87.269531
0
LINE
8
Layer 1
10
26.049592
20
87.269531
11
26.020278
21
82.845571
0
LINE
8
Layer 1
10
26.020278
20
82.845571
11
26.095089
21
79.107261
0
LINE
8
Layer 1
10
26.095089
20
79.107261
11
26.162312
21
75.515701
0
LINE
8
Layer 1
10
26.162312
20
75.515701
11
26.872044
21
61.129301
0
LINE
8
Layer 1
10
26.872044
20
61.129301
11
26.950967
21
60.124481
0
LINE
8
Layer 1
10
26.950967
20
60.124481
11
27.121071
21
57.826421
0
LINE
8
Layer 1
10
27.121071
20
57.826421
11
27.339288
21
53.662251
0
LINE
8
Layer 1
10
27.339288
20
53.662251
11
27.464953
21
50.644431
0
LINE
8
Layer 1
10
27.464953
20
50.644431
11
27.600702
21
47.773391
0
LINE
8
Layer 1
10
27.600702
20
47.773391
11
27.643337
21
47.348782
0
LINE
8
Layer 1
10
27.643337
20
47.348782
11
27.775662
21
45.781932
0
LINE
8
Layer 1
10
27.775662
20
45.781932
11
27.905684
21
44.072672
0
LINE
8
Layer 1
10
27.905684
20
44.072672
11
28.043729
21
42.747994
0
LINE
8
Layer 1
10
28.043729
20
42.747994
11
27.986964
21
41.417352
0
LINE
8
Layer 1
10
27.986964
20
41.417352
11
27.988000
21
40.864700
0
LINE
8
Layer 1
10
27.988000
20
40.864700
11
28.051983
21
39.714740
0
LINE
8
Layer 1
10
28.051983
20
39.714740
11
28.337233
21
34.404590
0
LINE
8
Layer 1
10
28.337233
20
34.404590
11
28.428605
21
32.828520
0
LINE
8
Layer 1
10
28.428605
20
32.828520
11
28.527131
21
31.262290
0
LINE
8
Layer 1
10
28.527131
20
31.262290
11
28.563417
21
29.718340
0
LINE
8
Layer 1
10
28.563417
20
29.718340
11
28.602753
21
29.149332
0
LINE
8
Layer 1
10
28.602753
20
29.149332
11
28.752381
21
26.738742
0
LINE
8
Layer 1
10
28.752381
20
26.738742
11
28.891988
21
23.294322
0
LINE
8
Layer 1
10
28.891988
20
23.294322
11
28.956156
21
21.864022
0
LINE
8
Layer 1
10
28.956156
20
21.864022
11
29.051830
21
19.900322
0
LINE
8
Layer 1
10
29.051830
20
19.900322
11
29.072370
21
19.472973
0
LINE
8
Layer 1
10
29.072370
20
19.472973
11
29.165221
21
17.766203
0
LINE
8
Layer 1
10
29.165221
20
17.766203
11
29.251612
21
16.070893
0
LINE
8
Layer 1
10
29.251612
20
16.070893
11
29.304207
21
14.362753
0
LINE
8
Layer 1
10
29.304207
20
14.362753
11
29.335079
21
13.654940
0
LINE
8
Layer 1
10
29.335079
20
13.654940
11
29.437215
21
11.110780
0
LINE
8
Layer 1
10
29.437215
20
11.110780
11
29.486759
21
9.540940
0
LINE
8
Layer 1
10
29.486759
20
9.540940
11
29.536117
21
7.837030
0
LINE
8
Layer 1
10
29.536117
20
7.837030
11
29.592880
21
5.419090
0
LINE
8
Layer 1
10
29.592880
20
5.419090
11
29.600037
21
5.187307
0
LINE
8
Layer 1
10
29.600037
20
5.187307
11
29.617340
21
4.845480
0
LINE
8
Layer 1
10
29.617340
20
4.845480
11
29.629851
21
3.722900
0
LINE
8
Layer 1
10
29.629851
20
3.722900
11
29.635515
21
3.377963
0
LINE
8
Layer 1
10
29.635515
20
3.377963
11
29.635888
21
3.959292
0
LINE
8
Layer 1
10
29.635888
20
3.959292
11
29.634457
21
6.215032
0
LINE
8
Layer 1
10
29.634457
20
6.215032
11
29.629975
21
7.784992
0
LINE
8
Layer 1
10
29.629975
20
7.784992
11
29.626676
21
9.049482
0
LINE
8
Layer 1
10
29.626676
20
9.049482
11
29.607381
21
11.546582
0
LINE
8
Layer 1
10
29.607381
20
11.546582
11
29.621946
21
12.175965
0
LINE
8
Layer 1
10
29.621946
20
12.175965
11
29.637381
21
12.663927
0
LINE
8
Layer 1
10
29.637381
20
12.663927
11
29.632527
21
13.490984
0
LINE
8
Layer 1
10
29.632527
20
13.490984
11
29.642611
21
14.903604
0
LINE
8
Layer 1
10
29.642611
20
14.903604
11
29.651642
21
15.312278
0
LINE
8
Layer 1
10
29.651642
20
15.312278
11
29.777183
21
14.644682
0
LINE
8
Layer 1
10
29.777183
20
14.644682
11
29.807928
21
15.564229
0
LINE
8
Layer 1
10
29.807928
20
15.564229
11
29.839610
21
16.635029
0
LINE
8
Layer 1
10
29.839610
20
16.635029
11
29.767099
21
16.612248
0
LINE
8
Layer 1
10
29.767099
20
16.612248
11
29.750417
21
16.981835
0
LINE
8
Layer 1
10
29.750417
20
16.981835
11
29.778357
21
17.963999
0
LINE
8
Layer 1
10
29.778357
20
17.963999
11
29.826334
21
19.644129
0
LINE
8
Layer 1
10
29.826334
20
19.644129
11
29.815816
21
20.199567
0
LINE
8
Layer 1
10
29.815816
20
20.199567
11
29.933824
21
22.671527
0
LINE
8
Layer 1
10
29.933824
20
22.671527
11
30.010007
21
24.154357
0
LINE
8
Layer 1
10
30.010007
20
24.154357
11
30.042872
21
25.124196
0
LINE
8
Layer 1
10
30.042872
20
25.124196
11
30.040879
21
26.084947
0
LINE
8
Layer 1
10
30.040879
20
26.084947
11
29.981565
21
26.826861
0
LINE
8
Layer 1
10
29.981565
20
26.826861
11
30.048223
21
27.358285
0
LINE
8
Layer 1
10
30.048223
20
27.358285
11
30.111398
21
28.023516
0
LINE
8
Layer 1
10
30.111398
20
28.023516
11
30.257851
21
29.814936
0
LINE
8
Layer 1
10
30.257851
20
29.814936
11
30.303910
21
30.642617
0
LINE
8
Layer 1
10
30.303910
20
30.642617
11
30.310683
21
32.052997
0
LINE
8
Layer 1
10
30.310683
20
32.052997
11
30.425951
21
33.428777
0
LINE
8
Layer 1
10
30.425951
20
33.428777
11
30.454831
21
33.853383
0
LINE
8
Layer 1
10
30.454831
20
33.853383
11
30.588463
21
36.983353
0
LINE
8
Layer 1
10
30.588463
20
36.983353
11
30.705602
21
40.132993
0
LINE
8
Layer 1
10
30.705602
20
40.132993
11
30.751223
21
40.548390
0
LINE
8
Layer 1
10
30.751223
20
40.548390
11
30.919145
21
43.266200
0
LINE
8
Layer 1
10
30.919145
20
43.266200
11
30.934456
21
43.840434
0
LINE
8
Layer 1
10
30.934456
20
43.840434
11
31.364664
21
49.560134
0
LINE
8
Layer 1
10
31.364664
20
49.560134
11
31.818090
21
55.584444
0
LINE
8
Layer 1
10
31.818090
20
55.584444
11
32.264980
21
61.905884
0
LINE
8
Layer 1
10
32.264980
20
61.905884
11
32.368364
21
63.487424
0
LINE
8
Layer 1
10
32.368364
20
63.487424
11
32.900211
21
71.106214
0
LINE
8
Layer 1
10
32.900211
20
71.106214
11
33.371688
21
81.528614
0
LINE
8
Layer 1
10
33.371688
20
81.528614
11
34.260738
21
80.887406
0
LINE
8
Layer 1
10
34.260738
20
80.887406
11
34.762529
21
80.543959
0
LINE
8
Layer 1
10
34.762529
20
80.543959
11
39.474549
21
76.691739
0
LINE
8
Layer 1
10
39.474549
20
76.691739
11
44.516009
21
72.752509
0
LINE
8
Layer 1
10
44.516009
20
72.752509
11
49.912609
21
68.780039
0
LINE
8
Layer 1
10
49.912609
20
68.780039
11
51.283089
21
67.816798
0
LINE
8
Layer 1
10
51.283089
20
67.816798
11
54.541150
21
65.436689
0
LINE
8
Layer 1
10
54.541150
20
65.436689
11
57.912499
21
63.217808
0
LINE
8
Layer 1
10
57.912499
20
63.217808
11
69.352599
21
56.219058
0
LINE
8
Layer 1
10
69.352599
20
56.219058
11
72.045579
21
54.712328
0
LINE
8
Layer 1
10
72.045579
20
54.712328
11
72.243879
21
50.927448
0
LINE
8
Layer 1
10
72.243879
20
50.927448
11
72.369544
21
47.909758
0
LINE
8
Layer 1
10
72.369544
20
47.909758
11
72.505293
21
45.038578
0
LINE
8
Layer 1
10
72.505293
20
45.038578
11
72.547866
21
44.613969
0
LINE
8
Layer 1
10
72.547866
20
44.613969
11
72.680254
21
43.047119
0
LINE
8
Layer 1
10
72.680254
20
43.047119
11
72.810214
21
41.337859
0
LINE
8
Layer 1
10
72.810214
20
41.337859
11
72.948316
21
40.013179
0
LINE
8
Layer 1
10
72.948316
20
40.013179
11
72.891561
21
38.682529
0
LINE
8
Layer 1
10
72.891561
20
38.682529
11
72.892558
21
38.129952
0
LINE
8
Layer 1
10
72.892558
20
38.129952
11
72.956540
21
36.979992
0
LINE
8
Layer 1
10
72.956540
20
36.979992
11
73.241728
21
31.669842
0
LINE
8
Layer 1
10
73.241728
20
31.669842
11
73.333098
21
30.093772
0
LINE
8
Layer 1
10
73.333098
20
30.093772
11
73.431689
21
28.527542
0
LINE
8
Layer 1
10
73.431689
20
28.527542
11
73.467974
21
26.983592
0
LINE
8
Layer 1
10
73.467974
20
26.983592
11
73.507248
21
26.414587
0
LINE
8
Layer 1
10
73.507248
20
26.414587
11
73.656876
21
24.004127
0
LINE
8
Layer 1
10
73.656876
20
24.004127
11
73.796483
21
20.559587
0
LINE
8
Layer 1
10
73.796483
20
20.559587
11
73.860652
21
19.129287
0
LINE
8
Layer 1
10
73.860652
20
19.129287
11
73.956325
21
17.165587
0
LINE
8
Layer 1
10
73.956325
20
17.165587
11
73.976928
21
16.738241
0
LINE
8
Layer 1
10
73.976928
20
16.738241
11
74.069779
21
15.031471
0
LINE
8
Layer 1
10
74.069779
20
15.031471
11
74.156108
21
13.336151
0
LINE
8
Layer 1
10
74.156108
20
13.336151
11
74.208765
21
11.628011
0
LINE
8
Layer 1
10
74.208765
20
11.628011
11
74.239637
21
10.920198
0
LINE
8
Layer 1
10
74.239637
20
10.920198
11
74.341711
21
8.376038
0
LINE
8
Layer 1
10
74.341711
20
8.376038
11
74.391255
21
6.806198
0
LINE
8
Layer 1
10
74.391255
20
6.806198
11
74.440675
21
5.102288
0
LINE
8
Layer 1
10
74.440675
20
5.102288
11
74.497438
21
2.684348
0
LINE
8
Layer 1
10
74.497438
20
2.684348
11
74.504595
21
2.452562
0
LINE
8
Layer 1
10
74.504595
20
2.452562
11
74.521898
21
2.110735
0
LINE
8
Layer 1
10
74.521898
20
2.110735
11
74.534347
21
0.988155
0
LINE
8
Layer 1
10
74.534347
20
0.988155
11
74.540073
21
0.640350
0
LINE
8
Layer 1
10
74.540073
20
0.640350
11
74.540384
21
1.224550
0
LINE
8
Layer 1
10
74.540384
20
1.224550
11
74.539015
21
3.480410
0
LINE
8
Layer 1
10
74.539015
20
3.480410
11
74.534471
21
5.050250
0
LINE
8
Layer 1
10
74.534471
20
5.050250
11
74.531172
21
6.314740
0
LINE
8
Layer 1
10
74.531172
20
6.314740
11
74.511939
21
8.811840
0
LINE
8
Layer 1
10
74.511939
20
8.811840
11
74.526504
21
9.441220
0
LINE
8
Layer 1
10
74.526504
20
9.441220
11
74.541877
21
9.929182
0
LINE
8
Layer 1
10
74.541877
20
9.929182
11
74.537023
21
10.756239
0
LINE
8
Layer 1
10
74.537023
20
10.756239
11
74.547183
21
12.168859
0
LINE
8
Layer 1
10
74.547183
20
12.168859
11
74.556214
21
12.577533
0
LINE
8
Layer 1
10
74.556214
20
12.577533
11
74.681690
21
11.909937
0
LINE
8
Layer 1
10
74.681690
20
11.909937
11
74.712438
21
12.829487
0
LINE
8
Layer 1
10
74.712438
20
12.829487
11
74.744120
21
13.900277
0
LINE
8
Layer 1
10
74.744120
20
13.900277
11
74.671609
21
13.877496
0
LINE
8
Layer 1
10
74.671609
20
13.877496
11
74.654927
21
14.247083
0
LINE
8
Layer 1
10
74.654927
20
14.247083
11
74.682867
21
15.229247
0
LINE
8
Layer 1
10
74.682867
20
15.229247
11
74.730844
21
16.909377
0
LINE
8
Layer 1
10
74.730844
20
16.909377
11
74.720402
21
17.464815
0
LINE
8
Layer 1
10
74.720402
20
17.464815
11
74.838410
21
19.936775
0
LINE
8
Layer 1
10
74.838410
20
19.936775
11
74.914531
21
21.419605
0
LINE
8
Layer 1
10
74.914531
20
21.419605
11
74.947458
21
22.389444
0
LINE
8
Layer 1
10
74.947458
20
22.389444
11
74.945403
21
23.350198
0
LINE
8
Layer 1
10
74.945403
20
23.350198
11
74.886086
21
24.092109
0
LINE
8
Layer 1
10
74.886086
20
24.092109
11
74.952809
21
24.623533
0
LINE
8
Layer 1
10
74.952809
20
24.623533
11
75.015922
21
25.288767
0
LINE
8
Layer 1
10
75.015922
20
25.288767
11
75.162438
21
27.080187
0
LINE
8
Layer 1
10
75.162438
20
27.080187
11
75.208497
21
27.907868
0
LINE
8
Layer 1
10
75.208497
20
27.907868
11
75.215270
21
29.318248
0
LINE
8
Layer 1
10
75.215270
20
29.318248
11
75.330538
21
30.694018
0
LINE
8
Layer 1
10
75.330538
20
30.694018
11
75.359418
21
31.118627
0
LINE
8
Layer 1
10
75.359418
20
31.118627
11
75.492988
21
34.248597
0
LINE
8
Layer 1
10
75.492988
20
34.248597
11
75.610189
21
37.398367
0
LINE
8
Layer 1
10
75.610189
20
37.398367
11
75.655810
21
37.813637
0
LINE
8
Layer 1
10
75.655810
20
37.813637
11
75.823732
21
40.531447
0
LINE
8
Layer 1
10
75.823732
20
40.531447
11
75.839042
21
41.105808
0
LINE
8
Layer 1
10
75.839042
20
41.105808
11
76.269250
21
46.825378
0
LINE
8
Layer 1
10
76.269250
20
46.825378
11
76.676680
21
52.238228
0
LINE
8
Layer 1
10
76.676680
20
52.238228
11
83.366030
21
48.741778
0
LINE
8
Layer 1
10
83.366030
20
48.741778
11
90.254430
21
45.090228
0
LINE
8
Layer 1
10
90.254430
20
45.090228
11
94.551240
21
42.757678
0
LINE
8
Layer 1
10
94.551240
20
42.757678
11
100.794380
21
39.537828
0
LINE
8
Layer 1
10
100.794380
20
39.537828
11
103.629770
21
38.153468
0
LINE
8
Layer 1
10
103.629770
20
38.153468
11
104.283971
21
37.791646
0
LINE
8
Layer 1
10
104.283971
20
37.791646
11
103.459000
21
38.383200
0
LINE
8
Layer 1
10
103.459000
20
38.383200
11
103.459000
21
38.383200
0
LINE
8
Layer 1
10
8.381670
20
101.987000
11
8.252457
21
102.109117
0
LINE
8
Layer 1
10
8.252457
20
102.109117
11
8.360071
21
102.068285
0
LINE
8
Layer 1
10
8.360071
20
102.068285
11
8.830987
21
101.765049
0
LINE
8
Layer 1
10
8.830987
20
101.765049
11
8.381670
21
101.987000
0
LINE
8
Layer 1
10
8.381670
20
101.987000
11
8.381670
21
101.987000
0
LINE
8
Layer 1
10
15.785000
20
96.326900
11
15.547550
21
96.490589
0
LINE
8
Layer 1
10
15.547550
20
96.490589
11
15.593174
21
96.515859
0
LINE
8
Layer 1
10
15.593174
20
96.515859
11
15.831618
21
96.346190
0
LINE
8
Layer 1
10
15.831618
20
96.346190
11
15.785000
21
96.326900
0
LINE
8
Layer 1
10
15.785000
20
96.326900
11
15.785000
21
96.326900
0
LINE
8
Layer 1
10
19.896500
20
93.474900
11
19.719612
21
93.412159
0
LINE
8
Layer 1
10
19.719612
20
93.412159
11
19.103177
21
93.646558
0
LINE
8
Layer 1
10
19.103177
20
93.646558
11
18.395994
21
94.483202
0
LINE
8
Layer 1
10
18.395994
20
94.483202
11
18.401410
21
94.564863
0
LINE
8
Layer 1
10
18.401410
20
94.564863
11
18.619379
21
94.534739
0
LINE
8
Layer 1
10
18.619379
20
94.534739
11
18.758862
21
94.444992
0
LINE
8
Layer 1
10
18.758862
20
94.444992
11
19.571661
21
93.845112
0
LINE
8
Layer 1
10
19.571661
20
93.845112
11
19.857658
21
93.637314
0
LINE
8
Layer 1
10
19.857658
20
93.637314
11
19.896500
21
93.474900
0
LINE
8
Layer 1
10
19.896500
20
93.474900
11
19.896500
21
93.474900
0
LINE
8
Layer 1
10
23.381620
20
90.406170
11
23.204732
21
90.342670
0
LINE
8
Layer 1
10
23.204732
20
90.342670
11
22.413215
21
90.839601
0
LINE
8
Layer 1
10
22.413215
20
90.839601
11
21.786696
21
91.395296
0
LINE
8
Layer 1
10
21.786696
20
91.395296
11
21.801820
21
91.568326
0
LINE
8
Layer 1
10
21.801820
20
91.568326
11
21.923500
21
91.552889
0
LINE
8
Layer 1
10
21.923500
20
91.552889
11
23.351370
21
90.506989
0
LINE
8
Layer 1
10
23.351370
20
90.506989
11
23.381600
21
90.406200
0
LINE
8
Layer 1
10
23.381600
20
90.406200
11
23.381620
21
90.406170
0
LINE
8
Layer 1
10
29.470660
20
11.717970
11
29.462941
21
11.824029
0
LINE
8
Layer 1
10
29.462941
20
11.824029
11
29.459207
21
12.352953
0
LINE
8
Layer 1
10
29.459207
20
12.352953
11
29.478876
21
11.883406
0
LINE
8
Layer 1
10
29.478876
20
11.883406
11
29.470700
21
11.718000
0
LINE
8
Layer 1
10
29.470700
20
11.718000
11
29.470660
21
11.717970
0
LINE
8
Layer 1
10
29.662424
20
20.392630
11
29.650350
21
20.691636
0
LINE
8
Layer 1
10
29.650350
20
20.691636
11
29.662400
21
20.392700
0
LINE
8
Layer 1
10
29.662400
20
20.392700
11
29.662424
21
20.392630
0
LINE
8
Layer 1
10
29.808629
20
24.675810
11
29.698712
21
23.682566
0
LINE
8
Layer 1
10
29.698712
20
23.682566
11
29.673876
21
23.644226
0
LINE
8
Layer 1
10
29.673876
20
23.644226
11
29.640574
21
23.831571
0
LINE
8
Layer 1
10
29.640574
20
23.831571
11
29.639829
21
23.988295
0
LINE
8
Layer 1
10
29.639829
20
23.988295
11
29.658064
21
24.941076
0
LINE
8
Layer 1
10
29.658064
20
24.941076
11
29.704630
21
25.390091
0
LINE
8
Layer 1
10
29.704630
20
25.390091
11
29.758219
21
25.283411
0
LINE
8
Layer 1
10
29.758219
20
25.283411
11
29.808600
21
24.675900
0
LINE
8
Layer 1
10
29.808600
20
24.675900
11
29.808629
21
24.675810
0
LINE
8
Layer 1
10
30.012032
20
28.746240
11
29.964105
21
27.963125
0
LINE
8
Layer 1
10
29.964105
20
27.963125
11
29.906969
21
27.884701
0
LINE
8
Layer 1
10
29.906969
20
27.884701
11
29.887115
21
27.988643
0
LINE
8
Layer 1
10
29.887115
20
27.988643
11
29.925215
21
29.658563
0
LINE
8
Layer 1
10
29.925215
20
29.658563
11
29.951292
21
29.734870
0
LINE
8
Layer 1
10
29.951292
20
29.734870
11
30.008301
21
29.628687
0
LINE
8
Layer 1
10
30.008301
20
29.628687
11
30.012000
21
28.746300
0
LINE
8
Layer 1
10
30.012000
20
28.746300
11
30.012032
21
28.746240
0
LINE
8
Layer 1
10
74.375132
20
8.983240
11
74.367475
21
9.089299
0
LINE
8
Layer 1
10
74.367475
20
9.089299
11
74.363679
21
9.618223
0
LINE
8
Layer 1
10
74.363679
20
9.618223
11
74.383410
21
9.148679
0
LINE
8
Layer 1
10
74.383410
20
9.148679
11
74.375200
21
8.983280
0
LINE
8
Layer 1
10
74.375200
20
8.983280
11
74.375132
21
8.983240
0
LINE
8
Layer 1
10
74.566958
20
17.657900
11
74.554885
21
17.956906
0
LINE
8
Layer 1
10
74.554885
20
17.956906
11
74.567000
21
17.657900
0
LINE
8
Layer 1
10
74.567000
20
17.657900
11
74.566958
21
17.657900
0
LINE
8
Layer 1
10
74.713101
20
21.941080
11
74.603246
21
20.947839
0
LINE
8
Layer 1
10
74.603246
20
20.947839
11
74.578411
21
20.909499
0
LINE
8
Layer 1
10
74.578411
20
20.909499
11
74.545108
21
21.096844
0
LINE
8
Layer 1
10
74.545108
20
21.096844
11
74.544363
21
21.253568
0
LINE
8
Layer 1
10
74.544363
20
21.253568
11
74.562598
21
22.206476
0
LINE
8
Layer 1
10
74.562598
20
22.206476
11
74.609094
21
22.655359
0
LINE
8
Layer 1
10
74.609094
20
22.655359
11
74.662744
21
22.548800
0
LINE
8
Layer 1
10
74.662744
20
22.548800
11
74.713100
21
21.941100
0
LINE
8
Layer 1
10
74.713100
20
21.941100
11
74.713101
21
21.941080
0
LINE
8
Layer 1
10
74.916504
20
26.011520
11
74.868639
21
25.228402
0
LINE
8
Layer 1
10
74.868639
20
25.228402
11
74.811503
21
25.150102
0
LINE
8
Layer 1
10
74.811503
20
25.150102
11
74.791649
21
25.253920
0
LINE
8
Layer 1
10
74.791649
20
25.253920
11
74.829749
21
26.923850
0
LINE
8
Layer 1
10
74.829749
20
26.923850
11
74.855764
21
27.000158
0
LINE
8
Layer 1
10
74.855764
20
27.000158
11
74.912841
21
26.893975
0
LINE
8
Layer 1
10
74.912841
20
26.893975
11
74.916500
21
26.011500
0
LINE
8
Layer 1
10
74.916500
20
26.011500
11
74.916504
21
26.011520
0
LINE
8
Layer 1
10
74.540300
20
0.565681
11
74.539990
21
0.638003
0
LINE
8
Layer 1
10
74.539990
20
0.638003
11
74.540300
21
0.565681
0
LINE
8
Layer 1
10
74.540300
20
0.565681
11
74.540300
21
0.565681
0
LINE
8
Layer 1
10
13.027300
20
97.396600
11
13.114191
21
97.311205
0
LINE
8
Layer 1
10
13.114191
20
97.311205
11
13.221557
21
97.251092
0
LINE
8
Layer 1
10
13.221557
20
97.251092
11
13.111326
21
97.372089
0
LINE
8
Layer 1
10
13.111326
20
97.372089
11
13.027300
21
97.396600
0
LINE
8
Layer 1
10
13.027300
20
97.396600
11
13.027300
21
97.396600
 0 
ENDSEC
 0 
EOF