999
"DXF R12 Output" (www.mydxf.blogspot.com)
 0 
SECTION
 2 
HEADER
 9 
$ACADVER
 1 
AC1009
 9 
$EXTMIN
 10 
 0 
 20 
 0 
 9 
$EXTMAX
 10 
 8.5 
 20 
 11 
 0 
ENDSEC
 0 
SECTION
 2 
ENTITIES
0
LINE
8
Layer 1
10
42.375400
20
10.781200
11
43.696560
21
9.073930
0
LINE
8
Layer 1
10
43.696560
20
9.073930
11
44.223708
21
8.354425
0
LINE
8
Layer 1
10
44.223708
20
8.354425
11
44.378625
21
8.214384
0
LINE
8
Layer 1
10
44.378625
20
8.214384
11
44.307268
21
8.414426
0
LINE
8
Layer 1
10
44.307268
20
8.414426
11
43.020028
21
10.338296
0
LINE
8
Layer 1
10
43.020028
20
10.338296
11
42.729766
21
10.687287
0
LINE
8
Layer 1
10
42.729766
20
10.687287
11
42.375400
21
10.781200
0
LINE
8
Layer 1
10
42.375400
20
10.781200
11
42.375400
21
10.781200
0
LINE
8
Layer 1
10
50.135100
20
0.027408
11
49.973669
21
0.237409
0
LINE
8
Layer 1
10
49.973669
20
0.237409
11
49.732087
21
0.547007
0
LINE
8
Layer 1
10
49.732087
20
0.547007
11
49.947222
21
0.266301
0
LINE
8
Layer 1
10
49.947222
20
0.266301
11
50.118440
21
0.048307
0
LINE
8
Layer 1
10
50.118440
20
0.048307
11
50.135100
21
0.027408
0
LINE
8
Layer 1
10
50.135100
20
0.027408
11
50.135100
21
0.027408
0
LINE
8
Layer 1
10
49.732100
20
0.546996
11
49.663574
21
0.636500
0
LINE
8
Layer 1
10
49.663574
20
0.636500
11
49.682432
21
0.610730
0
LINE
8
Layer 1
10
49.682432
20
0.610730
11
49.732100
21
0.546996
0
LINE
8
Layer 1
10
49.732100
20
0.546996
11
49.732100
21
0.546996
0
LINE
8
Layer 1
10
39.242300
20
15.794300
11
39.322341
21
15.730190
0
LINE
8
Layer 1
10
39.322341
20
15.730190
11
39.256242
21
15.857785
0
LINE
8
Layer 1
10
39.256242
20
15.857785
11
39.161980
21
15.969071
0
LINE
8
Layer 1
10
39.161980
20
15.969071
11
39.242300
21
15.794300
0
LINE
8
Layer 1
10
39.242300
20
15.794300
11
39.242300
21
15.794300
0
LINE
8
Layer 1
10
57.869600
20
59.681500
11
56.564940
21
61.256070
0
LINE
8
Layer 1
10
56.564940
20
61.256070
11
55.912468
21
62.045411
0
LINE
8
Layer 1
10
55.912468
20
62.045411
11
55.346170
21
62.838486
0
LINE
8
Layer 1
10
55.346170
20
62.838486
11
54.041600
21
64.712316
0
LINE
8
Layer 1
10
54.041600
20
64.712316
11
53.371729
21
65.703068
0
LINE
8
Layer 1
10
53.371729
20
65.703068
11
51.988489
21
67.654698
0
LINE
8
Layer 1
10
51.988489
20
67.654698
11
49.120799
21
71.486878
0
LINE
8
Layer 1
10
49.120799
20
71.486878
11
39.239519
21
83.945378
0
LINE
8
Layer 1
10
39.239519
20
83.945378
11
32.985609
21
91.173178
0
LINE
8
Layer 1
10
32.985609
20
91.173178
11
35.463699
21
95.189338
0
LINE
8
Layer 1
10
35.463699
20
95.189338
11
40.350549
21
103.023238
0
LINE
8
Layer 1
10
40.350549
20
103.023238
11
43.456969
21
107.911268
0
LINE
8
Layer 1
10
43.456969
20
107.911268
11
47.791089
21
115.008978
0
LINE
8
Layer 1
10
47.791089
20
115.008978
11
49.676799
21
118.230198
0
LINE
8
Layer 1
10
49.676799
20
118.230198
11
50.156826
21
118.974615
0
LINE
8
Layer 1
10
50.156826
20
118.974615
11
49.408076
21
118.031898
0
LINE
8
Layer 1
10
49.408076
20
118.031898
11
47.564216
21
115.852718
0
LINE
8
Layer 1
10
47.564216
20
115.852718
11
42.760516
21
110.253638
0
LINE
8
Layer 1
10
42.760516
20
110.253638
11
36.829136
21
103.465638
0
LINE
8
Layer 1
10
36.829136
20
103.465638
11
29.957766
21
95.798168
0
LINE
8
Layer 1
10
29.957766
20
95.798168
11
29.411350
21
95.187835
0
LINE
8
Layer 1
10
29.411350
20
95.187835
11
26.831620
21
98.085275
0
LINE
8
Layer 1
10
26.831620
20
98.085275
11
20.725800
21
105.011000
0
LINE
8
Layer 1
10
20.725800
20
105.011000
11
16.932300
21
109.387420
0
LINE
8
Layer 1
10
16.932300
20
109.387420
11
11.373500
21
115.572930
0
LINE
8
Layer 1
10
11.373500
20
115.572930
11
8.827340
21
118.303000
0
LINE
8
Layer 1
10
8.827340
20
118.303000
11
8.251631
21
118.976153
0
LINE
8
Layer 1
10
8.251631
20
118.976153
11
8.940432
21
117.988681
0
LINE
8
Layer 1
10
8.940432
20
117.988681
11
10.500062
21
115.598011
0
LINE
8
Layer 1
10
10.500062
20
115.598011
11
14.488622
21
109.391711
0
LINE
8
Layer 1
10
14.488622
20
109.391711
11
19.293252
21
101.764581
0
LINE
8
Layer 1
10
19.293252
20
101.764581
11
24.671212
21
92.984871
0
LINE
8
Layer 1
10
24.671212
20
92.984871
11
25.796532
21
91.150001
0
LINE
8
Layer 1
10
25.796532
20
91.150001
11
25.256718
21
90.547011
0
LINE
8
Layer 1
10
25.256718
20
90.547011
11
22.376400
21
87.303000
0
LINE
8
Layer 1
10
22.376400
20
87.303000
11
18.572760
21
82.948990
0
LINE
8
Layer 1
10
18.572760
20
82.948990
11
15.561980
21
79.338890
0
LINE
8
Layer 1
10
15.561980
20
79.338890
11
12.674120
21
75.866840
0
LINE
8
Layer 1
10
12.674120
20
75.866840
11
10.034000
21
72.468100
0
LINE
8
Layer 1
10
10.034000
20
72.468100
11
7.419660
21
69.050200
0
LINE
8
Layer 1
10
7.419660
20
69.050200
11
4.828630
21
65.614990
0
LINE
8
Layer 1
10
4.828630
20
65.614990
11
2.883100
21
63.003200
0
LINE
8
Layer 1
10
2.883100
20
63.003200
11
2.223875
21
62.124606
0
LINE
8
Layer 1
10
2.223875
20
62.124606
11
1.482300
21
61.245500
0
LINE
8
Layer 1
10
1.482300
20
61.245500
11
0.000000
21
59.488100
0
LINE
8
Layer 1
10
0.000000
20
59.488100
11
1.179780
21
58.095770
0
LINE
8
Layer 1
10
1.179780
20
58.095770
11
2.071288
21
57.071280
0
LINE
8
Layer 1
10
2.071288
20
57.071280
11
2.296783
21
56.816840
0
LINE
8
Layer 1
10
2.296783
20
56.816840
11
2.497161
21
56.563269
0
LINE
8
Layer 1
10
2.497161
20
56.563269
11
2.894072
21
56.056627
0
LINE
8
Layer 1
10
2.894072
20
56.056627
11
3.793578
21
54.902927
0
LINE
8
Layer 1
10
3.793578
20
54.902927
11
4.241557
21
54.329562
0
LINE
8
Layer 1
10
4.241557
20
54.329562
11
4.482490
21
54.033545
0
LINE
8
Layer 1
10
4.482490
20
54.033545
11
5.385575
21
52.906855
0
LINE
8
Layer 1
10
5.385575
20
52.906855
11
8.590275
21
48.774305
0
LINE
8
Layer 1
10
8.590275
20
48.774305
11
10.882795
21
45.757235
0
LINE
8
Layer 1
10
10.882795
20
45.757235
11
12.022079
21
44.359225
0
LINE
8
Layer 1
10
12.022079
20
44.359225
11
13.102555
21
42.915565
0
LINE
8
Layer 1
10
13.102555
20
42.915565
11
13.469404
21
42.523942
0
LINE
8
Layer 1
10
13.469404
20
42.523942
11
14.160822
21
41.818285
0
LINE
8
Layer 1
10
14.160822
20
41.818285
11
14.786234
21
41.051572
0
LINE
8
Layer 1
10
14.786234
20
41.051572
11
15.461484
21
40.217044
0
LINE
8
Layer 1
10
15.461484
20
40.217044
11
16.208784
21
39.435172
0
LINE
8
Layer 1
10
16.208784
20
39.435172
11
17.383489
21
38.233879
0
LINE
8
Layer 1
10
17.383489
20
38.233879
11
18.224744
21
36.779462
0
LINE
8
Layer 1
10
18.224744
20
36.779462
11
18.617597
21
36.206969
0
LINE
8
Layer 1
10
18.617597
20
36.206969
11
19.545173
21
35.097459
0
LINE
8
Layer 1
10
19.545173
20
35.097459
11
23.853903
21
29.993079
0
LINE
8
Layer 1
10
23.853903
20
29.993079
11
25.159683
21
28.498049
0
LINE
8
Layer 1
10
25.159683
20
28.498049
11
25.669001
21
27.888085
0
LINE
8
Layer 1
10
25.669001
20
27.888085
11
24.310031
21
25.620395
0
LINE
8
Layer 1
10
24.310031
20
25.620395
11
21.946581
21
21.988015
0
LINE
8
Layer 1
10
21.946581
20
21.988015
11
20.986764
21
20.463735
0
LINE
8
Layer 1
10
20.986764
20
20.463735
11
19.697254
21
18.349655
0
LINE
8
Layer 1
10
19.697254
20
18.349655
11
19.417730
21
17.888823
0
LINE
8
Layer 1
10
19.417730
20
17.888823
11
18.332990
21
16.024703
0
LINE
8
Layer 1
10
18.332990
20
16.024703
11
17.251520
21
14.176023
0
LINE
8
Layer 1
10
17.251520
20
14.176023
11
16.081390
21
12.373273
0
LINE
8
Layer 1
10
16.081390
20
12.373273
11
15.623265
21
11.606340
0
LINE
8
Layer 1
10
15.623265
20
11.606340
11
13.964135
21
8.858910
0
LINE
8
Layer 1
10
13.964135
20
8.858910
11
12.913255
21
7.183880
0
LINE
8
Layer 1
10
12.913255
20
7.183880
11
11.768675
21
5.368810
0
LINE
8
Layer 1
10
11.768675
20
5.368810
11
10.117100
21
2.813420
0
LINE
8
Layer 1
10
10.117100
20
2.813420
11
9.965078
21
2.563710
0
LINE
8
Layer 1
10
9.965078
20
2.563710
11
9.763354
21
2.178810
0
LINE
8
Layer 1
10
9.763354
20
2.178810
11
8.960695
21
1.019140
0
LINE
8
Layer 1
10
8.960695
20
1.019140
11
8.720008
21
0.656025
0
LINE
8
Layer 1
10
8.720008
20
0.656025
11
9.158527
21
1.241839
0
LINE
8
Layer 1
10
9.158527
20
1.241839
11
10.846687
21
3.516129
0
LINE
8
Layer 1
10
10.846687
20
3.516129
11
12.011097
21
5.106759
0
LINE
8
Layer 1
10
12.011097
20
5.106759
11
12.950374
21
6.386809
0
LINE
8
Layer 1
10
12.950374
20
6.386809
11
14.771074
21
8.940179
0
LINE
8
Layer 1
10
14.771074
20
8.940179
11
15.284408
21
9.543287
0
LINE
8
Layer 1
10
15.284408
20
9.543287
11
15.692927
21
10.002998
0
LINE
8
Layer 1
10
15.692927
20
10.002998
11
16.300150
21
10.845493
0
LINE
8
Layer 1
10
16.300150
20
10.845493
11
17.386720
21
12.247903
0
LINE
8
Layer 1
10
17.386720
20
12.247903
11
17.716657
21
12.641885
0
LINE
8
Layer 1
10
17.716657
20
12.641885
11
17.650835
21
12.188663
0
LINE
8
Layer 1
10
17.650835
20
12.188663
11
17.548391
21
11.722090
0
LINE
8
Layer 1
10
17.548391
20
11.722090
11
18.312459
21
12.592717
0
LINE
8
Layer 1
10
18.312459
20
12.592717
11
19.188939
21
13.616337
0
LINE
8
Layer 1
10
19.188939
20
13.616337
11
18.986436
21
13.731484
0
LINE
8
Layer 1
10
18.986436
20
13.731484
11
19.219156
21
14.136797
0
LINE
8
Layer 1
10
19.219156
20
14.136797
11
20.021536
21
15.076878
0
LINE
8
Layer 1
10
20.021536
20
15.076878
11
21.389626
21
16.688178
0
LINE
8
Layer 1
10
21.389626
20
16.688178
11
21.776764
21
17.269383
0
LINE
8
Layer 1
10
21.776764
20
17.269383
11
22.762144
21
18.482961
0
LINE
8
Layer 1
10
22.762144
20
18.482961
11
23.889474
21
19.565953
0
LINE
8
Layer 1
10
23.889474
20
19.565953
11
24.607281
21
20.177351
0
LINE
8
Layer 1
10
24.607281
20
20.177351
11
25.160214
21
20.941103
0
LINE
8
Layer 1
10
25.160214
20
20.941103
11
25.948900
21
21.871981
0
LINE
8
Layer 1
10
25.948900
20
21.871981
11
26.362752
21
22.317512
0
LINE
8
Layer 1
10
26.362752
20
22.317512
11
26.652691
21
22.852028
0
LINE
8
Layer 1
10
26.652691
20
22.852028
11
27.069208
21
23.703359
0
LINE
8
Layer 1
10
27.069208
20
23.703359
11
27.606595
21
24.135063
0
LINE
8
Layer 1
10
27.606595
20
24.135063
11
28.232846
21
24.710045
0
LINE
8
Layer 1
10
28.232846
20
24.710045
11
28.306943
21
24.804025
0
LINE
8
Layer 1
10
28.306943
20
24.804025
11
30.209803
21
22.725425
0
LINE
8
Layer 1
10
30.209803
20
22.725425
11
33.012953
21
19.420555
0
LINE
8
Layer 1
10
33.012953
20
19.420555
11
34.198453
21
18.064325
0
LINE
8
Layer 1
10
34.198453
20
18.064325
11
35.854503
21
16.223235
0
LINE
8
Layer 1
10
35.854503
20
16.223235
11
36.215998
21
15.823400
0
LINE
8
Layer 1
10
36.215998
20
15.823400
11
37.691298
21
14.250200
0
LINE
8
Layer 1
10
37.691298
20
14.250200
11
39.152748
21
12.684470
0
LINE
8
Layer 1
10
39.152748
20
12.684470
11
40.544798
21
11.047030
0
LINE
8
Layer 1
10
40.544798
20
11.047030
11
41.148350
21
10.388397
0
LINE
8
Layer 1
10
41.148350
20
10.388397
11
43.305430
21
8.011787
0
LINE
8
Layer 1
10
43.305430
20
8.011787
11
44.609250
21
6.525227
0
LINE
8
Layer 1
10
44.609250
20
6.525227
11
46.020410
21
4.908707
0
LINE
8
Layer 1
10
46.020410
20
4.908707
11
47.995630
21
2.594207
0
LINE
8
Layer 1
10
47.995630
20
2.594207
11
48.191255
21
2.377111
0
LINE
8
Layer 1
10
48.191255
20
2.377111
11
48.502241
21
2.073624
0
LINE
8
Layer 1
10
48.502241
20
2.073624
11
49.383417
21
0.972334
0
LINE
8
Layer 1
10
49.383417
20
0.972334
11
49.662320
21
0.637853
0
LINE
8
Layer 1
10
49.662320
20
0.637853
11
49.226693
21
1.225657
0
LINE
8
Layer 1
10
49.226693
20
1.225657
11
47.531283
21
3.494587
0
LINE
8
Layer 1
10
47.531283
20
3.494587
11
46.340833
21
5.065797
0
LINE
8
Layer 1
10
46.340833
20
5.065797
11
45.383505
21
6.332407
0
LINE
8
Layer 1
10
45.383505
20
6.332407
11
43.458645
21
8.808227
0
LINE
8
Layer 1
10
43.458645
20
8.808227
11
43.027906
21
9.472837
0
LINE
8
Layer 1
10
43.027906
20
9.472837
11
42.704406
21
9.995910
0
LINE
8
Layer 1
10
42.704406
20
9.995910
11
42.071137
21
10.818985
0
LINE
8
Layer 1
10
42.071137
20
10.818985
11
41.038767
21
12.261725
0
LINE
8
Layer 1
10
41.038767
20
12.261725
11
40.755851
21
12.690702
0
LINE
8
Layer 1
10
40.755851
20
12.690702
11
41.171147
21
12.497847
0
LINE
8
Layer 1
10
41.171147
20
12.497847
11
41.588821
21
12.265958
0
LINE
8
Layer 1
10
41.588821
20
12.265958
11
40.973600
21
13.247374
0
LINE
8
Layer 1
10
40.973600
20
13.247374
11
40.243949
21
14.380404
0
LINE
8
Layer 1
10
40.243949
20
14.380404
11
40.075589
21
14.219326
0
LINE
8
Layer 1
10
40.075589
20
14.219326
11
39.753958
21
14.558413
0
LINE
8
Layer 1
10
39.753958
20
14.558413
11
39.083094
21
15.596463
0
LINE
8
Layer 1
10
39.083094
20
15.596463
11
37.931134
21
17.368713
0
LINE
8
Layer 1
10
37.931134
20
17.368713
11
37.485147
21
17.906227
0
LINE
8
Layer 1
10
37.485147
20
17.906227
11
36.604661
21
19.197886
0
LINE
8
Layer 1
10
36.604661
20
19.197886
11
35.890027
21
20.588187
0
LINE
8
Layer 1
10
35.890027
20
20.588187
11
35.509845
21
21.451037
0
LINE
8
Layer 1
10
35.509845
20
21.451037
11
34.936529
21
22.199607
0
LINE
8
Layer 1
10
34.936529
20
22.199607
11
34.270550
21
23.221857
0
LINE
8
Layer 1
10
34.270550
20
23.221857
11
33.962184
21
23.745989
0
LINE
8
Layer 1
10
33.962184
20
23.745989
11
33.533087
21
24.176896
0
LINE
8
Layer 1
10
33.533087
20
24.176896
11
32.836828
21
24.819846
0
LINE
8
Layer 1
10
32.836828
20
24.819846
11
32.577065
21
25.458314
0
LINE
8
Layer 1
10
32.577065
20
25.458314
11
32.205548
21
26.223006
0
LINE
8
Layer 1
10
32.205548
20
26.223006
11
31.653659
21
27.064119
0
LINE
8
Layer 1
10
31.653659
20
27.064119
11
31.234400
21
27.978600
0
LINE
8
Layer 1
10
31.234400
20
27.978600
11
31.600625
21
28.510385
0
LINE
8
Layer 1
10
31.600625
20
28.510385
11
32.166046
21
29.184721
0
LINE
8
Layer 1
10
32.166046
20
29.184721
11
32.835145
21
29.744875
0
LINE
8
Layer 1
10
32.835145
20
29.744875
11
33.200778
21
30.137243
0
LINE
8
Layer 1
10
33.200778
20
30.137243
11
34.433829
21
31.674238
0
LINE
8
Layer 1
10
34.433829
20
31.674238
11
35.727728
21
33.155313
0
LINE
8
Layer 1
10
35.727728
20
33.155313
11
37.025591
21
34.649222
0
LINE
8
Layer 1
10
37.025591
20
34.649222
11
38.219828
21
36.230513
0
LINE
8
Layer 1
10
38.219828
20
36.230513
11
38.601180
21
36.596738
0
LINE
8
Layer 1
10
38.601180
20
36.596738
11
40.849480
21
39.177128
0
LINE
8
Layer 1
10
40.849480
20
39.177128
11
41.287531
21
39.749994
0
LINE
8
Layer 1
10
41.287531
20
39.749994
11
46.065741
21
45.145794
0
LINE
8
Layer 1
10
46.065741
20
45.145794
11
50.984801
21
50.913794
0
LINE
8
Layer 1
10
50.984801
20
50.913794
11
53.463731
21
53.938454
0
LINE
8
Layer 1
10
53.463731
20
53.938454
11
53.770487
21
54.319118
0
LINE
8
Layer 1
10
53.770487
20
54.319118
11
53.946972
21
54.540572
0
LINE
8
Layer 1
10
53.946972
20
54.540572
11
54.238290
21
54.916384
0
LINE
8
Layer 1
10
54.238290
20
54.916384
11
55.409010
21
56.427094
0
LINE
8
Layer 1
10
55.409010
20
56.427094
11
56.688840
21
57.951254
0
LINE
8
Layer 1
10
56.688840
20
57.951254
11
58.026930
21
59.488104
0
LINE
8
Layer 1
10
58.026930
20
59.488104
11
57.869600
21
59.681500
0
LINE
8
Layer 1
10
14.667800
20
9.544550
11
14.519351
21
9.396166
0
LINE
8
Layer 1
10
14.519351
20
9.396166
11
14.578417
21
9.518035
0
LINE
8
Layer 1
10
14.578417
20
9.518035
11
14.969354
21
10.055050
0
LINE
8
Layer 1
10
14.969354
20
10.055050
11
14.667800
21
9.544550
0
LINE
8
Layer 1
10
14.667800
20
9.544550
11
14.667800
21
9.544550
0
LINE
8
Layer 1
10
21.550380
20
17.740320
11
21.530432
21
17.790860
0
LINE
8
Layer 1
10
21.530432
20
17.790860
11
21.745382
21
18.063227
0
LINE
8
Layer 1
10
21.745382
20
18.063227
11
21.759013
21
18.011442
0
LINE
8
Layer 1
10
21.759013
20
18.011442
11
21.550380
21
17.740320
0
LINE
8
Layer 1
10
25.089460
20
21.810240
11
24.098296
21
20.993267
0
LINE
8
Layer 1
10
24.098296
20
20.993267
11
24.012588
21
20.997125
0
LINE
8
Layer 1
10
24.012588
20
20.997125
11
24.076652
21
21.242729
0
LINE
8
Layer 1
10
24.076652
20
21.242729
11
24.192482
21
21.401815
0
LINE
8
Layer 1
10
24.192482
20
21.401815
11
24.948151
21
22.330701
0
LINE
8
Layer 1
10
24.948151
20
22.330701
11
25.210610
21
22.657559
0
LINE
8
Layer 1
10
25.210610
20
22.657559
11
25.388505
21
22.705641
0
LINE
8
Layer 1
10
25.388505
20
22.705641
11
25.428838
21
22.508709
0
LINE
8
Layer 1
10
25.428838
20
22.508709
11
25.089500
21
21.810300
0
LINE
8
Layer 1
10
25.089500
20
21.810300
11
25.089460
21
21.810240
0
LINE
8
Layer 1
10
42.850000
20
8.882430
11
42.949678
21
8.697699
0
LINE
8
Layer 1
10
42.949678
20
8.697699
11
42.849749
21
8.789195
0
LINE
8
Layer 1
10
42.849749
20
8.789195
11
42.447238
21
9.317619
0
LINE
8
Layer 1
10
42.447238
20
9.317619
11
42.850000
21
8.882430
0
LINE
8
Layer 1
10
42.850000
20
8.882430
11
42.850000
21
8.882430
0
LINE
8
Layer 1
10
36.769200
20
18.101800
11
36.969180
21
17.824206
0
LINE
8
Layer 1
10
36.969180
20
17.824206
11
36.914968
21
17.819600
0
LINE
8
Layer 1
10
36.914968
20
17.819600
11
36.715674
21
18.103544
0
LINE
8
Layer 1
10
36.715674
20
18.103544
11
36.769200
21
18.101800
0
LINE
8
Layer 1
10
36.769200
20
18.101800
11
36.769200
21
18.101800
0
LINE
8
Layer 1
10
33.311340
20
22.923850
11
33.511568
21
22.906047
0
LINE
8
Layer 1
10
33.511568
20
22.906047
11
33.849248
21
22.697214
0
LINE
8
Layer 1
10
33.849248
20
22.697214
11
34.083533
21
22.380733
0
LINE
8
Layer 1
10
34.083533
20
22.380733
11
34.582301
21
21.197163
0
LINE
8
Layer 1
10
34.582301
20
21.197163
11
34.554042
21
21.116126
0
LINE
8
Layer 1
10
34.554042
20
21.116126
11
34.337135
21
21.247828
0
LINE
8
Layer 1
10
34.337135
20
21.247828
11
34.217910
21
21.404427
0
LINE
8
Layer 1
10
34.217910
20
21.404427
11
33.544339
21
22.394555
0
LINE
8
Layer 1
10
33.544339
20
22.394555
11
33.306380
21
22.739607
0
LINE
8
Layer 1
10
33.306380
20
22.739607
11
33.311300
21
22.923900
0
LINE
8
Layer 1
10
33.311300
20
22.923900
11
33.311340
21
22.923850
0
LINE
8
Layer 1
10
27.871500
20
24.884600
11
27.690378
21
24.896925
0
LINE
8
Layer 1
10
27.690378
20
24.896925
11
27.724702
21
25.033978
0
LINE
8
Layer 1
10
27.724702
20
25.033978
11
27.891913
21
25.240742
0
LINE
8
Layer 1
10
27.891913
20
25.240742
11
28.053626
21
25.071448
0
LINE
8
Layer 1
10
28.053626
20
25.071448
11
27.871500
21
24.884600
0
LINE
8
Layer 1
10
27.871500
20
24.884600
11
27.871500
21
24.884600
0
LINE
8
Layer 1
10
31.441520
20
26.785560
11
31.934844
21
25.926885
0
LINE
8
Layer 1
10
31.934844
20
25.926885
11
31.871203
21
25.756841
0
LINE
8
Layer 1
10
31.871203
20
25.756841
11
31.749740
21
25.829042
0
LINE
8
Layer 1
10
31.749740
20
25.829042
11
30.708700
21
27.349462
0
LINE
8
Layer 1
10
30.708700
20
27.349462
11
30.855650
21
27.547263
0
LINE
8
Layer 1
10
30.855650
20
27.547263
11
31.441500
21
26.785600
0
LINE
8
Layer 1
10
31.441500
20
26.785600
11
31.441520
21
26.785560
0
LINE
8
Layer 1
10
46.936920
20
59.237660
11
46.116179
21
58.049730
0
LINE
8
Layer 1
10
46.116179
20
58.049730
11
43.074649
21
53.795440
0
LINE
8
Layer 1
10
43.074649
20
53.795440
11
40.840699
21
50.734800
0
LINE
8
Layer 1
10
40.840699
20
50.734800
11
39.827648
21
49.242852
0
LINE
8
Layer 1
10
39.827648
20
49.242852
11
38.753949
21
47.794050
0
LINE
8
Layer 1
10
38.753949
20
47.794050
11
38.483885
21
47.330478
0
LINE
8
Layer 1
10
38.483885
20
47.330478
11
38.005831
21
46.465873
0
LINE
8
Layer 1
10
38.005831
20
46.465873
11
37.450405
21
45.647108
0
LINE
8
Layer 1
10
37.450405
20
45.647108
11
36.844224
21
44.761082
0
LINE
8
Layer 1
10
36.844224
20
44.761082
11
36.309185
21
43.821088
0
LINE
8
Layer 1
10
36.309185
20
43.821088
11
35.494694
21
42.351518
0
LINE
8
Layer 1
10
35.494694
20
42.351518
11
34.342185
21
41.128918
0
LINE
8
Layer 1
10
34.342185
20
41.128918
11
33.906186
21
40.588542
0
LINE
8
Layer 1
10
33.906186
20
40.588542
11
33.108881
21
39.382062
0
LINE
8
Layer 1
10
33.108881
20
39.382062
11
29.452631
21
33.791702
0
LINE
8
Layer 1
10
29.452631
20
33.791702
11
28.547305
21
32.357922
0
LINE
8
Layer 1
10
28.547305
20
32.357922
11
28.428952
21
32.537415
0
LINE
8
Layer 1
10
28.428952
20
32.537415
11
27.309534
21
34.159059
0
LINE
8
Layer 1
10
27.309534
20
34.159059
11
26.261072
21
35.822995
0
LINE
8
Layer 1
10
26.261072
20
35.822995
11
25.201564
21
37.494414
0
LINE
8
Layer 1
10
25.201564
20
37.494414
11
24.028642
21
39.091515
0
LINE
8
Layer 1
10
24.028642
20
39.091515
11
23.786992
21
39.561807
0
LINE
8
Layer 1
10
23.786992
20
39.561807
11
21.958692
21
42.455017
0
LINE
8
Layer 1
10
21.958692
20
42.455017
11
21.535331
21
43.038836
0
LINE
8
Layer 1
10
21.535331
20
43.038836
11
17.734341
21
49.162356
0
LINE
8
Layer 1
10
17.734341
20
49.162356
11
13.617101
21
55.527496
0
LINE
8
Layer 1
10
13.617101
20
55.527496
11
11.429171
21
58.769006
0
LINE
8
Layer 1
10
11.429171
20
58.769006
11
11.152354
21
59.171954
0
LINE
8
Layer 1
10
11.152354
20
59.171954
11
11.083111
21
59.272659
0
LINE
8
Layer 1
10
11.083111
20
59.272659
11
11.032353
21
59.340751
0
LINE
8
Layer 1
10
11.032353
20
59.340751
11
10.893898
21
59.371002
0
LINE
8
Layer 1
10
10.893898
20
59.371002
11
10.852632
21
59.425152
0
LINE
8
Layer 1
10
10.852632
20
59.425152
11
10.849053
21
59.488138
0
LINE
8
Layer 1
10
10.849053
20
59.488138
11
10.916504
21
59.549259
0
LINE
8
Layer 1
10
10.916504
20
59.549259
11
10.944916
21
59.573657
0
LINE
8
Layer 1
10
10.944916
20
59.573657
11
11.029379
21
59.558968
0
LINE
8
Layer 1
10
11.029379
20
59.558968
11
11.140323
21
59.527102
0
LINE
8
Layer 1
10
11.140323
20
59.527102
11
11.192387
21
59.508678
0
LINE
8
Layer 1
10
11.192387
20
59.508678
11
11.283040
21
59.560339
0
LINE
8
Layer 1
10
11.283040
20
59.560339
11
12.040357
21
60.485861
0
LINE
8
Layer 1
10
12.040357
20
60.485861
11
13.514007
21
62.370261
0
LINE
8
Layer 1
10
13.514007
20
62.370261
11
16.364167
21
66.215391
0
LINE
8
Layer 1
10
16.364167
20
66.215391
11
25.470367
21
79.251291
0
LINE
8
Layer 1
10
25.470367
20
79.251291
11
29.371287
21
85.336091
0
LINE
8
Layer 1
10
29.371287
20
85.336091
11
30.639007
21
83.287491
0
LINE
8
Layer 1
10
30.639007
20
83.287491
11
33.721027
21
78.396091
0
LINE
8
Layer 1
10
33.721027
20
78.396091
11
36.317507
21
74.477401
0
LINE
8
Layer 1
10
36.317507
20
74.477401
11
38.816917
21
70.716061
0
LINE
8
Layer 1
10
38.816917
20
70.716061
11
41.317017
21
67.213141
0
LINE
8
Layer 1
10
41.317017
20
67.213141
11
43.842787
21
63.729261
0
LINE
8
Layer 1
10
43.842787
20
63.729261
11
46.391927
21
60.262941
0
LINE
8
Layer 1
10
46.391927
20
60.262941
11
47.034129
21
59.399906
0
LINE
8
Layer 1
10
47.034129
20
59.399906
11
46.936900
21
59.237600
0
LINE
8
Layer 1
10
46.936900
20
59.237600
11
46.936920
21
59.237660
0
LINE
8
Layer 1
10
15.093800
20
8.788320
11
14.555351
21
8.077154
0
LINE
8
Layer 1
10
14.555351
20
8.077154
11
14.465604
21
7.888689
0
LINE
8
Layer 1
10
14.465604
20
7.888689
11
14.636797
21
8.014278
0
LINE
8
Layer 1
10
14.636797
20
8.014278
11
16.111407
21
9.798728
0
LINE
8
Layer 1
10
16.111407
20
9.798728
11
16.362625
21
10.176764
0
LINE
8
Layer 1
10
16.362625
20
10.176764
11
16.351013
21
10.543131
0
LINE
8
Layer 1
10
16.351013
20
10.543131
11
15.093800
21
8.788320
0
LINE
8
Layer 1
10
15.093800
20
8.788320
11
15.093800
21
8.788320
0
LINE
8
Layer 1
10
8.270670
20
0.028280
11
8.425610
21
0.243136
0
LINE
8
Layer 1
10
8.425610
20
0.243136
11
8.654066
21
0.564672
0
LINE
8
Layer 1
10
8.654066
20
0.564672
11
8.445716
21
0.276746
0
LINE
8
Layer 1
10
8.445716
20
0.276746
11
8.285861
21
0.050282
0
LINE
8
Layer 1
10
8.285861
20
0.050282
11
8.270670
21
0.028280
0
LINE
8
Layer 1
10
8.270670
20
0.028280
11
8.270670
21
0.028280
0
LINE
8
Layer 1
10
8.654080
20
0.564680
11
8.719093
21
0.654556
0
LINE
8
Layer 1
10
8.719093
20
0.654556
11
8.699828
21
0.629038
0
LINE
8
Layer 1
10
8.699828
20
0.629038
11
8.654080
21
0.564680
0
LINE
8
Layer 1
10
8.654080
20
0.564680
11
8.654080
21
0.564680
0
LINE
8
Layer 1
10
20.218200
20
14.885800
11
20.321521
21
14.985760
0
LINE
8
Layer 1
10
20.321521
20
14.985760
11
20.401062
21
15.107875
0
LINE
8
Layer 1
10
20.401062
20
15.107875
11
20.256632
21
14.980903
0
LINE
8
Layer 1
10
20.256632
20
14.980903
11
20.218200
21
14.885800
0
LINE
8
Layer 1
10
20.218200
20
14.885800
11
20.218200
21
14.885800
 0 
ENDSEC
 0 
EOF