999
"DXF R12 Output" (www.mydxf.blogspot.com)
 0 
SECTION
 2 
HEADER
 9 
$ACADVER
 1 
AC1009
 9 
$EXTMIN
 10 
 0 
 20 
 0 
 9 
$EXTMAX
 10 
 8.5 
 20 
 11 
 0 
ENDSEC
 0 
SECTION
 2 
ENTITIES
0
LINE
8
Layer 1
10
7.372690
20
88.980900
11
7.321653
21
95.776120
0
LINE
8
Layer 1
10
7.321653
20
95.776120
11
7.472523
21
100.041250
0
LINE
8
Layer 1
10
7.472523
20
100.041250
11
7.627217
21
103.099412
0
LINE
8
Layer 1
10
7.627217
20
103.099412
11
7.455590
21
106.156670
0
LINE
8
Layer 1
10
7.455590
20
106.156670
11
7.297756
21
106.935740
0
LINE
8
Layer 1
10
7.297756
20
106.935740
11
6.998532
21
107.664643
0
LINE
8
Layer 1
10
6.998532
20
107.664643
11
6.567862
21
108.324460
0
LINE
8
Layer 1
10
6.567862
20
108.324460
11
6.015690
21
108.896270
0
LINE
8
Layer 1
10
6.015690
20
108.896270
11
5.229677
21
109.378708
0
LINE
8
Layer 1
10
5.229677
20
109.378708
11
4.319525
21
109.549034
0
LINE
8
Layer 1
10
4.319525
20
109.549034
11
3.393990
21
109.333910
0
LINE
8
Layer 1
10
3.393990
20
109.333910
11
2.561830
21
108.660000
0
LINE
8
Layer 1
10
2.561830
20
108.660000
11
1.957461
21
107.674484
0
LINE
8
Layer 1
10
1.957461
20
107.674484
11
1.664564
21
106.556130
0
LINE
8
Layer 1
10
1.664564
20
106.556130
11
1.107509
21
101.121120
0
LINE
8
Layer 1
10
1.107509
20
101.121120
11
0.699956
21
94.484800
0
LINE
8
Layer 1
10
0.699956
20
94.484800
11
0.277588
21
86.912800
0
LINE
8
Layer 1
10
0.277588
20
86.912800
11
0.099342
21
81.728900
0
LINE
8
Layer 1
10
0.099342
20
81.728900
11
0.033243
21
78.537310
0
LINE
8
Layer 1
10
0.033243
20
78.537310
11
0.001976
21
74.280900
0
LINE
8
Layer 1
10
0.001976
20
74.280900
11
0.076790
21
70.814700
0
LINE
8
Layer 1
10
0.076790
20
70.814700
11
0.144009
21
67.484560
0
LINE
8
Layer 1
10
0.144009
20
67.484560
11
0.853797
21
54.145160
0
LINE
8
Layer 1
10
0.853797
20
54.145160
11
0.932718
21
53.213545
0
LINE
8
Layer 1
10
0.932718
20
53.213545
11
1.102760
21
51.082665
0
LINE
8
Layer 1
10
1.102760
20
51.082665
11
1.320977
21
47.221485
0
LINE
8
Layer 1
10
1.320977
20
47.221485
11
1.446704
21
44.423505
0
LINE
8
Layer 1
10
1.446704
20
44.423505
11
1.582391
21
41.761335
0
LINE
8
Layer 1
10
1.582391
20
41.761335
11
1.624964
21
41.367599
0
LINE
8
Layer 1
10
1.624964
20
41.367599
11
1.757411
21
39.914769
0
LINE
8
Layer 1
10
1.757411
20
39.914769
11
1.887371
21
38.329989
0
LINE
8
Layer 1
10
1.887371
20
38.329989
11
2.025423
21
37.102140
0
LINE
8
Layer 1
10
2.025423
20
37.102140
11
1.968651
21
35.867859
0
LINE
8
Layer 1
10
1.968651
20
35.867859
11
1.969647
21
35.355491
0
LINE
8
Layer 1
10
1.969647
20
35.355491
11
2.033633
21
34.289181
0
LINE
8
Layer 1
10
2.033633
20
34.289181
11
2.318821
21
29.365531
0
LINE
8
Layer 1
10
2.318821
20
29.365531
11
2.410314
21
27.904111
0
LINE
8
Layer 1
10
2.410314
20
27.904111
11
2.508779
21
26.451901
0
LINE
8
Layer 1
10
2.508779
20
26.451901
11
2.545129
21
25.020361
0
LINE
8
Layer 1
10
2.545129
20
25.020361
11
2.584341
21
24.492806
0
LINE
8
Layer 1
10
2.584341
20
24.492806
11
2.733967
21
22.257736
0
LINE
8
Layer 1
10
2.733967
20
22.257736
11
2.873636
21
19.063906
0
LINE
8
Layer 1
10
2.873636
20
19.063906
11
2.937869
21
17.737806
0
LINE
8
Layer 1
10
2.937869
20
17.737806
11
3.033472
21
15.917006
0
LINE
8
Layer 1
10
3.033472
20
15.917006
11
3.054009
21
15.520653
0
LINE
8
Layer 1
10
3.054009
20
15.520653
11
3.146875
21
13.938233
0
LINE
8
Layer 1
10
3.146875
20
13.938233
11
3.233266
21
12.366273
0
LINE
8
Layer 1
10
3.233266
20
12.366273
11
3.285920
21
10.782493
0
LINE
8
Layer 1
10
3.285920
20
10.782493
11
3.316792
21
10.126098
0
LINE
8
Layer 1
10
3.316792
20
10.126098
11
3.418866
21
7.767168
0
LINE
8
Layer 1
10
3.418866
20
7.767168
11
3.468410
21
6.311598
0
LINE
8
Layer 1
10
3.468410
20
6.311598
11
3.517830
21
4.731678
0
LINE
8
Layer 1
10
3.517830
20
4.731678
11
3.574593
21
2.489758
0
LINE
8
Layer 1
10
3.574593
20
2.489758
11
3.581688
21
2.274778
0
LINE
8
Layer 1
10
3.581688
20
2.274778
11
3.598991
21
1.957843
0
LINE
8
Layer 1
10
3.598991
20
1.957843
11
3.611440
21
0.917043
0
LINE
8
Layer 1
10
3.611440
20
0.917043
11
3.617167
21
0.600108
0
LINE
8
Layer 1
10
3.617167
20
0.600108
11
3.617542
21
1.136127
0
LINE
8
Layer 1
10
3.617542
20
1.136127
11
3.616170
21
3.227797
0
LINE
8
Layer 1
10
3.616170
20
3.227797
11
3.611564
21
4.683497
0
LINE
8
Layer 1
10
3.611564
20
4.683497
11
3.608330
21
5.855867
0
LINE
8
Layer 1
10
3.608330
20
5.855867
11
3.589035
21
8.171217
0
LINE
8
Layer 1
10
3.589035
20
8.171217
11
3.603597
21
8.754787
0
LINE
8
Layer 1
10
3.603597
20
8.754787
11
3.619035
21
9.207279
0
LINE
8
Layer 1
10
3.619035
20
9.207279
11
3.614181
21
9.974076
0
LINE
8
Layer 1
10
3.614181
20
9.974076
11
3.624262
21
11.283996
0
LINE
8
Layer 1
10
3.624262
20
11.283996
11
3.633349
21
11.662794
0
LINE
8
Layer 1
10
3.633349
20
11.662794
11
3.758828
21
11.043881
0
LINE
8
Layer 1
10
3.758828
20
11.043881
11
3.789590
21
11.896457
0
LINE
8
Layer 1
10
3.789590
20
11.896457
11
3.821332
21
12.889314
0
LINE
8
Layer 1
10
3.821332
20
12.889314
11
3.748758
21
12.868147
0
LINE
8
Layer 1
10
3.748758
20
12.868147
11
3.732079
21
13.210846
0
LINE
8
Layer 1
10
3.732079
20
13.210846
11
3.759963
21
14.121557
0
LINE
8
Layer 1
10
3.759963
20
14.121557
11
3.808011
21
15.679327
0
LINE
8
Layer 1
10
3.808011
20
15.679327
11
3.797555
21
16.194309
0
LINE
8
Layer 1
10
3.797555
20
16.194309
11
3.915566
21
18.486399
0
LINE
8
Layer 1
10
3.915566
20
18.486399
11
3.991622
21
19.861299
0
LINE
8
Layer 1
10
3.991622
20
19.861299
11
4.024611
21
20.760557
0
LINE
8
Layer 1
10
4.024611
20
20.760557
11
4.022494
21
21.651473
0
LINE
8
Layer 1
10
4.022494
20
21.651473
11
3.963241
21
22.339361
0
LINE
8
Layer 1
10
3.963241
20
22.339361
11
4.029964
21
22.832061
0
LINE
8
Layer 1
10
4.029964
20
22.832061
11
4.093075
21
23.448868
0
LINE
8
Layer 1
10
4.093075
20
23.448868
11
4.239591
21
25.109828
0
LINE
8
Layer 1
10
4.239591
20
25.109828
11
4.285649
21
25.877257
0
LINE
8
Layer 1
10
4.285649
20
25.877257
11
4.292372
21
27.185077
0
LINE
8
Layer 1
10
4.292372
20
27.185077
11
4.407643
21
28.460767
0
LINE
8
Layer 1
10
4.407643
20
28.460767
11
4.436523
21
28.854379
0
LINE
8
Layer 1
10
4.436523
20
28.854379
11
4.570093
21
31.756549
0
LINE
8
Layer 1
10
4.570093
20
31.756549
11
4.687353
21
34.677019
0
LINE
8
Layer 1
10
4.687353
20
34.677019
11
4.732915
21
35.062165
0
LINE
8
Layer 1
10
4.732915
20
35.062165
11
4.900837
21
37.582175
0
LINE
8
Layer 1
10
4.900837
20
37.582175
11
4.916147
21
38.114708
0
LINE
8
Layer 1
10
4.916147
20
38.114708
11
5.346358
21
43.418008
0
LINE
8
Layer 1
10
5.346358
20
43.418008
11
5.799846
21
49.003888
0
LINE
8
Layer 1
10
5.799846
20
49.003888
11
6.246736
21
54.865248
0
LINE
8
Layer 1
10
6.246736
20
54.865248
11
6.350055
21
56.331648
0
LINE
8
Layer 1
10
6.350055
20
56.331648
11
6.881967
21
63.395998
0
LINE
8
Layer 1
10
6.881967
20
63.395998
11
7.435537
21
75.133298
0
LINE
8
Layer 1
10
7.435537
20
75.133298
11
7.483340
21
82.192918
0
LINE
8
Layer 1
10
7.483340
20
82.192918
11
7.372690
21
88.980900
0
LINE
8
Layer 1
10
7.372690
20
88.980900
11
7.372690
21
88.980900
0
LINE
8
Layer 1
10
3.452370
20
8.330240
11
3.444654
21
8.428580
0
LINE
8
Layer 1
10
3.444654
20
8.428580
11
3.440920
21
8.919040
0
LINE
8
Layer 1
10
3.440920
20
8.919040
11
3.460588
21
8.483600
0
LINE
8
Layer 1
10
3.460588
20
8.483600
11
3.452370
21
8.330240
0
LINE
8
Layer 1
10
3.452370
20
8.330240
11
3.452370
21
8.330240
0
LINE
8
Layer 1
10
3.644199
20
16.373520
11
3.632123
21
16.650741
0
LINE
8
Layer 1
10
3.632123
20
16.650741
11
3.644200
21
16.373500
0
LINE
8
Layer 1
10
3.644200
20
16.373500
11
3.644199
21
16.373520
0
LINE
8
Layer 1
10
3.790339
20
20.344990
11
3.680422
21
19.423947
0
LINE
8
Layer 1
10
3.680422
20
19.423947
11
3.655651
21
19.388469
0
LINE
8
Layer 1
10
3.655651
20
19.388469
11
3.622290
21
19.562123
0
LINE
8
Layer 1
10
3.622290
20
19.562123
11
3.621542
21
19.707391
0
LINE
8
Layer 1
10
3.621542
20
19.707391
11
3.639841
21
20.590966
0
LINE
8
Layer 1
10
3.639841
20
20.590966
11
3.686273
21
21.007243
0
LINE
8
Layer 1
10
3.686273
20
21.007243
11
3.739923
21
20.908406
0
LINE
8
Layer 1
10
3.739923
20
20.908406
11
3.790340
21
20.345000
0
LINE
8
Layer 1
10
3.790340
20
20.345000
11
3.790339
21
20.344990
0
LINE
8
Layer 1
10
3.993742
20
24.119140
11
3.945818
21
23.392912
0
LINE
8
Layer 1
10
3.945818
20
23.392912
11
3.888679
21
23.320341
0
LINE
8
Layer 1
10
3.888679
20
23.320341
11
3.868887
21
23.416579
0
LINE
8
Layer 1
10
3.868887
20
23.416579
11
3.906987
21
24.965009
0
LINE
8
Layer 1
10
3.906987
20
24.965009
11
3.933005
21
25.035847
0
LINE
8
Layer 1
10
3.933005
20
25.035847
11
3.990014
21
24.937382
0
LINE
8
Layer 1
10
3.990014
20
24.937382
11
3.993750
21
24.119200
0
LINE
8
Layer 1
10
3.993750
20
24.119200
11
3.993742
21
24.119140
0
LINE
8
Layer 1
10
3.689510
20
8.223680
11
3.686645
21
7.564923
0
LINE
8
Layer 1
10
3.686645
20
7.564923
11
3.697850
21
7.413677
0
LINE
8
Layer 1
10
3.697850
20
7.413677
11
3.715776
21
7.563678
0
LINE
8
Layer 1
10
3.715776
20
7.563678
11
3.753244
21
9.270948
0
LINE
8
Layer 1
10
3.753244
20
9.270948
11
3.679799
21
9.817550
0
LINE
8
Layer 1
10
3.679799
20
9.817550
11
3.689510
21
8.223680
0
LINE
8
Layer 1
10
3.689510
20
8.223680
11
3.689510
21
8.223680
0
LINE
8
Layer 1
10
3.617800
20
0.489495
11
3.617300
21
0.594558
0
LINE
8
Layer 1
10
3.617300
20
0.594558
11
3.617800
21
0.489495
0
LINE
8
Layer 1
10
3.617800
20
0.489495
11
3.617800
21
0.489495
0
LINE
8
Layer 1
10
3.620670
20
0.025799
11
3.619674
21
0.221362
0
LINE
8
Layer 1
10
3.619674
20
0.221362
11
3.617808
21
0.489495
0
LINE
8
Layer 1
10
3.617808
20
0.489495
11
3.618805
21
0.250114
0
LINE
8
Layer 1
10
3.618805
20
0.250114
11
3.620670
21
0.025799
0
LINE
8
Layer 1
10
3.620670
20
0.025799
11
3.620670
21
0.025799
0
LINE
8
Layer 1
10
3.838890
20
14.168600
11
3.846857
21
14.095282
0
LINE
8
Layer 1
10
3.846857
20
14.095282
11
3.854824
21
14.200095
0
LINE
8
Layer 1
10
3.854824
20
14.200095
11
3.852335
21
14.307524
0
LINE
8
Layer 1
10
3.852335
20
14.307524
11
3.838890
21
14.168600
0
LINE
8
Layer 1
10
3.838890
20
14.168600
11
3.838890
21
14.168600
 0 
ENDSEC
 0 
EOF