999
"DXF R12 Output" (www.mydxf.blogspot.com)
 0 
SECTION
 2 
HEADER
 9 
$ACADVER
 1 
AC1009
 9 
$EXTMIN
 10 
 0 
 20 
 0 
 9 
$EXTMAX
 10 
 8.5 
 20 
 11 
 0 
ENDSEC
 0 
SECTION
 2 
ENTITIES
0
LINE
8
Layer 1
10
38.744900
20
1.886120
11
37.765801
21
2.730607
0
LINE
8
Layer 1
10
37.765801
20
2.730607
11
36.978579
21
3.412269
0
LINE
8
Layer 1
10
36.978579
20
3.412269
11
35.395429
21
4.726429
0
LINE
8
Layer 1
10
35.395429
20
4.726429
11
35.041387
21
5.108464
0
LINE
8
Layer 1
10
35.041387
20
5.108464
11
34.775534
21
5.414441
0
LINE
8
Layer 1
10
34.775534
20
5.414441
11
34.254719
21
5.853612
0
LINE
8
Layer 1
10
34.254719
20
5.853612
11
33.405846
21
6.649800
0
LINE
8
Layer 1
10
33.405846
20
6.649800
11
33.173295
21
6.894769
0
LINE
8
Layer 1
10
33.173295
20
6.894769
11
33.515506
21
6.882896
0
LINE
8
Layer 1
10
33.515506
20
6.882896
11
33.859597
21
6.840865
0
LINE
8
Layer 1
10
33.859597
20
6.840865
11
33.353951
21
7.412113
0
LINE
8
Layer 1
10
33.353951
20
7.412113
11
32.754195
21
8.065022
0
LINE
8
Layer 1
10
32.754195
20
8.065022
11
32.615060
21
7.879419
0
LINE
8
Layer 1
10
32.615060
20
7.879419
11
32.350381
21
8.039628
0
LINE
8
Layer 1
10
32.350381
20
8.039628
11
31.798939
21
8.637016
0
LINE
8
Layer 1
10
31.798939
20
8.637016
11
30.852053
21
9.654786
0
LINE
8
Layer 1
10
30.852053
20
9.654786
11
30.485164
21
9.930387
0
LINE
8
Layer 1
10
30.485164
20
9.930387
11
29.755912
21
10.664816
0
LINE
8
Layer 1
10
29.755912
20
10.664816
11
29.174434
21
11.521017
0
LINE
8
Layer 1
10
29.174434
20
11.521017
11
28.868860
21
12.070231
0
LINE
8
Layer 1
10
28.868860
20
12.070231
11
28.390943
21
12.478407
0
LINE
8
Layer 1
10
28.390943
20
12.478407
11
27.843503
21
13.064966
0
LINE
8
Layer 1
10
27.843503
20
13.064966
11
27.589248
21
13.377701
0
LINE
8
Layer 1
10
27.589248
20
13.377701
11
27.237008
21
13.573601
0
LINE
8
Layer 1
10
27.237008
20
13.573601
11
26.972190
21
13.640369
0
LINE
8
Layer 1
10
26.972190
20
13.640369
11
26.663877
21
13.847833
0
LINE
8
Layer 1
10
26.663877
20
13.847833
11
26.450799
21
14.267463
0
LINE
8
Layer 1
10
26.450799
20
14.267463
11
26.145771
21
14.749332
0
LINE
8
Layer 1
10
26.145771
20
14.749332
11
25.631853
21
15.314551
0
LINE
8
Layer 1
10
25.631853
20
15.314551
11
25.272483
21
15.988672
0
LINE
8
Layer 1
10
25.272483
20
15.988672
11
24.828223
21
16.515106
0
LINE
8
Layer 1
10
24.828223
20
16.515106
11
24.383620
21
16.887183
0
LINE
8
Layer 1
10
24.383620
20
16.887183
11
23.946206
21
17.271210
0
LINE
8
Layer 1
10
23.946206
20
17.271210
11
23.548261
21
17.690964
0
LINE
8
Layer 1
10
23.548261
20
17.690964
11
23.265165
21
18.211173
0
LINE
8
Layer 1
10
23.265165
20
18.211173
11
23.042373
21
18.487025
0
LINE
8
Layer 1
10
23.042373
20
18.487025
11
22.122048
21
19.395932
0
LINE
8
Layer 1
10
22.122048
20
19.395932
11
21.260323
21
20.362725
0
LINE
8
Layer 1
10
21.260323
20
20.362725
11
20.389489
21
21.331692
0
LINE
8
Layer 1
10
20.389489
20
21.331692
11
19.424993
21
22.202815
0
LINE
8
Layer 1
10
19.424993
20
22.202815
11
19.226523
21
22.494726
0
LINE
8
Layer 1
10
19.226523
20
22.494726
11
17.723833
21
24.173986
0
LINE
8
Layer 1
10
17.723833
20
24.173986
11
17.375700
21
24.494300
0
LINE
8
Layer 1
10
17.375700
20
24.494300
11
14.251870
21
28.071790
0
LINE
8
Layer 1
10
14.251870
20
28.071790
11
12.574510
21
29.917850
0
LINE
8
Layer 1
10
12.574510
20
29.917850
11
11.725727
21
30.830801
0
LINE
8
Layer 1
10
11.725727
20
30.830801
11
11.298584
21
31.284414
0
LINE
8
Layer 1
10
11.298584
20
31.284414
11
11.083294
21
31.509229
0
LINE
8
Layer 1
10
11.083294
20
31.509229
11
11.044455
21
31.557529
0
LINE
8
Layer 1
10
11.044455
20
31.557529
11
10.815920
21
31.556400
0
LINE
8
Layer 1
10
10.815920
20
31.556400
11
10.781082
21
31.609175
0
LINE
8
Layer 1
10
10.781082
20
31.609175
11
10.771060
21
31.668555
0
LINE
8
Layer 1
10
10.771060
20
31.668555
11
10.780631
21
31.722580
0
LINE
8
Layer 1
10
10.780631
20
31.722580
11
10.851025
21
31.777227
0
LINE
8
Layer 1
10
10.851025
20
31.777227
11
10.916566
21
31.823162
0
LINE
8
Layer 1
10
10.916566
20
31.823162
11
10.947810
21
31.842705
0
LINE
8
Layer 1
10
10.947810
20
31.842705
11
11.023993
21
31.833110
0
LINE
8
Layer 1
10
11.023993
20
31.833110
11
11.304869
21
31.782445
0
LINE
8
Layer 1
10
11.304869
20
31.782445
11
13.001350
21
34.424567
0
LINE
8
Layer 1
10
13.001350
20
34.424567
11
14.528749
21
37.167905
0
LINE
8
Layer 1
10
14.528749
20
37.167905
11
16.935038
21
41.794788
0
LINE
8
Layer 1
10
16.935038
20
41.794788
11
19.213399
21
46.493085
0
LINE
8
Layer 1
10
19.213399
20
46.493085
11
21.673479
21
52.302785
0
LINE
8
Layer 1
10
21.673479
20
52.302785
11
23.924939
21
57.952895
0
LINE
8
Layer 1
10
23.924939
20
57.952895
11
26.218439
21
63.586945
0
LINE
8
Layer 1
10
26.218439
20
63.586945
11
27.700429
21
67.099455
0
LINE
8
Layer 1
10
27.700429
20
67.099455
11
29.695079
21
72.208695
0
LINE
8
Layer 1
10
29.695079
20
72.208695
11
30.527862
21
74.531775
0
LINE
8
Layer 1
10
30.527862
20
74.531775
11
30.759745
21
75.066364
0
LINE
8
Layer 1
10
30.759745
20
75.066364
11
30.340594
21
74.396591
0
LINE
8
Layer 1
10
30.340594
20
74.396591
11
29.270874
21
72.854251
0
LINE
8
Layer 1
10
29.270874
20
72.854251
11
26.463494
21
68.894601
0
LINE
8
Layer 1
10
26.463494
20
68.894601
11
22.964054
21
64.099811
0
LINE
8
Layer 1
10
22.964054
20
64.099811
11
18.858394
21
58.692561
0
LINE
8
Layer 1
10
18.858394
20
58.692561
11
16.050984
21
54.988851
0
LINE
8
Layer 1
10
16.050984
20
54.988851
11
14.337814
21
52.699871
0
LINE
8
Layer 1
10
14.337814
20
52.699871
11
12.093944
21
49.624291
0
LINE
8
Layer 1
10
12.093944
20
49.624291
11
10.360904
21
47.066811
0
LINE
8
Layer 1
10
10.360904
20
47.066811
11
8.701094
21
44.606801
0
LINE
8
Layer 1
10
8.701094
20
44.606801
11
7.171164
21
42.068991
0
LINE
8
Layer 1
10
7.171164
20
42.068991
11
5.672914
21
39.513501
0
LINE
8
Layer 1
10
5.672914
20
39.513501
11
4.201614
21
36.942821
0
LINE
8
Layer 1
10
4.201614
20
36.942821
11
3.237484
21
35.225841
0
LINE
8
Layer 1
10
3.237484
20
35.225841
11
2.489031
21
33.892761
0
LINE
8
Layer 1
10
2.489031
20
33.892761
11
2.114994
21
33.226658
0
LINE
8
Layer 1
10
2.114994
20
33.226658
11
1.665911
21
32.547609
0
LINE
8
Layer 1
10
1.665911
20
32.547609
11
0.692711
21
31.030049
0
LINE
8
Layer 1
10
0.692711
20
31.030049
11
0.144066
21
30.171000
0
LINE
8
Layer 1
10
0.144066
20
30.171000
11
0.008114
21
29.957265
0
LINE
8
Layer 1
10
0.008114
20
29.957265
11
0.035453
21
29.914068
0
LINE
8
Layer 1
10
0.035453
20
29.914068
11
0.090133
21
29.875604
0
LINE
8
Layer 1
10
0.090133
20
29.875604
11
0.199395
21
29.798673
0
LINE
8
Layer 1
10
0.199395
20
29.798673
11
0.634999
21
29.491600
0
LINE
8
Layer 1
10
0.634999
20
29.491600
11
2.344169
21
28.266700
0
LINE
8
Layer 1
10
2.344169
20
28.266700
11
3.101859
21
27.711386
0
LINE
8
Layer 1
10
3.101859
20
27.711386
11
3.773799
21
27.146239
0
LINE
8
Layer 1
10
3.773799
20
27.146239
11
5.091439
21
26.014569
0
LINE
8
Layer 1
10
5.091439
20
26.014569
11
5.722609
21
25.470956
0
LINE
8
Layer 1
10
5.722609
20
25.470956
11
6.050384
21
25.194356
0
LINE
8
Layer 1
10
6.050384
20
25.194356
11
6.708616
21
24.644520
0
LINE
8
Layer 1
10
6.708616
20
24.644520
11
8.594006
21
23.025010
0
LINE
8
Layer 1
10
8.594006
20
23.025010
11
9.531148
21
22.300835
0
LINE
8
Layer 1
10
9.531148
20
22.300835
11
10.419696
21
21.520270
0
LINE
8
Layer 1
10
10.419696
20
21.520270
11
10.721549
21
21.333797
0
LINE
8
Layer 1
10
10.721549
20
21.333797
11
11.290569
21
21.007888
0
LINE
8
Layer 1
10
11.290569
20
21.007888
11
11.804999
21
20.610931
0
LINE
8
Layer 1
10
11.804999
20
20.610931
11
12.360432
21
20.176987
0
LINE
8
Layer 1
10
12.360432
20
20.176987
11
12.975409
21
19.809516
0
LINE
8
Layer 1
10
12.975409
20
19.809516
11
13.940894
21
19.255133
0
LINE
8
Layer 1
10
13.940894
20
19.255133
11
14.633319
21
18.383326
0
LINE
8
Layer 1
10
14.633319
20
18.383326
11
14.956302
21
18.061666
0
LINE
8
Layer 1
10
14.956302
20
18.061666
11
15.719346
21
17.494899
0
LINE
8
Layer 1
10
15.719346
20
17.494899
11
19.263906
21
14.901819
0
LINE
8
Layer 1
10
19.263906
20
14.901819
11
20.338216
21
14.157168
0
LINE
8
Layer 1
10
20.338216
20
14.157168
11
21.424256
21
13.438159
0
LINE
8
Layer 1
10
21.424256
20
13.438159
11
21.958283
21
13.056140
0
LINE
8
Layer 1
10
21.958283
20
13.056140
11
22.397075
21
12.618945
0
LINE
8
Layer 1
10
22.397075
20
12.618945
11
22.800785
21
12.368115
0
LINE
8
Layer 1
10
22.800785
20
12.368115
11
24.493035
21
11.284995
0
LINE
8
Layer 1
10
24.493035
20
11.284995
11
26.799045
21
9.610465
0
LINE
8
Layer 1
10
26.799045
20
9.610465
11
27.774404
21
8.935390
0
LINE
8
Layer 1
10
27.774404
20
8.935390
11
29.136974
21
8.034887
0
LINE
8
Layer 1
10
29.136974
20
8.034887
11
29.434408
21
7.839948
0
LINE
8
Layer 1
10
29.434408
20
7.839948
11
30.648368
21
7.090815
0
LINE
8
Layer 1
10
30.648368
20
7.090815
11
31.850958
21
6.343175
0
LINE
8
Layer 1
10
31.850958
20
6.343175
11
32.996128
21
5.514625
0
LINE
8
Layer 1
10
32.996128
20
5.514625
11
33.492748
21
5.196200
0
LINE
8
Layer 1
10
33.492748
20
5.196200
11
35.267598
21
4.040260
0
LINE
8
Layer 1
10
35.267598
20
4.040260
11
36.340278
21
3.301708
0
LINE
8
Layer 1
10
36.340278
20
3.301708
11
37.500548
21
2.495563
0
LINE
8
Layer 1
10
37.500548
20
2.495563
11
39.126248
21
1.327923
0
LINE
8
Layer 1
10
39.126248
20
1.327923
11
39.287202
21
1.221740
0
LINE
8
Layer 1
10
39.287202
20
1.221740
11
39.543152
21
1.086302
0
LINE
8
Layer 1
10
39.543152
20
1.086302
11
40.267949
21
0.510326
0
LINE
8
Layer 1
10
40.267949
20
0.510326
11
40.497446
21
0.339161
0
LINE
8
Layer 1
10
40.497446
20
0.339161
11
40.139140
21
0.658459
0
LINE
8
Layer 1
10
40.139140
20
0.658459
11
38.744900
21
1.886120
0
LINE
8
Layer 1
10
38.744900
20
1.886120
11
38.744900
21
1.886120
0
LINE
8
Layer 1
10
25.869100
20
14.264220
11
25.769064
21
14.280278
0
LINE
8
Layer 1
10
25.769064
20
14.280278
11
24.794416
21
15.254099
0
LINE
8
Layer 1
10
24.794416
20
15.254099
11
24.791913
21
15.346104
0
LINE
8
Layer 1
10
24.791913
20
15.346104
11
24.957193
21
15.400999
0
LINE
8
Layer 1
10
24.957193
20
15.400999
11
25.516613
21
14.936558
0
LINE
8
Layer 1
10
25.516613
20
14.936558
11
25.921943
21
14.421328
0
LINE
8
Layer 1
10
25.921943
20
14.421328
11
25.869100
21
14.264200
0
LINE
8
Layer 1
10
25.869100
20
14.264200
11
25.869100
21
14.264220
0
LINE
8
Layer 1
10
28.073430
20
11.485660
11
27.894767
21
11.516532
0
LINE
8
Layer 1
10
27.894767
20
11.516532
11
27.796723
21
11.600434
0
LINE
8
Layer 1
10
27.796723
20
11.600434
11
27.242964
21
12.158734
0
LINE
8
Layer 1
10
27.242964
20
12.158734
11
27.047349
21
12.352289
0
LINE
8
Layer 1
10
27.047349
20
12.352289
11
27.051761
21
12.500561
0
LINE
8
Layer 1
10
27.051761
20
12.500561
11
27.216886
21
12.554711
0
LINE
8
Layer 1
10
27.216886
20
12.554711
11
27.495033
21
12.503684
0
LINE
8
Layer 1
10
27.495033
20
12.503684
11
27.687708
21
12.331756
0
LINE
8
Layer 1
10
27.687708
20
12.331756
11
28.096896
21
11.559718
0
LINE
8
Layer 1
10
28.096896
20
11.559718
11
28.073400
21
11.485700
0
LINE
8
Layer 1
10
28.073400
20
11.485700
11
28.073430
21
11.485660
0
LINE
8
Layer 1
10
30.014730
20
9.666980
11
29.850863
21
9.825072
0
LINE
8
Layer 1
10
29.850863
20
9.825072
11
29.894991
21
9.841878
0
LINE
8
Layer 1
10
29.894991
20
9.841878
11
30.059433
21
9.689261
0
LINE
8
Layer 1
10
30.059433
20
9.689261
11
30.014700
21
9.666990
0
LINE
8
Layer 1
10
30.014700
20
9.666990
11
30.014730
21
9.666980
0
LINE
8
Layer 1
10
34.893270
20
4.503590
11
34.562224
21
4.786910
0
LINE
8
Layer 1
10
34.562224
20
4.786910
11
34.893640
21
4.577905
0
LINE
8
Layer 1
10
34.893640
20
4.577905
11
34.975504
21
4.464878
0
LINE
8
Layer 1
10
34.975504
20
4.464878
11
34.893300
21
4.503600
0
LINE
8
Layer 1
10
34.893300
20
4.503600
11
34.893270
21
4.503590
0
LINE
8
Layer 1
10
40.497400
20
0.339173
11
40.553994
21
0.291373
0
LINE
8
Layer 1
10
40.553994
20
0.291373
11
40.498396
21
0.338552
0
LINE
8
Layer 1
10
40.498396
20
0.338552
11
40.497400
21
0.339173
0
LINE
8
Layer 1
10
36.025700
20
4.626090
11
36.153233
21
4.567458
0
LINE
8
Layer 1
10
36.153233
20
4.567458
11
36.094743
21
4.702273
0
LINE
8
Layer 1
10
36.094743
20
4.702273
11
35.036532
21
5.794603
0
LINE
8
Layer 1
10
35.036532
20
5.794603
11
34.797791
21
5.973391
0
LINE
8
Layer 1
10
34.797791
20
5.973391
11
34.505634
21
5.927177
0
LINE
8
Layer 1
10
34.505634
20
5.927177
11
35.592224
21
5.018956
0
LINE
8
Layer 1
10
35.592224
20
5.018956
11
36.025700
21
4.626090
0
LINE
8
Layer 1
10
36.025700
20
4.626090
11
36.025700
21
4.626090
0
LINE
8
Layer 1
10
40.753500
20
0.126688
11
40.554051
21
0.291379
0
LINE
8
Layer 1
10
40.554051
20
0.291379
11
40.731732
21
0.140630
0
LINE
8
Layer 1
10
40.731732
20
0.140630
11
40.886246
21
0.014655
0
LINE
8
Layer 1
10
40.886246
20
0.014655
11
40.753500
21
0.126688
0
LINE
8
Layer 1
10
40.753500
20
0.126688
11
40.753500
21
0.126688
0
LINE
8
Layer 1
10
31.996600
20
8.825110
11
31.942326
21
8.904155
0
LINE
8
Layer 1
10
31.942326
20
8.904155
11
31.864771
21
8.960421
0
LINE
8
Layer 1
10
31.864771
20
8.960421
11
31.930718
21
8.848760
0
LINE
8
Layer 1
10
31.930718
20
8.848760
11
31.996600
21
8.825110
0
LINE
8
Layer 1
10
31.996600
20
8.825110
11
31.996600
21
8.825110
0
LINE
8
Layer 1
10
77.702300
20
83.293800
11
77.570288
21
83.398363
0
LINE
8
Layer 1
10
77.570288
20
83.398363
11
76.507958
21
84.239365
0
LINE
8
Layer 1
10
76.507958
20
84.239365
11
75.435168
21
85.087087
0
LINE
8
Layer 1
10
75.435168
20
85.087087
11
74.895260
21
85.513561
0
LINE
8
Layer 1
10
74.895260
20
85.513561
11
74.426055
21
85.953480
0
LINE
8
Layer 1
10
74.426055
20
85.953480
11
72.517245
21
87.716020
0
LINE
8
Layer 1
10
72.517245
20
87.716020
11
70.299450
21
89.938720
0
LINE
8
Layer 1
10
70.299450
20
89.938720
11
67.946655
21
92.017990
0
LINE
8
Layer 1
10
67.946655
20
92.017990
11
59.840300
21
98.590000
0
LINE
8
Layer 1
10
59.840300
20
98.590000
11
54.691790
21
102.236700
0
LINE
8
Layer 1
10
54.691790
20
102.236700
11
49.654570
21
105.645380
0
LINE
8
Layer 1
10
49.654570
20
105.645380
11
44.642050
21
109.091660
0
LINE
8
Layer 1
10
44.642050
20
109.091660
11
41.528180
21
111.291130
0
LINE
8
Layer 1
10
41.528180
20
111.291130
11
36.964250
21
114.333220
0
LINE
8
Layer 1
10
36.964250
20
114.333220
11
34.873300
21
115.644010
0
LINE
8
Layer 1
10
34.873300
20
115.644010
11
34.400760
21
115.984842
0
LINE
8
Layer 1
10
34.400760
20
115.984842
11
34.965304
21
115.432019
0
LINE
8
Layer 1
10
34.965304
20
115.432019
11
36.242924
21
114.056989
0
LINE
8
Layer 1
10
36.242924
20
114.056989
11
39.509814
21
110.467179
0
LINE
8
Layer 1
10
39.509814
20
110.467179
11
43.444474
21
106.022429
0
LINE
8
Layer 1
10
43.444474
20
106.022429
11
47.847584
21
100.854559
0
LINE
8
Layer 1
10
47.847584
20
100.854559
11
50.864594
21
97.319399
0
LINE
8
Layer 1
10
50.864594
20
97.319399
11
52.733784
21
95.156029
0
LINE
8
Layer 1
10
52.733784
20
95.156029
11
55.257714
21
92.305889
0
LINE
8
Layer 1
10
55.257714
20
92.305889
11
57.384954
21
90.065589
0
LINE
8
Layer 1
10
57.384954
20
90.065589
11
59.432714
21
87.917649
0
LINE
8
Layer 1
10
59.432714
20
87.917649
11
61.584164
21
85.880009
0
LINE
8
Layer 1
10
61.584164
20
85.880009
11
63.759794
21
83.869379
0
LINE
8
Layer 1
10
63.759794
20
83.869379
11
65.955964
21
81.882029
0
LINE
8
Layer 1
10
65.955964
20
81.882029
11
66.508975
21
81.389577
0
LINE
8
Layer 1
10
66.508975
20
81.389577
11
66.647264
21
81.266466
0
LINE
8
Layer 1
10
66.647264
20
81.266466
11
66.716352
21
81.204970
0
LINE
8
Layer 1
10
66.716352
20
81.204970
11
66.631705
21
81.028330
0
LINE
8
Layer 1
10
66.631705
20
81.028330
11
66.230498
21
80.270112
0
LINE
8
Layer 1
10
66.230498
20
80.270112
11
65.038148
21
78.089432
0
LINE
8
Layer 1
10
65.038148
20
78.089432
11
64.524523
21
77.022296
0
LINE
8
Layer 1
10
64.524523
20
77.022296
11
63.945628
21
75.990912
0
LINE
8
Layer 1
10
63.945628
20
75.990912
11
63.825878
21
75.656925
0
LINE
8
Layer 1
10
63.825878
20
75.656925
11
63.625364
21
75.032618
0
LINE
8
Layer 1
10
63.625364
20
75.032618
11
63.343975
21
74.446965
0
LINE
8
Layer 1
10
63.343975
20
74.446965
11
63.034906
21
73.813430
0
LINE
8
Layer 1
10
63.034906
20
73.813430
11
62.803257
21
73.135545
0
LINE
8
Layer 1
10
62.803257
20
73.135545
11
62.461548
21
72.075972
0
LINE
8
Layer 1
10
62.461548
20
72.075972
11
61.752657
21
71.217525
0
LINE
8
Layer 1
10
61.752657
20
71.217525
11
61.505095
21
70.834620
0
LINE
8
Layer 1
10
61.505095
20
70.834620
11
61.109273
21
69.970589
0
LINE
8
Layer 1
10
61.109273
20
69.970589
11
59.309203
21
65.964509
0
LINE
8
Layer 1
10
59.309203
20
65.964509
11
58.804116
21
64.758899
0
LINE
8
Layer 1
10
58.804116
20
64.758899
11
58.326450
21
63.547189
0
LINE
8
Layer 1
10
58.326450
20
63.547189
11
58.063700
21
62.945428
0
LINE
8
Layer 1
10
58.063700
20
62.945428
11
57.727293
21
62.425359
0
LINE
8
Layer 1
10
57.727293
20
62.425359
11
57.565808
21
61.978345
0
LINE
8
Layer 1
10
57.565808
20
61.978345
11
56.857848
21
60.097925
0
LINE
8
Layer 1
10
56.857848
20
60.097925
11
55.699138
21
57.494385
0
LINE
8
Layer 1
10
55.699138
20
57.494385
11
55.241388
21
56.400065
0
LINE
8
Layer 1
10
55.241388
20
56.400065
11
54.643642
21
54.880135
0
LINE
8
Layer 1
10
54.643642
20
54.880135
11
54.514740
21
54.548640
0
LINE
8
Layer 1
10
54.514740
20
54.548640
11
54.034302
21
53.205480
0
LINE
8
Layer 1
10
54.034302
20
53.205480
11
53.552744
21
51.873770
0
LINE
8
Layer 1
10
53.552744
20
51.873770
11
52.980220
21
50.581520
0
LINE
8
Layer 1
10
52.980220
20
50.581520
11
52.771994
21
50.029567
0
LINE
8
Layer 1
10
52.771994
20
50.029567
11
52.010102
21
48.053297
0
LINE
8
Layer 1
10
52.010102
20
48.053297
11
51.510524
21
46.850547
0
LINE
8
Layer 1
10
51.510524
20
46.850547
11
50.962991
21
45.548097
0
LINE
8
Layer 1
10
50.962991
20
45.548097
11
50.158681
21
43.715227
0
LINE
8
Layer 1
10
50.158681
20
43.715227
11
50.088287
21
43.535734
0
LINE
8
Layer 1
10
50.088287
20
43.535734
11
50.008932
21
43.257268
0
LINE
8
Layer 1
10
50.008932
20
43.257268
11
49.596148
21
42.428591
0
LINE
8
Layer 1
10
49.596148
20
42.428591
11
49.476427
21
42.168549
0
LINE
8
Layer 1
10
49.476427
20
42.168549
11
49.714340
21
42.585315
0
LINE
8
Layer 1
10
49.714340
20
42.585315
11
50.625485
21
44.204205
0
LINE
8
Layer 1
10
50.625485
20
44.204205
11
51.248112
21
45.337495
0
LINE
8
Layer 1
10
51.248112
20
45.337495
11
51.751331
21
46.249199
0
LINE
8
Layer 1
10
51.751331
20
46.249199
11
52.707781
21
48.070749
0
LINE
8
Layer 1
10
52.707781
20
48.070749
11
53.007907
21
48.496478
0
LINE
8
Layer 1
10
53.007907
20
48.496478
11
53.251987
21
48.820130
0
LINE
8
Layer 1
10
53.251987
20
48.820130
11
53.573367
21
49.420879
0
LINE
8
Layer 1
10
53.573367
20
49.420879
11
54.175900
21
50.416600
0
LINE
8
Layer 1
10
54.175900
20
50.416600
11
54.367165
21
50.694941
0
LINE
8
Layer 1
10
54.367165
20
50.694941
11
54.426625
21
50.357781
0
LINE
8
Layer 1
10
54.426625
20
50.357781
11
54.456979
21
50.012404
0
LINE
8
Layer 1
10
54.456979
20
50.012404
11
54.910778
21
50.625729
0
LINE
8
Layer 1
10
54.910778
20
50.625729
11
55.424826
21
51.348096
0
LINE
8
Layer 1
10
55.424826
20
51.348096
11
55.214390
21
51.445691
0
LINE
8
Layer 1
10
55.214390
20
51.445691
11
55.316060
21
51.737850
0
LINE
8
Layer 1
10
55.316060
20
51.737850
11
55.785824
21
52.401340
0
LINE
8
Layer 1
10
55.785824
20
52.401340
11
56.584625
21
53.539100
0
LINE
8
Layer 1
10
56.584625
20
53.539100
11
56.778006
21
53.955242
0
LINE
8
Layer 1
10
56.778006
20
53.955242
11
57.344874
21
54.821146
0
LINE
8
Layer 1
10
57.344874
20
54.821146
11
58.061576
21
55.567782
0
LINE
8
Layer 1
10
58.061576
20
55.567782
11
58.535305
21
55.980826
0
LINE
8
Layer 1
10
58.535305
20
55.980826
11
58.835262
21
56.533139
0
LINE
8
Layer 1
10
58.835262
20
56.533139
11
59.295225
21
57.190527
0
LINE
8
Layer 1
10
59.295225
20
57.190527
11
59.548311
21
57.504225
0
LINE
8
Layer 1
10
59.548311
20
57.504225
11
59.666739
21
57.889495
0
LINE
8
Layer 1
10
59.666739
20
57.889495
11
59.677048
21
58.162375
0
LINE
8
Layer 1
10
59.677048
20
58.162375
11
59.815868
21
58.507050
0
LINE
8
Layer 1
10
59.815868
20
58.507050
11
60.182096
21
58.802694
0
LINE
8
Layer 1
10
60.182096
20
58.802694
11
60.590147
21
59.201160
0
LINE
8
Layer 1
10
60.590147
20
59.201160
11
61.036201
21
59.821317
0
LINE
8
Layer 1
10
61.036201
20
59.821317
11
61.620917
21
60.312910
0
LINE
8
Layer 1
10
61.620917
20
60.312910
11
62.043595
21
60.856896
0
LINE
8
Layer 1
10
62.043595
20
60.856896
11
62.315150
21
61.369079
0
LINE
8
Layer 1
10
62.315150
20
61.369079
11
62.599855
21
61.876776
0
LINE
8
Layer 1
10
62.599855
20
61.876776
11
62.927807
21
62.353185
0
LINE
8
Layer 1
10
62.927807
20
62.353185
11
63.377899
21
62.738191
0
LINE
8
Layer 1
10
63.377899
20
62.738191
11
63.601374
21
63.013422
0
LINE
8
Layer 1
10
63.601374
20
63.013422
11
64.299258
21
64.102607
0
LINE
8
Layer 1
10
64.299258
20
64.102607
11
65.065904
21
65.146422
0
LINE
8
Layer 1
10
65.065904
20
65.146422
11
65.832734
21
66.199540
0
LINE
8
Layer 1
10
65.832734
20
66.199540
11
66.484494
21
67.323982
0
LINE
8
Layer 1
10
66.484494
20
67.323982
11
66.728760
21
67.578797
0
LINE
8
Layer 1
10
66.728760
20
67.578797
11
68.059130
21
69.397607
0
LINE
8
Layer 1
10
68.059130
20
69.397607
11
68.300066
21
69.804664
0
LINE
8
Layer 1
10
68.300066
20
69.804664
11
71.150456
21
73.603724
0
LINE
8
Layer 1
10
71.150456
20
73.603724
11
72.607706
21
75.628044
0
LINE
8
Layer 1
10
72.607706
20
75.628044
11
73.324285
21
76.647924
0
LINE
8
Layer 1
10
73.324285
20
76.647924
11
73.679247
21
77.160041
0
LINE
8
Layer 1
10
73.679247
20
77.160041
11
73.854507
21
77.417346
0
LINE
8
Layer 1
10
73.854507
20
77.417346
11
73.876354
21
77.449463
0
LINE
8
Layer 1
10
73.876354
20
77.449463
11
73.912642
21
77.507098
0
LINE
8
Layer 1
10
73.912642
20
77.507098
11
73.991718
21
77.634070
0
LINE
8
Layer 1
10
73.991718
20
77.634070
11
74.150121
21
77.888510
0
LINE
8
Layer 1
10
74.150121
20
77.888510
11
75.486811
21
80.050010
0
LINE
8
Layer 1
10
75.486811
20
80.050010
11
77.085251
21
82.307870
0
LINE
8
Layer 1
10
77.085251
20
82.307870
11
77.492305
21
82.879491
0
LINE
8
Layer 1
10
77.492305
20
82.879491
11
77.696487
21
83.166172
0
LINE
8
Layer 1
10
77.696487
20
83.166172
11
77.747586
21
83.237998
0
LINE
8
Layer 1
10
77.747586
20
83.237998
11
77.735295
21
83.267631
0
LINE
8
Layer 1
10
77.735295
20
83.267631
11
77.702300
21
83.293800
0
LINE
8
Layer 1
10
52.458300
20
48.530900
11
52.364721
21
48.427325
0
LINE
8
Layer 1
10
52.364721
20
48.427325
11
52.385571
21
48.515830
0
LINE
8
Layer 1
10
52.385571
20
48.515830
11
52.593851
21
48.898489
0
LINE
8
Layer 1
10
52.593851
20
48.898489
11
52.458300
21
48.530900
0
LINE
8
Layer 1
10
52.458300
20
48.530900
11
52.458300
21
48.530900
0
LINE
8
Layer 1
10
56.453580
20
54.321550
11
56.422586
21
54.360762
0
LINE
8
Layer 1
10
56.422586
20
54.360762
11
56.543115
21
54.553833
0
LINE
8
Layer 1
10
56.543115
20
54.553833
11
56.568758
21
54.514121
0
LINE
8
Layer 1
10
56.568758
20
54.514121
11
56.453600
21
54.321500
0
LINE
8
Layer 1
10
56.453600
20
54.321500
11
56.453580
21
54.321550
0
LINE
8
Layer 1
10
58.545620
20
57.190620
11
57.875535
21
56.629955
0
LINE
8
Layer 1
10
57.875535
20
56.629955
11
57.798170
21
56.637547
0
LINE
8
Layer 1
10
57.798170
20
56.637547
11
57.791230
21
56.818669
0
LINE
8
Layer 1
10
57.791230
20
56.818669
11
57.852940
21
56.932074
0
LINE
8
Layer 1
10
57.852940
20
56.932074
11
58.284023
21
57.589711
0
LINE
8
Layer 1
10
58.284023
20
57.589711
11
58.432652
21
57.821294
0
LINE
8
Layer 1
10
58.432652
20
57.821294
11
58.578640
21
57.847764
0
LINE
8
Layer 1
10
58.578640
20
57.847764
11
58.665934
21
57.697515
0
LINE
8
Layer 1
10
58.665934
20
57.697515
11
58.673817
21
57.414764
0
LINE
8
Layer 1
10
58.673817
20
57.414764
11
58.545600
21
57.190600
0
LINE
8
Layer 1
10
58.545600
20
57.190600
11
58.545620
21
57.190620
0
LINE
8
Layer 1
10
60.642460
20
59.855530
11
60.222708
21
59.351998
0
LINE
8
Layer 1
10
60.222708
20
59.351998
11
60.058110
21
59.371045
0
LINE
8
Layer 1
10
60.058110
20
59.371045
11
60.052976
21
59.472250
0
LINE
8
Layer 1
10
60.052976
20
59.472250
11
60.802978
21
60.627950
0
LINE
8
Layer 1
10
60.802978
20
60.627950
11
60.892513
21
60.649608
0
LINE
8
Layer 1
10
60.892513
20
60.649608
11
60.980552
21
60.499359
0
LINE
8
Layer 1
10
60.980552
20
60.499359
11
60.642500
21
59.855500
0
LINE
8
Layer 1
10
60.642500
20
59.855500
11
60.642460
21
59.855530
0
LINE
8
Layer 1
10
67.097880
20
81.379130
11
67.064677
21
81.386725
0
LINE
8
Layer 1
10
67.064677
20
81.386725
11
67.005735
21
81.402408
0
LINE
8
Layer 1
10
67.005735
20
81.402408
11
66.945920
21
81.421455
0
LINE
8
Layer 1
10
66.945920
20
81.421455
11
66.994282
21
81.430043
0
LINE
8
Layer 1
10
66.994282
20
81.430043
11
67.113504
21
81.394816
0
LINE
8
Layer 1
10
67.113504
20
81.394816
11
67.097900
21
81.379000
0
LINE
8
Layer 1
10
67.097900
20
81.379000
11
67.097880
21
81.379130
0
LINE
8
Layer 1
10
53.035000
20
47.939200
11
52.740665
21
47.433430
0
LINE
8
Layer 1
10
52.740665
20
47.433430
11
52.709855
21
47.296499
0
LINE
8
Layer 1
10
52.709855
20
47.296499
11
52.829607
21
47.381770
0
LINE
8
Layer 1
10
52.829607
20
47.381770
11
53.678201
21
48.643890
0
LINE
8
Layer 1
10
53.678201
20
48.643890
11
53.803476
21
48.914560
0
LINE
8
Layer 1
10
53.803476
20
48.914560
11
53.697618
21
49.190740
0
LINE
8
Layer 1
10
53.697618
20
49.190740
11
53.035000
21
47.939200
0
LINE
8
Layer 1
10
53.035000
20
47.939200
11
53.035000
21
47.939200
0
LINE
8
Layer 1
10
49.441000
20
42.102500
11
49.476010
21
42.167479
0
LINE
8
Layer 1
10
49.476010
20
42.167479
11
49.441000
21
42.102500
0
LINE
8
Layer 1
10
49.441000
20
42.102500
11
49.441000
21
42.102500
0
LINE
8
Layer 1
10
49.239700
20
41.720800
11
49.321798
21
41.873914
0
LINE
8
Layer 1
10
49.321798
20
41.873914
11
49.440989
21
42.102463
0
LINE
8
Layer 1
10
49.440989
20
42.102463
11
49.330945
21
41.898188
0
LINE
8
Layer 1
10
49.330945
20
41.898188
11
49.239700
21
41.720800
0
LINE
8
Layer 1
10
49.239700
20
41.720800
11
49.239700
21
41.720800
0
LINE
8
Layer 1
10
56.010800
20
52.247200
11
56.076840
21
52.316660
0
LINE
8
Layer 1
10
56.076840
20
52.316660
11
56.115866
21
52.404296
0
LINE
8
Layer 1
10
56.115866
20
52.404296
11
56.020294
21
52.316525
0
LINE
8
Layer 1
10
56.020294
20
52.316525
11
56.010800
21
52.247200
0
LINE
8
Layer 1
10
56.010800
20
52.247200
11
56.010800
21
52.247200
 0 
ENDSEC
 0 
EOF