999
"DXF R12 Output" (www.mydxf.blogspot.com)
 0 
SECTION
 2 
HEADER
 9 
$ACADVER
 1 
AC1009
 9 
$EXTMIN
 10 
 0 
 20 
 0 
 9 
$EXTMAX
 10 
 8.5 
 20 
 11 
 0 
ENDSEC
 0 
SECTION
 2 
ENTITIES
0
LINE
8
Layer 1
10
55.074900
20
3.072480
11
53.668720
21
4.452360
0
LINE
8
Layer 1
10
53.668720
20
4.452360
11
52.537520
21
5.564980
0
LINE
8
Layer 1
10
52.537520
20
5.564980
11
50.273290
21
7.732090
0
LINE
8
Layer 1
10
50.273290
20
7.732090
11
49.750561
21
8.326365
0
LINE
8
Layer 1
10
49.750561
20
8.326365
11
49.354429
21
8.796411
0
LINE
8
Layer 1
10
49.354429
20
8.796411
11
48.608282
21
9.517906
0
LINE
8
Layer 1
10
48.608282
20
9.517906
11
47.377192
21
10.793726
0
LINE
8
Layer 1
10
47.377192
20
10.793726
11
47.034930
21
11.176634
0
LINE
8
Layer 1
10
47.034930
20
11.176634
11
47.473760
21
11.046597
0
LINE
8
Layer 1
10
47.473760
20
11.046597
11
47.920619
21
10.878376
0
LINE
8
Layer 1
10
47.920619
20
10.878376
11
47.169245
21
11.759086
0
LINE
8
Layer 1
10
47.169245
20
11.759086
11
46.282653
21
12.772866
0
LINE
8
Layer 1
10
46.282653
20
12.772866
11
46.139592
21
12.589004
0
LINE
8
Layer 1
10
46.139592
20
12.589004
11
45.772122
21
12.877305
0
LINE
8
Layer 1
10
45.772122
20
12.877305
11
44.957511
21
13.805815
0
LINE
8
Layer 1
10
44.957511
20
13.805815
11
43.560141
21
15.390205
0
LINE
8
Layer 1
10
43.560141
20
15.390205
11
43.040802
21
15.856515
0
LINE
8
Layer 1
10
43.040802
20
15.856515
11
41.981944
21
17.005231
0
LINE
8
Layer 1
10
41.981944
20
17.005231
11
41.072742
21
18.275695
0
LINE
8
Layer 1
10
41.072742
20
18.275695
11
40.571137
21
19.073433
0
LINE
8
Layer 1
10
40.571137
20
19.073433
11
39.895082
21
19.729895
0
LINE
8
Layer 1
10
39.895082
20
19.729895
11
39.087597
21
20.643592
0
LINE
8
Layer 1
10
39.087597
20
20.643592
11
38.706310
21
21.116846
0
LINE
8
Layer 1
10
38.706310
20
21.116846
11
38.219180
21
21.480236
0
LINE
8
Layer 1
10
38.219180
20
21.480236
11
37.436937
21
22.014265
0
LINE
8
Layer 1
10
37.436937
20
22.014265
11
37.087080
21
22.607795
0
LINE
8
Layer 1
10
37.087080
20
22.607795
11
36.608321
21
23.309749
0
LINE
8
Layer 1
10
36.608321
20
23.309749
11
35.858533
21
24.170534
0
LINE
8
Layer 1
10
35.858533
20
24.170534
11
35.263701
21
25.144859
0
LINE
8
Layer 1
10
35.263701
20
25.144859
11
34.598998
21
25.949014
0
LINE
8
Layer 1
10
34.598998
20
25.949014
11
33.962561
21
26.561402
0
LINE
8
Layer 1
10
33.962561
20
26.561402
11
33.333078
21
27.186114
0
LINE
8
Layer 1
10
33.333078
20
27.186114
11
32.747289
21
27.842180
0
LINE
8
Layer 1
10
32.747289
20
27.842180
11
32.289358
21
28.584424
0
LINE
8
Layer 1
10
32.289358
20
28.584424
11
31.953819
21
29.002310
0
LINE
8
Layer 1
10
31.953819
20
29.002310
11
30.610589
21
30.442426
0
LINE
8
Layer 1
10
30.610589
20
30.442426
11
29.331409
21
31.934730
0
LINE
8
Layer 1
10
29.331409
20
31.934730
11
28.040169
21
33.432854
0
LINE
8
Layer 1
10
28.040169
20
33.432854
11
26.647609
21
34.840890
0
LINE
8
Layer 1
10
26.647609
20
34.840890
11
26.340108
21
35.270714
0
LINE
8
Layer 1
10
26.340108
20
35.270714
11
24.110638
21
37.864674
0
LINE
8
Layer 1
10
24.110638
20
37.864674
11
23.606954
21
38.380152
0
LINE
8
Layer 1
10
23.606954
20
38.380152
11
18.956154
21
43.880512
0
LINE
8
Layer 1
10
18.956154
20
43.880512
11
13.957394
21
49.573572
0
LINE
8
Layer 1
10
13.957394
20
49.573572
11
12.623634
21
51.043332
0
LINE
8
Layer 1
10
12.623634
20
51.043332
11
11.953921
21
51.775907
0
LINE
8
Layer 1
10
11.953921
20
51.775907
11
11.617352
21
52.140515
0
LINE
8
Layer 1
10
11.617352
20
52.140515
11
11.448648
21
52.322509
0
LINE
8
Layer 1
10
11.448648
20
52.322509
11
11.410932
21
52.336075
0
LINE
8
Layer 1
10
11.410932
20
52.336075
11
11.292117
21
52.348028
0
LINE
8
Layer 1
10
11.292117
20
52.348028
11
11.236037
21
52.349272
0
LINE
8
Layer 1
10
11.236037
20
52.349272
11
11.222250
21
52.386243
0
LINE
8
Layer 1
10
11.222250
20
52.386243
11
11.253901
21
52.515704
0
LINE
8
Layer 1
10
11.253901
20
52.515704
11
11.309076
21
52.571471
0
LINE
8
Layer 1
10
11.309076
20
52.571471
11
11.366897
21
52.576577
0
LINE
8
Layer 1
10
11.366897
20
52.576577
11
11.454129
21
52.562748
0
LINE
8
Layer 1
10
11.454129
20
52.562748
11
11.565260
21
52.534489
0
LINE
8
Layer 1
10
11.565260
20
52.534489
11
11.617576
21
52.517685
0
LINE
8
Layer 1
10
11.617576
20
52.517685
11
11.651160
21
52.554033
0
LINE
8
Layer 1
10
11.651160
20
52.554033
11
11.696440
21
52.613412
0
LINE
8
Layer 1
10
11.696440
20
52.613412
11
11.786875
21
52.732417
0
LINE
8
Layer 1
10
11.786875
20
52.732417
11
12.501650
21
53.690304
0
LINE
8
Layer 1
10
12.501650
20
53.690304
11
13.888820
21
55.637454
0
LINE
8
Layer 1
10
13.888820
20
55.637454
11
16.562690
21
59.603824
0
LINE
8
Layer 1
10
16.562690
20
59.603824
11
25.071800
21
73.025700
0
LINE
8
Layer 1
10
25.071800
20
73.025700
11
29.850230
21
81.328650
0
LINE
8
Layer 1
10
29.850230
20
81.328650
11
34.336560
21
89.385370
0
LINE
8
Layer 1
10
34.336560
20
89.385370
11
38.865400
21
97.425300
0
LINE
8
Layer 1
10
38.865400
20
97.425300
11
41.748280
21
102.444410
0
LINE
8
Layer 1
10
41.748280
20
102.444410
11
45.758090
21
109.724610
0
LINE
8
Layer 1
10
45.758090
20
109.724610
11
47.496730
21
113.025120
0
LINE
8
Layer 1
10
47.496730
20
113.025120
11
47.942669
21
113.789828
0
LINE
8
Layer 1
10
47.942669
20
113.789828
11
47.237216
21
112.815121
0
LINE
8
Layer 1
10
47.237216
20
112.815121
11
45.493566
21
110.557261
0
LINE
8
Layer 1
10
45.493566
20
110.557261
11
40.947356
21
104.752671
0
LINE
8
Layer 1
10
40.947356
20
104.752671
11
35.328316
21
97.710731
0
LINE
8
Layer 1
10
35.328316
20
97.710731
11
28.809900
21
89.749000
0
LINE
8
Layer 1
10
28.809900
20
89.749000
11
24.350600
21
84.296100
0
LINE
8
Layer 1
10
24.350600
20
84.296100
11
21.619590
21
80.928860
0
LINE
8
Layer 1
10
21.619590
20
80.928860
11
18.016270
21
76.412160
0
LINE
8
Layer 1
10
18.016270
20
76.412160
11
15.171420
21
72.673350
0
LINE
8
Layer 1
10
15.171420
20
72.673350
11
12.443120
21
69.077940
0
LINE
8
Layer 1
10
12.443120
20
69.077940
11
9.836590
21
65.392400
0
LINE
8
Layer 1
10
9.836590
20
65.392400
11
7.260160
21
61.686450
0
LINE
8
Layer 1
10
7.260160
20
61.686450
11
4.709270
21
57.963320
0
LINE
8
Layer 1
10
4.709270
20
57.963320
11
2.494410
21
54.693700
0
LINE
8
Layer 1
10
2.494410
20
54.693700
11
2.142499
21
54.213948
0
LINE
8
Layer 1
10
2.142499
20
54.213948
11
1.772478
21
53.732452
0
LINE
8
Layer 1
10
1.772478
20
53.732452
11
1.032620
21
52.769500
0
LINE
8
Layer 1
10
1.032620
20
52.769500
11
0.293071
21
51.807123
0
LINE
8
Layer 1
10
0.293071
20
51.807123
11
0.108216
21
51.566501
0
LINE
8
Layer 1
10
0.108216
20
51.566501
11
0.015131
21
51.446236
0
LINE
8
Layer 1
10
0.015131
20
51.446236
11
0.058330
21
51.338948
0
LINE
8
Layer 1
10
0.058330
20
51.338948
11
0.514401
21
50.936996
0
LINE
8
Layer 1
10
0.514401
20
50.936996
11
2.601931
21
49.159396
0
LINE
8
Layer 1
10
2.601931
20
49.159396
11
3.704681
21
48.146366
0
LINE
8
Layer 1
10
3.704681
20
48.146366
11
4.762591
21
47.137816
0
LINE
8
Layer 1
10
4.762591
20
47.137816
11
5.287967
21
46.635531
0
LINE
8
Layer 1
10
5.287967
20
46.635531
11
5.539080
21
46.395033
0
LINE
8
Layer 1
10
5.539080
20
46.395033
11
5.671372
21
46.272419
0
LINE
8
Layer 1
10
5.671372
20
46.272419
11
6.197620
21
45.778722
0
LINE
8
Layer 1
10
6.197620
20
45.778722
11
9.968800
21
42.160152
0
LINE
8
Layer 1
10
9.968800
20
42.160152
11
12.675440
21
39.511552
0
LINE
8
Layer 1
10
12.675440
20
39.511552
11
14.005764
21
38.295490
0
LINE
8
Layer 1
10
14.005764
20
38.295490
11
15.284550
21
37.025652
0
LINE
8
Layer 1
10
15.284550
20
37.025652
11
15.704364
21
36.692040
0
LINE
8
Layer 1
10
15.704364
20
36.692040
11
16.490954
21
36.095243
0
LINE
8
Layer 1
10
16.490954
20
36.095243
11
17.221114
21
35.428420
0
LINE
8
Layer 1
10
17.221114
20
35.428420
11
18.010497
21
34.701756
0
LINE
8
Layer 1
10
18.010497
20
34.701756
11
18.863434
21
34.037830
0
LINE
8
Layer 1
10
18.863434
20
34.037830
11
20.200146
21
33.021456
0
LINE
8
Layer 1
10
20.200146
20
33.021456
11
21.243934
21
31.706040
0
LINE
8
Layer 1
10
21.243934
20
31.706040
11
21.715846
21
31.197281
0
LINE
8
Layer 1
10
21.715846
20
31.197281
11
22.794726
21
30.235533
0
LINE
8
Layer 1
10
22.794726
20
30.235533
11
27.799400
21
25.817500
0
LINE
8
Layer 1
10
27.799400
20
25.817500
11
29.308530
21
24.529860
0
LINE
8
Layer 1
10
29.308530
20
24.529860
11
30.827860
21
23.269980
0
LINE
8
Layer 1
10
30.827860
20
23.269980
11
31.580280
21
22.615158
0
LINE
8
Layer 1
10
31.580280
20
22.615158
11
32.221440
21
21.923830
0
LINE
8
Layer 1
10
32.221440
20
21.923830
11
32.783163
21
21.475944
0
LINE
8
Layer 1
10
32.783163
20
21.475944
11
35.143653
21
19.559174
0
LINE
8
Layer 1
10
35.143653
20
19.559174
11
38.397173
21
16.700444
0
LINE
8
Layer 1
10
38.397173
20
16.700444
11
39.767163
21
15.532434
0
LINE
8
Layer 1
10
39.767163
20
15.532434
11
41.673073
21
13.953874
0
LINE
8
Layer 1
10
41.673073
20
13.953874
11
42.088811
21
13.611302
0
LINE
8
Layer 1
10
42.088811
20
13.611302
11
43.776971
21
12.271002
0
LINE
8
Layer 1
10
43.776971
20
12.271002
11
45.450351
21
10.936302
0
LINE
8
Layer 1
10
45.450351
20
10.936302
11
47.065531
21
9.520322
0
LINE
8
Layer 1
10
47.065531
20
9.520322
11
47.758335
21
8.957165
0
LINE
8
Layer 1
10
47.758335
20
8.957165
11
50.237765
21
6.922135
0
LINE
8
Layer 1
10
50.237765
20
6.922135
11
51.743685
21
5.642465
0
LINE
8
Layer 1
10
51.743685
20
5.642465
11
53.374745
21
4.250135
0
LINE
8
Layer 1
10
53.374745
20
4.250135
11
55.665245
21
2.249955
0
LINE
8
Layer 1
10
55.665245
20
2.249955
11
55.890340
21
2.063728
0
LINE
8
Layer 1
10
55.890340
20
2.063728
11
56.242096
21
1.809040
0
LINE
8
Layer 1
10
56.242096
20
1.809040
11
57.273926
21
0.848921
0
LINE
8
Layer 1
10
57.273926
20
0.848921
11
57.598574
21
0.558754
0
LINE
8
Layer 1
10
57.598574
20
0.558754
11
57.082065
21
1.076473
0
LINE
8
Layer 1
10
57.082065
20
1.076473
11
55.074900
21
3.072480
0
LINE
8
Layer 1
10
55.074900
20
3.072480
11
55.074900
21
3.072480
0
LINE
8
Layer 1
10
36.345500
20
22.799880
11
36.214888
21
22.853406
0
LINE
8
Layer 1
10
36.214888
20
22.853406
11
34.790288
21
24.392496
0
LINE
8
Layer 1
10
34.790288
20
24.392496
11
34.769999
21
24.507767
0
LINE
8
Layer 1
10
34.769999
20
24.507767
11
34.970659
21
24.520340
0
LINE
8
Layer 1
10
34.970659
20
24.520340
11
35.770758
21
23.754389
0
LINE
8
Layer 1
10
35.770758
20
23.754389
11
36.383707
21
22.977248
0
LINE
8
Layer 1
10
36.383707
20
22.977248
11
36.345500
21
22.799900
0
LINE
8
Layer 1
10
36.345500
20
22.799900
11
36.345500
21
22.799880
0
LINE
8
Layer 1
10
39.674550
20
18.602600
11
39.440870
21
18.701189
0
LINE
8
Layer 1
10
39.440870
20
18.701189
11
39.300143
21
18.838493
0
LINE
8
Layer 1
10
39.300143
20
18.838493
11
38.489830
21
19.719203
0
LINE
8
Layer 1
10
38.489830
20
19.719203
11
38.204260
21
20.025739
0
LINE
8
Layer 1
10
38.204260
20
20.025739
11
38.182296
21
20.208666
0
LINE
8
Layer 1
10
38.182296
20
20.208666
11
38.382930
21
20.220367
0
LINE
8
Layer 1
10
38.382930
20
20.220367
11
39.025101
21
19.784429
0
LINE
8
Layer 1
10
39.025101
20
19.784429
11
39.690707
21
18.686869
0
LINE
8
Layer 1
10
39.690707
20
18.686869
11
39.674500
21
18.602600
0
LINE
8
Layer 1
10
39.674500
20
18.602600
11
39.674550
21
18.602600
0
LINE
8
Layer 1
10
42.489550
20
15.687480
11
42.251072
21
15.939183
0
LINE
8
Layer 1
10
42.251072
20
15.939183
11
42.304257
21
15.945282
0
LINE
8
Layer 1
10
42.304257
20
15.945282
11
42.542452
21
15.700054
0
LINE
8
Layer 1
10
42.542452
20
15.700054
11
42.489500
21
15.687500
0
LINE
8
Layer 1
10
42.489500
20
15.687500
11
42.489550
21
15.687480
0
LINE
8
Layer 1
10
49.673960
20
7.624280
11
49.198938
21
8.087971
0
LINE
8
Layer 1
10
49.198938
20
8.087971
11
49.660653
21
7.716516
0
LINE
8
Layer 1
10
49.660653
20
7.716516
11
49.786129
21
7.548343
0
LINE
8
Layer 1
10
49.786129
20
7.548343
11
49.673900
21
7.624290
0
LINE
8
Layer 1
10
49.673900
20
7.624290
11
49.673960
21
7.624280
0
LINE
8
Layer 1
10
57.598500
20
0.558693
11
57.622274
21
0.534792
0
LINE
8
Layer 1
10
57.622274
20
0.534792
11
57.680065
21
0.479758
0
LINE
8
Layer 1
10
57.680065
20
0.479758
11
57.599869
21
0.557558
0
LINE
8
Layer 1
10
57.599869
20
0.557558
11
57.598500
21
0.558693
0
LINE
8
Layer 1
10
50.469900
20
8.029600
11
51.096043
21
7.394993
0
LINE
8
Layer 1
10
51.096043
20
7.394993
11
51.269632
21
7.279226
0
LINE
8
Layer 1
10
51.269632
20
7.279226
11
51.169923
21
7.466571
0
LINE
8
Layer 1
10
51.169923
20
7.466571
11
49.616703
21
9.181181
0
LINE
8
Layer 1
10
49.616703
20
9.181181
11
49.278853
21
9.483874
0
LINE
8
Layer 1
10
49.278853
20
9.483874
11
48.914687
21
9.524877
0
LINE
8
Layer 1
10
48.914687
20
9.524877
11
50.469900
21
8.029600
0
LINE
8
Layer 1
10
50.469900
20
8.029600
11
50.469900
21
8.029600
0
LINE
8
Layer 1
10
58.154900
20
0.024167
11
57.964722
21
0.208275
0
LINE
8
Layer 1
10
57.964722
20
0.208275
11
57.680062
21
0.479773
0
LINE
8
Layer 1
10
57.680062
20
0.479773
11
57.934319
21
0.232925
0
LINE
8
Layer 1
10
57.934319
20
0.232925
11
58.135390
21
0.042326
0
LINE
8
Layer 1
10
58.135390
20
0.042326
11
58.154900
21
0.024167
0
LINE
8
Layer 1
10
58.154900
20
0.024167
11
58.154900
21
0.024167
0
LINE
8
Layer 1
10
45.086200
20
14.024700
11
45.174674
21
13.973163
0
LINE
8
Layer 1
10
45.174674
20
13.973163
11
45.090744
21
14.089678
0
LINE
8
Layer 1
10
45.090744
20
14.089678
11
44.981324
21
14.185778
0
LINE
8
Layer 1
10
44.981324
20
14.185778
11
45.086200
21
14.024700
0
LINE
8
Layer 1
10
45.086200
20
14.024700
11
45.086200
21
14.024700
 0 
ENDSEC
 0 
EOF