999
"DXF R12 Output" (www.mydxf.blogspot.com)
 0 
SECTION
 2 
HEADER
 9 
$ACADVER
 1 
AC1009
 9 
$EXTMIN
 10 
 0 
 20 
 0 
 9 
$EXTMAX
 10 
 8.5 
 20 
 11 
 0 
ENDSEC
 0 
SECTION
 2 
ENTITIES
0
LINE
8
Layer 1
10
44.446300
20
93.033900
11
44.478169
21
93.012987
0
LINE
8
Layer 1
10
44.478169
20
93.012987
11
44.552359
21
92.966678
0
LINE
8
Layer 1
10
44.552359
20
92.966678
11
44.448044
21
93.032904
0
LINE
8
Layer 1
10
44.448044
20
93.032904
11
44.446300
21
93.033900
0
LINE
8
Layer 1
10
41.073100
20
95.232000
11
39.199520
21
96.435490
0
LINE
8
Layer 1
10
39.199520
20
96.435490
11
37.691420
21
97.406201
0
LINE
8
Layer 1
10
37.691420
20
97.406201
11
34.689900
21
99.287700
0
LINE
8
Layer 1
10
34.689900
20
99.287700
11
33.970395
21
99.818740
0
LINE
8
Layer 1
10
33.970395
20
99.818740
11
33.419687
21
100.241226
0
LINE
8
Layer 1
10
33.419687
20
100.241226
11
32.428563
21
100.868865
0
LINE
8
Layer 1
10
32.428563
20
100.868865
11
30.769093
21
101.992185
0
LINE
8
Layer 1
10
30.769093
20
101.992185
11
30.299797
21
102.333516
0
LINE
8
Layer 1
10
30.299797
20
102.333516
11
30.799872
21
102.267199
0
LINE
8
Layer 1
10
30.799872
20
102.267199
11
31.319187
21
102.162975
0
LINE
8
Layer 1
10
31.319187
20
102.162975
11
30.277647
21
102.953685
0
LINE
8
Layer 1
10
30.277647
20
102.953685
11
29.055727
21
103.860413
0
LINE
8
Layer 1
10
29.055727
20
103.860413
11
28.956515
21
103.649029
0
LINE
8
Layer 1
10
28.956515
20
103.649029
11
28.487219
21
103.889031
0
LINE
8
Layer 1
10
28.487219
20
103.889031
11
27.365389
21
104.719077
0
LINE
8
Layer 1
10
27.365389
20
104.719077
11
25.443509
21
106.134437
0
LINE
8
Layer 1
10
25.443509
20
106.134437
11
24.763712
21
106.534272
0
LINE
8
Layer 1
10
24.763712
20
106.534272
11
23.323763
21
107.551729
0
LINE
8
Layer 1
10
23.323763
20
107.551729
11
22.003822
21
108.720672
0
LINE
8
Layer 1
10
22.003822
20
108.720672
11
21.247228
21
109.466142
0
LINE
8
Layer 1
10
21.247228
20
109.466142
11
20.350702
21
110.035702
0
LINE
8
Layer 1
10
20.350702
20
110.035702
11
19.240572
21
110.851558
0
LINE
8
Layer 1
10
19.240572
20
110.851558
11
18.704871
21
111.279711
0
LINE
8
Layer 1
10
18.704871
20
111.279711
11
18.087742
21
111.578779
0
LINE
8
Layer 1
10
18.087742
20
111.578779
11
17.111305
21
112.007994
0
LINE
8
Layer 1
10
17.111305
20
112.007994
11
16.574663
21
112.564928
0
LINE
8
Layer 1
10
16.574663
20
112.564928
11
15.871340
21
113.213474
0
LINE
8
Layer 1
10
15.871340
20
113.213474
11
14.839821
21
113.981391
0
LINE
8
Layer 1
10
14.839821
20
113.981391
11
13.934530
21
114.894724
0
LINE
8
Layer 1
10
13.934530
20
114.894724
11
13.006020
21
115.619958
0
LINE
8
Layer 1
10
13.006020
20
115.619958
11
12.161379
21
116.152054
0
LINE
8
Layer 1
10
12.161379
20
116.152054
11
11.320660
21
116.697968
0
LINE
8
Layer 1
10
11.320660
20
116.697968
11
11.086633
21
116.814243
0
LINE
8
Layer 1
10
11.086633
20
116.814243
11
10.844890
21
116.976317
0
LINE
8
Layer 1
10
10.844890
20
116.976317
11
10.262813
21
117.448105
0
LINE
8
Layer 1
10
10.262813
20
117.448105
11
9.065173
21
118.469855
0
LINE
8
Layer 1
10
9.065173
20
118.469855
11
8.268864
21
119.060148
0
LINE
8
Layer 1
10
8.268864
20
119.060148
11
5.267234
21
121.073768
0
LINE
8
Layer 1
10
5.267234
20
121.073768
11
3.710560
21
122.176000
0
LINE
8
Layer 1
10
3.710560
20
122.176000
11
2.926450
21
122.720000
0
LINE
8
Layer 1
10
2.926450
20
122.720000
11
2.536940
21
122.983000
0
LINE
8
Layer 1
10
2.536940
20
122.983000
11
2.343618
21
123.111713
0
LINE
8
Layer 1
10
2.343618
20
123.111713
11
2.247400
21
123.175000
0
LINE
8
Layer 1
10
2.247400
20
123.175000
11
2.241423
21
123.071930
0
LINE
8
Layer 1
10
2.241423
20
123.071930
11
2.170469
21
119.472160
0
LINE
8
Layer 1
10
2.170469
20
119.472160
11
2.146444
21
117.613400
0
LINE
8
Layer 1
10
2.146444
20
117.613400
11
2.184287
21
115.707580
0
LINE
8
Layer 1
10
2.184287
20
115.707580
11
2.094038
21
114.760025
0
LINE
8
Layer 1
10
2.094038
20
114.760025
11
1.983621
21
113.165165
0
LINE
8
Layer 1
10
1.983621
20
113.165165
11
1.958475
21
112.758858
0
LINE
8
Layer 1
10
1.958475
20
112.758858
11
1.935197
21
112.512879
0
LINE
8
Layer 1
10
1.935197
20
112.512879
11
1.893123
21
112.032131
0
LINE
8
Layer 1
10
1.893123
20
112.032131
11
1.816192
21
110.096691
0
LINE
8
Layer 1
10
1.816192
20
110.096691
11
1.804243
21
109.282080
0
LINE
8
Layer 1
10
1.804243
20
109.282080
11
1.167144
21
101.171830
0
LINE
8
Layer 1
10
1.167144
20
101.171830
11
0.637978
21
92.628630
0
LINE
8
Layer 1
10
0.637978
20
92.628630
11
0.275731
21
83.663900
0
LINE
8
Layer 1
10
0.275731
20
83.663900
11
0.221827
21
81.420740
0
LINE
8
Layer 1
10
0.221827
20
81.420740
11
0.018330
21
76.021842
0
LINE
8
Layer 1
10
0.018330
20
76.021842
11
0.011825
21
70.615100
0
LINE
8
Layer 1
10
0.011825
20
70.615100
11
0.433445
21
52.659000
0
LINE
8
Layer 1
10
0.433445
20
52.659000
11
1.097183
21
41.857600
0
LINE
8
Layer 1
10
1.097183
20
41.857600
11
1.865984
21
31.471400
0
LINE
8
Layer 1
10
1.865984
20
31.471400
11
2.590346
21
21.074200
0
LINE
8
Layer 1
10
2.590346
20
21.074200
11
2.996280
21
14.548360
0
LINE
8
Layer 1
10
2.996280
20
14.548360
11
3.727613
21
5.191050
0
LINE
8
Layer 1
10
3.727613
20
5.191050
11
4.125083
21
0.998870
0
LINE
8
Layer 1
10
4.125083
20
0.998870
11
4.181286
21
0.000353
0
LINE
8
Layer 1
10
4.181286
20
0.000353
11
4.223296
21
1.359493
0
LINE
8
Layer 1
10
4.223296
20
1.359493
11
4.411513
21
4.577353
0
LINE
8
Layer 1
10
4.411513
20
4.577353
11
4.948279
21
12.889383
0
LINE
8
Layer 1
10
4.948279
20
12.889383
11
5.685584
21
23.038783
0
LINE
8
Layer 1
10
5.685584
20
23.038783
11
6.656295
21
34.618583
0
LINE
8
Layer 1
10
6.656295
20
34.618583
11
7.317044
21
42.546093
0
LINE
8
Layer 1
10
7.317044
20
42.546093
11
7.706299
21
47.427033
0
LINE
8
Layer 1
10
7.706299
20
47.427033
11
8.178456
21
53.936443
0
LINE
8
Layer 1
10
8.178456
20
53.936443
11
8.455056
21
59.237883
0
LINE
8
Layer 1
10
8.455056
20
59.237883
11
8.714601
21
64.331183
0
LINE
8
Layer 1
10
8.714601
20
64.331183
11
8.949997
21
84.735483
0
LINE
8
Layer 1
10
8.949997
20
84.735483
11
8.899705
21
86.160803
0
LINE
8
Layer 1
10
8.899705
20
86.160803
11
8.794021
21
89.420733
0
LINE
8
Layer 1
10
8.794021
20
89.420733
11
8.712609
21
95.327643
0
LINE
8
Layer 1
10
8.712609
20
95.327643
11
8.690700
21
99.607823
0
LINE
8
Layer 1
10
8.690700
20
99.607823
11
8.618967
21
101.643352
0
LINE
8
Layer 1
10
8.618967
20
101.643352
11
8.621736
21
103.680373
0
LINE
8
Layer 1
10
8.621736
20
103.680373
11
8.563480
21
104.282863
0
LINE
8
Layer 1
10
8.563480
20
104.282863
11
8.434236
21
105.389137
0
LINE
8
Layer 1
10
8.434236
20
105.389137
11
8.394429
21
106.505863
0
LINE
8
Layer 1
10
8.394429
20
106.505863
11
8.355577
21
107.717757
0
LINE
8
Layer 1
10
8.355577
20
107.717757
11
8.227376
21
108.930773
0
LINE
8
Layer 1
10
8.227376
20
108.930773
11
8.009272
21
110.812912
0
LINE
8
Layer 1
10
8.009272
20
110.812912
11
8.209840
21
112.697000
0
LINE
8
Layer 1
10
8.209840
20
112.697000
11
8.222786
21
112.727373
0
LINE
8
Layer 1
10
8.222786
20
112.727373
11
8.189921
21
112.771938
0
LINE
8
Layer 1
10
8.189921
20
112.771938
11
8.009051
21
112.897665
0
LINE
8
Layer 1
10
8.009051
20
112.897665
11
7.873737
21
113.142634
0
LINE
8
Layer 1
10
7.873737
20
113.142634
11
7.780860
21
113.460000
0
LINE
8
Layer 1
10
7.780860
20
113.460000
11
7.795550
21
113.492862
0
LINE
8
Layer 1
10
7.795550
20
113.492862
11
7.833765
21
113.495103
0
LINE
8
Layer 1
10
7.833765
20
113.495103
11
7.915551
21
113.496099
0
LINE
8
Layer 1
10
7.915551
20
113.496099
11
8.004803
21
113.492117
0
LINE
8
Layer 1
10
8.004803
20
113.492117
11
8.052231
21
113.488132
0
LINE
8
Layer 1
10
8.052231
20
113.488132
11
8.322481
21
113.126637
0
LINE
8
Layer 1
10
8.322481
20
113.126637
11
8.385594
21
113.026804
0
LINE
8
Layer 1
10
8.385594
20
113.026804
11
8.431777
21
112.986728
0
LINE
8
Layer 1
10
8.431777
20
112.986728
11
8.554640
21
112.913531
0
LINE
8
Layer 1
10
8.554640
20
112.913531
11
8.800244
21
112.769383
0
LINE
8
Layer 1
10
8.800244
20
112.769383
11
9.777678
21
112.281661
0
LINE
8
Layer 1
10
9.777678
20
112.281661
11
10.756662
21
111.723608
0
LINE
8
Layer 1
10
10.756662
20
111.723608
11
11.628468
21
111.111031
0
LINE
8
Layer 1
10
11.628468
20
111.111031
11
12.347852
21
110.736590
0
LINE
8
Layer 1
10
12.347852
20
110.736590
11
15.380612
21
109.127540
0
LINE
8
Layer 1
10
15.380612
20
109.127540
11
19.621712
21
106.687200
0
LINE
8
Layer 1
10
19.621712
20
106.687200
11
21.397452
21
105.696319
0
LINE
8
Layer 1
10
21.397452
20
105.696319
11
23.854972
21
104.365359
0
LINE
8
Layer 1
10
23.854972
20
104.365359
11
24.390494
21
104.076810
0
LINE
8
Layer 1
10
24.390494
20
104.076810
11
26.550754
21
102.957720
0
LINE
8
Layer 1
10
26.550754
20
102.957720
11
28.693944
21
101.841860
0
LINE
8
Layer 1
10
28.693944
20
101.841860
11
30.798434
21
100.633640
0
LINE
8
Layer 1
10
30.798434
20
100.633640
11
31.688729
21
100.160856
0
LINE
8
Layer 1
10
31.688729
20
100.160856
11
34.880319
21
98.448486
0
LINE
8
Layer 1
10
34.880319
20
98.448486
11
36.831199
21
97.363756
0
LINE
8
Layer 1
10
36.831199
20
97.363756
11
38.945889
21
96.182176
0
LINE
8
Layer 1
10
38.945889
20
96.182176
11
41.928099
21
94.476526
0
LINE
8
Layer 1
10
41.928099
20
94.476526
11
42.218266
21
94.319678
0
LINE
8
Layer 1
10
42.218266
20
94.319678
11
42.661546
21
94.111793
0
LINE
8
Layer 1
10
42.661546
20
94.111793
11
44.021636
21
93.282495
0
LINE
8
Layer 1
10
44.021636
20
93.282495
11
44.446245
21
93.034030
0
LINE
8
Layer 1
10
44.446245
20
93.034030
11
43.754872
21
93.487143
0
LINE
8
Layer 1
10
43.754872
20
93.487143
11
41.073100
21
95.232000
0
LINE
8
Layer 1
10
41.073100
20
95.232000
11
41.073100
21
95.232000
0
LINE
8
Layer 1
10
15.737300
20
112.648000
11
15.584313
21
112.683103
0
LINE
8
Layer 1
10
15.584313
20
112.683103
11
13.646373
21
114.047423
0
LINE
8
Layer 1
10
13.646373
20
114.047423
11
13.592469
21
114.162942
0
LINE
8
Layer 1
10
13.592469
20
114.162942
11
13.800853
21
114.206760
0
LINE
8
Layer 1
10
13.800853
20
114.206760
11
14.861563
21
113.541777
0
LINE
8
Layer 1
10
14.861563
20
113.541777
11
15.727702
21
112.836462
0
LINE
8
Layer 1
10
15.727702
20
112.836462
11
15.737300
21
112.648000
0
LINE
8
Layer 1
10
15.737300
20
112.648000
11
15.737300
21
112.648000
0
LINE
8
Layer 1
10
20.435200
20
108.841000
11
20.160598
21
108.906476
0
LINE
8
Layer 1
10
20.160598
20
108.906476
11
19.973253
21
109.026228
0
LINE
8
Layer 1
10
19.973253
20
109.026228
11
18.869483
21
109.807725
0
LINE
8
Layer 1
10
18.869483
20
109.807725
11
18.481582
21
110.079127
0
LINE
8
Layer 1
10
18.481582
20
110.079127
11
18.406921
21
110.264079
0
LINE
8
Layer 1
10
18.406921
20
110.264079
11
18.615554
21
110.306900
0
LINE
8
Layer 1
10
18.615554
20
110.306900
11
19.416472
21
109.957354
0
LINE
8
Layer 1
10
19.416472
20
109.957354
11
20.428522
21
108.930384
0
LINE
8
Layer 1
10
20.428522
20
108.930384
11
20.435200
21
108.841000
0
LINE
8
Layer 1
10
20.435200
20
108.841000
11
20.435200
21
108.841000
0
LINE
8
Layer 1
10
24.229000
20
106.275000
11
23.906217
21
106.497075
0
LINE
8
Layer 1
10
23.906217
20
106.497075
11
23.960742
21
106.511765
0
LINE
8
Layer 1
10
23.960742
20
106.511765
11
24.281281
21
106.295913
0
LINE
8
Layer 1
10
24.281281
20
106.295913
11
24.229000
21
106.275000
0
LINE
8
Layer 1
10
24.229000
20
106.275000
11
24.229000
21
106.275000
0
LINE
8
Layer 1
10
34.087300
20
99.084200
11
33.455058
21
99.488269
0
LINE
8
Layer 1
10
33.455058
20
99.488269
11
34.047216
21
99.177063
0
LINE
8
Layer 1
10
34.047216
20
99.177063
11
34.227093
21
99.023452
0
LINE
8
Layer 1
10
34.227093
20
99.023452
11
34.087300
21
99.084200
0
LINE
8
Layer 1
10
34.087300
20
99.084200
11
34.087300
21
99.084200
0
LINE
8
Layer 1
10
35.653700
20
99.067600
11
35.869676
21
98.974986
0
LINE
8
Layer 1
10
35.869676
20
98.974986
11
35.711584
21
99.152504
0
LINE
8
Layer 1
10
35.711584
20
99.152504
11
33.588424
21
100.677654
0
LINE
8
Layer 1
10
33.588424
20
100.677654
11
33.146326
21
100.937167
0
LINE
8
Layer 1
10
33.146326
20
100.937167
11
32.750163
21
100.923134
0
LINE
8
Layer 1
10
32.750163
20
100.923134
11
34.813703
21
99.624034
0
LINE
8
Layer 1
10
34.813703
20
99.624034
11
35.653700
21
99.067600
0
LINE
8
Layer 1
10
35.653700
20
99.067600
11
35.653700
21
99.067600
0
LINE
8
Layer 1
10
45.184300
20
92.569600
11
44.931601
21
92.729682
0
LINE
8
Layer 1
10
44.931601
20
92.729682
11
44.552295
21
92.966695
0
LINE
8
Layer 1
10
44.552295
20
92.966695
11
44.892629
21
92.750346
0
LINE
8
Layer 1
10
44.892629
20
92.750346
11
45.158641
21
92.585293
0
LINE
8
Layer 1
10
45.158641
20
92.585293
11
45.184300
21
92.569600
0
LINE
8
Layer 1
10
45.184300
20
92.569600
11
45.184300
21
92.569600
0
LINE
8
Layer 1
10
27.439700
20
104.964000
11
27.547749
21
104.924413
0
LINE
8
Layer 1
10
27.547749
20
104.924413
11
27.426255
21
105.031468
0
LINE
8
Layer 1
10
27.426255
20
105.031468
11
27.283597
21
105.113625
0
LINE
8
Layer 1
10
27.283597
20
105.113625
11
27.439700
21
104.964000
0
LINE
8
Layer 1
10
27.439700
20
104.964000
11
27.439700
21
104.964000
 0 
ENDSEC
 0 
EOF