999
"DXF R12 Output" (www.mydxf.blogspot.com)
 0 
SECTION
 2 
HEADER
 9 
$ACADVER
 1 
AC1009
 9 
$EXTMIN
 10 
 0 
 20 
 0 
 9 
$EXTMAX
 10 
 8.5 
 20 
 11 
 0 
ENDSEC
 0 
SECTION
 2 
ENTITIES
0
LINE
8
Layer 1
10
5.110480
20
15.990500
11
5.103385
21
14.709580
0
LINE
8
Layer 1
10
5.103385
20
14.709580
11
5.144090
21
14.415428
0
LINE
8
Layer 1
10
5.144090
20
14.415428
11
5.206331
21
14.707090
0
LINE
8
Layer 1
10
5.206331
20
14.707090
11
5.323095
21
18.027020
0
LINE
8
Layer 1
10
5.323095
20
18.027020
11
5.298775
21
18.677797
0
LINE
8
Layer 1
10
5.298775
20
18.677797
11
5.070647
21
19.089850
0
LINE
8
Layer 1
10
5.070647
20
19.089850
11
5.110480
21
15.990500
0
LINE
8
Layer 1
10
5.110480
20
15.990500
11
5.110480
21
15.990500
0
LINE
8
Layer 1
10
4.870730
20
0.049096
11
4.866745
21
0.429390
0
LINE
8
Layer 1
10
4.866745
20
0.429390
11
4.857782
21
0.996778
0
LINE
8
Layer 1
10
4.857782
20
0.996778
11
4.862763
21
0.485406
0
LINE
8
Layer 1
10
4.862763
20
0.485406
11
4.869779
21
0.087437
0
LINE
8
Layer 1
10
4.869779
20
0.087437
11
4.870730
21
0.049096
0
LINE
8
Layer 1
10
4.870730
20
0.049096
11
4.870730
21
0.049096
0
LINE
8
Layer 1
10
4.857780
20
0.996777
11
4.856287
21
1.154993
0
LINE
8
Layer 1
10
4.856287
20
1.154993
11
4.856039
21
1.109061
0
LINE
8
Layer 1
10
4.856039
20
1.109061
11
4.857780
21
0.996777
0
LINE
8
Layer 1
10
4.857780
20
0.996777
11
4.857780
21
0.996777
0
LINE
8
Layer 1
10
5.552270
20
27.550800
11
5.578161
21
27.408391
0
LINE
8
Layer 1
10
5.578161
20
27.408391
11
5.601439
21
27.612045
0
LINE
8
Layer 1
10
5.601439
20
27.612045
11
5.592227
21
27.821050
0
LINE
8
Layer 1
10
5.592227
20
27.821050
11
5.552270
21
27.550800
0
LINE
8
Layer 1
10
5.552270
20
27.550800
11
5.552270
21
27.550800
0
LINE
8
Layer 1
10
93.317900
20
118.538000
11
93.250929
21
118.488083
0
LINE
8
Layer 1
10
93.250929
20
118.488083
11
93.161552
21
118.421360
0
LINE
8
Layer 1
10
93.161552
20
118.421360
11
92.982671
21
118.287666
0
LINE
8
Layer 1
10
92.982671
20
118.287666
11
92.623913
21
118.019160
0
LINE
8
Layer 1
10
92.623913
20
118.019160
11
91.902539
21
117.478036
0
LINE
8
Layer 1
10
91.902539
20
117.478036
11
90.446099
21
116.380356
0
LINE
8
Layer 1
10
90.446099
20
116.380356
11
87.487500
21
114.132000
0
LINE
8
Layer 1
10
87.487500
20
114.132000
11
85.993470
21
112.991740
0
LINE
8
Layer 1
10
85.993470
20
112.991740
11
84.566270
21
111.978710
0
LINE
8
Layer 1
10
84.566270
20
111.978710
11
81.693230
21
109.927750
0
LINE
8
Layer 1
10
81.693230
20
109.927750
11
79.170230
21
108.117160
0
LINE
8
Layer 1
10
79.170230
20
108.117160
11
77.778150
21
107.109600
0
LINE
8
Layer 1
10
77.778150
20
107.109600
11
75.006310
21
105.077800
0
LINE
8
Layer 1
10
75.006310
20
105.077800
11
56.795800
21
91.310200
0
LINE
8
Layer 1
10
56.795800
20
91.310200
11
46.563800
21
83.088920
0
LINE
8
Layer 1
10
46.563800
20
83.088920
11
41.823400
21
86.970510
0
LINE
8
Layer 1
10
41.823400
20
86.970510
11
35.380460
21
92.185690
0
LINE
8
Layer 1
10
35.380460
20
92.185690
11
30.070310
21
96.345130
0
LINE
8
Layer 1
10
30.070310
20
96.345130
11
24.965060
21
100.336520
0
LINE
8
Layer 1
10
24.965060
20
100.336520
11
19.763700
21
104.210000
0
LINE
8
Layer 1
10
19.763700
20
104.210000
11
14.541100
21
108.055000
0
LINE
8
Layer 1
10
14.541100
20
108.055000
11
9.574780
21
111.664000
0
LINE
8
Layer 1
10
9.574780
20
111.664000
11
8.212820
21
112.653256
0
LINE
8
Layer 1
10
8.212820
20
112.653256
11
7.532030
21
113.147709
0
LINE
8
Layer 1
10
7.532030
20
113.147709
11
6.813894
21
113.710242
0
LINE
8
Layer 1
10
6.813894
20
113.710242
11
3.940354
21
115.964352
0
LINE
8
Layer 1
10
3.940354
20
115.964352
11
1.069060
21
118.217000
0
LINE
8
Layer 1
10
1.069060
20
118.217000
11
0.351663
21
118.779000
0
LINE
8
Layer 1
10
0.351663
20
118.779000
11
0.000000
21
119.047000
0
LINE
8
Layer 1
10
0.000000
20
119.047000
11
0.018909
21
118.590000
0
LINE
8
Layer 1
10
0.018909
20
118.590000
11
0.094731
21
116.760000
0
LINE
8
Layer 1
10
0.094731
20
116.760000
11
0.394484
21
109.456000
0
LINE
8
Layer 1
10
0.394484
20
109.456000
11
0.449627
21
105.674990
0
LINE
8
Layer 1
10
0.449627
20
105.674990
11
0.515230
21
101.407120
0
LINE
8
Layer 1
10
0.515230
20
101.407120
11
0.566518
21
99.333380
0
LINE
8
Layer 1
10
0.566518
20
99.333380
11
0.668220
21
91.825000
0
LINE
8
Layer 1
10
0.668220
20
91.825000
11
0.704816
21
86.383900
0
LINE
8
Layer 1
10
0.704816
20
86.383900
11
0.783474
21
83.796617
0
LINE
8
Layer 1
10
0.783474
20
83.796617
11
0.787721
21
81.207190
0
LINE
8
Layer 1
10
0.787721
20
81.207190
11
0.847970
21
80.441502
0
LINE
8
Layer 1
10
0.847970
20
80.441502
11
0.981011
21
79.035742
0
LINE
8
Layer 1
10
0.981011
20
79.035742
11
1.024610
21
77.616262
0
LINE
8
Layer 1
10
1.024610
20
77.616262
11
1.067681
21
76.075921
0
LINE
8
Layer 1
10
1.067681
20
76.075921
11
1.200005
21
74.534462
0
LINE
8
Layer 1
10
1.200005
20
74.534462
11
1.424636
21
72.142070
0
LINE
8
Layer 1
10
1.424636
20
72.142070
11
1.230630
21
69.747000
0
LINE
8
Layer 1
10
1.230630
20
69.747000
11
1.203743
21
68.750646
0
LINE
8
Layer 1
10
1.203743
20
68.750646
11
1.284904
21
66.677156
0
LINE
8
Layer 1
10
1.284904
20
66.677156
11
1.691710
21
57.102756
0
LINE
8
Layer 1
10
1.691710
20
57.102756
11
1.845944
21
54.260956
0
LINE
8
Layer 1
10
1.845944
20
54.260956
11
2.027190
21
51.436956
0
LINE
8
Layer 1
10
2.027190
20
51.436956
11
2.094892
21
50.006984
0
LINE
8
Layer 1
10
2.094892
20
50.006984
11
2.058311
21
48.653286
0
LINE
8
Layer 1
10
2.058311
20
48.653286
11
2.137979
21
47.627306
0
LINE
8
Layer 1
10
2.137979
20
47.627306
11
2.448062
21
43.280896
0
LINE
8
Layer 1
10
2.448062
20
43.280896
11
2.722173
21
37.070366
0
LINE
8
Layer 1
10
2.722173
20
37.070366
11
2.862962
21
34.491596
0
LINE
8
Layer 1
10
2.862962
20
34.491596
11
3.091384
21
30.950836
0
LINE
8
Layer 1
10
3.091384
20
30.950836
11
3.142548
21
30.180291
0
LINE
8
Layer 1
10
3.142548
20
30.180291
11
3.386035
21
27.102971
0
LINE
8
Layer 1
10
3.386035
20
27.102971
11
3.622924
21
24.046191
0
LINE
8
Layer 1
10
3.622924
20
24.046191
11
3.761213
21
20.966261
0
LINE
8
Layer 1
10
3.761213
20
20.966261
11
3.851959
21
19.690071
0
LINE
8
Layer 1
10
3.851959
20
19.690071
11
4.162403
21
15.102791
0
LINE
8
Layer 1
10
4.162403
20
15.102791
11
4.319999
21
12.272321
0
LINE
8
Layer 1
10
4.319999
20
12.272321
11
4.486183
21
9.200101
0
LINE
8
Layer 1
10
4.486183
20
9.200101
11
4.687972
21
4.840371
0
LINE
8
Layer 1
10
4.687972
20
4.840371
11
4.715110
21
4.422485
0
LINE
8
Layer 1
10
4.715110
20
4.422485
11
4.783326
21
3.806177
0
LINE
8
Layer 1
10
4.783326
20
3.806177
11
4.832247
21
1.782097
0
LINE
8
Layer 1
10
4.832247
20
1.782097
11
4.856148
21
1.157074
0
LINE
8
Layer 1
10
4.856148
20
1.157074
11
4.857889
21
2.208324
0
LINE
8
Layer 1
10
4.857889
20
2.208324
11
4.853410
21
6.275524
0
LINE
8
Layer 1
10
4.853410
20
6.275524
11
4.837101
21
9.106244
0
LINE
8
Layer 1
10
4.837101
20
9.106244
11
4.825899
21
11.386134
0
LINE
8
Layer 1
10
4.825899
20
11.386134
11
4.760918
21
15.888524
0
LINE
8
Layer 1
10
4.760918
20
15.888524
11
4.812454
21
17.023424
0
LINE
8
Layer 1
10
4.812454
20
17.023424
11
4.865360
21
17.903262
0
LINE
8
Layer 1
10
4.865360
20
17.903262
11
4.849177
21
19.394432
0
LINE
8
Layer 1
10
4.849177
20
19.394432
11
4.883044
21
21.941582
0
LINE
8
Layer 1
10
4.883044
20
21.941582
11
4.912299
21
22.678266
0
LINE
8
Layer 1
10
4.912299
20
22.678266
11
5.130188
21
22.099892
0
LINE
8
Layer 1
10
5.130188
20
22.099892
11
5.326697
21
21.474646
0
LINE
8
Layer 1
10
5.326697
20
21.474646
11
5.419438
21
23.132746
0
LINE
8
Layer 1
10
5.419438
20
23.132746
11
5.511056
21
25.063336
0
LINE
8
Layer 1
10
5.511056
20
25.063336
11
5.279894
21
25.022259
0
LINE
8
Layer 1
10
5.279894
20
25.022259
11
5.224375
21
25.688735
0
LINE
8
Layer 1
10
5.224375
20
25.688735
11
5.306408
21
27.459615
0
LINE
8
Layer 1
10
5.306408
20
27.459615
11
5.441098
21
30.488885
0
LINE
8
Layer 1
10
5.441098
20
30.488885
11
5.404376
21
31.490345
0
LINE
8
Layer 1
10
5.404376
20
31.490345
11
5.469310
21
33.725870
0
LINE
8
Layer 1
10
5.469310
20
33.725870
11
5.727156
21
35.947425
0
LINE
8
Layer 1
10
5.727156
20
35.947425
11
5.938305
21
37.275958
0
LINE
8
Layer 1
10
5.938305
20
37.275958
11
5.924970
21
38.621100
0
LINE
8
Layer 1
10
5.924970
20
38.621100
11
6.001401
21
40.369700
0
LINE
8
Layer 1
10
6.001401
20
40.369700
11
6.067208
21
41.236891
0
LINE
8
Layer 1
10
6.067208
20
41.236891
11
5.980489
21
42.102240
0
LINE
8
Layer 1
10
5.980489
20
42.102240
11
5.805966
21
43.439800
0
LINE
8
Layer 1
10
5.805966
20
43.439800
11
5.979120
21
44.398062
0
LINE
8
Layer 1
10
5.979120
20
44.398062
11
6.137957
21
45.597442
0
LINE
8
Layer 1
10
6.137957
20
45.597442
11
6.216539
21
47.222771
0
LINE
8
Layer 1
10
6.216539
20
47.222771
11
6.487380
21
48.827300
0
LINE
8
Layer 1
10
6.487380
20
48.827300
11
6.612732
21
50.101370
0
LINE
8
Layer 1
10
6.612732
20
50.101370
11
9.711962
21
52.142750
0
LINE
8
Layer 1
10
9.711962
20
52.142750
11
18.573452
21
57.924810
0
LINE
8
Layer 1
10
18.573452
20
57.924810
11
29.441952
21
64.918700
0
LINE
8
Layer 1
10
29.441952
20
64.918700
11
41.918452
21
72.793540
0
LINE
8
Layer 1
10
41.918452
20
72.793540
11
46.511332
21
75.694840
0
LINE
8
Layer 1
10
46.511332
20
75.694840
11
54.888222
21
70.380950
0
LINE
8
Layer 1
10
54.888222
20
70.380950
11
66.040522
21
63.252740
0
LINE
8
Layer 1
10
66.040522
20
63.252740
11
73.012012
21
58.739030
0
LINE
8
Layer 1
10
73.012012
20
58.739030
11
83.095212
21
52.388580
0
LINE
8
Layer 1
10
83.095212
20
52.388580
11
85.946592
21
50.654550
0
LINE
8
Layer 1
10
85.946592
20
50.654550
11
85.904143
21
48.653250
0
LINE
8
Layer 1
10
85.904143
20
48.653250
11
85.983687
21
47.627270
0
LINE
8
Layer 1
10
85.983687
20
47.627270
11
86.293894
21
43.280860
0
LINE
8
Layer 1
10
86.293894
20
43.280860
11
86.568005
21
37.070330
0
LINE
8
Layer 1
10
86.568005
20
37.070330
11
86.708670
21
34.491560
0
LINE
8
Layer 1
10
86.708670
20
34.491560
11
86.937219
21
30.950800
0
LINE
8
Layer 1
10
86.937219
20
30.950800
11
86.988256
21
30.180255
0
LINE
8
Layer 1
10
86.988256
20
30.180255
11
87.231743
21
27.102935
0
LINE
8
Layer 1
10
87.231743
20
27.102935
11
87.468756
21
24.046155
0
LINE
8
Layer 1
10
87.468756
20
24.046155
11
87.607045
21
20.966225
0
LINE
8
Layer 1
10
87.607045
20
20.966225
11
87.697667
21
19.690035
0
LINE
8
Layer 1
10
87.697667
20
19.690035
11
88.008125
21
15.102755
0
LINE
8
Layer 1
10
88.008125
20
15.102755
11
88.165845
21
12.272285
0
LINE
8
Layer 1
10
88.165845
20
12.272285
11
88.332029
21
9.200065
0
LINE
8
Layer 1
10
88.332029
20
9.200065
11
88.533818
21
4.840335
0
LINE
8
Layer 1
10
88.533818
20
4.840335
11
88.560956
21
4.422449
0
LINE
8
Layer 1
10
88.560956
20
4.422449
11
88.629048
21
3.806141
0
LINE
8
Layer 1
10
88.629048
20
3.806141
11
88.678093
21
1.782061
0
LINE
8
Layer 1
10
88.678093
20
1.782061
11
88.701994
21
1.157162
0
LINE
8
Layer 1
10
88.701994
20
1.157162
11
88.703614
21
2.208292
0
LINE
8
Layer 1
10
88.703614
20
2.208292
11
88.699132
21
6.275492
0
LINE
8
Layer 1
10
88.699132
20
6.275492
11
88.682950
21
9.106212
0
LINE
8
Layer 1
10
88.682950
20
9.106212
11
88.671621
21
11.386102
0
LINE
8
Layer 1
10
88.671621
20
11.386102
11
88.606767
21
15.888492
0
LINE
8
Layer 1
10
88.606767
20
15.888492
11
88.658176
21
17.023392
0
LINE
8
Layer 1
10
88.658176
20
17.023392
11
88.711206
21
17.903230
0
LINE
8
Layer 1
10
88.711206
20
17.903230
11
88.695023
21
19.394400
0
LINE
8
Layer 1
10
88.695023
20
19.394400
11
88.728757
21
21.941550
0
LINE
8
Layer 1
10
88.728757
20
21.941550
11
88.758136
21
22.678234
0
LINE
8
Layer 1
10
88.758136
20
22.678234
11
88.975917
21
22.099860
0
LINE
8
Layer 1
10
88.975917
20
22.099860
11
89.172412
21
21.474614
0
LINE
8
Layer 1
10
89.172412
20
21.474614
11
89.265263
21
23.132714
0
LINE
8
Layer 1
10
89.265263
20
23.132714
11
89.356757
21
25.063304
0
LINE
8
Layer 1
10
89.356757
20
25.063304
11
89.125595
21
25.022227
0
LINE
8
Layer 1
10
89.125595
20
25.022227
11
89.070200
21
25.688703
0
LINE
8
Layer 1
10
89.070200
20
25.688703
11
89.152110
21
27.459583
0
LINE
8
Layer 1
10
89.152110
20
27.459583
11
89.286925
21
30.488853
0
LINE
8
Layer 1
10
89.286925
20
30.488853
11
89.250202
21
31.490313
0
LINE
8
Layer 1
10
89.250202
20
31.490313
11
89.315076
21
33.725835
0
LINE
8
Layer 1
10
89.315076
20
33.725835
11
89.572858
21
35.947393
0
LINE
8
Layer 1
10
89.572858
20
35.947393
11
89.784044
21
37.275895
0
LINE
8
Layer 1
10
89.784044
20
37.275895
11
89.770662
21
38.621013
0
LINE
8
Layer 1
10
89.770662
20
38.621013
11
89.847218
21
40.369613
0
LINE
8
Layer 1
10
89.847218
20
40.369613
11
89.912964
21
41.236809
0
LINE
8
Layer 1
10
89.912964
20
41.236809
11
89.826181
21
42.102153
0
LINE
8
Layer 1
10
89.826181
20
42.102153
11
89.651768
21
43.439713
0
LINE
8
Layer 1
10
89.651768
20
43.439713
11
89.824798
21
44.397975
0
LINE
8
Layer 1
10
89.824798
20
44.397975
11
89.983635
21
45.597355
0
LINE
8
Layer 1
10
89.983635
20
45.597355
11
90.062278
21
47.222724
0
LINE
8
Layer 1
10
90.062278
20
47.222724
11
90.333100
21
48.827300
0
LINE
8
Layer 1
10
90.333100
20
48.827300
11
90.433057
21
50.319590
0
LINE
8
Layer 1
10
90.433057
20
50.319590
11
90.417050
21
51.588421
0
LINE
8
Layer 1
10
90.417050
20
51.588421
11
90.414761
21
52.862760
0
LINE
8
Layer 1
10
90.414761
20
52.862760
11
90.465439
21
54.124382
0
LINE
8
Layer 1
10
90.465439
20
54.124382
11
90.667457
21
55.343430
0
LINE
8
Layer 1
10
90.667457
20
55.343430
11
90.726337
21
56.108870
0
LINE
8
Layer 1
10
90.726337
20
56.108870
11
90.797230
21
58.936647
0
LINE
8
Layer 1
10
90.797230
20
58.936647
11
90.950280
21
61.752380
0
LINE
8
Layer 1
10
90.950280
20
61.752380
11
91.098830
21
64.586056
0
LINE
8
Layer 1
10
91.098830
20
64.586056
11
91.112109
21
67.431500
0
LINE
8
Layer 1
10
91.112109
20
67.431500
11
91.199245
21
68.180382
0
LINE
8
Layer 1
10
91.199245
20
68.180382
11
91.390355
21
70.619777
0
LINE
8
Layer 1
10
91.390355
20
70.619777
11
91.461031
21
73.080742
0
LINE
8
Layer 1
10
91.461031
20
73.080742
11
91.470243
21
74.116182
0
LINE
8
Layer 1
10
91.470243
20
74.116182
11
92.079456
21
84.428982
0
LINE
8
Layer 1
10
92.079456
20
84.428982
11
92.579376
21
95.291182
0
LINE
8
Layer 1
10
92.579376
20
95.291182
11
92.763103
21
100.988962
0
LINE
8
Layer 1
10
92.763103
20
100.988962
11
92.772566
21
101.345228
0
LINE
8
Layer 1
10
92.772566
20
101.345228
11
92.782026
21
101.991539
0
LINE
8
Layer 1
10
92.782026
20
101.991539
11
92.800697
21
103.403289
0
LINE
8
Layer 1
10
92.800697
20
103.403289
11
92.837793
21
106.244699
0
LINE
8
Layer 1
10
92.837793
20
106.244699
11
92.874888
21
109.109649
0
LINE
8
Layer 1
10
92.874888
20
109.109649
11
93.027006
21
112.226929
0
LINE
8
Layer 1
10
93.027006
20
112.226929
11
93.326508
21
118.527959
0
LINE
8
Layer 1
10
93.326508
20
118.527959
11
93.317900
21
118.538000
0
LINE
8
Layer 1
10
93.317900
20
118.538000
11
93.317900
21
118.538000
0
LINE
8
Layer 1
10
4.286790
20
16.197800
11
4.261271
21
16.388878
0
LINE
8
Layer 1
10
4.261271
20
16.388878
11
4.254049
21
17.342659
0
LINE
8
Layer 1
10
4.254049
20
17.342659
11
4.317163
21
16.496058
0
LINE
8
Layer 1
10
4.317163
20
16.496058
11
4.286790
21
16.197800
0
LINE
8
Layer 1
10
4.286790
20
16.197800
11
4.286790
21
16.197800
0
LINE
8
Layer 1
10
4.941689
20
31.838600
11
4.895506
21
31.879680
0
LINE
8
Layer 1
10
4.895506
20
31.879680
11
4.905215
21
32.377607
0
LINE
8
Layer 1
10
4.905215
20
32.377607
11
4.947043
21
32.329683
0
LINE
8
Layer 1
10
4.947043
20
32.329683
11
4.941689
21
31.838600
0
LINE
8
Layer 1
10
5.349119
20
39.561460
11
5.042146
21
37.770540
0
LINE
8
Layer 1
10
5.042146
20
37.770540
11
4.971066
21
37.701452
0
LINE
8
Layer 1
10
4.971066
20
37.701452
11
4.875714
21
38.039173
0
LINE
8
Layer 1
10
4.875714
20
38.039173
11
4.873597
21
38.321748
0
LINE
8
Layer 1
10
4.873597
20
38.321748
11
4.924759
21
40.039848
0
LINE
8
Layer 1
10
4.924759
20
40.039848
11
4.940090
21
40.641301
0
LINE
8
Layer 1
10
4.940090
20
40.641301
11
5.054096
21
40.849230
0
LINE
8
Layer 1
10
5.054096
20
40.849230
11
5.204097
21
40.657037
0
LINE
8
Layer 1
10
5.204097
20
40.657037
11
5.351225
21
40.119095
0
LINE
8
Layer 1
10
5.351225
20
40.119095
11
5.349110
21
39.561400
0
LINE
8
Layer 1
10
5.349110
20
39.561400
11
5.349119
21
39.561460
0
LINE
8
Layer 1
10
5.743852
20
45.488550
11
5.591238
21
45.347261
0
LINE
8
Layer 1
10
5.591238
20
45.347261
11
5.536964
21
45.534481
0
LINE
8
Layer 1
10
5.536964
20
45.534481
11
5.620366
21
48.545451
0
LINE
8
Layer 1
10
5.620366
20
48.545451
11
5.687710
21
48.683254
0
LINE
8
Layer 1
10
5.687710
20
48.683254
11
5.838335
21
48.491800
0
LINE
8
Layer 1
10
5.838335
20
48.491800
11
5.861113
21
46.900670
0
LINE
8
Layer 1
10
5.861113
20
46.900670
11
5.743850
21
45.488500
0
LINE
8
Layer 1
10
5.743850
20
45.488500
11
5.743852
21
45.488550
0
LINE
8
Layer 1
10
8.751212
20
101.776950
11
8.796026
21
101.889359
0
LINE
8
Layer 1
10
8.796026
20
101.889359
11
9.001670
21
101.598569
0
LINE
8
Layer 1
10
9.001670
20
101.598569
11
9.023966
21
101.554503
0
LINE
8
Layer 1
10
9.023966
20
101.554503
11
9.001060
21
101.459772
0
LINE
8
Layer 1
10
9.001060
20
101.459772
11
8.938195
21
101.290972
0
LINE
8
Layer 1
10
8.938195
20
101.290972
11
8.926870
21
101.345371
0
LINE
8
Layer 1
10
8.926870
20
101.345371
11
8.922388
21
101.415954
0
LINE
8
Layer 1
10
8.922388
20
101.415954
11
8.876578
21
101.498236
0
LINE
8
Layer 1
10
8.876578
20
101.498236
11
8.801391
21
101.612254
0
LINE
8
Layer 1
10
8.801391
20
101.612254
11
8.724460
21
101.704496
0
LINE
8
Layer 1
10
8.724460
20
101.704496
11
8.751200
21
101.777000
0
LINE
8
Layer 1
10
8.751200
20
101.777000
11
8.751212
21
101.776950
0
LINE
8
Layer 1
10
35.859012
20
74.309650
11
25.597512
21
65.949950
0
LINE
8
Layer 1
10
25.597512
20
65.949950
11
19.128062
21
60.742120
0
LINE
8
Layer 1
10
19.128062
20
60.742120
11
9.939802
21
53.154200
0
LINE
8
Layer 1
10
9.939802
20
53.154200
11
6.589492
21
50.302440
0
LINE
8
Layer 1
10
6.589492
20
50.302440
11
6.571564
21
51.586409
0
LINE
8
Layer 1
10
6.571564
20
51.586409
11
6.568952
21
52.862910
0
LINE
8
Layer 1
10
6.568952
20
52.862910
11
6.619648
21
54.124532
0
LINE
8
Layer 1
10
6.619648
20
54.124532
11
6.821775
21
55.343580
0
LINE
8
Layer 1
10
6.821775
20
55.343580
11
6.880655
21
56.109020
0
LINE
8
Layer 1
10
6.880655
20
56.109020
11
6.951485
21
58.936798
0
LINE
8
Layer 1
10
6.951485
20
58.936798
11
7.104474
21
61.752530
0
LINE
8
Layer 1
10
7.104474
20
61.752530
11
7.253085
21
64.586206
0
LINE
8
Layer 1
10
7.253085
20
64.586206
11
7.266424
21
67.431650
0
LINE
8
Layer 1
10
7.266424
20
67.431650
11
7.353439
21
68.180532
0
LINE
8
Layer 1
10
7.353439
20
68.180532
11
7.544563
21
70.619927
0
LINE
8
Layer 1
10
7.544563
20
70.619927
11
7.615341
21
73.080892
0
LINE
8
Layer 1
10
7.615341
20
73.080892
11
7.624428
21
74.116332
0
LINE
8
Layer 1
10
7.624428
20
74.116332
11
8.233641
21
84.429132
0
LINE
8
Layer 1
10
8.233641
20
84.429132
11
8.733561
21
95.291332
0
LINE
8
Layer 1
10
8.733561
20
95.291332
11
8.917288
21
100.989112
0
LINE
8
Layer 1
10
8.917288
20
100.989112
11
8.921646
21
101.148567
0
LINE
8
Layer 1
10
8.921646
20
101.148567
11
9.219904
21
100.929602
0
LINE
8
Layer 1
10
9.219904
20
100.929602
11
10.612614
21
99.923042
0
LINE
8
Layer 1
10
10.612614
20
99.923042
11
13.410200
21
97.926600
0
LINE
8
Layer 1
10
13.410200
20
97.926600
11
32.187200
21
84.942100
0
LINE
8
Layer 1
10
32.187200
20
84.942100
11
41.463350
21
78.907210
0
LINE
8
Layer 1
10
41.463350
20
78.907210
11
35.859000
21
74.309600
0
LINE
8
Layer 1
10
35.859000
20
74.309600
11
35.859012
21
74.309650
0
LINE
8
Layer 1
10
84.550512
20
101.445850
11
84.570550
21
101.431412
0
LINE
8
Layer 1
10
84.570550
20
101.431412
11
84.550500
21
101.446000
0
LINE
8
Layer 1
10
84.550500
20
101.446000
11
84.550512
21
101.445850
0
LINE
8
Layer 1
10
84.126897
20
52.489050
11
75.861177
21
59.094560
0
LINE
8
Layer 1
10
75.861177
20
59.094560
11
65.815977
21
67.226960
0
LINE
8
Layer 1
10
65.815977
20
67.226960
11
54.430777
21
76.610540
0
LINE
8
Layer 1
10
54.430777
20
76.610540
11
51.618977
21
78.926150
0
LINE
8
Layer 1
10
51.618977
20
78.926150
11
55.705097
21
81.523470
0
LINE
8
Layer 1
10
55.705097
20
81.523470
11
62.675337
21
86.009550
0
LINE
8
Layer 1
10
62.675337
20
86.009550
11
68.288227
21
89.750360
0
LINE
8
Layer 1
10
68.288227
20
89.750360
11
73.677297
21
93.349250
0
LINE
8
Layer 1
10
73.677297
20
93.349250
11
78.985087
21
97.076120
0
LINE
8
Layer 1
10
78.985087
20
97.076120
11
84.271500
21
100.832000
0
LINE
8
Layer 1
10
84.271500
20
100.832000
11
84.373326
21
100.904946
0
LINE
8
Layer 1
10
84.373326
20
100.904946
11
84.412290
21
99.333366
0
LINE
8
Layer 1
10
84.412290
20
99.333366
11
84.513992
21
91.824986
0
LINE
8
Layer 1
10
84.513992
20
91.824986
11
84.550466
21
86.383886
0
LINE
8
Layer 1
10
84.550466
20
86.383886
11
84.629169
21
83.796603
0
LINE
8
Layer 1
10
84.629169
20
83.796603
11
84.633369
21
81.207176
0
LINE
8
Layer 1
10
84.633369
20
81.207176
11
84.693745
21
80.441488
0
LINE
8
Layer 1
10
84.693745
20
80.441488
11
84.826784
21
79.035728
0
LINE
8
Layer 1
10
84.826784
20
79.035728
11
84.870385
21
77.616248
0
LINE
8
Layer 1
10
84.870385
20
77.616248
11
84.913454
21
76.075907
0
LINE
8
Layer 1
10
84.913454
20
76.075907
11
85.045778
21
74.534448
0
LINE
8
Layer 1
10
85.045778
20
74.534448
11
85.270319
21
72.141931
0
LINE
8
Layer 1
10
85.270319
20
72.141931
11
85.076277
21
69.746748
0
LINE
8
Layer 1
10
85.076277
20
69.746748
11
85.049390
21
68.750394
0
LINE
8
Layer 1
10
85.049390
20
68.750394
11
85.130551
21
66.676904
0
LINE
8
Layer 1
10
85.130551
20
66.676904
11
85.537357
21
57.102504
0
LINE
8
Layer 1
10
85.537357
20
57.102504
11
85.691716
21
54.260704
0
LINE
8
Layer 1
10
85.691716
20
54.260704
11
85.872838
21
51.436704
0
LINE
8
Layer 1
10
85.872838
20
51.436704
11
85.922134
21
51.064253
0
LINE
8
Layer 1
10
85.922134
20
51.064253
11
84.126900
21
52.489000
0
LINE
8
Layer 1
10
84.126900
20
52.489000
11
84.126897
21
52.489050
0
LINE
8
Layer 1
10
88.132477
20
16.197850
11
88.107077
21
16.388928
0
LINE
8
Layer 1
10
88.107077
20
16.388928
11
88.099858
21
17.342709
0
LINE
8
Layer 1
10
88.099858
20
17.342709
11
88.162968
21
16.496108
0
LINE
8
Layer 1
10
88.162968
20
16.496108
11
88.132500
21
16.197800
0
LINE
8
Layer 1
10
88.132500
20
16.197800
11
88.132477
21
16.197850
0
LINE
8
Layer 1
10
88.787500
20
31.838650
11
88.741193
21
31.879730
0
LINE
8
Layer 1
10
88.741193
20
31.879730
11
88.751028
21
32.377657
0
LINE
8
Layer 1
10
88.751028
20
32.377657
11
88.792854
21
32.329733
0
LINE
8
Layer 1
10
88.792854
20
32.329733
11
88.787500
21
31.838650
0
LINE
8
Layer 1
10
89.194806
20
39.561510
11
88.887833
21
37.770590
0
LINE
8
Layer 1
10
88.887833
20
37.770590
11
88.816755
21
37.701502
0
LINE
8
Layer 1
10
88.816755
20
37.701502
11
88.721525
21
38.039223
0
LINE
8
Layer 1
10
88.721525
20
38.039223
11
88.719409
21
38.321798
0
LINE
8
Layer 1
10
88.719409
20
38.321798
11
88.770573
21
40.039898
0
LINE
8
Layer 1
10
88.770573
20
40.039898
11
88.785903
21
40.641351
0
LINE
8
Layer 1
10
88.785903
20
40.641351
11
88.899910
21
40.849280
0
LINE
8
Layer 1
10
88.899910
20
40.849280
11
89.049770
21
40.657087
0
LINE
8
Layer 1
10
89.049770
20
40.657087
11
89.196960
21
40.119128
0
LINE
8
Layer 1
10
89.196960
20
40.119128
11
89.194800
21
39.561400
0
LINE
8
Layer 1
10
89.194800
20
39.561400
11
89.194806
21
39.561510
0
LINE
8
Layer 1
10
89.589663
20
45.488600
11
89.437049
21
45.347311
0
LINE
8
Layer 1
10
89.437049
20
45.347311
11
89.382651
21
45.534531
0
LINE
8
Layer 1
10
89.382651
20
45.534531
11
89.466188
21
48.545501
0
LINE
8
Layer 1
10
89.466188
20
48.545501
11
89.533408
21
48.683304
0
LINE
8
Layer 1
10
89.533408
20
48.683304
11
89.684033
21
48.491850
0
LINE
8
Layer 1
10
89.684033
20
48.491850
11
89.706935
21
46.900720
0
LINE
8
Layer 1
10
89.706935
20
46.900720
11
89.589700
21
45.488500
0
LINE
8
Layer 1
10
89.589700
20
45.488500
11
89.589663
21
45.488600
0
LINE
8
Layer 1
10
88.956200
20
15.990500
11
88.949229
21
14.709580
0
LINE
8
Layer 1
10
88.949229
20
14.709580
11
88.989810
21
14.415428
0
LINE
8
Layer 1
10
88.989810
20
14.415428
11
89.052051
21
14.707090
0
LINE
8
Layer 1
10
89.052051
20
14.707090
11
89.168815
21
18.027020
0
LINE
8
Layer 1
10
89.168815
20
18.027020
11
89.144542
21
18.677797
0
LINE
8
Layer 1
10
89.144542
20
18.677797
11
88.916367
21
19.089850
0
LINE
8
Layer 1
10
88.916367
20
19.089850
11
88.956200
21
15.990500
0
LINE
8
Layer 1
10
88.956200
20
15.990500
11
88.956200
21
15.990500
0
LINE
8
Layer 1
10
88.703600
20
0.994536
11
88.702104
21
1.154993
0
LINE
8
Layer 1
10
88.702104
20
1.154993
11
88.701856
21
1.109061
0
LINE
8
Layer 1
10
88.701856
20
1.109061
11
88.703600
21
0.994536
0
LINE
8
Layer 1
10
88.703600
20
0.994536
11
88.703600
21
0.994536
0
LINE
8
Layer 1
10
88.716400
20
0.049096
11
88.712415
21
0.429390
0
LINE
8
Layer 1
10
88.712415
20
0.429390
11
88.703579
21
0.994537
0
LINE
8
Layer 1
10
88.703579
20
0.994537
11
88.708433
21
0.485409
0
LINE
8
Layer 1
10
88.708433
20
0.485409
11
88.715554
21
0.087437
0
LINE
8
Layer 1
10
88.715554
20
0.087437
11
88.716400
21
0.049096
0
LINE
8
Layer 1
10
88.716400
20
0.049096
11
88.716400
21
0.049096
0
LINE
8
Layer 1
10
89.398100
20
27.550800
11
89.423991
21
27.408391
0
LINE
8
Layer 1
10
89.423991
20
27.408391
11
89.447133
21
27.612045
0
LINE
8
Layer 1
10
89.447133
20
27.612045
11
89.438048
21
27.821050
0
LINE
8
Layer 1
10
89.438048
20
27.821050
11
89.398100
21
27.550800
0
LINE
8
Layer 1
10
89.398100
20
27.550800
11
89.398100
21
27.550800
 0 
ENDSEC
 0 
EOF