999
"DXF R12 Output" (www.mydxf.blogspot.com)
 0 
SECTION
 2 
HEADER
 9 
$ACADVER
 1 
AC1009
 9 
$EXTMIN
 10 
 0 
 20 
 0 
 9 
$EXTMAX
 10 
 8.5 
 20 
 11 
 0 
ENDSEC
 0 
SECTION
 2 
ENTITIES
0
LINE
8
Layer 1
10
33.491900
20
8.775870
11
33.488973
21
8.072796
0
LINE
8
Layer 1
10
33.488973
20
8.072796
11
33.500302
21
7.911469
0
LINE
8
Layer 1
10
33.500302
20
7.911469
11
33.518166
21
8.071427
0
LINE
8
Layer 1
10
33.518166
20
8.071427
11
33.555634
21
9.893467
0
LINE
8
Layer 1
10
33.555634
20
9.893467
11
33.482257
21
10.476792
0
LINE
8
Layer 1
10
33.482257
20
10.476792
11
33.491900
21
8.775870
0
LINE
8
Layer 1
10
33.491900
20
8.775870
11
33.491900
21
8.775870
0
LINE
8
Layer 1
10
33.420000
20
0.543879
11
33.419625
21
0.633753
0
LINE
8
Layer 1
10
33.419625
20
0.633753
11
33.420000
21
0.543879
0
LINE
8
Layer 1
10
33.420000
20
0.543879
11
33.420000
21
0.543879
0
LINE
8
Layer 1
10
33.423000
20
0.026780
11
33.422128
21
0.235537
0
LINE
8
Layer 1
10
33.422128
20
0.235537
11
33.420014
21
0.543879
0
LINE
8
Layer 1
10
33.420014
20
0.543879
11
33.421197
21
0.266283
0
LINE
8
Layer 1
10
33.421197
20
0.266283
11
33.423000
21
0.026780
0
LINE
8
Layer 1
10
33.423000
20
0.026780
11
33.423000
21
0.026780
0
LINE
8
Layer 1
10
33.641300
20
15.120500
11
33.649329
21
15.042324
0
LINE
8
Layer 1
10
33.649329
20
15.042324
11
33.657172
21
15.154109
0
LINE
8
Layer 1
10
33.657172
20
15.154109
11
33.654683
21
15.268756
0
LINE
8
Layer 1
10
33.654683
20
15.268756
11
33.641300
21
15.120500
0
LINE
8
Layer 1
10
33.641300
20
15.120500
11
33.641300
21
15.120500
0
LINE
8
Layer 1
10
61.973700
20
42.850700
11
60.895870
21
44.112320
0
LINE
8
Layer 1
10
60.895870
20
44.112320
11
58.146250
21
47.408350
0
LINE
8
Layer 1
10
58.146250
20
47.408350
11
54.844990
21
51.492600
0
LINE
8
Layer 1
10
54.844990
20
51.492600
11
51.167360
21
56.246690
0
LINE
8
Layer 1
10
51.167360
20
56.246690
11
48.646910
21
59.498530
0
LINE
8
Layer 1
10
48.646910
20
59.498530
11
47.083100
21
61.487880
0
LINE
8
Layer 1
10
47.083100
20
61.487880
11
44.965350
21
64.106860
0
LINE
8
Layer 1
10
44.965350
20
64.106860
11
43.166590
21
66.161060
0
LINE
8
Layer 1
10
43.166590
20
66.161060
11
41.434610
21
68.130740
0
LINE
8
Layer 1
10
41.434610
20
68.130740
11
36.925750
21
72.603380
0
LINE
8
Layer 1
10
36.925750
20
72.603380
11
37.237888
21
80.184330
0
LINE
8
Layer 1
10
37.237888
20
80.184330
11
37.285691
21
87.718600
0
LINE
8
Layer 1
10
37.285691
20
87.718600
11
37.175026
21
94.962830
0
LINE
8
Layer 1
10
37.175026
20
94.962830
11
37.123927
21
102.215020
0
LINE
8
Layer 1
10
37.123927
20
102.215020
11
37.274797
21
106.766950
0
LINE
8
Layer 1
10
37.274797
20
106.766950
11
37.429572
21
110.030667
0
LINE
8
Layer 1
10
37.429572
20
110.030667
11
37.257931
21
113.293540
0
LINE
8
Layer 1
10
37.257931
20
113.293540
11
37.105002
21
114.114855
0
LINE
8
Layer 1
10
37.105002
20
114.114855
11
36.807899
21
114.888391
0
LINE
8
Layer 1
10
36.807899
20
114.888391
11
36.375827
21
115.595456
0
LINE
8
Layer 1
10
36.375827
20
115.595456
11
35.817991
21
116.217360
0
LINE
8
Layer 1
10
35.817991
20
116.217360
11
35.032013
21
116.732082
0
LINE
8
Layer 1
10
35.032013
20
116.732082
11
34.121882
21
116.913849
0
LINE
8
Layer 1
10
34.121882
20
116.913849
11
33.196336
21
116.684383
0
LINE
8
Layer 1
10
33.196336
20
116.684383
11
32.364111
21
115.965409
0
LINE
8
Layer 1
10
32.364111
20
115.965409
11
31.756885
21
114.906155
0
LINE
8
Layer 1
10
31.756885
20
114.906155
11
31.466908
21
113.720129
0
LINE
8
Layer 1
10
31.466908
20
113.720129
11
30.909802
21
107.919639
0
LINE
8
Layer 1
10
30.909802
20
107.919639
11
30.502372
21
100.836869
0
LINE
8
Layer 1
10
30.502372
20
100.836869
11
30.079942
21
92.755749
0
LINE
8
Layer 1
10
30.079942
20
92.755749
11
29.901682
21
87.223399
0
LINE
8
Layer 1
10
29.901682
20
87.223399
11
29.835583
21
83.817079
0
LINE
8
Layer 1
10
29.835583
20
83.817079
11
29.804338
21
79.274489
0
LINE
8
Layer 1
10
29.804338
20
79.274489
11
29.809599
21
78.962786
0
LINE
8
Layer 1
10
29.809599
20
78.962786
11
28.188069
21
80.443246
0
LINE
8
Layer 1
10
28.188069
20
80.443246
11
27.375979
21
81.102918
0
LINE
8
Layer 1
10
27.375979
20
81.102918
11
26.612989
21
81.815906
0
LINE
8
Layer 1
10
26.612989
20
81.815906
11
26.347593
21
81.984579
0
LINE
8
Layer 1
10
26.347593
20
81.984579
11
25.844834
21
82.277873
0
LINE
8
Layer 1
10
25.844834
20
82.277873
11
25.398046
21
82.638487
0
LINE
8
Layer 1
10
25.398046
20
82.638487
11
24.916051
21
83.032861
0
LINE
8
Layer 1
10
24.916051
20
83.032861
11
24.373186
21
83.363470
0
LINE
8
Layer 1
10
24.373186
20
83.363470
11
23.519583
21
83.860772
0
LINE
8
Layer 1
10
23.519583
20
83.860772
11
22.948556
21
84.666920
0
LINE
8
Layer 1
10
22.948556
20
84.666920
11
22.674883
21
84.962440
0
LINE
8
Layer 1
10
22.674883
20
84.962440
11
22.011272
21
85.477546
0
LINE
8
Layer 1
10
22.011272
20
85.477546
11
18.924922
21
87.832996
0
LINE
8
Layer 1
10
18.924922
20
87.832996
11
17.985769
21
88.507687
0
LINE
8
Layer 1
10
17.985769
20
88.507687
11
17.033419
21
89.157983
0
LINE
8
Layer 1
10
17.033419
20
89.157983
11
16.567677
21
89.504649
0
LINE
8
Layer 1
10
16.567677
20
89.504649
11
16.195905
21
89.906120
0
LINE
8
Layer 1
10
16.195905
20
89.906120
11
15.840446
21
90.132301
0
LINE
8
Layer 1
10
15.840446
20
90.132301
11
14.353196
21
91.110358
0
LINE
8
Layer 1
10
14.353196
20
91.110358
11
12.344186
21
92.630778
0
LINE
8
Layer 1
10
12.344186
20
92.630778
11
11.491500
21
93.242600
0
LINE
8
Layer 1
10
11.491500
20
93.242600
11
10.296500
21
94.056800
0
LINE
8
Layer 1
10
10.296500
20
94.056800
11
10.035462
21
94.233065
0
LINE
8
Layer 1
10
10.035462
20
94.233065
11
8.966102
21
94.908140
0
LINE
8
Layer 1
10
8.966102
20
94.908140
11
7.907300
21
95.582400
0
LINE
8
Layer 1
10
7.907300
20
95.582400
11
6.909329
21
96.334643
0
LINE
8
Layer 1
10
6.909329
20
96.334643
11
6.472895
21
96.622196
0
LINE
8
Layer 1
10
6.472895
20
96.622196
11
4.914815
21
97.666726
0
LINE
8
Layer 1
10
4.914815
20
97.666726
11
3.976709
21
98.335818
0
LINE
8
Layer 1
10
3.976709
20
98.335818
11
2.962619
21
99.066525
0
LINE
8
Layer 1
10
2.962619
20
99.066525
11
1.545149
21
100.126245
0
LINE
8
Layer 1
10
1.545149
20
100.126245
11
1.403984
21
100.222220
0
LINE
8
Layer 1
10
1.403984
20
100.222220
11
1.176555
21
100.343341
0
LINE
8
Layer 1
10
1.176555
20
100.343341
11
0.549477
21
100.868274
0
LINE
8
Layer 1
10
0.549477
20
100.868274
11
0.349997
21
101.023753
0
LINE
8
Layer 1
10
0.349997
20
101.023753
11
0.656843
21
100.731594
0
LINE
8
Layer 1
10
0.656843
20
100.731594
11
1.852373
21
99.608634
0
LINE
8
Layer 1
10
1.852373
20
99.608634
11
2.693558
21
98.836720
0
LINE
8
Layer 1
10
2.693558
20
98.836720
11
3.369621
21
98.213441
0
LINE
8
Layer 1
10
3.369621
20
98.213441
11
4.734191
21
97.013931
0
LINE
8
Layer 1
10
4.734191
20
97.013931
11
5.031577
21
96.662282
0
LINE
8
Layer 1
10
5.031577
20
96.662282
11
5.253155
21
96.380083
0
LINE
8
Layer 1
10
5.253155
20
96.380083
11
5.701479
21
95.979000
0
LINE
8
Layer 1
10
5.701479
20
95.979000
11
6.425028
21
95.249174
0
LINE
8
Layer 1
10
6.425028
20
95.249174
11
6.620890
21
95.023862
0
LINE
8
Layer 1
10
6.620890
20
95.023862
11
6.301718
21
95.025574
0
LINE
8
Layer 1
10
6.301718
20
95.025574
11
5.983480
21
95.055855
0
LINE
8
Layer 1
10
5.983480
20
95.055855
11
6.405848
21
94.529296
0
LINE
8
Layer 1
10
6.405848
20
94.529296
11
6.909050
21
93.928163
0
LINE
8
Layer 1
10
6.909050
20
93.928163
11
7.055755
21
94.107540
0
LINE
8
Layer 1
10
7.055755
20
94.107540
11
7.289153
21
93.963392
0
LINE
8
Layer 1
10
7.289153
20
93.963392
11
7.752070
21
93.413300
0
LINE
8
Layer 1
10
7.752070
20
93.413300
11
8.547696
21
92.476574
0
LINE
8
Layer 1
10
8.547696
20
92.476574
11
8.866494
21
92.225992
0
LINE
8
Layer 1
10
8.866494
20
92.225992
11
9.485823
21
91.548313
0
LINE
8
Layer 1
10
9.485823
20
91.548313
11
9.951664
21
90.757232
0
LINE
8
Layer 1
10
9.951664
20
90.757232
11
10.186203
21
90.249544
0
LINE
8
Layer 1
10
10.186203
20
90.249544
11
10.599716
21
89.873030
0
LINE
8
Layer 1
10
10.599716
20
89.873030
11
11.059862
21
89.333275
0
LINE
8
Layer 1
10
11.059862
20
89.333275
11
11.270361
21
89.044027
0
LINE
8
Layer 1
10
11.270361
20
89.044027
11
11.582190
21
88.868709
0
LINE
8
Layer 1
10
11.582190
20
88.868709
11
11.824082
21
88.812926
0
LINE
8
Layer 1
10
11.824082
20
88.812926
11
12.094121
21
88.625222
0
LINE
8
Layer 1
10
12.094121
20
88.625222
11
12.256198
21
88.233975
0
LINE
8
Layer 1
10
12.256198
20
88.233975
11
12.498813
21
87.786464
0
LINE
8
Layer 1
10
12.498813
20
87.786464
11
12.932236
21
87.261416
0
LINE
8
Layer 1
10
12.932236
20
87.261416
11
13.205869
21
86.637994
0
LINE
8
Layer 1
10
13.205869
20
86.637994
11
13.574773
21
86.152140
0
LINE
8
Layer 1
10
13.574773
20
86.152140
11
13.957753
21
85.812492
0
LINE
8
Layer 1
10
13.957753
20
85.812492
11
14.332929
21
85.461261
0
LINE
8
Layer 1
10
14.332929
20
85.461261
11
14.668017
21
85.075056
0
LINE
8
Layer 1
10
14.668017
20
85.075056
11
14.886688
21
84.590634
0
LINE
8
Layer 1
10
14.886688
20
84.590634
11
15.070609
21
84.335819
0
LINE
8
Layer 1
10
15.070609
20
84.335819
11
15.851041
21
83.501292
0
LINE
8
Layer 1
10
15.851041
20
83.501292
11
16.571489
21
82.610379
0
LINE
8
Layer 1
10
16.571489
20
82.610379
11
17.300238
21
81.717700
0
LINE
8
Layer 1
10
17.300238
20
81.717700
11
18.125339
21
80.920149
0
LINE
8
Layer 1
10
18.125339
20
80.920149
11
18.285111
21
80.649399
0
LINE
8
Layer 1
10
18.285111
20
80.649399
11
19.542011
21
79.102209
0
LINE
8
Layer 1
10
19.542011
20
79.102209
11
19.839335
21
78.808805
0
LINE
8
Layer 1
10
19.839335
20
78.808805
11
22.443065
21
75.508785
0
LINE
8
Layer 1
10
22.443065
20
75.508785
11
25.284865
21
72.137925
0
LINE
8
Layer 1
10
25.284865
20
72.137925
11
28.399585
21
68.741555
0
LINE
8
Layer 1
10
28.399585
20
68.741555
11
29.202247
21
67.916620
0
LINE
8
Layer 1
10
29.202247
20
67.916620
11
30.207407
21
66.786450
0
LINE
8
Layer 1
10
30.207407
20
66.786450
11
30.656140
21
57.785030
0
LINE
8
Layer 1
10
30.656140
20
57.785030
11
30.735123
21
56.790669
0
LINE
8
Layer 1
10
30.735123
20
56.790669
11
30.905167
21
54.516639
0
LINE
8
Layer 1
10
30.905167
20
54.516639
11
31.123384
21
50.395789
0
LINE
8
Layer 1
10
31.123384
20
50.395789
11
31.249046
21
47.409599
0
LINE
8
Layer 1
10
31.249046
20
47.409599
11
31.384795
21
44.568549
0
LINE
8
Layer 1
10
31.384795
20
44.568549
11
31.427430
21
44.148298
0
LINE
8
Layer 1
10
31.427430
20
44.148298
11
31.559753
21
42.597748
0
LINE
8
Layer 1
10
31.559753
20
42.597748
11
31.689775
21
40.906408
0
LINE
8
Layer 1
10
31.689775
20
40.906408
11
31.827843
21
39.595577
0
LINE
8
Layer 1
10
31.827843
20
39.595577
11
31.771055
21
38.278718
0
LINE
8
Layer 1
10
31.771055
20
38.278718
11
31.772051
21
37.731992
0
LINE
8
Layer 1
10
31.772051
20
37.731992
11
31.836036
21
36.593982
0
LINE
8
Layer 1
10
31.836036
20
36.593982
11
32.121286
21
31.339352
0
LINE
8
Layer 1
10
32.121286
20
31.339352
11
32.212656
21
29.779722
0
LINE
8
Layer 1
10
32.212656
20
29.779722
11
32.311182
21
28.229802
0
LINE
8
Layer 1
10
32.311182
20
28.229802
11
32.347470
21
26.702032
0
LINE
8
Layer 1
10
32.347470
20
26.702032
11
32.386807
21
26.138999
0
LINE
8
Layer 1
10
32.386807
20
26.138999
11
32.536433
21
23.753549
0
LINE
8
Layer 1
10
32.536433
20
23.753549
11
32.676040
21
20.345109
0
LINE
8
Layer 1
10
32.676040
20
20.345109
11
32.740211
21
18.929749
0
LINE
8
Layer 1
10
32.740211
20
18.929749
11
32.835884
21
16.986459
0
LINE
8
Layer 1
10
32.835884
20
16.986459
11
32.856425
21
16.563592
0
LINE
8
Layer 1
10
32.856425
20
16.563592
11
32.949276
21
14.874622
0
LINE
8
Layer 1
10
32.949276
20
14.874622
11
33.035667
21
13.196982
0
LINE
8
Layer 1
10
33.035667
20
13.196982
11
33.088321
21
11.506752
0
LINE
8
Layer 1
10
33.088321
20
11.506752
11
33.119131
21
10.806277
0
LINE
8
Layer 1
10
33.119131
20
10.806277
11
33.221270
21
8.288627
0
LINE
8
Layer 1
10
33.221270
20
8.288627
11
33.270811
21
6.735217
0
LINE
8
Layer 1
10
33.270811
20
6.735217
11
33.320169
21
5.049107
0
LINE
8
Layer 1
10
33.320169
20
5.049107
11
33.376932
21
2.656427
0
LINE
8
Layer 1
10
33.376932
20
2.656427
11
33.384092
21
2.427009
0
LINE
8
Layer 1
10
33.384092
20
2.427009
11
33.401457
21
2.088791
0
LINE
8
Layer 1
10
33.401457
20
2.088791
11
33.413903
21
0.977911
0
LINE
8
Layer 1
10
33.413903
20
0.977911
11
33.419568
21
0.636456
0
LINE
8
Layer 1
10
33.419568
20
0.636456
11
33.419943
21
1.211811
0
LINE
8
Layer 1
10
33.419943
20
1.211811
11
33.418509
21
3.444021
0
LINE
8
Layer 1
10
33.418509
20
3.444021
11
33.414027
21
4.997561
0
LINE
8
Layer 1
10
33.414027
20
4.997561
11
33.410731
21
6.248851
0
LINE
8
Layer 1
10
33.410731
20
6.248851
11
33.391436
21
8.719821
0
LINE
8
Layer 1
10
33.391436
20
8.719821
11
33.406063
21
9.342727
0
LINE
8
Layer 1
10
33.406063
20
9.342727
11
33.421436
21
9.825595
0
LINE
8
Layer 1
10
33.421436
20
9.825595
11
33.416582
21
10.644061
0
LINE
8
Layer 1
10
33.416582
20
10.644061
11
33.426725
21
12.041871
0
LINE
8
Layer 1
10
33.426725
20
12.041871
11
33.435688
21
12.446188
0
LINE
8
Layer 1
10
33.435688
20
12.446188
11
33.561229
21
11.785687
0
LINE
8
Layer 1
10
33.561229
20
11.785687
11
33.591991
21
12.695650
0
LINE
8
Layer 1
10
33.591991
20
12.695650
11
33.623671
21
13.755240
0
LINE
8
Layer 1
10
33.623671
20
13.755240
11
33.551159
21
13.732710
0
LINE
8
Layer 1
10
33.551159
20
13.732710
11
33.534480
21
14.098436
0
LINE
8
Layer 1
10
33.534480
20
14.098436
11
33.562420
21
15.070392
0
LINE
8
Layer 1
10
33.562420
20
15.070392
11
33.610398
21
16.732852
0
LINE
8
Layer 1
10
33.610398
20
16.732852
11
33.599956
21
17.282564
0
LINE
8
Layer 1
10
33.599956
20
17.282564
11
33.717902
21
19.728634
0
LINE
8
Layer 1
10
33.717902
20
19.728634
11
33.794085
21
21.196024
0
LINE
8
Layer 1
10
33.794085
20
21.196024
11
33.826946
21
22.155779
0
LINE
8
Layer 1
10
33.826946
20
22.155779
11
33.824954
21
23.106571
0
LINE
8
Layer 1
10
33.824954
20
23.106571
11
33.765639
21
23.840630
0
LINE
8
Layer 1
10
33.765639
20
23.840630
11
33.832300
21
24.366568
0
LINE
8
Layer 1
10
33.832300
20
24.366568
11
33.895473
21
25.024828
0
LINE
8
Layer 1
10
33.895473
20
25.024828
11
34.041926
21
26.797468
0
LINE
8
Layer 1
10
34.041926
20
26.797468
11
34.087984
21
27.616558
0
LINE
8
Layer 1
10
34.087984
20
27.616558
11
34.094831
21
29.012248
0
LINE
8
Layer 1
10
34.094831
20
29.012248
11
34.210102
21
30.373708
0
LINE
8
Layer 1
10
34.210102
20
30.373708
11
34.238982
21
30.793835
0
LINE
8
Layer 1
10
34.238982
20
30.793835
11
34.372552
21
33.891075
0
LINE
8
Layer 1
10
34.372552
20
33.891075
11
34.489674
21
37.007975
0
LINE
8
Layer 1
10
34.489674
20
37.007975
11
34.535298
21
37.419014
0
LINE
8
Layer 1
10
34.535298
20
37.419014
11
34.703220
21
40.108444
0
LINE
8
Layer 1
10
34.703220
20
40.108444
11
34.718530
21
40.676704
0
LINE
8
Layer 1
10
34.718530
20
40.676704
11
35.148741
21
46.336524
0
LINE
8
Layer 1
10
35.148741
20
46.336524
11
35.602167
21
52.298084
0
LINE
8
Layer 1
10
35.602167
20
52.298084
11
36.049057
21
58.553424
0
LINE
8
Layer 1
10
36.049057
20
58.553424
11
36.152438
21
60.118534
0
LINE
8
Layer 1
10
36.152438
20
60.118534
11
36.255697
21
61.225174
0
LINE
8
Layer 1
10
36.255697
20
61.225174
11
40.136357
21
58.020384
0
LINE
8
Layer 1
10
40.136357
20
58.020384
11
44.642357
21
54.728464
0
LINE
8
Layer 1
10
44.642357
20
54.728464
11
49.064647
21
51.658364
0
LINE
8
Layer 1
10
49.064647
20
51.658364
11
53.460537
21
48.551914
0
LINE
8
Layer 1
10
53.460537
20
48.551914
11
56.186317
21
46.566674
0
LINE
8
Layer 1
10
56.186317
20
46.566674
11
60.197057
21
43.828814
0
LINE
8
Layer 1
10
60.197057
20
43.828814
11
62.041627
21
42.652954
0
LINE
8
Layer 1
10
62.041627
20
42.652954
11
62.454691
21
42.345007
0
LINE
8
Layer 1
10
62.454691
20
42.345007
11
61.973700
21
42.850700
0
LINE
8
Layer 1
10
61.973700
20
42.850700
11
61.973700
21
42.850700
0
LINE
8
Layer 1
10
5.216990
20
97.168400
11
5.150453
21
97.273104
0
LINE
8
Layer 1
10
5.150453
20
97.273104
11
5.223961
21
97.238622
0
LINE
8
Layer 1
10
5.223961
20
97.238622
11
5.508525
21
96.979824
0
LINE
8
Layer 1
10
5.508525
20
96.979824
11
5.216990
21
97.168400
0
LINE
8
Layer 1
10
5.216990
20
97.168400
11
5.216990
21
97.168400
0
LINE
8
Layer 1
10
9.426660
20
92.326000
11
9.286305
21
92.465917
0
LINE
8
Layer 1
10
9.286305
20
92.465917
11
9.330123
21
92.488074
0
LINE
8
Layer 1
10
9.330123
20
92.488074
11
9.469419
21
92.343176
0
LINE
8
Layer 1
10
9.469419
20
92.343176
11
9.426660
21
92.326000
0
LINE
8
Layer 1
10
9.426660
20
92.326000
11
9.426660
21
92.326000
0
LINE
8
Layer 1
10
11.850880
20
89.889140
11
11.691543
21
89.833260
0
LINE
8
Layer 1
10
11.691543
20
89.833260
11
11.435818
21
89.873932
0
LINE
8
Layer 1
10
11.435818
20
89.873932
11
11.270792
21
90.031309
0
LINE
8
Layer 1
10
11.270792
20
90.031309
11
10.956538
21
90.750318
0
LINE
8
Layer 1
10
10.956538
20
90.750318
11
10.985042
21
90.821156
0
LINE
8
Layer 1
10
10.985042
20
90.821156
11
11.149481
21
90.796885
0
LINE
8
Layer 1
10
11.149481
20
90.796885
11
11.233818
21
90.720205
0
LINE
8
Layer 1
10
11.233818
20
90.720205
11
11.702369
21
90.207213
0
LINE
8
Layer 1
10
11.702369
20
90.207213
11
11.868184
21
90.029602
0
LINE
8
Layer 1
10
11.868184
20
90.029602
11
11.850900
21
89.889200
0
LINE
8
Layer 1
10
11.850900
20
89.889200
11
11.850880
21
89.889140
0
LINE
8
Layer 1
10
13.712630
20
87.259210
11
13.553107
21
87.202819
0
LINE
8
Layer 1
10
13.553107
20
87.202819
11
13.070925
21
87.626680
0
LINE
8
Layer 1
10
13.070925
20
87.626680
11
12.737437
21
88.103071
0
LINE
8
Layer 1
10
12.737437
20
88.103071
11
12.800799
21
88.253072
0
LINE
8
Layer 1
10
12.800799
20
88.253072
11
12.892978
21
88.240748
0
LINE
8
Layer 1
10
12.892978
20
88.240748
11
13.718477
21
87.346347
0
LINE
8
Layer 1
10
13.718477
20
87.346347
11
13.712600
21
87.259200
0
LINE
8
Layer 1
10
13.712600
20
87.259200
11
13.712630
21
87.259210
0
LINE
8
Layer 1
10
33.254730
20
8.889610
11
33.247011
21
8.994424
0
LINE
8
Layer 1
10
33.247011
20
8.994424
11
33.243277
21
9.517870
0
LINE
8
Layer 1
10
33.243277
20
9.517870
11
33.263008
21
9.053180
0
LINE
8
Layer 1
10
33.263008
20
9.053180
11
33.254700
21
8.889650
0
LINE
8
Layer 1
10
33.254700
20
8.889650
11
33.254730
21
8.889610
0
LINE
8
Layer 1
10
33.446494
20
17.473640
11
33.434418
21
17.769409
0
LINE
8
Layer 1
10
33.434418
20
17.769409
11
33.446500
21
17.473700
0
LINE
8
Layer 1
10
33.446500
20
17.473700
11
33.446494
21
17.473640
0
LINE
8
Layer 1
10
33.592685
20
21.712130
11
33.482768
21
20.729219
0
LINE
8
Layer 1
10
33.482768
20
20.729219
11
33.457932
21
20.691252
0
LINE
8
Layer 1
10
33.457932
20
20.691252
11
33.424630
21
20.876607
0
LINE
8
Layer 1
10
33.424630
20
20.876607
11
33.423882
21
21.031711
0
LINE
8
Layer 1
10
33.423882
20
21.031711
11
33.442182
21
21.974663
0
LINE
8
Layer 1
10
33.442182
20
21.974663
11
33.488675
21
22.418816
0
LINE
8
Layer 1
10
33.488675
20
22.418816
11
33.542266
21
22.313378
0
LINE
8
Layer 1
10
33.542266
20
22.313378
11
33.592700
21
21.712200
0
LINE
8
Layer 1
10
33.592700
20
21.712200
11
33.592685
21
21.712130
0
LINE
8
Layer 1
10
33.796088
20
25.740000
11
33.748226
21
24.964976
0
LINE
8
Layer 1
10
33.748226
20
24.964976
11
33.691025
21
24.887548
0
LINE
8
Layer 1
10
33.691025
20
24.887548
11
33.671171
21
24.990246
0
LINE
8
Layer 1
10
33.671171
20
24.990246
11
33.709271
21
26.642746
0
LINE
8
Layer 1
10
33.709271
20
26.642746
11
33.735351
21
26.718306
0
LINE
8
Layer 1
10
33.735351
20
26.718306
11
33.792360
21
26.613370
0
LINE
8
Layer 1
10
33.792360
20
26.613370
11
33.796100
21
25.740000
0
LINE
8
Layer 1
10
33.796100
20
25.740000
11
33.796088
21
25.740000
0
LINE
8
Layer 1
10
4.524120
20
96.731600
11
4.153413
21
97.091478
0
LINE
8
Layer 1
10
4.153413
20
97.091478
11
4.039263
21
97.143387
0
LINE
8
Layer 1
10
4.039263
20
97.143387
11
4.082022
21
97.017412
0
LINE
8
Layer 1
10
4.082022
20
97.017412
11
4.975181
21
96.013092
0
LINE
8
Layer 1
10
4.975181
20
96.013092
11
5.182681
21
95.850582
0
LINE
8
Layer 1
10
5.182681
20
95.850582
11
5.460163
21
95.902427
0
LINE
8
Layer 1
10
5.460163
20
95.902427
11
4.524120
21
96.731600
0
LINE
8
Layer 1
10
4.524120
20
96.731600
11
4.524120
21
96.731600
0
LINE
8
Layer 1
10
0.300885
20
101.068000
11
0.349060
21
101.024555
0
LINE
8
Layer 1
10
0.349060
20
101.024555
11
0.300885
21
101.068000
0
LINE
8
Layer 1
10
0.300885
20
101.068000
11
0.300885
21
101.068000
0
LINE
8
Layer 1
10
0.015011
20
101.320000
11
0.129223
21
101.217678
0
LINE
8
Layer 1
10
0.129223
20
101.217678
11
0.300885
21
101.067677
0
LINE
8
Layer 1
10
0.300885
20
101.067677
11
0.148395
21
101.204981
0
LINE
8
Layer 1
10
0.148395
20
101.204981
11
0.015011
21
101.320000
0
LINE
8
Layer 1
10
0.015011
20
101.320000
11
0.015011
21
101.320000
0
LINE
8
Layer 1
10
7.550470
20
93.229900
11
7.594214
21
93.156582
0
LINE
8
Layer 1
10
7.594214
20
93.156582
11
7.661744
21
93.105420
0
LINE
8
Layer 1
10
7.661744
20
93.105420
11
7.609962
21
93.209362
0
LINE
8
Layer 1
10
7.609962
20
93.209362
11
7.550470
21
93.229900
0
LINE
8
Layer 1
10
7.550470
20
93.229900
11
7.550470
21
93.229900
 0 
ENDSEC
 0 
EOF