999
"DXF R12 Output" (www.mydxf.blogspot.com)
 0 
SECTION
 2 
HEADER
 9 
$ACADVER
 1 
AC1009
 9 
$EXTMIN
 10 
 0 
 20 
 0 
 9 
$EXTMAX
 10 
 8.5 
 20 
 11 
 0 
ENDSEC
 0 
SECTION
 2 
ENTITIES
0
LINE
8
Layer 1
10
78.101800
20
83.299400
11
77.903875
21
83.538030
0
LINE
8
Layer 1
10
77.903875
20
83.538030
11
77.111359
21
84.493306
0
LINE
8
Layer 1
10
77.111359
20
84.493306
11
75.511399
21
86.411326
0
LINE
8
Layer 1
10
75.511399
20
86.411326
11
73.898979
21
88.327106
0
LINE
8
Layer 1
10
73.898979
20
88.327106
11
73.084433
21
89.320223
0
LINE
8
Layer 1
10
73.084433
20
89.320223
11
66.823053
21
96.952083
0
LINE
8
Layer 1
10
66.823053
20
96.952083
11
60.438063
21
104.495693
0
LINE
8
Layer 1
10
60.438063
20
104.495693
11
54.025500
21
112.016000
0
LINE
8
Layer 1
10
54.025500
20
112.016000
11
47.589700
21
119.515000
0
LINE
8
Layer 1
10
47.589700
20
119.515000
11
43.177100
21
124.632000
0
LINE
8
Layer 1
10
43.177100
20
124.632000
11
39.948600
21
128.414880
0
LINE
8
Layer 1
10
39.948600
20
128.414880
11
39.141708
21
129.364803
0
LINE
8
Layer 1
10
39.141708
20
129.364803
11
38.939900
21
129.602000
0
LINE
8
Layer 1
10
38.939900
20
129.602000
11
38.839008
21
129.720756
0
LINE
8
Layer 1
10
38.839008
20
129.720756
11
38.788592
21
129.780133
0
LINE
8
Layer 1
10
38.788592
20
129.780133
11
38.763400
21
129.808000
0
LINE
8
Layer 1
10
38.763400
20
129.808000
11
38.738192
21
129.778248
0
LINE
8
Layer 1
10
38.738192
20
129.778248
11
38.334800
21
129.302000
0
LINE
8
Layer 1
10
38.334800
20
129.302000
11
36.721390
21
127.398410
0
LINE
8
Layer 1
10
36.721390
20
127.398410
11
33.149400
21
123.149000
0
LINE
8
Layer 1
10
33.149400
20
123.149000
11
32.136360
21
121.950240
0
LINE
8
Layer 1
10
32.136360
20
121.950240
11
31.584534
21
121.285133
0
LINE
8
Layer 1
10
31.584534
20
121.285133
11
30.578844
21
120.068193
0
LINE
8
Layer 1
10
30.578844
20
120.068193
11
28.555400
21
117.643000
0
LINE
8
Layer 1
10
28.555400
20
117.643000
11
21.159200
21
108.912000
0
LINE
8
Layer 1
10
21.159200
20
108.912000
11
15.771300
21
102.608980
0
LINE
8
Layer 1
10
15.771300
20
102.608980
11
13.255754
21
99.571841
0
LINE
8
Layer 1
10
13.255754
20
99.571841
11
10.681670
21
96.580820
0
LINE
8
Layer 1
10
10.681670
20
96.580820
11
9.965340
21
95.657785
0
LINE
8
Layer 1
10
9.965340
20
95.657785
11
8.666893
21
93.948650
0
LINE
8
Layer 1
10
8.666893
20
93.948650
11
7.287170
21
92.282085
0
LINE
8
Layer 1
10
7.287170
20
92.282085
11
5.786618
21
90.476363
0
LINE
8
Layer 1
10
5.786618
20
90.476363
11
4.352630
21
88.610985
0
LINE
8
Layer 1
10
4.352630
20
88.610985
11
4.091840
21
88.235175
0
LINE
8
Layer 1
10
4.091840
20
88.235175
11
3.959890
21
88.048327
0
LINE
8
Layer 1
10
3.959890
20
88.048327
11
3.923043
21
87.997527
0
LINE
8
Layer 1
10
3.923043
20
87.997527
11
3.857813
21
87.913874
0
LINE
8
Layer 1
10
3.857813
20
87.913874
11
3.727232
21
87.746945
0
LINE
8
Layer 1
10
3.727232
20
87.746945
11
2.681082
21
86.428685
0
LINE
8
Layer 1
10
2.681082
20
86.428685
11
0.574110
21
83.862800
0
LINE
8
Layer 1
10
0.574110
20
83.862800
11
0.034109
21
83.227500
0
LINE
8
Layer 1
10
0.034109
20
83.227500
11
0.000000
21
83.187800
0
LINE
8
Layer 1
10
0.000000
20
83.187800
11
0.030872
21
83.147592
0
LINE
8
Layer 1
10
0.030872
20
83.147592
11
0.092862
21
83.067178
0
LINE
8
Layer 1
10
0.092862
20
83.067178
11
0.216599
21
82.906221
0
LINE
8
Layer 1
10
0.216599
20
82.906221
11
0.462575
21
82.583923
0
LINE
8
Layer 1
10
0.462575
20
82.583923
11
1.429798
21
81.286323
0
LINE
8
Layer 1
10
1.429798
20
81.286323
11
1.905200
21
80.629400
0
LINE
8
Layer 1
10
1.905200
20
80.629400
11
2.423791
21
79.967778
0
LINE
8
Layer 1
10
2.423791
20
79.967778
11
3.463591
21
78.614288
0
LINE
8
Layer 1
10
3.463591
20
78.614288
11
3.882973
21
78.082624
0
LINE
8
Layer 1
10
3.882973
20
78.082624
11
4.173264
21
77.730465
0
LINE
8
Layer 1
10
4.173264
20
77.730465
11
4.690738
21
77.142165
0
LINE
8
Layer 1
10
4.690738
20
77.142165
11
6.809418
21
74.796425
0
LINE
8
Layer 1
10
6.809418
20
74.796425
11
16.616918
21
63.985825
0
LINE
8
Layer 1
10
16.616918
20
63.985825
11
19.553388
21
60.798975
0
LINE
8
Layer 1
10
19.553388
20
60.798975
11
22.492658
21
57.650085
0
LINE
8
Layer 1
10
22.492658
20
57.650085
11
23.962750
21
56.040096
0
LINE
8
Layer 1
10
23.962750
20
56.040096
11
25.277998
21
54.450275
0
LINE
8
Layer 1
10
25.277998
20
54.450275
11
26.356258
21
53.315375
0
LINE
8
Layer 1
10
26.356258
20
53.315375
11
30.903698
21
48.489465
0
LINE
8
Layer 1
10
30.903698
20
48.489465
11
35.601708
21
43.307775
0
LINE
8
Layer 1
10
35.601708
20
43.307775
11
26.424200
21
31.902600
0
LINE
8
Layer 1
10
26.424200
20
31.902600
11
18.457700
21
22.080200
0
LINE
8
Layer 1
10
18.457700
20
22.080200
11
7.148300
21
7.899000
0
LINE
8
Layer 1
10
7.148300
20
7.899000
11
2.134540
21
1.500250
0
LINE
8
Layer 1
10
2.134540
20
1.500250
11
0.911149
21
0.001207
0
LINE
8
Layer 1
10
0.911149
20
0.001207
11
2.666449
21
1.964567
0
LINE
8
Layer 1
10
2.666449
20
1.964567
11
6.889379
21
6.554967
0
LINE
8
Layer 1
10
6.889379
20
6.554967
11
17.836279
21
18.379967
0
LINE
8
Layer 1
10
17.836279
20
18.379967
11
31.265279
21
32.765567
0
LINE
8
Layer 1
10
31.265279
20
32.765567
11
38.359600
21
40.278100
0
LINE
8
Layer 1
10
38.359600
20
40.278100
11
39.938530
21
38.592110
0
LINE
8
Layer 1
10
39.938530
20
38.592110
11
43.624810
21
34.644910
0
LINE
8
Layer 1
10
43.624810
20
34.644910
11
44.428014
21
33.786856
0
LINE
8
Layer 1
10
44.428014
20
33.786856
11
47.665854
21
30.385636
0
LINE
8
Layer 1
10
47.665854
20
30.385636
11
50.878294
21
27.003836
0
LINE
8
Layer 1
10
50.878294
20
27.003836
11
54.038824
21
23.531166
0
LINE
8
Layer 1
10
54.038824
20
23.531166
11
55.373834
21
22.113936
0
LINE
8
Layer 1
10
55.373834
20
22.113936
11
60.160724
21
17.009666
0
LINE
8
Layer 1
10
60.160724
20
17.009666
11
63.089414
21
13.838736
0
LINE
8
Layer 1
10
63.089414
20
13.838736
11
66.262394
21
10.392206
0
LINE
8
Layer 1
10
66.262394
20
10.392206
11
70.740824
21
5.480396
0
LINE
8
Layer 1
10
70.740824
20
5.480396
11
71.176010
21
5.014586
0
LINE
8
Layer 1
10
71.176010
20
5.014586
11
71.839187
21
4.346002
0
LINE
8
Layer 1
10
71.839187
20
4.346002
11
73.884427
21
2.036492
0
LINE
8
Layer 1
10
73.884427
20
2.036492
11
74.522582
21
1.329184
0
LINE
8
Layer 1
10
74.522582
20
1.329184
11
73.481042
21
2.546124
0
LINE
8
Layer 1
10
73.481042
20
2.546124
11
69.442472
21
7.248184
0
LINE
8
Layer 1
10
69.442472
20
7.248184
11
66.621832
21
10.512104
0
LINE
8
Layer 1
10
66.621832
20
10.512104
11
64.351472
21
13.142164
0
LINE
8
Layer 1
10
64.351472
20
13.142164
11
62.131206
21
15.779644
0
LINE
8
Layer 1
10
62.131206
20
15.779644
11
59.835272
21
18.308164
0
LINE
8
Layer 1
10
59.835272
20
18.308164
11
58.748542
21
19.654434
0
LINE
8
Layer 1
10
58.748542
20
19.654434
11
57.915759
21
20.706804
0
LINE
8
Layer 1
10
57.915759
20
20.706804
11
56.424089
21
22.421174
0
LINE
8
Layer 1
10
56.424089
20
22.421174
11
53.922759
21
25.389584
0
LINE
8
Layer 1
10
53.922759
20
25.389584
11
53.214145
21
26.260956
0
LINE
8
Layer 1
10
53.214145
20
26.260956
11
53.953304
21
25.733699
0
LINE
8
Layer 1
10
53.953304
20
25.733699
11
54.722805
21
25.138376
0
LINE
8
Layer 1
10
54.722805
20
25.138376
11
53.148285
21
27.116766
0
LINE
8
Layer 1
10
53.148285
20
27.116766
11
51.302345
21
29.409726
0
LINE
8
Layer 1
10
51.302345
20
29.409726
11
51.273550
21
29.258884
0
LINE
8
Layer 1
10
51.273550
20
29.258884
11
51.167592
21
29.211674
0
LINE
8
Layer 1
10
51.167592
20
29.211674
11
50.464394
21
29.946493
0
LINE
8
Layer 1
10
50.464394
20
29.946493
11
48.769694
21
32.048373
0
LINE
8
Layer 1
10
48.769694
20
32.048373
11
45.866644
21
35.640303
0
LINE
8
Layer 1
10
45.866644
20
35.640303
11
44.845214
21
36.774953
0
LINE
8
Layer 1
10
44.845214
20
36.774953
11
42.680311
21
39.398390
0
LINE
8
Layer 1
10
42.680311
20
39.398390
11
40.668344
21
42.140873
0
LINE
8
Layer 1
10
40.668344
20
42.140873
11
40.444962
21
42.486434
0
LINE
8
Layer 1
10
40.444962
20
42.486434
11
46.684872
21
49.094064
0
LINE
8
Layer 1
10
46.684872
20
49.094064
11
57.238372
21
60.275164
0
LINE
8
Layer 1
10
57.238372
20
60.275164
11
63.722822
21
67.170844
0
LINE
8
Layer 1
10
63.722822
20
67.170844
11
72.335172
21
76.397574
0
LINE
8
Layer 1
10
72.335172
20
76.397574
11
73.205861
21
77.340774
0
LINE
8
Layer 1
10
73.205861
20
77.340774
11
73.640551
21
77.813307
0
LINE
8
Layer 1
10
73.640551
20
77.813307
11
74.485100
21
78.758375
0
LINE
8
Layer 1
10
74.485100
20
78.758375
11
75.333008
21
79.707922
0
LINE
8
Layer 1
10
75.333008
20
79.707922
11
75.757306
21
80.183568
0
LINE
8
Layer 1
10
75.757306
20
80.183568
11
76.163988
21
80.660707
0
LINE
8
Layer 1
10
76.163988
20
80.660707
11
77.706818
21
82.579477
0
LINE
8
Layer 1
10
77.706818
20
82.579477
11
78.093025
21
83.059977
0
LINE
8
Layer 1
10
78.093025
20
83.059977
11
78.189621
21
83.180226
0
LINE
8
Layer 1
10
78.189621
20
83.180226
11
78.101800
21
83.299400
0
LINE
8
Layer 1
10
78.101800
20
83.299400
11
78.101800
21
83.299400
0
LINE
8
Layer 1
10
58.895900
20
18.721900
11
59.168701
21
18.357043
0
LINE
8
Layer 1
10
59.168701
20
18.357043
11
58.959758
21
18.561566
0
LINE
8
Layer 1
10
58.959758
20
18.561566
11
58.008032
21
19.660116
0
LINE
8
Layer 1
10
58.008032
20
19.660116
11
58.895900
21
18.721900
0
LINE
8
Layer 1
10
58.895900
20
18.721900
11
58.895900
21
18.721900
0
LINE
8
Layer 1
10
43.665400
20
37.448000
11
44.148564
21
36.876379
0
LINE
8
Layer 1
10
44.148564
20
36.876379
11
44.072694
21
36.893806
0
LINE
8
Layer 1
10
44.072694
20
36.893806
11
43.586030
21
37.476256
0
LINE
8
Layer 1
10
43.586030
20
37.476256
11
43.665400
21
37.448000
0
LINE
8
Layer 1
10
43.665400
20
37.448000
11
43.665400
21
37.448000
0
LINE
8
Layer 1
10
31.239700
20
52.925800
11
31.012706
21
53.107046
0
LINE
8
Layer 1
10
31.012706
20
53.107046
11
28.088886
21
56.644446
0
LINE
8
Layer 1
10
28.088886
20
56.644446
11
28.003305
21
56.847477
0
LINE
8
Layer 1
10
28.003305
20
56.847477
11
28.307540
21
56.724115
0
LINE
8
Layer 1
10
28.307540
20
56.724115
11
29.903460
21
54.898465
0
LINE
8
Layer 1
10
29.903460
20
54.898465
11
31.215440
21
53.188585
0
LINE
8
Layer 1
10
31.215440
20
53.188585
11
31.239700
21
52.925800
0
LINE
8
Layer 1
10
31.239700
20
52.925800
11
31.239700
21
52.925800
0
LINE
8
Layer 1
10
37.063960
20
45.124900
11
35.999390
21
46.352420
0
LINE
8
Layer 1
10
35.999390
20
46.352420
11
35.414239
21
47.058171
0
LINE
8
Layer 1
10
35.414239
20
47.058171
11
35.294450
21
47.372930
0
LINE
8
Layer 1
10
35.294450
20
47.372930
11
35.598993
21
47.248188
0
LINE
8
Layer 1
10
35.598993
20
47.248188
11
36.250465
21
46.715768
0
LINE
8
Layer 1
10
36.250465
20
46.715768
11
36.795953
21
46.075198
0
LINE
8
Layer 1
10
36.795953
20
46.075198
11
37.251742
21
45.358182
0
LINE
8
Layer 1
10
37.251742
20
45.358182
11
37.063900
21
45.124900
0
LINE
8
Layer 1
10
37.063900
20
45.124900
11
37.063960
21
45.124900
0
LINE
8
Layer 1
10
67.680900
20
82.988500
11
67.659169
21
82.962361
0
LINE
8
Layer 1
10
67.659169
20
82.962361
11
67.615724
21
82.910203
0
LINE
8
Layer 1
10
67.615724
20
82.910203
11
64.835044
21
79.567363
0
LINE
8
Layer 1
10
64.835044
20
79.567363
11
51.643044
21
63.314863
0
LINE
8
Layer 1
10
51.643044
20
63.314863
11
39.057544
21
47.602363
0
LINE
8
Layer 1
10
39.057544
20
47.602363
11
37.676544
21
45.886253
0
LINE
8
Layer 1
10
37.676544
20
45.886253
11
36.489174
21
47.434933
0
LINE
8
Layer 1
10
36.489174
20
47.434933
11
35.679351
21
48.480281
0
LINE
8
Layer 1
10
35.679351
20
48.480281
11
34.754524
21
49.425403
0
LINE
8
Layer 1
10
34.754524
20
49.425403
11
33.295034
21
50.859183
0
LINE
8
Layer 1
10
33.295034
20
50.859183
11
32.475744
21
52.080353
0
LINE
8
Layer 1
10
32.475744
20
52.080353
11
31.406384
21
53.571023
0
LINE
8
Layer 1
10
31.406384
20
53.571023
11
29.858891
21
55.495199
0
LINE
8
Layer 1
10
29.858891
20
55.495199
11
28.467200
21
57.534900
0
LINE
8
Layer 1
10
28.467200
20
57.534900
11
27.062480
21
59.326320
0
LINE
8
Layer 1
10
27.062480
20
59.326320
11
25.791587
21
60.783631
0
LINE
8
Layer 1
10
25.791587
20
60.783631
11
24.525600
21
62.256250
0
LINE
8
Layer 1
10
24.525600
20
62.256250
11
23.312424
21
63.748650
0
LINE
8
Layer 1
10
23.312424
20
63.748650
11
22.256420
21
65.290250
0
LINE
8
Layer 1
10
22.256420
20
65.290250
11
21.541707
21
66.214030
0
LINE
8
Layer 1
10
21.541707
20
66.214030
11
18.790000
21
69.531377
0
LINE
8
Layer 1
10
18.790000
20
69.531377
11
16.112737
21
72.888130
0
LINE
8
Layer 1
10
16.112737
20
72.888130
11
13.414182
21
76.262867
0
LINE
8
Layer 1
10
13.414182
20
76.262867
11
10.601297
21
79.563100
0
LINE
8
Layer 1
10
10.601297
20
79.563100
11
9.924427
21
80.486132
0
LINE
8
Layer 1
10
9.924427
20
80.486132
11
8.795817
21
81.963112
0
LINE
8
Layer 1
10
8.795817
20
81.963112
11
8.731670
21
82.045900
0
LINE
8
Layer 1
10
8.731670
20
82.045900
11
8.704294
21
82.078389
0
LINE
8
Layer 1
10
8.704294
20
82.078389
11
8.649826
21
82.142375
0
LINE
8
Layer 1
10
8.649826
20
82.142375
11
8.541837
21
82.267603
0
LINE
8
Layer 1
10
8.541837
20
82.267603
11
8.327853
21
82.507356
0
LINE
8
Layer 1
10
8.327853
20
82.507356
11
8.152271
21
82.759183
0
LINE
8
Layer 1
10
8.152271
20
82.759183
11
8.063015
21
82.882170
0
LINE
8
Layer 1
10
8.063015
20
82.882170
11
8.017704
21
82.943291
0
LINE
8
Layer 1
10
8.017704
20
82.943291
11
7.994861
21
82.973666
0
LINE
8
Layer 1
10
7.994861
20
82.973666
11
7.990194
21
83.003791
0
LINE
8
Layer 1
10
7.990194
20
83.003791
11
8.418536
21
83.480433
0
LINE
8
Layer 1
10
8.418536
20
83.480433
11
8.581420
21
83.687197
0
LINE
8
Layer 1
10
8.581420
20
83.687197
11
8.667562
21
83.788899
0
LINE
8
Layer 1
10
8.667562
20
83.788899
11
8.801008
21
83.932302
0
LINE
8
Layer 1
10
8.801008
20
83.932302
11
19.526708
21
95.435602
0
LINE
8
Layer 1
10
19.526708
20
95.435602
11
30.716508
21
107.644402
0
LINE
8
Layer 1
10
30.716508
20
107.644402
11
36.526698
21
114.099792
0
LINE
8
Layer 1
10
36.526698
20
114.099792
11
37.973488
21
115.719672
0
LINE
8
Layer 1
10
37.973488
20
115.719672
11
38.496809
21
116.304862
0
LINE
8
Layer 1
10
38.496809
20
116.304862
11
38.560481
21
116.373078
0
LINE
8
Layer 1
10
38.560481
20
116.373078
11
38.680857
21
116.481130
0
LINE
8
Layer 1
10
38.680857
20
116.481130
11
38.738493
21
116.519842
0
LINE
8
Layer 1
10
38.738493
20
116.519842
11
38.790650
21
116.491834
0
LINE
8
Layer 1
10
38.790650
20
116.491834
11
38.884509
21
116.358264
0
LINE
8
Layer 1
10
38.884509
20
116.358264
11
38.935049
21
116.204281
0
LINE
8
Layer 1
10
38.935049
20
116.204281
11
38.968845
21
116.143533
0
LINE
8
Layer 1
10
38.968845
20
116.143533
11
39.174613
21
115.889965
0
LINE
8
Layer 1
10
39.174613
20
115.889965
11
39.586835
21
115.383072
0
LINE
8
Layer 1
10
39.586835
20
115.383072
11
40.414081
21
114.371282
0
LINE
8
Layer 1
10
40.414081
20
114.371282
11
42.080151
21
112.355792
0
LINE
8
Layer 1
10
42.080151
20
112.355792
11
45.455171
21
108.355562
0
LINE
8
Layer 1
10
45.455171
20
108.355562
11
52.303731
21
100.430292
0
LINE
8
Layer 1
10
52.303731
20
100.430292
11
63.789000
21
87.368900
0
LINE
8
Layer 1
10
63.789000
20
87.368900
11
66.676790
21
84.117680
0
LINE
8
Layer 1
10
66.676790
20
84.117680
11
67.400342
21
83.306433
0
LINE
8
Layer 1
10
67.400342
20
83.306433
11
67.682666
21
82.990248
0
LINE
8
Layer 1
10
67.682666
20
82.990248
11
67.680900
21
82.988500
0
LINE
8
Layer 1
10
67.761251
20
82.955141
11
67.769842
21
82.951904
0
LINE
8
Layer 1
10
67.769842
20
82.951904
11
67.761300
21
82.955100
0
LINE
8
Layer 1
10
67.761300
20
82.955100
11
67.761251
21
82.955141
0
LINE
8
Layer 1
10
56.894400
20
22.212900
11
59.999540
21
18.653590
0
LINE
8
Layer 1
10
59.999540
20
18.653590
11
61.264780
21
17.167150
0
LINE
8
Layer 1
10
61.264780
20
17.167150
11
61.587360
21
16.853206
0
LINE
8
Layer 1
10
61.587360
20
16.853206
11
61.345304
21
17.231135
0
LINE
8
Layer 1
10
61.345304
20
17.231135
11
58.140514
21
21.147715
0
LINE
8
Layer 1
10
58.140514
20
21.147715
11
57.476389
21
21.884752
0
LINE
8
Layer 1
10
57.476389
20
21.884752
11
56.894400
21
22.212900
0
LINE
8
Layer 1
10
56.894400
20
22.212900
11
56.894400
21
22.212900
0
LINE
8
Layer 1
10
74.685300
20
1.142080
11
74.524967
21
1.326687
0
LINE
8
Layer 1
10
74.524967
20
1.326687
11
74.570281
21
1.273409
0
LINE
8
Layer 1
10
74.570281
20
1.273409
11
74.685300
21
1.142080
0
LINE
8
Layer 1
10
74.685300
20
1.142080
11
74.685300
21
1.142080
0
LINE
8
Layer 1
10
75.633000
20
0.056718
11
75.252709
21
0.494024
0
LINE
8
Layer 1
10
75.252709
20
0.494024
11
74.685319
21
1.142076
0
LINE
8
Layer 1
10
74.685319
20
1.142076
11
75.194140
21
0.556265
0
LINE
8
Layer 1
10
75.194140
20
0.556265
11
75.594268
21
0.100490
0
LINE
8
Layer 1
10
75.594268
20
0.100490
11
75.679918
21
0.003150
0
LINE
8
Layer 1
10
75.679918
20
0.003150
11
75.633000
21
0.056718
0
LINE
8
Layer 1
10
75.633000
20
0.056718
11
75.633000
21
0.056718
0
LINE
8
Layer 1
10
48.866000
20
32.313800
11
49.026954
21
32.166040
0
LINE
8
Layer 1
10
49.026954
20
32.166040
11
48.842536
21
32.416746
0
LINE
8
Layer 1
10
48.842536
20
32.416746
11
48.628239
21
32.652401
0
LINE
8
Layer 1
10
48.628239
20
32.652401
11
48.866000
21
32.313800
0
LINE
8
Layer 1
10
48.866000
20
32.313800
11
48.866000
21
32.313800
 0 
ENDSEC
 0 
EOF