999
"DXF R12 Output" (www.mydxf.blogspot.com)
 0 
SECTION
 2 
HEADER
 9 
$ACADVER
 1 
AC1009
 9 
$EXTMIN
 10 
 0 
 20 
 0 
 9 
$EXTMAX
 10 
 8.5 
 20 
 11 
 0 
ENDSEC
 0 
SECTION
 2 
ENTITIES
0
LINE
8
Layer 1
10
66.670900
20
8.562890
11
62.702040
21
11.739670
0
LINE
8
Layer 1
10
62.702040
20
11.739670
11
52.479640
21
19.986600
0
LINE
8
Layer 1
10
52.479640
20
19.986600
11
40.046240
21
30.122400
0
LINE
8
Layer 1
10
40.046240
20
30.122400
11
39.164971
21
30.850869
0
LINE
8
Layer 1
10
39.164971
20
30.850869
11
38.944700
21
31.033111
0
LINE
8
Layer 1
10
38.944700
20
31.033111
11
38.611150
21
31.299503
0
LINE
8
Layer 1
10
38.611150
20
31.299503
11
37.876100
21
31.882800
0
LINE
8
Layer 1
10
37.876100
20
31.882800
11
37.132507
21
32.401524
0
LINE
8
Layer 1
10
37.132507
20
32.401524
11
36.382567
21
32.891744
0
LINE
8
Layer 1
10
36.382567
20
32.891744
11
36.335512
21
32.922492
0
LINE
8
Layer 1
10
36.335512
20
32.922492
11
36.195095
21
32.865483
0
LINE
8
Layer 1
10
36.195095
20
32.865483
11
36.007937
21
32.742372
0
LINE
8
Layer 1
10
36.007937
20
32.742372
11
35.632686
21
32.495772
0
LINE
8
Layer 1
10
35.632686
20
32.495772
11
34.875899
21
31.986268
0
LINE
8
Layer 1
10
34.875899
20
31.986268
11
34.110211
21
31.452239
0
LINE
8
Layer 1
10
34.110211
20
31.452239
11
33.829753
21
31.261533
0
LINE
8
Layer 1
10
33.829753
20
31.261533
11
33.591930
21
31.102693
0
LINE
8
Layer 1
10
33.591930
20
31.102693
11
32.640639
21
30.466847
0
LINE
8
Layer 1
10
32.640639
20
30.466847
11
30.738679
21
29.193897
0
LINE
8
Layer 1
10
30.738679
20
29.193897
11
23.123900
21
24.107300
0
LINE
8
Layer 1
10
23.123900
20
24.107300
11
12.705800
21
17.138180
0
LINE
8
Layer 1
10
12.705800
20
17.138180
11
9.502390
21
14.988900
0
LINE
8
Layer 1
10
9.502390
20
14.988900
11
8.702340
21
14.450300
0
LINE
8
Layer 1
10
8.702340
20
14.450300
11
8.602318
21
14.382829
0
LINE
8
Layer 1
10
8.602318
20
14.382829
11
8.555949
21
14.342996
0
LINE
8
Layer 1
10
8.555949
20
14.342996
11
8.504102
21
14.296190
0
LINE
8
Layer 1
10
8.504102
20
14.296190
11
8.320553
21
14.123783
0
LINE
8
Layer 1
10
8.320553
20
14.123783
11
8.131464
21
14.052703
0
LINE
8
Layer 1
10
8.131464
20
14.052703
11
8.060883
21
14.068140
0
LINE
8
Layer 1
10
8.060883
20
14.068140
11
8.031193
21
14.132622
0
LINE
8
Layer 1
10
8.031193
20
14.132622
11
8.246734
21
14.645363
0
LINE
8
Layer 1
10
8.246734
20
14.645363
11
8.285136
21
14.685196
0
LINE
8
Layer 1
10
8.285136
20
14.685196
11
8.320925
21
14.790383
0
LINE
8
Layer 1
10
8.320925
20
14.790383
11
8.384910
21
16.883173
0
LINE
8
Layer 1
10
8.384910
20
16.883173
11
8.504598
21
21.069003
0
LINE
8
Layer 1
10
8.504598
20
21.069003
11
8.746716
21
29.110783
0
LINE
8
Layer 1
10
8.746716
20
29.110783
11
8.912028
21
61.322683
0
LINE
8
Layer 1
10
8.912028
20
61.322683
11
8.856885
21
63.572553
0
LINE
8
Layer 1
10
8.856885
20
63.572553
11
8.739994
21
68.718023
0
LINE
8
Layer 1
10
8.739994
20
68.718023
11
8.638292
21
78.041973
0
LINE
8
Layer 1
10
8.638292
20
78.041973
11
8.601758
21
84.798853
0
LINE
8
Layer 1
10
8.601758
20
84.798853
11
8.523078
21
88.011753
0
LINE
8
Layer 1
10
8.523078
20
88.011753
11
8.518853
21
91.227353
0
LINE
8
Layer 1
10
8.518853
20
91.227353
11
8.458542
21
92.178145
0
LINE
8
Layer 1
10
8.458542
20
92.178145
11
8.325501
21
93.923896
0
LINE
8
Layer 1
10
8.325501
20
93.923896
11
8.281902
21
95.686545
0
LINE
8
Layer 1
10
8.281902
20
95.686545
11
8.238799
21
97.599379
0
LINE
8
Layer 1
10
8.238799
20
97.599379
11
8.106445
21
99.513615
0
LINE
8
Layer 1
10
8.106445
20
99.513615
11
7.881568
21
102.489605
0
LINE
8
Layer 1
10
7.881568
20
102.489605
11
7.921962
21
103.978285
0
LINE
8
Layer 1
10
7.921962
20
103.978285
11
7.984017
21
104.720074
0
LINE
8
Layer 1
10
7.984017
20
104.720074
11
7.993788
21
104.812564
0
LINE
8
Layer 1
10
7.993788
20
104.812564
11
8.004058
21
104.873185
0
LINE
8
Layer 1
10
8.004058
20
104.873185
11
8.075821
21
104.920612
0
LINE
8
Layer 1
10
8.075821
20
104.920612
11
8.102460
21
105.004887
0
LINE
8
Layer 1
10
8.102460
20
105.004887
11
8.064679
21
105.110438
0
LINE
8
Layer 1
10
8.064679
20
105.110438
11
8.042273
21
105.170551
0
LINE
8
Layer 1
10
8.042273
20
105.170551
11
8.019992
21
105.257315
0
LINE
8
Layer 1
10
8.019992
20
105.257315
11
7.923455
21
105.685285
0
LINE
8
Layer 1
10
7.923455
20
105.685285
11
7.939141
21
105.698106
0
LINE
8
Layer 1
10
7.939141
20
105.698106
11
8.024908
21
105.677938
0
LINE
8
Layer 1
10
8.024908
20
105.677938
11
8.149018
21
105.643456
0
LINE
8
Layer 1
10
8.149018
20
105.643456
11
8.215180
21
105.623043
0
LINE
8
Layer 1
10
8.215180
20
105.623043
11
8.249286
21
105.609214
0
LINE
8
Layer 1
10
8.249286
20
105.609214
11
8.283768
21
105.571620
0
LINE
8
Layer 1
10
8.283768
20
105.571620
11
8.428666
21
105.416144
0
LINE
8
Layer 1
10
8.428666
20
105.416144
11
8.585138
21
105.253195
0
LINE
8
Layer 1
10
8.585138
20
105.253195
11
8.681551
21
105.175767
0
LINE
8
Layer 1
10
8.681551
20
105.175767
11
8.987528
21
104.964648
0
LINE
8
Layer 1
10
8.987528
20
104.964648
11
9.599481
21
104.542280
0
LINE
8
Layer 1
10
9.599481
20
104.542280
11
12.521891
21
102.558160
0
LINE
8
Layer 1
10
12.521891
20
102.558160
11
15.442741
21
100.608770
0
LINE
8
Layer 1
10
15.442741
20
100.608770
11
16.907354
21
99.602456
0
LINE
8
Layer 1
10
16.907354
20
99.602456
11
18.233751
21
98.568880
0
LINE
8
Layer 1
10
18.233751
20
98.568880
11
19.303051
21
97.871907
0
LINE
8
Layer 1
10
19.303051
20
97.871907
11
23.817141
21
94.896667
0
LINE
8
Layer 1
10
23.817141
20
94.896667
11
30.166221
21
90.509807
0
LINE
8
Layer 1
10
30.166221
20
90.509807
11
32.818621
21
88.709797
0
LINE
8
Layer 1
10
32.818621
20
88.709797
11
33.762069
21
88.134939
0
LINE
8
Layer 1
10
33.762069
20
88.134939
11
33.884869
21
88.056267
0
LINE
8
Layer 1
10
33.884869
20
88.056267
11
34.078502
21
87.924317
0
LINE
8
Layer 1
10
34.078502
20
87.924317
11
34.463453
21
87.660157
0
LINE
8
Layer 1
10
34.463453
20
87.660157
11
35.225531
21
87.135467
0
LINE
8
Layer 1
10
35.225531
20
87.135467
11
35.976524
21
86.637165
0
LINE
8
Layer 1
10
35.976524
20
86.637165
11
36.164244
21
86.511438
0
LINE
8
Layer 1
10
36.164244
20
86.511438
11
36.258164
21
86.448200
0
LINE
8
Layer 1
10
36.258164
20
86.448200
11
36.305219
21
86.428408
0
LINE
8
Layer 1
10
36.305219
20
86.428408
11
36.352523
21
86.458041
0
LINE
8
Layer 1
10
36.352523
20
86.458041
11
36.731829
21
86.694182
0
LINE
8
Layer 1
10
36.731829
20
86.694182
11
38.265449
21
87.713072
0
LINE
8
Layer 1
10
38.265449
20
87.713072
11
38.919292
21
88.222951
0
LINE
8
Layer 1
10
38.919292
20
88.222951
11
39.070910
21
88.345435
0
LINE
8
Layer 1
10
39.070910
20
88.345435
11
39.162589
21
88.424108
0
LINE
8
Layer 1
10
39.162589
20
88.424108
11
39.344831
21
88.580459
0
LINE
8
Layer 1
10
39.344831
20
88.580459
11
42.264241
21
91.058269
0
LINE
8
Layer 1
10
42.264241
20
91.058269
11
45.167161
21
93.515669
0
LINE
8
Layer 1
10
45.167161
20
93.515669
11
48.151941
21
95.911069
0
LINE
8
Layer 1
10
48.151941
20
95.911069
11
49.368811
21
96.930459
0
LINE
8
Layer 1
10
49.368811
20
96.930459
11
53.751941
21
100.582259
0
LINE
8
Layer 1
10
53.751941
20
100.582259
11
56.476101
21
102.809119
0
LINE
8
Layer 1
10
56.476101
20
102.809119
11
59.437401
21
105.220089
0
LINE
8
Layer 1
10
59.437401
20
105.220089
11
63.658961
21
108.615709
0
LINE
8
Layer 1
10
63.658961
20
108.615709
11
64.058920
21
108.947452
0
LINE
8
Layer 1
10
64.058920
20
108.947452
11
64.632037
21
109.459321
0
LINE
8
Layer 1
10
64.632037
20
109.459321
11
66.618647
21
110.999911
0
LINE
8
Layer 1
10
66.618647
20
110.999911
11
67.226742
21
111.482528
0
LINE
8
Layer 1
10
67.226742
20
111.482528
11
66.178912
21
110.704267
0
LINE
8
Layer 1
10
66.178912
20
110.704267
11
62.130822
21
107.683837
0
LINE
8
Layer 1
10
62.130822
20
107.683837
11
59.321262
21
105.571127
0
LINE
8
Layer 1
10
59.321262
20
105.571127
11
57.057372
21
103.871077
0
LINE
8
Layer 1
10
57.057372
20
103.871077
11
54.785375
21
102.218453
0
LINE
8
Layer 1
10
54.785375
20
102.218453
11
52.612002
21
100.479197
0
LINE
8
Layer 1
10
52.612002
20
100.479197
11
51.451022
21
99.678776
0
LINE
8
Layer 1
10
51.451022
20
99.678776
11
50.542987
21
99.068567
0
LINE
8
Layer 1
10
50.542987
20
99.068567
11
49.067567
21
97.949597
0
LINE
8
Layer 1
10
49.067567
20
97.949597
11
46.510587
21
96.087347
0
LINE
8
Layer 1
10
46.510587
20
96.087347
11
45.759400
21
95.564390
0
LINE
8
Layer 1
10
45.759400
20
95.564390
11
46.205271
21
96.168145
0
LINE
8
Layer 1
10
46.205271
20
96.168145
11
46.710567
21
96.789540
0
LINE
8
Layer 1
10
46.710567
20
96.789540
11
45.003857
21
95.634100
0
LINE
8
Layer 1
10
45.003857
20
95.634100
11
43.026327
21
94.275379
0
LINE
8
Layer 1
10
43.026327
20
94.275379
11
43.160590
21
94.225725
0
LINE
8
Layer 1
10
43.160590
20
94.225725
11
43.205270
21
94.120521
0
LINE
8
Layer 1
10
43.205270
20
94.120521
11
42.574707
21
93.581759
0
LINE
8
Layer 1
10
42.574707
20
93.581759
11
40.761997
21
92.333949
0
LINE
8
Layer 1
10
40.761997
20
92.333949
11
37.665197
21
90.195349
0
LINE
8
Layer 1
10
37.665197
20
90.195349
11
36.914568
21
89.557378
0
LINE
8
Layer 1
10
36.914568
20
89.557378
11
36.544293
21
89.276423
0
LINE
8
Layer 1
10
36.544293
20
89.276423
11
36.439541
21
89.199868
0
LINE
8
Layer 1
10
36.439541
20
89.199868
11
36.331803
21
89.276672
0
LINE
8
Layer 1
10
36.331803
20
89.276672
11
36.107112
21
89.452939
0
LINE
8
Layer 1
10
36.107112
20
89.452939
11
35.633335
21
89.829000
0
LINE
8
Layer 1
10
35.633335
20
89.829000
11
35.392710
21
90.022195
0
LINE
8
Layer 1
10
35.392710
20
90.022195
11
35.098310
21
90.265307
0
LINE
8
Layer 1
10
35.098310
20
90.265307
11
33.079530
21
92.086727
0
LINE
8
Layer 1
10
33.079530
20
92.086727
11
31.879772
21
93.243868
0
LINE
8
Layer 1
10
31.879772
20
93.243868
11
30.534870
21
94.228567
0
LINE
8
Layer 1
10
30.534870
20
94.228567
11
28.839050
21
95.586897
0
LINE
8
Layer 1
10
28.839050
20
95.586897
11
28.015017
21
96.282645
0
LINE
8
Layer 1
10
28.015017
20
96.282645
11
27.101030
21
96.855117
0
LINE
8
Layer 1
10
27.101030
20
96.855117
11
25.664630
21
97.707444
0
LINE
8
Layer 1
10
25.664630
20
97.707444
11
24.813671
21
98.557034
0
LINE
8
Layer 1
10
24.813671
20
98.557034
11
23.714061
21
99.574054
0
LINE
8
Layer 1
10
23.714061
20
99.574054
11
22.145565
21
100.839705
0
LINE
8
Layer 1
10
22.145565
20
100.839705
11
20.705891
21
102.250164
0
LINE
8
Layer 1
10
20.705891
20
102.250164
11
19.279261
21
103.437224
0
LINE
8
Layer 1
10
19.279261
20
103.437224
11
18.006066
21
104.365517
0
LINE
8
Layer 1
10
18.006066
20
104.365517
11
16.735531
21
105.308924
0
LINE
8
Layer 1
10
16.735531
20
105.308924
11
15.509331
21
106.285330
0
LINE
8
Layer 1
10
15.509331
20
106.285330
11
14.415931
21
107.351544
0
LINE
8
Layer 1
10
14.415931
20
107.351544
11
13.688772
21
107.966610
0
LINE
8
Layer 1
10
13.688772
20
107.966610
11
12.273472
21
109.016370
0
LINE
8
Layer 1
10
12.273472
20
109.016370
11
10.410782
21
110.495210
0
LINE
8
Layer 1
10
10.410782
20
110.495210
11
8.214252
21
112.250160
0
LINE
8
Layer 1
10
8.214252
20
112.250160
11
7.097272
21
113.128006
0
LINE
8
Layer 1
10
7.097272
20
113.128006
11
5.988822
21
113.937136
0
LINE
8
Layer 1
10
5.988822
20
113.937136
11
3.741732
21
115.596236
0
LINE
8
Layer 1
10
3.741732
20
115.596236
11
2.595750
21
116.461000
0
LINE
8
Layer 1
10
2.595750
20
116.461000
11
2.307080
21
116.679000
0
LINE
8
Layer 1
10
2.307080
20
116.679000
11
2.162500
21
116.788000
0
LINE
8
Layer 1
10
2.162500
20
116.788000
11
2.090170
21
116.843000
0
LINE
8
Layer 1
10
2.090170
20
116.843000
11
2.076973
21
116.824701
0
LINE
8
Layer 1
10
2.076973
20
116.824701
11
2.075600
21
116.783000
0
LINE
8
Layer 1
10
2.075600
20
116.783000
11
2.053760
21
116.113000
0
LINE
8
Layer 1
10
2.053760
20
116.113000
11
2.040194
21
110.447830
0
LINE
8
Layer 1
10
2.040194
20
110.447830
11
1.953117
21
108.999110
0
LINE
8
Layer 1
10
1.953117
20
108.999110
11
1.761540
21
104.375000
0
LINE
8
Layer 1
10
1.761540
20
104.375000
11
1.691267
21
101.318840
0
LINE
8
Layer 1
10
1.691267
20
101.318840
11
1.682120
21
100.033070
0
LINE
8
Layer 1
10
1.682120
20
100.033070
11
1.072842
21
87.226470
0
LINE
8
Layer 1
10
1.072842
20
87.226470
11
0.572985
21
73.737570
0
LINE
8
Layer 1
10
0.572985
20
73.737570
11
0.241552
21
59.583570
0
LINE
8
Layer 1
10
0.241552
20
59.583570
11
0.195368
21
56.042700
0
LINE
8
Layer 1
10
0.195368
20
56.042700
11
0.010385
21
47.518953
0
LINE
8
Layer 1
10
0.010385
20
47.518953
11
0.022400
21
38.983700
0
LINE
8
Layer 1
10
0.022400
20
38.983700
11
0.190700
21
24.811300
0
LINE
8
Layer 1
10
0.190700
20
24.811300
11
0.328625
21
17.725410
0
LINE
8
Layer 1
10
0.328625
20
17.725410
11
0.367154
21
15.954030
0
LINE
8
Layer 1
10
0.367154
20
15.954030
11
0.389622
21
15.068341
0
LINE
8
Layer 1
10
0.389622
20
15.068341
11
0.412278
21
13.645641
0
LINE
8
Layer 1
10
0.412278
20
13.645641
11
0.506323
21
6.554901
0
LINE
8
Layer 1
10
0.506323
20
6.554901
11
0.572484
21
2.397331
0
LINE
8
Layer 1
10
0.572484
20
2.397331
11
0.608586
21
0.331801
0
LINE
8
Layer 1
10
0.608586
20
0.331801
11
0.613192
21
0.074248
0
LINE
8
Layer 1
10
0.613192
20
0.074248
11
0.614375
21
0.009901
0
LINE
8
Layer 1
10
0.614375
20
0.009901
11
0.735372
21
0.049610
0
LINE
8
Layer 1
10
0.735372
20
0.049610
11
1.158609
21
0.354974
0
LINE
8
Layer 1
10
1.158609
20
0.354974
11
2.004214
21
0.965420
0
LINE
8
Layer 1
10
2.004214
20
0.965420
11
5.372384
21
3.402410
0
LINE
8
Layer 1
10
5.372384
20
3.402410
11
6.210208
21
4.009882
0
LINE
8
Layer 1
10
6.210208
20
4.009882
11
7.050214
21
4.631422
0
LINE
8
Layer 1
10
7.050214
20
4.631422
11
8.746084
21
5.952552
0
LINE
8
Layer 1
10
8.746084
20
5.952552
11
12.110100
21
8.575830
0
LINE
8
Layer 1
10
12.110100
20
8.575830
11
12.527862
21
8.901847
0
LINE
8
Layer 1
10
12.527862
20
8.901847
11
12.677801
21
9.020976
0
LINE
8
Layer 1
10
12.677801
20
9.020976
11
12.780995
21
9.105250
0
LINE
8
Layer 1
10
12.780995
20
9.105250
11
13.193903
21
9.442723
0
LINE
8
Layer 1
10
13.193903
20
9.442723
11
14.019654
21
10.117414
0
LINE
8
Layer 1
10
14.019654
20
10.117414
11
17.318304
21
12.821034
0
LINE
8
Layer 1
10
17.318304
20
12.821034
11
29.983804
21
23.257134
0
LINE
8
Layer 1
10
29.983804
20
23.257134
11
36.257074
21
28.387644
0
LINE
8
Layer 1
10
36.257074
20
28.387644
11
36.429543
21
28.524824
0
LINE
8
Layer 1
10
36.429543
20
28.524824
11
36.513383
21
28.617066
0
LINE
8
Layer 1
10
36.513383
20
28.617066
11
36.608300
21
28.590300
0
LINE
8
Layer 1
10
36.608300
20
28.590300
11
36.706205
21
28.544862
0
LINE
8
Layer 1
10
36.706205
20
28.544862
11
36.789794
21
28.455734
0
LINE
8
Layer 1
10
36.789794
20
28.455734
11
36.873075
21
28.360007
0
LINE
8
Layer 1
10
36.873075
20
28.360007
11
37.295192
21
28.075191
0
LINE
8
Layer 1
10
37.295192
20
28.075191
11
40.702082
21
25.782981
0
LINE
8
Layer 1
10
40.702082
20
25.782981
11
49.218392
21
19.974401
0
LINE
8
Layer 1
10
49.218392
20
19.974401
11
61.518192
21
11.765941
0
LINE
8
Layer 1
10
61.518192
20
11.765941
11
67.069962
21
8.144631
0
LINE
8
Layer 1
10
67.069962
20
8.144631
11
68.369583
21
7.251155
0
LINE
8
Layer 1
10
68.369583
20
7.251155
11
66.670900
21
8.562890
0
LINE
8
Layer 1
10
66.670900
20
8.562890
11
66.670900
21
8.562890
0
LINE
8
Layer 1
10
52.272100
20
99.672800
11
52.587288
21
99.869608
0
LINE
8
Layer 1
10
52.587288
20
99.869608
11
52.412141
21
99.707407
0
LINE
8
Layer 1
10
52.412141
20
99.707407
11
51.466576
21
98.994252
0
LINE
8
Layer 1
10
51.466576
20
98.994252
11
52.272100
21
99.672800
0
LINE
8
Layer 1
10
52.272100
20
99.672800
11
52.272100
21
99.672800
0
LINE
8
Layer 1
10
36.183100
20
88.805000
11
36.301608
21
88.716492
0
LINE
8
Layer 1
10
36.301608
20
88.716492
11
36.360861
21
88.671678
0
LINE
8
Layer 1
10
36.360861
20
88.671678
11
36.390494
21
88.649149
0
LINE
8
Layer 1
10
36.390494
20
88.649149
11
36.420181
21
88.645787
0
LINE
8
Layer 1
10
36.420181
20
88.645787
11
36.658004
21
88.818318
0
LINE
8
Layer 1
10
36.658004
20
88.818318
11
36.619167
21
88.734668
0
LINE
8
Layer 1
10
36.619167
20
88.734668
11
36.496302
21
88.644667
0
LINE
8
Layer 1
10
36.496302
20
88.644667
11
36.434995
21
88.600226
0
LINE
8
Layer 1
10
36.434995
20
88.600226
11
36.404312
21
88.578193
0
LINE
8
Layer 1
10
36.404312
20
88.578193
11
36.373750
21
88.601846
0
LINE
8
Layer 1
10
36.373750
20
88.601846
11
36.129580
21
88.791431
0
LINE
8
Layer 1
10
36.129580
20
88.791431
11
36.183100
21
88.805000
0
LINE
8
Layer 1
10
36.183100
20
88.805000
11
36.183100
21
88.805000
0
LINE
8
Layer 1
10
27.795600
20
95.182900
11
28.076617
21
95.160605
0
LINE
8
Layer 1
10
28.076617
20
95.160605
11
28.703923
21
94.877459
0
LINE
8
Layer 1
10
28.703923
20
94.877459
11
29.254327
21
94.464253
0
LINE
8
Layer 1
10
29.254327
20
94.464253
11
30.854667
21
92.889683
0
LINE
8
Layer 1
10
30.854667
20
92.889683
11
30.880996
21
92.781386
0
LINE
8
Layer 1
10
30.880996
20
92.781386
11
30.487694
21
92.955534
0
LINE
8
Layer 1
10
30.487694
20
92.955534
11
30.205057
21
93.163419
0
LINE
8
Layer 1
10
30.205057
20
93.163419
11
28.524546
21
94.478819
0
LINE
8
Layer 1
10
28.524546
20
94.478819
11
27.934643
21
94.937277
0
LINE
8
Layer 1
10
27.934643
20
94.937277
11
27.795600
21
95.182900
0
LINE
8
Layer 1
10
27.795600
20
95.182900
11
27.795600
21
95.182900
0
LINE
8
Layer 1
10
20.371810
20
101.501850
11
20.652454
21
101.480683
0
LINE
8
Layer 1
10
20.652454
20
101.480683
11
22.250804
21
100.318773
0
LINE
8
Layer 1
10
22.250804
20
100.318773
11
23.587184
21
99.177273
0
LINE
8
Layer 1
10
23.587184
20
99.177273
11
23.636601
21
98.950217
0
LINE
8
Layer 1
10
23.636601
20
98.950217
11
23.417701
21
99.045448
0
LINE
8
Layer 1
10
23.417701
20
99.045448
11
20.468781
21
101.345748
0
LINE
8
Layer 1
10
20.468781
20
101.345748
11
20.371800
21
101.502000
0
LINE
8
Layer 1
10
20.371800
20
101.502000
11
20.371810
21
101.501850
0
LINE
8
Layer 1
10
53.581800
20
101.628000
11
53.850557
21
101.878582
0
LINE
8
Layer 1
10
53.850557
20
101.878582
11
53.522920
21
101.712274
0
LINE
8
Layer 1
10
53.522920
20
101.712274
11
50.146530
21
99.343634
0
LINE
8
Layer 1
10
50.146530
20
99.343634
11
49.512846
21
98.841381
0
LINE
8
Layer 1
10
49.512846
20
98.841381
11
49.238743
21
98.352753
0
LINE
8
Layer 1
10
49.238743
20
98.352753
11
52.301743
21
100.683683
0
LINE
8
Layer 1
10
52.301743
20
100.683683
11
53.581800
21
101.628000
0
LINE
8
Layer 1
10
53.581800
20
101.628000
11
53.581800
21
101.628000
0
LINE
8
Layer 1
10
67.386400
20
111.604000
11
67.228920
21
111.484744
0
LINE
8
Layer 1
10
67.228920
20
111.484744
11
67.274730
21
111.518611
0
LINE
8
Layer 1
10
67.274730
20
111.518611
11
67.386400
21
111.604000
0
LINE
8
Layer 1
10
67.386400
20
111.604000
11
67.386400
21
111.604000
0
LINE
8
Layer 1
10
68.321700
20
112.316000
11
67.945329
21
112.030674
0
LINE
8
Layer 1
10
67.945329
20
112.030674
11
67.386405
21
111.603452
0
LINE
8
Layer 1
10
67.386405
20
111.603452
11
67.891927
21
111.985984
0
LINE
8
Layer 1
10
67.891927
20
111.985984
11
68.284103
21
112.287123
0
LINE
8
Layer 1
10
68.284103
20
112.287123
11
68.367860
21
112.351484
0
LINE
8
Layer 1
10
68.367860
20
112.351484
11
68.321700
21
112.316000
0
LINE
8
Layer 1
10
68.321700
20
112.316000
11
68.321700
21
112.316000
0
LINE
8
Layer 1
10
40.650600
20
92.589900
11
40.433941
21
92.457450
0
LINE
8
Layer 1
10
40.433941
20
92.457450
11
40.231345
21
92.295124
0
LINE
8
Layer 1
10
40.231345
20
92.295124
11
40.524314
21
92.463548
0
LINE
8
Layer 1
10
40.524314
20
92.463548
11
40.650600
21
92.589900
0
LINE
8
Layer 1
10
40.650600
20
92.589900
11
40.650600
21
92.589900
 0 
ENDSEC
 0 
EOF