999
"DXF R12 Output" (www.mydxf.blogspot.com)
 0 
SECTION
 2 
HEADER
 9 
$ACADVER
 1 
AC1009
 9 
$EXTMIN
 10 
 0 
 20 
 0 
 9 
$EXTMAX
 10 
 8.5 
 20 
 11 
 0 
ENDSEC
 0 
SECTION
 2 
ENTITIES
0
LINE
8
Layer 1
10
43.786100
20
80.244800
11
43.757158
21
80.265588
0
LINE
8
Layer 1
10
43.757158
20
80.265588
11
43.698716
21
80.306793
0
LINE
8
Layer 1
10
43.698716
20
80.306793
11
43.579150
21
80.387830
0
LINE
8
Layer 1
10
43.579150
20
80.387830
11
42.179610
21
81.520620
0
LINE
8
Layer 1
10
42.179610
20
81.520620
11
41.523529
21
82.103197
0
LINE
8
Layer 1
10
41.523529
20
82.103197
11
40.774831
21
82.656767
0
LINE
8
Layer 1
10
40.774831
20
82.656767
11
39.405281
21
83.817067
0
LINE
8
Layer 1
10
39.405281
20
83.817067
11
39.287594
21
83.947152
0
LINE
8
Layer 1
10
39.287594
20
83.947152
11
39.192863
21
84.060430
0
LINE
8
Layer 1
10
39.192863
20
84.060430
11
39.002778
21
84.287362
0
LINE
8
Layer 1
10
39.002778
20
84.287362
11
38.593669
21
84.725289
0
LINE
8
Layer 1
10
38.593669
20
84.725289
11
38.055285
21
85.231432
0
LINE
8
Layer 1
10
38.055285
20
85.231432
11
35.974603
21
86.986752
0
LINE
8
Layer 1
10
35.974603
20
86.986752
11
33.954415
21
88.798832
0
LINE
8
Layer 1
10
33.954415
20
88.798832
11
31.917898
21
90.618325
0
LINE
8
Layer 1
10
31.917898
20
90.618325
11
29.788065
21
92.339222
0
LINE
8
Layer 1
10
29.788065
20
92.339222
11
29.279700
21
92.857400
0
LINE
8
Layer 1
10
29.279700
20
92.857400
11
25.760900
21
96.007700
0
LINE
8
Layer 1
10
25.760900
20
96.007700
11
24.988552
21
96.637337
0
LINE
8
Layer 1
10
24.988552
20
96.637337
11
17.619842
21
103.312427
0
LINE
8
Layer 1
10
17.619842
20
103.312427
11
13.709802
21
106.787587
0
LINE
8
Layer 1
10
13.709802
20
106.787587
11
13.587126
21
106.895763
0
LINE
8
Layer 1
10
13.587126
20
106.895763
11
13.401336
21
107.054228
0
LINE
8
Layer 1
10
13.401336
20
107.054228
11
12.936395
21
107.445599
0
LINE
8
Layer 1
10
12.936395
20
107.445599
11
12.001786
21
108.231703
0
LINE
8
Layer 1
10
12.001786
20
108.231703
11
10.114400
21
109.817000
0
LINE
8
Layer 1
10
10.114400
20
109.817000
11
8.203850
21
111.418090
0
LINE
8
Layer 1
10
8.203850
20
111.418090
11
7.236830
21
112.231000
0
LINE
8
Layer 1
10
7.236830
20
112.231000
11
6.235130
21
113.099000
0
LINE
8
Layer 1
10
6.235130
20
113.099000
11
1.982380
21
116.778000
0
LINE
8
Layer 1
10
1.982380
20
116.778000
11
0.906672
21
117.707000
0
LINE
8
Layer 1
10
0.906672
20
117.707000
11
0.637046
21
117.939000
0
LINE
8
Layer 1
10
0.637046
20
117.939000
11
0.502107
21
118.056000
0
LINE
8
Layer 1
10
0.502107
20
118.056000
11
0.434636
21
118.114000
0
LINE
8
Layer 1
10
0.434636
20
118.114000
11
0.408869
21
118.084124
0
LINE
8
Layer 1
10
0.408869
20
118.084124
11
0.401037
21
117.425000
0
LINE
8
Layer 1
10
0.401037
20
117.425000
11
0.370839
21
114.772170
0
LINE
8
Layer 1
10
0.370839
20
114.772170
11
0.244686
21
103.941000
0
LINE
8
Layer 1
10
0.244686
20
103.941000
11
0.227623
21
101.176000
0
LINE
8
Layer 1
10
0.227623
20
101.176000
11
0.218592
21
100.268154
0
LINE
8
Layer 1
10
0.218592
20
100.268154
11
0.195320
21
99.584400
0
LINE
8
Layer 1
10
0.195320
20
99.584400
11
0.010368
21
92.979196
0
LINE
8
Layer 1
10
0.010368
20
92.979196
11
0.022414
21
86.365000
0
LINE
8
Layer 1
10
0.022414
20
86.365000
11
0.505592
21
64.401400
0
LINE
8
Layer 1
10
0.505592
20
64.401400
11
1.206363
21
51.190900
0
LINE
8
Layer 1
10
1.206363
20
51.190900
11
2.010890
21
38.489000
0
LINE
8
Layer 1
10
2.010890
20
38.489000
11
2.770860
21
25.773200
0
LINE
8
Layer 1
10
2.770860
20
25.773200
11
3.199202
21
17.791920
0
LINE
8
Layer 1
10
3.199202
20
17.791920
11
3.962711
21
6.348320
0
LINE
8
Layer 1
10
3.962711
20
6.348320
11
4.374436
21
1.221780
0
LINE
8
Layer 1
10
4.374436
20
1.221780
11
4.434109
21
0.000553
0
LINE
8
Layer 1
10
4.434109
20
0.000553
11
4.471470
21
1.663457
0
LINE
8
Layer 1
10
4.471470
20
1.663457
11
4.648669
21
5.600457
0
LINE
8
Layer 1
10
4.648669
20
5.600457
11
5.156866
21
15.770757
0
LINE
8
Layer 1
10
5.156866
20
15.770757
11
5.859317
21
28.189557
0
LINE
8
Layer 1
10
5.859317
20
28.189557
11
6.790367
21
42.358857
0
LINE
8
Layer 1
10
6.790367
20
42.358857
11
6.895864
21
43.974507
0
LINE
8
Layer 1
10
6.895864
20
43.974507
11
7.421054
21
43.404007
0
LINE
8
Layer 1
10
7.421054
20
43.404007
11
9.456084
21
41.276367
0
LINE
8
Layer 1
10
9.456084
20
41.276367
11
10.906054
21
39.888147
0
LINE
8
Layer 1
10
10.906054
20
39.888147
11
11.821057
21
39.060218
0
LINE
8
Layer 1
10
11.821057
20
39.060218
11
13.070357
21
37.991158
0
LINE
8
Layer 1
10
13.070357
20
37.991158
11
14.138907
21
37.182400
0
LINE
8
Layer 1
10
14.138907
20
37.182400
11
15.163207
21
36.402395
0
LINE
8
Layer 1
10
15.163207
20
36.402395
11
19.491000
21
33.549400
0
LINE
8
Layer 1
10
19.491000
20
33.549400
11
19.808243
21
33.368154
0
LINE
8
Layer 1
10
19.808243
20
33.368154
11
20.528558
21
32.947406
0
LINE
8
Layer 1
10
20.528558
20
32.947406
11
21.787818
21
32.129434
0
LINE
8
Layer 1
10
21.787818
20
32.129434
11
22.683715
21
31.516612
0
LINE
8
Layer 1
10
22.683715
20
31.516612
11
23.544447
21
30.943619
0
LINE
8
Layer 1
10
23.544447
20
30.943619
11
23.683244
21
30.872781
0
LINE
8
Layer 1
10
23.683244
20
30.872781
11
24.182729
21
30.595921
0
LINE
8
Layer 1
10
24.182729
20
30.595921
11
24.720241
21
30.285090
0
LINE
8
Layer 1
10
24.720241
20
30.285090
11
25.152429
21
30.069635
0
LINE
8
Layer 1
10
25.152429
20
30.069635
11
25.493648
21
29.727908
0
LINE
8
Layer 1
10
25.493648
20
29.727908
11
25.646511
21
29.602057
0
LINE
8
Layer 1
10
25.646511
20
29.602057
11
25.996119
21
29.378489
0
LINE
8
Layer 1
10
25.996119
20
29.378489
11
27.605419
21
28.339809
0
LINE
8
Layer 1
10
27.605419
20
28.339809
11
28.086543
21
28.035574
0
LINE
8
Layer 1
10
28.086543
20
28.035574
11
28.568536
21
27.738061
0
LINE
8
Layer 1
10
28.568536
20
27.738061
11
29.012626
21
27.407314
0
LINE
8
Layer 1
10
29.012626
20
27.407314
11
29.189514
21
27.301379
0
LINE
8
Layer 1
10
29.189514
20
27.301379
11
29.930369
21
26.842288
0
LINE
8
Layer 1
10
29.930369
20
26.842288
11
30.951059
21
26.140458
0
LINE
8
Layer 1
10
30.951059
20
26.140458
11
31.378095
21
25.852905
0
LINE
8
Layer 1
10
31.378095
20
25.852905
11
31.968201
21
25.462778
0
LINE
8
Layer 1
10
31.968201
20
25.462778
11
32.096479
21
25.377635
0
LINE
8
Layer 1
10
32.096479
20
25.377635
11
32.614323
21
25.044520
0
LINE
8
Layer 1
10
32.614323
20
25.044520
11
33.125757
21
24.710036
0
LINE
8
Layer 1
10
33.125757
20
24.710036
11
33.623436
21
24.351778
0
LINE
8
Layer 1
10
33.623436
20
24.351778
11
33.834309
21
24.208872
0
LINE
8
Layer 1
10
33.834309
20
24.208872
11
34.587672
21
23.689908
0
LINE
8
Layer 1
10
34.587672
20
23.689908
11
35.045704
21
23.361402
0
LINE
8
Layer 1
10
35.045704
20
23.361402
11
35.540521
21
23.002148
0
LINE
8
Layer 1
10
35.540521
20
23.002148
11
36.236001
21
22.484180
0
LINE
8
Layer 1
10
36.236001
20
22.484180
11
36.303534
21
22.435638
0
LINE
8
Layer 1
10
36.303534
20
22.435638
11
36.406604
21
22.368043
0
LINE
8
Layer 1
10
36.406604
20
22.368043
11
36.722351
21
22.119078
0
LINE
8
Layer 1
10
36.722351
20
22.119078
11
36.820381
21
22.043642
0
LINE
8
Layer 1
10
36.820381
20
22.043642
11
36.660299
21
22.176851
0
LINE
8
Layer 1
10
36.660299
20
22.176851
11
36.037825
21
22.691833
0
LINE
8
Layer 1
10
36.037825
20
22.691833
11
35.602825
21
23.048102
0
LINE
8
Layer 1
10
35.602825
20
23.048102
11
35.252655
21
23.335283
0
LINE
8
Layer 1
10
35.252655
20
23.335283
11
34.554500
21
23.894455
0
LINE
8
Layer 1
10
34.554500
20
23.894455
11
34.388503
21
24.047318
0
LINE
8
Layer 1
10
34.388503
20
24.047318
11
34.261842
21
24.168439
0
LINE
8
Layer 1
10
34.261842
20
24.168439
11
34.031427
21
24.354542
0
LINE
8
Layer 1
10
34.031427
20
24.354542
11
33.647213
21
24.683920
0
LINE
8
Layer 1
10
33.647213
20
24.683920
11
33.539224
21
24.782884
0
LINE
8
Layer 1
10
33.539224
20
24.782884
11
33.787317
21
24.707446
0
LINE
8
Layer 1
10
33.787317
20
24.707446
11
33.549556
21
24.936611
0
LINE
8
Layer 1
10
33.549556
20
24.936611
11
33.270594
21
25.201011
0
LINE
8
Layer 1
10
33.270594
20
25.201011
11
33.239832
21
25.151218
0
LINE
8
Layer 1
10
33.239832
20
25.151218
11
33.129415
21
25.225409
0
LINE
8
Layer 1
10
33.129415
20
25.225409
11
32.872982
21
25.467273
0
LINE
8
Layer 1
10
32.872982
20
25.467273
11
32.434434
21
25.881053
0
LINE
8
Layer 1
10
32.434434
20
25.881053
11
32.276028
21
26.001562
0
LINE
8
Layer 1
10
32.276028
20
26.001562
11
31.654925
21
26.639533
0
LINE
8
Layer 1
10
31.654925
20
26.639533
11
31.285152
21
27.025551
0
LINE
8
Layer 1
10
31.285152
20
27.025551
11
31.034632
21
27.267545
0
LINE
8
Layer 1
10
31.034632
20
27.267545
11
30.768801
21
27.486134
0
LINE
8
Layer 1
10
30.768801
20
27.486134
11
30.534029
21
27.619204
0
LINE
8
Layer 1
10
30.534029
20
27.619204
11
30.421558
21
27.781778
0
LINE
8
Layer 1
10
30.421558
20
27.781778
11
30.270499
21
27.972856
0
LINE
8
Layer 1
10
30.270499
20
27.972856
11
29.851557
21
28.472651
0
LINE
8
Layer 1
10
29.851557
20
28.472651
11
29.646969
21
28.690244
0
LINE
8
Layer 1
10
29.646969
20
28.690244
11
29.261699
21
29.017009
0
LINE
8
Layer 1
10
29.261699
20
29.017009
11
28.941343
21
29.402654
0
LINE
8
Layer 1
10
28.941343
20
29.402654
11
28.839083
21
29.517549
0
LINE
8
Layer 1
10
28.839083
20
29.517549
11
28.044628
21
30.315478
0
LINE
8
Layer 1
10
28.044628
20
30.315478
11
27.236364
21
31.107932
0
LINE
8
Layer 1
10
27.236364
20
31.107932
11
27.145183
21
31.231043
0
LINE
8
Layer 1
10
27.145183
20
31.231043
11
26.481879
21
31.956026
0
LINE
8
Layer 1
10
26.481879
20
31.956026
11
26.331381
21
32.096691
0
LINE
8
Layer 1
10
26.331381
20
32.096691
11
24.974651
21
33.669641
0
LINE
8
Layer 1
10
24.974651
20
33.669641
11
23.545900
21
35.326500
0
LINE
8
Layer 1
10
23.545900
20
35.326500
11
22.031830
21
37.047210
0
LINE
8
Layer 1
10
22.031830
20
37.047210
11
21.648736
21
37.472564
0
LINE
8
Layer 1
10
21.648736
20
37.472564
11
19.820500
21
39.542300
0
LINE
8
Layer 1
10
19.820500
20
39.542300
11
16.614220
21
42.778080
0
LINE
8
Layer 1
10
16.614220
20
42.778080
11
14.540100
21
44.548590
0
LINE
8
Layer 1
10
14.540100
20
44.548590
11
12.465800
21
46.154660
0
LINE
8
Layer 1
10
12.465800
20
46.154660
11
10.419750
21
47.799190
0
LINE
8
Layer 1
10
10.419750
20
47.799190
11
9.228960
21
48.944050
0
LINE
8
Layer 1
10
9.228960
20
48.944050
11
8.398534
21
49.793962
0
LINE
8
Layer 1
10
8.398534
20
49.793962
11
7.402500
21
50.441940
0
LINE
8
Layer 1
10
7.402500
20
50.441940
11
7.320404
21
50.474802
0
LINE
8
Layer 1
10
7.320404
20
50.474802
11
7.383518
21
51.441031
0
LINE
8
Layer 1
10
7.383518
20
51.441031
11
9.034828
21
52.831121
0
LINE
8
Layer 1
10
9.034828
20
52.831121
11
11.104218
21
54.602501
0
LINE
8
Layer 1
10
11.104218
20
54.602501
11
12.772148
21
56.027821
0
LINE
8
Layer 1
10
12.772148
20
56.027821
11
16.038500
21
58.875200
0
LINE
8
Layer 1
10
16.038500
20
58.875200
11
16.905579
21
59.541055
0
LINE
8
Layer 1
10
16.905579
20
59.541055
11
17.586372
21
60.047322
0
LINE
8
Layer 1
10
17.586372
20
60.047322
11
18.671542
21
60.986275
0
LINE
8
Layer 1
10
18.671542
20
60.986275
11
20.564912
21
62.543175
0
LINE
8
Layer 1
10
20.564912
20
62.543175
11
21.125142
21
62.978613
0
LINE
8
Layer 1
10
21.125142
20
62.978613
11
20.840877
21
62.452848
0
LINE
8
Layer 1
10
20.840877
20
62.452848
11
20.508397
21
61.914293
0
LINE
8
Layer 1
10
20.508397
20
61.914293
11
21.786577
21
62.873676
0
LINE
8
Layer 1
10
21.786577
20
62.873676
11
23.264287
21
64.003476
0
LINE
8
Layer 1
10
23.264287
20
64.003476
11
23.084847
21
64.154597
0
LINE
8
Layer 1
10
23.084847
20
64.154597
11
23.538660
21
64.610950
0
LINE
8
Layer 1
10
23.538660
20
64.610950
11
24.892840
21
65.648760
0
LINE
8
Layer 1
10
24.892840
20
65.648760
11
27.205710
21
67.428230
0
LINE
8
Layer 1
10
27.205710
20
67.428230
11
27.917872
21
68.078523
0
LINE
8
Layer 1
10
27.917872
20
68.078523
11
29.602780
21
69.418494
0
LINE
8
Layer 1
10
29.602780
20
69.418494
11
31.401192
21
70.601773
0
LINE
8
Layer 1
10
31.401192
20
70.601773
11
32.513172
21
71.265702
0
LINE
8
Layer 1
10
32.513172
20
71.265702
11
33.493422
21
72.112113
0
LINE
8
Layer 1
10
33.493422
20
72.112113
11
34.827682
21
73.140333
0
LINE
8
Layer 1
10
34.827682
20
73.140333
11
35.507394
21
73.628930
0
LINE
8
Layer 1
10
35.507394
20
73.628930
11
36.087132
21
74.232783
0
LINE
8
Layer 1
10
36.087132
20
74.232783
11
36.957324
21
75.197271
0
LINE
8
Layer 1
10
36.957324
20
75.197271
11
37.773177
21
75.660468
0
LINE
8
Layer 1
10
37.773177
20
75.660468
11
38.756958
21
76.284495
0
LINE
8
Layer 1
10
38.756958
20
76.284495
11
39.151504
21
76.616738
0
LINE
8
Layer 1
10
39.151504
20
76.616738
11
39.600945
21
76.977612
0
LINE
8
Layer 1
10
39.600945
20
76.977612
11
40.516755
21
77.663507
0
LINE
8
Layer 1
10
40.516755
20
77.663507
11
40.989660
21
77.995998
0
LINE
8
Layer 1
10
40.989660
20
77.995998
11
41.230596
21
78.161185
0
LINE
8
Layer 1
10
41.230596
20
78.161185
11
41.451116
21
78.327617
0
LINE
8
Layer 1
10
41.451116
20
78.327617
11
42.365188
21
78.997827
0
LINE
8
Layer 1
10
42.365188
20
78.997827
11
43.241851
21
79.686960
0
LINE
8
Layer 1
10
43.241851
20
79.686960
11
43.627993
21
80.046962
0
LINE
8
Layer 1
10
43.627993
20
80.046962
11
43.794487
21
80.223602
0
LINE
8
Layer 1
10
43.794487
20
80.223602
11
43.786100
21
80.244800
0
LINE
8
Layer 1
10
43.786100
20
80.244800
11
43.786100
21
80.244800
0
LINE
8
Layer 1
10
34.396100
20
23.892300
11
34.437491
21
23.849479
0
LINE
8
Layer 1
10
34.437491
20
23.849479
11
34.404318
21
23.868898
0
LINE
8
Layer 1
10
34.404318
20
23.868898
11
34.256620
21
23.987530
0
LINE
8
Layer 1
10
34.256620
20
23.987530
11
34.396100
21
23.892300
0
LINE
8
Layer 1
10
34.396100
20
23.892300
11
34.396100
21
23.892300
0
LINE
8
Layer 1
10
32.070400
20
26.014720
11
32.144528
21
25.951361
0
LINE
8
Layer 1
10
32.144528
20
25.951361
11
32.055961
21
26.012231
0
LINE
8
Layer 1
10
32.055961
20
26.012231
11
32.070400
21
26.014700
0
LINE
8
Layer 1
10
32.070400
20
26.014700
11
32.070400
21
26.014720
0
LINE
8
Layer 1
10
30.788610
20
27.120120
11
30.845435
21
27.128708
0
LINE
8
Layer 1
10
30.845435
20
27.128708
11
31.038633
21
27.020783
0
LINE
8
Layer 1
10
31.038633
20
27.020783
11
31.256288
21
26.726011
0
LINE
8
Layer 1
10
31.256288
20
26.726011
11
31.185521
21
26.724267
0
LINE
8
Layer 1
10
31.185521
20
26.724267
11
31.141952
21
26.759745
0
LINE
8
Layer 1
10
31.141952
20
26.759745
11
30.888632
21
26.988791
0
LINE
8
Layer 1
10
30.888632
20
26.988791
11
30.788600
21
27.120100
0
LINE
8
Layer 1
10
30.788600
20
27.120100
11
30.788610
21
27.120120
0
LINE
8
Layer 1
10
29.717070
20
28.265600
11
29.775453
21
28.276429
0
LINE
8
Layer 1
10
29.775453
20
28.276429
11
30.020619
21
28.076898
0
LINE
8
Layer 1
10
30.020619
20
28.076898
11
30.212011
21
27.868390
0
LINE
8
Layer 1
10
30.212011
20
27.868390
11
30.204417
21
27.815236
0
LINE
8
Layer 1
10
30.204417
20
27.815236
11
30.165639
21
27.826807
0
LINE
8
Layer 1
10
30.165639
20
27.826807
11
29.724851
21
28.232120
0
LINE
8
Layer 1
10
29.724851
20
28.232120
11
29.717000
21
28.265600
0
LINE
8
Layer 1
10
29.717000
20
28.265600
11
29.717070
21
28.265600
0
LINE
8
Layer 1
10
8.495780
20
101.103000
11
8.529951
21
101.089171
0
LINE
8
Layer 1
10
8.529951
20
101.089171
11
8.553167
21
101.041868
0
LINE
8
Layer 1
10
8.553167
20
101.041868
11
8.600160
21
100.933320
0
LINE
8
Layer 1
10
8.600160
20
100.933320
11
8.633832
21
100.848174
0
LINE
8
Layer 1
10
8.633832
20
100.848174
11
8.741446
21
100.746472
0
LINE
8
Layer 1
10
8.741446
20
100.746472
11
8.658788
21
100.752198
0
LINE
8
Layer 1
10
8.658788
20
100.752198
11
8.565864
21
100.773982
0
LINE
8
Layer 1
10
8.565864
20
100.773982
11
8.515386
21
100.794150
0
LINE
8
Layer 1
10
8.515386
20
100.794150
11
8.393020
21
101.111085
0
LINE
8
Layer 1
10
8.393020
20
101.111085
11
8.495780
21
101.103000
0
LINE
8
Layer 1
10
8.495780
20
101.103000
11
8.495780
21
101.103000
0
LINE
8
Layer 1
10
16.198200
20
59.591500
11
15.959440
21
59.429301
0
LINE
8
Layer 1
10
15.959440
20
59.429301
11
16.083426
21
59.567590
0
LINE
8
Layer 1
10
16.083426
20
59.567590
11
16.779529
21
60.165726
0
LINE
8
Layer 1
10
16.779529
20
60.165726
11
16.198200
21
59.591500
0
LINE
8
Layer 1
10
16.198200
20
59.591500
11
16.198200
21
59.591500
0
LINE
8
Layer 1
10
28.239200
20
68.949420
11
27.874851
21
68.648289
0
LINE
8
Layer 1
10
27.874851
20
68.648289
11
27.875226
21
68.709159
0
LINE
8
Layer 1
10
27.875226
20
68.709159
11
28.247426
21
69.011153
0
LINE
8
Layer 1
10
28.247426
20
69.011153
11
28.239200
21
68.949400
0
LINE
8
Layer 1
10
28.239200
20
68.949400
11
28.239200
21
68.949420
0
LINE
8
Layer 1
10
34.523860
20
73.927580
11
34.224110
21
73.481586
0
LINE
8
Layer 1
10
34.224110
20
73.481586
11
33.812508
21
73.136122
0
LINE
8
Layer 1
10
33.812508
20
73.136122
11
32.298308
21
72.257655
0
LINE
8
Layer 1
10
32.298308
20
72.257655
11
32.201647
21
72.268981
0
LINE
8
Layer 1
10
32.201647
20
72.268981
11
32.388371
21
72.551680
0
LINE
8
Layer 1
10
32.388371
20
72.551680
11
32.594574
21
72.728819
0
LINE
8
Layer 1
10
32.594574
20
72.728819
11
33.889994
21
73.757289
0
LINE
8
Layer 1
10
33.889994
20
73.757289
11
34.341854
21
74.119423
0
LINE
8
Layer 1
10
34.341854
20
74.119423
11
34.568236
21
74.161609
0
LINE
8
Layer 1
10
34.568236
20
74.161609
11
34.523800
21
73.927600
0
LINE
8
Layer 1
10
34.523800
20
73.927600
11
34.523860
21
73.927580
0
LINE
8
Layer 1
10
37.026570
20
79.799270
11
36.785448
21
79.639064
0
LINE
8
Layer 1
10
36.785448
20
79.639064
11
36.760426
21
79.576075
0
LINE
8
Layer 1
10
36.760426
20
79.576075
11
36.752459
21
79.541469
0
LINE
8
Layer 1
10
36.752459
20
79.541469
11
36.716733
21
79.519560
0
LINE
8
Layer 1
10
36.716733
20
79.519560
11
36.538973
21
79.419351
0
LINE
8
Layer 1
10
36.538973
20
79.419351
11
36.443559
21
79.359238
0
LINE
8
Layer 1
10
36.443559
20
79.359238
11
36.366512
21
79.296127
0
LINE
8
Layer 1
10
36.366512
20
79.296127
11
36.180971
21
79.109776
0
LINE
8
Layer 1
10
36.180971
20
79.109776
11
34.672311
21
77.662546
0
LINE
8
Layer 1
10
34.672311
20
77.662546
11
30.285941
21
73.594106
0
LINE
8
Layer 1
10
30.285941
20
73.594106
11
28.481951
21
71.884226
0
LINE
8
Layer 1
10
28.481951
20
71.884226
11
26.027800
21
69.509500
0
LINE
8
Layer 1
10
26.027800
20
69.509500
11
25.494643
21
68.991656
0
LINE
8
Layer 1
10
25.494643
20
68.991656
11
23.390773
21
66.893516
0
LINE
8
Layer 1
10
23.390773
20
66.893516
11
21.297673
21
64.813176
0
LINE
8
Layer 1
10
21.297673
20
64.813176
11
19.123973
21
62.793826
0
LINE
8
Layer 1
10
19.123973
20
62.793826
11
18.244820
21
61.931539
0
LINE
8
Layer 1
10
18.244820
20
61.931539
11
15.074640
21
58.844009
0
LINE
8
Layer 1
10
15.074640
20
58.844009
11
13.096680
21
56.964689
0
LINE
8
Layer 1
10
13.096680
20
56.964689
11
10.946630
21
54.928789
0
LINE
8
Layer 1
10
10.946630
20
54.928789
11
7.873480
21
52.065699
0
LINE
8
Layer 1
10
7.873480
20
52.065699
11
7.583934
21
51.785241
0
LINE
8
Layer 1
10
7.583934
20
51.785241
11
7.389867
21
51.538269
0
LINE
8
Layer 1
10
7.389867
20
51.538269
11
7.423914
21
52.059352
0
LINE
8
Layer 1
10
7.423914
20
52.059352
11
7.796424
21
58.031732
0
LINE
8
Layer 1
10
7.796424
20
58.031732
11
8.246303
21
65.996712
0
LINE
8
Layer 1
10
8.246303
20
65.996712
11
8.504604
21
72.482842
0
LINE
8
Layer 1
10
8.504604
20
72.482842
11
8.746784
21
78.714532
0
LINE
8
Layer 1
10
8.746784
20
78.714532
11
8.837592
21
84.954942
0
LINE
8
Layer 1
10
8.837592
20
84.954942
11
8.892177
21
91.195222
0
LINE
8
Layer 1
10
8.892177
20
91.195222
11
8.915720
21
97.435600
0
LINE
8
Layer 1
10
8.915720
20
97.435600
11
8.915596
21
100.555740
0
LINE
8
Layer 1
10
8.915596
20
100.555740
11
8.915534
21
100.608515
0
LINE
8
Layer 1
10
8.915534
20
100.608515
11
9.392238
21
100.230589
0
LINE
8
Layer 1
10
9.392238
20
100.230589
11
11.447438
21
98.608709
0
LINE
8
Layer 1
10
11.447438
20
98.608709
11
13.440761
21
97.114803
0
LINE
8
Layer 1
10
13.440761
20
97.114803
11
15.389228
21
95.561519
0
LINE
8
Layer 1
10
15.389228
20
95.561519
11
16.002240
21
95.148363
0
LINE
8
Layer 1
10
16.002240
20
95.148363
11
17.141652
21
94.407132
0
LINE
8
Layer 1
10
17.141652
20
94.407132
11
18.235510
21
93.587863
0
LINE
8
Layer 1
10
18.235510
20
93.587863
11
19.419926
21
92.695563
0
LINE
8
Layer 1
10
19.419926
20
92.695563
11
20.660930
21
91.872253
0
LINE
8
Layer 1
10
20.660930
20
91.872253
11
22.598960
21
90.609449
0
LINE
8
Layer 1
10
22.598960
20
90.609449
11
24.277630
21
89.018004
0
LINE
8
Layer 1
10
24.277630
20
89.018004
11
25.009522
21
88.398084
0
LINE
8
Layer 1
10
25.009522
20
88.398084
11
26.618322
21
87.215013
0
LINE
8
Layer 1
10
26.618322
20
87.215013
11
34.066952
21
81.777023
0
LINE
8
Layer 1
10
34.066952
20
81.777023
11
36.298722
21
80.189253
0
LINE
8
Layer 1
10
36.298722
20
80.189253
11
36.390162
21
80.124771
0
LINE
8
Layer 1
10
36.390162
20
80.124771
11
36.428262
21
80.093778
0
LINE
8
Layer 1
10
36.428262
20
80.093778
11
36.504631
21
80.030913
0
LINE
8
Layer 1
10
36.504631
20
80.030913
11
36.601715
21
79.977138
0
LINE
8
Layer 1
10
36.601715
20
79.977138
11
36.785947
21
79.939668
0
LINE
8
Layer 1
10
36.785947
20
79.939668
11
36.983189
21
79.878050
0
LINE
8
Layer 1
10
36.983189
20
79.878050
11
37.035846
21
79.840207
0
LINE
8
Layer 1
10
37.035846
20
79.840207
11
37.026500
21
79.799300
0
LINE
8
Layer 1
10
37.026500
20
79.799300
11
37.026570
21
79.799270
0
LINE
8
Layer 1
10
41.248810
20
78.831175
11
40.684595
21
78.285945
0
LINE
8
Layer 1
10
40.684595
20
78.285945
11
39.799654
21
77.529218
0
LINE
8
Layer 1
10
39.799654
20
77.529218
11
39.195293
21
77.077098
0
LINE
8
Layer 1
10
39.195293
20
77.077098
11
38.422510
21
76.517675
0
LINE
8
Layer 1
10
38.422510
20
76.517675
11
38.220157
21
76.546431
0
LINE
8
Layer 1
10
38.220157
20
76.546431
11
38.322666
21
76.704275
0
LINE
8
Layer 1
10
38.322666
20
76.704275
11
39.664836
21
77.789005
0
LINE
8
Layer 1
10
39.664836
20
77.789005
11
40.364487
21
78.352162
0
LINE
8
Layer 1
10
40.364487
20
78.352162
11
41.027291
21
78.921666
0
LINE
8
Layer 1
10
41.027291
20
78.921666
11
41.227022
21
79.014517
0
LINE
8
Layer 1
10
41.227022
20
79.014517
11
41.248800
21
78.831200
0
LINE
8
Layer 1
10
41.248800
20
78.831200
11
41.248810
21
78.831175
0
LINE
8
Layer 1
10
15.393300
20
57.881100
11
15.203404
21
57.667241
0
LINE
8
Layer 1
10
15.203404
20
57.667241
11
15.457844
21
57.800935
0
LINE
8
Layer 1
10
15.457844
20
57.800935
11
17.972694
21
59.774715
0
LINE
8
Layer 1
10
17.972694
20
59.774715
11
18.435186
21
60.197674
0
LINE
8
Layer 1
10
18.435186
20
60.197674
11
18.590622
21
60.627914
0
LINE
8
Layer 1
10
18.590622
20
60.627914
11
16.338992
21
58.671554
0
LINE
8
Layer 1
10
16.338992
20
58.671554
11
15.393300
21
57.881100
0
LINE
8
Layer 1
10
15.393300
20
57.881100
11
15.393300
21
57.881100
0
LINE
8
Layer 1
10
25.195300
20
65.518200
11
25.342936
21
65.655128
0
LINE
8
Layer 1
10
25.342936
20
65.655128
11
25.118617
21
65.517686
0
LINE
8
Layer 1
10
25.118617
20
65.517686
11
25.030733
21
65.409386
0
LINE
8
Layer 1
10
25.030733
20
65.409386
11
25.195300
21
65.518200
0
LINE
8
Layer 1
10
34.311500
20
24.266600
11
34.111520
21
24.356347
0
LINE
8
Layer 1
10
34.111520
20
24.356347
11
34.590216
21
23.969085
0
LINE
8
Layer 1
10
34.590216
20
23.969085
11
34.784594
21
23.804894
0
LINE
8
Layer 1
10
34.784594
20
23.804894
11
34.835321
21
23.774518
0
LINE
8
Layer 1
10
34.835321
20
23.774518
11
34.799843
21
23.822569
0
LINE
8
Layer 1
10
34.799843
20
23.822569
11
34.311500
21
24.266600
0
LINE
8
Layer 1
10
36.992000
20
21.904800
11
36.933368
21
21.952476
0
LINE
8
Layer 1
10
36.933368
20
21.952476
11
36.846853
21
22.022185
0
LINE
8
Layer 1
10
36.846853
20
22.022185
11
36.924343
21
21.959071
0
LINE
8
Layer 1
10
36.924343
20
21.959071
11
36.992000
21
21.904800
0
LINE
8
Layer 1
10
36.992000
20
21.904800
11
36.992000
21
21.904800
0
LINE
8
Layer 1
10
36.846900
20
22.022200
11
36.821257
21
22.042988
0
LINE
8
Layer 1
10
36.821257
20
22.042988
11
36.846900
21
22.022200
0
LINE
8
Layer 1
10
36.846900
20
22.022200
11
36.846900
21
22.022200
0
LINE
8
Layer 1
10
32.899400
20
25.527400
11
32.898155
21
25.544954
0
LINE
8
Layer 1
10
32.898155
20
25.544954
11
32.864918
21
25.569849
0
LINE
8
Layer 1
10
32.864918
20
25.569849
11
32.899400
21
25.527400
0
LINE
8
Layer 1
10
32.899400
20
25.527400
11
32.899400
21
25.527400
 0 
ENDSEC
 0 
EOF