999
"DXF R12 Output" (www.mydxf.blogspot.com)
 0 
SECTION
 2 
HEADER
 9 
$ACADVER
 1 
AC1009
 9 
$EXTMIN
 10 
 0 
 20 
 0 
 9 
$EXTMAX
 10 
 8.5 
 20 
 11 
 0 
ENDSEC
 0 
SECTION
 2 
ENTITIES
0
LINE
8
Layer 1
10
45.635500
20
40.276900
11
45.607865
21
40.300429
0
LINE
8
Layer 1
10
45.607865
20
40.300429
11
45.552470
21
40.347481
0
LINE
8
Layer 1
10
45.552470
20
40.347481
11
45.442053
21
40.441591
0
LINE
8
Layer 1
10
45.442053
20
40.441591
11
45.000144
21
40.818397
0
LINE
8
Layer 1
10
45.000144
20
40.818397
11
44.115824
21
41.574873
0
LINE
8
Layer 1
10
44.115824
20
41.574873
11
42.335854
21
43.100153
0
LINE
8
Layer 1
10
42.335854
20
43.100153
11
40.507584
21
44.652323
0
LINE
8
Layer 1
10
40.507584
20
44.652323
11
38.913100
21
45.992100
0
LINE
8
Layer 1
10
38.913100
20
45.992100
11
24.031400
21
58.190800
0
LINE
8
Layer 1
10
24.031400
20
58.190800
11
22.950150
21
58.990973
0
LINE
8
Layer 1
10
22.950150
20
58.990973
11
20.483040
21
60.827953
0
LINE
8
Layer 1
10
20.483040
20
60.827953
11
16.081600
21
64.242500
0
LINE
8
Layer 1
10
16.081600
20
64.242500
11
12.915280
21
66.745960
0
LINE
8
Layer 1
10
12.915280
20
66.745960
11
11.371210
21
67.888330
0
LINE
8
Layer 1
10
11.371210
20
67.888330
11
10.606640
21
68.469659
0
LINE
8
Layer 1
10
10.606640
20
68.469659
11
10.235188
21
68.774018
0
LINE
8
Layer 1
10
10.235188
20
68.774018
11
10.052573
21
68.930242
0
LINE
8
Layer 1
10
10.052573
20
68.930242
11
9.962197
21
69.009662
0
LINE
8
Layer 1
10
9.962197
20
69.009662
11
9.900455
21
68.989870
0
LINE
8
Layer 1
10
9.900455
20
68.989870
11
9.740246
21
68.947537
0
LINE
8
Layer 1
10
9.740246
20
68.947537
11
9.627092
21
68.981643
0
LINE
8
Layer 1
10
9.627092
20
68.981643
11
9.493398
21
69.033428
0
LINE
8
Layer 1
10
9.493398
20
69.033428
11
9.352112
21
69.110111
0
LINE
8
Layer 1
10
9.352112
20
69.110111
11
9.290619
21
69.321481
0
LINE
8
Layer 1
10
9.290619
20
69.321481
11
9.826276
21
69.265711
0
LINE
8
Layer 1
10
9.826276
20
69.265711
11
9.878433
21
69.245049
0
LINE
8
Layer 1
10
9.878433
20
69.245049
11
10.193370
21
69.530361
0
LINE
8
Layer 1
10
10.193370
20
69.530361
11
11.220600
21
70.677961
0
LINE
8
Layer 1
10
11.220600
20
70.677961
11
15.941700
21
75.999561
0
LINE
8
Layer 1
10
15.941700
20
75.999561
11
17.319230
21
77.602761
0
LINE
8
Layer 1
10
17.319230
20
77.602761
11
18.668250
21
79.215551
0
LINE
8
Layer 1
10
18.668250
20
79.215551
11
19.368414
21
80.015254
0
LINE
8
Layer 1
10
19.368414
20
80.015254
11
20.102650
21
80.701241
0
LINE
8
Layer 1
10
20.102650
20
80.701241
11
20.582902
21
81.297012
0
LINE
8
Layer 1
10
20.582902
20
81.297012
11
22.637222
21
83.801212
0
LINE
8
Layer 1
10
22.637222
20
83.801212
11
25.692262
21
87.260442
0
LINE
8
Layer 1
10
25.692262
20
87.260442
11
26.941812
21
88.715762
0
LINE
8
Layer 1
10
26.941812
20
88.715762
11
28.632402
21
90.738842
0
LINE
8
Layer 1
10
28.632402
20
90.738842
11
28.999248
21
91.180009
0
LINE
8
Layer 1
10
28.999248
20
91.180009
11
30.436768
21
92.969939
0
LINE
8
Layer 1
10
30.436768
20
92.969939
11
31.868198
21
94.744549
0
LINE
8
Layer 1
10
31.868198
20
94.744549
11
33.381528
21
96.461649
0
LINE
8
Layer 1
10
33.381528
20
96.461649
11
33.985015
21
97.196716
0
LINE
8
Layer 1
10
33.985015
20
97.196716
11
36.165065
21
99.827896
0
LINE
8
Layer 1
10
36.165065
20
99.827896
11
37.534125
21
101.427486
0
LINE
8
Layer 1
10
37.534125
20
101.427486
11
39.023805
21
103.160276
0
LINE
8
Layer 1
10
39.023805
20
103.160276
11
41.161785
21
105.595006
0
LINE
8
Layer 1
10
41.161785
20
105.595006
11
41.361206
21
105.834011
0
LINE
8
Layer 1
10
41.361206
20
105.834011
11
41.635314
21
106.206090
0
LINE
8
Layer 1
10
41.635314
20
106.206090
11
42.659674
21
107.305010
0
LINE
8
Layer 1
10
42.659674
20
107.305010
11
42.969509
21
107.650199
0
LINE
8
Layer 1
10
42.969509
20
107.650199
11
42.418552
21
107.098994
0
LINE
8
Layer 1
10
42.418552
20
107.098994
11
40.293642
21
104.957034
0
LINE
8
Layer 1
10
40.293642
20
104.957034
11
38.824132
21
103.457024
0
LINE
8
Layer 1
10
38.824132
20
103.457024
11
37.639312
21
102.250174
0
LINE
8
Layer 1
10
37.639312
20
102.250174
11
35.329552
21
99.836844
0
LINE
8
Layer 1
10
35.329552
20
99.836844
11
34.699299
21
99.276427
0
LINE
8
Layer 1
10
34.699299
20
99.276427
11
34.201372
21
98.851073
0
LINE
8
Layer 1
10
34.201372
20
98.851073
11
33.432695
21
98.055506
0
LINE
8
Layer 1
10
33.432695
20
98.055506
11
32.076095
21
96.739986
0
LINE
8
Layer 1
10
32.076095
20
96.739986
11
31.669910
21
96.373261
0
LINE
8
Layer 1
10
31.669910
20
96.373261
11
31.818060
21
96.831029
0
LINE
8
Layer 1
10
31.818060
20
96.831029
11
32.005887
21
97.298413
0
LINE
8
Layer 1
10
32.005887
20
97.298413
11
31.072522
21
96.492017
0
LINE
8
Layer 1
10
31.072522
20
96.492017
11
29.997492
21
95.541349
0
LINE
8
Layer 1
10
29.997492
20
95.541349
11
30.182844
21
95.399812
0
LINE
8
Layer 1
10
30.182844
20
95.399812
11
29.873506
21
95.010309
0
LINE
8
Layer 1
10
29.873506
20
95.010309
11
28.888856
21
94.136945
0
LINE
8
Layer 1
10
28.888856
20
94.136945
11
27.208346
21
92.639055
0
LINE
8
Layer 1
10
27.208346
20
92.639055
11
26.710300
21
92.086500
0
LINE
8
Layer 1
10
26.710300
20
92.086500
11
25.491439
21
90.954043
0
LINE
8
Layer 1
10
25.491439
20
90.954043
11
24.149580
21
89.970430
0
LINE
8
Layer 1
10
24.149580
20
89.970430
11
23.308698
21
89.423882
0
LINE
8
Layer 1
10
23.308698
20
89.423882
11
22.610490
21
88.703950
0
LINE
8
Layer 1
10
22.610490
20
88.703950
11
21.641399
21
87.838426
0
LINE
8
Layer 1
10
21.641399
20
87.838426
11
21.140705
21
87.428434
0
LINE
8
Layer 1
10
21.140705
20
87.428434
11
20.749860
21
86.912656
0
LINE
8
Layer 1
10
20.749860
20
86.912656
11
20.173700
21
86.086200
0
LINE
8
Layer 1
10
20.173700
20
86.086200
11
19.549673
21
85.704413
0
LINE
8
Layer 1
10
19.549673
20
85.704413
11
18.809503
21
85.185689
0
LINE
8
Layer 1
10
18.809503
20
85.185689
11
17.898391
21
84.382667
0
LINE
8
Layer 1
10
17.898391
20
84.382667
11
16.871900
21
83.733600
0
LINE
8
Layer 1
10
16.871900
20
83.733600
11
16.020194
21
83.019324
0
LINE
8
Layer 1
10
16.020194
20
83.019324
11
15.367723
21
82.340896
0
LINE
8
Layer 1
10
15.367723
20
82.340896
11
14.702554
21
81.669194
0
LINE
8
Layer 1
10
14.702554
20
81.669194
11
14.006592
21
81.041494
0
LINE
8
Layer 1
10
14.006592
20
81.041494
11
13.225574
21
80.543004
0
LINE
8
Layer 1
10
13.225574
20
80.543004
11
12.783290
21
80.182005
0
LINE
8
Layer 1
10
12.783290
20
80.182005
11
11.253529
21
78.745001
0
LINE
8
Layer 1
10
11.253529
20
78.745001
11
9.671860
21
77.372325
0
LINE
8
Layer 1
10
9.671860
20
77.372325
11
8.083922
21
75.987028
0
LINE
8
Layer 1
10
8.083922
20
75.987028
11
6.585700
21
74.500155
0
LINE
8
Layer 1
10
6.585700
20
74.500155
11
6.132212
21
74.167664
0
LINE
8
Layer 1
10
6.132212
20
74.167664
11
5.775447
21
73.885837
0
LINE
8
Layer 1
10
5.775447
20
73.885837
11
5.597687
21
73.743927
0
LINE
8
Layer 1
10
5.597687
20
73.743927
11
5.384948
21
73.565170
0
LINE
8
Layer 1
10
5.384948
20
73.565170
11
4.237598
21
72.532720
0
LINE
8
Layer 1
10
4.237598
20
72.532720
11
2.057798
21
70.364870
0
LINE
8
Layer 1
10
2.057798
20
70.364870
11
1.229496
21
69.442710
0
LINE
8
Layer 1
10
1.229496
20
69.442710
11
0.106183
21
68.289400
0
LINE
8
Layer 1
10
0.106183
20
68.289400
11
0.035345
21
68.216702
0
LINE
8
Layer 1
10
0.035345
20
68.216702
11
0.000000
21
68.180400
0
LINE
8
Layer 1
10
0.000000
20
68.180400
11
0.148009
21
68.018687
0
LINE
8
Layer 1
10
0.148009
20
68.018687
11
0.435686
21
67.762506
0
LINE
8
Layer 1
10
0.435686
20
67.762506
11
1.014523
21
67.246652
0
LINE
8
Layer 1
10
1.014523
20
67.246652
11
3.390013
21
65.132572
0
LINE
8
Layer 1
10
3.390013
20
65.132572
11
4.619653
21
64.041732
0
LINE
8
Layer 1
10
4.619653
20
64.041732
11
5.242935
21
63.489903
0
LINE
8
Layer 1
10
5.242935
20
63.489903
11
5.399534
21
63.351230
0
LINE
8
Layer 1
10
5.399534
20
63.351230
11
5.487791
21
63.267828
0
LINE
8
Layer 1
10
5.487791
20
63.267828
11
5.661942
21
63.103010
0
LINE
8
Layer 1
10
5.661942
20
63.103010
11
7.063111
21
61.792220
0
LINE
8
Layer 1
10
7.063111
20
61.792220
11
13.024681
21
56.348500
0
LINE
8
Layer 1
10
13.024681
20
56.348500
11
19.401391
21
50.786890
0
LINE
8
Layer 1
10
19.401391
20
50.786890
11
21.019901
21
49.423940
0
LINE
8
Layer 1
10
21.019901
20
49.423940
11
24.869214
21
46.085974
0
LINE
8
Layer 1
10
24.869214
20
46.085974
11
28.847451
21
42.897100
0
LINE
8
Layer 1
10
28.847451
20
42.897100
11
32.186181
21
40.294300
0
LINE
8
Layer 1
10
32.186181
20
40.294300
11
33.022947
21
39.646124
0
LINE
8
Layer 1
10
33.022947
20
39.646124
11
33.442577
21
39.323589
0
LINE
8
Layer 1
10
33.442577
20
39.323589
11
33.632411
21
39.178321
0
LINE
8
Layer 1
10
33.632411
20
39.178321
11
33.595316
21
39.137740
0
LINE
8
Layer 1
10
33.595316
20
39.137740
11
33.238675
21
38.746369
0
LINE
8
Layer 1
10
33.238675
20
38.746369
11
32.525892
21
37.963127
0
LINE
8
Layer 1
10
32.525892
20
37.963127
11
25.840092
21
30.249857
0
LINE
8
Layer 1
10
25.840092
20
30.249857
11
19.504212
21
22.741477
0
LINE
8
Layer 1
10
19.504212
20
22.741477
11
13.129200
21
15.256900
0
LINE
8
Layer 1
10
13.129200
20
15.256900
11
9.093370
21
10.593430
0
LINE
8
Layer 1
10
9.093370
20
10.593430
11
3.412640
21
3.801570
0
LINE
8
Layer 1
10
3.412640
20
3.801570
11
0.917270
21
0.709690
0
LINE
8
Layer 1
10
0.917270
20
0.709690
11
0.295532
21
0.000283
0
LINE
8
Layer 1
10
0.295532
20
0.000283
11
1.226111
21
0.882596
0
LINE
8
Layer 1
10
1.226111
20
0.882596
11
3.492301
21
2.909036
0
LINE
8
Layer 1
10
3.492301
20
2.909036
11
9.382330
21
8.108110
0
LINE
8
Layer 1
10
9.382330
20
8.108110
11
16.632410
21
14.398930
0
LINE
8
Layer 1
10
16.632410
20
14.398930
11
24.996340
21
21.485060
0
LINE
8
Layer 1
10
24.996340
20
21.485060
11
30.719650
21
26.339000
0
LINE
8
Layer 1
10
30.719650
20
26.339000
11
34.230920
21
29.340010
0
LINE
8
Layer 1
10
34.230920
20
29.340010
11
38.880440
21
33.375090
0
LINE
8
Layer 1
10
38.880440
20
33.375090
11
39.114591
21
33.582478
0
LINE
8
Layer 1
10
39.114591
20
33.582478
11
39.231606
21
33.686420
0
LINE
8
Layer 1
10
39.231606
20
33.686420
11
39.293847
21
33.742300
0
LINE
8
Layer 1
10
39.293847
20
33.742300
11
39.408122
21
33.850848
0
LINE
8
Layer 1
10
39.408122
20
33.850848
11
40.324059
21
34.721971
0
LINE
8
Layer 1
10
40.324059
20
34.721971
11
42.161289
21
36.477171
0
LINE
8
Layer 1
10
42.161289
20
36.477171
11
42.610420
21
36.918335
0
LINE
8
Layer 1
10
42.610420
20
36.918335
11
43.010879
21
37.361740
0
LINE
8
Layer 1
10
43.010879
20
37.361740
11
43.813166
21
38.250542
0
LINE
8
Layer 1
10
43.813166
20
38.250542
11
45.427696
21
40.035612
0
LINE
8
Layer 1
10
45.427696
20
40.035612
11
45.623008
21
40.250843
0
LINE
8
Layer 1
10
45.623008
20
40.250843
11
45.635500
21
40.276900
0
LINE
8
Layer 1
10
45.635500
20
40.276900
11
45.635500
21
40.276900
0
LINE
8
Layer 1
10
35.326200
20
99.204500
11
35.503836
21
99.339811
0
LINE
8
Layer 1
10
35.503836
20
99.339811
11
35.421927
21
99.221427
0
LINE
8
Layer 1
10
35.421927
20
99.221427
11
34.927982
21
98.714785
0
LINE
8
Layer 1
10
34.927982
20
98.714785
11
35.326200
21
99.204500
0
LINE
8
Layer 1
10
35.326200
20
99.204500
11
35.326200
21
99.204500
0
LINE
8
Layer 1
10
26.595400
20
91.322600
11
26.856190
21
91.577164
0
LINE
8
Layer 1
10
26.856190
20
91.577164
11
26.867394
21
91.522890
0
LINE
8
Layer 1
10
26.867394
20
91.522890
11
26.600006
21
91.267953
0
LINE
8
Layer 1
10
26.600006
20
91.267953
11
26.595400
21
91.322600
0
LINE
8
Layer 1
10
26.595400
20
91.322600
11
26.595400
21
91.322600
0
LINE
8
Layer 1
10
22.056300
20
87.125000
11
22.526719
21
87.803301
0
LINE
8
Layer 1
10
22.526719
20
87.803301
11
23.681409
21
88.528533
0
LINE
8
Layer 1
10
23.681409
20
88.528533
11
23.767924
21
88.514704
0
LINE
8
Layer 1
10
23.767924
20
88.514704
11
23.658752
21
88.269972
0
LINE
8
Layer 1
10
23.658752
20
88.269972
11
23.512361
21
88.119847
0
LINE
8
Layer 1
10
23.512361
20
88.119847
11
22.577252
21
87.252579
0
LINE
8
Layer 1
10
22.577252
20
87.252579
11
22.251674
21
86.947025
0
LINE
8
Layer 1
10
22.251674
20
86.947025
11
22.062022
21
86.918095
0
LINE
8
Layer 1
10
22.062022
20
86.918095
11
22.056300
21
87.125000
0
LINE
8
Layer 1
10
22.056300
20
87.125000
11
22.056300
21
87.125000
0
LINE
8
Layer 1
10
17.507500
20
83.452400
11
18.323853
21
84.305224
0
LINE
8
Layer 1
10
18.323853
20
84.305224
11
19.145808
21
84.964980
0
LINE
8
Layer 1
10
19.145808
20
84.964980
11
19.327926
21
84.931618
0
LINE
8
Layer 1
10
19.327926
20
84.931618
11
19.268422
21
84.794935
0
LINE
8
Layer 1
10
19.268422
20
84.794935
11
17.634000
21
83.270400
0
LINE
8
Layer 1
10
17.634000
20
83.270400
11
17.514248
21
83.245502
0
LINE
8
Layer 1
10
17.514248
20
83.245502
11
17.507500
21
83.452400
0
LINE
8
Layer 1
10
17.507500
20
83.452400
11
17.507500
21
83.452400
0
LINE
8
Layer 1
10
35.028500
20
100.030000
11
35.703691
21
100.698584
0
LINE
8
Layer 1
10
35.703691
20
100.698584
11
35.828670
21
100.881946
0
LINE
8
Layer 1
10
35.828670
20
100.881946
11
35.631989
21
100.772402
0
LINE
8
Layer 1
10
35.631989
20
100.772402
11
33.812189
21
99.109072
0
LINE
8
Layer 1
10
33.812189
20
99.109072
11
33.488941
21
98.749645
0
LINE
8
Layer 1
10
33.488941
20
98.749645
11
33.435140
21
98.372013
0
LINE
8
Layer 1
10
33.435140
20
98.372013
11
35.028500
21
100.030000
0
LINE
8
Layer 1
10
35.028500
20
100.030000
11
35.028500
21
100.030000
0
LINE
8
Layer 1
10
43.539100
20
108.244000
11
43.342916
21
108.041221
0
LINE
8
Layer 1
10
43.342916
20
108.041221
11
43.052874
21
107.737110
0
LINE
8
Layer 1
10
43.052874
20
107.737110
11
43.316529
21
108.008980
0
LINE
8
Layer 1
10
43.316529
20
108.008980
11
43.519641
21
108.222872
0
LINE
8
Layer 1
10
43.519641
20
108.222872
11
43.539100
21
108.244000
0
LINE
8
Layer 1
10
43.539100
20
108.244000
11
43.539100
21
108.244000
0
LINE
8
Layer 1
10
43.052800
20
107.737000
11
42.970642
21
107.652229
0
LINE
8
Layer 1
10
42.970642
20
107.652229
11
42.994792
21
107.676130
0
LINE
8
Layer 1
10
42.994792
20
107.676130
11
43.052800
21
107.737000
0
LINE
8
Layer 1
10
43.052800
20
107.737000
11
43.052800
21
107.737000
0
LINE
8
Layer 1
10
28.722800
20
94.355600
11
28.599810
21
94.264976
0
LINE
8
Layer 1
10
28.599810
20
94.264976
11
28.497112
21
94.148588
0
LINE
8
Layer 1
10
28.497112
20
94.148588
11
28.666781
21
94.262487
0
LINE
8
Layer 1
10
28.666781
20
94.262487
11
28.722800
21
94.355600
0
LINE
8
Layer 1
10
28.722800
20
94.355600
11
28.722800
21
94.355600
 0 
ENDSEC
 0 
EOF