999
"DXF R12 Output" (www.mydxf.blogspot.com)
 0 
SECTION
 2 
HEADER
 9 
$ACADVER
 1 
AC1009
 9 
$EXTMIN
 10 
 0 
 20 
 0 
 9 
$EXTMAX
 10 
 8.5 
 20 
 11 
 0 
ENDSEC
 0 
SECTION
 2 
ENTITIES
0
LINE
8
Layer 1
10
38.966700
20
8.261060
11
38.963807
21
7.599314
0
LINE
8
Layer 1
10
38.963807
20
7.599314
11
38.975096
21
7.447321
0
LINE
8
Layer 1
10
38.975096
20
7.447321
11
38.992989
21
7.597946
0
LINE
8
Layer 1
10
38.992989
20
7.597946
11
39.030429
21
9.313186
0
LINE
8
Layer 1
10
39.030429
20
9.313186
11
38.957051
21
9.862277
0
LINE
8
Layer 1
10
38.957051
20
9.862277
11
38.966700
21
8.261060
0
LINE
8
Layer 1
10
38.966700
20
8.261060
11
38.966700
21
8.261060
0
LINE
8
Layer 1
10
38.897800
20
0.025210
11
38.896897
21
0.221637
0
LINE
8
Layer 1
10
38.896897
20
0.221637
11
38.894811
21
0.508939
0
LINE
8
Layer 1
10
38.894811
20
0.508939
11
38.895994
21
0.250638
0
LINE
8
Layer 1
10
38.895994
20
0.250638
11
38.897800
21
0.025210
0
LINE
8
Layer 1
10
38.897800
20
0.025210
11
38.897800
21
0.025210
0
LINE
8
Layer 1
10
38.894800
20
0.508959
11
38.894396
21
0.596595
0
LINE
8
Layer 1
10
38.894396
20
0.596595
11
38.894800
21
0.508959
0
LINE
8
Layer 1
10
38.894800
20
0.508959
11
38.894800
21
0.508959
0
LINE
8
Layer 1
10
39.116100
20
14.233500
11
39.124098
21
14.159930
0
LINE
8
Layer 1
10
39.124098
20
14.159930
11
39.131972
21
14.265117
0
LINE
8
Layer 1
10
39.131972
20
14.265117
11
39.129480
21
14.373044
0
LINE
8
Layer 1
10
39.129480
20
14.373044
11
39.116100
21
14.233500
0
LINE
8
Layer 1
10
39.116100
20
14.233500
11
39.116100
21
14.233500
0
LINE
8
Layer 1
10
77.191300
20
69.503200
11
75.826140
21
71.209100
0
LINE
8
Layer 1
10
75.826140
20
71.209100
11
72.336180
21
75.650370
0
LINE
8
Layer 1
10
72.336180
20
75.650370
11
68.134290
21
81.129820
0
LINE
8
Layer 1
10
68.134290
20
81.129820
11
63.434380
21
87.470560
0
LINE
8
Layer 1
10
63.434380
20
87.470560
11
60.213910
21
91.808760
0
LINE
8
Layer 1
10
60.213910
20
91.808760
11
58.218370
21
94.467820
0
LINE
8
Layer 1
10
58.218370
20
94.467820
11
55.522990
21
97.981700
0
LINE
8
Layer 1
10
55.522990
20
97.981700
11
53.249390
21
100.768980
0
LINE
8
Layer 1
10
53.249390
20
100.768980
11
51.060650
21
103.442850
0
LINE
8
Layer 1
10
51.060650
20
103.442850
11
48.867680
21
105.895390
0
LINE
8
Layer 1
10
48.867680
20
105.895390
11
46.651390
21
108.326030
0
LINE
8
Layer 1
10
46.651390
20
108.326030
11
45.533000
21
109.532000
0
LINE
8
Layer 1
10
45.533000
20
109.532000
11
43.579350
21
111.616450
0
LINE
8
Layer 1
10
43.579350
20
111.616450
11
42.411090
21
112.860270
0
LINE
8
Layer 1
10
42.411090
20
112.860270
11
42.118962
21
113.180440
0
LINE
8
Layer 1
10
42.118962
20
113.180440
11
41.825900
21
113.545000
0
LINE
8
Layer 1
10
41.825900
20
113.545000
11
41.239931
21
114.274214
0
LINE
8
Layer 1
10
41.239931
20
114.274214
11
38.898100
21
117.188000
0
LINE
8
Layer 1
10
38.898100
20
117.188000
11
37.970900
21
116.027000
0
LINE
8
Layer 1
10
37.970900
20
116.027000
11
36.612400
21
114.252000
0
LINE
8
Layer 1
10
36.612400
20
114.252000
11
35.843475
21
113.246930
0
LINE
8
Layer 1
10
35.843475
20
113.246930
11
35.652303
21
112.998713
0
LINE
8
Layer 1
10
35.652303
20
112.998713
11
35.462063
21
112.784224
0
LINE
8
Layer 1
10
35.462063
20
112.784224
11
35.082517
21
112.356629
0
LINE
8
Layer 1
10
35.082517
20
112.356629
11
33.567547
21
110.673379
0
LINE
8
Layer 1
10
33.567547
20
110.673379
11
32.879721
21
109.923998
0
LINE
8
Layer 1
10
32.879721
20
109.923998
11
32.647252
21
109.667193
0
LINE
8
Layer 1
10
32.647252
20
109.667193
11
32.481099
21
109.480593
0
LINE
8
Layer 1
10
32.481099
20
109.480593
11
31.814208
21
108.736190
0
LINE
8
Layer 1
10
31.814208
20
108.736190
11
30.476248
21
107.251000
0
LINE
8
Layer 1
10
30.476248
20
107.251000
11
28.515800
21
105.119000
0
LINE
8
Layer 1
10
28.515800
20
105.119000
11
27.628173
21
104.063111
0
LINE
8
Layer 1
10
27.628173
20
104.063111
11
26.685600
21
103.057460
0
LINE
8
Layer 1
10
26.685600
20
103.057460
11
26.449894
21
102.719615
0
LINE
8
Layer 1
10
26.449894
20
102.719615
11
26.033278
21
102.083901
0
LINE
8
Layer 1
10
26.033278
20
102.083901
11
25.546620
21
101.504295
0
LINE
8
Layer 1
10
25.546620
20
101.504295
11
25.015441
21
100.878259
0
LINE
8
Layer 1
10
25.015441
20
100.878259
11
24.548773
21
100.190515
0
LINE
8
Layer 1
10
24.548773
20
100.190515
11
23.839619
21
99.111280
0
LINE
8
Layer 1
10
23.839619
20
99.111280
11
22.822523
21
98.315565
0
LINE
8
Layer 1
10
22.822523
20
98.315565
11
22.439088
21
97.948219
0
LINE
8
Layer 1
10
22.439088
20
97.948219
11
21.740961
21
97.089542
0
LINE
8
Layer 1
10
21.740961
20
97.089542
11
18.540371
21
93.102872
0
LINE
8
Layer 1
10
18.540371
20
93.102872
11
17.614784
21
91.896512
0
LINE
8
Layer 1
10
17.614784
20
91.896512
11
16.715278
21
90.678712
0
LINE
8
Layer 1
10
16.715278
20
90.678712
11
16.242383
21
90.078443
0
LINE
8
Layer 1
10
16.242383
20
90.078443
11
15.721385
21
89.579282
0
LINE
8
Layer 1
10
15.721385
20
89.579282
11
15.404670
21
89.127414
0
LINE
8
Layer 1
10
15.404670
20
89.127414
11
14.043030
21
87.231434
0
LINE
8
Layer 1
10
14.043030
20
87.231434
11
11.974390
21
84.638474
0
LINE
8
Layer 1
10
11.974390
20
84.638474
11
11.134977
21
83.543284
0
LINE
8
Layer 1
10
11.134977
20
83.543284
11
10.008137
21
82.015394
0
LINE
8
Layer 1
10
10.008137
20
82.015394
11
9.763936
21
81.681906
0
LINE
8
Layer 1
10
9.763936
20
81.681906
11
8.817251
21
80.323186
0
LINE
8
Layer 1
10
8.817251
20
80.323186
11
7.873272
21
78.976916
0
LINE
8
Layer 1
10
7.873272
20
78.976916
11
6.849192
21
77.689396
0
LINE
8
Layer 1
10
6.849192
20
77.689396
11
6.449077
21
77.132961
0
LINE
8
Layer 1
10
6.449077
20
77.132961
11
4.999667
21
75.143621
0
LINE
8
Layer 1
10
4.999667
20
75.143621
11
4.080682
21
73.939251
0
LINE
8
Layer 1
10
4.080682
20
73.939251
11
3.078852
21
72.636301
0
LINE
8
Layer 1
10
3.078852
20
72.636301
11
1.634272
21
70.808911
0
LINE
8
Layer 1
10
1.634272
20
70.808911
11
1.501450
21
70.628413
0
LINE
8
Layer 1
10
1.501450
20
70.628413
11
1.325930
21
70.343087
0
LINE
8
Layer 1
10
1.325930
20
70.343087
11
0.622351
21
69.525614
0
LINE
8
Layer 1
10
0.622351
20
69.525614
11
0.411511
21
69.267189
0
LINE
8
Layer 1
10
0.411511
20
69.267189
11
0.796625
21
69.673126
0
LINE
8
Layer 1
10
0.796625
20
69.673126
11
2.278705
21
71.251186
0
LINE
8
Layer 1
10
2.278705
20
71.251186
11
3.300575
21
72.358576
0
LINE
8
Layer 1
10
3.300575
20
72.358576
11
4.125050
21
73.249122
0
LINE
8
Layer 1
10
4.125050
20
73.249122
11
5.722060
21
75.037182
0
LINE
8
Layer 1
10
5.722060
20
75.037182
11
6.173962
21
75.441251
0
LINE
8
Layer 1
10
6.173962
20
75.441251
11
6.533868
21
75.745735
0
LINE
8
Layer 1
10
6.533868
20
75.745735
11
7.066621
21
76.334286
0
LINE
8
Layer 1
10
7.066621
20
76.334286
11
8.021398
21
77.297402
0
LINE
8
Layer 1
10
8.021398
20
77.297402
11
8.311751
21
77.562550
0
LINE
8
Layer 1
10
8.311751
20
77.562550
11
8.259048
21
77.189134
0
LINE
8
Layer 1
10
8.259048
20
77.189134
11
8.173668
21
76.812173
0
LINE
8
Layer 1
10
8.173668
20
76.812173
11
8.846711
21
77.390641
0
LINE
8
Layer 1
10
8.846711
20
77.390641
11
9.618377
21
78.075416
0
LINE
8
Layer 1
10
9.618377
20
78.075416
11
9.435170
21
78.218195
0
LINE
8
Layer 1
10
9.435170
20
78.218195
11
9.638201
21
78.514215
0
LINE
8
Layer 1
10
9.638201
20
78.514215
11
10.344603
21
79.143720
0
LINE
8
Layer 1
10
10.344603
20
79.143720
11
11.548873
21
80.224350
0
LINE
8
Layer 1
10
11.548873
20
80.224350
11
11.887929
21
80.637382
0
LINE
8
Layer 1
10
11.887929
20
80.637382
11
12.758764
21
81.464378
0
LINE
8
Layer 1
10
12.758764
20
81.464378
11
13.750369
21
82.141872
0
LINE
8
Layer 1
10
13.750369
20
82.141872
11
14.380501
21
82.504619
0
LINE
8
Layer 1
10
14.380501
20
82.504619
11
14.870679
21
83.041627
0
LINE
8
Layer 1
10
14.870679
20
83.041627
11
15.564914
21
83.666277
0
LINE
8
Layer 1
10
15.564914
20
83.666277
11
15.930287
21
83.957867
0
LINE
8
Layer 1
10
15.930287
20
83.957867
11
16.182345
21
84.351552
0
LINE
8
Layer 1
10
16.182345
20
84.351552
11
16.285034
21
84.643275
0
LINE
8
Layer 1
10
16.285034
20
84.643275
11
16.543933
21
84.989148
0
LINE
8
Layer 1
10
16.543933
20
84.989148
11
17.019796
21
85.241471
0
LINE
8
Layer 1
10
17.019796
20
85.241471
11
17.573338
21
85.596992
0
LINE
8
Layer 1
10
17.573338
20
85.596992
11
18.235368
21
86.180310
0
LINE
8
Layer 1
10
18.235368
20
86.180310
11
19.007118
21
86.608032
0
LINE
8
Layer 1
10
19.007118
20
86.608032
11
19.624798
21
87.117412
0
LINE
8
Layer 1
10
19.624798
20
87.117412
11
20.076521
21
87.619681
0
LINE
8
Layer 1
10
20.076521
20
87.619681
11
20.540239
21
88.114762
0
LINE
8
Layer 1
10
20.540239
20
88.114762
11
21.037838
21
88.568483
0
LINE
8
Layer 1
10
21.037838
20
88.568483
11
21.630019
21
88.901862
0
LINE
8
Layer 1
10
21.630019
20
88.901862
11
21.952396
21
89.157919
0
LINE
8
Layer 1
10
21.952396
20
89.157919
11
23.036659
21
90.204348
0
LINE
8
Layer 1
10
23.036659
20
90.204348
11
24.176236
21
91.189719
0
LINE
8
Layer 1
10
24.176236
20
91.189719
11
25.319219
21
92.185074
0
LINE
8
Layer 1
10
25.319219
20
92.185074
11
26.368026
21
93.277909
0
LINE
8
Layer 1
10
26.368026
20
93.277909
11
26.704872
21
93.508075
0
LINE
8
Layer 1
10
26.704872
20
93.508075
11
28.684942
21
95.226055
0
LINE
8
Layer 1
10
28.684942
20
95.226055
11
29.069780
21
95.620788
0
LINE
8
Layer 1
10
29.069780
20
95.620788
11
33.279170
21
99.196288
0
LINE
8
Layer 1
10
33.279170
20
99.196288
11
36.417080
21
101.979458
0
LINE
8
Layer 1
10
36.417080
20
101.979458
11
36.384653
21
101.588459
0
LINE
8
Layer 1
10
36.384653
20
101.588459
11
35.977161
21
94.921209
0
LINE
8
Layer 1
10
35.977161
20
94.921209
11
35.554731
21
87.314119
0
LINE
8
Layer 1
10
35.554731
20
87.314119
11
35.376536
21
82.106169
0
LINE
8
Layer 1
10
35.376536
20
82.106169
11
35.310405
21
78.899759
0
LINE
8
Layer 1
10
35.310405
20
78.899759
11
35.279192
21
74.623679
0
LINE
8
Layer 1
10
35.279192
20
74.623679
11
35.353980
21
71.141419
0
LINE
8
Layer 1
10
35.353980
20
71.141419
11
35.421234
21
67.795839
0
LINE
8
Layer 1
10
35.421234
20
67.795839
11
36.130966
21
54.394839
0
LINE
8
Layer 1
10
36.130966
20
54.394839
11
36.209889
21
53.458858
0
LINE
8
Layer 1
10
36.209889
20
53.458858
11
36.379993
21
51.318138
0
LINE
8
Layer 1
10
36.379993
20
51.318138
11
36.598210
21
47.439158
0
LINE
8
Layer 1
10
36.598210
20
47.439158
11
36.723875
21
44.628108
0
LINE
8
Layer 1
10
36.723875
20
44.628108
11
36.859624
21
41.953618
0
LINE
8
Layer 1
10
36.859624
20
41.953618
11
36.902240
21
41.558137
0
LINE
8
Layer 1
10
36.902240
20
41.558137
11
37.034565
21
40.098467
0
LINE
8
Layer 1
10
37.034565
20
40.098467
11
37.164587
21
38.506347
0
LINE
8
Layer 1
10
37.164587
20
38.506347
11
37.302646
21
37.272819
0
LINE
8
Layer 1
10
37.302646
20
37.272819
11
37.245903
21
36.032887
0
LINE
8
Layer 1
10
37.245903
20
36.032887
11
37.246900
21
35.518154
0
LINE
8
Layer 1
10
37.246900
20
35.518154
11
37.310882
21
34.446864
0
LINE
8
Layer 1
10
37.310882
20
34.446864
11
37.596101
21
29.500454
0
LINE
8
Layer 1
10
37.596101
20
29.500454
11
37.687471
21
28.032314
0
LINE
8
Layer 1
10
37.687471
20
28.032314
11
37.786000
21
26.573384
0
LINE
8
Layer 1
10
37.786000
20
26.573384
11
37.822316
21
25.135244
0
LINE
8
Layer 1
10
37.822316
20
25.135244
11
37.861621
21
24.605200
0
LINE
8
Layer 1
10
37.861621
20
24.605200
11
38.011249
21
22.359790
0
LINE
8
Layer 1
10
38.011249
20
22.359790
11
38.150856
21
19.151140
0
LINE
8
Layer 1
10
38.150856
20
19.151140
11
38.215025
21
17.818930
0
LINE
8
Layer 1
10
38.215025
20
17.818930
11
38.310698
21
15.989670
0
LINE
8
Layer 1
10
38.310698
20
15.989670
11
38.331270
21
15.591576
0
LINE
8
Layer 1
10
38.331270
20
15.591576
11
38.424121
21
14.001696
0
LINE
8
Layer 1
10
38.424121
20
14.001696
11
38.510480
21
12.422516
0
LINE
8
Layer 1
10
38.510480
20
12.422516
11
38.563106
21
10.831386
0
LINE
8
Layer 1
10
38.563106
20
10.831386
11
38.593979
21
10.172005
0
LINE
8
Layer 1
10
38.593979
20
10.172005
11
38.696084
21
7.802115
0
LINE
8
Layer 1
10
38.696084
20
7.802115
11
38.745628
21
6.339695
0
LINE
8
Layer 1
10
38.745628
20
6.339695
11
38.795017
21
4.752555
0
LINE
8
Layer 1
10
38.795017
20
4.752555
11
38.851743
21
2.500175
0
LINE
8
Layer 1
10
38.851743
20
2.500175
11
38.858900
21
2.284323
0
LINE
8
Layer 1
10
38.858900
20
2.284323
11
38.876234
21
1.965898
0
LINE
8
Layer 1
10
38.876234
20
1.965898
11
38.888714
21
0.920248
0
LINE
8
Layer 1
10
38.888714
20
0.920248
11
38.894379
21
0.598588
0
LINE
8
Layer 1
10
38.894379
20
0.598588
11
38.894751
21
1.140333
0
LINE
8
Layer 1
10
38.894751
20
1.140333
11
38.893340
21
3.241713
0
LINE
8
Layer 1
10
38.893340
20
3.241713
11
38.888824
21
4.704133
0
LINE
8
Layer 1
10
38.888824
20
4.704133
11
38.885525
21
5.881983
0
LINE
8
Layer 1
10
38.885525
20
5.881983
11
38.866261
21
8.208053
0
LINE
8
Layer 1
10
38.866261
20
8.208053
11
38.880826
21
8.794228
0
LINE
8
Layer 1
10
38.880826
20
8.794228
11
38.896230
21
9.248837
0
LINE
8
Layer 1
10
38.896230
20
9.248837
11
38.891376
21
10.019255
0
LINE
8
Layer 1
10
38.891376
20
10.019255
11
38.901491
21
11.335155
0
LINE
8
Layer 1
10
38.901491
20
11.335155
11
38.910522
21
11.715819
0
LINE
8
Layer 1
10
38.910522
20
11.715819
11
39.036029
21
11.093909
0
LINE
8
Layer 1
10
39.036029
20
11.093909
11
39.066791
21
11.950594
0
LINE
8
Layer 1
10
39.066791
20
11.950594
11
39.098473
21
12.947944
0
LINE
8
Layer 1
10
39.098473
20
12.947944
11
39.025962
21
12.926777
0
LINE
8
Layer 1
10
39.025962
20
12.926777
11
39.009280
21
13.271088
0
LINE
8
Layer 1
10
39.009280
20
13.271088
11
39.037220
21
14.185905
0
LINE
8
Layer 1
10
39.037220
20
14.185905
11
39.085197
21
15.750895
0
LINE
8
Layer 1
10
39.085197
20
15.750895
11
39.074710
21
16.268366
0
LINE
8
Layer 1
10
39.074710
20
16.268366
11
39.192718
21
18.571036
0
LINE
8
Layer 1
10
39.192718
20
18.571036
11
39.268870
21
19.952286
0
LINE
8
Layer 1
10
39.268870
20
19.952286
11
39.301766
21
20.855653
0
LINE
8
Layer 1
10
39.301766
20
20.855653
11
39.299742
21
21.750678
0
LINE
8
Layer 1
10
39.299742
20
21.750678
11
39.240425
21
22.441800
0
LINE
8
Layer 1
10
39.240425
20
22.441800
11
39.307117
21
22.936865
0
LINE
8
Layer 1
10
39.307117
20
22.936865
11
39.370261
21
23.556413
0
LINE
8
Layer 1
10
39.370261
20
23.556413
11
39.516734
21
25.225093
0
LINE
8
Layer 1
10
39.516734
20
25.225093
11
39.562762
21
25.996124
0
LINE
8
Layer 1
10
39.562762
20
25.996124
11
39.569577
21
27.309904
0
LINE
8
Layer 1
10
39.569577
20
27.309904
11
39.684845
21
28.591574
0
LINE
8
Layer 1
10
39.684845
20
28.591574
11
39.713725
21
28.986928
0
LINE
8
Layer 1
10
39.713725
20
28.986928
11
39.847326
21
31.902548
0
LINE
8
Layer 1
10
39.847326
20
31.902548
11
39.964496
21
34.836588
0
LINE
8
Layer 1
10
39.964496
20
34.836588
11
40.010117
21
35.223480
0
LINE
8
Layer 1
10
40.010117
20
35.223480
11
40.178039
21
37.755190
0
LINE
8
Layer 1
10
40.178039
20
37.755190
11
40.193350
21
38.290091
0
LINE
8
Layer 1
10
40.193350
20
38.290091
11
40.623527
21
43.617921
0
LINE
8
Layer 1
10
40.623527
20
43.617921
11
41.076984
21
49.229691
0
LINE
8
Layer 1
10
41.076984
20
49.229691
11
41.523874
21
55.118181
0
LINE
8
Layer 1
10
41.523874
20
55.118181
11
41.627258
21
56.591421
0
LINE
8
Layer 1
10
41.627258
20
56.591421
11
42.159105
21
63.688391
0
LINE
8
Layer 1
10
42.159105
20
63.688391
11
42.712709
21
75.480091
0
LINE
8
Layer 1
10
42.712709
20
75.480091
11
42.760509
21
82.572331
0
LINE
8
Layer 1
10
42.760509
20
82.572331
11
42.649844
21
89.391701
0
LINE
8
Layer 1
10
42.649844
20
89.391701
11
42.598776
21
96.218291
0
LINE
8
Layer 1
10
42.598776
20
96.218291
11
42.680095
21
99.653001
0
LINE
8
Layer 1
10
42.680095
20
99.653001
11
50.496900
21
92.029000
0
LINE
8
Layer 1
10
50.496900
20
92.029000
11
56.020170
21
87.193620
0
LINE
8
Layer 1
10
56.020170
20
87.193620
11
61.425850
21
82.634220
0
LINE
8
Layer 1
10
61.425850
20
82.634220
11
66.804340
21
78.038600
0
LINE
8
Layer 1
10
66.804340
20
78.038600
11
70.144910
21
75.120620
0
LINE
8
Layer 1
10
70.144910
20
75.120620
11
75.043210
21
71.039350
0
LINE
8
Layer 1
10
75.043210
20
71.039350
11
77.288340
21
69.258880
0
LINE
8
Layer 1
10
77.288340
20
69.258880
11
77.795180
21
68.808385
0
LINE
8
Layer 1
10
77.795180
20
68.808385
11
77.191300
21
69.503200
0
LINE
8
Layer 1
10
77.191300
20
69.503200
11
77.191300
21
69.503200
0
LINE
8
Layer 1
10
5.621000
20
75.577180
11
5.489981
21
75.482574
0
LINE
8
Layer 1
10
5.489981
20
75.482574
11
5.541238
21
75.574067
0
LINE
8
Layer 1
10
5.541238
20
75.574067
11
5.884279
21
75.948384
0
LINE
8
Layer 1
10
5.884279
20
75.948384
11
5.621040
21
75.577200
0
LINE
8
Layer 1
10
5.621040
20
75.577200
11
5.621000
21
75.577180
0
LINE
8
Layer 1
10
11.678350
20
81.089990
11
11.659740
21
81.137669
0
LINE
8
Layer 1
10
11.659740
20
81.137669
11
11.848702
21
81.323769
0
LINE
8
Layer 1
10
11.848702
20
81.323769
11
11.861651
21
81.276590
0
LINE
8
Layer 1
10
11.861651
20
81.276590
11
11.678400
21
81.090000
0
LINE
8
Layer 1
10
11.678400
20
81.090000
11
11.678350
21
81.089990
0
LINE
8
Layer 1
10
14.795100
20
83.801210
11
13.917720
21
83.318218
0
LINE
8
Layer 1
10
13.917720
20
83.318218
11
13.840792
21
83.340251
0
LINE
8
Layer 1
10
13.840792
20
83.340251
11
13.894849
21
83.536435
0
LINE
8
Layer 1
10
13.894849
20
83.536435
11
13.996488
21
83.647224
0
LINE
8
Layer 1
10
13.996488
20
83.647224
11
14.661121
21
84.277477
0
LINE
8
Layer 1
10
14.661121
20
84.277477
11
14.891919
21
84.499896
0
LINE
8
Layer 1
10
14.891919
20
84.499896
11
15.050782
21
84.502168
0
LINE
8
Layer 1
10
15.050782
20
84.502168
11
15.089683
21
84.324904
0
LINE
8
Layer 1
10
15.089683
20
84.324904
11
15.002435
21
84.019363
0
LINE
8
Layer 1
10
15.002435
20
84.019363
11
14.795100
21
83.801200
0
LINE
8
Layer 1
10
14.795100
20
83.801200
11
14.795100
21
83.801210
0
LINE
8
Layer 1
10
18.412340
20
86.923710
11
17.847876
21
86.291840
0
LINE
8
Layer 1
10
17.847876
20
86.291840
11
17.246848
21
85.825530
0
LINE
8
Layer 1
10
17.246848
20
85.825530
11
17.084274
21
85.875571
0
LINE
8
Layer 1
10
17.084274
20
85.875571
11
17.113123
21
85.985240
0
LINE
8
Layer 1
10
17.113123
20
85.985240
11
18.273423
21
87.094000
0
LINE
8
Layer 1
10
18.273423
20
87.094000
11
18.372666
21
87.101222
0
LINE
8
Layer 1
10
18.372666
20
87.101222
11
18.412400
21
86.923700
0
LINE
8
Layer 1
10
18.412400
20
86.923700
11
18.412340
21
86.923710
0
LINE
8
Layer 1
10
38.729540
20
8.368110
11
38.721852
21
8.466823
0
LINE
8
Layer 1
10
38.721852
20
8.466823
11
38.718087
21
8.959523
0
LINE
8
Layer 1
10
38.718087
20
8.959523
11
38.737787
21
8.522217
0
LINE
8
Layer 1
10
38.737787
20
8.522217
11
38.729500
21
8.368120
0
LINE
8
Layer 1
10
38.729500
20
8.368120
11
38.729540
21
8.368110
0
LINE
8
Layer 1
10
38.921335
20
16.448610
11
38.909261
21
16.727076
0
LINE
8
Layer 1
10
38.909261
20
16.727076
11
38.921300
21
16.448600
0
LINE
8
Layer 1
10
38.921300
20
16.448600
11
38.921335
21
16.448610
0
LINE
8
Layer 1
10
39.067509
20
20.438380
11
38.957623
21
19.513231
0
LINE
8
Layer 1
10
38.957623
20
19.513231
11
38.932756
21
19.477505
0
LINE
8
Layer 1
10
38.932756
20
19.477505
11
38.899488
21
19.652028
0
LINE
8
Layer 1
10
38.899488
20
19.652028
11
38.898743
21
19.797920
0
LINE
8
Layer 1
10
38.898743
20
19.797920
11
38.916977
21
20.685601
0
LINE
8
Layer 1
10
38.916977
20
20.685601
11
38.963505
21
21.103735
0
LINE
8
Layer 1
10
38.963505
20
21.103735
11
39.017127
21
21.004392
0
LINE
8
Layer 1
10
39.017127
20
21.004392
11
39.067500
21
20.438400
0
LINE
8
Layer 1
10
39.067500
20
20.438400
11
39.067509
21
20.438380
0
LINE
8
Layer 1
10
39.270912
20
24.230100
11
39.223016
21
23.500511
0
LINE
8
Layer 1
10
39.223016
20
23.500511
11
39.165880
21
23.427565
0
LINE
8
Layer 1
10
39.165880
20
23.427565
11
39.146026
21
23.524288
0
LINE
8
Layer 1
10
39.146026
20
23.524288
11
39.184086
21
25.079818
0
LINE
8
Layer 1
10
39.184086
20
25.079818
11
39.210164
21
25.151020
0
LINE
8
Layer 1
10
39.210164
20
25.151020
11
39.267173
21
25.052059
0
LINE
8
Layer 1
10
39.267173
20
25.052059
11
39.270900
21
24.230100
0
LINE
8
Layer 1
10
39.270900
20
24.230100
11
39.270912
21
24.230100
0
LINE
8
Layer 1
10
6.013560
20
74.837200
11
5.540652
21
74.345993
0
LINE
8
Layer 1
10
5.540652
20
74.345993
11
5.462790
21
74.204210
0
LINE
8
Layer 1
10
5.462790
20
74.204210
11
5.614563
21
74.274415
0
LINE
8
Layer 1
10
5.614563
20
74.274415
11
6.911933
21
75.479905
0
LINE
8
Layer 1
10
6.911933
20
75.479905
11
7.131927
21
75.748598
0
LINE
8
Layer 1
10
7.131927
20
75.748598
11
7.116394
21
76.064720
0
LINE
8
Layer 1
10
7.116394
20
76.064720
11
6.013560
21
74.837200
0
LINE
8
Layer 1
10
6.013560
20
74.837200
11
6.013560
21
74.837200
0
LINE
8
Layer 1
10
0.017422
20
68.828500
11
0.153388
21
68.978501
0
LINE
8
Layer 1
10
0.153388
20
68.978501
11
0.354426
21
69.204682
0
LINE
8
Layer 1
10
0.354426
20
69.204682
11
0.170939
21
69.002893
0
LINE
8
Layer 1
10
0.170939
20
69.002893
11
0.017422
21
68.828500
0
LINE
8
Layer 1
10
0.017422
20
68.828500
11
0.017422
21
68.828500
0
LINE
8
Layer 1
10
0.354426
20
69.204700
11
0.410786
21
69.266693
0
LINE
8
Layer 1
10
0.410786
20
69.266693
11
0.354426
21
69.204700
0
LINE
8
Layer 1
10
0.354426
20
69.204700
11
0.354426
21
69.204700
0
LINE
8
Layer 1
10
10.523600
20
78.937800
11
10.614876
21
79.000665
0
LINE
8
Layer 1
10
10.614876
20
79.000665
11
10.684492
21
79.087925
0
LINE
8
Layer 1
10
10.684492
20
79.087925
11
10.556741
21
79.010749
0
LINE
8
Layer 1
10
10.556741
20
79.010749
11
10.523600
21
78.937800
0
LINE
8
Layer 1
10
10.523600
20
78.937800
11
10.523600
21
78.937800
 0 
ENDSEC
 0 
EOF