999
"DXF R12 Output" (www.mydxf.blogspot.com)
 0 
SECTION
 2 
HEADER
 9 
$ACADVER
 1 
AC1009
 9 
$EXTMIN
 10 
 0 
 20 
 0 
 9 
$EXTMAX
 10 
 8.5 
 20 
 11 
 0 
ENDSEC
 0 
SECTION
 2 
ENTITIES
0
LINE
8
Layer 1
10
3.617560
20
0.559948
11
3.617185
21
0.631525
0
LINE
8
Layer 1
10
3.617185
20
0.631525
11
3.617560
21
0.559948
0
LINE
8
Layer 1
10
3.617560
20
0.559948
11
3.617560
21
0.559948
0
LINE
8
Layer 1
10
45.339100
20
60.710400
11
45.303373
21
60.734053
0
LINE
8
Layer 1
10
45.303373
20
60.734053
11
45.017685
21
60.923142
0
LINE
8
Layer 1
10
45.017685
20
60.923142
11
43.914525
21
61.681859
0
LINE
8
Layer 1
10
43.914525
20
61.681859
11
41.271775
21
63.554319
0
LINE
8
Layer 1
10
41.271775
20
63.554319
11
40.582891
21
64.027972
0
LINE
8
Layer 1
10
40.582891
20
64.027972
11
40.426420
21
64.146353
0
LINE
8
Layer 1
10
40.426420
20
64.146353
11
40.285006
21
64.264364
0
LINE
8
Layer 1
10
40.285006
20
64.264364
11
40.001062
21
64.500629
0
LINE
8
Layer 1
10
40.001062
20
64.500629
11
38.851602
21
65.446818
0
LINE
8
Layer 1
10
38.851602
20
65.446818
11
36.644782
21
67.227908
0
LINE
8
Layer 1
10
36.644782
20
67.227908
11
35.515732
21
68.103888
0
LINE
8
Layer 1
10
35.515732
20
68.103888
11
27.802800
21
73.653300
0
LINE
8
Layer 1
10
27.802800
20
73.653300
11
22.908170
21
76.671490
0
LINE
8
Layer 1
10
22.908170
20
76.671490
11
18.120340
21
79.471590
0
LINE
8
Layer 1
10
18.120340
20
79.471590
11
13.355550
21
82.310150
0
LINE
8
Layer 1
10
13.355550
20
82.310150
11
10.395240
21
84.129830
0
LINE
8
Layer 1
10
10.395240
20
84.129830
11
7.493430
21
85.835610
0
LINE
8
Layer 1
10
7.493430
20
85.835610
11
7.483349
21
87.721010
0
LINE
8
Layer 1
10
7.483349
20
87.721010
11
7.372684
21
94.965370
0
LINE
8
Layer 1
10
7.372684
20
94.965370
11
7.321523
21
102.217690
0
LINE
8
Layer 1
10
7.321523
20
102.217690
11
7.472390
21
106.770000
0
LINE
8
Layer 1
10
7.472390
20
106.770000
11
7.627195
21
110.033840
0
LINE
8
Layer 1
10
7.627195
20
110.033840
11
7.455587
21
113.296840
0
LINE
8
Layer 1
10
7.455587
20
113.296840
11
7.302626
21
114.118136
0
LINE
8
Layer 1
10
7.302626
20
114.118136
11
7.005522
21
114.891661
0
LINE
8
Layer 1
10
7.005522
20
114.891661
11
6.573475
21
115.598730
0
LINE
8
Layer 1
10
6.573475
20
115.598730
11
6.015686
21
116.220660
0
LINE
8
Layer 1
10
6.015686
20
116.220660
11
5.229664
21
116.735382
0
LINE
8
Layer 1
10
5.229664
20
116.735382
11
4.319508
21
116.917149
0
LINE
8
Layer 1
10
4.319508
20
116.917149
11
3.393971
21
116.687683
0
LINE
8
Layer 1
10
3.393971
20
116.687683
11
2.561807
21
115.968709
0
LINE
8
Layer 1
10
2.561807
20
115.968709
11
1.954463
21
114.909270
0
LINE
8
Layer 1
10
1.954463
20
114.909270
11
1.664570
21
113.723000
0
LINE
8
Layer 1
10
1.664570
20
113.723000
11
1.107380
21
107.923000
0
LINE
8
Layer 1
10
1.107380
20
107.923000
11
0.699953
21
100.839980
0
LINE
8
Layer 1
10
0.699953
20
100.839980
11
0.277585
21
92.758740
0
LINE
8
Layer 1
10
0.277585
20
92.758740
11
0.099342
21
87.225700
0
LINE
8
Layer 1
10
0.099342
20
87.225700
11
0.033229
21
83.819300
0
LINE
8
Layer 1
10
0.033229
20
83.819300
11
0.001984
21
79.276580
0
LINE
8
Layer 1
10
0.001984
20
79.276580
11
0.076798
21
75.577350
0
LINE
8
Layer 1
10
0.076798
20
75.577350
11
0.144018
21
72.023200
0
LINE
8
Layer 1
10
0.144018
20
72.023200
11
0.853691
21
57.786700
0
LINE
8
Layer 1
10
0.853691
20
57.786700
11
0.932612
21
56.792339
0
LINE
8
Layer 1
10
0.932612
20
56.792339
11
1.102778
21
54.518179
0
LINE
8
Layer 1
10
1.102778
20
54.518179
11
1.320995
21
50.397329
0
LINE
8
Layer 1
10
1.320995
20
50.397329
11
1.446722
21
47.411009
0
LINE
8
Layer 1
10
1.446722
20
47.411009
11
1.582409
21
44.569829
0
LINE
8
Layer 1
10
1.582409
20
44.569829
11
1.624982
21
44.149578
0
LINE
8
Layer 1
10
1.624982
20
44.149578
11
1.757429
21
42.599028
0
LINE
8
Layer 1
10
1.757429
20
42.599028
11
1.887389
21
40.907568
0
LINE
8
Layer 1
10
1.887389
20
40.907568
11
2.025457
21
39.596737
0
LINE
8
Layer 1
10
2.025457
20
39.596737
11
1.968669
21
38.279878
0
LINE
8
Layer 1
10
1.968669
20
38.279878
11
1.969665
21
37.733031
0
LINE
8
Layer 1
10
1.969665
20
37.733031
11
2.033650
21
36.595141
0
LINE
8
Layer 1
10
2.033650
20
36.595141
11
2.318840
21
31.340200
0
LINE
8
Layer 1
10
2.318840
20
31.340200
11
2.410209
21
29.780570
0
LINE
8
Layer 1
10
2.410209
20
29.780570
11
2.508798
21
28.230650
0
LINE
8
Layer 1
10
2.508798
20
28.230650
11
2.545148
21
26.702880
0
LINE
8
Layer 1
10
2.545148
20
26.702880
11
2.584360
21
26.139726
0
LINE
8
Layer 1
10
2.584360
20
26.139726
11
2.733986
21
23.754276
0
LINE
8
Layer 1
10
2.733986
20
23.754276
11
2.873531
21
20.345716
0
LINE
8
Layer 1
10
2.873531
20
20.345716
11
2.937765
21
18.930356
0
LINE
8
Layer 1
10
2.937765
20
18.930356
11
3.033368
21
16.987066
0
LINE
8
Layer 1
10
3.033368
20
16.987066
11
3.054029
21
16.564074
0
LINE
8
Layer 1
10
3.054029
20
16.564074
11
3.146894
21
14.875224
0
LINE
8
Layer 1
10
3.146894
20
14.875224
11
3.233285
21
13.197454
0
LINE
8
Layer 1
10
3.233285
20
13.197454
11
3.285815
21
11.507114
0
LINE
8
Layer 1
10
3.285815
20
11.507114
11
3.316687
21
10.806656
0
LINE
8
Layer 1
10
3.316687
20
10.806656
11
3.418761
21
8.289006
0
LINE
8
Layer 1
10
3.418761
20
8.289006
11
3.468306
21
6.735596
0
LINE
8
Layer 1
10
3.468306
20
6.735596
11
3.517850
21
5.049366
0
LINE
8
Layer 1
10
3.517850
20
5.049366
11
3.574613
21
2.656576
0
LINE
8
Layer 1
10
3.574613
20
2.656576
11
3.581708
21
2.427279
0
LINE
8
Layer 1
10
3.581708
20
2.427279
11
3.599011
21
2.089061
0
LINE
8
Layer 1
10
3.599011
20
2.089061
11
3.611460
21
0.978181
0
LINE
8
Layer 1
10
3.611460
20
0.978181
11
3.617186
21
0.633870
0
LINE
8
Layer 1
10
3.617186
20
0.633870
11
3.617434
21
1.212089
0
LINE
8
Layer 1
10
3.617434
20
1.212089
11
3.616190
21
3.444299
0
LINE
8
Layer 1
10
3.616190
20
3.444299
11
3.611584
21
4.997959
0
LINE
8
Layer 1
10
3.611584
20
4.997959
11
3.608223
21
6.249129
0
LINE
8
Layer 1
10
3.608223
20
6.249129
11
3.589054
21
8.720349
0
LINE
8
Layer 1
10
3.589054
20
8.720349
11
3.603617
21
9.343131
0
LINE
8
Layer 1
10
3.603617
20
9.343131
11
3.618930
21
9.826120
0
LINE
8
Layer 1
10
3.618930
20
9.826120
11
3.614200
21
10.644465
0
LINE
8
Layer 1
10
3.614200
20
10.644465
11
3.624281
21
12.042395
0
LINE
8
Layer 1
10
3.624281
20
12.042395
11
3.633369
21
12.446712
0
LINE
8
Layer 1
10
3.633369
20
12.446712
11
3.758848
21
11.786211
0
LINE
8
Layer 1
10
3.758848
20
11.786211
11
3.789469
21
12.696174
0
LINE
8
Layer 1
10
3.789469
20
12.696174
11
3.821213
21
13.755764
0
LINE
8
Layer 1
10
3.821213
20
13.755764
11
3.748640
21
13.733231
0
LINE
8
Layer 1
10
3.748640
20
13.733231
11
3.731960
21
14.098960
0
LINE
8
Layer 1
10
3.731960
20
14.098960
11
3.759968
21
15.070916
0
LINE
8
Layer 1
10
3.759968
20
15.070916
11
3.807892
21
16.733486
0
LINE
8
Layer 1
10
3.807892
20
16.733486
11
3.797450
21
17.283074
0
LINE
8
Layer 1
10
3.797450
20
17.283074
11
3.915461
21
19.729394
0
LINE
8
Layer 1
10
3.915461
20
19.729394
11
3.991641
21
21.196784
0
LINE
8
Layer 1
10
3.991641
20
21.196784
11
4.024490
21
22.156400
0
LINE
8
Layer 1
10
4.024490
20
22.156400
11
4.022498
21
23.107316
0
LINE
8
Layer 1
10
4.022498
20
23.107316
11
3.963245
21
23.841375
0
LINE
8
Layer 1
10
3.963245
20
23.841375
11
4.029968
21
24.367313
0
LINE
8
Layer 1
10
4.029968
20
24.367313
11
4.092954
21
25.025573
0
LINE
8
Layer 1
10
4.092954
20
25.025573
11
4.239594
21
26.798323
0
LINE
8
Layer 1
10
4.239594
20
26.798323
11
4.285653
21
27.617416
0
LINE
8
Layer 1
10
4.285653
20
27.617416
11
4.292375
21
29.013106
0
LINE
8
Layer 1
10
4.292375
20
29.013106
11
4.407646
21
30.374566
0
LINE
8
Layer 1
10
4.407646
20
30.374566
11
4.436526
21
30.794690
0
LINE
8
Layer 1
10
4.436526
20
30.794690
11
4.492045
21
32.454780
0
LINE
8
Layer 1
10
4.492045
20
32.454780
11
5.601425
21
33.394994
0
LINE
8
Layer 1
10
5.601425
20
33.394994
11
6.489479
21
34.167405
0
LINE
8
Layer 1
10
6.489479
20
34.167405
11
7.206000
21
34.788100
0
LINE
8
Layer 1
10
7.206000
20
34.788100
11
8.593480
21
36.046490
0
LINE
8
Layer 1
10
8.593480
20
36.046490
11
8.986968
21
36.311762
0
LINE
8
Layer 1
10
8.986968
20
36.311762
11
9.300539
21
36.507570
0
LINE
8
Layer 1
10
9.300539
20
36.507570
11
9.763488
21
36.920229
0
LINE
8
Layer 1
10
9.763488
20
36.920229
11
10.593906
21
37.578241
0
LINE
8
Layer 1
10
10.593906
20
37.578241
11
10.846605
21
37.753636
0
LINE
8
Layer 1
10
10.846605
20
37.753636
11
10.803786
21
37.432036
0
LINE
8
Layer 1
10
10.803786
20
37.432036
11
10.732206
21
37.114172
0
LINE
8
Layer 1
10
10.732206
20
37.114172
11
11.318381
21
37.488365
0
LINE
8
Layer 1
10
11.318381
20
37.488365
11
11.990459
21
37.936872
0
LINE
8
Layer 1
10
11.990459
20
37.936872
11
11.828136
21
38.102311
0
LINE
8
Layer 1
10
11.828136
20
38.102311
11
12.003904
21
38.323638
0
LINE
8
Layer 1
10
12.003904
20
38.323638
11
12.618970
21
38.736422
0
LINE
8
Layer 1
10
12.618970
20
38.736422
11
13.667730
21
39.446840
0
LINE
8
Layer 1
10
13.667730
20
39.446840
11
13.961882
21
39.743738
0
LINE
8
Layer 1
10
13.961882
20
39.743738
11
14.725325
21
40.301245
0
LINE
8
Layer 1
10
14.725325
20
40.301245
11
15.585252
21
40.693909
0
LINE
8
Layer 1
10
15.585252
20
40.693909
11
16.129271
21
40.881253
0
LINE
8
Layer 1
10
16.129271
20
40.881253
11
16.561813
21
41.260676
0
LINE
8
Layer 1
10
16.561813
20
41.260676
11
17.166296
21
41.671715
0
LINE
8
Layer 1
10
17.166296
20
41.671715
11
17.485377
21
41.855547
0
LINE
8
Layer 1
10
17.485377
20
41.855547
11
17.702690
21
42.152839
0
LINE
8
Layer 1
10
17.702690
20
42.152839
11
17.790340
21
42.391253
0
LINE
8
Layer 1
10
17.790340
20
42.391253
11
18.014765
21
42.645164
0
LINE
8
Layer 1
10
18.014765
20
42.645164
11
18.430783
21
42.770267
0
LINE
8
Layer 1
10
18.430783
20
42.770267
11
18.914023
21
42.971057
0
LINE
8
Layer 1
10
18.914023
20
42.971057
11
19.498878
21
43.355938
0
LINE
8
Layer 1
10
19.498878
20
43.355938
11
20.165063
21
43.571309
0
LINE
8
Layer 1
10
20.165063
20
43.571309
11
20.703325
21
43.895709
0
LINE
8
Layer 1
10
20.703325
20
43.895709
11
21.095768
21
44.248601
0
LINE
8
Layer 1
10
21.095768
20
44.248601
11
21.498762
21
44.592436
0
LINE
8
Layer 1
10
21.498762
20
44.592436
11
21.932056
21
44.892436
0
LINE
8
Layer 1
10
21.932056
20
44.892436
11
22.449568
21
45.065465
0
LINE
8
Layer 1
10
22.449568
20
45.065465
11
22.730523
21
45.225922
0
LINE
8
Layer 1
10
22.730523
20
45.225922
11
23.674019
21
45.931051
0
LINE
8
Layer 1
10
23.674019
20
45.931051
11
24.666713
21
46.570082
0
LINE
8
Layer 1
10
24.666713
20
46.570082
11
25.662212
21
47.217449
0
LINE
8
Layer 1
10
25.662212
20
47.217449
11
26.574153
21
47.971252
0
LINE
8
Layer 1
10
26.574153
20
47.971252
11
26.868180
21
48.105818
0
LINE
8
Layer 1
10
26.868180
20
48.105818
11
28.592880
21
49.221428
0
LINE
8
Layer 1
10
28.592880
20
49.221428
11
28.927488
21
49.492426
0
LINE
8
Layer 1
10
28.927488
20
49.492426
11
32.596088
21
51.794346
0
LINE
8
Layer 1
10
32.596088
20
51.794346
11
36.366898
21
54.329296
0
LINE
8
Layer 1
10
36.366898
20
54.329296
11
36.618358
21
54.507553
0
LINE
8
Layer 1
10
36.618358
20
54.507553
11
37.081055
21
54.867307
0
LINE
8
Layer 1
10
37.081055
20
54.867307
11
38.012057
21
55.594280
0
LINE
8
Layer 1
10
38.012057
20
55.594280
11
39.895467
21
57.074250
0
LINE
8
Layer 1
10
39.895467
20
57.074250
11
40.132855
21
57.261470
0
LINE
8
Layer 1
10
40.132855
20
57.261470
11
40.254473
21
57.355331
0
LINE
8
Layer 1
10
40.254473
20
57.355331
11
40.398872
21
57.450062
0
LINE
8
Layer 1
10
40.398872
20
57.450062
11
40.977709
21
57.830215
0
LINE
8
Layer 1
10
40.977709
20
57.830215
11
42.143479
21
58.595531
0
LINE
8
Layer 1
10
42.143479
20
58.595531
11
44.509629
21
60.146081
0
LINE
8
Layer 1
10
44.509629
20
60.146081
11
45.098553
21
60.538322
0
LINE
8
Layer 1
10
45.098553
20
60.538322
11
45.243948
21
60.636665
0
LINE
8
Layer 1
10
45.243948
20
60.636665
11
45.316521
21
60.685958
0
LINE
8
Layer 1
10
45.316521
20
60.685958
11
45.339100
21
60.710400
0
LINE
8
Layer 1
10
45.339100
20
60.710400
11
45.339100
21
60.710400
0
LINE
8
Layer 1
10
3.452370
20
8.890040
11
3.444654
21
8.994852
0
LINE
8
Layer 1
10
3.444654
20
8.994852
11
3.440920
21
9.518300
0
LINE
8
Layer 1
10
3.440920
20
9.518300
11
3.460588
21
9.053732
0
LINE
8
Layer 1
10
3.460588
20
9.053732
11
3.452370
21
8.890040
0
LINE
8
Layer 1
10
3.452370
20
8.890040
11
3.452370
21
8.890040
0
LINE
8
Layer 1
10
3.644072
20
17.474320
11
3.632123
21
17.770089
0
LINE
8
Layer 1
10
3.632123
20
17.770089
11
3.644080
21
17.474300
0
LINE
8
Layer 1
10
3.644080
20
17.474300
11
3.644072
21
17.474320
0
LINE
8
Layer 1
10
3.790215
20
21.712930
11
3.680431
21
20.729894
0
LINE
8
Layer 1
10
3.680431
20
20.729894
11
3.655533
21
20.692051
0
LINE
8
Layer 1
10
3.655533
20
20.692051
11
3.622299
21
20.877406
0
LINE
8
Layer 1
10
3.622299
20
20.877406
11
3.621551
21
21.032510
0
LINE
8
Layer 1
10
3.621551
20
21.032510
11
3.639850
21
21.975338
0
LINE
8
Layer 1
10
3.639850
20
21.975338
11
3.686282
21
22.419615
0
LINE
8
Layer 1
10
3.686282
20
22.419615
11
3.739932
21
22.314177
0
LINE
8
Layer 1
10
3.739932
20
22.314177
11
3.790220
21
21.712900
0
LINE
8
Layer 1
10
3.790220
20
21.712900
11
3.790215
21
21.712930
0
LINE
8
Layer 1
10
3.993618
20
25.740920
11
3.945818
21
24.965896
0
LINE
8
Layer 1
10
3.945818
20
24.965896
11
3.888679
21
24.888344
0
LINE
8
Layer 1
10
3.888679
20
24.888344
11
3.868887
21
24.991166
0
LINE
8
Layer 1
10
3.868887
20
24.991166
11
3.906987
21
26.643666
0
LINE
8
Layer 1
10
3.906987
20
26.643666
11
3.932881
21
26.719228
0
LINE
8
Layer 1
10
3.932881
20
26.719228
11
3.990017
21
26.614165
0
LINE
8
Layer 1
10
3.990017
20
26.614165
11
3.993620
21
25.740900
0
LINE
8
Layer 1
10
3.993620
20
25.740900
11
3.993618
21
25.740920
0
LINE
8
Layer 1
10
8.499738
20
36.548320
11
8.385463
21
36.491554
0
LINE
8
Layer 1
10
8.385463
20
36.491554
11
8.429653
21
36.562262
0
LINE
8
Layer 1
10
8.429653
20
36.562262
11
8.727789
21
36.823797
0
LINE
8
Layer 1
10
8.727789
20
36.823797
11
8.499740
21
36.548300
0
LINE
8
Layer 1
10
8.499740
20
36.548300
11
8.499738
21
36.548320
0
LINE
8
Layer 1
10
13.773668
20
40.190540
11
13.756862
21
40.236847
0
LINE
8
Layer 1
10
13.756862
20
40.236847
11
13.921304
21
40.363198
0
LINE
8
Layer 1
10
13.921304
20
40.363198
11
13.933005
21
40.318260
0
LINE
8
Layer 1
10
13.933005
20
40.318260
11
13.773700
21
40.190500
0
LINE
8
Layer 1
10
13.773700
20
40.190500
11
13.773668
21
40.190540
0
LINE
8
Layer 1
10
16.488358
20
41.952830
11
15.721561
21
41.706481
0
LINE
8
Layer 1
10
15.721561
20
41.706481
11
15.653828
21
41.742207
0
LINE
8
Layer 1
10
15.653828
20
41.742207
11
15.699514
21
41.905653
0
LINE
8
Layer 1
10
15.699514
20
41.905653
11
15.787770
21
41.983081
0
LINE
8
Layer 1
10
15.787770
20
41.983081
11
16.366362
21
42.405198
0
LINE
8
Layer 1
10
16.366362
20
42.405198
11
16.567152
21
42.555079
0
LINE
8
Layer 1
10
16.567152
20
42.555079
11
16.706696
21
42.523830
0
LINE
8
Layer 1
10
16.706696
20
42.523830
11
16.742538
21
42.357771
0
LINE
8
Layer 1
10
16.742538
20
42.357771
11
16.668630
21
42.103846
0
LINE
8
Layer 1
10
16.668630
20
42.103846
11
16.488400
21
41.952800
0
LINE
8
Layer 1
10
16.488400
20
41.952800
11
16.488358
21
41.952830
0
LINE
8
Layer 1
10
19.639300
20
43.976900
11
19.149080
21
43.532248
0
LINE
8
Layer 1
10
19.149080
20
43.532248
11
18.625011
21
43.242705
0
LINE
8
Layer 1
10
18.625011
20
43.242705
11
18.481608
21
43.321253
0
LINE
8
Layer 1
10
18.481608
20
43.321253
11
18.506006
21
43.412995
0
LINE
8
Layer 1
10
18.506006
20
43.412995
11
19.515796
21
44.157646
0
LINE
8
Layer 1
10
19.515796
20
44.157646
11
19.602932
21
44.143207
0
LINE
8
Layer 1
10
19.602932
20
44.143207
11
19.639300
21
43.976900
0
LINE
8
Layer 1
10
19.639300
20
43.976900
11
19.639300
21
43.976900
0
LINE
8
Layer 1
10
30.056400
20
59.559600
11
28.352990
21
58.070550
0
LINE
8
Layer 1
10
28.352990
20
58.070550
11
27.582057
21
57.316407
0
LINE
8
Layer 1
10
27.582057
20
57.316407
11
26.763600
21
56.616970
0
LINE
8
Layer 1
10
26.763600
20
56.616970
11
26.558952
21
56.365891
0
LINE
8
Layer 1
10
26.558952
20
56.365891
11
26.197970
21
55.887783
0
LINE
8
Layer 1
10
26.197970
20
55.887783
11
25.776209
21
55.472608
0
LINE
8
Layer 1
10
25.776209
20
55.472608
11
25.315736
21
55.025218
0
LINE
8
Layer 1
10
25.315736
20
55.025218
11
24.911932
21
54.510231
0
LINE
8
Layer 1
10
24.911932
20
54.510231
11
24.299379
21
53.698182
0
LINE
8
Layer 1
10
24.299379
20
53.698182
11
23.411672
21
53.201571
0
LINE
8
Layer 1
10
23.411672
20
53.201571
11
23.077936
21
52.954599
0
LINE
8
Layer 1
10
23.077936
20
52.954599
11
22.472209
21
52.336047
0
LINE
8
Layer 1
10
22.472209
20
52.336047
11
19.695389
21
49.454917
0
LINE
8
Layer 1
10
19.695389
20
49.454917
11
18.892854
21
48.574207
0
LINE
8
Layer 1
10
18.892854
20
48.574207
11
18.113357
21
47.677689
0
LINE
8
Layer 1
10
18.113357
20
47.677689
11
17.703190
21
47.242064
0
LINE
8
Layer 1
10
17.703190
20
47.242064
11
17.249701
21
46.906523
0
LINE
8
Layer 1
10
17.249701
20
46.906523
11
16.975593
21
46.570298
0
LINE
8
Layer 1
10
16.975593
20
46.570298
11
15.796003
21
45.166638
0
LINE
8
Layer 1
10
15.796003
20
45.166638
11
14.001473
21
43.289948
0
LINE
8
Layer 1
10
14.001473
20
43.289948
11
13.273504
21
42.490151
0
LINE
8
Layer 1
10
13.273504
20
42.490151
11
12.297067
21
41.365081
0
LINE
8
Layer 1
10
12.297067
20
41.365081
11
12.085448
21
41.119229
0
LINE
8
Layer 1
10
12.085448
20
41.119229
11
11.265858
21
40.107069
0
LINE
8
Layer 1
10
11.265858
20
40.107069
11
10.448261
21
39.105609
0
LINE
8
Layer 1
10
10.448261
20
39.105609
11
9.559956
21
38.173116
0
LINE
8
Layer 1
10
9.559956
20
38.173116
11
9.213387
21
37.761205
0
LINE
8
Layer 1
10
9.213387
20
37.761205
11
7.957497
21
36.292565
0
LINE
8
Layer 1
10
7.957497
20
36.292565
11
7.160688
21
35.412354
0
LINE
8
Layer 1
10
7.160688
20
35.412354
11
6.292054
21
34.461435
0
LINE
8
Layer 1
10
6.292054
20
34.461435
11
5.039024
21
33.136075
0
LINE
8
Layer 1
10
5.039024
20
33.136075
11
4.924002
21
33.003129
0
LINE
8
Layer 1
10
4.924002
20
33.003129
11
4.772260
21
32.785660
0
LINE
8
Layer 1
10
4.772260
20
32.785660
11
4.496529
21
32.524870
0
LINE
8
Layer 1
10
4.496529
20
32.524870
11
4.570099
21
33.892180
0
LINE
8
Layer 1
10
4.570099
20
33.892180
11
4.687221
21
37.009080
0
LINE
8
Layer 1
10
4.687221
20
37.009080
11
4.732907
21
37.420119
0
LINE
8
Layer 1
10
4.732907
20
37.420119
11
4.900829
21
40.109679
0
LINE
8
Layer 1
10
4.900829
20
40.109679
11
4.916139
21
40.677939
0
LINE
8
Layer 1
10
4.916139
20
40.677939
11
5.346350
21
46.338009
0
LINE
8
Layer 1
10
5.346350
20
46.338009
11
5.799838
21
52.299579
0
LINE
8
Layer 1
10
5.799838
20
52.299579
11
6.246728
21
58.555169
0
LINE
8
Layer 1
10
6.246728
20
58.555169
11
6.350047
21
60.120279
0
LINE
8
Layer 1
10
6.350047
20
60.120279
11
6.881835
21
67.659779
0
LINE
8
Layer 1
10
6.881835
20
67.659779
11
7.435529
21
80.186479
0
LINE
8
Layer 1
10
7.435529
20
80.186479
11
7.496153
21
84.162559
0
LINE
8
Layer 1
10
7.496153
20
84.162559
11
8.490390
21
83.146539
0
LINE
8
Layer 1
10
8.490390
20
83.146539
11
12.241400
21
79.246269
0
LINE
8
Layer 1
10
12.241400
20
79.246269
11
16.440050
21
74.694959
0
LINE
8
Layer 1
10
16.440050
20
74.694959
11
19.317080
21
71.582159
0
LINE
8
Layer 1
10
19.317080
20
71.582159
11
21.099410
21
69.679329
0
LINE
8
Layer 1
10
21.099410
20
69.679329
11
23.505390
21
67.178239
0
LINE
8
Layer 1
10
23.505390
20
67.178239
11
25.532330
21
65.225989
0
LINE
8
Layer 1
10
25.532330
20
65.225989
11
27.483090
21
63.354529
0
LINE
8
Layer 1
10
27.483090
20
63.354529
11
29.532060
21
61.599579
0
LINE
8
Layer 1
10
29.532060
20
61.599579
11
30.565010
21
60.732810
0
LINE
8
Layer 1
10
30.565010
20
60.732810
11
30.979783
21
60.388242
0
LINE
8
Layer 1
10
30.979783
20
60.388242
11
30.056400
21
59.559600
0
LINE
8
Layer 1
10
8.851530
20
35.806900
11
8.440366
21
35.468434
0
LINE
8
Layer 1
10
8.440366
20
35.468434
11
8.373144
21
35.358393
0
LINE
8
Layer 1
10
8.373144
20
35.358393
11
8.505966
21
35.389265
0
LINE
8
Layer 1
10
8.505966
20
35.389265
11
9.635396
21
36.191300
0
LINE
8
Layer 1
10
9.635396
20
36.191300
11
9.826257
21
36.384623
0
LINE
8
Layer 1
10
9.826257
20
36.384623
11
9.809671
21
36.669438
0
LINE
8
Layer 1
10
9.809671
20
36.669438
11
8.851530
21
35.806900
0
LINE
8
Layer 1
10
8.851530
20
35.806900
11
8.851530
21
35.806900
0
LINE
8
Layer 1
10
12.778300
20
38.515100
11
12.857968
21
38.552071
0
LINE
8
Layer 1
10
12.857968
20
38.552071
11
12.918341
21
38.615184
0
LINE
8
Layer 1
10
12.918341
20
38.615184
11
12.806680
21
38.573108
0
LINE
8
Layer 1
10
12.806680
20
38.573108
11
12.778300
21
38.515100
0
LINE
8
Layer 1
10
12.778300
20
38.515100
11
12.778300
21
38.515100
0
LINE
8
Layer 1
10
3.689390
20
8.776250
11
3.686650
21
8.073176
0
LINE
8
Layer 1
10
3.686650
20
8.073176
11
3.697854
21
7.911847
0
LINE
8
Layer 1
10
3.697854
20
7.911847
11
3.715781
21
8.071808
0
LINE
8
Layer 1
10
3.715781
20
8.071808
11
3.753124
21
9.893978
0
LINE
8
Layer 1
10
3.753124
20
9.893978
11
3.679803
21
10.477300
0
LINE
8
Layer 1
10
3.679803
20
10.477300
11
3.689390
21
8.776250
0
LINE
8
Layer 1
10
3.689390
20
8.776250
11
3.689390
21
8.776250
0
LINE
8
Layer 1
10
3.620670
20
0.027040
11
3.619674
21
0.235673
0
LINE
8
Layer 1
10
3.619674
20
0.235673
11
3.617560
21
0.559946
0
LINE
8
Layer 1
10
3.617560
20
0.559946
11
3.618805
21
0.266418
0
LINE
8
Layer 1
10
3.618805
20
0.266418
11
3.620670
21
0.027040
0
LINE
8
Layer 1
10
3.620670
20
0.027040
11
3.620670
21
0.027040
0
LINE
8
Layer 1
10
3.838890
20
15.121000
11
3.846857
21
15.042825
0
LINE
8
Layer 1
10
3.846857
20
15.042825
11
3.854700
21
15.154606
0
LINE
8
Layer 1
10
3.854700
20
15.154606
11
3.852211
21
15.269256
0
LINE
8
Layer 1
10
3.852211
20
15.269256
11
3.838890
21
15.121000
0
LINE
8
Layer 1
10
3.838890
20
15.121000
11
3.838890
21
15.121000
 0 
ENDSEC
 0 
EOF