999
"DXF R12 Output" (www.mydxf.blogspot.com)
 0 
SECTION
 2 
HEADER
 9 
$ACADVER
 1 
AC1009
 9 
$EXTMIN
 10 
 0 
 20 
 0 
 9 
$EXTMAX
 10 
 8.5 
 20 
 11 
 0 
ENDSEC
 0 
SECTION
 2 
ENTITIES
0
LINE
8
Layer 1
10
72.667000
20
79.914600
11
72.704346
21
80.254559
0
LINE
8
Layer 1
10
72.704346
20
80.254559
11
72.811836
21
81.068922
0
LINE
8
Layer 1
10
72.811836
20
81.068922
11
72.903454
21
81.956104
0
LINE
8
Layer 1
10
72.903454
20
81.956104
11
72.895860
21
82.908885
0
LINE
8
Layer 1
10
72.895860
20
82.908885
11
72.891062
21
82.989053
0
LINE
8
Layer 1
10
72.891062
20
82.989053
11
72.888759
21
83.029261
0
LINE
8
Layer 1
10
72.888759
20
83.029261
11
72.717038
21
83.121376
0
LINE
8
Layer 1
10
72.717038
20
83.121376
11
72.421080
21
83.251585
0
LINE
8
Layer 1
10
72.421080
20
83.251585
11
71.846346
21
83.515861
0
LINE
8
Layer 1
10
71.846346
20
83.515861
11
70.726696
21
84.061467
0
LINE
8
Layer 1
10
70.726696
20
84.061467
11
70.451465
21
84.203250
0
LINE
8
Layer 1
10
70.451465
20
84.203250
11
70.248547
21
84.317776
0
LINE
8
Layer 1
10
70.248547
20
84.317776
11
69.876530
21
84.541220
0
LINE
8
Layer 1
10
69.876530
20
84.541220
11
69.161134
21
85.007033
0
LINE
8
Layer 1
10
69.161134
20
85.007033
11
67.691814
21
85.732389
0
LINE
8
Layer 1
10
67.691814
20
85.732389
11
66.403503
21
86.256098
0
LINE
8
Layer 1
10
66.403503
20
86.256098
11
65.114914
21
86.794839
0
LINE
8
Layer 1
10
65.114914
20
86.794839
11
63.859683
21
87.376885
0
LINE
8
Layer 1
10
63.859683
20
87.376885
11
62.706124
21
88.080489
0
LINE
8
Layer 1
10
62.706124
20
88.080489
11
61.955436
21
88.459660
0
LINE
8
Layer 1
10
61.955436
20
88.459660
11
59.125377
21
89.724956
0
LINE
8
Layer 1
10
59.125377
20
89.724956
11
56.339366
21
91.060840
0
LINE
8
Layer 1
10
56.339366
20
91.060840
11
53.533420
21
92.400404
0
LINE
8
Layer 1
10
53.533420
20
92.400404
11
50.663236
21
93.620190
0
LINE
8
Layer 1
10
50.663236
20
93.620190
11
49.940183
21
94.018281
0
LINE
8
Layer 1
10
49.940183
20
94.018281
11
47.549212
21
95.229630
0
LINE
8
Layer 1
10
47.549212
20
95.229630
11
45.089803
21
96.339121
0
LINE
8
Layer 1
10
45.089803
20
96.339121
11
44.047023
21
96.787007
0
LINE
8
Layer 1
10
44.047023
20
96.787007
11
33.861923
21
101.725087
0
LINE
8
Layer 1
10
33.861923
20
101.725087
11
23.079223
21
106.795487
0
LINE
8
Layer 1
10
23.079223
20
106.795487
11
17.392800
21
109.383000
0
LINE
8
Layer 1
10
17.392800
20
109.383000
11
14.541700
21
110.661000
0
LINE
8
Layer 1
10
14.541700
20
110.661000
11
13.116100
21
111.300000
0
LINE
8
Layer 1
10
13.116100
20
111.300000
11
12.403400
21
111.620000
0
LINE
8
Layer 1
10
12.403400
20
111.620000
11
12.046900
21
111.779000
0
LINE
8
Layer 1
10
12.046900
20
111.779000
11
11.399100
21
112.060000
0
LINE
8
Layer 1
10
11.399100
20
112.060000
11
8.578980
21
113.260000
0
LINE
8
Layer 1
10
8.578980
20
113.260000
11
7.165740
21
113.862869
0
LINE
8
Layer 1
10
7.165740
20
113.862869
11
5.741420
21
114.496356
0
LINE
8
Layer 1
10
5.741420
20
114.496356
11
2.221690
21
116.123706
0
LINE
8
Layer 1
10
2.221690
20
116.123706
11
0.443529
21
116.939000
0
LINE
8
Layer 1
10
0.443529
20
116.939000
11
0.220644
21
117.041000
0
LINE
8
Layer 1
10
0.220644
20
117.041000
11
0.164877
21
117.066000
0
LINE
8
Layer 1
10
0.164877
20
117.066000
11
0.129585
21
116.942000
0
LINE
8
Layer 1
10
0.129585
20
116.942000
11
0.120622
21
116.479000
0
LINE
8
Layer 1
10
0.120622
20
116.479000
11
0.103384
21
115.552000
0
LINE
8
Layer 1
10
0.103384
20
115.552000
11
0.011007
21
107.990000
0
LINE
8
Layer 1
10
0.011007
20
107.990000
11
0.000000
21
102.130000
0
LINE
8
Layer 1
10
0.000000
20
102.130000
11
0.021971
21
98.363500
0
LINE
8
Layer 1
10
0.021971
20
98.363500
11
0.505149
21
73.348600
0
LINE
8
Layer 1
10
0.505149
20
73.348600
11
1.205906
21
58.302800
0
LINE
8
Layer 1
10
1.205906
20
58.302800
11
2.010433
21
43.836100
0
LINE
8
Layer 1
10
2.010433
20
43.836100
11
2.770395
21
29.353900
0
LINE
8
Layer 1
10
2.770395
20
29.353900
11
3.198737
21
20.263730
0
LINE
8
Layer 1
10
3.198737
20
20.263730
11
3.962249
21
7.230430
0
LINE
8
Layer 1
10
3.962249
20
7.230430
11
4.373971
21
1.391600
0
LINE
8
Layer 1
10
4.373971
20
1.391600
11
4.433645
21
0.000698
0
LINE
8
Layer 1
10
4.433645
20
0.000698
11
4.471005
21
1.894632
0
LINE
8
Layer 1
10
4.471005
20
1.894632
11
4.648207
21
6.378592
0
LINE
8
Layer 1
10
4.648207
20
6.378592
11
5.156404
21
17.961792
0
LINE
8
Layer 1
10
5.156404
20
17.961792
11
5.858855
21
32.105892
0
LINE
8
Layer 1
10
5.858855
20
32.105892
11
6.789919
21
48.243592
0
LINE
8
Layer 1
10
6.789919
20
48.243592
11
7.423406
21
59.291592
0
LINE
8
Layer 1
10
7.423406
20
59.291592
11
7.795919
21
66.093782
0
LINE
8
Layer 1
10
7.795919
20
66.093782
11
8.245798
21
75.165282
0
LINE
8
Layer 1
10
8.245798
20
75.165282
11
8.504096
21
82.552412
0
LINE
8
Layer 1
10
8.504096
20
82.552412
11
8.746276
21
89.649872
0
LINE
8
Layer 1
10
8.746276
20
89.649872
11
8.837086
21
96.757172
0
LINE
8
Layer 1
10
8.837086
20
96.757172
11
8.890426
21
103.705882
0
LINE
8
Layer 1
10
8.890426
20
103.705882
11
8.927459
21
103.690320
0
LINE
8
Layer 1
10
8.927459
20
103.690320
11
9.747810
21
103.349000
0
LINE
8
Layer 1
10
9.747810
20
103.349000
11
11.599910
21
102.630988
0
LINE
8
Layer 1
10
11.599910
20
102.630988
11
15.832170
21
100.980488
0
LINE
8
Layer 1
10
15.832170
20
100.980488
11
23.458810
21
97.887978
0
LINE
8
Layer 1
10
23.458810
20
97.887978
11
28.971120
21
95.612708
0
LINE
8
Layer 1
10
28.971120
20
95.612708
11
31.616057
21
94.587272
0
LINE
8
Layer 1
10
31.616057
20
94.587272
11
34.234340
21
93.492278
0
LINE
8
Layer 1
10
34.234340
20
93.492278
11
35.031335
21
93.223038
0
LINE
8
Layer 1
10
35.031335
20
93.223038
11
36.503357
21
92.749167
0
LINE
8
Layer 1
10
36.503357
20
92.749167
11
37.954605
21
92.186978
0
LINE
8
Layer 1
10
37.954605
20
92.186978
11
39.527839
21
91.573048
0
LINE
8
Layer 1
10
39.527839
20
91.573048
11
41.136735
21
91.040998
0
LINE
8
Layer 1
10
41.136735
20
91.040998
11
43.641569
21
90.232622
0
LINE
8
Layer 1
10
43.641569
20
90.232622
11
45.986555
21
89.037338
0
LINE
8
Layer 1
10
45.986555
20
89.037338
11
46.982909
21
88.589700
0
LINE
8
Layer 1
10
46.982909
20
88.589700
11
49.109559
21
87.784676
0
LINE
8
Layer 1
10
49.109559
20
87.784676
11
58.942019
21
84.096776
0
LINE
8
Layer 1
10
58.942019
20
84.096776
11
61.873379
21
83.033086
0
LINE
8
Layer 1
10
61.873379
20
83.033086
11
64.797199
21
82.001756
0
LINE
8
Layer 1
10
64.797199
20
82.001756
11
66.268389
21
81.457397
0
LINE
8
Layer 1
10
66.268389
20
81.457397
11
67.622129
21
80.849176
0
LINE
8
Layer 1
10
67.622129
20
80.849176
11
68.689689
21
80.487305
0
LINE
8
Layer 1
10
68.689689
20
80.487305
11
68.822638
21
80.442243
0
LINE
8
Layer 1
10
68.822638
20
80.442243
11
68.902555
21
80.429543
0
LINE
8
Layer 1
10
68.902555
20
80.429543
11
69.019691
21
80.412863
0
LINE
8
Layer 1
10
69.019691
20
80.412863
11
69.162907
21
80.403900
0
LINE
8
Layer 1
10
69.162907
20
80.403900
11
69.237535
21
80.397801
0
LINE
8
Layer 1
10
69.237535
20
80.397801
11
69.264910
21
80.351991
0
LINE
8
Layer 1
10
69.264910
20
80.351991
11
69.305243
21
80.243194
0
LINE
8
Layer 1
10
69.305243
20
80.243194
11
69.322980
21
80.185056
0
LINE
8
Layer 1
10
69.322980
20
80.185056
11
69.310221
21
80.118209
0
LINE
8
Layer 1
10
69.310221
20
80.118209
11
69.280842
21
79.544099
0
LINE
8
Layer 1
10
69.280842
20
79.544099
11
69.554953
21
72.737419
0
LINE
8
Layer 1
10
69.554953
20
72.737419
11
69.695618
21
69.911059
0
LINE
8
Layer 1
10
69.695618
20
69.911059
11
69.924167
21
66.030339
0
LINE
8
Layer 1
10
69.924167
20
66.030339
11
69.975266
21
65.185855
0
LINE
8
Layer 1
10
69.975266
20
65.185855
11
70.218753
21
61.813145
0
LINE
8
Layer 1
10
70.218753
20
61.813145
11
70.455642
21
58.462965
0
LINE
8
Layer 1
10
70.455642
20
58.462965
11
70.594004
21
55.087515
0
LINE
8
Layer 1
10
70.594004
20
55.087515
11
70.684625
21
53.688825
0
LINE
8
Layer 1
10
70.684625
20
53.688825
11
70.995332
21
48.661125
0
LINE
8
Layer 1
10
70.995332
20
48.661125
11
71.154172
21
45.558905
0
LINE
8
Layer 1
10
71.154172
20
45.558905
11
71.318990
21
42.191915
0
LINE
8
Layer 1
10
71.318990
20
42.191915
11
71.520711
21
37.413675
0
LINE
8
Layer 1
10
71.520711
20
37.413675
11
71.547912
21
36.955708
0
LINE
8
Layer 1
10
71.547912
20
36.955708
11
71.616004
21
36.280269
0
LINE
8
Layer 1
10
71.616004
20
36.280269
11
71.664986
21
34.061879
0
LINE
8
Layer 1
10
71.664986
20
34.061879
11
71.688825
21
33.376980
0
LINE
8
Layer 1
10
71.688825
20
33.376980
11
71.690567
21
34.528940
0
LINE
8
Layer 1
10
71.690567
20
34.528940
11
71.686088
21
38.986640
0
LINE
8
Layer 1
10
71.686088
20
38.986640
11
71.669843
21
42.089110
0
LINE
8
Layer 1
10
71.669843
20
42.089110
11
71.658639
21
44.587710
0
LINE
8
Layer 1
10
71.658639
20
44.587710
11
71.593660
21
49.522420
0
LINE
8
Layer 1
10
71.593660
20
49.522420
11
71.645132
21
50.766120
0
LINE
8
Layer 1
10
71.645132
20
50.766120
11
71.698161
21
51.730473
0
LINE
8
Layer 1
10
71.698161
20
51.730473
11
71.681917
21
53.364803
0
LINE
8
Layer 1
10
71.681917
20
53.364803
11
71.715713
21
56.156433
0
LINE
8
Layer 1
10
71.715713
20
56.156433
11
71.745030
21
56.963825
0
LINE
8
Layer 1
10
71.745030
20
56.963825
11
71.962870
21
56.329930
0
LINE
8
Layer 1
10
71.962870
20
56.329930
11
72.159431
21
55.644685
0
LINE
8
Layer 1
10
72.159431
20
55.644685
11
72.252231
21
57.461875
0
LINE
8
Layer 1
10
72.252231
20
57.461875
11
72.343725
21
59.577825
0
LINE
8
Layer 1
10
72.343725
20
59.577825
11
72.223686
21
59.508954
0
LINE
8
Layer 1
10
72.223686
20
59.508954
11
72.112563
21
59.532887
0
LINE
8
Layer 1
10
72.112563
20
59.532887
11
72.057106
21
60.263221
0
LINE
8
Layer 1
10
72.057106
20
60.263221
11
72.139140
21
62.204021
0
LINE
8
Layer 1
10
72.139140
20
62.204021
11
72.273830
21
65.524081
0
LINE
8
Layer 1
10
72.273830
20
65.524081
11
72.237169
21
66.621761
0
LINE
8
Layer 1
10
72.237169
20
66.621761
11
72.301934
21
69.070539
0
LINE
8
Layer 1
10
72.301934
20
69.070539
11
72.559825
21
71.506561
0
LINE
8
Layer 1
10
72.559825
20
71.506561
11
72.771120
21
72.964129
0
LINE
8
Layer 1
10
72.771120
20
72.964129
11
72.757629
21
74.436871
0
LINE
8
Layer 1
10
72.757629
20
74.436871
11
72.834111
21
76.353391
0
LINE
8
Layer 1
10
72.834111
20
76.353391
11
72.899912
21
77.303594
0
LINE
8
Layer 1
10
72.899912
20
77.303594
11
72.813136
21
78.252111
0
LINE
8
Layer 1
10
72.813136
20
78.252111
11
72.638723
21
79.718131
0
LINE
8
Layer 1
10
72.638723
20
79.718131
11
72.667000
21
79.914600
0
LINE
8
Layer 1
10
72.667000
20
79.914600
11
72.667000
21
79.914600
0
LINE
8
Layer 1
10
71.119500
20
49.861500
11
71.094044
21
50.071002
0
LINE
8
Layer 1
10
71.094044
20
50.071002
11
71.086762
21
51.116402
0
LINE
8
Layer 1
10
71.086762
20
51.116402
11
71.149873
21
50.188388
0
LINE
8
Layer 1
10
71.149873
20
50.188388
11
71.119500
21
49.861600
0
LINE
8
Layer 1
10
71.119500
20
49.861600
11
71.119500
21
49.861500
0
LINE
8
Layer 1
10
71.774399
20
67.003700
11
71.728154
21
67.048762
0
LINE
8
Layer 1
10
71.728154
20
67.048762
11
71.737927
21
67.594492
0
LINE
8
Layer 1
10
71.737927
20
67.594492
11
71.779753
21
67.541960
0
LINE
8
Layer 1
10
71.779753
20
67.541960
11
71.774399
21
67.003700
0
LINE
8
Layer 1
10
72.181767
20
75.467850
11
71.874794
21
73.505020
0
LINE
8
Layer 1
10
71.874794
20
73.505020
11
71.803714
21
73.429334
0
LINE
8
Layer 1
10
71.803714
20
73.429334
11
71.708486
21
73.799544
0
LINE
8
Layer 1
10
71.708486
20
73.799544
11
71.706370
21
74.109142
0
LINE
8
Layer 1
10
71.706370
20
74.109142
11
71.757531
21
75.992052
0
LINE
8
Layer 1
10
71.757531
20
75.992052
11
71.772804
21
76.651354
0
LINE
8
Layer 1
10
71.772804
20
76.651354
11
71.886806
21
76.879234
0
LINE
8
Layer 1
10
71.886806
20
76.879234
11
72.036745
21
76.668612
0
LINE
8
Layer 1
10
72.036745
20
76.668612
11
72.184146
21
76.077301
0
LINE
8
Layer 1
10
72.184146
20
76.077301
11
72.181800
21
75.467900
0
LINE
8
Layer 1
10
72.181800
20
75.467900
11
72.181767
21
75.467850
0
LINE
8
Layer 1
10
72.536788
20
82.732870
11
72.534923
21
82.656439
0
LINE
8
Layer 1
10
72.534923
20
82.656439
11
72.530875
21
82.503573
0
LINE
8
Layer 1
10
72.530875
20
82.503573
11
72.392451
21
82.223242
0
LINE
8
Layer 1
10
72.392451
20
82.223242
11
72.332888
21
82.435357
0
LINE
8
Layer 1
10
72.332888
20
82.435357
11
72.331195
21
82.559092
0
LINE
8
Layer 1
10
72.331195
20
82.559092
11
72.293042
21
82.658679
0
LINE
8
Layer 1
10
72.293042
20
82.658679
11
72.068975
21
82.759260
0
LINE
8
Layer 1
10
72.068975
20
82.759260
11
71.620092
21
82.961294
0
LINE
8
Layer 1
10
71.620092
20
82.961294
11
70.713428
21
83.366359
0
LINE
8
Layer 1
10
70.713428
20
83.366359
11
69.110348
21
84.088105
0
LINE
8
Layer 1
10
69.110348
20
84.088105
11
68.997256
21
84.208614
0
LINE
8
Layer 1
10
68.997256
20
84.208614
11
69.248959
21
84.266250
0
LINE
8
Layer 1
10
69.248959
20
84.266250
11
69.927322
21
83.998862
0
LINE
8
Layer 1
10
69.927322
20
83.998862
11
71.048222
21
83.535417
0
LINE
8
Layer 1
10
71.048222
20
83.535417
11
71.785530
21
83.173673
0
LINE
8
Layer 1
10
71.785530
20
83.173673
11
72.271257
21
82.929551
0
LINE
8
Layer 1
10
72.271257
20
82.929551
11
72.525014
21
82.800214
0
LINE
8
Layer 1
10
72.525014
20
82.800214
11
72.537714
21
82.771086
0
LINE
8
Layer 1
10
72.537714
20
82.771086
11
72.536788
21
82.732870
0
LINE
8
Layer 1
10
71.943200
20
49.634500
11
71.935981
21
48.230590
0
LINE
8
Layer 1
10
71.935981
20
48.230590
11
71.976437
21
47.908182
0
LINE
8
Layer 1
10
71.976437
20
47.908182
11
72.038741
21
48.227852
0
LINE
8
Layer 1
10
72.038741
20
48.227852
11
72.155877
21
51.866462
0
LINE
8
Layer 1
10
72.155877
20
51.866462
11
72.131526
21
52.579760
0
LINE
8
Layer 1
10
72.131526
20
52.579760
11
71.903367
21
53.031362
0
LINE
8
Layer 1
10
71.903367
20
53.031362
11
71.943200
21
49.634500
0
LINE
8
Layer 1
10
71.943200
20
49.634500
11
71.943200
21
49.634500
0
LINE
8
Layer 1
10
71.690600
20
33.196900
11
71.689045
21
33.374909
0
LINE
8
Layer 1
10
71.689045
20
33.374909
11
71.688797
21
33.324617
0
LINE
8
Layer 1
10
71.688797
20
33.324617
11
71.690600
21
33.196900
0
LINE
8
Layer 1
10
71.690600
20
33.196900
11
71.690600
21
33.196900
0
LINE
8
Layer 1
10
71.703500
20
32.163000
11
71.699453
21
32.579766
0
LINE
8
Layer 1
10
71.699453
20
32.579766
11
71.690614
21
33.196949
0
LINE
8
Layer 1
10
71.690614
20
33.196949
11
71.695533
21
32.641135
0
LINE
8
Layer 1
10
71.695533
20
32.641135
11
71.702504
21
32.204917
0
LINE
8
Layer 1
10
71.702504
20
32.204917
11
71.703500
21
32.163000
0
LINE
8
Layer 1
10
71.703500
20
32.163000
11
71.703500
21
32.163000
0
LINE
8
Layer 1
10
72.385000
20
62.304400
11
72.410964
21
62.148300
0
LINE
8
Layer 1
10
72.410964
20
62.148300
11
72.434183
21
62.371495
0
LINE
8
Layer 1
10
72.434183
20
62.371495
11
72.424971
21
62.600541
0
LINE
8
Layer 1
10
72.424971
20
62.600541
11
72.385000
21
62.304400
0
LINE
8
Layer 1
10
72.385000
20
62.304400
11
72.385000
21
62.304400
 0 
ENDSEC
 0 
EOF