999
"DXF R12 Output" (www.mydxf.blogspot.com)
 0 
SECTION
 2 
HEADER
 9 
$ACADVER
 1 
AC1009
 9 
$EXTMIN
 10 
 0 
 20 
 0 
 9 
$EXTMAX
 10 
 8.5 
 20 
 11 
 0 
ENDSEC
 0 
SECTION
 2 
ENTITIES
0
LINE
8
Layer 1
10
43.786100
20
80.244800
11
43.757189
21
80.265588
0
LINE
8
Layer 1
10
43.757189
20
80.265588
11
43.698716
21
80.306793
0
LINE
8
Layer 1
10
43.698716
20
80.306793
11
43.579150
21
80.387830
0
LINE
8
Layer 1
10
43.579150
20
80.387830
11
42.179630
21
81.520620
0
LINE
8
Layer 1
10
42.179630
20
81.520620
11
41.523532
21
82.103197
0
LINE
8
Layer 1
10
41.523532
20
82.103197
11
40.774820
21
82.656767
0
LINE
8
Layer 1
10
40.774820
20
82.656767
11
39.405290
21
83.817067
0
LINE
8
Layer 1
10
39.405290
20
83.817067
11
39.287561
21
83.947152
0
LINE
8
Layer 1
10
39.287561
20
83.947152
11
39.192830
21
84.060430
0
LINE
8
Layer 1
10
39.192830
20
84.060430
11
39.002776
21
84.287362
0
LINE
8
Layer 1
10
39.002776
20
84.287362
11
38.593650
21
84.725413
0
LINE
8
Layer 1
10
38.593650
20
84.725413
11
38.055249
21
85.231556
0
LINE
8
Layer 1
10
38.055249
20
85.231556
11
35.974604
21
86.986769
0
LINE
8
Layer 1
10
35.974604
20
86.986769
11
33.954409
21
88.798846
0
LINE
8
Layer 1
10
33.954409
20
88.798846
11
31.917880
21
90.618339
0
LINE
8
Layer 1
10
31.917880
20
90.618339
11
29.788029
21
92.339236
0
LINE
8
Layer 1
10
29.788029
20
92.339236
11
29.279660
21
92.857455
0
LINE
8
Layer 1
10
29.279660
20
92.857455
11
25.761000
21
96.007700
0
LINE
8
Layer 1
10
25.761000
20
96.007700
11
24.988637
21
96.637337
0
LINE
8
Layer 1
10
24.988637
20
96.637337
11
17.619907
21
103.312557
0
LINE
8
Layer 1
10
17.619907
20
103.312557
11
13.709847
21
106.787717
0
LINE
8
Layer 1
10
13.709847
20
106.787717
11
13.587171
21
106.895769
0
LINE
8
Layer 1
10
13.587171
20
106.895769
11
13.401398
21
107.054234
0
LINE
8
Layer 1
10
13.401398
20
107.054234
11
12.936400
21
107.446000
0
LINE
8
Layer 1
10
12.936400
20
107.446000
11
12.001791
21
108.232228
0
LINE
8
Layer 1
10
12.001791
20
108.232228
11
10.114400
21
109.817000
0
LINE
8
Layer 1
10
10.114400
20
109.817000
11
8.203870
21
111.418090
0
LINE
8
Layer 1
10
8.203870
20
111.418090
11
7.236840
21
112.231000
0
LINE
8
Layer 1
10
7.236840
20
112.231000
11
6.235130
21
113.099000
0
LINE
8
Layer 1
10
6.235130
20
113.099000
11
1.982370
21
116.778000
0
LINE
8
Layer 1
10
1.982370
20
116.778000
11
0.906700
21
117.707000
0
LINE
8
Layer 1
10
0.906700
20
117.707000
11
0.637057
21
117.939000
0
LINE
8
Layer 1
10
0.637057
20
117.939000
11
0.502121
21
118.056000
0
LINE
8
Layer 1
10
0.502121
20
118.056000
11
0.434636
21
118.114000
0
LINE
8
Layer 1
10
0.434636
20
118.114000
11
0.408866
21
118.084124
0
LINE
8
Layer 1
10
0.408866
20
118.084124
11
0.401037
21
117.425000
0
LINE
8
Layer 1
10
0.401037
20
117.425000
11
0.370839
21
114.772040
0
LINE
8
Layer 1
10
0.370839
20
114.772040
11
0.244686
21
103.941000
0
LINE
8
Layer 1
10
0.244686
20
103.941000
11
0.227652
21
101.176000
0
LINE
8
Layer 1
10
0.227652
20
101.176000
11
0.218598
21
100.268154
0
LINE
8
Layer 1
10
0.218598
20
100.268154
11
0.195335
21
99.584372
0
LINE
8
Layer 1
10
0.195335
20
99.584372
11
0.010381
21
92.979259
0
LINE
8
Layer 1
10
0.010381
20
92.979259
11
0.022397
21
86.365200
0
LINE
8
Layer 1
10
0.022397
20
86.365200
11
0.505589
21
64.401500
0
LINE
8
Layer 1
10
0.505589
20
64.401500
11
1.206391
21
51.191100
0
LINE
8
Layer 1
10
1.206391
20
51.191100
11
2.010890
21
38.489100
0
LINE
8
Layer 1
10
2.010890
20
38.489100
11
2.770838
21
25.773300
0
LINE
8
Layer 1
10
2.770838
20
25.773300
11
3.199195
21
17.792020
0
LINE
8
Layer 1
10
3.199195
20
17.792020
11
3.962690
21
6.348420
0
LINE
8
Layer 1
10
3.962690
20
6.348420
11
4.374452
21
1.221880
0
LINE
8
Layer 1
10
4.374452
20
1.221880
11
4.434123
21
0.000698
0
LINE
8
Layer 1
10
4.434123
20
0.000698
11
4.471503
21
1.663557
0
LINE
8
Layer 1
10
4.471503
20
1.663557
11
4.648688
21
5.600557
0
LINE
8
Layer 1
10
4.648688
20
5.600557
11
5.156885
21
15.770857
0
LINE
8
Layer 1
10
5.156885
20
15.770857
11
5.859336
21
28.189657
0
LINE
8
Layer 1
10
5.859336
20
28.189657
11
6.790369
21
42.358957
0
LINE
8
Layer 1
10
6.790369
20
42.358957
11
7.383495
21
51.441157
0
LINE
8
Layer 1
10
7.383495
20
51.441157
11
9.034775
21
52.831387
0
LINE
8
Layer 1
10
9.034775
20
52.831387
11
11.104225
21
54.602767
0
LINE
8
Layer 1
10
11.104225
20
54.602767
11
12.772115
21
56.027957
0
LINE
8
Layer 1
10
12.772115
20
56.027957
11
16.038474
21
58.875357
0
LINE
8
Layer 1
10
16.038474
20
58.875357
11
16.905568
21
59.541212
0
LINE
8
Layer 1
10
16.905568
20
59.541212
11
17.586344
21
60.047479
0
LINE
8
Layer 1
10
17.586344
20
60.047479
11
18.671534
21
60.986432
0
LINE
8
Layer 1
10
18.671534
20
60.986432
11
20.564904
21
62.543452
0
LINE
8
Layer 1
10
20.564904
20
62.543452
11
21.125134
21
62.978765
0
LINE
8
Layer 1
10
21.125134
20
62.978765
11
20.840859
21
62.453046
0
LINE
8
Layer 1
10
20.840859
20
62.453046
11
20.508341
21
61.914445
0
LINE
8
Layer 1
10
20.508341
20
61.914445
11
21.786551
21
62.873952
0
LINE
8
Layer 1
10
21.786551
20
62.873952
11
23.264261
21
64.003752
0
LINE
8
Layer 1
10
23.264261
20
64.003752
11
23.084804
21
64.154741
0
LINE
8
Layer 1
10
23.084804
20
64.154741
11
23.538651
21
64.611094
0
LINE
8
Layer 1
10
23.538651
20
64.611094
11
24.892821
21
65.648904
0
LINE
8
Layer 1
10
24.892821
20
65.648904
11
27.205631
21
67.428374
0
LINE
8
Layer 1
10
27.205631
20
67.428374
11
27.917806
21
68.078791
0
LINE
8
Layer 1
10
27.917806
20
68.078791
11
29.602716
21
69.418684
0
LINE
8
Layer 1
10
29.602716
20
69.418684
11
31.401107
21
70.601911
0
LINE
8
Layer 1
10
31.401107
20
70.601911
11
32.513117
21
71.265831
0
LINE
8
Layer 1
10
32.513117
20
71.265831
11
33.493387
21
72.112251
0
LINE
8
Layer 1
10
33.493387
20
72.112251
11
34.827627
21
73.140471
0
LINE
8
Layer 1
10
34.827627
20
73.140471
11
35.507331
21
73.629132
0
LINE
8
Layer 1
10
35.507331
20
73.629132
11
36.087047
21
74.233051
0
LINE
8
Layer 1
10
36.087047
20
74.233051
11
36.957270
21
75.197404
0
LINE
8
Layer 1
10
36.957270
20
75.197404
11
37.773140
21
75.660601
0
LINE
8
Layer 1
10
37.773140
20
75.660601
11
38.756935
21
76.284628
0
LINE
8
Layer 1
10
38.756935
20
76.284628
11
39.151464
21
76.616871
0
LINE
8
Layer 1
10
39.151464
20
76.616871
11
39.600908
21
76.977745
0
LINE
8
Layer 1
10
39.600908
20
76.977745
11
40.516690
21
77.663640
0
LINE
8
Layer 1
10
40.516690
20
77.663640
11
40.989626
21
77.996131
0
LINE
8
Layer 1
10
40.989626
20
77.996131
11
41.230517
21
78.161318
0
LINE
8
Layer 1
10
41.230517
20
78.161318
11
41.451051
21
78.327750
0
LINE
8
Layer 1
10
41.451051
20
78.327750
11
42.365122
21
78.998084
0
LINE
8
Layer 1
10
42.365122
20
78.998084
11
43.241802
21
79.687092
0
LINE
8
Layer 1
10
43.241802
20
79.687092
11
43.627930
21
80.047094
0
LINE
8
Layer 1
10
43.627930
20
80.047094
11
43.794441
21
80.223734
0
LINE
8
Layer 1
10
43.794441
20
80.223734
11
43.786100
21
80.244800
0
LINE
8
Layer 1
10
43.786100
20
80.244800
11
43.786100
21
80.244800
0
LINE
8
Layer 1
10
5.274120
20
49.647000
11
5.240253
21
49.618744
0
LINE
8
Layer 1
10
5.240253
20
49.618744
11
5.275763
21
49.648620
0
LINE
8
Layer 1
10
5.275763
20
49.648620
11
5.274120
21
49.647000
0
LINE
8
Layer 1
10
8.495770
20
101.103000
11
8.529972
21
101.089307
0
LINE
8
Layer 1
10
8.529972
20
101.089307
11
8.553188
21
101.041879
0
LINE
8
Layer 1
10
8.553188
20
101.041879
11
8.600150
21
100.933331
0
LINE
8
Layer 1
10
8.600150
20
100.933331
11
8.633805
21
100.848185
0
LINE
8
Layer 1
10
8.633805
20
100.848185
11
8.741436
21
100.746608
0
LINE
8
Layer 1
10
8.741436
20
100.746608
11
8.658796
21
100.752334
0
LINE
8
Layer 1
10
8.658796
20
100.752334
11
8.565871
21
100.773995
0
LINE
8
Layer 1
10
8.565871
20
100.773995
11
8.515407
21
100.794162
0
LINE
8
Layer 1
10
8.515407
20
100.794162
11
8.393027
21
101.111097
0
LINE
8
Layer 1
10
8.393027
20
101.111097
11
8.495770
21
101.103000
0
LINE
8
Layer 1
10
8.495770
20
101.103000
11
8.495770
21
101.103000
0
LINE
8
Layer 1
10
16.198200
20
59.591500
11
15.959412
21
59.429426
0
LINE
8
Layer 1
10
15.959412
20
59.429426
11
16.083398
21
59.567602
0
LINE
8
Layer 1
10
16.083398
20
59.567602
11
16.779532
21
60.165738
0
LINE
8
Layer 1
10
16.779532
20
60.165738
11
16.198200
21
59.591500
0
LINE
8
Layer 1
10
16.198200
20
59.591500
11
16.198200
21
59.591500
0
LINE
8
Layer 1
10
28.239200
20
68.949420
11
27.874826
21
68.648289
0
LINE
8
Layer 1
10
27.874826
20
68.648289
11
27.875199
21
68.709159
0
LINE
8
Layer 1
10
27.875199
20
68.709159
11
28.247385
21
69.011153
0
LINE
8
Layer 1
10
28.247385
20
69.011153
11
28.239200
21
68.949400
0
LINE
8
Layer 1
10
28.239200
20
68.949400
11
28.239200
21
68.949420
0
LINE
8
Layer 1
10
34.523840
20
73.927700
11
34.224150
21
73.481653
0
LINE
8
Layer 1
10
34.224150
20
73.481653
11
33.812488
21
73.136245
0
LINE
8
Layer 1
10
33.812488
20
73.136245
11
32.298318
21
72.257651
0
LINE
8
Layer 1
10
32.298318
20
72.257651
11
32.201674
21
72.268977
0
LINE
8
Layer 1
10
32.201674
20
72.268977
11
32.388333
21
72.551676
0
LINE
8
Layer 1
10
32.388333
20
72.551676
11
32.594570
21
72.728815
0
LINE
8
Layer 1
10
32.594570
20
72.728815
11
33.889990
21
73.757405
0
LINE
8
Layer 1
10
33.889990
20
73.757405
11
34.341838
21
74.119428
0
LINE
8
Layer 1
10
34.341838
20
74.119428
11
34.568229
21
74.161598
0
LINE
8
Layer 1
10
34.568229
20
74.161598
11
34.523800
21
73.927700
0
LINE
8
Layer 1
10
34.523800
20
73.927700
11
34.523840
21
73.927700
0
LINE
8
Layer 1
10
37.026580
20
79.799260
11
36.785458
21
79.639054
0
LINE
8
Layer 1
10
36.785458
20
79.639054
11
36.760391
21
79.576065
0
LINE
8
Layer 1
10
36.760391
20
79.576065
11
36.752424
21
79.541459
0
LINE
8
Layer 1
10
36.752424
20
79.541459
11
36.716714
21
79.519550
0
LINE
8
Layer 1
10
36.716714
20
79.519550
11
36.538937
21
79.419341
0
LINE
8
Layer 1
10
36.538937
20
79.419341
11
36.443546
21
79.359228
0
LINE
8
Layer 1
10
36.443546
20
79.359228
11
36.366500
21
79.296117
0
LINE
8
Layer 1
10
36.366500
20
79.296117
11
36.180959
21
79.109890
0
LINE
8
Layer 1
10
36.180959
20
79.109890
11
34.672299
21
77.662540
0
LINE
8
Layer 1
10
34.672299
20
77.662540
11
30.285929
21
73.594100
0
LINE
8
Layer 1
10
30.285929
20
73.594100
11
28.481919
21
71.884220
0
LINE
8
Layer 1
10
28.481919
20
71.884220
11
26.027799
21
69.509480
0
LINE
8
Layer 1
10
26.027799
20
69.509480
11
25.494628
21
68.991636
0
LINE
8
Layer 1
10
25.494628
20
68.991636
11
23.390708
21
66.893616
0
LINE
8
Layer 1
10
23.390708
20
66.893616
11
21.297638
21
64.813276
0
LINE
8
Layer 1
10
21.297638
20
64.813276
11
19.123968
21
62.793806
0
LINE
8
Layer 1
10
19.123968
20
62.793806
11
18.244782
21
61.931519
0
LINE
8
Layer 1
10
18.244782
20
61.931519
11
15.074602
21
58.843989
0
LINE
8
Layer 1
10
15.074602
20
58.843989
11
13.096642
21
56.964669
0
LINE
8
Layer 1
10
13.096642
20
56.964669
11
10.946592
21
54.928769
0
LINE
8
Layer 1
10
10.946592
20
54.928769
11
7.873442
21
52.065679
0
LINE
8
Layer 1
10
7.873442
20
52.065679
11
7.583930
21
51.785221
0
LINE
8
Layer 1
10
7.583930
20
51.785221
11
7.389846
21
51.538249
0
LINE
8
Layer 1
10
7.389846
20
51.538249
11
7.423876
21
52.059332
0
LINE
8
Layer 1
10
7.423876
20
52.059332
11
7.796372
21
58.031712
0
LINE
8
Layer 1
10
7.796372
20
58.031712
11
8.246282
21
65.996692
0
LINE
8
Layer 1
10
8.246282
20
65.996692
11
8.504583
21
72.482822
0
LINE
8
Layer 1
10
8.504583
20
72.482822
11
8.746746
21
78.714512
0
LINE
8
Layer 1
10
8.746746
20
78.714512
11
8.837602
21
84.954922
0
LINE
8
Layer 1
10
8.837602
20
84.954922
11
8.892124
21
91.195332
0
LINE
8
Layer 1
10
8.892124
20
91.195332
11
8.915730
21
97.435600
0
LINE
8
Layer 1
10
8.915730
20
97.435600
11
8.915589
21
100.555870
0
LINE
8
Layer 1
10
8.915589
20
100.555870
11
8.915527
21
100.608524
0
LINE
8
Layer 1
10
8.915527
20
100.608524
11
9.392245
21
100.230598
0
LINE
8
Layer 1
10
9.392245
20
100.230598
11
11.447500
21
98.608700
0
LINE
8
Layer 1
10
11.447500
20
98.608700
11
13.440815
21
97.114794
0
LINE
8
Layer 1
10
13.440815
20
97.114794
11
15.389250
21
95.561510
0
LINE
8
Layer 1
10
15.389250
20
95.561510
11
16.002236
21
95.148354
0
LINE
8
Layer 1
10
16.002236
20
95.148354
11
17.141687
21
94.407188
0
LINE
8
Layer 1
10
17.141687
20
94.407188
11
18.235556
21
93.587974
0
LINE
8
Layer 1
10
18.235556
20
93.587974
11
19.419950
21
92.695613
0
LINE
8
Layer 1
10
19.419950
20
92.695613
11
20.660936
21
91.872244
0
LINE
8
Layer 1
10
20.660936
20
91.872244
11
22.598975
21
90.609434
0
LINE
8
Layer 1
10
22.598975
20
90.609434
11
24.277666
21
89.017994
0
LINE
8
Layer 1
10
24.277666
20
89.017994
11
25.009558
21
88.398074
0
LINE
8
Layer 1
10
25.009558
20
88.398074
11
26.618318
21
87.215004
0
LINE
8
Layer 1
10
26.618318
20
87.215004
11
34.066958
21
81.777014
0
LINE
8
Layer 1
10
34.066958
20
81.777014
11
36.298748
21
80.189244
0
LINE
8
Layer 1
10
36.298748
20
80.189244
11
36.390148
21
80.124762
0
LINE
8
Layer 1
10
36.390148
20
80.124762
11
36.428302
21
80.093893
0
LINE
8
Layer 1
10
36.428302
20
80.093893
11
36.504657
21
80.030903
0
LINE
8
Layer 1
10
36.504657
20
80.030903
11
36.601742
21
79.977129
0
LINE
8
Layer 1
10
36.601742
20
79.977129
11
36.785974
21
79.939658
0
LINE
8
Layer 1
10
36.785974
20
79.939658
11
36.983185
21
79.878041
0
LINE
8
Layer 1
10
36.983185
20
79.878041
11
37.035842
21
79.840198
0
LINE
8
Layer 1
10
37.035842
20
79.840198
11
37.026600
21
79.799300
0
LINE
8
Layer 1
10
37.026600
20
79.799300
11
37.026580
21
79.799260
0
LINE
8
Layer 1
10
41.248820
20
78.831165
11
40.684605
21
78.286059
0
LINE
8
Layer 1
10
40.684605
20
78.286059
11
39.799633
21
77.529332
0
LINE
8
Layer 1
10
39.799633
20
77.529332
11
39.195257
21
77.077091
0
LINE
8
Layer 1
10
39.195257
20
77.077091
11
38.422474
21
76.517668
0
LINE
8
Layer 1
10
38.422474
20
76.517668
11
38.220189
21
76.546548
0
LINE
8
Layer 1
10
38.220189
20
76.546548
11
38.322686
21
76.704268
0
LINE
8
Layer 1
10
38.322686
20
76.704268
11
39.664846
21
77.788998
0
LINE
8
Layer 1
10
39.664846
20
77.788998
11
40.364474
21
78.352155
0
LINE
8
Layer 1
10
40.364474
20
78.352155
11
41.027295
21
78.921659
0
LINE
8
Layer 1
10
41.027295
20
78.921659
11
41.226995
21
79.014510
0
LINE
8
Layer 1
10
41.226995
20
79.014510
11
41.248800
21
78.831200
0
LINE
8
Layer 1
10
41.248800
20
78.831200
11
41.248820
21
78.831165
0
LINE
8
Layer 1
10
15.393300
20
57.881100
11
15.203418
21
57.667241
0
LINE
8
Layer 1
10
15.203418
20
57.667241
11
15.457858
21
57.800935
0
LINE
8
Layer 1
10
15.457858
20
57.800935
11
17.972688
21
59.774715
0
LINE
8
Layer 1
10
17.972688
20
59.774715
11
18.435209
21
60.197736
0
LINE
8
Layer 1
10
18.435209
20
60.197736
11
18.590633
21
60.628039
0
LINE
8
Layer 1
10
18.590633
20
60.628039
11
16.339033
21
58.671679
0
LINE
8
Layer 1
10
16.339033
20
58.671679
11
15.393300
21
57.881100
0
LINE
8
Layer 1
10
15.393300
20
57.881100
11
15.393300
21
57.881100
0
LINE
8
Layer 1
10
25.030700
20
65.409400
11
25.195312
21
65.518338
0
LINE
8
Layer 1
10
25.195312
20
65.518338
11
25.342914
21
65.655142
0
LINE
8
Layer 1
10
25.342914
20
65.655142
11
25.118598
21
65.517700
0
LINE
8
Layer 1
10
25.118598
20
65.517700
11
25.030700
21
65.409400
0
LINE
8
Layer 1
10
25.030700
20
65.409400
11
25.030700
21
65.409400
 0 
ENDSEC
 0 
EOF